<svg xmlns="http://www.w3.org/2000/svg" id="图层_1" viewBox="0 0 256.1 102.1">
  <style>
    .st1{enable-background:new}.st2{fill:#fff}.st5{fill:none;stroke:#9a916c;stroke-width:2.448}.st6{fill:#ccc}.st7{opacity:.2;enable-background:new}.st9{fill:#333}.st10{opacity:.2;fill:#fff;enable-background:new}.st11{fill:none}.st12{fill:#f2f2f2}.st13{fill:#22b573;fill-opacity:.7}.st14{fill:#b3b3b3}.st15{fill:#d1c690}.st16{fill:#9d956c}.st17{opacity:.5;fill:#fff;enable-background:new}.st18{opacity:.5;fill:#f2f2f2}.st18,.st19,.st20{enable-background:new}.st19{fill:#fff;opacity:.55}.st20{opacity:3.000000e-02}.st21{fill:#e6e6e6}.st22{fill:#1a1a1a}.st22,.st23{opacity:.1;enable-background:new}.st24{fill:#666}.st25{fill:#999}.st26{fill:#404040}.st27{fill:#8d8c8c}.st29{fill:#8c8663}.st30{fill:#b8af82}.st31{fill:#80795b}.st32{fill:#5e5b43}.st33{fill:#9a916c}
  </style>
  <path id="Shape" fill="#00979d" d="M10.8.6v100.8h244.8V.6H10.8zM18 3.1c2.6 0 4.7 2.1 4.7 4.7s-2.1 4.7-4.7 4.7-4.7-2.1-4.7-4.7 2.1-4.7 4.7-4.7zm0 86.4c2.6 0 4.7 2.1 4.7 4.7s-2.1 4.7-4.7 4.7-4.7-2.1-4.7-4.7 2.1-4.7 4.7-4.7zm230.4 0c2.6 0 4.7 2.1 4.7 4.7s-2.1 4.7-4.7 4.7-4.7-2.1-4.7-4.7 2.1-4.7 4.7-4.7zm0-86.4c2.6 0 4.7 2.1 4.7 4.7s-2.1 4.7-4.7 4.7-4.7-2.1-4.7-4.7 2.1-4.7 4.7-4.7zM234 5.2c1.4 0 2.6 1.2 2.6 2.6 0 1.4-1.2 2.6-2.6 2.6-1.4 0-2.6-1.2-2.6-2.6s1.2-2.6 2.6-2.6zm-14.4 0c1.4 0 2.6 1.2 2.6 2.6 0 1.4-1.2 2.6-2.6 2.6-1.4 0-2.6-1.2-2.6-2.6s1.2-2.6 2.6-2.6zm-14.4 0c1.4 0 2.6 1.2 2.6 2.6 0 1.4-1.2 2.6-2.6 2.6-1.4 0-2.6-1.2-2.6-2.6s1.2-2.6 2.6-2.6zm-14.4 0c1.4 0 2.6 1.2 2.6 2.6 0 1.4-1.2 2.6-2.6 2.6-1.4 0-2.6-1.2-2.6-2.6s1.2-2.6 2.6-2.6zm-14.4 0c1.4 0 2.6 1.2 2.6 2.6 0 1.4-1.2 2.6-2.6 2.6s-2.6-1.2-2.6-2.6 1.2-2.6 2.6-2.6zm-14.4 0c1.4 0 2.6 1.2 2.6 2.6 0 1.4-1.2 2.6-2.6 2.6-1.4 0-2.6-1.2-2.6-2.6s1.2-2.6 2.6-2.6zm-14.4 0c1.4 0 2.6 1.2 2.6 2.6 0 1.4-1.2 2.6-2.6 2.6-1.4 0-2.6-1.2-2.6-2.6s1.2-2.6 2.6-2.6zm-14.4 0c1.4 0 2.6 1.2 2.6 2.6 0 1.4-1.2 2.6-2.6 2.6-1.4 0-2.6-1.2-2.6-2.6s1.2-2.6 2.6-2.6zm-14.4 0c1.4 0 2.6 1.2 2.6 2.6 0 1.4-1.2 2.6-2.6 2.6-1.4 0-2.6-1.2-2.6-2.6s1.2-2.6 2.6-2.6zm-14.4 0c1.4 0 2.6 1.2 2.6 2.6 0 1.4-1.2 2.6-2.6 2.6-1.4 0-2.6-1.2-2.6-2.6s1.2-2.6 2.6-2.6zM90 5.2c1.4 0 2.6 1.2 2.6 2.6 0 1.4-1.2 2.6-2.6 2.6-1.4 0-2.6-1.2-2.6-2.6s1.1-2.6 2.6-2.6zm-14.4 0c1.4 0 2.6 1.2 2.6 2.6 0 1.4-1.2 2.6-2.6 2.6S73 9.2 73 7.8s1.2-2.6 2.6-2.6zm-14.4 0c1.4 0 2.6 1.2 2.6 2.6 0 1.4-1.2 2.6-2.6 2.6-1.4 0-2.6-1.2-2.6-2.6s1.2-2.6 2.6-2.6zm-14.4 0c1.4 0 2.6 1.2 2.6 2.6 0 1.4-1.2 2.6-2.6 2.6-1.4 0-2.6-1.2-2.6-2.6s1.2-2.6 2.6-2.6zm-14.4 0c1.4 0 2.6 1.2 2.6 2.6 0 1.4-1.2 2.6-2.6 2.6-1.4 0-2.6-1.2-2.6-2.6s1.2-2.6 2.6-2.6zM234 91.6c1.4 0 2.6 1.2 2.6 2.6 0 1.4-1.2 2.6-2.6 2.6-1.4 0-2.6-1.2-2.6-2.6 0-1.4 1.1-2.6 2.6-2.6zm-14.4 0c1.4 0 2.6 1.2 2.6 2.6 0 1.4-1.2 2.6-2.6 2.6-1.4 0-2.6-1.2-2.6-2.6 0-1.4 1.1-2.6 2.6-2.6zm-14.4 0c1.4 0 2.6 1.2 2.6 2.6 0 1.4-1.2 2.6-2.6 2.6-1.4 0-2.6-1.2-2.6-2.6 0-1.4 1.1-2.6 2.6-2.6zm-14.4 0c1.4 0 2.6 1.2 2.6 2.6 0 1.4-1.2 2.6-2.6 2.6-1.4 0-2.6-1.2-2.6-2.6 0-1.4 1.1-2.6 2.6-2.6zm-14.4 0c1.4 0 2.6 1.2 2.6 2.6 0 1.4-1.2 2.6-2.6 2.6-1.4 0-2.6-1.2-2.6-2.6 0-1.4 1.1-2.6 2.6-2.6zm-14.4 0c1.4 0 2.6 1.2 2.6 2.6 0 1.4-1.2 2.6-2.6 2.6-1.4 0-2.6-1.2-2.6-2.6 0-1.4 1.1-2.6 2.6-2.6zm-14.4 0c1.4 0 2.6 1.2 2.6 2.6 0 1.4-1.2 2.6-2.6 2.6-1.4 0-2.6-1.2-2.6-2.6 0-1.4 1.1-2.6 2.6-2.6zm-14.4 0c1.4 0 2.6 1.2 2.6 2.6 0 1.4-1.2 2.6-2.6 2.6-1.4 0-2.6-1.2-2.6-2.6 0-1.4 1.1-2.6 2.6-2.6zm-14.4 0c1.4 0 2.6 1.2 2.6 2.6 0 1.4-1.2 2.6-2.6 2.6-1.4 0-2.6-1.2-2.6-2.6 0-1.4 1.1-2.6 2.6-2.6zm-14.4 0c1.4 0 2.6 1.2 2.6 2.6 0 1.4-1.2 2.6-2.6 2.6-1.4 0-2.6-1.2-2.6-2.6 0-1.4 1.1-2.6 2.6-2.6zm-14.4 0c1.4 0 2.6 1.2 2.6 2.6 0 1.4-1.2 2.6-2.6 2.6-1.4 0-2.6-1.2-2.6-2.6 0-1.4 1.1-2.6 2.6-2.6zm-14.4 0c1.4 0 2.6 1.2 2.6 2.6 0 1.4-1.2 2.6-2.6 2.6-1.4 0-2.6-1.2-2.6-2.6 0-1.4 1.1-2.6 2.6-2.6zm-14.4 0c1.4 0 2.6 1.2 2.6 2.6 0 1.4-1.2 2.6-2.6 2.6-1.4 0-2.6-1.2-2.6-2.6 0-1.4 1.1-2.6 2.6-2.6zm-14.4 0c1.4 0 2.6 1.2 2.6 2.6 0 1.4-1.2 2.6-2.6 2.6-1.4 0-2.6-1.2-2.6-2.6 0-1.4 1.1-2.6 2.6-2.6zm-14.4 0c1.4 0 2.6 1.2 2.6 2.6 0 1.4-1.2 2.6-2.6 2.6-1.4 0-2.6-1.2-2.6-2.6 0-1.4 1.1-2.6 2.6-2.6zm215.4-28.8c1.4 0 2.6 1.2 2.6 2.6 0 1.4-1.2 2.6-2.6 2.6-1.4 0-2.6-1.2-2.6-2.6 0-1.4 1.2-2.6 2.6-2.6zm-14.4 0c1.4 0 2.6 1.2 2.6 2.6 0 1.4-1.2 2.6-2.6 2.6-1.4 0-2.6-1.2-2.6-2.6 0-1.4 1.2-2.6 2.6-2.6zm14.4-14.4c1.4 0 2.6 1.2 2.6 2.6 0 1.4-1.2 2.6-2.6 2.6-1.4 0-2.6-1.2-2.6-2.6s1.2-2.6 2.6-2.6zm-14.4 0c1.4 0 2.6 1.2 2.6 2.6 0 1.4-1.2 2.6-2.6 2.6-1.4 0-2.6-1.2-2.6-2.6 0-1.4 1.2-2.6 2.6-2.6zM247.8 34c1.4 0 2.6 1.2 2.6 2.6s-1.2 2.6-2.6 2.6c-1.4 0-2.6-1.2-2.6-2.6s1.2-2.6 2.6-2.6zm-14.4 0c1.4 0 2.6 1.2 2.6 2.6s-1.2 2.6-2.6 2.6c-1.4 0-2.6-1.2-2.6-2.6 0-1.4 1.2-2.6 2.6-2.6z"/>
  <g id="text:TX1" transform="translate(2 16)">
    <g id="Group" transform="translate(.432 1.36)">
      <g id="TX1" class="st1">
        <path d="M11.3 228.2h3.4v-1.3h.5v3h-.5v-1.3h-3.4v-.4zm0 1.9l2 1.5 1.8-1.3v.6l-1 .7c-.2.1-.4.2-.5.3.1.1.3.2.4.3l1 .8v.6l-1.8-1.3-2 1.4v-.7l1.4-1c.1-.1.2-.1.3-.2-.1-.1-.2-.1-.3-.2l-1.3-1v-.5zm0 5.5v-.5h3c-.1-.1-.2-.3-.3-.4-.1-.2-.2-.3-.2-.5h.5c.1.3.3.5.4.7.2.2.3.3.5.4v.3h-3.9z" class="st2" transform="rotate(-90 6 6)"/>
      </g>
    </g>
  </g>
  <g id="text:RX0" transform="translate(2 28)">
    <g id="Group_1_" transform="translate(.432 1.76)">
      <g id="RX0" class="st1">
        <path d="M23.7 212.8h3.8v1.7c0 .3 0 .6-.1.8-.1.2-.2.3-.4.4-.2.1-.4.2-.6.2-.3 0-.5-.1-.7-.3s-.3-.4-.4-.8c-.1.1-.1.2-.2.3-.1.1-.3.3-.5.4l-1 .7v-.6l.8-.5c.2-.1.4-.3.5-.4l.3-.3c0-.1.1-.2.1-.2v-.9h-1.7v-.5zm2.2.5v1.1c0 .2 0 .4.1.5 0 .1.1.2.2.3.1.1.2.1.3.1.2 0 .3-.1.4-.2.1-.1.2-.3.2-.6v-1.2h-1.2zm-2.2 3l2 1.5 1.8-1.3v.6l-1 .7c-.2.1-.4.2-.5.3.1.1.3.2.4.3l1 .8v.6l-1.8-1.3-2 1.4v-.6l1.4-1c.1-.1.2-.1.3-.2-.1-.1-.2-.1-.3-.2l-1.3-1v-.6zm1.9 3.7c.5 0 .8 0 1.1.1.3.1.5.2.6.4s.2.4.2.7c0 .2 0 .4-.1.5-.1.2-.2.3-.4.4-.2.1-.3.2-.6.2-.2.1-.5.1-.9.1s-.8 0-1.1-.1c-.3-.1-.5-.2-.6-.4s-.2-.4-.2-.7c0-.4.1-.7.4-.9.4-.1.9-.3 1.6-.3zm0 .5c-.6 0-1 .1-1.3.2s-.3.3-.3.5.1.4.3.5c.2.1.6.2 1.3.2.6 0 1-.1 1.3-.2.2-.1.3-.3.3-.5s-.1-.4-.3-.5c-.2-.1-.7-.2-1.3-.2z" class="st2" transform="rotate(-90 6 6)"/>
      </g>
    </g>
  </g>
  <g id="text:RST" transform="translate(2 44)">
    <g id="Group_2_" transform="translate(.432 .016)">
      <g id="RST" class="st1">
        <path d="M40 198.6h3.8v1.7c0 .3 0 .6-.1.8-.1.2-.2.3-.4.4-.2.1-.4.2-.6.2-.3 0-.5-.1-.7-.3s-.3-.4-.4-.8c-.1.1-.1.2-.2.3-.1.1-.3.3-.5.4l-1 .7v-.6l.8-.5c.2-.1.4-.3.5-.4l.3-.3c0-.1.1-.2.1-.2v-.9H40v-.5zm2.1.5v1.1c0 .2 0 .4.1.5 0 .1.1.2.2.3.1.1.2.1.3.1.2 0 .3-.1.4-.2.1-.1.2-.3.2-.6v-1.2h-1.2zm-.9 3.1v.5c-.2 0-.3.1-.5.2-.1.1-.2.2-.3.4-.1.2-.1.4-.1.6 0 .2 0 .4.1.5.1.1.1.3.2.3.1.1.2.1.3.1.1 0 .2 0 .3-.1.1-.1.2-.2.2-.3 0-.1.1-.3.2-.7.1-.4.2-.6.2-.7.1-.2.2-.3.4-.4.1-.1.3-.1.5-.1s.4.1.5.2c.2.1.3.3.4.5.1.2.1.4.1.7 0 .3 0 .5-.1.8-.1.2-.2.4-.4.5-.2.1-.4.2-.6.2v-.5c.2 0 .4-.1.5-.3.1-.2.2-.4.2-.7 0-.3-.1-.5-.2-.7-.1-.1-.2-.2-.4-.2-.1 0-.3 0-.3.1-.1.1-.2.4-.3.8-.1.4-.2.7-.2.8-.1.2-.2.4-.4.5-.2.1-.3.2-.5.2s-.4-.1-.6-.2c-.2-.1-.3-.3-.4-.5-.1-.2-.2-.5-.2-.7 0-.3.1-.6.2-.9.1-.2.3-.4.5-.6.2-.2.4-.3.7-.3zm-1.2 4.7h3.4v-1.3h.5v3h-.5v-1.3H40v-.4z" class="st2" transform="rotate(-90 7 7)"/>
      </g>
    </g>
  </g>
  <g id="text:GND" transform="translate(2 58)">
    <g id="Group_3_" transform="translate(.432 .416)">
      <g id="GND" class="st1">
        <path d="M53.9 184.9h.4v1.6h-1.4c-.2-.3-.3-.5-.4-.8-.1-.3-.2-.5-.2-.8 0-.4.1-.7.2-1 .2-.3.4-.5.7-.7.3-.2.6-.2 1-.2s.7.1 1 .2c.3.2.6.4.7.7.2.3.2.6.2 1 0 .3 0 .5-.1.8-.1.2-.2.4-.4.5l-.6.3v-.5c.2-.1.3-.1.5-.2.1-.1.2-.2.3-.4.1-.2.1-.3.1-.5s0-.4-.1-.6-.2-.3-.3-.4c-.1-.1-.2-.2-.4-.2-.2-.1-.5-.1-.8-.1-.3 0-.6.1-.9.2s-.4.3-.5.5c-.1.2-.2.5-.2.7 0 .2 0 .4.1.6.1.2.2.4.3.5h.7v-1.2zm-1.5 2.4h3.8v.5l-3 2h3v.5h-3.8v-.5l3-2h-3v-.5zm0 3.9h3.8v1.3c0 .3 0 .5-.1.7-.1.2-.1.4-.3.6-.2.2-.4.4-.7.5-.3.1-.6.2-.9.2-.3 0-.5 0-.8-.1s-.4-.2-.6-.3c-.1-.1-.3-.2-.3-.3-.1-.1-.1-.3-.2-.5 0-.2-.1-.4-.1-.6v-1.5zm.4.5v.8c0 .3 0 .4.1.6 0 .1.1.3.2.3.1.1.3.2.5.3.2.1.4.1.7.1.4 0 .7-.1.9-.2s.4-.3.4-.5c.1-.1.1-.4.1-.7v-.8h-2.9z" class="st2" transform="rotate(-90 6 6)"/>
      </g>
    </g>
  </g>
  <g id="text:D2" transform="translate(2 74)">
    <g id="Group_4_" transform="translate(.432 1.088)">
      <g id="D2" class="st1">
        <path d="M65 170.5h3.8v1.3c0 .3 0 .5-.1.7-.1.2-.1.4-.3.6-.2.2-.4.4-.7.5-.3.1-.6.1-.9.1-.3 0-.5 0-.8-.1s-.4-.2-.6-.3c-.1-.1-.3-.2-.3-.3-.1-.1-.1-.3-.2-.5 0-.2-.1-.4-.1-.6v-1.4zm.5.5v.8c0 .3 0 .5.1.6 0 .1.1.3.2.3.1.1.3.2.5.3.2.1.4.1.7.1.4 0 .7-.1.9-.2s.4-.3.4-.5c.1-.1.1-.4.1-.7v-.7h-2.9zm0 5.6H65v-2.5c.1 0 .2 0 .3.1.2.1.3.2.5.3s.4.3.6.6c.3.4.6.7.8.8s.4.2.6.2c.2 0 .3-.1.5-.2s.2-.3.2-.5-.1-.4-.2-.5-.3-.2-.6-.2v-.5c.4 0 .6.2.8.4.2.2.3.5.3.9s-.1.7-.3.9c-.2.2-.5.3-.8.3-.2 0-.3 0-.5-.1-.1-.1-.3-.2-.5-.3-.2-.1-.4-.4-.7-.7-.2-.3-.4-.5-.5-.5-.1-.1-.2-.1-.3-.2v1.7z" class="st2" transform="rotate(-90 4 4)"/>
      </g>
    </g>
  </g>
  <g id="text:D3" transform="translate(2 88)">
    <g id="Group_5_" transform="translate(.432 1.2)">
      <g id="D3" class="st1">
        <path d="M81.2 156.4H85v1.3c0 .3 0 .5-.1.7-.1.2-.1.4-.3.6-.2.2-.4.4-.7.5-.3.1-.6.1-.9.1-.3 0-.5 0-.8-.1s-.4-.2-.6-.3c-.1-.1-.3-.2-.3-.3-.1-.1-.1-.3-.2-.5 0-.2-.1-.4-.1-.6v-1.4zm.4.5v.8c0 .3 0 .5.1.6 0 .1.1.3.2.3.1.1.3.2.5.3.2.1.4.1.7.1.4 0 .7-.1.9-.2s.4-.3.4-.5c.1-.1.1-.4.1-.7v-.8h-2.9zm.6 3.1l.1.5c-.3.1-.5.1-.6.3-.1.1-.2.3-.2.5s.1.4.2.6c.2.2.3.2.6.2.2 0 .4-.1.5-.2.1-.1.2-.3.2-.5 0-.1 0-.2-.1-.3l.4.1v.1c0 .2.1.4.2.5.1.2.3.2.5.2s.3-.1.4-.2.2-.3.2-.5-.1-.3-.2-.5c-.1-.1-.3-.2-.5-.2l.1-.5c.3.1.6.2.7.4s.3.5.3.8c0 .2 0 .4-.1.6-.1.2-.2.3-.4.4-.2.1-.3.1-.5.1s-.3 0-.5-.1c-.1-.1-.2-.2-.3-.4-.1.2-.2.4-.3.5-.2.1-.4.2-.6.2-.3 0-.6-.1-.8-.4s-.3-.6-.3-.9c0-.3.1-.6.3-.8.1-.3.4-.4.7-.5z" class="st2" transform="rotate(-90 5 5)"/>
      </g>
    </g>
  </g>
  <g id="text:D4" transform="translate(2 102)">
    <g id="Group_6_" transform="translate(.432 1.744)">
      <g id="D4" class="st1">
        <path d="M93.7 141.8h3.8v1.3c0 .3 0 .5-.1.7-.1.2-.1.4-.3.6-.2.2-.4.4-.7.5-.3.1-.6.1-.9.1-.3 0-.5 0-.8-.1s-.4-.2-.6-.3c-.1-.1-.3-.2-.3-.3-.1-.1-.1-.3-.2-.5 0-.2-.1-.4-.1-.6v-1.4zm.5.5v.8c0 .3 0 .5.1.6 0 .1.1.3.2.3.1.1.3.2.5.3.2.1.4.1.7.1.4 0 .7-.1.9-.2s.4-.3.4-.5c.1-.1.1-.4.1-.7v-.8h-2.9zm-.5 4.7h.9v-1.7h.4l2.5 1.7v.4H95v.5h-.4v-.5h-.9v-.4zm1.4 0h1.7l-1.7-1.2v1.2z" class="st2" transform="rotate(-90 4 4)"/>
      </g>
    </g>
  </g>
  <g id="text:D5" transform="translate(2 116)">
    <g id="Group_7_" transform="translate(.432 1.856)">
      <g id="D5" class="st1">
        <path d="M109.8 127.7h3.8v1.3c0 .3 0 .5-.1.7-.1.2-.1.4-.3.6-.2.2-.4.4-.7.5-.3.1-.6.1-.9.1-.3 0-.5 0-.8-.1s-.4-.2-.6-.3c-.1-.1-.3-.2-.3-.3-.1-.1-.1-.3-.2-.5 0-.2-.1-.4-.1-.6v-1.4zm.5.5v.8c0 .3 0 .5.1.6 0 .1.1.3.2.3.1.1.3.2.5.3.2.1.4.1.7.1.4 0 .7-.1.9-.2s.4-.3.4-.5c.1-.1.1-.4.1-.7v-.8h-2.9zm.5 3.2v.5c-.2 0-.4.1-.5.3-.1.1-.2.3-.2.5s.1.4.3.6c.2.2.4.2.7.2.3 0 .5-.1.6-.2.2-.2.2-.3.2-.6 0-.2 0-.3-.1-.4l-.3-.3.1-.4 2 .4v1.9h-.4v-1.5l-1-.2c.2.2.2.5.2.7 0 .3-.1.6-.3.8-.2.2-.5.3-.9.3-.3 0-.6-.1-.9-.3-.3-.2-.5-.6-.5-1 0-.3.1-.6.3-.9.1-.3.4-.4.7-.4z" class="st2" transform="rotate(-90 5 5)"/>
      </g>
    </g>
  </g>
  <g id="text:D6" transform="translate(2 132)">
    <g id="Group_8_" transform="translate(.432 .544)">
      <g id="D6" class="st1">
        <path d="M122.5 113h3.8v1.3c0 .3 0 .5-.1.7-.1.2-.1.4-.3.6-.2.2-.4.4-.7.5-.3.1-.6.1-.9.1-.3 0-.5 0-.8-.1s-.4-.2-.6-.3c-.1-.1-.3-.2-.3-.3-.1-.1-.1-.3-.2-.5 0-.2-.1-.4-.1-.6V113zm.5.5v.8c0 .3 0 .5.1.6 0 .1.1.3.2.3.1.1.3.2.5.3.2.1.4.1.7.1.4 0 .7-.1.9-.2s.4-.3.4-.5c.1-.1.1-.4.1-.7v-.8H123zm2.4 5.6v-.5c.2 0 .3-.1.4-.2.1-.1.2-.3.2-.5 0-.1 0-.3-.1-.4-.1-.1-.3-.3-.5-.3-.2-.1-.5-.1-.9-.1.2.1.3.3.4.4.1.2.1.3.1.5 0 .3-.1.6-.3.8-.2.2-.5.3-.9.3-.2 0-.5-.1-.7-.2s-.4-.2-.5-.4c-.1-.2-.2-.4-.2-.6 0-.4.1-.7.4-1 .3-.2.8-.4 1.4-.4.7 0 1.3.1 1.6.4.3.2.4.6.4 1 0 .3-.1.5-.3.7 0 .4-.2.5-.5.5zm-1.7-1.9c-.2 0-.3 0-.5.1-.1.1-.3.2-.3.3-.1.1-.1.3-.1.4 0 .2.1.4.2.5s.4.2.7.2c.3 0 .5-.1.6-.2.2-.1.2-.3.2-.5s-.1-.4-.2-.5-.3-.3-.6-.3z" class="st2" transform="rotate(-90 4 4)"/>
      </g>
    </g>
  </g>
  <g id="text:D7" transform="translate(2 146)">
    <g id="Group_9_" transform="translate(.432 1.088)">
      <g id="D7" class="st1">
        <path d="M137 98.5h3.8v1.3c0 .3 0 .5-.1.7-.1.2-.1.4-.3.6-.2.2-.4.4-.7.5-.3.1-.6.1-.9.1-.3 0-.5 0-.8-.1s-.4-.2-.6-.3c-.1-.1-.3-.2-.3-.3-.1-.1-.1-.3-.2-.5 0-.2-.1-.4-.1-.6v-1.4zm.5.5v.8c0 .3 0 .5.1.6 0 .1.1.3.2.3.1.1.3.2.5.3.2.1.4.1.7.1.4 0 .7-.1.9-.2s.4-.3.4-.5c.1-.1.1-.4.1-.7V99h-2.9zm2.9 3.2h.5v2.5h-.4c-.3-.2-.6-.5-1-.7s-.9-.4-1.3-.6c-.3-.1-.7-.2-1.1-.2v-.5c.3 0 .7.1 1.1.2.4.1.8.3 1.2.5s.7.4 1 .7v-1.9z" class="st2" transform="rotate(-90 4 4)"/>
      </g>
    </g>
  </g>
  <g id="text:D8" transform="translate(2 160)">
    <g id="Group_10_" transform="translate(.432 1.2)">
      <g id="D8" class="st1">
        <path d="M153.2 84.4h3.8v1.3c0 .3 0 .5-.1.7-.1.2-.1.4-.3.6-.2.2-.4.4-.7.5-.3.1-.6.1-.9.1-.3 0-.5 0-.8-.1s-.4-.2-.6-.3c-.1-.1-.3-.2-.3-.3-.1-.1-.1-.3-.2-.5 0-.2-.1-.4-.1-.6v-1.4zm.4.5v.8c0 .3 0 .5.1.6 0 .1.1.3.2.3.1.1.3.2.5.3.2.1.4.1.7.1.4 0 .7-.1.9-.2s.4-.3.4-.5c.1-.1.1-.4.1-.7v-.8h-2.9zm1.6 3.9c.1-.2.2-.3.3-.4.1-.1.3-.1.5-.1.3 0 .5.1.7.3.2.2.3.5.3.8 0 .3-.1.6-.3.8s-.4.3-.7.3c-.2 0-.3 0-.5-.1-.1-.1-.2-.2-.3-.4-.1.2-.2.4-.4.5-.2.1-.4.2-.6.2-.3 0-.6-.1-.8-.3s-.3-.5-.3-.9.1-.7.3-.9c.2-.2.5-.3.8-.3.2 0 .5.1.6.2.3-.2.4 0 .4.3zm-.9-.3c-.1 0-.3 0-.4.1l-.3.3c-.1.1-.1.3-.1.4 0 .2.1.4.2.6.1.1.3.2.5.2s.4-.1.6-.2c.1-.2.2-.3.2-.6 0-.2-.1-.4-.2-.5-.1-.2-.3-.3-.5-.3zm1.7.2c-.2 0-.3.1-.4.2-.1.1-.2.3-.2.5s.1.3.2.4.3.2.4.2c.2 0 .3-.1.4-.2s.2-.3.2-.4c0-.2-.1-.3-.2-.4-.1-.3-.2-.3-.4-.3z" class="st2" transform="rotate(-90 5 5)"/>
      </g>
    </g>
  </g>
  <g id="text:D9" transform="translate(2 174)">
    <g id="Group_11_" transform="translate(.432 1.744)">
      <g id="D9" class="st1">
        <path d="M165.7 69.8h3.8v1.3c0 .3 0 .5-.1.7-.1.2-.1.4-.3.6-.2.2-.4.4-.7.5-.3.1-.6.1-.9.1-.3 0-.5 0-.8-.1s-.4-.2-.6-.3c-.1-.1-.3-.2-.3-.3-.1-.1-.1-.3-.2-.5 0-.2-.1-.4-.1-.6v-1.4zm.5.5v.8c0 .3 0 .5.1.6 0 .1.1.3.2.3.1.1.3.2.5.3.2.1.4.1.7.1.4 0 .7-.1.9-.2s.4-.3.4-.5c.1-.1.1-.4.1-.7v-.8h-2.9zm.4 3.3v.5c-.2 0-.4.1-.5.2s-.1.2-.1.4c0 .1 0 .3.1.4l.3.3c.1.1.3.1.4.2.2 0 .4.1.6.1h.1c-.1-.1-.3-.2-.4-.4-.1-.2-.1-.3-.1-.5 0-.3.1-.6.3-.8s.5-.3.9-.3.7.1.9.3c.2.2.4.5.4.9 0 .2-.1.5-.2.7-.1.2-.3.4-.6.5-.2.1-.6.2-1.1.2-.5 0-.9-.1-1.2-.2-.3-.1-.5-.3-.7-.5-.2-.2-.2-.5-.2-.7 0-.3.1-.5.2-.7.4-.5.6-.6.9-.6zm1.7 1.9c.3 0 .5-.1.6-.2.2-.1.2-.3.2-.5s-.1-.4-.3-.5-.4-.2-.7-.2c-.2 0-.4.1-.6.2s-.2.3-.2.5.1.4.2.5.5.2.8.2z" class="st2" transform="rotate(-90 4 4)"/>
      </g>
    </g>
  </g>
  <g id="text:D10" transform="translate(2 190)">
    <g id="Group_12_" transform="translate(.432 .448)">
      <text id="D10" class="st2" font-family="ArialMT" font-size="5.345" transform="translate(52.7 -172.407)">
        D10
      </text>
    </g>
  </g>
  <g id="text:D11" transform="translate(2 204)">
    <g id="Group_13_" transform="translate(.432 .704)">
      <g id="D11" class="st1">
        <path d="M198.7 38.9h3.8v1.3c0 .3 0 .5-.1.7-.1.2-.1.4-.3.6-.2.2-.4.4-.7.5-.3.1-.6.1-.9.1-.3 0-.5 0-.8-.1s-.4-.2-.6-.3c-.1-.1-.3-.2-.3-.3-.1-.1-.1-.3-.2-.5 0-.2-.1-.4-.1-.6v-1.4zm.4.5v.8c0 .3 0 .5.1.6 0 .1.1.3.2.3.1.1.3.2.5.3.2.1.4.1.7.1.4 0 .7-.1.9-.2s.4-.3.4-.5c.1-.1.1-.4.1-.7v-.8h-2.9zm-.4 4.9v-.5h3c-.1-.1-.2-.3-.3-.4-.1-.2-.2-.3-.2-.5h.5c.1.3.3.5.4.7s.3.3.5.4v.3h-3.9zm0 2.6v-.5h3c-.1-.1-.2-.3-.3-.4-.1-.2-.2-.3-.2-.5h.5c.1.3.3.5.4.7s.3.3.5.4v.3h-3.9z" class="st2" transform="rotate(-90 6 6)"/>
      </g>
    </g>
  </g>
  <g id="text:D12" transform="translate(2 218)">
    <g id="Group_14_" transform="translate(.432 1.104)">
      <g id="D12" class="st1">
        <path d="M213.1 24.5h3.8v1.3c0 .3 0 .5-.1.7-.1.2-.1.4-.3.6-.2.2-.4.4-.7.5-.3.1-.6.1-.9.1-.3 0-.5 0-.8-.1s-.4-.2-.6-.3c-.1-.1-.3-.2-.3-.3-.1-.1-.1-.3-.2-.5 0-.2-.1-.4-.1-.6v-1.4zm.4.5v.8c0 .3 0 .5.1.6 0 .1.1.3.2.3.1.1.3.2.5.3.2.1.4.1.7.1.4 0 .7-.1.9-.2s.4-.3.4-.5c.1-.1.1-.4.1-.7V25h-2.9zm-.4 4.9v-.5h3c-.1-.1-.2-.3-.3-.4-.1-.2-.2-.3-.2-.5h.5c.1.3.3.5.4.7s.3.3.5.4v.3h-3.9zm.4 3.7h-.5V31c.1 0 .2 0 .3.1.2.1.3.2.5.3s.4.3.6.6c.3.4.6.7.8.8.2.1.4.2.6.2.2 0 .3-.1.5-.2.1-.1.2-.3.2-.5s-.1-.4-.2-.5-.3-.2-.6-.2v-.5c.4 0 .6.2.8.4.2.2.3.5.3.9s-.1.7-.3.9c-.2.2-.5.3-.8.3-.2 0-.3 0-.5-.1-.1-.1-.3-.2-.5-.3-.2-.1-.4-.4-.7-.7-.2-.3-.4-.5-.5-.5-.1-.1-.2-.1-.3-.2v1.8z" class="st2" transform="rotate(-90 6 6)"/>
      </g>
    </g>
  </g>
  <g id="text:D13" transform="translate(68 218)">
    <g id="Group_15_" transform="translate(.976 1.104)">
      <g id="D13" class="st1">
        <path d="M144.5-41.1h3.8v1.3c0 .3 0 .5-.1.7-.1.2-.1.4-.3.6-.2.2-.4.4-.7.5-.3.1-.6.1-.9.1-.3 0-.5 0-.8-.1s-.4-.2-.6-.3c-.1-.1-.3-.2-.3-.3-.1-.1-.1-.3-.2-.5 0-.2-.1-.4-.1-.6v-1.4zm.5.5v.8c0 .3 0 .5.1.6 0 .1.1.3.2.3.1.1.3.2.5.3.2.1.4.1.7.1.4 0 .7-.1.9-.2s.4-.3.4-.5c.1-.1.1-.4.1-.7v-.8H145zm-.5 5v-.5h3c-.1-.1-.2-.3-.3-.4-.1-.2-.2-.3-.2-.5h.5c.1.3.3.5.4.7s.3.3.5.4v.3h-3.9zm1 1.2l.1.5c-.3.1-.5.1-.6.3-.1.1-.2.3-.2.5s.1.4.2.6c.2.2.3.2.6.2.2 0 .4-.1.5-.2.1-.1.2-.3.2-.5 0-.1 0-.2-.1-.3l.4.1v.1c0 .2.1.4.2.5.1.2.3.2.5.2s.3-.1.4-.2.2-.3.2-.5-.1-.3-.2-.5c-.1-.1-.3-.2-.5-.2l.1-.5c.3.1.6.2.7.4s.3.5.3.8c0 .2 0 .4-.1.6-.1.2-.2.3-.4.4-.2.1-.3.1-.5.1s-.3 0-.5-.1c-.1-.1-.2-.2-.3-.4-.1.2-.2.4-.3.5-.2.1-.4.2-.6.2-.3 0-.6-.1-.8-.4s-.3-.6-.3-.9c0-.3.1-.6.3-.8.2-.4.4-.5.7-.5z" class="st2" transform="rotate(-90 6 6)"/>
      </g>
    </g>
  </g>
  <g id="text:3V3" transform="translate(68 204)">
    <g id="Group_16_" transform="translate(.976 .56)">
      <g id="_x33_V3" class="st1">
        <path d="M129-26.7l.1.5c-.3.1-.5.1-.6.3-.1.1-.2.3-.2.5s.1.4.2.6c.2.2.3.2.6.2.2 0 .4-.1.5-.2.1-.1.2-.3.2-.5 0-.1 0-.2-.1-.3l.4.1v.1c0 .2.1.4.2.5.1.2.3.2.5.2s.3-.1.4-.2.2-.3.2-.5-.1-.3-.2-.5c-.1-.1-.3-.2-.5-.2l.1-.5c.3.1.6.2.7.4s.3.5.3.8c0 .2 0 .4-.1.6-.1.2-.2.3-.4.4-.2.1-.3.1-.5.1s-.3 0-.5-.1c-.1-.1-.2-.2-.3-.4-.1.2-.2.4-.3.5-.2.1-.4.2-.6.2-.3 0-.6-.1-.8-.4s-.3-.6-.3-.9c0-.3.1-.6.3-.8.1-.4.4-.5.7-.5zm-1 4.2l3.8-1.5v.5l-2.8 1c-.2.1-.4.1-.6.2.2.1.4.1.6.2l2.8 1v.5L128-22v-.5zm1 2.3l.1.5c-.3.1-.5.1-.6.3-.1.1-.2.3-.2.5s.1.4.2.6c.2.2.3.2.6.2.2 0 .4-.1.5-.2.1-.1.2-.3.2-.5 0-.1 0-.2-.1-.3l.4.1v.1c0 .2.1.4.2.5.1.2.3.2.5.2s.3-.1.4-.2.2-.3.2-.5-.1-.3-.2-.5c-.1-.1-.3-.2-.5-.2l.1-.5c.3.1.6.2.7.4s.3.5.3.8c0 .2 0 .4-.1.6-.1.2-.2.3-.4.4-.2.1-.3.1-.5.1s-.3 0-.5-.1c-.1-.1-.2-.2-.3-.4-.1.2-.2.4-.3.5-.2.1-.4.2-.6.2-.3 0-.6-.1-.8-.4s-.3-.6-.3-.9c0-.3.1-.6.3-.8.1-.3.4-.5.7-.5z" class="st2" transform="rotate(-90 5 5)"/>
      </g>
    </g>
  </g>
  <g id="text:REF" transform="translate(68 188)">
    <g id="Group_17_" transform="translate(.976 .304)">
      <g id="REF" class="st1">
        <path d="M115.7-12.3h3.8v1.7c0 .3 0 .6-.1.8-.1.2-.2.3-.4.4-.2.1-.4.2-.6.2-.3 0-.5-.1-.7-.3s-.3-.4-.4-.8c-.1.1-.1.2-.2.3-.1.1-.3.3-.5.4l-1 .7v-.6l.8-.5c.2-.1.4-.3.5-.4l.3-.3c.1-.1.1-.2.1-.2v-.9h-1.7v-.5zm2.2.5v1.1c0 .2 0 .4.1.5 0 .1.1.2.2.3.1.1.2.1.3.1.2 0 .3-.1.4-.2.1-.1.2-.3.2-.6v-1.2h-1.2zm-2.2 3.4h3.8v2.8h-.5v-2.3h-1.2v2.1h-.4v-2.1h-1.3v2.3h-.5v-2.8zm0 3.6h3.8v2.6h-.5v-2.1h-1.2v1.8h-.5v-1.8h-1.7v-.5z" class="st2" transform="rotate(-90 7 7)"/>
      </g>
    </g>
  </g>
  <g id="text:A0" transform="translate(68 174)">
    <g id="Group_18_" transform="translate(.976 1.888)">
      <g id="A0" class="st1">
        <path d="M97.3 3.7l3.8 1.5v.5l-3.8 1.6v-.6l1.2-.4V4.7l-1.2-.4v-.6zm1.6 1.1v1.3l1.1-.4c.3-.1.6-.2.8-.3-.2 0-.5-.1-.7-.2l-1.2-.4zm.3 2.7c.5 0 .8 0 1.1.1.3.1.5.2.6.4s.2.4.2.7c0 .2 0 .4-.1.5s-.2.3-.4.4c-.2.1-.3.2-.6.2s-.4.2-.8.2-.8 0-1.1-.1c-.3-.1-.5-.2-.6-.4s-.3-.5-.3-.7c0-.4.1-.7.4-.9.4-.3.9-.4 1.6-.4zm0 .5c-.6 0-1 .1-1.3.2s-.3.3-.3.5.1.4.3.5c.2.1.6.2 1.3.2.6 0 1-.1 1.3-.2s.3-.3.3-.5-.1-.4-.3-.5c-.3-.1-.7-.2-1.3-.2z" class="st2" transform="rotate(-90 4 4)"/>
      </g>
    </g>
  </g>
  <g id="text:A1" transform="translate(68 160)">
    <g id="Group_19_" transform="translate(.976 1.344)">
      <g id="A1" class="st1">
        <path d="M84.8 18.3l3.8 1.5v.5l-3.8 1.6v-.6l1.2-.4v-1.6l-1.2-.4v-.6zm1.5 1.1v1.3l1.1-.4c.3-.1.6-.2.8-.3-.2 0-.5-.1-.7-.2l-1.2-.4zm-1.5 4.4v-.5h3c-.1-.1-.2-.3-.3-.4-.1-.2-.2-.3-.2-.5h.5c.1.3.3.5.4.7.2.2.3.3.5.4v.3h-3.9z" class="st2" transform="rotate(-90 5 5)"/>
      </g>
    </g>
  </g>
  <g id="text:A2" transform="translate(68 146)">
    <g id="Group_20_" transform="translate(.976 1.088)">
      <g id="A2" class="st1">
        <path d="M68.5 32.5l3.8 1.5v.5l-3.8 1.6v-.6l1.2-.4v-1.6l-1.2-.5v-.5zm1.6 1.1v1.3l1.1-.4c.3-.1.6-.2.8-.3-.2 0-.5-.1-.7-.2l-1.2-.4zM69 38.8h-.5v-2.5c.1 0 .2 0 .3.1.2.1.3.2.5.3s.4.3.6.6c.3.4.6.7.8.8.2.1.4.2.6.2.2 0 .3-.1.5-.2.1-.1.2-.3.2-.5s-.1-.4-.2-.5-.3-.2-.6-.2v-.5c.4 0 .6.2.8.4.2.2.3.5.3.9s-.1.7-.3.9c-.2.2-.5.3-.8.3-.2 0-.3 0-.5-.1-.1-.1-.3-.2-.5-.3-.2-.1-.4-.4-.7-.7-.2-.3-.4-.5-.5-.5.1-.3 0-.3 0-.4v1.9z" class="st2" transform="rotate(-90 4 4)"/>
      </g>
    </g>
  </g>
  <g id="text:A3" transform="translate(68 132)">
    <g id="Group_21_" transform="translate(.976 .688)">
      <g id="A3" class="st1">
        <path d="M56.1 46.9l3.8 1.5v.5l-3.8 1.6v-.6l1.2-.4v-1.6l-1.2-.4v-.6zm1.6 1.1v1.3l1.1-.4c.3-.1.6-.2.8-.3-.2 0-.5-.1-.7-.2l-1.2-.4zm-.6 2.7l.1.5c-.3.1-.5.1-.6.3-.1.1-.2.3-.2.5s.1.4.2.6c.2.2.3.2.6.2.2 0 .4-.1.5-.2.1-.1.2-.3.2-.5 0-.1 0-.2-.1-.3l.4.1v.1c0 .2.1.4.2.5.1.2.3.2.5.2s.3-.1.4-.2.2-.3.2-.5-.1-.3-.2-.5c-.1-.1-.3-.2-.5-.2l.1-.5c.3.1.6.2.7.4s.3.5.3.8c0 .2 0 .4-.1.6-.1.2-.2.3-.4.4H59c-.2 0-.3 0-.5-.1-.1-.1-.2-.2-.3-.4-.1.2-.2.4-.3.5-.2.1-.4.2-.6.2-.3 0-.6-.1-.8-.4s-.5-.5-.5-.9c0-.3.1-.6.3-.8.2-.2.5-.4.8-.4z" class="st2" transform="rotate(-90 5 5)"/>
      </g>
    </g>
  </g>
  <g id="text:A4" transform="translate(68 118)">
    <g id="Group_22_" transform="translate(.976 .432)">
      <g id="A4" class="st1">
        <path d="M39.8 61.2l3.8 1.5v.5l-3.8 1.6v-.6l1.2-.4v-1.6l-1.2-.4v-.6zm1.6 1.1v1.3l1.1-.4c.3-.1.6-.2.8-.3-.2 0-.5-.1-.7-.2l-1.2-.4zm-1.6 4.2h.9v-1.7h.4l2.5 1.7v.4h-2.5v.5h-.4v-.5h-.9v-.4zm1.4 0h1.7l-1.7-1.2v1.2z" class="st2" transform="rotate(-90 4 4)"/>
      </g>
    </g>
  </g>
  <g id="text:A5" transform="translate(68 102)">
    <g id="Group_23_" transform="translate(.976 1.888)">
      <g id="A5" class="st1">
        <path d="M25.3 75.7l3.8 1.5v.5l-3.8 1.6v-.6l1.2-.4v-1.6l-1.2-.4v-.6zm1.6 1.1v1.3l1.1-.4c.3-.1.6-.2.8-.3-.2 0-.5-.1-.7-.2l-1.2-.4zm-.6 2.7v.5c-.2 0-.4.1-.5.3-.1.1-.2.3-.2.5s.1.4.3.6c.2.2.4.2.7.2.3 0 .5-.1.6-.2.2-.2.2-.3.2-.6 0-.2 0-.3-.1-.4l-.3-.3.1-.4 2 .4V82h-.4v-1.5l-1-.2c.2.2.2.5.2.7 0 .3-.1.6-.3.8-.3.1-.6.2-1 .2-.3 0-.6-.1-.9-.3-.3-.2-.5-.6-.5-1 0-.3.1-.6.3-.9.2-.1.5-.3.8-.3z" class="st2" transform="rotate(-90 4 4)"/>
      </g>
    </g>
  </g>
  <g id="text:A6" transform="translate(68 88)">
    <g id="Group_24_" transform="translate(.976 1.488)">
      <g id="A6" class="st1">
        <path d="M12.9 90.1l3.8 1.5v.5l-3.8 1.6v-.6l1.2-.4v-1.6l-1.2-.4v-.6zm1.6 1.1v1.3l1.1-.4c.3-.1.6-.2.8-.3-.2 0-.5-.1-.7-.2l-1.2-.4zm1.3 5.1v-.5c.2 0 .3-.1.4-.2.1-.1.2-.3.2-.5 0-.1 0-.3-.1-.4-.1-.1-.3-.3-.5-.3-.2-.1-.5-.1-.9-.1.2.1.3.3.4.4.1.2.1.3.1.5 0 .3-.1.6-.3.8-.2.2-.5.3-.9.3-.2 0-.5-.1-.7-.2s-.4-.1-.5-.3c-.1-.2-.2-.4-.2-.6 0-.4.1-.7.4-1 .3-.2.8-.4 1.4-.4.7 0 1.3.1 1.6.4.3.2.4.6.4 1 0 .3-.1.5-.3.7 0 .3-.2.4-.5.4zm-1.7-1.9c-.2 0-.3 0-.5.1-.1.1-.3.2-.3.3-.1.1-.1.3-.1.4 0 .2.1.4.2.5s.4.2.7.2c.3 0 .5-.1.6-.2.2-.1.2-.3.2-.5s-.1-.4-.2-.5-.3-.3-.6-.3z" class="st2" transform="rotate(-90 5 5)"/>
      </g>
    </g>
  </g>
  <g id="text:A7" transform="translate(68 74)">
    <g id="Group_25_" transform="translate(.976 1.232)">
      <g id="A7" class="st1">
        <path d="M-3.4 104.4l3.8 1.5v.5l-3.8 1.6v-.6l1.2-.4v-1.6l-1.2-.4v-.6zm1.6 1.1v1.3l1.1-.4c.3-.1.6-.2.8-.3-.2 0-.5-.1-.7-.2l-1.2-.4zm1.8 2.7h.5v2.5H.1c-.3-.2-.6-.5-1-.7s-.9-.4-1.3-.6c-.3-.1-.7-.2-1.1-.2v-.5c.3 0 .7.1 1.1.2.4.1.8.3 1.2.5.4.2.7.4 1 .7v-1.9z" class="st2" transform="rotate(-90 4 4)"/>
      </g>
    </g>
  </g>
  <g id="text:5V" transform="translate(68 60)">
    <g id="Group_26_" transform="translate(.976 .832)">
      <g id="_x35_V" class="st1">
        <path d="M-14.8 119v.5c-.2 0-.4.1-.5.3-.1.1-.2.3-.2.5s.1.4.3.6c.2.2.4.2.7.2.3 0 .5-.1.6-.2.2-.2.2-.3.2-.6 0-.2 0-.3-.1-.4l-.3-.3.1-.4 2 .4v1.9h-.4V120l-1-.2c.2.2.2.5.2.7 0 .3-.1.6-.3.8-.2.2-.5.3-.9.3-.3 0-.6-.1-.9-.3-.3-.2-.5-.6-.5-1 0-.3.1-.6.3-.9.2-.2.4-.4.7-.4zm-1 4.3l3.8-1.5v.5l-2.8 1c-.2.1-.4.1-.6.2.2.1.4.1.6.2l2.8 1v.5l-3.8-1.5v-.4z" class="st2" transform="rotate(-90 5 5)"/>
      </g>
    </g>
  </g>
  <g id="text:RST_1_" transform="translate(68 42)">
    <g id="Group_27_" transform="translate(.976 .432)">
      <g id="RST_1_" class="st1">
        <path d="M-32.2 131.6h3.8v1.7c0 .3 0 .6-.1.8-.1.2-.2.3-.4.4-.2.1-.4.2-.6.2-.3 0-.5-.1-.7-.3s-.3-.4-.4-.8c-.1.1-.1.2-.2.3-.1.1-.3.3-.5.4l-1 .7v-.6l.8-.5c.2-.1.4-.3.5-.4l.3-.3c0-.1.1-.2.1-.2v-.9h-1.7v-.5zm2.2.5v1.1c0 .2 0 .4.1.5 0 .1.1.2.2.3.1.1.2.1.3.1.2 0 .3-.1.4-.2.1-.1.2-.3.2-.6v-1.2H-30zm-.9 3.2v.5c-.2 0-.3.1-.5.2-.1.1-.2.2-.3.4-.1.2-.1.4-.1.6 0 .2 0 .4.1.5.1.1.1.3.2.3.1.1.2.1.3.1.1 0 .2 0 .3-.1.1-.1.2-.2.2-.3 0-.1.1-.3.2-.7.1-.4.2-.6.2-.7.1-.2.2-.3.4-.4.1-.1.3-.1.5-.1s.4.1.5.2c.2.1.3.3.4.5.1.2.1.4.1.7 0 .3 0 .5-.1.8-.1.2-.2.4-.4.5-.2.1-.4.2-.6.2v-.5c.2 0 .4-.1.5-.3.1-.2.2-.4.2-.7 0-.3-.1-.5-.2-.7-.1-.1-.2-.2-.4-.2-.1 0-.3 0-.3.1-.1.1-.2.4-.3.8-.1.4-.2.7-.2.8-.1.2-.2.4-.4.5-.2.1-.3.2-.5.2s-.4-.1-.6-.2c-.2-.1-.3-.3-.4-.5-.1-.2-.2-.5-.2-.7 0-.3.1-.6.2-.9.1-.2.3-.4.5-.6.2-.2.4-.3.7-.3zm-1.3 4.7h3.4v-1.3h.5v3h-.5v-1.3h-3.4v-.4z" class="st2" transform="rotate(-90 6 6)"/>
      </g>
    </g>
  </g>
  <g id="text:GND_1_" transform="translate(68 26)">
    <g id="Group_28_" transform="translate(.976 1.6)">
      <g id="GND_1_" class="st1">
        <path d="M-45.5 147.2h.4v1.6h-1.4c-.2-.3-.3-.5-.4-.8-.1-.3-.2-.5-.2-.8 0-.4.1-.7.2-1 .2-.3.4-.5.7-.7.3-.2.6-.2 1-.2s.7.1 1 .2c.3.2.6.4.7.7.2.3.2.6.2 1 0 .3 0 .5-.1.8-.1.2-.2.4-.4.5l-.6.3-.1-.5c.2-.1.3-.1.5-.2.1-.1.2-.2.3-.4.1-.2.1-.3.1-.5s0-.4-.1-.6-.2-.3-.3-.4c-.1-.1-.2-.2-.4-.2-.2-.1-.5-.1-.8-.1-.3 0-.6.1-.9.2s-.4.3-.5.5c-.1.2-.2.5-.2.7 0 .2 0 .4.1.6.1.2.2.4.3.5h.7v-1.2zm-1.5 2.4h3.8v.5l-3 2h3v.5H-47v-.5l3-2h-3v-.5zm0 3.8h3.8v1.3c0 .3 0 .5-.1.7-.1.2-.1.4-.3.6-.2.2-.4.4-.7.5-.3.1-.6.2-.9.2-.3 0-.5 0-.8-.1s-.4-.2-.6-.3c-.1-.1-.3-.2-.3-.3-.1-.1-.1-.3-.2-.5 0-.2-.1-.4-.1-.6v-1.5zm.5.5v.8c0 .3 0 .4.1.6 0 .1.1.3.2.3.1.1.3.2.5.3.2.1.4.1.7.1.4 0 .7-.1.9-.2s.4-.3.4-.5c.1-.1.1-.4.1-.7v-.8h-2.9z" class="st2" transform="rotate(-90 6 6)"/>
      </g>
    </g>
  </g>
  <g id="text:VIN" transform="translate(68 14)">
    <g id="Group_29_" transform="translate(.976 1.344)">
      <g id="VIN" class="st1">
        <path d="M-59.2 162.8l3.8-1.5v.5l-2.8 1c-.2.1-.4.1-.6.2.2.1.4.1.6.2l2.8 1v.5l-3.8-1.5v-.4zm0 2.5h3.8v.5h-3.8v-.5zm0 1.4h3.8v.5l-3 2h3v.5h-3.8v-.5l3-2h-3v-.5z" class="st2" transform="rotate(-90 6 6)"/>
      </g>
    </g>
  </g>
  <g id="text:ICSP" transform="translate(8)">
    <g id="Group_30_" transform="translate(1.36 1.408)">
      <g id="ICSP" class="st1">
        <path d="M-11.6 225.3h3.8v.5h-3.8v-.5zm1.4 4.1l-.1.5c-.4-.1-.7-.3-1-.6-.2-.3-.3-.6-.3-1s.1-.7.3-1c.2-.3.4-.5.7-.6s.7-.2 1-.2c.4 0 .7.1 1 .2s.5.4.7.6c.2.3.2.6.2.9 0 .4-.1.7-.3 1-.2.3-.5.4-.8.5l-.1-.5c.3-.1.5-.2.6-.4s.2-.4.2-.6c0-.3-.1-.5-.2-.7-.1-.2-.3-.3-.6-.4-.2-.1-.5-.1-.7-.1-.3 0-.6 0-.9.1-.2.1-.4.2-.5.4-.1.2-.2.4-.2.7 0 .3.1.5.2.7.2.3.5.5.8.5zm-.1 1v.5c-.2 0-.3.1-.5.2-.1.1-.2.2-.3.4-.1.2-.1.4-.1.6 0 .2 0 .4.1.5.1.1.1.3.2.3.1.1.2.1.3.1.1 0 .2 0 .3-.1.1-.1.2-.2.2-.3 0-.1.1-.3.2-.7.1-.4.2-.6.2-.7.1-.2.2-.3.4-.4.1-.1.3-.1.5-.1s.4.1.5.2c.2.1.3.3.4.5s.1.4.1.7c0 .3 0 .5-.1.8-.1.2-.2.4-.4.5-.2.1-.4.2-.6.2v-.5c.2 0 .4-.1.5-.3.1-.2.2-.4.2-.7 0-.3-.1-.5-.2-.7-.1-.1-.2-.2-.4-.2-.1 0-.3 0-.3.1-.1.1-.2.4-.3.8-.1.4-.2.7-.2.8-.1.2-.2.4-.4.5-.2.1-.3.2-.5.2s-.4-.1-.6-.2c-.2-.1-.3-.3-.4-.5-.1-.2-.2-.5-.2-.7 0-.3.1-.6.2-.9.1-.2.3-.4.5-.6.2-.2.4-.3.7-.3zm-1.3 3.7h3.8v2c0 .2-.1.3-.2.5-.1.1-.2.2-.4.3-.2.1-.3.1-.5.1-.3 0-.6-.1-.8-.3s-.3-.6-.3-1.1v-1h-1.6v-.5zm2 .5v1c0 .3.1.6.2.7.1.1.3.2.5.2s.3 0 .4-.1c.1-.1.2-.2.2-.3v-1.5h-1.3z" class="st2" transform="rotate(-90 7 7)"/>
      </g>
    </g>
  </g>
  <g id="text:TX" class="st1">
    <path d="M181.6-36.3h3.4v-1.3h.5v3h-.5v-1.3h-3.4v-.4zm0 1.9l2 1.5 1.8-1.3v.6l-1 .7c-.2.1-.4.2-.5.3.1.1.3.2.4.3l1 .8v.6l-1.8-1.3-2 1.4v-.6l1.4-1c.1-.1.2-.1.3-.2-.1-.1-.2-.1-.3-.2l-1.3-1v-.6z" class="st2" transform="translate(8 60)"/>
  </g>
  <g id="text:RX" class="st1">
    <path d="M165.6-21.1h3.8v1.7c0 .3 0 .6-.1.8-.1.2-.2.3-.4.4-.2.1-.4.2-.6.2-.3 0-.5-.1-.7-.3s-.3-.4-.4-.8c-.1.1-.1.2-.2.3-.1.1-.3.3-.5.4l-1 .7v-.6l.8-.5c.2-.1.4-.3.5-.4l.3-.3c.1-.1.1-.2.1-.2v-.9h-1.7v-.5zm2.2.5v1.1c0 .2 0 .4.1.5 0 .1.1.2.2.3.1.1.2.1.3.1.2 0 .3-.1.4-.2.1-.1.2-.3.2-.6v-1.2h-1.2zm-2.2 2.9l2 1.5 1.8-1.3v.6l-1 .7c-.2.1-.4.2-.5.3.1.1.3.2.4.3l1 .8v.6l-1.8-1.3-2 1.4v-.6l1.4-1c.1-.1.2-.1.3-.2-.1-.1-.2-.1-.3-.2l-1.3-1v-.6z" class="st2" transform="translate(24 60)"/>
  </g>
  <g id="text:PWR" class="st1">
    <path d="M149.5-5.7c.6 0 1.1.2 1.5.5.4.3.5.8.5 1.3 0 .4-.1.7-.3 1s-.4.5-.7.6-.6.2-1 .2-.7-.1-1-.2c-.3-.2-.5-.4-.7-.7s-.2-.6-.2-.9c0-.4.1-.7.3-1 .2-.3.4-.5.7-.6.2-.1.5-.2.9-.2zm0 .5c-.5 0-.8.1-1.1.4-.3.2-.4.6-.4.9 0 .4.1.7.4.9.3.2.6.4 1.1.4.3 0 .6-.1.8-.2.2-.1.4-.3.5-.5.1-.2.2-.4.2-.7 0-.4-.1-.7-.4-.9s-.5-.3-1.1-.3zm-1.9 3.8h3.8v.5l-3 2h3v.5h-3.8v-.5l3-2h-3v-.5z" class="st2" transform="translate(42 60)"/>
  </g>
  <g id="text:RST_2_" class="st1">
    <path d="M123.2-41.6h3.8v1.7c0 .3 0 .6-.1.8-.1.2-.2.3-.4.4-.2.1-.4.2-.6.2-.3 0-.5-.1-.7-.3s-.3-.4-.4-.8c-.1.1-.1.2-.2.3-.1.1-.3.3-.5.4l-1 .7v-.6l.8-.5c.2-.1.4-.3.5-.4l.3-.3c.1-.1.1-.2.1-.2v-.9h-1.7v-.5zm2.2.5v1.1c0 .2 0 .4.1.5 0 .1.1.2.2.3.1.1.2.1.3.1.2 0 .3-.1.4-.2.1-.1.2-.3.2-.6v-1.2h-1.2zm-.9 3.2v.5c-.2 0-.3.1-.5.2-.1.1-.2.2-.3.4-.1.2-.1.4-.1.6 0 .2 0 .4.1.5.1.1.1.3.2.3.1.1.2.1.3.1.1 0 .2 0 .3-.1.1-.1.2-.2.2-.3 0-.1.1-.3.2-.7.1-.4.2-.6.2-.7.1-.2.2-.3.4-.4.1-.1.3-.1.5-.1s.4.1.5.2c.2.1.3.3.4.5s.1.4.1.7c0 .3 0 .5-.1.8-.1.2-.2.4-.4.5-.2.1-.4.2-.6.2v-.5c.2 0 .4-.1.5-.3.1-.2.2-.4.2-.7 0-.3-.1-.5-.2-.7-.1-.1-.2-.2-.4-.2-.1 0-.3 0-.3.1-.1.1-.2.4-.3.8-.1.4-.2.7-.2.8-.1.2-.2.4-.4.5-.2.1-.3.2-.5.2s-.4-.1-.6-.2c-.2-.1-.3-.3-.4-.5-.1-.2-.2-.5-.2-.7 0-.3.1-.6.2-.9.1-.2.3-.4.5-.6.2-.2.4-.3.7-.3zm-1.3 4.7h3.4v-1.3h.5v3h-.5v-1.3h-3.4v-.4z" class="st2" transform="translate(36 90)"/>
  </g>
  <g id="text:L" class="st1">
    <path d="M123.6 13.3h3.8v.5H124v1.9h-.5v-2.4z" class="st2" transform="translate(66 60)"/>
  </g>
  <circle id="connector16pin" cx="234" cy="7.8" r="3.8" class="st5"/>
  <path id="Rectangle-path" d="M230.2 4h7.6v7.6h-7.6z" class="st5"/>
  <circle id="connector17pin" cx="219.6" cy="7.8" r="3.8" class="st5"/>
  <circle id="connector18pin" cx="205.2" cy="7.8" r="3.8" class="st5"/>
  <circle id="connector19pin" cx="190.8" cy="7.8" r="3.8" class="st5"/>
  <circle id="connector20pin" cx="176.4" cy="7.8" r="3.8" class="st5"/>
  <circle id="connector21pin" cx="162" cy="7.8" r="3.8" class="st5"/>
  <circle id="connector22pin" cx="147.6" cy="7.8" r="3.8" class="st5"/>
  <circle id="connector23pin" cx="133.2" cy="7.8" r="3.8" class="st5"/>
  <circle id="connector24pin" cx="118.8" cy="7.8" r="3.8" class="st5"/>
  <circle id="connector25pin" cx="104.4" cy="7.8" r="3.8" class="st5"/>
  <circle id="connector26pin" cx="90" cy="7.8" r="3.8" class="st5"/>
  <circle id="connector27pin" cx="75.6" cy="7.8" r="3.8" class="st5"/>
  <circle id="connector28pin" cx="61.2" cy="7.8" r="3.8" class="st5"/>
  <circle id="connector29pin" cx="46.8" cy="7.8" r="3.8" class="st5"/>
  <circle id="connector30pin" cx="32.4" cy="7.8" r="3.8" class="st5"/>
  <circle id="connector31pin" cx="234" cy="94.2" r="3.8" class="st5"/>
  <circle id="connector32pin" cx="219.6" cy="94.2" r="3.8" class="st5"/>
  <circle id="connector33pin" cx="205.2" cy="94.2" r="3.8" class="st5"/>
  <circle id="connector34pin" cx="190.8" cy="94.2" r="3.8" class="st5"/>
  <circle id="connector35pin" cx="176.4" cy="94.2" r="3.8" class="st5"/>
  <circle id="connector36pin" cx="162" cy="94.2" r="3.8" class="st5"/>
  <circle id="connector37pin" cx="147.6" cy="94.2" r="3.8" class="st5"/>
  <circle id="connector38pin" cx="133.2" cy="94.2" r="3.8" class="st5"/>
  <circle id="connector39pin" cx="118.8" cy="94.2" r="3.8" class="st5"/>
  <circle id="connector40pin" cx="104.4" cy="94.2" r="3.8" class="st5"/>
  <circle id="connector41pin" cx="90" cy="94.2" r="3.8" class="st5"/>
  <circle id="connector42pin" cx="75.6" cy="94.2" r="3.8" class="st5"/>
  <circle id="connector43pin" cx="61.2" cy="94.2" r="3.8" class="st5"/>
  <circle id="connector44pin" cx="46.8" cy="94.2" r="3.8" class="st5"/>
  <circle id="connector45pin" cx="32.4" cy="94.2" r="3.8" class="st5"/>
  <circle id="connector55pin" cx="247.8" cy="65.4" r="3.8" class="st5"/>
  <path id="Rectangle-path_1_" d="M244 61.6h7.6v7.6H244z" class="st5"/>
  <circle id="connector56pin" cx="233.4" cy="65.4" r="3.8" class="st5"/>
  <circle id="connector57pin" cx="247.8" cy="51" r="3.8" class="st5"/>
  <circle id="connector58pin" cx="233.4" cy="51" r="3.8" class="st5"/>
  <circle id="connector59pin" cx="247.8" cy="36.6" r="3.8" class="st5"/>
  <circle id="connector60pin" cx="233.4" cy="36.6" r="3.8" class="st5"/>
  <g id="Group_38_" transform="translate(40 100)">
    <path id="Shape_1_" d="M114.9-42h-.3v-8.8h.3v-6.7h-12.6v22.2h12.6z" class="st6"/>
    <path id="Shape_2_" d="M100.3-50.8h.3v8.8h-.3v6.7h12.5v-22.2h-12.5z" class="st6"/>
    <circle id="Oval" cx="107.6" cy="-46.4" r="4.6"/>
    <path id="Shape_3_" d="M107.4-51c-2.6 0-4.6 2.1-4.6 4.6 0 2.6 2.1 4.6 4.6 4.6h.2c-2.6 0-4.6-2.1-4.6-4.6 0-2.6 2.1-4.6 4.6-4.6h-.2z" class="st7"/>
    <circle id="Oval_1_" cx="107.6" cy="-46.4" r="4.5" fill="#1a1a1a"/>
    <circle id="Oval_2_" cx="107.7" cy="-46.4" r="4.5" class="st9"/>
    <path id="Shape_4_" d="M107.5-50.9c-2.5 0-4.5 2-4.5 4.5s2 4.5 4.5 4.5h.2c-2.5 0-4.5-2-4.5-4.5s2-4.5 4.5-4.5h-.2z" class="st7"/>
    <path id="Shape_5_" d="M107.5-41.9c2.5 0 4.5-2 4.5-4.5s-2-4.5-4.5-4.5h.2c2.5 0 4.5 2 4.5 4.5s-2 4.5-4.5 4.5h-.2z" class="st10"/>
    <path id="Rectangle-path_2_" d="M113.9-42h1v6.7h-1z" class="st10"/>
    <path id="Rectangle-path_3_" d="M113.9-57.5h1v6.7h-1z" class="st10"/>
    <path id="Rectangle-path_4_" d="M113.6-50.8h1v8.8h-1z" class="st10"/>
    <path id="Rectangle-path_5_" d="M99.6-42h1v6.7h-1z" class="st7"/>
    <path id="Rectangle-path_6_" d="M99.6-57.5h1v6.7h-1z" class="st7"/>
    <path id="Rectangle-path_7_" d="M99.9-50.8h1v8.8h-1z" class="st7"/>
  </g>
  <g id="led-0603_2_" transform="translate(73.108 68.677)">
    <path id="Shape_6_" d="M114.4 1.6H100" class="st11"/>
    <path id="Rectangle-path_8_" d="M99.7 1.6h14.7v7.7H99.7z" class="st12"/>
    <path id="Shape_7_" d="M104.9 1.6s-1.3.9-1.7.9c-.4-.1-1.1.3-1.4 0v-.9h3.1z" class="st13"/>
    <g id="Group_39_" transform="translate(2 6)">
      <path id="Rectangle-path_9_" d="M104.4-1.4h1.7V.5h-1.7z" class="st2"/>
      <path id="Rectangle-path_10_" d="M104.4-1.5h1.7v1h-1.7z" class="st14"/>
    </g>
    <g id="Group_40_" transform="translate(0 2)">
      <path id="Shape_8_" d="M103.8.5l-1.9-.2v1.4l1.9-.2z" class="st15"/>
      <path id="Shape_9_" d="M103.7.9c.5.1.9.2 1.2.3.4.2 1.1 1.6 1.7 1.4.1 0 .1 0 .1.1s0 .1-.1.2c-.6.2-1.3-1.2-1.8-1.4-.3-.1-.6-.2-1.1-.3-.1 0-.1-.1-.1-.1 0-.2 0-.2.1-.2z" class="st15"/>
      <path id="Shape_10_" d="M110.6 6.2l1.9.3V5l-1.9.2z" class="st15"/>
      <path id="Shape_11_" d="M107.3 3.2c.1 0 .1 0 .1.1.1.6 2.2 2.3 3.8 2.3.1 0 .1 0 .1.1s-.1.1-.1.1c-1.5 0-3.8-1.5-4-2.5 0 0 0-.1.1-.1z" class="st15"/>
      <path id="Shape_12_" d="M106.4 3.2s.7 0 .8-.6h-.8v.6z" class="st15"/>
      <path id="Shape_13_" d="M107.2 3.8s-.3-.6-.1-.7c.2-.1.4-.1.5.1.1.1-.4.6-.4.6z" class="st15"/>
      <path id="Shape_14_" d="M106.5 2.5c-.5.2-1.2-1.2-1.7-1.4-.3-.1-.7-.3-1.2-.3v.1c.5.1.9.2 1.2.3.4.2 1.1 1.6 1.7 1.4v-.1z" class="st16"/>
      <path id="Shape_15_" d="M110.6 5.1l1.9-.2V5l-1.9.2z" class="st16"/>
      <path id="Shape_16_" d="M107.4 3.2c.1.6 2.1 2.4 3.8 2.3v.1c-1.8.1-3.7-1.7-3.8-2.3v-.1z" class="st16"/>
      <path id="Shape_17_" d="M107.1 2.4h-.8v.1h.8v-.1z" class="st16"/>
      <path id="Shape_18_" d="M107.6 3.1c-.1-.2-.3-.2-.5-.1v.1c.2-.1.4-.1.5.1v-.1z" class="st16"/>
    </g>
    <path id="Rectangle-path_11_" d="M103 9.2h8.4v1H103z" class="st17"/>
    <path id="Shape_19_" d="M112.5 9.3V1.6h-10.6v7.7z" class="st18"/>
    <path id="Shape_20_" d="M112.4 8v.5c0 .3 0 .5-.2.5h-9.7c-.3 0-.4-.1 0-.1h8.7c.9 0 1-.2 1-.4V8c.1-.4.2-.4.2 0z" class="st19"/>
    <path id="Shape_21_" d="M102.2 2.1c0-.1 0-.3.2-.3h9.6c.3 0 .4.1 0 .1h-7.2c-1.2 0-2.6.2-2.6.2z" class="st20"/>
    <path id="Shape_22_" d="M114.4 1.6h-1.5v1c0 .3-.2.4-.4.5v6.1h2V1.6" class="st15"/>
    <path id="Rectangle-path_12_" d="M112.5 9.2h2v1h-2z" class="st17"/>
    <path id="Shape_23_" d="M99.7 1.6v7.7h2.1V2.4c-.2-.1-.4-.3-.4-.5v-.3h-1.7" class="st15"/>
    <path id="Rectangle-path_13_" d="M99.7 9.2h2.1v1h-2.1z" class="st17"/>
  </g>
  <g id="led-0603_3_" transform="translate(53.108 68.677)">
    <path id="Shape_24_" d="M134.4-14.6H120" class="st11"/>
    <path id="Rectangle-path_14_" d="M119.7-14.6h14.7v7.7h-14.7z" class="st12"/>
    <path id="Shape_25_" d="M124.9-14.6s-1.3.9-1.7.9c-.4-.1-1.1.3-1.4 0v-.8l3.1-.1z" class="st13"/>
    <g id="Group_41_" transform="translate(4 6)">
      <path id="Rectangle-path_15_" d="M122.4-17.7h1.7v1.9h-1.7z" class="st2"/>
      <path id="Rectangle-path_16_" d="M122.4-17.8h1.7v1h-1.7z" class="st14"/>
    </g>
    <g id="Group_42_" transform="translate(2 2)">
      <path id="Shape_26_" d="M121.8-15.8l-1.9-.2v1.5l1.9-.3z" class="st15"/>
      <path id="Shape_27_" d="M121.7-15.4c.5.1.9.2 1.2.3.4.2 1.1 1.6 1.7 1.4.1 0 .1 0 .1.1s0 .1-.1.2c-.6.2-1.3-1.2-1.8-1.4-.3-.1-.6-.2-1.1-.3-.1 0-.1-.1-.1-.1 0-.1 0-.2.1-.2z" class="st15"/>
      <path id="Shape_28_" d="M128.6-10l1.9.2v-1.5l-1.9.2z" class="st15"/>
      <path id="Shape_29_" d="M125.3-13.1c.1 0 .1 0 .1.1.1.6 2.2 2.3 3.8 2.3.1 0 .1 0 .1.1s-.1.1-.1.1c-1.5 0-3.8-1.5-4-2.5l.1-.1z" class="st15"/>
      <path id="Shape_30_" d="M124.4-13.1s.7 0 .8-.6h-.8v.6z" class="st15"/>
      <path id="Shape_31_" d="M125.2-12.5s-.3-.6-.1-.7c.2-.1.4-.1.5.1.1.2-.4.6-.4.6z" class="st15"/>
      <path id="Shape_32_" d="M124.5-13.8c-.5.2-1.2-1.2-1.7-1.4-.3-.1-.7-.3-1.2-.3v.1c.5.1.9.2 1.2.3.4.2 1.1 1.6 1.7 1.4v-.1z" class="st16"/>
      <path id="Shape_33_" d="M128.6-11.2l1.9-.2v.1l-1.9.2z" class="st16"/>
      <path id="Shape_34_" d="M125.4-13.1c.1.6 2.1 2.4 3.8 2.3v.1c-1.8.1-3.7-1.7-3.8-2.3v-.1z" class="st16"/>
      <path id="Shape_35_" d="M125.1-13.8h-.8v.1h.8v-.1z" class="st16"/>
      <path id="Shape_36_" d="M125.6-13.2c-.1-.2-.3-.2-.5-.1v.1c.2-.1.4-.1.5.1v-.1z" class="st16"/>
    </g>
    <path id="Rectangle-path_17_" d="M123-7.1h8.4v1H123z" class="st17"/>
    <path id="Shape_37_" d="M132.5-7v-7.6h-10.6V-7z" class="st18"/>
    <path id="Shape_38_" d="M132.4-8.3v.5c0 .3 0 .5-.2.5h-9.7c-.3 0-.4-.1 0-.1h8.7c.9 0 1-.2 1-.4v-.5c.1-.3.2-.3.2 0z" class="st19"/>
    <path id="Shape_39_" d="M122.2-14.2c0-.1 0-.3.2-.3h9.6c.3 0 .4.1 0 .1h-7.2c-1.2.1-2.6.2-2.6.2z" class="st20"/>
    <path id="Shape_40_" d="M134.4-14.6h-1.5v1c0 .3-.2.4-.4.5V-7h2v-7.7" class="st15"/>
    <path id="Rectangle-path_18_" d="M132.5-7.1h2v1h-2z" class="st17"/>
    <path id="Shape_41_" d="M119.7-14.6V-7h2.1v-6.9c-.2-.1-.4-.3-.4-.5v-.2h-1.7" class="st15"/>
    <path id="Rectangle-path_19_" d="M119.7-7.1h2.1v1h-2.1z" class="st17"/>
  </g>
  <g id="led-0603_5_" transform="translate(33.108 68.677)">
    <path id="Shape_42_" d="M154.4-30.9H140" class="st11"/>
    <path id="Rectangle-path_20_" d="M139.7-30.9h14.7v7.7h-14.7z" class="st12"/>
    <path id="Shape_43_" d="M144.9-30.9s-1.3.9-1.7.9c-.4-.1-1.1.3-1.4 0v-.8l3.1-.1z" class="st13"/>
    <g id="Group_43_" transform="translate(4 6)">
      <path id="Rectangle-path_21_" d="M142.4-34h1.7v1.9h-1.7z" class="st2"/>
      <path id="Rectangle-path_22_" d="M142.4-34h1.7v1h-1.7z" class="st14"/>
    </g>
    <g id="Group_44_" transform="translate(2 2)">
      <path id="Shape_44_" d="M141.8-32.1l-1.9-.2v1.5l1.9-.2z" class="st15"/>
      <path id="Shape_45_" d="M141.7-31.7c.5.1.9.2 1.2.3.4.2 1.1 1.6 1.7 1.4.1 0 .1 0 .1.1s0 .1-.1.2c-.6.2-1.3-1.2-1.8-1.4-.3-.1-.6-.2-1.1-.3-.1 0-.1-.1-.1-.1 0-.1 0-.2.1-.2z" class="st15"/>
      <path id="Shape_46_" d="M148.6-26.3l1.9.2v-1.4l-1.9.2z" class="st15"/>
      <path id="Shape_47_" d="M145.3-29.3c.1 0 .1 0 .1.1.1.6 2.2 2.3 3.8 2.3.1 0 .1 0 .1.1s-.1.1-.1.1c-1.5 0-3.8-1.5-4-2.5 0 0 0-.1.1-.1z" class="st15"/>
      <path id="Shape_48_" d="M144.4-29.4s.7 0 .8-.6h-.8v.6z" class="st15"/>
      <path id="Shape_49_" d="M145.2-28.7s-.3-.6-.1-.7c.2-.1.4-.1.5.1.1.1-.4.6-.4.6z" class="st15"/>
      <path id="Shape_50_" d="M144.5-30.1c-.5.2-1.2-1.2-1.7-1.4-.3-.1-.7-.3-1.2-.3v.1c.5.1.9.2 1.2.3.4.2 1.1 1.6 1.7 1.4v-.1z" class="st16"/>
      <path id="Shape_51_" d="M148.6-27.4l1.9-.3v.2l-1.9.2z" class="st16"/>
      <path id="Shape_52_" d="M145.4-29.3c.1.6 2.1 2.4 3.8 2.3v.1c-1.8.1-3.7-1.7-3.8-2.3v-.1z" class="st16"/>
      <path id="Shape_53_" d="M145.1-30.1h-.8v.1h.8v-.1z" class="st16"/>
      <path id="Shape_54_" d="M145.6-29.5c-.1-.2-.3-.1-.5-.1v.1c.2-.1.4-.1.5.1v-.1z" class="st16"/>
    </g>
    <path id="Rectangle-path_23_" d="M143-23.3h8.4v1H143z" class="st17"/>
    <path id="Shape_55_" d="M152.5-23.2v-7.7h-10.6v7.7z" class="st18"/>
    <path id="Shape_56_" d="M152.4-24.5v.5c0 .3 0 .5-.2.5h-9.7c-.3 0-.4-.1 0-.1h8.7c.9 0 1-.2 1-.4v-.5c.1-.4.2-.4.2 0z" class="st19"/>
    <path id="Shape_57_" d="M142.2-30.5c0-.1 0-.3.2-.3h9.6c.3 0 .4.1 0 .1h-7.2c-1.2.1-2.6.2-2.6.2z" class="st20"/>
    <path id="Shape_58_" d="M154.4-30.9h-1.5v1c0 .3-.2.4-.4.5v6.1h2V-31" class="st15"/>
    <path id="Rectangle-path_24_" d="M152.5-23.3h2v1h-2z" class="st17"/>
    <path id="Shape_59_" d="M139.7-30.9v7.7h2.1v-6.9c-.2-.1-.4-.3-.4-.5v-.2h-1.7" class="st15"/>
    <path id="Rectangle-path_25_" d="M139.7-23.3h2.1v1h-2.1z" class="st17"/>
  </g>
  <g id="led-0603_4_" transform="translate(19.108 68.677)">
    <path id="Shape_60_" d="M168.4-47.2H154" class="st11"/>
    <path id="Rectangle-path_26_" d="M153.7-47.2h14.7v7.7h-14.7z" class="st12"/>
    <path id="Shape_61_" d="M158.9-47.2s-1.3.9-1.7.9c-.4-.1-1.1.3-1.4 0v-.8l3.1-.1z" class="st13"/>
    <g id="Group_45_" transform="translate(2 6)">
      <path id="Rectangle-path_27_" d="M158.4-50.2h1.7v1.9h-1.7z" class="st2"/>
      <path id="Rectangle-path_28_" d="M158.4-50.3h1.7v1h-1.7z" class="st14"/>
    </g>
    <g id="Group_46_" transform="translate(0 2)">
      <path id="Shape_62_" d="M157.8-48.3l-1.9-.2v1.4l1.9-.2z" class="st15"/>
      <path id="Shape_63_" d="M157.7-47.9c.5.1.9.2 1.2.3.4.2 1.1 1.6 1.7 1.4.1 0 .1 0 .1.1s0 .1-.1.2c-.6.2-1.3-1.2-1.8-1.4-.3-.1-.6-.2-1.1-.3-.1 0-.1-.1-.1-.1 0-.2 0-.2.1-.2z" class="st15"/>
      <path id="Shape_64_" d="M164.6-42.6l1.9.3v-1.5l-1.9.2z" class="st15"/>
      <path id="Shape_65_" d="M161.3-45.6c.1 0 .1 0 .1.1.1.6 2.2 2.3 3.8 2.3.1 0 .1 0 .1.1s-.1.1-.1.1c-1.5 0-3.8-1.5-4-2.5 0 0 0-.1.1-.1z" class="st15"/>
      <path id="Shape_66_" d="M160.4-45.6s.7 0 .8-.6h-.8v.6z" class="st15"/>
      <path id="Shape_67_" d="M161.2-45s-.3-.6-.1-.7c.2-.1.4-.1.5.1.1.1-.4.6-.4.6z" class="st15"/>
      <path id="Shape_68_" d="M160.5-46.3c-.5.2-1.2-1.2-1.7-1.4-.3-.1-.7-.3-1.2-.3v.1c.5.1.9.2 1.2.3.4.2 1.1 1.6 1.7 1.4v-.1z" class="st16"/>
      <path id="Shape_69_" d="M164.6-43.7l1.9-.2v.1l-1.9.2z" class="st16"/>
      <path id="Shape_70_" d="M161.4-45.6c.1.6 2.1 2.4 3.8 2.3v.1c-1.8.1-3.7-1.7-3.8-2.3v-.1z" class="st16"/>
      <path id="Shape_71_" d="M161.1-46.4h-.8v.1h.8v-.1z" class="st16"/>
      <path id="Shape_72_" d="M161.6-45.7c-.1-.2-.3-.2-.5-.1v.1c.2-.1.4-.1.5.1v-.1z" class="st16"/>
    </g>
    <path id="Rectangle-path_29_" d="M157-39.6h8.4v1H157z" class="st17"/>
    <path id="Shape_73_" d="M166.5-39.5v-7.7h-10.6v7.7z" class="st18"/>
    <path id="Shape_74_" d="M166.4-40.8v.5c0 .3 0 .5-.2.5h-9.7c-.3 0-.4-.1 0-.1h8.7c.9 0 1-.2 1-.4v-.5c.1-.4.2-.4.2 0z" class="st19"/>
    <path id="Shape_75_" d="M156.2-46.7c0-.1 0-.3.2-.3h9.6c.3 0 .4.1 0 .1h-7.2c-1.2 0-2.6.2-2.6.2z" class="st20"/>
    <path id="Shape_76_" d="M168.4-47.2h-1.5v1c0 .3-.2.4-.4.5v6.1h2v-7.7" class="st15"/>
    <path id="Rectangle-path_30_" d="M166.5-39.6h2v1h-2z" class="st17"/>
    <path id="Shape_77_" d="M153.7-47.2v7.7h2.1v-6.9c-.2-.1-.4-.3-.4-.5v-.2h-1.7" class="st15"/>
    <path id="Rectangle-path_31_" d="M153.7-39.6h2.1v1h-2.1z" class="st17"/>
  </g>
  <path id="Rectangle-path_32_" d="M79.8 33.6h37.6v38.7H79.8z" class="st9" transform="rotate(-45.001 98.66 52.968)"/>
  <g id="Group_47_">
    <g transform="translate(2 220)">
      <circle id="Oval_3_" cx="30.3" cy="-212.2" r="3.8" class="st21"/>
      <path id="Shape_78_" d="M29.7-208.4c2.1 0 3.8-1.7 3.8-3.8 0-2.1-1.7-3.8-3.8-3.8h.7c2.1 0 3.8 1.7 3.8 3.8 0 2.1-1.7 3.8-3.8 3.8h-.7z" class="st10"/>
      <path id="Shape_79_" d="M31-215.9c-2.1 0-3.8 1.7-3.8 3.8 0 2.1 1.7 3.8 3.8 3.8h-.7c-2.1 0-3.8-1.7-3.8-3.8 0-2.1 1.7-3.8 3.8-3.8h.7z" class="st22"/>
      <g id="Rectangle-path_33_">
        <path d="M26.8-215.7H30v3.2h-3.2z" class="st6" transform="translate(2 2)"/>
        <path d="M28.9-215.7h1v3.2h-1z" class="st10" transform="translate(2 2)"/>
        <path d="M26-215.7h1v3.2h-1z" class="st23" transform="translate(2 2)"/>
      </g>
    </g>
    <g transform="translate(2 206)">
      <circle id="Oval_4_" cx="44.7" cy="-198.2" r="3.8" class="st21"/>
      <path id="Shape_80_" d="M44.1-194.4c2.1 0 3.8-1.7 3.8-3.8 0-2.1-1.7-3.8-3.8-3.8h.7c2.1 0 3.8 1.7 3.8 3.8 0 2.1-1.7 3.8-3.8 3.8h-.7z" class="st10"/>
      <path id="Shape_81_" d="M45.4-201.9c-2.1 0-3.8 1.7-3.8 3.8 0 2.1 1.7 3.8 3.8 3.8h-.7c-2.1 0-3.8-1.7-3.8-3.8 0-2.1 1.7-3.8 3.8-3.8h.7z" class="st22"/>
      <g id="Rectangle-path_34_">
        <path d="M41.2-201.7h3.2v3.2h-3.2z" class="st6" transform="translate(2 2)"/>
        <path d="M43.3-201.7h1v3.2h-1z" class="st10" transform="translate(2 2)"/>
        <path d="M40.4-201.7h1v3.2h-1z" class="st23" transform="translate(2 2)"/>
      </g>
    </g>
    <g transform="translate(2 192)">
      <circle id="Oval_5_" cx="59.1" cy="-184.2" r="3.8" class="st21"/>
      <path id="Shape_82_" d="M58.5-180.4c2.1 0 3.8-1.7 3.8-3.8 0-2.1-1.7-3.8-3.8-3.8h.7c2.1 0 3.8 1.7 3.8 3.8 0 2.1-1.7 3.8-3.8 3.8h-.7z" class="st10"/>
      <path id="Shape_83_" d="M59.8-187.9c-2.1 0-3.8 1.7-3.8 3.8 0 2.1 1.7 3.8 3.8 3.8h-.7c-2.1 0-3.8-1.7-3.8-3.8 0-2.1 1.7-3.8 3.8-3.8h.7z" class="st22"/>
      <g id="Rectangle-path_35_">
        <path d="M55.6-187.7h3.2v3.2h-3.2z" class="st6" transform="translate(2 2)"/>
        <path d="M57.7-187.7h1v3.2h-1z" class="st10" transform="translate(2 2)"/>
        <path d="M54.8-187.7h1v3.2h-1z" class="st23" transform="translate(2 2)"/>
      </g>
    </g>
    <g transform="translate(2 178)">
      <circle id="Oval_6_" cx="73.5" cy="-170.2" r="3.8" class="st21"/>
      <path id="Shape_84_" d="M72.9-166.4c2.1 0 3.8-1.7 3.8-3.8 0-2.1-1.7-3.8-3.8-3.8h.7c2.1 0 3.8 1.7 3.8 3.8 0 2.1-1.7 3.8-3.8 3.8h-.7z" class="st10"/>
      <path id="Shape_85_" d="M74.2-173.9c-2.1 0-3.8 1.7-3.8 3.8 0 2.1 1.7 3.8 3.8 3.8h-.7c-2.1 0-3.8-1.7-3.8-3.8 0-2.1 1.7-3.8 3.8-3.8h.7z" class="st22"/>
      <g id="Rectangle-path_36_">
        <path d="M70-173.7h3.2v3.2H70z" class="st6" transform="translate(2 2)"/>
        <path d="M72.1-173.7h1v3.2h-1z" class="st10" transform="translate(2 2)"/>
        <path d="M69.2-173.7h1v3.2h-1z" class="st23" transform="translate(2 2)"/>
      </g>
    </g>
    <g transform="translate(2 162)">
      <circle id="Oval_7_" cx="88" cy="-154.2" r="3.8" class="st21"/>
      <path id="Shape_86_" d="M87.3-150.4c2.1 0 3.8-1.7 3.8-3.8 0-2.1-1.7-3.8-3.8-3.8h.7c2.1 0 3.8 1.7 3.8 3.8 0 2.1-1.7 3.8-3.8 3.8h-.7z" class="st10"/>
      <path id="Shape_87_" d="M88.6-157.9c-2.1 0-3.8 1.7-3.8 3.8 0 2.1 1.7 3.8 3.8 3.8h-.7c-2.1 0-3.8-1.7-3.8-3.8 0-2.1 1.7-3.8 3.8-3.8h.7z" class="st22"/>
      <g id="Rectangle-path_37_">
        <path d="M84.4-159.7h3.2v3.2h-3.2z" class="st6" transform="translate(2 4)"/>
        <path d="M86.5-159.7h1v3.2h-1z" class="st10" transform="translate(2 4)"/>
        <path d="M83.6-159.7h1v3.2h-1z" class="st23" transform="translate(2 4)"/>
      </g>
    </g>
    <g transform="translate(2 148)">
      <circle id="Oval_8_" cx="102.4" cy="-140.2" r="3.8" class="st21"/>
      <path id="Shape_88_" d="M101.7-136.4c2.1 0 3.8-1.7 3.8-3.8 0-2.1-1.7-3.8-3.8-3.8h.7c2.1 0 3.8 1.7 3.8 3.8 0 2.1-1.7 3.8-3.8 3.8h-.7z" class="st10"/>
      <path id="Shape_89_" d="M103-143.9c-2.1 0-3.8 1.7-3.8 3.8 0 2.1 1.7 3.8 3.8 3.8h-.7c-2.1 0-3.8-1.7-3.8-3.8 0-2.1 1.7-3.8 3.8-3.8h.7z" class="st22"/>
      <g id="Rectangle-path_38_">
        <path d="M98.8-143.7h3.2v3.2h-3.2z" class="st6" transform="translate(2 2)"/>
        <path d="M100.9-143.7h1v3.2h-1z" class="st10" transform="translate(2 2)"/>
        <path d="M98-143.7h1v3.2h-1z" class="st23" transform="translate(2 2)"/>
      </g>
    </g>
    <g transform="translate(2 134)">
      <circle id="Oval_9_" cx="116.8" cy="-126.2" r="3.8" class="st21"/>
      <path id="Shape_90_" d="M116.1-122.4c2.1 0 3.8-1.7 3.8-3.8 0-2.1-1.7-3.8-3.8-3.8h.7c2.1 0 3.8 1.7 3.8 3.8 0 2.1-1.7 3.8-3.8 3.8h-.7z" class="st10"/>
      <path id="Shape_91_" d="M117.4-129.9c-2.1 0-3.8 1.7-3.8 3.8 0 2.1 1.7 3.8 3.8 3.8h-.7c-2.1 0-3.8-1.7-3.8-3.8 0-2.1 1.7-3.8 3.8-3.8h.7z" class="st22"/>
      <g id="Rectangle-path_39_">
        <path d="M113.2-129.7h3.2v3.2h-3.2z" class="st6" transform="translate(2 2)"/>
        <path d="M115.3-129.7h1v3.2h-1z" class="st10" transform="translate(2 2)"/>
        <path d="M112.4-129.7h1v3.2h-1z" class="st23" transform="translate(2 2)"/>
      </g>
    </g>
    <g transform="translate(2 120)">
      <circle id="Oval_10_" cx="131.1" cy="-112.2" r="3.8" class="st21"/>
      <path id="Shape_92_" d="M130.5-108.4c2.1 0 3.8-1.7 3.8-3.8 0-2.1-1.7-3.8-3.8-3.8h.7c2.1 0 3.8 1.7 3.8 3.8 0 2.1-1.7 3.8-3.8 3.8h-.7z" class="st10"/>
      <path id="Shape_93_" d="M131.8-115.9c-2.1 0-3.8 1.7-3.8 3.8 0 2.1 1.7 3.8 3.8 3.8h-.7c-2.1 0-3.8-1.7-3.8-3.8 0-2.1 1.7-3.8 3.8-3.8h.7z" class="st22"/>
      <g id="Rectangle-path_40_">
        <path d="M127.6-115.7h3.2v3.2h-3.2z" class="st6" transform="translate(2 2)"/>
        <path d="M129.7-115.7h1v3.2h-1z" class="st10" transform="translate(2 2)"/>
        <path d="M126.8-115.7h1v3.2h-1z" class="st23" transform="translate(2 2)"/>
      </g>
    </g>
    <g transform="translate(2 106)">
      <circle id="Oval_11_" cx="145.5" cy="-98.2" r="3.8" class="st21"/>
      <path id="Shape_94_" d="M144.9-94.4c2.1 0 3.8-1.7 3.8-3.8 0-2.1-1.7-3.8-3.8-3.8h.7c2.1 0 3.8 1.7 3.8 3.8 0 2.1-1.7 3.8-3.8 3.8h-.7z" class="st10"/>
      <path id="Shape_95_" d="M146.2-101.9c-2.1 0-3.8 1.7-3.8 3.8 0 2.1 1.7 3.8 3.8 3.8h-.7c-2.1 0-3.8-1.7-3.8-3.8 0-2.1 1.7-3.8 3.8-3.8h.7z" class="st22"/>
      <g id="Rectangle-path_41_">
        <path d="M142-101.7h3.2v3.2H142z" class="st6" transform="translate(2 2)"/>
        <path d="M144.1-101.7h1v3.2h-1z" class="st10" transform="translate(2 2)"/>
        <path d="M141.2-101.7h1v3.2h-1z" class="st23" transform="translate(2 2)"/>
      </g>
    </g>
    <g transform="translate(2 90)">
      <circle id="Oval_12_" cx="159.9" cy="-82.2" r="3.8" class="st21"/>
      <path id="Shape_96_" d="M159.3-78.4c2.1 0 3.8-1.7 3.8-3.8 0-2.1-1.7-3.8-3.8-3.8h.7c2.1 0 3.8 1.7 3.8 3.8 0 2.1-1.7 3.8-3.8 3.8h-.7z" class="st10"/>
      <path id="Shape_97_" d="M160.6-85.9c-2.1 0-3.8 1.7-3.8 3.8 0 2.1 1.7 3.8 3.8 3.8h-.7c-2.1 0-3.8-1.7-3.8-3.8 0-2.1 1.7-3.8 3.8-3.8h.7z" class="st22"/>
      <g id="Rectangle-path_42_">
        <path d="M156.4-87.7h3.2v3.2h-3.2z" class="st6" transform="translate(2 4)"/>
        <path d="M158.5-87.7h1v3.2h-1z" class="st10" transform="translate(2 4)"/>
        <path d="M155.6-87.7h1v3.2h-1z" class="st23" transform="translate(2 4)"/>
      </g>
    </g>
    <g transform="translate(2 76)">
      <circle id="Oval_13_" cx="174.4" cy="-68.2" r="3.8" class="st21"/>
      <path id="Shape_98_" d="M173.7-64.4c2.1 0 3.8-1.7 3.8-3.8 0-2.1-1.7-3.8-3.8-3.8h.7c2.1 0 3.8 1.7 3.8 3.8 0 2.1-1.7 3.8-3.8 3.8h-.7z" class="st10"/>
      <path id="Shape_99_" d="M175-71.9c-2.1 0-3.8 1.7-3.8 3.8 0 2.1 1.7 3.8 3.8 3.8h-.7c-2.1 0-3.8-1.7-3.8-3.8 0-2.1 1.7-3.8 3.8-3.8h.7z" class="st22"/>
      <g id="Rectangle-path_43_">
        <path d="M170.8-71.7h3.2v3.2h-3.2z" class="st6" transform="translate(2 2)"/>
        <path d="M172.9-71.7h1v3.2h-1z" class="st10" transform="translate(2 2)"/>
        <path d="M170-71.7h1v3.2h-1z" class="st23" transform="translate(2 2)"/>
      </g>
    </g>
    <g transform="translate(2 62)">
      <circle id="Oval_14_" cx="188.7" cy="-54.2" r="3.8" class="st21"/>
      <path id="Shape_100_" d="M188.1-50.4c2.1 0 3.8-1.7 3.8-3.8s-1.7-3.8-3.8-3.8h.7c2.1 0 3.8 1.7 3.8 3.8s-1.7 3.8-3.8 3.8h-.7z" class="st10"/>
      <path id="Shape_101_" d="M189.4-57.9c-2.1 0-3.8 1.7-3.8 3.8s1.7 3.8 3.8 3.8h-.7c-2.1 0-3.8-1.7-3.8-3.8s1.7-3.8 3.8-3.8h.7z" class="st22"/>
      <g id="Rectangle-path_44_">
        <path d="M185.2-57.7h3.2v3.2h-3.2z" class="st6" transform="translate(2 2)"/>
        <path d="M187.3-57.7h1v3.2h-1z" class="st10" transform="translate(2 2)"/>
        <path d="M184.4-57.7h1v3.2h-1z" class="st23" transform="translate(2 2)"/>
      </g>
    </g>
    <g transform="translate(2 48)">
      <circle id="Oval_15_" cx="203.2" cy="-40.2" r="3.8" class="st21"/>
      <path id="Shape_102_" d="M202.5-36.4c2.1 0 3.8-1.7 3.8-3.8s-1.7-3.8-3.8-3.8h.7c2.1 0 3.8 1.7 3.8 3.8s-1.7 3.8-3.8 3.8h-.7z" class="st10"/>
      <path id="Shape_103_" d="M203.8-43.9c-2.1 0-3.8 1.7-3.8 3.8s1.7 3.8 3.8 3.8h-.7c-2.1 0-3.8-1.7-3.8-3.8s1.7-3.8 3.8-3.8h.7z" class="st22"/>
      <g id="Rectangle-path_45_">
        <path d="M199.6-43.7h3.2v3.2h-3.2z" class="st6" transform="translate(2 2)"/>
        <path d="M201.7-43.7h1v3.2h-1z" class="st10" transform="translate(2 2)"/>
        <path d="M198.8-43.7h1v3.2h-1z" class="st23" transform="translate(2 2)"/>
      </g>
    </g>
    <g transform="translate(2 34)">
      <circle id="Oval_16_" cx="217.6" cy="-26.2" r="3.8" class="st21"/>
      <path id="Shape_104_" d="M216.9-22.4c2.1 0 3.8-1.7 3.8-3.8S219-30 216.9-30h.7c2.1 0 3.8 1.7 3.8 3.8s-1.7 3.8-3.8 3.8h-.7z" class="st10"/>
      <path id="Shape_105_" d="M218.2-29.9c-2.1 0-3.8 1.7-3.8 3.8s1.7 3.8 3.8 3.8h-.7c-2.1 0-3.8-1.7-3.8-3.8s1.7-3.8 3.8-3.8h.7z" class="st22"/>
      <g id="Rectangle-path_46_">
        <path d="M214-29.7h3.2v3.2H214z" class="st6" transform="translate(2 2)"/>
        <path d="M216.1-29.7h1v3.2h-1z" class="st10" transform="translate(2 2)"/>
        <path d="M213.2-29.7h1v3.2h-1z" class="st23" transform="translate(2 2)"/>
      </g>
    </g>
    <g transform="translate(2 18)">
      <circle id="Oval_17_" cx="232" cy="-10.2" r="3.8" class="st21"/>
      <path id="Shape_106_" d="M231.3-6.4c2.1 0 3.8-1.7 3.8-3.8s-1.7-3.8-3.8-3.8h.7c2.1 0 3.8 1.7 3.8 3.8S234-6.4 232-6.4h-.7z" class="st10"/>
      <path id="Shape_107_" d="M232.6-13.9c-2.1 0-3.8 1.7-3.8 3.8s1.7 3.8 3.8 3.8h-.6c-2.1 0-3.8-1.7-3.8-3.8s1.7-3.8 3.8-3.8h.6z" class="st22"/>
      <g id="Rectangle-path_47_">
        <path d="M228.4-15.7h3.2v3.2h-3.2z" class="st6" transform="translate(2 4)"/>
        <path d="M230.5-15.7h1v3.2h-1z" class="st10" transform="translate(2 4)"/>
        <path d="M227.6-15.7h1v3.2h-1z" class="st23" transform="translate(2 4)"/>
      </g>
    </g>
  </g>
  <g id="Group_48_">
    <g transform="translate(88 220)">
      <circle id="Oval_18_" cx="-55.6" cy="-125.7" r="3.8" class="st21"/>
      <path id="Shape_108_" d="M-56.2-121.9c2.1 0 3.8-1.7 3.8-3.8 0-2.1-1.7-3.8-3.8-3.8h.7c2.1 0 3.8 1.7 3.8 3.8 0 2.1-1.7 3.8-3.8 3.8h-.7z" class="st10"/>
      <path id="Shape_109_" d="M-54.9-129.5c-2.1 0-3.8 1.7-3.8 3.8 0 2.1 1.7 3.8 3.8 3.8h-.7c-2.1 0-3.8-1.7-3.8-3.8 0-2.1 1.7-3.8 3.8-3.8h.7z" class="st22"/>
      <g id="Rectangle-path_48_">
        <path d="M-61.2-129.3h3.2v3.2h-3.2z" class="st6" transform="translate(4 2)"/>
        <path d="M-59-129.3h1v3.2h-1z" class="st10" transform="translate(4 2)"/>
        <path d="M-61.9-129.3h1v3.2h-1z" class="st23" transform="translate(4 2)"/>
      </g>
    </g>
    <g transform="translate(88 206)">
      <circle id="Oval_19_" cx="-41.2" cy="-111.7" r="3.8" class="st21"/>
      <path id="Shape_110_" d="M-41.8-107.9c2.1 0 3.8-1.7 3.8-3.8 0-2.1-1.7-3.8-3.8-3.8h.7c2.1 0 3.8 1.7 3.8 3.8 0 2.1-1.7 3.8-3.8 3.8h-.7z" class="st10"/>
      <path id="Shape_111_" d="M-40.5-115.5c-2.1 0-3.8 1.7-3.8 3.8 0 2.1 1.7 3.8 3.8 3.8h-.7c-2.1 0-3.8-1.7-3.8-3.8 0-2.1 1.7-3.8 3.8-3.8h.7z" class="st22"/>
      <g id="Rectangle-path_49_">
        <path d="M-46.8-115.3h3.2v3.2h-3.2z" class="st6" transform="translate(4 2)"/>
        <path d="M-44.6-115.3h1v3.2h-1z" class="st10" transform="translate(4 2)"/>
        <path d="M-47.5-115.3h1v3.2h-1z" class="st23" transform="translate(4 2)"/>
      </g>
    </g>
    <g transform="translate(88 192)">
      <circle id="Oval_20_" cx="-26.8" cy="-97.7" r="3.8" class="st21"/>
      <path id="Shape_112_" d="M-27.4-93.9c2.1 0 3.8-1.7 3.8-3.8 0-2.1-1.7-3.8-3.8-3.8h.7c2.1 0 3.8 1.7 3.8 3.8 0 2.1-1.7 3.8-3.8 3.8h-.7z" class="st10"/>
      <path id="Shape_113_" d="M-26.1-101.5c-2.1 0-3.8 1.7-3.8 3.8 0 2.1 1.7 3.8 3.8 3.8h-.7c-2.1 0-3.8-1.7-3.8-3.8 0-2.1 1.7-3.8 3.8-3.8h.7z" class="st22"/>
      <g id="Rectangle-path_50_">
        <path d="M-32.4-101.3h3.2v3.2h-3.2z" class="st6" transform="translate(4 2)"/>
        <path d="M-30.2-101.3h1v3.2h-1z" class="st10" transform="translate(4 2)"/>
        <path d="M-33.1-101.3h1v3.2h-1z" class="st23" transform="translate(4 2)"/>
      </g>
    </g>
    <g transform="translate(88 178)">
      <circle id="Oval_21_" cx="-12.4" cy="-83.7" r="3.8" class="st21"/>
      <path id="Shape_114_" d="M-13-79.9c2.1 0 3.8-1.7 3.8-3.8 0-2.1-1.7-3.8-3.8-3.8h.7c2.1 0 3.8 1.7 3.8 3.8 0 2.1-1.7 3.8-3.8 3.8h-.7z" class="st10"/>
      <path id="Shape_115_" d="M-11.7-87.5c-2.1 0-3.8 1.7-3.8 3.8 0 2.1 1.7 3.8 3.8 3.8h-.7c-2.1 0-3.8-1.7-3.8-3.8 0-2.1 1.7-3.8 3.8-3.8h.7z" class="st22"/>
      <g id="Rectangle-path_51_">
        <path d="M-18-87.3h3.2v3.2H-18z" class="st6" transform="translate(4 2)"/>
        <path d="M-15.8-87.3h1v3.2h-1z" class="st10" transform="translate(4 2)"/>
        <path d="M-18.7-87.3h1v3.2h-1z" class="st23" transform="translate(4 2)"/>
      </g>
    </g>
    <g transform="translate(88 162)">
      <circle id="Oval_22_" cx="2" cy="-67.7" r="3.8" class="st21"/>
      <path id="Shape_116_" d="M1.4-63.9c2.1 0 3.8-1.7 3.8-3.8 0-2.1-1.7-3.8-3.8-3.8H2c2.1 0 3.8 1.7 3.8 3.8 0 2.1-1.7 3.8-3.8 3.8h-.6z" class="st10"/>
      <path id="Shape_117_" d="M2.7-71.5c-2.1 0-3.8 1.7-3.8 3.8 0 2.1 1.7 3.8 3.8 3.8H2c-2.1 0-3.8-1.7-3.8-3.8 0-2.1 1.7-3.8 3.8-3.8h.7z" class="st22"/>
      <g id="Rectangle-path_52_">
        <path d="M-3.6-71.3h3.2v3.2h-3.2z" class="st6" transform="translate(4 2)"/>
        <path d="M-1.4-71.3h1v3.2h-1z" class="st10" transform="translate(4 2)"/>
        <path d="M-4.3-71.3h1v3.2h-1z" class="st23" transform="translate(4 2)"/>
      </g>
    </g>
    <g transform="translate(88 148)">
      <circle id="Oval_23_" cx="16.4" cy="-53.7" r="3.8" class="st21"/>
      <path id="Shape_118_" d="M15.8-49.9c2.1 0 3.8-1.7 3.8-3.8s-1.7-3.8-3.8-3.8h.7c2.1 0 3.8 1.7 3.8 3.8s-1.7 3.8-3.8 3.8h-.7z" class="st10"/>
      <path id="Shape_119_" d="M17.1-57.5c-2.1 0-3.8 1.7-3.8 3.8s1.7 3.8 3.8 3.8h-.7c-2.1 0-3.8-1.7-3.8-3.8s1.7-3.8 3.8-3.8h.7z" class="st22"/>
      <g id="Rectangle-path_53_">
        <path d="M10.8-57.3H14v3.2h-3.2z" class="st6" transform="translate(4 2)"/>
        <path d="M13-57.3h1v3.2h-1z" class="st10" transform="translate(4 2)"/>
        <path d="M10.1-57.3h1v3.2h-1z" class="st23" transform="translate(4 2)"/>
      </g>
    </g>
    <g transform="translate(88 134)">
      <circle id="Oval_24_" cx="30.8" cy="-39.7" r="3.8" class="st21"/>
      <path id="Shape_120_" d="M30.2-35.9c2.1 0 3.8-1.7 3.8-3.8s-1.7-3.8-3.8-3.8h.7c2.1 0 3.8 1.7 3.8 3.8s-1.7 3.8-3.8 3.8h-.7z" class="st10"/>
      <path id="Shape_121_" d="M31.5-43.5c-2.1 0-3.8 1.7-3.8 3.8s1.7 3.8 3.8 3.8h-.7c-2.1 0-3.8-1.7-3.8-3.8s1.7-3.8 3.8-3.8h.7z" class="st22"/>
      <g id="Rectangle-path_54_">
        <path d="M25.2-43.3h3.2v3.2h-3.2z" class="st6" transform="translate(4 2)"/>
        <path d="M27.4-43.3h1v3.2h-1z" class="st10" transform="translate(4 2)"/>
        <path d="M24.5-43.3h1v3.2h-1z" class="st23" transform="translate(4 2)"/>
      </g>
    </g>
    <g transform="translate(88 120)">
      <circle id="Oval_25_" cx="45.2" cy="-25.7" r="3.8" class="st21"/>
      <path id="Shape_122_" d="M44.6-21.9c2.1 0 3.8-1.7 3.8-3.8s-1.7-3.8-3.8-3.8h.7c2.1 0 3.8 1.7 3.8 3.8s-1.7 3.8-3.8 3.8h-.7z" class="st10"/>
      <path id="Shape_123_" d="M45.9-29.5c-2.1 0-3.8 1.7-3.8 3.8s1.7 3.8 3.8 3.8h-.7c-2.1 0-3.8-1.7-3.8-3.8s1.7-3.8 3.8-3.8h.7z" class="st22"/>
      <g id="Rectangle-path_55_">
        <path d="M39.6-29.3h3.2v3.2h-3.2z" class="st6" transform="translate(4 2)"/>
        <path d="M41.8-29.3h1v3.2h-1z" class="st10" transform="translate(4 2)"/>
        <path d="M38.9-29.3h1v3.2h-1z" class="st23" transform="translate(4 2)"/>
      </g>
    </g>
    <g transform="translate(88 106)">
      <circle id="Oval_26_" cx="59.6" cy="-11.7" r="3.8" class="st21"/>
      <path id="Shape_124_" d="M59-7.9c2.1 0 3.8-1.7 3.8-3.8S61-15.5 59-15.5h.7c2.1 0 3.8 1.7 3.8 3.8s-1.7 3.8-3.8 3.8H59z" class="st10"/>
      <path id="Shape_125_" d="M60.3-15.5c-2.1 0-3.8 1.7-3.8 3.8s1.7 3.8 3.8 3.8h-.7c-2.1 0-3.8-1.7-3.8-3.8s1.7-3.8 3.8-3.8h.7z" class="st22"/>
      <g id="Rectangle-path_56_">
        <path d="M54-15.3h3.2v3.2H54z" class="st6" transform="translate(4 2)"/>
        <path d="M56.2-15.3h1v3.2h-1z" class="st10" transform="translate(4 2)"/>
        <path d="M53.3-15.3h1v3.2h-1z" class="st23" transform="translate(4 2)"/>
      </g>
    </g>
    <g transform="translate(88 90)">
      <circle id="Oval_27_" cx="74" cy="4.3" r="3.8" class="st21"/>
      <path id="Shape_126_" d="M73.4 8.1c2.1 0 3.8-1.7 3.8-3.8S75.5.5 73.4.5h.6c2.1 0 3.8 1.7 3.8 3.8S76.1 8.1 74 8.1h-.6z" class="st10"/>
      <path id="Shape_127_" d="M74.7.5c-2.1 0-3.8 1.7-3.8 3.8s1.7 3.8 3.8 3.8H74c-2.1 0-3.8-1.7-3.8-3.8S71.9.5 74 .5h.7z" class="st22"/>
      <g id="Rectangle-path_57_">
        <path d="M68.4.7h3.2v3.2h-3.2z" class="st6" transform="translate(4 2)"/>
        <path d="M70.6.7h1v3.2h-1z" class="st10" transform="translate(4 2)"/>
        <path d="M67.7.7h1v3.2h-1z" class="st23" transform="translate(4 2)"/>
      </g>
    </g>
    <g transform="translate(88 76)">
      <circle id="Oval_28_" cx="88.4" cy="18.3" r="3.8" class="st21"/>
      <path id="Shape_128_" d="M87.8 22.1c2.1 0 3.8-1.7 3.8-3.8s-1.7-3.8-3.8-3.8h.7c2.1 0 3.8 1.7 3.8 3.8s-1.7 3.8-3.8 3.8h-.7z" class="st10"/>
      <path id="Shape_129_" d="M89.1 14.5c-2.1 0-3.8 1.7-3.8 3.8s1.7 3.8 3.8 3.8h-.7c-2.1 0-3.8-1.7-3.8-3.8s1.7-3.8 3.8-3.8h.7z" class="st22"/>
      <g id="Rectangle-path_58_">
        <path d="M82.8 14.7H86v3.2h-3.2z" class="st6" transform="translate(4 2)"/>
        <path d="M85 14.7h1v3.2h-1z" class="st10" transform="translate(4 2)"/>
        <path d="M82.1 14.7h1v3.2h-1z" class="st23" transform="translate(4 2)"/>
      </g>
    </g>
    <g transform="translate(88 62)">
      <circle id="Oval_29_" cx="102.8" cy="32.3" r="3.8" class="st21"/>
      <path id="Shape_130_" d="M102.2 36.1c2.1 0 3.8-1.7 3.8-3.8s-1.7-3.8-3.8-3.8h.7c2.1 0 3.8 1.7 3.8 3.8s-1.7 3.8-3.8 3.8h-.7z" class="st10"/>
      <path id="Shape_131_" d="M103.5 28.5c-2.1 0-3.8 1.7-3.8 3.8s1.7 3.8 3.8 3.8h-.7c-2.1 0-3.8-1.7-3.8-3.8s1.7-3.8 3.8-3.8h.7z" class="st22"/>
      <g id="Rectangle-path_59_">
        <path d="M97.2 28.7h3.2v3.2h-3.2z" class="st6" transform="translate(4 2)"/>
        <path d="M99.4 28.7h1v3.2h-1z" class="st10" transform="translate(4 2)"/>
        <path d="M96.5 28.7h1v3.2h-1z" class="st23" transform="translate(4 2)"/>
      </g>
    </g>
    <g transform="translate(88 48)">
      <circle id="Oval_30_" cx="117.2" cy="46.3" r="3.8" class="st21"/>
      <path id="Shape_132_" d="M116.6 50.1c2.1 0 3.8-1.7 3.8-3.8s-1.7-3.8-3.8-3.8h.7c2.1 0 3.8 1.7 3.8 3.8s-1.7 3.8-3.8 3.8h-.7z" class="st10"/>
      <path id="Shape_133_" d="M117.9 42.5c-2.1 0-3.8 1.7-3.8 3.8s1.7 3.8 3.8 3.8h-.7c-2.1 0-3.8-1.7-3.8-3.8s1.7-3.8 3.8-3.8h.7z" class="st22"/>
      <g id="Rectangle-path_60_">
        <path d="M111.6 42.7h3.2v3.2h-3.2z" class="st6" transform="translate(4 2)"/>
        <path d="M113.8 42.7h1v3.2h-1z" class="st10" transform="translate(4 2)"/>
        <path d="M110.9 42.7h1v3.2h-1z" class="st23" transform="translate(4 2)"/>
      </g>
    </g>
    <g transform="translate(88 34)">
      <circle id="Oval_31_" cx="131.6" cy="60.3" r="3.8" class="st21"/>
      <path id="Shape_134_" d="M131 64.1c2.1 0 3.8-1.7 3.8-3.8s-1.7-3.8-3.8-3.8h.7c2.1 0 3.8 1.7 3.8 3.8s-1.7 3.8-3.8 3.8h-.7z" class="st10"/>
      <path id="Shape_135_" d="M132.3 56.5c-2.1 0-3.8 1.7-3.8 3.8s1.7 3.8 3.8 3.8h-.7c-2.1 0-3.8-1.7-3.8-3.8s1.7-3.8 3.8-3.8h.7z" class="st22"/>
      <g id="Rectangle-path_61_">
        <path d="M126 56.7h3.2v3.2H126z" class="st6" transform="translate(4 2)"/>
        <path d="M128.2 56.7h1v3.2h-1z" class="st10" transform="translate(4 2)"/>
        <path d="M125.3 56.7h1v3.2h-1z" class="st23" transform="translate(4 2)"/>
      </g>
    </g>
    <g transform="translate(88 18)">
      <circle id="Oval_32_" cx="146" cy="76.3" r="3.8" class="st21"/>
      <path id="Shape_136_" d="M145.4 80.1c2.1 0 3.8-1.7 3.8-3.8 0-2.1-1.7-3.8-3.8-3.8h.7c2.1 0 3.8 1.7 3.8 3.8 0 2.1-1.7 3.8-3.8 3.8h-.7z" class="st10"/>
      <path id="Shape_137_" d="M146.7 72.5c-2.1 0-3.8 1.7-3.8 3.8 0 2.1 1.7 3.8 3.8 3.8h-.7c-2.1 0-3.8-1.7-3.8-3.8 0-2.1 1.7-3.8 3.8-3.8h.7z" class="st22"/>
      <g id="Rectangle-path_62_">
        <path d="M140.4 72.7h3.2v3.2h-3.2z" class="st6" transform="translate(4 2)"/>
        <path d="M142.6 72.7h1v3.2h-1z" class="st10" transform="translate(4 2)"/>
        <path d="M139.7 72.7h1v3.2h-1z" class="st23" transform="translate(4 2)"/>
      </g>
    </g>
  </g>
  <g id="con2_usb_micro_b_at_2_" transform="translate(17.111 198.898)">
    <g id="con2_usb_micro_b_at_3_" transform="translate(1.208 .164)">
      <path id="Rectangle-path_63_" d="M-5.6-128.2H8.7v10.8H-5.6z" class="st6"/>
      <path id="Rectangle-path_64_" d="M25.6-128.2h14.3v10.8H25.6z" class="st6"/>
      <path id="Rectangle-path_65_" d="M-5.6-178.7H8.7v10.8H-5.6z" class="st6"/>
      <path id="Rectangle-path_66_" d="M-6.3-128.2h1v10.8h-1z" class="st12"/>
      <path id="Rectangle-path_67_" d="M-6.3-178.7h1v10.8h-1z" class="st12"/>
      <path id="Rectangle-path_68_" d="M7.7-128.2h1v10.8h-1z" class="st7"/>
      <path id="Rectangle-path_69_" d="M7.7-178.7h1v10.8h-1z" class="st7"/>
      <path id="Rectangle-path_70_" d="M25.6-178.7h14.3v10.8H25.6z" class="st6"/>
      <path id="Rectangle-path_71_" d="M25-128.2h1v10.8h-1z" class="st12"/>
      <path id="Rectangle-path_72_" d="M25-178.7h1v10.8h-1z" class="st12"/>
      <g id="Group_49_" transform="translate(20)">
        <path id="Rectangle-path_73_" d="M13.4-158.7h6v2.5h-6z" class="st24"/>
        <path id="Rectangle-path_74_" d="M13.8-158.7h5.6v1h-5.6z" class="st25"/>
      </g>
      <g id="Group_50_" transform="translate(26)">
        <path id="Rectangle-path_75_" d="M7.4-154h6v2.5h-6z" class="st24"/>
        <path id="Rectangle-path_76_" d="M7.8-154h5.6v1H7.8z" class="st25"/>
      </g>
      <g id="Group_51_" transform="translate(30)">
        <path id="Rectangle-path_77_" d="M3.4-149.3h6v2.5h-6z" class="st24"/>
        <path id="Rectangle-path_78_" d="M3.8-149.3h5.6v1H3.8z" class="st25"/>
      </g>
      <g id="Group_52_" transform="translate(34)">
        <path id="Rectangle-path_79_" d="M-.6-144.7h6v2.5h-6z" class="st24"/>
        <path id="Rectangle-path_80_" d="M-.2-144.7h5.6v1H-.2z" class="st25"/>
      </g>
      <g id="Group_53_" transform="translate(40)">
        <path id="Rectangle-path_81_" d="M-6.6-140h6v2.5h-6z" class="st24"/>
        <path id="Rectangle-path_82_" d="M-6.2-140h5.6v1h-5.6z" class="st25"/>
      </g>
      <g id="Group_54_" transform="translate(10 6)">
        <path id="Shape_140_" d="M-26.7-132.8v-42.5h50.8v42.5z" class="st14"/>
        <path id="Rectangle-path_83_" d="M23.1-175.3h1v42.4h-1z" class="st6"/>
        <path id="Rectangle-path_84_" d="M-23.6-172H24v35.9h-47.6z" class="st9"/>
        <path id="Shape_141_" d="M22.8-175.8l1.3.5v5.7s-.3-5.2-.6-5.4c-.4-.2-.6.2-.6.2l-.1-1z" class="st6"/>
        <path id="Shape_142_" d="M22.8-132.4l1.3-.5v-5.7s-.3 5.2-.6 5.4c-.4.2-.6-.2-.6-.2l-.1 1z" class="st6"/>
        <path id="Shape_143_" d="M-26.7-132.4h50.8v-12.3h-1.3v-18.8h1.3v-12.3h-50.8v43.4zm24.9-7.2c.3 0 .5.2.5.5v1.5c0 .3-.2.5-.5.5h-13.3c-.3 0-.5-.2-.5-.5v-1.5c0-.3.2-.5.5-.5h13.3zm-19.8-8.3v-.4c0-.3.2-.5.5-.5l19.8-1.1c.3 0 .5-.3.5-.5v-7.3c0-.3-.2-.5-.5-.5l-19.8-1.1c-.3 0-.5-.3-.5-.5v-.3c0-.3.2-.5.5-.5L4-159.4c.3 0 .5.3.5.5v9.4c0 .3-.2.5-.5.5l-25.1 1.4c-.3.2-.5-.1-.5-.3zm2.1 7.5l-1.7-1.7c-.2-.2-.4-.6-.4-.9v-1.2c0-.3.2-.5.5-.5h19.3c.3 0 .5.2.5.5v1.2c0 .3-.2.5-.5.5h-14.4c-.3 0-.7.2-.9.4l-1.7 1.7c-.2.2-.5.2-.7 0zm36.2-27.9c.3 0 .5.2.5.5v26.3c0 .3-.2.5-.5.5H15c-.3 0-.5-.2-.5-.5v-26.3c0-.3.2-.5.5-.5h1.7zm-35.5 0l1.7 1.7c.2.2.6.4.9.4h14.4c.3 0 .5.2.5.5v1.2c0 .3-.2.5-.5.5h-19.3c-.3 0-.5-.2-.5-.5v-1.2c0-.3.2-.7.4-.9l1.7-1.7c.2-.2.5-.2.7 0zm17-3.2c.3 0 .5.2.5.5v1.5c0 .3-.2.5-.5.5h-13.3c-.3 0-.5-.2-.5-.5v-1.5c0-.3.2-.5.5-.5h13.3z" class="st21"/>
        <path id="Shape_144_" d="M-26.7-174.9v-.9h50.8v3.5z" class="st12"/>
        <path id="Shape_145_" d="M-26.7-132.4l37.2-1.3 13.6-1.2v2.5z" class="st12"/>
        <path id="Shape_146_" d="M-26-132.4h-.7v-43.4h.7" class="st12"/>
      </g>
    </g>
  </g>
  <g id="_x32_x03" transform="translate(27.568 .503)">
    <g id="Group_55_" transform="rotate(-90 16.313 15.273)">
      <path id="Shape_147_" d="M-40.2 200.8v22.4l3 3h7.8l3.1-3v-22.4l-3.1-3h-7.8z" class="st26"/>
      <path id="Shape_148_" d="M-25.9 200.8v22.4l3 3h7.9l3-3v-22.4l-3-3h-7.9z" class="st26"/>
      <path id="Shape_149_" d="M-11.5 200.8v22.4l3 3h7.9l3-3v-22.4l-3-3h-7.9z" class="st26"/>
      <path id="Shape_150_" d="M-40.2 200.8v22.4l3 3h7.8l3.1-3v-22.4l-3.1-3h-7.8z" class="st26"/>
      <path id="Shape_151_" d="M-25.9 200.8v22.4l3 3h7.9l3-3v-22.4l-3-3h-7.9z" class="st26"/>
      <path id="Shape_152_" d="M-11.5 200.8v22.4l3 3h7.9l3-3v-22.4l-3-3h-7.9z" class="st26"/>
      <path id="Rectangle-path_85_" d="M-7.1 216.8h4.6v4.6h-4.6z" class="st27" transform="rotate(-90 -4.826 219.114)"/>
      <path id="Rectangle-path_86_" d="M-7.1 202.4h4.6v4.6h-4.6z" class="st27" transform="rotate(-90 -4.822 204.716)"/>
      <path id="Rectangle-path_87_" d="M-21.5 216.8h4.6v4.6h-4.6z" class="st27" transform="rotate(-90 -19.224 219.113)"/>
      <path id="Rectangle-path_88_" d="M-21.5 202.4h4.6v4.6h-4.6z" class="st27" transform="rotate(-90 -19.224 204.716)"/>
      <path id="Rectangle-path_89_" d="M-35.9 216.8h4.6v4.6h-4.6z" class="st27" transform="rotate(-90 -33.621 219.112)"/>
      <path id="Rectangle-path_90_" fill="#8d8455" d="M-35.9 202.4h4.6v4.6h-4.6z" transform="rotate(-90 -33.62 204.715)"/>
      <path id="Rectangle-path_91_" d="M-34.8 203.5h2.4v2.4h-2.4z" class="st29" transform="rotate(-90 -33.62 204.712)"/>
      <path id="Shape_153_" d="M-35.9 207l1.1-1.1v-2.4l-1.1-1.1z" class="st30"/>
      <path id="Shape_154_" d="M-32.4 203.5h-2.4l-1.1-1.1h4.6z" class="st31"/>
      <path id="Shape_155_" d="M-32.4 205.9v-2.4l1.1-1.1v4.6z" class="st32"/>
      <path id="Shape_156_" d="M-35.9 207l1.1-1.1h2.4l1.1 1.1z" class="st33"/>
      <path id="Rectangle-path_92_" d="M-34.8 217.9h2.4v2.4h-2.4z" class="st29" transform="rotate(-90 -33.62 219.113)"/>
      <path id="Shape_157_" d="M-35.9 221.4l1.1-1.1v-2.4l-1.1-1.1z" class="st30"/>
      <path id="Shape_158_" d="M-32.4 217.9h-2.4l-1.1-1.1h4.6z" class="st31"/>
      <path id="Shape_159_" d="M-32.4 220.3v-2.4l1.1-1.1v4.6z" class="st32"/>
      <path id="Shape_160_" d="M-35.9 221.4l1.1-1.1h2.4l1.1 1.1z" class="st33"/>
      <path id="Rectangle-path_93_" d="M-20.4 203.5h2.4v2.4h-2.4z" class="st29" transform="rotate(-90 -19.223 204.712)"/>
      <path id="Shape_161_" d="M-21.5 207l1.1-1.1v-2.4l-1.1-1.1z" class="st30"/>
      <path id="Shape_162_" d="M-18 203.5h-2.4l-1.1-1.1h4.6z" class="st31"/>
      <path id="Shape_163_" d="M-18 205.9v-2.4l1.1-1.1v4.6z" class="st32"/>
      <path id="Shape_164_" d="M-21.5 207l1.1-1.1h2.4l1.1 1.1z" class="st33"/>
      <path id="Rectangle-path_94_" d="M-20.4 217.9h2.4v2.4h-2.4z" class="st29" transform="rotate(-90 -19.223 219.114)"/>
      <path id="Shape_165_" d="M-21.5 221.4l1.1-1.1v-2.4l-1.1-1.1z" class="st30"/>
      <path id="Shape_166_" d="M-18 217.9h-2.4l-1.1-1.1h4.6z" class="st31"/>
      <path id="Shape_167_" d="M-18 220.3v-2.4l1.1-1.1v4.6z" class="st32"/>
      <path id="Shape_168_" d="M-21.5 221.4l1.1-1.1h2.4l1.1 1.1z" class="st33"/>
      <path id="Rectangle-path_95_" d="M-6 203.5h2.4v2.4H-6z" class="st29" transform="rotate(-90 -4.82 204.711)"/>
      <path id="Shape_169_" d="M-7.1 207l1.1-1.1v-2.4l-1.1-1.1z" class="st30"/>
      <path id="Shape_170_" d="M-3.6 203.5H-6l-1.1-1.1h4.6z" class="st31"/>
      <path id="Shape_171_" d="M-3.6 205.9v-2.4l1.1-1.1v4.6z" class="st32"/>
      <path id="Shape_172_" d="M-7.1 207l1.1-1.1h2.4l1.1 1.1z" class="st33"/>
      <path id="Rectangle-path_96_" d="M-6 217.9h2.4v2.4H-6z" class="st29" transform="rotate(-90 -4.82 219.113)"/>
      <path id="Shape_173_" d="M-7.1 221.4l1.1-1.1v-2.4l-1.1-1.1z" class="st30"/>
      <path id="Shape_174_" d="M-3.6 217.9H-6l-1.1-1.1h4.6z" class="st31"/>
      <path id="Shape_175_" d="M-3.6 220.3v-2.4l1.1-1.1v4.6z" class="st32"/>
      <path id="Shape_176_" d="M-7.1 221.4l1.1-1.1h2.4l1.1 1.1z" class="st33"/>
    </g>
  </g>
  <path d="M211.5 58.9c.3.3.5.7.5 1.2 0 .3-.1.6-.2.9-.2.3-.4.5-.7.6-.3.1-.6.2-1 .2-.6 0-1.1-.2-1.4-.5-.3-.3-.5-.7-.5-1.2s.2-.9.5-1.2c.3-.3.8-.5 1.4-.5.6 0 1.1.2 1.4.5z" class="st2"/>
  <path d="M211 50.1l-1.4-.5v1.6l1.3-.5c.4-.2.7-.3 1-.3l-.9-.3zm0 0l-1.4-.5v1.6l1.3-.5c.4-.2.7-.3 1-.3l-.9-.3zm4-10.9c-1.3-1.3-3-2-5-2-3.9 0-7 3.1-7 7v16c0 3.9 3.1 7 7 7s7-3.1 7-7v-16c.1-2-.7-3.8-2-5zm-7.3 7.8l3.8-2.5h-3.8v-.6h4.8v.7l-3.8 2.5h3.8v.6h-4.8V47zm0 4.9l1.5-.6v-2l-1.5-.5v-.7l4.8 1.8v.7l-4.8 2v-.7zm0 4.3l3.8-2.5h-3.8v-.6h4.8v.6l-3.8 2.5h3.8v.6h-4.8v-.6zm4.5 5.1c-.2.4-.5.6-.9.8s-.8.3-1.3.3-.9-.1-1.3-.3c-.4-.2-.7-.5-.9-.8-.2-.4-.3-.7-.3-1.2s.1-.9.3-1.2c.2-.3.5-.6.9-.8.4-.2.8-.3 1.2-.3.8 0 1.4.2 1.9.6.5.4.7 1 .7 1.7 0 .4-.1.8-.3 1.2zm-2.6-11.8v1.6l1.3-.5c.4-.2.7-.3 1-.3-.3-.1-.6-.1-.9-.3l-1.4-.5z" class="st2"/>
</svg>
