<svg xmlns="http://www.w3.org/2000/svg" id="图层_1" viewBox="0 0 368.8 282">
  <style>
    .st0{fill:#00979d}.st1{fill:#fff}.st2{fill:#333}.st3{fill:#b3b3b3}.st4{fill:none;stroke:#9a916c;stroke-width:1.5112}.st5{fill:#9a916c}.st6{fill:#232323}.st7{fill:#494949}.st10{opacity:.2;enable-background:new}.st15{fill:#999}.st16{opacity:.2;fill:#fff;enable-background:new}.st18{fill:#1f1f1f}.st20{fill:#666}.st21{fill:#ccc}.st22{fill:#f2f2f2}.st23{fill:gray}.st25{fill:#e6e6e6}.st26{fill:#404040}.st27{fill:#2a2a29}.st28{fill:#474747}.st29{fill:#595959}.st30{fill:#373737}.st31{fill:none}.st32{fill:#22b573;fill-opacity:.7}.st33{fill:#d1c690}.st34{fill:#9d956c}.st35{opacity:.5;fill:#fff;enable-background:new}.st36{opacity:.5;fill:#f2f2f2}.st36,.st37,.st38,.st42{enable-background:new}.st37{fill:#fff;opacity:.55}.st38,.st42{opacity:3.000000e-02}.st42{opacity:.1}.st44{fill:none;stroke:#fff;stroke-linecap:round;stroke-miterlimit:10}.st45{fill:none;stroke:#9a916c;stroke-width:1.5738}.st46{fill:#8d8c8c}.st47{fill:#8d8455}.st48{fill:#8c8663}.st49{fill:#b8af82}.st50{fill:#80795b}.st51{fill:#5e5b43}.st52{fill:none;stroke:#fff;stroke-width:1.599;stroke-linecap:round}
  </style>
  <path d="M347.2.2l8 8v60.4L368.7 82v173l-13.4 13.4v8.1c0 2.9-2.4 5.3-5.3 5.3H11.8c-2.9 0-5.3-2.4-5.3-5.3V5.5C6.5 2.6 8.9.2 11.8.2h335.4z" class="st0"/>
  <circle cx="15.7" cy="62.2" r="1.8" class="st0"/>
  <path d="M11.1 62.2c0 1 .8 1.8 1.8 1.8s1.8-.8 1.8-1.8-.8-1.8-1.8-1.8-1.8.7-1.8 1.8zM13.8 99.2c0 1 .8 1.8 1.8 1.8s1.8-.8 1.8-1.8-.8-1.8-1.8-1.8-1.8.8-1.8 1.8z" class="st0"/>
  <path d="M11.1 99.2c0 1 .8 1.8 1.8 1.8s1.8-.8 1.8-1.8-.8-1.8-1.8-1.8-1.8.8-1.8 1.8z" class="st0"/>
  <circle cx="28.5" cy="66.9" r="1.8" class="st0"/>
  <circle cx="28.5" cy="68.2" r="1.8" class="st0"/>
  <circle cx="28.5" cy="93.1" r="1.8" class="st0"/>
  <path d="M26.7 94.5c0 1 .8 1.8 1.8 1.8s1.8-.8 1.8-1.8-.8-1.8-1.8-1.8-1.8.8-1.8 1.8zM346.9 94.1c0 4.7 3.8 8.5 8.4 8.5 4.7 0 8.5-3.8 8.5-8.4 0-4.7-3.8-8.5-8.4-8.5-4.7-.1-8.5 3.7-8.5 8.4zM346.9 241.6c0 4.7 3.8 8.5 8.4 8.5 4.7 0 8.5-3.8 8.5-8.4 0-4.7-3.8-8.5-8.4-8.5-4.7-.1-8.5 3.7-8.5 8.4zM78.7 13.6c0 4.7 3.8 8.5 8.4 8.5 4.7 0 8.5-3.8 8.5-8.4 0-4.7-3.8-8.5-8.4-8.5-4.7 0-8.5 3.7-8.5 8.4zM72 268.4c0 4.7 3.8 8.5 8.4 8.5s8.5-3.8 8.5-8.4c0-4.7-3.8-8.5-8.4-8.5-4.7 0-8.5 3.7-8.5 8.4zM339.7 13.6c0 1.2 1 2.2 2.2 2.2 1.2 0 2.2-1 2.2-2.2 0-1.2-1-2.2-2.2-2.3-1.2.1-2.2 1.1-2.2 2.3zM326.3 13.6c0 1.2 1 2.2 2.2 2.2 1.2 0 2.2-1 2.2-2.2 0-1.2-1-2.2-2.2-2.3-1.2.1-2.2 1.1-2.2 2.3zM312.9 13.6c0 1.2 1 2.2 2.2 2.2 1.2 0 2.2-1 2.2-2.2 0-1.2-1-2.2-2.2-2.3-1.2.1-2.2 1.1-2.2 2.3zM299.5 13.6c0 1.2 1 2.2 2.2 2.2 1.2 0 2.2-1 2.2-2.2 0-1.2-1-2.2-2.2-2.3-1.2.1-2.2 1.1-2.2 2.3zM286.1 13.6c0 1.2 1 2.2 2.2 2.2 1.2 0 2.2-1 2.3-2.2 0-1.2-1-2.2-2.2-2.3-1.3.1-2.3 1.1-2.3 2.3zM272.7 13.6c0 1.2 1 2.2 2.2 2.2 1.2 0 2.2-1 2.2-2.2 0-1.2-1-2.2-2.2-2.3-1.2.1-2.2 1.1-2.2 2.3zM259.3 13.6c0 1.2 1 2.2 2.2 2.2 1.2 0 2.2-1 2.2-2.2 0-1.2-1-2.2-2.2-2.3-1.2.1-2.2 1.1-2.2 2.3zM245.8 13.6c0 1.2 1 2.2 2.2 2.2 1.2 0 2.2-1 2.2-2.2 0-1.2-1-2.2-2.2-2.3-1.1.1-2.2 1.1-2.2 2.3zM152 268.4c0 1.2 1 2.2 2.2 2.3 1.2 0 2.2-1 2.3-2.2 0-1.2-1-2.2-2.2-2.3-1.3 0-2.3 1-2.3 2.2zM165.4 268.4c0 1.2 1 2.2 2.2 2.3 1.2 0 2.2-1 2.3-2.2 0-1.2-1-2.2-2.2-2.3-1.3 0-2.3 1-2.3 2.2zM178.8 268.4c0 1.2 1 2.2 2.2 2.3 1.2 0 2.2-1 2.3-2.2 0-1.2-1-2.2-2.2-2.3-1.3 0-2.3 1-2.3 2.2zM192.2 268.4c0 1.2 1 2.2 2.2 2.3 1.2 0 2.2-1 2.3-2.2 0-1.2-1-2.2-2.2-2.3-1.3 0-2.3 1-2.3 2.2zM205.6 268.4c0 1.2 1 2.2 2.2 2.3 1.2 0 2.2-1 2.3-2.2 0-1.2-1-2.2-2.2-2.3-1.3 0-2.3 1-2.3 2.2zM219 268.4c0 1.2 1 2.2 2.2 2.3 1.2 0 2.2-1 2.3-2.2 0-1.2-1-2.2-2.2-2.3-1.3 0-2.3 1-2.3 2.2zM232.4 268.4c0 1.2 1 2.2 2.2 2.3 1.2 0 2.2-1 2.3-2.2 0-1.2-1-2.2-2.2-2.3-1.3 0-2.3 1-2.3 2.2zM245.8 268.4c0 1.2 1 2.2 2.2 2.3 1.2 0 2.2-1 2.2-2.2 0-1.2-1-2.2-2.2-2.2-1.1-.1-2.2.9-2.2 2.1zM272.7 268.4c0 1.2 1 2.2 2.2 2.3 1.2 0 2.2-1 2.2-2.2 0-1.2-1-2.2-2.2-2.2-1.2-.1-2.2.9-2.2 2.1zM286.1 268.4c0 1.2 1 2.2 2.2 2.3 1.2 0 2.2-1 2.3-2.2 0-1.2-1-2.2-2.2-2.2-1.3-.1-2.3.9-2.3 2.1zM299.5 268.4c0 1.2 1 2.2 2.2 2.3 1.2 0 2.2-1 2.2-2.2 0-1.2-1-2.2-2.2-2.2-1.2-.1-2.2.9-2.2 2.1zM312.9 268.4c0 1.2 1 2.2 2.2 2.3 1.2 0 2.2-1 2.2-2.2 0-1.2-1-2.2-2.2-2.2-1.2-.1-2.2.9-2.2 2.1zM326.3 268.4c0 1.2 1 2.2 2.2 2.3 1.2 0 2.2-1 2.2-2.2 0-1.2-1-2.2-2.2-2.2-1.2-.1-2.2.9-2.2 2.1zM339.7 268.4c0 1.2 1 2.2 2.2 2.3 1.2 0 2.2-1 2.2-2.2 0-1.2-1-2.2-2.2-2.2-1.2-.1-2.2.9-2.2 2.1zM224.4 13.6c0 1.2 1 2.2 2.2 2.3 1.2 0 2.2-1 2.3-2.2 0-1.2-1-2.2-2.2-2.3-1.3 0-2.3 1-2.3 2.2zM211 13.6c0 1.2 1 2.2 2.2 2.3 1.2 0 2.2-1 2.3-2.2 0-1.2-1-2.2-2.2-2.3-1.3 0-2.3 1-2.3 2.2zM197.6 13.6c0 1.2 1 2.2 2.2 2.3 1.2 0 2.2-1 2.3-2.2 0-1.2-1-2.2-2.2-2.3-1.3 0-2.3 1-2.3 2.2zM184.1 13.6c0 1.2 1 2.2 2.2 2.3 1.2 0 2.2-1 2.3-2.2 0-1.2-1-2.2-2.2-2.3-1.2 0-2.2 1-2.3 2.2zM170.7 13.6c0 1.2 1 2.2 2.2 2.3 1.2 0 2.2-1 2.3-2.2 0-1.2-1-2.2-2.2-2.3-1.3 0-2.3 1-2.3 2.2zM157.3 13.6c0 1.2 1 2.2 2.2 2.3 1.2 0 2.2-1 2.3-2.2 0-1.2-1-2.2-2.2-2.3-1.3 0-2.3 1-2.3 2.2zM143.9 13.6c0 1.2 1 2.2 2.2 2.3 1.2 0 2.2-1 2.3-2.2 0-1.2-1-2.2-2.2-2.3-1.3 0-2.3 1-2.3 2.2zM130.5 13.6c0 1.2 1 2.2 2.2 2.3 1.2 0 2.2-1 2.3-2.2 0-1.2-1-2.2-2.2-2.3-1.3 0-2.3 1-2.3 2.2zM117.1 13.6c0 1.2 1 2.2 2.2 2.3 1.2 0 2.2-1 2.3-2.2 0-1.2-1-2.2-2.2-2.3-1.3 0-2.3 1-2.3 2.2zM103.7 13.6c0 1.2 1 2.2 2.2 2.3 1.2 0 2.2-1 2.3-2.2 0-1.2-1-2.2-2.2-2.3-1.3 0-2.3 1-2.3 2.2z" class="st0"/>
  <path d="M262.5 69.8c-.3-.6-.7-1.2-1.3-1.5-.6-.4-1.2-.5-1.9-.5-1 0-1.9.3-2.6 1-.7.7-1.1 1.8-1.1 3.4 0 1.3.3 2.3 1 3 .7.7 1.6 1.1 2.6 1.1 1.1 0 1.9-.4 2.6-1.1.7-.8 1-1.8 1-3.2.1-.8 0-1.6-.3-2.2zm0 0c-.3-.6-.7-1.2-1.3-1.5-.6-.4-1.2-.5-1.9-.5-1 0-1.9.3-2.6 1-.7.7-1.1 1.8-1.1 3.4 0 1.3.3 2.3 1 3 .7.7 1.6 1.1 2.6 1.1 1.1 0 1.9-.4 2.6-1.1.7-.8 1-1.8 1-3.2.1-.8 0-1.6-.3-2.2zm0 0c-.3-.6-.7-1.2-1.3-1.5-.6-.4-1.2-.5-1.9-.5-1 0-1.9.3-2.6 1-.7.7-1.1 1.8-1.1 3.4 0 1.3.3 2.3 1 3 .7.7 1.6 1.1 2.6 1.1 1.1 0 1.9-.4 2.6-1.1.7-.8 1-1.8 1-3.2.1-.8 0-1.6-.3-2.2zm18.9.2c-.3-.9-.6-1.6-.8-2.2-.1.7-.3 1.4-.6 2l-1.2 3.1h3.6l-1-2.9zm0 0c-.3-.9-.6-1.6-.8-2.2-.1.7-.3 1.4-.6 2l-1.2 3.1h3.6l-1-2.9zm-18.9-.2c-.3-.6-.7-1.2-1.3-1.5-.6-.4-1.2-.5-1.9-.5-1 0-1.9.3-2.6 1-.7.7-1.1 1.8-1.1 3.4 0 1.3.3 2.3 1 3 .7.7 1.6 1.1 2.6 1.1 1.1 0 1.9-.4 2.6-1.1.7-.8 1-1.8 1-3.2.1-.8 0-1.6-.3-2.2zm0 0c-.3-.6-.7-1.2-1.3-1.5-.6-.4-1.2-.5-1.9-.5-1 0-1.9.3-2.6 1-.7.7-1.1 1.8-1.1 3.4 0 1.3.3 2.3 1 3 .7.7 1.6 1.1 2.6 1.1 1.1 0 1.9-.4 2.6-1.1.7-.8 1-1.8 1-3.2.1-.8 0-1.6-.3-2.2zm18.9.2c-.3-.9-.6-1.6-.8-2.2-.1.7-.3 1.4-.6 2l-1.2 3.1h3.6l-1-2.9zm12-1.6c-.4-.3-1-.5-1.7-.5h-3.4v3.5h3c.6 0 1.2-.1 1.5-.2.4-.1.6-.4.8-.6.2-.3.3-.6.3-1 .1-.5-.1-.9-.5-1.2zm11.1 1c-.4-.6-.8-1-1.3-1.2-.4-.1-1-.2-1.8-.2h-2.2v8.1h2.3c.7 0 1.3-.1 1.7-.2.4-.1.7-.3 1-.6.3-.3.6-.8.8-1.3.2-.6.3-1.3.3-2.1-.3-1.1-.5-1.9-.8-2.5zm0 0c-.4-.6-.8-1-1.3-1.2-.4-.1-1-.2-1.8-.2h-2.2v8.1h2.3c.7 0 1.3-.1 1.7-.2.4-.1.7-.3 1-.6.3-.3.6-.8.8-1.3.2-.6.3-1.3.3-2.1-.3-1.1-.5-1.9-.8-2.5zm-11.1-1c-.4-.3-1-.5-1.7-.5h-3.4v3.5h3c.6 0 1.2-.1 1.5-.2.4-.1.6-.4.8-.6.2-.3.3-.6.3-1 .1-.5-.1-.9-.5-1.2zm-12 1.6c-.3-.9-.6-1.6-.8-2.2-.1.7-.3 1.4-.6 2l-1.2 3.1h3.6l-1-2.9zm-18.9-.2c-.3-.6-.7-1.2-1.3-1.5-.6-.4-1.2-.5-1.9-.5-1 0-1.9.3-2.6 1-.7.7-1.1 1.8-1.1 3.4 0 1.3.3 2.3 1 3 .7.7 1.6 1.1 2.6 1.1 1.1 0 1.9-.4 2.6-1.1.7-.8 1-1.8 1-3.2.1-.8 0-1.6-.3-2.2zm50.6-10.3h-74.7c-7.5 0-13.6 5.9-13.6 13 0 7.2 6.1 13 13.6 13h74.7c7.5 0 13.6-5.9 13.6-13 .1-7.1-6.1-13-13.6-13zM243 77.4h-6.7V66.7h1.4v9.4h5.3v1.3zm9.6 0h-8V66.7h7.7V68H246v3.3h5.9v1.3H246v3.6h6.5v1.2zm11.1-2.4c-.4.8-1.1 1.5-1.9 1.9-.8.4-1.7.7-2.6.7-1 0-1.9-.3-2.7-.7-.8-.5-1.4-1.2-1.8-2-.4-.8-.6-1.7-.6-2.7 0-1.8.5-3.2 1.4-4.2.9-1 2.2-1.5 3.7-1.5 1 0 1.9.2 2.7.7.8.5 1.4 1.1 1.8 2 .4.8.6 1.8.6 2.9.1 1-.2 2-.6 2.9zm10.9 2.4h-1.5l-5.6-8.4v8.4h-1.4V66.7h1.4l5.6 8.4v-8.4h1.4v10.7zm9.6 0l-1.3-3.2h-4.5l-1.2 3.2h-1.5l4.1-10.7h1.5l4.4 10.7h-1.5zm10.3 0l-1.4-2.2c-.4-.6-.8-1.1-1-1.5-.3-.3-.5-.6-.7-.7l-.6-.3H288.4v4.7H287V66.7h4.7c1 0 1.7.1 2.2.3.5.2.9.5 1.2 1 .3.5.4 1 .4 1.6 0 .8-.2 1.4-.7 1.9s-1.3.8-2.3 1c.4.2.7.4.8.5.4.4.8.8 1.2 1.4l1.9 2.9h-1.9zm11.7-3.3c-.2.6-.4 1.1-.7 1.5-.3.4-.6.7-1 1-.3.2-.8.4-1.3.5-.5.1-1.1.2-1.7.2h-3.8V66.7h3.7c.8 0 1.5 0 1.9.2.6.1 1.1.4 1.6.8.6.5 1 1.1 1.3 1.8.3.7.4 1.6.4 2.5-.1.8-.2 1.5-.4 2.1zm11.3.9c-.4.8-1.1 1.5-1.9 1.9s-1.7.7-2.6.7c-1 0-1.9-.3-2.7-.7-.8-.5-1.4-1.2-1.8-2-.4-.8-.6-1.7-.6-2.7 0-1.8.5-3.2 1.4-4.2.9-1 2.2-1.5 3.7-1.5 1 0 1.9.2 2.7.7.8.5 1.4 1.1 1.8 2 .4.8.6 1.8.6 2.9.1 1-.1 2-.6 2.9zm-2.5-6.7c-.6-.4-1.2-.5-1.9-.5-1 0-1.9.3-2.6 1-.7.7-1.1 1.8-1.1 3.4 0 1.3.3 2.3 1 3 .7.7 1.6 1.1 2.6 1.1 1.1 0 1.9-.4 2.6-1.1.7-.8 1-1.8 1-3.2 0-.9-.1-1.6-.4-2.3-.2-.6-.6-1.1-1.2-1.4zm-11.9-.1c-.4-.1-1-.2-1.8-.2h-2.2v8.1h2.3c.7 0 1.3-.1 1.7-.2.4-.1.7-.3 1-.6.3-.3.6-.8.8-1.3.2-.6.3-1.3.3-2.1 0-1.1-.2-2-.5-2.6-.6-.5-1-.9-1.6-1.1zm-9.4 2.4c.2-.3.3-.6.3-1 0-.5-.2-.9-.5-1.3-.4-.3-1-.5-1.7-.5h-3.4v3.5h3c.6 0 1.2-.1 1.5-.2.3 0 .6-.2.8-.5zm-13.1-2.8c-.1.7-.3 1.4-.6 2l-1.2 3.1h3.6l-1.1-3c-.3-.8-.5-1.5-.7-2.1zm-19.4.5c-.6-.4-1.2-.5-1.9-.5-1 0-1.9.3-2.6 1-.7.7-1.1 1.8-1.1 3.4 0 1.3.3 2.3 1 3 .7.7 1.6 1.1 2.6 1.1 1.1 0 1.9-.4 2.6-1.1.7-.8 1-1.8 1-3.2 0-.9-.1-1.6-.4-2.3-.2-.6-.7-1.1-1.2-1.4zm1.3 1.5c-.3-.6-.7-1.2-1.3-1.5-.6-.4-1.2-.5-1.9-.5-1 0-1.9.3-2.6 1-.7.7-1.1 1.8-1.1 3.4 0 1.3.3 2.3 1 3 .7.7 1.6 1.1 2.6 1.1 1.1 0 1.9-.4 2.6-1.1.7-.8 1-1.8 1-3.2.1-.8 0-1.6-.3-2.2zm18.9.2c-.3-.9-.6-1.6-.8-2.2-.1.7-.3 1.4-.6 2l-1.2 3.1h3.6l-1-2.9zm12-1.6c-.4-.3-1-.5-1.7-.5h-3.4v3.5h3c.6 0 1.2-.1 1.5-.2.4-.1.6-.4.8-.6.2-.3.3-.6.3-1 .1-.5-.1-.9-.5-1.2zm0 0c-.4-.3-1-.5-1.7-.5h-3.4v3.5h3c.6 0 1.2-.1 1.5-.2.4-.1.6-.4.8-.6.2-.3.3-.6.3-1 .1-.5-.1-.9-.5-1.2zm-12 1.6c-.3-.9-.6-1.6-.8-2.2-.1.7-.3 1.4-.6 2l-1.2 3.1h3.6l-1-2.9zm-18.9-.2c-.3-.6-.7-1.2-1.3-1.5-.6-.4-1.2-.5-1.9-.5-1 0-1.9.3-2.6 1-.7.7-1.1 1.8-1.1 3.4 0 1.3.3 2.3 1 3 .7.7 1.6 1.1 2.6 1.1 1.1 0 1.9-.4 2.6-1.1.7-.8 1-1.8 1-3.2.1-.8 0-1.6-.3-2.2zm0 0c-.3-.6-.7-1.2-1.3-1.5-.6-.4-1.2-.5-1.9-.5-1 0-1.9.3-2.6 1-.7.7-1.1 1.8-1.1 3.4 0 1.3.3 2.3 1 3 .7.7 1.6 1.1 2.6 1.1 1.1 0 1.9-.4 2.6-1.1.7-.8 1-1.8 1-3.2.1-.8 0-1.6-.3-2.2zm0 0c-.3-.6-.7-1.2-1.3-1.5-.6-.4-1.2-.5-1.9-.5-1 0-1.9.3-2.6 1-.7.7-1.1 1.8-1.1 3.4 0 1.3.3 2.3 1 3 .7.7 1.6 1.1 2.6 1.1 1.1 0 1.9-.4 2.6-1.1.7-.8 1-1.8 1-3.2.1-.8 0-1.6-.3-2.2z" class="st1"/>
  <path id="Rectangle-path_4_" d="M229.4 165.3h50.7V216h-50.7z" class="st2"/>
  <path id="Rectangle-path_5_" d="M258.3 122.5h13.2v16.9h-13.2z" class="st3"/>
  <circle id="connector76pin" cx="342" cy="13.6" r="3" class="st4"/>
  <path id="Shape_11_" d="M339 6.7h6v13.8h-6V6.7zm0 6.9c0 1.7 1.3 3 3 3s3-1.3 3-3-1.3-3-3-3-3 1.4-3 3z" class="st5"/>
  <circle id="connector77pin" cx="328.6" cy="13.6" r="3" class="st4"/>
  <path id="Shape_12_" d="M325.6 6.7h6v13.8h-6V6.7zm0 6.9c0 1.7 1.3 3 3 3s3-1.3 3-3-1.3-3-3-3-3 1.4-3 3z" class="st5"/>
  <circle id="connector78pin" cx="315.1" cy="13.6" r="3" class="st4"/>
  <path id="Shape_13_" d="M312.1 6.7h6v13.8h-6V6.7zm0 6.9c0 1.7 1.3 3 3 3s3-1.3 3-3-1.3-3-3-3c-1.6 0-3 1.4-3 3z" class="st5"/>
  <circle id="connector79pin" cx="301.7" cy="13.6" r="3" class="st4"/>
  <path id="Shape_14_" d="M298.7 6.7h6v13.8h-6V6.7zm0 6.9c0 1.7 1.4 3 3 3s3-1.3 3-3-1.3-3-3-3c-1.6 0-3 1.4-3 3z" class="st5"/>
  <circle id="connector80pin" cx="288.3" cy="13.6" r="3" class="st4"/>
  <path id="Shape_15_" d="M285.3 6.7h6v13.8h-6V6.7zm0 6.9c0 1.7 1.3 3 3 3s3-1.3 3-3-1.3-3-3-3c-1.6 0-3 1.4-3 3z" class="st5"/>
  <circle id="connector81pin" cx="274.9" cy="13.6" r="3" class="st4"/>
  <path id="Shape_16_" d="M271.9 6.7h6v13.8h-6V6.7zm0 6.9c0 1.7 1.3 3 3 3s3-1.3 3-3-1.3-3-3-3c-1.6 0-3 1.4-3 3z" class="st5"/>
  <ellipse id="connector82pin" cx="261.5" cy="13.6" class="st4" rx="3" ry="3" transform="rotate(-77.714 261.505 13.61)"/>
  <path id="Shape_17_" d="M258.5 6.7h6v13.8h-6V6.7zm0 6.9c0 1.7 1.3 3 3 3s3-1.3 3-3-1.3-3-3-3-3 1.4-3 3z" class="st5"/>
  <circle id="connector83pin" cx="248.1" cy="13.6" r="3" class="st4"/>
  <path id="Shape_18_" d="M245.1 6.7h6v13.8h-6V6.7zm0 6.9c0 1.7 1.3 3 3 3s3-1.3 3-3-1.3-3-3-3-3 1.4-3 3z" class="st5"/>
  <circle id="connector84pin" cx="154.2" cy="268.4" r="3" class="st4"/>
  <path id="Shape_19_" d="M151.2 261.5h6v13.8h-6v-13.8zm0 6.9c0 1.7 1.3 3 3 3s3-1.3 3-3-1.3-3-3-3-3 1.4-3 3z" class="st5"/>
  <circle id="connector85pin" cx="167.6" cy="268.4" r="3" class="st4"/>
  <path id="Shape_20_" d="M164.6 261.5h6v13.8h-6v-13.8zm0 6.9c0 1.7 1.3 3 3 3s3-1.3 3-3-1.3-3-3-3c-1.6 0-3 1.4-3 3z" class="st5"/>
  <circle id="connector86pin" cx="181" cy="268.4" r="3" class="st4"/>
  <path id="Shape_21_" d="M178 261.5h6v13.8h-6v-13.8zm0 6.9c0 1.7 1.3 3 3 3s3-1.3 3-3-1.3-3-3-3c-1.6 0-3 1.4-3 3z" class="st5"/>
  <circle id="connector87pin" cx="194.4" cy="268.4" r="3" class="st4"/>
  <path id="Shape_22_" d="M191.4 261.5h6v13.8h-6v-13.8zm0 6.9c0 1.7 1.3 3 3 3s3-1.3 3-3-1.3-3-3-3c-1.6 0-3 1.4-3 3z" class="st5"/>
  <circle id="connector88pin" cx="207.8" cy="268.4" r="3" class="st4"/>
  <path id="Shape_23_" d="M204.8 261.5h6v13.8h-6v-13.8zm0 6.9c0 1.7 1.3 3 3 3s3-1.3 3-3-1.3-3-3-3c-1.6 0-3 1.4-3 3z" class="st5"/>
  <circle id="connector89pin" cx="221.3" cy="268.4" r="3" class="st4"/>
  <path id="Shape_24_" d="M218.3 261.5h6v13.8h-6v-13.8zm0 6.9c0 1.7 1.3 3 3 3s3-1.3 3-3-1.3-3-3-3-3 1.4-3 3z" class="st5"/>
  <circle id="connector90pin" cx="234.7" cy="268.4" r="3" class="st4"/>
  <path id="Shape_25_" d="M231.7 261.5h6v13.8h-6v-13.8zm0 6.9c0 1.7 1.4 3 3 3 1.7 0 3-1.3 3-3s-1.3-3-3-3-3 1.4-3 3z" class="st5"/>
  <circle id="connector91pin" cx="248.1" cy="268.4" r="3" class="st4"/>
  <path id="Shape_26_" d="M245.1 261.5h6v13.8h-6v-13.8zm0 6.9c0 1.7 1.3 3 3 3s3-1.3 3-3-1.3-3-3-3-3 1.4-3 3z" class="st5"/>
  <circle id="connector92pin" cx="274.9" cy="268.4" r="3" class="st4"/>
  <path id="Shape_27_" d="M271.9 261.5h6v13.8h-6v-13.8zm0 6.9c0 1.7 1.3 3 3 3s3-1.3 3-3-1.3-3-3-3c-1.6 0-3 1.4-3 3z" class="st5"/>
  <circle id="connector93pin" cx="288.3" cy="268.4" r="3" class="st4"/>
  <path id="Shape_28_" d="M285.3 261.5h6v13.8h-6v-13.8zm0 6.9c0 1.7 1.3 3 3 3s3-1.3 3-3-1.3-3-3-3c-1.6 0-3 1.4-3 3z" class="st5"/>
  <circle id="connector94pin" cx="301.7" cy="268.4" r="3" class="st4"/>
  <path id="Shape_29_" d="M298.7 261.5h6v13.8h-6v-13.8zm0 6.9c0 1.7 1.4 3 3 3s3-1.3 3-3-1.3-3-3-3c-1.6 0-3 1.4-3 3z" class="st5"/>
  <circle id="connector95pin" cx="315.1" cy="268.4" r="3" class="st4"/>
  <path id="Shape_30_" d="M312.1 261.5h6v13.8h-6v-13.8zm0 6.9c0 1.7 1.3 3 3 3s3-1.3 3-3-1.3-3-3-3c-1.6 0-3 1.4-3 3z" class="st5"/>
  <circle id="connector96pin" cx="328.6" cy="268.4" r="3" class="st4"/>
  <path id="Shape_31_" d="M325.6 261.5h6v13.8h-6v-13.8zm0 6.9c0 1.7 1.3 3 3 3s3-1.3 3-3-1.3-3-3-3-3 1.4-3 3z" class="st5"/>
  <circle id="connector97pin" cx="342" cy="268.4" r="3" class="st4"/>
  <path id="Shape_32_" d="M339 261.5h6v13.8h-6v-13.8zm0 6.9c0 1.7 1.3 3 3 3s3-1.3 3-3-1.3-3-3-3-3 1.4-3 3z" class="st5"/>
  <circle id="connector98pin" cx="226.6" cy="13.6" r="3" class="st4"/>
  <path id="Shape_33_" d="M223.6 6.7h6v13.8h-6V6.7zm0 6.9c0 1.7 1.3 3 3 3s3-1.3 3-3-1.3-3-3-3c-1.6 0-3 1.4-3 3z" class="st5"/>
  <circle id="connector99pin" cx="213.2" cy="13.6" r="3" class="st4"/>
  <path id="Shape_34_" d="M210.2 6.7h6v13.8h-6V6.7zm0 6.9c0 1.7 1.3 3 3 3s3-1.3 3-3-1.3-3-3-3c-1.6 0-3 1.4-3 3z" class="st5"/>
  <circle id="connector100pin" cx="199.8" cy="13.6" r="3" class="st4"/>
  <path id="Shape_35_" d="M196.8 6.7h6v13.8h-6V6.7zm0 6.9c0 1.7 1.3 3 3 3s3-1.3 3-3-1.3-3-3-3-3 1.4-3 3z" class="st5"/>
  <circle id="connector101pin" cx="186.4" cy="13.6" r="3" class="st4"/>
  <path id="Shape_36_" d="M183.4 6.7h6v13.8h-6V6.7zm0 6.9c0 1.7 1.3 3 3 3s3-1.3 3-3-1.4-3-3-3c-1.7 0-3 1.4-3 3z" class="st5"/>
  <circle id="connector102pin" cx="173" cy="13.6" r="3" class="st4"/>
  <path id="Shape_37_" d="M170 6.7h6v13.8h-6V6.7zm0 6.9c0 1.7 1.3 3 3 3s3-1.3 3-3-1.3-3-3-3-3 1.4-3 3z" class="st5"/>
  <circle id="connector103pin" cx="159.6" cy="13.6" r="3" class="st4"/>
  <path id="Shape_38_" d="M156.6 6.7h6v13.8h-6V6.7zm0 6.9c0 1.7 1.3 3 3 3s3-1.3 3-3-1.3-3-3-3-3 1.4-3 3z" class="st5"/>
  <circle id="connector104pin" cx="146.2" cy="13.6" r="3" class="st4"/>
  <path id="Shape_39_" d="M143.2 6.7h6v13.8h-6V6.7zm0 6.9c0 1.7 1.3 3 3 3s3-1.3 3-3-1.3-3-3-3-3 1.4-3 3z" class="st5"/>
  <circle id="connector105pin" cx="132.7" cy="13.6" r="3" class="st4"/>
  <path id="Shape_40_" d="M129.7 6.7h6v13.8h-6V6.7zm0 6.9c0 1.7 1.3 3 3 3s3-1.3 3-3-1.3-3-3-3c-1.6 0-3 1.4-3 3z" class="st5"/>
  <circle id="connector106pin" cx="119.3" cy="13.6" r="3" class="st4"/>
  <path id="Shape_41_" d="M116.3 6.7h6v13.8h-6V6.7zm0 6.9c0 1.7 1.3 3 3 3s3-1.3 3-3-1.3-3-3-3c-1.6 0-3 1.4-3 3z" class="st5"/>
  <circle id="connector107pin" cx="105.9" cy="13.6" r="3" class="st4"/>
  <path id="Shape_42_" d="M102.9 6.7h6v13.8h-6V6.7zm0 6.9c0 1.7 1.3 3 3 3s3-1.3 3-3-1.3-3-3-3c-1.6 0-3 1.4-3 3z" class="st5"/>
  <g id="powersupply_dc-21mm" transform="translate(1.76 216.075)">
    <g id="Group_37_" transform="rotate(-90 27.437 27.142)">
      <g id="dc-21mm" transform="translate(1.859 1.624)">
        <g id="Group_36_" transform="rotate(90 25.624 25.945)">
          <g id="Rectangle-path_6_">
            <path d="M-2.8.4h61.4v44.2H-2.8z" class="st6" transform="translate(7.451 1.863)"/>
            <path d="M-1.7 1.5h59.5v3.1H-1.7z" class="st7" transform="translate(7.451 1.863)"/>
            <path fill="#3d3d3d" fill-opacity=".3" d="M-1.7 4.6h59.5v10H-1.7z" transform="translate(7.451 1.863)"/>
            <path d="M-3.6 40.7h61.4v3H-3.6z" transform="translate(7.451 1.863)"/>
            <path fill="#0f0f0f" fill-opacity=".4" d="M-3.6 29.9h61.4v10.9H-3.6z" transform="translate(7.451 1.863)"/>
            <path d="M57.5.4h1.1v44.2h-1.1z" class="st10" transform="translate(7.451 1.863)"/>
          </g>
          <path id="Shape_43_" fill="none" stroke="#000" stroke-width=".5" d="M60.8 46.5V2.3" opacity=".5"/>
          <g opacity=".25" transform="translate(13.04 1.863)">
            <path id="Rectangle-path_7_" d="M-4.3.5h2.4v44.2h-2.4z"/>
            <path id="Shape_44_" stroke="#565656" stroke-width=".5" d="M-3.8 8.5v28.1H21c7.8 0 14-6.3 14-14 0-7.8-6.3-14-14-14l-24.8-.1z"/>
          </g>
          <path id="Shape_45_" d="M9.3 10.3v28.1H34c7.8 0 14-6.3 14-14 0-7.8-6.3-14-14-14l-24.7-.1z" class="st6"/>
          <path id="Rectangle-path_8_" d="M-3.7.6h14.3v47.5H-3.7z" class="st6"/>
          <path id="Rectangle-path_9_" fill="#6d6d6d" d="M66.1 19.1h3.2v10.6h-3.2z"/>
          <path id="Rectangle-path_10_" d="M66.1 13.9h1.8v20.9h-1.8z" class="st7"/>
          <path id="Rectangle-path_11_" d="M-2.4 1.4H9.3v2H-2.4z" class="st7"/>
          <path id="Rectangle-path_12_" d="M-2.4 45.5H9.3v2H-2.4z"/>
        </g>
      </g>
    </g>
  </g>
  <g id="sot223" transform="translate(80.9 173.25)">
    <g id="Group_38_" transform="rotate(90 20.632 21.538)">
      <path id="Rectangle-path_13_" d="M24.8 7.6h9.1V14h-9.1z" class="st15" transform="rotate(90 29.394 10.862)"/>
      <path id="Rectangle-path_14_" d="M12.6 7.6h9.1V14h-9.1z" class="st15" transform="rotate(90 17.187 10.858)"/>
      <path id="Rectangle-path_15_" d="M.4 7.6h9.1V14H.4z" class="st15" transform="rotate(90 4.977 10.859)"/>
      <path id="Rectangle-path_16_" d="M28.9 3.6h1V10h-1z" class="st16" transform="rotate(90 29.394 6.802)"/>
      <path id="Rectangle-path_17_" d="M16.7 3.6h1V10h-1z" class="st16" transform="rotate(90 17.187 6.798)"/>
      <path id="Rectangle-path_18_" d="M4.5 3.6h1V10h-1z" class="st16" transform="rotate(90 4.977 6.799)"/>
      <path id="Rectangle-path_19_" d="M12.3 29.4h9.8v19h-9.8z" class="st15" transform="rotate(90 17.183 38.863)"/>
      <path id="Rectangle-path_20_" d="M16.7 34.5h1v19h-1z" class="st16" transform="rotate(90 17.183 43.986)"/>
      <path id="Rectangle-path_21_" fill="#303030" d="M7.9 6.8h18.5v35.7H7.9z" transform="rotate(90 17.19 24.68)"/>
      <path id="Shape_46_" d="M35 33.9H-.7l1.4-1.3h33z" class="st18"/>
      <path id="Shape_47_" d="M35 15.4H-.7l1.4 1.4h33z" class="st18"/>
      <path id="Shape_48_" d="M35 33.9V15.4l-1.3 1.4v15.8z"/>
      <path id="Shape_49_" fill="#3d3d3d" d="M-.7 33.9V15.4l1.4 1.4v15.8z"/>
      <circle id="Oval_1_" cx="31" cy="19.4" r="1.3" class="st18"/>
    </g>
  </g>
  <g id="con2_usb_micro_b_at_1_" transform="translate(.727 57.901)">
    <g id="Group_46_" transform="rotate(90 19.82 21.562)">
      <g id="con2_usb_micro_b_at" transform="translate(1.125 .153)">
        <g id="Group_40_" transform="translate(9.314)">
          <path id="Rectangle-path_34_" d="M2.6 6.4h2.3v1.8H2.6z" class="st20" transform="rotate(90 3.72 7.301)"/>
          <path id="Rectangle-path_35_" d="M1.4 6.7h2v1h-2z" class="st15" transform="rotate(90 2.467 7.17)"/>
        </g>
        <g id="Group_41_" transform="translate(13.04)">
          <path id="Rectangle-path_36_" d="M2.3 6.4h2.3v1.8H2.3z" class="st20" transform="rotate(90 3.43 7.299)"/>
          <path id="Rectangle-path_37_" d="M1.2 6.7h2v1h-2z" class="st15" transform="rotate(90 2.178 7.17)"/>
        </g>
        <g id="Group_42_" transform="translate(16.765)">
          <path id="Rectangle-path_38_" d="M2 6.4h2.3v1.8H2z" class="st20" transform="rotate(90 3.133 7.3)"/>
          <path id="Rectangle-path_39_" d="M.9 6.7h2v1h-2z" class="st15" transform="rotate(90 1.881 7.173)"/>
        </g>
        <g id="Group_43_" transform="translate(20.49)">
          <path id="Rectangle-path_40_" d="M1.7 6.4H4v1.8H1.7z" class="st20" transform="rotate(90 2.844 7.3)"/>
          <path id="Rectangle-path_41_" d="M.6 6.7h2v1h-2z" class="st15" transform="rotate(90 1.587 7.17)"/>
        </g>
        <g id="Group_44_" transform="translate(24.216)">
          <path id="Rectangle-path_42_" d="M1.4 6.4h2.3v1.8H1.4z" class="st20" transform="rotate(90 2.55 7.297)"/>
          <path id="Rectangle-path_43_" d="M.3 6.7h2v1h-2z" class="st15" transform="rotate(90 1.293 7.17)"/>
        </g>
        <g id="Group_45_" transform="translate(0 1.863)">
          <path id="Shape_80_" d="M37.5 37.7H2.4V6.1h35.1z" class="st3"/>
          <path id="Rectangle-path_44_" d="M36 20.3h5.7v1.9H36z" class="st20" transform="rotate(90 38.787 21.212)"/>
          <path id="Rectangle-path_45_" d="M-1.8 20.3h5.7v1.9h-5.7z" class="st20" transform="rotate(90 1.014 21.21)"/>
          <path id="Rectangle-path_46_" d="M19.4-11h1v35.1h-1z" class="st21" transform="rotate(90 19.933 6.556)"/>
          <path id="Rectangle-path_47_" d="M5.4 11h29.1v19.2H5.4z" class="st2" transform="rotate(90 19.902 20.601)"/>
          <path id="Shape_81_" d="M1.9 37.1v.8L.8 40H.1z" class="st3"/>
          <path id="Shape_82_" d="M1.9 37.9v1L.8 40z" class="st21"/>
          <path id="Shape_83_" d="M39.7 40H39l-1.1-2.1v-.8z" class="st3"/>
          <path id="Shape_84_" d="M39 40l-1.1-1.1v-1z" class="st21"/>
          <g id="Rectangle-path_48_">
            <path d="M17.7 6.1h1.2v1h-1.2z" class="st22" transform="rotate(90 8.06 26.2)"/>
            <path d="M13.8 6.1H15v1h-1.2z" class="st22" transform="rotate(90 4.176 26.197)"/>
            <path d="M9.9 6.1h1.2v1H9.9z" class="st22" transform="rotate(90 .288 26.2)"/>
            <path d="M6 6.1h1.2v1H6z" class="st22" transform="rotate(90 -3.597 26.198)"/>
            <path d="M2.2 6.1h1.2v1H2.2z" class="st22" transform="rotate(90 -7.48 26.198)"/>
            <path d="M1.5 6.1h1.2v1H1.5z" class="st23" transform="rotate(90 -8.189 26.198)"/>
            <path d="M5.3 6.1h1.2v1H5.3z" class="st23" transform="rotate(90 -4.305 26.199)"/>
            <path d="M9.2 6.1h1.2v1H9.2z" class="st23" transform="rotate(90 -.418 26.2)"/>
            <path d="M13.1 6.1h1.2v1h-1.2z" class="st23" transform="rotate(90 3.468 26.198)"/>
            <path d="M17 6.1h1.2v1H17z" class="st23" transform="rotate(90 7.355 26.197)"/>
          </g>
          <path id="Shape_85_" fill="#4d4d4d" d="M10.7 37.4h1v-.7h.9v.7h3v-.7h.9v.7h3v-.7h.9v.7h3v-.7h.9v.7h3v-.7h.9v.7h1.1c.1 0 .3-.1.3-.3v-2c0-.1-.1-.3-.3-.3H10.6c-.1 0-.3.1-.3.3v2c0 .1.1.3.3.3h.1z"/>
          <path id="Shape_86_" d="M1.9 7.1L2.3 6H7s-4.3.2-4.4.5c-.1.4.3.6.3.6h-1z" class="st21"/>
          <path id="Shape_87_" d="M37.9 7.1l-.4-1h-4.7s4.3.2 4.4.5-.2.5-.2.5h.9z" class="st21"/>
          <path id="Shape_88_" d="M31.5 6.1v3h-3v-3h-.9v1H12.1v-1h-1v3h-3v-3H2v31.7h35.9V6.1h-6.4zM11.1 31.9v1.5h-3v-1.6c-.8-.5-1.3-1.4-1.3-2.4 0-1.1.4-2.1 1.3-2.6v-8.3h3v8.3c.9.5 1.5 1.4 1.5 2.6.1 1-.6 2-1.5 2.5zm20.3 0v1.5h-3v-1.6c-.8-.5-1.3-1.4-1.3-2.4 0-1.1.4-2.1 1.3-2.6v-8.3h3v8.3c.9.5 1.5 1.4 1.5 2.6.1 1-.6 2-1.5 2.5z" class="st25"/>
          <path id="Shape_89_" d="M2.7 37.7h-.8V7.1h2.9z" class="st22"/>
          <path id="Shape_90_" d="M37.9 37.7l-1.1-20.4-1.1-10.2h2.2z" class="st15"/>
          <path id="Rectangle-path_49_" d="M9.1 17.4h1v3h-1z" class="st21" transform="rotate(90 9.65 18.918)"/>
          <path id="Rectangle-path_50_" d="M29.4 17.4h1v3h-1z" class="st21" transform="rotate(90 29.938 18.917)"/>
          <path id="Rectangle-path_51_" d="M19.3 20.6h1.2V53h-1.2z" class="st3" transform="rotate(90 19.904 36.747)"/>
          <path id="Rectangle-path_52_" d="M19.4 21.5h1v32.4h-1z" class="st21" transform="rotate(90 19.903 37.658)"/>
        </g>
      </g>
    </g>
  </g>
  <g id="_x31_x08" transform="translate(246.976 5.4)">
    <g id="Group_47_" transform="rotate(-180 55.51 7.637)">
      <path id="Rectangle-path_53_" d="M9.3.7h107.3v13.4H9.3z" class="st26"/>
      <path id="Rectangle-path_54_" d="M13.4 4.8h5.2V10h-5.2z"/>
      <path id="Shape_91_" d="M11.5 2.9l1.9 1.9h5.2l1.9-1.9z" class="st27"/>
      <path id="Shape_92_" d="M20.5 2.9l-1.9 1.9V10l1.9 1.9z" class="st28"/>
      <path id="Shape_93_" d="M20.5 11.9L18.6 10h-5.2l-1.9 1.9z" class="st29"/>
      <path id="Shape_94_" d="M11.5 11.9l1.9-1.9V4.8l-1.9-1.9z" class="st30"/>
      <path id="Rectangle-path_55_" d="M26.8 4.8H32V10h-5.2z"/>
      <path id="Shape_95_" d="M24.9 2.9l1.9 1.9H32l1.9-1.9z" class="st27"/>
      <path id="Shape_96_" d="M33.9 2.9L32 4.8V10l1.9 1.9z" class="st28"/>
      <path id="Shape_97_" d="M33.9 11.9L32 10h-5.2l-1.9 1.9z" class="st29"/>
      <path id="Shape_98_" d="M24.9 11.9l1.9-1.9V4.8l-1.9-1.9z" class="st30"/>
      <path id="Rectangle-path_56_" d="M40.2 4.8h5.2V10h-5.2z"/>
      <path id="Shape_99_" d="M38.3 2.9l1.9 1.9h5.2l1.9-1.9z" class="st27"/>
      <path id="Shape_100_" d="M47.3 2.9l-1.9 1.9V10l1.9 1.9z" class="st28"/>
      <path id="Shape_101_" d="M47.3 11.9L45.4 10h-5.2l-1.9 1.9z" class="st29"/>
      <path id="Shape_102_" d="M38.3 11.9l1.9-1.9V4.8l-1.9-1.9z" class="st30"/>
      <path id="Rectangle-path_57_" d="M53.7 4.8h5.2V10h-5.2z"/>
      <path id="Shape_103_" d="M51.7 2.9l1.9 1.9h5.2l1.9-1.9z" class="st27"/>
      <path id="Shape_104_" d="M60.7 2.9l-1.9 1.9V10l1.9 1.9z" class="st28"/>
      <path id="Shape_105_" d="M60.7 11.9L58.8 10h-5.2l-1.9 1.9z" class="st29"/>
      <path id="Shape_106_" d="M51.7 11.9l1.9-1.9V4.8l-1.9-1.9z" class="st30"/>
      <path id="Rectangle-path_58_" d="M67.1 4.8h5.2V10h-5.2z"/>
      <path id="Shape_107_" d="M65.2 2.9l1.9 1.9h5.1l2-1.9z" class="st27"/>
      <path id="Shape_108_" d="M74.2 2.9l-2 1.9V10l2 1.9z" class="st28"/>
      <path id="Shape_109_" d="M74.2 11.9l-2-1.9h-5.1l-1.9 1.9z" class="st29"/>
      <path id="Shape_110_" d="M65.2 11.9l1.9-1.9V4.8l-1.9-1.9z" class="st30"/>
      <path id="Rectangle-path_59_" d="M80.5 4.8h5.2V10h-5.2z"/>
      <path id="Shape_111_" d="M78.6 2.9l1.9 1.9h5.2l1.9-1.9z" class="st27"/>
      <path id="Shape_112_" d="M87.6 2.9l-1.9 1.9V10l1.9 1.9z" class="st28"/>
      <path id="Shape_113_" d="M87.6 11.9L85.7 10h-5.2l-1.9 1.9z" class="st29"/>
      <path id="Shape_114_" d="M78.6 11.9l1.9-1.9V4.8l-1.9-1.9z" class="st30"/>
      <path id="Rectangle-path_60_" d="M93.9 4.8h5.2V10h-5.2z"/>
      <path id="Shape_115_" d="M92 2.9l1.9 1.9h5.2l1.9-1.9z" class="st27"/>
      <path id="Shape_116_" d="M101 2.9l-1.9 1.9V10l1.9 1.9z" class="st28"/>
      <path id="Shape_117_" d="M101 11.9L99.1 10h-5.2L92 11.9z" class="st29"/>
      <path id="Shape_118_" d="M92 11.9l1.9-1.9V4.8L92 2.9z" class="st30"/>
      <path id="Rectangle-path_61_" d="M107.3 4.8h5.2V10h-5.2z"/>
      <path id="Shape_119_" d="M105.4 2.9l1.9 1.9h5.2l1.9-1.9z" class="st27"/>
      <path id="Shape_120_" d="M114.4 2.9l-1.9 1.9V10l1.9 1.9z" class="st28"/>
      <path id="Shape_121_" d="M114.4 11.9l-1.9-1.9h-5.2l-1.9 1.9z" class="st29"/>
      <path id="Shape_122_" d="M105.4 11.9l1.9-1.9V4.8l-1.9-1.9z" class="st30"/>
    </g>
  </g>
  <g id="_x31_x08_1_" transform="translate(154.913 260.835)">
    <path id="Rectangle-path_62_" d="M-7.4 1.2H99.9v13.4H-7.4z" class="st26"/>
    <path id="Rectangle-path_63_" d="M-3.3 5.3h5.2v5.2h-5.2z"/>
    <path id="Shape_123_" d="M-5.2 3.4l1.9 1.9h5.2l1.9-1.9z" class="st27"/>
    <path id="Shape_124_" d="M3.8 3.4L1.9 5.3v5.2l1.9 1.9z" class="st28"/>
    <path id="Shape_125_" d="M3.8 12.4l-1.9-1.9h-5.2l-1.9 1.9z" class="st29"/>
    <path id="Shape_126_" d="M-5.2 12.4l1.9-1.9V5.3l-1.9-1.9z" class="st30"/>
    <path id="Rectangle-path_64_" d="M10.1 5.3h5.2v5.2h-5.2z"/>
    <path id="Shape_127_" d="M8.2 3.4l1.9 1.9h5.2l1.9-1.9z" class="st27"/>
    <path id="Shape_128_" d="M17.2 3.4l-1.9 1.9v5.2l1.9 1.9z" class="st28"/>
    <path id="Shape_129_" d="M17.2 12.4l-1.9-1.9h-5.2l-1.9 1.9z" class="st29"/>
    <path id="Shape_130_" d="M8.2 12.4l1.9-1.9V5.3L8.2 3.4z" class="st30"/>
    <path id="Rectangle-path_65_" d="M23.5 5.3h5.2v5.2h-5.2z"/>
    <path id="Shape_131_" d="M21.6 3.4l1.9 1.9h5.2l1.9-1.9z" class="st27"/>
    <path id="Shape_132_" d="M30.6 3.4l-1.9 1.9v5.2l1.9 1.9z" class="st28"/>
    <path id="Shape_133_" d="M30.6 12.4l-1.9-1.9h-5.2l-1.9 1.9z" class="st29"/>
    <path id="Shape_134_" d="M21.6 12.4l1.9-1.9V5.3l-1.9-1.9z" class="st30"/>
    <path id="Rectangle-path_66_" d="M36.9 5.3h5.2v5.2h-5.2z"/>
    <path id="Shape_135_" d="M35 3.4l1.9 1.9h5.2L44 3.4z" class="st27"/>
    <path id="Shape_136_" d="M44 3.4l-1.9 1.9v5.2l1.9 1.9z" class="st28"/>
    <path id="Shape_137_" d="M44 12.4l-1.9-1.9h-5.2L35 12.4z" class="st29"/>
    <path id="Shape_138_" d="M35 12.4l1.9-1.9V5.3L35 3.4z" class="st30"/>
    <path id="Rectangle-path_67_" d="M50.3 5.3h5.2v5.2h-5.2z"/>
    <path id="Shape_139_" d="M48.4 3.4l1.9 1.9h5.2l1.9-1.9z" class="st27"/>
    <path id="Shape_140_" d="M57.4 3.4l-1.9 1.9v5.2l1.9 1.9z" class="st28"/>
    <path id="Shape_141_" d="M57.4 12.4l-1.9-1.9h-5.2l-1.9 1.9z" class="st29"/>
    <path id="Shape_142_" d="M48.4 12.4l1.9-1.9V5.3l-1.9-1.9z" class="st30"/>
    <path id="Rectangle-path_68_" d="M63.7 5.3h5.2v5.2h-5.2z"/>
    <path id="Shape_143_" d="M61.8 3.4l1.9 1.9h5.2l1.9-1.9z" class="st27"/>
    <path id="Shape_144_" d="M70.8 3.4l-1.9 1.9v5.2l1.9 1.9z" class="st28"/>
    <path id="Shape_145_" d="M70.8 12.4l-1.9-1.9h-5.2l-1.9 1.9z" class="st29"/>
    <path id="Shape_146_" d="M61.8 12.4l1.9-1.9V5.3l-1.9-1.9z" class="st30"/>
    <path id="Rectangle-path_69_" d="M77.2 5.3h5.2v5.2h-5.2z"/>
    <path id="Shape_147_" d="M75.2 3.4l1.9 1.9h5.2l1.9-1.9z" class="st27"/>
    <path id="Shape_148_" d="M84.2 3.4l-1.9 1.9v5.2l1.9 1.9z" class="st28"/>
    <path id="Shape_149_" d="M84.2 12.4l-1.9-1.9h-5.2l-1.9 1.9z" class="st29"/>
    <path id="Shape_150_" d="M75.2 12.4l1.9-1.9V5.3l-1.9-1.9z" class="st30"/>
    <path id="Rectangle-path_70_" d="M90.6 5.3h5.2v5.2h-5.2z"/>
    <path id="Shape_151_" d="M88.7 3.4l1.9 1.9h5.1l2-1.9z" class="st27"/>
    <path id="Shape_152_" d="M97.7 3.4l-2 1.9v5.2l2 1.9z" class="st28"/>
    <path id="Shape_153_" d="M97.7 12.4l-2-1.9h-5.1l-1.9 1.9z" class="st29"/>
    <path id="Shape_154_" d="M88.6 12.4l2-1.9V5.3l-2-1.9z" class="st30"/>
  </g>
  <g id="_x31_x06" transform="translate(274.299 262.817)">
    <path id="Rectangle-path_71_" d="M-6.4-.7h80.5v13.4H-6.4z" class="st26"/>
    <path id="Rectangle-path_72_" d="M-2.3 3.5h5.2v5.2h-5.2z"/>
    <path id="Shape_155_" d="M-4.2 1.5l1.9 2h5.2l1.9-2z" class="st27"/>
    <path id="Shape_156_" d="M4.8 1.5l-1.9 2v5.1l1.9 1.9z" class="st28"/>
    <path id="Shape_157_" d="M4.8 10.5L2.9 8.6h-5.2l-1.9 1.9z" class="st29"/>
    <path id="Shape_158_" d="M-4.2 10.5l1.9-1.9V3.5l-1.9-2z" class="st30"/>
    <path id="Rectangle-path_73_" d="M11.1 3.5h5.2v5.2h-5.2z"/>
    <path id="Shape_159_" d="M9.2 1.5l1.9 2h5.2l1.9-2z" class="st27"/>
    <path id="Shape_160_" d="M18.2 1.5l-1.9 2v5.1l1.9 1.9z" class="st28"/>
    <path id="Shape_161_" d="M18.2 10.5l-1.9-1.9h-5.2l-1.9 1.9z" class="st29"/>
    <path id="Shape_162_" d="M9.2 10.5l1.9-1.9V3.5l-1.9-2z" class="st30"/>
    <path id="Rectangle-path_74_" d="M24.5 3.5h5.2v5.2h-5.2z"/>
    <path id="Shape_163_" d="M22.6 1.5l1.9 2h5.2l1.9-2z" class="st27"/>
    <path id="Shape_164_" d="M31.6 1.5l-1.9 2v5.1l1.9 1.9z" class="st28"/>
    <path id="Shape_165_" d="M31.6 10.5l-1.9-1.9h-5.2l-1.9 1.9z" class="st29"/>
    <path id="Shape_166_" d="M22.6 10.5l1.9-1.9V3.5l-1.9-2z" class="st30"/>
    <path id="Rectangle-path_75_" d="M37.9 3.5h5.2v5.2h-5.2z"/>
    <path id="Shape_167_" d="M36 1.5l1.9 2h5.2l1.9-2z" class="st27"/>
    <path id="Shape_168_" d="M45 1.5l-1.9 2v5.1l1.9 1.9z" class="st28"/>
    <path id="Shape_169_" d="M45 10.5l-1.9-1.9h-5.2L36 10.5z" class="st29"/>
    <path id="Shape_170_" d="M36 10.5l1.9-1.9V3.5l-1.9-2z" class="st30"/>
    <path id="Rectangle-path_76_" d="M51.3 3.5h5.2v5.2h-5.2z"/>
    <path id="Shape_171_" d="M49.4 1.5l1.9 2h5.2l1.9-2z" class="st27"/>
    <path id="Shape_172_" d="M58.4 1.5l-1.9 2v5.1l1.9 1.9z" class="st28"/>
    <path id="Shape_173_" d="M58.4 10.5l-1.9-1.9h-5.2l-1.9 1.9z" class="st29"/>
    <path id="Shape_174_" d="M49.4 10.5l1.9-1.9V3.5l-1.9-2z" class="st30"/>
    <path id="Rectangle-path_77_" d="M64.7 3.5h5.2v5.2h-5.2z"/>
    <path id="Shape_175_" d="M62.8 1.5l1.9 2h5.2l1.9-2z" class="st27"/>
    <path id="Shape_176_" d="M71.8 1.5l-1.9 2v5.1l1.9 1.9z" class="st28"/>
    <path id="Shape_177_" d="M71.8 10.5l-1.9-1.9h-5.2l-1.9 1.9z" class="st29"/>
    <path id="Shape_178_" d="M62.8 10.5l1.9-1.9V3.5l-1.9-2z" class="st30"/>
  </g>
  <g id="_x31_x10" transform="translate(106.673 5.4)">
    <g id="Group_48_" transform="rotate(-180 67.059 7.637)">
      <path id="Rectangle-path_78_" d="M7.4.7h134.1v13.4H7.4z" class="st26"/>
      <path id="Rectangle-path_79_" d="M11.6 4.8h5.2V10h-5.2z"/>
      <path id="Shape_179_" d="M9.6 2.9l1.9 1.9h5.2l1.9-1.9z" class="st27"/>
      <path id="Shape_180_" d="M18.6 2.9l-1.9 1.9V10l1.9 1.9z" class="st28"/>
      <path id="Shape_181_" d="M18.6 11.9L16.7 10h-5.2l-1.9 1.9z" class="st29"/>
      <path id="Shape_182_" d="M9.6 11.9l1.9-1.9V4.8L9.6 2.9z" class="st30"/>
      <path id="Rectangle-path_80_" d="M25 4.8h5.2V10H25z"/>
      <path id="Shape_183_" d="M23.1 2.9L25 4.8h5.1l2-1.9z" class="st27"/>
      <path id="Shape_184_" d="M32.1 2.9l-2 1.9V10l2 1.9z" class="st28"/>
      <path id="Shape_185_" d="M32.1 11.9l-2-1.9H25l-1.9 1.9z" class="st29"/>
      <path id="Shape_186_" d="M23 11.9l2-1.9V4.8l-2-1.9z" class="st30"/>
      <path id="Rectangle-path_81_" d="M38.4 4.8h5.2V10h-5.2z"/>
      <path id="Shape_187_" d="M36.5 2.9l1.9 1.9h5.2l1.9-1.9z" class="st27"/>
      <path id="Shape_188_" d="M45.5 2.9l-1.9 1.9V10l1.9 1.9z" class="st28"/>
      <path id="Shape_189_" d="M45.5 11.9L43.6 10h-5.2l-1.9 1.9z" class="st29"/>
      <path id="Shape_190_" d="M36.5 11.9l1.9-1.9V4.8l-1.9-1.9z" class="st30"/>
      <path id="Rectangle-path_82_" d="M51.8 4.8H57V10h-5.2z"/>
      <path id="Shape_191_" d="M49.9 2.9l1.9 1.9H57l1.9-1.9z" class="st27"/>
      <path id="Shape_192_" d="M58.9 2.9L57 4.8V10l1.9 1.9z" class="st28"/>
      <path id="Shape_193_" d="M58.9 11.9L57 10h-5.2l-1.9 1.9z" class="st29"/>
      <path id="Shape_194_" d="M49.9 11.9l1.9-1.9V4.8l-1.9-1.9z" class="st30"/>
      <path id="Rectangle-path_83_" d="M65.2 4.8h5.2V10h-5.2z"/>
      <path id="Shape_195_" d="M63.3 2.9l1.9 1.9h5.2l1.9-1.9z" class="st27"/>
      <path id="Shape_196_" d="M72.3 2.9l-1.9 1.9V10l1.9 1.9z" class="st28"/>
      <path id="Shape_197_" d="M72.3 11.9L70.4 10h-5.2l-1.9 1.9z" class="st29"/>
      <path id="Shape_198_" d="M63.3 11.9l1.9-1.9V4.8l-1.9-1.9z" class="st30"/>
      <path id="Rectangle-path_84_" d="M78.6 4.8h5.2V10h-5.2z"/>
      <path id="Shape_199_" d="M76.7 2.9l1.9 1.9h5.2l1.9-1.9z" class="st27"/>
      <path id="Shape_200_" d="M85.7 2.9l-1.9 1.9V10l1.9 1.9z" class="st28"/>
      <path id="Shape_201_" d="M85.7 11.9L83.8 10h-5.2l-1.9 1.9z" class="st29"/>
      <path id="Shape_202_" d="M76.7 11.9l1.9-1.9V4.8l-1.9-1.9z" class="st30"/>
      <path id="Rectangle-path_85_" d="M92 4.8h5.2V10H92z"/>
      <path id="Shape_203_" d="M90.1 2.9L92 4.8h5.2l1.9-1.9z" class="st27"/>
      <path id="Shape_204_" d="M99.1 2.9l-1.9 1.9V10l1.9 1.9z" class="st28"/>
      <path id="Shape_205_" d="M99.1 11.9L97.2 10H92l-1.9 1.9z" class="st29"/>
      <path id="Shape_206_" d="M90.1 11.9L92 10V4.8l-1.9-1.9z" class="st30"/>
      <path id="Rectangle-path_86_" d="M105.4 4.8h5.2V10h-5.2z"/>
      <path id="Shape_207_" d="M103.5 2.9l1.9 1.9h5.2l1.9-1.9z" class="st27"/>
      <path id="Shape_208_" d="M112.5 2.9l-1.9 1.9V10l1.9 1.9z" class="st28"/>
      <path id="Shape_209_" d="M112.5 11.9l-1.9-1.9h-5.2l-1.9 1.9z" class="st29"/>
      <path id="Shape_210_" d="M103.5 11.9l1.9-1.9V4.8l-1.9-1.9z" class="st30"/>
      <path id="Rectangle-path_87_" d="M118.8 4.8h5.2V10h-5.2z"/>
      <path id="Shape_211_" d="M116.9 2.9l1.9 1.9h5.2l1.9-1.9z" class="st27"/>
      <path id="Shape_212_" d="M125.9 2.9L124 4.8V10l1.9 1.9z" class="st28"/>
      <path id="Shape_213_" d="M125.9 11.9L124 10h-5.2l-1.9 1.9z" class="st29"/>
      <path id="Shape_214_" d="M116.9 11.9l1.9-1.9V4.8l-1.9-1.9z" class="st30"/>
      <path id="Rectangle-path_88_" d="M132.3 4.8h5.2V10h-5.2z"/>
      <path id="Shape_215_" d="M130.3 2.9l2 1.9h5.1l1.9-1.9z" class="st27"/>
      <path id="Shape_216_" d="M139.3 2.9l-1.9 1.9V10l1.9 1.9z" class="st28"/>
      <path id="Shape_217_" d="M139.3 11.9l-1.9-1.9h-5.1l-2 1.9z" class="st29"/>
      <path id="Shape_218_" d="M130.3 11.9l2-1.9V4.8l-2-1.9z" class="st30"/>
    </g>
  </g>
  <g id="chipled_0805" transform="translate(26.037 168.091)">
    <g id="Group_51_" transform="rotate(90 9.174 10.626)">
      <g id="led-0603_1_" transform="translate(1.032 .63)">
        <path id="Shape_219_" d="M.2 5.8v13.5" class="st31"/>
        <path id="Rectangle-path_89_" d="M-3.1 9.1h13.7v7.1H-3.1z" class="st22" transform="rotate(90 3.777 12.63)"/>
        <path id="Shape_220_" d="M.2 14.6s.9 1.2.8 1.6c-.1.4.3 1 0 1.3H.2v-2.9z" class="st32"/>
        <g id="Group_49_" transform="translate(0 5.588)">
          <path id="Rectangle-path_90_" d="M3 6h1.6v1.8H3z" class="st1" transform="rotate(90 3.83 6.91)"/>
          <path id="Rectangle-path_91_" d="M1.7 6.4h1.6v1H1.7z" class="st3" transform="rotate(90 2.479 6.906)"/>
        </g>
        <g id="Group_50_" transform="translate(0 1.863)">
          <path id="Shape_221_" d="M1 13.8l-.2 1.8h1.4L2 13.8z" class="st33"/>
          <path id="Shape_222_" d="M1.4 14c.1-.5.2-.8.3-1.1.1-.4 1.5-1 1.3-1.5 0 0 0-.1.1-.1s.1 0 .1.1c.2.6-1.1 1.3-1.3 1.7-.1.3-.2.6-.3 1.1 0 .1-.1.1-.1.1-.1-.2-.1-.3-.1-.3z" class="st33"/>
          <path id="Shape_223_" d="M6.4 7.5l.2-1.8H5.2l.2 1.8z" class="st33"/>
          <path id="Shape_224_" d="M3.5 10.6s0-.1.1-.1c.5-.1 2.1-2 2.1-3.5 0-.1 0-.1.1-.1.2-.1.2 0 .2 0 0 1.4-1.4 3.5-2.3 3.7-.1.1-.1 0-.2 0z" class="st33"/>
          <path id="Shape_225_" d="M3.5 11.4s0-.7-.6-.7v.7h.6z" class="st33"/>
          <path id="Shape_226_" d="M4.1 10.6s-.6.3-.7.1c-.1-.2-.1-.3 0-.4.3-.1.7.3.7.3z" class="st33"/>
          <path id="Shape_227_" d="M2.9 11.3c.2.5-1.1 1.2-1.3 1.5-.1.3-.2.6-.3 1.1h.1c.1-.5.2-.8.3-1.1.1-.4 1.5-1 1.3-1.5h-.1z" class="st34"/>
          <path id="Shape_228_" d="M5.3 7.5l-.2-1.8h.1l.2 1.8z" class="st34"/>
          <path id="Shape_229_" d="M3.5 10.4c.5-.1 2.3-2 2.1-3.5h.1c.1 1.6-1.6 3.4-2.1 3.5h-.1z" class="st34"/>
          <path id="Shape_230_" d="M2.8 10.7v.7h.1v-.7h-.1z" class="st34"/>
          <path id="Shape_231_" d="M3.4 10.3c-.1.1-.1.2-.1.4h.1c-.1-.2-.1-.3 0-.4z" class="st34"/>
        </g>
        <path id="Rectangle-path_92_" d="M2.9 12h7.9v1H2.9z" class="st35" transform="rotate(90 6.846 12.472)"/>
        <path id="Shape_232_" d="M7.3 7.6H.2v9.9h7.1z" class="st36"/>
        <path id="Shape_233_" d="M6.1 7.7h.5c.3 0 .5 0 .5.2v9c0 .3-.1.3-.1 0V8.8c0-.9-.2-1-.4-1h-.5c-.3 0-.3-.1 0-.1z" class="st37"/>
        <path id="Shape_234_" d="M.6 17.2c-.1 0-.3 0-.3-.2V8c0-.3.1-.3.1 0v6.7c.1 1.2.2 2.5.2 2.5z" class="st38"/>
        <path id="Shape_235_" d="M.2 5.8v1.4h1c.2 0 .4.1.5.4h5.7V5.7H.2" class="st33"/>
        <path id="Rectangle-path_93_" d="M5.9 6.1h1.9v1H5.9z" class="st35" transform="rotate(90 6.846 6.63)"/>
        <path id="Shape_236_" d="M.2 19.5h7.1v-2H.9c-.1.2-.3.4-.5.4H.2v1.6" class="st33"/>
        <path id="Rectangle-path_94_" d="M5.8 18h2v1h-2z" class="st35" transform="rotate(90 6.845 18.47)"/>
      </g>
    </g>
  </g>
  <g id="chipled_0805_1_" transform="translate(25.997 188.208)">
    <g id="Group_54_" transform="rotate(90 9.174 10.626)">
      <g id="led-0603_2_" transform="translate(1.032 .63)">
        <path id="Shape_237_" d="M.2 5.8v13.5" class="st31"/>
        <path id="Rectangle-path_95_" d="M-3.1 9.1h13.7v7.1H-3.1z" class="st22" transform="rotate(90 3.775 12.628)"/>
        <path id="Shape_238_" d="M.2 14.6s.9 1.2.8 1.6c-.1.4.3 1 0 1.3H.2v-2.9z" class="st32"/>
        <g id="Group_52_" transform="translate(0 5.588)">
          <path id="Rectangle-path_96_" d="M3 6h1.6v1.8H3z" class="st1" transform="rotate(90 3.83 6.908)"/>
          <path id="Rectangle-path_97_" d="M1.7 6.4h1.6v1H1.7z" class="st3" transform="rotate(90 2.478 6.908)"/>
        </g>
        <g id="Group_53_" transform="translate(0 1.863)">
          <path id="Shape_239_" d="M1 13.8l-.2 1.8h1.4L2 13.8z" class="st33"/>
          <path id="Shape_240_" d="M1.4 14c.1-.5.2-.8.3-1.1.1-.4 1.5-1 1.3-1.5 0-.1 0-.1.1-.1s.1 0 .1.1c.2.6-1.1 1.3-1.3 1.7-.1.3-.2.6-.3 1.1 0 .1-.1.1-.1.1-.1-.2-.1-.3-.1-.3z" class="st33"/>
          <path id="Shape_241_" d="M6.4 7.5l.2-1.8H5.2l.2 1.8z" class="st33"/>
          <path id="Shape_242_" d="M3.5 10.6s0-.1.1-.1c.5-.1 2.1-2 2.1-3.5 0-.1 0-.1.1-.1.2-.1.2 0 .2 0 0 1.4-1.4 3.5-2.3 3.7-.1.1-.1 0-.2 0z" class="st33"/>
          <path id="Shape_243_" d="M3.5 11.4s0-.7-.6-.7v.7h.6z" class="st33"/>
          <path id="Shape_244_" d="M4.1 10.6s-.6.3-.7.1c-.1-.2-.1-.3.1-.4.2-.1.6.3.6.3z" class="st33"/>
          <path id="Shape_245_" d="M2.9 11.3c.2.5-1.2 1.2-1.3 1.5-.1.3-.2.6-.3 1.1h.1c.1-.5.2-.8.3-1.1.1-.4 1.5-1 1.3-1.5h-.1z" class="st34"/>
          <path id="Shape_246_" d="M5.3 7.5l-.2-1.8h.1l.2 1.8z" class="st34"/>
          <path id="Shape_247_" d="M3.5 10.4c.5-.1 2.3-2 2.1-3.5h.1c.1 1.6-1.6 3.4-2.1 3.5h-.1z" class="st34"/>
          <path id="Shape_248_" d="M2.8 10.7v.7h.1v-.7h-.1z" class="st34"/>
          <path id="Shape_249_" d="M3.4 10.3c-.1.1-.1.2-.1.4h.1c-.1-.2-.1-.3.1-.4h-.1z" class="st34"/>
        </g>
        <path id="Rectangle-path_98_" d="M2.9 12h7.9v1H2.9z" class="st35" transform="rotate(90 6.844 12.47)"/>
        <path id="Shape_250_" d="M7.3 7.6H.2v9.9h7.1z" class="st36"/>
        <path id="Shape_251_" d="M6.1 7.7h.5c.3 0 .5 0 .5.2v9c0 .3-.1.3-.1 0V8.8c0-.9-.2-1-.4-1h-.5c-.3 0-.3-.1 0-.1z" class="st37"/>
        <path id="Shape_252_" d="M.6 17.2c-.1 0-.3 0-.3-.2V8c0-.3.1-.3.1 0v6.7c.1 1.2.2 2.5.2 2.5z" class="st38"/>
        <path id="Shape_253_" d="M.2 5.8v1.4h1c.2 0 .4.1.5.4h5.7V5.7h-7l-.2.1" class="st33"/>
        <path id="Rectangle-path_99_" d="M5.9 6.1h1.9v1H5.9z" class="st35" transform="rotate(90 6.848 6.628)"/>
        <path id="Shape_254_" d="M.2 19.5h7.1v-2H.9c-.1.2-.3.4-.5.4H.2v1.6" class="st33"/>
        <path id="Rectangle-path_100_" d="M5.8 18h2v1h-2z" class="st35" transform="rotate(90 6.848 18.47)"/>
      </g>
    </g>
  </g>
  <g id="chipled_0805_2_" transform="translate(26.037 127.856)">
    <g id="Group_57_" transform="rotate(90 9.174 10.626)">
      <g id="led-0603_3_" transform="translate(1.032 .63)">
        <path id="Shape_255_" d="M.2 5.8v13.5" class="st31"/>
        <path id="Rectangle-path_101_" d="M-3.1 9.1h13.7v7.1H-3.1z" class="st22" transform="rotate(90 3.775 12.63)"/>
        <path id="Shape_256_" d="M.2 14.6s.9 1.2.8 1.6c-.1.4.3 1 0 1.3H.2v-2.9z" class="st32"/>
        <g id="Group_55_" transform="translate(0 5.588)">
          <path id="Rectangle-path_102_" d="M3 6h1.6v1.8H3z" class="st1" transform="rotate(90 3.83 6.908)"/>
          <path id="Rectangle-path_103_" d="M1.7 6.4h1.6v1H1.7z" class="st3" transform="rotate(90 2.478 6.905)"/>
        </g>
        <g id="Group_56_" transform="translate(0 1.863)">
          <path id="Shape_257_" d="M1 13.8l-.2 1.8h1.4L2 13.8z" class="st33"/>
          <path id="Shape_258_" d="M1.4 14c.1-.5.2-.8.3-1.1.1-.4 1.5-1 1.3-1.5 0 0 0-.1.1-.1s.1 0 .1.1c.2.6-1.1 1.3-1.3 1.7-.1.3-.2.6-.3 1.1 0 .1-.1.1-.1.1-.1-.2-.1-.3-.1-.3z" class="st33"/>
          <path id="Shape_259_" d="M6.4 7.5l.2-1.8H5.2l.2 1.8z" class="st33"/>
          <path id="Shape_260_" d="M3.5 10.6s0-.1.1-.1c.5-.1 2.1-2 2.1-3.5 0-.1 0-.1.1-.1.2-.1.2 0 .2 0 0 1.4-1.4 3.5-2.3 3.7-.1.1-.1 0-.2 0z" class="st33"/>
          <path id="Shape_261_" d="M3.5 11.4s0-.7-.6-.7v.7h.6z" class="st33"/>
          <path id="Shape_262_" d="M4.1 10.6s-.6.3-.7.1c-.1-.2-.1-.3.1-.4.2-.1.6.3.6.3z" class="st33"/>
          <path id="Shape_263_" d="M2.9 11.3c.2.5-1.2 1.2-1.3 1.5-.1.3-.2.6-.3 1.1h.1c.1-.5.2-.8.3-1.1.1-.4 1.5-1 1.3-1.5h-.1z" class="st34"/>
          <path id="Shape_264_" d="M5.3 7.5l-.2-1.8h.1l.2 1.8z" class="st34"/>
          <path id="Shape_265_" d="M3.5 10.4c.5-.1 2.3-2 2.1-3.5h.1c.1 1.6-1.6 3.4-2.1 3.5h-.1z" class="st34"/>
          <path id="Shape_266_" d="M2.8 10.7v.7h.1v-.7h-.1z" class="st34"/>
          <path id="Shape_267_" d="M3.4 10.3c-.1.1-.1.2-.1.4h.1c-.1-.2-.1-.3.1-.4h-.1z" class="st34"/>
        </g>
        <path id="Rectangle-path_104_" d="M2.9 12h7.9v1H2.9z" class="st35" transform="rotate(90 6.845 12.473)"/>
        <path id="Shape_268_" d="M7.3 7.6H.2v9.9h7.1z" class="st36"/>
        <path id="Shape_269_" d="M6.1 7.7h.5c.3 0 .5 0 .5.2v9c0 .3-.1.3-.1 0V8.8c0-.9-.2-1-.4-1h-.5c-.3 0-.3-.1 0-.1z" class="st37"/>
        <path id="Shape_270_" d="M.6 17.2c-.1 0-.3 0-.3-.2V8c0-.3.1-.3.1 0v6.7c.1 1.2.2 2.5.2 2.5z" class="st38"/>
        <path id="Shape_271_" d="M.2 5.8v1.4h1c.2 0 .4.1.5.4h5.7V5.7H.2" class="st33"/>
        <path id="Rectangle-path_105_" d="M5.9 6.1h1.9v1H5.9z" class="st35" transform="rotate(90 6.843 6.63)"/>
        <path id="Shape_272_" d="M.2 19.5h7.1v-2H.9c-.1.2-.3.4-.5.4H.2v1.6" class="st33"/>
        <path id="Rectangle-path_106_" d="M5.9 18h2v1h-2z" class="st35" transform="rotate(90 6.847 18.47)"/>
      </g>
    </g>
  </g>
  <g id="chipled_0805_3_" transform="translate(26.037 147.974)">
    <g id="Group_60_" transform="rotate(90 9.174 10.626)">
      <g id="led-0603_4_" transform="translate(1.032 .63)">
        <path id="Shape_273_" d="M.2 5.8v13.5" class="st31"/>
        <path id="Rectangle-path_107_" d="M-3.1 9.1h13.7v7.1H-3.1z" class="st22" transform="rotate(90 3.775 12.627)"/>
        <path id="Shape_274_" d="M.2 14.6s.9 1.2.8 1.6c-.1.4.3 1 0 1.3H.2v-2.9z" class="st32"/>
        <g id="Group_58_" transform="translate(0 5.588)">
          <path id="Rectangle-path_108_" d="M3 6h1.6v1.8H3z" class="st1" transform="rotate(90 3.83 6.909)"/>
          <path id="Rectangle-path_109_" d="M1.7 6.4h1.6v1H1.7z" class="st3" transform="rotate(90 2.478 6.907)"/>
        </g>
        <g id="Group_59_" transform="translate(0 1.863)">
          <path id="Shape_275_" d="M1 13.8l-.2 1.8h1.4L2 13.8z" class="st33"/>
          <path id="Shape_276_" d="M1.4 14c.1-.5.2-.8.3-1.1.1-.4 1.5-1 1.3-1.5 0 0 0-.1.1-.1s.1 0 .1.1c.2.6-1.1 1.3-1.3 1.7-.1.3-.2.6-.3 1.1 0 .1-.1.1-.1.1-.1-.2-.1-.3-.1-.3z" class="st33"/>
          <path id="Shape_277_" d="M6.4 7.5l.2-1.8H5.2l.2 1.8z" class="st33"/>
          <path id="Shape_278_" d="M3.5 10.6s0-.1.1-.1c.5-.1 2.1-2 2.1-3.5 0-.1 0-.1.1-.1.2-.1.2 0 .2 0 0 1.4-1.4 3.5-2.3 3.7-.1.1-.1 0-.2 0z" class="st33"/>
          <path id="Shape_279_" d="M3.5 11.4s0-.7-.6-.7v.7h.6z" class="st33"/>
          <path id="Shape_280_" d="M4.1 10.6s-.6.3-.7.1c-.1-.2-.1-.3.1-.4.2-.1.6.3.6.3z" class="st33"/>
          <path id="Shape_281_" d="M2.9 11.3c.2.5-1.2 1.2-1.3 1.5-.1.3-.2.6-.3 1.1h.1c.1-.5.2-.8.3-1.1.1-.4 1.5-1 1.3-1.5h-.1z" class="st34"/>
          <path id="Shape_282_" d="M5.3 7.5l-.2-1.8h.1l.2 1.8z" class="st34"/>
          <path id="Shape_283_" d="M3.5 10.4c.5-.1 2.3-2 2.1-3.5h.1c.1 1.6-1.6 3.4-2.1 3.5h-.1z" class="st34"/>
          <path id="Shape_284_" d="M2.8 10.7v.7h.1v-.7h-.1z" class="st34"/>
          <path id="Shape_285_" d="M3.4 10.3c-.1.1-.1.2-.1.4h.1c-.1-.2-.1-.3.1-.4h-.1z" class="st34"/>
        </g>
        <path id="Rectangle-path_110_" d="M2.9 12h7.9v1H2.9z" class="st35" transform="rotate(90 6.845 12.47)"/>
        <path id="Shape_286_" d="M7.3 7.6H.2v9.9h7.1z" class="st36"/>
        <path id="Shape_287_" d="M6.1 7.7h.5c.3 0 .5 0 .5.2v9c0 .3-.1.3-.1 0V8.8c0-.9-.2-1-.4-1h-.5c-.3 0-.3-.1 0-.1z" class="st37"/>
        <path id="Shape_288_" d="M.6 17.2c-.1 0-.3 0-.3-.2V8c0-.3.1-.3.1 0v6.7c.1 1.2.2 2.5.2 2.5z" class="st38"/>
        <path id="Shape_289_" d="M.2 5.8v1.4h1c.2 0 .4.1.5.4h5.7V5.7H.2" class="st33"/>
        <path id="Rectangle-path_111_" d="M5.9 6.1h1.9v1H5.9z" class="st35" transform="rotate(90 6.848 6.628)"/>
        <path id="Shape_290_" d="M.2 19.5h7.1v-2H.9c-.1.2-.3.4-.5.4H.2v1.6" class="st33"/>
        <path id="Rectangle-path_112_" d="M5.9 18h2v1h-2z" class="st35" transform="rotate(90 6.847 18.47)"/>
      </g>
    </g>
  </g>
  <g id="smd_157sw" transform="translate(21.946 1.781)">
    <g id="Group_61_" transform="rotate(-90 21.479 16.304)">
      <path id="Shape_291_" d="M35.8 23.2h-.7V7.8h.7V-3.8H6.1v38.6h29.7z" class="st21"/>
      <path id="Shape_292_" d="M1.3 7.8H2v15.4h-.7v11.6h29.5V-3.8H1.3z" class="st21"/>
      <circle id="Oval_2_" cx="18.6" cy="15.5" r="9.5" fill="#641d1c"/>
      <path id="Shape_293_" d="M18.1 6c-5.3 0-9.5 4.3-9.5 9.5 0 5.3 4.3 9.5 9.5 9.5h.5C13.3 25 9 20.8 9 15.5S13.3 6 18.6 6h-.5z" class="st10"/>
      <circle id="Oval_3_" cx="18.6" cy="15.5" r="9.2" fill="#852725"/>
      <circle id="Oval_4_" cx="18.8" cy="15.5" r="9.2" fill="#c14c4a"/>
      <g id="Shape_294_">
        <path d="M20.3 5.1c0-5.1-4.1-9.2-9.2-9.2S1.9 0 1.9 5.1v.4C1.9.4 6-3.7 11.1-3.7s9.2 4.1 9.2 9.2v-.4z" class="st42" transform="translate(7.451 10.176)"/>
        <path d="M1.9 5.1c0 5.1 4.1 9.2 9.2 9.2s9.2-4.1 9.2-9.2v.4c0 5.1-4.1 9.2-9.2 9.2s-9.2-4.1-9.2-9.2v-.4z" class="st16" transform="translate(7.451 10.176)"/>
      </g>
      <path id="Rectangle-path_113_" d="M29.8 28.5h11.6v1H29.8z" class="st16" transform="rotate(-90 35.63 29.022)"/>
      <path id="Rectangle-path_114_" d="M29.8 1.5h11.6v1H29.8z" class="st16" transform="rotate(-90 35.627 1.99)"/>
      <path id="Rectangle-path_115_" d="M27.2 15h15.4v1H27.2z" class="st16" transform="rotate(-90 34.95 15.505)"/>
      <path id="Rectangle-path_116_" d="M-4 28.5H7.6v1H-4z" class="st10" transform="rotate(-90 1.814 29.023)"/>
      <path id="Rectangle-path_117_" d="M-4 1.5H7.6v1H-4z" class="st10" transform="rotate(-90 1.813 1.995)"/>
      <path id="Rectangle-path_118_" d="M-5.2 15h15.4v1H-5.2z" class="st10" transform="rotate(-90 2.501 15.502)"/>
    </g>
    <g id="Group_62_" transform="translate(0 5.588)">
      <path id="Rectangle-path_119_" d="M-3.8.1h5.1v4.2h-5.1z" class="st25"/>
      <path id="Rectangle-path_120_" d="M-3.8 23h5.1v4.2h-5.1z" class="st25"/>
      <path id="Rectangle-path_121_" d="M39.7 10.6h5.1V17h-5.1z" class="st25"/>
      <path id="Rectangle-path_122_" d="M39.7.1h5.1v4.2h-5.1z" class="st25"/>
      <path id="Rectangle-path_123_" d="M39.7 23h5.1v4.2h-5.1z" class="st25"/>
      <path id="Rectangle-path_124_" d="M44.2 10.6h1V17h-1z" class="st16"/>
      <path id="Rectangle-path_125_" d="M44.2.1h1v4.2h-1z" class="st16"/>
      <path id="Rectangle-path_126_" d="M44.2 23h1v4.2h-1z" class="st16"/>
      <path id="Rectangle-path_127_" d="M-3.9.2h1v4.2h-1z" class="st10"/>
      <path id="Rectangle-path_128_" d="M-3.9 23h1v4.2h-1z" class="st10"/>
      <path id="Rectangle-path_129_" d="M.7.1h1v4.2h-1z" class="st42"/>
      <path id="Rectangle-path_130_" d="M.7 22.9h1v4.2h-1z" class="st42"/>
    </g>
  </g>
  <path id="Shape_295_" fill="none" stroke="#fff" stroke-linecap="round" stroke-width="1.609" d="M157.6 51.2h194.1"/>
  <g id="_x30_.1.0.2.25" transform="translate(116.59 12.955)">
    <g id="_x30_.1.0.2.25.0">
      <g id="Group_92_" transform="translate(.836 1.258)">
        <g id="_x30_.1.0.2.25.0.0">
          <g id="_x30_.1.0.2.25.0.0.0">
            <g id="Group_91_" transform="rotate(-90 3.701 3.701)">
              <g id="_x30_.1.0.2.25.0.0.0.0">
                <g id="_x30_.1.0.2.25.0.0.0.0.0">
                  <g id="_x30_.1.0.2.25.0.0.0.0.0.0">
                    <path id="_x30_.1.0.2.25.0.0.0.0.0.0.0" d="M-14.7 82.9c0-.9.5-1.4 1.1-1.4.4 0 .7.1 1.3.4.5.2.8.4 1.2.4.3 0 .5-.3.5-.8h.6c0 1-.5 1.4-1.1 1.4-.4 0-.7-.1-1.4-.4-.4-.2-.8-.4-1.1-.4-.3 0-.5.2-.6.8h-.5z" class="st1"/>
                  </g>
                </g>
              </g>
            </g>
          </g>
        </g>
      </g>
    </g>
  </g>
  <g id="_x30_.1.0.2.26" transform="translate(101.786 12.955)">
    <g id="_x30_.1.0.2.26.0">
      <g id="Group_94_" transform="translate(.836 1.258)">
        <g id="_x30_.1.0.2.26.0.0">
          <g id="_x30_.1.0.2.26.0.0.0">
            <g id="Group_93_" transform="rotate(-90 3.701 3.701)">
              <g id="_x30_.1.0.2.26.0.0.0.0">
                <g id="_x30_.1.0.2.26.0.0.0.0.0">
                  <g id="_x30_.1.0.2.26.0.0.0.0.0.0">
                    <path id="_x30_.1.0.2.26.0.0.0.0.0.0.0" d="M-14.7 84.3c0-.9.5-1.4 1.1-1.4.4 0 .7.1 1.3.4.5.2.8.4 1.2.4.3 0 .5-.3.5-.8h.6c0 1-.5 1.4-1.1 1.4-.4 0-.7-.1-1.4-.4-.4-.2-.8-.4-1.1-.4-.3 0-.5.2-.6.8h-.5z" class="st1"/>
                  </g>
                </g>
              </g>
            </g>
          </g>
        </g>
      </g>
    </g>
  </g>
  <g id="_x30_.1.0.2.27" transform="translate(190.617 9.253)">
    <g id="_x30_.1.0.2.27.0">
      <g id="Group_96_" transform="translate(.762 .148)">
        <g id="_x30_.1.0.2.27.0.0">
          <g id="_x30_.1.0.2.27.0.0.0">
            <g id="Group_95_" transform="rotate(-90 3.701 3.701)">
              <g id="_x30_.1.0.2.27.0.0.0.0">
                <g id="_x30_.1.0.2.27.0.0.0.0.0">
                  <g id="_x30_.1.0.2.27.0.0.0.0.0.0">
                    <path id="_x30_.1.0.2.27.0.0.0.0.0.0.0" d="M-15.9 84c0-.9.5-1.4 1.1-1.4.4 0 .7.1 1.3.4.5.2.8.4 1.2.4.3 0 .5-.3.5-.8h.6c0 1-.5 1.4-1.1 1.4-.4 0-.7-.1-1.4-.4-.4-.2-.8-.4-1.1-.4s-.5.2-.6.8h-.5z" class="st1"/>
                  </g>
                </g>
              </g>
            </g>
          </g>
        </g>
      </g>
    </g>
  </g>
  <g id="_x30_.1.0.2.28" transform="translate(216.526 9.253)">
    <g id="Group_98_" transform="translate(1.503 .148)">
      <g id="_x30_.1.0.2.28.1">
        <g id="_x30_.1.0.2.28.1.0">
          <g id="Group_97_" transform="rotate(-90 3.701 3.701)">
            <g id="_x30_.1.0.2.28.1.0.0">
              <g id="_x30_.1.0.2.28.1.0.0.0">
                <g id="_x30_.1.0.2.28.1.0.0.0.0">
                  <path id="_x30_.1.0.2.28.1.0.0.0.0.0" d="M-15.9 84.3c0-.9.5-1.4 1.1-1.4.4 0 .7.1 1.3.4.5.2.8.4 1.2.4.3 0 .5-.3.5-.8h.6c0 1-.5 1.4-1.1 1.4-.4 0-.7-.1-1.4-.4-.4-.2-.8-.4-1.1-.4-.3 0-.5.2-.6.8h-.5z" class="st1"/>
                </g>
              </g>
            </g>
          </g>
        </g>
      </g>
    </g>
  </g>
  <g id="_x30_.1.0.2.29" transform="translate(177.662 9.253)">
    <g id="_x30_.1.0.2.29.0">
      <g id="Group_100_" transform="translate(1.059 .148)">
        <g id="_x30_.1.0.2.29.0.0">
          <g id="_x30_.1.0.2.29.0.0.0">
            <g id="Group_99_" transform="rotate(-90 3.701 3.701)">
              <g id="_x30_.1.0.2.29.0.0.0.0">
                <g id="_x30_.1.0.2.29.0.0.0.0.0">
                  <g id="_x30_.1.0.2.29.0.0.0.0.0.0">
                    <path id="_x30_.1.0.2.29.0.0.0.0.0.0.0" d="M-15.9 83.3c0-.9.5-1.4 1.1-1.4.4 0 .7.1 1.3.4.5.2.8.4 1.2.4.3 0 .5-.3.5-.8h.6c0 1-.5 1.4-1.1 1.4-.4 0-.7-.1-1.4-.4-.4-.2-.8-.4-1.1-.4s-.5.2-.6.8h-.5z" class="st1"/>
                  </g>
                </g>
              </g>
            </g>
          </g>
        </g>
      </g>
    </g>
  </g>
  <g id="_x30_.1.0.2.30" transform="translate(129.545 9.253)">
    <g id="_x30_.1.0.2.30.0">
      <g id="Group_102_" transform="translate(.54 .148)">
        <g id="_x30_.1.0.2.30.0.0">
          <g id="_x30_.1.0.2.30.0.0.0">
            <g id="Group_101_" transform="rotate(-90 3.701 3.701)">
              <g id="_x30_.1.0.2.30.0.0.0.0">
                <g id="_x30_.1.0.2.30.0.0.0.0.0">
                  <g id="_x30_.1.0.2.30.0.0.0.0.0.0">
                    <path id="_x30_.1.0.2.30.0.0.0.0.0.0.0" d="M-15.9 83.7c0-.9.5-1.4 1.1-1.4.4 0 .7.1 1.3.4.5.2.8.4 1.2.4.3 0 .5-.3.5-.8h.6c0 1-.5 1.4-1.1 1.4-.4 0-.7-.1-1.4-.4-.4-.2-.8-.4-1.1-.4-.3 0-.5.2-.6.8h-.5z" class="st1"/>
                  </g>
                </g>
              </g>
            </g>
          </g>
        </g>
      </g>
    </g>
  </g>
  <path d="M341.8 29.2v4M343.2 31.4l-1.4 1.8M341.8 33.2l-1.3-1.8M328.6 33.2v-4M327.3 30.9l1.3-1.7M328.6 29.2l1.3 1.7" class="st44"/>
  <path d="M147.5 24.7c.1.2.1.4.1.8v1.1h-3.8v-1.1c0-.4 0-.7.1-.9.1-.2.3-.5.6-.6.3-.2.7-.3 1.2-.3.4 0 .7 0 1 .1.3.1.5.2.6.4 0 .2.1.3.2.5z" class="st1"/>
  <path d="M141.4 20v19h8.8V20h-8.8zm1.7 5.5c0-.4 0-.7.1-.9.1-.3.2-.5.4-.7.2-.3.5-.5.9-.6.3-.1.7-.2 1.2-.2.4 0 .7 0 1 .1.3.1.5.2.7.3.2.1.3.3.5.5l.3.6c.1.2.1.5.1.8v1.8h-5v-1.7zm0 6.1L147 29h-3.9v-.6h5v.6l-3.9 2.6h3.9v.6h-5v-.6zm4.8 5c-.2.4-.5.7-.9.9-.4.2-.8.3-1.3.3s-.9-.1-1.4-.3c-.4-.2-.7-.5-.9-.9-.2-.4-.3-.8-.3-1.3 0-.4.1-.7.2-1 .1-.3.3-.5.5-.7.2-.2.5-.3.8-.4l.2.6c-.3.1-.5.2-.6.3-.1.1-.3.3-.3.5-.1.2-.1.4-.1.7 0 .3 0 .6.1.8.1.2.2.4.4.5.1.1.3.2.5.3.3.1.6.2 1 .2s.8-.1 1.1-.2c.3-.2.5-.4.7-.7.1-.3.2-.6.2-.9 0-.3-.1-.6-.2-.8-.1-.3-.2-.5-.4-.6h-.9v1.5h-.6v-2.1h1.9c.3.3.5.7.6 1 .1.3.2.7.2 1.1-.2.4-.3.8-.5 1.2zM331.4 45.1H327v1.6h-1v-4.3h.9V44h4.5v1.1zM331.4 42.3l-2.8-1.8-2.6 1.7v-1.3l1.7-1.1-1.7-1.1v-1.3l2.6 1.7 2.8-1.8v1.3l-1.9 1.2 1.9 1.2v1.3zM344.6 46.7h-5.4v-2.3c0-.6 0-1 .1-1.3.1-.3.3-.5.5-.6.2-.2.5-.2.9-.2s.7.1 1 .4c.3.2.4.6.5 1.1.1-.2.3-.4.5-.6.2-.2.5-.4.9-.6l1.1-.7v1.3l-1.2.8c-.4.3-.7.5-.8.6-.1.1-.2.2-.2.3 0 .1-.1.3-.1.5v.2h2.3v1.1zm-3.2-1v-.8c0-.5 0-.8-.1-1 0-.1-.1-.2-.2-.3-.1-.1-.2-.1-.4-.1s-.3 0-.4.1c-.1.1-.2.2-.2.4V45.7h1.3zM344.6 41.8l-2.8-1.8-2.6 1.7v-1.3l1.7-1.1-1.7-1.1V37l2.6 1.7 2.8-1.8v1.3l-1.9 1.2 1.9 1.2v1.2zM134.6 35.4v1.1l-1.1.4v2l1.1.4v1.1l-5-1.9v-1.1l5-2zm-2 1.8l-1.8.7 1.8.7v-1.4zM134.6 34.8h-5v-2.1c0-.5 0-.9.1-1.2.1-.2.2-.4.5-.6.2-.1.5-.2.8-.2.4 0 .7.1.9.3.2.2.4.5.5 1 .1-.2.3-.4.4-.5.2-.1.4-.3.8-.6l1-.6v1.2l-1.1.7c-.4.3-.6.4-.7.5-.1.1-.2.2-.2.3 0 .1-.1.3-.1.5v.2h2.1v1.1zm-2.9-1v-.7c0-.5 0-.8-.1-.9 0-.1-.1-.2-.2-.3-.1-.1-.2-.1-.4-.1s-.3 0-.4.1c-.1.1-.2.2-.2.4v1.5h1.3zM134.6 29.8h-5v-3.7h.8v2.7h1.1v-2.5h.8v2.5h1.3V26h.8v3.8zM134.6 25.2h-5v-3.4h.8v2.4h1.2v-2.1h.8v2.1h2.1v1zM339.1 24.5c0-.5.2-.9.5-1.2.4-.3 1.1-.5 2.1-.5s1.7.2 2.1.5c.3.3.5.7.5 1.2s-.2.9-.6 1.2c-.4.3-1.1.5-2 .5-1 0-1.7-.2-2.1-.5-.3-.3-.5-.7-.5-1.2zm.8 0c0 .1 0 .2.1.3.1.1.2.2.4.2.3.1.7.1 1.3.1.6 0 1 0 1.2-.1.2-.1.4-.1.4-.2.1-.1.1-.2.1-.3 0-.1 0-.2-.1-.3-.1-.1-.2-.2-.4-.2-.3-.1-.7-.1-1.3-.1-.6 0-1 0-1.2.1-.2.1-.4.1-.4.2s-.1.2-.1.3zM330.8 23.7v1h-3.7c.3.4.6.8.7 1.3h-.8c-.1-.3-.2-.5-.5-.8-.2-.3-.5-.5-.8-.6v-.8h5.1zM316.5 22.9h.9v3.4c-.3 0-.7-.1-1-.3-.3-.2-.7-.6-1.2-1.1l-.8-.8c-.2-.1-.4-.2-.6-.2-.2 0-.4.1-.5.2-.1.1-.2.3-.2.5s.1.4.2.5c.1.1.3.2.6.2l-.1 1c-.5-.1-.9-.2-1.2-.5-.2-.3-.4-.7-.4-1.1 0-.5.1-.9.4-1.2.3-.3.6-.4 1-.4.2 0 .4 0 .7.1.2.1.4.2.7.4.2.1.4.3.7.6l.6.6c.1.1.2.1.3.2v-2.1zM302.6 26.2l-.1-.9c.2 0 .4-.1.6-.2.1-.1.2-.3.2-.5s-.1-.4-.2-.5c-.2-.1-.4-.2-.6-.2-.2 0-.4.1-.6.2-.1.1-.2.3-.2.5 0 .1 0 .3.1.4l-.8-.1c0-.3-.1-.5-.2-.6-.1-.1-.3-.2-.5-.2s-.3.1-.4.2c-.1.1-.2.2-.2.4s.1.3.2.4c.1.1.3.2.5.2l-.2.9c-.3-.1-.6-.2-.7-.3-.2-.1-.3-.3-.4-.5-.1-.2-.2-.5-.2-.8 0-.5.2-.9.5-1.2.3-.2.5-.4.8-.4.4 0 .8.2 1.1.7.1-.3.2-.5.4-.7.2-.2.5-.3.8-.3.4 0 .8.2 1.1.5.3.3.5.7.5 1.2s-.1.8-.4 1.1c-.3.5-.6.6-1.1.7zM290.6 24.2h-1v2.1h-.9l-3.2-2.2v-.8h3.2v-.6h.9v.6h1v.9zm-1.9 0H287l1.7 1.2v-1.2zM275.8 26.1l-.1-1c.2 0 .4-.1.5-.2.1-.1.2-.3.2-.5s-.1-.4-.2-.5-.4-.2-.7-.2c-.3 0-.5.1-.7.2-.2.1-.2.3-.2.5 0 .3.1.5.4.8l-.1.8-2.7-.5v-2.6h.9v1.8l.9.2c-.1-.2-.2-.4-.2-.7 0-.4.2-.8.5-1.1.3-.3.7-.5 1.2-.5.4 0 .8.1 1.1.4.4.3.7.8.7 1.4 0 .5-.1.9-.4 1.2-.3.3-.6.5-1.1.5zM259.9 22.8l.1.9c-.2 0-.3.1-.4.2-.1.1-.1.2-.1.4s.1.4.3.5c.2.1.6.2 1.2.3-.3-.2-.4-.5-.4-.9s.2-.8.5-1c.3-.3.7-.4 1.2-.4s.9.2 1.3.5c.3.3.5.7.5 1.2s-.2.9-.6 1.3c-.4.3-1.1.5-2 .5-.9 0-1.6-.2-2-.5-.4-.3-.6-.8-.6-1.3 0-.4.1-.7.3-1 0-.4.3-.6.7-.7zm2.1 2.3c.3 0 .6-.1.7-.2.2-.1.3-.3.3-.5s-.1-.3-.2-.5c-.1-.1-.4-.2-.7-.2-.3 0-.6.1-.7.2-.2.1-.2.3-.2.5s.1.3.2.5c.1.1.3.2.6.2zM246.2 26.2h-.9v-3.3h.7c.3.3.7.6 1.2.8.5.3 1 .5 1.6.7.6.1 1.1.2 1.5.2v.9c-.7 0-1.4-.2-2.2-.4-.7-.3-1.4-.6-2-1.1v2.2zM226.1 25.3c-.1.3-.3.4-.4.6-.2.1-.4.2-.6.2-.4 0-.7-.1-.9-.4-.2-.3-.4-.6-.4-1.1 0-.5.1-.9.4-1.1.2-.3.6-.4.9-.4.2 0 .4.1.6.2.2.1.3.3.4.5.1-.3.3-.5.5-.6.2-.1.5-.2.8-.2.5 0 .9.2 1.1.5.3.3.4.7.4 1.2s-.1.8-.4 1.2c-.3.4-.7.5-1.2.5-.3 0-.5-.1-.8-.2-.1-.4-.2-.6-.4-.9zm-.9-.2c.2 0 .3-.1.5-.2.1-.1.2-.3.2-.4 0-.2-.1-.3-.2-.4-.1-.1-.3-.2-.5-.2s-.3.1-.4.2c-.1.1-.2.3-.2.4 0 .2.1.3.2.4 0 .2.2.2.4.2zm2.1.1c.3 0 .5-.1.6-.2.2-.1.2-.3.2-.5s-.1-.4-.2-.5c-.1-.1-.4-.2-.6-.2-.2 0-.4.1-.6.2-.1.1-.2.3-.2.5s.1.4.2.5c.3.1.4.2.6.2zM214.2 26.1l-.1-.9c.2 0 .3-.1.4-.2.1-.1.1-.2.1-.4s-.1-.4-.3-.5c-.2-.1-.6-.2-1.2-.3.3.2.4.6.4.9 0 .4-.2.7-.5 1-.3.3-.7.4-1.2.4s-.9-.2-1.3-.5-.5-.7-.5-1.2.2-.9.6-1.3c.4-.3 1.1-.5 2-.5.9 0 1.6.2 2 .5.4.3.6.8.6 1.3 0 .4-.1.7-.3 1 .1.5-.3.7-.7.7zm-2.1-2.2c-.3 0-.6.1-.7.2-.2.1-.3.3-.3.5s.1.3.2.5c.1.1.4.2.7.2.3 0 .6-.1.7-.2.2-.1.2-.3.2-.5s-.1-.3-.2-.5c-.1-.1-.3-.2-.6-.2zM201.9 27.6v1h-3.7c.3.4.6.8.7 1.3h-.9c-.1-.3-.2-.5-.5-.8-.2-.3-.5-.5-.8-.6v-.8h5.2zM196.8 24.5c0-.5.2-.9.5-1.2.4-.3 1.1-.5 2.1-.5s1.7.2 2.1.5c.3.3.5.7.5 1.2s-.2.9-.6 1.2c-.4.3-1.1.5-2 .5-1 0-1.7-.2-2.1-.5-.3-.3-.5-.7-.5-1.2zm.8 0c0 .1 0 .2.1.3.1.1.2.2.4.2.3.1.7.1 1.3.1s1 0 1.2-.1c.2-.1.4-.1.4-.2.1-.1.1-.2.1-.3 0-.1 0-.2-.1-.3-.1-.1-.2-.2-.4-.2-.3-.1-.7-.1-1.3-.1s-1 0-1.2.1c-.2.1-.4.1-.4.2-.1.1-.1.2-.1.3zM188.4 27.2v1h-3.7c.3.4.6.8.7 1.3h-.9c-.1-.3-.2-.5-.5-.8-.2-.3-.5-.5-.8-.6v-.8h5.2zM188.4 23.7v1h-3.7c.3.4.6.8.7 1.3h-.9c-.1-.3-.2-.5-.5-.8-.2-.3-.5-.5-.8-.6v-.8h5.2zM174.9 27.6v1h-3.7c.3.4.6.8.7 1.3h-.9c-.1-.3-.2-.5-.5-.8-.2-.3-.5-.5-.8-.6v-.8h5.2zM174 22.9h.9v3.4c-.3 0-.7-.1-1-.3-.3-.2-.7-.6-1.2-1.1l-.8-.8c-.2-.1-.4-.2-.6-.2-.2 0-.4.1-.5.2-.1.1-.2.3-.2.5s.1.4.2.5c.1.1.3.2.6.2l-.1 1c-.5-.1-.9-.2-1.2-.5-.2-.3-.4-.7-.4-1.1 0-.5.1-.9.4-1.2.3-.3.6-.4 1-.4.2 0 .4 0 .7.1.2.1.4.2.7.4.2.1.4.3.7.6l.6.6c.1.1.2.1.3.2v-2.1zM161.4 27.6v1h-3.7c.3.4.6.8.7 1.3h-.9c-.1-.3-.2-.5-.5-.8-.2-.3-.5-.5-.8-.6v-.8h5.2zM160.1 26.2l-.1-.9c.2 0 .4-.1.6-.2.1-.1.2-.3.2-.5s-.1-.4-.2-.5-.4-.2-.6-.2c-.2 0-.4.1-.6.2-.1.1-.2.3-.2.5 0 .1 0 .3.1.4l-.8-.1c0-.3-.1-.5-.2-.6-.1-.1-.3-.2-.5-.2s-.3.1-.4.2c-.1.1-.2.2-.2.4s.1.3.2.4c.1.1.3.2.5.2l-.2.9c-.3-.1-.6-.2-.7-.3-.2-.1-.3-.3-.4-.5-.1-.2-.2-.5-.2-.8 0-.5.2-.9.5-1.2.3-.2.5-.4.8-.4.4 0 .8.2 1.1.7.1-.3.2-.5.4-.7.2-.2.5-.3.8-.3.4 0 .8.2 1.1.5.3.3.5.7.5 1.2s-.1.8-.4 1.1c-.3.5-.7.6-1.1.7zM141.4.2h8.8v6.4h-8.8zM30 46.3v-5.5h2.3c.6 0 1 0 1.3.1.3.1.5.3.6.5.2.3.2.5.2.9s-.1.7-.4 1c-.2.3-.6.4-1.1.5.2.1.4.3.6.5s.4.5.6.9l.7 1.1h-1.3l-.8-1.2c-.3-.4-.5-.7-.6-.8-.1-.1-.2-.2-.3-.2-.1 0-.3-.1-.6-.1H31v2.3h-1zm1.1-3.1h.8c.5 0 .9 0 1-.1.1 0 .2-.1.3-.2.1-.1.1-.2.1-.4s0-.3-.1-.4c-.1-.1-.2-.2-.4-.2H31.1v1.3zM35.5 46.3v-5.5h4.1v.9h-3V43h2.7v.9h-2.7v1.5h3.1v.9h-4.2zM40.4 44.6l1.1-.1c.1.4.2.6.4.8.2.2.5.3.8.3.4 0 .6-.1.8-.2.2-.2.3-.3.3-.5 0-.1 0-.2-.1-.3-.1-.1-.2-.2-.4-.2-.1 0-.4-.1-.9-.2-.6-.1-1-.3-1.2-.5-.3-.3-.5-.7-.5-1.1 0-.3.1-.5.2-.8.2-.2.4-.4.7-.6.3-.1.7-.2 1.1-.2.7 0 1.2.2 1.6.5.3.3.5.7.5 1.2h-1.1c0-.3-.1-.5-.3-.6-.2-.1-.4-.2-.7-.2-.3 0-.6.1-.8.2-.1.1-.2.2-.2.3 0 .1.1.2.2.3.1.1.5.2 1 .4.5.1.9.3 1.2.4.3.1.5.3.6.6.1.2.2.5.2.9 0 .3-.1.6-.3.9-.2.3-.4.5-.7.6-.3.1-.7.2-1.2.2-.7 0-1.2-.2-1.6-.5-.4-.6-.7-1-.7-1.6zM45.7 46.3v-5.5h4.1v.9h-3V43h2.7v.9h-2.7v1.5h3.1v.9h-4.2zM52.1 46.3v-4.5h-1.6v-.9h4.4v.9h-1.6v4.5h-1.2zM120.6 37l-.1-1c.3-.1.6-.2.8-.4.2-.2.2-.4.2-.8 0-.3-.1-.6-.2-.8s-.3-.3-.5-.3c-.1 0-.2 0-.3.1s-.2.2-.2.4c0 .1-.1.4-.2.8-.1.6-.3 1-.5 1.2-.3.3-.6.5-1.1.5-.3 0-.5-.1-.7-.2s-.4-.4-.5-.7c-.1-.3-.2-.6-.2-1 0-.7.1-1.2.4-1.5.3-.3.7-.5 1.2-.5v1.1c-.3 0-.5.1-.6.3-.1.1-.2.4-.2.7 0 .3.1.5.2.7.1.1.2.2.3.2.1 0 .2-.1.3-.2.1-.1.2-.5.4-1 .1-.5.2-.9.4-1.1s.3-.4.5-.6.5-.2.8-.2c.3 0 .6.1.8.3.3.2.5.4.6.7s.2.7.2 1.1c0 .7-.2 1.2-.5 1.5-.2.4-.7.6-1.3.7zM117.1 31.8v-1.9c0-.4 0-.8.1-1 .1-.3.3-.6.5-.8.2-.2.5-.4.8-.5.3-.1.7-.2 1.2-.2.4 0 .8.1 1.1.2.4.1.7.3.9.6.2.2.3.4.4.7.1.2.1.5.1.9v2h-5.1zm.9-1h3.5V30c0-.3 0-.5-.1-.6 0-.2-.1-.3-.2-.4-.1-.1-.3-.2-.5-.3-.2-.1-.6-.1-1-.1s-.7 0-.9.1c-.2.1-.4.2-.5.3s-.2.3-.2.5c0 .1-.1.4-.1.9v.4zM122.3 21.8V23l-1.2.5v2.1l1.2.4v1.1l-5.2-2V24l5.2-2.2zm-2 2l-1.9.7 1.9.7v-1.4zM107.6 37.4l-.1-1.1c.4-.1.7-.2.8-.4s.3-.5.3-.8c0-.4-.1-.7-.2-.8-.2-.2-.3-.3-.6-.3-.1 0-.3 0-.3.1-.1.1-.2.2-.2.4 0 .1-.1.4-.3.9-.2.6-.3 1.1-.6 1.3-.3.4-.7.5-1.2.5-.3 0-.6-.1-.8-.2-.3-.2-.4-.4-.6-.7s-.2-.7-.2-1.1c0-.7.2-1.3.5-1.6.3-.4.7-.6 1.3-.6l.1 1.2c-.3 0-.5.2-.6.3-.1.2-.2.4-.2.7 0 .3.1.6.2.8.1.1.2.2.4.2.1 0 .3-.1.3-.2.1-.1.3-.5.4-1.1.1-.6.3-1 .4-1.3.1-.3.3-.5.6-.6s.6-.2.9-.2c.3 0 .6.1.9.3.3.2.5.4.6.8.1.3.2.8.2 1.3 0 .7-.2 1.3-.5 1.7-.3.2-.8.5-1.5.5zM107.4 28.1l.4-1.1c.6.2 1.1.5 1.4.9s.5.9.5 1.5c0 .8-.3 1.4-.8 1.9s-1.2.7-2.1.7c-1 0-1.7-.2-2.2-.7-.5-.5-.8-1.1-.8-1.9 0-.7.2-1.3.6-1.7.2-.3.6-.5 1.1-.6l.3 1.1c-.3.1-.5.2-.7.4-.2.2-.3.5-.3.8 0 .4.2.8.5 1s.8.4 1.5.4 1.2-.1 1.6-.4c.3-.3.5-.6.5-1 0-.3-.1-.6-.3-.8-.5-.2-.8-.4-1.2-.5zM109.5 26h-5.7v-1.2h4.7v-2.9h1V26zM335.7 152h-5.9v-1.2h5.9v1.2zM333.6 145.8l.4-1.2c.6.2 1.1.5 1.4.9.3.4.5.9.5 1.6 0 .8-.3 1.4-.8 1.9s-1.3.8-2.2.8c-1 0-1.8-.3-2.3-.8-.5-.5-.8-1.2-.8-2 0-.7.2-1.3.6-1.8.3-.3.6-.5 1.1-.6l.3 1.2c-.3.1-.6.2-.7.4-.2.2-.3.5-.3.8 0 .4.2.8.5 1.1.3.3.8.4 1.5.4.8 0 1.3-.1 1.6-.4.3-.3.5-.6.5-1.1 0-.3-.1-.6-.3-.8-.3-.1-.6-.3-1-.4zM333.8 143.9l-.1-1.2c.4-.1.7-.2.9-.4.2-.2.3-.5.3-.9s-.1-.7-.2-.9c-.2-.2-.4-.3-.6-.3-.1 0-.3 0-.4.1-.1.1-.2.2-.3.4 0 .1-.1.5-.3 1-.2.6-.4 1.1-.6 1.4-.3.4-.7.5-1.2.5-.3 0-.6-.1-.8-.3-.3-.2-.5-.4-.6-.7-.1-.3-.2-.7-.2-1.2 0-.7.2-1.3.5-1.7.3-.4.8-.6 1.3-.6l.1 1.2c-.3.1-.5.2-.7.3-.1.2-.2.4-.2.8 0 .3.1.6.2.8.1.1.2.2.4.2.1 0 .3-.1.4-.2.1-.2.3-.5.4-1.1.1-.6.3-1 .4-1.3.1-.3.3-.5.6-.7.3-.2.6-.2.9-.2.3 0 .7.1 1 .3.3.2.5.5.7.8.1.3.2.8.2 1.3 0 .8-.2 1.3-.5 1.7-.4.6-.9.8-1.6.9zM335.7 138.1h-5.9v-1.9c0-.7 0-1.2.1-1.4.1-.3.3-.6.6-.9.3-.2.7-.3 1.2-.3.4 0 .7.1.9.2.2.1.4.3.6.5l.3.6c.1.3.1.7.1 1.2v.8h2.2v1.2zm-4.9-1.2h1.7v-.7c0-.5 0-.8-.1-.9-.1-.2-.2-.3-.3-.4-.1-.1-.3-.1-.5-.1s-.4.1-.5.2c-.1.1-.2.3-.3.5v1.4z" class="st1"/>
  <circle id="connector39pin" cx="344.7" cy="120.5" r="3.4" class="st45"/>
  <circle id="connector40pin" cx="358.3" cy="120.5" r="3.4" class="st45"/>
  <path id="_x30_.1.2.0.0.0.0.0" d="M362.1 113.8h-21.2l-2.8 2.9v7.4l2.8 2.9H362.1l2.9-2.9v-7.4z" class="st26"/>
  <g id="Group_143_" transform="rotate(-90 20.25 -10.733)">
    <g id="_x30_.1.2.0.0.0.0.10">
      <path id="_x30_.1.2.0.0.0.0.10.0" d="M-112.7 311.6h4.3v4.3h-4.3z" class="st46" transform="rotate(-90 -110.575 313.81)"/>
    </g>
  </g>
  <g id="Group_144_" transform="rotate(-90 26.727 -3.887)">
    <g id="_x30_.1.2.0.0.0.0.11">
      <path id="_x30_.1.2.0.0.0.0.11.0" d="M-99.4 325.6h4.3v4.3h-4.3z" class="st47" transform="rotate(-90 -97.252 327.805)"/>
    </g>
  </g>
  <g id="Group_145_" transform="rotate(-90 27.652 -4.809)">
    <g id="_x30_.1.2.0.0.0.0.12">
      <path id="_x30_.1.2.0.0.0.0.12.0" d="M-98.4 324.8h2.2v2.2h-2.2z" class="st48" transform="rotate(-90 -97.25 325.964)"/>
    </g>
  </g>
  <path id="_x30_.1.2.0.0.0.0.13" d="M356.2 117.9l1.1 1.1h2.2l1.1-1.1z" class="st49"/>
  <path id="_x30_.1.2.0.0.0.0.14" d="M359.5 121.2V119l1.1-1.1v4.4z" class="st50"/>
  <path id="_x30_.1.2.0.0.0.0.15" d="M357.3 121.2h2.2l1.1 1.1h-4.4z" class="st51"/>
  <path id="_x30_.1.2.0.0.0.0.16" d="M356.2 117.9l1.1 1.1v2.2l-1.1 1.1z" class="st5"/>
  <g id="Group_146_" transform="rotate(-90 21.176 -11.658)">
    <g id="_x30_.1.2.0.0.0.0.17">
      <path id="_x30_.1.2.0.0.0.0.17.0" d="M-111.7 310.8h2.2v2.2h-2.2z" class="st48" transform="rotate(-90 -110.573 311.96)"/>
    </g>
  </g>
  <path id="_x30_.1.2.0.0.0.0.18" d="M342.6 117.9l1.1 1.1h2.2l1.1-1.1z" class="st49"/>
  <path id="_x30_.1.2.0.0.0.0.19" d="M345.9 121.2V119l1.1-1.1v4.4z" class="st50"/>
  <path id="_x30_.1.2.0.0.0.0.20" d="M343.7 121.2h2.2l1.1 1.1h-4.4z" class="st51"/>
  <path id="_x30_.1.2.0.0.0.0.21" d="M342.6 117.9l1.1 1.1v2.2l-1.1 1.1z" class="st5"/>
  <g>
    <circle id="connector39pin_1_" cx="344.7" cy="133.6" r="3.4" class="st45"/>
    <circle id="connector40pin_1_" cx="358.3" cy="133.6" r="3.4" class="st45"/>
    <path id="_x30_.1.2.0.0.0.0.0_1_" d="M362.1 127h-21.2l-2.8 2.9v7.4l2.8 2.9H362.1l2.9-2.9v-7.4z" class="st26"/>
    <g id="Group_142_" transform="rotate(-90 20.25 -10.733)">
      <g id="_x30_.1.2.0.0.0.0.10_1_">
        <path id="_x30_.1.2.0.0.0.0.10.0_1_" d="M-125.9 311.6h4.3v4.3h-4.3z" class="st46" transform="rotate(-90 -123.733 313.81)"/>
      </g>
    </g>
    <g id="Group_141_" transform="rotate(-90 26.727 -3.887)">
      <g id="_x30_.1.2.0.0.0.0.11_1_">
        <path id="_x30_.1.2.0.0.0.0.11.0_1_" d="M-112.6 325.6h4.3v4.3h-4.3z" class="st47" transform="rotate(-90 -110.41 327.805)"/>
      </g>
    </g>
    <g id="Group_140_" transform="rotate(-90 27.652 -4.809)">
      <g id="_x30_.1.2.0.0.0.0.12_1_">
        <path id="_x30_.1.2.0.0.0.0.12.0_1_" d="M-111.5 324.8h2.2v2.2h-2.2z" class="st48" transform="rotate(-90 -110.408 325.964)"/>
      </g>
    </g>
    <path id="_x30_.1.2.0.0.0.0.13_1_" d="M356.2 131.1l1.1 1h2.2l1.1-1z" class="st49"/>
    <path id="_x30_.1.2.0.0.0.0.14_1_" d="M359.5 134.4v-2.3l1.1-1v4.3z" class="st50"/>
    <path id="_x30_.1.2.0.0.0.0.15_1_" d="M357.3 134.4h2.2l1.1 1h-4.4z" class="st51"/>
    <path id="_x30_.1.2.0.0.0.0.16_1_" d="M356.2 131.1l1.1 1v2.3l-1.1 1z" class="st5"/>
    <g id="Group_139_" transform="rotate(-90 21.176 -11.658)">
      <g id="_x30_.1.2.0.0.0.0.17_1_">
        <path id="_x30_.1.2.0.0.0.0.17.0_1_" d="M-124.9 310.8h2.2v2.2h-2.2z" class="st48" transform="rotate(-90 -123.73 311.96)"/>
      </g>
    </g>
    <path id="_x30_.1.2.0.0.0.0.18_1_" d="M342.6 131.1l1.1 1h2.2l1.1-1z" class="st49"/>
    <path id="_x30_.1.2.0.0.0.0.19_1_" d="M345.9 134.4v-2.3l1.1-1v4.3z" class="st50"/>
    <path id="_x30_.1.2.0.0.0.0.20_1_" d="M343.7 134.4h2.2l1.1 1h-4.4z" class="st51"/>
    <path id="_x30_.1.2.0.0.0.0.21_1_" d="M342.6 131.1l1.1 1v2.3l-1.1 1z" class="st5"/>
  </g>
  <g>
    <circle id="connector39pin_2_" cx="344.7" cy="146.8" r="3.4" class="st45"/>
    <circle id="connector40pin_2_" cx="358.3" cy="146.8" r="3.4" class="st45"/>
    <path id="_x30_.1.2.0.0.0.0.0_2_" d="M362.1 140.2h-21.2l-2.8 2.8v7.5l2.8 2.8H362.1l2.9-2.8V143z" class="st26"/>
    <g id="Group_150_" transform="rotate(-90 20.25 -10.733)">
      <g id="_x30_.1.2.0.0.0.0.10_2_">
        <path id="_x30_.1.2.0.0.0.0.10.0_2_" d="M-139.1 311.6h4.3v4.3h-4.3z" class="st46" transform="rotate(-90 -136.89 313.81)"/>
      </g>
    </g>
    <g id="Group_149_" transform="rotate(-90 26.727 -3.887)">
      <g id="_x30_.1.2.0.0.0.0.11_2_">
        <path id="_x30_.1.2.0.0.0.0.11.0_2_" d="M-125.7 325.6h4.3v4.3h-4.3z" class="st47" transform="rotate(-90 -123.568 327.805)"/>
      </g>
    </g>
    <g id="Group_148_" transform="rotate(-90 27.652 -4.809)">
      <g id="_x30_.1.2.0.0.0.0.12_2_">
        <path id="_x30_.1.2.0.0.0.0.12.0_2_" d="M-124.7 324.8h2.2v2.2h-2.2z" class="st48" transform="rotate(-90 -123.566 325.964)"/>
      </g>
    </g>
    <path id="_x30_.1.2.0.0.0.0.13_2_" d="M356.2 144.2l1.1 1.1h2.2l1.1-1.1z" class="st49"/>
    <path id="_x30_.1.2.0.0.0.0.14_2_" d="M359.5 147.5v-2.2l1.1-1.1v4.4z" class="st50"/>
    <path id="_x30_.1.2.0.0.0.0.15_2_" d="M357.3 147.5h2.2l1.1 1.1h-4.4z" class="st51"/>
    <path id="_x30_.1.2.0.0.0.0.16_2_" d="M356.2 144.2l1.1 1.1v2.2l-1.1 1.1z" class="st5"/>
    <g id="Group_147_" transform="rotate(-90 21.176 -11.658)">
      <g id="_x30_.1.2.0.0.0.0.17_2_">
        <path id="_x30_.1.2.0.0.0.0.17.0_2_" d="M-138 310.8h2.2v2.2h-2.2z" class="st48" transform="rotate(-90 -136.889 311.96)"/>
      </g>
    </g>
    <path id="_x30_.1.2.0.0.0.0.18_2_" d="M342.6 144.2l1.1 1.1h2.2l1.1-1.1z" class="st49"/>
    <path id="_x30_.1.2.0.0.0.0.19_2_" d="M345.9 147.5v-2.2l1.1-1.1v4.4z" class="st50"/>
    <path id="_x30_.1.2.0.0.0.0.20_2_" d="M343.7 147.5h2.2l1.1 1.1h-4.4z" class="st51"/>
    <path id="_x30_.1.2.0.0.0.0.21_2_" d="M342.6 144.2l1.1 1.1v2.2l-1.1 1.1z" class="st5"/>
  </g>
  <path id="_x30_.1.0.86" d="M271.5 235.7h73" class="st52"/>
  <path id="_x30_.1.0.88" d="M187.9 235.7h66" class="st52"/>
  <g>
    <path d="M274.7 239l.7 1.6h-1.3z" class="st1"/>
    <path d="M283.9 239l-.6 1.7h1.2l-.6-1.7zm0 0l-.6 1.7h1.2l-.6-1.7zm0 0l-.6 1.7h1.2l-.6-1.7zm9.5 0c-.2-.3-.5-.4-.9-.4s-.7.1-.9.4c-.2.3-.3.6-.3 1.2 0 .5.1.9.4 1.2.2.3.5.4.9.4s.7-.1.9-.4c.2-.3.3-.7.3-1.2-.1-.6-.2-1-.4-1.2zm0 0c-.2-.3-.5-.4-.9-.4s-.7.1-.9.4c-.2.3-.3.6-.3 1.2 0 .5.1.9.4 1.2.2.3.5.4.9.4s.7-.1.9-.4c.2-.3.3-.7.3-1.2-.1-.6-.2-1-.4-1.2zm-9.5 0l-.6 1.7h1.2l-.6-1.7zm0 0l-.6 1.7h1.2l-.6-1.7zm9.5 0c-.2-.3-.5-.4-.9-.4s-.7.1-.9.4c-.2.3-.3.6-.3 1.2 0 .5.1.9.4 1.2.2.3.5.4.9.4s.7-.1.9-.4c.2-.3.3-.7.3-1.2-.1-.6-.2-1-.4-1.2zm0 0c-.2-.3-.5-.4-.9-.4s-.7.1-.9.4c-.2.3-.3.6-.3 1.2 0 .5.1.9.4 1.2.2.3.5.4.9.4s.7-.1.9-.4c.2-.3.3-.7.3-1.2-.1-.6-.2-1-.4-1.2zm-9.5 0l-.6 1.7h1.2l-.6-1.7zm-13.1-3.3v9h38.8v-9h-38.8zm5.3 6.7l-.4-1h-1.8l-.4 1h-1l1.8-4.5h1l1.8 4.5h-1zm5 0h-.9l-1.8-2.9v2.9h-.8v-4.5h.9l1.8 3v-3h.8v4.5zm4.1 0l-.4-1H283l-.4 1h-1l1.8-4.5h1l1.8 4.5h-1zm4.6 0h-3.2v-4.5h.9v3.7h2.3v.8zm4.3-.5c-.4.4-.9.6-1.6.6-.7 0-1.2-.2-1.6-.6-.4-.4-.6-1-.6-1.7 0-.5.1-.8.2-1.2.1-.2.2-.4.4-.6.2-.2.4-.3.6-.4.3-.1.6-.2 1-.2.7 0 1.2.2 1.6.6.4.4.6 1 .6 1.7 0 .8-.2 1.4-.6 1.8zm5.3-.1c-.2.2-.5.3-.8.5-.4.1-.7.2-1.1.2-.5 0-.9-.1-1.2-.3-.4-.2-.6-.5-.8-.8-.2-.4-.3-.8-.3-1.2 0-.5.1-.9.3-1.3.2-.4.5-.6.9-.8.3-.1.6-.2 1.1-.2.6 0 1 .1 1.3.4s.5.6.6 1l-.9.2c-.1-.2-.2-.4-.4-.5-.2-.1-.4-.2-.7-.2-.4 0-.7.1-1 .4-.2.2-.4.6-.4 1.1 0 .5.1.9.4 1.2.2.3.5.4.9.4.2 0 .4 0 .6-.1.2-.1.4-.2.5-.3v-.6h-1v-.9h2v1.8zm3.5.6h-.9v-4.5h.9v4.5zm4.5 0h-.9l-1.8-2.9v2.9h-.8v-4.5h.9l1.8 3v-3h.8v4.5zm-14.9-3.8c-.4 0-.7.1-.9.4-.2.3-.3.6-.3 1.2 0 .5.1.9.4 1.2.2.3.5.4.9.4s.7-.1.9-.4c.2-.3.3-.7.3-1.2s-.1-.9-.3-1.2c-.3-.3-.6-.4-1-.4zm-9.3 2h1.2l-.6-1.7-.6 1.7zm.7-1.6l-.6 1.7h1.2l-.6-1.7zm9.5 0c-.2-.3-.5-.4-.9-.4s-.7.1-.9.4c-.2.3-.3.6-.3 1.2 0 .5.1.9.4 1.2.2.3.5.4.9.4s.7-.1.9-.4c.2-.3.3-.7.3-1.2-.1-.6-.2-1-.4-1.2zm0 0c-.2-.3-.5-.4-.9-.4s-.7.1-.9.4c-.2.3-.3.6-.3 1.2 0 .5.1.9.4 1.2.2.3.5.4.9.4s.7-.1.9-.4c.2-.3.3-.7.3-1.2-.1-.6-.2-1-.4-1.2zm-9.5 0l-.6 1.7h1.2l-.6-1.7zm0 0l-.6 1.7h1.2l-.6-1.7zm0 0l-.6 1.7h1.2l-.6-1.7z" class="st1"/>
  </g>
  <g>
    <path d="M250.9 239.9c-.1 0-.4.1-.8.1h-.7v-1.2h1.4c.1 0 .3.1.3.2.1.1.1.2.1.4 0 .1 0 .3-.1.3l-.2.2z" class="st1"/>
    <path d="M236.2 239.1c-.2-.3-.5-.4-.9-.4s-.7.1-.9.4c-.2.3-.3.7-.3 1.2s.1.9.4 1.2c.2.3.5.4.9.4s.7-.1.9-.4c.2-.3.4-.7.4-1.2-.2-.6-.3-1-.5-1.2zm0 0c-.2-.3-.5-.4-.9-.4s-.7.1-.9.4c-.2.3-.3.7-.3 1.2s.1.9.4 1.2c.2.3.5.4.9.4s.7-.1.9-.4c.2-.3.4-.7.4-1.2-.2-.6-.3-1-.5-1.2zm-9.6-3.4v9h28.1v-9h-28.1zm5.7 4.4c-.1.2-.2.3-.4.5-.2.1-.3.2-.5.2s-.5.1-1 .1h-.6v1.7h-.9V238h1.5c.6 0 .9 0 1.1.1.3.1.5.2.7.4.2.2.3.5.3.9-.1.3-.1.5-.2.7zm4.6 1.9c-.4.4-.9.6-1.6.6-.7 0-1.2-.2-1.6-.6-.4-.4-.6-1-.6-1.7 0-.5.1-.9.2-1.2.1-.2.2-.4.4-.6.2-.2.4-.3.6-.4.3-.1.6-.2 1-.2.7 0 1.2.2 1.6.6.4.4.6 1 .6 1.7 0 .8-.2 1.4-.6 1.8zm5.7.5h-1l-.9-3.4-.9 3.4h-1l-1.1-4.6h.9l.7 3.1.8-3.1h1.1l.8 3.2.7-3.2h.9l-1 4.6zm5.1 0h-3.5V238h3.4v.8h-2.5v1h2.3v.8h-2.3v1.2h2.6v.7zm3.8 0l-.7-1c-.2-.4-.4-.6-.5-.7-.1-.1-.2-.2-.3-.2h-.7v1.9h-.9V238h1.9c.5 0 .8 0 1.1.1.2.1.4.2.5.4.1.2.2.5.2.7 0 .3-.1.6-.3.9-.2.2-.5.4-.9.4.2.1.4.2.5.4.1.1.3.4.5.7l.6.9h-1zm-16.3-3.8c-.4 0-.7.1-.9.4-.2.3-.3.7-.3 1.2s.1.9.4 1.2c.2.3.5.4.9.4s.7-.1.9-.4c.2-.3.4-.7.4-1.2s-.1-.9-.3-1.2c-.4-.3-.7-.4-1.1-.4zm-4.2.1h-1.1v1.3h.5c.4 0 .6 0 .7-.1.1 0 .2-.1.3-.2.1-.1.1-.2.1-.4s0-.3-.1-.4c-.2-.1-.3-.2-.4-.2z" class="st1"/>
  </g>
  <path d="M215.7 250.4V262H240v-11.6h-24.3zm9.6 5.2c-.2.2-.5.3-.8.5-.4.1-.7.2-1.1.2-.5 0-.9-.1-1.2-.3-.3-.2-.6-.5-.8-.8-.2-.4-.3-.8-.3-1.2 0-.5.1-.9.3-1.2.2-.4.5-.6.8-.8.3-.1.6-.2 1.1-.2.6 0 1 .1 1.3.3.3.2.5.6.6 1l-.9.2c-.1-.2-.2-.4-.4-.5-.2-.1-.4-.2-.6-.2-.4 0-.7.1-.9.4-.2.2-.3.6-.3 1.1 0 .5.1.9.4 1.2.2.3.5.4.9.4.2 0 .4 0 .6-.1.2-.1.4-.2.5-.3v-.6h-1v-.7h1.9v1.6zm4.3.6h-.9l-1.8-2.9v2.9h-.8v-4.4h.9l1.8 3v-3h.8v4.4zm4.5-1.2c-.1.3-.3.6-.5.8-.2.2-.4.3-.6.4-.2.1-.5.1-.8.1h-1.7v-4.4h1.6c.4 0 .7 0 .8.1.3.1.5.2.7.4.2.2.3.4.4.7.1.3.1.6.1 1 .2.3.1.6 0 .9zm-1.1-2.2c-.1-.1-.2-.2-.4-.2h-1.1v2.9h1.2c.1 0 .3-.1.4-.2.1-.1.2-.2.2-.4.1-.2.1-.5.1-.8 0-.3 0-.6-.1-.8-.1-.3-.2-.4-.3-.5z" class="st1"/>
  <g>
    <path d="M250.4 258l-4.3 1.5v-.9l3.2-1.1-3.2-1.1v-.9l4.3 1.6v.9zM250.4 255.1H246v-.9h4.3v.9zM250.4 253.4H246v-.9l2.9-1.8H246v-.7h4.3v.9l-2.8 1.7h2.8v.8z" class="st1"/>
  </g>
  <g>
    <path d="M277.2 254.5v1l-1 .4v1.8l1 .4v1l-4.5-1.7v-1l4.5-1.9zm-1.8 1.6l-1.7.6 1.7.6v-1.2zM272.7 252.7c0-.4.2-.8.5-1 .4-.3 1-.4 1.8-.4s1.5.1 1.8.4c.3.2.5.6.5 1s-.2.8-.5 1.1c-.3.3-.9.4-1.8.4-.8 0-1.5-.1-1.8-.4-.3-.3-.5-.6-.5-1.1zm.7 0c0 .1 0 .2.1.3.1.1.2.1.4.2s.6.1 1.1.1c.5 0 .9 0 1.1-.1.2-.1.3-.1.4-.2.1-.1.1-.2.1-.3 0-.1 0-.2-.1-.3-.1-.1-.2-.1-.4-.2s-.6-.1-1.1-.1c-.5 0-.9 0-1.1.1-.2.1-.3.1-.4.2-.1.1-.1.2-.1.3z" class="st1"/>
  </g>
  <g>
    <path d="M290.5 254.5v1l-1 .4v1.8l1 .4v1l-4.5-1.7v-1l4.5-1.9zm-1.8 1.6l-1.7.6 1.7.6v-1.2zM290.5 252v.9h-3.2c.3.3.5.7.7 1.1h-.8c-.1-.2-.2-.5-.4-.7-.2-.3-.4-.4-.7-.5v-.8h4.4z" class="st1"/>
  </g>
  <g>
    <path d="M303.8 254.5v1l-1 .4v1.8l1 .4v1l-4.5-1.7v-1l4.5-1.9zm-1.8 1.6l-1.7.6 1.7.6v-1.2zM303 251.3h.8v3c-.3 0-.6-.1-.9-.3s-.6-.5-1.1-1l-.7-.7c-.2-.1-.4-.2-.5-.2-.2 0-.3.1-.4.2-.1.1-.2.2-.2.4s.1.3.2.4c.1.1.3.2.5.2l-.1.9c-.5-.1-.8-.2-1-.5-.2-.3-.3-.6-.3-1s.1-.8.4-1c.2-.3.5-.4.9-.4.2 0 .4 0 .6.1l.6.3.6.6c.2.3.4.4.5.5.1.1.2.1.2.2v-1.7z" class="st1"/>
  </g>
  <g>
    <path d="M317.1 254.5v1l-1 .4v1.8l1 .4v1l-4.5-1.7v-1l4.5-1.9zm-1.8 1.6l-1.7.6 1.7.6v-1.2zM315.9 254.2l-.1-.8c.2 0 .4-.1.5-.2.1-.1.2-.3.2-.4 0-.2-.1-.3-.2-.4-.1-.1-.3-.2-.5-.2s-.4.1-.5.2c-.1.1-.2.3-.2.4 0 .1 0 .2.1.4l-.7-.1c0-.2 0-.4-.2-.5-.1-.1-.2-.2-.4-.2s-.3 0-.4.1c-.1.1-.1.2-.1.4 0 .1.1.3.2.4.1.1.3.2.4.2l-.1.8c-.3-.1-.5-.1-.6-.2-.2-.1-.3-.3-.4-.5-.1-.2-.1-.4-.1-.7 0-.4.1-.8.4-1 .2-.2.5-.3.7-.3.4 0 .7.2.9.6.1-.3.2-.5.4-.6.2-.2.4-.2.7-.2.4 0 .7.1 1 .4.3.3.4.6.4 1.1 0 .4-.1.7-.4 1-.3.1-.6.3-1 .3z" class="st1"/>
  </g>
  <g>
    <path d="M330.4 254.5v1l-1 .4v1.8l1 .4v1l-4.5-1.7v-1l4.5-1.9zm-1.8 1.6l-1.7.6 1.7.6v-1.2zM330.4 252.5h-.9v1.8h-.8l-2.8-1.9v-.7h2.8v-.6h.8v.6h.9v.8zm-1.7 0h-1.5l1.5 1v-1z" class="st1"/>
  </g>
  <g>
    <path d="M343.7 254.5v1l-1 .4v1.8l1 .4v1l-4.5-1.7v-1l4.5-1.9zm-1.8 1.6l-1.7.6 1.7.6v-1.2zM342.5 254.2l-.1-.9c.2 0 .3-.1.5-.2.1-.1.2-.3.2-.4 0-.2-.1-.3-.2-.5-.1-.1-.4-.2-.7-.2-.3 0-.5.1-.6.2-.1.1-.2.3-.2.5s.1.5.3.7l-.1.7-2.3-.4v-2.3h.8v1.6l.8.1c-.1-.2-.1-.4-.1-.6 0-.4.1-.7.4-1 .3-.3.6-.4 1.1-.4.4 0 .7.1 1 .3.4.3.6.7.6 1.2 0 .4-.1.8-.3 1-.4.4-.7.5-1.1.6z" class="st1"/>
  </g>
  <g>
    <path d="M208.9 258.9l-.1-.9c.2 0 .4-.1.5-.2.1-.1.2-.3.2-.4 0-.2-.1-.4-.2-.5s-.4-.2-.7-.2c-.3 0-.5.1-.7.2-.1.1-.2.3-.2.5 0 .3.1.5.3.7l-.1.7-2.5-.5v-2.4h.9v1.7l.8.1c-.1-.2-.2-.4-.2-.6 0-.4.1-.8.4-1 .3-.3.7-.4 1.2-.4.4 0 .7.1 1.1.3.4.3.6.7.6 1.3 0 .4-.1.8-.4 1.1-.2.3-.5.5-.9.5zM210.1 253.8l-4.8 1.7v-1l3.5-1.2-3.5-1.2v-1l4.8 1.7v1z" class="st1"/>
  </g>
  <g>
    <path d="M183.5 258.7h-4.8v-2c0-.5 0-.9.1-1.1.1-.2.2-.4.5-.6.2-.1.5-.2.8-.2.4 0 .7.1.9.3.2.2.4.5.4.9.1-.2.3-.4.4-.5.1-.1.4-.3.8-.6l.9-.6v1.2l-1 .7c-.4.2-.6.4-.7.5-.1.1-.2.2-.2.3 0 .1-.1.3-.1.5v.2h2v1zm-2.7-.9v-.8c0-.5 0-.8-.1-.9 0-.1-.1-.2-.2-.3s-.2-.1-.4-.1-.3 0-.4.1c-.1.1-.2.2-.2.4v1.5h1.3zM183.5 253.9h-4.8v-3.5h.8v2.6h1.1v-2.4h.8v2.4h1.3v-2.7h.8v3.6zM182 249.7l-.1-.9c.3-.1.5-.2.7-.3.1-.2.2-.4.2-.7 0-.3-.1-.5-.2-.7-.1-.2-.3-.2-.5-.2-.1 0-.2 0-.3.1-.1.1-.1.2-.2.3 0 .1-.1.4-.2.8-.1.5-.3.9-.5 1.1-.3.3-.6.4-1 .4-.2 0-.5-.1-.7-.2-.2-.1-.4-.3-.5-.6-.1-.3-.2-.6-.2-.9 0-.6.1-1.1.4-1.4.3-.3.6-.5 1.1-.5v1c-.2 0-.4.1-.5.3-.1.1-.2.3-.2.6s.1.5.2.7c.1.1.2.2.3.2.1 0 .2 0 .3-.1.1-.1.2-.4.3-.9.1-.5.2-.8.3-1 .1-.2.3-.4.5-.5.2-.1.5-.2.8-.2.3 0 .5.1.8.2.2.2.4.4.5.6.1.3.2.6.2 1 0 .6-.1 1.1-.4 1.4-.2.1-.6.3-1.1.4zM183.5 245h-4.8v-3.5h.8v2.6h1.1v-2.4h.8v2.4h1.3v-2.7h.8v3.6zM183.5 239.4h-4v1.4h-.8V237h.8v1.4h4v1z" class="st1"/>
  </g>
  <g>
    <path d="M170.3 258.8h-4.8v-1h4.8v1zM167.9 257.1c-.5 0-.9-.1-1.2-.2-.2-.1-.5-.3-.7-.4-.2-.2-.3-.4-.4-.6-.1-.3-.2-.6-.2-1 0-.7.2-1.3.7-1.7.4-.4 1-.6 1.8-.6s1.4.2 1.8.6c.4.4.7 1 .7 1.7s-.2 1.3-.7 1.7c-.4.3-1 .5-1.8.5zm0-1c.5 0 1-.1 1.2-.4.3-.3.4-.6.4-1s-.1-.7-.4-.9c-.3-.2-.7-.4-1.2-.4s-1 .1-1.2.4c-.3.2-.4.6-.4 1s.1.7.4 1c.2.1.6.3 1.2.3zM170.3 251.7h-4.8v-2c0-.5 0-.9.1-1.1.1-.2.2-.4.5-.6.2-.1.5-.2.8-.2.4 0 .7.1.9.3.2.2.4.5.4.9.1-.2.3-.4.4-.5.1-.1.4-.3.8-.6l.9-.6v1.2l-1 .7c-.4.2-.6.4-.7.5-.1.1-.2.2-.2.3 0 .1-.1.3-.1.5v.2h2v1zm-2.8-1v-.7c0-.5 0-.8-.1-.9 0-.1-.1-.2-.2-.3-.1-.1-.2-.1-.4-.1s-.3 0-.4.1c-.1.1-.2.2-.2.4v1.5h1.3zM170.3 246.8h-4.8v-3.5h.8v2.6h1.1v-2.4h.8v2.4h1.3v-2.7h.8v3.6zM170.3 242.4h-4.8v-3.3h.8v2.3h1.1v-2h.8v2h2v1z" class="st1"/>
  </g>
  <path d="M215.7 275.4H240v6.4h-24.3z" class="st1"/>
  <g>
    <path d="M25.7 186.6c0-.6.1-1 .3-1.4.1-.3.3-.5.5-.8.2-.2.5-.4.7-.5.3-.1.7-.2 1.2-.2.8 0 1.5.3 2 .8s.7 1.2.7 2.1c0 .9-.2 1.6-.7 2.1-.5.5-1.1.8-1.9.8-.8 0-1.5-.3-2-.8-.6-.5-.8-1.2-.8-2.1zm1.1 0c0 .6.1 1.1.4 1.4.3.3.7.5 1.1.5.4 0 .8-.2 1.1-.5.3-.3.4-.8.4-1.4 0-.6-.1-1.1-.4-1.4-.3-.3-.6-.5-1.1-.5s-.8.2-1.1.5c-.2.3-.4.7-.4 1.4zM31.9 189.3v-5.5H33l2.3 3.7v-3.7h1v5.5h-1.1l-2.2-3.6v3.6h-1.1z" class="st1"/>
  </g>
  <g>
    <path d="M27.4 149.1V145h-1.5v-.8h3.9v.8h-1.5v4.1h-.9zM30 149.1l1.7-2.6-1.5-2.4h1.2l1 1.6 1-1.6h1.2l-1.5 2.4 1.7 2.5h-1.2l-1.1-1.7-1.1 1.7H30z" class="st1"/>
  </g>
  <g>
    <path d="M25.8 128v-5.1H28c.5 0 .9 0 1.2.1.2.1.4.3.6.5.1.2.2.5.2.8 0 .4-.1.7-.3.9-.2.2-.6.4-1 .5.2.1.4.3.5.4.1.2.3.4.6.8l.6 1h-1.2l-.7-1.1c-.3-.4-.4-.6-.5-.7-.1-.1-.2-.2-.3-.2-.1 0-.3-.1-.5-.1H27v2.1h-1.2zm1-2.9h.8c.5 0 .8 0 .9-.1.1 0 .2-.1.3-.2.1-.1.1-.2.1-.4s0-.3-.1-.4c-.1-.1-.2-.2-.4-.2h-1.5v1.3zM30.4 128l1.7-2.6-1.6-2.4h1.2l1 1.6 1-1.6H35l-1.6 2.5 1.7 2.6h-1.2l-1.1-1.7-1.1 1.7h-1.3z" class="st1"/>
  </g>
  <g>
    <path d="M25.8 169.6v-6.1H27v5.1h3.1v1h-4.3z" class="st1"/>
  </g>
  <path d="M100.2 88.4h12.1v12.1h-12.1z" class="st2"/>
  <path d="M190.7 45l-.7 2h1.5l-.8-2zm0 0l-.7 2h1.5l-.8-2zm0 0l-.7 2h1.5l-.8-2zm21.2 0c-.1-.1-.3-.2-.5-.2h-1.3v1.6h.6c.4 0 .7 0 .9-.1s.3-.2.3-.3c.1-.1.1-.3.1-.4.1-.3 0-.5-.1-.6zm0 0c-.1-.1-.3-.2-.5-.2h-1.3v1.6h.6c.4 0 .7 0 .9-.1s.3-.2.3-.3c.1-.1.1-.3.1-.4.1-.3 0-.5-.1-.6zm-21.2 0l-.7 2h1.5l-.8-2zm0 0l-.7 2h1.5l-.8-2zm21.2 0c-.1-.1-.3-.2-.5-.2h-1.3v1.6h.6c.4 0 .7 0 .9-.1s.3-.2.3-.3c.1-.1.1-.3.1-.4.1-.3 0-.5-.1-.6zm0 0c-.1-.1-.3-.2-.5-.2h-1.3v1.6h.6c.4 0 .7 0 .9-.1s.3-.2.3-.3c.1-.1.1-.3.1-.4.1-.3 0-.5-.1-.6zm-21.2 0l-.7 2h1.5l-.8-2zm0 0l-.7 2h1.5l-.8-2zm21.2 0c-.1-.1-.3-.2-.5-.2h-1.3v1.6h.6c.4 0 .7 0 .9-.1s.3-.2.3-.3c.1-.1.1-.3.1-.4.1-.3 0-.5-.1-.6zm0 0c-.1-.1-.3-.2-.5-.2h-1.3v1.6h.6c.4 0 .7 0 .9-.1s.3-.2.3-.3c.1-.1.1-.3.1-.4.1-.3 0-.5-.1-.6zm-21.2 0l-.7 2h1.5l-.8-2zm21.2 0c-.1-.1-.3-.2-.5-.2h-1.3v1.6h.6c.4 0 .7 0 .9-.1s.3-.2.3-.3c.1-.1.1-.3.1-.4.1-.3 0-.5-.1-.6zM190 47.1h1.5l-.8-2-.7 2zm.7-2.1l-.7 2h1.5l-.8-2zm21.2 0c-.1-.1-.3-.2-.5-.2h-1.3v1.6h.6c.4 0 .7 0 .9-.1s.3-.2.3-.3c.1-.1.1-.3.1-.4.1-.3 0-.5-.1-.6zm0 0c-.1-.1-.3-.2-.5-.2h-1.3v1.6h.6c.4 0 .7 0 .9-.1s.3-.2.3-.3c.1-.1.1-.3.1-.4.1-.3 0-.5-.1-.6zm-21.2 0l-.7 2h1.5l-.8-2zm0 0l-.7 2h1.5l-.8-2zm21.2 0c-.1-.1-.3-.2-.5-.2h-1.3v1.6h.6c.4 0 .7 0 .9-.1s.3-.2.3-.3c.1-.1.1-.3.1-.4.1-.3 0-.5-.1-.6zm0 0c-.1-.1-.3-.2-.5-.2h-1.3v1.6h.6c.4 0 .7 0 .9-.1s.3-.2.3-.3c.1-.1.1-.3.1-.4.1-.3 0-.5-.1-.6zm-21.2 0l-.7 2h1.5l-.8-2zm0 0l-.7 2h1.5l-.8-2zm0 0l-.7 2h1.5l-.8-2zm0 0l-.7 2h1.5l-.8-2zm0 0l-.7 2h1.5l-.8-2z" class="st1"/>
  <g>
    <path d="M169.3 45.6c.1.2.1.6.1 1s0 .8-.1 1c-.1.2-.2.4-.3.5-.1.1-.3.2-.4.2-.1 0-.4.1-.7.1h-.8v-3.7h.5c.5 0 .8 0 .9.1.2 0 .4.1.5.3.2.1.3.3.3.5z" class="st1"/>
    <path d="M156.8 42v9h82.7v-9h-82.7zm13.6 5.7c-.1.4-.3.7-.6 1-.2.2-.5.3-.8.4-.3.1-.6.1-1 .1h-2v-5.5h2c.5 0 .8 0 1 .1.3.1.6.3.8.5.2.2.4.5.5.9.1.4.2.8.2 1.3.1.5.1.9-.1 1.2zm2.7 1.6H172v-5.5h1.1v5.5zm6.4-.8c-.2.2-.6.4-1 .6s-.9.3-1.3.3c-.6 0-1.1-.1-1.5-.4-.4-.3-.8-.6-1-1-.2-.5-.3-1-.3-1.5 0-.6.1-1.1.4-1.5.2-.4.6-.8 1.1-1 .4-.2.8-.3 1.3-.3.7 0 1.2.2 1.6.4.4.3.6.7.7 1.2l-1.1.2c-.1-.3-.2-.5-.4-.6-.2-.2-.5-.2-.8-.2-.5 0-.9.2-1.2.5-.3.3-.4.8-.4 1.4 0 .7.2 1.2.4 1.5.3.3.7.5 1.1.5.2 0 .5 0 .7-.1l.6-.3v-.7h-1.3v-.9h2.4v1.9zm2.6.8H181v-5.5h1.1v5.5zm5.7-4.6h-1.6v4.6H185v-4.6h-1.6v-.9h4.4v.9zm4.5 4.6l-.5-1.3h-2.2l-.5 1.3H188l2.2-5.5h1.2l2.2 5.5h-1.3zm6.4 0h-3.9v-5.5h1.1v4.5h2.8v1zm14.3-3c-.1.2-.3.4-.5.5l-.6.3c-.3 0-.7.1-1.2.1h-.7v2.1h-1v-5.5h1.8c.7 0 1.1 0 1.3.1.3.1.6.3.8.5.2.3.3.6.3 1.1 0 .3-.1.6-.2.8zm6.5 3h-1.2l-1.1-4.1-1.1 4.1h-1.2l-1.3-5.5h1.2l.8 3.8 1-3.8h1.3l1 3.9.8-3.9h1.1l-1.3 5.5zm7.2 0h-1V45l-1.1 4.3h-1.1l-1.1-4.3v4.3h-1v-5.5h1.7l1 3.8 1-3.8h1.7v5.5zm6.8-1.6c-.4 0-.8-.1-1.4-.4-.5-.2-.8-.4-1.2-.4-.3 0-.6.3-.6.8h-.6c0-1 .5-1.5 1.2-1.5.4 0 .7.1 1.4.4.5.2.9.4 1.2.4.4 0 .5-.3.5-.8h.6c.1 1.1-.5 1.5-1.1 1.5z" class="st1"/>
  </g>
  <g id="_x30_.1.0.2.25_1_" transform="translate(116.59 12.955)">
    <g id="_x30_.1.0.2.25.0_1_">
      <g id="Group_1_" transform="translate(.836 1.258)">
        <g id="_x30_.1.0.2.25.0.0_1_">
          <g id="_x30_.1.0.2.25.0.0.0_1_">
            <g id="Group_2_" transform="rotate(-90 3.701 3.701)">
              <g id="_x30_.1.0.2.25.0.0.0.0_1_">
                <g id="_x30_.1.0.2.25.0.0.0.0.0_1_">
                  <g id="_x30_.1.0.2.25.0.0.0.0.0.0_1_">
                    <path id="_x30_.1.0.2.25.0.0.0.0.0.0.0_1_" d="M-14.7 42.1c0-.9.5-1.4 1.1-1.4.4 0 .7.1 1.3.4.5.2.8.4 1.2.4.3 0 .5-.3.5-.8h.6c0 1-.5 1.4-1.1 1.4-.4 0-.7-.1-1.4-.4-.4-.2-.8-.4-1.1-.4-.3 0-.5.2-.6.8h-.5z" class="st1"/>
                  </g>
                </g>
              </g>
            </g>
          </g>
        </g>
      </g>
    </g>
  </g>
  <g>
    <path d="M195.3 258.6l-.1-1c.2 0 .4-.1.6-.3s.2-.3.2-.5-.1-.4-.2-.5c-.2-.1-.4-.2-.6-.2-.3 0-.5.1-.6.2-.1.1-.2.3-.2.5 0 .1 0 .3.1.5l-.8-.1c0-.3-.1-.5-.2-.6-.1-.1-.3-.2-.5-.2s-.3.1-.4.2-.2.2-.2.4.1.3.2.4c.1.1.3.2.5.2l-.2.9c-.3-.1-.6-.2-.8-.3-.2-.1-.3-.3-.5-.5-.1-.2-.2-.5-.2-.8 0-.5.2-.9.5-1.2.3-.2.6-.4.9-.4.5 0 .8.3 1.1.8.1-.3.2-.5.4-.7.2-.2.5-.3.8-.3.5 0 .9.2 1.2.5.3.3.5.8.5 1.3s-.1.9-.4 1.2c-.3.3-.7.5-1.1.5zM196.7 254.3h-1v-1h1v1zM195.3 252.5l-.1-1c.2 0 .4-.1.6-.3s.2-.3.2-.5-.1-.4-.2-.5c-.2-.1-.4-.2-.6-.2-.3 0-.5.1-.6.2-.1.1-.2.3-.2.5 0 .1 0 .3.1.5l-.8-.1c0-.3-.1-.5-.2-.6-.1-.1-.3-.2-.5-.2s-.3.1-.4.2-.2.2-.2.4.1.3.2.4c.1.1.3.2.5.2l-.2.9c-.3-.1-.6-.2-.8-.3-.2-.1-.3-.3-.5-.5-.1-.2-.2-.5-.2-.8 0-.5.2-.9.5-1.2.3-.2.6-.4.9-.4.5 0 .8.3 1.1.8.1-.3.2-.5.4-.7.2-.2.5-.3.8-.3.5 0 .9.2 1.2.5.3.3.5.8.5 1.3s-.1.9-.4 1.2c-.3.3-.7.4-1.1.5zM196.7 246.8l-5.3 1.9v-1.2l3.9-1.3-3.9-1.3v-1.1l5.3 1.9v1.1z" class="st1"/>
  </g>
  <g>
    <path d="M215.7 72.4c0-7.7-6.5-13.9-14.4-13.9-.7 0-1.5 0-2.2.2-6.2.9-10.3 5.3-12.6 8.7-2.3-3.4-6.4-7.8-12.6-8.7-.7-.1-1.5-.2-2.2-.2-7.9 0-14.4 6.2-14.4 13.9s6.5 13.9 14.4 13.9c.7 0 1.5 0 2.2-.2 6.2-.9 10.3-5.3 12.6-8.7 2.3 3.4 6.4 7.8 12.6 8.7.7.1 1.5.2 2.2.2 7.9 0 14.4-6.3 14.4-13.9m-42.6 8.8c-.5.1-1 .1-1.5.1-5.2 0-9.5-4-9.5-9 0-4.9 4.2-9 9.5-9 .5 0 1 0 1.5.1 5.8.8 9.4 6.6 10.6 8.9-1.2 2.4-4.8 8.1-10.6 8.9m16.1-8.8c1.2-2.3 4.8-8 10.6-8.9.5-.1 1-.1 1.5-.1 5.2 0 9.5 4 9.5 9 0 4.9-4.2 9-9.5 9-.5 0-1 0-1.5-.1-5.9-.9-9.4-6.6-10.6-8.9" class="st1"/>
    <path d="M167.6 71h8.6v2.8h-8.6zM202.2 73.8h2.9V71h-2.9v-2.9h-2.8V71h-2.9v2.8h2.9v2.9h2.8zM161.3 90.4l-2.5 8h2l.4-1.6h2.3l.4 1.6h2.1l-2.6-8h-2.1zm.3 4.8l.7-2.9.8 2.9h-1.5zM173.7 93.1c0-1.5-.8-2.7-3.1-2.7h-3.2v8h2v-2.5h1l1.2 2.5h2.4l-1.6-2.9c.8-.5 1.3-1.3 1.3-2.4m-3.3 1.2h-1.1V92h1c.9 0 1.2.4 1.2 1.1.1.9-.4 1.2-1.1 1.2M177.9 90.4h-2.6v8h2.6c3.4 0 4-2.2 4-4.1 0-2.5-1-3.9-4-3.9m.1 6.4h-.8V92h.6c1.8 0 1.9.8 1.9 2.4.1 1.4 0 2.4-1.7 2.4M187.8 95.3c0 1.2-.3 1.6-1.2 1.6-.8 0-1.2-.3-1.2-1.6v-4.9h-2v5.3c0 2.4 1.8 2.9 3.1 2.9 1.4 0 3.2-.5 3.2-2.9v-5.3h-1.9v4.9zM191.5 92h2.1v4.8h-2.1v1.6h6.2v-1.6h-2.1V92h2.1v-1.6h-6.2zM204.1 95.2l-2.6-4.8h-2.2v8h1.9v-5.1l2.7 5.1h2v-8h-1.8zM210.6 90.3c-2.4 0-3.4 1.8-3.4 4.2 0 2.7 1.1 4.1 3.4 4.1 2.6 0 3.4-1.8 3.4-4.1.1-3.2-1.1-4.2-3.4-4.2m0 6.6c-1.1 0-1.3-.8-1.3-2.4 0-2 .2-2.6 1.3-2.6 1.2 0 1.3.5 1.3 2.5.1 1.9-.1 2.5-1.3 2.5M212.9 60.9c0-.7.6-1.3 1.3-1.3.7 0 1.3.6 1.3 1.3 0 .7-.6 1.3-1.3 1.3-.7 0-1.3-.6-1.3-1.3zm2.3 0c0-.6-.4-1.1-1.1-1.1-.6 0-1 .4-1 1.1 0 .7.5 1.1 1 1.1.7 0 1.1-.5 1.1-1.1zm-1.6-.8h.6c.5 0 .7.2.7.5 0 .2-.1.4-.3.5l.3.6h-.4l-.2-.5h-.3v.5h-.4v-1.6zm.6.8c.2 0 .3-.1.3-.3 0-.2-.1-.3-.3-.3h-.2v.5h.2z" class="st1"/>
  </g>
</svg>
