<svg id="图层_1" data-name="图层 1" xmlns="http://www.w3.org/2000/svg" viewBox="0 0 99.56 32.67"><defs><style>.cls-1{fill:#1c1d1d;}.cls-2{fill:#a5a5a5;}.cls-3{fill:#272828;}.cls-4{fill:#3f3f3f;}.cls-5,.cls-8{fill:#fff;}.cls-5{stroke:#d5a52c;stroke-miterlimit:10;}.cls-6{fill:#d5a52c;}.cls-7{fill:#b98a22;}.cls-8{font-size:3px;font-family:MicrosoftYaHei, Microsoft YaHei;}</style></defs><title>耳机孔</title><rect class="cls-1" x="65.9" y="50.31" width="5.92" height="10.09" rx="0.62" ry="0.62" transform="translate(117.62 60.4) rotate(180)"/><path class="cls-2" d="M39.26,7.64h3.22a0,0,0,0,1,0,0v2.92a0,0,0,0,1,0,0H39.26a.85.85,0,0,1-.85-.85V8.49A.85.85,0,0,1,39.26,7.64Z"/><path class="cls-2" d="M76,58h3.22a0,0,0,0,1,0,0v2.92a0,0,0,0,1,0,0H76a.85.85,0,0,1-.85-.85V58.81A.85.85,0,0,1,76,58Z" transform="translate(134.26 68.52) rotate(180)"/><path class="cls-2" d="M39.26,16.45h3.22a0,0,0,0,1,0,0v2.92a0,0,0,0,1,0,0H39.26a.85.85,0,0,1-.85-.85V17.3A.85.85,0,0,1,39.26,16.45Z"/><path class="cls-2" d="M76,66.76h3.22a0,0,0,0,1,0,0v2.92a0,0,0,0,1,0,0H76a.85.85,0,0,1-.85-.85V67.61A.85.85,0,0,1,76,66.76Z" transform="translate(134.26 86.13) rotate(180)"/><path class="cls-2" d="M39.26,25.26h3.22a0,0,0,0,1,0,0v2.92a0,0,0,0,1,0,0H39.26a.85.85,0,0,1-.85-.85V26.11A.85.85,0,0,1,39.26,25.26Z"/><path class="cls-2" d="M76,75.57h3.22a0,0,0,0,1,0,0v2.92a0,0,0,0,1,0,0H76a.85.85,0,0,1-.85-.85V76.42A.85.85,0,0,1,76,75.57Z" transform="translate(134.26 103.75) rotate(180)"/><rect class="cls-3" x="62.57" y="53.25" width="12.57" height="26.73" rx="1.51" ry="1.51" transform="translate(117.62 82.93) rotate(180)"/><rect class="cls-4" y="3.69" width="99.56" height="26.3" rx="5.67" ry="5.67"/><circle class="cls-5" cx="6.26" cy="16.84" r="4.02"/><circle class="cls-5" cx="93.7" cy="16.84" r="4.02"/><rect class="cls-1" x="29.16" y="22.58" width="5.92" height="10.09" rx="0.62" ry="0.62"/><path class="cls-2" d="M59.35,72.43h3.22a0,0,0,0,1,0,0v2.92a0,0,0,0,1,0,0H59.35a.85.85,0,0,1-.85-.85V73.28A.85.85,0,0,1,59.35,72.43Z" transform="translate(100.98 97.46) rotate(180)"/><path class="cls-2" d="M22.61,22.11h3.22a0,0,0,0,1,0,0V25a0,0,0,0,1,0,0H22.61a.85.85,0,0,1-.85-.85V23A.85.85,0,0,1,22.61,22.11Z"/><path class="cls-2" d="M59.35,63.62h3.22a0,0,0,0,1,0,0v2.92a0,0,0,0,1,0,0H59.35a.85.85,0,0,1-.85-.85V64.47A.85.85,0,0,1,59.35,63.62Z" transform="translate(100.98 79.84) rotate(180)"/><path class="cls-2" d="M22.61,13.31h3.22a0,0,0,0,1,0,0v2.92a0,0,0,0,1,0,0H22.61a.85.85,0,0,1-.85-.85V14.16A.85.85,0,0,1,22.61,13.31Z"/><path class="cls-2" d="M59.35,54.81h3.22a0,0,0,0,1,0,0v2.92a0,0,0,0,1,0,0H59.35a.85.85,0,0,1-.85-.85V55.66a.85.85,0,0,1,.85-.85Z" transform="translate(100.98 62.22) rotate(180)"/><path class="cls-2" d="M22.61,4.5h3.22a0,0,0,0,1,0,0V7.41a0,0,0,0,1,0,0H22.61a.85.85,0,0,1-.85-.85V5.35A.85.85,0,0,1,22.61,4.5Z"/><rect class="cls-3" x="25.83" y="3" width="12.57" height="26.73" rx="1.51" ry="1.51"/><path class="cls-6" d="M53.74,80l1-4.5L52.62,73H45.93v4.82A2.19,2.19,0,0,0,48.14,80L50,78.29,50.56,80Z" transform="translate(-20.1 -50.31)"/><polygon class="cls-7" points="33.64 29.74 33.18 31.44 31.07 31.44 30.47 29.74 33.64 29.74"/><rect class="cls-1" x="63.11" y="22.58" width="5.92" height="10.09" rx="0.62" ry="0.62"/><path class="cls-2" d="M93.3,72.43h3.22a0,0,0,0,1,0,0v2.92a0,0,0,0,1,0,0H93.3a.85.85,0,0,1-.85-.85V73.28A.85.85,0,0,1,93.3,72.43Z" transform="translate(168.87 97.46) rotate(180)"/><path class="cls-2" d="M56.56,22.11h3.22a0,0,0,0,1,0,0V25a0,0,0,0,1,0,0H56.56a.85.85,0,0,1-.85-.85V23A.85.85,0,0,1,56.56,22.11Z"/><path class="cls-2" d="M93.3,63.62h3.22a0,0,0,0,1,0,0v2.92a0,0,0,0,1,0,0H93.3a.85.85,0,0,1-.85-.85V64.47A.85.85,0,0,1,93.3,63.62Z" transform="translate(168.87 79.84) rotate(180)"/><path class="cls-2" d="M56.56,13.31h3.22a0,0,0,0,1,0,0v2.92a0,0,0,0,1,0,0H56.56a.85.85,0,0,1-.85-.85V14.16A.85.85,0,0,1,56.56,13.31Z"/><path class="cls-2" d="M93.3,54.81h3.22a0,0,0,0,1,0,0v2.92a0,0,0,0,1,0,0H93.3a.85.85,0,0,1-.85-.85V55.66A.85.85,0,0,1,93.3,54.81Z" transform="translate(168.87 62.22) rotate(180)"/><path class="cls-2" d="M56.56,4.5h3.22a0,0,0,0,1,0,0V7.41a0,0,0,0,1,0,0H56.56a.85.85,0,0,1-.85-.85V5.35A.85.85,0,0,1,56.56,4.5Z"/><rect class="cls-3" x="59.78" y="3" width="12.57" height="26.73" rx="1.51" ry="1.51"/><path class="cls-6" d="M87.68,80l1-4.5L86.56,73H79.88v4.82A2.19,2.19,0,0,0,82.09,80L84,78.29,84.51,80Z" transform="translate(-20.1 -50.31)"/><polygon class="cls-7" points="67.58 29.74 67.13 31.44 65.02 31.44 64.41 29.74 67.58 29.74"/><text class="cls-8" transform="translate(79.64 29.18)">EVEN</text><text class="cls-8" transform="translate(11.64 29.06)">ODD</text></svg>