<svg id="图层_1" data-name="图层 1" xmlns="http://www.w3.org/2000/svg" viewBox="0 0 112.74 196.04"><defs><style>.cls-1{fill:#1c1d1d;}.cls-2{fill:#a5a5a5;}.cls-3{fill:#272828;}.cls-11,.cls-4{fill:#d5a52c;}.cls-5{fill:#3f3f3f;}.cls-6{fill:#fff;stroke:#d5a52c;}.cls-6,.cls-9{stroke-miterlimit:10;stroke-width:2.35px;}.cls-7{fill:#ebe952;}.cls-8{fill:#afafaf;}.cls-9{fill:none;stroke:#57b43c;stroke-linecap:round;}.cls-10{fill:#555656;}.cls-11{font-size:10.93px;font-family:MicrosoftYaHei, Microsoft YaHei;}</style></defs><title>1</title><rect class="cls-1" x="49.59" y="172.92" width="13.56" height="23.13" rx="0.62" ry="0.62"/><path class="cls-2" d="M226.57,199.12H235a0,0,0,0,1,0,0v6.69a0,0,0,0,1,0,0h-8.48a.85.85,0,0,1-.85-.85v-5A.85.85,0,0,1,226.57,199.12Z" transform="translate(305.83 377.65) rotate(180)"/><path class="cls-2" d="M33.49,171.84H42a0,0,0,0,1,0,0v6.69a0,0,0,0,1,0,0H33.49a.85.85,0,0,1-.85-.85v-5A.85.85,0,0,1,33.49,171.84Z"/><path class="cls-2" d="M226.57,178.94H235a0,0,0,0,1,0,0v6.69a0,0,0,0,1,0,0h-8.48a.85.85,0,0,1-.85-.85v-5A.85.85,0,0,1,226.57,178.94Z" transform="translate(305.83 337.28) rotate(180)"/><path class="cls-2" d="M33.49,151.66H42a0,0,0,0,1,0,0v6.69a0,0,0,0,1,0,0H33.49a.85.85,0,0,1-.85-.85v-5A.85.85,0,0,1,33.49,151.66Z"/><path class="cls-2" d="M226.57,158.75H235a0,0,0,0,1,0,0v6.69a0,0,0,0,1,0,0h-8.48a.85.85,0,0,1-.85-.85v-5A.85.85,0,0,1,226.57,158.75Z" transform="translate(305.83 296.91) rotate(180)"/><path class="cls-2" d="M33.49,131.47H42a0,0,0,0,1,0,0v6.69a0,0,0,0,1,0,0H33.49a.85.85,0,0,1-.85-.85v-5A.85.85,0,0,1,33.49,131.47Z"/><rect class="cls-3" x="41.97" y="128.04" width="28.81" height="61.26" rx="1.51" ry="1.51"/><path class="cls-4" d="M214.8,216.59l2.33-10.32-4.9-5.81H196.91v11.05a5,5,0,0,0,5.07,5.07l4.36-4,1.19,4Z" transform="translate(-154.94 -27.28)"/><rect class="cls-5" width="112.74" height="189.3" rx="5.67" ry="5.67"/><circle class="cls-6" cx="13.35" cy="176.49" r="8.19"/><circle class="cls-6" cx="99.61" cy="176.49" r="8.19"/><rect class="cls-7" x="49.59" y="26.83" width="16.77" height="6.17"/><rect class="cls-7" x="49.59" y="57.99" width="16.77" height="6.17"/><rect class="cls-7" x="220.12" y="69.69" width="16.77" height="6.17" transform="translate(146.33 -183.01) rotate(90)"/><rect class="cls-8" x="57.21" y="38.81" width="2.13" height="15.07"/><rect class="cls-8" x="62.3" y="38.81" width="2.13" height="15.07"/><path class="cls-9" d="M189.86,86.47" transform="translate(-154.94 -27.28)"/><path class="cls-9" d="M189.86,176.39" transform="translate(-154.94 -27.28)"/><rect class="cls-8" x="52.11" y="38.81" width="2.13" height="15.07"/><rect class="cls-10" x="50.38" y="40.06" width="15.99" height="11.76"/><rect class="cls-7" x="188.96" y="69.69" width="16.77" height="6.17" transform="translate(115.17 -151.85) rotate(90)"/><text class="cls-11" transform="translate(97.92 25.88) rotate(90)">Color Sensor</text></svg>