<svg id="图层_1" data-name="图层 1" xmlns="http://www.w3.org/2000/svg" viewBox="0 0 129.57 47.94"><defs><style>.cls-1{fill:#1c1d1d;}.cls-2{fill:#a5a5a5;}.cls-3{fill:#272828;}.cls-4{fill:#d5a52c;}.cls-5{fill:#3f3f3f;}.cls-6,.cls-8{fill:#fff;}.cls-6{stroke:#d5a52c;}.cls-6,.cls-7{stroke-miterlimit:10;}.cls-7{fill:#323333;stroke:#fff;}</style></defs><title>数码管</title><rect class="cls-1" x="533.16" y="415.87" width="5.77" height="9.83" rx="0.62" ry="0.62" transform="translate(425.72 -512.07) rotate(90)"/><path class="cls-2" d="M538.87,427.48H542a0,0,0,0,1,0,0v2.84a0,0,0,0,1,0,0h-3.12a.85.85,0,0,1-.85-.85v-1.14A.85.85,0,0,1,538.87,427.48Z" transform="translate(-420.02 572.08) rotate(-90)"/><path class="cls-2" d="M538.87,411.26H542a0,0,0,0,1,0,0v2.84a0,0,0,0,1,0,0h-3.12a.85.85,0,0,1-.85-.85v-1.14A.85.85,0,0,1,538.87,411.26Z" transform="translate(421.57 -524.14) rotate(90)"/><path class="cls-2" d="M547.45,427.48h3.12a0,0,0,0,1,0,0v2.84a0,0,0,0,1,0,0h-3.12a.85.85,0,0,1-.85-.85v-1.14A.85.85,0,0,1,547.45,427.48Z" transform="translate(-411.43 580.66) rotate(-90)"/><path class="cls-2" d="M547.45,411.26h3.12a0,0,0,0,1,0,0v2.84a0,0,0,0,1,0,0h-3.12a.85.85,0,0,1-.85-.85v-1.14A.85.85,0,0,1,547.45,411.26Z" transform="translate(430.15 -532.72) rotate(90)"/><path class="cls-2" d="M556,427.48h3.12a0,0,0,0,1,0,0v2.84a0,0,0,0,1,0,0H556a.85.85,0,0,1-.85-.85v-1.14A.85.85,0,0,1,556,427.48Z" transform="translate(-402.85 589.25) rotate(-90)"/><path class="cls-2" d="M556,411.26h3.12a0,0,0,0,1,0,0v2.84a0,0,0,0,1,0,0H556a.85.85,0,0,1-.85-.85v-1.14A.85.85,0,0,1,556,411.26Z" transform="translate(438.73 -541.3) rotate(90)"/><rect class="cls-3" x="540.9" y="407.77" width="12.25" height="26.05" rx="1.51" ry="1.51" transform="translate(436.7 -523.05) rotate(90)"/><path class="cls-4" d="M534,422.27l4.39,1,2.47-2.08v-6.51h-4.7a2.13,2.13,0,0,0-2.16,2.16l1.72,1.85-1.72.51Z" transform="translate(-531.12 -396.82)"/><rect class="cls-1" x="533.15" y="415.87" width="5.77" height="9.83" rx="0.62" ry="0.62" transform="translate(425.71 -512.06) rotate(90)"/><path class="cls-2" d="M538.85,427.48H542a0,0,0,0,1,0,0v2.84a0,0,0,0,1,0,0h-3.12a.85.85,0,0,1-.85-.85v-1.14A.85.85,0,0,1,538.85,427.48Z" transform="translate(-420.03 572.07) rotate(-90)"/><path class="cls-2" d="M538.85,411.26H542a0,0,0,0,1,0,0v2.84a0,0,0,0,1,0,0h-3.12a.85.85,0,0,1-.85-.85v-1.14A.85.85,0,0,1,538.85,411.26Z" transform="translate(421.55 -524.12) rotate(90)"/><path class="cls-2" d="M547.44,427.48h3.12a0,0,0,0,1,0,0v2.84a0,0,0,0,1,0,0h-3.12a.85.85,0,0,1-.85-.85v-1.14A.85.85,0,0,1,547.44,427.48Z" transform="translate(-411.45 580.65) rotate(-90)"/><path class="cls-2" d="M547.44,411.26h3.12a0,0,0,0,1,0,0v2.84a0,0,0,0,1,0,0h-3.12a.85.85,0,0,1-.85-.85v-1.14A.85.85,0,0,1,547.44,411.26Z" transform="translate(430.14 -532.71) rotate(90)"/><path class="cls-2" d="M556,427.48h3.12a0,0,0,0,1,0,0v2.84a0,0,0,0,1,0,0H556a.85.85,0,0,1-.85-.85v-1.14A.85.85,0,0,1,556,427.48Z" transform="translate(-402.86 589.23) rotate(-90)"/><path class="cls-2" d="M556,411.26h3.12a0,0,0,0,1,0,0v2.84a0,0,0,0,1,0,0H556a.85.85,0,0,1-.85-.85v-1.14A.85.85,0,0,1,556,411.26Z" transform="translate(438.72 -541.29) rotate(90)"/><rect class="cls-3" x="540.88" y="407.77" width="12.25" height="26.05" rx="1.51" ry="1.51" transform="translate(436.68 -523.04) rotate(90)"/><path class="cls-4" d="M534,422.27l4.39,1,2.47-2.08v-6.51h-4.7a2.13,2.13,0,0,0-2.16,2.16l1.72,1.85-1.72.51Z" transform="translate(-531.12 -396.82)"/><rect class="cls-5" x="573.36" y="357.44" width="47.94" height="126.71" rx="5.67" ry="5.67" transform="translate(487.01 -573.36) rotate(90)"/><circle class="cls-6" cx="8.31" cy="5.68" r="3.48"/><circle class="cls-6" cx="8.31" cy="42.36" r="3.48"/><circle class="cls-6" cx="123.65" cy="5.63" r="3.48"/><circle class="cls-6" cx="123.65" cy="42.31" r="3.48"/><rect class="cls-7" x="20.07" y="5.68" width="94.5" height="36.64"/><path class="cls-8" d="M555.73,407" transform="translate(-531.12 -396.82)"/><path class="cls-8" d="M571.43,407" transform="translate(-531.12 -396.82)"/><polygon class="cls-8" points="39.29 11.46 27.63 11.46 26.78 10.42 27.63 9.38 39.29 9.38 40.14 10.58 39.29 11.46"/><polygon class="cls-8" points="37.73 25.71 26.07 25.71 25.22 24.67 26.07 23.64 37.73 23.64 38.58 24.83 37.73 25.71"/><polygon class="cls-8" points="36.26 38.71 24.6 38.71 23.75 37.67 24.6 36.63 36.26 36.63 37.11 37.83 36.26 38.71"/><polygon class="cls-8" points="26.71 11.41 25.27 23.37 24.39 24.11 23.73 23.11 25.16 11.15 26.16 10.42 26.71 11.41"/><polygon class="cls-8" points="41.63 12.21 40.2 24.17 39.32 24.92 38.65 23.91 40.09 11.95 41.08 11.22 41.63 12.21"/><polygon class="cls-8" points="25.22 25.44 23.78 37.41 22.9 38.15 22.23 37.15 23.67 25.19 24.66 24.46 25.22 25.44"/><polygon class="cls-8" points="40.14 26.25 38.71 38.21 37.83 38.95 37.16 37.95 38.59 25.99 39.59 25.26 40.14 26.25"/><circle class="cls-8" cx="42.57" cy="37.84" r="1.52"/><polygon class="cls-8" points="62.47 11.46 50.8 11.46 49.95 10.42 50.8 9.38 62.47 9.38 63.32 10.58 62.47 11.46"/><polygon class="cls-8" points="60.9 25.71 49.24 25.71 48.39 24.67 49.24 23.64 60.9 23.64 61.76 24.83 60.9 25.71"/><polygon class="cls-8" points="59.44 38.71 47.78 38.71 46.92 37.67 47.78 36.63 59.44 36.63 60.29 37.83 59.44 38.71"/><polygon class="cls-8" points="49.88 11.41 48.45 23.37 47.57 24.11 46.9 23.11 48.34 11.15 49.33 10.42 49.88 11.41"/><polygon class="cls-8" points="64.81 12.21 63.37 24.17 62.49 24.92 61.83 23.91 63.26 11.95 64.25 11.22 64.81 12.21"/><polygon class="cls-8" points="48.39 25.44 46.96 37.41 46.08 38.15 45.41 37.15 46.84 25.19 47.84 24.46 48.39 25.44"/><polygon class="cls-8" points="63.32 26.25 61.88 38.21 61 38.95 60.34 37.95 61.77 25.99 62.76 25.26 63.32 26.25"/><circle class="cls-8" cx="65.75" cy="37.84" r="1.52"/><polygon class="cls-8" points="85.64 11.46 73.98 11.46 73.13 10.42 73.98 9.38 85.64 9.38 86.49 10.58 85.64 11.46"/><polygon class="cls-8" points="84.08 25.71 72.42 25.71 71.57 24.67 72.42 23.64 84.08 23.64 84.93 24.83 84.08 25.71"/><polygon class="cls-8" points="82.61 38.71 70.95 38.71 70.1 37.67 70.95 36.63 82.61 36.63 83.46 37.83 82.61 38.71"/><polygon class="cls-8" points="73.06 11.41 71.62 23.37 70.74 24.11 70.08 23.11 71.51 11.15 72.5 10.42 73.06 11.41"/><polygon class="cls-8" points="87.98 12.21 86.55 24.17 85.67 24.92 85 23.91 86.44 11.95 87.43 11.22 87.98 12.21"/><polygon class="cls-8" points="71.57 25.44 70.13 37.41 69.25 38.15 68.58 37.15 70.02 25.19 71.01 24.46 71.57 25.44"/><polygon class="cls-8" points="86.49 26.25 85.06 38.21 84.18 38.95 83.51 37.95 84.94 25.99 85.94 25.26 86.49 26.25"/><circle class="cls-8" cx="88.92" cy="37.84" r="1.52"/><polygon class="cls-8" points="108.81 11.46 97.16 11.46 96.3 10.42 97.16 9.38 108.81 9.38 109.67 10.58 108.81 11.46"/><polygon class="cls-8" points="107.25 25.71 95.59 25.71 94.74 24.67 95.59 23.64 107.25 23.64 108.11 24.83 107.25 25.71"/><polygon class="cls-8" points="105.79 38.71 94.13 38.71 93.28 37.67 94.13 36.63 105.79 36.63 106.64 37.83 105.79 38.71"/><polygon class="cls-8" points="96.23 11.41 94.8 23.37 93.92 24.11 93.25 23.11 94.69 11.15 95.68 10.42 96.23 11.41"/><polygon class="cls-8" points="111.16 12.21 109.72 24.17 108.84 24.92 108.18 23.91 109.61 11.95 110.61 11.22 111.16 12.21"/><polygon class="cls-8" points="94.74 25.44 93.31 37.41 92.43 38.15 91.76 37.15 93.19 25.19 94.19 24.46 94.74 25.44"/><polygon class="cls-8" points="109.67 26.25 108.23 38.21 107.35 38.95 106.69 37.95 108.12 25.99 109.11 25.26 109.67 26.25"/><circle class="cls-8" cx="112.1" cy="37.84" r="1.52"/></svg>