<?xml version="1.0" encoding="utf-8"?>
<!-- Generator: Adobe Illustrator 21.0.0, SVG Export Plug-In . SVG Version: 6.00 Build 0)  -->
<svg version="1.1" id="图层_1" xmlns="http://www.w3.org/2000/svg" xmlns:xlink="http://www.w3.org/1999/xlink" x="0px" y="0px"
	 viewBox="0 0 208.9 163.9" style="enable-background:new 0 0 208.9 163.9;" xml:space="preserve">
<style type="text/css">
	.st0{fill:#3F3F3F;}
	.st1{fill:#FFFFFF;stroke:#D5A52C;stroke-width:1.24;stroke-miterlimit:10;}
	.st2{fill:#BBBABA;}
	.st3{fill:#686868;}
	.st4{fill:#E2E2E1;}
	.st5{fill:#2F3030;}
	.st6{fill:#A3A3A3;}
	.st7{fill:none;stroke:#848484;stroke-width:1.24;stroke-linecap:round;stroke-miterlimit:10;}
	.st8{fill:#8E3434;}
	.st9{fill:#A23130;}
	.st10{fill:#912525;}
	.st11{fill:#1C1D1D;}
	.st12{fill:#272828;}
	.st13{fill:#D5A52C;}
	.st14{fill:#FFFFFF;}
	.st15{font-family:'MicrosoftYaHeiLight';}
	.st16{font-size:3.71px;}
</style>
<title>未标题-8</title>
<path class="st0" d="M147.1,159.5H61.9c-3.1,0-5.7-2.5-5.7-5.7V55.7c0-3.1,2.5-5.7,5.7-5.7h85.2c3.1,0,5.7,2.5,5.7,5.7v98.1
	C152.8,156.9,150.2,159.5,147.1,159.5z"/>
<circle class="st1" cx="143.6" cy="148.7" r="4.3"/>
<circle class="st1" cx="63.9" cy="148.7" r="4.3"/>
<path class="st2" d="M125.6,50H82.8c-1.7,0-3.1-1.4-3.1-3.1v-1.5c0-1.7,1.4-3.1,3.1-3.1h42.7c1.7,0,3.1,1.4,3.1,3.1v1.5
	C128.6,48.6,127.3,50,125.6,50z"/>
<path class="st2" d="M135.7,81.4c8.5-0.1,15.2-7.1,15.1-15.6c-0.1-8.5-7.1-15.2-15.6-15.1c-8.4,0.1-15.1,7-15.1,15.3
	C120.2,74.7,127.1,81.5,135.7,81.4C135.7,81.4,135.7,81.4,135.7,81.4z M132.4,61.1l8-4.6l8,4.6v9.3l-8,4.6l-8-4.6V61.1z"/>
<path class="st2" d="M73.7,81.1C82.2,80.9,89,74,88.8,65.5c-0.1-8.5-7.1-15.2-15.6-15.1c-8.4,0.1-15.1,7-15.1,15.3
	C58.2,74.3,65.2,81.2,73.7,81.1C73.7,81.1,73.7,81.1,73.7,81.1z M69.7,56.5l8,4.6v9.3l-8,4.6l-8-4.6v-9.3L69.7,56.5z"/>
<path class="st3" d="M140.6,73.5c4.3,0,7.8-3.5,7.8-7.8c0-4.3-3.5-7.8-7.8-7.8c-4.3,0-7.8,3.5-7.8,7.8S136.3,73.5,140.6,73.5
	L140.6,73.5z M140.6,61.6c2.2,0,4.1,1.9,4,4.1c0,2.2-1.9,4.1-4.1,4c-2.2,0-4-1.8-4-4.1C136.5,63.5,138.3,61.6,140.6,61.6
	C140.6,61.6,140.6,61.6,140.6,61.6z"/>
<circle class="st4" cx="140.6" cy="65.7" r="3.7"/>
<path class="st3" d="M69.7,73.5c4.3,0,7.8-3.5,7.8-7.8c0-4.3-3.5-7.8-7.8-7.8c-4.3,0-7.8,3.5-7.8,7.8S65.4,73.5,69.7,73.5L69.7,73.5
	z M69.7,61.6c2.2,0,4.1,1.8,4.1,4.1c0,2.2-1.8,4.1-4.1,4.1c-2.2,0-4.1-1.8-4.1-4.1C65.7,63.5,67.5,61.6,69.7,61.6L69.7,61.6z"/>
<circle class="st4" cx="69.7" cy="65.7" r="3.7"/>
<path class="st5" d="M119.8,98.1H87.8c-1.5,0-2.8-1.2-2.8-2.8V94c0-1.5,1.2-2.8,2.8-2.8h32.1c1.5,0,2.8,1.2,2.8,2.8v1.3
	C122.6,96.8,121.4,98.1,119.8,98.1z"/>
<path class="st6" d="M125.5,94.7H82.9c-2.4,0-4.3-1.9-4.3-4.3V50l0,0h51.2l0,0v40.4C129.8,92.8,127.9,94.7,125.5,94.7z"/>
<path class="st5" d="M109.4,101.1H97.8c-0.6,0-1-0.4-1-1v-4.4l0,0h13.6l0,0v4.5C110.3,100.7,109.9,101.1,109.4,101.1z"/>
<line class="st7" x1="104.9" y1="41.2" x2="104.9" y2="17.8"/>
<rect x="92.9" y="38.3" class="st2" width="23.5" height="6"/>
<rect x="97.2" y="16.5" class="st8" width="10.9" height="16.3"/>
<path class="st9" d="M105.9,11.3l98.5,12.8c2.6,0.3,4.6,2.6,4.6,5.2v3.9c0,2.6-2.1,4.8-4.8,4.8c-0.2,0-0.4,0-0.6,0l-97.6-12.7V11.3z
	"/>
<polygon class="st10" points="168.5,33.4 105.9,11.3 105.9,25.2 "/>
<path class="st9" d="M5.2,13.9l94.3,13V12.9L5.8,0.1C3-0.3,0.4,1.6,0.1,4.4c0,0.2,0,0.5,0,0.7V8C0,11,2.2,13.5,5.2,13.9z"/>
<path class="st10" d="M49.7,20L4.5,1.1C2.9,0.4,1,1.2,0.3,2.9C0.1,3.3,0,3.7,0,4.1v4.2c0,2.8,2.1,5.2,4.8,5.5L49.7,20z"/>
<rect x="91.6" y="150.6" class="st6" width="25.7" height="6.4"/>
<rect x="91.6" y="139.6" class="st6" width="25.7" height="6.4"/>
<rect x="91.6" y="128.7" class="st6" width="25.7" height="6.4"/>
<path class="st11" d="M101.6,150.4h6.7c0.3,0,0.6,0.3,0.6,0.6v12.3c0,0.3-0.3,0.6-0.6,0.6h-6.7c-0.3,0-0.6-0.3-0.6-0.6V151
	C101,150.7,101.3,150.4,101.6,150.4z"/>
<path class="st12" d="M98.4,124.2h13.2c1,0,1.8,0.8,1.8,1.8v32.1c0,1-0.8,1.8-1.8,1.8H98.4c-1,0-1.8-0.8-1.8-1.8V126
	C96.6,125,97.4,124.2,98.4,124.2z"/>
<path class="st13" d="M107,160l1.4-6l-2.9-3.4h-8.9v6.4c0,1.6,1.2,3,2.9,3c0,0,0.1,0,0.1,0l2.5-2.4l0.7,2.4L107,160z"/>
<text transform="matrix(1 0 0 1 85.0196 145.9981)" class="st14 st15 st16">INA</text>
<text transform="matrix(1 0 0 1 119.1797 145.9981)" class="st14 st15 st16">INB</text>
<text transform="matrix(1 0 0 1 119.1797 156.9396)" class="st14 st15 st16">V</text>
<text transform="matrix(1 0 0 1 121.4697 156.9396)" class="st14 st15 st16">C</text>
<text transform="matrix(1 0 0 1 123.7998 156.9396)" class="st14 st15 st16">C</text>
<text transform="matrix(1 0 0 1 82.6905 156.9396)" class="st14 st15 st16">GND</text>
</svg>
