<svg id="图层_1" data-name="图层 1" xmlns="http://www.w3.org/2000/svg" viewBox="0 0 66 123.12"><defs><style>.cls-1{fill:#3f3f3f;}.cls-2{fill:#fff;stroke:#d5a52c;}.cls-2,.cls-8{stroke-miterlimit:10;}.cls-3{fill:#1c1d1d;}.cls-4{fill:#a5a5a5;}.cls-5{fill:#272828;}.cls-10,.cls-6{fill:#d5a52c;}.cls-7{fill:#b98a22;}.cls-8{fill:none;stroke:#040000;stroke-linecap:round;}.cls-9{fill:#040000;}.cls-10{font-size:4.65px;font-family:MicrosoftYaHei, Microsoft YaHei;}</style></defs><title>火焰传感器</title><path class="cls-1" d="M71.75,27.82V42.47H46.61V27.82H33a5.69,5.69,0,0,0-5.67,5.67V130A5.69,5.69,0,0,0,33,135.7H87.67A5.69,5.69,0,0,0,93.33,130V33.49c0-2.85-3.83-5.22-6.84-5.61C86.24,27.84,72,27.83,71.75,27.82Z" transform="translate(-27.33 -16.53)"/><circle class="cls-2" cx="6.65" cy="113.86" r="3.48"/><circle class="cls-2" cx="59.32" cy="113.86" r="3.48"/><rect class="cls-3" x="28.87" y="109.67" width="7.89" height="13.45" rx="0.62" ry="0.62"/><path class="cls-4" d="M69.38,125.58H74a0,0,0,0,1,0,0v3.89a0,0,0,0,1,0,0H69.38a.85.85,0,0,1-.85-.85v-2.19A.85.85,0,0,1,69.38,125.58Z" transform="translate(115.14 238.51) rotate(180)"/><path class="cls-4" d="M19.86,109h4.57a0,0,0,0,1,0,0v3.89a0,0,0,0,1,0,0H19.86a.85.85,0,0,1-.85-.85V109.9A.85.85,0,0,1,19.86,109Z"/><path class="cls-4" d="M69.38,113.84H74a0,0,0,0,1,0,0v3.89a0,0,0,0,1,0,0H69.38a.85.85,0,0,1-.85-.85v-2.19A.85.85,0,0,1,69.38,113.84Z" transform="translate(115.14 215.03) rotate(180)"/><path class="cls-4" d="M19.86,97.31h4.57a0,0,0,0,1,0,0v3.89a0,0,0,0,1,0,0H19.86a.85.85,0,0,1-.85-.85V98.16A.85.85,0,0,1,19.86,97.31Z"/><path class="cls-4" d="M69.38,102.1H74a0,0,0,0,1,0,0V106a0,0,0,0,1,0,0H69.38a.85.85,0,0,1-.85-.85v-2.19A.85.85,0,0,1,69.38,102.1Z" transform="translate(115.14 191.55) rotate(180)"/><path class="cls-4" d="M19.86,85.56h4.57a0,0,0,0,1,0,0v3.89a0,0,0,0,1,0,0H19.86A.85.85,0,0,1,19,88.6V86.41A.85.85,0,0,1,19.86,85.56Z"/><rect class="cls-5" x="24.43" y="83.57" width="16.76" height="35.63" rx="1.51" ry="1.51"/><path class="cls-6" d="M62.17,135.74l1.36-6-2.85-3.38H51.77v6.43a2.92,2.92,0,0,0,3,3l2.53-2.35.69,2.35Z" transform="translate(-27.33 -16.53)"/><polygon class="cls-7" points="34.84 119.21 34.23 121.48 31.41 121.48 30.61 119.21 34.84 119.21"/><line class="cls-8" x1="33.81" y1="23.55" x2="34.04" y2="36.52"/><line class="cls-8" x1="27.23" y1="23.55" x2="27.46" y2="36.52"/><path class="cls-9" d="M64.22,40.77V22.07h-.06a6.13,6.13,0,0,0-12.2,0h0v18.7Z" transform="translate(-27.33 -16.53)"/><rect class="cls-9" x="22.5" y="23.55" width="16.5" height="2.3"/><text class="cls-10" transform="translate(55.83 37.19) rotate(90)">Flame sensor</text></svg>