<svg id="图层_1" data-name="图层 1" xmlns="http://www.w3.org/2000/svg" xmlns:xlink="http://www.w3.org/1999/xlink" viewBox="0 0 45.74 112.82"><defs><style>.cls-1,.cls-11,.cls-12,.cls-13{fill:none;}.cls-2{fill:#3f3f3f;}.cls-3{fill:#1c1d1d;}.cls-4{fill:#a5a5a5;}.cls-5{fill:#272828;}.cls-19,.cls-6{fill:#d5a52c;}.cls-7{fill:#b98a22;}.cls-8{fill:#dbdbdd;}.cls-9{fill:#b7b7b7;}.cls-10{fill:#969696;}.cls-11{stroke:#494949;stroke-width:0.1px;}.cls-11,.cls-12,.cls-13{stroke-miterlimit:10;}.cls-12{stroke:#969696;stroke-width:0.5px;}.cls-13{stroke:#fff;stroke-linecap:round;stroke-width:0.75px;}.cls-13,.cls-14{opacity:0.5;}.cls-14{fill:#fff;}.cls-15{fill:#1f91c7;}.cls-16{fill:#afafaf;}.cls-17{clip-path:url(#clip-path);}.cls-18{fill:#7c7b7c;}.cls-19{font-size:3px;font-family:MicrosoftYaHei, Microsoft YaHei;}</style><clipPath id="clip-path" transform="translate(-40.25 -12.8)"><circle class="cls-1" cx="63.12" cy="75.54" r="4.05"/></clipPath></defs><title>MQ5</title><rect class="cls-2" width="45.74" height="110" rx="5.67" ry="5.67"/><rect class="cls-3" x="19.99" y="102.99" width="5.77" height="9.83" rx="0.62" ry="0.62"/><path class="cls-4" d="M70.1,115.33h3.12a0,0,0,0,1,0,0v2.84a0,0,0,0,1,0,0H70.1a.85.85,0,0,1-.85-.85v-1.14A.85.85,0,0,1,70.1,115.33Z" transform="translate(102.21 220.7) rotate(180)"/><path class="cls-4" d="M13.63,102.53h3.12a0,0,0,0,1,0,0v2.84a0,0,0,0,1,0,0H13.63a.85.85,0,0,1-.85-.85v-1.14A.85.85,0,0,1,13.63,102.53Z"/><path class="cls-4" d="M70.1,106.75h3.12a0,0,0,0,1,0,0v2.84a0,0,0,0,1,0,0H70.1a.85.85,0,0,1-.85-.85V107.6A.85.85,0,0,1,70.1,106.75Z" transform="translate(102.21 203.54) rotate(180)"/><path class="cls-4" d="M13.63,93.95h3.12a0,0,0,0,1,0,0v2.84a0,0,0,0,1,0,0H13.63a.85.85,0,0,1-.85-.85V94.8A.85.85,0,0,1,13.63,93.95Z"/><path class="cls-4" d="M70.1,98.16h3.12a0,0,0,0,1,0,0V101a0,0,0,0,1,0,0H70.1a.85.85,0,0,1-.85-.85V99A.85.85,0,0,1,70.1,98.16Z" transform="translate(102.21 186.37) rotate(180)"/><path class="cls-4" d="M13.63,85.36h3.12a0,0,0,0,1,0,0v2.84a0,0,0,0,1,0,0H13.63a.85.85,0,0,1-.85-.85V86.21A.85.85,0,0,1,13.63,85.36Z"/><rect class="cls-5" x="16.74" y="83.9" width="12.25" height="26.05" rx="1.51" ry="1.51"/><path class="cls-6" d="M64.6,122.76l1-4.39-2.08-2.47H57v4.7a2.13,2.13,0,0,0,2.16,2.16L61,121l.51,1.72Z" transform="translate(-40.25 -12.8)"/><polygon class="cls-7" points="24.35 109.96 23.91 111.62 21.85 111.62 21.26 109.96 24.35 109.96"/><circle class="cls-8" cx="22.92" cy="27.44" r="17.94"/><circle class="cls-9" cx="22.95" cy="27.44" r="14.37"/><circle class="cls-10" cx="63.17" cy="40.24" r="11.41" transform="translate(-50.2 43.65) rotate(-45)"/><line class="cls-11" x1="9.98" y1="32.72" x2="17.97" y2="40.71"/><line class="cls-11" x1="9.4" y1="31.05" x2="19.47" y2="41.12"/><line class="cls-11" x1="9.39" y1="29.95" x2="20.36" y2="40.92"/><line class="cls-11" x1="8.96" y1="28.44" x2="22.26" y2="41.74"/><line class="cls-11" x1="9.23" y1="27.61" x2="22.81" y2="41.19"/><line class="cls-11" x1="8.71" y1="26.01" x2="24.27" y2="41.56"/><line class="cls-11" x1="9.26" y1="25.46" x2="24.81" y2="41.02"/><line class="cls-11" x1="9.13" y1="24.24" x2="26.08" y2="41.19"/><line class="cls-11" x1="9.67" y1="23.7" x2="26.62" y2="40.65"/><line class="cls-11" x1="9.76" y1="22.7" x2="27.75" y2="40.69"/><line class="cls-11" x1="10.3" y1="22.15" x2="28.3" y2="40.15"/><line class="cls-11" x1="10.41" y1="21.17" x2="29.27" y2="40.03"/><line class="cls-11" x1="10.96" y1="20.63" x2="29.81" y2="39.48"/><line class="cls-11" x1="11.27" y1="19.85" x2="30.51" y2="39.09"/><line class="cls-11" x1="11.82" y1="19.31" x2="31.05" y2="38.54"/><line class="cls-11" x1="12.07" y1="18.47" x2="31.97" y2="38.37"/><line class="cls-11" x1="12.61" y1="17.93" x2="32.52" y2="37.83"/><line class="cls-11" x1="13.29" y1="17.51" x2="32.83" y2="37.05"/><line class="cls-11" x1="13.83" y1="16.97" x2="33.38" y2="36.51"/><line class="cls-11" x1="14.38" y1="16.42" x2="33.78" y2="35.82"/><line class="cls-11" x1="14.92" y1="15.88" x2="34.32" y2="35.28"/><line class="cls-11" x1="15.63" y1="15.5" x2="34.86" y2="34.73"/><line class="cls-11" x1="16.17" y1="14.95" x2="35.41" y2="34.19"/><line class="cls-11" x1="17.18" y1="14.86" x2="35.54" y2="33.23"/><line class="cls-11" x1="17.72" y1="14.32" x2="36.09" y2="32.69"/><line class="cls-11" x1="18.76" y1="14.27" x2="36.14" y2="31.65"/><line class="cls-11" x1="19.3" y1="13.72" x2="36.69" y2="31.11"/><line class="cls-11" x1="20.57" y1="13.9" x2="36.61" y2="29.94"/><line class="cls-11" x1="21.11" y1="13.35" x2="37.16" y2="29.4"/><line class="cls-11" x1="22.41" y1="13.56" x2="36.72" y2="27.87"/><line class="cls-11" x1="23.18" y1="13.24" x2="37.26" y2="27.33"/><line class="cls-11" x1="24.48" y1="13.45" x2="37.06" y2="26.03"/><line class="cls-11" x1="25.92" y1="13.8" x2="36.74" y2="24.62"/><line class="cls-11" x1="27.72" y1="14.52" x2="35.95" y2="22.74"/><line class="cls-11" x1="28.5" y1="14.2" x2="36.26" y2="21.97"/><line class="cls-11" x1="17.59" y1="14.4" x2="9.59" y2="22.4"/><line class="cls-11" x1="19.25" y1="13.82" x2="9.18" y2="23.9"/><line class="cls-11" x1="20.36" y1="13.81" x2="9.38" y2="24.78"/><line class="cls-11" x1="21.87" y1="13.39" x2="8.57" y2="26.69"/><line class="cls-11" x1="22.69" y1="13.65" x2="9.11" y2="27.23"/><line class="cls-11" x1="24.3" y1="13.14" x2="8.74" y2="28.69"/><line class="cls-11" x1="24.84" y1="13.68" x2="9.29" y2="29.24"/><line class="cls-11" x1="26.06" y1="13.55" x2="9.11" y2="30.5"/><line class="cls-11" x1="26.61" y1="14.1" x2="9.66" y2="31.05"/><line class="cls-11" x1="27.61" y1="14.18" x2="9.61" y2="32.18"/><line class="cls-11" x1="28.15" y1="14.73" x2="10.16" y2="32.72"/><line class="cls-11" x1="29.13" y1="14.84" x2="10.28" y2="33.69"/><line class="cls-11" x1="29.68" y1="15.38" x2="10.82" y2="34.24"/><line class="cls-11" x1="30.45" y1="15.7" x2="11.22" y2="34.93"/><line class="cls-11" x1="31" y1="16.24" x2="11.76" y2="35.48"/><line class="cls-11" x1="31.83" y1="16.49" x2="11.93" y2="36.4"/><line class="cls-11" x1="32.38" y1="17.04" x2="12.48" y2="36.94"/><line class="cls-11" x1="32.79" y1="17.71" x2="13.25" y2="37.26"/><line class="cls-11" x1="33.34" y1="18.26" x2="13.8" y2="37.8"/><line class="cls-11" x1="33.88" y1="18.8" x2="14.48" y2="38.2"/><line class="cls-11" x1="34.43" y1="19.35" x2="15.03" y2="38.75"/><line class="cls-11" x1="34.81" y1="20.05" x2="15.57" y2="39.29"/><line class="cls-11" x1="35.35" y1="20.6" x2="16.12" y2="39.83"/><line class="cls-11" x1="35.44" y1="21.6" x2="17.07" y2="39.97"/><line class="cls-11" x1="35.98" y1="22.15" x2="17.62" y2="40.51"/><line class="cls-11" x1="36.04" y1="23.18" x2="18.65" y2="40.57"/><line class="cls-11" x1="36.58" y1="23.73" x2="19.2" y2="41.11"/><line class="cls-11" x1="36.41" y1="24.99" x2="20.36" y2="41.04"/><line class="cls-11" x1="36.95" y1="25.54" x2="20.91" y2="41.58"/><line class="cls-11" x1="36.75" y1="26.83" x2="22.43" y2="41.15"/><line class="cls-11" x1="37.06" y1="27.61" x2="22.98" y2="41.69"/><line class="cls-11" x1="36.86" y1="28.9" x2="24.27" y2="41.48"/><line class="cls-11" x1="36.5" y1="30.34" x2="25.69" y2="41.16"/><line class="cls-11" x1="35.79" y1="32.15" x2="27.56" y2="40.37"/><line class="cls-11" x1="36.1" y1="32.92" x2="28.34" y2="40.69"/><circle class="cls-12" cx="22.98" cy="27.44" r="14.54"/><path class="cls-13" d="M77.79,47.31a11.86,11.86,0,0,1-6.43,7.25" transform="translate(-40.25 -12.8)"/><circle class="cls-14" cx="29.23" cy="42.55" r="0.64"/><rect class="cls-15" x="15.97" y="55.85" width="13.8" height="13.8"/><circle class="cls-16" cx="22.87" cy="62.75" r="4.05"/><g class="cls-17"><path class="cls-18" d="M66.93,75.11H63.56V71.73a.44.44,0,0,0-.87,0v3.38H59.31a.44.44,0,0,0,0,.88h3.38v3.38a.44.44,0,0,0,.88,0V76h3.38a.44.44,0,0,0,0-.87Z" transform="translate(-40.25 -12.8)"/></g><text class="cls-19" transform="translate(40.23 46.74) rotate(90)">GAS Sensor</text></svg>