<svg id="图层_1" data-name="图层 1" xmlns="http://www.w3.org/2000/svg" viewBox="0 0 71.23 97.8"><defs><style>.cls-1{fill:#1c1d1d;}.cls-2{fill:#a5a5a5;}.cls-3{fill:#272828;}.cls-12,.cls-4{fill:#d5a52c;}.cls-5{fill:#3f3f3f;}.cls-6{fill:#fff;stroke:#d5a52c;stroke-miterlimit:10;}.cls-7{fill:#b98a22;}.cls-8{fill:#21222a;}.cls-9{fill:#262833;}.cls-10{fill:#040000;}.cls-11{fill:#192a83;opacity:0.6;}.cls-12{font-size:3px;font-family:MicrosoftYaHei, Microsoft YaHei;}</style></defs><title>巡线传感器</title><rect class="cls-1" x="31.33" y="83.18" width="8.57" height="14.61" rx="0.62" ry="0.62"/><path class="cls-2" d="M89.78,69.34h5a0,0,0,0,1,0,0v4.22a0,0,0,0,1,0,0h-5a.85.85,0,0,1-.85-.85V70.19A.85.85,0,0,1,89.78,69.34Z" transform="translate(139.54 156.07) rotate(180)"/><path class="cls-2" d="M21.47,82.51h5a0,0,0,0,1,0,0v4.22a0,0,0,0,1,0,0h-5a.85.85,0,0,1-.85-.85V83.36A.85.85,0,0,1,21.47,82.51Z"/><path class="cls-2" d="M89.78,56.59h5a0,0,0,0,1,0,0v4.22a0,0,0,0,1,0,0h-5a.85.85,0,0,1-.85-.85V57.44A.85.85,0,0,1,89.78,56.59Z" transform="translate(139.54 130.57) rotate(180)"/><path class="cls-2" d="M21.47,69.75h5a0,0,0,0,1,0,0V74a0,0,0,0,1,0,0h-5a.85.85,0,0,1-.85-.85V70.6A.85.85,0,0,1,21.47,69.75Z"/><path class="cls-2" d="M89.78,43.84h5a0,0,0,0,1,0,0v4.22a0,0,0,0,1,0,0h-5a.85.85,0,0,1-.85-.85V44.69A.85.85,0,0,1,89.78,43.84Z" transform="translate(139.54 105.06) rotate(180)"/><path class="cls-2" d="M21.47,57h5a0,0,0,0,1,0,0v4.22a0,0,0,0,1,0,0h-5a.85.85,0,0,1-.85-.85V57.85A.85.85,0,0,1,21.47,57Z"/><rect class="cls-3" x="26.51" y="54.83" width="18.2" height="38.7" rx="1.51" ry="1.51"/><path class="cls-4" d="M82,80.38l1.48-6.52-3.1-3.67H70.73v7a3.17,3.17,0,0,0,3.2,3.2l2.75-2.55.75,2.55Z" transform="translate(-44.21 13.16)"/><rect class="cls-5" width="71.23" height="93.54" rx="5.67" ry="5.67"/><circle class="cls-6" cx="8.43" cy="85.44" r="5.18"/><circle class="cls-6" cx="62.93" cy="85.44" r="5.18"/><rect class="cls-1" x="31.33" y="83.18" width="8.57" height="14.61" rx="0.62" ry="0.62"/><path class="cls-2" d="M89.78,69.34h5a0,0,0,0,1,0,0v4.22a0,0,0,0,1,0,0h-5a.85.85,0,0,1-.85-.85V70.19A.85.85,0,0,1,89.78,69.34Z" transform="translate(139.54 156.07) rotate(180)"/><path class="cls-2" d="M21.47,82.51h5a0,0,0,0,1,0,0v4.22a0,0,0,0,1,0,0h-5a.85.85,0,0,1-.85-.85V83.36A.85.85,0,0,1,21.47,82.51Z"/><path class="cls-2" d="M89.78,56.59h5a0,0,0,0,1,0,0v4.22a0,0,0,0,1,0,0h-5a.85.85,0,0,1-.85-.85V57.44A.85.85,0,0,1,89.78,56.59Z" transform="translate(139.54 130.57) rotate(180)"/><path class="cls-2" d="M21.47,69.75h5a0,0,0,0,1,0,0V74a0,0,0,0,1,0,0h-5a.85.85,0,0,1-.85-.85V70.6A.85.85,0,0,1,21.47,69.75Z"/><path class="cls-2" d="M89.78,43.84h5a0,0,0,0,1,0,0v4.22a0,0,0,0,1,0,0h-5a.85.85,0,0,1-.85-.85V44.69A.85.85,0,0,1,89.78,43.84Z" transform="translate(139.54 105.06) rotate(180)"/><path class="cls-2" d="M21.47,57h5a0,0,0,0,1,0,0v4.22a0,0,0,0,1,0,0h-5a.85.85,0,0,1-.85-.85V57.85A.85.85,0,0,1,21.47,57Z"/><rect class="cls-3" x="26.51" y="54.83" width="18.2" height="38.7" rx="1.51" ry="1.51"/><path class="cls-4" d="M82,80.38l1.48-6.52-3.1-3.67H70.73v7a3.17,3.17,0,0,0,3.2,3.2l2.75-2.55.75,2.55Z" transform="translate(-44.21 13.16)"/><polygon class="cls-7" points="37.81 93.54 37.16 96.01 34.1 96.01 33.22 93.54 37.81 93.54"/><rect class="cls-8" x="4.89" y="5.95" width="61.45" height="29.65" rx="7.55" ry="7.55"/><rect class="cls-9" x="11.5" y="11.33" width="48.23" height="18.9" rx="6.21" ry="6.21"/><circle class="cls-8" cx="20.95" cy="20.78" r="9.45"/><circle class="cls-10" cx="50.28" cy="20.78" r="6.29"/><circle class="cls-11" cx="50.28" cy="20.78" r="9.45"/><rect class="cls-10" x="34.31" y="11.33" width="3.49" height="18.9"/><text class="cls-12" transform="translate(66.34 35.21) rotate(90)">Grayscale Sensor</text></svg>