<svg id="图层_1" data-name="图层 1" xmlns="http://www.w3.org/2000/svg" xmlns:xlink="http://www.w3.org/1999/xlink" viewBox="0 0 47.94 83.37"><defs><style>.cls-1,.cls-9{fill:none;}.cls-15,.cls-2{fill:#1c1d1d;}.cls-3{fill:#a5a5a5;}.cls-4{fill:#272828;}.cls-5,.cls-8{fill:#d5a52c;}.cls-6{fill:#3f3f3f;}.cls-18,.cls-7{fill:#fff;}.cls-7{stroke:#d5a52c;}.cls-15,.cls-7,.cls-9{stroke-miterlimit:10;}.cls-8{font-size:3px;font-family:MicrosoftYaHei, Microsoft YaHei;}.cls-9{stroke:#fff;stroke-width:0.5px;}.cls-10{fill:#bcbcbc;}.cls-11{clip-path:url(#clip-path);}.cls-12{fill:#982929;}.cls-13{fill:#846e3b;}.cls-14{fill:#2f3030;}.cls-15{stroke:#7a7a78;stroke-width:0.25px;}.cls-16{fill:#e0e0e0;}.cls-17{fill:#9a9b9b;opacity:0.3;}</style><clipPath id="clip-path" transform="translate(-34.96 -11.27)"><path class="cls-1" d="M49.34,24.9H44.66c-1.82,0-3.3,1.75-3.3,3.91s1.48,3.91,3.3,3.91h4.69c1.82,0,3.3-1.75,3.3-3.91S51.16,24.9,49.34,24.9Z"/></clipPath></defs><title>颜色传感器</title><rect class="cls-2" x="21.09" y="73.53" width="5.77" height="9.83" rx="0.62" ry="0.62"/><path class="cls-3" d="M65.91,84.34H69a0,0,0,0,1,0,0v2.84a0,0,0,0,1,0,0H65.91a.85.85,0,0,1-.85-.85V85.19A.85.85,0,0,1,65.91,84.34Z" transform="translate(99.13 160.26) rotate(180)"/><path class="cls-3" d="M14.73,73.08h3.12a0,0,0,0,1,0,0v2.84a0,0,0,0,1,0,0H14.73a.85.85,0,0,1-.85-.85V73.93A.85.85,0,0,1,14.73,73.08Z"/><path class="cls-3" d="M65.91,75.76H69a0,0,0,0,1,0,0V78.6a0,0,0,0,1,0,0H65.91a.85.85,0,0,1-.85-.85V76.61A.85.85,0,0,1,65.91,75.76Z" transform="translate(99.13 143.09) rotate(180)"/><path class="cls-3" d="M14.73,64.49h3.12a0,0,0,0,1,0,0v2.84a0,0,0,0,1,0,0H14.73a.85.85,0,0,1-.85-.85V65.34A.85.85,0,0,1,14.73,64.49Z"/><path class="cls-3" d="M65.91,67.17H69a0,0,0,0,1,0,0V70a0,0,0,0,1,0,0H65.91a.85.85,0,0,1-.85-.85V68A.85.85,0,0,1,65.91,67.17Z" transform="translate(99.13 125.92) rotate(180)"/><path class="cls-3" d="M14.73,55.91h3.12a0,0,0,0,1,0,0v2.84a0,0,0,0,1,0,0H14.73a.85.85,0,0,1-.85-.85V56.76A.85.85,0,0,1,14.73,55.91Z"/><rect class="cls-4" x="17.85" y="54.45" width="12.25" height="26.05" rx="1.51" ry="1.51"/><path class="cls-5" d="M60.42,91.77l1-4.39-2.08-2.47H52.81v4.7A2.13,2.13,0,0,0,55,91.77l1.85-1.72.51,1.72Z" transform="translate(-34.96 -11.27)"/><rect class="cls-6" width="47.94" height="80.5" rx="5.67" ry="5.67"/><circle class="cls-7" cx="5.68" cy="75.05" r="3.48"/><circle class="cls-7" cx="42.36" cy="75.05" r="3.48"/><text class="cls-8" transform="translate(41.8 9.23) rotate(90)">Color Sensor</text><circle class="cls-9" cx="12.06" cy="17.55" r="6.51"/><path class="cls-10" d="M49.38,24.9H44.7c-1.82,0-3.3,1.75-3.3,3.91s1.48,3.91,3.3,3.91h4.69c1.82,0,3.3-1.75,3.3-3.91S51.21,24.9,49.38,24.9Z" transform="translate(-34.96 -11.27)"/><g class="cls-11"><path class="cls-12" d="M50.26,31.69h-8a.2.2,0,1,1,0-.4h8a.25.25,0,0,0,.25-.25v-.53a.25.25,0,0,0-.25-.25h-5.8a.66.66,0,0,1-.66-.66v-.36a.65.65,0,0,1,.65-.65h5.82a.25.25,0,0,0,.25-.25V27.9a.24.24,0,0,0-.24-.24H44.45A.64.64,0,0,1,43.8,27v-.39a.63.63,0,0,1,.63-.64c6.18-.08,7.34,0,7.4,0a.2.2,0,0,1-.16.36c-.3,0-4.44,0-7.24,0a.24.24,0,0,0-.23.24V27a.25.25,0,0,0,.25.25h5.84a.64.64,0,0,1,.64.64v.45a.65.65,0,0,1-.65.65H44.46a.26.26,0,0,0-.26.26v.36a.26.26,0,0,0,.26.26h5.8a.64.64,0,0,1,.64.64V31A.64.64,0,0,1,50.26,31.69Z" transform="translate(-34.96 -11.27)"/></g><rect class="cls-13" x="53.1" y="45.92" width="3.44" height="2.58" transform="translate(-27.36 90.77) rotate(-90)"/><rect class="cls-10" x="54.4" y="43.78" width="0.85" height="2.58" transform="translate(64.93 -21.02) rotate(90)"/><rect class="cls-10" x="54.4" y="48.07" width="0.85" height="2.58" transform="translate(69.22 -16.73) rotate(90)"/><rect class="cls-14" x="57.18" y="45.92" width="3.44" height="2.58" transform="translate(-23.28 94.85) rotate(-90)"/><rect class="cls-10" x="58.48" y="43.78" width="0.85" height="2.58" transform="translate(69.01 -25.09) rotate(90)"/><rect class="cls-10" x="58.48" y="48.07" width="0.85" height="2.58" transform="translate(73.29 -20.81) rotate(90)"/><rect class="cls-14" x="61.33" y="45.92" width="3.44" height="2.58" transform="translate(-19.13 99) rotate(-90)"/><rect class="cls-10" x="62.63" y="43.78" width="0.85" height="2.58" transform="translate(73.16 -29.24) rotate(90)"/><rect class="cls-10" x="62.63" y="48.07" width="0.85" height="2.58" transform="translate(77.44 -24.96) rotate(90)"/><circle class="cls-15" cx="58.94" cy="69.64" r="1.92" transform="translate(-66.95 50.81) rotate(-45)"/><circle class="cls-15" cx="58.94" cy="85.51" r="1.92" transform="translate(-78.17 55.45) rotate(-45)"/><circle class="cls-16" cx="29.54" cy="18.46" r="6.89"/><circle class="cls-17" cx="29.54" cy="18.46" r="4.67"/><circle class="cls-18" cx="27.46" cy="16.46" r="0.72"/><circle class="cls-18" cx="26.94" cy="17.97" r="0.36"/></svg>