<svg id="图层_1" data-name="图层 1" xmlns="http://www.w3.org/2000/svg" xmlns:xlink="http://www.w3.org/1999/xlink" viewBox="0 0 234.88 113.14"><defs><style>.cls-1,.cls-6{fill:none;}.cls-2{fill:#469937;}.cls-3{fill:#a5a5a5;}.cls-4{fill:#3f3f3f;}.cls-5{fill:#5f5f5f;stroke:#040000;stroke-width:0.2px;}.cls-5,.cls-6{stroke-miterlimit:10;}.cls-6{stroke:#686868;stroke-linecap:round;stroke-width:3px;}.cls-7{fill:#fff;}.cls-8{clip-path:url(#clip-path);}.cls-9{fill:#969696;}</style><clipPath id="clip-path" transform="translate(47.11 9.03)"><rect class="cls-1" x="-22.8" y="19.43" width="183.04" height="57.24" rx="2.93" ry="2.93"/></clipPath></defs><title>液晶显示屏</title><rect class="cls-2" width="230.94" height="113.14" rx="3.01" ry="3.01"/><polygon class="cls-3" points="230.94 67.24 216.85 70.5 216.85 36.45 230.94 39.72 230.94 67.24"/><rect class="cls-4" x="13.36" y="14.07" width="204.21" height="85" rx="3.54" ry="3.54"/><rect class="cls-5" x="23.95" y="28.47" width="183.04" height="57.24" rx="2.93" ry="2.93"/><line class="cls-6" x1="21.82" y1="21.32" x2="209.83" y2="21.32"/><line class="cls-6" x1="21.82" y1="92.63" x2="209.83" y2="92.63"/><circle class="cls-7" cx="222.79" cy="7.45" r="5.22"/><circle class="cls-7" cx="222.79" cy="105.77" r="5.22"/><circle class="cls-7" cx="7.89" cy="7.45" r="5.22"/><circle class="cls-7" cx="7.89" cy="105.77" r="5.22"/><rect class="cls-3" x="15.7" y="4.87" width="5.31" height="5.15"/><rect class="cls-3" x="21.72" y="4.87" width="5.31" height="5.15"/><rect class="cls-3" x="27.74" y="4.87" width="5.31" height="5.15"/><rect class="cls-3" x="33.76" y="4.87" width="5.31" height="5.15"/><rect class="cls-3" x="39.78" y="4.87" width="5.31" height="5.15"/><rect class="cls-3" x="45.8" y="4.87" width="5.31" height="5.15"/><rect class="cls-3" x="51.82" y="4.87" width="5.31" height="5.15"/><rect class="cls-3" x="57.84" y="4.87" width="5.31" height="5.15"/><rect class="cls-3" x="63.86" y="4.87" width="5.31" height="5.15"/><rect class="cls-3" x="69.88" y="4.87" width="5.31" height="5.15"/><rect class="cls-3" x="75.9" y="4.87" width="5.31" height="5.15"/><rect class="cls-3" x="81.92" y="4.87" width="5.31" height="5.15"/><rect class="cls-3" x="87.94" y="4.87" width="5.31" height="5.15"/><rect class="cls-3" x="93.96" y="4.87" width="5.31" height="5.15"/><rect class="cls-3" x="99.98" y="4.87" width="5.31" height="5.15"/><rect class="cls-3" x="106" y="4.87" width="5.31" height="5.15"/><g class="cls-8"><polygon class="cls-9" points="147.55 104.68 132.76 104.68 98.89 7.41 113.67 7.41 147.55 104.68"/><polygon class="cls-9" points="234.88 102.11 158.06 102.11 124.19 4.84 201.01 4.84 234.88 102.11"/></g></svg>