<svg id="图层_1" data-name="图层 1" xmlns="http://www.w3.org/2000/svg" viewBox="0 0 47.94 83.37"><defs><style>.cls-1,.cls-12{fill:#1c1d1d;}.cls-2{fill:#a5a5a5;}.cls-3{fill:#272828;}.cls-13,.cls-4{fill:#d5a52c;}.cls-5{fill:#3f3f3f;}.cls-11,.cls-6,.cls-8{fill:#fff;}.cls-6{stroke:#d5a52c;}.cls-12,.cls-6{stroke-miterlimit:10;}.cls-7{fill:#bbbaba;}.cls-8{opacity:0.85;}.cls-9{fill:#e0e0e0;}.cls-10{fill:#9a9b9b;opacity:0.3;}.cls-12{stroke:#7a7a78;stroke-width:0.25px;}.cls-13{font-size:3px;font-family:MicrosoftYaHei, Microsoft YaHei;}</style></defs><title>LED白</title><rect class="cls-1" x="21.09" y="73.53" width="5.77" height="9.83" rx="0.62" ry="0.62"/><path class="cls-2" d="M72.44,84.94h3.12a0,0,0,0,1,0,0v2.84a0,0,0,0,1,0,0H72.44a.85.85,0,0,1-.85-.85V85.79A.85.85,0,0,1,72.44,84.94Z" transform="translate(105.65 160.86) rotate(180)"/><path class="cls-2" d="M14.73,73.08h3.12a0,0,0,0,1,0,0v2.84a0,0,0,0,1,0,0H14.73a.85.85,0,0,1-.85-.85V73.93A.85.85,0,0,1,14.73,73.08Z"/><path class="cls-2" d="M72.44,76.36h3.12a0,0,0,0,1,0,0V79.2a0,0,0,0,1,0,0H72.44a.85.85,0,0,1-.85-.85V77.21A.85.85,0,0,1,72.44,76.36Z" transform="translate(105.65 143.69) rotate(180)"/><path class="cls-2" d="M14.73,64.49h3.12a0,0,0,0,1,0,0v2.84a0,0,0,0,1,0,0H14.73a.85.85,0,0,1-.85-.85V65.34A.85.85,0,0,1,14.73,64.49Z"/><path class="cls-2" d="M72.44,67.77h3.12a0,0,0,0,1,0,0v2.84a0,0,0,0,1,0,0H72.44a.85.85,0,0,1-.85-.85V68.62A.85.85,0,0,1,72.44,67.77Z" transform="translate(105.65 126.52) rotate(180)"/><path class="cls-2" d="M14.73,55.91h3.12a0,0,0,0,1,0,0v2.84a0,0,0,0,1,0,0H14.73a.85.85,0,0,1-.85-.85V56.76A.85.85,0,0,1,14.73,55.91Z"/><rect class="cls-3" x="17.85" y="54.45" width="12.25" height="26.05" rx="1.51" ry="1.51"/><path class="cls-4" d="M66.94,92.37l1-4.39-2.08-2.47H59.33v4.7a2.13,2.13,0,0,0,2.16,2.16l1.85-1.72.51,1.72Z" transform="translate(-41.49 -11.87)"/><rect class="cls-5" width="47.94" height="80.5" rx="5.67" ry="5.67"/><circle class="cls-6" cx="5.68" cy="75.05" r="3.48"/><circle class="cls-6" cx="42.36" cy="75.05" r="3.48"/><rect class="cls-7" x="13.66" y="5.19" width="20.48" height="20.48"/><rect class="cls-8" x="14.76" y="6.29" width="18.27" height="18.27"/><circle class="cls-9" cx="23.9" cy="15.43" r="7.73"/><circle class="cls-10" cx="23.9" cy="15.43" r="5.23"/><circle class="cls-11" cx="21.57" cy="13.18" r="0.81"/><circle class="cls-11" cx="20.98" cy="14.87" r="0.41"/><circle class="cls-12" cx="65.38" cy="67.9" r="1.92" transform="translate(-70.35 54.25) rotate(-45)"/><circle class="cls-12" cx="65.38" cy="83.77" r="1.92" transform="translate(-81.57 58.9) rotate(-45)"/><text class="cls-13" transform="translate(39.79 8.48) rotate(90)">Led-W<tspan x="0" y="3.6">Module</tspan></text></svg>