<svg id="图层_1" data-name="图层 1" xmlns="http://www.w3.org/2000/svg" viewBox="0 0 257.29 305.22"><defs><style>.cls-1{fill:#898989;}.cls-2{fill:#2c2d2d;}.cls-3{fill:#b2b2b2;}</style></defs><title>点阵</title><path class="cls-1" d="M72.31,242h7.36a0,0,0,0,1,0,0v59.58A3.68,3.68,0,0,1,76,305.22h0a3.68,3.68,0,0,1-3.68-3.68V242a0,0,0,0,1,0,0Z"/><path class="cls-1" d="M98.64,242H106a0,0,0,0,1,0,0v59.58a3.68,3.68,0,0,1-3.68,3.68h0a3.68,3.68,0,0,1-3.68-3.68V242a0,0,0,0,1,0,0Z"/><path class="cls-1" d="M125,242h7.36a0,0,0,0,1,0,0v59.58a3.68,3.68,0,0,1-3.68,3.68h0a3.68,3.68,0,0,1-3.68-3.68V242a0,0,0,0,1,0,0Z"/><path class="cls-1" d="M151.3,242h7.36a0,0,0,0,1,0,0v59.58a3.68,3.68,0,0,1-3.68,3.68h0a3.68,3.68,0,0,1-3.68-3.68V242a0,0,0,0,1,0,0Z"/><path class="cls-1" d="M177.63,242H185a0,0,0,0,1,0,0v59.58a3.68,3.68,0,0,1-3.68,3.68h0a3.68,3.68,0,0,1-3.68-3.68V242A0,0,0,0,1,177.63,242Z"/><rect class="cls-2" width="257.29" height="257.29"/><circle class="cls-3" cx="15.77" cy="20.15" r="12.25"/><circle class="cls-3" cx="48.02" cy="20.15" r="12.25"/><circle class="cls-3" cx="80.27" cy="20.15" r="12.25"/><circle class="cls-3" cx="112.52" cy="20.15" r="12.25"/><circle class="cls-3" cx="144.77" cy="20.15" r="12.25"/><circle class="cls-3" cx="177.02" cy="20.15" r="12.25"/><circle class="cls-3" cx="209.27" cy="20.15" r="12.25"/><circle class="cls-3" cx="241.52" cy="20.15" r="12.25"/><circle class="cls-3" cx="15.77" cy="51.15" r="12.25"/><circle class="cls-3" cx="48.02" cy="51.15" r="12.25"/><circle class="cls-3" cx="80.27" cy="51.15" r="12.25"/><circle class="cls-3" cx="112.52" cy="51.15" r="12.25"/><circle class="cls-3" cx="144.77" cy="51.15" r="12.25"/><circle class="cls-3" cx="177.02" cy="51.15" r="12.25"/><circle class="cls-3" cx="209.27" cy="51.15" r="12.25"/><circle class="cls-3" cx="241.52" cy="51.15" r="12.25"/><circle class="cls-3" cx="15.77" cy="82.15" r="12.25"/><circle class="cls-3" cx="48.02" cy="82.15" r="12.25"/><circle class="cls-3" cx="80.27" cy="82.15" r="12.25"/><circle class="cls-3" cx="112.52" cy="82.15" r="12.25"/><circle class="cls-3" cx="144.77" cy="82.15" r="12.25"/><circle class="cls-3" cx="177.02" cy="82.15" r="12.25"/><circle class="cls-3" cx="209.27" cy="82.15" r="12.25"/><circle class="cls-3" cx="241.52" cy="82.15" r="12.25"/><circle class="cls-3" cx="15.77" cy="113.15" r="12.25"/><circle class="cls-3" cx="48.02" cy="113.15" r="12.25"/><circle class="cls-3" cx="80.27" cy="113.15" r="12.25"/><circle class="cls-3" cx="112.52" cy="113.15" r="12.25"/><circle class="cls-3" cx="144.77" cy="113.15" r="12.25"/><circle class="cls-3" cx="177.02" cy="113.15" r="12.25"/><circle class="cls-3" cx="209.27" cy="113.15" r="12.25"/><circle class="cls-3" cx="241.52" cy="113.15" r="12.25"/><circle class="cls-3" cx="15.77" cy="144.15" r="12.25"/><circle class="cls-3" cx="48.02" cy="144.15" r="12.25"/><circle class="cls-3" cx="80.27" cy="144.15" r="12.25"/><circle class="cls-3" cx="112.52" cy="144.15" r="12.25"/><circle class="cls-3" cx="144.77" cy="144.15" r="12.25"/><circle class="cls-3" cx="177.02" cy="144.15" r="12.25"/><circle class="cls-3" cx="209.27" cy="144.15" r="12.25"/><circle class="cls-3" cx="241.52" cy="144.15" r="12.25"/><circle class="cls-3" cx="15.77" cy="175.15" r="12.25"/><circle class="cls-3" cx="48.02" cy="175.15" r="12.25"/><circle class="cls-3" cx="80.27" cy="175.15" r="12.25"/><circle class="cls-3" cx="112.52" cy="175.15" r="12.25"/><circle class="cls-3" cx="144.77" cy="175.15" r="12.25"/><circle class="cls-3" cx="177.02" cy="175.15" r="12.25"/><circle class="cls-3" cx="209.27" cy="175.15" r="12.25"/><circle class="cls-3" cx="241.52" cy="175.15" r="12.25"/><circle class="cls-3" cx="15.77" cy="206.15" r="12.25"/><circle class="cls-3" cx="48.02" cy="206.15" r="12.25"/><circle class="cls-3" cx="80.27" cy="206.15" r="12.25"/><circle class="cls-3" cx="112.52" cy="206.15" r="12.25"/><circle class="cls-3" cx="144.77" cy="206.15" r="12.25"/><circle class="cls-3" cx="177.02" cy="206.15" r="12.25"/><circle class="cls-3" cx="209.27" cy="206.15" r="12.25"/><circle class="cls-3" cx="241.52" cy="206.15" r="12.25"/><circle class="cls-3" cx="15.77" cy="237.15" r="12.25"/><circle class="cls-3" cx="48.02" cy="237.15" r="12.25"/><circle class="cls-3" cx="80.27" cy="237.15" r="12.25"/><circle class="cls-3" cx="112.52" cy="237.15" r="12.25"/><circle class="cls-3" cx="144.77" cy="237.15" r="12.25"/><circle class="cls-3" cx="177.02" cy="237.15" r="12.25"/><circle class="cls-3" cx="209.27" cy="237.15" r="12.25"/><circle class="cls-3" cx="241.52" cy="237.15" r="12.25"/></svg>