<?xml version="1.0" encoding="utf-8"?>
<!-- Generator: Adobe Illustrator 22.0.0, SVG Export Plug-In . SVG Version: 6.00 Build 0)  -->
<svg version="1.1" id="图层_1" xmlns="http://www.w3.org/2000/svg" xmlns:xlink="http://www.w3.org/1999/xlink" x="0px" y="0px"
	 viewBox="0 0 841.9 595.3" style="enable-background:new 0 0 841.9 595.3;" xml:space="preserve">
<style type="text/css">
	.st0{fill:#888988;}
	.st1{fill:#2C2D2D;}
	.st2{fill:#B2B1B1;}
	.st3{fill:#3E3E3F;}
	.st4{fill:#FFFFFF;stroke:#D4A42C;stroke-miterlimit:10;}
	.st5{fill:#1C1D1D;}
	.st6{fill:#A4A4A4;}
	.st7{fill:#262727;}
	.st8{fill:#D4A42C;}
	.st9{fill:#B88921;}
	.st10{fill:#DABF82;}
</style>
<g>
	<g>
		<g>
			<path class="st0" d="M368.8,391.9L368.8,391.9c-2,0-3.7-1.6-3.7-3.7v-59.6h7.4v59.6C372.5,390.3,370.8,391.9,368.8,391.9z"/>
			<path class="st0" d="M395.1,391.9L395.1,391.9c-2,0-3.7-1.6-3.7-3.7v-59.6h7.4v59.6C398.8,390.3,397.2,391.9,395.1,391.9z"/>
			<path class="st0" d="M421.5,391.9L421.5,391.9c-2,0-3.7-1.6-3.7-3.7v-59.6h7.4v59.6C425.1,390.3,423.5,391.9,421.5,391.9z"/>
			<path class="st0" d="M447.8,391.9L447.8,391.9c-2,0-3.7-1.6-3.7-3.7v-59.6h7.4v59.6C451.5,390.3,449.8,391.9,447.8,391.9z"/>
			<path class="st0" d="M474.1,391.9L474.1,391.9c-2,0-3.7-1.6-3.7-3.7v-59.6h7.4v59.6C477.8,390.3,476.1,391.9,474.1,391.9z"/>
		</g>
		<g>
			<rect x="292.8" y="86.7" class="st1" width="257.3" height="257.3"/>
			<g>
				<g>
					<circle class="st2" cx="308.6" cy="106.9" r="12.3"/>
					<circle class="st2" cx="340.8" cy="106.9" r="12.3"/>
					<circle class="st2" cx="373.1" cy="106.9" r="12.3"/>
					<circle class="st2" cx="405.3" cy="106.9" r="12.3"/>
					<circle class="st2" cx="437.6" cy="106.9" r="12.3"/>
					<circle class="st2" cx="469.8" cy="106.9" r="12.3"/>
					<circle class="st2" cx="502.1" cy="106.9" r="12.3"/>
					<circle class="st2" cx="534.3" cy="106.9" r="12.3"/>
				</g>
				<g>
					<circle class="st2" cx="308.6" cy="137.9" r="12.3"/>
					<circle class="st2" cx="340.8" cy="137.9" r="12.3"/>
					<circle class="st2" cx="373.1" cy="137.9" r="12.3"/>
					<circle class="st2" cx="405.3" cy="137.9" r="12.3"/>
					<circle class="st2" cx="437.6" cy="137.9" r="12.3"/>
					<circle class="st2" cx="469.8" cy="137.9" r="12.3"/>
					<circle class="st2" cx="502.1" cy="137.9" r="12.3"/>
					<circle class="st2" cx="534.3" cy="137.9" r="12.3"/>
				</g>
				<g>
					<circle class="st2" cx="308.6" cy="168.9" r="12.3"/>
					<circle class="st2" cx="340.8" cy="168.9" r="12.3"/>
					<circle class="st2" cx="373.1" cy="168.9" r="12.3"/>
					<circle class="st2" cx="405.3" cy="168.9" r="12.3"/>
					<circle class="st2" cx="437.6" cy="168.9" r="12.3"/>
					<circle class="st2" cx="469.8" cy="168.9" r="12.3"/>
					<circle class="st2" cx="502.1" cy="168.9" r="12.3"/>
					<circle class="st2" cx="534.3" cy="168.9" r="12.3"/>
				</g>
				<g>
					<circle class="st2" cx="308.6" cy="199.9" r="12.3"/>
					<circle class="st2" cx="340.8" cy="199.9" r="12.3"/>
					<circle class="st2" cx="373.1" cy="199.9" r="12.3"/>
					<circle class="st2" cx="405.3" cy="199.9" r="12.3"/>
					<circle class="st2" cx="437.6" cy="199.9" r="12.3"/>
					<circle class="st2" cx="469.8" cy="199.9" r="12.3"/>
					<circle class="st2" cx="502.1" cy="199.9" r="12.3"/>
					<circle class="st2" cx="534.3" cy="199.9" r="12.3"/>
				</g>
				<g>
					<circle class="st2" cx="308.6" cy="230.9" r="12.3"/>
					<circle class="st2" cx="340.8" cy="230.9" r="12.3"/>
					<circle class="st2" cx="373.1" cy="230.9" r="12.3"/>
					<circle class="st2" cx="405.3" cy="230.9" r="12.3"/>
					<circle class="st2" cx="437.6" cy="230.9" r="12.3"/>
					<circle class="st2" cx="469.8" cy="230.9" r="12.3"/>
					<circle class="st2" cx="502.1" cy="230.9" r="12.3"/>
					<circle class="st2" cx="534.3" cy="230.9" r="12.3"/>
				</g>
				<g>
					<circle class="st2" cx="308.6" cy="261.9" r="12.3"/>
					<circle class="st2" cx="340.8" cy="261.9" r="12.3"/>
					<circle class="st2" cx="373.1" cy="261.9" r="12.3"/>
					<circle class="st2" cx="405.3" cy="261.9" r="12.3"/>
					<circle class="st2" cx="437.6" cy="261.9" r="12.3"/>
					<circle class="st2" cx="469.8" cy="261.9" r="12.3"/>
					<circle class="st2" cx="502.1" cy="261.9" r="12.3"/>
					<circle class="st2" cx="534.3" cy="261.9" r="12.3"/>
				</g>
				<g>
					<circle class="st2" cx="308.6" cy="292.9" r="12.3"/>
					<circle class="st2" cx="340.8" cy="292.9" r="12.3"/>
					<circle class="st2" cx="373.1" cy="292.9" r="12.3"/>
					<circle class="st2" cx="405.3" cy="292.9" r="12.3"/>
					<circle class="st2" cx="437.6" cy="292.9" r="12.3"/>
					<circle class="st2" cx="469.8" cy="292.9" r="12.3"/>
					<circle class="st2" cx="502.1" cy="292.9" r="12.3"/>
					<circle class="st2" cx="534.3" cy="292.9" r="12.3"/>
				</g>
				<g>
					<circle class="st2" cx="308.6" cy="323.9" r="12.3"/>
					<circle class="st2" cx="340.8" cy="323.9" r="12.3"/>
					<circle class="st2" cx="373.1" cy="323.9" r="12.3"/>
					<circle class="st2" cx="405.3" cy="323.9" r="12.3"/>
					<circle class="st2" cx="437.6" cy="323.9" r="12.3"/>
					<circle class="st2" cx="469.8" cy="323.9" r="12.3"/>
					<circle class="st2" cx="502.1" cy="323.9" r="12.3"/>
					<circle class="st2" cx="534.3" cy="323.9" r="12.3"/>
				</g>
			</g>
		</g>
	</g>
	<g>
		<path class="st3" d="M532.5,500.1H307.8c-9,0-16.3-7.3-16.3-16.3V360.3c0-9,7.3-16.3,16.3-16.3h224.7c9,0,16.3,7.3,16.3,16.3
			v123.5C548.8,492.8,541.5,500.1,532.5,500.1z"/>
		<g>
			<circle class="st4" cx="315.5" cy="469.5" r="9.6"/>
			<circle class="st4" cx="524.7" cy="469.5" r="9.6"/>
			<g>
				<path class="st5" d="M383.9,507.4h-12.9c-0.3,0-0.6-0.3-0.6-0.6v-22.9c0-0.3,0.3-0.6,0.6-0.6h12.9c0.3,0,0.6,0.3,0.6,0.6v22.9
					C384.5,507.2,384.2,507.4,383.9,507.4z"/>
				<path class="st6" d="M392.4,482.2h8.9c0.5,0,0.9,0.4,0.9,0.9v5.3c0,0.5-0.4,0.9-0.9,0.9h-8.9V482.2z"/>
				<path class="st6" d="M362.4,489.1h-8.9c-0.5,0-0.9-0.4-0.9-0.9V483c0-0.5,0.4-0.9,0.9-0.9h8.9V489.1z"/>
				<path class="st6" d="M392.4,461.1h8.9c0.5,0,0.9,0.4,0.9,0.9v5.3c0,0.5-0.4,0.9-0.9,0.9h-8.9V461.1z"/>
				<path class="st6" d="M362.4,468.1h-8.9c-0.5,0-0.9-0.4-0.9-0.9v-5.3c0-0.5,0.4-0.9,0.9-0.9h8.9V468.1z"/>
				<path class="st6" d="M392.4,440h8.9c0.5,0,0.9,0.4,0.9,0.9v5.3c0,0.5-0.4,0.9-0.9,0.9h-8.9V440z"/>
				<path class="st6" d="M362.4,447h-8.9c-0.5,0-0.9-0.4-0.9-0.9v-5.3c0-0.5,0.4-0.9,0.9-0.9h8.9V447z"/>
				<path class="st7" d="M390.9,500.4h-27.1c-0.8,0-1.5-0.7-1.5-1.5V438c0-0.8,0.7-1.5,1.5-1.5h27.1c0.8,0,1.5,0.7,1.5,1.5v60.9
					C392.4,499.7,391.8,500.4,390.9,500.4z"/>
				<path class="st8" d="M381,500.4l2.4-10.8l-5.1-6.1h-16v11.5c0,0-0.1,5.1,5.3,5.3l4.5-4.2l1.2,4.2H381z"/>
				<polygon class="st9" points="381,500.4 380,504.5 374.9,504.5 373.5,500.4 				"/>
			</g>
			<g>
				<path class="st5" d="M465.1,507.4h-12.9c-0.3,0-0.6-0.3-0.6-0.6v-22.9c0-0.3,0.3-0.6,0.6-0.6h12.9c0.3,0,0.6,0.3,0.6,0.6v22.9
					C465.7,507.2,465.4,507.4,465.1,507.4z"/>
				<path class="st6" d="M473.6,482.2h8.9c0.5,0,0.9,0.4,0.9,0.9v5.3c0,0.5-0.4,0.9-0.9,0.9h-8.9V482.2z"/>
				<path class="st6" d="M443.6,489.1h-8.9c-0.5,0-0.9-0.4-0.9-0.9V483c0-0.5,0.4-0.9,0.9-0.9h8.9V489.1z"/>
				<path class="st6" d="M473.6,461.1h8.9c0.5,0,0.9,0.4,0.9,0.9v5.3c0,0.5-0.4,0.9-0.9,0.9h-8.9V461.1z"/>
				<path class="st6" d="M443.6,468.1h-8.9c-0.5,0-0.9-0.4-0.9-0.9v-5.3c0-0.5,0.4-0.9,0.9-0.9h8.9V468.1z"/>
				<path class="st6" d="M473.6,440h8.9c0.5,0,0.9,0.4,0.9,0.9v5.3c0,0.5-0.4,0.9-0.9,0.9h-8.9V440z"/>
				<path class="st6" d="M443.6,447h-8.9c-0.5,0-0.9-0.4-0.9-0.9v-5.3c0-0.5,0.4-0.9,0.9-0.9h8.9V447z"/>
				<path class="st7" d="M472.1,500.4h-27.1c-0.8,0-1.5-0.7-1.5-1.5V438c0-0.8,0.7-1.5,1.5-1.5h27.1c0.8,0,1.5,0.7,1.5,1.5v60.9
					C473.6,499.7,473,500.4,472.1,500.4z"/>
				<path class="st8" d="M462.2,500.4l2.4-10.8l-5.1-6.1h-16v11.5c0,0-0.1,5.1,5.3,5.3l4.5-4.2l1.2,4.2H462.2z"/>
				<polygon class="st9" points="462.2,500.4 461.2,504.5 456.1,504.5 454.7,500.4 				"/>
			</g>
		</g>
		<rect x="372" y="407.9" class="st10" width="10.4" height="10.4"/>
		<rect x="415.8" y="407.9" class="st10" width="10.4" height="10.4"/>
		<rect x="437.6" y="407.9" class="st6" width="10.4" height="10.4"/>
		<rect x="459.5" y="407.9" class="st6" width="10.4" height="10.4"/>
		<rect x="393.9" y="407.9" class="st10" width="10.4" height="10.4"/>
		<g>
			<rect x="418.8" y="389.8" class="st8" width="4.3" height="24.5"/>
			<rect x="396.9" y="389.8" class="st8" width="4.3" height="24.5"/>
			<rect x="375.1" y="389.8" class="st8" width="4.3" height="24.5"/>
			<rect x="440.6" y="389.8" class="st8" width="4.3" height="24.5"/>
			<rect x="462.5" y="389.8" class="st8" width="4.3" height="24.5"/>
		</g>
		<rect x="356.9" y="343.9" class="st7" width="126.5" height="55.2"/>
	</g>
</g>
</svg>
