<svg id="图层_1" data-name="图层 1" xmlns="http://www.w3.org/2000/svg" viewBox="0 0 266.95 171.79"><defs><style>.cls-1{fill:#403f3f;}.cls-2{fill:#1c1d1d;}.cls-3{fill:#272828;}.cls-13,.cls-4{fill:#d5a52c;}.cls-11,.cls-5{fill:#fff;}.cls-5{stroke:#d5a52c;stroke-miterlimit:10;}.cls-6{fill:#c2c1c1;}.cls-7{fill:#e5e5e5;}.cls-8{fill:#b2aeae;}.cls-9{fill:#a5a5a5;}.cls-10{fill:#323333;}.cls-11{font-size:6px;font-family:MicrosoftYaHeiLight, Microsoft YaHei;}.cls-12{letter-spacing:-0.07em;}.cls-13{font-size:10px;font-family:MicrosoftYaHei, Microsoft YaHei;}.cls-14{letter-spacing:-0.01em;}.cls-15{letter-spacing:-0.01em;}</style></defs><title>1</title><path class="cls-1" d="M97,205.68,97,59.43a12.7,12.7,0,0,1,12.7-12.71l230.09,0a12.7,12.7,0,0,1,12.71,12.7l0,146.25a12.7,12.7,0,0,1-12.7,12.71l-230.09,0A12.7,12.7,0,0,1,97,205.68Z" transform="translate(-85.54 -46.59)"/><rect class="cls-2" x="92.53" y="145.64" width="19.81" height="33.79" rx="0.62" ry="0.62" transform="translate(179.43 13.51) rotate(90)"/><rect class="cls-3" x="119.09" y="117.79" width="42.09" height="89.49" rx="3.92" ry="3.92" transform="translate(217.13 -24.19) rotate(90)"/><path class="cls-4" d="M95.38,167.62,110.46,171l8.48-7.16V141.49H102.79s-7.12-.08-7.41,7.41l5.9,6.36L95.38,157Z" transform="translate(-85.54 -46.59)"/><rect class="cls-2" x="92.53" y="84.68" width="19.81" height="33.79" rx="0.62" ry="0.62" transform="translate(118.47 -47.45) rotate(90)"/><rect class="cls-3" x="119.09" y="56.83" width="42.09" height="89.49" rx="3.27" ry="3.27" transform="translate(156.17 -85.15) rotate(90)"/><path class="cls-4" d="M95.38,106.66l15.08,3.41,8.48-7.16V80.53H102.79s-7.12-.08-7.41,7.41l5.9,6.36L95.38,96Z" transform="translate(-85.54 -46.59)"/><circle class="cls-5" cx="21.88" cy="12.36" r="5.99"/><circle class="cls-5" cx="21.88" cy="160.03" r="5.99"/><rect class="cls-6" x="302.06" y="72.69" width="42.29" height="57.98" transform="translate(339.34 -268.12) rotate(90)"/><rect class="cls-7" x="308.29" y="77.58" width="20.35" height="27.18" transform="translate(324.08 -273.88) rotate(90)"/><rect class="cls-7" x="308.2" y="99.04" width="20.51" height="27.18" transform="translate(345.55 -252.42) rotate(90)"/><path class="cls-6" d="M310.09,86h15.07a1.21,1.21,0,0,1,1.21,1.21v3.64A1.21,1.21,0,0,1,325.16,92H310.09a0,0,0,0,1,0,0V86A0,0,0,0,1,310.09,86Z" transform="translate(321.69 -275.82) rotate(90)"/><path class="cls-6" d="M310.16,107.65h15.39a1.21,1.21,0,0,1,1.21,1.21v3.64a1.21,1.21,0,0,1-1.21,1.21H310.16a0,0,0,0,1,0,0v-6.06A0,0,0,0,1,310.16,107.65Z" transform="translate(343.59 -254.37) rotate(90)"/><rect class="cls-8" x="321.8" y="95.24" width="2.81" height="57.98" transform="translate(361.89 -245.57) rotate(90)"/><rect class="cls-8" x="293.59" y="90.06" width="20.35" height="2.21" transform="translate(309.39 -259.19) rotate(90)"/><rect class="cls-8" x="293.59" y="111.45" width="20.35" height="2.21" transform="translate(330.77 -237.8) rotate(90)"/><rect class="cls-8" x="298.1" y="123.69" width="2.28" height="5.02" transform="translate(339.9 -219.63) rotate(90)"/><rect class="cls-8" x="341.96" y="123.69" width="2.28" height="5.02" transform="translate(383.76 -263.49) rotate(90)"/><rect class="cls-6" x="302.06" y="128.93" width="42.29" height="57.98" transform="translate(395.58 -211.88) rotate(90)"/><rect class="cls-7" x="308.29" y="133.82" width="20.35" height="27.18" transform="translate(380.32 -217.64) rotate(90)"/><rect class="cls-7" x="308.2" y="155.28" width="20.51" height="27.18" transform="translate(401.79 -196.18) rotate(90)"/><path class="cls-6" d="M310.09,142.22h15.07a1.21,1.21,0,0,1,1.21,1.21v3.64a1.21,1.21,0,0,1-1.21,1.21H310.09a0,0,0,0,1,0,0v-6.06A0,0,0,0,1,310.09,142.22Z" transform="translate(377.93 -219.58) rotate(90)"/><path class="cls-6" d="M310.16,163.89h15.39a1.21,1.21,0,0,1,1.21,1.21v3.64a1.21,1.21,0,0,1-1.21,1.21H310.16a0,0,0,0,1,0,0v-6.06A0,0,0,0,1,310.16,163.89Z" transform="translate(399.83 -198.13) rotate(90)"/><rect class="cls-8" x="321.8" y="151.48" width="2.81" height="57.98" transform="translate(418.13 -189.33) rotate(90)"/><rect class="cls-8" x="293.59" y="146.31" width="20.35" height="2.21" transform="translate(365.63 -202.95) rotate(90)"/><rect class="cls-8" x="293.59" y="167.69" width="20.35" height="2.21" transform="translate(387.01 -181.56) rotate(90)"/><rect class="cls-8" x="298.1" y="179.93" width="2.28" height="5.02" transform="translate(396.14 -163.39) rotate(90)"/><rect class="cls-8" x="341.96" y="179.93" width="2.28" height="5.02" transform="translate(440 -207.25) rotate(90)"/><rect class="cls-9" x="258.54" y="129.95" width="2.63" height="28.47" transform="translate(318.5 -162.26) rotate(90)"/><rect class="cls-9" x="258.54" y="134.4" width="2.63" height="28.47" transform="translate(322.95 -157.81) rotate(90)"/><rect class="cls-9" x="258.54" y="138.84" width="2.63" height="28.47" transform="translate(327.39 -153.37) rotate(90)"/><rect class="cls-9" x="258.54" y="143.28" width="2.63" height="28.47" transform="translate(331.83 -148.93) rotate(90)"/><rect class="cls-9" x="258.54" y="147.72" width="2.63" height="28.47" transform="translate(336.27 -144.49) rotate(90)"/><rect class="cls-9" x="258.54" y="152.16" width="2.63" height="28.47" transform="translate(340.71 -140.05) rotate(90)"/><rect class="cls-9" x="258.54" y="156.6" width="2.63" height="28.47" transform="translate(345.15 -135.61) rotate(90)"/><rect class="cls-9" x="258.54" y="161.05" width="2.63" height="28.47" transform="translate(349.6 -131.16) rotate(90)"/><rect class="cls-3" x="241.43" y="148.87" width="36.85" height="21.11" transform="translate(333.73 -147.03) rotate(90)"/><rect class="cls-3" x="219.8" y="46.69" width="56.44" height="69.74" transform="translate(410.48 116.53) rotate(180)"/><rect class="cls-10" x="270.41" y="67.57" width="5.82" height="15.75" transform="translate(461.1 104.3) rotate(180)"/><rect class="cls-10" x="257.91" y="85.9" width="5.82" height="9.92" transform="translate(436.1 135.13) rotate(180)"/><rect class="cls-9" x="184.88" y="208.18" width="37.4" height="1.79" transform="translate(321.62 371.56) rotate(180)"/><rect class="cls-3" x="189.12" y="203.15" width="28.7" height="11.85" transform="translate(321.39 371.56) rotate(180)"/><rect class="cls-9" x="138.88" y="208.18" width="37.4" height="1.79" transform="translate(229.62 371.56) rotate(180)"/><rect class="cls-3" x="143.12" y="203.15" width="28.7" height="11.85" transform="translate(229.39 371.56) rotate(180)"/><text class="cls-11" transform="translate(57.58 30.54)">M1</text><text class="cls-11" transform="translate(160.08 77.64)">DC</text><text class="cls-11" transform="translate(219.33 30.54)">M<tspan class="cls-12" x="5.4" y="0">OT</tspan><tspan x="12.76" y="0">OR1</tspan></text><text class="cls-11" transform="translate(219.33 146.54)">M<tspan class="cls-12" x="5.4" y="0">OT</tspan><tspan x="12.76" y="0">OR2</tspan></text><text class="cls-11" transform="translate(57.58 148.29)">M2</text><text class="cls-13" transform="translate(54.26 8.57)">Mo<tspan class="cls-14" x="16.13" y="0">t</tspan><tspan x="19.77" y="0">or Cont</tspan><tspan class="cls-15" x="55.84" y="0">r</tspan><tspan x="59.52" y="0">ol</tspan></text></svg>