<svg id="图层_1" data-name="图层 1" xmlns="http://www.w3.org/2000/svg" viewBox="0 0 233.32 52.81"><defs><style>.cls-1{fill:#1c1d1d;}.cls-2{fill:#a5a5a5;}.cls-3{fill:#272828;}.cls-4{fill:#d5a52c;}.cls-5{fill:#3f3f3f;}.cls-6{fill:#b98a22;}.cls-7{fill:#f2f2f2;}.cls-10,.cls-11,.cls-8,.cls-9{fill:none;stroke-miterlimit:10;}.cls-8{stroke:#e71f19;}.cls-9{stroke:#70ba2b;}.cls-10{stroke:#fff;}.cls-11{stroke:#040000;}.cls-12{fill:#898888;}.cls-13{fill:#626363;}</style></defs><title>压力传感器</title><rect class="cls-1" x="236.07" y="61.55" width="6.35" height="10.83" rx="0.62" ry="0.62" transform="translate(160.61 265.65) rotate(-90)"/><path class="cls-2" d="M233.56,56.46h3.52a0,0,0,0,1,0,0V59.6a0,0,0,0,1,0,0h-3.52a.85.85,0,0,1-.85-.85V57.31A.85.85,0,0,1,233.56,56.46Z" transform="translate(281.24 -217.42) rotate(90)"/><path class="cls-2" d="M233.56,74.33h3.52a0,0,0,0,1,0,0v3.13a0,0,0,0,1,0,0h-3.52a.85.85,0,0,1-.85-.85V75.18a.85.85,0,0,1,.85-.85Z" transform="translate(147.32 270.23) rotate(-90)"/><path class="cls-2" d="M224.1,56.46h3.52a0,0,0,0,1,0,0V59.6a0,0,0,0,1,0,0H224.1a.85.85,0,0,1-.85-.85V57.31A.85.85,0,0,1,224.1,56.46Z" transform="translate(271.79 -207.96) rotate(90)"/><path class="cls-2" d="M224.1,74.33h3.52a0,0,0,0,1,0,0v3.13a0,0,0,0,1,0,0H224.1a.85.85,0,0,1-.85-.85V75.18A.85.85,0,0,1,224.1,74.33Z" transform="translate(137.86 260.78) rotate(-90)"/><path class="cls-2" d="M214.65,56.46h3.52a0,0,0,0,1,0,0V59.6a0,0,0,0,1,0,0h-3.52a.85.85,0,0,1-.85-.85V57.31A.85.85,0,0,1,214.65,56.46Z" transform="translate(262.33 -198.51) rotate(90)"/><path class="cls-2" d="M214.65,74.33h3.52a0,0,0,0,1,0,0v3.13a0,0,0,0,1,0,0h-3.52a.85.85,0,0,1-.85-.85V75.18A.85.85,0,0,1,214.65,74.33Z" transform="translate(128.41 251.32) rotate(-90)"/><rect class="cls-3" x="220.41" y="52.61" width="13.5" height="28.7" rx="1.51" ry="1.51" transform="translate(148.52 253.56) rotate(-90)"/><path class="cls-4" d="M241.51,65.33l-4.83-1.09L234,66.53v7.18h5.18a2.35,2.35,0,0,0,2.38-2.38l-1.89-2,1.89-.56Z" transform="translate(-11.68 -40.55)"/><rect class="cls-5" x="170.76" y="22.62" width="52.81" height="88.68" rx="5.67" ry="5.67" transform="translate(118.53 223.57) rotate(-90)"/><rect class="cls-1" x="236.41" y="61.55" width="6.35" height="10.83" rx="0.62" ry="0.62" transform="translate(160.94 265.99) rotate(-90)"/><path class="cls-2" d="M233.89,56.46h3.52a0,0,0,0,1,0,0V59.6a0,0,0,0,1,0,0h-3.52a.85.85,0,0,1-.85-.85V57.31A.85.85,0,0,1,233.89,56.46Z" transform="translate(281.58 -217.75) rotate(90)"/><path class="cls-2" d="M233.89,74.33h3.52a0,0,0,0,1,0,0v3.13a0,0,0,0,1,0,0h-3.52a.85.85,0,0,1-.85-.85V75.18A.85.85,0,0,1,233.89,74.33Z" transform="translate(147.66 270.57) rotate(-90)"/><path class="cls-2" d="M224.44,56.46H228a0,0,0,0,1,0,0V59.6a0,0,0,0,1,0,0h-3.52a.85.85,0,0,1-.85-.85V57.31A.85.85,0,0,1,224.44,56.46Z" transform="translate(272.13 -208.3) rotate(90)"/><path class="cls-2" d="M224.44,74.33H228a0,0,0,0,1,0,0v3.13a0,0,0,0,1,0,0h-3.52a.85.85,0,0,1-.85-.85V75.18A.85.85,0,0,1,224.44,74.33Z" transform="translate(138.2 261.11) rotate(-90)"/><path class="cls-2" d="M215,56.46h3.52a0,0,0,0,1,0,0V59.6a0,0,0,0,1,0,0H215a.85.85,0,0,1-.85-.85V57.31A.85.85,0,0,1,215,56.46Z" transform="translate(262.67 -198.84) rotate(90)"/><path class="cls-2" d="M215,74.33h3.52a0,0,0,0,1,0,0v3.13a0,0,0,0,1,0,0H215a.85.85,0,0,1-.85-.85V75.18A.85.85,0,0,1,215,74.33Z" transform="translate(128.75 251.66) rotate(-90)"/><rect class="cls-3" x="220.75" y="52.61" width="13.5" height="28.7" rx="1.51" ry="1.51" transform="translate(148.85 253.9) rotate(-90)"/><path class="cls-4" d="M241.84,65.33,237,64.24l-2.72,2.3v7.18h5.18a2.35,2.35,0,0,0,2.38-2.38l-1.89-2,1.89-.56Z" transform="translate(-11.68 -40.55)"/><polygon class="cls-6" points="230.17 24.78 232 25.26 232 27.53 230.17 28.18 230.17 24.78"/><rect class="cls-2" x="178.12" y="17.47" width="12.17" height="1.47"/><rect class="cls-2" x="178.12" y="19.84" width="12.17" height="1.47"/><rect class="cls-2" x="178.12" y="22.2" width="12.17" height="1.47"/><rect class="cls-2" x="178.12" y="24.57" width="12.17" height="1.47"/><rect class="cls-2" x="178.12" y="26.93" width="12.17" height="1.47"/><rect class="cls-2" x="178.12" y="29.3" width="12.17" height="1.47"/><rect class="cls-2" x="178.12" y="31.66" width="12.17" height="1.47"/><rect class="cls-2" x="178.12" y="34.03" width="12.17" height="1.47"/><rect class="cls-2" x="178.12" y="36.39" width="12.17" height="1.47"/><rect class="cls-3" x="179.96" y="16.27" width="8.48" height="23.03"/><rect class="cls-2" x="146.78" y="12.08" width="10.17" height="28.66"/><rect class="cls-7" x="147.32" y="13.26" width="9.13" height="5.42"/><rect class="cls-7" x="147.32" y="20.22" width="9.13" height="5.42"/><rect class="cls-7" x="147.32" y="27.18" width="9.13" height="5.42"/><rect class="cls-7" x="147.32" y="34.14" width="9.13" height="5.42"/><line class="cls-8" x1="79.1" y1="35.23" x2="150.1" y2="35.23"/><line class="cls-9" x1="79.1" y1="31.04" x2="150.1" y2="31.04"/><line class="cls-10" x1="78.6" y1="22.23" x2="150.6" y2="22.23"/><line class="cls-11" x1="78.85" y1="16.95" x2="150.6" y2="16.95"/><path class="cls-12" d="M11.68,56.25V77.68a3.75,3.75,0,0,0,3.64,3.84H123a3.75,3.75,0,0,0,3.64-3.84V56.25A3.75,3.75,0,0,0,123,52.4H15.32A3.75,3.75,0,0,0,11.68,56.25ZM79.6,78.61a10.87,10.87,0,0,1-10.43-4.25,10.87,10.87,0,0,1-10.43,4.25A11.54,11.54,0,0,1,49.4,68.37c-.78-7.14,4.48-13.19,11.09-13.19a10.93,10.93,0,0,1,8.69,4.39,10.93,10.93,0,0,1,8.69-4.39c6.61,0,11.87,6.05,11.09,13.19A11.54,11.54,0,0,1,79.6,78.61Z" transform="translate(-11.68 -40.55)"/><path class="cls-13" d="M78.7,68.72A10.93,10.93,0,0,1,70,64.33a10.93,10.93,0,0,1-8.69,4.39A11.21,11.21,0,0,1,50.86,61,12.22,12.22,0,0,0,49.32,67c0,6.51,5,11.79,11.17,11.79a10.93,10.93,0,0,0,8.69-4.39,10.93,10.93,0,0,0,8.69,4.39C84,78.75,89,73.47,89,67a12.32,12.32,0,0,0-.7-4.08A11.06,11.06,0,0,1,78.7,68.72Z" transform="translate(-11.68 -40.55)"/></svg>