<svg id="图层_1" data-name="图层 1" xmlns="http://www.w3.org/2000/svg" viewBox="0 0 42.75 77.77"><defs><style>.cls-1{fill:#231815;}.cls-2{fill:#fff;}.cls-3{fill:#1c1d1d;}.cls-4{fill:#a5a5a5;}.cls-5{fill:#272828;}.cls-6{fill:#d5a52c;}.cls-7{fill:#b98a22;}.cls-8{fill:#b2b2b2;}.cls-9{fill:#cecece;}</style></defs><title>心率传感器</title><circle class="cls-1" cx="21.38" cy="21.38" r="21.38"/><rect class="cls-1" x="6.38" y="30.71" width="30" height="44.29"/><path class="cls-1" d="M71.14,56.16a3,3,0,1,1,3-3A3,3,0,0,1,71.14,56.16Z" transform="translate(-49.77 -31.83)"/><path class="cls-2" d="M87.92,47.05a9.79,9.79,0,0,0-16.78-5.5A9.8,9.8,0,1,0,57.39,55.5c.3.28.6.56.88.87L69.85,69.43a1.86,1.86,0,0,0,2.78,0L85.7,54.64h0A9.78,9.78,0,0,0,87.92,47.05Z" transform="translate(-49.77 -31.83)"/><rect class="cls-3" x="19.31" y="67.89" width="5.79" height="9.88" rx="0.62" ry="0.62"/><path class="cls-4" d="M79,99.26h3.13a0,0,0,0,1,0,0v2.86a0,0,0,0,1,0,0H79a.85.85,0,0,1-.85-.85v-1.15A.85.85,0,0,1,79,99.26Z" transform="translate(110.47 169.55) rotate(180)"/><path class="cls-4" d="M12.92,67.43h3.13a0,0,0,0,1,0,0v2.86a0,0,0,0,1,0,0H12.92a.85.85,0,0,1-.85-.85V68.28A.85.85,0,0,1,12.92,67.43Z"/><path class="cls-4" d="M79,90.63h3.13a0,0,0,0,1,0,0v2.86a0,0,0,0,1,0,0H79a.85.85,0,0,1-.85-.85V91.49A.85.85,0,0,1,79,90.63Z" transform="translate(110.47 152.3) rotate(180)"/><path class="cls-4" d="M12.92,58.81h3.13a0,0,0,0,1,0,0v2.86a0,0,0,0,1,0,0H12.92a.85.85,0,0,1-.85-.85V59.66A.85.85,0,0,1,12.92,58.81Z"/><path class="cls-4" d="M79,82h3.13a0,0,0,0,1,0,0v2.86a0,0,0,0,1,0,0H79a.85.85,0,0,1-.85-.85V82.86A.85.85,0,0,1,79,82Z" transform="translate(110.47 135.05) rotate(180)"/><path class="cls-4" d="M12.92,50.19h3.13a0,0,0,0,1,0,0V53a0,0,0,0,1,0,0H12.92a.85.85,0,0,1-.85-.85V51A.85.85,0,0,1,12.92,50.19Z"/><rect class="cls-5" x="16.05" y="48.72" width="12.31" height="26.17" rx="1.51" ry="1.51"/><path class="cls-6" d="M73.46,106.72l1-4.41-2.09-2.48H65.82v4.72A2.14,2.14,0,0,0,68,106.72L69.85,105l.51,1.72Z" transform="translate(-49.77 -31.83)"/><polygon class="cls-7" points="23.69 74.89 23.25 76.56 21.18 76.56 20.59 74.89 23.69 74.89"/><circle class="cls-8" cx="21.38" cy="21.38" r="3.22"/><circle class="cls-9" cx="21.38" cy="21.38" r="2.27"/></svg>