<svg id="图层_1" data-name="图层 1" xmlns="http://www.w3.org/2000/svg" xmlns:xlink="http://www.w3.org/1999/xlink" viewBox="0 0 218.52 76.77"><defs><style>.cls-1,.cls-16{fill:none;}.cls-2{fill:#3f3f3f;}.cls-3,.cls-8{fill:#fff;}.cls-3{stroke:#a5a5a5;}.cls-16,.cls-3,.cls-8{stroke-miterlimit:10;}.cls-4{fill:#a5a5a5;}.cls-5{fill:#ededec;}.cls-6{fill:#b7b7b7;}.cls-7{fill:#d1d3d1;}.cls-8{stroke:#d5a52c;}.cls-9{fill:#1c1d1d;}.cls-10{fill:#272828;}.cls-11{fill:#d5a52c;}.cls-12{fill:#1f91c7;}.cls-13{fill:#afafaf;}.cls-14{clip-path:url(#clip-path);}.cls-15{fill:#7c7b7c;}.cls-16{stroke:#d1d1d1;stroke-linecap:round;stroke-width:2px;}</style><clipPath id="clip-path" transform="translate(13.44 -11.91)"><circle class="cls-1" cx="151.12" cy="61.69" r="4.05"/></clipPath></defs><title>雨水传感器和转接板</title><rect class="cls-2" width="104.32" height="76.77" rx="8.33" ry="8.33"/><circle class="cls-3" cx="6.52" cy="6.52" r="3.8"/><circle class="cls-3" cx="6.52" cy="70.09" r="3.8"/><circle class="cls-3" cx="97.08" cy="6.52" r="3.8"/><circle class="cls-3" cx="97.08" cy="70.09" r="3.8"/><path class="cls-4" d="M69.78,45.33V18.88H1.83l0,.84S1.94,24-3.87,25.94a.81.81,0,0,0-.52,1h0a.82.82,0,0,0,1.05.56,13.55,13.55,0,0,0,2.12-.91v43a.82.82,0,0,0,.81.81.82.82,0,0,0,.81-.81V25.51a7.92,7.92,0,0,0,3-5H5.12v56a.81.81,0,0,0,1.63,0v-56h6.16v56a.81.81,0,0,0,1.63,0v-56H21.6v56a.81.81,0,0,0,1.63,0v-56h7.06v56a.81.81,0,0,0,1.63,0v-56H39v56a.81.81,0,0,0,1.63,0v-56h7.06v56a.81.81,0,0,0,1.63,0v-56h7.06v56a.81.81,0,0,0,1.63,0v-56h7.06v56a.81.81,0,0,0,1.63,0v-56h1.45V47H74V45.33Z" transform="translate(13.44 -11.91)"/><path class="cls-4" d="M68.15,80H62.52V24.14a.81.81,0,0,0-1.63,0V80H53.83V24.14a.81.81,0,0,0-1.63,0V80H45.13V24.14a.81.81,0,0,0-1.63,0V80H36.44V24.14a.81.81,0,0,0-1.63,0V80H27.75V24.14a.81.81,0,0,0-1.63,0V80H19.05V24.14a.81.81,0,0,0-1.63,0V80H10.55V24.14a.81.81,0,0,0-1.63,0V80H3.49V27.76a.81.81,0,0,0-1.63,0V76.48a10.4,10.4,0,0,0-4.78-3.26V32.38a.82.82,0,0,0-.81-.81.82.82,0,0,0-.81.81V74.18l-.06.21c6.13,1.68,6.45,5.76,6.46,6.36v.09l0,.83H69.78V55.22H74V53.59H68.15Z" transform="translate(13.44 -11.91)"/><rect class="cls-5" x="86.93" y="29.02" width="14.26" height="18.61"/><rect class="cls-6" x="88.48" y="30.47" width="11.17" height="15.71"/><rect class="cls-7" x="99.65" y="33.07" width="1.55" height="10.51"/><rect class="cls-7" x="98.1" y="29.02" width="1.55" height="1.45"/><rect class="cls-4" x="93.29" y="33.6" width="1.55" height="1.45"/><rect class="cls-4" x="93.29" y="41.34" width="1.55" height="1.45"/><rect class="cls-7" x="98.1" y="46.18" width="1.55" height="1.45"/><rect class="cls-2" x="137.98" y="10.05" width="47.94" height="80.5" rx="5.67" ry="5.67" transform="translate(125.1 200.34) rotate(-90)"/><circle class="cls-8" cx="210.2" cy="56.68" r="3.48"/><circle class="cls-8" cx="210.2" cy="20" r="3.48"/><rect class="cls-9" x="197.27" y="45.38" width="5.77" height="9.83" rx="0.62" ry="0.62" transform="translate(163.3 238.54) rotate(-90)"/><path class="cls-4" d="M195.07,40.76h3.12a0,0,0,0,1,0,0v2.84a0,0,0,0,1,0,0h-3.12a.85.85,0,0,1-.85-.85V41.62A.85.85,0,0,1,195.07,40.76Z" transform="translate(251.83 -165.93) rotate(90)"/><path class="cls-4" d="M195.07,57h3.12a0,0,0,0,1,0,0v2.84a0,0,0,0,1,0,0h-3.12a.85.85,0,0,1-.85-.85V57.83A.85.85,0,0,1,195.07,57Z" transform="translate(151.24 242.7) rotate(-90)"/><path class="cls-4" d="M186.49,40.76h3.12a0,0,0,0,1,0,0v2.84a0,0,0,0,1,0,0h-3.12a.85.85,0,0,1-.85-.85V41.62A.85.85,0,0,1,186.49,40.76Z" transform="translate(243.25 -157.34) rotate(90)"/><path class="cls-4" d="M186.49,57h3.12a0,0,0,0,1,0,0v2.84a0,0,0,0,1,0,0h-3.12a.85.85,0,0,1-.85-.85V57.83A.85.85,0,0,1,186.49,57Z" transform="translate(142.66 234.11) rotate(-90)"/><path class="cls-4" d="M177.9,40.76H181a0,0,0,0,1,0,0v2.84a0,0,0,0,1,0,0H177.9a.85.85,0,0,1-.85-.85V41.62A.85.85,0,0,1,177.9,40.76Z" transform="translate(234.66 -148.76) rotate(90)"/><path class="cls-4" d="M177.9,57H181a0,0,0,0,1,0,0v2.84a0,0,0,0,1,0,0H177.9a.85.85,0,0,1-.85-.85V57.83A.85.85,0,0,1,177.9,57Z" transform="translate(134.07 225.53) rotate(-90)"/><rect class="cls-10" x="183.05" y="37.27" width="12.25" height="26.05" rx="1.51" ry="1.51" transform="translate(152.33 227.57) rotate(-90)"/><path class="cls-11" d="M202.21,48.82l-4.39-1-2.47,2.08v6.51h4.7a2.13,2.13,0,0,0,2.16-2.16l-1.72-1.85,1.72-.51Z" transform="translate(13.44 -11.91)"/><rect class="cls-5" x="123.85" y="40.93" width="14.26" height="18.61" transform="translate(275.4 88.56) rotate(-180)"/><rect class="cls-6" x="125.39" y="42.38" width="11.17" height="15.71" transform="translate(275.4 88.56) rotate(-180)"/><rect class="cls-7" x="123.85" y="44.98" width="1.55" height="10.51" transform="translate(262.69 88.56) rotate(-180)"/><rect class="cls-7" x="125.39" y="58.09" width="1.55" height="1.45" transform="translate(265.78 105.72) rotate(-180)"/><rect class="cls-4" x="130.2" y="53.52" width="1.55" height="1.45" transform="translate(275.4 96.58) rotate(-180)"/><rect class="cls-4" x="130.2" y="45.78" width="1.55" height="1.45" transform="translate(275.4 81.09) rotate(-180)"/><rect class="cls-7" x="125.39" y="40.93" width="1.55" height="1.45" transform="translate(265.78 71.4) rotate(-180)"/><rect class="cls-12" x="144.23" y="54.8" width="13.8" height="13.8" transform="translate(102.87 200.91) rotate(-90)"/><circle class="cls-13" cx="164.57" cy="49.78" r="4.05"/><g class="cls-14"><path class="cls-15" d="M150.69,57.88v3.37h-3.38a.44.44,0,1,0,0,.87h3.38v3.37a.44.44,0,0,0,.88,0V62.13h3.38a.44.44,0,1,0,0-.87h-3.38V57.88a.44.44,0,0,0-.88,0Z" transform="translate(13.44 -11.91)"/></g><rect class="cls-10" x="165.33" y="23.96" width="4.25" height="6.51"/><rect class="cls-4" x="169.59" y="23.96" width="1.53" height="0.52"/><rect class="cls-4" x="169.59" y="25.96" width="1.53" height="0.52"/><rect class="cls-4" x="169.59" y="27.95" width="1.53" height="0.52"/><rect class="cls-4" x="169.59" y="29.95" width="1.53" height="0.52"/><rect class="cls-4" x="163.8" y="23.96" width="1.53" height="0.52"/><rect class="cls-4" x="163.8" y="25.96" width="1.53" height="0.52"/><rect class="cls-4" x="163.8" y="27.95" width="1.53" height="0.52"/><rect class="cls-4" x="163.8" y="29.95" width="1.53" height="0.52"/><rect class="cls-5" x="86.93" y="29.02" width="14.26" height="18.61"/><rect class="cls-5" x="137.29" y="29.02" width="14.26" height="18.61"/><line class="cls-16" x1="93.27" y1="34.32" x2="144.42" y2="34.32"/><line class="cls-16" x1="93.27" y1="42.33" x2="144.42" y2="42.33"/></svg>