<svg id="图层_1" data-name="图层 1" xmlns="http://www.w3.org/2000/svg" viewBox="0 0 432.85 177.51"><defs><style>.cls-1{fill:#3f3f3f;}.cls-2{fill:#ededec;}.cls-3{fill:#b7b7b7;}.cls-4{fill:#d1d3d1;}.cls-5{fill:#a5a5a5;}.cls-6{fill:#dbdbdb;}.cls-7{fill:#c2c4c2;}.cls-8{fill:#a9aaa8;}.cls-9{fill:#1c1d1d;}.cls-10{fill:#272828;}.cls-11,.cls-19{fill:#d5a52c;}.cls-12{fill:#b98a22;}.cls-13,.cls-15{fill:#fff;}.cls-14{fill:#181818;}.cls-15{stroke:#d5a52c;stroke-width:1.86px;}.cls-15,.cls-23{stroke-miterlimit:10;}.cls-16{fill:#686868;}.cls-17{font-size:7.05px;fill:#231815;font-family:AdobeSongStd-Light-GBpc-EUC-H, Adobe Song Std;}.cls-18{fill:#0f6a46;}.cls-19{font-size:8.04px;font-family:MicrosoftYaHei, Microsoft YaHei;}.cls-20{letter-spacing:-0.01em;}.cls-21{letter-spacing:0em;}.cls-22{letter-spacing:-0.01em;}.cls-23{fill:none;stroke:#d1d1d1;stroke-linecap:round;stroke-width:1.41px;}</style></defs><title>1</title><rect class="cls-1" x="242.66" y="9.06" width="190.19" height="163.3" rx="6.7" ry="6.7"/><rect class="cls-2" x="254.65" y="52.37" width="28" height="36.53" transform="translate(532.39 108.31) rotate(180)"/><rect class="cls-3" x="257.69" y="55.21" width="21.92" height="30.84" transform="translate(532.39 108.31) rotate(180)"/><rect class="cls-4" x="254.65" y="60.32" width="3.04" height="20.64" transform="translate(507.43 108.31) rotate(180)"/><rect class="cls-4" x="257.69" y="86.05" width="3.04" height="2.84" transform="translate(513.51 142) rotate(180)"/><rect class="cls-5" x="267.13" y="77.08" width="3.04" height="2.84" transform="translate(532.39 124.04) rotate(180)"/><rect class="cls-5" x="267.13" y="61.88" width="3.04" height="2.84" transform="translate(532.39 93.65) rotate(180)"/><rect class="cls-4" x="257.69" y="52.37" width="3.04" height="2.84" transform="translate(513.51 74.63) rotate(180)"/><polygon class="cls-6" points="252.8 53.1 252.8 48 248.86 48 248.86 27.36 252.8 27.36 252.8 22.26 272.57 22.26 272.83 53.1 252.8 53.1"/><rect class="cls-7" x="262.59" y="67.98" width="10.79" height="18.19" transform="translate(186 312.1) rotate(-90)"/><rect class="cls-7" x="262.59" y="56.14" width="10.79" height="18.19" transform="translate(197.84 300.27) rotate(-90)"/><circle class="cls-8" cx="267.89" cy="43.8" r="1.45"/><circle class="cls-8" cx="267.95" cy="32.28" r="1.45"/><rect class="cls-9" x="330.35" y="159.8" width="10.39" height="17.72" rx="0.62" ry="0.62"/><path class="cls-5" d="M352.34,191.93h6.29a0,0,0,0,1,0,0v5.12a0,0,0,0,1,0,0h-6.29a.85.85,0,0,1-.85-.85v-3.42A.85.85,0,0,1,352.34,191.93Z" transform="translate(705.22 356.03) rotate(180)"/><path class="cls-5" d="M318.22,159h6.29a0,0,0,0,1,0,0v5.12a0,0,0,0,1,0,0h-6.29a.85.85,0,0,1-.85-.85v-3.42A.85.85,0,0,1,318.22,159Z"/><path class="cls-5" d="M352.34,176.47h6.29a0,0,0,0,1,0,0v5.12a0,0,0,0,1,0,0h-6.29a.85.85,0,0,1-.85-.85v-3.42A.85.85,0,0,1,352.34,176.47Z" transform="translate(705.22 325.1) rotate(180)"/><path class="cls-5" d="M318.22,143.51h6.29a0,0,0,0,1,0,0v5.12a0,0,0,0,1,0,0h-6.29a.85.85,0,0,1-.85-.85v-3.42A.85.85,0,0,1,318.22,143.51Z"/><path class="cls-5" d="M352.34,161h6.29a0,0,0,0,1,0,0v5.12a0,0,0,0,1,0,0h-6.29a.85.85,0,0,1-.85-.85v-3.42A.85.85,0,0,1,352.34,161Z" transform="translate(705.22 294.17) rotate(180)"/><path class="cls-5" d="M318.22,128h6.29a0,0,0,0,1,0,0v5.12a0,0,0,0,1,0,0h-6.29a.85.85,0,0,1-.85-.85V128.9A.85.85,0,0,1,318.22,128Z"/><rect class="cls-10" x="324.51" y="125.42" width="22.07" height="46.93" rx="1.51" ry="1.51"/><path class="cls-11" d="M343.12,205.31l1.79-7.91L341.15,193H329.42v8.47a3.84,3.84,0,0,0,3.89,3.89l3.34-3.09.91,3.09Z" transform="translate(-4.9 -32.96)"/><polygon class="cls-12" points="338.21 172.35 337.42 175.35 333.71 175.35 332.65 172.35 338.21 172.35"/><rect class="cls-13" x="290.39" y="42.08" width="34" height="4.88"/><rect class="cls-13" x="290.39" y="49.64" width="34" height="4.88"/><rect class="cls-13" x="290.39" y="57.19" width="34" height="4.88"/><rect class="cls-13" x="290.39" y="72.3" width="34" height="4.88"/><rect class="cls-13" x="290.39" y="94.96" width="34" height="4.88"/><rect class="cls-13" x="290.39" y="64.74" width="34" height="4.88"/><rect class="cls-13" x="290.39" y="87.41" width="34" height="4.88"/><rect class="cls-13" x="290.39" y="79.85" width="34" height="4.88"/><rect class="cls-14" x="294.62" y="38.73" width="25.54" height="66.48"/><circle class="cls-15" cx="252.78" cy="161.54" r="6.66"/><circle class="cls-15" cx="422.37" cy="161.54" r="6.66"/><circle class="cls-16" cx="404.43" cy="118.09" r="9.73"/><circle class="cls-9" cx="404.43" cy="118.09" r="8.95"/><circle class="cls-13" cx="379.67" cy="75" r="12.92"/><path class="cls-9" d="M391.56,97.08v21.74a12.92,12.92,0,0,0,0-21.74Z" transform="translate(-4.9 -32.96)"/><text class="cls-17" transform="translate(384.28 80.79) rotate(180)">220</text><text class="cls-17" transform="translate(384.28 73.24) rotate(180)">16V</text><text class="cls-17" transform="translate(384.28 66.66) rotate(180)">RVT</text><rect class="cls-6" x="395.51" y="17.92" width="27.33" height="27.33"/><circle class="cls-9" cx="399.19" cy="21.13" r="2.07"/><circle class="cls-9" cx="419.37" cy="21.13" r="2.07"/><circle class="cls-9" cx="399.19" cy="41.66" r="2.07"/><circle class="cls-9" cx="419.37" cy="41.66" r="2.07"/><circle class="cls-18" cx="409.59" cy="31.58" r="5.29"/><text class="cls-19" transform="translate(248.7 61.9) rotate(90)">Sound <tspan class="cls-20" x="27.18" y="0">r</tspan><tspan class="cls-21" x="30.14" y="0">eco</tspan><tspan class="cls-22" x="43.84" y="0">r</tspan><tspan x="46.8" y="0">dist sensor</tspan></text><circle class="cls-1" cx="80.79" cy="80.79" r="80.79"/><circle class="cls-14" cx="80.79" cy="80.79" r="76.16"/><circle class="cls-1" cx="80.79" cy="80.79" r="70.51"/><circle class="cls-14" cx="80.79" cy="80.79" r="33.74"/><circle class="cls-1" cx="80.79" cy="80.79" r="18.11"/><circle class="cls-14" cx="80.79" cy="80.79" r="15.78"/><line class="cls-23" x1="161.59" y1="76.99" x2="268.63" y2="32.15"/><line class="cls-23" x1="161.59" y1="74.32" x2="268.63" y2="43.67"/></svg>