<svg id="图层_1" data-name="图层 1" xmlns="http://www.w3.org/2000/svg" viewBox="0 0 45.74 112.82"><defs><style>.cls-1{fill:#3f3f3f;}.cls-2{fill:#fff;stroke:#d5a52c;stroke-miterlimit:10;}.cls-3{font-size:3px;font-family:MicrosoftYaHei, Microsoft YaHei;letter-spacing:-0.03em;}.cls-3,.cls-8{fill:#d5a52c;}.cls-4{letter-spacing:0em;}.cls-5{fill:#1c1d1d;}.cls-6{fill:#a5a5a5;}.cls-7{fill:#272828;}.cls-9{fill:#b98a22;}.cls-10{fill:#e0e0e0;}.cls-11{fill:#ccc;}.cls-12{fill:#eb982f;}.cls-13{fill:#f6b347;}</style></defs><title>继电器</title><rect class="cls-1" width="45.74" height="110" rx="5.67" ry="5.67"/><circle class="cls-2" cx="5.68" cy="104.55" r="3.48"/><circle class="cls-2" cx="40.37" cy="104.55" r="3.48"/><text class="cls-3" transform="translate(42.73 37.94) rotate(90)">R<tspan class="cls-4" x="1.87" y="0">elay Module</tspan></text><rect class="cls-5" x="21" y="102.99" width="5.77" height="9.83" rx="0.62" ry="0.62"/><path class="cls-6" d="M86.51,102.44h3.12a0,0,0,0,1,0,0v2.84a0,0,0,0,1,0,0H86.51a.85.85,0,0,1-.85-.85v-1.14A.85.85,0,0,1,86.51,102.44Z" transform="translate(119.63 207.82) rotate(180)"/><path class="cls-6" d="M14.64,102.53h3.12a0,0,0,0,1,0,0v2.84a0,0,0,0,1,0,0H14.64a.85.85,0,0,1-.85-.85v-1.14A.85.85,0,0,1,14.64,102.53Z"/><path class="cls-6" d="M86.51,93.86h3.12a0,0,0,0,1,0,0V96.7a0,0,0,0,1,0,0H86.51a.85.85,0,0,1-.85-.85V94.71A.85.85,0,0,1,86.51,93.86Z" transform="translate(119.63 190.65) rotate(180)"/><path class="cls-6" d="M14.64,93.95h3.12a0,0,0,0,1,0,0v2.84a0,0,0,0,1,0,0H14.64a.85.85,0,0,1-.85-.85V94.8A.85.85,0,0,1,14.64,93.95Z"/><path class="cls-6" d="M86.51,85.28h3.12a0,0,0,0,1,0,0v2.84a0,0,0,0,1,0,0H86.51a.85.85,0,0,1-.85-.85V86.13A.85.85,0,0,1,86.51,85.28Z" transform="translate(119.63 173.48) rotate(180)"/><path class="cls-6" d="M14.64,85.36h3.12a0,0,0,0,1,0,0v2.84a0,0,0,0,1,0,0H14.64a.85.85,0,0,1-.85-.85V86.21A.85.85,0,0,1,14.64,85.36Z"/><rect class="cls-7" x="17.75" y="83.9" width="12.25" height="26.05" rx="1.51" ry="1.51"/><path class="cls-8" d="M81,109.87l1-4.39L79.92,103H73.41v4.7a2.13,2.13,0,0,0,2.16,2.16l1.85-1.72.51,1.72Z" transform="translate(-55.65 0.09)"/><polygon class="cls-9" points="25.36 109.96 24.92 111.62 22.86 111.62 22.27 109.96 25.36 109.96"/><rect class="cls-6" x="4.31" y="18.17" width="37.17" height="27.63"/><rect class="cls-10" x="6.77" y="26.35" width="10.85" height="13.76"/><rect class="cls-10" x="18.28" y="26.35" width="10.85" height="13.76"/><rect class="cls-10" x="29.8" y="26.35" width="10.85" height="13.76"/><path class="cls-11" d="M68.87,34.62H62.42v1.56h6.45a.78.78,0,0,0,0-1.56Z" transform="translate(-55.65 0.09)"/><path class="cls-11" d="M80.39,34.62H73.94v1.56h6.45a.78.78,0,0,0,0-1.56Z" transform="translate(-55.65 0.09)"/><path class="cls-11" d="M91.91,34.62H85.45v1.56h6.45a.78.78,0,0,0,0-1.56Z" transform="translate(-55.65 0.09)"/><rect class="cls-12" x="5.95" y="50.87" width="35.53" height="23.76"/><rect class="cls-13" x="5.95" y="60.97" width="4.44" height="3.54"/></svg>