<svg id="图层_1" data-name="图层 1" xmlns="http://www.w3.org/2000/svg" viewBox="0 0 188.58 160.78"><defs><style>.cls-1{fill:#ddd;}.cls-2{fill:#b44822;}.cls-3{fill:#c6c6c6;}.cls-4,.cls-9{fill:#fff;}.cls-5{fill:#6d6c6c;}.cls-6{fill:#a5a5a5;}.cls-7{fill:#272828;}.cls-8{fill:none;stroke:#919191;stroke-linecap:round;stroke-miterlimit:10;stroke-width:2px;}.cls-9{font-size:6px;font-family:AdobeSongStd-Light-GBpc-EUC-H, Adobe Song Std;}</style></defs><title>未标题-5</title><path class="cls-1" d="M262.9,52.62l23.36,17.33a13.41,13.41,0,0,1,5.42,10.77V180a13.41,13.41,0,0,1-5.42,10.77L262.9,208.12a13.41,13.41,0,0,1-8,2.64H157.12a13.41,13.41,0,0,1-8-2.64l-23.36-17.33A13.41,13.41,0,0,1,120.35,180V80.72a13.41,13.41,0,0,1,5.42-10.77l23.36-17.33a13.41,13.41,0,0,1,8-2.64h97.78A13.41,13.41,0,0,1,262.9,52.62Z" transform="translate(-120.35 -49.98)"/><polygon class="cls-2" points="135.53 5.22 165.77 27.66 165.77 133.13 135.53 155.56 35.81 155.56 5.57 133.13 5.57 27.66 35.81 5.22 135.53 5.22"/><circle class="cls-3" cx="31.67" cy="30.22" r="10.67"/><circle class="cls-4" cx="31.67" cy="30.22" r="7.67"/><circle class="cls-5" cx="31.64" cy="21" r="1.03"/><circle class="cls-5" cx="146.57" cy="72.76" r="1.03" transform="translate(-135.12 50.07) rotate(-36)"/><circle class="cls-5" cx="143.24" cy="77.38" r="1.03" transform="translate(-94.97 139.72) rotate(-72)"/><circle class="cls-5" cx="143.26" cy="83.08" r="1.03" transform="translate(-139.01 -1.64) rotate(-18)"/><circle class="cls-5" cx="146.62" cy="87.68" r="1.03" transform="translate(-130.84 104.78) rotate(-54)"/><circle class="cls-5" cx="31.7" cy="39.44" r="1.03"/><circle class="cls-5" cx="157.46" cy="87.64" r="1.03" transform="translate(-141.79 59.31) rotate(-36)"/><circle class="cls-5" cx="160.79" cy="83.02" r="1.03" transform="translate(-88.2 160.31) rotate(-72)"/><circle class="cls-5" cx="160.77" cy="77.32" r="1.03" transform="translate(-136.37 3.49) rotate(-18)"/><circle class="cls-5" cx="157.41" cy="72.72" r="1.03" transform="translate(-114.3 107.35) rotate(-54)"/><circle class="cls-3" cx="141.33" cy="134.91" r="10.67"/><circle class="cls-4" cx="141.33" cy="134.91" r="7.67"/><circle class="cls-5" cx="141.3" cy="125.69" r="1.03"/><circle class="cls-5" cx="256.24" cy="177.45" r="1.03" transform="translate(-175.71 134.53) rotate(-36)"/><circle class="cls-5" cx="252.9" cy="182.07" r="1.03" transform="translate(-118.76 316.36) rotate(-72)"/><circle class="cls-5" cx="252.92" cy="187.77" r="1.03" transform="translate(-165.99 37.37) rotate(-18)"/><circle class="cls-5" cx="256.29" cy="192.37" r="1.03" transform="translate(-170.33 236.66) rotate(-54)"/><circle class="cls-5" cx="141.36" cy="144.13" r="1.03"/><circle class="cls-5" cx="267.12" cy="192.33" r="1.03" transform="translate(-182.38 143.77) rotate(-36)"/><circle class="cls-5" cx="270.46" cy="187.71" r="1.03" transform="translate(-111.99 336.95) rotate(-72)"/><circle class="cls-5" cx="270.44" cy="182.01" r="1.03" transform="translate(-163.36 42.5) rotate(-18)"/><circle class="cls-5" cx="267.07" cy="177.41" r="1.03" transform="translate(-153.79 239.22) rotate(-54)"/><rect class="cls-6" x="50.55" y="71.5" width="2" height="26.74"/><rect class="cls-6" x="182.36" y="118.99" width="2" height="32.04" transform="translate(-72 268.4) rotate(-90)"/><rect class="cls-6" x="182.36" y="109.07" width="2" height="32.04" transform="translate(-62.08 258.48) rotate(-90)"/><rect class="cls-6" x="182.36" y="128.91" width="2" height="32.04" transform="translate(-81.91 278.32) rotate(-90)"/><rect class="cls-6" x="182.36" y="125.6" width="2" height="32.04" transform="translate(-78.61 275.01) rotate(-90)"/><rect class="cls-6" x="182.36" y="112.38" width="2" height="32.04" transform="translate(-65.38 261.79) rotate(-90)"/><rect class="cls-6" x="182.36" y="115.69" width="2" height="32.04" transform="translate(-68.69 265.09) rotate(-90)"/><rect class="cls-6" x="182.36" y="122.3" width="2" height="32.04" transform="translate(-75.3 271.71) rotate(-90)"/><rect class="cls-6" x="53.5" y="71.5" width="2" height="26.74"/><rect class="cls-6" x="56.45" y="71.5" width="2" height="26.74"/><rect class="cls-6" x="59.41" y="71.5" width="2" height="26.74"/><rect class="cls-6" x="62.36" y="71.5" width="2" height="26.74"/><rect class="cls-6" x="65.31" y="71.5" width="2" height="26.74"/><rect class="cls-6" x="68.27" y="71.5" width="2" height="26.74"/><rect class="cls-6" x="74.17" y="71.5" width="2" height="26.74"/><rect class="cls-6" x="71.22" y="71.5" width="2" height="26.74"/><rect class="cls-7" x="49.02" y="73.28" width="28" height="23.18"/><rect class="cls-7" x="39.4" y="133.1" width="7.64" height="7.64"/><rect class="cls-7" x="114.52" y="133.1" width="7.64" height="7.64"/><rect class="cls-7" x="103.79" y="133.1" width="7.64" height="7.64"/><rect class="cls-7" x="93.06" y="133.1" width="7.64" height="7.64"/><rect class="cls-7" x="82.33" y="133.1" width="7.64" height="7.64"/><rect class="cls-7" x="71.6" y="133.1" width="7.64" height="7.64"/><rect class="cls-7" x="60.86" y="133.1" width="7.64" height="7.64"/><rect class="cls-7" x="50.13" y="133.1" width="7.64" height="7.64"/><rect class="cls-7" x="264.3" y="114.92" width="7.64" height="7.64" transform="translate(29.03 336.89) rotate(-90)"/><rect class="cls-7" x="264.3" y="125.66" width="7.64" height="7.64" transform="translate(18.3 347.62) rotate(-90)"/><rect class="cls-7" x="264.3" y="136.39" width="7.64" height="7.64" transform="translate(7.57 358.36) rotate(-90)"/><rect class="cls-7" x="264.3" y="147.12" width="7.64" height="7.64" transform="translate(-3.17 369.09) rotate(-90)"/><line class="cls-8" x1="147.78" y1="100.97" x2="187.58" y2="100.97"/><line class="cls-8" x1="147.78" y1="90.23" x2="187.58" y2="90.23"/><line class="cls-8" x1="147.78" y1="80.06" x2="187.58" y2="80.06"/><line class="cls-8" x1="147.78" y1="69.32" x2="187.58" y2="69.32"/><rect class="cls-7" x="122.11" y="31.91" width="16.05" height="6.04"/><rect class="cls-7" x="122.11" y="39.1" width="16.05" height="6.04"/><rect class="cls-6" x="127.09" y="33.83" width="6.25" height="2.14"/><rect class="cls-6" x="127.09" y="40.52" width="6.25" height="2.14"/><text class="cls-9" transform="translate(117.33 119.67) rotate(90)">SCK</text><text class="cls-9" transform="translate(141.77 99.49) rotate(180)">GND</text><text class="cls-9" transform="translate(141.4 88.86) rotate(180)">VCC</text><text class="cls-9" transform="translate(140.76 78.22) rotate(180)">SDA</text><text class="cls-9" transform="translate(140.15 67.59) rotate(180)">SCL</text><text class="cls-9" transform="translate(106.5 118.75) rotate(90)">MSO</text><text class="cls-9" transform="translate(95.67 117.79) rotate(90)">MOSI</text><text class="cls-9" transform="translate(84.84 122.36) rotate(90)">SS</text><text class="cls-9" transform="translate(74.01 118.84) rotate(90)">VCC</text><text class="cls-9" transform="translate(63.18 118.47) rotate(90)">GND</text><text class="cls-9" transform="translate(52.35 119.99) rotate(90)">IRQ</text><text class="cls-9" transform="translate(41.52 117.73) rotate(90)">RSTO</text></svg>