<svg id="图层_1" data-name="图层 1" xmlns="http://www.w3.org/2000/svg" viewBox="0 0 223.08 175.49"><defs><style>.cls-1{fill:#403f3f;}.cls-2{fill:#ededec;}.cls-3{fill:#b7b7b7;}.cls-4{fill:#d1d3d1;}.cls-5{fill:#a5a5a5;}.cls-6{fill:#272828;}.cls-7{fill:#1c1d1d;}.cls-8{fill:#d5a52c;}.cls-10,.cls-11,.cls-12,.cls-9{fill:#fff;}.cls-9{stroke:#d5a52c;stroke-miterlimit:10;stroke-width:1.3px;}.cls-10{font-size:10.39px;}.cls-10,.cls-12{font-family:MicrosoftYaHeiLight, Microsoft YaHei;}.cls-11{font-size:7.8px;font-family:MicrosoftYaHei, Microsoft YaHei;}.cls-12{font-size:5.2px;}.cls-13{fill:#d8d8d8;}.cls-14{fill:#c9c9c9;}.cls-15{fill:#323333;}</style></defs><title>电机驱动板</title><rect class="cls-1" x="0.02" y="0.03" width="223.03" height="170.75" rx="12.7" ry="12.7"/><rect class="cls-2" x="115.15" y="84.63" width="24.78" height="32.33" transform="translate(-70.82 187.69) rotate(-90)"/><rect class="cls-3" x="117.84" y="87.14" width="19.4" height="27.29" transform="translate(-70.82 187.69) rotate(-90)"/><rect class="cls-4" x="126.19" y="80.62" width="2.69" height="18.26" transform="translate(-59.78 176.64) rotate(-90)"/><rect class="cls-4" x="111.29" y="91.18" width="2.69" height="2.52" transform="translate(-77.37 164.43) rotate(-90)"/><rect class="cls-4" x="141.1" y="91.18" width="2.69" height="2.52" transform="translate(-47.56 194.24) rotate(-90)"/><rect class="cls-5" x="192.07" y="94.55" width="2.1" height="22.69" transform="translate(-10.34 258.37) rotate(-90)"/><rect class="cls-5" x="192.07" y="91.01" width="2.1" height="22.69" transform="translate(-6.8 254.83) rotate(-90)"/><rect class="cls-5" x="192.07" y="87.47" width="2.1" height="22.69" transform="translate(-3.26 251.29) rotate(-90)"/><rect class="cls-5" x="192.07" y="83.93" width="2.1" height="22.69" transform="translate(0.28 247.75) rotate(-90)"/><rect class="cls-5" x="192.07" y="80.39" width="2.1" height="22.69" transform="translate(3.82 244.21) rotate(-90)"/><rect class="cls-5" x="192.07" y="76.85" width="2.1" height="22.69" transform="translate(7.36 240.67) rotate(-90)"/><rect class="cls-5" x="192.07" y="73.31" width="2.1" height="22.69" transform="translate(10.9 237.13) rotate(-90)"/><rect class="cls-5" x="192.07" y="69.77" width="2.1" height="22.69" transform="translate(14.44 233.59) rotate(-90)"/><rect class="cls-6" x="178.44" y="85.34" width="29.36" height="16.82" transform="translate(1.8 246.23) rotate(-90)"/><rect class="cls-7" x="131.27" y="151.32" width="14.17" height="24.17" rx="0.62" ry="0.62"/><rect class="cls-6" x="123.3" y="104.43" width="30.11" height="64.02" rx="1.51" ry="1.51"/><path class="cls-8" d="M239.56,209.09,242,198.31l-5.12-6.07h-16v11.55a5.24,5.24,0,0,0,5.3,5.3l4.55-4.22,1.24,4.22Z" transform="translate(-97.57 -40.64)"/><circle class="cls-9" cx="15.93" cy="157.21" r="7.79"/><circle class="cls-9" cx="207.8" cy="157.21" r="7.79"/><text class="cls-10" transform="translate(22.14 142.4) rotate(-90)">G</text><text class="cls-10" transform="translate(35 141.53) rotate(-90)">V </text><text class="cls-10" transform="translate(46.99 140.61) rotate(-90)">S</text><text class="cls-10" transform="translate(195.37 142.4) rotate(-90)">G</text><text class="cls-10" transform="translate(208.23 141.53) rotate(-90)">V </text><text class="cls-10" transform="translate(220.22 140.61) rotate(-90)">S</text><text class="cls-11" transform="translate(27.69 62.5)">2</text><rect class="cls-2" x="115.15" y="117.14" width="24.78" height="32.33" transform="translate(-103.33 220.2) rotate(-90)"/><rect class="cls-3" x="117.84" y="119.66" width="19.4" height="27.29" transform="translate(-103.33 220.2) rotate(-90)"/><rect class="cls-4" x="126.19" y="113.13" width="2.69" height="18.26" transform="translate(-92.29 209.16) rotate(-90)"/><rect class="cls-4" x="111.29" y="123.69" width="2.69" height="2.52" transform="translate(-109.88 196.94) rotate(-90)"/><rect class="cls-4" x="141.1" y="123.69" width="2.69" height="2.52" transform="translate(-80.07 226.75) rotate(-90)"/><text class="cls-11" transform="translate(27.69 95.01)">1</text><rect class="cls-2" x="286.22" y="80.16" width="24.78" height="32.33" transform="translate(104.72 354.29) rotate(-90)"/><rect class="cls-3" x="288.91" y="82.68" width="19.4" height="27.29" transform="translate(104.72 354.29) rotate(-90)"/><rect class="cls-4" x="297.26" y="76.15" width="2.69" height="18.26" transform="translate(115.76 343.24) rotate(-90)"/><rect class="cls-4" x="282.36" y="86.71" width="2.69" height="2.52" transform="translate(98.16 331.03) rotate(-90)"/><rect class="cls-4" x="312.17" y="86.71" width="2.69" height="2.52" transform="translate(127.97 360.84) rotate(-90)"/><text class="cls-11" transform="translate(198.75 58.03)">3</text><rect class="cls-2" x="286.22" y="107.89" width="24.78" height="32.33" transform="translate(76.98 382.02) rotate(-90)"/><rect class="cls-3" x="288.91" y="110.41" width="19.4" height="27.29" transform="translate(76.98 382.02) rotate(-90)"/><rect class="cls-4" x="297.26" y="103.88" width="2.69" height="18.26" transform="translate(88.03 370.98) rotate(-90)"/><rect class="cls-4" x="282.36" y="114.44" width="2.69" height="2.52" transform="translate(70.43 358.76) rotate(-90)"/><rect class="cls-4" x="312.17" y="114.44" width="2.69" height="2.52" transform="translate(100.24 388.57) rotate(-90)"/><text class="cls-11" transform="translate(198.75 85.76)">4</text><rect class="cls-2" x="286.22" y="140.4" width="24.78" height="32.33" transform="translate(44.47 414.53) rotate(-90)"/><rect class="cls-3" x="288.91" y="142.92" width="19.4" height="27.29" transform="translate(44.47 414.53) rotate(-90)"/><rect class="cls-4" x="297.26" y="136.39" width="2.69" height="18.26" transform="translate(55.51 403.49) rotate(-90)"/><rect class="cls-4" x="282.36" y="146.95" width="2.69" height="2.52" transform="translate(37.92 391.27) rotate(-90)"/><rect class="cls-4" x="312.17" y="146.95" width="2.69" height="2.52" transform="translate(67.73 421.08) rotate(-90)"/><text class="cls-11" transform="translate(198.75 118.27)">5</text><rect class="cls-5" x="79" y="89.62" width="23.31" height="1.25"/><rect class="cls-5" x="79" y="99.74" width="25.97" height="1.25"/><rect class="cls-6" x="82.1" y="86.29" width="17.11" height="8.23"/><rect class="cls-6" x="82.1" y="96.25" width="19.92" height="8.23"/><text class="cls-12" transform="translate(82.1 150.02)">DC</text><path class="cls-13" d="M196.68,195.3h-1.9v.7H171.45v-.7h-1.9v16.22h27.13Zm-23,12.81.47-5.49h2.05l.41,5.49Zm16.17,0,.47-5.49h2.05l.41,5.49Z" transform="translate(-97.57 -40.64)"/><polygon class="cls-14" points="70.3 172.16 71.87 170.85 99.09 170.85 100.8 172.16 70.3 172.16"/><rect class="cls-15" x="190.31" y="194.44" width="1.5" height="4.61" transform="translate(290.25 -34.96) rotate(90)"/><rect class="cls-15" x="174.41" y="194.44" width="1.5" height="4.61" transform="translate(274.35 -19.06) rotate(90)"/><rect class="cls-15" x="183.12" y="194.36" width="0.54" height="3.82" transform="translate(282.09 -27.77) rotate(90)"/></svg>