<svg id="图层_1" data-name="图层 1" xmlns="http://www.w3.org/2000/svg" viewBox="0 0 318.63 156.98"><defs><style>.cls-1,.cls-14,.cls-2,.cls-3{fill:none;stroke-miterlimit:10;}.cls-1{stroke:#743b1e;}.cls-1,.cls-2,.cls-3{stroke-width:6.34px;}.cls-2{stroke:#e71f19;}.cls-3{stroke:#efea3a;}.cls-4{fill:#d1d1d1;}.cls-5{fill:#f2f2f2;}.cls-6{fill:#2e90c3;}.cls-7{fill:#227aa1;}.cls-8{fill:#43a4ca;}.cls-9{fill:#56afcb;}.cls-10{fill:#b3b9bb;}.cls-11{fill:#d1d3d3;}.cls-12{fill:#ededec;}.cls-13,.cls-18{fill:#2f2f2f;}.cls-14{stroke:#b09d60;stroke-width:1.49px;}.cls-15,.cls-16,.cls-20,.cls-21{fill:#b09d60;}.cls-16{font-size:20.91px;}.cls-16,.cls-18,.cls-21{font-family:DengXian-Regular, DengXian;}.cls-17,.cls-20{font-size:16.43px;}.cls-17{letter-spacing:0em;}.cls-18{font-size:10.46px;}.cls-19{font-size:14.94px;}.cls-20{font-family:DengXian-Bold, DengXian;font-weight:700;}.cls-21{font-size:7.47px;}</style></defs><title>舵机</title><line class="cls-1" x1="140.65" y1="144.81" x2="302.3" y2="144.81"/><line class="cls-2" x1="140.37" y1="130.67" x2="302.01" y2="130.67"/><line class="cls-3" x1="140.65" y1="116.53" x2="302.3" y2="116.53"/><rect class="cls-4" x="329.24" y="143.86" width="25.13" height="46.47" transform="translate(647.78 298.66) rotate(180)"/><path class="cls-5" d="M354.39,180.33l-4.4,8.58a.61.61,0,0,1-1.09,0l-4.4-8.58Z" transform="translate(-35.84 -35.52)"/><rect class="cls-5" x="330.38" y="175.91" width="24.01" height="4.41" transform="translate(648.93 320.72) rotate(180)"/><rect class="cls-5" x="318.2" y="164.31" width="28.12" height="3.92" transform="translate(130.15 463) rotate(-90)"/><path class="cls-5" d="M354.47,152.05l-4.4-8.58a.61.61,0,0,0-1.09,0l-4.4,8.58Z" transform="translate(-35.84 -35.52)"/><rect class="cls-5" x="330.3" y="152.05" width="24.17" height="4.41" transform="translate(648.93 273) rotate(180)"/><rect class="cls-5" x="329.24" y="141.17" width="2.2" height="51.33" transform="translate(624.85 298.15) rotate(180)"/><rect class="cls-6" x="33.13" y="39.94" width="155.45" height="116.28"/><rect class="cls-7" y="59.65" width="33.13" height="24.79"/><rect class="cls-7" x="188.36" y="59.61" width="34.62" height="24.79"/><rect class="cls-8" x="46.79" y="20.92" width="57.41" height="19.02"/><rect class="cls-9" x="104.2" y="20.92" width="25.45" height="19.02"/><rect class="cls-10" x="51.46" y="14.76" width="19.86" height="6.16"/><rect class="cls-11" x="49.53" y="10.08" width="23.71" height="7.77"/><path class="cls-12" d="M49.53,0H153.1a2.68,2.68,0,0,1,2.68,2.68V7.4a2.68,2.68,0,0,1-2.68,2.68H49.53a0,0,0,0,1,0,0V0A0,0,0,0,1,49.53,0Z"/><rect class="cls-13" x="36.59" y="76.73" width="148.64" height="77.01" rx="5.67" ry="5.67"/><rect class="cls-14" x="43.8" y="82.71" width="134.22" height="65.06" rx="3.59" ry="3.59"/><line class="cls-14" x1="43.8" y1="106.61" x2="178.02" y2="106.61"/><line class="cls-14" x1="43.8" y1="130.51" x2="178.02" y2="130.51"/><rect class="cls-15" x="45.55" y="108.85" width="130.21" height="19.17"/><text class="cls-16" transform="translate(56.75 100.82)">Towe<tspan class="cls-17" x="48.19" y="0">R</tspan></text><text class="cls-18" transform="translate(70.02 116.88)">Micro</text><text class="cls-18" transform="translate(117.16 116.88)">servo</text><text class="cls-18" transform="translate(101.02 123.6)">9g</text><text class="cls-16" transform="translate(124.97 100.82)">P<tspan class="cls-19" x="11.54" y="0">A</tspan><tspan x="21.04" y="0">o</tspan></text><text class="cls-20" transform="translate(93.04 144.89)">SG90</text><text class="cls-21" transform="translate(158.96 91.86)">TM</text></svg>