<svg id="图层_1" data-name="图层 1" xmlns="http://www.w3.org/2000/svg" xmlns:xlink="http://www.w3.org/1999/xlink" viewBox="0 0 126.94 219.31"><defs><style>.cls-1,.cls-12,.cls-17,.cls-19{fill:none;}.cls-2{fill:#1c1d1d;}.cls-3{fill:#a5a5a5;}.cls-4{fill:#272828;}.cls-24,.cls-5{fill:#d5a52c;}.cls-6{fill:#3f3f3f;}.cls-23,.cls-7,.cls-9{fill:#fff;}.cls-7{stroke:#d5a52c;}.cls-12,.cls-17,.cls-19,.cls-7{stroke-miterlimit:10;}.cls-19,.cls-7{stroke-width:2.59px;}.cls-8{fill:#b98a22;}.cls-10{fill:#9fa0a0;}.cls-11{fill:#231815;}.cls-12{stroke:#fff;stroke-width:0.52px;}.cls-13{fill:#2ea7e0;}.cls-14{fill:#1f91c7;}.cls-15{fill:#afafaf;}.cls-16{fill:#727171;}.cls-17{stroke:#036eb8;stroke-width:1.3px;}.cls-18{clip-path:url(#clip-path);}.cls-19{stroke:#727171;}.cls-20{font-size:5.18px;fill:#036eb8;font-family:MicrosoftYaHei-Bold, Microsoft YaHei;font-weight:700;}.cls-21{fill:#f8b62d;}.cls-22{fill:#c9caca;}.cls-23{opacity:0.35;}.cls-24{font-size:7.77px;font-family:MicrosoftYaHei, Microsoft YaHei;}.cls-25{letter-spacing:-0.01em;}</style><clipPath id="clip-path" transform="translate(-175.29 -14.83)"><path class="cls-1" d="M199.52,118.27a3.83,3.83,0,0,1,6.55-2.69,8.82,8.82,0,0,0,.52-2.87,8.91,8.91,0,0,0-17.81,0,8.82,8.82,0,0,0,.51,2.84,3.82,3.82,0,1,1,5.32,5.48,8.45,8.45,0,0,0,6.13,0A3.81,3.81,0,0,1,199.52,118.27Z"/></clipPath></defs><title>2</title><rect class="cls-2" x="57.36" y="193.82" width="14.94" height="25.48" rx="0.62" ry="0.62"/><path class="cls-3" d="M256.84,207.47h9.43a0,0,0,0,1,0,0v7.37a0,0,0,0,1,0,0h-9.43A.85.85,0,0,1,256,214v-5.67A.85.85,0,0,1,256.84,207.47Z" transform="translate(346.97 407.48) rotate(180)"/><path class="cls-3" d="M39.53,192.64H49a0,0,0,0,1,0,0V200a0,0,0,0,1,0,0H39.53a.85.85,0,0,1-.85-.85v-5.67A.85.85,0,0,1,39.53,192.64Z"/><path class="cls-3" d="M256.84,185.23h9.43a0,0,0,0,1,0,0v7.37a0,0,0,0,1,0,0h-9.43a.85.85,0,0,1-.85-.85v-5.67A.85.85,0,0,1,256.84,185.23Z" transform="translate(346.97 363) rotate(180)"/><path class="cls-3" d="M39.53,170.4H49a0,0,0,0,1,0,0v7.37a0,0,0,0,1,0,0H39.53a.85.85,0,0,1-.85-.85v-5.67A.85.85,0,0,1,39.53,170.4Z"/><path class="cls-3" d="M256.84,163h9.43a0,0,0,0,1,0,0v7.37a0,0,0,0,1,0,0h-9.43a.85.85,0,0,1-.85-.85v-5.67A.85.85,0,0,1,256.84,163Z" transform="translate(346.97 318.52) rotate(180)"/><path class="cls-3" d="M39.53,148.16H49a0,0,0,0,1,0,0v7.37a0,0,0,0,1,0,0H39.53a.85.85,0,0,1-.85-.85V149A.85.85,0,0,1,39.53,148.16Z"/><rect class="cls-4" x="48.96" y="144.38" width="31.74" height="67.5" rx="1.51" ry="1.51"/><path class="cls-5" d="M243.95,226.72l2.57-11.37-5.4-6.4H224.24v12.18a5.53,5.53,0,0,0,5.59,5.59l4.8-4.45,1.31,4.45Z" transform="translate(-175.29 -14.83)"/><rect class="cls-6" x="2.72" y="3.3" width="124.23" height="208.58" rx="5.67" ry="5.67"/><circle class="cls-7" cx="17.42" cy="197.76" r="9.03"/><circle class="cls-7" cx="112.47" cy="197.76" r="9.03"/><rect class="cls-2" x="57.36" y="193.83" width="14.94" height="25.48" rx="0.62" ry="0.62"/><path class="cls-3" d="M256.84,207.47h9.43a0,0,0,0,1,0,0v7.37a0,0,0,0,1,0,0h-9.43A.85.85,0,0,1,256,214v-5.67A.85.85,0,0,1,256.84,207.47Z" transform="translate(346.97 407.48) rotate(180)"/><path class="cls-3" d="M39.53,192.64H49a0,0,0,0,1,0,0V200a0,0,0,0,1,0,0H39.53a.85.85,0,0,1-.85-.85v-5.67A.85.85,0,0,1,39.53,192.64Z"/><path class="cls-3" d="M256.84,185.23h9.43a0,0,0,0,1,0,0v7.37a0,0,0,0,1,0,0h-9.43a.85.85,0,0,1-.85-.85v-5.67A.85.85,0,0,1,256.84,185.23Z" transform="translate(346.97 363) rotate(180)"/><path class="cls-3" d="M39.53,170.4H49a0,0,0,0,1,0,0v7.37a0,0,0,0,1,0,0H39.53a.85.85,0,0,1-.85-.85v-5.67A.85.85,0,0,1,39.53,170.4Z"/><path class="cls-3" d="M256.84,163h9.43a0,0,0,0,1,0,0v7.37a0,0,0,0,1,0,0h-9.43a.85.85,0,0,1-.85-.85v-5.67A.85.85,0,0,1,256.84,163Z" transform="translate(346.97 318.52) rotate(180)"/><path class="cls-3" d="M39.53,148.16H49a0,0,0,0,1,0,0v7.37a0,0,0,0,1,0,0H39.53a.85.85,0,0,1-.85-.85V149A.85.85,0,0,1,39.53,148.16Z"/><rect class="cls-4" x="48.96" y="144.38" width="31.74" height="67.5" rx="1.51" ry="1.51"/><path class="cls-5" d="M244,226.72l2.57-11.37-5.4-6.4H224.24v12.18a5.53,5.53,0,0,0,5.59,5.59l4.8-4.45,1.31,4.45Z" transform="translate(-175.29 -14.83)"/><polygon class="cls-8" points="68.67 211.89 67.52 216.19 62.18 216.19 60.66 211.89 68.67 211.89"/><path class="cls-9" d="M266.63,18.13V46a2.31,2.31,0,0,1-2.31,2.31H215.91A2.31,2.31,0,0,1,213.6,46V18.13" transform="translate(-175.29 -14.83)"/><rect class="cls-10" x="40.81" y="0.08" width="48.02" height="33.36" rx="0.62" ry="0.62"/><rect class="cls-11" x="42.29" width="45.07" height="0.08"/><rect class="cls-12" x="0.26" y="76.46" width="42.43" height="42.43"/><rect class="cls-13" x="3.84" y="79.16" width="37.1" height="37.1"/><rect class="cls-14" x="179.13" y="93.99" width="37.1" height="37.1" transform="translate(220.07 210.25) rotate(180)"/><path class="cls-15" d="M199.52,118.27a3.83,3.83,0,0,1,6.55-2.69,8.82,8.82,0,0,0,.52-2.87,8.91,8.91,0,0,0-17.81,0,8.82,8.82,0,0,0,.51,2.84,3.82,3.82,0,1,1,5.32,5.48,8.45,8.45,0,0,0,6.13,0A3.81,3.81,0,0,1,199.52,118.27Z" transform="translate(-175.29 -14.83)"/><path class="cls-16" d="M195.77,118.27a3.81,3.81,0,0,0-6.5-2.72,8.88,8.88,0,0,0,5.32,5.48A3.81,3.81,0,0,0,195.77,118.27Z" transform="translate(-175.29 -14.83)"/><path class="cls-16" d="M206.08,115.57a3.83,3.83,0,1,0-5.35,5.47A8.87,8.87,0,0,0,206.08,115.57Z" transform="translate(-175.29 -14.83)"/><line class="cls-17" x1="22.39" y1="106.78" x2="22.39" y2="112.62"/><line class="cls-17" x1="17.94" y1="105.59" x2="16.03" y2="108.89"/><line class="cls-17" x1="28.75" y1="86.85" x2="26.84" y2="90.16"/><line class="cls-17" x1="14.68" y1="102.33" x2="11.37" y2="104.24"/><line class="cls-17" x1="33.41" y1="91.51" x2="30.1" y2="93.42"/><line class="cls-17" x1="13.48" y1="97.87" x2="9.67" y2="97.87"/><line class="cls-17" x1="35.12" y1="97.87" x2="31.3" y2="97.87"/><line class="cls-17" x1="14.68" y1="93.42" x2="11.37" y2="91.51"/><line class="cls-17" x1="33.41" y1="104.24" x2="30.1" y2="102.33"/><line class="cls-17" x1="28.75" y1="108.89" x2="26.84" y2="105.59"/><line class="cls-17" x1="17.65" y1="90.34" x2="14.25" y2="85.58"/><g class="cls-18"><line class="cls-19" x1="22.39" y1="88.96" x2="22.39" y2="106.78"/><line class="cls-19" x1="31.3" y1="97.87" x2="13.49" y2="97.87"/></g><circle class="cls-9" cx="33.71" cy="86.49" r="0.98"/><text class="cls-20" transform="translate(40.11 80.28) rotate(180)"><tspan xml:space="preserve">1     3362     3</tspan></text><rect class="cls-12" x="43.66" y="76.46" width="11.87" height="24.08"/><rect class="cls-21" x="44.74" y="79.63" width="9.72" height="17.74"/><rect class="cls-12" x="280.93" y="168.33" width="11.87" height="24.08" transform="translate(291.95 -121.32) rotate(90)"/><rect class="cls-21" x="282" y="171.5" width="9.72" height="17.74" transform="translate(291.95 -121.32) rotate(90)"/><rect class="cls-12" x="60.53" y="85.51" width="35.84" height="28.62"/><rect class="cls-11" x="60.69" y="86.1" width="35.67" height="27.38"/><rect class="cls-22" x="61.12" y="79.16" width="2.59" height="6.94"/><rect class="cls-22" x="71.81" y="79.16" width="2.59" height="6.94"/><rect class="cls-22" x="82.5" y="79.16" width="2.59" height="6.94"/><rect class="cls-22" x="93.18" y="79.16" width="2.59" height="6.94"/><rect class="cls-22" x="61.2" y="113.49" width="2.59" height="6.94"/><rect class="cls-22" x="71.89" y="113.49" width="2.59" height="6.94"/><rect class="cls-22" x="82.58" y="113.49" width="2.59" height="6.94"/><rect class="cls-22" x="93.27" y="113.49" width="2.59" height="6.94"/><rect class="cls-23" x="80.21" y="2.3" width="3.56" height="29.15" rx="0.69" ry="0.69"/><rect class="cls-23" x="75.35" y="7.4" width="1.78" height="22.43" rx="0.34" ry="0.34"/><text class="cls-24" transform="translate(114.41 19.96) rotate(90)">Sound st<tspan class="cls-25" x="32.77" y="0">r</tspan><tspan x="35.63" y="0">ength Sensor</tspan></text></svg>