<svg id="图层_1" data-name="图层 1" xmlns="http://www.w3.org/2000/svg" viewBox="0 0 122.13 212.37"><defs><style>.cls-1{fill:#1c1d1d;}.cls-2{fill:#a5a5a5;}.cls-3{fill:#272828;}.cls-4,.cls-7{fill:#d5a52c;}.cls-5{fill:#3f3f3f;}.cls-6{fill:#fff;stroke:#d5a52c;stroke-miterlimit:10;stroke-width:2.55px;}.cls-7{font-size:7.64px;font-family:MicrosoftYaHei, Microsoft YaHei;}.cls-8{letter-spacing:-0.11em;}.cls-9{fill:#846e3b;}.cls-10{fill:#bcbcbc;}.cls-11{fill:#815a2f;}.cls-12{opacity:0.3;}.cls-13{fill:#e6b654;}</style></defs><title>7</title><rect class="cls-1" x="53.72" y="187.31" width="14.69" height="25.05" rx="0.62" ry="0.62"/><path class="cls-2" d="M241.11,206.81h9.25a0,0,0,0,1,0,0v7.24a0,0,0,0,1,0,0h-9.25a.85.85,0,0,1-.85-.85v-5.54A.85.85,0,0,1,241.11,206.81Z" transform="translate(327.04 400.21) rotate(180)"/><path class="cls-2" d="M36.21,186.15h9.25a0,0,0,0,1,0,0v7.24a0,0,0,0,1,0,0H36.21a.85.85,0,0,1-.85-.85V187A.85.85,0,0,1,36.21,186.15Z"/><path class="cls-2" d="M241.11,184.95h9.25a0,0,0,0,1,0,0v7.24a0,0,0,0,1,0,0h-9.25a.85.85,0,0,1-.85-.85V185.8A.85.85,0,0,1,241.11,184.95Z" transform="translate(327.04 356.47) rotate(180)"/><path class="cls-2" d="M36.21,164.28h9.25a0,0,0,0,1,0,0v7.24a0,0,0,0,1,0,0H36.21a.85.85,0,0,1-.85-.85v-5.54A.85.85,0,0,1,36.21,164.28Z"/><path class="cls-2" d="M241.11,163.08h9.25a0,0,0,0,1,0,0v7.24a0,0,0,0,1,0,0h-9.25a.85.85,0,0,1-.85-.85v-5.54A.85.85,0,0,1,241.11,163.08Z" transform="translate(327.04 312.74) rotate(180)"/><path class="cls-2" d="M36.21,142.42h9.25a0,0,0,0,1,0,0v7.24a0,0,0,0,1,0,0H36.21a.85.85,0,0,1-.85-.85v-5.54A.85.85,0,0,1,36.21,142.42Z"/><rect class="cls-3" x="45.46" y="138.7" width="31.21" height="66.36" rx="1.51" ry="1.51"/><path class="cls-4" d="M228.43,225.73,231,214.55l-5.31-6.29H209.05v12a5.43,5.43,0,0,0,5.5,5.5l4.72-4.37,1.29,4.37Z" transform="translate(-163.59 -20.66)"/><rect class="cls-5" width="122.13" height="205.06" rx="5.67" ry="5.67"/><circle class="cls-6" cx="14.46" cy="191.19" r="8.88"/><circle class="cls-6" cx="107.91" cy="191.19" r="8.88"/><text class="cls-7" transform="translate(21.77 123.91) rotate(90)"><tspan class="cls-8">T</tspan><tspan x="3.53" y="0">ouch</tspan><tspan x="0" y="9.17">Module</tspan></text><rect class="cls-4" x="5.58" y="7.97" width="111.66" height="73.87" rx="4.11" ry="4.11"/><rect class="cls-1" x="62.31" y="102.53" width="9.76" height="7.86"/><rect class="cls-2" x="62.31" y="97.45" width="2.23" height="5.09"/><rect class="cls-2" x="62.31" y="110.39" width="2.23" height="5.09"/><rect class="cls-2" x="69.85" y="97.45" width="2.23" height="5.09"/><rect class="cls-2" x="69.85" y="110.39" width="2.23" height="5.09"/><rect class="cls-2" x="66.08" y="97.45" width="2.23" height="5.09"/><rect class="cls-2" x="66.08" y="110.39" width="2.23" height="5.09"/><rect class="cls-9" x="26.76" y="99.27" width="3.77" height="6.52"/><rect class="cls-10" x="26.76" y="98.08" width="3.77" height="1.19"/><rect class="cls-10" x="26.76" y="105.79" width="3.77" height="1.19"/><rect class="cls-9" x="269.61" y="163.93" width="3.77" height="6.52" transform="translate(275.09 -124.97) rotate(90)"/><rect class="cls-10" x="273.47" y="166.59" width="3.77" height="1.19" transform="translate(278.95 -128.83) rotate(90)"/><rect class="cls-10" x="265.76" y="166.59" width="3.77" height="1.19" transform="translate(271.24 -121.11) rotate(90)"/><rect class="cls-11" x="269.61" y="170.65" width="3.77" height="6.52" transform="translate(281.82 -118.25) rotate(90)"/><rect class="cls-10" x="273.47" y="173.32" width="3.77" height="1.19" transform="translate(285.68 -122.1) rotate(90)"/><rect class="cls-10" x="265.76" y="173.32" width="3.77" height="1.19" transform="translate(277.96 -114.39) rotate(90)"/><g class="cls-12"><path class="cls-13" d="M269.23,40.44H256.5a1.27,1.27,0,0,1,0-2.55h12.74a1.27,1.27,0,0,1,0,2.55Zm-25.47,0H231a1.27,1.27,0,1,1,0-2.55h12.74a1.27,1.27,0,0,1,0,2.55Zm-25.47,0H205.55a1.27,1.27,0,0,1,0-2.55h12.74a1.27,1.27,0,1,1,0,2.55Zm-25.47,0H180.08a1.27,1.27,0,0,1,0-2.55h12.74a1.27,1.27,0,0,1,0,2.55Z" transform="translate(-163.59 -20.66)"/><path class="cls-13" d="M269.23,53.65H256.5a1.27,1.27,0,0,1,0-2.55h12.74a1.27,1.27,0,0,1,0,2.55Zm-25.47,0H231a1.27,1.27,0,1,1,0-2.55h12.74a1.27,1.27,0,0,1,0,2.55Zm-25.47,0H205.55a1.27,1.27,0,0,1,0-2.55h12.74a1.27,1.27,0,1,1,0,2.55Zm-25.47,0H180.08a1.27,1.27,0,0,1,0-2.55h12.74a1.27,1.27,0,0,1,0,2.55Z" transform="translate(-163.59 -20.66)"/><path class="cls-13" d="M269.23,66.86H256.5a1.27,1.27,0,0,1,0-2.55h12.74a1.27,1.27,0,0,1,0,2.55Zm-25.47,0H231a1.27,1.27,0,1,1,0-2.55h12.74a1.27,1.27,0,0,1,0,2.55Zm-25.47,0H205.55a1.27,1.27,0,0,1,0-2.55h12.74a1.27,1.27,0,1,1,0,2.55Zm-25.47,0H180.08a1.27,1.27,0,0,1,0-2.55h12.74a1.27,1.27,0,0,1,0,2.55Z" transform="translate(-163.59 -20.66)"/><path class="cls-13" d="M269.23,80.08H256.5a1.27,1.27,0,0,1,0-2.55h12.74a1.27,1.27,0,0,1,0,2.55Zm-25.47,0H231a1.27,1.27,0,1,1,0-2.55h12.74a1.27,1.27,0,0,1,0,2.55Zm-25.47,0H205.55a1.27,1.27,0,0,1,0-2.55h12.74a1.27,1.27,0,1,1,0,2.55Zm-25.47,0H180.08a1.27,1.27,0,0,1,0-2.55h12.74a1.27,1.27,0,0,1,0,2.55Z" transform="translate(-163.59 -20.66)"/><path class="cls-13" d="M269.23,93.29H256.5a1.27,1.27,0,0,1,0-2.55h12.74a1.27,1.27,0,0,1,0,2.55Zm-25.47,0H231a1.27,1.27,0,1,1,0-2.55h12.74a1.27,1.27,0,0,1,0,2.55Zm-25.47,0H205.55a1.27,1.27,0,0,1,0-2.55h12.74a1.27,1.27,0,1,1,0,2.55Zm-25.47,0H180.08a1.27,1.27,0,0,1,0-2.55h12.74a1.27,1.27,0,0,1,0,2.55Z" transform="translate(-163.59 -20.66)"/></g></svg>