<svg id="图层_1" data-name="图层 1" xmlns="http://www.w3.org/2000/svg" viewBox="0 0 153.27 181.31"><defs><style>.cls-1{fill:#3f3f3f;}.cls-2,.cls-7{fill:#fff;}.cls-2{stroke:#d5a52c;stroke-miterlimit:10;}.cls-3{fill:#a3a3a3;}.cls-4{fill:#1c1d1d;}.cls-5{fill:#272828;}.cls-6{fill:#d5a52c;}.cls-7{font-size:5.9px;font-family:PingFang-SC-Light, PingFang SC;}.cls-8{fill:#a5a5a4;}.cls-9{fill:#262727;}.cls-10{fill:#f2f2f2;}</style></defs><title>未标题-1</title><rect class="cls-1" y="7.6" width="153.27" height="173.71" rx="5.67" ry="5.67"/><circle class="cls-2" cx="14.61" cy="24.63" r="6.85"/><circle class="cls-2" cx="141.04" cy="24.63" r="6.85"/><rect class="cls-3" x="44.43" y="110.43" width="64.41" height="70.88"/><rect class="cls-3" x="32.37" y="11.03" width="40.78" height="10.13"/><rect class="cls-3" x="32.37" y="28.39" width="40.78" height="10.13"/><rect class="cls-3" x="32.37" y="45.75" width="40.78" height="10.13"/><rect class="cls-4" x="393.37" y="207.09" width="12.55" height="21.41" rx="0.62" ry="0.62" transform="translate(453.08 228.5) rotate(180)"/><rect class="cls-5" x="386.31" y="213.33" width="26.67" height="56.72" rx="1.82" ry="1.82" transform="translate(453.08 276.29) rotate(180)"/><path class="cls-6" d="M396.42,213.32l-2.16,9.56,4.54,5.37H413V218a4.64,4.64,0,0,0-4.7-4.7l-4,3.74-1.1-3.74Z" transform="translate(-346.2 -207.09)"/><rect class="cls-3" x="80.98" y="11.03" width="40.78" height="10.13"/><rect class="cls-3" x="80.98" y="28.39" width="40.78" height="10.13"/><rect class="cls-3" x="80.98" y="45.75" width="40.78" height="10.13"/><rect class="cls-4" x="441.3" y="207.09" width="12.55" height="21.41" rx="0.62" ry="0.62" transform="translate(548.94 228.5) rotate(180)"/><rect class="cls-5" x="434.24" y="213.33" width="26.67" height="56.72" rx="1.82" ry="1.82" transform="translate(548.94 276.29) rotate(180)"/><path class="cls-6" d="M444.35,213.32l-2.16,9.56,4.54,5.37h14.18V218a4.64,4.64,0,0,0-4.7-4.7l-4,3.74-1.1-3.74Z" transform="translate(-346.2 -207.09)"/><text class="cls-7" transform="translate(9.52 127.37) rotate(-90)">18031500057</text><rect class="cls-8" x="117.25" y="74.67" width="1.92" height="20.73"/><rect class="cls-8" x="120.48" y="74.67" width="1.92" height="20.73"/><rect class="cls-8" x="123.71" y="74.67" width="1.92" height="20.73"/><rect class="cls-8" x="126.95" y="74.67" width="1.92" height="20.73"/><rect class="cls-8" x="130.18" y="74.67" width="1.92" height="20.73"/><rect class="cls-8" x="133.41" y="74.67" width="1.92" height="20.73"/><rect class="cls-8" x="136.65" y="74.67" width="1.92" height="20.73"/><rect class="cls-8" x="139.88" y="74.67" width="1.92" height="20.73"/><rect class="cls-9" x="115.88" y="77.35" width="26.83" height="15.37"/><rect class="cls-3" x="102.89" y="64.77" width="9.54" height="4.08"/><rect class="cls-10" x="104.1" y="64.77" width="7.11" height="4.08"/><rect class="cls-3" x="126.37" y="101.86" width="9.54" height="4.08"/><rect class="cls-10" x="127.59" y="101.86" width="7.11" height="4.08"/><rect class="cls-3" x="126.37" y="108.74" width="9.54" height="4.08"/><rect class="cls-10" x="127.59" y="108.74" width="7.11" height="4.08"/><rect class="cls-3" x="446.65" y="280.63" width="8.96" height="4.08" transform="translate(-177.74 526.71) rotate(-90)"/><rect class="cls-10" x="447.79" y="280.63" width="6.68" height="4.08" transform="translate(-177.74 526.71) rotate(-90)"/><text x="-346.2" y="-207.09"></text></svg>