<svg xmlns="http://www.w3.org/2000/svg" id="图层_1" viewBox="0 0 256 256">
  <path d="M202.3 256.1H53.8C24.1 256.1 0 232 0 202.3V53.8C0 24.1 24.1.1 53.8.1h148.5c29.7 0 53.8 24.1 53.8 53.8v148.5c-.1 29.6-24.2 53.7-53.8 53.7z"/>
  <path d="M7.4 100.3h139c0 7.1.4 13.9-.2 20.6-.2 2.5-2.7 4.8-4.3 7-1.1 1.6-2.5 3.1-4.2 5.2h93.9v-44H70.2V66.9h179.4v88.5H111.5c.8-11.2-3.9-23.5 8-32.4H25.4v43.8h86.2v22.4H7.4v-88.9z" fill="#fff" />
  <path d="M51.3 133.9h35.4v21.5H51.3zM172 100.7h35.5v21.5H172z" fill="#fff" />
</svg>
