<?xml version="1.0" encoding="UTF-8"?>
<svg width="150px" height="150px" viewBox="0 0 150 150" version="1.1" xmlns="http://www.w3.org/2000/svg" xmlns:xlink="http://www.w3.org/1999/xlink">
    <!-- Generator: Sketch 46.1 (44463) - http://www.bohemiancoding.com/sketch -->
    <title>L298</title>
    <desc>Created with Sketch.</desc>
    <defs>
        <rect id="path-1" x="0" y="0" width="126" height="48"></rect>
    </defs>
    <g id="Page-1" stroke="none" stroke-width="1" fill="none" fill-rule="evenodd">
        <g id="L298">
            <rect id="Rectangle-2" fill="#797979" x="20" y="49" width="6" height="52"></rect>
            <rect id="Rectangle-2-Copy" fill="#797979" x="34.8571429" y="49" width="6" height="52"></rect>
            <rect id="Rectangle-2-Copy-2" fill="#797979" x="49.7142857" y="49" width="6" height="52"></rect>
            <rect id="Rectangle-2-Copy-3" fill="#797979" x="64.5714286" y="49" width="6" height="52"></rect>
            <rect id="Rectangle-2-Copy-4" fill="#797979" x="79.4285714" y="49" width="6" height="52"></rect>
            <rect id="Rectangle-2-Copy-5" fill="#797979" x="94.2857143" y="49" width="6" height="52"></rect>
            <rect id="Rectangle-2-Copy-6" fill="#797979" x="109.142857" y="49" width="6" height="52"></rect>
            <rect id="Rectangle-2-Copy-7" fill="#797979" x="124" y="49" width="6" height="52"></rect>
            <g id="Group" transform="translate(12.000000, 51.000000)">
                <mask id="mask-2" fill="white">
                    <use xlink:href="#path-1"></use>
                </mask>
                <use id="Rectangle" fill="#464646" xlink:href="#path-1"></use>
                <circle id="Oval-2" fill="#383838" mask="url(#mask-2)" cx="0" cy="24" r="5"></circle>
            </g>
            <text font-family="MicrosoftYaHeiUI-Bold, Microsoft YaHei UI" font-size="13" font-weight="bold" letter-spacing="3" fill="#FFFFFF">
                <tspan x="54" y="80">L298</tspan>
            </text>
            <rect id="Rectangle-3" fill="#A9A9A9" x="21" y="101" width="4" height="1"></rect>
            <rect id="Rectangle-3-Copy" fill="#A9A9A9" x="36" y="101" width="4" height="1"></rect>
            <rect id="Rectangle-3-Copy-2" fill="#A9A9A9" x="51" y="101" width="4" height="1"></rect>
            <rect id="Rectangle-3-Copy-3" fill="#A9A9A9" x="66" y="101" width="4" height="1"></rect>
            <rect id="Rectangle-3-Copy-4" fill="#A9A9A9" x="80" y="101" width="4" height="1"></rect>
            <rect id="Rectangle-3-Copy-5" fill="#A9A9A9" x="95" y="101" width="4" height="1"></rect>
            <rect id="Rectangle-3-Copy-6" fill="#A9A9A9" x="110" y="101" width="4" height="1"></rect>
            <rect id="Rectangle-3-Copy-7" fill="#A9A9A9" x="125" y="101" width="4" height="1"></rect>
            <rect id="Rectangle-3-Copy-15" fill="#A9A9A9" x="21" y="48" width="4" height="1"></rect>
            <rect id="Rectangle-3-Copy-14" fill="#A9A9A9" x="36" y="48" width="4" height="1"></rect>
            <rect id="Rectangle-3-Copy-13" fill="#A9A9A9" x="51" y="48" width="4" height="1"></rect>
            <rect id="Rectangle-3-Copy-12" fill="#A9A9A9" x="66" y="48" width="4" height="1"></rect>
            <rect id="Rectangle-3-Copy-11" fill="#A9A9A9" x="80" y="48" width="4" height="1"></rect>
            <rect id="Rectangle-3-Copy-10" fill="#A9A9A9" x="95" y="48" width="4" height="1"></rect>
            <rect id="Rectangle-3-Copy-9" fill="#A9A9A9" x="110" y="48" width="4" height="1"></rect>
            <rect id="Rectangle-3-Copy-8" fill="#A9A9A9" x="125" y="48" width="4" height="1"></rect>
            <circle id="Oval-3" fill="#FFFFFF" cx="24.5" cy="91.5" r="1.5"></circle>
            <text id="PWM1" font-family="MicrosoftYaHeiUI, Microsoft YaHei UI" font-size="11.0000002" font-weight="normal" fill="#464646">
                <tspan x="9" y="29">PWM1</tspan>
            </text>
            <text id="IN1" font-family="MicrosoftYaHeiUI, Microsoft YaHei UI" font-size="11.0000002" font-weight="normal" fill="#464646">
                <tspan x="69" y="29">IN1</tspan>
            </text>
            <text id="IN2" font-family="MicrosoftYaHeiUI, Microsoft YaHei UI" font-size="11.0000002" font-weight="normal" fill="#464646">
                <tspan x="119" y="29">IN2</tspan>
            </text>
            <text id="PWM2" font-family="MicrosoftYaHeiUI, Microsoft YaHei UI" font-size="11.0000002" font-weight="normal" fill="#464646">
                <tspan x="9" y="129">PWM2</tspan>
            </text>
            <text id="IN3" font-family="MicrosoftYaHeiUI, Microsoft YaHei UI" font-size="11.0000002" font-weight="normal" fill="#464646">
                <tspan x="69" y="129">IN3</tspan>
            </text>
            <text id="IN4" font-family="MicrosoftYaHeiUI, Microsoft YaHei UI" font-size="11.0000002" font-weight="normal" fill="#464646">
                <tspan x="119" y="129">IN4</tspan>
            </text>
        </g>
    </g>
</svg>
