<svg xmlns="http://www.w3.org/2000/svg" viewBox="0 0 180.5 238.8">
  <style>
    .st3{fill:#3e3a39}.st4{fill:#9e9e9f}.st5{fill:#b28146}.st11{stroke-miterlimit:10;fill:#fff;stroke:#c8c9ca}.st12{fill:#dbdcdc}.st13{fill:none;stroke:#fff;stroke-width:2;stroke-miterlimit:10}
  </style>
  <g id="图层_1">
    <path id="XMLID_1_" fill="#0d8f95" d="M0 0h180.5v238.8H0z"/>
    <circle id="XMLID_3_" cx="88.7" cy="72.7" r="1.6" fill="#fff" stroke="#fff" stroke-miterlimit="10"/>
  </g>
  <g id="图层_2">
    <path id="XMLID_2_" fill="none" stroke="#008384" stroke-linecap="round" stroke-miterlimit="10" stroke-width="2" d="M92.4 19.8l66 .1 2.1 2.2-.2 110.5-1.8 1.9h-23.1l-18.8-18.7-53.6-.1-20.3 18.7-20.7.1-1.4-1.6V21.7l2.2-2.1 61.8-.1 6.3-3.8 69.7-.1 3.6 3.7v115l-3.7 3.7-140.1-.2-3.8-3.7.2-114.4 3.6-3.7h63.2l6.5-4.3h72.5l5 5-.2 119.6-5.7 5.5H18.9l-6.4-6.2.1-118.2 5.5-5.6 64.7.1 5.9-4.1h75.6l6.9 6.9v123.1l-8.5 8.4H17.2l-9-9.2V14.9l7-7.1h66.3"/>
  </g>
  <g id="图层_3">
    <path id="XMLID_4_" d="M79 178h19.3v19.7H79z" class="st3"/>
    <path id="XMLID_6_" d="M30.5 209.9h4.3v8.3h-4.3z" class="st4"/>
    <path id="XMLID_7_" d="M30.5 192.4h4.3v8h-4.3z" class="st4"/>
    <path id="XMLID_11_" d="M49.6 159.4h11.7v4.8H49.6z" class="st5"/>
    <path id="XMLID_42_" fill="silver" d="M24.5 188.9V218c0 3.5-3.1 6.3-6.9 6.3s-6.9-2.8-6.9-6.3v-29.1c0-3.5 3.1-6.2 6.9-6.2s6.9 2.7 6.9 6.2z"/>
    <path id="XMLID_5_" d="M49.6 171.6h11.7v4.8H49.6z" class="st3"/>
    <path id="XMLID_8_" d="M49.6 183.7h11.7v4.8H49.6z" class="st3"/>
    <path id="XMLID_9_" d="M49.6 195.8h11.7v4.8H49.6z" class="st5"/>
    <path id="XMLID_10_" d="M118.8 175.1h11.7v4.8h-11.7z" class="st4"/>
    <path id="XMLID_12_" d="M118.8 187.9h11.7v4.8h-11.7z" class="st4"/>
    <path id="XMLID_13_" d="M118.8 200.7h11.7v4.8h-11.7z" class="st3"/>
    <path id="XMLID_14_" d="M118.8 213.5h11.7v4.8h-11.7z" class="st5"/>
    <path id="XMLID_15_" d="M146.3 190.1H158v4.8h-11.7z" class="st3"/>
    <path id="XMLID_16_" d="M146.3 200.2H158v4.8h-11.7z" class="st3"/>
    <path id="XMLID_17_" d="M146.3 210.4H158v4.8h-11.7z" class="st3"/>
    <path id="XMLID_18_" fill="#c8c9ca" d="M146.3 220.6H158v4.8h-11.7z"/>
    <path id="XMLID_19_" fill="none" stroke="#fff" stroke-miterlimit="10" d="M44.7 225.8h90.5v10H44.7z"/>
  </g>
  <g id="图层_4">
    <ellipse id="XMLID_20_" cx="168.8" cy="156.3" class="st11" rx="6.1" ry="6.3"/>
    <circle id="XMLID_21_" cx="11.9" cy="156.3" r="6.3" class="st11"/>
    <ellipse id="XMLID_28_" cx="30.6" cy="30.2" class="st11" rx="6.1" ry="6.3"/>
    <ellipse id="XMLID_29_" cx="150.7" cy="30.2" class="st11" rx="6.1" ry="6.3"/>
    <circle id="XMLID_30_" cx="51.6" cy="230.8" r="2.4" class="st12"/>
    <circle id="XMLID_31_" cx="128.3" cy="230.8" r="2.4" class="st12"/>
    <circle id="XMLID_32_" cx="62.6" cy="230.8" r="2.4" class="st12"/>
    <circle id="XMLID_33_" cx="73.6" cy="230.8" r="2.4" class="st12"/>
    <circle id="XMLID_34_" cx="84.5" cy="230.8" r="2.4" class="st12"/>
    <circle id="XMLID_35_" cx="95.5" cy="230.8" r="2.4" class="st12"/>
    <circle id="XMLID_36_" cx="106.4" cy="230.8" r="2.4" class="st12"/>
    <circle id="XMLID_37_" cx="117.4" cy="230.8" r="2.4" class="st12"/>
    <path id="XMLID_47_" d="M83.3 78.1c-1.4-1.4-2.2-3.2-2.2-5.3 0-2.1.8-4 2.2-5.3" class="st13"/>
    <path id="XMLID_51_" d="M94 67.4c1.4 1.4 2.2 3.2 2.2 5.3 0 2.1-.8 4-2.2 5.3" class="st13"/>
    <path id="XMLID_50_" d="M75.3 86c-3.2-3.3-5.2-7.9-5.2-12.8 0-5.2 2.2-9.9 5.6-13.3" class="st13"/>
    <path id="XMLID_49_" d="M101.5 59.9c3.5 3.4 5.7 8.1 5.7 13.3 0 5-2 9.5-5.2 12.9" class="st13"/>
    <path id="XMLID_54_" d="M68.3 93.1c-5-5.1-8.1-12.1-8.1-19.9 0-7.9 3.2-15 8.3-20.1l.2-.2" class="st13"/>
    <path id="XMLID_41_" d="M108.5 52.8c5.3 5.2 8.6 12.4 8.6 20.4 0 7.7-3.1 14.8-8.1 19.9" class="st13"/>
    <path id="XMLID_53_" d="M61.1 100.3c-7.1-7-11.4-16.8-11.4-27.5 0-10.8 4.4-20.5 11.4-27.6" class="st13"/>
    <path id="XMLID_45_" d="M116.2 45.2c7.1 7.1 11.4 16.8 11.4 27.6s-4.4 20.5-11.4 27.6" class="st13"/>
    <path id="XMLID_52_" d="M54.1 107.3c-8.8-8.8-14.3-21-14.3-34.5s5.5-25.7 14.3-34.5" class="st13"/>
    <path id="XMLID_40_" d="M123.2 38.2c8.9 8.8 14.3 21.1 14.3 34.6s-5.5 25.7-14.3 34.5" class="st13"/>
    <path id="XMLID_46_" d="M48.2 113.2c-10.3-10.4-16.7-24.7-16.7-40.4 0-15.8 6.4-30.1 16.8-40.4" class="st13"/>
    <path id="XMLID_38_" d="M129.1 32.3c10.4 10.4 16.8 24.7 16.8 40.5s-6.4 30.1-16.8 40.5" class="st13"/>
    <text id="XMLID_48_" fill="#fff" font-family="ArialMT" font-size="11" transform="rotate(180 60.467 12.75)">
      RFID-RC522
    </text>
  </g>
  <g id="图层_5">
    <path id="XMLID_22_" d="M66.1 111.4h3.7v8.8h-3.7z" class="st4"/>
    <path id="XMLID_23_" d="M74.4 111.4h3.7v8.8h-3.7z" class="st4"/>
    <path id="XMLID_24_" d="M82.7 111.4h3.7v8.8h-3.7z" class="st4"/>
    <path id="XMLID_25_" d="M91 111.4h3.7v8.8H91z" class="st4"/>
    <path id="XMLID_26_" d="M99.3 111.4h3.7v8.8h-3.7z" class="st4"/>
    <path id="XMLID_27_" d="M107.6 111.4h3.7v8.8h-3.7z" class="st4"/>
  </g>
</svg>
