<svg xmlns="http://www.w3.org/2000/svg" viewBox="0 0 220.2 503.5">
  <path d="M217.1 3.2c-1.7-2.1-4.6-1.8-4.6-1.8H10S6 .7 4 2.9C1.4 5.7.7 7.9.7 7.9v122.5H66c.2-25 20.2-45 45-45 24.7 0 44.7 19.6 45 44.2l62.8-.2V7.8c-.1 0 .8-1.7-1.7-4.6zM21.7 28.8c-5.8 0-10.5-4.7-10.5-10.5S15.9 7.8 21.7 7.8s10.5 4.7 10.5 10.5-4.7 10.5-10.5 10.5zm179 0c-5.8 0-10.5-4.7-10.5-10.5s4.7-10.5 10.5-10.5 10.5 4.7 10.5 10.5-4.7 10.5-10.5 10.5z" fill="#333"/>
  <path d="M.7 130v302.1L31 501.4s1.1 1.1 2.3 1.1c1.3 0 2.4-1.3 2.4-1.3L66 432.1V130H.7zM16 426.8c-1.3 0-2.3-1-2.3-2.3 0-1.3 1-2.3 2.3-2.3 1.3 0 2.3 1 2.3 2.3 0 1.3-1 2.3-2.3 2.3zm0-62.9c-1.3 0-2.3-1-2.3-2.3 0-1.3 1-2.3 2.3-2.3 1.3 0 2.3 1 2.3 2.3 0 1.3-1 2.3-2.3 2.3zm0-57c-1.3 0-2.3-1-2.3-2.3 0-1.3 1-2.3 2.3-2.3 1.3 0 2.3 1 2.3 2.3 0 1.3-1 2.3-2.3 2.3zm0-62c-1.3 0-2.3-1-2.3-2.3 0-1.3 1-2.3 2.3-2.3 1.3 0 2.3 1 2.3 2.3 0 1.3-1 2.3-2.3 2.3zm0-64c-1.3 0-2.3-1-2.3-2.3 0-1.3 1-2.3 2.3-2.3 1.3 0 2.3 1 2.3 2.3 0 1.3-1 2.3-2.3 2.3zm18.1 306.9c-1.3 0-2.3-1-2.3-2.3 0-1.3 1-2.3 2.3-2.3 1.3 0 2.3 1 2.3 2.3 0 1.3-1.1 2.3-2.3 2.3zm0-61c-1.3 0-2.3-1-2.3-2.3 0-1.3 1-2.3 2.3-2.3 1.3 0 2.3 1 2.3 2.3 0 1.3-1.1 2.3-2.3 2.3zm0-62.9c-1.3 0-2.3-1-2.3-2.3 0-1.3 1-2.3 2.3-2.3 1.3 0 2.3 1 2.3 2.3 0 1.3-1.1 2.3-2.3 2.3zm0-57c-1.3 0-2.3-1-2.3-2.3 0-1.3 1-2.3 2.3-2.3 1.3 0 2.3 1 2.3 2.3 0 1.3-1.1 2.3-2.3 2.3zm0-62c-1.3 0-2.3-1-2.3-2.3 0-1.3 1-2.3 2.3-2.3 1.3 0 2.3 1 2.3 2.3 0 1.3-1.1 2.3-2.3 2.3zm0-64c-1.3 0-2.3-1-2.3-2.3 0-1.3 1-2.3 2.3-2.3 1.3 0 2.3 1 2.3 2.3 0 1.3-1.1 2.3-2.3 2.3zm18 245.9c-1.3 0-2.3-1-2.3-2.3 0-1.3 1-2.3 2.3-2.3 1.3 0 2.3 1 2.3 2.3.1 1.3-1 2.3-2.3 2.3zm0-62.9c-1.3 0-2.3-1-2.3-2.3 0-1.3 1-2.3 2.3-2.3 1.3 0 2.3 1 2.3 2.3.1 1.3-1 2.3-2.3 2.3zm0-57c-1.3 0-2.3-1-2.3-2.3 0-1.3 1-2.3 2.3-2.3 1.3 0 2.3 1 2.3 2.3.1 1.3-1 2.3-2.3 2.3zm0-62c-1.3 0-2.3-1-2.3-2.3 0-1.3 1-2.3 2.3-2.3 1.3 0 2.3 1 2.3 2.3.1 1.3-1 2.3-2.3 2.3zm0-64c-1.3 0-2.3-1-2.3-2.3 0-1.3 1-2.3 2.3-2.3 1.3 0 2.3 1 2.3 2.3.1 1.3-1 2.3-2.3 2.3zm103.8-51.6v302l29.2 69.3s1 1.1 2.2 1.1c1.2 0 2.3-1.3 2.3-1.3l29.1-69.2v-302h-62.8zm14.7 296.9c-1.2 0-2.2-1-2.2-2.3 0-1.3 1-2.3 2.2-2.3 1.2 0 2.2 1 2.2 2.3.1 1.3-.9 2.3-2.2 2.3zm0-63c-1.2 0-2.2-1-2.2-2.3 0-1.3 1-2.3 2.2-2.3 1.2 0 2.2 1 2.2 2.3.1 1.3-.9 2.3-2.2 2.3zm0-57c-1.2 0-2.2-1-2.2-2.3 0-1.3 1-2.3 2.2-2.3 1.2 0 2.2 1 2.2 2.3.1 1.3-.9 2.3-2.2 2.3zm0-61.9c-1.2 0-2.2-1-2.2-2.3 0-1.3 1-2.3 2.2-2.3 1.2 0 2.2 1 2.2 2.3.1 1.2-.9 2.3-2.2 2.3zm0-64c-1.2 0-2.2-1-2.2-2.3 0-1.3 1-2.3 2.2-2.3 1.2 0 2.2 1 2.2 2.3.1 1.3-.9 2.3-2.2 2.3zM188 487.1c-1.2 0-2.2-1-2.2-2.3 0-1.3 1-2.3 2.2-2.3 1.2 0 2.2 1 2.2 2.3 0 1.3-1 2.3-2.2 2.3zm0-60.9c-1.2 0-2.2-1-2.2-2.3 0-1.3 1-2.3 2.2-2.3 1.2 0 2.2 1 2.2 2.3 0 1.3-1 2.3-2.2 2.3zm0-63c-1.2 0-2.2-1-2.2-2.3 0-1.3 1-2.3 2.2-2.3 1.2 0 2.2 1 2.2 2.3 0 1.3-1 2.3-2.2 2.3zm0-57c-1.2 0-2.2-1-2.2-2.3 0-1.3 1-2.3 2.2-2.3 1.2 0 2.2 1 2.2 2.3 0 1.3-1 2.3-2.2 2.3zm0-61.9c-1.2 0-2.2-1-2.2-2.3 0-1.3 1-2.3 2.2-2.3 1.2 0 2.2 1 2.2 2.3 0 1.2-1 2.3-2.2 2.3zm0-64c-1.2 0-2.2-1-2.2-2.3 0-1.3 1-2.3 2.2-2.3 1.2 0 2.2 1 2.2 2.3 0 1.3-1 2.3-2.2 2.3zm17.4 245.9c-1.2 0-2.2-1-2.2-2.3 0-1.3 1-2.3 2.2-2.3 1.2 0 2.2 1 2.2 2.3 0 1.3-1 2.3-2.2 2.3zm0-63c-1.2 0-2.2-1-2.2-2.3 0-1.3 1-2.3 2.2-2.3 1.2 0 2.2 1 2.2 2.3 0 1.3-1 2.3-2.2 2.3zm0-57c-1.2 0-2.2-1-2.2-2.3 0-1.3 1-2.3 2.2-2.3 1.2 0 2.2 1 2.2 2.3 0 1.3-1 2.3-2.2 2.3zm0-61.9c-1.2 0-2.2-1-2.2-2.3 0-1.3 1-2.3 2.2-2.3 1.2 0 2.2 1 2.2 2.3 0 1.2-1 2.3-2.2 2.3zm0-64c-1.2 0-2.2-1-2.2-2.3 0-1.3 1-2.3 2.2-2.3 1.2 0 2.2 1 2.2 2.3 0 1.3-1 2.3-2.2 2.3z" fill="#edcc92"/>
  <text transform="translate(39.398 60)" font-size="24" font-family="AdobeSongStd-Light-GBpc-EUC-H" fill="#fff">
    土壤湿度检测
  </text>
</svg>
