<svg xmlns="http://www.w3.org/2000/svg" width="569" height="514.83" viewBox="0 0 569 514.83">
  <path fill="#1A9FCC" d="M569 502.369l-12.769 12.461H435.834l-30.167-27.583-232.417.208-29.416 27.375H23.155L0 497.51V19.512L16.045.324 555.334 0 569 13.455z"/>
  <path fill="none" stroke="#FFF" stroke-miterlimit="10" stroke-width="5" d="M128 78.33H18m-1.5-.5v371m.5 1.5h541m-1.5-.5v-375m.5 1.5H445m-272.5-69h223v54h-223z"/>
  <path fill="#C0997A" d="M404.219 497.643c-.56.56-1.886 1.188-1.886 1.188H177.125s-1.344-.438-2.416-1.414c-1.035-.942-1.709-2.586-1.709-2.586v-17.625l7.438-3-.104-11.167L173 459.83v-20h232v20.5l-6 3v11l6 2.999v18.001s-.251 1.782-.781 2.313z"/>
  <circle cx="48.667" cy="36.498" r="20.333" fill="#FFF"/>
  <circle cx="518.667" cy="33.498" r="20.333" fill="#FFF"/>
  <circle cx="518.667" cy="480.498" r="20.333" fill="#FFF"/>
  <circle cx="48.667" cy="480.498" r="20.333" fill="#FFF"/>
  <path stroke="#000" stroke-miterlimit="10" d="M24.5 94.33h520v287h-520zm408.251 350H396s-3.22-.188-5 1.625c-1.688 1.719-1.934 4.877-1.934 4.877l.434 42.498s.222 1.943-1.031 3.375c-1.094 1.25-3.719 1.625-3.719 1.625h-193s-1.707.064-2.958-1.188c-1.021-1.021-1.042-2.813-1.042-2.813l.87-43.503s-.116-2.457-.974-4.059c-.938-1.75-3.646-2.188-3.646-2.188l-41.375-.25s-2.341-.631-3.938-2.375c-2.031-2.219-2.188-4.625-2.188-4.625v-46.25s.329-1.623 2.354-3.417c1.104-.979 3.896-1.333 3.896-1.333h292.125s3.104.438 4.438 2.5c1.608 2.488 1.188 5 1.188 5v44.25s-.144 2.14-2.161 4.026c-1.938 1.814-5.588 2.225-5.588 2.225z"/>
  <circle cx="210.334" cy="33.165" r="16" fill="#B3B3B3"/>
  <circle cx="261.334" cy="33.165" r="16" fill="#B3B3B3"/>
  <circle cx="313.334" cy="33.165" r="16" fill="#B3B3B3"/>
  <circle cx="363.334" cy="33.165" r="16" fill="#B3B3B3"/>
  <text fill="#FFF" stroke="#FFF" stroke-miterlimit="10" font-family="'ArialMT'" font-size="21" transform="translate(180.333 82.497)">
    VCC GND SCL SDA
  </text>
</svg>
