<svg xmlns="http://www.w3.org/2000/svg" viewBox="0 0 192.3 180.5">
  <style>
    .st0{fill:#3e3e3f}.st1{fill:#d7d7d8}.st3{fill:#323333}.st4{fill:#1c1d1d}.st5{fill:#a4a4a4}.st6{fill:#262727}.st7{fill:#d4a42c}.st9{fill:#fff;stroke:#d4a42c;stroke-miterlimit:10}.st10{fill:#5f5f5f}.st11{fill:#fff}.st12{font-family:&apos;AdobeSongStd-Light-GBpc-EUC-H&apos;}.st13{font-size:4px}.st14{font-size:3.6406px}.st15{font-size:3.3865px}.st16{font-size:2.7677px}.st19,.st20{fill:none;stroke:#fff;stroke-width:.5;stroke-miterlimit:10}.st20{stroke:#d4a42c}
  </style>
  <path d="M1 11.2v159c0 3.8 3.1 6.9 6.9 6.9h177.3c3.8 0 6.9-3.1 6.9-6.9v-159c0-3.8-3.1-6.9-6.9-6.9H8c-3.9 0-7 3.1-7 6.9z" class="st0"/>
  <path d="M13.6 84.6v-1.5h-.5v-18h.5v-1.4H1.1v20.9h12.5zM3.7 66.9l4.2.4v1.6l-4.2.3v-2.3zm0 12.4l4.2.4v1.6l-4.2.3v-2.3z" class="st1"/>
  <path fill="#c8c9c9" d="M.1 62.4l1 1.2v20.9l-1 1.4z"/>
  <path d="M11.9 78.4h1.2V82h-1.2zM11.9 66.2h1.2v3.6h-1.2zM12.7 72.9h.4v2.9h-.4z" class="st3"/>
  <path d="M11.9.1h4.5c.3 0 .6.3.6.6v8.6c0 .3-.3.6-.6.6h-4.5c-.3 0-.6-.3-.6-.6V.7c-.1-.3.2-.6.6-.6z" class="st4"/>
  <path d="M8 10.4H4.9c-.5 0-.9-.4-.9-.9V8.4c0-.5.4-.9.9-.9H8v2.9zM20.3 7.6h3.1c.5 0 .9.4.9.9v1.1c0 .5-.4.9-.9.9h-3.1V7.6zM8 19H4.9c-.5 0-.9-.4-.9-.9V17c0-.5.4-.9.9-.9H8V19zM20.3 16.2h3.1c.5 0 .9.4.9.9v1.1c0 .5-.4.9-.9.9h-3.1v-2.9zM8 27.6H4.9c-.5 0-.9-.4-.9-.9v-1.1c0-.5.4-.9.9-.9H8v2.9zM20.3 24.8h3.1c.5 0 .9.4.9.9v1.1c0 .5-.4.9-.9.9h-3.1v-2.9z" class="st5"/>
  <path d="M9.5 3h9.2c.8 0 1.5.7 1.5 1.5v23c0 .8-.7 1.5-1.5 1.5H9.5c-.8 0-1.5-.7-1.5-1.5v-23C8 3.7 8.7 3 9.5 3z" class="st6"/>
  <path d="M12.6 3l-1 4.4 2.1 2.5h6.5V5.2s0-2.1-2.2-2.2l-1.9 1.7-.5-1.7h-3z" class="st7"/>
  <path d="M59.2.1h4.5c.3 0 .6.3.6.6v8.6c0 .3-.3.6-.6.6h-4.5c-.3 0-.6-.3-.6-.6V.7c0-.3.2-.6.6-.6z" class="st4"/>
  <path d="M55.3 10.4h-3.1c-.5 0-.9-.4-.9-.9V8.4c0-.5.4-.9.9-.9h3.1v2.9zM67.6 7.6h3.1c.5 0 .9.4.9.9v1.1c0 .5-.4.9-.9.9h-3.1V7.6zM55.3 19h-3.1c-.5 0-.9-.4-.9-.9V17c0-.5.4-.9.9-.9h3.1V19zM67.6 16.2h3.1c.5 0 .9.4.9.9v1.1c0 .5-.4.9-.9.9h-3.1v-2.9zM55.3 27.6h-3.1c-.5 0-.9-.4-.9-.9v-1.1c0-.5.4-.9.9-.9h3.1v2.9zM67.6 24.8h3.1c.5 0 .9.4.9.9v1.1c0 .5-.4.9-.9.9h-3.1v-2.9z" class="st5"/>
  <path d="M56.8 3H66c.8 0 1.5.7 1.5 1.5v23c0 .8-.7 1.5-1.5 1.5h-9.2c-.8 0-1.5-.7-1.5-1.5v-23c0-.8.7-1.5 1.5-1.5z" class="st6"/>
  <path d="M60 3l-1 4.4 2.1 2.5h6.5V5.2s0-2.1-2.2-2.2l-1.9 1.7L63 3h-3z" class="st7"/>
  <path d="M35.5.1H40c.3 0 .6.3.6.6v8.6c0 .3-.3.6-.6.6h-4.5c-.3 0-.6-.3-.6-.6V.7c0-.3.3-.6.6-.6z" class="st4"/>
  <path d="M31.7 10.4h-3.1c-.5 0-.9-.4-.9-.9V8.4c0-.5.4-.9.9-.9h3.1v2.9zM43.9 7.6H47c.5 0 .9.4.9.9v1.1c0 .5-.4.9-.9.9h-3.1V7.6zM31.7 19h-3.1c-.5 0-.9-.4-.9-.9V17c0-.5.4-.9.9-.9h3.1V19zM43.9 16.2H47c.5 0 .9.4.9.9v1.1c0 .5-.4.9-.9.9h-3.1v-2.9zM31.7 27.6h-3.1c-.5 0-.9-.4-.9-.9v-1.1c0-.5.4-.9.9-.9h3.1v2.9zM43.9 24.8H47c.5 0 .9.4.9.9v1.1c0 .5-.4.9-.9.9h-3.1v-2.9z" class="st5"/>
  <path d="M33.2 3h9.2c.8 0 1.5.7 1.5 1.5v23c0 .8-.7 1.5-1.5 1.5h-9.2c-.8 0-1.5-.7-1.5-1.5v-23c0-.8.6-1.5 1.5-1.5z" class="st6"/>
  <path d="M36.3 3l-1 4.4 2.1 2.5h6.5V5.2s0-2.1-2.2-2.2l-1.8 1.7-.5-1.7h-3.1z" class="st7"/>
  <path d="M82.8.1h4.5c.3 0 .6.3.6.6v8.6c0 .3-.3.6-.6.6h-4.5c-.3 0-.6-.3-.6-.6V.7c0-.3.3-.6.6-.6z" class="st4"/>
  <path d="M79 10.4h-3.1c-.5 0-.9-.4-.9-.9V8.4c0-.5.4-.9.9-.9H79v2.9zM91.2 7.6h3.1c.5 0 .9.4.9.9v1.1c0 .5-.4.9-.9.9h-3.1V7.6zM79 19h-3.1c-.5 0-.9-.4-.9-.9V17c0-.5.4-.9.9-.9H79V19zM91.2 16.2h3.1c.5 0 .9.4.9.9v1.1c0 .5-.4.9-.9.9h-3.1v-2.9zM79 27.6h-3.1c-.5 0-.9-.4-.9-.9v-1.1c0-.5.4-.9.9-.9H79v2.9zM91.2 24.8h3.1c.5 0 .9.4.9.9v1.1c0 .5-.4.9-.9.9h-3.1v-2.9z" class="st5"/>
  <path d="M80.5 3h9.2c.8 0 1.5.7 1.5 1.5v23c0 .8-.7 1.5-1.5 1.5h-9.2c-.8 0-1.5-.7-1.5-1.5v-23c0-.8.7-1.5 1.5-1.5z" class="st6"/>
  <path d="M83.6 3l-1 4.4 2.1 2.5h6.5V5.2s0-2.1-2.2-2.2l-1.9 1.7-.5-1.7h-3z" class="st7"/>
  <path d="M106.5.1h4.5c.3 0 .6.3.6.6v8.6c0 .3-.3.6-.6.6h-4.5c-.3 0-.6-.3-.6-.6V.7c0-.3.3-.6.6-.6z" class="st4"/>
  <path d="M102.6 10.4h-3.1c-.5 0-.9-.4-.9-.9V8.4c0-.5.4-.9.9-.9h3.1v2.9zM114.9 7.6h3.1c.5 0 .9.4.9.9v1.1c0 .5-.4.9-.9.9h-3.1V7.6zM102.6 19h-3.1c-.5 0-.9-.4-.9-.9V17c0-.5.4-.9.9-.9h3.1V19zM114.9 16.2h3.1c.5 0 .9.4.9.9v1.1c0 .5-.4.9-.9.9h-3.1v-2.9zM102.6 27.6h-3.1c-.5 0-.9-.4-.9-.9v-1.1c0-.5.4-.9.9-.9h3.1v2.9zM114.9 24.8h3.1c.5 0 .9.4.9.9v1.1c0 .5-.4.9-.9.9h-3.1v-2.9z" class="st5"/>
  <path d="M104.2 3h9.2c.8 0 1.5.7 1.5 1.5v23c0 .8-.7 1.5-1.5 1.5h-9.2c-.8 0-1.5-.7-1.5-1.5v-23c-.1-.8.6-1.5 1.5-1.5z" class="st6"/>
  <path d="M107.3 3l-1 4.4 2.1 2.5h6.5V5.2s0-2.1-2.2-2.2l-1.8 1.7-.5-1.7h-3.1z" class="st7"/>
  <path d="M130.2.1h4.5c.3 0 .6.3.6.6v8.6c0 .3-.3.6-.6.6h-4.5c-.3 0-.6-.3-.6-.6V.7c-.1-.3.2-.6.6-.6z" class="st4"/>
  <path d="M126.3 10.4h-3.1c-.5 0-.9-.4-.9-.9V8.4c0-.5.4-.9.9-.9h3.1v2.9zM138.6 7.6h3.1c.5 0 .9.4.9.9v1.1c0 .5-.4.9-.9.9h-3.1V7.6zM126.3 19h-3.1c-.5 0-.9-.4-.9-.9V17c0-.5.4-.9.9-.9h3.1V19zM138.6 16.2h3.1c.5 0 .9.4.9.9v1.1c0 .5-.4.9-.9.9h-3.1v-2.9zM126.3 27.6h-3.1c-.5 0-.9-.4-.9-.9v-1.1c0-.5.4-.9.9-.9h3.1v2.9zM138.6 24.8h3.1c.5 0 .9.4.9.9v1.1c0 .5-.4.9-.9.9h-3.1v-2.9z" class="st5"/>
  <path d="M127.8 3h9.2c.8 0 1.5.7 1.5 1.5v23c0 .8-.7 1.5-1.5 1.5h-9.2c-.8 0-1.5-.7-1.5-1.5v-23c0-.8.7-1.5 1.5-1.5z" class="st6"/>
  <path d="M130.9 3l-1 4.4 2.1 2.5h6.5V5.2s0-2.1-2.2-2.2l-1.9 1.7-.5-1.7h-3z" class="st7"/>
  <path d="M153.8.1h4.5c.3 0 .6.3.6.6v8.6c0 .3-.3.6-.6.6h-4.5c-.3 0-.6-.3-.6-.6V.7c0-.3.3-.6.6-.6z" class="st4"/>
  <path d="M150 10.4h-3.1c-.5 0-.9-.4-.9-.9V8.4c0-.5.4-.9.9-.9h3.1v2.9zM162.2 7.6h3.1c.5 0 .9.4.9.9v1.1c0 .5-.4.9-.9.9h-3.1V7.6zM150 19h-3.1c-.5 0-.9-.4-.9-.9V17c0-.5.4-.9.9-.9h3.1V19zM162.2 16.2h3.1c.5 0 .9.4.9.9v1.1c0 .5-.4.9-.9.9h-3.1v-2.9zM150 27.6h-3.1c-.5 0-.9-.4-.9-.9v-1.1c0-.5.4-.9.9-.9h3.1v2.9zM162.2 24.8h3.1c.5 0 .9.4.9.9v1.1c0 .5-.4.9-.9.9h-3.1v-2.9z" class="st5"/>
  <path d="M151.5 3h9.2c.8 0 1.5.7 1.5 1.5v23c0 .8-.7 1.5-1.5 1.5h-9.2c-.8 0-1.5-.7-1.5-1.5v-23c0-.8.6-1.5 1.5-1.5z" class="st6"/>
  <path d="M154.6 3l-1 4.4 2.1 2.5h6.5V5.2s0-2.1-2.2-2.2l-1.9 1.7-.5-1.7h-3z" class="st7"/>
  <path d="M11.9 180.4h4.5c.3 0 .6-.3.6-.6v-8.6c0-.3-.3-.6-.6-.6h-4.5c-.3 0-.6.3-.6.6v8.6c-.1.3.2.6.6.6z" class="st4"/>
  <path d="M8 170.1H4.9c-.5 0-.9.4-.9.9v1.1c0 .5.4.9.9.9H8v-2.9zM20.3 173h3.1c.5 0 .9-.4.9-.9V171c0-.5-.4-.9-.9-.9h-3.1v2.9zM8 161.5H4.9c-.5 0-.9.4-.9.9v1.1c0 .5.4.9.9.9H8v-2.9zM20.3 164.4h3.1c.5 0 .9-.4.9-.9v-1.1c0-.5-.4-.9-.9-.9h-3.1v2.9zM8 152.9H4.9c-.5 0-.9.4-.9.9v1.1c0 .5.4.9.9.9H8v-2.9zM20.3 155.8h3.1c.5 0 .9-.4.9-.9v-1.1c0-.5-.4-.9-.9-.9h-3.1v2.9z" class="st5"/>
  <path d="M9.5 177.5h9.2c.8 0 1.5-.7 1.5-1.5v-23c0-.8-.7-1.5-1.5-1.5H9.5c-.8 0-1.5.7-1.5 1.5v23c0 .9.7 1.5 1.5 1.5z" class="st6"/>
  <path d="M12.6 177.5l-1-4.4 2.1-2.5h6.5v4.7s0 2.1-2.2 2.2l-1.9-1.7-.5 1.7h-3z" class="st7"/>
  <path d="M59.2 180.4h4.5c.3 0 .6-.3.6-.6v-8.6c0-.3-.3-.6-.6-.6h-4.5c-.3 0-.6.3-.6.6v8.6c0 .3.2.6.6.6z" class="st4"/>
  <path d="M55.3 170.1h-3.1c-.5 0-.9.4-.9.9v1.1c0 .5.4.9.9.9h3.1v-2.9zM67.6 173h3.1c.5 0 .9-.4.9-.9V171c0-.5-.4-.9-.9-.9h-3.1v2.9zM55.3 161.5h-3.1c-.5 0-.9.4-.9.9v1.1c0 .5.4.9.9.9h3.1v-2.9zM67.6 164.4h3.1c.5 0 .9-.4.9-.9v-1.1c0-.5-.4-.9-.9-.9h-3.1v2.9zM55.3 152.9h-3.1c-.5 0-.9.4-.9.9v1.1c0 .5.4.9.9.9h3.1v-2.9zM67.6 155.8h3.1c.5 0 .9-.4.9-.9v-1.1c0-.5-.4-.9-.9-.9h-3.1v2.9z" class="st5"/>
  <path d="M56.8 177.5H66c.8 0 1.5-.7 1.5-1.5v-23c0-.8-.7-1.5-1.5-1.5h-9.2c-.8 0-1.5.7-1.5 1.5v23c0 .9.7 1.5 1.5 1.5z" class="st6"/>
  <path d="M60 177.5l-1-4.4 2.1-2.5h6.5v4.7s0 2.1-2.2 2.2l-1.9-1.7-.5 1.7h-3z" class="st7"/>
  <path d="M35.5 180.4H40c.3 0 .6-.3.6-.6v-8.6c0-.3-.3-.6-.6-.6h-4.5c-.3 0-.6.3-.6.6v8.6c0 .3.3.6.6.6z" class="st4"/>
  <path d="M31.7 170.1h-3.1c-.5 0-.9.4-.9.9v1.1c0 .5.4.9.9.9h3.1v-2.9zM43.9 173H47c.5 0 .9-.4.9-.9V171c0-.5-.4-.9-.9-.9h-3.1v2.9zM31.7 161.5h-3.1c-.5 0-.9.4-.9.9v1.1c0 .5.4.9.9.9h3.1v-2.9zM43.9 164.4H47c.5 0 .9-.4.9-.9v-1.1c0-.5-.4-.9-.9-.9h-3.1v2.9zM31.7 152.9h-3.1c-.5 0-.9.4-.9.9v1.1c0 .5.4.9.9.9h3.1v-2.9zM43.9 155.8H47c.5 0 .9-.4.9-.9v-1.1c0-.5-.4-.9-.9-.9h-3.1v2.9z" class="st5"/>
  <path d="M33.2 177.5h9.2c.8 0 1.5-.7 1.5-1.5v-23c0-.8-.7-1.5-1.5-1.5h-9.2c-.8 0-1.5.7-1.5 1.5v23c0 .9.6 1.5 1.5 1.5z" class="st6"/>
  <path d="M36.3 177.5l-1-4.4 2.1-2.5h6.5v4.7s0 2.1-2.2 2.2l-1.9-1.7-.5 1.7h-3z" class="st7"/>
  <g>
    <path d="M82.8 180.4h4.5c.3 0 .6-.3.6-.6v-8.6c0-.3-.3-.6-.6-.6h-4.5c-.3 0-.6.3-.6.6v8.6c0 .3.3.6.6.6z" class="st4"/>
    <path d="M79 170.1h-3.1c-.5 0-.9.4-.9.9v1.1c0 .5.4.9.9.9H79v-2.9zM91.2 173h3.1c.5 0 .9-.4.9-.9V171c0-.5-.4-.9-.9-.9h-3.1v2.9zM79 161.5h-3.1c-.5 0-.9.4-.9.9v1.1c0 .5.4.9.9.9H79v-2.9zM91.2 164.4h3.1c.5 0 .9-.4.9-.9v-1.1c0-.5-.4-.9-.9-.9h-3.1v2.9zM79 152.9h-3.1c-.5 0-.9.4-.9.9v1.1c0 .5.4.9.9.9H79v-2.9zM91.2 155.8h3.1c.5 0 .9-.4.9-.9v-1.1c0-.5-.4-.9-.9-.9h-3.1v2.9z" class="st5"/>
    <path d="M80.5 177.5h9.2c.8 0 1.5-.7 1.5-1.5v-23c0-.8-.7-1.5-1.5-1.5h-9.2c-.8 0-1.5.7-1.5 1.5v23c0 .9.7 1.5 1.5 1.5z" class="st6"/>
    <path d="M83.6 177.5l-1-4.4 2.1-2.5h6.5v4.7s0 2.1-2.2 2.2l-1.9-1.7-.5 1.7h-3z" class="st7"/>
  </g>
  <g>
    <path d="M106.5 180.4h4.5c.3 0 .6-.3.6-.6v-8.6c0-.3-.3-.6-.6-.6h-4.5c-.3 0-.6.3-.6.6v8.6c0 .3.3.6.6.6z" class="st4"/>
    <path d="M102.6 170.1h-3.1c-.5 0-.9.4-.9.9v1.1c0 .5.4.9.9.9h3.1v-2.9zM114.9 173h3.1c.5 0 .9-.4.9-.9V171c0-.5-.4-.9-.9-.9h-3.1v2.9zM102.6 161.5h-3.1c-.5 0-.9.4-.9.9v1.1c0 .5.4.9.9.9h3.1v-2.9zM114.9 164.4h3.1c.5 0 .9-.4.9-.9v-1.1c0-.5-.4-.9-.9-.9h-3.1v2.9zM102.6 152.9h-3.1c-.5 0-.9.4-.9.9v1.1c0 .5.4.9.9.9h3.1v-2.9zM114.9 155.8h3.1c.5 0 .9-.4.9-.9v-1.1c0-.5-.4-.9-.9-.9h-3.1v2.9z" class="st5"/>
    <path d="M104.2 177.5h9.2c.8 0 1.5-.7 1.5-1.5v-23c0-.8-.7-1.5-1.5-1.5h-9.2c-.8 0-1.5.7-1.5 1.5v23c-.1.9.6 1.5 1.5 1.5z" class="st6"/>
    <path d="M107.3 177.5l-1-4.4 2.1-2.5h6.5v4.7s0 2.1-2.2 2.2l-1.9-1.7-.5 1.7h-3z" class="st7"/>
  </g>
  <g>
    <path d="M130.2 180.4h4.5c.3 0 .6-.3.6-.6v-8.6c0-.3-.3-.6-.6-.6h-4.5c-.3 0-.6.3-.6.6v8.6c-.1.3.2.6.6.6z" class="st4"/>
    <path d="M126.3 170.1h-3.1c-.5 0-.9.4-.9.9v1.1c0 .5.4.9.9.9h3.1v-2.9zM138.6 173h3.1c.5 0 .9-.4.9-.9V171c0-.5-.4-.9-.9-.9h-3.1v2.9zM126.3 161.5h-3.1c-.5 0-.9.4-.9.9v1.1c0 .5.4.9.9.9h3.1v-2.9zM138.6 164.4h3.1c.5 0 .9-.4.9-.9v-1.1c0-.5-.4-.9-.9-.9h-3.1v2.9zM126.3 152.9h-3.1c-.5 0-.9.4-.9.9v1.1c0 .5.4.9.9.9h3.1v-2.9zM138.6 155.8h3.1c.5 0 .9-.4.9-.9v-1.1c0-.5-.4-.9-.9-.9h-3.1v2.9z" class="st5"/>
    <path d="M127.8 177.5h9.2c.8 0 1.5-.7 1.5-1.5v-23c0-.8-.7-1.5-1.5-1.5h-9.2c-.8 0-1.5.7-1.5 1.5v23c0 .9.7 1.5 1.5 1.5z" class="st6"/>
    <path d="M130.9 177.5l-1-4.4 2.1-2.5h6.5v4.7s0 2.1-2.2 2.2l-1.9-1.7-.5 1.7h-3z" class="st7"/>
  </g>
  <g>
    <path d="M75.8 66.7h1.9v21h-1.9zM79.1 66.7H81v21h-1.9zM82.3 66.7h1.9v21h-1.9zM85.6 66.7h1.9v21h-1.9zM88.9 66.7h1.9v21h-1.9zM92.2 66.7h1.9v21h-1.9zM95.4 66.7h1.9v21h-1.9zM98.7 66.7h1.9v21h-1.9z" class="st5"/>
    <path d="M74.4 69.4h27.2V85H74.4z" class="st6"/>
  </g>
  <g>
    <path d="M27.7 132.7h26.7v2H27.7z" class="st5"/>
    <path d="M40.3 106.3h2v32h-2zM30.4 106.3h2v32h-2zM50.1 106.3h2v32h-2zM46.9 106.3h2v32h-2zM33.7 106.3h2v32h-2zM37 106.3h2v32h-2zM43.6 106.3h2v32h-2z" class="st5"/>
    <path d="M27.7 129.8h26.7v2H27.7zM27.7 126.8h26.7v2H27.7zM27.7 123.9h26.7v2H27.7zM27.8 120.9h26.7v2H27.8zM27.7 118h26.7v2H27.7zM27.8 115h26.7v2H27.8zM27.8 109.1h26.7v2H27.8zM27.7 112.1h26.7v2H27.7z" class="st5"/>
    <path d="M29.5 108.3h23.2v28H29.5z" class="st6"/>
  </g>
  <g>
    <path d="M152.6 174.7c-.7 0-1.3-.6-1.3-1.3v-20.8c0-.7.6-1.3 1.3-1.3.7 0 1.3.6 1.3 1.3v20.8c0 .7-.6 1.3-1.3 1.3zM159.1 174.7c-.7 0-1.3-.6-1.3-1.3v-20.8c0-.7.6-1.3 1.3-1.3.7 0 1.3.6 1.3 1.3v20.8c0 .7-.6 1.3-1.3 1.3z" class="st5"/>
    <path d="M160.5 154.2h-8.8l-4.1 4.1v9.3l4.1 4.1h8.8l4-4.1v-9.3z" class="st5"/>
    <path d="M159.9 155.5h-7.6l-3.4 3.5v7.9l3.4 3.5h7.6l3.4-3.5V159z" class="st1"/>
    <circle cx="156.1" cy="163" r="3.9" fill="#acac40"/>
  </g>
  <path d="M1.7 52.4h22.8v1.5H1.7zM6 41.5h14.1v4.4H6z" class="st5"/>
  <path d="M4.7 50.5h16.7v5.3H4.7z" class="st6"/>
  <path d="M138.6 49.3H154v1h-15.4z" class="st5"/>
  <path d="M140.7 48H152v3.6h-11.3zM142 44.1h8.5v2.7H142zM157.3 48.5h8.5v2.7h-8.5z" class="st6"/>
  <path d="M153.9 45h15.4v1h-15.4z" class="st5"/>
  <path d="M155.9 43.7h11.3v3.6h-11.3z" class="st6"/>
  <path d="M8.4 39.2h9.4v8.9H8.4z" class="st7"/>
  <circle cx="181.7" cy="164.5" r="6" class="st9"/>
  <circle cx="181.7" cy="13.6" r="6" class="st9"/>
  <g>
    <path d="M145.2 70.5V122h45.7v-3.4s-5.5-11.7-5.5-20.2c0-8.4 5.5-20.7 5.5-20.7h1.2v-7.2h-46.9z" class="st1"/>
    <path d="M169.7 77.5c0 .2.2.4.5.4h3.9c.3 0 .5-.2.5-.4s.2-.4.5-.4h10.5c.6 0 1.1-.4 1.1-1v-4.5c0-.5-.5-1-1.1-1h-15.7v6.9h-.2z" class="st0"/>
    <path d="M169.7 72.5v3.4c0 .2.2.3.4.3h2c.2 0 .5-.1.7-.2l.5-.3c.3-.2.5-.4.5-.7l12.8.2V73l-12.8.2c0-.2-.2-.4-.4-.6l-.5-.4c-.2-.1-.5-.2-.8-.2h-1.9c-.4.2-.5.3-.5.5z" class="st1"/>
  </g>
  <g>
    <path d="M94.1 125.4H96V142h-1.9zM90.7 125.4h1.9V142h-1.9zM87.5 125.4h1.9V142h-1.9zM84.2 125.4h1.9V142h-1.9zM81 125.4h1.9V142H81zM77.6 125.4h1.9V142h-1.9z" class="st5"/>
    <path d="M75.4 127.5h21.9v12.3H75.4z" class="st6"/>
    <path d="M94 133.4h1.9v3.2H94zM90.7 133.4h1.9v3.2h-1.9zM87.5 133.4h1.9v3.2h-1.9zM84.2 133.4h1.9v3.2h-1.9zM80.9 133.4h1.9v3.2h-1.9zM77.6 133.4h1.9v3.2h-1.9z" class="st10"/>
  </g>
  <g>
    <path d="M78.1 57.8h16.6v1.9H78.1zM78.1 54.5h16.6v1.9H78.1zM78 51.3h16.6v1.9H78zM78.1 48h16.6v1.9H78.1zM78.1 44.7h16.6v1.9H78.1zM78 41.4h16.6v1.9H78z" class="st5"/>
    <path d="M80.2 39.1h12.3V61H80.2z" class="st6"/>
    <path d="M83.5 57.8h3.2v1.9h-3.2zM83.5 54.5h3.2v1.9h-3.2zM83.4 51.2h3.2v1.9h-3.2zM83.4 47.9h3.2v1.9h-3.2zM83.5 44.7h3.2v1.9h-3.2zM83.5 41.4h3.2v1.9h-3.2z" class="st10"/>
  </g>
  <text class="st11 st12 st13" transform="translate(127.03 14.445)">
    D3
  </text>
  <text class="st11 st12 st13" transform="translate(135.428 14.445)">
    V
  </text>
  <text class="st11 st12 st13" transform="translate(135.428 24.758)">
    G
  </text>
  <text class="st11 st12 st13" transform="translate(127.034 24.758)">
    D2
  </text>
  <text class="st11 st12 st13" transform="translate(150.609 14.445)">
    D1
  </text>
  <text class="st11 st12 st13" transform="translate(159.006 14.445)">
    V
  </text>
  <text class="st11 st12 st13" transform="translate(159.006 24.758)">
    G
  </text>
  <text class="st11 st12 st13" transform="translate(150.612 24.758)">
    D0
  </text>
  <text class="st11 st12 st13" transform="translate(103.07 14.445)">
    D5
  </text>
  <text class="st11 st12 st13" transform="translate(111.467 14.445)">
    V
  </text>
  <text class="st11 st12 st13" transform="translate(111.467 24.758)">
    G
  </text>
  <text class="st11 st12 st13" transform="translate(103.074 24.758)">
    D4
  </text>
  <text class="st11 st12 st13" transform="translate(79.892 14.445)">
    D7
  </text>
  <text class="st11 st12 st13" transform="translate(88.29 14.445)">
    V
  </text>
  <text class="st11 st12 st13" transform="translate(88.29 24.758)">
    G
  </text>
  <text class="st11 st12 st13" transform="translate(79.896 24.758)">
    D6
  </text>
  <text class="st11 st12 st13" transform="translate(56.434 14.445)">
    D9
  </text>
  <text class="st11 st12 st13" transform="translate(64.831 14.445)">
    V
  </text>
  <text class="st11 st12 st13" transform="translate(64.83 24.758)">
    G
  </text>
  <text class="st11 st12 st13" transform="translate(56.437 24.758)">
    D8
  </text>
  <text class="st11 st12 st13" transform="translate(32.299 14.445)">
    D11
  </text>
  <text class="st11 st12 st13" transform="translate(40.696 14.445)">
    V
  </text>
  <text class="st11 st12 st13" transform="translate(40.696 24.758)">
    G
  </text>
  <text class="st11 st12 st13" transform="translate(32.302 24.758)">
    D10
  </text>
  <text class="st11 st12 st13" transform="translate(9.022 14.446)">
    D13
  </text>
  <text class="st11 st12 st13" transform="translate(23.022 44.67)">
    E1
  </text>
  <text class="st11 st12 st14" transform="translate(143.268 42.398)">
    RS
  </text>
  <path d="M104.5 95.7h2.5v7.9h-2.5zM100.3 95.7h2.5v7.9h-2.5z" class="st6"/>
  <text class="st11 st12 st15" transform="rotate(90 5.828 102.832)">
    R36
  </text>
  <text class="st11 st12 st14" transform="translate(159.575 42.398)">
    D2
  </text>
  <text class="st11 st12 st14" transform="translate(143.268 54.684)">
    D1
  </text>
  <path d="M101.1 104.9h.8v11.7h-.8z" class="st5"/>
  <path d="M100.1 106.5h2.7v8.6h-2.7z" class="st6"/>
  <path d="M105.4 104.9h.8v11.7h-.8z" class="st5"/>
  <path d="M104.4 106.5h2.7v8.6h-2.7z" class="st6"/>
  <text class="st11 st12 st16" transform="rotate(90 -.36 109.322)">
    D17
  </text>
  <text class="st11 st12 st15" transform="rotate(90 7.412 104.416)">
    R35
  </text>
  <text class="st11 st12 st16" transform="rotate(90 1.225 110.908)">
    D16
  </text>
  <text class="st11 st12 st14" transform="translate(159.575 54.684)">
    R10
  </text>
  <text class="st11 st12 st13" transform="translate(25.939 54.475)">
    03
  </text>
  <text font-size="6.475" class="st11 st12" transform="rotate(-90 50.04 29.292)">
    USB
  </text>
  <text font-size="10.675" class="st11 st12" transform="rotate(-90 131.868 -23.553)">
    62561
  </text>
  <text class="st11 st12 st13" transform="translate(17.419 14.446)">
    V
  </text>
  <text class="st11 st12 st13" transform="translate(17.419 24.758)">
    G
  </text>
  <text class="st11 st12 st13" transform="translate(9.025 24.758)">
    D12
  </text>
  <text class="st11 st12 st13" transform="translate(127.034 157.59)">
    G
  </text>
  <text class="st11 st12 st13" transform="translate(127.034 167.903)">
    A
  </text>
  <text class="st11 st12 st13" transform="translate(133.523 163.07)">
    A5
  </text>
  <text class="st11 st12 st13" transform="translate(103.549 157.914)">
    G
  </text>
  <text class="st11 st12 st13" transform="translate(103.549 168.226)">
    A
  </text>
  <text class="st11 st12 st13" transform="translate(110.037 163.393)">
    A4
  </text>
  <text class="st11 st12 st13" transform="translate(79.896 157.59)">
    G
  </text>
  <text class="st11 st12 st13" transform="translate(79.896 167.903)">
    A
  </text>
  <text class="st11 st12 st13" transform="translate(86.384 163.07)">
    A3
  </text>
  <text class="st11 st12 st13" transform="translate(56.412 157.59)">
    G
  </text>
  <text class="st11 st12 st13" transform="translate(56.411 167.903)">
    A
  </text>
  <text class="st11 st12 st13" transform="translate(62.9 163.07)">
    A2
  </text>
  <text class="st11 st12 st13" transform="translate(32.716 156.949)">
    G
  </text>
  <text class="st11 st12 st13" transform="translate(32.716 167.261)">
    A
  </text>
  <text class="st11 st12 st13" transform="translate(39.205 162.428)">
    A1
  </text>
  <text class="st11 st12 st13" transform="translate(8.655 157.913)">
    G
  </text>
  <text class="st11 st12 st13" transform="translate(8.655 168.226)">
    A
  </text>
  <text class="st11 st12 st13" transform="translate(15.144 163.392)">
    A0
  </text>
  <path d="M58.4 41.1h12.2v16.4H58.4z" class="st19"/>
  <circle cx="62" cy="43.1" r="1.2" class="st20"/>
  <circle cx="67" cy="43.5" r="1.2" class="st20"/>
  <circle cx="62" cy="47.2" r="1.2" class="st20"/>
  <circle cx="67" cy="47.2" r="1.2" class="st20"/>
  <circle cx="62" cy="50.6" r="1.2" class="st20"/>
  <circle cx="67" cy="50.6" r="1.2" class="st20"/>
  <circle cx="62" cy="54" r="1.2" class="st20"/>
  <circle cx="67" cy="54" r="1.2" class="st20"/>
  <path d="M44.8 41.1H57v12.7H44.8z" class="st19"/>
  <circle cx="48.4" cy="43.3" r="1.2" class="st20"/>
  <circle cx="53.4" cy="43.5" r="1.2" class="st20"/>
  <circle cx="48.4" cy="47.2" r="1.2" class="st20"/>
  <circle cx="53.4" cy="47.2" r="1.2" class="st20"/>
  <circle cx="48.4" cy="50.6" r="1.2" class="st20"/>
  <circle cx="53.4" cy="50.6" r="1.2" class="st20"/>
  <path d="M50.9 41.1v4h-6.1M64.8 41.1v4h-6.2" class="st19"/>
</svg>
