<svg xmlns="http://www.w3.org/2000/svg" viewBox="0 0 442.89 928.09"><defs><style>.cls-1{fill:#353535;}.cls-2{fill:#f2cb6b;}.cls-3{fill:#d0ab3c;stroke-width:1.99px;}.cls-11,.cls-23,.cls-3,.cls-9{stroke:#fff;}.cls-10,.cls-11,.cls-14,.cls-23,.cls-26,.cls-3,.cls-9{stroke-miterlimit:10;}.cls-4{fill:#f0c581;}.cls-5{fill:#c8a266;}.cls-6{fill:#fff;}.cls-7{fill:#f4cb70;}.cls-8{fill:#c6c5c5;}.cls-9{fill:#9b9b9b;}.cls-10,.cls-11,.cls-14,.cls-9{stroke-width:0.66px;}.cls-10{fill:#514f50;stroke:#494646;}.cls-11{fill:none;}.cls-12{fill:#c7c6c6;}.cls-13{fill:#a6a6a6;}.cls-14{fill:#f99f46;stroke:#ef973f;}.cls-15{fill:#aaa;}.cls-16{fill:#424242;}.cls-17{fill:#c56c33;}.cls-18,.cls-23{fill:#d9b13b;}.cls-19{fill:#e4c55b;}.cls-20{fill:#de7215;}.cls-21{fill:#d2d3d3;}.cls-22{fill:#030000;}.cls-23{stroke-width:0.33px;}.cls-24{fill:#d1d1d1;}.cls-25{fill:#a7a7a7;}.cls-26{stroke:#11100e;stroke-width:1.05px;}</style></defs><title>手势传感模块</title><g id="图层_2" data-name="图层 2"><g id="图层_1-2" data-name="图层 1"><path id="_复合路径_" data-name="&lt;复合路径&gt;" class="cls-1" d="M385,0h-327A57.92,57.92,0,0,0,0,57.92V870.17a57.92,57.92,0,0,0,57.92,57.92H385a57.92,57.92,0,0,0,57.92-57.92V57.92A57.92,57.92,0,0,0,385,0Zm13.12,549.87a6.37,6.37,0,1,1,0,9A6.37,6.37,0,0,1,398.09,549.87Zm-21.15-12.49a6.37,6.37,0,1,1-6.37,6.37A6.37,6.37,0,0,1,376.94,537.38Zm-30.15,12.49a6.37,6.37,0,1,1,0,9A6.37,6.37,0,0,1,346.79,549.87Zm-259.7,0a6.37,6.37,0,1,1,0,9A6.37,6.37,0,0,1,87.09,549.87ZM65.94,537.38a6.37,6.37,0,1,1-6.37,6.37A6.37,6.37,0,0,1,65.94,537.38ZM35.79,549.87a6.37,6.37,0,1,1,0,9A6.37,6.37,0,0,1,35.79,549.87ZM23.3,580a6.37,6.37,0,1,1,6.37,6.37A6.37,6.37,0,0,1,23.3,580Zm21.5,30.15a6.37,6.37,0,1,1,0-9A6.37,6.37,0,0,1,44.8,610.17Zm21.15,12.49a6.37,6.37,0,1,1,6.37-6.37A6.37,6.37,0,0,1,65.94,622.66Zm0-17A25.65,25.65,0,1,1,91.59,580,25.65,25.65,0,0,1,65.94,605.67Zm30.15,4.5a6.37,6.37,0,1,1,0-9A6.37,6.37,0,0,1,96.1,610.17Zm6.12-23.78a6.37,6.37,0,1,1,6.37-6.37A6.37,6.37,0,0,1,102.22,586.39ZM334.3,580a6.37,6.37,0,1,1,6.37,6.37A6.37,6.37,0,0,1,334.3,580Zm21.5,30.15a6.37,6.37,0,1,1,0-9A6.37,6.37,0,0,1,355.8,610.17Zm21.15,12.49a6.37,6.37,0,1,1,6.37-6.37A6.37,6.37,0,0,1,376.94,622.66Zm0-17A25.65,25.65,0,1,1,402.59,580,25.65,25.65,0,0,1,376.94,605.67Zm30.15,4.5a6.37,6.37,0,1,1,0-9A6.37,6.37,0,0,1,407.1,610.17Zm6.12-23.78a6.37,6.37,0,1,1,6.37-6.37A6.37,6.37,0,0,1,413.22,586.39Z"/><path id="_复合路径_2" data-name="&lt;复合路径&gt;" class="cls-2" d="M376.94,531.66A48.37,48.37,0,1,0,425.31,580,48.42,48.42,0,0,0,376.94,531.66Zm21.15,18.21a6.37,6.37,0,1,1,0,9A6.37,6.37,0,0,1,398.09,549.87Zm-21.15-12.49a6.37,6.37,0,1,1-6.37,6.37A6.37,6.37,0,0,1,376.94,537.38Zm-30.15,12.49a6.37,6.37,0,1,1,0,9A6.37,6.37,0,0,1,346.79,549.87Zm-6.12,36.52A6.37,6.37,0,1,1,347,580,6.37,6.37,0,0,1,340.67,586.39Zm15.13,23.78a6.37,6.37,0,1,1,0-9A6.37,6.37,0,0,1,355.8,610.17Zm21.15,12.49a6.37,6.37,0,1,1,6.37-6.37A6.37,6.37,0,0,1,376.94,622.66Zm0-18.46A24.18,24.18,0,1,1,401.13,580,24.21,24.21,0,0,1,376.94,604.2Zm30.15,6a6.37,6.37,0,1,1,0-9A6.37,6.37,0,0,1,407.1,610.17Zm6.12-23.78a6.37,6.37,0,1,1,6.37-6.37A6.37,6.37,0,0,1,413.22,586.39Z"/><path id="_复合路径_3" data-name="&lt;复合路径&gt;" class="cls-2" d="M65.94,531.66A48.37,48.37,0,1,0,114.31,580,48.42,48.42,0,0,0,65.94,531.66Zm21.15,18.21a6.37,6.37,0,1,1,0,9A6.37,6.37,0,0,1,87.09,549.87ZM65.94,537.38a6.37,6.37,0,1,1-6.37,6.37A6.37,6.37,0,0,1,65.94,537.38ZM35.79,549.87a6.37,6.37,0,1,1,0,9A6.37,6.37,0,0,1,35.79,549.87Zm-6.12,36.52A6.37,6.37,0,1,1,36,580,6.37,6.37,0,0,1,29.67,586.39ZM44.8,610.17a6.37,6.37,0,1,1,0-9A6.37,6.37,0,0,1,44.8,610.17Zm21.15,12.49a6.37,6.37,0,1,1,6.37-6.37A6.37,6.37,0,0,1,65.94,622.66Zm0-18.46A24.18,24.18,0,1,1,90.13,580,24.21,24.21,0,0,1,65.94,604.2Zm30.15,6a6.37,6.37,0,1,1,0-9A6.37,6.37,0,0,1,96.1,610.17Zm6.12-23.78a6.37,6.37,0,1,1,6.37-6.37A6.37,6.37,0,0,1,102.22,586.39Z"/><g id="_编组_" data-name="&lt;编组&gt;"><g id="_编组_2" data-name="&lt;编组&gt;"><g id="_编组_3" data-name="&lt;编组&gt;"><g id="_编组_4" data-name="&lt;编组&gt;"><rect id="_矩形_" data-name="&lt;矩形&gt;" class="cls-3" x="118.21" y="756.97" width="18.53" height="56.47"/><rect id="_矩形_2" data-name="&lt;矩形&gt;" class="cls-4" x="122.35" y="761.99" width="10.26" height="52.94" rx="5.13" ry="5.13"/></g><rect id="_矩形_3" data-name="&lt;矩形&gt;" class="cls-5" x="122.35" y="785.07" width="10.26" height="6.78"/></g><g id="_编组_5" data-name="&lt;编组&gt;"><g id="_编组_6" data-name="&lt;编组&gt;"><rect id="_矩形_4" data-name="&lt;矩形&gt;" class="cls-3" x="155.8" y="756.97" width="18.53" height="56.47"/><rect id="_矩形_5" data-name="&lt;矩形&gt;" class="cls-4" x="159.93" y="761.99" width="10.26" height="52.94" rx="5.13" ry="5.13"/></g><rect id="_矩形_6" data-name="&lt;矩形&gt;" class="cls-5" x="159.93" y="785.07" width="10.26" height="6.78"/></g><g id="_编组_7" data-name="&lt;编组&gt;"><g id="_编组_8" data-name="&lt;编组&gt;"><rect id="_矩形_7" data-name="&lt;矩形&gt;" class="cls-3" x="193.39" y="756.97" width="18.53" height="56.47"/><rect id="_矩形_8" data-name="&lt;矩形&gt;" class="cls-4" x="197.52" y="761.99" width="10.26" height="52.94" rx="5.13" ry="5.13"/></g><rect id="_矩形_9" data-name="&lt;矩形&gt;" class="cls-5" x="197.52" y="785.07" width="10.26" height="6.78"/></g><g id="_编组_9" data-name="&lt;编组&gt;"><g id="_编组_10" data-name="&lt;编组&gt;"><rect id="_矩形_10" data-name="&lt;矩形&gt;" class="cls-3" x="230.98" y="756.97" width="18.53" height="56.47"/><rect id="_矩形_11" data-name="&lt;矩形&gt;" class="cls-4" x="235.11" y="761.99" width="10.26" height="52.94" rx="5.13" ry="5.13"/></g><rect id="_矩形_12" data-name="&lt;矩形&gt;" class="cls-5" x="235.11" y="785.07" width="10.26" height="6.78"/></g><g id="_编组_11" data-name="&lt;编组&gt;"><g id="_编组_12" data-name="&lt;编组&gt;"><rect id="_矩形_13" data-name="&lt;矩形&gt;" class="cls-3" x="268.56" y="756.97" width="18.53" height="56.47"/><rect id="_矩形_14" data-name="&lt;矩形&gt;" class="cls-4" x="272.7" y="761.99" width="10.26" height="52.94" rx="5.13" ry="5.13"/></g><rect id="_矩形_15" data-name="&lt;矩形&gt;" class="cls-5" x="272.7" y="785.07" width="10.26" height="6.78"/></g><g id="_编组_13" data-name="&lt;编组&gt;"><g id="_编组_14" data-name="&lt;编组&gt;"><rect id="_矩形_16" data-name="&lt;矩形&gt;" class="cls-3" x="306.15" y="756.97" width="18.53" height="56.47"/><rect id="_矩形_17" data-name="&lt;矩形&gt;" class="cls-4" x="310.29" y="761.99" width="10.26" height="52.94" rx="5.13" ry="5.13"/></g><rect id="_矩形_18" data-name="&lt;矩形&gt;" class="cls-5" x="310.29" y="785.07" width="10.26" height="6.78"/></g></g><rect id="_矩形_19" data-name="&lt;矩形&gt;" class="cls-6" x="68.65" y="809.75" width="305.58" height="114.27"/><rect id="_矩形_20" data-name="&lt;矩形&gt;" class="cls-7" x="122.35" y="831.15" width="10.26" height="71.47"/><rect id="_矩形_21" data-name="&lt;矩形&gt;" class="cls-7" x="310.29" y="831.15" width="10.26" height="71.47"/><rect id="_矩形_22" data-name="&lt;矩形&gt;" class="cls-8" x="68.65" y="777.32" width="18.53" height="32.43"/><rect id="_矩形_23" data-name="&lt;矩形&gt;" class="cls-8" x="355.71" y="777.32" width="18.53" height="32.43"/><rect id="_矩形_24" data-name="&lt;矩形&gt;" class="cls-8" x="98.56" y="924.01" width="245.77" height="4.08" rx="2.04" ry="2.04"/></g><g id="_编组_15" data-name="&lt;编组&gt;"><path id="_复合路径_4" data-name="&lt;复合路径&gt;" class="cls-6" d="M119.36,745.32l14-5v0l-14-5v-1.88l16.21,5.91v1.95l-16.21,5.87Z"/><path id="_复合路径_5" data-name="&lt;复合路径&gt;" class="cls-6" d="M119,725c0-3.68,2.06-5.69,4.23-6.42l.29,1.75a4.67,4.67,0,0,0-3,4.67c0,3.28,2.3,5.45,7,5.45,4.25,0,7-2.21,7-5.45a4.82,4.82,0,0,0-3.21-4.87l.27-1.68A6.42,6.42,0,0,1,136,725c0,4.69-3.79,7.15-8.55,7.15S119,730,119,725Z"/><path id="_复合路径_6" data-name="&lt;复合路径&gt;" class="cls-6" d="M119,709.18c0-3.68,2.06-5.69,4.23-6.42l.29,1.75a4.67,4.67,0,0,0-3,4.67c0,3.28,2.3,5.45,7,5.45,4.25,0,7-2.21,7-5.45a4.82,4.82,0,0,0-3.21-4.87l.27-1.68a6.42,6.42,0,0,1,4.52,6.55c0,4.69-3.79,7.15-8.55,7.15S119,714.25,119,709.18Z"/></g><g id="_编组_16" data-name="&lt;编组&gt;"><path id="_复合路径_7" data-name="&lt;复合路径&gt;" class="cls-6" d="M306.9,741.4c0-4.1,2.35-5.6,4.47-6.51l.29,1.79a4.77,4.77,0,0,0-3.23,4.72c0,3.34,2.86,5.71,7,5.71,4.25,0,7-2.46,7-5.49a5.57,5.57,0,0,0-4.19-5.31h-1.75v4.94h-1.55v-6.67h8.64v1.55h-3.32a6.14,6.14,0,0,1,3.74,5.69c0,3.61-3.08,7-8.55,7C310.31,748.82,306.9,745.78,306.9,741.4Z"/><path id="_复合路径_8" data-name="&lt;复合路径&gt;" class="cls-6" d="M307.3,729.07l13.46-9.48v0H307.3v-1.71h16.21v1.79L310,729.09l0,0h13.49v1.73H307.3Z"/><path id="_复合路径_9" data-name="&lt;复合路径&gt;" class="cls-6" d="M307.3,708.14c0-5.29,4.19-7.17,8.08-7.17,4.65,0,8.13,2.3,8.13,7.48V714H307.3ZM322,712.3v-3.9c0-3.23-2.15-5.74-6.6-5.74-3.08,0-6.55,1.51-6.55,5.78v3.85Z"/></g><g id="_编组_17" data-name="&lt;编组&gt;"><path id="_复合路径_10" data-name="&lt;复合路径&gt;" class="cls-6" d="M269.39,747l14-9.86v0h-14V735.3h16.85v1.87l-14,9.81,0,0h14v1.8H269.39Z"/><path id="_复合路径_11" data-name="&lt;复合路径&gt;" class="cls-6" d="M269,724.68c0-3.82,2.14-5.92,4.4-6.68l.3,1.82a4.85,4.85,0,0,0-3.11,4.86c0,3.41,2.4,5.66,7.23,5.66,4.42,0,7.25-2.3,7.25-5.66a5,5,0,0,0-3.34-5.07l.28-1.75a6.68,6.68,0,0,1,4.7,6.82c0,4.88-3.94,7.44-8.89,7.44S269,729.95,269,724.68Z"/></g><g id="_编组_18" data-name="&lt;编组&gt;"><path id="_复合路径_12" data-name="&lt;复合路径&gt;" class="cls-6" d="M231.61,747h17.27v1.84H231.61Z"/><path id="_复合路径_13" data-name="&lt;复合路径&gt;" class="cls-6" d="M231.61,741l14.34-10.1v0H231.61V729h17.27V731L234.53,741l0,0h14.37v1.84H231.61Z"/><path id="_复合路径_14" data-name="&lt;复合路径&gt;" class="cls-6" d="M231.61,714h1.63v5.5h15.64v1.82H233.23v5.47h-1.63Z"/></g><g id="_编组_19" data-name="&lt;编组&gt;"><path id="_复合路径_15" data-name="&lt;复合路径&gt;" class="cls-6" d="M206.56,746.86A4.89,4.89,0,0,0,210,742c0-2.57-1.59-3.92-2.92-3.92-2,0-3.15,2.78-3.85,4.6-1.26,3.48-2.55,5.58-4.81,5.58-2.87,0-4.72-2.71-4.72-6a6,6,0,0,1,4.06-6l.3,1.94a4.21,4.21,0,0,0-2.76,4.13c0,2.31,1.35,3.95,2.9,3.95,1.73,0,2.5-1.94,3.43-4.37,1.4-3.83,3-5.86,5.21-5.86,2.8,0,4.81,2.41,4.81,6a6.61,6.61,0,0,1-4.76,6.75Z"/><path id="_复合路径_16" data-name="&lt;复合路径&gt;" class="cls-6" d="M193.67,726c0-3.88,2.17-6,4.46-6.77l.3,1.85a4.92,4.92,0,0,0-3.15,4.93c0,3.46,2.43,5.74,7.33,5.74,4.48,0,7.36-2.33,7.36-5.74a5.08,5.08,0,0,0-3.39-5.14l.28-1.77a6.77,6.77,0,0,1,4.76,6.91c0,5-4,7.54-9,7.54S193.67,731.39,193.67,726Z"/><path id="_复合路径_17" data-name="&lt;复合路径&gt;" class="cls-6" d="M194.09,714.29h15.48v-9.11h1.61v10.93H194.09Z"/></g><g id="_编组_20" data-name="&lt;编组&gt;"><path id="_复合路径_18" data-name="&lt;复合路径&gt;" class="cls-6" d="M168.59,745.39a4.42,4.42,0,0,0,3.08-4.36c0-2.32-1.43-3.54-2.63-3.54-1.81,0-2.85,2.51-3.48,4.15-1.14,3.14-2.3,5-4.34,5-2.59,0-4.26-2.45-4.26-5.42a5.37,5.37,0,0,1,3.67-5.42l.27,1.75a3.8,3.8,0,0,0-2.49,3.73c0,2.09,1.22,3.56,2.61,3.56,1.56,0,2.25-1.75,3.1-3.94,1.26-3.46,2.74-5.29,4.7-5.29,2.53,0,4.34,2.17,4.34,5.42a6,6,0,0,1-4.3,6.09Z"/><path id="_复合路径_19" data-name="&lt;复合路径&gt;" class="cls-6" d="M157.34,727.07c0-5,4-6.83,7.69-6.83,4.43,0,7.73,2.19,7.73,7.12v5.31H157.34Zm14,4v-3.71c0-3.08-2-5.46-6.28-5.46-2.93,0-6.24,1.43-6.24,5.5V731Z"/><path id="_复合路径_20" data-name="&lt;复合路径&gt;" class="cls-6" d="M157.34,712.88v-1.75L172.77,705v1.71l-4.4,1.73v7.14l4.4,1.75v1.69Zm9.55,2.15v-6l-7.59,3v0Z"/></g><g id="_编组_21" data-name="&lt;编组&gt;"><g id="_编组_22" data-name="&lt;编组&gt;"><rect id="_矩形_25" data-name="&lt;矩形&gt;" class="cls-9" x="221.07" y="578.93" width="11.17" height="21.09"/><rect id="_矩形_26" data-name="&lt;矩形&gt;" class="cls-9" x="249.14" y="578.93" width="11.17" height="21.09"/><rect id="_矩形_27" data-name="&lt;矩形&gt;" class="cls-9" x="235.1" y="617.23" width="11.17" height="21.09"/><rect id="_矩形_28" data-name="&lt;矩形&gt;" class="cls-10" x="213.63" y="596.55" width="54.1" height="24.65"/><polyline id="_路径_" data-name="&lt;路径&gt;" class="cls-11" points="212.97 609.62 212.97 621.94 221.02 621.94"/><polyline id="_路径_2" data-name="&lt;路径&gt;" class="cls-11" points="268.31 609.62 268.31 621.94 260.26 621.94"/><rect id="_矩形_29" data-name="&lt;矩形&gt;" class="cls-12" x="222.15" y="586.68" width="8.99" height="9.87"/><rect id="_矩形_30" data-name="&lt;矩形&gt;" class="cls-12" x="250.22" y="586.68" width="8.99" height="9.87"/><rect id="_矩形_31" data-name="&lt;矩形&gt;" class="cls-12" x="236.19" y="621.2" width="8.99" height="9.87"/><rect id="_矩形_32" data-name="&lt;矩形&gt;" class="cls-13" x="222.15" y="593.32" width="8.99" height="1.05"/><rect id="_矩形_33" data-name="&lt;矩形&gt;" class="cls-13" x="250.22" y="593.32" width="8.99" height="1.05"/><rect id="_矩形_34" data-name="&lt;矩形&gt;" class="cls-13" x="236.19" y="623.3" width="8.99" height="1.05"/></g><g id="_编组_23" data-name="&lt;编组&gt;"><rect id="_矩形_35" data-name="&lt;矩形&gt;" class="cls-9" x="287.96" y="623" width="17.32" height="13.51" transform="translate(593.25 1259.5) rotate(180)"/><rect id="_矩形_36" data-name="&lt;矩形&gt;" class="cls-9" x="287.96" y="596.08" width="17.32" height="13.51" transform="translate(593.25 1205.68) rotate(180)"/><g id="_编组_24" data-name="&lt;编组&gt;"><rect id="_矩形_37" data-name="&lt;矩形&gt;" class="cls-14" x="290" y="606.62" width="13.24" height="19.47" transform="translate(593.25 1232.7) rotate(180)"/></g><rect id="_矩形_38" data-name="&lt;矩形&gt;" class="cls-15" x="294.28" y="598.46" width="4.74" height="14.67" transform="translate(902.44 309.14) rotate(90)"/><rect id="_矩形_39" data-name="&lt;矩形&gt;" class="cls-15" x="294.28" y="619.52" width="4.74" height="14.67" transform="translate(923.51 330.21) rotate(90)"/></g><g id="_编组_25" data-name="&lt;编组&gt;"><rect id="_矩形_40" data-name="&lt;矩形&gt;" class="cls-9" x="173.64" y="623" width="17.32" height="13.51" transform="translate(364.59 1259.5) rotate(180)"/><rect id="_矩形_41" data-name="&lt;矩形&gt;" class="cls-9" x="173.64" y="596.08" width="17.32" height="13.51" transform="translate(364.59 1205.68) rotate(180)"/><g id="_编组_26" data-name="&lt;编组&gt;"><rect id="_矩形_42" data-name="&lt;矩形&gt;" class="cls-14" x="175.68" y="606.62" width="13.24" height="19.47" transform="translate(364.59 1232.7) rotate(180)"/></g><rect id="_矩形_43" data-name="&lt;矩形&gt;" class="cls-15" x="179.95" y="598.46" width="4.74" height="14.67" transform="translate(788.12 423.47) rotate(90)"/><rect id="_矩形_44" data-name="&lt;矩形&gt;" class="cls-15" x="179.95" y="619.52" width="4.74" height="14.67" transform="translate(809.18 444.54) rotate(90)"/></g><g id="_编组_27" data-name="&lt;编组&gt;"><rect id="_矩形_45" data-name="&lt;矩形&gt;" class="cls-9" x="137.61" y="623" width="17.32" height="13.51" transform="translate(292.54 1259.5) rotate(180)"/><rect id="_矩形_46" data-name="&lt;矩形&gt;" class="cls-9" x="137.61" y="596.08" width="17.32" height="13.51" transform="translate(292.54 1205.68) rotate(180)"/><g id="_编组_28" data-name="&lt;编组&gt;"><rect id="_矩形_47" data-name="&lt;矩形&gt;" class="cls-14" x="139.65" y="606.62" width="13.24" height="19.47" transform="translate(292.54 1232.7) rotate(180)"/></g><rect id="_矩形_48" data-name="&lt;矩形&gt;" class="cls-15" x="143.93" y="598.46" width="4.74" height="14.67" transform="translate(752.09 459.5) rotate(90)"/><rect id="_矩形_49" data-name="&lt;矩形&gt;" class="cls-15" x="143.93" y="619.52" width="4.74" height="14.67" transform="translate(773.16 480.56) rotate(90)"/></g></g><g id="_编组_29" data-name="&lt;编组&gt;"><rect id="_矩形_50" data-name="&lt;矩形&gt;" class="cls-6" x="196.46" y="112.26" width="49.96" height="79.25" rx="2.23" ry="2.23"/><rect id="_矩形_51" data-name="&lt;矩形&gt;" class="cls-16" x="200.34" y="114.55" width="43.35" height="74.67"/><circle id="_路径_3" data-name="&lt;路径&gt;" class="cls-17" cx="222.01" cy="127.9" r="10.34"/><circle id="_路径_4" data-name="&lt;路径&gt;" class="cls-17" cx="222.01" cy="178.88" r="8.82"/><polygon id="_路径_5" data-name="&lt;路径&gt;" class="cls-6" points="203.24 102.62 222.01 70.11 240.78 102.62 203.24 102.62"/><polygon id="_路径_6" data-name="&lt;路径&gt;" class="cls-6" points="240.78 200.81 222.01 233.32 203.24 200.81 240.78 200.81"/><polygon id="_路径_7" data-name="&lt;路径&gt;" class="cls-6" points="276.52 133.12 309.02 151.89 276.52 170.65 276.52 133.12"/><polygon id="_路径_8" data-name="&lt;路径&gt;" class="cls-6" points="166.37 170.65 133.87 151.89 166.37 133.12 166.37 170.65"/></g><g id="_编组_30" data-name="&lt;编组&gt;"><rect id="_矩形_52" data-name="&lt;矩形&gt;" class="cls-18" x="154.74" y="357.28" width="133.4" height="47.32"/><g id="_编组_31" data-name="&lt;编组&gt;"><rect id="_矩形_53" data-name="&lt;矩形&gt;" class="cls-19" x="165.66" y="351.38" width="112.34" height="59.12"/><rect id="_矩形_54" data-name="&lt;矩形&gt;" class="cls-20" x="179.12" y="351.38" width="9.76" height="59.12"/></g></g><g id="_编组_32" data-name="&lt;编组&gt;"><rect id="_矩形_55" data-name="&lt;矩形&gt;" class="cls-9" x="166.33" y="507.34" width="17.32" height="43.57" transform="translate(349.98 1058.26) rotate(180)"/><rect id="_矩形_56" data-name="&lt;矩形&gt;" class="cls-21" x="166.63" y="514.9" width="16.71" height="29.78" transform="translate(349.98 1059.58) rotate(180)"/><polygon id="_路径_9" data-name="&lt;路径&gt;" class="cls-22" points="183.28 539.3 183.28 520.11 166.69 520.11 166.69 539.3 170.09 539.3 170.09 538.6 180.47 538.6 180.47 539.3 183.28 539.3"/></g><g id="_编组_33" data-name="&lt;编组&gt;"><rect id="_矩形_57" data-name="&lt;矩形&gt;" class="cls-9" x="231.58" y="526.22" width="17.32" height="43.57" transform="translate(-307.76 788.24) rotate(-90)"/><rect id="_矩形_58" data-name="&lt;矩形&gt;" class="cls-21" x="231.22" y="533.11" width="16.71" height="29.78" transform="translate(-308.42 787.58) rotate(-90)"/><polygon id="_路径_10" data-name="&lt;路径&gt;" class="cls-22" points="230.06 556.3 249.26 556.3 249.26 539.71 230.06 539.71 230.06 543.1 230.77 543.1 230.77 553.48 230.06 553.48 230.06 556.3"/></g><g id="_编组_34" data-name="&lt;编组&gt;"><rect id="_矩形_59" data-name="&lt;矩形&gt;" class="cls-9" x="231.58" y="429.6" width="17.32" height="43.57" transform="translate(-211.14 691.62) rotate(-90)"/><rect id="_矩形_60" data-name="&lt;矩形&gt;" class="cls-21" x="231.22" y="436.5" width="16.71" height="29.78" transform="translate(-211.81 690.96) rotate(-90)"/><polygon id="_路径_11" data-name="&lt;路径&gt;" class="cls-22" points="230.06 459.68 249.26 459.68 249.26 443.09 230.06 443.09 230.06 446.48 230.77 446.48 230.77 456.87 230.06 456.87 230.06 459.68"/></g><g id="_编组_35" data-name="&lt;编组&gt;"><rect id="_矩形_61" data-name="&lt;矩形&gt;" class="cls-9" x="166.33" y="447.28" width="17.32" height="43.57" transform="translate(349.98 938.12) rotate(180)"/><rect id="_矩形_62" data-name="&lt;矩形&gt;" class="cls-21" x="166.63" y="454.83" width="16.71" height="29.78" transform="translate(349.98 939.44) rotate(180)"/><polygon id="_路径_12" data-name="&lt;路径&gt;" class="cls-22" points="183.28 479.23 183.28 460.04 166.69 460.04 166.69 479.23 170.09 479.23 170.09 478.53 180.47 478.53 180.47 479.23 183.28 479.23"/></g><g id="_编组_36" data-name="&lt;编组&gt;"><rect id="_矩形_63" data-name="&lt;矩形&gt;" class="cls-9" x="192.45" y="283.36" width="17.32" height="13.51"/><rect id="_矩形_64" data-name="&lt;矩形&gt;" class="cls-9" x="192.45" y="310.27" width="17.32" height="13.51"/><g id="_编组_37" data-name="&lt;编组&gt;"><rect id="_矩形_65" data-name="&lt;矩形&gt;" class="cls-14" x="194.49" y="293.78" width="13.24" height="19.47"/></g><rect id="_矩形_66" data-name="&lt;矩形&gt;" class="cls-15" x="198.71" y="306.74" width="4.74" height="14.67" transform="translate(-112.99 515.15) rotate(-90)"/><rect id="_矩形_67" data-name="&lt;矩形&gt;" class="cls-15" x="198.71" y="285.67" width="4.74" height="14.67" transform="translate(-91.93 494.08) rotate(-90)"/></g><g id="_编组_38" data-name="&lt;编组&gt;"><rect id="_矩形_68" data-name="&lt;矩形&gt;" class="cls-9" x="154.74" y="283.36" width="17.32" height="13.51"/><rect id="_矩形_69" data-name="&lt;矩形&gt;" class="cls-9" x="154.74" y="310.27" width="17.32" height="13.51"/><g id="_编组_39" data-name="&lt;编组&gt;"><rect id="_矩形_70" data-name="&lt;矩形&gt;" class="cls-14" x="156.78" y="293.78" width="13.24" height="19.47"/></g><rect id="_矩形_71" data-name="&lt;矩形&gt;" class="cls-15" x="161" y="306.74" width="4.74" height="14.67" transform="translate(-150.7 477.44) rotate(-90)"/><rect id="_矩形_72" data-name="&lt;矩形&gt;" class="cls-15" x="161" y="285.67" width="4.74" height="14.67" transform="translate(-129.63 456.38) rotate(-90)"/></g><g id="_编组_40" data-name="&lt;编组&gt;"><rect id="_矩形_73" data-name="&lt;矩形&gt;" class="cls-9" x="267.86" y="281.73" width="17.32" height="43.57"/><rect id="_矩形_74" data-name="&lt;矩形&gt;" class="cls-21" x="268.16" y="287.96" width="16.71" height="29.78"/><polygon id="_路径_13" data-name="&lt;路径&gt;" class="cls-22" points="268.23 293.34 268.23 312.53 284.81 312.53 284.81 293.34 281.42 293.34 281.42 294.04 271.04 294.04 271.04 293.34 268.23 293.34"/></g><g id="_编组_41" data-name="&lt;编组&gt;"><rect id="_矩形_75" data-name="&lt;矩形&gt;" class="cls-9" x="230.15" y="281.73" width="17.32" height="43.57"/><rect id="_矩形_76" data-name="&lt;矩形&gt;" class="cls-21" x="230.46" y="287.96" width="16.71" height="29.78"/><polygon id="_路径_14" data-name="&lt;路径&gt;" class="cls-22" points="230.52 293.34 230.52 312.53 247.1 312.53 247.1 293.34 243.71 293.34 243.71 294.04 233.33 294.04 233.33 293.34 230.52 293.34"/></g><g id="_编组_42" data-name="&lt;编组&gt;"><g id="_编组_43" data-name="&lt;编组&gt;"><rect id="_矩形_77" data-name="&lt;矩形&gt;" class="cls-23" x="213.44" y="482.73" width="53.6" height="7.72"/><rect id="_矩形_78" data-name="&lt;矩形&gt;" class="cls-23" x="213.44" y="495.01" width="53.6" height="7.72"/><rect id="_矩形_79" data-name="&lt;矩形&gt;" class="cls-23" x="213.44" y="507.3" width="53.6" height="7.72"/></g><g id="_编组_44" data-name="&lt;编组&gt;"><rect id="_矩形_80" data-name="&lt;矩形&gt;" class="cls-24" x="253.11" y="508.45" width="10.66" height="5.42" transform="translate(516.89 1022.31) rotate(180)"/><rect id="_矩形_81" data-name="&lt;矩形&gt;" class="cls-25" x="257.37" y="508.45" width="1.92" height="5.42" transform="translate(516.67 1022.31) rotate(180)"/></g><g id="_编组_45" data-name="&lt;编组&gt;"><rect id="_矩形_82" data-name="&lt;矩形&gt;" class="cls-24" x="253.11" y="496.16" width="10.66" height="5.42" transform="translate(516.89 997.74) rotate(180)"/><rect id="_矩形_83" data-name="&lt;矩形&gt;" class="cls-25" x="257.37" y="496.16" width="1.92" height="5.42" transform="translate(516.67 997.74) rotate(180)"/></g><g id="_编组_46" data-name="&lt;编组&gt;"><rect id="_矩形_84" data-name="&lt;矩形&gt;" class="cls-24" x="253.11" y="483.88" width="10.66" height="5.42" transform="translate(516.89 973.18) rotate(180)"/><rect id="_矩形_85" data-name="&lt;矩形&gt;" class="cls-25" x="257.37" y="483.88" width="1.92" height="5.42" transform="translate(516.67 973.18) rotate(180)"/></g><g id="_编组_47" data-name="&lt;编组&gt;"><rect id="_矩形_86" data-name="&lt;矩形&gt;" class="cls-24" x="216.67" y="483.75" width="10.66" height="5.42"/><rect id="_矩形_87" data-name="&lt;矩形&gt;" class="cls-25" x="221.15" y="483.75" width="1.92" height="5.42"/></g><g id="_编组_48" data-name="&lt;编组&gt;"><rect id="_矩形_88" data-name="&lt;矩形&gt;" class="cls-24" x="216.67" y="496.04" width="10.66" height="5.42"/><rect id="_矩形_89" data-name="&lt;矩形&gt;" class="cls-25" x="221.15" y="496.04" width="1.92" height="5.42"/></g><g id="_编组_49" data-name="&lt;编组&gt;"><rect id="_矩形_90" data-name="&lt;矩形&gt;" class="cls-24" x="216.67" y="508.32" width="10.66" height="5.42"/><rect id="_矩形_91" data-name="&lt;矩形&gt;" class="cls-25" x="221.15" y="508.32" width="1.92" height="5.42"/></g><rect id="_矩形_92" data-name="&lt;矩形&gt;" class="cls-6" x="227.37" y="476.52" width="25.75" height="44.7" rx="2.02" ry="2.02"/><rect id="_矩形_93" data-name="&lt;矩形&gt;" class="cls-26" x="227.86" y="478.53" width="24.76" height="40.68"/></g></g></g></svg>