<svg xmlns="http://www.w3.org/2000/svg" viewBox="0 0 442.89 928.09"><defs><style>.cls-1{fill:#353535;}.cls-18,.cls-2,.cls-21{fill:none;}.cls-10,.cls-18,.cls-2,.cls-4{stroke:#fff;}.cls-10,.cls-14,.cls-15,.cls-17,.cls-18,.cls-2,.cls-22,.cls-28,.cls-4{stroke-miterlimit:10;}.cls-2{stroke-width:3.31px;}.cls-3{fill:#f2cb6b;}.cls-4{fill:#d0ab3c;stroke-width:1.99px;}.cls-5{fill:#f0c581;}.cls-6{fill:#c8a266;}.cls-7{fill:#fff;}.cls-8{fill:#f4cb70;}.cls-9{fill:#c6c5c5;}.cls-10{fill:#9b9b9b;}.cls-10,.cls-14,.cls-15,.cls-17,.cls-18,.cls-22{stroke-width:0.66px;}.cls-11{fill:#d2d3d3;}.cls-12{fill:#030000;}.cls-13{fill:#bb8c27;}.cls-14{fill:#ff4a5c;stroke:#681216;}.cls-15{fill:#f99f46;stroke:#ef973f;}.cls-16{fill:#aaa;}.cls-17{fill:#514f50;stroke:#494646;}.cls-19{fill:#c7c6c6;}.cls-20{fill:#a6a6a6;}.cls-22{fill:#58b1f9;stroke:#122c4f;}.cls-23{fill:#056f9e;}.cls-24{fill:#efefef;}.cls-25{fill:#e1b838;}.cls-26{fill:#d3d3d3;}.cls-27{fill:#3f3f3f;}.cls-28{fill:#898989;stroke:#e1b737;stroke-width:8px;}.cls-29{fill:#0a558c;}</style></defs><title>蓝牙转串口模块</title><g id="图层_2" data-name="图层 2"><g id="图层_1-2" data-name="图层 1"><path id="_复合路径_" data-name="&lt;复合路径&gt;" class="cls-1" d="M385,0h-327A57.92,57.92,0,0,0,0,57.92V870.17a57.92,57.92,0,0,0,57.92,57.92H385a57.92,57.92,0,0,0,57.92-57.92V57.92A57.92,57.92,0,0,0,385,0Zm13.12,549.87a6.37,6.37,0,1,1,0,9A6.37,6.37,0,0,1,398.09,549.87Zm-21.15-12.49a6.37,6.37,0,1,1-6.37,6.37A6.37,6.37,0,0,1,376.94,537.38Zm-30.15,12.49a6.37,6.37,0,1,1,0,9A6.37,6.37,0,0,1,346.79,549.87Zm-259.7,0a6.37,6.37,0,1,1,0,9A6.37,6.37,0,0,1,87.09,549.87ZM65.94,537.38a6.37,6.37,0,1,1-6.37,6.37A6.37,6.37,0,0,1,65.94,537.38ZM35.79,549.87a6.37,6.37,0,1,1,0,9A6.37,6.37,0,0,1,35.79,549.87ZM23.3,580a6.37,6.37,0,1,1,6.37,6.37A6.37,6.37,0,0,1,23.3,580Zm21.5,30.15a6.37,6.37,0,1,1,0-9A6.37,6.37,0,0,1,44.8,610.17Zm21.15,12.49a6.37,6.37,0,1,1,6.37-6.37A6.37,6.37,0,0,1,65.94,622.66Zm0-17A25.65,25.65,0,1,1,91.59,580,25.65,25.65,0,0,1,65.94,605.67Zm30.15,4.5a6.37,6.37,0,1,1,0-9A6.37,6.37,0,0,1,96.1,610.17Zm6.12-23.78a6.37,6.37,0,1,1,6.37-6.37A6.37,6.37,0,0,1,102.22,586.39ZM334.3,580a6.37,6.37,0,1,1,6.37,6.37A6.37,6.37,0,0,1,334.3,580Zm21.5,30.15a6.37,6.37,0,1,1,0-9A6.37,6.37,0,0,1,355.8,610.17Zm21.15,12.49a6.37,6.37,0,1,1,6.37-6.37A6.37,6.37,0,0,1,376.94,622.66Zm0-17A25.65,25.65,0,1,1,402.59,580,25.65,25.65,0,0,1,376.94,605.67Zm30.15,4.5a6.37,6.37,0,1,1,0-9A6.37,6.37,0,0,1,407.1,610.17Zm6.12-23.78a6.37,6.37,0,1,1,6.37-6.37A6.37,6.37,0,0,1,413.22,586.39Z"/><circle id="_路径_" data-name="&lt;路径&gt;" class="cls-2" cx="65.94" cy="580.02" r="48.21"/><circle id="_路径_2" data-name="&lt;路径&gt;" class="cls-2" cx="376.94" cy="580.02" r="48.21"/><path id="_复合路径_2" data-name="&lt;复合路径&gt;" class="cls-3" d="M376.94,531.66A48.37,48.37,0,1,0,425.31,580,48.42,48.42,0,0,0,376.94,531.66Zm21.15,18.21a6.37,6.37,0,1,1,0,9A6.37,6.37,0,0,1,398.09,549.87Zm-21.15-12.49a6.37,6.37,0,1,1-6.37,6.37A6.37,6.37,0,0,1,376.94,537.38Zm-30.15,12.49a6.37,6.37,0,1,1,0,9A6.37,6.37,0,0,1,346.79,549.87Zm-6.12,36.52A6.37,6.37,0,1,1,347,580,6.37,6.37,0,0,1,340.67,586.39Zm15.13,23.78a6.37,6.37,0,1,1,0-9A6.37,6.37,0,0,1,355.8,610.17Zm21.15,12.49a6.37,6.37,0,1,1,6.37-6.37A6.37,6.37,0,0,1,376.94,622.66Zm0-18.46A24.18,24.18,0,1,1,401.13,580,24.21,24.21,0,0,1,376.94,604.2Zm30.15,6a6.37,6.37,0,1,1,0-9A6.37,6.37,0,0,1,407.1,610.17Zm6.12-23.78a6.37,6.37,0,1,1,6.37-6.37A6.37,6.37,0,0,1,413.22,586.39Z"/><path id="_复合路径_3" data-name="&lt;复合路径&gt;" class="cls-3" d="M65.94,531.66A48.37,48.37,0,1,0,114.31,580,48.42,48.42,0,0,0,65.94,531.66Zm21.15,18.21a6.37,6.37,0,1,1,0,9A6.37,6.37,0,0,1,87.09,549.87ZM65.94,537.38a6.37,6.37,0,1,1-6.37,6.37A6.37,6.37,0,0,1,65.94,537.38ZM35.79,549.87a6.37,6.37,0,1,1,0,9A6.37,6.37,0,0,1,35.79,549.87Zm-6.12,36.52A6.37,6.37,0,1,1,36,580,6.37,6.37,0,0,1,29.67,586.39ZM44.8,610.17a6.37,6.37,0,1,1,0-9A6.37,6.37,0,0,1,44.8,610.17Zm21.15,12.49a6.37,6.37,0,1,1,6.37-6.37A6.37,6.37,0,0,1,65.94,622.66Zm0-18.46A24.18,24.18,0,1,1,90.13,580,24.21,24.21,0,0,1,65.94,604.2Zm30.15,6a6.37,6.37,0,1,1,0-9A6.37,6.37,0,0,1,96.1,610.17Zm6.12-23.78a6.37,6.37,0,1,1,6.37-6.37A6.37,6.37,0,0,1,102.22,586.39Z"/><g id="_编组_" data-name="&lt;编组&gt;"><g id="_编组_2" data-name="&lt;编组&gt;"><g id="_编组_3" data-name="&lt;编组&gt;"><rect id="_矩形_" data-name="&lt;矩形&gt;" class="cls-4" x="160.45" y="762.05" width="18.53" height="56.47"/><rect id="_矩形_2" data-name="&lt;矩形&gt;" class="cls-5" x="164.59" y="767.06" width="10.26" height="52.94" rx="5.13" ry="5.13"/></g><rect id="_矩形_3" data-name="&lt;矩形&gt;" class="cls-6" x="164.59" y="790.14" width="10.26" height="6.78"/></g><g id="_编组_4" data-name="&lt;编组&gt;"><g id="_编组_5" data-name="&lt;编组&gt;"><rect id="_矩形_4" data-name="&lt;矩形&gt;" class="cls-4" x="196.06" y="762.05" width="18.53" height="56.47"/><rect id="_矩形_5" data-name="&lt;矩形&gt;" class="cls-5" x="200.2" y="767.06" width="10.26" height="52.94" rx="5.13" ry="5.13"/></g><rect id="_矩形_6" data-name="&lt;矩形&gt;" class="cls-6" x="200.2" y="790.14" width="10.26" height="6.78"/></g><g id="_编组_6" data-name="&lt;编组&gt;"><g id="_编组_7" data-name="&lt;编组&gt;"><rect id="_矩形_7" data-name="&lt;矩形&gt;" class="cls-4" x="231.67" y="762.05" width="18.53" height="56.47"/><rect id="_矩形_8" data-name="&lt;矩形&gt;" class="cls-5" x="235.8" y="767.06" width="10.26" height="52.94" rx="5.13" ry="5.13"/></g><rect id="_矩形_9" data-name="&lt;矩形&gt;" class="cls-6" x="235.8" y="790.14" width="10.26" height="6.78"/></g><g id="_编组_8" data-name="&lt;编组&gt;"><g id="_编组_9" data-name="&lt;编组&gt;"><rect id="_矩形_10" data-name="&lt;矩形&gt;" class="cls-4" x="267.27" y="762.05" width="18.53" height="56.47"/><rect id="_矩形_11" data-name="&lt;矩形&gt;" class="cls-5" x="271.41" y="767.06" width="10.26" height="52.94" rx="5.13" ry="5.13"/></g><rect id="_矩形_12" data-name="&lt;矩形&gt;" class="cls-6" x="271.41" y="790.14" width="10.26" height="6.78"/></g><rect id="_矩形_13" data-name="&lt;矩形&gt;" class="cls-7" x="112.59" y="809.75" width="217.72" height="114.27"/><g id="_编组_10" data-name="&lt;编组&gt;"><rect id="_矩形_14" data-name="&lt;矩形&gt;" class="cls-8" x="162.91" y="831.15" width="10.26" height="71.47"/><rect id="_矩形_15" data-name="&lt;矩形&gt;" class="cls-8" x="269.73" y="832.8" width="10.26" height="71.47"/></g><rect id="_矩形_16" data-name="&lt;矩形&gt;" class="cls-9" x="112.59" y="777.32" width="18.53" height="32.43"/><rect id="_矩形_17" data-name="&lt;矩形&gt;" class="cls-9" x="311.78" y="777.32" width="18.53" height="32.43"/><rect id="_矩形_18" data-name="&lt;矩形&gt;" class="cls-9" x="159.24" y="924.01" width="124.41" height="4.08" rx="2.04" ry="2.04"/></g><g id="_编组_11" data-name="&lt;编组&gt;"><path id="_复合路径_4" data-name="&lt;复合路径&gt;" class="cls-7" d="M161.49,746.89l14-5v0l-14-5V735l16.21,5.91v1.95l-16.21,5.87Z"/><path id="_复合路径_5" data-name="&lt;复合路径&gt;" class="cls-7" d="M161.09,726.54c0-3.68,2.06-5.69,4.23-6.42l.29,1.75a4.67,4.67,0,0,0-3,4.67c0,3.28,2.3,5.45,7,5.45,4.25,0,7-2.21,7-5.45a4.82,4.82,0,0,0-3.21-4.87l.27-1.68a6.42,6.42,0,0,1,4.52,6.55c0,4.69-3.79,7.15-8.55,7.15S161.09,731.61,161.09,726.54Z"/><path id="_复合路径_6" data-name="&lt;复合路径&gt;" class="cls-7" d="M161.09,710.75c0-3.68,2.06-5.69,4.23-6.42l.29,1.75a4.67,4.67,0,0,0-3,4.67c0,3.28,2.3,5.45,7,5.45,4.25,0,7-2.21,7-5.45a4.82,4.82,0,0,0-3.21-4.87l.27-1.68a6.42,6.42,0,0,1,4.52,6.55c0,4.69-3.79,7.15-8.55,7.15S161.09,715.83,161.09,710.75Z"/></g><g id="_编组_12" data-name="&lt;编组&gt;"><path id="_复合路径_7" data-name="&lt;复合路径&gt;" class="cls-7" d="M268,741.12c0-4.1,2.35-5.6,4.47-6.51l.29,1.79a4.77,4.77,0,0,0-3.23,4.72c0,3.34,2.86,5.71,7,5.71,4.25,0,7-2.46,7-5.49A5.57,5.57,0,0,0,279.3,736h-1.75V741H276V734.3h8.64v1.55h-3.32a6.14,6.14,0,0,1,3.74,5.69c0,3.61-3.08,7-8.55,7C271.43,748.54,268,745.51,268,741.12Z"/><path id="_复合路径_8" data-name="&lt;复合路径&gt;" class="cls-7" d="M268.42,728.79l13.46-9.48v0H268.42v-1.71h16.21v1.79l-13.46,9.43,0,0h13.49v1.73H268.42Z"/><path id="_复合路径_9" data-name="&lt;复合路径&gt;" class="cls-7" d="M268.42,707.87c0-5.29,4.19-7.17,8.08-7.17,4.65,0,8.13,2.3,8.13,7.48v5.58H268.42ZM283.1,712v-3.9c0-3.23-2.15-5.74-6.6-5.74-3.08,0-6.55,1.51-6.55,5.78V712Z"/></g><g id="_编组_13" data-name="&lt;编组&gt;"><rect id="_矩形_19" data-name="&lt;矩形&gt;" class="cls-10" x="38.01" y="673.64" width="17.32" height="43.57"/><rect id="_矩形_20" data-name="&lt;矩形&gt;" class="cls-11" x="38.31" y="679.87" width="16.71" height="29.78"/><polygon id="_路径_3" data-name="&lt;路径&gt;" class="cls-12" points="38.37 685.25 38.37 704.44 54.96 704.44 54.96 685.25 51.56 685.25 51.56 685.95 41.18 685.95 41.18 685.25 38.37 685.25"/></g><g id="_编组_14" data-name="&lt;编组&gt;"><rect id="_矩形_21" data-name="&lt;矩形&gt;" class="cls-10" x="68.7" y="673.64" width="17.32" height="43.57"/><rect id="_矩形_22" data-name="&lt;矩形&gt;" class="cls-11" x="69" y="679.87" width="16.71" height="29.78"/><polygon id="_路径_4" data-name="&lt;路径&gt;" class="cls-12" points="69.06 685.25 69.06 704.44 85.65 704.44 85.65 685.25 82.26 685.25 82.26 685.95 71.88 685.95 71.88 685.25 69.06 685.25"/></g><g id="_编组_15" data-name="&lt;编组&gt;"><rect id="_矩形_23" data-name="&lt;矩形&gt;" class="cls-10" x="38.01" y="737.4" width="17.32" height="13.51"/><rect id="_矩形_24" data-name="&lt;矩形&gt;" class="cls-10" x="38.01" y="764.31" width="17.32" height="13.51"/><g id="_编组_16" data-name="&lt;编组&gt;"><path id="_路径_5" data-name="&lt;路径&gt;" class="cls-13" d="M51.32,742.06a4.66,4.66,0,1,1-9.32,0H39.22v8.85H54.11v-8.85Z"/><path id="_路径_6" data-name="&lt;路径&gt;" class="cls-13" d="M42,773.16a4.66,4.66,0,1,1,9.32,0h2.79v-8.85H39.22v8.85Z"/><rect id="_矩形_25" data-name="&lt;矩形&gt;" class="cls-14" x="40.05" y="747.82" width="13.24" height="19.47"/></g></g><g id="_编组_17" data-name="&lt;编组&gt;"><rect id="_矩形_26" data-name="&lt;矩形&gt;" class="cls-10" x="152.79" y="525.22" width="17.32" height="13.51" transform="translate(-370.53 693.42) rotate(-90)"/><rect id="_矩形_27" data-name="&lt;矩形&gt;" class="cls-10" x="179.7" y="525.22" width="17.32" height="13.51" transform="translate(-343.62 720.33) rotate(-90)"/><g id="_编组_18" data-name="&lt;编组&gt;"><rect id="_矩形_28" data-name="&lt;矩形&gt;" class="cls-15" x="168.23" y="522.24" width="13.24" height="19.47" transform="translate(-357.13 706.82) rotate(-90)"/></g><rect id="_矩形_29" data-name="&lt;矩形&gt;" class="cls-16" x="183.03" y="524.67" width="4.74" height="14.67" transform="translate(370.81 1064) rotate(180)"/><rect id="_矩形_30" data-name="&lt;矩形&gt;" class="cls-16" x="161.97" y="524.67" width="4.74" height="14.67" transform="translate(328.68 1064) rotate(180)"/></g><g id="_编组_19" data-name="&lt;编组&gt;"><rect id="_矩形_31" data-name="&lt;矩形&gt;" class="cls-10" x="152.79" y="630.14" width="17.32" height="13.51" transform="translate(-475.45 798.34) rotate(-90)"/><rect id="_矩形_32" data-name="&lt;矩形&gt;" class="cls-10" x="179.7" y="630.14" width="17.32" height="13.51" transform="translate(-448.53 825.25) rotate(-90)"/><g id="_编组_20" data-name="&lt;编组&gt;"><rect id="_矩形_33" data-name="&lt;矩形&gt;" class="cls-15" x="168.23" y="627.16" width="13.24" height="19.47" transform="translate(-462.04 811.74) rotate(-90)"/></g><rect id="_矩形_34" data-name="&lt;矩形&gt;" class="cls-16" x="183.03" y="629.58" width="4.74" height="14.67" transform="translate(370.81 1273.84) rotate(180)"/><rect id="_矩形_35" data-name="&lt;矩形&gt;" class="cls-16" x="161.97" y="629.58" width="4.74" height="14.67" transform="translate(328.68 1273.84) rotate(180)"/></g><g id="_编组_21" data-name="&lt;编组&gt;"><rect id="_矩形_36" data-name="&lt;矩形&gt;" class="cls-10" x="188.41" y="559.89" width="11.17" height="21.09" transform="translate(764.44 376.44) rotate(90)"/><rect id="_矩形_37" data-name="&lt;矩形&gt;" class="cls-10" x="188.41" y="587.96" width="11.17" height="21.09" transform="translate(792.51 404.51) rotate(90)"/><rect id="_矩形_38" data-name="&lt;矩形&gt;" class="cls-10" x="150.11" y="573.93" width="11.17" height="21.09" transform="translate(740.17 428.78) rotate(90)"/><rect id="_矩形_39" data-name="&lt;矩形&gt;" class="cls-17" x="147.55" y="572.15" width="54.1" height="24.65" transform="translate(759.07 409.88) rotate(90)"/><polyline id="_路径_7" data-name="&lt;路径&gt;" class="cls-18" points="173.85 556.76 161.53 556.76 161.53 564.81"/><polyline id="_路径_8" data-name="&lt;路径&gt;" class="cls-18" points="173.85 612.1 161.53 612.1 161.53 604.05"/><rect id="_矩形_40" data-name="&lt;矩形&gt;" class="cls-19" x="187.37" y="565.5" width="8.99" height="9.87" transform="translate(762.3 378.58) rotate(90)"/><rect id="_矩形_41" data-name="&lt;矩形&gt;" class="cls-19" x="187.37" y="593.57" width="8.99" height="9.87" transform="translate(790.37 406.65) rotate(90)"/><rect id="_矩形_42" data-name="&lt;矩形&gt;" class="cls-19" x="152.84" y="579.54" width="8.99" height="9.87" transform="translate(741.81 427.14) rotate(90)"/><rect id="_矩形_43" data-name="&lt;矩形&gt;" class="cls-20" x="185.13" y="569.92" width="8.99" height="1.05" transform="translate(760.07 380.81) rotate(90)"/><rect id="_矩形_44" data-name="&lt;矩形&gt;" class="cls-20" x="185.13" y="597.99" width="8.99" height="1.05" transform="translate(788.14 408.88) rotate(90)"/><rect id="_矩形_45" data-name="&lt;矩形&gt;" class="cls-20" x="155.16" y="583.95" width="8.99" height="1.05" transform="translate(744.13 424.82) rotate(90)"/></g><g id="_编组_22" data-name="&lt;编组&gt;"><rect id="_矩形_46" data-name="&lt;矩形&gt;" class="cls-10" x="254.06" y="615.11" width="17.32" height="43.57" transform="translate(-374.18 899.61) rotate(-90)"/><rect id="_矩形_47" data-name="&lt;矩形&gt;" class="cls-11" x="253.7" y="622" width="16.71" height="29.78" transform="translate(-374.84 898.94) rotate(-90)"/><polygon id="_路径_9" data-name="&lt;路径&gt;" class="cls-12" points="252.54 645.18 271.73 645.18 271.73 628.6 252.54 628.6 252.54 631.99 253.24 631.99 253.24 642.37 252.54 642.37 252.54 645.18"/></g><g id="_编组_23" data-name="&lt;编组&gt;"><rect id="_矩形_48" data-name="&lt;矩形&gt;" class="cls-10" x="254.06" y="580.14" width="17.32" height="43.57" transform="translate(-339.21 864.64) rotate(-90)"/><rect id="_矩形_49" data-name="&lt;矩形&gt;" class="cls-11" x="253.7" y="587.04" width="16.71" height="29.78" transform="translate(-339.87 863.98) rotate(-90)"/><polygon id="_路径_10" data-name="&lt;路径&gt;" class="cls-12" points="252.54 610.22 271.73 610.22 271.73 593.63 252.54 593.63 252.54 597.03 253.24 597.03 253.24 607.41 252.54 607.41 252.54 610.22"/></g><g id="_编组_24" data-name="&lt;编组&gt;"><rect id="_矩形_50" data-name="&lt;矩形&gt;" class="cls-10" x="254.06" y="545.18" width="17.32" height="43.57" transform="translate(-304.25 829.68) rotate(-90)"/><rect id="_矩形_51" data-name="&lt;矩形&gt;" class="cls-11" x="253.7" y="552.07" width="16.71" height="29.78" transform="translate(-304.91 829.02) rotate(-90)"/><polygon id="_路径_11" data-name="&lt;路径&gt;" class="cls-12" points="252.54 575.26 271.73 575.26 271.73 558.67 252.54 558.67 252.54 562.06 253.24 562.06 253.24 572.45 252.54 572.45 252.54 575.26"/></g><g id="_编组_25" data-name="&lt;编组&gt;"><rect id="_矩形_52" data-name="&lt;矩形&gt;" class="cls-10" x="254.06" y="510.22" width="17.32" height="43.57" transform="translate(-269.29 794.72) rotate(-90)"/><rect id="_矩形_53" data-name="&lt;矩形&gt;" class="cls-11" x="253.7" y="517.11" width="16.71" height="29.78" transform="translate(-269.95 794.05) rotate(-90)"/><polygon id="_路径_12" data-name="&lt;路径&gt;" class="cls-12" points="252.54 540.29 271.73 540.29 271.73 523.71 252.54 523.71 252.54 527.1 253.24 527.1 253.24 537.48 252.54 537.48 252.54 540.29"/></g><path id="_路径_13" data-name="&lt;路径&gt;" class="cls-21" d="M381,156.41"/><g id="_编组_26" data-name="&lt;编组&gt;"><path id="_复合路径_10" data-name="&lt;复合路径&gt;" class="cls-7" d="M232.42,736.12H234v5.42h15.42v1.79H234v5.4h-1.61Z"/><path id="_复合路径_11" data-name="&lt;复合路径&gt;" class="cls-7" d="M232.42,733.4l6.84-4.61-6.84-4.63V722l8.4,5.68,8.63-5.84V724l-7.07,4.79,7.07,4.79v2.09l-8.63-5.84-8.4,5.65Z"/><path id="_复合路径_12" data-name="&lt;复合路径&gt;" class="cls-7" d="M232.42,713.44c0-5.56,4.4-7.54,8.49-7.54,4.89,0,8.54,2.42,8.54,7.86v5.86h-17Zm15.42,4.37v-4.09c0-3.4-2.26-6-6.93-6-3.23,0-6.89,1.58-6.89,6.07v4Z"/></g><g id="_编组_27" data-name="&lt;编组&gt;"><path id="_复合路径_13" data-name="&lt;复合路径&gt;" class="cls-7" d="M196.81,742.19c0-3.68,1.93-5.37,4.58-5.37a4.81,4.81,0,0,1,4.16,2.79h0c.49-1.42,1.81-2.35,3.84-2.44a17.08,17.08,0,0,0,4.42-.86v1.91a17.45,17.45,0,0,1-4.26.72c-1.91.12-3.16,1.16-3.16,2.93v5.07h7.42v1.79h-17Zm8,4.75v-4.65a3.39,3.39,0,0,0-3.3-3.68c-1.86,0-3.07,1.35-3.07,3.84v4.49Z"/><path id="_复合路径_14" data-name="&lt;复合路径&gt;" class="cls-7" d="M196.81,732.79l6.84-4.61-6.84-4.63v-2.12l8.4,5.68,8.63-5.84v2.12l-7.07,4.79,7.07,4.79v2.09l-8.63-5.84-8.4,5.65Z"/><path id="_复合路径_15" data-name="&lt;复合路径&gt;" class="cls-7" d="M196.81,712.83c0-5.56,4.4-7.54,8.49-7.54,4.89,0,8.54,2.42,8.54,7.86V719h-17Zm15.42,4.37v-4.09c0-3.4-2.26-6-6.93-6-3.23,0-6.89,1.58-6.89,6.07v4Z"/></g><g id="_编组_28" data-name="&lt;编组&gt;"><rect id="_矩形_54" data-name="&lt;矩形&gt;" class="cls-10" x="68.7" y="737.34" width="17.32" height="13.51"/><rect id="_矩形_55" data-name="&lt;矩形&gt;" class="cls-10" x="68.7" y="764.25" width="17.32" height="13.51"/><g id="_编组_29" data-name="&lt;编组&gt;"><path id="_路径_14" data-name="&lt;路径&gt;" class="cls-22" d="M82,742a4.66,4.66,0,1,1-9.32,0H69.91v8.85H84.8V742Z"/><path id="_路径_15" data-name="&lt;路径&gt;" class="cls-22" d="M72.69,773.11a4.66,4.66,0,1,1,9.32,0H84.8v-8.85H69.91v8.85Z"/><rect id="_矩形_56" data-name="&lt;矩形&gt;" class="cls-22" x="70.74" y="747.77" width="13.24" height="19.47"/></g></g><rect class="cls-23" x="79.78" y="25.26" width="283.33" height="418"/><rect class="cls-24" x="154.81" y="440.64" width="11.08" height="16.33" transform="translate(609.16 288.45) rotate(90)"/><rect class="cls-24" x="179.25" y="440.64" width="11.08" height="16.33" transform="translate(633.59 264.01) rotate(90)"/><rect class="cls-24" x="203.69" y="440.64" width="11.08" height="16.33" transform="translate(658.03 239.58) rotate(90)"/><rect class="cls-24" x="228.12" y="440.64" width="11.08" height="16.33" transform="translate(682.47 215.14) rotate(90)"/><rect class="cls-24" x="252.56" y="440.64" width="11.08" height="16.33" transform="translate(706.9 190.7) rotate(90)"/><rect class="cls-24" x="277" y="440.64" width="11.08" height="16.33" transform="translate(731.34 166.27) rotate(90)"/><rect class="cls-25" x="155.4" y="430.14" width="9.92" height="16.33" transform="translate(598.66 277.95) rotate(90)"/><rect class="cls-25" x="179.83" y="430.14" width="9.92" height="16.33" transform="translate(623.09 253.51) rotate(90)"/><rect class="cls-25" x="204.27" y="430.14" width="9.92" height="16.33" transform="translate(647.53 229.08) rotate(90)"/><rect class="cls-25" x="228.71" y="430.14" width="9.92" height="16.33" transform="translate(671.97 204.64) rotate(90)"/><rect class="cls-25" x="253.14" y="430.14" width="9.92" height="16.33" transform="translate(696.4 180.2) rotate(90)"/><rect class="cls-25" x="277.58" y="430.14" width="9.92" height="16.33" transform="translate(720.84 155.77) rotate(90)"/><rect class="cls-24" x="52.44" y="195.59" width="32.24" height="16.33"/><rect class="cls-24" x="52.44" y="219.68" width="32.24" height="16.33"/><rect class="cls-24" x="52.44" y="243.76" width="32.24" height="16.33"/><rect class="cls-24" x="52.44" y="267.84" width="32.24" height="16.33"/><rect class="cls-24" x="52.44" y="291.93" width="32.24" height="16.33"/><rect class="cls-24" x="52.44" y="316.01" width="32.24" height="16.33"/><rect class="cls-24" x="52.44" y="340.09" width="32.24" height="16.33"/><rect class="cls-24" x="52.44" y="364.18" width="32.24" height="16.33"/><rect class="cls-24" x="52.44" y="388.26" width="32.24" height="16.33"/><rect class="cls-24" x="356.69" y="195.59" width="33.76" height="16.33"/><rect class="cls-24" x="356.69" y="219.68" width="33.76" height="16.33"/><rect class="cls-24" x="356.69" y="243.76" width="33.76" height="16.33"/><rect class="cls-24" x="356.69" y="267.84" width="33.76" height="16.33"/><rect class="cls-24" x="356.69" y="291.93" width="33.76" height="16.33"/><rect class="cls-24" x="356.69" y="316.01" width="33.76" height="16.33"/><rect class="cls-24" x="356.69" y="340.09" width="33.76" height="16.33"/><rect class="cls-24" x="356.69" y="364.18" width="33.76" height="16.33"/><rect class="cls-24" x="356.69" y="388.26" width="33.76" height="16.33"/><rect class="cls-26" x="306.35" y="253.37" width="34.07" height="35.5" rx="6.61" ry="6.61"/><rect class="cls-26" x="257.74" y="210.03" width="24.38" height="11.19"/><rect class="cls-26" x="257.74" y="159.69" width="24.38" height="11.19"/><rect class="cls-26" x="206.15" y="210.03" width="24.38" height="11.19"/><rect class="cls-26" x="206.15" y="159.69" width="24.38" height="11.19"/><rect class="cls-26" x="231.23" y="187.64" width="24.38" height="11.19" transform="translate(436.66 -50.19) rotate(90)"/><rect class="cls-26" x="216.63" y="236.04" width="24.38" height="11.19" transform="translate(470.45 12.81) rotate(90)"/><rect class="cls-26" x="195.66" y="236.04" width="24.38" height="11.19" transform="translate(449.49 33.78) rotate(90)"/><rect class="cls-26" x="268.23" y="236.04" width="24.38" height="11.19" transform="translate(522.05 -38.78) rotate(90)"/><rect class="cls-26" x="247.26" y="236.04" width="24.38" height="11.19" transform="translate(501.08 -17.82) rotate(90)"/><rect class="cls-27" x="165.11" y="291.93" width="112.67" height="112.67"/><rect class="cls-24" x="155.28" y="295.59" width="9.83" height="5.5"/><rect class="cls-24" x="155.28" y="304.67" width="9.83" height="5.5"/><rect class="cls-24" x="155.28" y="313.75" width="9.83" height="5.5"/><rect class="cls-24" x="155.28" y="322.82" width="9.83" height="5.5"/><rect class="cls-24" x="155.28" y="368.2" width="9.83" height="5.5"/><rect class="cls-24" x="155.28" y="377.28" width="9.83" height="5.5"/><rect class="cls-24" x="155.28" y="386.35" width="9.83" height="5.5"/><rect class="cls-24" x="155.28" y="395.43" width="9.83" height="5.5"/><rect class="cls-24" x="155.28" y="331.9" width="9.83" height="5.5"/><rect class="cls-24" x="155.28" y="340.97" width="9.83" height="5.5"/><rect class="cls-24" x="155.28" y="350.05" width="9.83" height="5.5"/><rect class="cls-24" x="155.28" y="359.12" width="9.83" height="5.5"/><rect class="cls-24" x="277.78" y="295.59" width="9.83" height="5.5"/><rect class="cls-24" x="277.78" y="304.67" width="9.83" height="5.5"/><rect class="cls-24" x="277.78" y="313.75" width="9.83" height="5.5"/><rect class="cls-24" x="277.78" y="322.82" width="9.83" height="5.5"/><rect class="cls-24" x="277.78" y="368.2" width="9.83" height="5.5"/><rect class="cls-24" x="277.78" y="377.28" width="9.83" height="5.5"/><rect class="cls-24" x="277.78" y="386.35" width="9.83" height="5.5"/><rect class="cls-24" x="277.78" y="395.43" width="9.83" height="5.5"/><rect class="cls-24" x="277.78" y="331.9" width="9.83" height="5.5"/><rect class="cls-24" x="277.78" y="340.97" width="9.83" height="5.5"/><rect class="cls-24" x="277.78" y="350.05" width="9.83" height="5.5"/><rect class="cls-24" x="277.78" y="359.12" width="9.83" height="5.5"/><rect class="cls-24" x="166.61" y="284.26" width="9.83" height="5.5" transform="translate(-115.48 458.54) rotate(-90)"/><rect class="cls-24" x="175.69" y="284.26" width="9.83" height="5.5" transform="translate(-106.41 467.62) rotate(-90)"/><rect class="cls-24" x="184.76" y="284.26" width="9.83" height="5.5" transform="translate(-97.33 476.69) rotate(-90)"/><rect class="cls-24" x="193.84" y="284.26" width="9.83" height="5.5" transform="translate(-88.25 485.77) rotate(-90)"/><rect class="cls-24" x="239.22" y="284.26" width="9.83" height="5.5" transform="translate(-42.88 531.15) rotate(-90)"/><rect class="cls-24" x="248.29" y="284.26" width="9.83" height="5.5" transform="translate(-33.8 540.22) rotate(-90)"/><rect class="cls-24" x="257.37" y="284.26" width="9.83" height="5.5" transform="translate(-24.72 549.3) rotate(-90)"/><rect class="cls-24" x="266.45" y="284.26" width="9.83" height="5.5" transform="translate(-15.65 558.37) rotate(-90)"/><rect class="cls-24" x="202.92" y="284.26" width="9.83" height="5.5" transform="translate(-79.18 494.84) rotate(-90)"/><rect class="cls-24" x="211.99" y="284.26" width="9.83" height="5.5" transform="translate(-70.1 503.92) rotate(-90)"/><rect class="cls-24" x="221.07" y="284.26" width="9.83" height="5.5" transform="translate(-61.03 512.99) rotate(-90)"/><rect class="cls-24" x="230.14" y="284.26" width="9.83" height="5.5" transform="translate(-51.95 522.07) rotate(-90)"/><rect class="cls-24" x="166.61" y="406.76" width="9.83" height="5.5" transform="translate(-237.98 581.04) rotate(-90)"/><rect class="cls-24" x="175.69" y="406.76" width="9.83" height="5.5" transform="translate(-228.91 590.12) rotate(-90)"/><rect class="cls-24" x="184.76" y="406.76" width="9.83" height="5.5" transform="translate(-219.83 599.19) rotate(-90)"/><rect class="cls-24" x="193.84" y="406.76" width="9.83" height="5.5" transform="translate(-210.75 608.27) rotate(-90)"/><rect class="cls-24" x="239.22" y="406.76" width="9.83" height="5.5" transform="translate(-165.38 653.65) rotate(-90)"/><rect class="cls-24" x="248.29" y="406.76" width="9.83" height="5.5" transform="translate(-156.3 662.72) rotate(-90)"/><rect class="cls-24" x="257.37" y="406.76" width="9.83" height="5.5" transform="translate(-147.22 671.8) rotate(-90)"/><rect class="cls-24" x="266.45" y="406.76" width="9.83" height="5.5" transform="translate(-138.15 680.87) rotate(-90)"/><rect class="cls-24" x="202.92" y="406.76" width="9.83" height="5.5" transform="translate(-201.68 617.34) rotate(-90)"/><rect class="cls-24" x="211.99" y="406.76" width="9.83" height="5.5" transform="translate(-192.6 626.42) rotate(-90)"/><rect class="cls-24" x="221.07" y="406.76" width="9.83" height="5.5" transform="translate(-183.53 635.49) rotate(-90)"/><rect class="cls-24" x="230.14" y="406.76" width="9.83" height="5.5" transform="translate(-174.45 644.57) rotate(-90)"/><rect class="cls-26" x="100.11" y="308.26" width="21" height="48.17" rx="4" ry="4"/><rect class="cls-26" x="136.43" y="249.26" width="10.52" height="20.83"/><rect class="cls-26" x="106.27" y="357.78" width="8.68" height="20.83" transform="translate(-257.59 478.82) rotate(-90)"/><rect class="cls-26" x="319.05" y="290.68" width="8.68" height="20.83" transform="translate(22.3 624.49) rotate(-90)"/><rect class="cls-26" x="319.05" y="310.42" width="8.68" height="20.83" transform="translate(2.55 644.23) rotate(-90)"/><rect class="cls-26" x="319.05" y="330.56" width="8.68" height="20.83" transform="translate(-17.58 664.36) rotate(-90)"/><rect class="cls-26" x="106.27" y="371.98" width="8.68" height="20.83" transform="translate(-271.78 493.01) rotate(-90)"/><rect class="cls-26" x="106.27" y="386.17" width="8.68" height="20.83" transform="translate(-285.97 507.2) rotate(-90)"/><rect class="cls-26" x="106.27" y="223.9" width="8.68" height="20.83" transform="translate(-123.7 344.93) rotate(-90)"/><rect class="cls-26" x="106.27" y="207.67" width="8.68" height="20.83" transform="translate(-107.47 328.7) rotate(-90)"/><rect class="cls-26" x="106.27" y="240.13" width="8.68" height="20.83" transform="translate(-139.93 361.16) rotate(-90)"/><rect class="cls-26" x="106.27" y="256.36" width="8.68" height="20.83" transform="translate(-156.16 377.39) rotate(-90)"/><rect class="cls-26" x="106.27" y="281.45" width="8.68" height="20.83" transform="translate(-181.25 402.48) rotate(-90)"/><rect class="cls-26" x="151.72" y="249.26" width="10.52" height="20.83"/><circle class="cls-28" cx="388.03" cy="443.26" r="11.08"/><circle class="cls-28" cx="388.03" cy="492.76" r="11.08"/><rect class="cls-29" x="161.11" y="36.59" width="31.32" height="60"/><rect class="cls-29" x="105.11" y="36.59" width="31.32" height="91.32"/><rect class="cls-29" x="200.95" y="36.59" width="31.32" height="53"/><rect class="cls-29" x="280.63" y="36.59" width="31.32" height="53"/><rect class="cls-29" x="240.79" y="16.92" width="31.32" height="190.67" transform="translate(368.7 -144.2) rotate(90)"/><rect class="cls-29" x="240.79" y="36.59" width="31.32" height="60"/><rect class="cls-29" x="320.47" y="36.59" width="31.32" height="60"/><rect class="cls-29" x="124.02" y="127.91" width="2" height="38.37"/><rect class="cls-29" x="170.29" y="127.91" width="2" height="28.49"/><rect class="cls-29" x="208.35" y="154.4" width="2" height="5.29"/><rect class="cls-29" x="188.32" y="136.36" width="2" height="38.07" transform="translate(344.72 -33.92) rotate(90)"/><rect class="cls-29" x="165.08" y="125.22" width="2" height="80.13" transform="translate(331.37 -0.8) rotate(90)"/></g></g></svg>