<svg xmlns="http://www.w3.org/2000/svg" xmlns:xlink="http://www.w3.org/1999/xlink" viewBox="0 0 442.89 928.09"><defs><style>.cls-1{fill:#353535;}.cls-2,.cls-3{fill:none;}.cls-10,.cls-16,.cls-3{stroke:#fff;}.cls-10,.cls-16,.cls-20,.cls-22,.cls-3,.cls-5,.cls-7{stroke-miterlimit:10;}.cls-3{stroke-width:3.31px;}.cls-4{fill:#f2cb6b;}.cls-12,.cls-5{fill:#fff;}.cls-5{stroke:#f7b52c;stroke-width:3.97px;}.cls-6{fill:#e1e0df;}.cls-7{fill:#d2d2d2;stroke:#484949;stroke-width:13.24px;}.cls-8{fill:#f4d722;}.cls-9{fill:url(#未命名的渐变_23);}.cls-10{fill:#d0ab3c;stroke-width:1.99px;}.cls-11{fill:#f0c581;}.cls-13{fill:#f4cb70;}.cls-14{fill:#c6c5c5;}.cls-15{fill:#c8a266;}.cls-16{fill:#9b9b9b;}.cls-16,.cls-20,.cls-22{stroke-width:0.66px;}.cls-17{fill:#d2d3d3;}.cls-18{fill:#030000;}.cls-19{fill:#bb8c27;}.cls-20{fill:#ff4a5c;stroke:#681216;}.cls-21{fill:#e7e887;}.cls-22{fill:#58b1f9;stroke:#122c4f;}</style><radialGradient id="未命名的渐变_23" cx="221.45" cy="311.99" r="107.29" gradientUnits="userSpaceOnUse"><stop offset="0" stop-color="#faed00"/><stop offset="0.86" stop-color="#e1d70f"/><stop offset="1" stop-color="#8b9429"/></radialGradient></defs><title>按键模块</title><g id="图层_2" data-name="图层 2"><g id="图层_1-2" data-name="图层 1"><path id="_复合路径_" data-name="&lt;复合路径&gt;" class="cls-1" d="M385,0h-327A57.92,57.92,0,0,0,0,57.92V870.17a57.92,57.92,0,0,0,57.92,57.92H385a57.92,57.92,0,0,0,57.92-57.92V57.92A57.92,57.92,0,0,0,385,0Zm13.12,549.87a6.37,6.37,0,1,1,0,9A6.37,6.37,0,0,1,398.09,549.87Zm-21.15-12.49a6.37,6.37,0,1,1-6.37,6.37A6.37,6.37,0,0,1,376.94,537.38Zm-30.15,12.49a6.37,6.37,0,1,1,0,9A6.37,6.37,0,0,1,346.79,549.87Zm-259.7,0a6.37,6.37,0,1,1,0,9A6.37,6.37,0,0,1,87.09,549.87ZM65.94,537.38a6.37,6.37,0,1,1-6.37,6.37A6.37,6.37,0,0,1,65.94,537.38ZM35.79,549.87a6.37,6.37,0,1,1,0,9A6.37,6.37,0,0,1,35.79,549.87ZM23.3,580a6.37,6.37,0,1,1,6.37,6.37A6.37,6.37,0,0,1,23.3,580Zm21.5,30.15a6.37,6.37,0,1,1,0-9A6.37,6.37,0,0,1,44.8,610.17Zm21.15,12.49a6.37,6.37,0,1,1,6.37-6.37A6.37,6.37,0,0,1,65.94,622.66Zm0-17A25.65,25.65,0,1,1,91.59,580,25.65,25.65,0,0,1,65.94,605.67Zm30.15,4.5a6.37,6.37,0,1,1,0-9A6.37,6.37,0,0,1,96.1,610.17Zm6.12-23.78a6.37,6.37,0,1,1,6.37-6.37A6.37,6.37,0,0,1,102.22,586.39ZM334.3,580a6.37,6.37,0,1,1,6.37,6.37A6.37,6.37,0,0,1,334.3,580Zm21.5,30.15a6.37,6.37,0,1,1,0-9A6.37,6.37,0,0,1,355.8,610.17Zm21.15,12.49a6.37,6.37,0,1,1,6.37-6.37A6.37,6.37,0,0,1,376.94,622.66Zm0-17A25.65,25.65,0,1,1,402.59,580,25.65,25.65,0,0,1,376.94,605.67Zm30.15,4.5a6.37,6.37,0,1,1,0-9A6.37,6.37,0,0,1,407.1,610.17Zm6.12-23.78a6.37,6.37,0,1,1,6.37-6.37A6.37,6.37,0,0,1,413.22,586.39Z"/><circle id="_路径_" data-name="&lt;路径&gt;" class="cls-2" cx="65.94" cy="580.02" r="24.19"/><circle id="_路径_2" data-name="&lt;路径&gt;" class="cls-3" cx="65.94" cy="580.02" r="48.21"/><circle id="_路径_3" data-name="&lt;路径&gt;" class="cls-3" cx="376.94" cy="580.02" r="48.21"/><path id="_复合路径_2" data-name="&lt;复合路径&gt;" class="cls-4" d="M376.94,531.66A48.37,48.37,0,1,0,425.31,580,48.42,48.42,0,0,0,376.94,531.66Zm21.15,18.21a6.37,6.37,0,1,1,0,9A6.37,6.37,0,0,1,398.09,549.87Zm-21.15-12.49a6.37,6.37,0,1,1-6.37,6.37A6.37,6.37,0,0,1,376.94,537.38Zm-30.15,12.49a6.37,6.37,0,1,1,0,9A6.37,6.37,0,0,1,346.79,549.87Zm-6.12,36.52A6.37,6.37,0,1,1,347,580,6.37,6.37,0,0,1,340.67,586.39Zm15.13,23.78a6.37,6.37,0,1,1,0-9A6.37,6.37,0,0,1,355.8,610.17Zm21.15,12.49a6.37,6.37,0,1,1,6.37-6.37A6.37,6.37,0,0,1,376.94,622.66Zm0-18.46A24.18,24.18,0,1,1,401.13,580,24.21,24.21,0,0,1,376.94,604.2Zm30.15,6a6.37,6.37,0,1,1,0-9A6.37,6.37,0,0,1,407.1,610.17Zm6.12-23.78a6.37,6.37,0,1,1,6.37-6.37A6.37,6.37,0,0,1,413.22,586.39Z"/><g id="_编组_" data-name="&lt;编组&gt;"><rect id="_路径_4" data-name="&lt;路径&gt;" class="cls-5" x="158.53" y="163.75" width="24.26" height="295.15"/><rect id="_路径_5" data-name="&lt;路径&gt;" class="cls-5" x="260.1" y="163.75" width="24.26" height="295.15"/><rect id="_矩形_" data-name="&lt;矩形&gt;" class="cls-6" x="160.58" y="190.74" width="20.24" height="5.74"/><rect id="_矩形_2" data-name="&lt;矩形&gt;" class="cls-6" x="262.11" y="190.74" width="20.24" height="5.74"/><rect id="_矩形_3" data-name="&lt;矩形&gt;" class="cls-6" x="160.58" y="434.42" width="20.24" height="5.74"/><rect id="_矩形_4" data-name="&lt;矩形&gt;" class="cls-6" x="262.11" y="434.42" width="20.24" height="5.74"/></g><rect id="_路径_6" data-name="&lt;路径&gt;" class="cls-7" x="122.82" y="212.61" width="197.24" height="195.91" rx="6.29" ry="6.29"/><g id="_编组_2" data-name="&lt;编组&gt;"><circle id="_路径_7" data-name="&lt;路径&gt;" class="cls-8" cx="221.45" cy="311.99" r="116.23"/><circle id="_路径_8" data-name="&lt;路径&gt;" class="cls-9" cx="221.45" cy="311.99" r="107.29"/></g><g id="_编组_3" data-name="&lt;编组&gt;"><g id="_编组_4" data-name="&lt;编组&gt;"><rect id="_矩形_5" data-name="&lt;矩形&gt;" class="cls-10" x="172.7" y="762.05" width="18.53" height="56.47"/><rect id="_矩形_6" data-name="&lt;矩形&gt;" class="cls-11" x="176.83" y="767.06" width="10.26" height="52.94" rx="5.13" ry="5.13"/></g><g id="_编组_5" data-name="&lt;编组&gt;"><rect id="_矩形_7" data-name="&lt;矩形&gt;" class="cls-10" x="212.18" y="762.05" width="18.53" height="56.47"/><rect id="_矩形_8" data-name="&lt;矩形&gt;" class="cls-11" x="216.32" y="767.06" width="10.26" height="52.94" rx="5.13" ry="5.13"/></g><g id="_编组_6" data-name="&lt;编组&gt;"><rect id="_矩形_9" data-name="&lt;矩形&gt;" class="cls-10" x="251.67" y="762.05" width="18.53" height="56.47"/><rect id="_矩形_10" data-name="&lt;矩形&gt;" class="cls-11" x="255.8" y="767.06" width="10.26" height="52.94" rx="5.13" ry="5.13"/></g><rect id="_矩形_11" data-name="&lt;矩形&gt;" class="cls-12" x="124.83" y="809.75" width="193.24" height="114.27"/><rect id="_矩形_12" data-name="&lt;矩形&gt;" class="cls-13" x="176.83" y="831.15" width="10.26" height="71.47"/><rect id="_矩形_13" data-name="&lt;矩形&gt;" class="cls-13" x="255.8" y="831.15" width="10.26" height="71.47"/><rect id="_矩形_14" data-name="&lt;矩形&gt;" class="cls-14" x="124.83" y="777.32" width="18.53" height="32.43"/><rect id="_矩形_15" data-name="&lt;矩形&gt;" class="cls-14" x="299.53" y="777.32" width="18.53" height="32.43"/><rect id="_矩形_16" data-name="&lt;矩形&gt;" class="cls-14" x="159.24" y="924.01" width="124.41" height="4.08" rx="2.04" ry="2.04"/><rect id="_矩形_17" data-name="&lt;矩形&gt;" class="cls-15" x="176.83" y="790.14" width="10.26" height="6.78"/><rect id="_矩形_18" data-name="&lt;矩形&gt;" class="cls-15" x="216.32" y="790.14" width="10.26" height="6.78"/><rect id="_矩形_19" data-name="&lt;矩形&gt;" class="cls-15" x="255.8" y="790.14" width="10.26" height="6.78"/></g><path id="_复合路径_3" data-name="&lt;复合路径&gt;" class="cls-4" d="M65.94,531.66A48.37,48.37,0,1,0,114.31,580,48.42,48.42,0,0,0,65.94,531.66Zm21.15,18.21a6.37,6.37,0,1,1,0,9A6.37,6.37,0,0,1,87.09,549.87ZM65.94,537.38a6.37,6.37,0,1,1-6.37,6.37A6.37,6.37,0,0,1,65.94,537.38ZM35.79,549.87a6.37,6.37,0,1,1,0,9A6.37,6.37,0,0,1,35.79,549.87Zm-6.12,36.52A6.37,6.37,0,1,1,36,580,6.37,6.37,0,0,1,29.67,586.39ZM44.8,610.17a6.37,6.37,0,1,1,0-9A6.37,6.37,0,0,1,44.8,610.17Zm21.15,12.49a6.37,6.37,0,1,1,6.37-6.37A6.37,6.37,0,0,1,65.94,622.66Zm0-18.46A24.18,24.18,0,1,1,90.13,580,24.21,24.21,0,0,1,65.94,604.2Zm30.15,6a6.37,6.37,0,1,1,0-9A6.37,6.37,0,0,1,96.1,610.17Zm6.12-23.78a6.37,6.37,0,1,1,6.37-6.37A6.37,6.37,0,0,1,102.22,586.39Z"/><g id="_编组_7" data-name="&lt;编组&gt;"><rect id="_矩形_20" data-name="&lt;矩形&gt;" class="cls-16" x="33.1" y="684.07" width="17.32" height="43.57"/><rect id="_矩形_21" data-name="&lt;矩形&gt;" class="cls-17" x="33.41" y="690.3" width="16.71" height="29.78"/><polygon id="_路径_9" data-name="&lt;路径&gt;" class="cls-18" points="33.47 695.68 33.47 714.87 50.05 714.87 50.05 695.68 46.66 695.68 46.66 696.38 36.28 696.38 36.28 695.68 33.47 695.68"/></g><g id="_编组_8" data-name="&lt;编组&gt;"><rect id="_矩形_22" data-name="&lt;矩形&gt;" class="cls-16" x="61.12" y="684.07" width="17.32" height="43.57"/><rect id="_矩形_23" data-name="&lt;矩形&gt;" class="cls-17" x="61.42" y="690.3" width="16.71" height="29.78"/><polygon id="_路径_10" data-name="&lt;路径&gt;" class="cls-18" points="61.48 695.68 61.48 714.87 78.07 714.87 78.07 695.68 74.68 695.68 74.68 696.38 64.3 696.38 64.3 695.68 61.48 695.68"/></g><g id="_编组_9" data-name="&lt;编组&gt;"><rect id="_矩形_24" data-name="&lt;矩形&gt;" class="cls-16" x="212.79" y="555.84" width="17.32" height="43.57"/><rect id="_矩形_25" data-name="&lt;矩形&gt;" class="cls-17" x="213.09" y="562.07" width="16.71" height="29.78"/><polygon id="_路径_11" data-name="&lt;路径&gt;" class="cls-18" points="213.15 567.45 213.15 586.64 229.74 586.64 229.74 567.45 226.35 567.45 226.35 568.15 215.97 568.15 215.97 567.45 213.15 567.45"/></g><g id="_编组_10" data-name="&lt;编组&gt;"><rect id="_矩形_26" data-name="&lt;矩形&gt;" class="cls-16" x="33.1" y="737.4" width="17.32" height="13.51"/><rect id="_矩形_27" data-name="&lt;矩形&gt;" class="cls-16" x="33.1" y="764.31" width="17.32" height="13.51"/><g id="_编组_11" data-name="&lt;编组&gt;"><path id="_路径_12" data-name="&lt;路径&gt;" class="cls-19" d="M46.42,742.06a4.66,4.66,0,1,1-9.32,0H34.32v8.85H49.21v-8.85Z"/><path id="_路径_13" data-name="&lt;路径&gt;" class="cls-19" d="M37.1,773.16a4.66,4.66,0,1,1,9.32,0h2.79v-8.85H34.32v8.85Z"/><rect id="_矩形_28" data-name="&lt;矩形&gt;" class="cls-20" x="35.14" y="747.82" width="13.24" height="19.47"/></g></g><g id="_编组_12" data-name="&lt;编组&gt;"><rect id="_矩形_29" data-name="&lt;矩形&gt;" class="cls-16" x="61.12" y="737.4" width="17.32" height="13.51"/><rect id="_矩形_30" data-name="&lt;矩形&gt;" class="cls-16" x="61.12" y="764.31" width="17.32" height="13.51"/><path id="_路径_14" data-name="&lt;路径&gt;" class="cls-21" d="M74.44,742.06a4.66,4.66,0,1,1-9.32,0H62.33v8.85H77.22v-8.85Z"/><path id="_路径_15" data-name="&lt;路径&gt;" class="cls-21" d="M65.12,773.16a4.66,4.66,0,1,1,9.32,0h2.79v-8.85H62.33v8.85Z"/><rect id="_矩形_31" data-name="&lt;矩形&gt;" class="cls-22" x="63.16" y="747.82" width="13.24" height="19.47"/></g><g id="_编组_13" data-name="&lt;编组&gt;"><path id="_复合路径_4" data-name="&lt;复合路径&gt;" class="cls-12" d="M173.54,739.68c0-5,4-7.42,8.5-7.42s8.53,2.3,8.53,7.42c0,5-4.14,7.37-8.53,7.37S173.54,744.67,173.54,739.68Zm15.46,0c0-3.85-3.21-5.71-7-5.71s-7,2-7,5.71,3.26,5.67,7,5.67S189,743.38,189,739.68Z"/><path id="_复合路径_5" data-name="&lt;复合路径&gt;" class="cls-12" d="M173.94,727.62h9.85c3.14,0,5.2-1.48,5.2-4.63,0-3-1.93-4.56-5.2-4.56h-9.85v-1.71h9.94c4.5,0,6.69,2.52,6.69,6.27s-2.21,6.33-6.69,6.33h-9.94Z"/><path id="_复合路径_6" data-name="&lt;复合路径&gt;" class="cls-12" d="M173.94,702.73h1.53v5.16h14.68v1.71H175.47v5.14h-1.53Z"/></g><g id="_编组_14" data-name="&lt;编组&gt;"><path id="_复合路径_7" data-name="&lt;复合路径&gt;" class="cls-12" d="M213.23,745.32l14-5v0l-14-5v-1.88l16.21,5.91v1.95l-16.21,5.87Z"/><path id="_复合路径_8" data-name="&lt;复合路径&gt;" class="cls-12" d="M212.84,725c0-3.68,2.06-5.69,4.23-6.42l.29,1.75a4.67,4.67,0,0,0-3,4.67c0,3.28,2.3,5.45,7,5.45,4.25,0,7-2.21,7-5.45a4.82,4.82,0,0,0-3.21-4.87l.27-1.68a6.42,6.42,0,0,1,4.52,6.55c0,4.69-3.79,7.15-8.55,7.15S212.84,730,212.84,725Z"/><path id="_复合路径_9" data-name="&lt;复合路径&gt;" class="cls-12" d="M212.84,709.18c0-3.68,2.06-5.69,4.23-6.42l.29,1.75a4.67,4.67,0,0,0-3,4.67c0,3.28,2.3,5.45,7,5.45,4.25,0,7-2.21,7-5.45a4.82,4.82,0,0,0-3.21-4.87l.27-1.68a6.42,6.42,0,0,1,4.52,6.55c0,4.69-3.79,7.15-8.55,7.15S212.84,714.25,212.84,709.18Z"/></g><g id="_编组_15" data-name="&lt;编组&gt;"><path id="_复合路径_10" data-name="&lt;复合路径&gt;" class="cls-12" d="M252.32,741.4c0-4.1,2.35-5.6,4.47-6.51l.29,1.79a4.77,4.77,0,0,0-3.23,4.72c0,3.34,2.86,5.71,7,5.71,4.25,0,7-2.46,7-5.49a5.57,5.57,0,0,0-4.19-5.31h-1.75v4.94h-1.55v-6.67h8.64v1.55h-3.32a6.14,6.14,0,0,1,3.74,5.69c0,3.61-3.08,7-8.55,7C255.73,748.82,252.32,745.78,252.32,741.4Z"/><path id="_复合路径_11" data-name="&lt;复合路径&gt;" class="cls-12" d="M252.72,729.07l13.46-9.48v0H252.72v-1.71h16.21v1.79l-13.46,9.43,0,0h13.49v1.73H252.72Z"/><path id="_复合路径_12" data-name="&lt;复合路径&gt;" class="cls-12" d="M252.72,708.14c0-5.29,4.19-7.17,8.08-7.17,4.65,0,8.13,2.3,8.13,7.48V714H252.72Zm14.68,4.16v-3.9c0-3.23-2.15-5.74-6.6-5.74-3.08,0-6.55,1.51-6.55,5.78v3.85Z"/></g></g></g></svg>