<svg xmlns="http://www.w3.org/2000/svg" xmlns:xlink="http://www.w3.org/1999/xlink" viewBox="0 0 442.89 928.09"><defs><style>.cls-1{fill:#353535;}.cls-2{fill:#f2cb6b;}.cls-3{fill:#d0ab3c;stroke-width:1.99px;}.cls-20,.cls-3,.cls-9{stroke:#fff;}.cls-10,.cls-20,.cls-3,.cls-9{stroke-miterlimit:10;}.cls-4{fill:#f0c581;}.cls-5{fill:#c8a266;}.cls-6{fill:#fff;}.cls-7{fill:#f4cb70;}.cls-8{fill:#c6c5c5;}.cls-9{fill:#9b9b9b;}.cls-10,.cls-9{stroke-width:0.66px;}.cls-10{fill:#f99f46;stroke:#ef973f;}.cls-11{fill:#aaa;}.cls-12{fill:#d1d1d1;}.cls-13{fill:#a7a7a7;}.cls-14{fill:#c9c9c9;}.cls-15{fill:#b29a54;}.cls-16{fill:#141414;}.cls-17{fill:#d2d3d3;}.cls-18{fill:#030000;}.cls-19{fill:url(#未命名的渐变_126);}.cls-20{fill:none;stroke-width:8.6px;}.cls-21{fill:url(#未命名的渐变_126-2);}.cls-22{fill:url(#未命名的渐变_126-3);}.cls-23{fill:url(#未命名的渐变_126-4);}</style><radialGradient id="未命名的渐变_126" cx="74.66" cy="130.78" r="63.34" gradientUnits="userSpaceOnUse"><stop offset="0" stop-color="#fff"/><stop offset="0.81" stop-color="#bebbba"/><stop offset="1" stop-color="#494949"/></radialGradient><radialGradient id="未命名的渐变_126-2" cx="347.27" cy="130.78" r="63.34" xlink:href="#未命名的渐变_126"/><radialGradient id="未命名的渐变_126-3" cx="74.66" cy="386.87" r="63.34" xlink:href="#未命名的渐变_126"/><radialGradient id="未命名的渐变_126-4" cx="347.27" cy="386.87" r="63.34" xlink:href="#未命名的渐变_126"/></defs><title>颜色传感模块</title><g id="图层_2" data-name="图层 2"><g id="图层_1-2" data-name="图层 1"><path id="_复合路径_" data-name="&lt;复合路径&gt;" class="cls-1" d="M385,0h-327A57.92,57.92,0,0,0,0,57.92V870.17a57.92,57.92,0,0,0,57.92,57.92H385a57.92,57.92,0,0,0,57.92-57.92V57.92A57.92,57.92,0,0,0,385,0Zm13.12,549.87a6.37,6.37,0,1,1,0,9A6.37,6.37,0,0,1,398.09,549.87Zm-21.15-12.49a6.37,6.37,0,1,1-6.37,6.37A6.37,6.37,0,0,1,376.94,537.38Zm-30.15,12.49a6.37,6.37,0,1,1,0,9A6.37,6.37,0,0,1,346.79,549.87Zm-259.7,0a6.37,6.37,0,1,1,0,9A6.37,6.37,0,0,1,87.09,549.87ZM65.94,537.38a6.37,6.37,0,1,1-6.37,6.37A6.37,6.37,0,0,1,65.94,537.38ZM35.79,549.87a6.37,6.37,0,1,1,0,9A6.37,6.37,0,0,1,35.79,549.87ZM23.3,580a6.37,6.37,0,1,1,6.37,6.37A6.37,6.37,0,0,1,23.3,580Zm21.5,30.15a6.37,6.37,0,1,1,0-9A6.37,6.37,0,0,1,44.8,610.17Zm21.15,12.49a6.37,6.37,0,1,1,6.37-6.37A6.37,6.37,0,0,1,65.94,622.66Zm0-17A25.65,25.65,0,1,1,91.59,580,25.65,25.65,0,0,1,65.94,605.67Zm30.15,4.5a6.37,6.37,0,1,1,0-9A6.37,6.37,0,0,1,96.1,610.17Zm6.12-23.78a6.37,6.37,0,1,1,6.37-6.37A6.37,6.37,0,0,1,102.22,586.39ZM334.3,580a6.37,6.37,0,1,1,6.37,6.37A6.37,6.37,0,0,1,334.3,580Zm21.5,30.15a6.37,6.37,0,1,1,0-9A6.37,6.37,0,0,1,355.8,610.17Zm21.15,12.49a6.37,6.37,0,1,1,6.37-6.37A6.37,6.37,0,0,1,376.94,622.66Zm0-17A25.65,25.65,0,1,1,402.59,580,25.65,25.65,0,0,1,376.94,605.67Zm30.15,4.5a6.37,6.37,0,1,1,0-9A6.37,6.37,0,0,1,407.1,610.17Zm6.12-23.78a6.37,6.37,0,1,1,6.37-6.37A6.37,6.37,0,0,1,413.22,586.39Z"/><path id="_复合路径_2" data-name="&lt;复合路径&gt;" class="cls-2" d="M376.94,531.66A48.37,48.37,0,1,0,425.31,580,48.42,48.42,0,0,0,376.94,531.66Zm21.15,18.21a6.37,6.37,0,1,1,0,9A6.37,6.37,0,0,1,398.09,549.87Zm-21.15-12.49a6.37,6.37,0,1,1-6.37,6.37A6.37,6.37,0,0,1,376.94,537.38Zm-30.15,12.49a6.37,6.37,0,1,1,0,9A6.37,6.37,0,0,1,346.79,549.87Zm-6.12,36.52A6.37,6.37,0,1,1,347,580,6.37,6.37,0,0,1,340.67,586.39Zm15.13,23.78a6.37,6.37,0,1,1,0-9A6.37,6.37,0,0,1,355.8,610.17Zm21.15,12.49a6.37,6.37,0,1,1,6.37-6.37A6.37,6.37,0,0,1,376.94,622.66Zm0-18.46A24.18,24.18,0,1,1,401.13,580,24.21,24.21,0,0,1,376.94,604.2Zm30.15,6a6.37,6.37,0,1,1,0-9A6.37,6.37,0,0,1,407.1,610.17Zm6.12-23.78a6.37,6.37,0,1,1,6.37-6.37A6.37,6.37,0,0,1,413.22,586.39Z"/><path id="_复合路径_3" data-name="&lt;复合路径&gt;" class="cls-2" d="M65.94,531.66A48.37,48.37,0,1,0,114.31,580,48.42,48.42,0,0,0,65.94,531.66Zm21.15,18.21a6.37,6.37,0,1,1,0,9A6.37,6.37,0,0,1,87.09,549.87ZM65.94,537.38a6.37,6.37,0,1,1-6.37,6.37A6.37,6.37,0,0,1,65.94,537.38ZM35.79,549.87a6.37,6.37,0,1,1,0,9A6.37,6.37,0,0,1,35.79,549.87Zm-6.12,36.52A6.37,6.37,0,1,1,36,580,6.37,6.37,0,0,1,29.67,586.39ZM44.8,610.17a6.37,6.37,0,1,1,0-9A6.37,6.37,0,0,1,44.8,610.17Zm21.15,12.49a6.37,6.37,0,1,1,6.37-6.37A6.37,6.37,0,0,1,65.94,622.66Zm0-18.46A24.18,24.18,0,1,1,90.13,580,24.21,24.21,0,0,1,65.94,604.2Zm30.15,6a6.37,6.37,0,1,1,0-9A6.37,6.37,0,0,1,96.1,610.17Zm6.12-23.78a6.37,6.37,0,1,1,6.37-6.37A6.37,6.37,0,0,1,102.22,586.39Z"/><g id="_编组_" data-name="&lt;编组&gt;"><g id="_编组_2" data-name="&lt;编组&gt;"><g id="_编组_3" data-name="&lt;编组&gt;"><g id="_编组_4" data-name="&lt;编组&gt;"><rect id="_矩形_" data-name="&lt;矩形&gt;" class="cls-3" x="118.21" y="756.97" width="18.53" height="56.47"/><rect id="_矩形_2" data-name="&lt;矩形&gt;" class="cls-4" x="122.35" y="761.99" width="10.26" height="52.94" rx="5.13" ry="5.13"/></g><rect id="_矩形_3" data-name="&lt;矩形&gt;" class="cls-5" x="122.35" y="785.07" width="10.26" height="6.78"/></g><g id="_编组_5" data-name="&lt;编组&gt;"><g id="_编组_6" data-name="&lt;编组&gt;"><rect id="_矩形_4" data-name="&lt;矩形&gt;" class="cls-3" x="155.8" y="756.97" width="18.53" height="56.47"/><rect id="_矩形_5" data-name="&lt;矩形&gt;" class="cls-4" x="159.93" y="761.99" width="10.26" height="52.94" rx="5.13" ry="5.13"/></g><rect id="_矩形_6" data-name="&lt;矩形&gt;" class="cls-5" x="159.93" y="785.07" width="10.26" height="6.78"/></g><g id="_编组_7" data-name="&lt;编组&gt;"><g id="_编组_8" data-name="&lt;编组&gt;"><rect id="_矩形_7" data-name="&lt;矩形&gt;" class="cls-3" x="193.39" y="756.97" width="18.53" height="56.47"/><rect id="_矩形_8" data-name="&lt;矩形&gt;" class="cls-4" x="197.52" y="761.99" width="10.26" height="52.94" rx="5.13" ry="5.13"/></g><rect id="_矩形_9" data-name="&lt;矩形&gt;" class="cls-5" x="197.52" y="785.07" width="10.26" height="6.78"/></g><g id="_编组_9" data-name="&lt;编组&gt;"><g id="_编组_10" data-name="&lt;编组&gt;"><rect id="_矩形_10" data-name="&lt;矩形&gt;" class="cls-3" x="230.98" y="756.97" width="18.53" height="56.47"/><rect id="_矩形_11" data-name="&lt;矩形&gt;" class="cls-4" x="235.11" y="761.99" width="10.26" height="52.94" rx="5.13" ry="5.13"/></g><rect id="_矩形_12" data-name="&lt;矩形&gt;" class="cls-5" x="235.11" y="785.07" width="10.26" height="6.78"/></g><g id="_编组_11" data-name="&lt;编组&gt;"><g id="_编组_12" data-name="&lt;编组&gt;"><rect id="_矩形_13" data-name="&lt;矩形&gt;" class="cls-3" x="268.56" y="756.97" width="18.53" height="56.47"/><rect id="_矩形_14" data-name="&lt;矩形&gt;" class="cls-4" x="272.7" y="761.99" width="10.26" height="52.94" rx="5.13" ry="5.13"/></g><rect id="_矩形_15" data-name="&lt;矩形&gt;" class="cls-5" x="272.7" y="785.07" width="10.26" height="6.78"/></g><g id="_编组_13" data-name="&lt;编组&gt;"><g id="_编组_14" data-name="&lt;编组&gt;"><rect id="_矩形_16" data-name="&lt;矩形&gt;" class="cls-3" x="306.15" y="756.97" width="18.53" height="56.47"/><rect id="_矩形_17" data-name="&lt;矩形&gt;" class="cls-4" x="310.29" y="761.99" width="10.26" height="52.94" rx="5.13" ry="5.13"/></g><rect id="_矩形_18" data-name="&lt;矩形&gt;" class="cls-5" x="310.29" y="785.07" width="10.26" height="6.78"/></g></g><rect id="_矩形_19" data-name="&lt;矩形&gt;" class="cls-6" x="68.65" y="809.75" width="305.58" height="114.27"/><rect id="_矩形_20" data-name="&lt;矩形&gt;" class="cls-7" x="122.35" y="831.15" width="10.26" height="71.47"/><rect id="_矩形_21" data-name="&lt;矩形&gt;" class="cls-7" x="310.29" y="831.15" width="10.26" height="71.47"/><rect id="_矩形_22" data-name="&lt;矩形&gt;" class="cls-8" x="68.65" y="777.32" width="18.53" height="32.43"/><rect id="_矩形_23" data-name="&lt;矩形&gt;" class="cls-8" x="355.71" y="777.32" width="18.53" height="32.43"/><rect id="_矩形_24" data-name="&lt;矩形&gt;" class="cls-8" x="98.56" y="924.01" width="245.77" height="4.08" rx="2.04" ry="2.04"/></g><g id="_编组_15" data-name="&lt;编组&gt;"><path id="_复合路径_4" data-name="&lt;复合路径&gt;" class="cls-6" d="M119.36,745.32l14-5v0l-14-5v-1.88l16.21,5.91v1.95l-16.21,5.87Z"/><path id="_复合路径_5" data-name="&lt;复合路径&gt;" class="cls-6" d="M119,725c0-3.68,2.06-5.69,4.23-6.42l.29,1.75a4.67,4.67,0,0,0-3,4.67c0,3.28,2.3,5.45,7,5.45,4.25,0,7-2.21,7-5.45a4.82,4.82,0,0,0-3.21-4.87l.27-1.68A6.42,6.42,0,0,1,136,725c0,4.69-3.79,7.15-8.55,7.15S119,730,119,725Z"/><path id="_复合路径_6" data-name="&lt;复合路径&gt;" class="cls-6" d="M119,709.18c0-3.68,2.06-5.69,4.23-6.42l.29,1.75a4.67,4.67,0,0,0-3,4.67c0,3.28,2.3,5.45,7,5.45,4.25,0,7-2.21,7-5.45a4.82,4.82,0,0,0-3.21-4.87l.27-1.68a6.42,6.42,0,0,1,4.52,6.55c0,4.69-3.79,7.15-8.55,7.15S119,714.25,119,709.18Z"/></g><g id="_编组_16" data-name="&lt;编组&gt;"><path id="_复合路径_7" data-name="&lt;复合路径&gt;" class="cls-6" d="M306.9,741.4c0-4.1,2.35-5.6,4.47-6.51l.29,1.79a4.77,4.77,0,0,0-3.23,4.72c0,3.34,2.86,5.71,7,5.71,4.25,0,7-2.46,7-5.49a5.57,5.57,0,0,0-4.19-5.31h-1.75v4.94h-1.55v-6.67h8.64v1.55h-3.32a6.14,6.14,0,0,1,3.74,5.69c0,3.61-3.08,7-8.55,7C310.31,748.82,306.9,745.78,306.9,741.4Z"/><path id="_复合路径_8" data-name="&lt;复合路径&gt;" class="cls-6" d="M307.3,729.07l13.46-9.48v0H307.3v-1.71h16.21v1.79L310,729.09l0,0h13.49v1.73H307.3Z"/><path id="_复合路径_9" data-name="&lt;复合路径&gt;" class="cls-6" d="M307.3,708.14c0-5.29,4.19-7.17,8.08-7.17,4.65,0,8.13,2.3,8.13,7.48V714H307.3ZM322,712.3v-3.9c0-3.23-2.15-5.74-6.6-5.74-3.08,0-6.55,1.51-6.55,5.78v3.85Z"/></g><g id="_编组_17" data-name="&lt;编组&gt;"><rect id="_矩形_25" data-name="&lt;矩形&gt;" class="cls-9" x="87.98" y="259.27" width="17.32" height="13.51" transform="translate(362.66 169.38) rotate(90)"/><rect id="_矩形_26" data-name="&lt;矩形&gt;" class="cls-9" x="61.07" y="259.27" width="17.32" height="13.51" transform="translate(335.75 196.3) rotate(90)"/><g id="_编组_18" data-name="&lt;编组&gt;"><rect id="_矩形_27" data-name="&lt;矩形&gt;" class="cls-10" x="76.62" y="256.29" width="13.24" height="19.47" transform="translate(349.26 182.78) rotate(90)"/></g><rect id="_矩形_28" data-name="&lt;矩形&gt;" class="cls-11" x="70.31" y="258.66" width="4.74" height="14.67"/><rect id="_矩形_29" data-name="&lt;矩形&gt;" class="cls-11" x="91.38" y="258.66" width="4.74" height="14.67"/></g><g id="_编组_19" data-name="&lt;编组&gt;"><path id="_复合路径_10" data-name="&lt;复合路径&gt;" class="cls-6" d="M280.92,745.61a3.87,3.87,0,0,0,2.69-3.82c0-2-1.25-3.1-2.31-3.1-1.59,0-2.49,2.19-3,3.63-1,2.75-2,4.41-3.8,4.41-2.27,0-3.73-2.14-3.73-4.74a4.7,4.7,0,0,1,3.21-4.74l.24,1.53A3.32,3.32,0,0,0,272,742c0,1.83,1.07,3.12,2.29,3.12s2-1.53,2.71-3.45c1.11-3,2.4-4.63,4.11-4.63,2.21,0,3.8,1.9,3.8,4.74a5.22,5.22,0,0,1-3.76,5.33Z"/><path id="_复合路径_11" data-name="&lt;复合路径&gt;" class="cls-6" d="M271.18,730.91v-1.33h13.39V731H272.78l2.25,2.47-1.14.53Z"/></g><g id="_编组_20" data-name="&lt;编组&gt;"><path id="_复合路径_12" data-name="&lt;复合路径&gt;" class="cls-6" d="M243.54,745.5a4.13,4.13,0,0,0,2.88-4.08c0-2.17-1.34-3.31-2.46-3.31-1.69,0-2.66,2.34-3.25,3.88-1.06,2.94-2.15,4.71-4.06,4.71-2.42,0-4-2.29-4-5.06a5,5,0,0,1,3.43-5.06l.26,1.64A3.55,3.55,0,0,0,234,741.7c0,2,1.14,3.33,2.44,3.33,1.46,0,2.11-1.64,2.9-3.68,1.18-3.23,2.56-4.95,4.39-4.95,2.36,0,4.06,2,4.06,5.06a5.58,5.58,0,0,1-4,5.69Z"/><path id="_复合路径_13" data-name="&lt;复合路径&gt;" class="cls-6" d="M237.12,726.15a2.7,2.7,0,0,0-2.72,3,3.42,3.42,0,0,0,2.78,3.35l-.24,1.46a4.73,4.73,0,0,1-3.9-4.81c0-3,1.67-4.53,4-4.53,4.35,0,5.08,4.73,8.93,7.33V724.5h1.36v9.56h-.95C241.85,732,241,726.15,237.12,726.15Z"/></g><g id="_编组_21" data-name="&lt;编组&gt;"><path id="_复合路径_14" data-name="&lt;复合路径&gt;" class="cls-6" d="M206,745.48a4.19,4.19,0,0,0,2.92-4.14c0-2.2-1.36-3.36-2.5-3.36-1.72,0-2.7,2.38-3.3,3.94-1.08,3-2.18,4.77-4.12,4.77-2.46,0-4-2.32-4-5.13a5.09,5.09,0,0,1,3.48-5.13l.26,1.66a3.6,3.6,0,0,0-2.36,3.54c0,2,1.16,3.38,2.48,3.38,1.48,0,2.14-1.66,2.94-3.74,1.2-3.28,2.6-5,4.45-5,2.4,0,4.12,2.06,4.12,5.13a5.66,5.66,0,0,1-4.08,5.77Z"/><path id="_复合路径_15" data-name="&lt;复合路径&gt;" class="cls-6" d="M206.06,732.49a3.25,3.25,0,0,0,2.62-3.48c0-2-1.18-3.3-2.92-3.3S203,727,203,729v1.22h-1.36V729a2.61,2.61,0,0,0-2.46-2.84,2.54,2.54,0,0,0-2.44,2.84,3,3,0,0,0,2.56,3.18l-.24,1.54a4.52,4.52,0,0,1-3.7-4.75c0-2.52,1.4-4.35,3.66-4.35a3.22,3.22,0,0,1,3.26,2.3,3.37,3.37,0,0,1,3.56-2.72c2.48,0,4.23,1.78,4.23,4.85,0,2.22-1,4.38-3.74,5Z"/></g><g id="_编组_22" data-name="&lt;编组&gt;"><path id="_复合路径_16" data-name="&lt;复合路径&gt;" class="cls-6" d="M157.37,735.77h1.45v4.9h13.93v1.62H158.82v4.87h-1.45Z"/><path id="_复合路径_17" data-name="&lt;复合路径&gt;" class="cls-6" d="M157.5,729.72v-1.51h15.25v1.58H159.33l2.56,2.82-1.3.61Z"/></g><g id="_编组_23" data-name="&lt;编组&gt;"><g id="_编组_24" data-name="&lt;编组&gt;"><rect id="_矩形_30" data-name="&lt;矩形&gt;" class="cls-12" x="163.93" y="239.53" width="20.63" height="8.27"/><rect id="_矩形_31" data-name="&lt;矩形&gt;" class="cls-13" x="172.59" y="239.53" width="3.72" height="8.27"/></g><g id="_编组_25" data-name="&lt;编组&gt;"><rect id="_矩形_32" data-name="&lt;矩形&gt;" class="cls-12" x="163.93" y="261.89" width="20.63" height="8.27"/><rect id="_矩形_33" data-name="&lt;矩形&gt;" class="cls-13" x="172.59" y="261.89" width="3.72" height="8.27"/></g><g id="_编组_26" data-name="&lt;编组&gt;"><rect id="_矩形_34" data-name="&lt;矩形&gt;" class="cls-12" x="163.93" y="284.24" width="20.63" height="8.27"/><rect id="_矩形_35" data-name="&lt;矩形&gt;" class="cls-13" x="172.59" y="284.24" width="3.72" height="8.27"/></g><g id="_编组_27" data-name="&lt;编组&gt;"><rect id="_矩形_36" data-name="&lt;矩形&gt;" class="cls-12" x="163.93" y="306.59" width="20.63" height="8.27"/><rect id="_矩形_37" data-name="&lt;矩形&gt;" class="cls-13" x="172.59" y="306.59" width="3.72" height="8.27"/></g><g id="_编组_28" data-name="&lt;编组&gt;"><rect id="_矩形_38" data-name="&lt;矩形&gt;" class="cls-12" x="257.07" y="306.59" width="20.63" height="8.27" transform="translate(534.77 621.46) rotate(180)"/><rect id="_矩形_39" data-name="&lt;矩形&gt;" class="cls-13" x="265.32" y="306.59" width="3.72" height="8.27" transform="translate(534.35 621.46) rotate(180)"/></g><g id="_编组_29" data-name="&lt;编组&gt;"><rect id="_矩形_40" data-name="&lt;矩形&gt;" class="cls-12" x="257.07" y="284.24" width="20.63" height="8.27" transform="translate(534.77 576.75) rotate(180)"/><rect id="_矩形_41" data-name="&lt;矩形&gt;" class="cls-13" x="265.32" y="284.24" width="3.72" height="8.27" transform="translate(534.35 576.75) rotate(180)"/></g><g id="_编组_30" data-name="&lt;编组&gt;"><rect id="_矩形_42" data-name="&lt;矩形&gt;" class="cls-12" x="257.07" y="261.89" width="20.63" height="8.27" transform="translate(534.77 532.04) rotate(180)"/><rect id="_矩形_43" data-name="&lt;矩形&gt;" class="cls-13" x="265.32" y="261.89" width="3.72" height="8.27" transform="translate(534.35 532.04) rotate(180)"/></g><g id="_编组_31" data-name="&lt;编组&gt;"><rect id="_矩形_44" data-name="&lt;矩形&gt;" class="cls-12" x="257.07" y="239.53" width="20.63" height="8.27" transform="translate(534.77 487.34) rotate(180)"/><rect id="_矩形_45" data-name="&lt;矩形&gt;" class="cls-13" x="265.32" y="239.53" width="3.72" height="8.27" transform="translate(534.35 487.34) rotate(180)"/></g><rect id="_矩形_46" data-name="&lt;矩形&gt;" class="cls-6" x="202.36" y="228.92" width="38.16" height="98.16" rx="3.64" ry="3.64"/><rect id="_矩形_47" data-name="&lt;矩形&gt;" class="cls-14" x="184.55" y="233.33" width="72.52" height="89.34" rx="5.72" ry="5.72"/><rect class="cls-6" x="186.9" y="238.49" width="6.17" height="10.76"/><rect class="cls-6" x="186.9" y="260.64" width="6.17" height="10.76"/><rect class="cls-6" x="186.9" y="282.99" width="6.17" height="10.76"/><rect class="cls-6" x="186.9" y="305.35" width="6.17" height="10.76"/><rect class="cls-6" x="248.4" y="238.49" width="6.17" height="10.76"/><rect class="cls-6" x="248.4" y="260.64" width="6.17" height="10.76"/><rect class="cls-6" x="248.4" y="282.99" width="6.17" height="10.76"/><rect class="cls-6" x="248.4" y="305.35" width="6.17" height="10.76"/><rect class="cls-15" x="210.03" y="265.99" width="21.55" height="21.55"/><rect class="cls-16" x="214.77" y="270.73" width="12.09" height="12.09" rx="2.87" ry="2.87"/></g><g id="_编组_32" data-name="&lt;编组&gt;"><rect id="_矩形_48" data-name="&lt;矩形&gt;" class="cls-9" x="74.53" y="216.71" width="17.32" height="43.57" transform="translate(321.67 155.31) rotate(90)"/><rect id="_矩形_49" data-name="&lt;矩形&gt;" class="cls-17" x="75.49" y="223.6" width="16.71" height="29.78" transform="translate(322.33 154.64) rotate(90)"/><polygon id="_路径_" data-name="&lt;路径&gt;" class="cls-18" points="93.36 230.2 74.17 230.2 74.17 246.78 93.36 246.78 93.36 243.39 92.66 243.39 92.66 233.01 93.36 233.01 93.36 230.2"/></g><g id="_编组_33" data-name="&lt;编组&gt;"><rect id="_矩形_50" data-name="&lt;矩形&gt;" class="cls-9" x="341.54" y="216.71" width="17.32" height="43.57" transform="translate(588.69 -111.71) rotate(90)"/><rect id="_矩形_51" data-name="&lt;矩形&gt;" class="cls-17" x="342.51" y="223.6" width="16.71" height="29.78" transform="translate(589.35 -112.37) rotate(90)"/><polygon id="_路径_2" data-name="&lt;路径&gt;" class="cls-18" points="360.37 230.2 341.18 230.2 341.18 246.78 360.37 246.78 360.37 243.39 359.67 243.39 359.67 233.01 360.37 233.01 360.37 230.2"/></g><g id="_编组_34" data-name="&lt;编组&gt;"><rect id="_矩形_52" data-name="&lt;矩形&gt;" class="cls-9" x="341.54" y="243.05" width="17.32" height="43.57" transform="translate(615.03 -85.37) rotate(90)"/><rect id="_矩形_53" data-name="&lt;矩形&gt;" class="cls-17" x="342.51" y="249.94" width="16.71" height="29.78" transform="translate(615.69 -86.03) rotate(90)"/><polygon id="_路径_3" data-name="&lt;路径&gt;" class="cls-18" points="360.37 256.54 341.18 256.54 341.18 273.12 360.37 273.12 360.37 269.73 359.67 269.73 359.67 259.35 360.37 259.35 360.37 256.54"/></g><g id="_编组_35" data-name="&lt;编组&gt;"><rect id="_矩形_54" data-name="&lt;矩形&gt;" class="cls-9" x="341.54" y="269.39" width="17.32" height="43.57" transform="translate(641.37 -59.03) rotate(90)"/><rect id="_矩形_55" data-name="&lt;矩形&gt;" class="cls-17" x="342.51" y="276.28" width="16.71" height="29.78" transform="translate(642.03 -59.69) rotate(90)"/><polygon id="_路径_4" data-name="&lt;路径&gt;" class="cls-18" points="360.37 282.88 341.18 282.88 341.18 299.46 360.37 299.46 360.37 296.07 359.67 296.07 359.67 285.69 360.37 285.69 360.37 282.88"/></g><g id="_编组_36" data-name="&lt;编组&gt;"><rect id="_矩形_56" data-name="&lt;矩形&gt;" class="cls-9" x="341.54" y="295.73" width="17.32" height="43.57" transform="translate(667.71 -32.69) rotate(90)"/><rect id="_矩形_57" data-name="&lt;矩形&gt;" class="cls-17" x="342.51" y="302.62" width="16.71" height="29.78" transform="translate(668.37 -33.35) rotate(90)"/><polygon id="_路径_5" data-name="&lt;路径&gt;" class="cls-18" points="360.37 309.21 341.18 309.21 341.18 325.8 360.37 325.8 360.37 322.41 359.67 322.41 359.67 312.03 360.37 312.03 360.37 309.21"/></g><g id="_编组_37" data-name="&lt;编组&gt;"><rect id="_矩形_58" data-name="&lt;矩形&gt;" class="cls-9" x="74.58" y="269.39" width="17.32" height="43.57" transform="translate(374.41 207.93) rotate(90)"/><rect id="_矩形_59" data-name="&lt;矩形&gt;" class="cls-17" x="75.55" y="276.28" width="16.71" height="29.78" transform="translate(375.07 207.27) rotate(90)"/><polygon id="_路径_6" data-name="&lt;路径&gt;" class="cls-18" points="93.41 282.88 74.22 282.88 74.22 299.46 93.41 299.46 93.41 296.07 92.71 296.07 92.71 285.69 93.41 285.69 93.41 282.88"/></g><g id="_编组_38" data-name="&lt;编组&gt;"><rect id="_矩形_60" data-name="&lt;矩形&gt;" class="cls-9" x="74.58" y="295.73" width="17.32" height="43.57" transform="translate(400.75 234.27) rotate(90)"/><rect id="_矩形_61" data-name="&lt;矩形&gt;" class="cls-17" x="75.55" y="302.62" width="16.71" height="29.78" transform="translate(401.41 233.61) rotate(90)"/><polygon id="_路径_7" data-name="&lt;路径&gt;" class="cls-18" points="93.41 309.21 74.22 309.21 74.22 325.8 93.41 325.8 93.41 322.41 92.71 322.41 92.71 312.03 93.41 312.03 93.41 309.21"/></g><g id="_编组_39" data-name="&lt;编组&gt;"><circle id="_路径_8" data-name="&lt;路径&gt;" class="cls-6" cx="85.14" cy="146.67" r="56.69"/><circle id="_路径_9" data-name="&lt;路径&gt;" class="cls-19" cx="85.14" cy="146.67" r="44.01"/><path id="_路径_10" data-name="&lt;路径&gt;" class="cls-20" d="M60,129.3a30.42,30.42,0,0,0-4.19,8.79"/><path id="_路径_11" data-name="&lt;路径&gt;" class="cls-20" d="M98.63,119.25a30.58,30.58,0,0,0-32.41,3.43"/><circle id="_路径_12" data-name="&lt;路径&gt;" class="cls-6" cx="357.75" cy="146.67" r="56.69"/><circle id="_路径_13" data-name="&lt;路径&gt;" class="cls-21" cx="357.75" cy="146.67" r="44.01"/><path id="_路径_14" data-name="&lt;路径&gt;" class="cls-20" d="M332.61,129.3a30.42,30.42,0,0,0-4.19,8.79"/><path id="_路径_15" data-name="&lt;路径&gt;" class="cls-20" d="M371.24,119.25a30.58,30.58,0,0,0-32.41,3.43"/><circle id="_路径_16" data-name="&lt;路径&gt;" class="cls-6" cx="85.14" cy="402.75" r="56.69"/><circle id="_路径_17" data-name="&lt;路径&gt;" class="cls-22" cx="85.14" cy="402.75" r="44.01"/><path id="_路径_18" data-name="&lt;路径&gt;" class="cls-20" d="M60,385.39a30.42,30.42,0,0,0-4.19,8.79"/><path id="_路径_19" data-name="&lt;路径&gt;" class="cls-20" d="M98.63,375.33a30.58,30.58,0,0,0-32.41,3.43"/><circle id="_路径_20" data-name="&lt;路径&gt;" class="cls-6" cx="357.75" cy="402.75" r="56.69"/><circle id="_路径_21" data-name="&lt;路径&gt;" class="cls-23" cx="357.75" cy="402.75" r="44.01"/><path id="_路径_22" data-name="&lt;路径&gt;" class="cls-20" d="M332.61,385.39a30.42,30.42,0,0,0-4.19,8.79"/><path id="_路径_23" data-name="&lt;路径&gt;" class="cls-20" d="M371.24,375.33a30.58,30.58,0,0,0-32.41,3.43"/></g></g></g></svg>