<svg xmlns="http://www.w3.org/2000/svg" viewBox="0 0 442.89 928.09"><defs><style>.cls-1{fill:#353535;}.cls-17,.cls-2,.cls-3{fill:none;}.cls-11,.cls-3,.cls-5{stroke:#fff;}.cls-11,.cls-15,.cls-16,.cls-17,.cls-3,.cls-5{stroke-miterlimit:10;}.cls-3{stroke-width:3.31px;}.cls-4{fill:#f2cb6b;}.cls-5{fill:#d0ab3c;stroke-width:1.99px;}.cls-6{fill:#f0c581;}.cls-16,.cls-7{fill:#fff;}.cls-8{fill:#f4cb70;}.cls-9{fill:#c6c5c5;}.cls-10{fill:#c8a266;}.cls-11{fill:#9b9b9b;}.cls-11,.cls-15{stroke-width:0.66px;}.cls-12{fill:#d2d3d3;}.cls-13{fill:#030000;}.cls-14{fill:#bb8c27;}.cls-15{fill:#ff4a5c;stroke:#681216;}.cls-16,.cls-17{stroke:#d8d8d8;}.cls-16{stroke-width:1.34px;}.cls-17{stroke-linecap:round;stroke-width:6.24px;}.cls-18{fill:#49c9ff;}.cls-19{fill:#00a0e9;}.cls-20{fill:#172a88;}.cls-21{fill:#e1b737;}.cls-22{fill:#737373;}.cls-23{fill:#ccd2ef;}</style></defs><title>DHT11数字温湿度传感器</title><g id="图层_2" data-name="图层 2"><g id="图层_1-2" data-name="图层 1"><g id="_编组_" data-name="&lt;编组&gt;"><path id="_复合路径_" data-name="&lt;复合路径&gt;" class="cls-1" d="M385,0h-327A57.92,57.92,0,0,0,0,57.92V870.17a57.92,57.92,0,0,0,57.92,57.92H385a57.92,57.92,0,0,0,57.92-57.92V57.92A57.92,57.92,0,0,0,385,0Zm13.12,549.87a6.37,6.37,0,1,1,0,9A6.37,6.37,0,0,1,398.09,549.87Zm-21.15-12.49a6.37,6.37,0,1,1-6.37,6.37A6.37,6.37,0,0,1,376.94,537.38Zm-30.15,12.49a6.37,6.37,0,1,1,0,9A6.37,6.37,0,0,1,346.79,549.87Zm-259.7,0a6.37,6.37,0,1,1,0,9A6.37,6.37,0,0,1,87.09,549.87ZM65.94,537.38a6.37,6.37,0,1,1-6.37,6.37A6.37,6.37,0,0,1,65.94,537.38ZM35.79,549.87a6.37,6.37,0,1,1,0,9A6.37,6.37,0,0,1,35.79,549.87ZM23.3,580a6.37,6.37,0,1,1,6.37,6.37A6.37,6.37,0,0,1,23.3,580Zm21.5,30.15a6.37,6.37,0,1,1,0-9A6.37,6.37,0,0,1,44.8,610.17Zm21.15,12.49a6.37,6.37,0,1,1,6.37-6.37A6.37,6.37,0,0,1,65.94,622.66Zm0-17A25.65,25.65,0,1,1,91.59,580,25.65,25.65,0,0,1,65.94,605.67Zm30.15,4.5a6.37,6.37,0,1,1,0-9A6.37,6.37,0,0,1,96.1,610.17Zm6.12-23.78a6.37,6.37,0,1,1,6.37-6.37A6.37,6.37,0,0,1,102.22,586.39ZM334.3,580a6.37,6.37,0,1,1,6.37,6.37A6.37,6.37,0,0,1,334.3,580Zm21.5,30.15a6.37,6.37,0,1,1,0-9A6.37,6.37,0,0,1,355.8,610.17Zm21.15,12.49a6.37,6.37,0,1,1,6.37-6.37A6.37,6.37,0,0,1,376.94,622.66Zm0-17A25.65,25.65,0,1,1,402.59,580,25.65,25.65,0,0,1,376.94,605.67Zm30.15,4.5a6.37,6.37,0,1,1,0-9A6.37,6.37,0,0,1,407.1,610.17Zm6.12-23.78a6.37,6.37,0,1,1,6.37-6.37A6.37,6.37,0,0,1,413.22,586.39Z"/><circle id="_路径_" data-name="&lt;路径&gt;" class="cls-2" cx="65.94" cy="580.02" r="24.19"/><circle id="_路径_2" data-name="&lt;路径&gt;" class="cls-3" cx="65.94" cy="580.02" r="48.21"/><circle id="_路径_3" data-name="&lt;路径&gt;" class="cls-3" cx="376.94" cy="580.02" r="48.21"/><path id="_复合路径_2" data-name="&lt;复合路径&gt;" class="cls-4" d="M376.94,531.66A48.37,48.37,0,1,0,425.31,580,48.42,48.42,0,0,0,376.94,531.66Zm21.15,18.21a6.37,6.37,0,1,1,0,9A6.37,6.37,0,0,1,398.09,549.87Zm-21.15-12.49a6.37,6.37,0,1,1-6.37,6.37A6.37,6.37,0,0,1,376.94,537.38Zm-30.15,12.49a6.37,6.37,0,1,1,0,9A6.37,6.37,0,0,1,346.79,549.87Zm-6.12,36.52A6.37,6.37,0,1,1,347,580,6.37,6.37,0,0,1,340.67,586.39Zm15.13,23.78a6.37,6.37,0,1,1,0-9A6.37,6.37,0,0,1,355.8,610.17Zm21.15,12.49a6.37,6.37,0,1,1,6.37-6.37A6.37,6.37,0,0,1,376.94,622.66Zm0-18.46A24.18,24.18,0,1,1,401.13,580,24.21,24.21,0,0,1,376.94,604.2Zm30.15,6a6.37,6.37,0,1,1,0-9A6.37,6.37,0,0,1,407.1,610.17Zm6.12-23.78a6.37,6.37,0,1,1,6.37-6.37A6.37,6.37,0,0,1,413.22,586.39Z"/><path id="_复合路径_3" data-name="&lt;复合路径&gt;" class="cls-4" d="M65.94,531.66A48.37,48.37,0,1,0,114.31,580,48.42,48.42,0,0,0,65.94,531.66Zm21.15,18.21a6.37,6.37,0,1,1,0,9A6.37,6.37,0,0,1,87.09,549.87ZM65.94,537.38a6.37,6.37,0,1,1-6.37,6.37A6.37,6.37,0,0,1,65.94,537.38ZM35.79,549.87a6.37,6.37,0,1,1,0,9A6.37,6.37,0,0,1,35.79,549.87Zm-6.12,36.52A6.37,6.37,0,1,1,36,580,6.37,6.37,0,0,1,29.67,586.39ZM44.8,610.17a6.37,6.37,0,1,1,0-9A6.37,6.37,0,0,1,44.8,610.17Zm21.15,12.49a6.37,6.37,0,1,1,6.37-6.37A6.37,6.37,0,0,1,65.94,622.66Zm0-18.46A24.18,24.18,0,1,1,90.13,580,24.21,24.21,0,0,1,65.94,604.2Zm30.15,6a6.37,6.37,0,1,1,0-9A6.37,6.37,0,0,1,96.1,610.17Zm6.12-23.78a6.37,6.37,0,1,1,6.37-6.37A6.37,6.37,0,0,1,102.22,586.39Z"/><g id="_编组_2" data-name="&lt;编组&gt;"><g id="_编组_3" data-name="&lt;编组&gt;"><rect id="_矩形_" data-name="&lt;矩形&gt;" class="cls-5" x="172.7" y="762.05" width="18.53" height="56.47"/><rect id="_矩形_2" data-name="&lt;矩形&gt;" class="cls-6" x="176.83" y="767.06" width="10.26" height="52.94" rx="5.13" ry="5.13"/></g><g id="_编组_4" data-name="&lt;编组&gt;"><rect id="_矩形_3" data-name="&lt;矩形&gt;" class="cls-5" x="212.18" y="762.05" width="18.53" height="56.47"/><rect id="_矩形_4" data-name="&lt;矩形&gt;" class="cls-6" x="216.32" y="767.06" width="10.26" height="52.94" rx="5.13" ry="5.13"/></g><g id="_编组_5" data-name="&lt;编组&gt;"><rect id="_矩形_5" data-name="&lt;矩形&gt;" class="cls-5" x="251.67" y="762.05" width="18.53" height="56.47"/><rect id="_矩形_6" data-name="&lt;矩形&gt;" class="cls-6" x="255.8" y="767.06" width="10.26" height="52.94" rx="5.13" ry="5.13"/></g><rect id="_矩形_7" data-name="&lt;矩形&gt;" class="cls-7" x="124.83" y="809.75" width="193.24" height="114.27"/><rect id="_矩形_8" data-name="&lt;矩形&gt;" class="cls-8" x="176.83" y="831.15" width="10.26" height="71.47"/><rect id="_矩形_9" data-name="&lt;矩形&gt;" class="cls-8" x="255.8" y="831.15" width="10.26" height="71.47"/><rect id="_矩形_10" data-name="&lt;矩形&gt;" class="cls-9" x="124.83" y="777.32" width="18.53" height="32.43"/><rect id="_矩形_11" data-name="&lt;矩形&gt;" class="cls-9" x="299.53" y="777.32" width="18.53" height="32.43"/><rect id="_矩形_12" data-name="&lt;矩形&gt;" class="cls-9" x="159.24" y="924.01" width="124.41" height="4.08" rx="2.04" ry="2.04"/><rect id="_矩形_13" data-name="&lt;矩形&gt;" class="cls-10" x="176.83" y="790.14" width="10.26" height="6.78"/><rect id="_矩形_14" data-name="&lt;矩形&gt;" class="cls-10" x="216.32" y="790.14" width="10.26" height="6.78"/><rect id="_矩形_15" data-name="&lt;矩形&gt;" class="cls-10" x="255.8" y="790.14" width="10.26" height="6.78"/></g></g><g id="_编组_6" data-name="&lt;编组&gt;"><path id="_复合路径_4" data-name="&lt;复合路径&gt;" class="cls-7" d="M173.64,739.68c0-5,4-7.42,8.5-7.42s8.53,2.3,8.53,7.42c0,5-4.14,7.37-8.53,7.37S173.64,744.67,173.64,739.68Zm15.46,0c0-3.85-3.21-5.71-7-5.71s-7,2-7,5.71,3.26,5.67,7,5.67S189.09,743.38,189.09,739.68Z"/><path id="_复合路径_5" data-name="&lt;复合路径&gt;" class="cls-7" d="M174,727.62h9.85c3.14,0,5.2-1.48,5.2-4.63,0-3-1.93-4.56-5.2-4.56H174v-1.71H184c4.5,0,6.69,2.52,6.69,6.27s-2.21,6.33-6.69,6.33H174Z"/><path id="_复合路径_6" data-name="&lt;复合路径&gt;" class="cls-7" d="M174,702.73h1.53v5.16h14.68v1.71H175.56v5.14H174Z"/></g><g id="_编组_7" data-name="&lt;编组&gt;"><path id="_复合路径_7" data-name="&lt;复合路径&gt;" class="cls-7" d="M213.33,745.32l14-5v0l-14-5v-1.88l16.21,5.91v1.95l-16.21,5.87Z"/><path id="_复合路径_8" data-name="&lt;复合路径&gt;" class="cls-7" d="M212.93,725c0-3.68,2.06-5.69,4.23-6.42l.29,1.75a4.67,4.67,0,0,0-3,4.67c0,3.28,2.3,5.45,7,5.45,4.25,0,7-2.21,7-5.45a4.82,4.82,0,0,0-3.21-4.87l.27-1.68A6.42,6.42,0,0,1,230,725c0,4.69-3.79,7.15-8.55,7.15S212.93,730,212.93,725Z"/><path id="_复合路径_9" data-name="&lt;复合路径&gt;" class="cls-7" d="M212.93,709.18c0-3.68,2.06-5.69,4.23-6.42l.29,1.75a4.67,4.67,0,0,0-3,4.67c0,3.28,2.3,5.45,7,5.45,4.25,0,7-2.21,7-5.45a4.82,4.82,0,0,0-3.21-4.87l.27-1.68a6.42,6.42,0,0,1,4.52,6.55c0,4.69-3.79,7.15-8.55,7.15S212.93,714.25,212.93,709.18Z"/></g><g id="_编组_8" data-name="&lt;编组&gt;"><path id="_复合路径_10" data-name="&lt;复合路径&gt;" class="cls-7" d="M252.42,741.4c0-4.1,2.35-5.6,4.47-6.51l.29,1.79a4.77,4.77,0,0,0-3.23,4.72c0,3.34,2.86,5.71,7,5.71,4.25,0,7-2.46,7-5.49a5.57,5.57,0,0,0-4.19-5.31h-1.75v4.94h-1.55v-6.67H269v1.55H265.7a6.14,6.14,0,0,1,3.74,5.69c0,3.61-3.08,7-8.55,7C255.83,748.82,252.42,745.78,252.42,741.4Z"/><path id="_复合路径_11" data-name="&lt;复合路径&gt;" class="cls-7" d="M252.82,729.07l13.46-9.48v0H252.82v-1.71H269v1.79l-13.46,9.43,0,0H269v1.73H252.82Z"/><path id="_复合路径_12" data-name="&lt;复合路径&gt;" class="cls-7" d="M252.82,708.14c0-5.29,4.19-7.17,8.08-7.17,4.65,0,8.13,2.3,8.13,7.48V714H252.82Zm14.68,4.16v-3.9c0-3.23-2.15-5.74-6.6-5.74-3.08,0-6.55,1.51-6.55,5.78v3.85Z"/></g><g id="_编组_9" data-name="&lt;编组&gt;"><rect id="_矩形_16" data-name="&lt;矩形&gt;" class="cls-11" x="212.79" y="558.24" width="17.32" height="43.57"/><rect id="_矩形_17" data-name="&lt;矩形&gt;" class="cls-12" x="213.09" y="564.47" width="16.71" height="29.78"/><polygon id="_路径_4" data-name="&lt;路径&gt;" class="cls-13" points="213.15 569.85 213.15 589.04 229.74 589.04 229.74 569.85 226.35 569.85 226.35 570.55 215.97 570.55 215.97 569.85 213.15 569.85"/></g><g id="_编组_10" data-name="&lt;编组&gt;"><rect id="_矩形_18" data-name="&lt;矩形&gt;" class="cls-11" x="38.01" y="684.07" width="17.32" height="43.57"/><rect id="_矩形_19" data-name="&lt;矩形&gt;" class="cls-12" x="38.31" y="690.3" width="16.71" height="29.78"/><polygon id="_路径_5" data-name="&lt;路径&gt;" class="cls-13" points="38.37 695.68 38.37 714.87 54.96 714.87 54.96 695.68 51.56 695.68 51.56 696.38 41.18 696.38 41.18 695.68 38.37 695.68"/></g><g id="_编组_11" data-name="&lt;编组&gt;"><rect id="_矩形_20" data-name="&lt;矩形&gt;" class="cls-11" x="38.01" y="737.4" width="17.32" height="13.51"/><rect id="_矩形_21" data-name="&lt;矩形&gt;" class="cls-11" x="38.01" y="764.31" width="17.32" height="13.51"/><g id="_编组_12" data-name="&lt;编组&gt;"><path id="_路径_6" data-name="&lt;路径&gt;" class="cls-14" d="M51.32,742.06a4.66,4.66,0,1,1-9.32,0H39.22v8.85H54.11v-8.85Z"/><path id="_路径_7" data-name="&lt;路径&gt;" class="cls-14" d="M42,773.16a4.66,4.66,0,1,1,9.32,0h2.79v-8.85H39.22v8.85Z"/><rect id="_矩形_22" data-name="&lt;矩形&gt;" class="cls-15" x="40.05" y="747.82" width="13.24" height="19.47"/></g></g><rect id="_矩形_23" data-name="&lt;矩形&gt;" class="cls-16" x="97.31" y="125.98" width="248.26" height="313.35" rx="11.41" ry="11.41"/><path id="_路径_8" data-name="&lt;路径&gt;" class="cls-17" d="M126,482.18h-9.13a4.28,4.28,0,0,1-4.46-4.07V436.44a4.28,4.28,0,0,1,4.46-4.07H326a4.28,4.28,0,0,1,4.46,4.07v41.68a4.28,4.28,0,0,1-4.46,4.07H315"/><rect id="_矩形_24" data-name="&lt;矩形&gt;" class="cls-18" x="102.33" y="131.11" width="238.24" height="303.09" rx="3.95" ry="3.95"/><g id="_编组_13" data-name="&lt;编组&gt;"><g id="_编组_14" data-name="&lt;编组&gt;"><g id="_编组_15" data-name="&lt;编组&gt;"><rect id="_矩形_25" data-name="&lt;矩形&gt;" class="cls-19" x="123.28" y="223.1" width="21.62" height="22.5"/><rect id="_矩形_26" data-name="&lt;矩形&gt;" class="cls-20" x="134.09" y="234.35" width="10.81" height="11.25"/></g><g id="_编组_16" data-name="&lt;编组&gt;"><rect id="_矩形_27" data-name="&lt;矩形&gt;" class="cls-19" x="123.28" y="178.43" width="21.62" height="22.5"/><rect id="_矩形_28" data-name="&lt;矩形&gt;" class="cls-20" x="134.09" y="189.68" width="10.81" height="11.25"/></g><g id="_编组_17" data-name="&lt;编组&gt;"><rect id="_矩形_29" data-name="&lt;矩形&gt;" class="cls-19" x="123.28" y="312.44" width="21.62" height="22.5"/><rect id="_矩形_30" data-name="&lt;矩形&gt;" class="cls-20" x="134.09" y="323.69" width="10.81" height="11.25"/></g><g id="_编组_18" data-name="&lt;编组&gt;"><rect id="_矩形_31" data-name="&lt;矩形&gt;" class="cls-19" x="123.28" y="267.77" width="21.62" height="22.5"/><rect id="_矩形_32" data-name="&lt;矩形&gt;" class="cls-20" x="134.09" y="279.02" width="10.81" height="11.25"/></g><g id="_编组_19" data-name="&lt;编组&gt;"><rect id="_矩形_33" data-name="&lt;矩形&gt;" class="cls-19" x="123.28" y="357.11" width="21.62" height="22.5"/><rect id="_矩形_34" data-name="&lt;矩形&gt;" class="cls-20" x="134.09" y="368.36" width="10.81" height="11.25"/></g></g><g id="_编组_20" data-name="&lt;编组&gt;"><g id="_编组_21" data-name="&lt;编组&gt;"><rect id="_矩形_35" data-name="&lt;矩形&gt;" class="cls-19" x="166.96" y="223.1" width="21.62" height="22.5"/><rect id="_矩形_36" data-name="&lt;矩形&gt;" class="cls-20" x="177.77" y="234.35" width="10.81" height="11.25"/></g><g id="_编组_22" data-name="&lt;编组&gt;"><rect id="_矩形_37" data-name="&lt;矩形&gt;" class="cls-19" x="166.96" y="178.43" width="21.62" height="22.5"/><rect id="_矩形_38" data-name="&lt;矩形&gt;" class="cls-20" x="177.77" y="189.68" width="10.81" height="11.25"/></g><g id="_编组_23" data-name="&lt;编组&gt;"><rect id="_矩形_39" data-name="&lt;矩形&gt;" class="cls-19" x="166.96" y="312.44" width="21.62" height="22.5"/><rect id="_矩形_40" data-name="&lt;矩形&gt;" class="cls-20" x="177.77" y="323.69" width="10.81" height="11.25"/></g><g id="_编组_24" data-name="&lt;编组&gt;"><rect id="_矩形_41" data-name="&lt;矩形&gt;" class="cls-19" x="166.96" y="267.77" width="21.62" height="22.5"/><rect id="_矩形_42" data-name="&lt;矩形&gt;" class="cls-20" x="177.77" y="279.02" width="10.81" height="11.25"/></g><g id="_编组_25" data-name="&lt;编组&gt;"><rect id="_矩形_43" data-name="&lt;矩形&gt;" class="cls-19" x="166.96" y="357.11" width="21.62" height="22.5"/><rect id="_矩形_44" data-name="&lt;矩形&gt;" class="cls-20" x="177.77" y="368.36" width="10.81" height="11.25"/></g></g><g id="_编组_26" data-name="&lt;编组&gt;"><g id="_编组_27" data-name="&lt;编组&gt;"><rect id="_矩形_45" data-name="&lt;矩形&gt;" class="cls-19" x="210.64" y="223.1" width="21.62" height="22.5"/><rect id="_矩形_46" data-name="&lt;矩形&gt;" class="cls-20" x="221.45" y="234.35" width="10.81" height="11.25"/></g><g id="_编组_28" data-name="&lt;编组&gt;"><rect id="_矩形_47" data-name="&lt;矩形&gt;" class="cls-19" x="210.64" y="178.43" width="21.62" height="22.5"/><rect id="_矩形_48" data-name="&lt;矩形&gt;" class="cls-20" x="221.45" y="189.68" width="10.81" height="11.25"/></g><g id="_编组_29" data-name="&lt;编组&gt;"><rect id="_矩形_49" data-name="&lt;矩形&gt;" class="cls-19" x="210.64" y="312.44" width="21.62" height="22.5"/><rect id="_矩形_50" data-name="&lt;矩形&gt;" class="cls-20" x="221.45" y="323.69" width="10.81" height="11.25"/></g><g id="_编组_30" data-name="&lt;编组&gt;"><rect id="_矩形_51" data-name="&lt;矩形&gt;" class="cls-19" x="210.64" y="267.77" width="21.62" height="22.5"/><rect id="_矩形_52" data-name="&lt;矩形&gt;" class="cls-20" x="221.45" y="279.02" width="10.81" height="11.25"/></g><g id="_编组_31" data-name="&lt;编组&gt;"><rect id="_矩形_53" data-name="&lt;矩形&gt;" class="cls-19" x="210.64" y="357.11" width="21.62" height="22.5"/><rect id="_矩形_54" data-name="&lt;矩形&gt;" class="cls-20" x="221.45" y="368.36" width="10.81" height="11.25"/></g></g><g id="_编组_32" data-name="&lt;编组&gt;"><g id="_编组_33" data-name="&lt;编组&gt;"><rect id="_矩形_55" data-name="&lt;矩形&gt;" class="cls-19" x="254.31" y="223.1" width="21.62" height="22.5"/><rect id="_矩形_56" data-name="&lt;矩形&gt;" class="cls-20" x="265.12" y="234.35" width="10.81" height="11.25"/></g><g id="_编组_34" data-name="&lt;编组&gt;"><rect id="_矩形_57" data-name="&lt;矩形&gt;" class="cls-19" x="254.31" y="178.43" width="21.62" height="22.5"/><rect id="_矩形_58" data-name="&lt;矩形&gt;" class="cls-20" x="265.12" y="189.68" width="10.81" height="11.25"/></g><g id="_编组_35" data-name="&lt;编组&gt;"><rect id="_矩形_59" data-name="&lt;矩形&gt;" class="cls-19" x="254.31" y="312.44" width="21.62" height="22.5"/><rect id="_矩形_60" data-name="&lt;矩形&gt;" class="cls-20" x="265.12" y="323.69" width="10.81" height="11.25"/></g><g id="_编组_36" data-name="&lt;编组&gt;"><rect id="_矩形_61" data-name="&lt;矩形&gt;" class="cls-19" x="254.31" y="267.77" width="21.62" height="22.5"/><rect id="_矩形_62" data-name="&lt;矩形&gt;" class="cls-20" x="265.12" y="279.02" width="10.81" height="11.25"/></g><g id="_编组_37" data-name="&lt;编组&gt;"><rect id="_矩形_63" data-name="&lt;矩形&gt;" class="cls-19" x="254.31" y="357.11" width="21.62" height="22.5"/><rect id="_矩形_64" data-name="&lt;矩形&gt;" class="cls-20" x="265.12" y="368.36" width="10.81" height="11.25"/></g></g><g id="_编组_38" data-name="&lt;编组&gt;"><g id="_编组_39" data-name="&lt;编组&gt;"><rect id="_矩形_65" data-name="&lt;矩形&gt;" class="cls-19" x="297.99" y="223.1" width="21.62" height="22.5"/><rect id="_矩形_66" data-name="&lt;矩形&gt;" class="cls-20" x="308.8" y="234.35" width="10.81" height="11.25"/></g><g id="_编组_40" data-name="&lt;编组&gt;"><rect id="_矩形_67" data-name="&lt;矩形&gt;" class="cls-19" x="297.99" y="178.43" width="21.62" height="22.5"/><rect id="_矩形_68" data-name="&lt;矩形&gt;" class="cls-20" x="308.8" y="189.68" width="10.81" height="11.25"/></g><g id="_编组_41" data-name="&lt;编组&gt;"><rect id="_矩形_69" data-name="&lt;矩形&gt;" class="cls-19" x="297.99" y="312.44" width="21.62" height="22.5"/><rect id="_矩形_70" data-name="&lt;矩形&gt;" class="cls-20" x="308.8" y="323.69" width="10.81" height="11.25"/></g><g id="_编组_42" data-name="&lt;编组&gt;"><rect id="_矩形_71" data-name="&lt;矩形&gt;" class="cls-19" x="297.99" y="267.77" width="21.62" height="22.5"/><rect id="_矩形_72" data-name="&lt;矩形&gt;" class="cls-20" x="308.8" y="279.02" width="10.81" height="11.25"/></g><g id="_编组_43" data-name="&lt;编组&gt;"><rect id="_矩形_73" data-name="&lt;矩形&gt;" class="cls-19" x="297.99" y="357.11" width="21.62" height="22.5"/><rect id="_矩形_74" data-name="&lt;矩形&gt;" class="cls-20" x="308.8" y="368.36" width="10.81" height="11.25"/></g></g></g><circle id="_路径_9" data-name="&lt;路径&gt;" class="cls-21" cx="197.51" cy="472.49" r="15.22"/><circle id="_路径_10" data-name="&lt;路径&gt;" class="cls-21" cx="245.38" cy="472.49" r="15.22"/><circle id="_路径_11" data-name="&lt;路径&gt;" class="cls-21" cx="293.25" cy="472.49" r="15.22"/><rect id="_矩形_75" data-name="&lt;矩形&gt;" class="cls-21" x="135.53" y="458.16" width="28.24" height="28.68"/><circle id="_路径_12" data-name="&lt;路径&gt;" class="cls-22" cx="149.64" cy="472.49" r="9.04"/><circle id="_路径_13" data-name="&lt;路径&gt;" class="cls-22" cx="197.51" cy="472.49" r="9.04"/><circle id="_路径_14" data-name="&lt;路径&gt;" class="cls-22" cx="245.38" cy="472.49" r="9.04"/><circle id="_路径_15" data-name="&lt;路径&gt;" class="cls-22" cx="293.25" cy="472.49" r="9.04"/><g id="_编组_44" data-name="&lt;编组&gt;"><rect id="_矩形_76" data-name="&lt;矩形&gt;" class="cls-23" x="145.01" y="429.9" width="9.26" height="41.25"/><rect id="_矩形_77" data-name="&lt;矩形&gt;" class="cls-23" x="192.88" y="429.9" width="9.26" height="41.25"/><rect id="_矩形_78" data-name="&lt;矩形&gt;" class="cls-23" x="240.75" y="429.9" width="9.26" height="41.25"/><rect id="_矩形_79" data-name="&lt;矩形&gt;" class="cls-23" x="288.62" y="429.9" width="9.26" height="41.25"/></g></g></g></svg>