<svg xmlns="http://www.w3.org/2000/svg" viewBox="0 0 442.89 928.1"><defs><style>.cls-1{fill:#353535;}.cls-2{fill:none;stroke-width:3.31px;}.cls-10,.cls-2,.cls-4{stroke:#fff;stroke-miterlimit:10;}.cls-3{fill:#f2cb6b;}.cls-4{fill:#d0ab3c;stroke-width:1.99px;}.cls-5{fill:#f0c581;}.cls-6{fill:#c8a266;}.cls-7{fill:#fff;}.cls-8{fill:#f4cb70;}.cls-9{fill:#c6c5c5;}.cls-10{fill:#2d2d2d;stroke-width:1.32px;}.cls-11{fill:#919191;}.cls-12{fill:#6b6b6b;}</style></defs><title>数码管模块</title><g id="图层_2" data-name="图层 2"><g id="图层_1-2" data-name="图层 1"><path id="_复合路径_" data-name="&lt;复合路径&gt;" class="cls-1" d="M385,0h-327A57.92,57.92,0,0,0,0,57.92V870.17a57.92,57.92,0,0,0,57.92,57.92H385a57.92,57.92,0,0,0,57.92-57.92V57.92A57.92,57.92,0,0,0,385,0Zm20.57,137.16a6.37,6.37,0,1,1,0,9A6.37,6.37,0,0,1,405.54,137.16Zm9,60.31a6.37,6.37,0,1,1,0-9A6.37,6.37,0,0,1,414.55,197.47Zm0,555.51a6.37,6.37,0,1,1,0-9A6.37,6.37,0,0,1,414.55,753Zm-30.15-628.3A6.37,6.37,0,1,1,378,131,6.37,6.37,0,0,1,384.39,124.67Zm0,18.46a24.18,24.18,0,1,1-24.18,24.18A24.18,24.18,0,0,1,384.39,143.13Zm0,66.83a6.37,6.37,0,1,1,6.37-6.37A6.37,6.37,0,0,1,384.39,210Zm6.37,527.89a6.37,6.37,0,1,1-6.37-6.37A6.37,6.37,0,0,1,390.76,737.85ZM363.25,197.47a6.37,6.37,0,1,1,0-9A6.37,6.37,0,0,1,363.25,197.47Zm0,555.51a6.37,6.37,0,1,1,0-9A6.37,6.37,0,0,1,363.25,753Zm-9-615.81a6.37,6.37,0,1,1,0,9A6.37,6.37,0,0,1,354.24,137.16Zm-6.12,23.78a6.37,6.37,0,1,1-6.37,6.37A6.37,6.37,0,0,1,348.12,160.94Zm-6.37,613.18a6.37,6.37,0,1,1,6.37,6.37A6.37,6.37,0,0,1,341.75,774.12Zm21.5,30.15a6.37,6.37,0,1,1,0-9A6.37,6.37,0,0,1,363.25,804.27Zm21.15,12.49a6.37,6.37,0,1,1,6.37-6.37A6.37,6.37,0,0,1,384.39,816.76Zm0-18.46a24.18,24.18,0,1,1,24.18-24.18A24.18,24.18,0,0,1,384.39,798.3Zm30.15,6a6.37,6.37,0,1,1,0-9A6.37,6.37,0,0,1,414.55,804.27Zm6.12-23.78a6.37,6.37,0,1,1,6.37-6.37A6.37,6.37,0,0,1,420.67,780.49Zm0-606.81a6.37,6.37,0,1,1,6.37-6.37A6.37,6.37,0,0,1,420.67,173.68Z"/><circle id="_路径_" data-name="&lt;路径&gt;" class="cls-2" cx="384.39" cy="774.12" r="48.21"/><path id="_复合路径_2" data-name="&lt;复合路径&gt;" class="cls-3" d="M384.39,725.76a48.37,48.37,0,1,0,48.37,48.37A48.42,48.42,0,0,0,384.39,725.76ZM405.54,744a6.37,6.37,0,1,1,0,9A6.37,6.37,0,0,1,405.54,744Zm-21.15-12.49a6.37,6.37,0,1,1-6.37,6.37A6.37,6.37,0,0,1,384.39,731.48ZM354.24,744a6.37,6.37,0,1,1,0,9A6.37,6.37,0,0,1,354.24,744Zm-6.12,36.52a6.37,6.37,0,1,1,6.37-6.37A6.37,6.37,0,0,1,348.12,780.49Zm15.13,23.78a6.37,6.37,0,1,1,0-9A6.37,6.37,0,0,1,363.25,804.27Zm21.15,12.49a6.37,6.37,0,1,1,6.37-6.37A6.37,6.37,0,0,1,384.39,816.76Zm0-18.46a24.18,24.18,0,1,1,24.18-24.18A24.21,24.21,0,0,1,384.39,798.3Zm30.15,6a6.37,6.37,0,1,1,0-9A6.37,6.37,0,0,1,414.55,804.27Zm6.12-23.78a6.37,6.37,0,1,1,6.37-6.37A6.37,6.37,0,0,1,420.67,780.49Z"/><circle id="_路径_2" data-name="&lt;路径&gt;" class="cls-2" cx="384.39" cy="167.31" r="48.21"/><path id="_复合路径_3" data-name="&lt;复合路径&gt;" class="cls-3" d="M384.39,118.95a48.37,48.37,0,1,0,48.37,48.37A48.42,48.42,0,0,0,384.39,118.95Zm21.15,18.21a6.37,6.37,0,1,1,0,9A6.37,6.37,0,0,1,405.54,137.16Zm-21.15-12.49A6.37,6.37,0,1,1,378,131,6.37,6.37,0,0,1,384.39,124.67Zm-30.15,12.49a6.37,6.37,0,1,1,0,9A6.37,6.37,0,0,1,354.24,137.16Zm-6.12,36.52a6.37,6.37,0,1,1,6.37-6.37A6.37,6.37,0,0,1,348.12,173.68Zm15.13,23.78a6.37,6.37,0,1,1,0-9A6.37,6.37,0,0,1,363.25,197.47ZM384.39,210a6.37,6.37,0,1,1,6.37-6.37A6.37,6.37,0,0,1,384.39,210Zm0-18.46a24.18,24.18,0,1,1,24.18-24.18A24.21,24.21,0,0,1,384.39,191.5Zm30.15,6a6.37,6.37,0,1,1,0-9A6.37,6.37,0,0,1,414.55,197.47Zm6.12-23.78a6.37,6.37,0,1,1,6.37-6.37A6.37,6.37,0,0,1,420.67,173.68Z"/><g id="_编组_" data-name="&lt;编组&gt;"><g id="_编组_2" data-name="&lt;编组&gt;"><g id="_编组_3" data-name="&lt;编组&gt;"><rect id="_矩形_" data-name="&lt;矩形&gt;" class="cls-4" x="160.45" y="762.05" width="18.53" height="56.47"/><rect id="_矩形_2" data-name="&lt;矩形&gt;" class="cls-5" x="164.59" y="767.06" width="10.26" height="52.94" rx="5.13" ry="5.13"/></g><rect id="_矩形_3" data-name="&lt;矩形&gt;" class="cls-6" x="164.59" y="790.14" width="10.26" height="6.78"/></g><g id="_编组_4" data-name="&lt;编组&gt;"><g id="_编组_5" data-name="&lt;编组&gt;"><rect id="_矩形_4" data-name="&lt;矩形&gt;" class="cls-4" x="196.06" y="762.05" width="18.53" height="56.47"/><rect id="_矩形_5" data-name="&lt;矩形&gt;" class="cls-5" x="200.2" y="767.06" width="10.26" height="52.94" rx="5.13" ry="5.13"/></g><rect id="_矩形_6" data-name="&lt;矩形&gt;" class="cls-6" x="200.2" y="790.14" width="10.26" height="6.78"/></g><g id="_编组_6" data-name="&lt;编组&gt;"><g id="_编组_7" data-name="&lt;编组&gt;"><rect id="_矩形_7" data-name="&lt;矩形&gt;" class="cls-4" x="231.67" y="762.05" width="18.53" height="56.47"/><rect id="_矩形_8" data-name="&lt;矩形&gt;" class="cls-5" x="235.8" y="767.06" width="10.26" height="52.94" rx="5.13" ry="5.13"/></g><rect id="_矩形_9" data-name="&lt;矩形&gt;" class="cls-6" x="235.8" y="790.14" width="10.26" height="6.78"/></g><g id="_编组_8" data-name="&lt;编组&gt;"><g id="_编组_9" data-name="&lt;编组&gt;"><rect id="_矩形_10" data-name="&lt;矩形&gt;" class="cls-4" x="267.27" y="762.05" width="18.53" height="56.47"/><rect id="_矩形_11" data-name="&lt;矩形&gt;" class="cls-5" x="271.41" y="767.06" width="10.26" height="52.94" rx="5.13" ry="5.13"/></g><rect id="_矩形_12" data-name="&lt;矩形&gt;" class="cls-6" x="271.41" y="790.14" width="10.26" height="6.78"/></g><rect id="_矩形_13" data-name="&lt;矩形&gt;" class="cls-7" x="112.59" y="809.75" width="217.72" height="114.27"/><g id="_编组_10" data-name="&lt;编组&gt;"><rect id="_矩形_14" data-name="&lt;矩形&gt;" class="cls-8" x="162.91" y="831.15" width="10.26" height="71.47"/><rect id="_矩形_15" data-name="&lt;矩形&gt;" class="cls-8" x="269.73" y="832.8" width="10.26" height="71.47"/></g><rect id="_矩形_16" data-name="&lt;矩形&gt;" class="cls-9" x="112.59" y="777.32" width="18.53" height="32.43"/><rect id="_矩形_17" data-name="&lt;矩形&gt;" class="cls-9" x="311.78" y="777.32" width="18.53" height="32.43"/><rect id="_矩形_18" data-name="&lt;矩形&gt;" class="cls-9" x="159.24" y="924.01" width="124.41" height="4.08" rx="2.04" ry="2.04"/></g><g id="_编组_11" data-name="&lt;编组&gt;"><path id="_复合路径_4" data-name="&lt;复合路径&gt;" class="cls-7" d="M161.49,746.89l14-5v0l-14-5V735l16.21,5.91v1.95l-16.21,5.87Z"/><path id="_复合路径_5" data-name="&lt;复合路径&gt;" class="cls-7" d="M161.09,726.54c0-3.68,2.06-5.69,4.23-6.42l.29,1.75a4.67,4.67,0,0,0-3,4.67c0,3.28,2.3,5.45,7,5.45,4.25,0,7-2.21,7-5.45a4.82,4.82,0,0,0-3.21-4.87l.27-1.68a6.42,6.42,0,0,1,4.52,6.55c0,4.69-3.79,7.15-8.55,7.15S161.09,731.61,161.09,726.54Z"/><path id="_复合路径_6" data-name="&lt;复合路径&gt;" class="cls-7" d="M161.09,710.75c0-3.68,2.06-5.69,4.23-6.42l.29,1.75a4.67,4.67,0,0,0-3,4.67c0,3.28,2.3,5.45,7,5.45,4.25,0,7-2.21,7-5.45a4.82,4.82,0,0,0-3.21-4.87l.27-1.68a6.42,6.42,0,0,1,4.52,6.55c0,4.69-3.79,7.15-8.55,7.15S161.09,715.83,161.09,710.75Z"/></g><g id="_编组_12" data-name="&lt;编组&gt;"><path id="_复合路径_7" data-name="&lt;复合路径&gt;" class="cls-7" d="M268,741.12c0-4.1,2.35-5.6,4.47-6.51l.29,1.79a4.77,4.77,0,0,0-3.23,4.72c0,3.34,2.86,5.71,7,5.71,4.25,0,7-2.46,7-5.49A5.57,5.57,0,0,0,279.3,736h-1.75V741H276V734.3h8.64v1.55h-3.32a6.14,6.14,0,0,1,3.74,5.69c0,3.61-3.08,7-8.55,7C271.43,748.54,268,745.51,268,741.12Z"/><path id="_复合路径_8" data-name="&lt;复合路径&gt;" class="cls-7" d="M268.42,728.79l13.46-9.48v0H268.42v-1.71h16.21v1.79l-13.46,9.43,0,0h13.49v1.73H268.42Z"/><path id="_复合路径_9" data-name="&lt;复合路径&gt;" class="cls-7" d="M268.42,707.87c0-5.29,4.19-7.17,8.08-7.17,4.65,0,8.13,2.3,8.13,7.48v5.58H268.42ZM283.1,712v-3.9c0-3.23-2.15-5.74-6.6-5.74-3.08,0-6.55,1.51-6.55,5.78V712Z"/></g><g id="_编组_13" data-name="&lt;编组&gt;"><path id="_复合路径_10" data-name="&lt;复合路径&gt;" class="cls-7" d="M196.78,741.55c0-3.69,2.07-5.71,4.25-6.45l.29,1.76a4.69,4.69,0,0,0-3,4.69c0,3.29,2.31,5.47,7,5.47,4.27,0,7-2.22,7-5.47a4.84,4.84,0,0,0-3.22-4.89l.27-1.69a6.44,6.44,0,0,1,4.53,6.58c0,4.71-3.8,7.18-8.58,7.18S196.78,746.64,196.78,741.55Z"/><path id="_复合路径_11" data-name="&lt;复合路径&gt;" class="cls-7" d="M197.18,730.36h14.74v-8.67h1.53v10.4H197.18Z"/><path id="_复合路径_12" data-name="&lt;复合路径&gt;" class="cls-7" d="M197.18,717.66h8.34l-8.34-7.87V707.7l6.36,5.91,9.91-6.74V709l-8.58,5.85,3,2.82h5.53v1.73H197.18Z"/></g><g id="_编组_14" data-name="&lt;编组&gt;"><path id="_复合路径_13" data-name="&lt;复合路径&gt;" class="cls-7" d="M233,743c0-5.18,4.1-7,7.91-7,4.55,0,8,2.25,8,7.33v5.46H233ZM247.36,747v-3.82c0-3.17-2.1-5.61-6.46-5.61-3,0-6.42,1.47-6.42,5.66V747Z"/><path id="_复合路径_14" data-name="&lt;复合路径&gt;" class="cls-7" d="M233,731.33h15.87V733H233Z"/><path id="_复合路径_15" data-name="&lt;复合路径&gt;" class="cls-7" d="M232.6,721.12c0-4.94,3.95-7.26,8.32-7.26s8.35,2.25,8.35,7.26c0,4.86-4.05,7.22-8.35,7.22S232.6,726,232.6,721.12Zm15.13,0c0-3.77-3.14-5.59-6.81-5.59s-6.83,1.93-6.83,5.59,3.19,5.55,6.83,5.55S247.73,724.74,247.73,721.12Z"/></g><rect id="_矩形_19" data-name="&lt;矩形&gt;" class="cls-10" x="-48.54" y="281.24" width="539.98" height="215.39" transform="translate(-167.49 610.38) rotate(-90)"/><g id="_编组_15" data-name="&lt;编组&gt;"><path id="_复合路径_16" data-name="&lt;复合路径&gt;" class="cls-11" d="M161.29,554l13.17,14v42.67l-13.17,11.94ZM215.2,629.8l-51.63-4.53,13.17-11.89,35.11,3.08,8.27,8.83ZM211.85,569l-35.11-3.08-13.17-14.2,51.62,4.53,4.92,5.14Zm4.22,1.08,6.58-6.15,6.58,7.38v46l-6.58,5.7-6.58-7Zm14-12.52,51.45,4.52L268.4,573.77l-35.12-2.91L225,561.92Zm3.16,60.8,35.12,2.9,13.17,14.38-51.45-4.52L225,625.86ZM284,564.69v68.94l-13.17-14.4V576.48Z"/><path id="_复合路径_17" data-name="&lt;复合路径&gt;" class="cls-11" d="M284,541.16l-13.17-1.23V526.76L284,528Z"/><path id="_复合路径_18" data-name="&lt;复合路径&gt;" class="cls-11" d="M161.29,425.28l13.17,14V482l-13.17,11.94ZM215.2,501.1l-51.63-4.53,13.17-11.89,35.11,3.08,8.27,8.83Zm-3.34-60.82-35.11-3.08L163.58,423l51.62,4.53,4.92,5.14Zm4.22,1.08,6.58-6.15,6.58,7.38v46l-6.58,5.7-6.58-7Zm14-12.52,51.45,4.52L268.4,445.07l-35.12-2.91L225,433.22Zm3.16,60.8,35.12,2.9,13.17,14.38-51.45-4.52L225,497.16ZM284,436v68.94l-13.17-14.4V447.78Z"/><path id="_复合路径_19" data-name="&lt;复合路径&gt;" class="cls-11" d="M284,412.46l-13.17-1.23V398.07L284,399.3Z"/><path id="_复合路径_20" data-name="&lt;复合路径&gt;" class="cls-11" d="M161.29,296.58l13.17,14v42.67l-13.17,11.94ZM215.2,372.4l-51.63-4.53L176.74,356l35.11,3.08,8.27,8.83Zm-3.34-60.82-35.11-3.08-13.17-14.2,51.62,4.53,4.92,5.14Zm4.22,1.08,6.58-6.15,6.58,7.38v46l-6.58,5.7-6.58-7Zm14-12.52,51.45,4.52L268.4,316.37l-35.12-2.91L225,304.52Zm3.16,60.8,35.12,2.9,13.17,14.38-51.45-4.52L225,368.46ZM284,307.29v68.94l-13.17-14.4V319.08Z"/><path id="_复合路径_21" data-name="&lt;复合路径&gt;" class="cls-11" d="M284,283.76l-13.17-1.23V269.37L284,270.6Z"/><path id="_复合路径_22" data-name="&lt;复合路径&gt;" class="cls-11" d="M161.29,167.88l13.17,14v42.67l-13.17,11.94ZM215.2,243.7l-51.63-4.53,13.17-11.89,35.11,3.08,8.27,8.83Zm-3.34-60.82-35.11-3.08-13.17-14.2,51.62,4.53,4.92,5.14Zm4.22,1.08,6.58-6.15,6.58,7.38v46l-6.58,5.7-6.58-7Zm14-12.52L281.56,176,268.4,187.67l-35.12-2.91L225,175.82Zm3.16,60.8,35.12,2.9,13.17,14.38L230.11,245,225,239.77ZM284,178.59v68.94l-13.17-14.4V190.38Z"/><path id="_复合路径_23" data-name="&lt;复合路径&gt;" class="cls-11" d="M284,155.07l-13.17-1.23V140.67L284,141.9Z"/></g><rect id="_矩形_20" data-name="&lt;矩形&gt;" class="cls-12" x="113.75" y="118.95" width="12.09" height="539.98"/><rect id="_矩形_21" data-name="&lt;矩形&gt;" class="cls-12" x="317.05" y="118.95" width="12.09" height="539.98"/></g></g></svg>