<svg xmlns="http://www.w3.org/2000/svg" viewBox="0 0 498.09 1121.69"><defs><style>.cls-1{fill:#353535;}.cls-17,.cls-2,.cls-3{fill:none;}.cls-11,.cls-17,.cls-3,.cls-5{stroke:#fff;}.cls-11,.cls-15,.cls-16,.cls-17,.cls-3,.cls-5{stroke-miterlimit:10;}.cls-3{stroke-width:3.31px;}.cls-4{fill:#f2cb6b;}.cls-5{fill:#d0ab3c;stroke-width:1.99px;}.cls-6{fill:#f0c581;}.cls-7{fill:#fff;}.cls-8{fill:#f4cb70;}.cls-9{fill:#c6c5c5;}.cls-10{fill:#c8a266;}.cls-11{fill:#9b9b9b;}.cls-11,.cls-15,.cls-16,.cls-17{stroke-width:0.66px;}.cls-12{fill:#d2d3d3;}.cls-13{fill:#030000;}.cls-14{fill:#bb8c27;}.cls-15{fill:#ff4a5c;stroke:#681216;}.cls-16{fill:#514f50;stroke:#494646;}.cls-18{fill:#c7c6c6;}.cls-19{fill:#a6a6a6;}.cls-20{fill:#e8e8e8;}.cls-21{fill:#3f3f3f;}.cls-22{fill:#d6d6d6;}.cls-23{fill:#a8a8a8;}.cls-24{fill:#ccc;}</style></defs><title>风扇模块</title><g id="图层_2" data-name="图层 2"><g id="图层_1-2" data-name="图层 1"><path id="_复合路径_" data-name="&lt;复合路径&gt;" class="cls-1" d="M412.57,74.39h-327A57.92,57.92,0,0,0,27.6,132.31V944.56a57.92,57.92,0,0,0,57.92,57.92h327a57.92,57.92,0,0,0,57.92-57.92V132.31A57.92,57.92,0,0,0,412.57,74.39Zm13.12,549.87a6.37,6.37,0,1,1,0,9A6.37,6.37,0,0,1,425.69,624.26Zm-21.15-12.49a6.37,6.37,0,1,1-6.37,6.37A6.37,6.37,0,0,1,404.54,611.77Zm-30.15,12.49a6.37,6.37,0,1,1,0,9A6.37,6.37,0,0,1,374.39,624.26Zm-259.7,0a6.37,6.37,0,1,1,0,9A6.37,6.37,0,0,1,114.69,624.26ZM93.54,611.77a6.37,6.37,0,1,1-6.37,6.37A6.37,6.37,0,0,1,93.54,611.77ZM63.39,624.26a6.37,6.37,0,1,1,0,9A6.37,6.37,0,0,1,63.39,624.26ZM50.9,654.41a6.37,6.37,0,1,1,6.37,6.37A6.37,6.37,0,0,1,50.9,654.41Zm21.5,30.15a6.37,6.37,0,1,1,0-9A6.37,6.37,0,0,1,72.4,684.56Zm21.15,12.49a6.37,6.37,0,1,1,6.37-6.37A6.37,6.37,0,0,1,93.54,697.05Zm0-17a25.65,25.65,0,1,1,25.65-25.65A25.65,25.65,0,0,1,93.54,680.06Zm30.15,4.5a6.37,6.37,0,1,1,0-9A6.37,6.37,0,0,1,123.7,684.56Zm6.12-23.78a6.37,6.37,0,1,1,6.37-6.37A6.37,6.37,0,0,1,129.82,660.78Zm232.08-6.37a6.37,6.37,0,1,1,6.37,6.37A6.37,6.37,0,0,1,361.9,654.41Zm21.5,30.15a6.37,6.37,0,1,1,0-9A6.37,6.37,0,0,1,383.4,684.56Zm21.15,12.49a6.37,6.37,0,1,1,6.37-6.37A6.37,6.37,0,0,1,404.54,697.05Zm0-17a25.65,25.65,0,1,1,25.65-25.65A25.65,25.65,0,0,1,404.54,680.06Zm30.15,4.5a6.37,6.37,0,1,1,0-9A6.37,6.37,0,0,1,434.7,684.56Zm6.12-23.78a6.37,6.37,0,1,1,6.37-6.37A6.37,6.37,0,0,1,440.82,660.78Z"/><circle id="_路径_" data-name="&lt;路径&gt;" class="cls-2" cx="93.54" cy="654.41" r="24.19"/><circle id="_路径_2" data-name="&lt;路径&gt;" class="cls-3" cx="93.54" cy="654.41" r="48.21"/><circle id="_路径_3" data-name="&lt;路径&gt;" class="cls-3" cx="404.54" cy="654.41" r="48.21"/><path id="_复合路径_2" data-name="&lt;复合路径&gt;" class="cls-4" d="M404.54,606a48.37,48.37,0,1,0,48.37,48.37A48.42,48.42,0,0,0,404.54,606Zm21.15,18.21a6.37,6.37,0,1,1,0,9A6.37,6.37,0,0,1,425.69,624.26Zm-21.15-12.49a6.37,6.37,0,1,1-6.37,6.37A6.37,6.37,0,0,1,404.54,611.77Zm-30.15,12.49a6.37,6.37,0,1,1,0,9A6.37,6.37,0,0,1,374.39,624.26Zm-6.12,36.52a6.37,6.37,0,1,1,6.37-6.37A6.37,6.37,0,0,1,368.27,660.78Zm15.13,23.78a6.37,6.37,0,1,1,0-9A6.37,6.37,0,0,1,383.4,684.56Zm21.15,12.49a6.37,6.37,0,1,1,6.37-6.37A6.37,6.37,0,0,1,404.54,697.05Zm0-18.46a24.18,24.18,0,1,1,24.18-24.18A24.21,24.21,0,0,1,404.54,678.59Zm30.15,6a6.37,6.37,0,1,1,0-9A6.37,6.37,0,0,1,434.7,684.56Zm6.12-23.78a6.37,6.37,0,1,1,6.37-6.37A6.37,6.37,0,0,1,440.82,660.78Z"/><path id="_复合路径_3" data-name="&lt;复合路径&gt;" class="cls-4" d="M93.54,606a48.37,48.37,0,1,0,48.37,48.37A48.42,48.42,0,0,0,93.54,606Zm21.15,18.21a6.37,6.37,0,1,1,0,9A6.37,6.37,0,0,1,114.69,624.26ZM93.54,611.77a6.37,6.37,0,1,1-6.37,6.37A6.37,6.37,0,0,1,93.54,611.77ZM63.39,624.26a6.37,6.37,0,1,1,0,9A6.37,6.37,0,0,1,63.39,624.26Zm-6.12,36.52a6.37,6.37,0,1,1,6.37-6.37A6.37,6.37,0,0,1,57.27,660.78ZM72.4,684.56a6.37,6.37,0,1,1,0-9A6.37,6.37,0,0,1,72.4,684.56Zm21.15,12.49a6.37,6.37,0,1,1,6.37-6.37A6.37,6.37,0,0,1,93.54,697.05Zm0-18.46a24.18,24.18,0,1,1,24.18-24.18A24.21,24.21,0,0,1,93.54,678.59Zm30.15,6a6.37,6.37,0,1,1,0-9A6.37,6.37,0,0,1,123.7,684.56Zm6.12-23.78a6.37,6.37,0,1,1,6.37-6.37A6.37,6.37,0,0,1,129.82,660.78Z"/><g id="_编组_" data-name="&lt;编组&gt;"><g id="_编组_2" data-name="&lt;编组&gt;"><rect id="_矩形_" data-name="&lt;矩形&gt;" class="cls-5" x="200.3" y="836.43" width="18.53" height="56.47"/><rect id="_矩形_2" data-name="&lt;矩形&gt;" class="cls-6" x="204.43" y="841.45" width="10.26" height="52.94" rx="5.13" ry="5.13"/></g><g id="_编组_3" data-name="&lt;编组&gt;"><rect id="_矩形_3" data-name="&lt;矩形&gt;" class="cls-5" x="239.78" y="836.43" width="18.53" height="56.47"/><rect id="_矩形_4" data-name="&lt;矩形&gt;" class="cls-6" x="243.92" y="841.45" width="10.26" height="52.94" rx="5.13" ry="5.13"/></g><g id="_编组_4" data-name="&lt;编组&gt;"><rect id="_矩形_5" data-name="&lt;矩形&gt;" class="cls-5" x="279.27" y="836.43" width="18.53" height="56.47"/><rect id="_矩形_6" data-name="&lt;矩形&gt;" class="cls-6" x="283.4" y="841.45" width="10.26" height="52.94" rx="5.13" ry="5.13"/></g><rect id="_矩形_7" data-name="&lt;矩形&gt;" class="cls-7" x="152.43" y="884.14" width="193.24" height="114.27"/><rect id="_矩形_8" data-name="&lt;矩形&gt;" class="cls-8" x="204.43" y="905.53" width="10.26" height="71.47"/><rect id="_矩形_9" data-name="&lt;矩形&gt;" class="cls-8" x="283.4" y="905.53" width="10.26" height="71.47"/><rect id="_矩形_10" data-name="&lt;矩形&gt;" class="cls-9" x="152.43" y="851.71" width="18.53" height="32.43"/><rect id="_矩形_11" data-name="&lt;矩形&gt;" class="cls-9" x="327.13" y="851.71" width="18.53" height="32.43"/><rect id="_矩形_12" data-name="&lt;矩形&gt;" class="cls-9" x="186.84" y="998.4" width="124.41" height="4.08" rx="2.04" ry="2.04"/><rect id="_矩形_13" data-name="&lt;矩形&gt;" class="cls-10" x="204.43" y="864.53" width="10.26" height="6.78"/><rect id="_矩形_14" data-name="&lt;矩形&gt;" class="cls-10" x="243.92" y="864.53" width="10.26" height="6.78"/><rect id="_矩形_15" data-name="&lt;矩形&gt;" class="cls-10" x="283.4" y="864.53" width="10.26" height="6.78"/></g><g id="_编组_5" data-name="&lt;编组&gt;"><path id="_复合路径_4" data-name="&lt;复合路径&gt;" class="cls-7" d="M201.24,814.07c0-5,4-7.42,8.5-7.42s8.53,2.3,8.53,7.42c0,5-4.14,7.37-8.53,7.37S201.24,819.05,201.24,814.07Zm15.46,0c0-3.85-3.21-5.71-7-5.71s-7,2-7,5.71,3.26,5.67,7,5.67S216.69,817.77,216.69,814.07Z"/><path id="_复合路径_5" data-name="&lt;复合路径&gt;" class="cls-7" d="M201.63,802h9.85c3.14,0,5.2-1.48,5.2-4.63,0-3-1.93-4.56-5.2-4.56h-9.85v-1.71h9.94c4.5,0,6.69,2.52,6.69,6.27s-2.21,6.33-6.69,6.33h-9.94Z"/><path id="_复合路径_6" data-name="&lt;复合路径&gt;" class="cls-7" d="M201.63,777.11h1.53v5.16h14.68V784H203.16v5.14h-1.53Z"/></g><g id="_编组_6" data-name="&lt;编组&gt;"><path id="_复合路径_7" data-name="&lt;复合路径&gt;" class="cls-7" d="M240.93,819.71l14-5v0l-14-5v-1.88l16.21,5.91v1.95l-16.21,5.87Z"/><path id="_复合路径_8" data-name="&lt;复合路径&gt;" class="cls-7" d="M240.53,799.36c0-3.68,2.06-5.69,4.23-6.42l.29,1.75a4.67,4.67,0,0,0-3,4.67c0,3.28,2.3,5.45,7,5.45,4.25,0,7-2.21,7-5.45a4.82,4.82,0,0,0-3.21-4.87l.27-1.68a6.42,6.42,0,0,1,4.52,6.55c0,4.69-3.79,7.15-8.55,7.15S240.53,804.43,240.53,799.36Z"/><path id="_复合路径_9" data-name="&lt;复合路径&gt;" class="cls-7" d="M240.53,783.57c0-3.68,2.06-5.69,4.23-6.42l.29,1.75a4.67,4.67,0,0,0-3,4.67c0,3.28,2.3,5.45,7,5.45,4.25,0,7-2.21,7-5.45a4.82,4.82,0,0,0-3.21-4.87L253,777a6.42,6.42,0,0,1,4.52,6.55c0,4.69-3.79,7.15-8.55,7.15S240.53,788.64,240.53,783.57Z"/></g><g id="_编组_7" data-name="&lt;编组&gt;"><path id="_复合路径_10" data-name="&lt;复合路径&gt;" class="cls-7" d="M280,815.79c0-4.1,2.35-5.6,4.47-6.51l.29,1.79a4.77,4.77,0,0,0-3.23,4.72c0,3.34,2.86,5.71,7,5.71,4.25,0,7-2.46,7-5.49a5.57,5.57,0,0,0-4.19-5.31h-1.75v4.94H288V809h8.64v1.55H293.3a6.14,6.14,0,0,1,3.74,5.69c0,3.61-3.08,7-8.55,7C283.43,823.21,280,820.17,280,815.79Z"/><path id="_复合路径_11" data-name="&lt;复合路径&gt;" class="cls-7" d="M280.42,803.45,293.88,794v0H280.42v-1.71h16.21V794l-13.46,9.43,0,0h13.49v1.73H280.42Z"/><path id="_复合路径_12" data-name="&lt;复合路径&gt;" class="cls-7" d="M280.42,782.53c0-5.29,4.19-7.17,8.08-7.17,4.65,0,8.13,2.3,8.13,7.48v5.58H280.42Zm14.68,4.16v-3.9c0-3.23-2.15-5.74-6.6-5.74-3.08,0-6.55,1.51-6.55,5.78v3.85Z"/></g><g id="_编组_8" data-name="&lt;编组&gt;"><rect id="_矩形_16" data-name="&lt;矩形&gt;" class="cls-11" x="61.53" y="758.46" width="17.32" height="43.57"/><rect id="_矩形_17" data-name="&lt;矩形&gt;" class="cls-12" x="61.83" y="764.69" width="16.71" height="29.78"/><polygon id="_路径_4" data-name="&lt;路径&gt;" class="cls-13" points="61.89 770.07 61.89 789.26 78.48 789.26 78.48 770.07 75.08 770.07 75.08 770.77 64.7 770.77 64.7 770.07 61.89 770.07"/></g><g id="_编组_9" data-name="&lt;编组&gt;"><rect id="_矩形_18" data-name="&lt;矩形&gt;" class="cls-11" x="186.69" y="427.72" width="17.32" height="43.57"/><rect id="_矩形_19" data-name="&lt;矩形&gt;" class="cls-12" x="186.99" y="433.95" width="16.71" height="29.78"/><polygon id="_路径_5" data-name="&lt;路径&gt;" class="cls-13" points="187.05 439.33 187.05 458.52 203.64 458.52 203.64 439.33 200.25 439.33 200.25 440.04 189.87 440.04 189.87 439.33 187.05 439.33"/></g><g id="_编组_10" data-name="&lt;编组&gt;"><rect id="_矩形_20" data-name="&lt;矩形&gt;" class="cls-11" x="220.22" y="427.72" width="17.32" height="43.57"/><rect id="_矩形_21" data-name="&lt;矩形&gt;" class="cls-12" x="220.52" y="433.95" width="16.71" height="29.78"/><polygon id="_路径_6" data-name="&lt;路径&gt;" class="cls-13" points="220.58 439.33 220.58 458.52 237.17 458.52 237.17 439.33 233.78 439.33 233.78 440.04 223.4 440.04 223.4 439.33 220.58 439.33"/></g><g id="_编组_11" data-name="&lt;编组&gt;"><rect id="_矩形_22" data-name="&lt;矩形&gt;" class="cls-11" x="61.53" y="811.79" width="17.32" height="13.51"/><rect id="_矩形_23" data-name="&lt;矩形&gt;" class="cls-11" x="61.53" y="838.7" width="17.32" height="13.51"/><g id="_编组_12" data-name="&lt;编组&gt;"><path id="_路径_7" data-name="&lt;路径&gt;" class="cls-14" d="M74.84,816.45a4.66,4.66,0,1,1-9.32,0H62.74v8.85H77.63v-8.85Z"/><path id="_路径_8" data-name="&lt;路径&gt;" class="cls-14" d="M65.52,847.55a4.66,4.66,0,1,1,9.32,0h2.79V838.7H62.74v8.85Z"/><rect id="_矩形_24" data-name="&lt;矩形&gt;" class="cls-15" x="63.57" y="822.21" width="13.24" height="19.47"/></g></g><g id="_编组_13" data-name="&lt;编组&gt;"><rect id="_矩形_25" data-name="&lt;矩形&gt;" class="cls-11" x="307.2" y="457.14" width="11.17" height="21.09" transform="translate(625.57 935.38) rotate(-180)"/><rect id="_矩形_26" data-name="&lt;矩形&gt;" class="cls-11" x="279.13" y="457.14" width="11.17" height="21.09" transform="translate(569.43 935.38) rotate(-180)"/><rect id="_矩形_27" data-name="&lt;矩形&gt;" class="cls-11" x="293.17" y="418.84" width="11.17" height="21.09" transform="translate(597.5 858.78) rotate(-180)"/><rect id="_矩形_28" data-name="&lt;矩形&gt;" class="cls-16" x="271.7" y="435.97" width="54.1" height="24.65" transform="translate(597.5 896.59) rotate(-180)"/><polyline id="_路径_9" data-name="&lt;路径&gt;" class="cls-17" points="326.46 447.55 326.46 435.22 318.41 435.22"/><polyline id="_路径_10" data-name="&lt;路径&gt;" class="cls-17" points="271.12 447.55 271.12 435.22 279.17 435.22"/><rect id="_矩形_29" data-name="&lt;矩形&gt;" class="cls-18" x="308.29" y="460.62" width="8.99" height="9.87" transform="translate(625.57 931.11) rotate(-180)"/><rect id="_矩形_30" data-name="&lt;矩形&gt;" class="cls-18" x="280.22" y="460.62" width="8.99" height="9.87" transform="translate(569.43 931.11) rotate(-180)"/><rect id="_矩形_31" data-name="&lt;矩形&gt;" class="cls-18" x="294.26" y="426.1" width="8.99" height="9.87" transform="translate(597.5 862.06) rotate(-180)"/><rect id="_矩形_32" data-name="&lt;矩形&gt;" class="cls-19" x="308.29" y="462.8" width="8.99" height="1.05" transform="translate(625.57 926.64) rotate(-180)"/><rect id="_矩形_33" data-name="&lt;矩形&gt;" class="cls-19" x="280.22" y="462.8" width="8.99" height="1.05" transform="translate(569.43 926.64) rotate(-180)"/><rect id="_矩形_34" data-name="&lt;矩形&gt;" class="cls-19" x="294.26" y="432.82" width="8.99" height="1.05" transform="translate(597.5 866.7) rotate(-180)"/></g><path id="_路径_11" data-name="&lt;路径&gt;" class="cls-20" d="M424.87,155v-.21H391.11V106a8.6,8.6,0,0,0-8.6-8.6H115.59A8.6,8.6,0,0,0,107,106v48.75H75.88v.07A79,79,0,0,0,79,312.7q2.9,0,5.75-.21H109.2a8.57,8.57,0,0,0,6.39,2.86H382.5a8.57,8.57,0,0,0,6.39-2.86h24.48q2.85.21,5.75.21A79,79,0,0,0,424.87,155Z"/><rect id="_矩形_35" data-name="&lt;矩形&gt;" class="cls-7" x="107.66" y="108.53" width="8.93" height="203.49"/><rect id="_矩形_36" data-name="&lt;矩形&gt;" class="cls-7" x="381.63" y="108.53" width="8.93" height="203.49"/><polygon id="_路径_12" data-name="&lt;路径&gt;" class="cls-21" points="47.09 260.38 30.55 231.72 47.09 203.07 80.18 203.07 96.73 231.72 80.18 260.38 47.09 260.38"/><polygon id="_路径_13" data-name="&lt;路径&gt;" class="cls-21" points="417.9 260.38 401.36 231.72 417.9 203.07 450.99 203.07 467.54 231.72 450.99 260.38 417.9 260.38"/><circle id="_路径_14" data-name="&lt;路径&gt;" class="cls-22" cx="63.64" cy="231.72" r="11.26"/><circle id="_路径_15" data-name="&lt;路径&gt;" class="cls-22" cx="434.45" cy="231.72" r="11.26"/><rect id="_矩形_37" data-name="&lt;矩形&gt;" class="cls-23" x="140.96" y="79.85" width="216.18" height="17.55"/><rect id="_矩形_38" data-name="&lt;矩形&gt;" class="cls-23" x="140.96" y="315.35" width="216.18" height="17.55" rx="5.8" ry="5.8"/><rect id="_矩形_39" data-name="&lt;矩形&gt;" class="cls-24" x="234.71" width="28.68" height="79.85"/><text></text></g></g></svg>