<svg xmlns="http://www.w3.org/2000/svg" viewBox="0 0 442.89 928.09"><defs><style>.cls-1{fill:#353535;}.cls-16,.cls-17,.cls-2,.cls-3{fill:none;}.cls-11,.cls-16,.cls-22,.cls-3,.cls-5{stroke:#fff;}.cls-11,.cls-15,.cls-16,.cls-17,.cls-22,.cls-3,.cls-34,.cls-35,.cls-5{stroke-miterlimit:10;}.cls-3{stroke-width:3.31px;}.cls-4{fill:#f2cb6b;}.cls-5{fill:#d0ab3c;stroke-width:1.99px;}.cls-6{fill:#f0c581;}.cls-7{fill:#fff;}.cls-8{fill:#f4cb70;}.cls-9{fill:#c6c5c5;}.cls-10{fill:#c8a266;}.cls-11{fill:#9b9b9b;}.cls-11,.cls-15,.cls-22,.cls-34,.cls-35{stroke-width:0.66px;}.cls-12{fill:#d2d3d3;}.cls-13{fill:#030000;}.cls-14{fill:#bb8c27;}.cls-15{fill:#ff4a5c;stroke:#681216;}.cls-16{stroke-width:3.12px;}.cls-17{stroke:#4c4c4c;stroke-width:11.49px;}.cls-18{fill:#3f3f3f;}.cls-19{fill:#d9b13b;}.cls-20{fill:#494949;}.cls-21{fill:#c3c2c2;}.cls-22,.cls-28{fill:#e1b737;}.cls-23{fill:#222;}.cls-24{fill:#d1d1d1;}.cls-25{fill:#a7a7a7;}.cls-26{fill:#efefef;}.cls-27{fill:#f7f7f7;}.cls-29{fill:#dadada;}.cls-30{fill:#f0f0f0;}.cls-31{fill:#a0a0a0;}.cls-32{fill:#ededed;}.cls-33{fill:#6d6d6d;}.cls-34{fill:#58b1f9;stroke:#122c4f;}.cls-35{fill:#f99f46;stroke:#ef973f;}.cls-36{fill:#aaa;}</style></defs><title>火焰传感器</title><g id="图层_2" data-name="图层 2"><g id="图层_1-2" data-name="图层 1"><path id="_复合路径_" data-name="&lt;复合路径&gt;" class="cls-1" d="M385,0h-327A57.92,57.92,0,0,0,0,57.92V870.17a57.92,57.92,0,0,0,57.92,57.92H385a57.92,57.92,0,0,0,57.92-57.92V57.92A57.92,57.92,0,0,0,385,0Zm13.12,549.87a6.37,6.37,0,1,1,0,9A6.37,6.37,0,0,1,398.09,549.87Zm-21.15-12.49a6.37,6.37,0,1,1-6.37,6.37A6.37,6.37,0,0,1,376.94,537.38Zm-30.15,12.49a6.37,6.37,0,1,1,0,9A6.37,6.37,0,0,1,346.79,549.87Zm-259.7,0a6.37,6.37,0,1,1,0,9A6.37,6.37,0,0,1,87.09,549.87ZM65.94,537.38a6.37,6.37,0,1,1-6.37,6.37A6.37,6.37,0,0,1,65.94,537.38ZM35.79,549.87a6.37,6.37,0,1,1,0,9A6.37,6.37,0,0,1,35.79,549.87ZM23.3,580a6.37,6.37,0,1,1,6.37,6.37A6.37,6.37,0,0,1,23.3,580Zm21.5,30.15a6.37,6.37,0,1,1,0-9A6.37,6.37,0,0,1,44.8,610.17Zm21.15,12.49a6.37,6.37,0,1,1,6.37-6.37A6.37,6.37,0,0,1,65.94,622.66Zm0-17A25.65,25.65,0,1,1,91.59,580,25.65,25.65,0,0,1,65.94,605.67Zm30.15,4.5a6.37,6.37,0,1,1,0-9A6.37,6.37,0,0,1,96.1,610.17Zm6.12-23.78a6.37,6.37,0,1,1,6.37-6.37A6.37,6.37,0,0,1,102.22,586.39ZM334.3,580a6.37,6.37,0,1,1,6.37,6.37A6.37,6.37,0,0,1,334.3,580Zm21.5,30.15a6.37,6.37,0,1,1,0-9A6.37,6.37,0,0,1,355.8,610.17Zm21.15,12.49a6.37,6.37,0,1,1,6.37-6.37A6.37,6.37,0,0,1,376.94,622.66Zm0-17A25.65,25.65,0,1,1,402.59,580,25.65,25.65,0,0,1,376.94,605.67Zm30.15,4.5a6.37,6.37,0,1,1,0-9A6.37,6.37,0,0,1,407.1,610.17Zm6.12-23.78a6.37,6.37,0,1,1,6.37-6.37A6.37,6.37,0,0,1,413.22,586.39Z"/><circle id="_路径_" data-name="&lt;路径&gt;" class="cls-2" cx="65.94" cy="580.02" r="24.19"/><circle id="_路径_2" data-name="&lt;路径&gt;" class="cls-3" cx="65.94" cy="580.02" r="48.21"/><circle id="_路径_3" data-name="&lt;路径&gt;" class="cls-3" cx="376.94" cy="580.02" r="48.21"/><path id="_复合路径_2" data-name="&lt;复合路径&gt;" class="cls-4" d="M376.94,531.66A48.37,48.37,0,1,0,425.31,580,48.42,48.42,0,0,0,376.94,531.66Zm21.15,18.21a6.37,6.37,0,1,1,0,9A6.37,6.37,0,0,1,398.09,549.87Zm-21.15-12.49a6.37,6.37,0,1,1-6.37,6.37A6.37,6.37,0,0,1,376.94,537.38Zm-30.15,12.49a6.37,6.37,0,1,1,0,9A6.37,6.37,0,0,1,346.79,549.87Zm-6.12,36.52A6.37,6.37,0,1,1,347,580,6.37,6.37,0,0,1,340.67,586.39Zm15.13,23.78a6.37,6.37,0,1,1,0-9A6.37,6.37,0,0,1,355.8,610.17Zm21.15,12.49a6.37,6.37,0,1,1,6.37-6.37A6.37,6.37,0,0,1,376.94,622.66Zm0-18.46A24.18,24.18,0,1,1,401.13,580,24.21,24.21,0,0,1,376.94,604.2Zm30.15,6a6.37,6.37,0,1,1,0-9A6.37,6.37,0,0,1,407.1,610.17Zm6.12-23.78a6.37,6.37,0,1,1,6.37-6.37A6.37,6.37,0,0,1,413.22,586.39Z"/><path id="_复合路径_3" data-name="&lt;复合路径&gt;" class="cls-4" d="M65.94,531.66A48.37,48.37,0,1,0,114.31,580,48.42,48.42,0,0,0,65.94,531.66Zm21.15,18.21a6.37,6.37,0,1,1,0,9A6.37,6.37,0,0,1,87.09,549.87ZM65.94,537.38a6.37,6.37,0,1,1-6.37,6.37A6.37,6.37,0,0,1,65.94,537.38ZM35.79,549.87a6.37,6.37,0,1,1,0,9A6.37,6.37,0,0,1,35.79,549.87Zm-6.12,36.52A6.37,6.37,0,1,1,36,580,6.37,6.37,0,0,1,29.67,586.39ZM44.8,610.17a6.37,6.37,0,1,1,0-9A6.37,6.37,0,0,1,44.8,610.17Zm21.15,12.49a6.37,6.37,0,1,1,6.37-6.37A6.37,6.37,0,0,1,65.94,622.66Zm0-18.46A24.18,24.18,0,1,1,90.13,580,24.21,24.21,0,0,1,65.94,604.2Zm30.15,6a6.37,6.37,0,1,1,0-9A6.37,6.37,0,0,1,96.1,610.17Zm6.12-23.78a6.37,6.37,0,1,1,6.37-6.37A6.37,6.37,0,0,1,102.22,586.39Z"/><g id="_编组_" data-name="&lt;编组&gt;"><g id="_编组_2" data-name="&lt;编组&gt;"><rect id="_矩形_" data-name="&lt;矩形&gt;" class="cls-5" x="172.7" y="762.05" width="18.53" height="56.47"/><rect id="_矩形_2" data-name="&lt;矩形&gt;" class="cls-6" x="176.83" y="767.06" width="10.26" height="52.94" rx="5.13" ry="5.13"/></g><g id="_编组_3" data-name="&lt;编组&gt;"><rect id="_矩形_3" data-name="&lt;矩形&gt;" class="cls-5" x="212.18" y="762.05" width="18.53" height="56.47"/><rect id="_矩形_4" data-name="&lt;矩形&gt;" class="cls-6" x="216.32" y="767.06" width="10.26" height="52.94" rx="5.13" ry="5.13"/></g><g id="_编组_4" data-name="&lt;编组&gt;"><rect id="_矩形_5" data-name="&lt;矩形&gt;" class="cls-5" x="251.67" y="762.05" width="18.53" height="56.47"/><rect id="_矩形_6" data-name="&lt;矩形&gt;" class="cls-6" x="255.8" y="767.06" width="10.26" height="52.94" rx="5.13" ry="5.13"/></g><rect id="_矩形_7" data-name="&lt;矩形&gt;" class="cls-7" x="124.83" y="809.75" width="193.24" height="114.27"/><rect id="_矩形_8" data-name="&lt;矩形&gt;" class="cls-8" x="176.83" y="831.15" width="10.26" height="71.47"/><rect id="_矩形_9" data-name="&lt;矩形&gt;" class="cls-8" x="255.8" y="831.15" width="10.26" height="71.47"/><rect id="_矩形_10" data-name="&lt;矩形&gt;" class="cls-9" x="124.83" y="777.32" width="18.53" height="32.43"/><rect id="_矩形_11" data-name="&lt;矩形&gt;" class="cls-9" x="299.53" y="777.32" width="18.53" height="32.43"/><rect id="_矩形_12" data-name="&lt;矩形&gt;" class="cls-9" x="159.24" y="924.01" width="124.41" height="4.08" rx="2.04" ry="2.04"/><rect id="_矩形_13" data-name="&lt;矩形&gt;" class="cls-10" x="176.83" y="790.14" width="10.26" height="6.78"/><rect id="_矩形_14" data-name="&lt;矩形&gt;" class="cls-10" x="216.32" y="790.14" width="10.26" height="6.78"/><rect id="_矩形_15" data-name="&lt;矩形&gt;" class="cls-10" x="255.8" y="790.14" width="10.26" height="6.78"/></g><path id="_复合路径_4" data-name="&lt;复合路径&gt;" class="cls-7" d="M213.48,745.32l14-5v0l-14-5v-1.88l16.21,5.91v1.95l-16.21,5.87Z"/><path id="_复合路径_5" data-name="&lt;复合路径&gt;" class="cls-7" d="M213.08,725c0-3.68,2.06-5.69,4.23-6.42l.29,1.75a4.67,4.67,0,0,0-3,4.67c0,3.28,2.3,5.45,7,5.45,4.25,0,7-2.21,7-5.45a4.82,4.82,0,0,0-3.21-4.87l.27-1.68a6.42,6.42,0,0,1,4.52,6.55c0,4.69-3.79,7.15-8.55,7.15S213.08,730,213.08,725Z"/><path id="_复合路径_6" data-name="&lt;复合路径&gt;" class="cls-7" d="M213.08,709.18c0-3.68,2.06-5.69,4.23-6.42l.29,1.75a4.67,4.67,0,0,0-3,4.67c0,3.28,2.3,5.45,7,5.45,4.25,0,7-2.21,7-5.45a4.82,4.82,0,0,0-3.21-4.87l.27-1.68a6.42,6.42,0,0,1,4.52,6.55c0,4.69-3.79,7.15-8.55,7.15S213.08,714.25,213.08,709.18Z"/><path id="_复合路径_7" data-name="&lt;复合路径&gt;" class="cls-7" d="M252.26,740.8c0-4.1,2.35-5.6,4.47-6.51l.29,1.79a4.77,4.77,0,0,0-3.23,4.72c0,3.34,2.86,5.71,7,5.71,4.25,0,7-2.46,7-5.49a5.57,5.57,0,0,0-4.19-5.31h-1.75v4.94h-1.55V734h8.64v1.55h-3.32a6.14,6.14,0,0,1,3.74,5.69c0,3.61-3.08,7-8.55,7C255.67,748.22,252.26,745.19,252.26,740.8Z"/><path id="_复合路径_8" data-name="&lt;复合路径&gt;" class="cls-7" d="M252.66,728.47,266.12,719v0H252.66v-1.71h16.21v1.79l-13.46,9.43,0,0h13.49v1.73H252.66Z"/><path id="_复合路径_9" data-name="&lt;复合路径&gt;" class="cls-7" d="M252.66,707.55c0-5.29,4.19-7.17,8.08-7.17,4.65,0,8.13,2.3,8.13,7.48v5.58H252.66Zm14.68,4.16v-3.9c0-3.23-2.15-5.74-6.6-5.74-3.08,0-6.55,1.51-6.55,5.78v3.85Z"/><rect id="_矩形_16" data-name="&lt;矩形&gt;" class="cls-11" x="41.76" y="684.07" width="17.32" height="43.57"/><rect id="_矩形_17" data-name="&lt;矩形&gt;" class="cls-12" x="42.07" y="690.3" width="16.71" height="29.78"/><polygon id="_路径_4" data-name="&lt;路径&gt;" class="cls-13" points="42.13 695.68 42.13 714.87 58.71 714.87 58.71 695.68 55.32 695.68 55.32 696.38 44.94 696.38 44.94 695.68 42.13 695.68"/><rect id="_矩形_18" data-name="&lt;矩形&gt;" class="cls-11" x="41.76" y="737.4" width="17.32" height="13.51"/><rect id="_矩形_19" data-name="&lt;矩形&gt;" class="cls-11" x="41.76" y="764.31" width="17.32" height="13.51"/><path id="_路径_5" data-name="&lt;路径&gt;" class="cls-14" d="M55.08,742.06a4.66,4.66,0,1,1-9.32,0H43v8.85H57.86v-8.85Z"/><path id="_路径_6" data-name="&lt;路径&gt;" class="cls-14" d="M45.76,773.16a4.66,4.66,0,1,1,9.32,0h2.79v-8.85H43v8.85Z"/><rect id="_矩形_20" data-name="&lt;矩形&gt;" class="cls-15" x="43.8" y="747.82" width="13.24" height="19.47"/><path id="_路径_7" data-name="&lt;路径&gt;" class="cls-16" d="M269.46,268.45a54.1,54.1,0,1,0-96,0Z"/><rect id="_矩形_21" data-name="&lt;矩形&gt;" x="159.9" y="161.22" width="123.09" height="31.32"/><path id="_路径_8" data-name="&lt;路径&gt;" d="M221.45,25.8a46.52,46.52,0,0,0-46.52,46.52v88.9h93V72.33A46.52,46.52,0,0,0,221.45,25.8Z"/><path id="_路径_9" data-name="&lt;路径&gt;" class="cls-17" d="M221.45,45.86a32.67,32.67,0,0,0-11.83,2.2"/><path id="_路径_10" data-name="&lt;路径&gt;" class="cls-17" d="M254.19,141.17V78.6A32.76,32.76,0,0,0,229.89,47"/><rect id="_矩形_22" data-name="&lt;矩形&gt;" class="cls-18" x="174.92" y="157.25" width="93.04" height="3.97"/><rect id="_矩形_23" data-name="&lt;矩形&gt;" class="cls-19" x="226.96" y="228.94" width="29.12" height="29.56"/><circle id="_路径_11" data-name="&lt;路径&gt;" class="cls-20" cx="241.52" cy="243.72" r="7.5"/><circle id="_路径_12" data-name="&lt;路径&gt;" class="cls-19" cx="201.37" cy="243.72" r="14.78"/><circle id="_路径_13" data-name="&lt;路径&gt;" class="cls-20" cx="201.37" cy="243.72" r="7.5"/><rect id="_矩形_24" data-name="&lt;矩形&gt;" class="cls-21" x="197.51" y="192.55" width="7.72" height="49.19"/><rect id="_矩形_25" data-name="&lt;矩形&gt;" class="cls-21" x="237.66" y="192.55" width="7.72" height="49.19"/><path id="_复合路径_10" data-name="&lt;复合路径&gt;" class="cls-7" d="M294.6,248.32v-6.58h1.92v6.58H303v1.81h-6.53v6.64H294.6v-6.64h-6.47v-1.81Z"/><path id="_复合路径_11" data-name="&lt;复合路径&gt;" class="cls-7" d="M151.53,248.36v1.78h-9.11v-1.78Z"/><rect id="_矩形_26" data-name="&lt;矩形&gt;" class="cls-22" x="183.5" y="291.06" width="12.24" height="135.99" rx="6.12" ry="6.12"/><rect id="_矩形_27" data-name="&lt;矩形&gt;" class="cls-22" x="205.34" y="291.06" width="12.24" height="135.99" rx="6.12" ry="6.12"/><rect id="_矩形_28" data-name="&lt;矩形&gt;" class="cls-22" x="227.18" y="291.06" width="12.24" height="135.99" rx="6.12" ry="6.12"/><rect id="_矩形_29" data-name="&lt;矩形&gt;" class="cls-22" x="249.02" y="291.06" width="12.24" height="135.99" rx="6.12" ry="6.12"/><rect id="_矩形_30" data-name="&lt;矩形&gt;" class="cls-23" x="175.78" y="321.06" width="91.32" height="72.35"/><rect id="_矩形_31" data-name="&lt;矩形&gt;" class="cls-24" x="185.66" y="301.64" width="7.94" height="19.41"/><rect id="_矩形_32" data-name="&lt;矩形&gt;" class="cls-25" x="185.66" y="308.51" width="7.94" height="7.53"/><rect id="_矩形_33" data-name="&lt;矩形&gt;" class="cls-24" x="207.49" y="301.64" width="7.94" height="19.41"/><rect id="_矩形_34" data-name="&lt;矩形&gt;" class="cls-25" x="207.49" y="308.51" width="7.94" height="7.53"/><rect id="_矩形_35" data-name="&lt;矩形&gt;" class="cls-24" x="229.33" y="301.64" width="7.94" height="19.41"/><rect id="_矩形_36" data-name="&lt;矩形&gt;" class="cls-25" x="229.33" y="308.51" width="7.94" height="7.53"/><rect id="_矩形_37" data-name="&lt;矩形&gt;" class="cls-24" x="251.17" y="301.64" width="7.94" height="19.41"/><rect id="_矩形_38" data-name="&lt;矩形&gt;" class="cls-25" x="251.17" y="308.51" width="7.94" height="7.53"/><rect id="_矩形_39" data-name="&lt;矩形&gt;" class="cls-24" x="251.17" y="393.41" width="7.94" height="19.41" transform="translate(510.28 806.23) rotate(-180)"/><rect id="_矩形_40" data-name="&lt;矩形&gt;" class="cls-25" x="251.17" y="398.43" width="7.94" height="7.53" transform="translate(510.28 804.38) rotate(-180)"/><rect id="_矩形_41" data-name="&lt;矩形&gt;" class="cls-24" x="229.33" y="393.41" width="7.94" height="19.41" transform="translate(466.6 806.23) rotate(-180)"/><rect id="_矩形_42" data-name="&lt;矩形&gt;" class="cls-25" x="229.33" y="398.43" width="7.94" height="7.53" transform="translate(466.6 804.38) rotate(-180)"/><rect id="_矩形_43" data-name="&lt;矩形&gt;" class="cls-24" x="207.49" y="393.41" width="7.94" height="19.41" transform="translate(422.93 806.23) rotate(-180)"/><rect id="_矩形_44" data-name="&lt;矩形&gt;" class="cls-25" x="207.49" y="398.43" width="7.94" height="7.53" transform="translate(422.93 804.38) rotate(-180)"/><rect id="_矩形_45" data-name="&lt;矩形&gt;" class="cls-24" x="185.66" y="393.41" width="7.94" height="19.41" transform="translate(379.25 806.23) rotate(-180)"/><rect id="_矩形_46" data-name="&lt;矩形&gt;" class="cls-25" x="185.66" y="398.43" width="7.94" height="7.53" transform="translate(379.25 804.38) rotate(-180)"/><rect id="_矩形_47" data-name="&lt;矩形&gt;" class="cls-26" x="174.24" y="336.17" width="1.54" height="42.13" rx="0.77" ry="0.77"/><rect id="_矩形_48" data-name="&lt;矩形&gt;" class="cls-26" x="267.11" y="336.17" width="1.54" height="42.13" rx="0.77" ry="0.77"/><rect id="_矩形_49" data-name="&lt;矩形&gt;" class="cls-27" x="176.74" y="543" width="89.42" height="89.42" rx="5.41" ry="5.41"/><rect id="_矩形_50" data-name="&lt;矩形&gt;" class="cls-28" x="202.48" y="528.7" width="37.94" height="17.21"/><rect id="_矩形_51" data-name="&lt;矩形&gt;" class="cls-23" x="178.43" y="544.15" width="86.03" height="87.13" rx="3.86" ry="3.86"/><circle id="_路径_14" data-name="&lt;路径&gt;" class="cls-7" cx="221.45" cy="587.71" r="23.93"/><rect id="_矩形_52" data-name="&lt;矩形&gt;" class="cls-28" x="188.74" y="631.28" width="24.15" height="14.56"/><rect id="_矩形_53" data-name="&lt;矩形&gt;" class="cls-28" x="229.99" y="631.28" width="24.15" height="14.56"/><polygon id="_路径_15" data-name="&lt;路径&gt;" class="cls-7" points="216.93 559.26 221.45 551.44 225.96 559.26 216.93 559.26"/><polygon id="_路径_16" data-name="&lt;路径&gt;" class="cls-7" points="192.99 592.22 185.18 587.71 192.99 583.2 192.99 592.22"/><polygon id="_路径_17" data-name="&lt;路径&gt;" class="cls-7" points="249.9 583.2 257.72 587.71 249.9 592.22 249.9 583.2"/><polygon id="_路径_18" data-name="&lt;路径&gt;" class="cls-7" points="238.38 564.4 247.09 562.07 244.76 570.78 238.38 564.4"/><rect id="_矩形_54" data-name="&lt;矩形&gt;" class="cls-27" x="190.85" y="631.28" width="19.94" height="1.82" rx="0.8" ry="0.8"/><rect id="_矩形_55" data-name="&lt;矩形&gt;" class="cls-27" x="204.81" y="542.77" width="33.33" height="1.41" rx="0.7" ry="0.7"/><rect id="_矩形_56" data-name="&lt;矩形&gt;" class="cls-27" x="232.1" y="631.28" width="19.94" height="1.82" rx="0.8" ry="0.8"/><rect id="_矩形_57" data-name="&lt;矩形&gt;" class="cls-22" x="357.29" y="694.85" width="13.9" height="20.35"/><rect id="_矩形_58" data-name="&lt;矩形&gt;" class="cls-22" x="397.66" y="694.85" width="13.9" height="20.35"/><rect id="_矩形_59" data-name="&lt;矩形&gt;" class="cls-22" x="357.29" y="839.45" width="13.9" height="20.35"/><rect id="_矩形_60" data-name="&lt;矩形&gt;" class="cls-22" x="397.66" y="839.45" width="13.9" height="20.35"/><rect id="_矩形_61" data-name="&lt;矩形&gt;" class="cls-22" x="332.92" y="723.75" width="27.79" height="15.66"/><rect id="_矩形_62" data-name="&lt;矩形&gt;" class="cls-22" x="332.92" y="755.51" width="27.79" height="15.66"/><rect id="_矩形_63" data-name="&lt;矩形&gt;" class="cls-22" x="332.92" y="806.91" width="27.79" height="15.66"/><rect id="_矩形_64" data-name="&lt;矩形&gt;" class="cls-29" x="341.29" y="814.74" width="15.99" height="7.83"/><rect id="_矩形_65" data-name="&lt;矩形&gt;" class="cls-30" x="357.29" y="714.04" width="54.27" height="125.41"/><rect id="_矩形_66" data-name="&lt;矩形&gt;" class="cls-31" x="411.55" y="743.38" width="27.57" height="24.26"/><rect id="_矩形_67" data-name="&lt;矩形&gt;" class="cls-29" x="341.29" y="730.14" width="15.99" height="7.83"/><rect id="_矩形_68" data-name="&lt;矩形&gt;" class="cls-29" x="341.29" y="755.51" width="15.99" height="7.83"/><rect id="_矩形_69" data-name="&lt;矩形&gt;" class="cls-32" x="371.18" y="859.11" width="26.47" height="27.85" transform="translate(1257.45 488.61) rotate(90)"/><g id="_编组_5" data-name="&lt;编组&gt;"><path id="_复合路径_12" data-name="&lt;复合路径&gt;" d="M392.69,881.38h-.47a2.49,2.49,0,0,0-.45-1.8,2.85,2.85,0,0,0-1.8-.4H378.88a2.9,2.9,0,0,0-1.84.39,2.65,2.65,0,0,0-.41,1.81h-.47v-6.74a11.38,11.38,0,0,1,2-7.22,7.52,7.52,0,0,1,6.27-2.75,7.77,7.77,0,0,1,5.34,1.92q2.87,2.55,2.87,7.69Zm-14.63-4.74h12.68a.93.93,0,0,0,.82-.3,2.4,2.4,0,0,0,.2-1.2,12.17,12.17,0,0,0-.25-2.7,6.32,6.32,0,0,0-1.9-3.4,7.36,7.36,0,0,0-5.12-1.65,8.94,8.94,0,0,0-3.13.52,6.3,6.3,0,0,0-2.53,1.8,6,6,0,0,0-1.27,2.12,11.51,11.51,0,0,0-.47,3.62,1.32,1.32,0,0,0,.3,1A1.09,1.09,0,0,0,378.05,876.64Z"/></g><rect id="_矩形_70" data-name="&lt;矩形&gt;" class="cls-32" x="371.18" y="667.69" width="26.47" height="27.85" transform="translate(1066.03 297.19) rotate(90)"/><g id="_编组_6" data-name="&lt;编组&gt;"><path id="_复合路径_13" data-name="&lt;复合路径&gt;" d="M392.36,673h.47v6.37h-.47a4,4,0,0,0-.13-1.22.8.8,0,0,0-.83-.52,2.32,2.32,0,0,0-.6.11q-.38.11-1,.35l-2.39,1v6.55l2.92,1.13a2.59,2.59,0,0,0,.95.21.92.92,0,0,0,.92-.65,3.18,3.18,0,0,0,.12-1h.47v4.94h-.47a1.59,1.59,0,0,0-.15-.74,2.2,2.2,0,0,0-.4-.54,7,7,0,0,0-1.6-.95q-.62-.3-1.95-.87L376,682v-.5l14.18-6.22a6.79,6.79,0,0,0,1.79-1A1.69,1.69,0,0,0,392.36,673Zm-5.94,12.24v-5.77l-6.86,2.9Z"/></g><rect id="_矩形_71" data-name="&lt;矩形&gt;" class="cls-33" x="411.55" y="743.38" width="2.23" height="24.26"/><path id="_复合路径_14" data-name="&lt;复合路径&gt;" class="cls-7" d="M173.42,740.85c0-5,4-7.42,8.5-7.42s8.53,2.3,8.53,7.42c0,5-4.14,7.37-8.53,7.37S173.42,745.83,173.42,740.85Zm15.46,0c0-3.85-3.21-5.71-7-5.71s-7,2-7,5.71,3.26,5.67,7,5.67S188.88,744.55,188.88,740.85Z"/><path id="_复合路径_15" data-name="&lt;复合路径&gt;" class="cls-7" d="M173.82,728.78h9.85c3.14,0,5.2-1.48,5.2-4.63,0-3-1.93-4.56-5.2-4.56h-9.85v-1.71h9.94c4.5,0,6.69,2.52,6.69,6.27s-2.21,6.33-6.69,6.33h-9.94Z"/><path id="_复合路径_16" data-name="&lt;复合路径&gt;" class="cls-7" d="M173.82,703.89h1.53v5.16H190v1.71H175.35v5.14h-1.53Z"/><rect id="_矩形_72" data-name="&lt;矩形&gt;" class="cls-11" x="67.3" y="683.61" width="17.32" height="43.57"/><rect id="_矩形_73" data-name="&lt;矩形&gt;" class="cls-12" x="67.6" y="689.84" width="16.71" height="29.78"/><polygon id="_路径_19" data-name="&lt;路径&gt;" class="cls-13" points="67.66 695.22 67.66 714.41 84.25 714.41 84.25 695.22 80.86 695.22 80.86 695.92 70.47 695.92 70.47 695.22 67.66 695.22"/><rect id="_矩形_74" data-name="&lt;矩形&gt;" class="cls-11" x="67.3" y="736.94" width="17.32" height="13.51"/><rect id="_矩形_75" data-name="&lt;矩形&gt;" class="cls-11" x="67.3" y="763.85" width="17.32" height="13.51"/><path id="_路径_20" data-name="&lt;路径&gt;" class="cls-14" d="M80.61,741.6a4.66,4.66,0,1,1-9.32,0H68.51v8.85H83.4V741.6Z"/><path id="_路径_21" data-name="&lt;路径&gt;" class="cls-14" d="M71.29,772.7a4.66,4.66,0,1,1,9.32,0H83.4v-8.85H68.51v8.85Z"/><rect id="_矩形_76" data-name="&lt;矩形&gt;" class="cls-34" x="69.34" y="747.36" width="13.24" height="19.47"/><rect id="_矩形_77" data-name="&lt;矩形&gt;" class="cls-11" x="157.79" y="480.35" width="17.32" height="13.51" transform="translate(332.9 974.21) rotate(180)"/><rect id="_矩形_78" data-name="&lt;矩形&gt;" class="cls-11" x="157.79" y="453.44" width="17.32" height="13.51" transform="translate(332.9 920.39) rotate(180)"/><g id="_编组_7" data-name="&lt;编组&gt;"><rect id="_矩形_79" data-name="&lt;矩形&gt;" class="cls-35" x="159.83" y="463.97" width="13.24" height="19.47" transform="translate(332.9 947.41) rotate(180)"/></g><rect id="_矩形_80" data-name="&lt;矩形&gt;" class="cls-36" x="164.11" y="455.81" width="4.74" height="14.67" transform="translate(629.63 296.67) rotate(90)"/><rect id="_矩形_81" data-name="&lt;矩形&gt;" class="cls-36" x="164.11" y="476.88" width="4.74" height="14.67" transform="translate(650.69 317.74) rotate(90)"/><rect id="_矩形_82" data-name="&lt;矩形&gt;" class="cls-11" x="185.44" y="451.92" width="17.32" height="43.57" transform="translate(388.2 947.41) rotate(180)"/><rect id="_矩形_83" data-name="&lt;矩形&gt;" class="cls-12" x="185.75" y="459.48" width="16.71" height="29.78" transform="translate(388.2 948.73) rotate(180)"/><polygon id="_路径_22" data-name="&lt;路径&gt;" class="cls-13" points="202.4 483.88 202.4 464.69 185.81 464.69 185.81 483.88 189.2 483.88 189.2 483.18 199.58 483.18 199.58 483.88 202.4 483.88"/><rect id="_矩形_84" data-name="&lt;矩形&gt;" class="cls-11" x="130.04" y="451.92" width="17.32" height="43.57" transform="translate(277.4 947.41) rotate(180)"/><rect id="_矩形_85" data-name="&lt;矩形&gt;" class="cls-12" x="130.35" y="459.48" width="16.71" height="29.78" transform="translate(277.4 948.73) rotate(180)"/><polygon id="_路径_23" data-name="&lt;路径&gt;" class="cls-13" points="147 483.88 147 464.69 130.41 464.69 130.41 483.88 133.8 483.88 133.8 483.18 144.18 483.18 144.18 483.88 147 483.88"/><rect id="_矩形_86" data-name="&lt;矩形&gt;" class="cls-11" x="265.89" y="480.35" width="17.32" height="13.51" transform="translate(549.09 974.21) rotate(180)"/><rect id="_矩形_87" data-name="&lt;矩形&gt;" class="cls-11" x="265.89" y="453.44" width="17.32" height="13.51" transform="translate(549.09 920.39) rotate(180)"/><g id="_编组_8" data-name="&lt;编组&gt;"><rect id="_矩形_88" data-name="&lt;矩形&gt;" class="cls-35" x="267.93" y="463.97" width="13.24" height="19.47" transform="translate(549.09 947.41) rotate(180)"/></g><rect id="_矩形_89" data-name="&lt;矩形&gt;" class="cls-36" x="272.2" y="455.81" width="4.74" height="14.67" transform="translate(737.72 188.57) rotate(90)"/><rect id="_矩形_90" data-name="&lt;矩形&gt;" class="cls-36" x="272.2" y="476.88" width="4.74" height="14.67" transform="translate(758.79 209.64) rotate(90)"/><rect id="_矩形_91" data-name="&lt;矩形&gt;" class="cls-11" x="293.54" y="451.92" width="17.32" height="43.57" transform="translate(604.39 947.41) rotate(180)"/><rect id="_矩形_92" data-name="&lt;矩形&gt;" class="cls-12" x="293.84" y="459.48" width="16.71" height="29.78" transform="translate(604.39 948.73) rotate(180)"/><polygon id="_路径_24" data-name="&lt;路径&gt;" class="cls-13" points="310.49 483.88 310.49 464.69 293.9 464.69 293.9 483.88 297.3 483.88 297.3 483.18 307.68 483.18 307.68 483.88 310.49 483.88"/><rect id="_矩形_93" data-name="&lt;矩形&gt;" class="cls-11" x="238.14" y="451.92" width="17.32" height="43.57" transform="translate(493.59 947.41) rotate(180)"/><rect id="_矩形_94" data-name="&lt;矩形&gt;" class="cls-12" x="238.44" y="459.48" width="16.71" height="29.78" transform="translate(493.59 948.73) rotate(180)"/><polygon id="_路径_25" data-name="&lt;路径&gt;" class="cls-13" points="255.09 483.88 255.09 464.69 238.5 464.69 238.5 483.88 241.9 483.88 241.9 483.18 252.28 483.18 252.28 483.88 255.09 483.88"/></g></g></svg>