<svg xmlns="http://www.w3.org/2000/svg" viewBox="0 0 443.55 928.09"><defs><style>.cls-1{fill:#353535;}.cls-18,.cls-2,.cls-21,.cls-37,.cls-40{fill:none;}.cls-10,.cls-18,.cls-2,.cls-27,.cls-34,.cls-4,.cls-40{stroke:#fff;}.cls-10,.cls-14,.cls-15,.cls-17,.cls-18,.cls-2,.cls-22,.cls-27,.cls-32,.cls-34,.cls-37,.cls-4,.cls-40{stroke-miterlimit:10;}.cls-2{stroke-width:3.31px;}.cls-3{fill:#f2cb6b;}.cls-4{fill:#d0ab3c;stroke-width:1.99px;}.cls-5{fill:#f0c581;}.cls-6{fill:#c8a266;}.cls-7{fill:#fff;}.cls-8{fill:#f4cb70;}.cls-9{fill:#c6c5c5;}.cls-10,.cls-34{fill:#9b9b9b;}.cls-10,.cls-14,.cls-15,.cls-17,.cls-18,.cls-22,.cls-27{stroke-width:0.66px;}.cls-11{fill:#d2d3d3;}.cls-12{fill:#030000;}.cls-13{fill:#bb8c27;}.cls-14{fill:#ff4a5c;stroke:#681216;}.cls-15{fill:#f99f46;stroke:#ef973f;}.cls-16{fill:#aaa;}.cls-17{fill:#514f50;stroke:#494646;}.cls-19{fill:#c7c6c6;}.cls-20{fill:#a6a6a6;}.cls-22{fill:#58b1f9;stroke:#122c4f;}.cls-23{fill:#056f9e;}.cls-24{fill:#e1b838;}.cls-25{fill:#3f3f3f;}.cls-26{fill:#efefef;}.cls-27{fill:#e1b737;}.cls-28{fill:#dadada;}.cls-29{fill:#f0f0f0;}.cls-30{fill:#a0a0a0;}.cls-31{fill:#727171;}.cls-32{fill:#faf1e7;stroke:#f8b62d;}.cls-33{fill:#a09d80;}.cls-34{stroke-width:0.42px;}.cls-35{fill:#c4c8c8;}.cls-36{fill:#12071d;}.cls-37{stroke:#c8ac6e;stroke-width:10px;}.cls-38{fill:#bc914d;}.cls-39{fill:#080808;}</style></defs><title>资源 122</title><g id="图层_2" data-name="图层 2"><g id="图层_1-2" data-name="图层 1"><path id="_复合路径_" data-name="&lt;复合路径&gt;" class="cls-1" d="M385,0h-327A57.92,57.92,0,0,0,0,57.92V870.17a57.92,57.92,0,0,0,57.92,57.92H385a57.92,57.92,0,0,0,57.92-57.92V57.92A57.92,57.92,0,0,0,385,0Zm13.12,549.87a6.37,6.37,0,1,1,0,9A6.37,6.37,0,0,1,398.09,549.87Zm-21.15-12.49a6.37,6.37,0,1,1-6.37,6.37A6.37,6.37,0,0,1,376.94,537.38Zm-30.15,12.49a6.37,6.37,0,1,1,0,9A6.37,6.37,0,0,1,346.79,549.87Zm-259.7,0a6.37,6.37,0,1,1,0,9A6.37,6.37,0,0,1,87.09,549.87ZM65.94,537.38a6.37,6.37,0,1,1-6.37,6.37A6.37,6.37,0,0,1,65.94,537.38ZM35.79,549.87a6.37,6.37,0,1,1,0,9A6.37,6.37,0,0,1,35.79,549.87ZM23.3,580a6.37,6.37,0,1,1,6.37,6.37A6.37,6.37,0,0,1,23.3,580Zm21.5,30.15a6.37,6.37,0,1,1,0-9A6.37,6.37,0,0,1,44.8,610.17Zm21.15,12.49a6.37,6.37,0,1,1,6.37-6.37A6.37,6.37,0,0,1,65.94,622.66Zm0-17A25.65,25.65,0,1,1,91.59,580,25.65,25.65,0,0,1,65.94,605.67Zm30.15,4.5a6.37,6.37,0,1,1,0-9A6.37,6.37,0,0,1,96.1,610.17Zm6.12-23.78a6.37,6.37,0,1,1,6.37-6.37A6.37,6.37,0,0,1,102.22,586.39ZM334.3,580a6.37,6.37,0,1,1,6.37,6.37A6.37,6.37,0,0,1,334.3,580Zm21.5,30.15a6.37,6.37,0,1,1,0-9A6.37,6.37,0,0,1,355.8,610.17Zm21.15,12.49a6.37,6.37,0,1,1,6.37-6.37A6.37,6.37,0,0,1,376.94,622.66Zm0-17A25.65,25.65,0,1,1,402.59,580,25.65,25.65,0,0,1,376.94,605.67Zm30.15,4.5a6.37,6.37,0,1,1,0-9A6.37,6.37,0,0,1,407.1,610.17Zm6.12-23.78a6.37,6.37,0,1,1,6.37-6.37A6.37,6.37,0,0,1,413.22,586.39Z"/><circle id="_路径_" data-name="&lt;路径&gt;" class="cls-2" cx="65.94" cy="580.02" r="48.21"/><circle id="_路径_2" data-name="&lt;路径&gt;" class="cls-2" cx="376.94" cy="580.02" r="48.21"/><path id="_复合路径_2" data-name="&lt;复合路径&gt;" class="cls-3" d="M376.94,531.66A48.37,48.37,0,1,0,425.31,580,48.42,48.42,0,0,0,376.94,531.66Zm21.15,18.21a6.37,6.37,0,1,1,0,9A6.37,6.37,0,0,1,398.09,549.87Zm-21.15-12.49a6.37,6.37,0,1,1-6.37,6.37A6.37,6.37,0,0,1,376.94,537.38Zm-30.15,12.49a6.37,6.37,0,1,1,0,9A6.37,6.37,0,0,1,346.79,549.87Zm-6.12,36.52A6.37,6.37,0,1,1,347,580,6.37,6.37,0,0,1,340.67,586.39Zm15.13,23.78a6.37,6.37,0,1,1,0-9A6.37,6.37,0,0,1,355.8,610.17Zm21.15,12.49a6.37,6.37,0,1,1,6.37-6.37A6.37,6.37,0,0,1,376.94,622.66Zm0-18.46A24.18,24.18,0,1,1,401.13,580,24.21,24.21,0,0,1,376.94,604.2Zm30.15,6a6.37,6.37,0,1,1,0-9A6.37,6.37,0,0,1,407.1,610.17Zm6.12-23.78a6.37,6.37,0,1,1,6.37-6.37A6.37,6.37,0,0,1,413.22,586.39Z"/><path id="_复合路径_3" data-name="&lt;复合路径&gt;" class="cls-3" d="M65.94,531.66A48.37,48.37,0,1,0,114.31,580,48.42,48.42,0,0,0,65.94,531.66Zm21.15,18.21a6.37,6.37,0,1,1,0,9A6.37,6.37,0,0,1,87.09,549.87ZM65.94,537.38a6.37,6.37,0,1,1-6.37,6.37A6.37,6.37,0,0,1,65.94,537.38ZM35.79,549.87a6.37,6.37,0,1,1,0,9A6.37,6.37,0,0,1,35.79,549.87Zm-6.12,36.52A6.37,6.37,0,1,1,36,580,6.37,6.37,0,0,1,29.67,586.39ZM44.8,610.17a6.37,6.37,0,1,1,0-9A6.37,6.37,0,0,1,44.8,610.17Zm21.15,12.49a6.37,6.37,0,1,1,6.37-6.37A6.37,6.37,0,0,1,65.94,622.66Zm0-18.46A24.18,24.18,0,1,1,90.13,580,24.21,24.21,0,0,1,65.94,604.2Zm30.15,6a6.37,6.37,0,1,1,0-9A6.37,6.37,0,0,1,96.1,610.17Zm6.12-23.78a6.37,6.37,0,1,1,6.37-6.37A6.37,6.37,0,0,1,102.22,586.39Z"/><g id="_编组_" data-name="&lt;编组&gt;"><g id="_编组_2" data-name="&lt;编组&gt;"><g id="_编组_3" data-name="&lt;编组&gt;"><rect id="_矩形_" data-name="&lt;矩形&gt;" class="cls-4" x="160.45" y="762.05" width="18.53" height="56.47"/><rect id="_矩形_2" data-name="&lt;矩形&gt;" class="cls-5" x="164.59" y="767.06" width="10.26" height="52.94" rx="5.13" ry="5.13"/></g><rect id="_矩形_3" data-name="&lt;矩形&gt;" class="cls-6" x="164.59" y="790.14" width="10.26" height="6.78"/></g><g id="_编组_4" data-name="&lt;编组&gt;"><g id="_编组_5" data-name="&lt;编组&gt;"><rect id="_矩形_4" data-name="&lt;矩形&gt;" class="cls-4" x="196.06" y="762.05" width="18.53" height="56.47"/><rect id="_矩形_5" data-name="&lt;矩形&gt;" class="cls-5" x="200.2" y="767.06" width="10.26" height="52.94" rx="5.13" ry="5.13"/></g><rect id="_矩形_6" data-name="&lt;矩形&gt;" class="cls-6" x="200.2" y="790.14" width="10.26" height="6.78"/></g><g id="_编组_6" data-name="&lt;编组&gt;"><g id="_编组_7" data-name="&lt;编组&gt;"><rect id="_矩形_7" data-name="&lt;矩形&gt;" class="cls-4" x="231.67" y="762.05" width="18.53" height="56.47"/><rect id="_矩形_8" data-name="&lt;矩形&gt;" class="cls-5" x="235.8" y="767.06" width="10.26" height="52.94" rx="5.13" ry="5.13"/></g><rect id="_矩形_9" data-name="&lt;矩形&gt;" class="cls-6" x="235.8" y="790.14" width="10.26" height="6.78"/></g><g id="_编组_8" data-name="&lt;编组&gt;"><g id="_编组_9" data-name="&lt;编组&gt;"><rect id="_矩形_10" data-name="&lt;矩形&gt;" class="cls-4" x="267.27" y="762.05" width="18.53" height="56.47"/><rect id="_矩形_11" data-name="&lt;矩形&gt;" class="cls-5" x="271.41" y="767.06" width="10.26" height="52.94" rx="5.13" ry="5.13"/></g><rect id="_矩形_12" data-name="&lt;矩形&gt;" class="cls-6" x="271.41" y="790.14" width="10.26" height="6.78"/></g><rect id="_矩形_13" data-name="&lt;矩形&gt;" class="cls-7" x="112.59" y="809.75" width="217.72" height="114.27"/><g id="_编组_10" data-name="&lt;编组&gt;"><rect id="_矩形_14" data-name="&lt;矩形&gt;" class="cls-8" x="162.91" y="831.15" width="10.26" height="71.47"/><rect id="_矩形_15" data-name="&lt;矩形&gt;" class="cls-8" x="269.73" y="832.8" width="10.26" height="71.47"/></g><rect id="_矩形_16" data-name="&lt;矩形&gt;" class="cls-9" x="112.59" y="777.32" width="18.53" height="32.43"/><rect id="_矩形_17" data-name="&lt;矩形&gt;" class="cls-9" x="311.78" y="777.32" width="18.53" height="32.43"/><rect id="_矩形_18" data-name="&lt;矩形&gt;" class="cls-9" x="159.24" y="924.01" width="124.41" height="4.08" rx="2.04" ry="2.04"/></g><g id="_编组_11" data-name="&lt;编组&gt;"><path id="_复合路径_4" data-name="&lt;复合路径&gt;" class="cls-7" d="M161.49,746.89l14-5v0l-14-5V735l16.21,5.91v1.95l-16.21,5.87Z"/><path id="_复合路径_5" data-name="&lt;复合路径&gt;" class="cls-7" d="M161.09,726.54c0-3.68,2.06-5.69,4.23-6.42l.29,1.75a4.67,4.67,0,0,0-3,4.67c0,3.28,2.3,5.45,7,5.45,4.25,0,7-2.21,7-5.45a4.82,4.82,0,0,0-3.21-4.87l.27-1.68a6.42,6.42,0,0,1,4.52,6.55c0,4.69-3.79,7.15-8.55,7.15S161.09,731.61,161.09,726.54Z"/><path id="_复合路径_6" data-name="&lt;复合路径&gt;" class="cls-7" d="M161.09,710.75c0-3.68,2.06-5.69,4.23-6.42l.29,1.75a4.67,4.67,0,0,0-3,4.67c0,3.28,2.3,5.45,7,5.45,4.25,0,7-2.21,7-5.45a4.82,4.82,0,0,0-3.21-4.87l.27-1.68a6.42,6.42,0,0,1,4.52,6.55c0,4.69-3.79,7.15-8.55,7.15S161.09,715.83,161.09,710.75Z"/></g><g id="_编组_12" data-name="&lt;编组&gt;"><path id="_复合路径_7" data-name="&lt;复合路径&gt;" class="cls-7" d="M268,741.12c0-4.1,2.35-5.6,4.47-6.51l.29,1.79a4.77,4.77,0,0,0-3.23,4.72c0,3.34,2.86,5.71,7,5.71,4.25,0,7-2.46,7-5.49A5.57,5.57,0,0,0,279.3,736h-1.75V741H276V734.3h8.64v1.55h-3.32a6.14,6.14,0,0,1,3.74,5.69c0,3.61-3.08,7-8.55,7C271.43,748.54,268,745.51,268,741.12Z"/><path id="_复合路径_8" data-name="&lt;复合路径&gt;" class="cls-7" d="M268.42,728.79l13.46-9.48v0H268.42v-1.71h16.21v1.79l-13.46,9.43,0,0h13.49v1.73H268.42Z"/><path id="_复合路径_9" data-name="&lt;复合路径&gt;" class="cls-7" d="M268.42,707.87c0-5.29,4.19-7.17,8.08-7.17,4.65,0,8.13,2.3,8.13,7.48v5.58H268.42ZM283.1,712v-3.9c0-3.23-2.15-5.74-6.6-5.74-3.08,0-6.55,1.51-6.55,5.78V712Z"/></g><g id="_编组_13" data-name="&lt;编组&gt;"><rect id="_矩形_19" data-name="&lt;矩形&gt;" class="cls-10" x="38.01" y="673.64" width="17.32" height="43.57"/><rect id="_矩形_20" data-name="&lt;矩形&gt;" class="cls-11" x="38.31" y="679.87" width="16.71" height="29.78"/><polygon id="_路径_3" data-name="&lt;路径&gt;" class="cls-12" points="38.37 685.25 38.37 704.44 54.96 704.44 54.96 685.25 51.56 685.25 51.56 685.95 41.18 685.95 41.18 685.25 38.37 685.25"/></g><g id="_编组_14" data-name="&lt;编组&gt;"><rect id="_矩形_21" data-name="&lt;矩形&gt;" class="cls-10" x="68.7" y="673.64" width="17.32" height="43.57"/><rect id="_矩形_22" data-name="&lt;矩形&gt;" class="cls-11" x="69" y="679.87" width="16.71" height="29.78"/><polygon id="_路径_4" data-name="&lt;路径&gt;" class="cls-12" points="69.06 685.25 69.06 704.44 85.65 704.44 85.65 685.25 82.26 685.25 82.26 685.95 71.88 685.95 71.88 685.25 69.06 685.25"/></g><g id="_编组_15" data-name="&lt;编组&gt;"><rect id="_矩形_23" data-name="&lt;矩形&gt;" class="cls-10" x="38.01" y="737.4" width="17.32" height="13.51"/><rect id="_矩形_24" data-name="&lt;矩形&gt;" class="cls-10" x="38.01" y="764.31" width="17.32" height="13.51"/><g id="_编组_16" data-name="&lt;编组&gt;"><path id="_路径_5" data-name="&lt;路径&gt;" class="cls-13" d="M51.32,742.06a4.66,4.66,0,1,1-9.32,0H39.22v8.85H54.11v-8.85Z"/><path id="_路径_6" data-name="&lt;路径&gt;" class="cls-13" d="M42,773.16a4.66,4.66,0,1,1,9.32,0h2.79v-8.85H39.22v8.85Z"/><rect id="_矩形_25" data-name="&lt;矩形&gt;" class="cls-14" x="40.05" y="747.82" width="13.24" height="19.47"/></g></g><g id="_编组_17" data-name="&lt;编组&gt;"><rect id="_矩形_26" data-name="&lt;矩形&gt;" class="cls-10" x="152.79" y="630.14" width="17.32" height="13.51" transform="translate(-475.45 798.34) rotate(-90)"/><rect id="_矩形_27" data-name="&lt;矩形&gt;" class="cls-10" x="179.7" y="630.14" width="17.32" height="13.51" transform="translate(-448.53 825.25) rotate(-90)"/><g id="_编组_18" data-name="&lt;编组&gt;"><rect id="_矩形_28" data-name="&lt;矩形&gt;" class="cls-15" x="168.23" y="627.16" width="13.24" height="19.47" transform="translate(-462.04 811.74) rotate(-90)"/></g><rect id="_矩形_29" data-name="&lt;矩形&gt;" class="cls-16" x="183.03" y="629.58" width="4.74" height="14.67" transform="translate(370.81 1273.84) rotate(180)"/><rect id="_矩形_30" data-name="&lt;矩形&gt;" class="cls-16" x="161.97" y="629.58" width="4.74" height="14.67" transform="translate(328.68 1273.84) rotate(180)"/></g><g id="_编组_19" data-name="&lt;编组&gt;"><rect id="_矩形_31" data-name="&lt;矩形&gt;" class="cls-10" x="240.6" y="630.14" width="17.32" height="13.51" transform="translate(-387.63 886.15) rotate(-90)"/><rect id="_矩形_32" data-name="&lt;矩形&gt;" class="cls-10" x="267.51" y="630.14" width="17.32" height="13.51" transform="translate(-360.72 913.06) rotate(-90)"/><g id="_编组_20" data-name="&lt;编组&gt;"><rect id="_矩形_33" data-name="&lt;矩形&gt;" class="cls-15" x="256.04" y="627.16" width="13.24" height="19.47" transform="translate(-374.23 899.55) rotate(-90)"/></g><rect id="_矩形_34" data-name="&lt;矩形&gt;" class="cls-16" x="270.85" y="629.58" width="4.74" height="14.67" transform="translate(546.43 1273.84) rotate(180)"/><rect id="_矩形_35" data-name="&lt;矩形&gt;" class="cls-16" x="249.78" y="629.58" width="4.74" height="14.67" transform="translate(504.3 1273.84) rotate(180)"/></g><g id="_编组_21" data-name="&lt;编组&gt;"><rect id="_矩形_36" data-name="&lt;矩形&gt;" class="cls-10" x="188.41" y="559.89" width="11.17" height="21.09" transform="translate(764.44 376.44) rotate(90)"/><rect id="_矩形_37" data-name="&lt;矩形&gt;" class="cls-10" x="188.41" y="587.96" width="11.17" height="21.09" transform="translate(792.51 404.51) rotate(90)"/><rect id="_矩形_38" data-name="&lt;矩形&gt;" class="cls-10" x="150.11" y="573.93" width="11.17" height="21.09" transform="translate(740.17 428.78) rotate(90)"/><rect id="_矩形_39" data-name="&lt;矩形&gt;" class="cls-17" x="147.55" y="572.15" width="54.1" height="24.65" transform="translate(759.07 409.88) rotate(90)"/><polyline id="_路径_7" data-name="&lt;路径&gt;" class="cls-18" points="173.85 556.76 161.53 556.76 161.53 564.81"/><polyline id="_路径_8" data-name="&lt;路径&gt;" class="cls-18" points="173.85 612.1 161.53 612.1 161.53 604.05"/><rect id="_矩形_40" data-name="&lt;矩形&gt;" class="cls-19" x="187.37" y="565.5" width="8.99" height="9.87" transform="translate(762.3 378.58) rotate(90)"/><rect id="_矩形_41" data-name="&lt;矩形&gt;" class="cls-19" x="187.37" y="593.57" width="8.99" height="9.87" transform="translate(790.37 406.65) rotate(90)"/><rect id="_矩形_42" data-name="&lt;矩形&gt;" class="cls-19" x="152.84" y="579.54" width="8.99" height="9.87" transform="translate(741.81 427.14) rotate(90)"/><rect id="_矩形_43" data-name="&lt;矩形&gt;" class="cls-20" x="185.13" y="569.92" width="8.99" height="1.05" transform="translate(760.07 380.81) rotate(90)"/><rect id="_矩形_44" data-name="&lt;矩形&gt;" class="cls-20" x="185.13" y="597.99" width="8.99" height="1.05" transform="translate(788.14 408.88) rotate(90)"/><rect id="_矩形_45" data-name="&lt;矩形&gt;" class="cls-20" x="155.16" y="583.95" width="8.99" height="1.05" transform="translate(744.13 424.82) rotate(90)"/></g><g id="_编组_22" data-name="&lt;编组&gt;"><rect id="_矩形_46" data-name="&lt;矩形&gt;" class="cls-10" x="254.06" y="580.14" width="17.32" height="43.57" transform="translate(-339.21 864.64) rotate(-90)"/><rect id="_矩形_47" data-name="&lt;矩形&gt;" class="cls-11" x="253.7" y="587.04" width="16.71" height="29.78" transform="translate(-339.87 863.98) rotate(-90)"/><polygon id="_路径_9" data-name="&lt;路径&gt;" class="cls-12" points="252.54 610.22 271.73 610.22 271.73 593.63 252.54 593.63 252.54 597.03 253.24 597.03 253.24 607.41 252.54 607.41 252.54 610.22"/></g><g id="_编组_23" data-name="&lt;编组&gt;"><rect id="_矩形_48" data-name="&lt;矩形&gt;" class="cls-10" x="254.06" y="545.18" width="17.32" height="43.57" transform="translate(-304.25 829.68) rotate(-90)"/><rect id="_矩形_49" data-name="&lt;矩形&gt;" class="cls-11" x="253.7" y="552.07" width="16.71" height="29.78" transform="translate(-304.91 829.02) rotate(-90)"/><polygon id="_路径_10" data-name="&lt;路径&gt;" class="cls-12" points="252.54 575.26 271.73 575.26 271.73 558.67 252.54 558.67 252.54 562.06 253.24 562.06 253.24 572.45 252.54 572.45 252.54 575.26"/></g><path id="_路径_11" data-name="&lt;路径&gt;" class="cls-21" d="M381,156.41"/><g id="_编组_24" data-name="&lt;编组&gt;"><path id="_复合路径_10" data-name="&lt;复合路径&gt;" class="cls-7" d="M232.42,736.12H234v5.42h15.42v1.79H234v5.4h-1.61Z"/><path id="_复合路径_11" data-name="&lt;复合路径&gt;" class="cls-7" d="M232.42,733.4l6.84-4.61-6.84-4.63V722l8.4,5.68,8.63-5.84V724l-7.07,4.79,7.07,4.79v2.09l-8.63-5.84-8.4,5.65Z"/><path id="_复合路径_12" data-name="&lt;复合路径&gt;" class="cls-7" d="M232.42,713.44c0-5.56,4.4-7.54,8.49-7.54,4.89,0,8.54,2.42,8.54,7.86v5.86h-17Zm15.42,4.37v-4.09c0-3.4-2.26-6-6.93-6-3.23,0-6.89,1.58-6.89,6.07v4Z"/></g><g id="_编组_25" data-name="&lt;编组&gt;"><path id="_复合路径_13" data-name="&lt;复合路径&gt;" class="cls-7" d="M196.81,742.19c0-3.68,1.93-5.37,4.58-5.37a4.81,4.81,0,0,1,4.16,2.79h0c.49-1.42,1.81-2.35,3.84-2.44a17.08,17.08,0,0,0,4.42-.86v1.91a17.45,17.45,0,0,1-4.26.72c-1.91.12-3.16,1.16-3.16,2.93v5.07h7.42v1.79h-17Zm8,4.75v-4.65a3.39,3.39,0,0,0-3.3-3.68c-1.86,0-3.07,1.35-3.07,3.84v4.49Z"/><path id="_复合路径_14" data-name="&lt;复合路径&gt;" class="cls-7" d="M196.81,732.79l6.84-4.61-6.84-4.63v-2.12l8.4,5.68,8.63-5.84v2.12l-7.07,4.79,7.07,4.79v2.09l-8.63-5.84-8.4,5.65Z"/><path id="_复合路径_15" data-name="&lt;复合路径&gt;" class="cls-7" d="M196.81,712.83c0-5.56,4.4-7.54,8.49-7.54,4.89,0,8.54,2.42,8.54,7.86V719h-17Zm15.42,4.37v-4.09c0-3.4-2.26-6-6.93-6-3.23,0-6.89,1.58-6.89,6.07v4Z"/></g><g id="_编组_26" data-name="&lt;编组&gt;"><rect id="_矩形_50" data-name="&lt;矩形&gt;" class="cls-10" x="68.7" y="737.34" width="17.32" height="13.51"/><rect id="_矩形_51" data-name="&lt;矩形&gt;" class="cls-10" x="68.7" y="764.25" width="17.32" height="13.51"/><g id="_编组_27" data-name="&lt;编组&gt;"><path id="_路径_12" data-name="&lt;路径&gt;" class="cls-22" d="M82,742a4.66,4.66,0,1,1-9.32,0H69.91v8.85H84.8V742Z"/><path id="_路径_13" data-name="&lt;路径&gt;" class="cls-22" d="M72.69,773.11a4.66,4.66,0,1,1,9.32,0H84.8v-8.85H69.91v8.85Z"/><rect id="_矩形_52" data-name="&lt;矩形&gt;" class="cls-22" x="70.74" y="747.77" width="13.24" height="19.47"/></g></g><rect class="cls-23" x="79.78" y="25.26" width="283.33" height="418"/><rect class="cls-24" x="117.92" y="445.33" width="28.06" height="23.93" transform="translate(589.24 325.34) rotate(90)"/><rect class="cls-24" x="153.72" y="445.33" width="28.06" height="23.93" transform="translate(625.04 289.54) rotate(90)"/><rect class="cls-24" x="189.52" y="445.33" width="28.06" height="23.93" transform="translate(660.84 253.74) rotate(90)"/><rect class="cls-24" x="225.32" y="445.33" width="28.06" height="23.93" transform="translate(696.63 217.94) rotate(90)"/><rect class="cls-24" x="261.12" y="445.33" width="28.06" height="23.93" transform="translate(732.43 182.15) rotate(90)"/><rect class="cls-24" x="296.91" y="445.33" width="28.06" height="23.93" transform="translate(768.23 146.35) rotate(90)"/><rect class="cls-25" x="178.65" y="324.05" width="77.61" height="77.61"/><rect class="cls-26" x="171.88" y="326.58" width="6.77" height="3.79"/><rect class="cls-26" x="171.88" y="332.83" width="6.77" height="3.79"/><rect class="cls-26" x="171.88" y="339.08" width="6.77" height="3.79"/><rect class="cls-26" x="171.88" y="345.33" width="6.77" height="3.79"/><rect class="cls-26" x="171.88" y="376.59" width="6.77" height="3.79"/><rect class="cls-26" x="171.88" y="382.84" width="6.77" height="3.79"/><rect class="cls-26" x="171.88" y="389.1" width="6.77" height="3.79"/><rect class="cls-26" x="171.88" y="395.35" width="6.77" height="3.79"/><rect class="cls-26" x="171.88" y="351.58" width="6.77" height="3.79"/><rect class="cls-26" x="171.88" y="357.84" width="6.77" height="3.79"/><rect class="cls-26" x="171.88" y="364.09" width="6.77" height="3.79"/><rect class="cls-26" x="171.88" y="370.34" width="6.77" height="3.79"/><rect class="cls-26" x="256.26" y="326.58" width="6.77" height="3.79"/><rect class="cls-26" x="256.26" y="332.83" width="6.77" height="3.79"/><rect class="cls-26" x="256.26" y="339.08" width="6.77" height="3.79"/><rect class="cls-26" x="256.26" y="345.33" width="6.77" height="3.79"/><rect class="cls-26" x="256.26" y="376.59" width="6.77" height="3.79"/><rect class="cls-26" x="256.26" y="382.84" width="6.77" height="3.79"/><rect class="cls-26" x="256.26" y="389.1" width="6.77" height="3.79"/><rect class="cls-26" x="256.26" y="395.35" width="6.77" height="3.79"/><rect class="cls-26" x="256.26" y="351.58" width="6.77" height="3.79"/><rect class="cls-26" x="256.26" y="357.84" width="6.77" height="3.79"/><rect class="cls-26" x="256.26" y="364.09" width="6.77" height="3.79"/><rect class="cls-26" x="256.26" y="370.34" width="6.77" height="3.79"/><rect class="cls-26" x="179.69" y="318.77" width="6.77" height="3.79" transform="translate(-137.59 503.74) rotate(-90)"/><rect class="cls-26" x="185.94" y="318.77" width="6.77" height="3.79" transform="translate(-131.34 509.99) rotate(-90)"/><rect class="cls-26" x="192.19" y="318.77" width="6.77" height="3.79" transform="translate(-125.09 516.24) rotate(-90)"/><rect class="cls-26" x="198.44" y="318.77" width="6.77" height="3.79" transform="translate(-118.83 522.49) rotate(-90)"/><rect class="cls-26" x="229.7" y="318.77" width="6.77" height="3.79" transform="translate(-87.58 553.75) rotate(-90)"/><rect class="cls-26" x="235.95" y="318.77" width="6.77" height="3.79" transform="translate(-81.32 560.01) rotate(-90)"/><rect class="cls-26" x="242.21" y="318.77" width="6.77" height="3.79" transform="translate(-75.07 566.26) rotate(-90)"/><rect class="cls-26" x="248.46" y="318.77" width="6.77" height="3.79" transform="translate(-68.82 572.51) rotate(-90)"/><rect class="cls-26" x="204.69" y="318.77" width="6.77" height="3.79" transform="translate(-112.58 528.75) rotate(-90)"/><rect class="cls-26" x="210.95" y="318.77" width="6.77" height="3.79" transform="translate(-106.33 535) rotate(-90)"/><rect class="cls-26" x="217.2" y="318.77" width="6.77" height="3.79" transform="translate(-100.08 541.25) rotate(-90)"/><rect class="cls-26" x="223.45" y="318.77" width="6.77" height="3.79" transform="translate(-93.83 547.5) rotate(-90)"/><rect class="cls-26" x="179.69" y="403.15" width="6.77" height="3.79" transform="translate(-221.97 588.12) rotate(-90)"/><rect class="cls-26" x="185.94" y="403.15" width="6.77" height="3.79" transform="translate(-215.72 594.38) rotate(-90)"/><rect class="cls-26" x="192.19" y="403.15" width="6.77" height="3.79" transform="translate(-209.47 600.63) rotate(-90)"/><rect class="cls-26" x="198.44" y="403.15" width="6.77" height="3.79" transform="translate(-203.22 606.88) rotate(-90)"/><rect class="cls-26" x="229.7" y="403.15" width="6.77" height="3.79" transform="translate(-171.96 638.14) rotate(-90)"/><rect class="cls-26" x="235.95" y="403.15" width="6.77" height="3.79" transform="translate(-165.71 644.39) rotate(-90)"/><rect class="cls-26" x="242.21" y="403.15" width="6.77" height="3.79" transform="translate(-159.46 650.64) rotate(-90)"/><rect class="cls-26" x="248.46" y="403.15" width="6.77" height="3.79" transform="translate(-153.2 656.89) rotate(-90)"/><rect class="cls-26" x="204.69" y="403.15" width="6.77" height="3.79" transform="translate(-196.97 613.13) rotate(-90)"/><rect class="cls-26" x="210.95" y="403.15" width="6.77" height="3.79" transform="translate(-190.72 619.38) rotate(-90)"/><rect class="cls-26" x="217.2" y="403.15" width="6.77" height="3.79" transform="translate(-184.46 625.63) rotate(-90)"/><rect class="cls-26" x="223.45" y="403.15" width="6.77" height="3.79" transform="translate(-178.21 631.89) rotate(-90)"/><g id="_编组_28" data-name="&lt;编组&gt;"><rect id="_矩形_53" data-name="&lt;矩形&gt;" class="cls-27" x="361.71" y="652.53" width="13.9" height="20.35"/><rect id="_矩形_54" data-name="&lt;矩形&gt;" class="cls-27" x="402.08" y="652.53" width="13.9" height="20.35"/><rect id="_矩形_55" data-name="&lt;矩形&gt;" class="cls-27" x="361.71" y="797.12" width="13.9" height="20.35"/><rect id="_矩形_56" data-name="&lt;矩形&gt;" class="cls-27" x="402.08" y="797.12" width="13.9" height="20.35"/><rect id="_矩形_57" data-name="&lt;矩形&gt;" class="cls-27" x="337.34" y="681.42" width="27.79" height="15.66"/><rect id="_矩形_58" data-name="&lt;矩形&gt;" class="cls-27" x="337.34" y="713.19" width="27.79" height="15.66"/><rect id="_矩形_59" data-name="&lt;矩形&gt;" class="cls-27" x="337.34" y="764.59" width="27.79" height="15.66"/><rect id="_矩形_60" data-name="&lt;矩形&gt;" class="cls-28" x="345.72" y="772.42" width="15.99" height="7.83"/><rect id="_矩形_61" data-name="&lt;矩形&gt;" class="cls-29" x="361.71" y="671.72" width="54.27" height="125.41"/><rect id="_矩形_62" data-name="&lt;矩形&gt;" class="cls-30" x="415.98" y="701.06" width="27.57" height="24.26"/><rect id="_矩形_63" data-name="&lt;矩形&gt;" class="cls-28" x="345.72" y="687.82" width="15.99" height="7.83"/><rect id="_矩形_64" data-name="&lt;矩形&gt;" class="cls-28" x="345.72" y="713.19" width="15.99" height="7.83"/></g><rect class="cls-31" x="303.98" y="222.43" width="25.33" height="25.33"/><rect class="cls-31" x="335.32" y="224.09" width="18.17" height="24.17"/><rect class="cls-31" x="334.98" y="270.34" width="18.5" height="30.33"/><rect class="cls-31" x="306.15" y="270.34" width="22.75" height="30.33"/><rect class="cls-32" x="312.53" y="231.59" width="35.25" height="58.25" rx="2.83" ry="2.83"/><rect class="cls-33" x="79.78" y="32.93" width="283.33" height="111.67"/><g id="_编组_29" data-name="&lt;编组&gt;"><rect id="_矩形_65" data-name="&lt;矩形&gt;" class="cls-34" x="107.28" y="352.98" width="10.93" height="27.51" transform="translate(-253.99 479.48) rotate(-90)"/><rect id="_矩形_66" data-name="&lt;矩形&gt;" class="cls-11" x="107.05" y="357.34" width="10.55" height="18.8" transform="translate(-254.41 479.06) rotate(-90)"/><polygon id="_路径_14" data-name="&lt;路径&gt;" class="cls-12" points="106.32 371.97 118.44 371.97 118.44 361.5 106.32 361.5 106.32 363.64 106.76 363.64 106.76 370.2 106.32 370.2 106.32 371.97"/></g><g id="_编组_30" data-name="&lt;编组&gt;"><rect id="_矩形_67" data-name="&lt;矩形&gt;" class="cls-34" x="107.28" y="330.91" width="10.93" height="27.51" transform="translate(-231.92 457.41) rotate(-90)"/><rect id="_矩形_68" data-name="&lt;矩形&gt;" class="cls-11" x="107.05" y="335.26" width="10.55" height="18.8" transform="translate(-232.34 456.99) rotate(-90)"/><polygon id="_路径_15" data-name="&lt;路径&gt;" class="cls-12" points="106.32 349.9 118.44 349.9 118.44 339.43 106.32 339.43 106.32 341.57 106.76 341.57 106.76 348.12 106.32 348.12 106.32 349.9"/></g><g id="_编组_31" data-name="&lt;编组&gt;"><rect id="_矩形_69" data-name="&lt;矩形&gt;" class="cls-34" x="120.19" y="269.86" width="10.93" height="27.51" transform="translate(-157.96 409.27) rotate(-90)"/><rect id="_矩形_70" data-name="&lt;矩形&gt;" class="cls-11" x="119.96" y="274.21" width="10.55" height="18.8" transform="translate(-158.37 408.85) rotate(-90)"/><polygon id="_路径_16" data-name="&lt;路径&gt;" class="cls-12" points="119.23 288.85 131.35 288.85 131.35 278.38 119.23 278.38 119.23 280.52 119.68 280.52 119.68 287.07 119.23 287.07 119.23 288.85"/></g><rect class="cls-35" x="98.06" y="213.36" width="10.38" height="47.25"/><rect class="cls-35" x="113.44" y="252.3" width="9.56" height="7.81"/><rect class="cls-35" x="128.56" y="213.36" width="10.69" height="46.75"/><rect class="cls-36" x="93.52" y="223.51" width="46.33" height="28.33"/><polyline class="cls-37" points="79.78 40.34 122.53 40.34 122.53 125.59 140.78 125.59 140.78 40.34 161.53 40.34 161.53 125.84 179.78 125.84 179.78 40.34 198.03 40.34 198.03 125.84 215.78 125.84 215.78 40.34 260.53 40.34 260.53 144.59"/><rect class="cls-38" x="104.06" y="186.97" width="29.63" height="10.38"/><rect class="cls-35" x="100.12" y="188.22" width="3.94" height="7.44"/><rect class="cls-35" x="133.68" y="188.22" width="3.94" height="7.44"/><rect class="cls-38" x="160.04" y="155.84" width="27.67" height="52.25"/><rect class="cls-35" x="164.04" y="152.76" width="19.67" height="3.08"/><rect class="cls-35" x="164.04" y="208.09" width="19.67" height="3.08"/><rect class="cls-35" x="302.29" y="195.26" width="45.5" height="11.83"/><rect class="cls-24" x="312.21" y="193.84" width="25.67" height="14.67"/><rect class="cls-35" x="302.29" y="313.26" width="45.5" height="11.83"/><rect class="cls-24" x="312.21" y="311.84" width="25.67" height="14.67"/><rect class="cls-35" x="295.46" y="338.03" width="52.33" height="11.83"/><rect class="cls-24" x="300.54" y="336.62" width="42.17" height="14.67"/><rect class="cls-1" x="94.29" y="313.55" width="62" height="11.25"/><rect class="cls-35" x="114.49" y="381.39" width="11" height="8"/><rect class="cls-35" x="114.49" y="398.57" width="11" height="8"/><rect class="cls-35" x="156.34" y="260.47" width="12.25" height="12.25"/><rect class="cls-35" x="175.17" y="260.47" width="12.25" height="12.25"/><rect class="cls-35" x="156.34" y="278.97" width="12.25" height="12.25"/><rect class="cls-35" x="175.17" y="278.97" width="12.25" height="12.25"/><circle class="cls-39" cx="328.58" cy="95.04" r="14"/><circle class="cls-39" cx="328.58" cy="386.93" r="14"/><rect class="cls-35" x="232.57" y="153.84" width="12.5" height="28.25"/><rect class="cls-36" x="231.07" y="158.93" width="16.33" height="18.33"/><rect class="cls-35" x="232.57" y="194.68" width="12.5" height="28.25"/><rect class="cls-36" x="231.07" y="199.76" width="16.33" height="18.33"/><rect class="cls-35" x="207.4" y="152.93" width="13.33" height="8.5"/><rect class="cls-35" x="207.4" y="173.01" width="13.33" height="8.5"/><rect class="cls-35" x="207.4" y="194.51" width="13.33" height="8.5"/><rect class="cls-35" x="207.4" y="214.59" width="13.33" height="8.5"/><rect class="cls-35" x="207.4" y="234.68" width="13.33" height="8.5"/><rect class="cls-35" x="207.4" y="254.76" width="13.33" height="8.5"/><rect class="cls-35" x="232.15" y="234.68" width="13.33" height="8.5"/><rect class="cls-35" x="254.15" y="229.34" width="13.33" height="8.5"/><rect class="cls-35" x="254.15" y="201.18" width="13.33" height="8.5"/><rect class="cls-35" x="254.15" y="173.59" width="13.33" height="8.5"/><rect class="cls-35" x="254.15" y="259.01" width="13.33" height="8.5"/><rect class="cls-35" x="232.15" y="254.76" width="13.33" height="8.5"/><rect class="cls-40" x="151.89" y="256.2" width="39.33" height="39.33"/><rect class="cls-40" x="94.89" y="184.81" width="49" height="14.95"/><rect class="cls-40" x="156.34" y="151.1" width="35.8" height="63.5"/><rect class="cls-40" x="203.72" y="151.1" width="70.67" height="121.62"/><rect class="cls-40" x="295.46" y="188.22" width="58.03" height="26.37"/><rect class="cls-40" x="295.46" y="222.43" width="60.94" height="82.67"/><rect class="cls-40" x="296.06" y="311.84" width="58.67" height="16.63"/><rect class="cls-40" x="293.23" y="335.22" width="61.5" height="19"/><rect class="cls-40" x="167.75" y="313.26" width="103.58" height="98.67"/><polygon class="cls-40" points="93.52 335.76 93.52 378.49 108.89 378.49 108.89 412.76 130.56 412.76 130.56 335.76 93.52 335.76"/><rect class="cls-40" x="92.14" y="310.84" width="68.5" height="17.63"/></g></g></svg>