<svg xmlns="http://www.w3.org/2000/svg" xmlns:xlink="http://www.w3.org/1999/xlink" viewBox="0 0 783.2 353.81"><defs><style>.cls-1{fill:#2b2b2b;}.cls-2{fill:#333;}.cls-3{fill:#4f4f4f;}.cls-4{fill:#282828;}.cls-5{fill:none;stroke:#2d2d2d;stroke-miterlimit:10;stroke-width:11.14px;}.cls-6{fill:url(#未命名的渐变_43);}.cls-7{fill:#232323;}.cls-8{fill:url(#未命名的渐变_43-2);}.cls-9{fill:#5b5b5b;}.cls-10{fill:#212121;}.cls-11{fill:#b8914f;}.cls-12{fill:#875000;}.cls-13{fill:#ededed;}.cls-14{fill:#d3d3d3;}.cls-15{fill:#ccbaaa;}.cls-16{fill:#adadad;}.cls-17{fill:#d6d6d6;}</style><radialGradient id="未命名的渐变_43" cx="208.66" cy="232.74" fx="187.36093411804848" fy="207.00113974595905" r="47.7" gradientUnits="userSpaceOnUse"><stop offset="0" stop-color="#545454"/><stop offset="0.07" stop-color="#3b3b3b"/><stop offset="0.15" stop-color="#252525"/><stop offset="0.25" stop-color="#141414"/><stop offset="0.37" stop-color="#090909"/><stop offset="0.53" stop-color="#020202"/><stop offset="1"/></radialGradient><radialGradient id="未命名的渐变_43-2" cx="573.1" cy="210.57" fx="573.0972155313357" fy="210.56827527604855" r="79.31" xlink:href="#未命名的渐变_43"/></defs><title>GP2Y0A21距离传感器</title><g id="图层_2" data-name="图层 2"><g id="图层_1-2" data-name="图层 1"><path class="cls-1" d="M716.88,174.46H66.33A66.52,66.52,0,0,0,0,240.78H0a66.52,66.52,0,0,0,66.33,66.33H716.88a66.52,66.52,0,0,0,66.33-66.33h0A66.52,66.52,0,0,0,716.88,174.46ZM65.32,268.64a27.86,27.86,0,1,1,27.86-27.86A27.86,27.86,0,0,1,65.32,268.64Zm645.51-1.59a27.86,27.86,0,1,1,27.86-27.86A27.86,27.86,0,0,1,710.83,267.05Z"/><rect class="cls-2" x="129.47" y="124.58" width="524.26" height="229.23"/><rect class="cls-3" x="287.6" y="124.58" width="208.01" height="29.72"/><rect class="cls-4" x="518.95" y="164.91" width="134.78" height="134.78"/><circle class="cls-5" cx="476.5" cy="299.68" r="16.22"/><path class="cls-6" d="M277.31,232.29A63.48,63.48,0,0,0,243,175.9H184.64a63.57,63.57,0,0,0-33.09,43.91v25a63.57,63.57,0,0,0,33.09,43.91H243A63.48,63.48,0,0,0,277.31,232.29Z"/><path class="cls-7" d="M422.91,176V288.54H152.29V176H422.91m11.14-11.14H141.15V299.68H434.05V164.91Z"/><circle class="cls-8" cx="586.34" cy="232.29" r="56.45"/><rect class="cls-9" x="515.73" y="164.91" width="3.22" height="134.78"/><rect class="cls-10" x="652.12" y="164.91" width="3.22" height="134.78"/><rect class="cls-9" x="434.05" y="164.91" width="3.22" height="134.78"/><rect class="cls-10" x="125.82" y="174.46" width="3.66" height="132.66"/><path class="cls-11" d="M479.55,154.29H303.65V17.89A17.94,17.94,0,0,1,321.54,0H461.66a17.94,17.94,0,0,1,17.89,17.89Z"/><circle class="cls-12" cx="356.17" cy="111.83" r="10.3"/><circle class="cls-12" cx="391.6" cy="111.83" r="10.3"/><circle class="cls-12" cx="427.03" cy="111.83" r="10.3"/><rect class="cls-13" x="321.36" width="140.48" height="111.83"/><rect class="cls-14" x="321.36" y="111.83" width="17.78" height="42.46"/><rect class="cls-14" x="444.07" y="111.83" width="17.78" height="42.46"/><rect class="cls-15" x="334.29" y="36.55" width="17.25" height="38.74"/><rect class="cls-15" x="431.66" y="36.55" width="17.25" height="38.74"/><rect class="cls-16" x="376.88" width="29.45" height="75.22"/><rect class="cls-17" x="387.02" y="18.68" width="9.17" height="56.54"/></g></g></svg>