<?xml version="1.0" encoding="utf-8"?>
<!-- Generator: Adobe Illustrator 22.0.1, SVG Export Plug-In . SVG Version: 6.00 Build 0)  -->
<svg version="1.1" id="图层_1" xmlns="http://www.w3.org/2000/svg" xmlns:xlink="http://www.w3.org/1999/xlink" x="0px" y="0px"
	 viewBox="0 0 783.2 353.8" style="enable-background:new 0 0 783.2 353.8;" xml:space="preserve">
<style type="text/css">
	.st0{fill:#2B2B2B;}
	.st1{fill:#333333;}
	.st2{fill:#4F4F4F;}
	.st3{fill:#282828;}
	.st4{fill:none;stroke:#2D2D2D;stroke-width:11.14;stroke-miterlimit:10;}
	.st5{fill:url(#SVGID_1_);}
	.st6{fill:#232323;}
	.st7{fill:url(#SVGID_2_);}
	.st8{fill:#5B5B5B;}
	.st9{fill:#212121;}
	.st10{fill:#B8914F;}
	.st11{fill:#875000;}
	.st12{fill:#EDEDED;}
	.st13{fill:#D3D3D3;}
	.st14{fill:#CCBAAA;}
	.st15{fill:#ADADAD;}
	.st16{fill:#D6D6D6;}
</style>
<title>GP2Y0A21距离传感器</title>
<g id="图层_2_1_">
	<g id="图层_1-2">
		<path class="st0" d="M783.2,113L783.2,113c-0.1-36.6-29.7-66.2-66.3-66.3H66.3C29.7,46.8,0.1,76.4,0,113l0,0
			c0.1,36.6,29.7,66.2,66.3,66.3h650.5C753.5,179.2,783.1,149.6,783.2,113z M65.3,85.2c15.4,0,27.9,12.5,27.9,27.9
			s-12.5,27.9-27.9,27.9S37.5,128.4,37.5,113S49.9,85.2,65.3,85.2L65.3,85.2z M710.8,86.8c15.4,0,27.9,12.5,27.9,27.9v0
			c0,15.4-12.5,27.9-27.9,27.9c-15.4,0-27.9-12.5-27.9-27.9C683,99.2,695.4,86.8,710.8,86.8L710.8,86.8z"/>
		<rect x="129.5" class="st1" width="524.3" height="229.2"/>
		<rect x="287.6" y="199.5" class="st2" width="208" height="29.7"/>
		<rect x="519" y="54.1" class="st3" width="134.8" height="134.8"/>
		<circle class="st4" cx="476.5" cy="54.1" r="16.2"/>
		
			<radialGradient id="SVGID_1_" cx="208.66" cy="123.26" r="47.7" fx="187.3609" fy="97.5211" gradientTransform="matrix(1 0 0 1 0 -2.19)" gradientUnits="userSpaceOnUse">
			<stop  offset="0" style="stop-color:#545454"/>
			<stop  offset="7.000000e-02" style="stop-color:#3B3B3B"/>
			<stop  offset="0.15" style="stop-color:#252525"/>
			<stop  offset="0.25" style="stop-color:#141414"/>
			<stop  offset="0.37" style="stop-color:#090909"/>
			<stop  offset="0.53" style="stop-color:#020202"/>
			<stop  offset="1" style="stop-color:#000000"/>
		</radialGradient>
		<path class="st5" d="M243,65.1h-58.4c-17.1,8.9-29.3,25-33.1,43.9v25c3.8,18.9,16,35,33.1,43.9H243c21.1-10.9,34.3-32.7,34.3-56.4
			C277.3,97.8,264.1,76,243,65.1z"/>
		<path class="st6" d="M422.9,177.8H152.3V65.3h270.6V177.8 M434,188.9V54.1H141.1v134.8L434,188.9L434,188.9z"/>
		
			<radialGradient id="SVGID_2_" cx="573.1" cy="145.43" r="79.31" fx="573.0972" fy="145.4283" gradientTransform="matrix(1 0 0 1 0 -2.19)" gradientUnits="userSpaceOnUse">
			<stop  offset="0" style="stop-color:#545454"/>
			<stop  offset="7.000000e-02" style="stop-color:#3B3B3B"/>
			<stop  offset="0.15" style="stop-color:#252525"/>
			<stop  offset="0.25" style="stop-color:#141414"/>
			<stop  offset="0.37" style="stop-color:#090909"/>
			<stop  offset="0.53" style="stop-color:#020202"/>
			<stop  offset="1" style="stop-color:#000000"/>
		</radialGradient>
		<circle class="st7" cx="586.3" cy="121.5" r="56.5"/>
		<rect x="515.7" y="54.1" class="st8" width="3.2" height="134.8"/>
		<rect x="652.1" y="54.1" class="st9" width="3.2" height="134.8"/>
		<rect x="434" y="54.1" class="st8" width="3.2" height="134.8"/>
		<rect x="125.8" y="46.7" class="st9" width="3.7" height="132.7"/>
		<path class="st10" d="M479.5,335.9c0,9.9-8,17.9-17.9,17.9H321.5c-9.9,0-17.9-8-17.9-17.9V199.5h175.9V335.9z"/>
		<circle class="st11" cx="356.2" cy="242" r="10.3"/>
		<circle class="st11" cx="391.6" cy="242" r="10.3"/>
		<circle class="st11" cx="427" cy="242" r="10.3"/>
		<rect x="321.4" y="242" class="st12" width="140.5" height="111.8"/>
		<rect x="321.4" y="199.5" class="st13" width="17.8" height="42.5"/>
		<rect x="444.1" y="199.5" class="st13" width="17.8" height="42.5"/>
		<rect x="334.3" y="278.5" class="st14" width="17.3" height="38.7"/>
		<rect x="431.7" y="278.5" class="st14" width="17.3" height="38.7"/>
		<rect x="376.9" y="278.6" class="st15" width="29.5" height="75.2"/>
		<rect x="387" y="278.6" class="st16" width="9.2" height="56.5"/>
	</g>
</g>
</svg>
