<svg xmlns="http://www.w3.org/2000/svg" viewBox="0 0 442.89 928.09"><defs><style>.cls-1{fill:#353535;}.cls-2,.cls-3,.cls-32{fill:none;}.cls-11,.cls-23,.cls-3,.cls-32,.cls-33,.cls-5{stroke:#fff;}.cls-11,.cls-15,.cls-17,.cls-19,.cls-23,.cls-3,.cls-32,.cls-33,.cls-5{stroke-miterlimit:10;}.cls-3{stroke-width:3.31px;}.cls-4{fill:#f2cb6b;}.cls-5{fill:#d0ab3c;stroke-width:1.99px;}.cls-6{fill:#f0c581;}.cls-7{fill:#fff;}.cls-8{fill:#f4cb70;}.cls-9{fill:#c6c5c5;}.cls-10{fill:#c8a266;}.cls-11{fill:#9b9b9b;}.cls-11,.cls-15,.cls-17,.cls-19,.cls-23{stroke-width:0.66px;}.cls-12{fill:#d2d3d3;}.cls-13{fill:#030000;}.cls-14{fill:#bb8c27;}.cls-15{fill:#ff4a5c;stroke:#681216;}.cls-16{fill:#e7e887;}.cls-17{fill:#58b1f9;stroke:#122c4f;}.cls-18{fill:#aaa;}.cls-19{fill:#f99f46;stroke:#ef973f;}.cls-20{fill:#f7f7f7;}.cls-21,.cls-23{fill:#e1b737;}.cls-22{fill:#222;}.cls-24{fill:#dadada;}.cls-25{fill:#f0f0f0;}.cls-26{fill:#a0a0a0;}.cls-27{fill:#ededed;}.cls-28{fill:#6d6d6d;}.cls-29{fill:#d1d1d1;}.cls-30{fill:#a7a7a7;}.cls-31{fill:#efefef;}.cls-32{stroke-width:3.95px;}.cls-33{fill:#edc343;}.cls-34{fill:#191919;}.cls-35{fill:#eaeaea;}</style></defs><title>磁传感模块</title><g id="图层_2" data-name="图层 2"><g id="图层_1-2" data-name="图层 1"><g id="_编组_" data-name="&lt;编组&gt;"><path id="_复合路径_" data-name="&lt;复合路径&gt;" class="cls-1" d="M385,0h-327A57.92,57.92,0,0,0,0,57.92V870.17a57.92,57.92,0,0,0,57.92,57.92H385a57.92,57.92,0,0,0,57.92-57.92V57.92A57.92,57.92,0,0,0,385,0Zm13.12,549.87a6.37,6.37,0,1,1,0,9A6.37,6.37,0,0,1,398.09,549.87Zm-21.15-12.49a6.37,6.37,0,1,1-6.37,6.37A6.37,6.37,0,0,1,376.94,537.38Zm-30.15,12.49a6.37,6.37,0,1,1,0,9A6.37,6.37,0,0,1,346.79,549.87Zm-259.7,0a6.37,6.37,0,1,1,0,9A6.37,6.37,0,0,1,87.09,549.87ZM65.94,537.38a6.37,6.37,0,1,1-6.37,6.37A6.37,6.37,0,0,1,65.94,537.38ZM35.79,549.87a6.37,6.37,0,1,1,0,9A6.37,6.37,0,0,1,35.79,549.87ZM23.3,580a6.37,6.37,0,1,1,6.37,6.37A6.37,6.37,0,0,1,23.3,580Zm21.5,30.15a6.37,6.37,0,1,1,0-9A6.37,6.37,0,0,1,44.8,610.17Zm21.15,12.49a6.37,6.37,0,1,1,6.37-6.37A6.37,6.37,0,0,1,65.94,622.66Zm0-17A25.65,25.65,0,1,1,91.59,580,25.65,25.65,0,0,1,65.94,605.67Zm30.15,4.5a6.37,6.37,0,1,1,0-9A6.37,6.37,0,0,1,96.1,610.17Zm6.12-23.78a6.37,6.37,0,1,1,6.37-6.37A6.37,6.37,0,0,1,102.22,586.39ZM334.3,580a6.37,6.37,0,1,1,6.37,6.37A6.37,6.37,0,0,1,334.3,580Zm21.5,30.15a6.37,6.37,0,1,1,0-9A6.37,6.37,0,0,1,355.8,610.17Zm21.15,12.49a6.37,6.37,0,1,1,6.37-6.37A6.37,6.37,0,0,1,376.94,622.66Zm0-17A25.65,25.65,0,1,1,402.59,580,25.65,25.65,0,0,1,376.94,605.67Zm30.15,4.5a6.37,6.37,0,1,1,0-9A6.37,6.37,0,0,1,407.1,610.17Zm6.12-23.78a6.37,6.37,0,1,1,6.37-6.37A6.37,6.37,0,0,1,413.22,586.39Z"/><circle id="_路径_" data-name="&lt;路径&gt;" class="cls-2" cx="65.94" cy="580.02" r="24.19"/><circle id="_路径_2" data-name="&lt;路径&gt;" class="cls-3" cx="65.94" cy="580.02" r="48.21"/><circle id="_路径_3" data-name="&lt;路径&gt;" class="cls-3" cx="376.94" cy="580.02" r="48.21"/><path id="_复合路径_2" data-name="&lt;复合路径&gt;" class="cls-4" d="M376.94,531.66A48.37,48.37,0,1,0,425.31,580,48.42,48.42,0,0,0,376.94,531.66Zm21.15,18.21a6.37,6.37,0,1,1,0,9A6.37,6.37,0,0,1,398.09,549.87Zm-21.15-12.49a6.37,6.37,0,1,1-6.37,6.37A6.37,6.37,0,0,1,376.94,537.38Zm-30.15,12.49a6.37,6.37,0,1,1,0,9A6.37,6.37,0,0,1,346.79,549.87Zm-6.12,36.52A6.37,6.37,0,1,1,347,580,6.37,6.37,0,0,1,340.67,586.39Zm15.13,23.78a6.37,6.37,0,1,1,0-9A6.37,6.37,0,0,1,355.8,610.17Zm21.15,12.49a6.37,6.37,0,1,1,6.37-6.37A6.37,6.37,0,0,1,376.94,622.66Zm0-18.46A24.18,24.18,0,1,1,401.13,580,24.21,24.21,0,0,1,376.94,604.2Zm30.15,6a6.37,6.37,0,1,1,0-9A6.37,6.37,0,0,1,407.1,610.17Zm6.12-23.78a6.37,6.37,0,1,1,6.37-6.37A6.37,6.37,0,0,1,413.22,586.39Z"/><path id="_复合路径_3" data-name="&lt;复合路径&gt;" class="cls-4" d="M65.94,531.66A48.37,48.37,0,1,0,114.31,580,48.42,48.42,0,0,0,65.94,531.66Zm21.15,18.21a6.37,6.37,0,1,1,0,9A6.37,6.37,0,0,1,87.09,549.87ZM65.94,537.38a6.37,6.37,0,1,1-6.37,6.37A6.37,6.37,0,0,1,65.94,537.38ZM35.79,549.87a6.37,6.37,0,1,1,0,9A6.37,6.37,0,0,1,35.79,549.87Zm-6.12,36.52A6.37,6.37,0,1,1,36,580,6.37,6.37,0,0,1,29.67,586.39ZM44.8,610.17a6.37,6.37,0,1,1,0-9A6.37,6.37,0,0,1,44.8,610.17Zm21.15,12.49a6.37,6.37,0,1,1,6.37-6.37A6.37,6.37,0,0,1,65.94,622.66Zm0-18.46A24.18,24.18,0,1,1,90.13,580,24.21,24.21,0,0,1,65.94,604.2Zm30.15,6a6.37,6.37,0,1,1,0-9A6.37,6.37,0,0,1,96.1,610.17Zm6.12-23.78a6.37,6.37,0,1,1,6.37-6.37A6.37,6.37,0,0,1,102.22,586.39Z"/><g id="_编组_2" data-name="&lt;编组&gt;"><g id="_编组_3" data-name="&lt;编组&gt;"><rect id="_矩形_" data-name="&lt;矩形&gt;" class="cls-5" x="172.7" y="762.05" width="18.53" height="56.47"/><rect id="_矩形_2" data-name="&lt;矩形&gt;" class="cls-6" x="176.83" y="767.06" width="10.26" height="52.94" rx="5.13" ry="5.13"/></g><g id="_编组_4" data-name="&lt;编组&gt;"><rect id="_矩形_3" data-name="&lt;矩形&gt;" class="cls-5" x="212.18" y="762.05" width="18.53" height="56.47"/><rect id="_矩形_4" data-name="&lt;矩形&gt;" class="cls-6" x="216.32" y="767.06" width="10.26" height="52.94" rx="5.13" ry="5.13"/></g><g id="_编组_5" data-name="&lt;编组&gt;"><rect id="_矩形_5" data-name="&lt;矩形&gt;" class="cls-5" x="251.67" y="762.05" width="18.53" height="56.47"/><rect id="_矩形_6" data-name="&lt;矩形&gt;" class="cls-6" x="255.8" y="767.06" width="10.26" height="52.94" rx="5.13" ry="5.13"/></g><rect id="_矩形_7" data-name="&lt;矩形&gt;" class="cls-7" x="124.83" y="809.75" width="193.24" height="114.27"/><rect id="_矩形_8" data-name="&lt;矩形&gt;" class="cls-8" x="176.83" y="831.15" width="10.26" height="71.47"/><rect id="_矩形_9" data-name="&lt;矩形&gt;" class="cls-8" x="255.8" y="831.15" width="10.26" height="71.47"/><rect id="_矩形_10" data-name="&lt;矩形&gt;" class="cls-9" x="124.83" y="777.32" width="18.53" height="32.43"/><rect id="_矩形_11" data-name="&lt;矩形&gt;" class="cls-9" x="299.53" y="777.32" width="18.53" height="32.43"/><rect id="_矩形_12" data-name="&lt;矩形&gt;" class="cls-9" x="159.24" y="924.01" width="124.41" height="4.08" rx="2.04" ry="2.04"/><rect id="_矩形_13" data-name="&lt;矩形&gt;" class="cls-10" x="176.83" y="790.14" width="10.26" height="6.78"/><rect id="_矩形_14" data-name="&lt;矩形&gt;" class="cls-10" x="216.32" y="790.14" width="10.26" height="6.78"/><rect id="_矩形_15" data-name="&lt;矩形&gt;" class="cls-10" x="255.8" y="790.14" width="10.26" height="6.78"/></g></g><g id="_编组_6" data-name="&lt;编组&gt;"><path id="_复合路径_4" data-name="&lt;复合路径&gt;" class="cls-7" d="M173.64,739.68c0-5,4-7.42,8.5-7.42s8.53,2.3,8.53,7.42c0,5-4.14,7.37-8.53,7.37S173.64,744.67,173.64,739.68Zm15.46,0c0-3.85-3.21-5.71-7-5.71s-7,2-7,5.71,3.26,5.67,7,5.67S189.09,743.38,189.09,739.68Z"/><path id="_复合路径_5" data-name="&lt;复合路径&gt;" class="cls-7" d="M174,727.62h9.85c3.14,0,5.2-1.48,5.2-4.63,0-3-1.93-4.56-5.2-4.56H174v-1.71H184c4.5,0,6.69,2.52,6.69,6.27s-2.21,6.33-6.69,6.33H174Z"/><path id="_复合路径_6" data-name="&lt;复合路径&gt;" class="cls-7" d="M174,702.73h1.53v5.16h14.68v1.71H175.56v5.14H174Z"/></g><g id="_编组_7" data-name="&lt;编组&gt;"><path id="_复合路径_7" data-name="&lt;复合路径&gt;" class="cls-7" d="M213.33,745.32l14-5v0l-14-5v-1.88l16.21,5.91v1.95l-16.21,5.87Z"/><path id="_复合路径_8" data-name="&lt;复合路径&gt;" class="cls-7" d="M212.93,725c0-3.68,2.06-5.69,4.23-6.42l.29,1.75a4.67,4.67,0,0,0-3,4.67c0,3.28,2.3,5.45,7,5.45,4.25,0,7-2.21,7-5.45a4.82,4.82,0,0,0-3.21-4.87l.27-1.68A6.42,6.42,0,0,1,230,725c0,4.69-3.79,7.15-8.55,7.15S212.93,730,212.93,725Z"/><path id="_复合路径_9" data-name="&lt;复合路径&gt;" class="cls-7" d="M212.93,709.18c0-3.68,2.06-5.69,4.23-6.42l.29,1.75a4.67,4.67,0,0,0-3,4.67c0,3.28,2.3,5.45,7,5.45,4.25,0,7-2.21,7-5.45a4.82,4.82,0,0,0-3.21-4.87l.27-1.68a6.42,6.42,0,0,1,4.52,6.55c0,4.69-3.79,7.15-8.55,7.15S212.93,714.25,212.93,709.18Z"/></g><g id="_编组_8" data-name="&lt;编组&gt;"><path id="_复合路径_10" data-name="&lt;复合路径&gt;" class="cls-7" d="M252.42,741.4c0-4.1,2.35-5.6,4.47-6.51l.29,1.79a4.77,4.77,0,0,0-3.23,4.72c0,3.34,2.86,5.71,7,5.71,4.25,0,7-2.46,7-5.49a5.57,5.57,0,0,0-4.19-5.31h-1.75v4.94h-1.55v-6.67H269v1.55H265.7a6.14,6.14,0,0,1,3.74,5.69c0,3.61-3.08,7-8.55,7C255.83,748.82,252.42,745.78,252.42,741.4Z"/><path id="_复合路径_11" data-name="&lt;复合路径&gt;" class="cls-7" d="M252.82,729.07l13.46-9.48v0H252.82v-1.71H269v1.79l-13.46,9.43,0,0H269v1.73H252.82Z"/><path id="_复合路径_12" data-name="&lt;复合路径&gt;" class="cls-7" d="M252.82,708.14c0-5.29,4.19-7.17,8.08-7.17,4.65,0,8.13,2.3,8.13,7.48V714H252.82Zm14.68,4.16v-3.9c0-3.23-2.15-5.74-6.6-5.74-3.08,0-6.55,1.51-6.55,5.78v3.85Z"/></g><g id="_编组_9" data-name="&lt;编组&gt;"><rect id="_矩形_16" data-name="&lt;矩形&gt;" class="cls-11" x="36.91" y="684.07" width="17.32" height="43.57"/><rect id="_矩形_17" data-name="&lt;矩形&gt;" class="cls-12" x="37.21" y="690.3" width="16.71" height="29.78"/><polygon id="_路径_4" data-name="&lt;路径&gt;" class="cls-13" points="37.27 695.68 37.27 714.87 53.86 714.87 53.86 695.68 50.47 695.68 50.47 696.38 40.09 696.38 40.09 695.68 37.27 695.68"/></g><g id="_编组_10" data-name="&lt;编组&gt;"><rect id="_矩形_18" data-name="&lt;矩形&gt;" class="cls-11" x="64.92" y="684.07" width="17.32" height="43.57"/><rect id="_矩形_19" data-name="&lt;矩形&gt;" class="cls-12" x="65.23" y="690.3" width="16.71" height="29.78"/><polygon id="_路径_5" data-name="&lt;路径&gt;" class="cls-13" points="65.29 695.68 65.29 714.87 81.88 714.87 81.88 695.68 78.48 695.68 78.48 696.38 68.1 696.38 68.1 695.68 65.29 695.68"/></g><g id="_编组_11" data-name="&lt;编组&gt;"><rect id="_矩形_20" data-name="&lt;矩形&gt;" class="cls-11" x="36.91" y="737.4" width="17.32" height="13.51"/><rect id="_矩形_21" data-name="&lt;矩形&gt;" class="cls-11" x="36.91" y="764.31" width="17.32" height="13.51"/><g id="_编组_12" data-name="&lt;编组&gt;"><path id="_路径_6" data-name="&lt;路径&gt;" class="cls-14" d="M50.23,742.06a4.66,4.66,0,1,1-9.32,0H38.12v8.85H53v-8.85Z"/><path id="_路径_7" data-name="&lt;路径&gt;" class="cls-14" d="M40.91,773.16a4.66,4.66,0,1,1,9.32,0H53v-8.85H38.12v8.85Z"/><rect id="_矩形_22" data-name="&lt;矩形&gt;" class="cls-15" x="38.95" y="747.82" width="13.24" height="19.47"/></g></g><g id="_编组_13" data-name="&lt;编组&gt;"><rect id="_矩形_23" data-name="&lt;矩形&gt;" class="cls-11" x="64.92" y="737.4" width="17.32" height="13.51"/><rect id="_矩形_24" data-name="&lt;矩形&gt;" class="cls-11" x="64.92" y="764.31" width="17.32" height="13.51"/><path id="_路径_8" data-name="&lt;路径&gt;" class="cls-16" d="M78.24,742.06a4.66,4.66,0,1,1-9.32,0H66.14v8.85H81v-8.85Z"/><path id="_路径_9" data-name="&lt;路径&gt;" class="cls-16" d="M68.92,773.16a4.66,4.66,0,1,1,9.32,0H81v-8.85H66.14v8.85Z"/><rect id="_矩形_25" data-name="&lt;矩形&gt;" class="cls-17" x="66.97" y="747.82" width="13.24" height="19.47"/></g><g id="_编组_14" data-name="&lt;编组&gt;"><rect id="_矩形_26" data-name="&lt;矩形&gt;" class="cls-18" x="247.4" y="456.13" width="17.32" height="43.57"/><rect id="_矩形_27" data-name="&lt;矩形&gt;" class="cls-12" x="247.71" y="462.37" width="16.71" height="29.78"/><polygon id="_路径_10" data-name="&lt;路径&gt;" class="cls-13" points="247.77 467.74 247.77 486.93 264.35 486.93 264.35 467.74 260.96 467.74 260.96 468.45 250.58 468.45 250.58 467.74 247.77 467.74"/></g><g id="_编组_15" data-name="&lt;编组&gt;"><rect id="_矩形_28" data-name="&lt;矩形&gt;" class="cls-11" x="178.17" y="455.47" width="17.32" height="43.57"/><rect id="_矩形_29" data-name="&lt;矩形&gt;" class="cls-12" x="178.48" y="461.7" width="16.71" height="29.78"/><polygon id="_路径_11" data-name="&lt;路径&gt;" class="cls-13" points="178.54 467.08 178.54 486.27 195.12 486.27 195.12 467.08 191.73 467.08 191.73 467.78 181.35 467.78 181.35 467.08 178.54 467.08"/></g><g id="_编组_16" data-name="&lt;编组&gt;"><rect id="_矩形_30" data-name="&lt;矩形&gt;" class="cls-18" x="212.79" y="457.71" width="17.32" height="13.51"/><rect id="_矩形_31" data-name="&lt;矩形&gt;" class="cls-11" x="212.79" y="484.62" width="17.32" height="13.51"/><g id="_编组_17" data-name="&lt;编组&gt;"><rect id="_矩形_32" data-name="&lt;矩形&gt;" class="cls-19" x="214.83" y="468.13" width="13.24" height="19.47"/></g><rect id="_矩形_33" data-name="&lt;矩形&gt;" class="cls-18" x="219.05" y="481.09" width="4.74" height="14.67" transform="translate(-267 709.84) rotate(-90)"/><rect id="_矩形_34" data-name="&lt;矩形&gt;" class="cls-18" x="219.05" y="460.02" width="4.74" height="14.67" transform="translate(-245.94 688.77) rotate(-90)"/></g><g id="_编组_18" data-name="&lt;编组&gt;"><rect id="_矩形_35" data-name="&lt;矩形&gt;" class="cls-20" x="176.74" y="556.07" width="89.42" height="89.42" rx="5.41" ry="5.41"/><rect id="_矩形_36" data-name="&lt;矩形&gt;" class="cls-21" x="202.48" y="541.77" width="37.94" height="17.21"/><rect id="_矩形_37" data-name="&lt;矩形&gt;" class="cls-22" x="178.43" y="557.21" width="86.03" height="87.13" rx="3.86" ry="3.86"/><circle id="_路径_12" data-name="&lt;路径&gt;" class="cls-7" cx="221.45" cy="600.77" r="23.93"/><g id="_编组_19" data-name="&lt;编组&gt;"><rect id="_矩形_38" data-name="&lt;矩形&gt;" class="cls-21" x="188.74" y="644.34" width="24.15" height="14.56"/><rect id="_矩形_39" data-name="&lt;矩形&gt;" class="cls-21" x="229.99" y="644.34" width="24.15" height="14.56"/></g><polygon id="_路径_13" data-name="&lt;路径&gt;" class="cls-7" points="216.93 572.32 221.45 564.5 225.96 572.32 216.93 572.32"/><polygon id="_路径_14" data-name="&lt;路径&gt;" class="cls-7" points="192.99 605.29 185.18 600.77 192.99 596.26 192.99 605.29"/><polygon id="_路径_15" data-name="&lt;路径&gt;" class="cls-7" points="249.9 596.26 257.71 600.77 249.9 605.29 249.9 596.26"/><polygon id="_路径_16" data-name="&lt;路径&gt;" class="cls-7" points="238.38 577.46 247.09 575.13 244.76 583.84 238.38 577.46"/><rect id="_矩形_40" data-name="&lt;矩形&gt;" class="cls-20" x="190.85" y="644.34" width="19.94" height="1.82" rx="0.8" ry="0.8"/><rect id="_矩形_41" data-name="&lt;矩形&gt;" class="cls-20" x="204.81" y="555.83" width="33.33" height="1.41" rx="0.7" ry="0.7"/><rect id="_矩形_42" data-name="&lt;矩形&gt;" class="cls-20" x="232.1" y="644.34" width="19.94" height="1.82" rx="0.8" ry="0.8"/></g><g id="_编组_20" data-name="&lt;编组&gt;"><rect id="_矩形_43" data-name="&lt;矩形&gt;" class="cls-23" x="354.58" y="694.61" width="13.9" height="20.35"/><rect id="_矩形_44" data-name="&lt;矩形&gt;" class="cls-23" x="394.95" y="694.61" width="13.9" height="20.35"/><rect id="_矩形_45" data-name="&lt;矩形&gt;" class="cls-23" x="354.58" y="839.21" width="13.9" height="20.35"/><rect id="_矩形_46" data-name="&lt;矩形&gt;" class="cls-23" x="394.95" y="839.21" width="13.9" height="20.35"/><rect id="_矩形_47" data-name="&lt;矩形&gt;" class="cls-23" x="330.21" y="723.51" width="27.79" height="15.66"/><rect id="_矩形_48" data-name="&lt;矩形&gt;" class="cls-23" x="330.21" y="755.27" width="27.79" height="15.66"/><rect id="_矩形_49" data-name="&lt;矩形&gt;" class="cls-23" x="330.21" y="806.67" width="27.79" height="15.66"/><rect id="_矩形_50" data-name="&lt;矩形&gt;" class="cls-24" x="338.59" y="814.5" width="15.99" height="7.83"/><rect id="_矩形_51" data-name="&lt;矩形&gt;" class="cls-25" x="354.58" y="713.8" width="54.27" height="125.41"/><rect id="_矩形_52" data-name="&lt;矩形&gt;" class="cls-26" x="408.84" y="743.14" width="27.57" height="24.26"/><rect id="_矩形_53" data-name="&lt;矩形&gt;" class="cls-24" x="338.59" y="729.9" width="15.99" height="7.83"/><rect id="_矩形_54" data-name="&lt;矩形&gt;" class="cls-24" x="338.59" y="755.27" width="15.99" height="7.83"/></g><g id="_编组_21" data-name="&lt;编组&gt;"><rect id="_矩形_55" data-name="&lt;矩形&gt;" class="cls-27" x="368.48" y="858.87" width="26.47" height="27.85" transform="translate(1254.5 491.08) rotate(90)"/><g id="_编组_22" data-name="&lt;编组&gt;"><path id="_复合路径_13" data-name="&lt;复合路径&gt;" d="M390,881.14h-.47a2.49,2.49,0,0,0-.45-1.8,2.85,2.85,0,0,0-1.8-.4H376.17a2.9,2.9,0,0,0-1.84.39,2.65,2.65,0,0,0-.41,1.81h-.47V874.4a11.38,11.38,0,0,1,2-7.22,7.52,7.52,0,0,1,6.27-2.75,7.77,7.77,0,0,1,5.34,1.92q2.87,2.55,2.87,7.69Zm-14.63-4.74H388a.93.93,0,0,0,.82-.3,2.4,2.4,0,0,0,.2-1.2,12.17,12.17,0,0,0-.25-2.7,6.32,6.32,0,0,0-1.9-3.4,7.36,7.36,0,0,0-5.12-1.65,8.94,8.94,0,0,0-3.13.52,6.3,6.3,0,0,0-2.53,1.8,6,6,0,0,0-1.27,2.12,11.51,11.51,0,0,0-.47,3.62,1.32,1.32,0,0,0,.3,1A1.09,1.09,0,0,0,375.34,876.4Z"/></g></g><g id="_编组_23" data-name="&lt;编组&gt;"><rect id="_矩形_56" data-name="&lt;矩形&gt;" class="cls-27" x="368.48" y="667.45" width="26.47" height="27.85" transform="translate(1063.08 299.66) rotate(90)"/><g id="_编组_24" data-name="&lt;编组&gt;"><path id="_复合路径_14" data-name="&lt;复合路径&gt;" d="M389.65,672.75h.47v6.37h-.47a4,4,0,0,0-.13-1.22.8.8,0,0,0-.83-.52,2.32,2.32,0,0,0-.6.11q-.38.11-1,.35l-2.39,1v6.55l2.92,1.13a2.59,2.59,0,0,0,.95.21.92.92,0,0,0,.92-.65,3.18,3.18,0,0,0,.12-1h.47V690h-.47a1.59,1.59,0,0,0-.15-.74,2.2,2.2,0,0,0-.4-.54,7,7,0,0,0-1.6-.95q-.62-.3-1.95-.87l-12.26-5.19v-.5L387.48,675a6.79,6.79,0,0,0,1.79-1A1.69,1.69,0,0,0,389.65,672.75ZM383.71,685v-5.77l-6.86,2.9Z"/></g></g><rect id="_矩形_57" data-name="&lt;矩形&gt;" class="cls-28" x="408.84" y="743.14" width="2.23" height="24.26"/><g id="_编组_25" data-name="&lt;编组&gt;"><rect id="_矩形_58" data-name="&lt;矩形&gt;" class="cls-23" x="183.5" y="272.05" width="12.24" height="135.99" rx="6.12" ry="6.12"/><rect id="_矩形_59" data-name="&lt;矩形&gt;" class="cls-23" x="205.34" y="272.05" width="12.24" height="135.99" rx="6.12" ry="6.12"/><rect id="_矩形_60" data-name="&lt;矩形&gt;" class="cls-23" x="227.18" y="272.05" width="12.24" height="135.99" rx="6.12" ry="6.12"/><rect id="_矩形_61" data-name="&lt;矩形&gt;" class="cls-23" x="249.02" y="272.05" width="12.24" height="135.99" rx="6.12" ry="6.12"/><rect id="_矩形_62" data-name="&lt;矩形&gt;" class="cls-22" x="175.78" y="302.05" width="91.32" height="72.35"/><g id="_编组_26" data-name="&lt;编组&gt;"><rect id="_矩形_63" data-name="&lt;矩形&gt;" class="cls-29" x="185.66" y="282.64" width="7.94" height="19.41"/><rect id="_矩形_64" data-name="&lt;矩形&gt;" class="cls-30" x="185.66" y="289.5" width="7.94" height="7.53"/></g><g id="_编组_27" data-name="&lt;编组&gt;"><rect id="_矩形_65" data-name="&lt;矩形&gt;" class="cls-29" x="207.49" y="282.64" width="7.94" height="19.41"/><rect id="_矩形_66" data-name="&lt;矩形&gt;" class="cls-30" x="207.49" y="289.5" width="7.94" height="7.53"/></g><g id="_编组_28" data-name="&lt;编组&gt;"><rect id="_矩形_67" data-name="&lt;矩形&gt;" class="cls-29" x="229.33" y="282.64" width="7.94" height="19.41"/><rect id="_矩形_68" data-name="&lt;矩形&gt;" class="cls-30" x="229.33" y="289.5" width="7.94" height="7.53"/></g><g id="_编组_29" data-name="&lt;编组&gt;"><rect id="_矩形_69" data-name="&lt;矩形&gt;" class="cls-29" x="251.17" y="282.64" width="7.94" height="19.41"/><rect id="_矩形_70" data-name="&lt;矩形&gt;" class="cls-30" x="251.17" y="289.5" width="7.94" height="7.53"/></g><g id="_编组_30" data-name="&lt;编组&gt;"><rect id="_矩形_71" data-name="&lt;矩形&gt;" class="cls-29" x="251.17" y="374.4" width="7.94" height="19.41" transform="translate(510.28 768.22) rotate(-180)"/><rect id="_矩形_72" data-name="&lt;矩形&gt;" class="cls-30" x="251.17" y="379.42" width="7.94" height="7.53" transform="translate(510.28 766.37) rotate(-180)"/></g><g id="_编组_31" data-name="&lt;编组&gt;"><rect id="_矩形_73" data-name="&lt;矩形&gt;" class="cls-29" x="229.33" y="374.4" width="7.94" height="19.41" transform="translate(466.6 768.22) rotate(-180)"/><rect id="_矩形_74" data-name="&lt;矩形&gt;" class="cls-30" x="229.33" y="379.42" width="7.94" height="7.53" transform="translate(466.6 766.37) rotate(-180)"/></g><g id="_编组_32" data-name="&lt;编组&gt;"><rect id="_矩形_75" data-name="&lt;矩形&gt;" class="cls-29" x="207.49" y="374.4" width="7.94" height="19.41" transform="translate(422.93 768.22) rotate(-180)"/><rect id="_矩形_76" data-name="&lt;矩形&gt;" class="cls-30" x="207.49" y="379.42" width="7.94" height="7.53" transform="translate(422.93 766.37) rotate(-180)"/></g><g id="_编组_33" data-name="&lt;编组&gt;"><rect id="_矩形_77" data-name="&lt;矩形&gt;" class="cls-29" x="185.66" y="374.4" width="7.94" height="19.41" transform="translate(379.25 768.22) rotate(-180)"/><rect id="_矩形_78" data-name="&lt;矩形&gt;" class="cls-30" x="185.66" y="379.42" width="7.94" height="7.53" transform="translate(379.25 766.37) rotate(-180)"/></g><rect id="_矩形_79" data-name="&lt;矩形&gt;" class="cls-31" x="174.24" y="317.16" width="1.54" height="42.13" rx="0.77" ry="0.77"/><rect id="_矩形_80" data-name="&lt;矩形&gt;" class="cls-31" x="267.11" y="317.16" width="1.54" height="42.13" rx="0.77" ry="0.77"/></g><path class="cls-32" d="M253.19,209.39H189.7l-8.5-8.5V180l2.83-2.83h74.83L261.7,180v20.91Z"/><circle class="cls-33" cx="220.82" cy="194.18" r="7.83"/><circle class="cls-33" cx="243.95" cy="194.18" r="7.83"/><rect x="197.7" y="55.77" width="46.25" height="62.75"/><rect class="cls-34" x="182.7" y="55.77" width="15" height="62.75"/><rect class="cls-34" x="243.95" y="55.77" width="15" height="62.75"/><polygon class="cls-33" points="188.45 186.45 204.2 186.45 204.2 200.14 201.54 202.8 190.88 202.8 188.49 200.41 188.45 186.45"/><rect class="cls-35" x="192.95" y="188.93" width="9.5" height="8"/><rect class="cls-35" x="216.07" y="188.93" width="9.5" height="8"/><rect class="cls-35" x="239.2" y="188.93" width="9.5" height="8"/><rect class="cls-35" x="192.95" y="118.52" width="9.5" height="70.42"/><rect class="cls-35" x="216.07" y="118.52" width="9.5" height="70.42"/><rect class="cls-35" x="239.2" y="118.52" width="9.5" height="70.42"/></g></g></svg>