<svg xmlns="http://www.w3.org/2000/svg" xmlns:xlink="http://www.w3.org/1999/xlink" viewBox="0 0 467.76 1002.17"><defs><style>.cls-1{fill:url(#未命名的渐变_81);}.cls-2{fill:#161616;}.cls-3{fill:#990492;}.cls-4{fill:#70120e;}.cls-5{fill:#2d2d2d;}.cls-6{fill:#0a0a0a;}.cls-7{fill:#fff;opacity:0.29;}.cls-8{fill:#232323;}.cls-9{fill:#cc19cc;}</style><linearGradient id="未命名的渐变_81" x1="50.54" y1="500.23" x2="417.22" y2="500.23" gradientUnits="userSpaceOnUse"><stop offset="0" stop-color="#ffd046"/><stop offset="0.42" stop-color="#fdce45"/><stop offset="0.59" stop-color="#f6c941"/><stop offset="0.69" stop-color="#edc23c"/><stop offset="0.8" stop-color="#f5c841"/><stop offset="1" stop-color="#ffd046"/></linearGradient></defs><title>红外避障传感器</title><g id="图层_2" data-name="图层 2"><g id="图层_1-2" data-name="图层 1"><rect class="cls-1" x="50.54" y="51.61" width="366.68" height="897.24"/><rect class="cls-2" y="255" width="467.76" height="116.56"/><rect class="cls-2" y="390.9" width="467.76" height="116.56"/><rect x="27.57" y="371.56" width="412.62" height="19.34"/><rect class="cls-3" x="50.54" width="366.68" height="51.61"/><rect class="cls-4" x="50.54" y="42.75" width="366.68" height="8.86"/><rect class="cls-5" x="37.02" y="221.33" width="131.24" height="33.67"/><rect class="cls-6" x="168.26" y="221.33" width="131.24" height="33.67"/><rect class="cls-5" x="299.5" y="221.33" width="131.24" height="33.67"/><rect class="cls-5" x="37.02" y="507.46" width="131.24" height="33.67"/><rect class="cls-6" x="168.26" y="507.46" width="131.24" height="33.67"/><rect class="cls-5" x="299.5" y="507.46" width="131.24" height="33.67"/><rect class="cls-5" x="50.54" y="948.85" width="366.68" height="19.65"/><path class="cls-5" d="M156.19,968.5H311.57a0,0,0,0,1,0,0v25.16a8.5,8.5,0,0,1-8.5,8.5H164.69a8.5,8.5,0,0,1-8.5-8.5V968.5A0,0,0,0,1,156.19,968.5Z"/><rect class="cls-7" x="318.74" y="51.61" width="50" height="169.72"/><rect class="cls-7" x="318.74" y="539.5" width="50" height="409.35"/><path class="cls-8" d="M16.91,356.06h0a2.24,2.24,0,0,1-2.33-2.12V272.62a2.24,2.24,0,0,1,2.33-2.12h0a2.24,2.24,0,0,1,2.33,2.12v81.31A2.24,2.24,0,0,1,16.91,356.06Z"/><path class="cls-8" d="M30.89,356.06h0a2.24,2.24,0,0,1-2.33-2.12V272.62a2.24,2.24,0,0,1,2.33-2.12h0a2.24,2.24,0,0,1,2.33,2.12v81.31A2.24,2.24,0,0,1,30.89,356.06Z"/><path class="cls-8" d="M44.86,356.06h0a2.24,2.24,0,0,1-2.33-2.12V272.62a2.24,2.24,0,0,1,2.33-2.12h0a2.24,2.24,0,0,1,2.33,2.12v81.31A2.24,2.24,0,0,1,44.86,356.06Z"/><path class="cls-8" d="M58.84,356.06h0a2.24,2.24,0,0,1-2.33-2.12V272.62a2.24,2.24,0,0,1,2.33-2.12h0a2.24,2.24,0,0,1,2.33,2.12v81.31A2.24,2.24,0,0,1,58.84,356.06Z"/><path class="cls-8" d="M72.82,356.06h0a2.24,2.24,0,0,1-2.33-2.12V272.62a2.24,2.24,0,0,1,2.33-2.12h0a2.24,2.24,0,0,1,2.33,2.12v81.31A2.24,2.24,0,0,1,72.82,356.06Z"/><path class="cls-8" d="M86.8,356.06h0a2.24,2.24,0,0,1-2.33-2.12V272.62a2.24,2.24,0,0,1,2.33-2.12h0a2.24,2.24,0,0,1,2.33,2.12v81.31A2.24,2.24,0,0,1,86.8,356.06Z"/><path class="cls-8" d="M100.78,356.06h0a2.24,2.24,0,0,1-2.33-2.12V272.62a2.24,2.24,0,0,1,2.33-2.12h0a2.24,2.24,0,0,1,2.33,2.12v81.31A2.24,2.24,0,0,1,100.78,356.06Z"/><path class="cls-8" d="M114.76,356.06h0a2.24,2.24,0,0,1-2.33-2.12V272.62a2.24,2.24,0,0,1,2.33-2.12h0a2.24,2.24,0,0,1,2.33,2.12v81.31A2.24,2.24,0,0,1,114.76,356.06Z"/><path class="cls-8" d="M128.73,356.06h0a2.24,2.24,0,0,1-2.33-2.12V272.62a2.24,2.24,0,0,1,2.33-2.12h0a2.24,2.24,0,0,1,2.33,2.12v81.31A2.24,2.24,0,0,1,128.73,356.06Z"/><path class="cls-8" d="M142.71,356.06h0a2.24,2.24,0,0,1-2.33-2.12V272.62a2.24,2.24,0,0,1,2.33-2.12h0a2.24,2.24,0,0,1,2.33,2.12v81.31A2.24,2.24,0,0,1,142.71,356.06Z"/><path class="cls-8" d="M156.69,356.06h0a2.24,2.24,0,0,1-2.33-2.12V272.62a2.24,2.24,0,0,1,2.33-2.12h0a2.24,2.24,0,0,1,2.33,2.12v81.31A2.24,2.24,0,0,1,156.69,356.06Z"/><path class="cls-8" d="M170.67,356.06h0a2.24,2.24,0,0,1-2.33-2.12V272.62a2.24,2.24,0,0,1,2.33-2.12h0a2.24,2.24,0,0,1,2.33,2.12v81.31A2.24,2.24,0,0,1,170.67,356.06Z"/><path class="cls-8" d="M184.65,356.06h0a2.24,2.24,0,0,1-2.33-2.12V272.62a2.24,2.24,0,0,1,2.33-2.12h0a2.24,2.24,0,0,1,2.33,2.12v81.31A2.24,2.24,0,0,1,184.65,356.06Z"/><path class="cls-8" d="M198.63,356.06h0a2.24,2.24,0,0,1-2.33-2.12V272.62a2.24,2.24,0,0,1,2.33-2.12h0a2.24,2.24,0,0,1,2.33,2.12v81.31A2.24,2.24,0,0,1,198.63,356.06Z"/><path class="cls-8" d="M212.61,356.06h0a2.24,2.24,0,0,1-2.33-2.12V272.62a2.24,2.24,0,0,1,2.33-2.12h0a2.24,2.24,0,0,1,2.33,2.12v81.31A2.24,2.24,0,0,1,212.61,356.06Z"/><path class="cls-8" d="M226.58,356.06h0a2.24,2.24,0,0,1-2.33-2.12V272.62a2.24,2.24,0,0,1,2.33-2.12h0a2.24,2.24,0,0,1,2.33,2.12v81.31A2.24,2.24,0,0,1,226.58,356.06Z"/><path class="cls-8" d="M240.56,356.06h0a2.24,2.24,0,0,1-2.33-2.12V272.62a2.24,2.24,0,0,1,2.33-2.12h0a2.24,2.24,0,0,1,2.33,2.12v81.31A2.24,2.24,0,0,1,240.56,356.06Z"/><path class="cls-8" d="M254.54,356.06h0a2.24,2.24,0,0,1-2.33-2.12V272.62a2.24,2.24,0,0,1,2.33-2.12h0a2.24,2.24,0,0,1,2.33,2.12v81.31A2.24,2.24,0,0,1,254.54,356.06Z"/><path class="cls-8" d="M268.52,356.06h0a2.24,2.24,0,0,1-2.33-2.12V272.62a2.24,2.24,0,0,1,2.33-2.12h0a2.24,2.24,0,0,1,2.33,2.12v81.31A2.24,2.24,0,0,1,268.52,356.06Z"/><path class="cls-8" d="M282.5,356.06h0a2.24,2.24,0,0,1-2.33-2.12V272.62a2.24,2.24,0,0,1,2.33-2.12h0a2.24,2.24,0,0,1,2.33,2.12v81.31A2.24,2.24,0,0,1,282.5,356.06Z"/><path class="cls-8" d="M296.48,356.06h0a2.24,2.24,0,0,1-2.33-2.12V272.62a2.24,2.24,0,0,1,2.33-2.12h0a2.24,2.24,0,0,1,2.33,2.12v81.31A2.24,2.24,0,0,1,296.48,356.06Z"/><path class="cls-8" d="M310.46,356.06h0a2.24,2.24,0,0,1-2.33-2.12V272.62a2.24,2.24,0,0,1,2.33-2.12h0a2.24,2.24,0,0,1,2.33,2.12v81.31A2.24,2.24,0,0,1,310.46,356.06Z"/><path class="cls-8" d="M324.43,356.06h0a2.24,2.24,0,0,1-2.33-2.12V272.62a2.24,2.24,0,0,1,2.33-2.12h0a2.24,2.24,0,0,1,2.33,2.12v81.31A2.24,2.24,0,0,1,324.43,356.06Z"/><path class="cls-8" d="M338.41,356.06h0a2.24,2.24,0,0,1-2.33-2.12V272.62a2.24,2.24,0,0,1,2.33-2.12h0a2.24,2.24,0,0,1,2.33,2.12v81.31A2.24,2.24,0,0,1,338.41,356.06Z"/><path class="cls-8" d="M352.39,356.06h0a2.24,2.24,0,0,1-2.33-2.12V272.62a2.24,2.24,0,0,1,2.33-2.12h0a2.24,2.24,0,0,1,2.33,2.12v81.31A2.24,2.24,0,0,1,352.39,356.06Z"/><path class="cls-8" d="M366.37,356.06h0a2.24,2.24,0,0,1-2.33-2.12V272.62a2.24,2.24,0,0,1,2.33-2.12h0a2.24,2.24,0,0,1,2.33,2.12v81.31A2.24,2.24,0,0,1,366.37,356.06Z"/><path class="cls-8" d="M380.35,356.06h0a2.24,2.24,0,0,1-2.33-2.12V272.62a2.24,2.24,0,0,1,2.33-2.12h0a2.24,2.24,0,0,1,2.33,2.12v81.31A2.24,2.24,0,0,1,380.35,356.06Z"/><path class="cls-8" d="M394.33,356.06h0a2.24,2.24,0,0,1-2.33-2.12V272.62a2.24,2.24,0,0,1,2.33-2.12h0a2.24,2.24,0,0,1,2.33,2.12v81.31A2.24,2.24,0,0,1,394.33,356.06Z"/><path class="cls-8" d="M408.3,356.06h0a2.24,2.24,0,0,1-2.33-2.12V272.62a2.24,2.24,0,0,1,2.33-2.12h0a2.24,2.24,0,0,1,2.33,2.12v81.31A2.24,2.24,0,0,1,408.3,356.06Z"/><path class="cls-8" d="M422.28,356.06h0a2.24,2.24,0,0,1-2.33-2.12V272.62a2.24,2.24,0,0,1,2.33-2.12h0a2.24,2.24,0,0,1,2.33,2.12v81.31A2.24,2.24,0,0,1,422.28,356.06Z"/><path class="cls-8" d="M436.26,356.06h0a2.24,2.24,0,0,1-2.33-2.12V272.62a2.24,2.24,0,0,1,2.33-2.12h0a2.24,2.24,0,0,1,2.33,2.12v81.31A2.24,2.24,0,0,1,436.26,356.06Z"/><path class="cls-8" d="M450.24,356.06h0a2.24,2.24,0,0,1-2.33-2.12V272.62a2.24,2.24,0,0,1,2.33-2.12h0a2.24,2.24,0,0,1,2.33,2.12v81.31A2.24,2.24,0,0,1,450.24,356.06Z"/><path class="cls-8" d="M16.91,492h0a2.24,2.24,0,0,1-2.33-2.12V408.52a2.24,2.24,0,0,1,2.33-2.12h0a2.24,2.24,0,0,1,2.33,2.12v81.31A2.24,2.24,0,0,1,16.91,492Z"/><path class="cls-8" d="M30.89,492h0a2.24,2.24,0,0,1-2.33-2.12V408.52a2.24,2.24,0,0,1,2.33-2.12h0a2.24,2.24,0,0,1,2.33,2.12v81.31A2.24,2.24,0,0,1,30.89,492Z"/><path class="cls-8" d="M44.86,492h0a2.24,2.24,0,0,1-2.33-2.12V408.52a2.24,2.24,0,0,1,2.33-2.12h0a2.24,2.24,0,0,1,2.33,2.12v81.31A2.24,2.24,0,0,1,44.86,492Z"/><path class="cls-8" d="M58.84,492h0a2.24,2.24,0,0,1-2.33-2.12V408.52a2.24,2.24,0,0,1,2.33-2.12h0a2.24,2.24,0,0,1,2.33,2.12v81.31A2.24,2.24,0,0,1,58.84,492Z"/><path class="cls-8" d="M72.82,492h0a2.24,2.24,0,0,1-2.33-2.12V408.52a2.24,2.24,0,0,1,2.33-2.12h0a2.24,2.24,0,0,1,2.33,2.12v81.31A2.24,2.24,0,0,1,72.82,492Z"/><path class="cls-8" d="M86.8,492h0a2.24,2.24,0,0,1-2.33-2.12V408.52a2.24,2.24,0,0,1,2.33-2.12h0a2.24,2.24,0,0,1,2.33,2.12v81.31A2.24,2.24,0,0,1,86.8,492Z"/><path class="cls-8" d="M100.78,492h0a2.24,2.24,0,0,1-2.33-2.12V408.52a2.24,2.24,0,0,1,2.33-2.12h0a2.24,2.24,0,0,1,2.33,2.12v81.31A2.24,2.24,0,0,1,100.78,492Z"/><path class="cls-8" d="M114.76,492h0a2.24,2.24,0,0,1-2.33-2.12V408.52a2.24,2.24,0,0,1,2.33-2.12h0a2.24,2.24,0,0,1,2.33,2.12v81.31A2.24,2.24,0,0,1,114.76,492Z"/><path class="cls-8" d="M128.73,492h0a2.24,2.24,0,0,1-2.33-2.12V408.52a2.24,2.24,0,0,1,2.33-2.12h0a2.24,2.24,0,0,1,2.33,2.12v81.31A2.24,2.24,0,0,1,128.73,492Z"/><path class="cls-8" d="M142.71,492h0a2.24,2.24,0,0,1-2.33-2.12V408.52a2.24,2.24,0,0,1,2.33-2.12h0a2.24,2.24,0,0,1,2.33,2.12v81.31A2.24,2.24,0,0,1,142.71,492Z"/><path class="cls-8" d="M156.69,492h0a2.24,2.24,0,0,1-2.33-2.12V408.52a2.24,2.24,0,0,1,2.33-2.12h0a2.24,2.24,0,0,1,2.33,2.12v81.31A2.24,2.24,0,0,1,156.69,492Z"/><path class="cls-8" d="M170.67,492h0a2.24,2.24,0,0,1-2.33-2.12V408.52a2.24,2.24,0,0,1,2.33-2.12h0a2.24,2.24,0,0,1,2.33,2.12v81.31A2.24,2.24,0,0,1,170.67,492Z"/><path class="cls-8" d="M184.65,492h0a2.24,2.24,0,0,1-2.33-2.12V408.52a2.24,2.24,0,0,1,2.33-2.12h0a2.24,2.24,0,0,1,2.33,2.12v81.31A2.24,2.24,0,0,1,184.65,492Z"/><path class="cls-8" d="M198.63,492h0a2.24,2.24,0,0,1-2.33-2.12V408.52a2.24,2.24,0,0,1,2.33-2.12h0a2.24,2.24,0,0,1,2.33,2.12v81.31A2.24,2.24,0,0,1,198.63,492Z"/><path class="cls-8" d="M212.61,492h0a2.24,2.24,0,0,1-2.33-2.12V408.52a2.24,2.24,0,0,1,2.33-2.12h0a2.24,2.24,0,0,1,2.33,2.12v81.31A2.24,2.24,0,0,1,212.61,492Z"/><path class="cls-8" d="M226.58,492h0a2.24,2.24,0,0,1-2.33-2.12V408.52a2.24,2.24,0,0,1,2.33-2.12h0a2.24,2.24,0,0,1,2.33,2.12v81.31A2.24,2.24,0,0,1,226.58,492Z"/><path class="cls-8" d="M240.56,492h0a2.24,2.24,0,0,1-2.33-2.12V408.52a2.24,2.24,0,0,1,2.33-2.12h0a2.24,2.24,0,0,1,2.33,2.12v81.31A2.24,2.24,0,0,1,240.56,492Z"/><path class="cls-8" d="M254.54,492h0a2.24,2.24,0,0,1-2.33-2.12V408.52a2.24,2.24,0,0,1,2.33-2.12h0a2.24,2.24,0,0,1,2.33,2.12v81.31A2.24,2.24,0,0,1,254.54,492Z"/><path class="cls-8" d="M268.52,492h0a2.24,2.24,0,0,1-2.33-2.12V408.52a2.24,2.24,0,0,1,2.33-2.12h0a2.24,2.24,0,0,1,2.33,2.12v81.31A2.24,2.24,0,0,1,268.52,492Z"/><path class="cls-8" d="M282.5,492h0a2.24,2.24,0,0,1-2.33-2.12V408.52a2.24,2.24,0,0,1,2.33-2.12h0a2.24,2.24,0,0,1,2.33,2.12v81.31A2.24,2.24,0,0,1,282.5,492Z"/><path class="cls-8" d="M296.48,492h0a2.24,2.24,0,0,1-2.33-2.12V408.52a2.24,2.24,0,0,1,2.33-2.12h0a2.24,2.24,0,0,1,2.33,2.12v81.31A2.24,2.24,0,0,1,296.48,492Z"/><path class="cls-8" d="M310.46,492h0a2.24,2.24,0,0,1-2.33-2.12V408.52a2.24,2.24,0,0,1,2.33-2.12h0a2.24,2.24,0,0,1,2.33,2.12v81.31A2.24,2.24,0,0,1,310.46,492Z"/><path class="cls-8" d="M324.43,492h0a2.24,2.24,0,0,1-2.33-2.12V408.52a2.24,2.24,0,0,1,2.33-2.12h0a2.24,2.24,0,0,1,2.33,2.12v81.31A2.24,2.24,0,0,1,324.43,492Z"/><path class="cls-8" d="M338.41,492h0a2.24,2.24,0,0,1-2.33-2.12V408.52a2.24,2.24,0,0,1,2.33-2.12h0a2.24,2.24,0,0,1,2.33,2.12v81.31A2.24,2.24,0,0,1,338.41,492Z"/><path class="cls-8" d="M352.39,492h0a2.24,2.24,0,0,1-2.33-2.12V408.52a2.24,2.24,0,0,1,2.33-2.12h0a2.24,2.24,0,0,1,2.33,2.12v81.31A2.24,2.24,0,0,1,352.39,492Z"/><path class="cls-8" d="M366.37,492h0a2.24,2.24,0,0,1-2.33-2.12V408.52a2.24,2.24,0,0,1,2.33-2.12h0a2.24,2.24,0,0,1,2.33,2.12v81.31A2.24,2.24,0,0,1,366.37,492Z"/><path class="cls-8" d="M380.35,492h0a2.24,2.24,0,0,1-2.33-2.12V408.52a2.24,2.24,0,0,1,2.33-2.12h0a2.24,2.24,0,0,1,2.33,2.12v81.31A2.24,2.24,0,0,1,380.35,492Z"/><path class="cls-8" d="M394.33,492h0a2.24,2.24,0,0,1-2.33-2.12V408.52a2.24,2.24,0,0,1,2.33-2.12h0a2.24,2.24,0,0,1,2.33,2.12v81.31A2.24,2.24,0,0,1,394.33,492Z"/><path class="cls-8" d="M408.3,492h0a2.24,2.24,0,0,1-2.33-2.12V408.52a2.24,2.24,0,0,1,2.33-2.12h0a2.24,2.24,0,0,1,2.33,2.12v81.31A2.24,2.24,0,0,1,408.3,492Z"/><path class="cls-8" d="M422.28,492h0a2.24,2.24,0,0,1-2.33-2.12V408.52a2.24,2.24,0,0,1,2.33-2.12h0a2.24,2.24,0,0,1,2.33,2.12v81.31A2.24,2.24,0,0,1,422.28,492Z"/><path class="cls-8" d="M436.26,492h0a2.24,2.24,0,0,1-2.33-2.12V408.52a2.24,2.24,0,0,1,2.33-2.12h0a2.24,2.24,0,0,1,2.33,2.12v81.31A2.24,2.24,0,0,1,436.26,492Z"/><path class="cls-8" d="M450.24,492h0a2.24,2.24,0,0,1-2.33-2.12V408.52a2.24,2.24,0,0,1,2.33-2.12h0a2.24,2.24,0,0,1,2.33,2.12v81.31A2.24,2.24,0,0,1,450.24,492Z"/><rect class="cls-9" x="322.1" width="42.75" height="42.75"/></g></g></svg>