<svg xmlns="http://www.w3.org/2000/svg" xmlns:xlink="http://www.w3.org/1999/xlink" viewBox="0 0 475.05 928.09"><defs><style>.cls-1{fill:#353535;}.cls-2,.cls-24,.cls-3{fill:none;}.cls-11,.cls-16,.cls-24,.cls-3,.cls-5{stroke:#fff;}.cls-11,.cls-15,.cls-16,.cls-17,.cls-24,.cls-3,.cls-5{stroke-miterlimit:10;}.cls-3{stroke-width:3.31px;}.cls-4{fill:#f2cb6b;}.cls-16,.cls-5{fill:#d0ab3c;}.cls-5{stroke-width:1.99px;}.cls-6{fill:#f0c581;}.cls-7{fill:#c8a266;}.cls-25,.cls-8{fill:#fff;}.cls-9{fill:#f4cb70;}.cls-10{fill:#c6c5c5;}.cls-11{fill:#9b9b9b;}.cls-11,.cls-15,.cls-17{stroke-width:0.66px;}.cls-12{fill:#d2d3d3;}.cls-13{fill:#030000;}.cls-14{fill:#bb8c27;}.cls-15{fill:#ff4a5c;stroke:#681216;}.cls-16{stroke-width:1.32px;}.cls-17{fill:#f99f46;stroke:#ef973f;}.cls-18{fill:#aaa;}.cls-19{fill:url(#未命名的渐变_8);}.cls-20{fill:url(#未命名的渐变_25);}.cls-21{fill:url(#未命名的渐变_20);}.cls-22{fill:#888;}.cls-23{fill:#3d3d3d;}.cls-24{stroke-width:2px;}.cls-25{font-size:15px;font-family:AzoSans-Regular, Azo Sans;}</style><radialGradient id="未命名的渐变_8" cx="131.22" cy="234" r="369.79" gradientUnits="userSpaceOnUse"><stop offset="0" stop-color="#5f5f5f"/><stop offset="1" stop-color="#4d4d4d"/></radialGradient><radialGradient id="未命名的渐变_25" cx="237.52" cy="356.5" r="168.74" gradientUnits="userSpaceOnUse"><stop offset="0" stop-color="#484848"/><stop offset="0.85" stop-color="#666"/><stop offset="1" stop-color="#4d4d4d"/></radialGradient><radialGradient id="未命名的渐变_20" cx="-4594.09" cy="502.57" r="212.89" gradientTransform="translate(-4295.37 929.59) rotate(180)" gradientUnits="userSpaceOnUse"><stop offset="0" stop-color="#484848"/><stop offset="1" stop-color="#4d4d4d"/></radialGradient></defs><title>摇杆模块</title><g id="图层_2" data-name="图层 2"><g id="图层_1-2" data-name="图层 1"><path id="_复合路径_" data-name="&lt;复合路径&gt;" class="cls-1" d="M401,0H74A57.92,57.92,0,0,0,16.08,57.92V870.17A57.92,57.92,0,0,0,74,928.09H401A57.92,57.92,0,0,0,459,870.17V57.92A57.92,57.92,0,0,0,401,0Zm13.12,549.87a6.37,6.37,0,1,1,0,9A6.37,6.37,0,0,1,414.17,549.87ZM393,537.38a6.37,6.37,0,1,1-6.37,6.37A6.37,6.37,0,0,1,393,537.38Zm-30.15,12.49a6.37,6.37,0,1,1,0,9A6.37,6.37,0,0,1,362.87,549.87Zm-259.7,0a6.37,6.37,0,1,1,0,9A6.37,6.37,0,0,1,103.17,549.87ZM82,537.38a6.37,6.37,0,1,1-6.37,6.37A6.37,6.37,0,0,1,82,537.38ZM51.87,549.87a6.37,6.37,0,1,1,0,9A6.37,6.37,0,0,1,51.87,549.87ZM39.38,580a6.37,6.37,0,1,1,6.37,6.37A6.37,6.37,0,0,1,39.38,580Zm21.5,30.15a6.37,6.37,0,1,1,0-9A6.37,6.37,0,0,1,60.88,610.17ZM82,622.66a6.37,6.37,0,1,1,6.37-6.37A6.37,6.37,0,0,1,82,622.66Zm0-17A25.65,25.65,0,1,1,107.67,580,25.65,25.65,0,0,1,82,605.67Zm30.15,4.5a6.37,6.37,0,1,1,0-9A6.37,6.37,0,0,1,112.18,610.17Zm6.12-23.78a6.37,6.37,0,1,1,6.37-6.37A6.37,6.37,0,0,1,118.3,586.39ZM350.38,580a6.37,6.37,0,1,1,6.37,6.37A6.37,6.37,0,0,1,350.38,580Zm21.5,30.15a6.37,6.37,0,1,1,0-9A6.37,6.37,0,0,1,371.88,610.17ZM393,622.66a6.37,6.37,0,1,1,6.37-6.37A6.37,6.37,0,0,1,393,622.66Zm0-17A25.65,25.65,0,1,1,418.67,580,25.65,25.65,0,0,1,393,605.67Zm30.15,4.5a6.37,6.37,0,1,1,0-9A6.37,6.37,0,0,1,423.18,610.17Zm6.12-23.78a6.37,6.37,0,1,1,6.37-6.37A6.37,6.37,0,0,1,429.3,586.39Z"/><circle id="_路径_" data-name="&lt;路径&gt;" class="cls-2" cx="82.02" cy="580.02" r="24.19"/><circle id="_路径_2" data-name="&lt;路径&gt;" class="cls-3" cx="82.02" cy="580.02" r="48.21"/><circle id="_路径_3" data-name="&lt;路径&gt;" class="cls-3" cx="393.02" cy="580.02" r="48.21"/><path id="_复合路径_2" data-name="&lt;复合路径&gt;" class="cls-4" d="M393,531.66A48.37,48.37,0,1,0,441.39,580,48.42,48.42,0,0,0,393,531.66Zm21.15,18.21a6.37,6.37,0,1,1,0,9A6.37,6.37,0,0,1,414.17,549.87ZM393,537.38a6.37,6.37,0,1,1-6.37,6.37A6.37,6.37,0,0,1,393,537.38Zm-30.15,12.49a6.37,6.37,0,1,1,0,9A6.37,6.37,0,0,1,362.87,549.87Zm-6.12,36.52a6.37,6.37,0,1,1,6.37-6.37A6.37,6.37,0,0,1,356.75,586.39Zm15.13,23.78a6.37,6.37,0,1,1,0-9A6.37,6.37,0,0,1,371.88,610.17ZM393,622.66a6.37,6.37,0,1,1,6.37-6.37A6.37,6.37,0,0,1,393,622.66Zm0-18.46A24.18,24.18,0,1,1,417.21,580,24.21,24.21,0,0,1,393,604.2Zm30.15,6a6.37,6.37,0,1,1,0-9A6.37,6.37,0,0,1,423.18,610.17Zm6.12-23.78a6.37,6.37,0,1,1,6.37-6.37A6.37,6.37,0,0,1,429.3,586.39Z"/><path id="_复合路径_3" data-name="&lt;复合路径&gt;" class="cls-4" d="M82,531.66A48.37,48.37,0,1,0,130.39,580,48.42,48.42,0,0,0,82,531.66Zm21.15,18.21a6.37,6.37,0,1,1,0,9A6.37,6.37,0,0,1,103.17,549.87ZM82,537.38a6.37,6.37,0,1,1-6.37,6.37A6.37,6.37,0,0,1,82,537.38ZM51.87,549.87a6.37,6.37,0,1,1,0,9A6.37,6.37,0,0,1,51.87,549.87Zm-6.12,36.52A6.37,6.37,0,1,1,52.12,580,6.37,6.37,0,0,1,45.75,586.39Zm15.13,23.78a6.37,6.37,0,1,1,0-9A6.37,6.37,0,0,1,60.88,610.17ZM82,622.66a6.37,6.37,0,1,1,6.37-6.37A6.37,6.37,0,0,1,82,622.66Zm0-18.46A24.18,24.18,0,1,1,106.21,580,24.21,24.21,0,0,1,82,604.2Zm30.15,6a6.37,6.37,0,1,1,0-9A6.37,6.37,0,0,1,112.18,610.17Zm6.12-23.78a6.37,6.37,0,1,1,6.37-6.37A6.37,6.37,0,0,1,118.3,586.39Z"/><g id="_编组_" data-name="&lt;编组&gt;"><rect id="_矩形_" data-name="&lt;矩形&gt;" class="cls-5" x="176.53" y="762.05" width="18.53" height="56.47"/><rect id="_矩形_2" data-name="&lt;矩形&gt;" class="cls-6" x="180.67" y="767.06" width="10.26" height="52.94" rx="5.13" ry="5.13"/></g><rect id="_矩形_3" data-name="&lt;矩形&gt;" class="cls-7" x="180.67" y="790.14" width="10.26" height="6.78"/><g id="_编组_2" data-name="&lt;编组&gt;"><rect id="_矩形_4" data-name="&lt;矩形&gt;" class="cls-5" x="212.14" y="762.05" width="18.53" height="56.47"/><rect id="_矩形_5" data-name="&lt;矩形&gt;" class="cls-6" x="216.28" y="767.06" width="10.26" height="52.94" rx="5.13" ry="5.13"/></g><rect id="_矩形_6" data-name="&lt;矩形&gt;" class="cls-7" x="216.28" y="790.14" width="10.26" height="6.78"/><g id="_编组_3" data-name="&lt;编组&gt;"><rect id="_矩形_7" data-name="&lt;矩形&gt;" class="cls-5" x="247.75" y="762.05" width="18.53" height="56.47"/><rect id="_矩形_8" data-name="&lt;矩形&gt;" class="cls-6" x="251.88" y="767.06" width="10.26" height="52.94" rx="5.13" ry="5.13"/></g><rect id="_矩形_9" data-name="&lt;矩形&gt;" class="cls-7" x="251.88" y="790.14" width="10.26" height="6.78"/><g id="_编组_4" data-name="&lt;编组&gt;"><rect id="_矩形_10" data-name="&lt;矩形&gt;" class="cls-5" x="283.35" y="762.05" width="18.53" height="56.47"/><rect id="_矩形_11" data-name="&lt;矩形&gt;" class="cls-6" x="287.49" y="767.06" width="10.26" height="52.94" rx="5.13" ry="5.13"/></g><rect id="_矩形_12" data-name="&lt;矩形&gt;" class="cls-7" x="287.49" y="790.14" width="10.26" height="6.78"/><rect id="_矩形_13" data-name="&lt;矩形&gt;" class="cls-8" x="128.66" y="809.75" width="217.72" height="114.27"/><rect id="_矩形_14" data-name="&lt;矩形&gt;" class="cls-9" x="178.99" y="831.15" width="10.26" height="71.47"/><rect id="_矩形_15" data-name="&lt;矩形&gt;" class="cls-9" x="285.81" y="832.8" width="10.26" height="71.47"/><rect id="_矩形_16" data-name="&lt;矩形&gt;" class="cls-10" x="128.66" y="777.32" width="18.53" height="32.43"/><rect id="_矩形_17" data-name="&lt;矩形&gt;" class="cls-10" x="327.86" y="777.32" width="18.53" height="32.43"/><rect id="_矩形_18" data-name="&lt;矩形&gt;" class="cls-10" x="175.32" y="924.01" width="124.41" height="4.08" rx="2.04" ry="2.04"/><path id="_复合路径_4" data-name="&lt;复合路径&gt;" class="cls-8" d="M212.51,741.28c0-5,4-7.42,8.5-7.42s8.53,2.3,8.53,7.42c0,5-4.14,7.37-8.53,7.37S212.51,746.26,212.51,741.28Zm15.46,0c0-3.85-3.21-5.71-7-5.71s-7,2-7,5.71,3.26,5.67,7,5.67S228,745,228,741.28Z"/><path id="_复合路径_5" data-name="&lt;复合路径&gt;" class="cls-8" d="M212.91,729.21h9.85c3.14,0,5.2-1.48,5.2-4.63,0-3-1.93-4.56-5.2-4.56h-9.85v-1.71h9.94c4.5,0,6.69,2.52,6.69,6.27s-2.21,6.33-6.69,6.33h-9.94Z"/><path id="_复合路径_6" data-name="&lt;复合路径&gt;" class="cls-8" d="M212.91,704.32h1.53v5.16h14.68v1.71H214.44v5.14h-1.53Z"/><path id="_复合路径_7" data-name="&lt;复合路径&gt;" class="cls-8" d="M248.5,741.28c0-5,4-7.42,8.5-7.42s8.53,2.3,8.53,7.42c0,5-4.14,7.37-8.53,7.37S248.5,746.26,248.5,741.28Zm15.46,0c0-3.85-3.21-5.71-7-5.71s-7,2-7,5.71,3.26,5.67,7,5.67S264,745,264,741.28Z"/><path id="_复合路径_8" data-name="&lt;复合路径&gt;" class="cls-8" d="M248.89,729.21h9.85c3.14,0,5.2-1.48,5.2-4.63,0-3-1.93-4.56-5.2-4.56h-9.85v-1.71h9.94c4.5,0,6.69,2.52,6.69,6.27s-2.21,6.33-6.69,6.33h-9.94Z"/><path id="_复合路径_9" data-name="&lt;复合路径&gt;" class="cls-8" d="M248.89,704.32h1.53v5.16H265.1v1.71H250.42v5.14h-1.53Z"/><path id="_复合路径_10" data-name="&lt;复合路径&gt;" class="cls-8" d="M177.57,746.89l14-5v0l-14-5V735l16.21,5.91v1.95l-16.21,5.87Z"/><path id="_复合路径_11" data-name="&lt;复合路径&gt;" class="cls-8" d="M177.17,726.54c0-3.68,2.06-5.69,4.23-6.42l.29,1.75a4.67,4.67,0,0,0-3,4.67c0,3.28,2.3,5.45,7,5.45,4.25,0,7-2.21,7-5.45a4.82,4.82,0,0,0-3.21-4.87l.27-1.68a6.42,6.42,0,0,1,4.52,6.55c0,4.69-3.79,7.15-8.55,7.15S177.17,731.61,177.17,726.54Z"/><path id="_复合路径_12" data-name="&lt;复合路径&gt;" class="cls-8" d="M177.17,710.75c0-3.68,2.06-5.69,4.23-6.42l.29,1.75a4.67,4.67,0,0,0-3,4.67c0,3.28,2.3,5.45,7,5.45,4.25,0,7-2.21,7-5.45a4.82,4.82,0,0,0-3.21-4.87l.27-1.68a6.42,6.42,0,0,1,4.52,6.55c0,4.69-3.79,7.15-8.55,7.15S177.17,715.83,177.17,710.75Z"/><path id="_复合路径_13" data-name="&lt;复合路径&gt;" class="cls-8" d="M284.1,741.12c0-4.1,2.35-5.6,4.47-6.51l.29,1.79a4.77,4.77,0,0,0-3.23,4.72c0,3.34,2.86,5.71,7,5.71,4.25,0,7-2.46,7-5.49a5.57,5.57,0,0,0-4.19-5.31h-1.75V741h-1.55V734.3h8.64v1.55h-3.32a6.14,6.14,0,0,1,3.74,5.69c0,3.61-3.08,7-8.55,7C287.51,748.54,284.1,745.51,284.1,741.12Z"/><path id="_复合路径_14" data-name="&lt;复合路径&gt;" class="cls-8" d="M284.5,728.79,298,719.31v0H284.5v-1.71h16.21v1.79l-13.46,9.43,0,0h13.49v1.73H284.5Z"/><path id="_复合路径_15" data-name="&lt;复合路径&gt;" class="cls-8" d="M284.5,707.87c0-5.29,4.19-7.17,8.08-7.17,4.65,0,8.13,2.3,8.13,7.48v5.58H284.5ZM299.18,712v-3.9c0-3.23-2.15-5.74-6.6-5.74-3.08,0-6.55,1.51-6.55,5.78V712Z"/><rect id="_矩形_19" data-name="&lt;矩形&gt;" class="cls-11" x="54.08" y="684.07" width="17.32" height="43.57"/><rect id="_矩形_20" data-name="&lt;矩形&gt;" class="cls-12" x="54.39" y="690.3" width="16.71" height="29.78"/><polygon id="_路径_4" data-name="&lt;路径&gt;" class="cls-13" points="54.45 695.68 54.45 714.87 71.04 714.87 71.04 695.68 67.64 695.68 67.64 696.38 57.26 696.38 57.26 695.68 54.45 695.68"/><rect id="_矩形_21" data-name="&lt;矩形&gt;" class="cls-11" x="54.08" y="737.4" width="17.32" height="13.51"/><rect id="_矩形_22" data-name="&lt;矩形&gt;" class="cls-11" x="54.08" y="764.31" width="17.32" height="13.51"/><path id="_路径_5" data-name="&lt;路径&gt;" class="cls-14" d="M67.4,742.06a4.66,4.66,0,1,1-9.32,0H55.3v8.85H70.19v-8.85Z"/><path id="_路径_6" data-name="&lt;路径&gt;" class="cls-14" d="M58.08,773.16a4.66,4.66,0,1,1,9.32,0h2.79v-8.85H55.3v8.85Z"/><rect id="_矩形_23" data-name="&lt;矩形&gt;" class="cls-15" x="56.13" y="747.82" width="13.24" height="19.47"/><rect id="_矩形_24" data-name="&lt;矩形&gt;" class="cls-16" x="186.4" y="559.81" width="17.32" height="13.51"/><rect id="_矩形_25" data-name="&lt;矩形&gt;" class="cls-11" x="186.4" y="586.72" width="17.32" height="13.51"/><rect id="_矩形_26" data-name="&lt;矩形&gt;" class="cls-17" x="188.44" y="570.23" width="13.24" height="19.47"/><rect id="_矩形_27" data-name="&lt;矩形&gt;" class="cls-18" x="192.66" y="583.19" width="4.74" height="14.67" transform="translate(-395.49 785.56) rotate(-90)"/><rect id="_矩形_28" data-name="&lt;矩形&gt;" class="cls-18" x="192.66" y="562.12" width="4.74" height="14.67" transform="translate(-374.42 764.49) rotate(-90)"/><rect id="_矩形_29" data-name="&lt;矩形&gt;" class="cls-16" x="226.34" y="559.81" width="17.32" height="13.51"/><rect id="_矩形_30" data-name="&lt;矩形&gt;" class="cls-11" x="226.34" y="586.72" width="17.32" height="13.51"/><rect id="_矩形_31" data-name="&lt;矩形&gt;" class="cls-17" x="228.38" y="570.23" width="13.24" height="19.47"/><rect id="_矩形_32" data-name="&lt;矩形&gt;" class="cls-18" x="232.6" y="583.19" width="4.74" height="14.67" transform="translate(-355.55 825.49) rotate(-90)"/><rect id="_矩形_33" data-name="&lt;矩形&gt;" class="cls-18" x="232.6" y="562.12" width="4.74" height="14.67" transform="translate(-334.49 804.43) rotate(-90)"/><rect id="_矩形_34" data-name="&lt;矩形&gt;" class="cls-16" x="266.28" y="559.81" width="17.32" height="13.51"/><rect id="_矩形_35" data-name="&lt;矩形&gt;" class="cls-11" x="266.28" y="586.72" width="17.32" height="13.51"/><rect id="_矩形_36" data-name="&lt;矩形&gt;" class="cls-17" x="268.32" y="570.23" width="13.24" height="19.47"/><rect id="_矩形_37" data-name="&lt;矩形&gt;" class="cls-18" x="272.53" y="583.19" width="4.74" height="14.67" transform="translate(-315.62 865.43) rotate(-90)"/><rect id="_矩形_38" data-name="&lt;矩形&gt;" class="cls-18" x="272.53" y="562.12" width="4.74" height="14.67" transform="translate(-294.55 844.36) rotate(-90)"/><circle id="_路径_7" data-name="&lt;路径&gt;" class="cls-19" cx="237.52" cy="356.5" r="237.52"/><circle id="_路径_8" data-name="&lt;路径&gt;" class="cls-20" cx="237.52" cy="356.5" r="168.74"/><circle id="_路径_9" data-name="&lt;路径&gt;" class="cls-21" cx="237.52" cy="356.5" r="136.75"/><path id="_路径_10" data-name="&lt;路径&gt;" class="cls-22" d="M373.08,342.29A153.78,153.78,0,0,1,223.46,491.91q6.68.66,13.54.67A136.75,136.75,0,0,0,373.74,355.83Q373.74,349,373.08,342.29Z"/><circle id="_路径_11" data-name="&lt;路径&gt;" class="cls-23" cx="237.52" cy="257.89" r="8.82"/><circle id="_路径_12" data-name="&lt;路径&gt;" class="cls-23" cx="237.52" cy="455.1" r="8.82"/><circle id="_路径_13" data-name="&lt;路径&gt;" class="cls-23" cx="138.7" cy="355.83" r="8.82"/><circle id="_路径_14" data-name="&lt;路径&gt;" class="cls-23" cx="336.35" cy="355.83" r="8.82"/><path id="_路径_15" data-name="&lt;路径&gt;" class="cls-22" d="M101.81,358.27A137.73,137.73,0,0,1,290.63,230.43,133.29,133.29,0,0,0,117.2,421.56,137.06,137.06,0,0,1,101.81,358.27Z"/><circle class="cls-8" cx="238.55" cy="93.72" r="7.8"/><line class="cls-24" x1="238.55" y1="93.72" x2="185.26" y2="93.72"/><polygon class="cls-8" points="191.88 85.54 193.25 87.01 186.02 93.72 193.25 100.44 191.88 101.9 183.09 93.72 191.88 85.54"/><line class="cls-24" x1="238.55" y1="93.72" x2="238.55" y2="27.77"/><polygon class="cls-8" points="246.72 34.4 245.26 35.76 238.55 28.54 231.83 35.76 230.37 34.4 238.55 25.6 246.72 34.4"/><text class="cls-25" transform="translate(202.58 82.11) rotate(-90)">X</text><text class="cls-25" transform="translate(244.61 21.48) rotate(-90)">Y</text></g></g></svg>