<svg xmlns="http://www.w3.org/2000/svg" xmlns:xlink="http://www.w3.org/1999/xlink" viewBox="0 0 946.34 1268.13"><defs><style>.cls-1{fill:#353535;}.cls-2{fill:none;stroke-width:3.31px;}.cls-10,.cls-2,.cls-4,.cls-7{stroke:#fff;}.cls-10,.cls-16,.cls-18,.cls-2,.cls-4,.cls-7,.cls-9{stroke-miterlimit:10;}.cls-3{fill:#f2cb6b;}.cls-10,.cls-4,.cls-7{fill:#d0ab3c;}.cls-4,.cls-9{stroke-width:0.66px;}.cls-5{fill:#d2d3d3;}.cls-6{fill:#030000;}.cls-7{stroke-width:1.32px;}.cls-8{fill:#bb8c27;}.cls-9{fill:#ff4a5c;stroke:#681216;}.cls-10{stroke-width:1.99px;}.cls-11{fill:#f0c581;}.cls-12,.cls-16{fill:#fff;}.cls-13{fill:#f4cb70;}.cls-14{fill:#c6c5c5;}.cls-15{fill:#c8a266;}.cls-16{stroke:#f7b52c;stroke-width:3.97px;}.cls-17{fill:#e1e0df;}.cls-18{fill:#d2d2d2;stroke:#484949;stroke-width:13.24px;}.cls-19{fill:#f4d722;}.cls-20{fill:url(#未命名的渐变_23);}.cls-21{fill:#e51313;}.cls-22{fill:url(#未命名的渐变_67);}.cls-23{fill:#0073c9;}.cls-24{fill:url(#未命名的渐变_105);}.cls-25{fill:#1fa004;}.cls-26{fill:url(#未命名的渐变_79);}.cls-27{fill:#b2b2b2;}.cls-28{fill:url(#未命名的渐变_94);}</style><radialGradient id="未命名的渐变_23" cx="-8261.6" cy="-1458.35" r="107.29" gradientTransform="translate(-985.85 8470.68) rotate(90)" gradientUnits="userSpaceOnUse"><stop offset="0" stop-color="#faed00"/><stop offset="0.86" stop-color="#e1d70f"/><stop offset="1" stop-color="#8b9429"/></radialGradient><radialGradient id="未命名的渐变_67" cx="-7951.92" cy="-1458.36" r="107.29" gradientTransform="translate(-985.85 8470.68) rotate(90)" gradientUnits="userSpaceOnUse"><stop offset="0" stop-color="#ff1515"/><stop offset="0.86" stop-color="#fc0000"/><stop offset="1" stop-color="#832800"/></radialGradient><radialGradient id="未命名的渐变_105" cx="-12151.71" cy="7964.52" r="107.29" gradientTransform="translate(-11983.38 8470.85) rotate(180)" gradientUnits="userSpaceOnUse"><stop offset="0.86" stop-color="#2a68ff"/><stop offset="1" stop-color="#006888"/></radialGradient><radialGradient id="未命名的渐变_79" cx="-12761.39" cy="7964.52" r="107.29" gradientTransform="translate(-11983.38 8470.85) rotate(180)" gradientUnits="userSpaceOnUse"><stop offset="0.86" stop-color="#00cc12"/><stop offset="1" stop-color="#068300"/></radialGradient><radialGradient id="未命名的渐变_94" cx="-7642.24" cy="-1458.35" r="107.29" gradientTransform="translate(-985.85 8470.68) rotate(90)" gradientUnits="userSpaceOnUse"><stop offset="0.86" stop-color="#efefef"/><stop offset="1" stop-color="#9fa0a0"/></radialGradient></defs><title>键盘阵列模块</title><g id="图层_2" data-name="图层 2"><g id="图层_1-2" data-name="图层 1"><path id="_复合路径_" data-name="&lt;复合路径&gt;" class="cls-1" d="M874.9,0H71.44A71.43,71.43,0,0,0,0,71.43V1196.69a71.44,71.44,0,0,0,71.44,71.44H874.9a71.44,71.44,0,0,0,71.44-71.44V71.43A71.43,71.43,0,0,0,874.9,0Zm23.39,43.58a6.37,6.37,0,1,1,0,9A6.37,6.37,0,0,1,898.29,43.58Zm9,60.31a6.37,6.37,0,1,1,0-9A6.37,6.37,0,0,1,907.3,103.88Zm0,1069.36a6.37,6.37,0,1,1,0-9A6.37,6.37,0,0,1,907.3,1173.25ZM877.14,31.09a6.37,6.37,0,1,1-6.37,6.37A6.37,6.37,0,0,1,877.14,31.09Zm0,18.46A24.18,24.18,0,1,1,853,73.73,24.18,24.18,0,0,1,877.14,49.55Zm0,66.83a6.37,6.37,0,1,1,6.37-6.37A6.37,6.37,0,0,1,877.14,116.37Zm6.37,1041.75a6.37,6.37,0,1,1-6.37-6.37A6.37,6.37,0,0,1,883.51,1158.12ZM856,103.88a6.37,6.37,0,1,1,0-9A6.37,6.37,0,0,1,856,103.88Zm0,1069.36a6.37,6.37,0,1,1,0-9A6.37,6.37,0,0,1,856,1173.25ZM847,43.58a6.37,6.37,0,1,1,0,9A6.37,6.37,0,0,1,847,43.58Zm-6.12,23.78a6.37,6.37,0,1,1-6.37,6.37A6.37,6.37,0,0,1,840.87,67.36ZM90.34,43.58a6.37,6.37,0,1,1,0,9A6.37,6.37,0,0,1,90.34,43.58Zm9,60.31a6.37,6.37,0,1,1,0-9A6.37,6.37,0,0,1,99.35,103.88Zm0,1069.36a6.37,6.37,0,1,1,0-9A6.37,6.37,0,0,1,99.35,1173.25ZM69.19,31.09a6.37,6.37,0,1,1-6.37,6.37A6.37,6.37,0,0,1,69.19,31.09Zm0,18.46A24.18,24.18,0,1,1,45,73.73,24.18,24.18,0,0,1,69.19,49.55Zm0,66.83A6.37,6.37,0,1,1,75.56,110,6.37,6.37,0,0,1,69.19,116.37Zm6.37,1041.75a6.37,6.37,0,1,1-6.37-6.37A6.37,6.37,0,0,1,75.56,1158.12ZM48,103.88a6.37,6.37,0,1,1,0-9A6.37,6.37,0,0,1,48,103.88Zm0,1069.36a6.37,6.37,0,1,1,0-9A6.37,6.37,0,0,1,48,1173.25ZM39,43.58a6.37,6.37,0,1,1,0,9A6.37,6.37,0,0,1,39,43.58ZM32.92,67.36a6.37,6.37,0,1,1-6.37,6.37A6.37,6.37,0,0,1,32.92,67.36Zm-6.37,1127a6.37,6.37,0,1,1,6.37,6.37A6.37,6.37,0,0,1,26.55,1194.39ZM48,1224.55a6.37,6.37,0,1,1,0-9A6.37,6.37,0,0,1,48,1224.55ZM69.19,1237a6.37,6.37,0,1,1,6.37-6.37A6.37,6.37,0,0,1,69.19,1237Zm0-18.46a24.18,24.18,0,1,1,24.18-24.18A24.18,24.18,0,0,1,69.19,1218.58Zm30.15,6a6.37,6.37,0,1,1,0-9A6.37,6.37,0,0,1,99.35,1224.55Zm6.12-23.78a6.37,6.37,0,1,1,6.37-6.37A6.37,6.37,0,0,1,105.47,1200.76Zm0-1120.66a6.37,6.37,0,1,1,6.37-6.37A6.37,6.37,0,0,1,105.47,80.1Zm729,1114.29a6.37,6.37,0,1,1,6.37,6.37A6.37,6.37,0,0,1,834.5,1194.39Zm21.5,30.15a6.37,6.37,0,1,1,0-9A6.37,6.37,0,0,1,856,1224.55ZM877.14,1237a6.37,6.37,0,1,1,6.37-6.37A6.37,6.37,0,0,1,877.14,1237Zm0-18.46a24.18,24.18,0,1,1,24.18-24.18A24.18,24.18,0,0,1,877.14,1218.58Zm30.15,6a6.37,6.37,0,1,1,0-9A6.37,6.37,0,0,1,907.3,1224.55Zm6.12-23.78a6.37,6.37,0,1,1,6.37-6.37A6.37,6.37,0,0,1,913.42,1200.76Zm0-1120.66a6.37,6.37,0,1,1,6.37-6.37A6.37,6.37,0,0,1,913.42,80.1Z"/><g id="_编组_" data-name="&lt;编组&gt;"><g id="_编组_2" data-name="&lt;编组&gt;"><circle id="_路径_" data-name="&lt;路径&gt;" class="cls-2" cx="69.19" cy="73.73" r="48.21"/><path id="_复合路径_2" data-name="&lt;复合路径&gt;" class="cls-3" d="M69.19,25.37a48.37,48.37,0,1,0,48.37,48.37A48.42,48.42,0,0,0,69.19,25.37ZM90.34,43.58a6.37,6.37,0,1,1,0,9A6.37,6.37,0,0,1,90.34,43.58ZM69.19,31.09a6.37,6.37,0,1,1-6.37,6.37A6.37,6.37,0,0,1,69.19,31.09ZM39,43.58a6.37,6.37,0,1,1,0,9A6.37,6.37,0,0,1,39,43.58ZM32.92,80.1a6.37,6.37,0,1,1,6.37-6.37A6.37,6.37,0,0,1,32.92,80.1ZM48,103.88a6.37,6.37,0,1,1,0-9A6.37,6.37,0,0,1,48,103.88Zm21.15,12.49A6.37,6.37,0,1,1,75.56,110,6.37,6.37,0,0,1,69.19,116.37Zm0-18.46A24.18,24.18,0,1,1,93.38,73.73,24.21,24.21,0,0,1,69.19,97.91Zm30.15,6a6.37,6.37,0,1,1,0-9A6.37,6.37,0,0,1,99.35,103.88Zm6.12-23.78a6.37,6.37,0,1,1,6.37-6.37A6.37,6.37,0,0,1,105.47,80.1Z"/></g><g id="_编组_3" data-name="&lt;编组&gt;"><circle id="_路径_2" data-name="&lt;路径&gt;" class="cls-2" cx="877.14" cy="73.73" r="48.21"/><path id="_复合路径_3" data-name="&lt;复合路径&gt;" class="cls-3" d="M877.14,25.37a48.37,48.37,0,1,0,48.37,48.37A48.42,48.42,0,0,0,877.14,25.37Zm21.15,18.21a6.37,6.37,0,1,1,0,9A6.37,6.37,0,0,1,898.29,43.58ZM877.14,31.09a6.37,6.37,0,1,1-6.37,6.37A6.37,6.37,0,0,1,877.14,31.09ZM847,43.58a6.37,6.37,0,1,1,0,9A6.37,6.37,0,0,1,847,43.58ZM840.87,80.1a6.37,6.37,0,1,1,6.37-6.37A6.37,6.37,0,0,1,840.87,80.1ZM856,103.88a6.37,6.37,0,1,1,0-9A6.37,6.37,0,0,1,856,103.88Zm21.15,12.49a6.37,6.37,0,1,1,6.37-6.37A6.37,6.37,0,0,1,877.14,116.37Zm0-18.46a24.18,24.18,0,1,1,24.18-24.18A24.21,24.21,0,0,1,877.14,97.91Zm30.15,6a6.37,6.37,0,1,1,0-9A6.37,6.37,0,0,1,907.3,103.88Zm6.12-23.78a6.37,6.37,0,1,1,6.37-6.37A6.37,6.37,0,0,1,913.42,80.1Z"/></g><g id="_编组_4" data-name="&lt;编组&gt;"><circle id="_路径_3" data-name="&lt;路径&gt;" class="cls-2" cx="69.19" cy="1194.39" r="48.21"/><path id="_复合路径_4" data-name="&lt;复合路径&gt;" class="cls-3" d="M69.19,1146a48.37,48.37,0,1,0,48.37,48.37A48.42,48.42,0,0,0,69.19,1146Zm21.15,18.21a6.37,6.37,0,1,1,0,9A6.37,6.37,0,0,1,90.34,1164.24Zm-21.15-12.49a6.37,6.37,0,1,1-6.37,6.37A6.37,6.37,0,0,1,69.19,1151.75ZM39,1164.24a6.37,6.37,0,1,1,0,9A6.37,6.37,0,0,1,39,1164.24Zm-6.12,36.52a6.37,6.37,0,1,1,6.37-6.37A6.37,6.37,0,0,1,32.92,1200.76ZM48,1224.55a6.37,6.37,0,1,1,0-9A6.37,6.37,0,0,1,48,1224.55ZM69.19,1237a6.37,6.37,0,1,1,6.37-6.37A6.37,6.37,0,0,1,69.19,1237Zm0-18.46a24.18,24.18,0,1,1,24.18-24.18A24.21,24.21,0,0,1,69.19,1218.58Zm30.15,6a6.37,6.37,0,1,1,0-9A6.37,6.37,0,0,1,99.35,1224.55Zm6.12-23.78a6.37,6.37,0,1,1,6.37-6.37A6.37,6.37,0,0,1,105.47,1200.76Z"/></g><g id="_编组_5" data-name="&lt;编组&gt;"><circle id="_路径_4" data-name="&lt;路径&gt;" class="cls-2" cx="877.14" cy="1194.39" r="48.21"/><path id="_复合路径_5" data-name="&lt;复合路径&gt;" class="cls-3" d="M877.14,1146a48.37,48.37,0,1,0,48.37,48.37A48.42,48.42,0,0,0,877.14,1146Zm21.15,18.21a6.37,6.37,0,1,1,0,9A6.37,6.37,0,0,1,898.29,1164.24Zm-21.15-12.49a6.37,6.37,0,1,1-6.37,6.37A6.37,6.37,0,0,1,877.14,1151.75ZM847,1164.24a6.37,6.37,0,1,1,0,9A6.37,6.37,0,0,1,847,1164.24Zm-6.12,36.52a6.37,6.37,0,1,1,6.37-6.37A6.37,6.37,0,0,1,840.87,1200.76ZM856,1224.55a6.37,6.37,0,1,1,0-9A6.37,6.37,0,0,1,856,1224.55ZM877.14,1237a6.37,6.37,0,1,1,6.37-6.37A6.37,6.37,0,0,1,877.14,1237Zm0-18.46a24.18,24.18,0,1,1,24.18-24.18A24.21,24.21,0,0,1,877.14,1218.58Zm30.15,6a6.37,6.37,0,1,1,0-9A6.37,6.37,0,0,1,907.3,1224.55Zm6.12-23.78a6.37,6.37,0,1,1,6.37-6.37A6.37,6.37,0,0,1,913.42,1200.76Z"/></g></g><g id="_编组_6" data-name="&lt;编组&gt;"><rect id="_矩形_" data-name="&lt;矩形&gt;" class="cls-4" x="679.39" y="966.26" width="17.32" height="43.57"/><rect id="_矩形_2" data-name="&lt;矩形&gt;" class="cls-5" x="679.69" y="972.49" width="16.71" height="29.78"/><polygon id="_路径_5" data-name="&lt;路径&gt;" class="cls-6" points="679.75 977.87 679.75 997.06 696.34 997.06 696.34 977.87 692.95 977.87 692.95 978.57 682.56 978.57 682.56 977.87 679.75 977.87"/></g><g id="_编组_7" data-name="&lt;编组&gt;"><rect id="_矩形_3" data-name="&lt;矩形&gt;" class="cls-4" x="679.39" y="835.16" width="17.32" height="43.57"/><rect id="_矩形_4" data-name="&lt;矩形&gt;" class="cls-5" x="679.69" y="841.39" width="16.71" height="29.78"/><polygon id="_路径_6" data-name="&lt;路径&gt;" class="cls-6" points="679.75 846.77 679.75 865.96 696.34 865.96 696.34 846.77 692.95 846.77 692.95 847.47 682.56 847.47 682.56 846.77 679.75 846.77"/></g><g id="_编组_8" data-name="&lt;编组&gt;"><rect id="_矩形_5" data-name="&lt;矩形&gt;" class="cls-4" x="716.1" y="835.16" width="17.32" height="43.57"/><rect id="_矩形_6" data-name="&lt;矩形&gt;" class="cls-5" x="716.4" y="841.39" width="16.71" height="29.78"/><polygon id="_路径_7" data-name="&lt;路径&gt;" class="cls-6" points="716.47 846.77 716.47 865.96 733.05 865.96 733.05 846.77 729.66 846.77 729.66 847.47 719.28 847.47 719.28 846.77 716.47 846.77"/></g><g id="_编组_9" data-name="&lt;编组&gt;"><rect id="_矩形_7" data-name="&lt;矩形&gt;" class="cls-4" x="752.91" y="835.16" width="17.32" height="43.57"/><rect id="_矩形_8" data-name="&lt;矩形&gt;" class="cls-5" x="753.21" y="841.39" width="16.71" height="29.78"/><polygon id="_路径_8" data-name="&lt;路径&gt;" class="cls-6" points="753.27 846.77 753.27 865.96 769.86 865.96 769.86 846.77 766.47 846.77 766.47 847.47 756.09 847.47 756.09 846.77 753.27 846.77"/></g><g id="_编组_10" data-name="&lt;编组&gt;"><rect id="_矩形_9" data-name="&lt;矩形&gt;" class="cls-4" x="679.39" y="243" width="17.32" height="43.57"/><rect id="_矩形_10" data-name="&lt;矩形&gt;" class="cls-5" x="679.69" y="249.23" width="16.71" height="29.78"/><polygon id="_路径_9" data-name="&lt;路径&gt;" class="cls-6" points="679.75 254.61 679.75 273.8 696.34 273.8 696.34 254.61 692.95 254.61 692.95 255.31 682.56 255.31 682.56 254.61 679.75 254.61"/></g><g id="_编组_11" data-name="&lt;编组&gt;"><rect id="_矩形_11" data-name="&lt;矩形&gt;" class="cls-4" x="712" y="243" width="17.32" height="43.57"/><rect id="_矩形_12" data-name="&lt;矩形&gt;" class="cls-5" x="712.3" y="249.23" width="16.71" height="29.78"/><polygon id="_路径_10" data-name="&lt;路径&gt;" class="cls-6" points="712.37 254.61 712.37 273.8 728.95 273.8 728.95 254.61 725.56 254.61 725.56 255.31 715.18 255.31 715.18 254.61 712.37 254.61"/></g><g id="_编组_12" data-name="&lt;编组&gt;"><rect id="_矩形_13" data-name="&lt;矩形&gt;" class="cls-4" x="744.61" y="243" width="17.32" height="43.57"/><rect id="_矩形_14" data-name="&lt;矩形&gt;" class="cls-5" x="744.92" y="249.23" width="16.71" height="29.78"/><polygon id="_路径_11" data-name="&lt;路径&gt;" class="cls-6" points="744.98 254.61 744.98 273.8 761.57 273.8 761.57 254.61 758.17 254.61 758.17 255.31 747.79 255.31 747.79 254.61 744.98 254.61"/></g><g id="_编组_13" data-name="&lt;编组&gt;"><rect id="_矩形_15" data-name="&lt;矩形&gt;" class="cls-7" x="716.1" y="994.74" width="17.32" height="13.51" transform="translate(1449.52 2002.99) rotate(-180)"/><rect id="_矩形_16" data-name="&lt;矩形&gt;" class="cls-7" x="716.1" y="967.83" width="17.32" height="13.51" transform="translate(1449.52 1949.17) rotate(-180)"/><g id="_编组_14" data-name="&lt;编组&gt;"><path id="_路径_12" data-name="&lt;路径&gt;" class="cls-8" d="M720.1,1003.59a4.66,4.66,0,1,1,9.32,0h2.79v-8.85H717.31v8.85Z"/><path id="_路径_13" data-name="&lt;路径&gt;" class="cls-8" d="M729.42,972.49a4.66,4.66,0,1,1-9.32,0h-2.79v8.85H732.2v-8.85Z"/><rect id="_矩形_17" data-name="&lt;矩形&gt;" class="cls-9" x="718.14" y="978.36" width="13.24" height="19.47" transform="translate(1449.52 1976.19) rotate(-180)"/></g></g><g id="_编组_15" data-name="&lt;编组&gt;"><g id="_编组_16" data-name="&lt;编组&gt;"><g id="_编组_17" data-name="&lt;编组&gt;"><rect id="_矩形_18" data-name="&lt;矩形&gt;" class="cls-10" x="424.42" y="1102.08" width="18.53" height="56.47"/><rect id="_矩形_19" data-name="&lt;矩形&gt;" class="cls-11" x="428.55" y="1107.1" width="10.26" height="52.94" rx="5.13" ry="5.13"/></g><g id="_编组_18" data-name="&lt;编组&gt;"><rect id="_矩形_20" data-name="&lt;矩形&gt;" class="cls-10" x="463.9" y="1102.08" width="18.53" height="56.47"/><rect id="_矩形_21" data-name="&lt;矩形&gt;" class="cls-11" x="468.04" y="1107.1" width="10.26" height="52.94" rx="5.13" ry="5.13"/></g><g id="_编组_19" data-name="&lt;编组&gt;"><rect id="_矩形_22" data-name="&lt;矩形&gt;" class="cls-10" x="503.39" y="1102.08" width="18.53" height="56.47"/><rect id="_矩形_23" data-name="&lt;矩形&gt;" class="cls-11" x="507.53" y="1107.1" width="10.26" height="52.94" rx="5.13" ry="5.13"/></g><rect id="_矩形_24" data-name="&lt;矩形&gt;" class="cls-12" x="376.55" y="1149.78" width="193.24" height="114.27"/><rect id="_矩形_25" data-name="&lt;矩形&gt;" class="cls-13" x="428.55" y="1171.18" width="10.26" height="71.47"/><rect id="_矩形_26" data-name="&lt;矩形&gt;" class="cls-13" x="507.53" y="1171.18" width="10.26" height="71.47"/><rect id="_矩形_27" data-name="&lt;矩形&gt;" class="cls-14" x="376.55" y="1117.35" width="18.53" height="32.43"/><rect id="_矩形_28" data-name="&lt;矩形&gt;" class="cls-14" x="551.26" y="1117.35" width="18.53" height="32.43"/><rect id="_矩形_29" data-name="&lt;矩形&gt;" class="cls-14" x="410.96" y="1264.04" width="124.41" height="4.08" rx="2.04" ry="2.04"/><rect id="_矩形_30" data-name="&lt;矩形&gt;" class="cls-15" x="428.55" y="1130.17" width="10.26" height="6.78"/><rect id="_矩形_31" data-name="&lt;矩形&gt;" class="cls-15" x="468.04" y="1130.17" width="10.26" height="6.78"/><rect id="_矩形_32" data-name="&lt;矩形&gt;" class="cls-15" x="507.53" y="1130.17" width="10.26" height="6.78"/></g><g id="_编组_20" data-name="&lt;编组&gt;"><path id="_复合路径_6" data-name="&lt;复合路径&gt;" class="cls-12" d="M425.36,1079.71c0-5,4-7.42,8.5-7.42s8.53,2.3,8.53,7.42c0,5-4.14,7.37-8.53,7.37S425.36,1084.7,425.36,1079.71Zm15.46,0c0-3.85-3.21-5.71-7-5.71s-7,2-7,5.71,3.26,5.67,7,5.67S440.82,1083.41,440.82,1079.71Z"/><path id="_复合路径_7" data-name="&lt;复合路径&gt;" class="cls-12" d="M425.76,1067.65h9.85c3.14,0,5.2-1.48,5.2-4.63,0-3-1.93-4.56-5.2-4.56h-9.85v-1.71h9.94c4.5,0,6.69,2.52,6.69,6.27s-2.21,6.33-6.69,6.33h-9.94Z"/><path id="_复合路径_8" data-name="&lt;复合路径&gt;" class="cls-12" d="M425.76,1042.76h1.53v5.16H442v1.71H427.28v5.14h-1.53Z"/></g><g id="_编组_21" data-name="&lt;编组&gt;"><path id="_复合路径_9" data-name="&lt;复合路径&gt;" class="cls-12" d="M465.05,1085.35l14-5v0l-14-5v-1.88l16.21,5.91v1.95l-16.21,5.87Z"/><path id="_复合路径_10" data-name="&lt;复合路径&gt;" class="cls-12" d="M464.65,1065c0-3.68,2.06-5.69,4.23-6.42l.29,1.75a4.67,4.67,0,0,0-3,4.67c0,3.28,2.3,5.45,7,5.45,4.25,0,7-2.21,7-5.45a4.82,4.82,0,0,0-3.21-4.87l.27-1.68a6.42,6.42,0,0,1,4.52,6.55c0,4.69-3.79,7.15-8.55,7.15S464.65,1070.07,464.65,1065Z"/><path id="_复合路径_11" data-name="&lt;复合路径&gt;" class="cls-12" d="M464.65,1049.21c0-3.68,2.06-5.69,4.23-6.42l.29,1.75a4.67,4.67,0,0,0-3,4.67c0,3.28,2.3,5.45,7,5.45,4.25,0,7-2.21,7-5.45a4.82,4.82,0,0,0-3.21-4.87l.27-1.68a6.42,6.42,0,0,1,4.52,6.55c0,4.69-3.79,7.15-8.55,7.15S464.65,1054.28,464.65,1049.21Z"/></g><g id="_编组_22" data-name="&lt;编组&gt;"><path id="_复合路径_12" data-name="&lt;复合路径&gt;" class="cls-12" d="M504.14,1081.43c0-4.1,2.35-5.6,4.47-6.51l.29,1.79a4.77,4.77,0,0,0-3.23,4.72c0,3.34,2.86,5.71,7,5.71,4.25,0,7-2.46,7-5.49a5.57,5.57,0,0,0-4.19-5.31h-1.75v4.94h-1.55v-6.67h8.64v1.55h-3.32a6.14,6.14,0,0,1,3.74,5.69c0,3.61-3.08,7-8.55,7C507.55,1088.85,504.14,1085.81,504.14,1081.43Z"/><path id="_复合路径_13" data-name="&lt;复合路径&gt;" class="cls-12" d="M504.54,1069.1l13.46-9.48v0H504.54v-1.71h16.21v1.79l-13.46,9.43,0,0h13.49v1.73H504.54Z"/><path id="_复合路径_14" data-name="&lt;复合路径&gt;" class="cls-12" d="M504.54,1048.17c0-5.29,4.19-7.17,8.08-7.17,4.65,0,8.13,2.3,8.13,7.48v5.58H504.54Zm14.68,4.16v-3.9c0-3.23-2.15-5.74-6.6-5.74-3.08,0-6.55,1.51-6.55,5.78v3.85Z"/></g></g><g id="_编组_23" data-name="&lt;编组&gt;"><g id="_编组_24" data-name="&lt;编组&gt;"><g id="_编组_25" data-name="&lt;编组&gt;"><rect id="_路径_14" data-name="&lt;路径&gt;" class="cls-16" x="325.59" y="146.16" width="295.15" height="24.26"/><rect id="_路径_15" data-name="&lt;路径&gt;" class="cls-16" x="325.59" y="247.73" width="295.15" height="24.26"/><rect id="_矩形_33" data-name="&lt;矩形&gt;" class="cls-17" x="580.77" y="155.46" width="20.24" height="5.74" transform="translate(749.22 -432.56) rotate(90)"/><rect id="_矩形_34" data-name="&lt;矩形&gt;" class="cls-17" x="580.77" y="257" width="20.24" height="5.74" transform="translate(850.75 -331.03) rotate(90)"/><rect id="_矩形_35" data-name="&lt;矩形&gt;" class="cls-17" x="337.09" y="155.46" width="20.24" height="5.74" transform="translate(505.54 -188.88) rotate(90)"/><rect id="_矩形_36" data-name="&lt;矩形&gt;" class="cls-17" x="337.09" y="257" width="20.24" height="5.74" transform="translate(607.08 -87.35) rotate(90)"/></g><rect id="_路径_16" data-name="&lt;路径&gt;" class="cls-18" x="375.98" y="110.46" width="195.91" height="197.24" rx="6.29" ry="6.29"/><g id="_编组_26" data-name="&lt;编组&gt;"><circle id="_路径_17" data-name="&lt;路径&gt;" class="cls-19" cx="472.51" cy="209.08" r="116.23"/><circle id="_路径_18" data-name="&lt;路径&gt;" class="cls-20" cx="472.51" cy="209.08" r="107.29"/></g></g><g id="_编组_27" data-name="&lt;编组&gt;"><g id="_编组_28" data-name="&lt;编组&gt;"><rect id="_路径_19" data-name="&lt;路径&gt;" class="cls-16" x="325.59" y="455.84" width="295.15" height="24.26"/><rect id="_路径_20" data-name="&lt;路径&gt;" class="cls-16" x="325.59" y="557.41" width="295.15" height="24.26"/><rect id="_矩形_37" data-name="&lt;矩形&gt;" class="cls-17" x="580.77" y="465.14" width="20.24" height="5.74" transform="translate(1058.9 -122.88) rotate(90)"/><rect id="_矩形_38" data-name="&lt;矩形&gt;" class="cls-17" x="580.77" y="566.67" width="20.24" height="5.74" transform="translate(1160.43 -21.35) rotate(90)"/><rect id="_矩形_39" data-name="&lt;矩形&gt;" class="cls-17" x="337.09" y="465.14" width="20.24" height="5.74" transform="translate(815.22 120.8) rotate(90)"/><rect id="_矩形_40" data-name="&lt;矩形&gt;" class="cls-17" x="337.09" y="566.67" width="20.24" height="5.74" transform="translate(916.75 222.33) rotate(90)"/></g><rect id="_路径_21" data-name="&lt;路径&gt;" class="cls-18" x="375.98" y="420.14" width="195.91" height="197.24" rx="6.29" ry="6.29"/><g id="_编组_29" data-name="&lt;编组&gt;"><circle id="_路径_22" data-name="&lt;路径&gt;" class="cls-21" cx="472.51" cy="518.76" r="116.23"/><circle id="_路径_23" data-name="&lt;路径&gt;" class="cls-22" cx="472.51" cy="518.76" r="107.29"/></g></g><g id="_编组_30" data-name="&lt;编组&gt;"><g id="_编组_31" data-name="&lt;编组&gt;"><rect id="_路径_24" data-name="&lt;路径&gt;" class="cls-16" x="206.98" y="359.42" width="24.26" height="295.15"/><rect id="_路径_25" data-name="&lt;路径&gt;" class="cls-16" x="105.41" y="359.42" width="24.26" height="295.15"/><rect id="_矩形_41" data-name="&lt;矩形&gt;" class="cls-17" x="208.96" y="621.84" width="20.24" height="5.74" transform="translate(438.16 1249.42) rotate(180)"/><rect id="_矩形_42" data-name="&lt;矩形&gt;" class="cls-17" x="107.43" y="621.84" width="20.24" height="5.74" transform="translate(235.09 1249.42) rotate(180)"/><rect id="_矩形_43" data-name="&lt;矩形&gt;" class="cls-17" x="208.96" y="378.17" width="20.24" height="5.74" transform="translate(438.16 762.07) rotate(180)"/><rect id="_矩形_44" data-name="&lt;矩形&gt;" class="cls-17" x="107.43" y="378.17" width="20.24" height="5.74" transform="translate(235.09 762.07) rotate(180)"/></g><rect id="_路径_26" data-name="&lt;路径&gt;" class="cls-18" x="69.71" y="409.8" width="197.24" height="195.91" rx="6.29" ry="6.29"/><g id="_编组_32" data-name="&lt;编组&gt;"><circle id="_路径_27" data-name="&lt;路径&gt;" class="cls-23" cx="168.33" cy="506.33" r="116.23"/><circle id="_路径_28" data-name="&lt;路径&gt;" class="cls-24" cx="168.33" cy="506.33" r="107.29"/></g></g><g id="_编组_33" data-name="&lt;编组&gt;"><g id="_编组_34" data-name="&lt;编组&gt;"><rect id="_路径_29" data-name="&lt;路径&gt;" class="cls-16" x="816.66" y="359.42" width="24.26" height="295.15"/><rect id="_路径_30" data-name="&lt;路径&gt;" class="cls-16" x="715.09" y="359.42" width="24.26" height="295.15"/><rect id="_矩形_45" data-name="&lt;矩形&gt;" class="cls-17" x="818.64" y="621.84" width="20.24" height="5.74" transform="translate(1657.51 1249.42) rotate(180)"/><rect id="_矩形_46" data-name="&lt;矩形&gt;" class="cls-17" x="717.1" y="621.84" width="20.24" height="5.74" transform="translate(1454.45 1249.42) rotate(180)"/><rect id="_矩形_47" data-name="&lt;矩形&gt;" class="cls-17" x="818.64" y="378.17" width="20.24" height="5.74" transform="translate(1657.51 762.07) rotate(180)"/><rect id="_矩形_48" data-name="&lt;矩形&gt;" class="cls-17" x="717.1" y="378.17" width="20.24" height="5.74" transform="translate(1454.45 762.07) rotate(180)"/></g><rect id="_路径_31" data-name="&lt;路径&gt;" class="cls-18" x="679.39" y="409.8" width="197.24" height="195.91" rx="6.29" ry="6.29"/><g id="_编组_35" data-name="&lt;编组&gt;"><circle id="_路径_32" data-name="&lt;路径&gt;" class="cls-25" cx="778.01" cy="506.33" r="116.23"/><circle id="_路径_33" data-name="&lt;路径&gt;" class="cls-26" cx="778.01" cy="506.33" r="107.29"/></g></g><g id="_编组_36" data-name="&lt;编组&gt;"><g id="_编组_37" data-name="&lt;编组&gt;"><rect id="_路径_34" data-name="&lt;路径&gt;" class="cls-16" x="325.59" y="765.52" width="295.15" height="24.26"/><rect id="_路径_35" data-name="&lt;路径&gt;" class="cls-16" x="325.59" y="867.09" width="295.15" height="24.26"/><rect id="_矩形_49" data-name="&lt;矩形&gt;" class="cls-17" x="580.77" y="774.82" width="20.24" height="5.74" transform="translate(1368.58 186.8) rotate(90)"/><rect id="_矩形_50" data-name="&lt;矩形&gt;" class="cls-17" x="580.77" y="876.35" width="20.24" height="5.74" transform="translate(1470.11 288.33) rotate(90)"/><rect id="_矩形_51" data-name="&lt;矩形&gt;" class="cls-17" x="337.09" y="774.82" width="20.24" height="5.74" transform="translate(1124.9 430.47) rotate(90)"/><rect id="_矩形_52" data-name="&lt;矩形&gt;" class="cls-17" x="337.09" y="876.35" width="20.24" height="5.74" transform="translate(1226.43 532.01) rotate(90)"/></g><rect id="_路径_36" data-name="&lt;路径&gt;" class="cls-18" x="375.98" y="729.82" width="195.91" height="197.24" rx="6.29" ry="6.29"/><g id="_编组_38" data-name="&lt;编组&gt;"><circle id="_路径_37" data-name="&lt;路径&gt;" class="cls-27" cx="472.51" cy="828.44" r="116.23"/><circle id="_路径_38" data-name="&lt;路径&gt;" class="cls-28" cx="472.51" cy="828.44" r="107.29"/></g></g></g></g></g></svg>