<svg xmlns="http://www.w3.org/2000/svg" viewBox="0 0 801.34 1272.14"><defs><style>.cls-1{fill:#d0ab3c;stroke-width:1.99px;}.cls-1,.cls-8{stroke:#fff;stroke-miterlimit:10;}.cls-2{fill:#f0c581;}.cls-3{fill:#c8a266;}.cls-12,.cls-4{fill:#fff;}.cls-5{fill:#f4cb70;}.cls-6{fill:#c6c5c5;}.cls-7{fill:#353535;}.cls-8{fill:none;stroke-width:3.31px;}.cls-9{fill:#f2cb6b;}.cls-10{fill:#636363;}.cls-11{fill:#e2e2e2;}.cls-12{font-size:37.56px;font-family:04b08, 04b_08;}.cls-13{font-family:AdobeSongStd-Light-GBpc-EUC-H, Adobe Song Std;}</style></defs><title>点阵模块</title><g id="图层_2" data-name="图层 2"><g id="图层_1-2" data-name="图层 1"><g id="_编组_" data-name="&lt;编组&gt;"><g id="_编组_2" data-name="&lt;编组&gt;"><g id="_编组_3" data-name="&lt;编组&gt;"><g id="_编组_4" data-name="&lt;编组&gt;"><g id="_编组_5" data-name="&lt;编组&gt;"><rect id="_矩形_" data-name="&lt;矩形&gt;" class="cls-1" x="141.57" y="1101.02" width="18.53" height="56.47"/><rect id="_矩形_2" data-name="&lt;矩形&gt;" class="cls-2" x="145.7" y="1106.04" width="10.26" height="52.94" rx="5.13" ry="5.13"/></g><rect id="_矩形_3" data-name="&lt;矩形&gt;" class="cls-3" x="145.7" y="1129.12" width="10.26" height="6.78"/></g><g id="_编组_6" data-name="&lt;编组&gt;"><g id="_编组_7" data-name="&lt;编组&gt;"><rect id="_矩形_4" data-name="&lt;矩形&gt;" class="cls-1" x="179.16" y="1101.02" width="18.53" height="56.47"/><rect id="_矩形_5" data-name="&lt;矩形&gt;" class="cls-2" x="183.29" y="1106.04" width="10.26" height="52.94" rx="5.13" ry="5.13"/></g><rect id="_矩形_6" data-name="&lt;矩形&gt;" class="cls-3" x="183.29" y="1129.12" width="10.26" height="6.78"/></g><g id="_编组_8" data-name="&lt;编组&gt;"><g id="_编组_9" data-name="&lt;编组&gt;"><rect id="_矩形_7" data-name="&lt;矩形&gt;" class="cls-1" x="216.74" y="1101.02" width="18.53" height="56.47"/><rect id="_矩形_8" data-name="&lt;矩形&gt;" class="cls-2" x="220.88" y="1106.04" width="10.26" height="52.94" rx="5.13" ry="5.13"/></g><rect id="_矩形_9" data-name="&lt;矩形&gt;" class="cls-3" x="220.88" y="1129.12" width="10.26" height="6.78"/></g><g id="_编组_10" data-name="&lt;编组&gt;"><g id="_编组_11" data-name="&lt;编组&gt;"><rect id="_矩形_10" data-name="&lt;矩形&gt;" class="cls-1" x="254.33" y="1101.02" width="18.53" height="56.47"/><rect id="_矩形_11" data-name="&lt;矩形&gt;" class="cls-2" x="258.47" y="1106.04" width="10.26" height="52.94" rx="5.13" ry="5.13"/></g><rect id="_矩形_12" data-name="&lt;矩形&gt;" class="cls-3" x="258.47" y="1129.12" width="10.26" height="6.78"/></g><g id="_编组_12" data-name="&lt;编组&gt;"><g id="_编组_13" data-name="&lt;编组&gt;"><rect id="_矩形_13" data-name="&lt;矩形&gt;" class="cls-1" x="291.92" y="1101.02" width="18.53" height="56.47"/><rect id="_矩形_14" data-name="&lt;矩形&gt;" class="cls-2" x="296.06" y="1106.04" width="10.26" height="52.94" rx="5.13" ry="5.13"/></g><rect id="_矩形_15" data-name="&lt;矩形&gt;" class="cls-3" x="296.06" y="1129.12" width="10.26" height="6.78"/></g><g id="_编组_14" data-name="&lt;编组&gt;"><g id="_编组_15" data-name="&lt;编组&gt;"><rect id="_矩形_16" data-name="&lt;矩形&gt;" class="cls-1" x="329.51" y="1101.02" width="18.53" height="56.47"/><rect id="_矩形_17" data-name="&lt;矩形&gt;" class="cls-2" x="333.65" y="1106.04" width="10.26" height="52.94" rx="5.13" ry="5.13"/></g><rect id="_矩形_18" data-name="&lt;矩形&gt;" class="cls-3" x="333.65" y="1129.12" width="10.26" height="6.78"/></g></g><rect id="_矩形_19" data-name="&lt;矩形&gt;" class="cls-4" x="92.01" y="1153.8" width="305.58" height="114.27"/><rect id="_矩形_20" data-name="&lt;矩形&gt;" class="cls-5" x="145.7" y="1175.2" width="10.26" height="71.47"/><rect id="_矩形_21" data-name="&lt;矩形&gt;" class="cls-5" x="333.65" y="1175.2" width="10.26" height="71.47"/><rect id="_矩形_22" data-name="&lt;矩形&gt;" class="cls-6" x="92.01" y="1121.37" width="18.53" height="32.43"/><rect id="_矩形_23" data-name="&lt;矩形&gt;" class="cls-6" x="379.07" y="1121.37" width="18.53" height="32.43"/><rect id="_矩形_24" data-name="&lt;矩形&gt;" class="cls-6" x="121.92" y="1268.06" width="245.77" height="4.08" rx="2.04" ry="2.04"/></g><g id="_编组_16" data-name="&lt;编组&gt;"><g id="_编组_17" data-name="&lt;编组&gt;"><g id="_编组_18" data-name="&lt;编组&gt;"><g id="_编组_19" data-name="&lt;编组&gt;"><rect id="_矩形_25" data-name="&lt;矩形&gt;" class="cls-1" x="453.3" y="1101.02" width="18.53" height="56.47"/><rect id="_矩形_26" data-name="&lt;矩形&gt;" class="cls-2" x="457.44" y="1106.04" width="10.26" height="52.94" rx="5.13" ry="5.13"/></g><rect id="_矩形_27" data-name="&lt;矩形&gt;" class="cls-3" x="457.44" y="1129.12" width="10.26" height="6.78"/></g><g id="_编组_20" data-name="&lt;编组&gt;"><g id="_编组_21" data-name="&lt;编组&gt;"><rect id="_矩形_28" data-name="&lt;矩形&gt;" class="cls-1" x="490.89" y="1101.02" width="18.53" height="56.47"/><rect id="_矩形_29" data-name="&lt;矩形&gt;" class="cls-2" x="495.02" y="1106.04" width="10.26" height="52.94" rx="5.13" ry="5.13"/></g><rect id="_矩形_30" data-name="&lt;矩形&gt;" class="cls-3" x="495.02" y="1129.12" width="10.26" height="6.78"/></g><g id="_编组_22" data-name="&lt;编组&gt;"><g id="_编组_23" data-name="&lt;编组&gt;"><rect id="_矩形_31" data-name="&lt;矩形&gt;" class="cls-1" x="528.48" y="1101.02" width="18.53" height="56.47"/><rect id="_矩形_32" data-name="&lt;矩形&gt;" class="cls-2" x="532.61" y="1106.04" width="10.26" height="52.94" rx="5.13" ry="5.13"/></g><rect id="_矩形_33" data-name="&lt;矩形&gt;" class="cls-3" x="532.61" y="1129.12" width="10.26" height="6.78"/></g><g id="_编组_24" data-name="&lt;编组&gt;"><g id="_编组_25" data-name="&lt;编组&gt;"><rect id="_矩形_34" data-name="&lt;矩形&gt;" class="cls-1" x="566.06" y="1101.02" width="18.53" height="56.47"/><rect id="_矩形_35" data-name="&lt;矩形&gt;" class="cls-2" x="570.2" y="1106.04" width="10.26" height="52.94" rx="5.13" ry="5.13"/></g><rect id="_矩形_36" data-name="&lt;矩形&gt;" class="cls-3" x="570.2" y="1129.12" width="10.26" height="6.78"/></g><g id="_编组_26" data-name="&lt;编组&gt;"><g id="_编组_27" data-name="&lt;编组&gt;"><rect id="_矩形_37" data-name="&lt;矩形&gt;" class="cls-1" x="603.65" y="1101.02" width="18.53" height="56.47"/><rect id="_矩形_38" data-name="&lt;矩形&gt;" class="cls-2" x="607.79" y="1106.04" width="10.26" height="52.94" rx="5.13" ry="5.13"/></g><rect id="_矩形_39" data-name="&lt;矩形&gt;" class="cls-3" x="607.79" y="1129.12" width="10.26" height="6.78"/></g><g id="_编组_28" data-name="&lt;编组&gt;"><g id="_编组_29" data-name="&lt;编组&gt;"><rect id="_矩形_40" data-name="&lt;矩形&gt;" class="cls-1" x="641.24" y="1101.02" width="18.53" height="56.47"/><rect id="_矩形_41" data-name="&lt;矩形&gt;" class="cls-2" x="645.38" y="1106.04" width="10.26" height="52.94" rx="5.13" ry="5.13"/></g><rect id="_矩形_42" data-name="&lt;矩形&gt;" class="cls-3" x="645.38" y="1129.12" width="10.26" height="6.78"/></g></g><rect id="_矩形_43" data-name="&lt;矩形&gt;" class="cls-4" x="403.74" y="1153.8" width="305.58" height="114.27"/><rect id="_矩形_44" data-name="&lt;矩形&gt;" class="cls-5" x="457.44" y="1175.2" width="10.26" height="71.47"/><rect id="_矩形_45" data-name="&lt;矩形&gt;" class="cls-5" x="645.38" y="1175.2" width="10.26" height="71.47"/><rect id="_矩形_46" data-name="&lt;矩形&gt;" class="cls-6" x="403.74" y="1121.37" width="18.53" height="32.43"/><rect id="_矩形_47" data-name="&lt;矩形&gt;" class="cls-6" x="690.8" y="1121.37" width="18.53" height="32.43"/><rect id="_矩形_48" data-name="&lt;矩形&gt;" class="cls-6" x="433.65" y="1268.06" width="245.77" height="4.08" rx="2.04" ry="2.04"/></g></g><path id="_复合路径_" data-name="&lt;复合路径&gt;" class="cls-7" d="M741,0H60.36A60.36,60.36,0,0,0,0,60.36V1201a60.36,60.36,0,0,0,60.36,60.36H741A60.36,60.36,0,0,0,801.34,1201V60.36A60.36,60.36,0,0,0,741,0Zm17.33,38.22a6.37,6.37,0,1,1,0,9A6.37,6.37,0,0,1,758.31,38.22ZM737.16,25.73a6.37,6.37,0,1,1-6.37,6.37A6.37,6.37,0,0,1,737.16,25.73ZM707,38.22a6.37,6.37,0,1,1,0,9A6.37,6.37,0,0,1,707,38.22Zm-621.69,0a6.37,6.37,0,1,1,0,9A6.37,6.37,0,0,1,85.32,38.22ZM64.18,25.73a6.37,6.37,0,1,1-6.37,6.37A6.37,6.37,0,0,1,64.18,25.73ZM34,38.22a6.37,6.37,0,1,1,0,9A6.37,6.37,0,0,1,34,38.22ZM21.53,68.37a6.37,6.37,0,1,1,6.37,6.37A6.37,6.37,0,0,1,21.53,68.37ZM43,98.53a6.37,6.37,0,1,1,0-9A6.37,6.37,0,0,1,43,98.53ZM64.18,111a6.37,6.37,0,1,1,6.37-6.37A6.37,6.37,0,0,1,64.18,111Zm0-18.46A24.18,24.18,0,1,1,88.36,68.37,24.18,24.18,0,0,1,64.18,92.56Zm30.15,6a6.37,6.37,0,1,1,0-9A6.37,6.37,0,0,1,94.33,98.53Zm6.12-23.78a6.37,6.37,0,1,1,6.37-6.37A6.37,6.37,0,0,1,100.45,74.74Zm594.07-6.37a6.37,6.37,0,1,1,6.37,6.37A6.37,6.37,0,0,1,694.52,68.37ZM716,98.53a6.37,6.37,0,1,1,0-9A6.37,6.37,0,0,1,716,98.53ZM737.16,111a6.37,6.37,0,1,1,6.37-6.37A6.37,6.37,0,0,1,737.16,111Zm0-18.46a24.18,24.18,0,1,1,24.18-24.18A24.18,24.18,0,0,1,737.16,92.56Zm30.15,6a6.37,6.37,0,1,1,0-9A6.37,6.37,0,0,1,767.32,98.53Zm6.12-23.78a6.37,6.37,0,1,1,6.37-6.37A6.37,6.37,0,0,1,773.44,74.74Z"/><g id="_编组_30" data-name="&lt;编组&gt;"><circle id="_路径_" data-name="&lt;路径&gt;" class="cls-8" cx="64.18" cy="68.37" r="48.21"/><path id="_复合路径_2" data-name="&lt;复合路径&gt;" class="cls-9" d="M64.18,20a48.37,48.37,0,1,0,48.37,48.37A48.42,48.42,0,0,0,64.18,20ZM85.32,38.22a6.37,6.37,0,1,1,0,9A6.37,6.37,0,0,1,85.32,38.22ZM64.18,25.73a6.37,6.37,0,1,1-6.37,6.37A6.37,6.37,0,0,1,64.18,25.73ZM34,38.22a6.37,6.37,0,1,1,0,9A6.37,6.37,0,0,1,34,38.22ZM27.9,74.74a6.37,6.37,0,1,1,6.37-6.37A6.37,6.37,0,0,1,27.9,74.74ZM43,98.53a6.37,6.37,0,1,1,0-9A6.37,6.37,0,0,1,43,98.53ZM64.18,111a6.37,6.37,0,1,1,6.37-6.37A6.37,6.37,0,0,1,64.18,111Zm0-18.46A24.18,24.18,0,1,1,88.36,68.37,24.21,24.21,0,0,1,64.18,92.55Zm30.15,6a6.37,6.37,0,1,1,0-9A6.37,6.37,0,0,1,94.33,98.53Zm6.12-23.78a6.37,6.37,0,1,1,6.37-6.37A6.37,6.37,0,0,1,100.45,74.74Z"/></g><g id="_编组_31" data-name="&lt;编组&gt;"><circle id="_路径_2" data-name="&lt;路径&gt;" class="cls-8" cx="737.16" cy="68.37" r="48.21"/><path id="_复合路径_3" data-name="&lt;复合路径&gt;" class="cls-9" d="M737.16,20a48.37,48.37,0,1,0,48.37,48.37A48.42,48.42,0,0,0,737.16,20Zm21.15,18.21a6.37,6.37,0,1,1,0,9A6.37,6.37,0,0,1,758.31,38.22ZM737.16,25.73a6.37,6.37,0,1,1-6.37,6.37A6.37,6.37,0,0,1,737.16,25.73ZM707,38.22a6.37,6.37,0,1,1,0,9A6.37,6.37,0,0,1,707,38.22Zm-6.12,36.52a6.37,6.37,0,1,1,6.37-6.37A6.37,6.37,0,0,1,700.89,74.74ZM716,98.53a6.37,6.37,0,1,1,0-9A6.37,6.37,0,0,1,716,98.53ZM737.16,111a6.37,6.37,0,1,1,6.37-6.37A6.37,6.37,0,0,1,737.16,111Zm0-18.46a24.18,24.18,0,1,1,24.18-24.18A24.21,24.21,0,0,1,737.16,92.55Zm30.15,6a6.37,6.37,0,1,1,0-9A6.37,6.37,0,0,1,767.32,98.53Zm6.12-23.78a6.37,6.37,0,1,1,6.37-6.37A6.37,6.37,0,0,1,773.44,74.74Z"/></g><rect id="_矩形_49" data-name="&lt;矩形&gt;" class="cls-10" x="23.79" y="254.63" width="372.17" height="372.17"/><rect id="_矩形_50" data-name="&lt;矩形&gt;" class="cls-10" x="405.37" y="254.63" width="372.17" height="372.17"/><rect id="_矩形_51" data-name="&lt;矩形&gt;" class="cls-10" x="23.79" y="637.77" width="372.17" height="372.17"/><rect id="_矩形_52" data-name="&lt;矩形&gt;" class="cls-10" x="405.37" y="637.77" width="372.17" height="372.17"/><g id="_编组_32" data-name="&lt;编组&gt;"><g id="_编组_33" data-name="&lt;编组&gt;"><circle id="_路径_3" data-name="&lt;路径&gt;" class="cls-11" cx="42.25" cy="273.09" r="18.46"/><circle class="cls-11" cx="90.04" cy="273.09" r="18.46"/><circle class="cls-11" cx="137.83" cy="273.09" r="18.46"/><circle class="cls-11" cx="185.62" cy="273.09" r="18.46"/><circle class="cls-11" cx="233.41" cy="273.09" r="18.46"/><circle class="cls-11" cx="281.2" cy="273.09" r="18.46"/><circle class="cls-11" cx="328.99" cy="273.09" r="18.46"/><circle class="cls-11" cx="376.78" cy="273.09" r="18.46"/><circle class="cls-11" cx="424.56" cy="273.09" r="18.46"/><circle class="cls-11" cx="472.35" cy="273.09" r="18.46"/><circle class="cls-11" cx="520.14" cy="273.09" r="18.46"/><circle class="cls-11" cx="567.93" cy="273.09" r="18.46"/><circle class="cls-11" cx="615.72" cy="273.09" r="18.46"/><circle class="cls-11" cx="663.51" cy="273.09" r="18.46"/><circle class="cls-11" cx="711.3" cy="273.09" r="18.46"/><circle id="_路径_4" data-name="&lt;路径&gt;" class="cls-11" cx="759.09" cy="273.09" r="18.46"/></g><g id="_编组_34" data-name="&lt;编组&gt;"><circle id="_路径_5" data-name="&lt;路径&gt;" class="cls-11" cx="42.25" cy="320.98" r="18.46"/><circle class="cls-11" cx="90.04" cy="320.98" r="18.46"/><circle class="cls-11" cx="137.83" cy="320.98" r="18.46"/><circle class="cls-11" cx="185.62" cy="320.98" r="18.46"/><circle class="cls-11" cx="233.41" cy="320.98" r="18.46"/><circle class="cls-11" cx="281.2" cy="320.98" r="18.46"/><circle class="cls-11" cx="328.99" cy="320.98" r="18.46"/><circle class="cls-11" cx="376.78" cy="320.98" r="18.46"/><circle class="cls-11" cx="424.56" cy="320.98" r="18.46"/><circle class="cls-11" cx="472.35" cy="320.98" r="18.46"/><circle class="cls-11" cx="520.14" cy="320.98" r="18.46"/><circle class="cls-11" cx="567.93" cy="320.98" r="18.46"/><circle class="cls-11" cx="615.72" cy="320.98" r="18.46"/><circle class="cls-11" cx="663.51" cy="320.98" r="18.46"/><circle class="cls-11" cx="711.3" cy="320.98" r="18.46"/><circle id="_路径_6" data-name="&lt;路径&gt;" class="cls-11" cx="759.09" cy="320.98" r="18.46"/></g><g id="_编组_35" data-name="&lt;编组&gt;"><circle id="_路径_7" data-name="&lt;路径&gt;" class="cls-11" cx="42.25" cy="368.87" r="18.46"/><circle class="cls-11" cx="90.04" cy="368.87" r="18.46"/><circle class="cls-11" cx="137.83" cy="368.87" r="18.46"/><circle class="cls-11" cx="185.62" cy="368.87" r="18.46"/><circle class="cls-11" cx="233.41" cy="368.87" r="18.46"/><circle class="cls-11" cx="281.2" cy="368.87" r="18.46"/><circle class="cls-11" cx="328.99" cy="368.87" r="18.46"/><circle class="cls-11" cx="376.78" cy="368.87" r="18.46"/><circle class="cls-11" cx="424.56" cy="368.87" r="18.46"/><circle class="cls-11" cx="472.35" cy="368.87" r="18.46"/><circle class="cls-11" cx="520.14" cy="368.87" r="18.46"/><circle class="cls-11" cx="567.93" cy="368.87" r="18.46"/><circle class="cls-11" cx="615.72" cy="368.87" r="18.46"/><circle class="cls-11" cx="663.51" cy="368.87" r="18.46"/><circle class="cls-11" cx="711.3" cy="368.87" r="18.46"/><circle id="_路径_8" data-name="&lt;路径&gt;" class="cls-11" cx="759.09" cy="368.87" r="18.46"/></g><g id="_编组_36" data-name="&lt;编组&gt;"><circle id="_路径_9" data-name="&lt;路径&gt;" class="cls-11" cx="42.25" cy="416.77" r="18.46"/><circle class="cls-11" cx="90.04" cy="416.77" r="18.46"/><circle class="cls-11" cx="137.83" cy="416.77" r="18.46"/><circle class="cls-11" cx="185.62" cy="416.77" r="18.46"/><circle class="cls-11" cx="233.41" cy="416.77" r="18.46"/><circle class="cls-11" cx="281.2" cy="416.77" r="18.46"/><circle class="cls-11" cx="328.99" cy="416.77" r="18.46"/><circle class="cls-11" cx="376.78" cy="416.77" r="18.46"/><circle class="cls-11" cx="424.56" cy="416.77" r="18.46"/><circle class="cls-11" cx="472.35" cy="416.77" r="18.46"/><circle class="cls-11" cx="520.14" cy="416.77" r="18.46"/><circle class="cls-11" cx="567.93" cy="416.77" r="18.46"/><circle class="cls-11" cx="615.72" cy="416.77" r="18.46"/><circle class="cls-11" cx="663.51" cy="416.77" r="18.46"/><circle class="cls-11" cx="711.3" cy="416.77" r="18.46"/><circle id="_路径_10" data-name="&lt;路径&gt;" class="cls-11" cx="759.09" cy="416.77" r="18.46"/></g><g id="_编组_37" data-name="&lt;编组&gt;"><circle id="_路径_11" data-name="&lt;路径&gt;" class="cls-11" cx="42.25" cy="464.66" r="18.46"/><circle class="cls-11" cx="90.04" cy="464.66" r="18.46"/><circle class="cls-11" cx="137.83" cy="464.66" r="18.46"/><circle class="cls-11" cx="185.62" cy="464.66" r="18.46"/><circle class="cls-11" cx="233.41" cy="464.66" r="18.46"/><circle class="cls-11" cx="281.2" cy="464.66" r="18.46"/><circle class="cls-11" cx="328.99" cy="464.66" r="18.46"/><circle class="cls-11" cx="376.78" cy="464.66" r="18.46"/><circle class="cls-11" cx="424.56" cy="464.66" r="18.46"/><circle class="cls-11" cx="472.35" cy="464.66" r="18.46"/><circle class="cls-11" cx="520.14" cy="464.66" r="18.46"/><circle class="cls-11" cx="567.93" cy="464.66" r="18.46"/><circle class="cls-11" cx="615.72" cy="464.66" r="18.46"/><circle class="cls-11" cx="663.51" cy="464.66" r="18.46"/><circle class="cls-11" cx="711.3" cy="464.66" r="18.46"/><circle id="_路径_12" data-name="&lt;路径&gt;" class="cls-11" cx="759.09" cy="464.66" r="18.46"/></g><g id="_编组_38" data-name="&lt;编组&gt;"><circle id="_路径_13" data-name="&lt;路径&gt;" class="cls-11" cx="42.25" cy="512.55" r="18.46"/><circle class="cls-11" cx="90.04" cy="512.55" r="18.46"/><circle class="cls-11" cx="137.83" cy="512.55" r="18.46"/><circle class="cls-11" cx="185.62" cy="512.55" r="18.46"/><circle class="cls-11" cx="233.41" cy="512.55" r="18.46"/><circle class="cls-11" cx="281.2" cy="512.55" r="18.46"/><circle class="cls-11" cx="328.99" cy="512.55" r="18.46"/><circle class="cls-11" cx="376.78" cy="512.55" r="18.46"/><circle class="cls-11" cx="424.56" cy="512.55" r="18.46"/><circle class="cls-11" cx="472.35" cy="512.55" r="18.46"/><circle class="cls-11" cx="520.14" cy="512.55" r="18.46"/><circle class="cls-11" cx="567.93" cy="512.55" r="18.46"/><circle class="cls-11" cx="615.72" cy="512.55" r="18.46"/><circle class="cls-11" cx="663.51" cy="512.55" r="18.46"/><circle class="cls-11" cx="711.3" cy="512.55" r="18.46"/><circle id="_路径_14" data-name="&lt;路径&gt;" class="cls-11" cx="759.09" cy="512.55" r="18.46"/></g><g id="_编组_39" data-name="&lt;编组&gt;"><circle id="_路径_15" data-name="&lt;路径&gt;" class="cls-11" cx="42.25" cy="560.45" r="18.46"/><circle class="cls-11" cx="90.04" cy="560.45" r="18.46"/><circle class="cls-11" cx="137.83" cy="560.45" r="18.46"/><circle class="cls-11" cx="185.62" cy="560.45" r="18.46"/><circle class="cls-11" cx="233.41" cy="560.45" r="18.46"/><circle class="cls-11" cx="281.2" cy="560.45" r="18.46"/><circle class="cls-11" cx="328.99" cy="560.45" r="18.46"/><circle class="cls-11" cx="376.78" cy="560.45" r="18.46"/><circle class="cls-11" cx="424.56" cy="560.45" r="18.46"/><circle class="cls-11" cx="472.35" cy="560.45" r="18.46"/><circle class="cls-11" cx="520.14" cy="560.45" r="18.46"/><circle class="cls-11" cx="567.93" cy="560.45" r="18.46"/><circle class="cls-11" cx="615.72" cy="560.45" r="18.46"/><circle class="cls-11" cx="663.51" cy="560.45" r="18.46"/><circle class="cls-11" cx="711.3" cy="560.45" r="18.46"/><circle id="_路径_16" data-name="&lt;路径&gt;" class="cls-11" cx="759.09" cy="560.45" r="18.46"/></g><g id="_编组_40" data-name="&lt;编组&gt;"><circle id="_路径_17" data-name="&lt;路径&gt;" class="cls-11" cx="42.25" cy="608.34" r="18.46"/><circle class="cls-11" cx="90.04" cy="608.34" r="18.46"/><circle class="cls-11" cx="137.83" cy="608.34" r="18.46"/><circle class="cls-11" cx="185.62" cy="608.34" r="18.46"/><circle class="cls-11" cx="233.41" cy="608.34" r="18.46"/><circle class="cls-11" cx="281.2" cy="608.34" r="18.46"/><circle class="cls-11" cx="328.99" cy="608.34" r="18.46"/><circle class="cls-11" cx="376.78" cy="608.34" r="18.46"/><circle class="cls-11" cx="424.56" cy="608.34" r="18.46"/><circle class="cls-11" cx="472.35" cy="608.34" r="18.46"/><circle class="cls-11" cx="520.14" cy="608.34" r="18.46"/><circle class="cls-11" cx="567.93" cy="608.34" r="18.46"/><circle class="cls-11" cx="615.72" cy="608.34" r="18.46"/><circle class="cls-11" cx="663.51" cy="608.34" r="18.46"/><circle class="cls-11" cx="711.3" cy="608.34" r="18.46"/><circle id="_路径_18" data-name="&lt;路径&gt;" class="cls-11" cx="759.09" cy="608.34" r="18.46"/></g><g id="_编组_41" data-name="&lt;编组&gt;"><circle id="_路径_19" data-name="&lt;路径&gt;" class="cls-11" cx="42.25" cy="656.23" r="18.46"/><circle class="cls-11" cx="90.04" cy="656.23" r="18.46"/><circle class="cls-11" cx="137.83" cy="656.23" r="18.46"/><circle class="cls-11" cx="185.62" cy="656.23" r="18.46"/><circle class="cls-11" cx="233.41" cy="656.23" r="18.46"/><circle class="cls-11" cx="281.2" cy="656.23" r="18.46"/><circle class="cls-11" cx="328.99" cy="656.23" r="18.46"/><circle class="cls-11" cx="376.78" cy="656.23" r="18.46"/><circle class="cls-11" cx="424.56" cy="656.23" r="18.46"/><circle class="cls-11" cx="472.35" cy="656.23" r="18.46"/><circle class="cls-11" cx="520.14" cy="656.23" r="18.46"/><circle class="cls-11" cx="567.93" cy="656.23" r="18.46"/><circle class="cls-11" cx="615.72" cy="656.23" r="18.46"/><circle class="cls-11" cx="663.51" cy="656.23" r="18.46"/><circle class="cls-11" cx="711.3" cy="656.23" r="18.46"/><circle id="_路径_20" data-name="&lt;路径&gt;" class="cls-11" cx="759.09" cy="656.23" r="18.46"/></g><g id="_编组_42" data-name="&lt;编组&gt;"><circle id="_路径_21" data-name="&lt;路径&gt;" class="cls-11" cx="42.25" cy="704.13" r="18.46"/><circle class="cls-11" cx="90.04" cy="704.13" r="18.46"/><circle class="cls-11" cx="137.83" cy="704.13" r="18.46"/><circle class="cls-11" cx="185.62" cy="704.13" r="18.46"/><circle class="cls-11" cx="233.41" cy="704.13" r="18.46"/><circle class="cls-11" cx="281.2" cy="704.13" r="18.46"/><circle class="cls-11" cx="328.99" cy="704.13" r="18.46"/><circle class="cls-11" cx="376.78" cy="704.13" r="18.46"/><circle class="cls-11" cx="424.56" cy="704.13" r="18.46"/><circle class="cls-11" cx="472.35" cy="704.13" r="18.46"/><circle class="cls-11" cx="520.14" cy="704.13" r="18.46"/><circle class="cls-11" cx="567.93" cy="704.13" r="18.46"/><circle class="cls-11" cx="615.72" cy="704.13" r="18.46"/><circle class="cls-11" cx="663.51" cy="704.13" r="18.46"/><circle class="cls-11" cx="711.3" cy="704.13" r="18.46"/><circle id="_路径_22" data-name="&lt;路径&gt;" class="cls-11" cx="759.09" cy="704.13" r="18.46"/></g><g id="_编组_43" data-name="&lt;编组&gt;"><circle id="_路径_23" data-name="&lt;路径&gt;" class="cls-11" cx="42.25" cy="752.02" r="18.46"/><circle class="cls-11" cx="90.04" cy="752.02" r="18.46"/><circle class="cls-11" cx="137.83" cy="752.02" r="18.46"/><circle class="cls-11" cx="185.62" cy="752.02" r="18.46"/><circle class="cls-11" cx="233.41" cy="752.02" r="18.46"/><circle class="cls-11" cx="281.2" cy="752.02" r="18.46"/><circle class="cls-11" cx="328.99" cy="752.02" r="18.46"/><circle class="cls-11" cx="376.78" cy="752.02" r="18.46"/><circle class="cls-11" cx="424.56" cy="752.02" r="18.46"/><circle class="cls-11" cx="472.35" cy="752.02" r="18.46"/><circle class="cls-11" cx="520.14" cy="752.02" r="18.46"/><circle class="cls-11" cx="567.93" cy="752.02" r="18.46"/><circle class="cls-11" cx="615.72" cy="752.02" r="18.46"/><circle class="cls-11" cx="663.51" cy="752.02" r="18.46"/><circle class="cls-11" cx="711.3" cy="752.02" r="18.46"/><circle id="_路径_24" data-name="&lt;路径&gt;" class="cls-11" cx="759.09" cy="752.02" r="18.46"/></g><g id="_编组_44" data-name="&lt;编组&gt;"><circle id="_路径_25" data-name="&lt;路径&gt;" class="cls-11" cx="42.25" cy="799.91" r="18.46"/><circle class="cls-11" cx="90.04" cy="799.91" r="18.46"/><circle class="cls-11" cx="137.83" cy="799.91" r="18.46"/><circle class="cls-11" cx="185.62" cy="799.91" r="18.46"/><circle class="cls-11" cx="233.41" cy="799.91" r="18.46"/><circle class="cls-11" cx="281.2" cy="799.91" r="18.46"/><circle class="cls-11" cx="328.99" cy="799.91" r="18.46"/><circle class="cls-11" cx="376.78" cy="799.91" r="18.46"/><circle class="cls-11" cx="424.56" cy="799.91" r="18.46"/><circle class="cls-11" cx="472.35" cy="799.91" r="18.46"/><circle class="cls-11" cx="520.14" cy="799.91" r="18.46"/><circle class="cls-11" cx="567.93" cy="799.91" r="18.46"/><circle class="cls-11" cx="615.72" cy="799.91" r="18.46"/><circle class="cls-11" cx="663.51" cy="799.91" r="18.46"/><circle class="cls-11" cx="711.3" cy="799.91" r="18.46"/><circle id="_路径_26" data-name="&lt;路径&gt;" class="cls-11" cx="759.09" cy="799.91" r="18.46"/></g><g id="_编组_45" data-name="&lt;编组&gt;"><circle id="_路径_27" data-name="&lt;路径&gt;" class="cls-11" cx="42.25" cy="847.81" r="18.46"/><circle class="cls-11" cx="90.04" cy="847.81" r="18.46"/><circle class="cls-11" cx="137.83" cy="847.81" r="18.46"/><circle class="cls-11" cx="185.62" cy="847.81" r="18.46"/><circle class="cls-11" cx="233.41" cy="847.81" r="18.46"/><circle class="cls-11" cx="281.2" cy="847.81" r="18.46"/><circle class="cls-11" cx="328.99" cy="847.81" r="18.46"/><circle class="cls-11" cx="376.78" cy="847.81" r="18.46"/><circle class="cls-11" cx="424.56" cy="847.81" r="18.46"/><circle class="cls-11" cx="472.35" cy="847.81" r="18.46"/><circle class="cls-11" cx="520.14" cy="847.81" r="18.46"/><circle class="cls-11" cx="567.93" cy="847.81" r="18.46"/><circle class="cls-11" cx="615.72" cy="847.81" r="18.46"/><circle class="cls-11" cx="663.51" cy="847.81" r="18.46"/><circle class="cls-11" cx="711.3" cy="847.81" r="18.46"/><circle id="_路径_28" data-name="&lt;路径&gt;" class="cls-11" cx="759.09" cy="847.81" r="18.46"/></g><g id="_编组_46" data-name="&lt;编组&gt;"><circle id="_路径_29" data-name="&lt;路径&gt;" class="cls-11" cx="42.25" cy="895.7" r="18.46"/><circle class="cls-11" cx="90.04" cy="895.7" r="18.46"/><circle class="cls-11" cx="137.83" cy="895.7" r="18.46"/><circle class="cls-11" cx="185.62" cy="895.7" r="18.46"/><circle class="cls-11" cx="233.41" cy="895.7" r="18.46"/><circle class="cls-11" cx="281.2" cy="895.7" r="18.46"/><circle class="cls-11" cx="328.99" cy="895.7" r="18.46"/><circle class="cls-11" cx="376.78" cy="895.7" r="18.46"/><circle class="cls-11" cx="424.56" cy="895.7" r="18.46"/><circle class="cls-11" cx="472.35" cy="895.7" r="18.46"/><circle class="cls-11" cx="520.14" cy="895.7" r="18.46"/><circle class="cls-11" cx="567.93" cy="895.7" r="18.46"/><circle class="cls-11" cx="615.72" cy="895.7" r="18.46"/><circle class="cls-11" cx="663.51" cy="895.7" r="18.46"/><circle class="cls-11" cx="711.3" cy="895.7" r="18.46"/><circle id="_路径_30" data-name="&lt;路径&gt;" class="cls-11" cx="759.09" cy="895.7" r="18.46"/></g><g id="_编组_47" data-name="&lt;编组&gt;"><circle id="_路径_31" data-name="&lt;路径&gt;" class="cls-11" cx="42.25" cy="943.59" r="18.46"/><circle class="cls-11" cx="90.04" cy="943.59" r="18.46"/><circle class="cls-11" cx="137.83" cy="943.59" r="18.46"/><circle class="cls-11" cx="185.62" cy="943.59" r="18.46"/><circle class="cls-11" cx="233.41" cy="943.59" r="18.46"/><circle class="cls-11" cx="281.2" cy="943.59" r="18.46"/><circle class="cls-11" cx="328.99" cy="943.59" r="18.46"/><circle class="cls-11" cx="376.78" cy="943.59" r="18.46"/><circle class="cls-11" cx="424.56" cy="943.59" r="18.46"/><circle class="cls-11" cx="472.35" cy="943.59" r="18.46"/><circle class="cls-11" cx="520.14" cy="943.59" r="18.46"/><circle class="cls-11" cx="567.93" cy="943.59" r="18.46"/><circle class="cls-11" cx="615.72" cy="943.59" r="18.46"/><circle class="cls-11" cx="663.51" cy="943.59" r="18.46"/><circle class="cls-11" cx="711.3" cy="943.59" r="18.46"/><circle id="_路径_32" data-name="&lt;路径&gt;" class="cls-11" cx="759.09" cy="943.59" r="18.46"/></g><g id="_编组_48" data-name="&lt;编组&gt;"><circle id="_路径_33" data-name="&lt;路径&gt;" class="cls-11" cx="42.25" cy="991.49" r="18.46"/><circle class="cls-11" cx="90.04" cy="991.49" r="18.46"/><circle class="cls-11" cx="137.83" cy="991.49" r="18.46"/><circle class="cls-11" cx="185.62" cy="991.49" r="18.46"/><circle class="cls-11" cx="233.41" cy="991.49" r="18.46"/><circle class="cls-11" cx="281.2" cy="991.49" r="18.46"/><circle class="cls-11" cx="328.99" cy="991.49" r="18.46"/><circle class="cls-11" cx="376.78" cy="991.49" r="18.46"/><circle class="cls-11" cx="424.56" cy="991.49" r="18.46"/><circle class="cls-11" cx="472.35" cy="991.49" r="18.46"/><circle class="cls-11" cx="520.14" cy="991.49" r="18.46"/><circle class="cls-11" cx="567.93" cy="991.49" r="18.46"/><circle class="cls-11" cx="615.72" cy="991.49" r="18.46"/><circle class="cls-11" cx="663.51" cy="991.49" r="18.46"/><circle class="cls-11" cx="711.3" cy="991.49" r="18.46"/><circle id="_路径_34" data-name="&lt;路径&gt;" class="cls-11" cx="759.09" cy="991.49" r="18.46"/></g></g><text class="cls-12" transform="translate(319.28 145.05)">16<tspan class="cls-13" x="62.6" y="0">×</tspan><tspan x="100.17" y="0">16</tspan></text></g></g></svg>