<svg xmlns="http://www.w3.org/2000/svg" viewBox="0 0 442.89 928.09"><defs><style>.cls-1{fill:#353535;}.cls-14,.cls-2,.cls-27{fill:none;}.cls-10,.cls-14,.cls-2,.cls-23,.cls-4{stroke:#fff;}.cls-10,.cls-11,.cls-13,.cls-14,.cls-2,.cls-20,.cls-22,.cls-23,.cls-26,.cls-27,.cls-4{stroke-miterlimit:10;}.cls-2{stroke-width:3.31px;}.cls-3{fill:#f2cb6b;}.cls-4{fill:#d0ab3c;stroke-width:1.99px;}.cls-5{fill:#f0c581;}.cls-6{fill:#c8a266;}.cls-7{fill:#fff;}.cls-8{fill:#f4cb70;}.cls-9{fill:#c6c5c5;}.cls-10{fill:#9b9b9b;}.cls-10,.cls-11,.cls-13,.cls-14,.cls-20,.cls-22{stroke-width:0.66px;}.cls-11{fill:#f99f46;stroke:#ef973f;}.cls-12{fill:#aaa;}.cls-13{fill:#514f50;stroke:#494646;}.cls-15{fill:#c7c6c6;}.cls-16{fill:#a6a6a6;}.cls-17{fill:#d2d3d3;}.cls-18{fill:#030000;}.cls-19{fill:#bb8c27;}.cls-20{fill:#ff4a5c;stroke:#681216;}.cls-21{fill:#e7e887;}.cls-22{fill:#58b1f9;stroke:#122c4f;}.cls-23{fill:#d9b13b;stroke-width:0.33px;}.cls-24{fill:#d1d1d1;}.cls-25{fill:#a7a7a7;}.cls-26{stroke:#11100e;stroke-width:1.05px;}.cls-27{stroke:#9b9b9b;stroke-width:3px;}.cls-28{fill:#232323;}.cls-29{fill:#1c1c1c;}.cls-30{fill:#161616;}.cls-31{fill:#438e53;}</style></defs><title>非接触式测温模块</title><g id="图层_2" data-name="图层 2"><g id="图层_1-2" data-name="图层 1"><path id="_复合路径_" data-name="&lt;复合路径&gt;" class="cls-1" d="M385,0h-327A57.92,57.92,0,0,0,0,57.92V870.17a57.92,57.92,0,0,0,57.92,57.92H385a57.92,57.92,0,0,0,57.92-57.92V57.92A57.92,57.92,0,0,0,385,0Zm13.12,549.87a6.37,6.37,0,1,1,0,9A6.37,6.37,0,0,1,398.09,549.87Zm-21.15-12.49a6.37,6.37,0,1,1-6.37,6.37A6.37,6.37,0,0,1,376.94,537.38Zm-30.15,12.49a6.37,6.37,0,1,1,0,9A6.37,6.37,0,0,1,346.79,549.87Zm-259.7,0a6.37,6.37,0,1,1,0,9A6.37,6.37,0,0,1,87.09,549.87ZM65.94,537.38a6.37,6.37,0,1,1-6.37,6.37A6.37,6.37,0,0,1,65.94,537.38ZM35.79,549.87a6.37,6.37,0,1,1,0,9A6.37,6.37,0,0,1,35.79,549.87ZM23.3,580a6.37,6.37,0,1,1,6.37,6.37A6.37,6.37,0,0,1,23.3,580Zm21.5,30.15a6.37,6.37,0,1,1,0-9A6.37,6.37,0,0,1,44.8,610.17Zm21.15,12.49a6.37,6.37,0,1,1,6.37-6.37A6.37,6.37,0,0,1,65.94,622.66Zm0-17A25.65,25.65,0,1,1,91.59,580,25.65,25.65,0,0,1,65.94,605.67Zm30.15,4.5a6.37,6.37,0,1,1,0-9A6.37,6.37,0,0,1,96.1,610.17Zm6.12-23.78a6.37,6.37,0,1,1,6.37-6.37A6.37,6.37,0,0,1,102.22,586.39ZM334.3,580a6.37,6.37,0,1,1,6.37,6.37A6.37,6.37,0,0,1,334.3,580Zm21.5,30.15a6.37,6.37,0,1,1,0-9A6.37,6.37,0,0,1,355.8,610.17Zm21.15,12.49a6.37,6.37,0,1,1,6.37-6.37A6.37,6.37,0,0,1,376.94,622.66Zm0-17A25.65,25.65,0,1,1,402.59,580,25.65,25.65,0,0,1,376.94,605.67Zm30.15,4.5a6.37,6.37,0,1,1,0-9A6.37,6.37,0,0,1,407.1,610.17Zm6.12-23.78a6.37,6.37,0,1,1,6.37-6.37A6.37,6.37,0,0,1,413.22,586.39Z"/><circle id="_路径_" data-name="&lt;路径&gt;" class="cls-2" cx="65.94" cy="580.02" r="48.21"/><circle id="_路径_2" data-name="&lt;路径&gt;" class="cls-2" cx="376.94" cy="580.02" r="48.21"/><path id="_复合路径_2" data-name="&lt;复合路径&gt;" class="cls-3" d="M376.94,531.66A48.37,48.37,0,1,0,425.31,580,48.42,48.42,0,0,0,376.94,531.66Zm21.15,18.21a6.37,6.37,0,1,1,0,9A6.37,6.37,0,0,1,398.09,549.87Zm-21.15-12.49a6.37,6.37,0,1,1-6.37,6.37A6.37,6.37,0,0,1,376.94,537.38Zm-30.15,12.49a6.37,6.37,0,1,1,0,9A6.37,6.37,0,0,1,346.79,549.87Zm-6.12,36.52A6.37,6.37,0,1,1,347,580,6.37,6.37,0,0,1,340.67,586.39Zm15.13,23.78a6.37,6.37,0,1,1,0-9A6.37,6.37,0,0,1,355.8,610.17Zm21.15,12.49a6.37,6.37,0,1,1,6.37-6.37A6.37,6.37,0,0,1,376.94,622.66Zm0-18.46A24.18,24.18,0,1,1,401.13,580,24.21,24.21,0,0,1,376.94,604.2Zm30.15,6a6.37,6.37,0,1,1,0-9A6.37,6.37,0,0,1,407.1,610.17Zm6.12-23.78a6.37,6.37,0,1,1,6.37-6.37A6.37,6.37,0,0,1,413.22,586.39Z"/><path id="_复合路径_3" data-name="&lt;复合路径&gt;" class="cls-3" d="M65.94,531.66A48.37,48.37,0,1,0,114.31,580,48.42,48.42,0,0,0,65.94,531.66Zm21.15,18.21a6.37,6.37,0,1,1,0,9A6.37,6.37,0,0,1,87.09,549.87ZM65.94,537.38a6.37,6.37,0,1,1-6.37,6.37A6.37,6.37,0,0,1,65.94,537.38ZM35.79,549.87a6.37,6.37,0,1,1,0,9A6.37,6.37,0,0,1,35.79,549.87Zm-6.12,36.52A6.37,6.37,0,1,1,36,580,6.37,6.37,0,0,1,29.67,586.39ZM44.8,610.17a6.37,6.37,0,1,1,0-9A6.37,6.37,0,0,1,44.8,610.17Zm21.15,12.49a6.37,6.37,0,1,1,6.37-6.37A6.37,6.37,0,0,1,65.94,622.66Zm0-18.46A24.18,24.18,0,1,1,90.13,580,24.21,24.21,0,0,1,65.94,604.2Zm30.15,6a6.37,6.37,0,1,1,0-9A6.37,6.37,0,0,1,96.1,610.17Zm6.12-23.78a6.37,6.37,0,1,1,6.37-6.37A6.37,6.37,0,0,1,102.22,586.39Z"/><rect id="_矩形_" data-name="&lt;矩形&gt;" class="cls-4" x="160.45" y="762.05" width="18.53" height="56.47"/><rect id="_矩形_2" data-name="&lt;矩形&gt;" class="cls-5" x="164.59" y="767.06" width="10.26" height="52.94" rx="5.13" ry="5.13"/><rect id="_矩形_3" data-name="&lt;矩形&gt;" class="cls-6" x="164.59" y="790.14" width="10.26" height="6.78"/><rect id="_矩形_4" data-name="&lt;矩形&gt;" class="cls-4" x="196.06" y="762.05" width="18.53" height="56.47"/><rect id="_矩形_5" data-name="&lt;矩形&gt;" class="cls-5" x="200.2" y="767.06" width="10.26" height="52.94" rx="5.13" ry="5.13"/><rect id="_矩形_6" data-name="&lt;矩形&gt;" class="cls-6" x="200.2" y="790.14" width="10.26" height="6.78"/><rect id="_矩形_7" data-name="&lt;矩形&gt;" class="cls-4" x="231.67" y="762.05" width="18.53" height="56.47"/><rect id="_矩形_8" data-name="&lt;矩形&gt;" class="cls-5" x="235.8" y="767.06" width="10.26" height="52.94" rx="5.13" ry="5.13"/><rect id="_矩形_9" data-name="&lt;矩形&gt;" class="cls-6" x="235.8" y="790.14" width="10.26" height="6.78"/><rect id="_矩形_10" data-name="&lt;矩形&gt;" class="cls-4" x="267.27" y="762.05" width="18.53" height="56.47"/><rect id="_矩形_11" data-name="&lt;矩形&gt;" class="cls-5" x="271.41" y="767.06" width="10.26" height="52.94" rx="5.13" ry="5.13"/><rect id="_矩形_12" data-name="&lt;矩形&gt;" class="cls-6" x="271.41" y="790.14" width="10.26" height="6.78"/><rect id="_矩形_13" data-name="&lt;矩形&gt;" class="cls-7" x="112.59" y="809.75" width="217.72" height="114.27"/><rect id="_矩形_14" data-name="&lt;矩形&gt;" class="cls-8" x="162.91" y="831.15" width="10.26" height="71.47"/><rect id="_矩形_15" data-name="&lt;矩形&gt;" class="cls-8" x="269.73" y="832.8" width="10.26" height="71.47"/><rect id="_矩形_16" data-name="&lt;矩形&gt;" class="cls-9" x="112.59" y="777.32" width="18.53" height="32.43"/><rect id="_矩形_17" data-name="&lt;矩形&gt;" class="cls-9" x="311.78" y="777.32" width="18.53" height="32.43"/><rect id="_矩形_18" data-name="&lt;矩形&gt;" class="cls-9" x="159.24" y="924.01" width="124.41" height="4.08" rx="2.04" ry="2.04"/><path id="_复合路径_4" data-name="&lt;复合路径&gt;" class="cls-7" d="M161.49,746.89l14-5v0l-14-5V735l16.21,5.91v1.95l-16.21,5.87Z"/><path id="_复合路径_5" data-name="&lt;复合路径&gt;" class="cls-7" d="M161.09,726.54c0-3.68,2.06-5.69,4.23-6.42l.29,1.75a4.67,4.67,0,0,0-3,4.67c0,3.28,2.3,5.45,7,5.45,4.25,0,7-2.21,7-5.45a4.82,4.82,0,0,0-3.21-4.87l.27-1.68a6.42,6.42,0,0,1,4.52,6.55c0,4.69-3.79,7.15-8.55,7.15S161.09,731.61,161.09,726.54Z"/><path id="_复合路径_6" data-name="&lt;复合路径&gt;" class="cls-7" d="M161.09,710.75c0-3.68,2.06-5.69,4.23-6.42l.29,1.75a4.67,4.67,0,0,0-3,4.67c0,3.28,2.3,5.45,7,5.45,4.25,0,7-2.21,7-5.45a4.82,4.82,0,0,0-3.21-4.87l.27-1.68a6.42,6.42,0,0,1,4.52,6.55c0,4.69-3.79,7.15-8.55,7.15S161.09,715.83,161.09,710.75Z"/><path id="_复合路径_7" data-name="&lt;复合路径&gt;" class="cls-7" d="M268,741.12c0-4.1,2.35-5.6,4.47-6.51l.29,1.79a4.77,4.77,0,0,0-3.23,4.72c0,3.34,2.86,5.71,7,5.71,4.25,0,7-2.46,7-5.49A5.57,5.57,0,0,0,279.3,736h-1.75V741H276V734.3h8.64v1.55h-3.32a6.14,6.14,0,0,1,3.74,5.69c0,3.61-3.08,7-8.55,7C271.43,748.54,268,745.51,268,741.12Z"/><path id="_复合路径_8" data-name="&lt;复合路径&gt;" class="cls-7" d="M268.42,728.79l13.46-9.48v0H268.42v-1.71h16.21v1.79l-13.46,9.43,0,0h13.49v1.73H268.42Z"/><path id="_复合路径_9" data-name="&lt;复合路径&gt;" class="cls-7" d="M268.42,707.87c0-5.29,4.19-7.17,8.08-7.17,4.65,0,8.13,2.3,8.13,7.48v5.58H268.42ZM283.1,712v-3.9c0-3.23-2.15-5.74-6.6-5.74-3.08,0-6.55,1.51-6.55,5.78V712Z"/><path id="_复合路径_10" data-name="&lt;复合路径&gt;" class="cls-7" d="M244.84,746.77a4.89,4.89,0,0,0,3.41-4.83c0-2.57-1.59-3.92-2.92-3.92-2,0-3.15,2.78-3.85,4.6-1.26,3.48-2.55,5.58-4.81,5.58-2.87,0-4.72-2.71-4.72-6a6,6,0,0,1,4.06-6l.3,1.94a4.21,4.21,0,0,0-2.76,4.13c0,2.31,1.35,3.95,2.9,3.95,1.73,0,2.5-1.94,3.43-4.37,1.4-3.83,3-5.86,5.21-5.86,2.8,0,4.81,2.41,4.81,6a6.61,6.61,0,0,1-4.76,6.75Z"/><path id="_复合路径_11" data-name="&lt;复合路径&gt;" class="cls-7" d="M232,726c0-3.88,2.17-6,4.46-6.77l.3,1.85a4.92,4.92,0,0,0-3.15,4.93c0,3.46,2.43,5.74,7.33,5.74,4.48,0,7.36-2.33,7.36-5.74a5.08,5.08,0,0,0-3.39-5.14l.28-1.77a6.77,6.77,0,0,1,4.76,6.91c0,5-4,7.54-9,7.54S232,731.3,232,726Z"/><path id="_复合路径_12" data-name="&lt;复合路径&gt;" class="cls-7" d="M232.37,714.2h15.48v-9.11h1.61V716H232.37Z"/><path id="_复合路径_13" data-name="&lt;复合路径&gt;" class="cls-7" d="M208.85,747a4.42,4.42,0,0,0,3.08-4.36c0-2.32-1.43-3.54-2.63-3.54-1.81,0-2.85,2.51-3.48,4.15-1.14,3.14-2.3,5-4.34,5-2.59,0-4.26-2.45-4.26-5.42a5.37,5.37,0,0,1,3.67-5.42l.27,1.75a3.8,3.8,0,0,0-2.49,3.73c0,2.09,1.22,3.56,2.61,3.56,1.56,0,2.25-1.75,3.1-3.94,1.26-3.46,2.74-5.29,4.7-5.29,2.53,0,4.34,2.17,4.34,5.42a6,6,0,0,1-4.3,6.09Z"/><path id="_复合路径_14" data-name="&lt;复合路径&gt;" class="cls-7" d="M197.6,728.64c0-5,4-6.83,7.69-6.83,4.43,0,7.73,2.19,7.73,7.12v5.31H197.6Zm14,4v-3.71c0-3.08-2-5.46-6.28-5.46-2.93,0-6.24,1.43-6.24,5.5v3.67Z"/><path id="_复合路径_15" data-name="&lt;复合路径&gt;" class="cls-7" d="M197.6,714.45V712.7L213,706.61v1.71l-4.4,1.73v7.14l4.4,1.75v1.69Zm9.55,2.15v-6l-7.59,3v0Z"/><rect id="_矩形_19" data-name="&lt;矩形&gt;" class="cls-10" x="159.88" y="622.94" width="17.32" height="13.51" transform="translate(337.08 1259.39) rotate(180)"/><rect id="_矩形_20" data-name="&lt;矩形&gt;" class="cls-10" x="159.88" y="596.03" width="17.32" height="13.51" transform="translate(337.08 1205.57) rotate(180)"/><rect id="_矩形_21" data-name="&lt;矩形&gt;" class="cls-11" x="161.92" y="606.56" width="13.24" height="19.47" transform="translate(337.08 1232.59) rotate(180)"/><rect id="_矩形_22" data-name="&lt;矩形&gt;" class="cls-12" x="166.2" y="598.4" width="4.74" height="14.67" transform="translate(774.3 437.17) rotate(90)"/><rect id="_矩形_23" data-name="&lt;矩形&gt;" class="cls-12" x="166.2" y="619.47" width="4.74" height="14.67" transform="translate(795.37 458.24) rotate(90)"/><rect id="_矩形_24" data-name="&lt;矩形&gt;" class="cls-10" x="265.69" y="622.94" width="17.32" height="13.51" transform="translate(548.7 1259.39) rotate(180)"/><rect id="_矩形_25" data-name="&lt;矩形&gt;" class="cls-10" x="265.69" y="596.03" width="17.32" height="13.51" transform="translate(548.7 1205.57) rotate(180)"/><rect id="_矩形_26" data-name="&lt;矩形&gt;" class="cls-11" x="267.73" y="606.56" width="13.24" height="19.47" transform="translate(548.7 1232.59) rotate(180)"/><rect id="_矩形_27" data-name="&lt;矩形&gt;" class="cls-12" x="272.01" y="598.4" width="4.74" height="14.67" transform="translate(880.12 331.36) rotate(90)"/><rect id="_矩形_28" data-name="&lt;矩形&gt;" class="cls-12" x="272.01" y="619.47" width="4.74" height="14.67" transform="translate(901.18 352.42) rotate(90)"/><rect id="_矩形_29" data-name="&lt;矩形&gt;" class="cls-10" x="203.52" y="586.6" width="11.17" height="21.09"/><rect id="_矩形_30" data-name="&lt;矩形&gt;" class="cls-10" x="231.59" y="586.6" width="11.17" height="21.09"/><rect id="_矩形_31" data-name="&lt;矩形&gt;" class="cls-10" x="217.56" y="624.9" width="11.17" height="21.09"/><rect id="_矩形_32" data-name="&lt;矩形&gt;" class="cls-13" x="196.09" y="604.22" width="54.1" height="24.65"/><polyline id="_路径_3" data-name="&lt;路径&gt;" class="cls-14" points="195.43 617.29 195.43 629.61 203.48 629.61"/><polyline id="_路径_4" data-name="&lt;路径&gt;" class="cls-14" points="250.77 617.29 250.77 629.61 242.72 629.61"/><rect id="_矩形_33" data-name="&lt;矩形&gt;" class="cls-15" x="204.61" y="594.35" width="8.99" height="9.87"/><rect id="_矩形_34" data-name="&lt;矩形&gt;" class="cls-15" x="232.68" y="594.35" width="8.99" height="9.87"/><rect id="_矩形_35" data-name="&lt;矩形&gt;" class="cls-15" x="218.65" y="628.87" width="8.99" height="9.87"/><rect id="_矩形_36" data-name="&lt;矩形&gt;" class="cls-16" x="204.61" y="600.99" width="8.99" height="1.05"/><rect id="_矩形_37" data-name="&lt;矩形&gt;" class="cls-16" x="232.68" y="600.99" width="8.99" height="1.05"/><rect id="_矩形_38" data-name="&lt;矩形&gt;" class="cls-16" x="218.65" y="630.96" width="8.99" height="1.05"/><rect id="_矩形_39" data-name="&lt;矩形&gt;" class="cls-10" x="36.91" y="682.23" width="17.32" height="43.57"/><rect id="_矩形_40" data-name="&lt;矩形&gt;" class="cls-17" x="37.21" y="688.46" width="16.71" height="29.78"/><polygon id="_路径_5" data-name="&lt;路径&gt;" class="cls-18" points="37.27 693.84 37.27 713.03 53.86 713.03 53.86 693.84 50.47 693.84 50.47 694.54 40.09 694.54 40.09 693.84 37.27 693.84"/><rect id="_矩形_41" data-name="&lt;矩形&gt;" class="cls-10" x="64.92" y="682.23" width="17.32" height="43.57"/><rect id="_矩形_42" data-name="&lt;矩形&gt;" class="cls-17" x="65.23" y="688.46" width="16.71" height="29.78"/><polygon id="_路径_6" data-name="&lt;路径&gt;" class="cls-18" points="65.29 693.84 65.29 713.03 81.88 713.03 81.88 693.84 78.48 693.84 78.48 694.54 68.1 694.54 68.1 693.84 65.29 693.84"/><rect id="_矩形_43" data-name="&lt;矩形&gt;" class="cls-10" x="36.91" y="735.56" width="17.32" height="13.51"/><rect id="_矩形_44" data-name="&lt;矩形&gt;" class="cls-10" x="36.91" y="762.47" width="17.32" height="13.51"/><path id="_路径_7" data-name="&lt;路径&gt;" class="cls-19" d="M50.23,740.22a4.66,4.66,0,1,1-9.32,0H38.12v8.85H53v-8.85Z"/><path id="_路径_8" data-name="&lt;路径&gt;" class="cls-19" d="M40.91,771.32a4.66,4.66,0,1,1,9.32,0H53v-8.85H38.12v8.85Z"/><rect id="_矩形_45" data-name="&lt;矩形&gt;" class="cls-20" x="38.95" y="745.98" width="13.24" height="19.47"/><rect id="_矩形_46" data-name="&lt;矩形&gt;" class="cls-10" x="64.92" y="735.56" width="17.32" height="13.51"/><rect id="_矩形_47" data-name="&lt;矩形&gt;" class="cls-10" x="64.92" y="762.47" width="17.32" height="13.51"/><path id="_路径_9" data-name="&lt;路径&gt;" class="cls-21" d="M78.24,740.22a4.66,4.66,0,1,1-9.32,0H66.14v8.85H81v-8.85Z"/><path id="_路径_10" data-name="&lt;路径&gt;" class="cls-21" d="M68.92,771.32a4.66,4.66,0,1,1,9.32,0H81v-8.85H66.14v8.85Z"/><rect id="_矩形_48" data-name="&lt;矩形&gt;" class="cls-22" x="66.97" y="745.98" width="13.24" height="19.47"/><rect id="_矩形_49" data-name="&lt;矩形&gt;" class="cls-10" x="174.32" y="506.62" width="17.32" height="43.57" transform="translate(365.95 1056.8) rotate(180)"/><rect id="_矩形_50" data-name="&lt;矩形&gt;" class="cls-17" x="174.62" y="514.17" width="16.71" height="29.78" transform="translate(365.95 1058.13) rotate(180)"/><polygon id="_路径_11" data-name="&lt;路径&gt;" class="cls-18" points="191.27 538.58 191.27 519.38 174.68 519.38 174.68 538.58 178.07 538.58 178.07 537.87 188.46 537.87 188.46 538.58 191.27 538.58"/><rect id="_矩形_51" data-name="&lt;矩形&gt;" class="cls-10" x="236.43" y="517.2" width="17.32" height="43.57" transform="translate(-293.9 784.07) rotate(-90)"/><rect id="_矩形_52" data-name="&lt;矩形&gt;" class="cls-17" x="236.07" y="524.09" width="16.71" height="29.78" transform="translate(-294.56 783.41) rotate(-90)"/><polygon id="_路径_12" data-name="&lt;路径&gt;" class="cls-18" points="234.91 547.28 254.1 547.28 254.1 530.69 234.91 530.69 234.91 534.08 235.61 534.08 235.61 544.46 234.91 544.46 234.91 547.28"/><rect id="_矩形_53" data-name="&lt;矩形&gt;" class="cls-10" x="236.43" y="434.02" width="17.32" height="43.57" transform="translate(-210.72 700.89) rotate(-90)"/><rect id="_矩形_54" data-name="&lt;矩形&gt;" class="cls-17" x="236.07" y="440.92" width="16.71" height="29.78" transform="translate(-211.38 700.23) rotate(-90)"/><polygon id="_路径_13" data-name="&lt;路径&gt;" class="cls-18" points="234.91 464.1 254.1 464.1 254.1 447.51 234.91 447.51 234.91 450.9 235.61 450.9 235.61 461.29 234.91 461.29 234.91 464.1"/><rect id="_矩形_55" data-name="&lt;矩形&gt;" class="cls-10" x="174.32" y="446.55" width="17.32" height="43.57" transform="translate(365.95 936.67) rotate(180)"/><rect id="_矩形_56" data-name="&lt;矩形&gt;" class="cls-17" x="174.62" y="454.11" width="16.71" height="29.78" transform="translate(365.95 937.99) rotate(180)"/><polygon id="_路径_14" data-name="&lt;路径&gt;" class="cls-18" points="191.27 478.51 191.27 459.32 174.68 459.32 174.68 478.51 178.07 478.51 178.07 477.81 188.46 477.81 188.46 478.51 191.27 478.51"/><rect id="_矩形_57" data-name="&lt;矩形&gt;" class="cls-23" x="218.28" y="482" width="53.6" height="7.72"/><rect id="_矩形_58" data-name="&lt;矩形&gt;" class="cls-23" x="218.28" y="494.29" width="53.6" height="7.72"/><rect id="_矩形_59" data-name="&lt;矩形&gt;" class="cls-23" x="218.28" y="506.57" width="53.6" height="7.72"/><rect id="_矩形_60" data-name="&lt;矩形&gt;" class="cls-24" x="257.96" y="507.72" width="10.66" height="5.42" transform="translate(526.58 1020.86) rotate(180)"/><rect id="_矩形_61" data-name="&lt;矩形&gt;" class="cls-25" x="262.22" y="507.72" width="1.92" height="5.42" transform="translate(526.36 1020.86) rotate(180)"/><rect id="_矩形_62" data-name="&lt;矩形&gt;" class="cls-24" x="257.96" y="495.44" width="10.66" height="5.42" transform="translate(526.58 996.29) rotate(180)"/><rect id="_矩形_63" data-name="&lt;矩形&gt;" class="cls-25" x="262.22" y="495.44" width="1.92" height="5.42" transform="translate(526.36 996.29) rotate(180)"/><rect id="_矩形_64" data-name="&lt;矩形&gt;" class="cls-24" x="257.96" y="483.15" width="10.66" height="5.42" transform="translate(526.58 971.72) rotate(180)"/><rect id="_矩形_65" data-name="&lt;矩形&gt;" class="cls-25" x="262.22" y="483.15" width="1.92" height="5.42" transform="translate(526.36 971.72) rotate(180)"/><rect id="_矩形_66" data-name="&lt;矩形&gt;" class="cls-24" x="221.52" y="483.03" width="10.66" height="5.42"/><rect id="_矩形_67" data-name="&lt;矩形&gt;" class="cls-25" x="225.99" y="483.03" width="1.92" height="5.42"/><rect id="_矩形_68" data-name="&lt;矩形&gt;" class="cls-24" x="221.52" y="495.31" width="10.66" height="5.42"/><rect id="_矩形_69" data-name="&lt;矩形&gt;" class="cls-25" x="225.99" y="495.31" width="1.92" height="5.42"/><rect id="_矩形_70" data-name="&lt;矩形&gt;" class="cls-24" x="221.52" y="507.6" width="10.66" height="5.42"/><rect id="_矩形_71" data-name="&lt;矩形&gt;" class="cls-25" x="225.99" y="507.6" width="1.92" height="5.42"/><rect id="_矩形_72" data-name="&lt;矩形&gt;" class="cls-7" x="232.21" y="475.8" width="25.75" height="44.7" rx="2.02" ry="2.02"/><rect id="_矩形_73" data-name="&lt;矩形&gt;" class="cls-26" x="232.71" y="477.81" width="24.76" height="40.68"/><path class="cls-27" d="M229,168.84V151.51H213.91v17.33a86.3,86.3,0,1,0,15.08,0Z"/><circle class="cls-28" cx="221.45" cy="255.83" r="85.02"/><path class="cls-29" d="M221.45,182.8a73,73,0,1,1-73,73,73.11,73.11,0,0,1,73-73m0-12a85,85,0,1,0,85,85,85,85,0,0,0-85-85Z"/><circle class="cls-29" cx="221.45" cy="255.83" r="29.07"/><path class="cls-30" d="M221.45,230.76a25.07,25.07,0,1,1-25.07,25.07,25.1,25.1,0,0,1,25.07-25.07m0-4a29.07,29.07,0,1,0,29.07,29.07,29.07,29.07,0,0,0-29.07-29.07Z"/><circle class="cls-31" cx="221.45" cy="255.83" r="8.69"/></g></g></svg>