<svg xmlns="http://www.w3.org/2000/svg" viewBox="0 0 332.98 1169.53"><defs><style>.cls-1{fill:#ccc;}.cls-2{fill:#9b9b9b;}.cls-3{fill:#afafaf;}.cls-4{fill:#a5a5a5;}.cls-5{fill:#eab854;}.cls-6{fill:#8c8c8c;}.cls-14,.cls-7{fill:#b5b5b6;}.cls-7{stroke:#444;stroke-miterlimit:10;}.cls-8{fill:#9fa0a0;stroke:#898989;stroke-linecap:round;stroke-linejoin:round;stroke-width:4px;}.cls-9{fill:#efefef;}.cls-10{fill:#dcdddd;}.cls-11{fill:#d3d3d3;}.cls-12{fill:#111;}.cls-13{fill:#e5e5e5;}.cls-15{fill:#727171;}.cls-16{fill:#3a3a3a;}.cls-17{fill:#77592c;}</style></defs><title>资源 121</title><g id="图层_2" data-name="图层 2"><g id="图层_1-2" data-name="图层 1"><path class="cls-1" d="M14.17,624.48H318.81A14.17,14.17,0,0,1,333,638.65V1064a0,0,0,0,1,0,0H0a0,0,0,0,1,0,0V638.65A14.17,14.17,0,0,1,14.17,624.48Z"/><rect class="cls-2" y="558.03" width="332.98" height="66.45"/><rect class="cls-3" y="1063.95" width="332.98" height="19.07"/><rect class="cls-2" y="353.57" width="332.98" height="66.45"/><rect class="cls-4" y="420.03" width="332.98" height="138"/><rect class="cls-5" x="115.83" y="318.24" width="101.33" height="35.33"/><rect class="cls-6" y="419.18" width="332.98" height="1.69"/><rect class="cls-6" y="557.18" width="332.98" height="1.69"/><rect class="cls-7" x="40.06" y="628.23" width="22" height="15.55" rx="5.11" ry="5.11"/><rect class="cls-7" x="263.81" y="628.23" width="22" height="15.55" rx="5.11" ry="5.11"/><polyline class="cls-8" points="121.86 734.16 100.93 734.16 92.93 834.16 107.39 888.66 121.86 888.66"/><polyline class="cls-8" points="211.13 734.16 232.06 734.16 240.06 834.16 225.59 888.66 211.13 888.66"/><polyline class="cls-9" points="148.29 1153.53 63.53 1153.53 63.53 1083.03 269.45 1083.03 269.45 1153.53 184.69 1153.53"/><polygon class="cls-10" points="273.95 1153.53 184.69 1153.53 184.69 1144.53 264.95 1144.53 264.95 1087.53 68.03 1087.53 68.03 1144.53 148.29 1144.53 148.29 1153.53 59.03 1153.53 59.03 1078.53 273.95 1078.53 273.95 1153.53"/><polygon class="cls-11" points="181.9 0 138.9 0 138.9 318.24 194.09 318.24 194.09 159.12 181.9 159.12 181.9 0"/><rect class="cls-12" x="75.83" y="1153.53" width="181.33" height="5.67"/><rect class="cls-13" x="156.49" y="1159.19" width="20" height="10.33"/><rect class="cls-14" x="90.33" y="1112.32" width="7.42" height="7.42"/><rect class="cls-14" x="119.31" y="1112.32" width="7.42" height="7.42"/><rect class="cls-14" x="148.29" y="1112.32" width="7.42" height="7.42"/><rect class="cls-14" x="177.27" y="1112.32" width="7.42" height="7.42"/><rect class="cls-14" x="206.26" y="1112.32" width="7.42" height="7.42"/><rect class="cls-14" x="235.24" y="1112.32" width="7.42" height="7.42"/><rect class="cls-15" x="36.89" y="1048.53" width="12" height="15.43"/><rect class="cls-16" x="36.89" y="1055.78" width="12" height="8.18"/><rect class="cls-15" x="284.39" y="1048.53" width="12" height="15.43"/><rect class="cls-16" x="284.39" y="1055.78" width="12" height="8.18"/><rect class="cls-17" x="115.83" y="349.03" width="101.33" height="4.55"/></g></g></svg>