<svg xmlns="http://www.w3.org/2000/svg" viewBox="0 0 1035.56 1268.38"><defs><style>.cls-1{fill:#353535;}.cls-15,.cls-2,.cls-29,.cls-50,.cls-54{fill:none;}.cls-11,.cls-12,.cls-13,.cls-15,.cls-18,.cls-2,.cls-24,.cls-27,.cls-29,.cls-4,.cls-50,.cls-54,.cls-56,.cls-57,.cls-7{stroke:#fff;}.cls-11,.cls-12,.cls-13,.cls-15,.cls-18,.cls-2,.cls-24,.cls-27,.cls-28,.cls-29,.cls-34,.cls-4,.cls-5,.cls-50,.cls-54,.cls-55,.cls-56,.cls-57,.cls-7{stroke-miterlimit:10;}.cls-2{stroke-width:3.31px;}.cls-3{fill:#f2cb6b;}.cls-18,.cls-4{fill:#d0ab3c;}.cls-4{stroke-width:1.32px;}.cls-5{fill:#f99f46;stroke:#ef973f;}.cls-24,.cls-34,.cls-5{stroke-width:0.66px;}.cls-6{fill:#aaa;}.cls-7{fill:#e2b838;}.cls-15,.cls-18,.cls-7{stroke-width:1.99px;}.cls-8{fill:#848484;}.cls-9{fill:#c2c2c2;}.cls-10{fill:#454545;}.cls-11{fill:#69667f;stroke-width:2.65px;}.cls-12,.cls-13,.cls-39{fill:#e1b737;}.cls-12{stroke-width:1.24px;}.cls-13,.cls-56,.cls-57{stroke-width:1.25px;}.cls-14{fill:#1f1f1f;}.cls-16{fill:#161616;}.cls-17{fill:#c1c1c1;}.cls-19{fill:#f0c581;}.cls-20{fill:#c8a266;}.cls-21,.cls-56{fill:#fff;}.cls-22{fill:#f4cb70;}.cls-23{fill:#c6c5c5;}.cls-24{fill:#9b9b9b;}.cls-25{fill:#d2d3d3;}.cls-26{fill:#030000;}.cls-27,.cls-35{fill:#d9b13b;}.cls-27,.cls-28,.cls-29{stroke-width:0.77px;}.cls-28{fill:#514f50;stroke:#494646;}.cls-30{fill:#c7c6c6;}.cls-31{fill:#a6a6a6;}.cls-32{fill:#e1b738;}.cls-33{fill:#bb8c27;}.cls-34{fill:#ff4a5c;stroke:#681216;}.cls-36{fill:#e4c55b;}.cls-37{fill:#de7215;}.cls-38{fill:#b5b5b6;}.cls-40{fill:#d0d0d0;}.cls-41{fill:#838383;}.cls-42{fill:#cecece;}.cls-43{fill:#6b6b6b;}.cls-44,.cls-55{fill:#9fa0a0;}.cls-45{fill:#666;}.cls-46{fill:#f4f4f4;}.cls-47{fill:#515151;}.cls-48{fill:#bbb;}.cls-49{fill:#f7f8f8;}.cls-50{stroke-width:3.33px;}.cls-51{fill:#3e3a39;}.cls-52{fill:#068306;}.cls-53{fill:#06c106;}.cls-54{stroke-width:6px;}.cls-55{stroke:#e1b737;stroke-width:4px;}.cls-57{fill:#e5e5e5;}.cls-58{fill:#727272;}</style></defs><title>电机舵机驱动模块</title><g id="图层_2" data-name="图层 2"><g id="图层_1-2" data-name="图层 1"><path id="_复合路径_" data-name="&lt;复合路径&gt;" class="cls-1" d="M874.9,0H71.44A71.43,71.43,0,0,0,0,71.43V1196.69a71.44,71.44,0,0,0,71.44,71.44H874.9a71.44,71.44,0,0,0,71.44-71.44V71.43A71.43,71.43,0,0,0,874.9,0Zm23.39,43.58a6.37,6.37,0,1,1,0,9A6.37,6.37,0,0,1,898.29,43.58Zm9,60.31a6.37,6.37,0,1,1,0-9A6.37,6.37,0,0,1,907.3,103.88Zm0,1069.36a6.37,6.37,0,1,1,0-9A6.37,6.37,0,0,1,907.3,1173.25ZM877.14,31.09a6.37,6.37,0,1,1-6.37,6.37A6.37,6.37,0,0,1,877.14,31.09Zm0,18.46A24.18,24.18,0,1,1,853,73.73,24.18,24.18,0,0,1,877.14,49.55Zm0,66.83a6.37,6.37,0,1,1,6.37-6.37A6.37,6.37,0,0,1,877.14,116.37Zm6.37,1041.75a6.37,6.37,0,1,1-6.37-6.37A6.37,6.37,0,0,1,883.51,1158.12ZM856,103.88a6.37,6.37,0,1,1,0-9A6.37,6.37,0,0,1,856,103.88Zm0,1069.36a6.37,6.37,0,1,1,0-9A6.37,6.37,0,0,1,856,1173.25ZM847,43.58a6.37,6.37,0,1,1,0,9A6.37,6.37,0,0,1,847,43.58Zm-6.12,23.78a6.37,6.37,0,1,1-6.37,6.37A6.37,6.37,0,0,1,840.87,67.36ZM90.34,43.58a6.37,6.37,0,1,1,0,9A6.37,6.37,0,0,1,90.34,43.58Zm9,60.31a6.37,6.37,0,1,1,0-9A6.37,6.37,0,0,1,99.35,103.88Zm0,1069.36a6.37,6.37,0,1,1,0-9A6.37,6.37,0,0,1,99.35,1173.25ZM69.19,31.09a6.37,6.37,0,1,1-6.37,6.37A6.37,6.37,0,0,1,69.19,31.09Zm0,18.46A24.18,24.18,0,1,1,45,73.73,24.18,24.18,0,0,1,69.19,49.55Zm0,66.83A6.37,6.37,0,1,1,75.56,110,6.37,6.37,0,0,1,69.19,116.37Zm6.37,1041.75a6.37,6.37,0,1,1-6.37-6.37A6.37,6.37,0,0,1,75.56,1158.12ZM48,103.88a6.37,6.37,0,1,1,0-9A6.37,6.37,0,0,1,48,103.88Zm0,1069.36a6.37,6.37,0,1,1,0-9A6.37,6.37,0,0,1,48,1173.25ZM39,43.58a6.37,6.37,0,1,1,0,9A6.37,6.37,0,0,1,39,43.58ZM32.92,67.36a6.37,6.37,0,1,1-6.37,6.37A6.37,6.37,0,0,1,32.92,67.36Zm-6.37,1127a6.37,6.37,0,1,1,6.37,6.37A6.37,6.37,0,0,1,26.55,1194.39ZM48,1224.55a6.37,6.37,0,1,1,0-9A6.37,6.37,0,0,1,48,1224.55ZM69.19,1237a6.37,6.37,0,1,1,6.37-6.37A6.37,6.37,0,0,1,69.19,1237Zm0-18.46a24.18,24.18,0,1,1,24.18-24.18A24.18,24.18,0,0,1,69.19,1218.58Zm30.15,6a6.37,6.37,0,1,1,0-9A6.37,6.37,0,0,1,99.35,1224.55Zm6.12-23.78a6.37,6.37,0,1,1,6.37-6.37A6.37,6.37,0,0,1,105.47,1200.76Zm0-1120.66a6.37,6.37,0,1,1,6.37-6.37A6.37,6.37,0,0,1,105.47,80.1Zm729,1114.29a6.37,6.37,0,1,1,6.37,6.37A6.37,6.37,0,0,1,834.5,1194.39Zm21.5,30.15a6.37,6.37,0,1,1,0-9A6.37,6.37,0,0,1,856,1224.55ZM877.14,1237a6.37,6.37,0,1,1,6.37-6.37A6.37,6.37,0,0,1,877.14,1237Zm0-18.46a24.18,24.18,0,1,1,24.18-24.18A24.18,24.18,0,0,1,877.14,1218.58Zm30.15,6a6.37,6.37,0,1,1,0-9A6.37,6.37,0,0,1,907.3,1224.55Zm6.12-23.78a6.37,6.37,0,1,1,6.37-6.37A6.37,6.37,0,0,1,913.42,1200.76Zm0-1120.66a6.37,6.37,0,1,1,6.37-6.37A6.37,6.37,0,0,1,913.42,80.1Z"/><g id="_编组_" data-name="&lt;编组&gt;"><g id="_编组_2" data-name="&lt;编组&gt;"><circle id="_路径_" data-name="&lt;路径&gt;" class="cls-2" cx="69.19" cy="73.73" r="48.21"/><path id="_复合路径_2" data-name="&lt;复合路径&gt;" class="cls-3" d="M69.19,25.37a48.37,48.37,0,1,0,48.37,48.37A48.42,48.42,0,0,0,69.19,25.37ZM90.34,43.58a6.37,6.37,0,1,1,0,9A6.37,6.37,0,0,1,90.34,43.58ZM69.19,31.09a6.37,6.37,0,1,1-6.37,6.37A6.37,6.37,0,0,1,69.19,31.09ZM39,43.58a6.37,6.37,0,1,1,0,9A6.37,6.37,0,0,1,39,43.58ZM32.92,80.1a6.37,6.37,0,1,1,6.37-6.37A6.37,6.37,0,0,1,32.92,80.1ZM48,103.88a6.37,6.37,0,1,1,0-9A6.37,6.37,0,0,1,48,103.88Zm21.15,12.49A6.37,6.37,0,1,1,75.56,110,6.37,6.37,0,0,1,69.19,116.37Zm0-18.46A24.18,24.18,0,1,1,93.38,73.73,24.21,24.21,0,0,1,69.19,97.91Zm30.15,6a6.37,6.37,0,1,1,0-9A6.37,6.37,0,0,1,99.35,103.88Zm6.12-23.78a6.37,6.37,0,1,1,6.37-6.37A6.37,6.37,0,0,1,105.47,80.1Z"/></g><g id="_编组_3" data-name="&lt;编组&gt;"><circle id="_路径_2" data-name="&lt;路径&gt;" class="cls-2" cx="877.14" cy="73.73" r="48.21"/><path id="_复合路径_3" data-name="&lt;复合路径&gt;" class="cls-3" d="M877.14,25.37a48.37,48.37,0,1,0,48.37,48.37A48.42,48.42,0,0,0,877.14,25.37Zm21.15,18.21a6.37,6.37,0,1,1,0,9A6.37,6.37,0,0,1,898.29,43.58ZM877.14,31.09a6.37,6.37,0,1,1-6.37,6.37A6.37,6.37,0,0,1,877.14,31.09ZM847,43.58a6.37,6.37,0,1,1,0,9A6.37,6.37,0,0,1,847,43.58ZM840.87,80.1a6.37,6.37,0,1,1,6.37-6.37A6.37,6.37,0,0,1,840.87,80.1ZM856,103.88a6.37,6.37,0,1,1,0-9A6.37,6.37,0,0,1,856,103.88Zm21.15,12.49a6.37,6.37,0,1,1,6.37-6.37A6.37,6.37,0,0,1,877.14,116.37Zm0-18.46a24.18,24.18,0,1,1,24.18-24.18A24.21,24.21,0,0,1,877.14,97.91Zm30.15,6a6.37,6.37,0,1,1,0-9A6.37,6.37,0,0,1,907.3,103.88Zm6.12-23.78a6.37,6.37,0,1,1,6.37-6.37A6.37,6.37,0,0,1,913.42,80.1Z"/></g><g id="_编组_4" data-name="&lt;编组&gt;"><circle id="_路径_3" data-name="&lt;路径&gt;" class="cls-2" cx="69.19" cy="1194.39" r="48.21"/><path id="_复合路径_4" data-name="&lt;复合路径&gt;" class="cls-3" d="M69.19,1146a48.37,48.37,0,1,0,48.37,48.37A48.42,48.42,0,0,0,69.19,1146Zm21.15,18.21a6.37,6.37,0,1,1,0,9A6.37,6.37,0,0,1,90.34,1164.24Zm-21.15-12.49a6.37,6.37,0,1,1-6.37,6.37A6.37,6.37,0,0,1,69.19,1151.75ZM39,1164.24a6.37,6.37,0,1,1,0,9A6.37,6.37,0,0,1,39,1164.24Zm-6.12,36.52a6.37,6.37,0,1,1,6.37-6.37A6.37,6.37,0,0,1,32.92,1200.76ZM48,1224.55a6.37,6.37,0,1,1,0-9A6.37,6.37,0,0,1,48,1224.55ZM69.19,1237a6.37,6.37,0,1,1,6.37-6.37A6.37,6.37,0,0,1,69.19,1237Zm0-18.46a24.18,24.18,0,1,1,24.18-24.18A24.21,24.21,0,0,1,69.19,1218.58Zm30.15,6a6.37,6.37,0,1,1,0-9A6.37,6.37,0,0,1,99.35,1224.55Zm6.12-23.78a6.37,6.37,0,1,1,6.37-6.37A6.37,6.37,0,0,1,105.47,1200.76Z"/></g><g id="_编组_5" data-name="&lt;编组&gt;"><circle id="_路径_4" data-name="&lt;路径&gt;" class="cls-2" cx="877.14" cy="1194.39" r="48.21"/><path id="_复合路径_5" data-name="&lt;复合路径&gt;" class="cls-3" d="M877.14,1146a48.37,48.37,0,1,0,48.37,48.37A48.42,48.42,0,0,0,877.14,1146Zm21.15,18.21a6.37,6.37,0,1,1,0,9A6.37,6.37,0,0,1,898.29,1164.24Zm-21.15-12.49a6.37,6.37,0,1,1-6.37,6.37A6.37,6.37,0,0,1,877.14,1151.75ZM847,1164.24a6.37,6.37,0,1,1,0,9A6.37,6.37,0,0,1,847,1164.24Zm-6.12,36.52a6.37,6.37,0,1,1,6.37-6.37A6.37,6.37,0,0,1,840.87,1200.76ZM856,1224.55a6.37,6.37,0,1,1,0-9A6.37,6.37,0,0,1,856,1224.55ZM877.14,1237a6.37,6.37,0,1,1,6.37-6.37A6.37,6.37,0,0,1,877.14,1237Zm0-18.46a24.18,24.18,0,1,1,24.18-24.18A24.21,24.21,0,0,1,877.14,1218.58Zm30.15,6a6.37,6.37,0,1,1,0-9A6.37,6.37,0,0,1,907.3,1224.55Zm6.12-23.78a6.37,6.37,0,1,1,6.37-6.37A6.37,6.37,0,0,1,913.42,1200.76Z"/></g></g><g id="_编组_6" data-name="&lt;编组&gt;"><rect id="_矩形_" data-name="&lt;矩形&gt;" class="cls-4" x="556.73" y="344.65" width="17.32" height="13.51" transform="translate(1130.77 702.81) rotate(180)"/><rect id="_矩形_2" data-name="&lt;矩形&gt;" class="cls-4" x="556.73" y="317.74" width="17.32" height="13.51" transform="translate(1130.77 648.98) rotate(180)"/><g id="_编组_7" data-name="&lt;编组&gt;"><rect id="_矩形_3" data-name="&lt;矩形&gt;" class="cls-5" x="558.77" y="328.27" width="13.24" height="19.47" transform="translate(1130.77 676.01) rotate(180)"/></g><rect id="_矩形_4" data-name="&lt;矩形&gt;" class="cls-6" x="563.04" y="320.11" width="4.74" height="14.67" transform="translate(892.86 -237.97) rotate(90)"/><rect id="_矩形_5" data-name="&lt;矩形&gt;" class="cls-6" x="563.04" y="341.18" width="4.74" height="14.67" transform="translate(913.93 -216.9) rotate(90)"/></g><g id="_编组_8" data-name="&lt;编组&gt;"><rect id="_矩形_6" data-name="&lt;矩形&gt;" class="cls-4" x="631.97" y="252.38" width="17.32" height="13.51" transform="translate(1281.25 518.27) rotate(180)"/><rect id="_矩形_7" data-name="&lt;矩形&gt;" class="cls-4" x="631.97" y="225.47" width="17.32" height="13.51" transform="translate(1281.25 464.44) rotate(180)"/><g id="_编组_9" data-name="&lt;编组&gt;"><rect id="_矩形_8" data-name="&lt;矩形&gt;" class="cls-5" x="634.01" y="236" width="13.24" height="19.47" transform="translate(1281.25 491.47) rotate(180)"/></g><rect id="_矩形_9" data-name="&lt;矩形&gt;" class="cls-6" x="638.28" y="227.84" width="4.74" height="14.67" transform="translate(875.83 -405.48) rotate(90)"/><rect id="_矩形_10" data-name="&lt;矩形&gt;" class="cls-6" x="638.28" y="248.91" width="4.74" height="14.67" transform="translate(896.89 -384.41) rotate(90)"/></g><g id="_编组_10" data-name="&lt;编组&gt;"><rect id="_矩形_11" data-name="&lt;矩形&gt;" class="cls-4" x="705.2" y="344.65" width="17.32" height="13.51" transform="translate(1427.71 702.81) rotate(180)"/><rect id="_矩形_12" data-name="&lt;矩形&gt;" class="cls-4" x="705.2" y="317.74" width="17.32" height="13.51" transform="translate(1427.71 648.98) rotate(180)"/><g id="_编组_11" data-name="&lt;编组&gt;"><rect id="_矩形_13" data-name="&lt;矩形&gt;" class="cls-5" x="707.24" y="328.27" width="13.24" height="19.47" transform="translate(1427.71 676.01) rotate(180)"/></g><rect id="_矩形_14" data-name="&lt;矩形&gt;" class="cls-6" x="711.51" y="320.11" width="4.74" height="14.67" transform="translate(1041.33 -386.44) rotate(90)"/><rect id="_矩形_15" data-name="&lt;矩形&gt;" class="cls-6" x="711.51" y="341.18" width="4.74" height="14.67" transform="translate(1062.39 -365.37) rotate(90)"/></g><g id="_编组_12" data-name="&lt;编组&gt;"><rect id="_矩形_16" data-name="&lt;矩形&gt;" class="cls-7" x="284.26" y="222.77" width="32.76" height="189.93"/><polygon id="_路径_5" data-name="&lt;路径&gt;" class="cls-8" points="234.68 383.47 367.03 383.47 367.03 272.07 346.96 252 254.53 252 234.24 272.3 234.68 383.47"/><circle id="_路径_6" data-name="&lt;路径&gt;" class="cls-9" cx="300.64" cy="317.74" r="64.19"/><path id="_路径_7" data-name="&lt;路径&gt;" class="cls-10" d="M237.11,327a64.2,64.2,0,0,0,127,0Z"/></g><g id="_编组_13" data-name="&lt;编组&gt;"><rect id="_矩形_17" data-name="&lt;矩形&gt;" class="cls-7" x="102.61" y="880.38" width="32.76" height="189.93" transform="translate(1094.33 856.35) rotate(90)"/><polygon id="_路径_8" data-name="&lt;路径&gt;" class="cls-8" points="53.26 909.39 53.26 1041.74 164.65 1041.74 184.73 1021.67 184.73 929.24 164.43 908.95 53.26 909.39"/><circle id="_路径_9" data-name="&lt;路径&gt;" class="cls-9" cx="118.99" cy="975.34" r="64.19"/><path id="_路径_10" data-name="&lt;路径&gt;" class="cls-10" d="M109.73,911.82a64.2,64.2,0,0,0,0,127Z"/></g><g id="_编组_14" data-name="&lt;编组&gt;"><rect id="_矩形_18" data-name="&lt;矩形&gt;" class="cls-7" x="433.93" y="222.77" width="32.76" height="189.93"/><polygon id="_路径_11" data-name="&lt;路径&gt;" class="cls-8" points="384.36 383.47 516.71 383.47 516.71 272.07 496.63 252 404.21 252 383.91 272.3 384.36 383.47"/><circle id="_路径_12" data-name="&lt;路径&gt;" class="cls-9" cx="450.31" cy="317.74" r="64.19"/><path id="_路径_13" data-name="&lt;路径&gt;" class="cls-10" d="M386.79,327a64.2,64.2,0,0,0,127,0Z"/></g><rect id="_矩形_19" data-name="&lt;矩形&gt;" class="cls-11" x="609.16" y="284.64" width="62.21" height="98.27" rx="12.41" ry="12.41" transform="translate(974.04 -306.49) rotate(90)"/><g id="_编组_15" data-name="&lt;编组&gt;"><g id="_编组_16" data-name="&lt;编组&gt;"><g id="_编组_17" data-name="&lt;编组&gt;"><rect id="_矩形_20" data-name="&lt;矩形&gt;" class="cls-12" x="505.13" y="428.11" width="13.24" height="180.08" rx="6.2" ry="6.2"/><rect id="_矩形_21" data-name="&lt;矩形&gt;" class="cls-12" x="520.91" y="428.11" width="13.24" height="180.08" rx="6.2" ry="6.2"/><rect id="_矩形_22" data-name="&lt;矩形&gt;" class="cls-12" x="536.7" y="428.11" width="13.24" height="180.08" rx="6.2" ry="6.2"/><rect id="_矩形_23" data-name="&lt;矩形&gt;" class="cls-12" x="552.49" y="428.11" width="13.24" height="180.08" rx="6.2" ry="6.2"/><rect id="_矩形_24" data-name="&lt;矩形&gt;" class="cls-12" x="568.28" y="428.11" width="13.24" height="180.08" rx="6.2" ry="6.2"/><rect id="_矩形_25" data-name="&lt;矩形&gt;" class="cls-12" x="584.06" y="428.11" width="13.24" height="180.08" rx="6.2" ry="6.2"/><rect id="_矩形_26" data-name="&lt;矩形&gt;" class="cls-12" x="599.85" y="428.11" width="13.24" height="180.08" rx="6.2" ry="6.2"/><rect id="_矩形_27" data-name="&lt;矩形&gt;" class="cls-12" x="615.64" y="428.11" width="13.24" height="180.08" rx="6.2" ry="6.2"/></g></g><g id="_编组_18" data-name="&lt;编组&gt;"><g id="_编组_19" data-name="&lt;编组&gt;"><rect id="_矩形_28" data-name="&lt;矩形&gt;" class="cls-13" x="560.71" y="481.86" width="13.24" height="183.1" rx="6.25" ry="6.25" transform="translate(-6.08 1140.74) rotate(-90)"/><rect id="_矩形_29" data-name="&lt;矩形&gt;" class="cls-13" x="560.71" y="466.07" width="13.24" height="183.1" rx="6.25" ry="6.25" transform="translate(9.71 1124.95) rotate(-90)"/><rect id="_矩形_30" data-name="&lt;矩形&gt;" class="cls-13" x="560.71" y="450.28" width="13.24" height="183.1" rx="6.25" ry="6.25" transform="translate(25.49 1109.16) rotate(-90)"/><rect id="_矩形_31" data-name="&lt;矩形&gt;" class="cls-13" x="560.71" y="434.5" width="13.24" height="183.1" rx="6.25" ry="6.25" transform="translate(41.28 1093.38) rotate(-90)"/><rect id="_矩形_32" data-name="&lt;矩形&gt;" class="cls-13" x="560.71" y="418.71" width="13.24" height="183.1" rx="6.25" ry="6.25" transform="translate(57.07 1077.59) rotate(-90)"/><rect id="_矩形_33" data-name="&lt;矩形&gt;" class="cls-13" x="560.71" y="402.92" width="13.24" height="183.1" rx="6.25" ry="6.25" transform="translate(72.86 1061.8) rotate(-90)"/><rect id="_矩形_34" data-name="&lt;矩形&gt;" class="cls-13" x="560.71" y="387.13" width="13.24" height="183.1" rx="6.25" ry="6.25" transform="translate(88.65 1046.01) rotate(-90)"/><rect id="_矩形_35" data-name="&lt;矩形&gt;" class="cls-13" x="560.71" y="371.34" width="13.24" height="183.1" rx="6.25" ry="6.25" transform="translate(104.43 1030.22) rotate(-90)"/></g></g><path id="_矩形_36" data-name="&lt;矩形&gt;" class="cls-14" d="M633.24,593.26H500.76l-8.54-8.54V451.58l8.54-8.54H633.24l8.54,8.54V584.72Z"/></g><g id="_编组_20" data-name="&lt;编组&gt;"><path id="_矩形_37" data-name="&lt;矩形&gt;" class="cls-15" d="M57.18,405.74h-31L15.39,394.93V310.51L26.2,299.69h31L68,310.51v84.42Z"/><path id="_矩形_38" data-name="&lt;矩形&gt;" class="cls-15" d="M109.21,405.74h-31L67.42,394.93V310.51l10.82-10.82h31L120,310.51v84.42Z"/><path id="_矩形_39" data-name="&lt;矩形&gt;" class="cls-15" d="M161.25,405.74h-31l-10.82-10.82V310.51l10.82-10.82h31l10.82,10.82v84.42Z"/><g id="_编组_21" data-name="&lt;编组&gt;"><path id="_矩形_40" data-name="&lt;矩形&gt;" class="cls-16" d="M57.49,352.72H25.89L16,342.79v-31.6l9.93-9.93h31.6l9.93,9.93v31.6Z"/><rect id="_矩形_41" data-name="&lt;矩形&gt;" class="cls-17" x="34.91" y="320.21" width="13.57" height="13.57"/><path id="_矩形_42" data-name="&lt;矩形&gt;" class="cls-16" d="M57.49,404.17H25.89L16,394.24v-31.6l9.93-9.93h31.6l9.93,9.93v31.6Z"/><rect id="_矩形_43" data-name="&lt;矩形&gt;" class="cls-17" x="34.91" y="371.66" width="13.57" height="13.57"/></g><g id="_编组_22" data-name="&lt;编组&gt;"><path id="_矩形_44" data-name="&lt;矩形&gt;" class="cls-16" d="M109.52,352.72H77.92L68,342.79v-31.6l9.93-9.93h31.6l9.93,9.93v31.6Z"/><rect id="_矩形_45" data-name="&lt;矩形&gt;" class="cls-17" x="86.94" y="320.21" width="13.57" height="13.57"/><path id="_矩形_46" data-name="&lt;矩形&gt;" class="cls-16" d="M109.52,404.17H77.92L68,394.24v-31.6l9.93-9.93h31.6l9.93,9.93v31.6Z"/><rect id="_矩形_47" data-name="&lt;矩形&gt;" class="cls-17" x="86.94" y="371.66" width="13.57" height="13.57"/></g><g id="_编组_23" data-name="&lt;编组&gt;"><path id="_矩形_48" data-name="&lt;矩形&gt;" class="cls-16" d="M161.56,352.72H130L120,342.79v-31.6l9.93-9.93h31.6l9.93,9.93v31.6Z"/><rect id="_矩形_49" data-name="&lt;矩形&gt;" class="cls-17" x="138.97" y="320.21" width="13.57" height="13.57"/><path id="_矩形_50" data-name="&lt;矩形&gt;" class="cls-16" d="M161.56,404.17H130L120,394.24v-31.6l9.93-9.93h31.6l9.93,9.93v31.6Z"/><rect id="_矩形_51" data-name="&lt;矩形&gt;" class="cls-17" x="138.97" y="371.66" width="13.57" height="13.57"/></g></g><g id="_编组_24" data-name="&lt;编组&gt;"><path id="_矩形_52" data-name="&lt;矩形&gt;" class="cls-15" d="M57.18,301.27h-31L15.39,290.45V206L26.2,195.22h31L68,206v84.42Z"/><path id="_矩形_53" data-name="&lt;矩形&gt;" class="cls-15" d="M109.21,301.27h-31L67.42,290.45V206l10.82-10.82h31L120,206v84.42Z"/><path id="_矩形_54" data-name="&lt;矩形&gt;" class="cls-15" d="M161.25,301.27h-31l-10.82-10.82V206l10.82-10.82h31L172.06,206v84.42Z"/><g id="_编组_25" data-name="&lt;编组&gt;"><path id="_矩形_55" data-name="&lt;矩形&gt;" class="cls-16" d="M57.49,248.24H25.89L16,238.32v-31.6l9.93-9.93h31.6l9.93,9.93v31.6Z"/><rect id="_矩形_56" data-name="&lt;矩形&gt;" class="cls-17" x="34.91" y="215.73" width="13.57" height="13.57"/><path id="_矩形_57" data-name="&lt;矩形&gt;" class="cls-16" d="M57.49,299.69H25.89L16,289.77v-31.6l9.93-9.93h31.6l9.93,9.93v31.6Z"/><rect id="_矩形_58" data-name="&lt;矩形&gt;" class="cls-17" x="34.91" y="267.19" width="13.57" height="13.57"/></g><g id="_编组_26" data-name="&lt;编组&gt;"><path id="_矩形_59" data-name="&lt;矩形&gt;" class="cls-16" d="M109.52,248.24H77.92L68,238.32v-31.6l9.93-9.93h31.6l9.93,9.93v31.6Z"/><rect id="_矩形_60" data-name="&lt;矩形&gt;" class="cls-17" x="86.94" y="215.73" width="13.57" height="13.57"/><path id="_矩形_61" data-name="&lt;矩形&gt;" class="cls-16" d="M109.52,299.69H77.92L68,289.77v-31.6l9.93-9.93h31.6l9.93,9.93v31.6Z"/><rect id="_矩形_62" data-name="&lt;矩形&gt;" class="cls-17" x="86.94" y="267.19" width="13.57" height="13.57"/></g><g id="_编组_27" data-name="&lt;编组&gt;"><path id="_矩形_63" data-name="&lt;矩形&gt;" class="cls-16" d="M161.56,248.24H130L120,238.32v-31.6l9.93-9.93h31.6l9.93,9.93v31.6Z"/><rect id="_矩形_64" data-name="&lt;矩形&gt;" class="cls-17" x="138.97" y="215.73" width="13.57" height="13.57"/><path id="_矩形_65" data-name="&lt;矩形&gt;" class="cls-16" d="M161.56,299.69H130L120,289.77v-31.6l9.93-9.93h31.6l9.93,9.93v31.6Z"/><rect id="_矩形_66" data-name="&lt;矩形&gt;" class="cls-17" x="138.97" y="267.19" width="13.57" height="13.57"/></g></g><g id="_编组_28" data-name="&lt;编组&gt;"><g id="_编组_29" data-name="&lt;编组&gt;"><g id="_编组_30" data-name="&lt;编组&gt;"><g id="_编组_31" data-name="&lt;编组&gt;"><rect id="_矩形_67" data-name="&lt;矩形&gt;" class="cls-18" x="214.26" y="1097.26" width="18.53" height="56.47"/><rect id="_矩形_68" data-name="&lt;矩形&gt;" class="cls-19" x="218.39" y="1102.27" width="10.26" height="52.94" rx="5.13" ry="5.13"/></g><rect id="_矩形_69" data-name="&lt;矩形&gt;" class="cls-20" x="218.39" y="1125.35" width="10.26" height="6.78"/></g><g id="_编组_32" data-name="&lt;编组&gt;"><g id="_编组_33" data-name="&lt;编组&gt;"><rect id="_矩形_70" data-name="&lt;矩形&gt;" class="cls-18" x="251.85" y="1097.26" width="18.53" height="56.47"/><rect id="_矩形_71" data-name="&lt;矩形&gt;" class="cls-19" x="255.98" y="1102.27" width="10.26" height="52.94" rx="5.13" ry="5.13"/></g><rect id="_矩形_72" data-name="&lt;矩形&gt;" class="cls-20" x="255.98" y="1125.35" width="10.26" height="6.78"/></g><g id="_编组_34" data-name="&lt;编组&gt;"><g id="_编组_35" data-name="&lt;编组&gt;"><rect id="_矩形_73" data-name="&lt;矩形&gt;" class="cls-18" x="289.44" y="1097.26" width="18.53" height="56.47"/><rect id="_矩形_74" data-name="&lt;矩形&gt;" class="cls-19" x="293.57" y="1102.27" width="10.26" height="52.94" rx="5.13" ry="5.13"/></g><rect id="_矩形_75" data-name="&lt;矩形&gt;" class="cls-20" x="293.57" y="1125.35" width="10.26" height="6.78"/></g><g id="_编组_36" data-name="&lt;编组&gt;"><g id="_编组_37" data-name="&lt;编组&gt;"><rect id="_矩形_76" data-name="&lt;矩形&gt;" class="cls-18" x="327.02" y="1097.26" width="18.53" height="56.47"/><rect id="_矩形_77" data-name="&lt;矩形&gt;" class="cls-19" x="331.16" y="1102.27" width="10.26" height="52.94" rx="5.13" ry="5.13"/></g><rect id="_矩形_78" data-name="&lt;矩形&gt;" class="cls-20" x="331.16" y="1125.35" width="10.26" height="6.78"/></g><g id="_编组_38" data-name="&lt;编组&gt;"><g id="_编组_39" data-name="&lt;编组&gt;"><rect id="_矩形_79" data-name="&lt;矩形&gt;" class="cls-18" x="364.61" y="1097.26" width="18.53" height="56.47"/><rect id="_矩形_80" data-name="&lt;矩形&gt;" class="cls-19" x="368.75" y="1102.27" width="10.26" height="52.94" rx="5.13" ry="5.13"/></g><rect id="_矩形_81" data-name="&lt;矩形&gt;" class="cls-20" x="368.75" y="1125.35" width="10.26" height="6.78"/></g><g id="_编组_40" data-name="&lt;编组&gt;"><g id="_编组_41" data-name="&lt;编组&gt;"><rect id="_矩形_82" data-name="&lt;矩形&gt;" class="cls-18" x="402.2" y="1097.26" width="18.53" height="56.47"/><rect id="_矩形_83" data-name="&lt;矩形&gt;" class="cls-19" x="406.34" y="1102.27" width="10.26" height="52.94" rx="5.13" ry="5.13"/></g><rect id="_矩形_84" data-name="&lt;矩形&gt;" class="cls-20" x="406.34" y="1125.35" width="10.26" height="6.78"/></g></g><rect id="_矩形_85" data-name="&lt;矩形&gt;" class="cls-21" x="164.7" y="1150.03" width="305.58" height="114.27"/><rect id="_矩形_86" data-name="&lt;矩形&gt;" class="cls-22" x="218.39" y="1171.43" width="10.26" height="71.47"/><rect id="_矩形_87" data-name="&lt;矩形&gt;" class="cls-22" x="406.34" y="1171.43" width="10.26" height="71.47"/><rect id="_矩形_88" data-name="&lt;矩形&gt;" class="cls-23" x="164.7" y="1117.61" width="18.53" height="32.43"/><rect id="_矩形_89" data-name="&lt;矩形&gt;" class="cls-23" x="451.76" y="1117.61" width="18.53" height="32.43"/><rect id="_矩形_90" data-name="&lt;矩形&gt;" class="cls-23" x="194.61" y="1264.3" width="245.77" height="4.08" rx="2.04" ry="2.04"/></g><g id="_编组_42" data-name="&lt;编组&gt;"><g id="_编组_43" data-name="&lt;编组&gt;"><g id="_编组_44" data-name="&lt;编组&gt;"><g id="_编组_45" data-name="&lt;编组&gt;"><rect id="_矩形_91" data-name="&lt;矩形&gt;" class="cls-18" x="532.74" y="1097.26" width="18.53" height="56.47"/><rect id="_矩形_92" data-name="&lt;矩形&gt;" class="cls-19" x="536.88" y="1102.27" width="10.26" height="52.94" rx="5.13" ry="5.13"/></g><rect id="_矩形_93" data-name="&lt;矩形&gt;" class="cls-20" x="536.88" y="1125.35" width="10.26" height="6.78"/></g><g id="_编组_46" data-name="&lt;编组&gt;"><g id="_编组_47" data-name="&lt;编组&gt;"><rect id="_矩形_94" data-name="&lt;矩形&gt;" class="cls-18" x="570.33" y="1097.26" width="18.53" height="56.47"/><rect id="_矩形_95" data-name="&lt;矩形&gt;" class="cls-19" x="574.47" y="1102.27" width="10.26" height="52.94" rx="5.13" ry="5.13"/></g><rect id="_矩形_96" data-name="&lt;矩形&gt;" class="cls-20" x="574.47" y="1125.35" width="10.26" height="6.78"/></g><g id="_编组_48" data-name="&lt;编组&gt;"><g id="_编组_49" data-name="&lt;编组&gt;"><rect id="_矩形_97" data-name="&lt;矩形&gt;" class="cls-18" x="607.92" y="1097.26" width="18.53" height="56.47"/><rect id="_矩形_98" data-name="&lt;矩形&gt;" class="cls-19" x="612.06" y="1102.27" width="10.26" height="52.94" rx="5.13" ry="5.13"/></g><rect id="_矩形_99" data-name="&lt;矩形&gt;" class="cls-20" x="612.06" y="1125.35" width="10.26" height="6.78"/></g><g id="_编组_50" data-name="&lt;编组&gt;"><g id="_编组_51" data-name="&lt;编组&gt;"><rect id="_矩形_100" data-name="&lt;矩形&gt;" class="cls-18" x="645.51" y="1097.26" width="18.53" height="56.47"/><rect id="_矩形_101" data-name="&lt;矩形&gt;" class="cls-19" x="649.65" y="1102.27" width="10.26" height="52.94" rx="5.13" ry="5.13"/></g><rect id="_矩形_102" data-name="&lt;矩形&gt;" class="cls-20" x="649.65" y="1125.35" width="10.26" height="6.78"/></g><g id="_编组_52" data-name="&lt;编组&gt;"><g id="_编组_53" data-name="&lt;编组&gt;"><rect id="_矩形_103" data-name="&lt;矩形&gt;" class="cls-18" x="683.1" y="1097.26" width="18.53" height="56.47"/><rect id="_矩形_104" data-name="&lt;矩形&gt;" class="cls-19" x="687.23" y="1102.27" width="10.26" height="52.94" rx="5.13" ry="5.13"/></g><rect id="_矩形_105" data-name="&lt;矩形&gt;" class="cls-20" x="687.23" y="1125.35" width="10.26" height="6.78"/></g><g id="_编组_54" data-name="&lt;编组&gt;"><g id="_编组_55" data-name="&lt;编组&gt;"><rect id="_矩形_106" data-name="&lt;矩形&gt;" class="cls-18" x="720.69" y="1097.26" width="18.53" height="56.47"/><rect id="_矩形_107" data-name="&lt;矩形&gt;" class="cls-19" x="724.82" y="1102.27" width="10.26" height="52.94" rx="5.13" ry="5.13"/></g><rect id="_矩形_108" data-name="&lt;矩形&gt;" class="cls-20" x="724.82" y="1125.35" width="10.26" height="6.78"/></g></g><rect id="_矩形_109" data-name="&lt;矩形&gt;" class="cls-21" x="483.19" y="1150.03" width="305.58" height="114.27"/><rect id="_矩形_110" data-name="&lt;矩形&gt;" class="cls-22" x="536.88" y="1171.43" width="10.26" height="71.47"/><rect id="_矩形_111" data-name="&lt;矩形&gt;" class="cls-22" x="724.82" y="1171.43" width="10.26" height="71.47"/><rect id="_矩形_112" data-name="&lt;矩形&gt;" class="cls-23" x="483.19" y="1117.61" width="18.53" height="32.43"/><rect id="_矩形_113" data-name="&lt;矩形&gt;" class="cls-23" x="770.24" y="1117.61" width="18.53" height="32.43"/><rect id="_矩形_114" data-name="&lt;矩形&gt;" class="cls-23" x="513.09" y="1264.3" width="245.77" height="4.08" rx="2.04" ry="2.04"/></g><g id="_编组_56" data-name="&lt;编组&gt;"><g id="_编组_57" data-name="&lt;编组&gt;"><g id="_编组_58" data-name="&lt;编组&gt;"><g id="_编组_59" data-name="&lt;编组&gt;"><rect id="_矩形_115" data-name="&lt;矩形&gt;" class="cls-18" x="727.47" y="114.65" width="18.53" height="56.47" transform="translate(1473.46 285.77) rotate(180)"/><rect id="_矩形_116" data-name="&lt;矩形&gt;" class="cls-19" x="731.6" y="113.16" width="10.26" height="52.94" rx="5.13" ry="5.13" transform="translate(1473.46 279.27) rotate(180)"/></g><rect id="_矩形_117" data-name="&lt;矩形&gt;" class="cls-20" x="731.6" y="136.24" width="10.26" height="6.78" transform="translate(1473.46 279.27) rotate(180)"/></g><g id="_编组_60" data-name="&lt;编组&gt;"><g id="_编组_61" data-name="&lt;编组&gt;"><rect id="_矩形_118" data-name="&lt;矩形&gt;" class="cls-18" x="689.88" y="114.65" width="18.53" height="56.47" transform="translate(1398.29 285.77) rotate(180)"/><rect id="_矩形_119" data-name="&lt;矩形&gt;" class="cls-19" x="694.01" y="113.16" width="10.26" height="52.94" rx="5.13" ry="5.13" transform="translate(1398.29 279.27) rotate(180)"/></g><rect id="_矩形_120" data-name="&lt;矩形&gt;" class="cls-20" x="694.01" y="136.24" width="10.26" height="6.78" transform="translate(1398.29 279.27) rotate(180)"/></g><g id="_编组_62" data-name="&lt;编组&gt;"><g id="_编组_63" data-name="&lt;编组&gt;"><rect id="_矩形_121" data-name="&lt;矩形&gt;" class="cls-18" x="652.29" y="114.65" width="18.53" height="56.47" transform="translate(1323.11 285.77) rotate(180)"/><rect id="_矩形_122" data-name="&lt;矩形&gt;" class="cls-19" x="656.43" y="113.16" width="10.26" height="52.94" rx="5.13" ry="5.13" transform="translate(1323.11 279.27) rotate(180)"/></g><rect id="_矩形_123" data-name="&lt;矩形&gt;" class="cls-20" x="656.43" y="136.24" width="10.26" height="6.78" transform="translate(1323.11 279.27) rotate(180)"/></g><g id="_编组_64" data-name="&lt;编组&gt;"><g id="_编组_65" data-name="&lt;编组&gt;"><rect id="_矩形_124" data-name="&lt;矩形&gt;" class="cls-18" x="614.7" y="114.65" width="18.53" height="56.47" transform="translate(1247.93 285.77) rotate(180)"/><rect id="_矩形_125" data-name="&lt;矩形&gt;" class="cls-19" x="618.84" y="113.16" width="10.26" height="52.94" rx="5.13" ry="5.13" transform="translate(1247.93 279.27) rotate(180)"/></g><rect id="_矩形_126" data-name="&lt;矩形&gt;" class="cls-20" x="618.84" y="136.24" width="10.26" height="6.78" transform="translate(1247.93 279.27) rotate(180)"/></g><g id="_编组_66" data-name="&lt;编组&gt;"><g id="_编组_67" data-name="&lt;编组&gt;"><rect id="_矩形_127" data-name="&lt;矩形&gt;" class="cls-18" x="577.11" y="114.65" width="18.53" height="56.47" transform="translate(1172.75 285.77) rotate(180)"/><rect id="_矩形_128" data-name="&lt;矩形&gt;" class="cls-19" x="581.25" y="113.16" width="10.26" height="52.94" rx="5.13" ry="5.13" transform="translate(1172.75 279.27) rotate(180)"/></g><rect id="_矩形_129" data-name="&lt;矩形&gt;" class="cls-20" x="581.25" y="136.24" width="10.26" height="6.78" transform="translate(1172.75 279.27) rotate(180)"/></g><g id="_编组_68" data-name="&lt;编组&gt;"><g id="_编组_69" data-name="&lt;编组&gt;"><rect id="_矩形_130" data-name="&lt;矩形&gt;" class="cls-18" x="539.52" y="114.65" width="18.53" height="56.47" transform="translate(1097.58 285.77) rotate(180)"/><rect id="_矩形_131" data-name="&lt;矩形&gt;" class="cls-19" x="543.66" y="113.16" width="10.26" height="52.94" rx="5.13" ry="5.13" transform="translate(1097.58 279.27) rotate(180)"/></g><rect id="_矩形_132" data-name="&lt;矩形&gt;" class="cls-20" x="543.66" y="136.24" width="10.26" height="6.78" transform="translate(1097.58 279.27) rotate(180)"/></g></g><rect id="_矩形_133" data-name="&lt;矩形&gt;" class="cls-21" x="489.97" y="4.08" width="305.58" height="114.27" transform="translate(1285.52 122.43) rotate(180)"/><rect id="_矩形_134" data-name="&lt;矩形&gt;" class="cls-22" x="731.6" y="25.48" width="10.26" height="71.47" transform="translate(1473.46 122.43) rotate(180)"/><rect id="_矩形_135" data-name="&lt;矩形&gt;" class="cls-22" x="543.66" y="25.48" width="10.26" height="71.47" transform="translate(1097.58 122.43) rotate(180)"/><rect id="_矩形_136" data-name="&lt;矩形&gt;" class="cls-23" x="777.02" y="118.35" width="18.53" height="32.43" transform="translate(1572.57 269.12) rotate(180)"/><rect id="_矩形_137" data-name="&lt;矩形&gt;" class="cls-23" x="489.97" y="118.35" width="18.53" height="32.43" transform="translate(998.47 269.12) rotate(180)"/><rect id="_矩形_138" data-name="&lt;矩形&gt;" class="cls-23" x="519.87" width="245.77" height="4.08" rx="2.04" ry="2.04" transform="translate(1285.52 4.08) rotate(-180)"/></g><g id="_编组_70" data-name="&lt;编组&gt;"><g id="_编组_71" data-name="&lt;编组&gt;"><g id="_编组_72" data-name="&lt;编组&gt;"><g id="_编组_73" data-name="&lt;编组&gt;"><rect id="_矩形_139" data-name="&lt;矩形&gt;" class="cls-18" x="408.98" y="114.65" width="18.53" height="56.47" transform="translate(836.49 285.77) rotate(180)"/><rect id="_矩形_140" data-name="&lt;矩形&gt;" class="cls-19" x="413.12" y="113.16" width="10.26" height="52.94" rx="5.13" ry="5.13" transform="translate(836.49 279.27) rotate(180)"/></g><rect id="_矩形_141" data-name="&lt;矩形&gt;" class="cls-20" x="413.12" y="136.24" width="10.26" height="6.78" transform="translate(836.49 279.27) rotate(180)"/></g><g id="_编组_74" data-name="&lt;编组&gt;"><g id="_编组_75" data-name="&lt;编组&gt;"><rect id="_矩形_142" data-name="&lt;矩形&gt;" class="cls-18" x="371.39" y="114.65" width="18.53" height="56.47" transform="translate(761.31 285.77) rotate(180)"/><rect id="_矩形_143" data-name="&lt;矩形&gt;" class="cls-19" x="375.53" y="113.16" width="10.26" height="52.94" rx="5.13" ry="5.13" transform="translate(761.31 279.27) rotate(-180)"/></g><rect id="_矩形_144" data-name="&lt;矩形&gt;" class="cls-20" x="375.53" y="136.24" width="10.26" height="6.78" transform="translate(761.31 279.27) rotate(180)"/></g><g id="_编组_76" data-name="&lt;编组&gt;"><g id="_编组_77" data-name="&lt;编组&gt;"><rect id="_矩形_145" data-name="&lt;矩形&gt;" class="cls-18" x="333.8" y="114.65" width="18.53" height="56.47" transform="translate(686.14 285.77) rotate(180)"/><rect id="_矩形_146" data-name="&lt;矩形&gt;" class="cls-19" x="337.94" y="113.16" width="10.26" height="52.94" rx="5.13" ry="5.13" transform="translate(686.14 279.27) rotate(180)"/></g><rect id="_矩形_147" data-name="&lt;矩形&gt;" class="cls-20" x="337.94" y="136.24" width="10.26" height="6.78" transform="translate(686.14 279.27) rotate(180)"/></g><g id="_编组_78" data-name="&lt;编组&gt;"><g id="_编组_79" data-name="&lt;编组&gt;"><rect id="_矩形_148" data-name="&lt;矩形&gt;" class="cls-18" x="296.22" y="114.65" width="18.53" height="56.47" transform="translate(610.96 285.77) rotate(180)"/><rect id="_矩形_149" data-name="&lt;矩形&gt;" class="cls-19" x="300.35" y="113.16" width="10.26" height="52.94" rx="5.13" ry="5.13" transform="translate(610.96 279.27) rotate(-180)"/></g><rect id="_矩形_150" data-name="&lt;矩形&gt;" class="cls-20" x="300.35" y="136.24" width="10.26" height="6.78" transform="translate(610.96 279.27) rotate(180)"/></g><g id="_编组_80" data-name="&lt;编组&gt;"><g id="_编组_81" data-name="&lt;编组&gt;"><rect id="_矩形_151" data-name="&lt;矩形&gt;" class="cls-18" x="258.63" y="114.65" width="18.53" height="56.47" transform="translate(535.78 285.77) rotate(180)"/><rect id="_矩形_152" data-name="&lt;矩形&gt;" class="cls-19" x="262.76" y="113.16" width="10.26" height="52.94" rx="5.13" ry="5.13" transform="translate(535.78 279.27) rotate(180)"/></g><rect id="_矩形_153" data-name="&lt;矩形&gt;" class="cls-20" x="262.76" y="136.24" width="10.26" height="6.78" transform="translate(535.78 279.27) rotate(180)"/></g><g id="_编组_82" data-name="&lt;编组&gt;"><g id="_编组_83" data-name="&lt;编组&gt;"><rect id="_矩形_154" data-name="&lt;矩形&gt;" class="cls-18" x="221.04" y="114.65" width="18.53" height="56.47" transform="translate(460.61 285.77) rotate(180)"/><rect id="_矩形_155" data-name="&lt;矩形&gt;" class="cls-19" x="225.17" y="113.16" width="10.26" height="52.94" rx="5.13" ry="5.13" transform="translate(460.61 279.27) rotate(180)"/></g><rect id="_矩形_156" data-name="&lt;矩形&gt;" class="cls-20" x="225.17" y="136.24" width="10.26" height="6.78" transform="translate(460.61 279.27) rotate(180)"/></g></g><rect id="_矩形_157" data-name="&lt;矩形&gt;" class="cls-21" x="171.48" y="4.08" width="305.58" height="114.27" transform="translate(648.55 122.43) rotate(180)"/><rect id="_矩形_158" data-name="&lt;矩形&gt;" class="cls-22" x="413.12" y="25.48" width="10.26" height="71.47" transform="translate(836.49 122.43) rotate(180)"/><rect id="_矩形_159" data-name="&lt;矩形&gt;" class="cls-22" x="225.17" y="25.48" width="10.26" height="71.47" transform="translate(460.61 122.43) rotate(180)"/><rect id="_矩形_160" data-name="&lt;矩形&gt;" class="cls-23" x="458.54" y="118.35" width="18.53" height="32.43" transform="translate(935.6 269.12) rotate(180)"/><rect id="_矩形_161" data-name="&lt;矩形&gt;" class="cls-23" x="171.48" y="118.35" width="18.53" height="32.43" transform="translate(361.49 269.12) rotate(180)"/><rect id="_矩形_162" data-name="&lt;矩形&gt;" class="cls-23" x="201.39" width="245.77" height="4.08" rx="2.04" ry="2.04" transform="translate(648.55 4.08) rotate(-180)"/></g><g id="_编组_84" data-name="&lt;编组&gt;"><g id="_编组_85" data-name="&lt;编组&gt;"><rect id="_矩形_163" data-name="&lt;矩形&gt;" class="cls-18" x="799.26" y="310.94" width="18.53" height="56.47" transform="translate(469.34 1147.7) rotate(-90)"/><rect id="_矩形_164" data-name="&lt;矩形&gt;" class="cls-19" x="806.65" y="312.71" width="10.26" height="52.94" rx="5.13" ry="5.13" transform="translate(472.6 1150.96) rotate(-90)"/></g><g id="_编组_86" data-name="&lt;编组&gt;"><rect id="_矩形_165" data-name="&lt;矩形&gt;" class="cls-18" x="799.26" y="271.46" width="18.53" height="56.47" transform="translate(508.83 1108.22) rotate(-90)"/><rect id="_矩形_166" data-name="&lt;矩形&gt;" class="cls-19" x="806.65" y="273.22" width="10.26" height="52.94" rx="5.13" ry="5.13" transform="translate(512.08 1111.47) rotate(-90)"/></g><g id="_编组_87" data-name="&lt;编组&gt;"><rect id="_矩形_167" data-name="&lt;矩形&gt;" class="cls-18" x="799.26" y="231.97" width="18.53" height="56.47" transform="translate(548.32 1068.73) rotate(-90)"/><rect id="_矩形_168" data-name="&lt;矩形&gt;" class="cls-19" x="806.65" y="233.74" width="10.26" height="52.94" rx="5.13" ry="5.13" transform="translate(551.57 1071.99) rotate(-90)"/></g><rect id="_矩形_169" data-name="&lt;矩形&gt;" class="cls-21" x="788.51" y="242.56" width="193.24" height="114.27" transform="translate(585.43 1184.82) rotate(-90)"/><rect id="_矩形_170" data-name="&lt;矩形&gt;" class="cls-22" x="880" y="303.44" width="10.26" height="71.47" transform="translate(545.94 1224.3) rotate(-90)"/><rect id="_矩形_171" data-name="&lt;矩形&gt;" class="cls-22" x="880" y="224.47" width="10.26" height="71.47" transform="translate(624.91 1145.33) rotate(-90)"/><rect id="_矩形_172" data-name="&lt;矩形&gt;" class="cls-23" x="802.51" y="370.83" width="18.53" height="32.43" transform="translate(424.73 1198.83) rotate(-90)"/><rect id="_矩形_173" data-name="&lt;矩形&gt;" class="cls-23" x="802.51" y="196.13" width="18.53" height="32.43" transform="translate(599.44 1024.12) rotate(-90)"/><rect id="_矩形_174" data-name="&lt;矩形&gt;" class="cls-23" x="882.09" y="297.65" width="124.41" height="4.08" rx="2.04" ry="2.04" transform="translate(644.6 1243.99) rotate(-90)"/><rect id="_矩形_175" data-name="&lt;矩形&gt;" class="cls-20" x="806.65" y="335.79" width="10.26" height="6.78" transform="translate(472.6 1150.96) rotate(-90)"/><rect id="_矩形_176" data-name="&lt;矩形&gt;" class="cls-20" x="806.65" y="296.3" width="10.26" height="6.78" transform="translate(512.08 1111.47) rotate(-90)"/><rect id="_矩形_177" data-name="&lt;矩形&gt;" class="cls-20" x="806.65" y="256.82" width="10.26" height="6.78" transform="translate(551.57 1071.99) rotate(-90)"/></g><g id="_编组_88" data-name="&lt;编组&gt;"><g id="_编组_89" data-name="&lt;编组&gt;"><g id="_编组_90" data-name="&lt;编组&gt;"><rect id="_矩形_178" data-name="&lt;矩形&gt;" class="cls-18" x="128.83" y="484.79" width="18.53" height="56.47" transform="translate(651.12 374.93) rotate(90)"/><rect id="_矩形_179" data-name="&lt;矩形&gt;" class="cls-19" x="129.72" y="486.55" width="10.26" height="52.94" rx="5.13" ry="5.13" transform="translate(647.87 378.18) rotate(90)"/></g><rect id="_矩形_180" data-name="&lt;矩形&gt;" class="cls-20" x="129.72" y="509.63" width="10.26" height="6.78" transform="translate(647.87 378.18) rotate(90)"/></g><g id="_编组_91" data-name="&lt;编组&gt;"><g id="_编组_92" data-name="&lt;编组&gt;"><rect id="_矩形_181" data-name="&lt;矩形&gt;" class="cls-18" x="128.83" y="520.4" width="18.53" height="56.47" transform="translate(686.73 410.53) rotate(90)"/><rect id="_矩形_182" data-name="&lt;矩形&gt;" class="cls-19" x="129.72" y="522.16" width="10.26" height="52.94" rx="5.13" ry="5.13" transform="translate(683.47 413.79) rotate(90)"/></g><rect id="_矩形_183" data-name="&lt;矩形&gt;" class="cls-20" x="129.72" y="545.24" width="10.26" height="6.78" transform="translate(683.47 413.79) rotate(90)"/></g><g id="_编组_93" data-name="&lt;编组&gt;"><g id="_编组_94" data-name="&lt;编组&gt;"><rect id="_矩形_184" data-name="&lt;矩形&gt;" class="cls-18" x="128.83" y="556" width="18.53" height="56.47" transform="translate(722.34 446.14) rotate(90)"/><rect id="_矩形_185" data-name="&lt;矩形&gt;" class="cls-19" x="129.72" y="557.77" width="10.26" height="52.94" rx="5.13" ry="5.13" transform="translate(719.08 449.39) rotate(90)"/></g><rect id="_矩形_186" data-name="&lt;矩形&gt;" class="cls-20" x="129.72" y="580.85" width="10.26" height="6.78" transform="translate(719.08 449.39) rotate(90)"/></g><g id="_编组_95" data-name="&lt;编组&gt;"><g id="_编组_96" data-name="&lt;编组&gt;"><rect id="_矩形_187" data-name="&lt;矩形&gt;" class="cls-18" x="128.83" y="591.61" width="18.53" height="56.47" transform="translate(757.94 481.75) rotate(90)"/><rect id="_矩形_188" data-name="&lt;矩形&gt;" class="cls-19" x="129.72" y="593.37" width="10.26" height="52.94" rx="5.13" ry="5.13" transform="translate(754.69 485) rotate(90)"/></g><rect id="_矩形_189" data-name="&lt;矩形&gt;" class="cls-20" x="129.72" y="616.45" width="10.26" height="6.78" transform="translate(754.69 485) rotate(90)"/></g><rect id="_矩形_190" data-name="&lt;矩形&gt;" class="cls-21" x="-47.36" y="507.62" width="217.72" height="114.27" transform="translate(626.25 503.25) rotate(90)"/><g id="_编组_97" data-name="&lt;编组&gt;"><rect id="_矩形_191" data-name="&lt;矩形&gt;" class="cls-22" x="56.37" y="475.61" width="10.26" height="71.47" transform="translate(572.84 449.84) rotate(90)"/><rect id="_矩形_192" data-name="&lt;矩形&gt;" class="cls-22" x="54.72" y="582.43" width="10.26" height="71.47" transform="translate(678.01 558.32) rotate(90)"/></g><rect id="_矩形_193" data-name="&lt;矩形&gt;" class="cls-23" x="125.58" y="448.94" width="18.53" height="32.43" transform="translate(600 330.31) rotate(90)"/><rect id="_矩形_194" data-name="&lt;矩形&gt;" class="cls-23" x="125.58" y="648.13" width="18.53" height="32.43" transform="translate(799.19 529.5) rotate(90)"/><rect id="_矩形_195" data-name="&lt;矩形&gt;" class="cls-23" x="-59.88" y="562.71" width="124.41" height="4.08" rx="2.04" ry="2.04" transform="translate(567.08 562.43) rotate(90)"/></g><g id="_编组_98" data-name="&lt;编组&gt;"><g id="_编组_99" data-name="&lt;编组&gt;"><g id="_编组_100" data-name="&lt;编组&gt;"><rect id="_矩形_196" data-name="&lt;矩形&gt;" class="cls-18" x="128.83" y="708.12" width="18.53" height="56.47" transform="translate(874.46 598.26) rotate(90)"/><rect id="_矩形_197" data-name="&lt;矩形&gt;" class="cls-19" x="129.72" y="709.89" width="10.26" height="52.94" rx="5.13" ry="5.13" transform="translate(871.2 601.51) rotate(90)"/></g><rect id="_矩形_198" data-name="&lt;矩形&gt;" class="cls-20" x="129.72" y="732.97" width="10.26" height="6.78" transform="translate(871.2 601.51) rotate(90)"/></g><g id="_编组_101" data-name="&lt;编组&gt;"><g id="_编组_102" data-name="&lt;编组&gt;"><rect id="_矩形_199" data-name="&lt;矩形&gt;" class="cls-18" x="128.83" y="743.73" width="18.53" height="56.47" transform="translate(910.06 633.87) rotate(90)"/><rect id="_矩形_200" data-name="&lt;矩形&gt;" class="cls-19" x="129.72" y="745.49" width="10.26" height="52.94" rx="5.13" ry="5.13" transform="translate(906.81 637.12) rotate(90)"/></g><rect id="_矩形_201" data-name="&lt;矩形&gt;" class="cls-20" x="129.72" y="768.57" width="10.26" height="6.78" transform="translate(906.81 637.12) rotate(90)"/></g><g id="_编组_103" data-name="&lt;编组&gt;"><g id="_编组_104" data-name="&lt;编组&gt;"><rect id="_矩形_202" data-name="&lt;矩形&gt;" class="cls-18" x="128.83" y="779.34" width="18.53" height="56.47" transform="translate(945.67 669.47) rotate(90)"/><rect id="_矩形_203" data-name="&lt;矩形&gt;" class="cls-19" x="129.72" y="781.1" width="10.26" height="52.94" rx="5.13" ry="5.13" transform="translate(942.42 672.73) rotate(90)"/></g><rect id="_矩形_204" data-name="&lt;矩形&gt;" class="cls-20" x="129.72" y="804.18" width="10.26" height="6.78" transform="translate(942.42 672.73) rotate(90)"/></g><g id="_编组_105" data-name="&lt;编组&gt;"><g id="_编组_106" data-name="&lt;编组&gt;"><rect id="_矩形_205" data-name="&lt;矩形&gt;" class="cls-18" x="128.83" y="814.94" width="18.53" height="56.47" transform="translate(981.28 705.08) rotate(90)"/><rect id="_矩形_206" data-name="&lt;矩形&gt;" class="cls-19" x="129.72" y="816.71" width="10.26" height="52.94" rx="5.13" ry="5.13" transform="translate(978.02 708.33) rotate(90)"/></g><rect id="_矩形_207" data-name="&lt;矩形&gt;" class="cls-20" x="129.72" y="839.79" width="10.26" height="6.78" transform="translate(978.02 708.33) rotate(90)"/></g><rect id="_矩形_208" data-name="&lt;矩形&gt;" class="cls-21" x="-47.36" y="730.95" width="217.72" height="114.27" transform="translate(849.58 726.59) rotate(90)"/><g id="_编组_107" data-name="&lt;编组&gt;"><rect id="_矩形_209" data-name="&lt;矩形&gt;" class="cls-22" x="56.37" y="698.94" width="10.26" height="71.47" transform="translate(796.17 673.18) rotate(90)"/><rect id="_矩形_210" data-name="&lt;矩形&gt;" class="cls-22" x="54.72" y="805.76" width="10.26" height="71.47" transform="translate(901.34 781.65) rotate(90)"/></g><rect id="_矩形_211" data-name="&lt;矩形&gt;" class="cls-23" x="125.58" y="672.28" width="18.53" height="32.43" transform="translate(823.33 553.65) rotate(90)"/><rect id="_矩形_212" data-name="&lt;矩形&gt;" class="cls-23" x="125.58" y="871.47" width="18.53" height="32.43" transform="translate(1022.52 752.84) rotate(90)"/><rect id="_矩形_213" data-name="&lt;矩形&gt;" class="cls-23" x="-59.88" y="786.04" width="124.41" height="4.08" rx="2.04" ry="2.04" transform="translate(790.41 785.76) rotate(90)"/></g><g id="_编组_108" data-name="&lt;编组&gt;"><rect id="_矩形_214" data-name="&lt;矩形&gt;" class="cls-24" x="705.02" y="223.89" width="17.32" height="43.57" transform="translate(1427.36 491.36) rotate(180)"/><rect id="_矩形_215" data-name="&lt;矩形&gt;" class="cls-25" x="705.32" y="231.45" width="16.71" height="29.78" transform="translate(1427.36 492.68) rotate(180)"/><polygon id="_路径_14" data-name="&lt;路径&gt;" class="cls-26" points="721.97 255.85 721.97 236.66 705.39 236.66 705.39 255.85 708.78 255.85 708.78 255.15 719.16 255.15 719.16 255.85 721.97 255.85"/></g><g id="_编组_109" data-name="&lt;编组&gt;"><rect id="_矩形_216" data-name="&lt;矩形&gt;" class="cls-24" x="670.08" y="223.89" width="17.32" height="43.57" transform="translate(1357.47 491.36) rotate(180)"/><rect id="_矩形_217" data-name="&lt;矩形&gt;" class="cls-25" x="670.38" y="231.45" width="16.71" height="29.78" transform="translate(1357.47 492.68) rotate(180)"/><polygon id="_路径_15" data-name="&lt;路径&gt;" class="cls-26" points="687.03 255.85 687.03 236.66 670.44 236.66 670.44 255.85 673.83 255.85 673.83 255.15 684.22 255.15 684.22 255.85 687.03 255.85"/></g><g id="_编组_110" data-name="&lt;编组&gt;"><rect id="_矩形_218" data-name="&lt;矩形&gt;" class="cls-4" x="249" y="675.25" width="17.32" height="13.51" transform="translate(515.31 1364.01) rotate(180)"/><rect id="_矩形_219" data-name="&lt;矩形&gt;" class="cls-4" x="249" y="648.34" width="17.32" height="13.51" transform="translate(515.31 1310.19) rotate(180)"/><g id="_编组_111" data-name="&lt;编组&gt;"><rect id="_矩形_220" data-name="&lt;矩形&gt;" class="cls-5" x="251.04" y="658.87" width="13.24" height="19.47" transform="translate(515.31 1337.21) rotate(180)"/></g><rect id="_矩形_221" data-name="&lt;矩形&gt;" class="cls-6" x="255.31" y="650.71" width="4.74" height="14.67" transform="translate(915.73 400.36) rotate(90)"/><rect id="_矩形_222" data-name="&lt;矩形&gt;" class="cls-6" x="255.31" y="671.78" width="4.74" height="14.67" transform="translate(936.8 421.43) rotate(90)"/></g><g id="_编组_112" data-name="&lt;编组&gt;"><rect id="_矩形_223" data-name="&lt;矩形&gt;" class="cls-4" x="277.35" y="675.25" width="17.32" height="13.51" transform="translate(572.02 1364.01) rotate(180)"/><rect id="_矩形_224" data-name="&lt;矩形&gt;" class="cls-4" x="277.35" y="648.34" width="17.32" height="13.51" transform="translate(572.02 1310.19) rotate(180)"/><g id="_编组_113" data-name="&lt;编组&gt;"><rect id="_矩形_225" data-name="&lt;矩形&gt;" class="cls-5" x="279.39" y="658.87" width="13.24" height="19.47" transform="translate(572.02 1337.21) rotate(180)"/></g><rect id="_矩形_226" data-name="&lt;矩形&gt;" class="cls-6" x="283.67" y="650.71" width="4.74" height="14.67" transform="translate(944.09 372.01) rotate(90)"/><rect id="_矩形_227" data-name="&lt;矩形&gt;" class="cls-6" x="283.67" y="671.78" width="4.74" height="14.67" transform="translate(965.15 393.08) rotate(90)"/></g><g id="_编组_114" data-name="&lt;编组&gt;"><rect id="_矩形_228" data-name="&lt;矩形&gt;" class="cls-4" x="382.88" y="675.25" width="17.32" height="13.51" transform="translate(783.08 1364.01) rotate(180)"/><rect id="_矩形_229" data-name="&lt;矩形&gt;" class="cls-4" x="382.88" y="648.34" width="17.32" height="13.51" transform="translate(783.08 1310.19) rotate(180)"/><g id="_编组_115" data-name="&lt;编组&gt;"><rect id="_矩形_230" data-name="&lt;矩形&gt;" class="cls-5" x="384.92" y="658.87" width="13.24" height="19.47" transform="translate(783.08 1337.21) rotate(180)"/></g><rect id="_矩形_231" data-name="&lt;矩形&gt;" class="cls-6" x="389.19" y="650.71" width="4.74" height="14.67" transform="translate(1049.61 266.48) rotate(90)"/><rect id="_矩形_232" data-name="&lt;矩形&gt;" class="cls-6" x="389.19" y="671.78" width="4.74" height="14.67" transform="translate(1070.68 287.55) rotate(90)"/></g><g id="_编组_116" data-name="&lt;编组&gt;"><rect id="_矩形_233" data-name="&lt;矩形&gt;" class="cls-4" x="531.94" y="675.25" width="17.32" height="13.51" transform="translate(1081.19 1364.01) rotate(180)"/><rect id="_矩形_234" data-name="&lt;矩形&gt;" class="cls-4" x="531.94" y="648.34" width="17.32" height="13.51" transform="translate(1081.19 1310.19) rotate(180)"/><g id="_编组_117" data-name="&lt;编组&gt;"><rect id="_矩形_235" data-name="&lt;矩形&gt;" class="cls-5" x="533.98" y="658.87" width="13.24" height="19.47" transform="translate(1081.19 1337.21) rotate(180)"/></g><rect id="_矩形_236" data-name="&lt;矩形&gt;" class="cls-6" x="538.25" y="650.71" width="4.74" height="14.67" transform="translate(1198.67 117.43) rotate(90)"/><rect id="_矩形_237" data-name="&lt;矩形&gt;" class="cls-6" x="538.25" y="671.78" width="4.74" height="14.67" transform="translate(1219.74 138.49) rotate(90)"/></g><g id="_编组_118" data-name="&lt;编组&gt;"><rect id="_矩形_238" data-name="&lt;矩形&gt;" class="cls-4" x="562.24" y="675.25" width="17.32" height="13.51" transform="translate(1141.79 1364.01) rotate(180)"/><rect id="_矩形_239" data-name="&lt;矩形&gt;" class="cls-4" x="562.24" y="648.34" width="17.32" height="13.51" transform="translate(1141.79 1310.19) rotate(180)"/><g id="_编组_119" data-name="&lt;编组&gt;"><rect id="_矩形_240" data-name="&lt;矩形&gt;" class="cls-5" x="564.28" y="658.87" width="13.24" height="19.47" transform="translate(1141.79 1337.21) rotate(180)"/></g><rect id="_矩形_241" data-name="&lt;矩形&gt;" class="cls-6" x="568.55" y="650.71" width="4.74" height="14.67" transform="translate(1228.97 87.13) rotate(90)"/><rect id="_矩形_242" data-name="&lt;矩形&gt;" class="cls-6" x="568.55" y="671.78" width="4.74" height="14.67" transform="translate(1250.04 108.19) rotate(90)"/></g><g id="_编组_120" data-name="&lt;编组&gt;"><rect id="_矩形_243" data-name="&lt;矩形&gt;" class="cls-4" x="592.54" y="675.25" width="17.32" height="13.51" transform="translate(1202.39 1364.01) rotate(180)"/><rect id="_矩形_244" data-name="&lt;矩形&gt;" class="cls-4" x="592.54" y="648.34" width="17.32" height="13.51" transform="translate(1202.39 1310.19) rotate(180)"/><g id="_编组_121" data-name="&lt;编组&gt;"><rect id="_矩形_245" data-name="&lt;矩形&gt;" class="cls-5" x="594.58" y="658.87" width="13.24" height="19.47" transform="translate(1202.39 1337.21) rotate(180)"/></g><rect id="_矩形_246" data-name="&lt;矩形&gt;" class="cls-6" x="598.85" y="650.71" width="4.74" height="14.67" transform="translate(1259.27 56.83) rotate(90)"/><rect id="_矩形_247" data-name="&lt;矩形&gt;" class="cls-6" x="598.85" y="671.78" width="4.74" height="14.67" transform="translate(1280.34 77.89) rotate(90)"/></g><g id="_编组_122" data-name="&lt;编组&gt;"><rect id="_矩形_248" data-name="&lt;矩形&gt;" class="cls-4" x="426.3" y="773.54" width="17.32" height="13.51" transform="translate(869.92 1560.58) rotate(180)"/><rect id="_矩形_249" data-name="&lt;矩形&gt;" class="cls-4" x="426.3" y="746.62" width="17.32" height="13.51" transform="translate(869.92 1506.76) rotate(180)"/><g id="_编组_123" data-name="&lt;编组&gt;"><rect id="_矩形_250" data-name="&lt;矩形&gt;" class="cls-5" x="428.34" y="757.16" width="13.24" height="19.47" transform="translate(869.92 1533.78) rotate(180)"/></g><rect id="_矩形_251" data-name="&lt;矩形&gt;" class="cls-6" x="432.61" y="749" width="4.74" height="14.67" transform="translate(1191.32 321.35) rotate(90)"/><rect id="_矩形_252" data-name="&lt;矩形&gt;" class="cls-6" x="432.61" y="770.06" width="4.74" height="14.67" transform="translate(1212.39 342.41) rotate(90)"/></g><g id="_编组_124" data-name="&lt;编组&gt;"><rect id="_矩形_253" data-name="&lt;矩形&gt;" class="cls-4" x="486.9" y="773.54" width="17.32" height="13.51" transform="translate(991.11 1560.58) rotate(180)"/><rect id="_矩形_254" data-name="&lt;矩形&gt;" class="cls-4" x="486.9" y="746.62" width="17.32" height="13.51" transform="translate(991.11 1506.76) rotate(180)"/><g id="_编组_125" data-name="&lt;编组&gt;"><rect id="_矩形_255" data-name="&lt;矩形&gt;" class="cls-5" x="488.94" y="757.16" width="13.24" height="19.47" transform="translate(991.11 1533.78) rotate(180)"/></g><rect id="_矩形_256" data-name="&lt;矩形&gt;" class="cls-6" x="493.21" y="749" width="4.74" height="14.67" transform="translate(1251.92 260.75) rotate(90)"/><rect id="_矩形_257" data-name="&lt;矩形&gt;" class="cls-6" x="493.21" y="770.06" width="4.74" height="14.67" transform="translate(1272.98 281.81) rotate(90)"/></g><g id="_编组_126" data-name="&lt;编组&gt;"><rect id="_矩形_258" data-name="&lt;矩形&gt;" class="cls-4" x="550.01" y="908.14" width="17.32" height="13.51" transform="translate(1117.34 1829.79) rotate(180)"/><rect id="_矩形_259" data-name="&lt;矩形&gt;" class="cls-4" x="550.01" y="881.23" width="17.32" height="13.51" transform="translate(1117.34 1775.97) rotate(180)"/><g id="_编组_127" data-name="&lt;编组&gt;"><rect id="_矩形_260" data-name="&lt;矩形&gt;" class="cls-5" x="552.05" y="891.76" width="13.24" height="19.47" transform="translate(1117.34 1802.99) rotate(180)"/></g><rect id="_矩形_261" data-name="&lt;矩形&gt;" class="cls-6" x="556.33" y="883.6" width="4.74" height="14.67" transform="translate(1449.64 332.24) rotate(90)"/><rect id="_矩形_262" data-name="&lt;矩形&gt;" class="cls-6" x="556.33" y="904.67" width="4.74" height="14.67" transform="translate(1470.7 353.3) rotate(90)"/></g><g id="_编组_128" data-name="&lt;编组&gt;"><rect id="_矩形_263" data-name="&lt;矩形&gt;" class="cls-24" x="446.7" y="646.82" width="17.32" height="43.57" transform="translate(910.71 1337.21) rotate(180)"/><rect id="_矩形_264" data-name="&lt;矩形&gt;" class="cls-25" x="447" y="654.38" width="16.71" height="29.78" transform="translate(910.71 1338.53) rotate(180)"/><polygon id="_路径_16" data-name="&lt;路径&gt;" class="cls-26" points="463.65 678.78 463.65 659.59 447.06 659.59 447.06 678.78 450.45 678.78 450.45 678.08 460.83 678.08 460.83 678.78 463.65 678.78"/></g><g id="_编组_129" data-name="&lt;编组&gt;"><rect id="_矩形_265" data-name="&lt;矩形&gt;" class="cls-24" x="220.02" y="646.82" width="17.32" height="43.57" transform="translate(457.35 1337.21) rotate(180)"/><rect id="_矩形_266" data-name="&lt;矩形&gt;" class="cls-25" x="220.32" y="654.38" width="16.71" height="29.78" transform="translate(457.35 1338.53) rotate(180)"/><polygon id="_路径_17" data-name="&lt;路径&gt;" class="cls-26" points="236.97 678.78 236.97 659.59 220.38 659.59 220.38 678.78 223.78 678.78 223.78 678.08 234.16 678.08 234.16 678.78 236.97 678.78"/></g><g id="_编组_130" data-name="&lt;编组&gt;"><rect id="_矩形_267" data-name="&lt;矩形&gt;" class="cls-24" x="475.78" y="646.82" width="17.32" height="43.57" transform="translate(968.87 1337.21) rotate(180)"/><rect id="_矩形_268" data-name="&lt;矩形&gt;" class="cls-25" x="476.08" y="654.38" width="16.71" height="29.78" transform="translate(968.87 1338.53) rotate(180)"/><polygon id="_路径_18" data-name="&lt;路径&gt;" class="cls-26" points="492.73 678.78 492.73 659.59 476.14 659.59 476.14 678.78 479.54 678.78 479.54 678.08 489.92 678.08 489.92 678.78 492.73 678.78"/></g><g id="_编组_131" data-name="&lt;编组&gt;"><rect id="_矩形_269" data-name="&lt;矩形&gt;" class="cls-24" x="550.01" y="989.54" width="17.32" height="43.57" transform="translate(1117.34 2022.64) rotate(180)"/><rect id="_矩形_270" data-name="&lt;矩形&gt;" class="cls-25" x="550.32" y="997.09" width="16.71" height="29.78" transform="translate(1117.34 2023.96) rotate(180)"/><polygon id="_路径_19" data-name="&lt;路径&gt;" class="cls-26" points="566.96 1021.49 566.96 1002.3 550.38 1002.3 550.38 1021.49 553.77 1021.49 553.77 1020.79 564.15 1020.79 564.15 1021.49 566.96 1021.49"/></g><g id="_编组_132" data-name="&lt;编组&gt;"><rect id="_矩形_271" data-name="&lt;矩形&gt;" class="cls-24" x="550.01" y="780.66" width="17.32" height="43.57" transform="translate(1117.34 1604.88) rotate(180)"/><rect id="_矩形_272" data-name="&lt;矩形&gt;" class="cls-25" x="550.32" y="788.21" width="16.71" height="29.78" transform="translate(1117.34 1606.21) rotate(180)"/><polygon id="_路径_20" data-name="&lt;路径&gt;" class="cls-26" points="566.96 812.62 566.96 793.43 550.38 793.43 550.38 812.62 553.77 812.62 553.77 811.91 564.15 811.91 564.15 812.62 566.96 812.62"/></g><g id="_编组_133" data-name="&lt;编组&gt;"><rect id="_矩形_273" data-name="&lt;矩形&gt;" class="cls-4" x="493.06" y="1017.3" width="17.32" height="13.51" transform="translate(1003.44 2048.12) rotate(180)"/><rect id="_矩形_274" data-name="&lt;矩形&gt;" class="cls-4" x="493.06" y="990.39" width="17.32" height="13.51" transform="translate(1003.44 1994.29) rotate(180)"/><g id="_编组_134" data-name="&lt;编组&gt;"><rect id="_矩形_275" data-name="&lt;矩形&gt;" class="cls-5" x="495.1" y="1000.92" width="13.24" height="19.47" transform="translate(1003.44 2021.32) rotate(180)"/></g><rect id="_矩形_276" data-name="&lt;矩形&gt;" class="cls-6" x="499.37" y="992.77" width="4.74" height="14.67" transform="translate(1501.85 498.35) rotate(90)"/><rect id="_矩形_277" data-name="&lt;矩形&gt;" class="cls-6" x="499.37" y="1013.83" width="4.74" height="14.67" transform="translate(1522.91 519.42) rotate(90)"/></g><g id="_编组_135" data-name="&lt;编组&gt;"><rect id="_矩形_278" data-name="&lt;矩形&gt;" class="cls-24" x="420.14" y="988.87" width="17.32" height="43.57" transform="translate(857.6 2021.32) rotate(180)"/><rect id="_矩形_279" data-name="&lt;矩形&gt;" class="cls-25" x="420.44" y="996.43" width="16.71" height="29.78" transform="translate(857.6 2022.64) rotate(180)"/><polygon id="_路径_21" data-name="&lt;路径&gt;" class="cls-26" points="437.09 1020.83 437.09 1001.64 420.5 1001.64 420.5 1020.83 423.9 1020.83 423.9 1020.13 434.28 1020.13 434.28 1020.83 437.09 1020.83"/></g><g id="_编组_136" data-name="&lt;编组&gt;"><rect id="_矩形_280" data-name="&lt;矩形&gt;" class="cls-24" x="456.6" y="988.87" width="17.32" height="43.57" transform="translate(930.52 2021.32) rotate(180)"/><rect id="_矩形_281" data-name="&lt;矩形&gt;" class="cls-25" x="456.9" y="996.43" width="16.71" height="29.78" transform="translate(930.52 2022.64) rotate(180)"/><polygon id="_路径_22" data-name="&lt;路径&gt;" class="cls-26" points="473.55 1020.83 473.55 1001.64 456.96 1001.64 456.96 1020.83 460.36 1020.83 460.36 1020.13 470.74 1020.13 470.74 1020.83 473.55 1020.83"/></g><g id="_编组_137" data-name="&lt;编组&gt;"><rect id="_矩形_282" data-name="&lt;矩形&gt;" class="cls-24" x="641.68" y="647.98" width="17.32" height="43.57" transform="translate(1300.68 1339.52) rotate(180)"/><rect id="_矩形_283" data-name="&lt;矩形&gt;" class="cls-25" x="641.99" y="655.53" width="16.71" height="29.78" transform="translate(1300.68 1340.84) rotate(180)"/><polygon id="_路径_23" data-name="&lt;路径&gt;" class="cls-26" points="658.63 679.93 658.63 660.74 642.05 660.74 642.05 679.93 645.44 679.93 645.44 679.23 655.82 679.23 655.82 679.93 658.63 679.93"/></g><g id="_编组_138" data-name="&lt;编组&gt;"><rect id="_矩形_284" data-name="&lt;矩形&gt;" class="cls-27" x="314.49" y="634.06" width="12.99" height="24.54"/><rect id="_矩形_285" data-name="&lt;矩形&gt;" class="cls-27" x="347.14" y="634.06" width="12.99" height="24.54"/><rect id="_矩形_286" data-name="&lt;矩形&gt;" class="cls-27" x="330.82" y="678.61" width="12.99" height="24.54"/><rect id="_矩形_287" data-name="&lt;矩形&gt;" class="cls-28" x="305.85" y="654.56" width="62.93" height="28.67"/><polyline id="_路径_24" data-name="&lt;路径&gt;" class="cls-29" points="305.08 669.76 305.08 684.1 314.44 684.1"/><polyline id="_路径_25" data-name="&lt;路径&gt;" class="cls-29" points="369.45 669.76 369.45 684.1 360.08 684.1"/><rect id="_矩形_288" data-name="&lt;矩形&gt;" class="cls-30" x="315.76" y="643.08" width="10.46" height="11.48"/><rect id="_矩形_289" data-name="&lt;矩形&gt;" class="cls-30" x="348.41" y="643.08" width="10.46" height="11.48"/><rect id="_矩形_290" data-name="&lt;矩形&gt;" class="cls-30" x="332.09" y="683.23" width="10.46" height="11.48"/><rect id="_矩形_291" data-name="&lt;矩形&gt;" class="cls-31" x="315.76" y="650.81" width="10.46" height="1.22"/><rect id="_矩形_292" data-name="&lt;矩形&gt;" class="cls-31" x="348.41" y="650.81" width="10.46" height="1.22"/><rect id="_矩形_293" data-name="&lt;矩形&gt;" class="cls-31" x="332.09" y="685.67" width="10.46" height="1.22"/></g><rect class="cls-32" x="253.86" y="450.95" width="34.25" height="7.67" rx="3.83" ry="3.83"/><rect class="cls-32" x="253.86" y="463.89" width="34.25" height="7.67" rx="3.83" ry="3.83"/><rect class="cls-32" x="253.86" y="476.83" width="34.25" height="7.67" rx="3.83" ry="3.83"/><rect class="cls-32" x="253.86" y="489.78" width="34.25" height="7.67" rx="3.83" ry="3.83"/><rect class="cls-32" x="253.86" y="502.72" width="34.25" height="7.67" rx="3.83" ry="3.83"/><rect class="cls-32" x="253.86" y="515.67" width="34.25" height="7.67" rx="3.83" ry="3.83"/><rect class="cls-32" x="253.86" y="528.61" width="34.25" height="7.67" rx="3.83" ry="3.83"/><rect class="cls-32" x="253.86" y="541.56" width="34.25" height="7.67" rx="3.83" ry="3.83"/><rect class="cls-32" x="253.86" y="554.5" width="34.25" height="7.67" rx="3.83" ry="3.83"/><rect class="cls-32" x="253.86" y="567.45" width="34.25" height="7.67" rx="3.83" ry="3.83"/><rect class="cls-32" x="361.61" y="450.95" width="34.25" height="7.67" rx="3.83" ry="3.83"/><rect class="cls-32" x="361.61" y="463.89" width="34.25" height="7.67" rx="3.83" ry="3.83"/><rect class="cls-32" x="361.61" y="476.83" width="34.25" height="7.67" rx="3.83" ry="3.83"/><rect class="cls-32" x="361.61" y="489.78" width="34.25" height="7.67" rx="3.83" ry="3.83"/><rect class="cls-32" x="361.61" y="502.72" width="34.25" height="7.67" rx="3.83" ry="3.83"/><rect class="cls-32" x="361.61" y="515.67" width="34.25" height="7.67" rx="3.83" ry="3.83"/><rect class="cls-32" x="361.61" y="528.61" width="34.25" height="7.67" rx="3.83" ry="3.83"/><rect class="cls-32" x="361.61" y="541.56" width="34.25" height="7.67" rx="3.83" ry="3.83"/><rect class="cls-32" x="361.61" y="554.5" width="34.25" height="7.67" rx="3.83" ry="3.83"/><rect class="cls-32" x="361.61" y="567.45" width="34.25" height="7.67" rx="3.83" ry="3.83"/><rect class="cls-14" x="280.77" y="449.11" width="87" height="128.25"/><g id="_编组_139" data-name="&lt;编组&gt;"><rect id="_矩形_294" data-name="&lt;矩形&gt;" class="cls-24" x="673.16" y="650.7" width="17.32" height="13.51"/><rect id="_矩形_295" data-name="&lt;矩形&gt;" class="cls-24" x="673.16" y="677.62" width="17.32" height="13.51"/><g id="_编组_140" data-name="&lt;编组&gt;"><path id="_路径_26" data-name="&lt;路径&gt;" class="cls-33" d="M686.48,655.36a4.66,4.66,0,1,1-9.32,0h-2.79v8.85h14.89v-8.85Z"/><path id="_路径_27" data-name="&lt;路径&gt;" class="cls-33" d="M677.16,686.47a4.66,4.66,0,1,1,9.32,0h2.79v-8.85H674.37v8.85Z"/><rect id="_矩形_296" data-name="&lt;矩形&gt;" class="cls-34" x="675.2" y="661.13" width="13.24" height="19.47"/></g></g><g id="_编组_141" data-name="&lt;编组&gt;"><rect id="_矩形_297" data-name="&lt;矩形&gt;" class="cls-35" x="257.57" y="816.3" width="86.63" height="30.73"/><g id="_编组_142" data-name="&lt;编组&gt;"><rect id="_矩形_298" data-name="&lt;矩形&gt;" class="cls-36" x="264.66" y="812.46" width="72.95" height="38.39"/><rect id="_矩形_299" data-name="&lt;矩形&gt;" class="cls-37" x="273.4" y="812.46" width="6.34" height="38.39"/></g></g><g id="_编组_143" data-name="&lt;编组&gt;"><rect id="_矩形_300" data-name="&lt;矩形&gt;" class="cls-35" x="257.32" y="757.86" width="86.63" height="30.73"/><g id="_编组_144" data-name="&lt;编组&gt;"><rect id="_矩形_301" data-name="&lt;矩形&gt;" class="cls-36" x="264.41" y="754.03" width="72.95" height="38.39"/><rect id="_矩形_302" data-name="&lt;矩形&gt;" class="cls-37" x="273.15" y="754.03" width="6.34" height="38.39"/></g></g><rect class="cls-21" x="217.43" y="1055.75" width="199.16" height="27.49"/><path d="M254.24,1057.78h10.21l3.33,13.7h.07l3.33-13.7h10.21v23.28h-6.78v-14.93h-.07l-4,14.93h-5.35l-4-14.93H261v14.93h-6.78Z"/><path d="M296.17,1057.22c7.08,0,11.8,5.09,11.8,12.2s-4.73,12.2-11.8,12.2-11.8-5.09-11.8-12.2S289.09,1057.22,296.17,1057.22Zm0,18.59c1.83,0,4.63-1.21,4.63-6.39s-2.8-6.39-4.63-6.39-4.63,1.21-4.63,6.39S294.34,1075.81,296.17,1075.81Z"/><path d="M316.45,1063.75h-6.52v-6h20.22v6h-6.52v17.31h-7.17Z"/><path d="M343.9,1057.22c7.08,0,11.8,5.09,11.8,12.2s-4.73,12.2-11.8,12.2-11.8-5.09-11.8-12.2S336.82,1057.22,343.9,1057.22Zm0,18.59c1.83,0,4.63-1.21,4.63-6.39s-2.8-6.39-4.63-6.39-4.63,1.21-4.63,6.39S342.07,1075.81,343.9,1075.81Z"/><path d="M373.4,1066.45a3.73,3.73,0,0,0-3.75-3.42c-3.36,0-4.43,3.26-4.43,6.39s1.08,6.39,4.43,6.39c2.41,0,3.36-1.7,3.78-3.88h7c0,4.7-3.82,9.68-10.63,9.68-7.53,0-11.8-5.31-11.8-12.2,0-7.34,4.63-12.2,11.8-12.2,6.39,0,9.91,3.39,10.53,9.23Z"/><rect class="cls-21" x="542.05" y="183.04" width="194.68" height="27.49" transform="translate(1278.78 393.58) rotate(180)"/><path d="M702.16,208.51H692l-3.33-13.7h-.07l-3.33,13.7H675V185.23h6.78v14.93h.07l4-14.93h5.35l4,14.93h.07V185.23h6.78Z"/><path d="M660.24,209.06c-7.08,0-11.8-5.09-11.8-12.2s4.73-12.2,11.8-12.2,11.8,5.09,11.8,12.2S667.31,209.06,660.24,209.06Zm0-18.59c-1.83,0-4.63,1.21-4.63,6.39s2.8,6.39,4.63,6.39,4.63-1.21,4.63-6.39S662.06,190.48,660.24,190.48Z"/><path d="M640,202.54h6.52v6H626.26v-6h6.52V185.23H640Z"/><path d="M612.51,209.06c-7.08,0-11.8-5.09-11.8-12.2s4.73-12.2,11.8-12.2,11.8,5.09,11.8,12.2S619.58,209.06,612.51,209.06Zm0-18.59c-1.83,0-4.63,1.21-4.63,6.39s2.8,6.39,4.63,6.39,4.63-1.21,4.63-6.39S614.33,190.48,612.51,190.48Z"/><path d="M591.22,208.51h-7l-8.48-23.28h7.43l1,3.33h7.4l1-3.33h7.21Zm-5.64-15,2.09,7.17h.07l2.25-7.17Z"/><rect class="cls-21" x="221.65" y="183.04" width="205.86" height="27.49" transform="translate(649.16 393.58) rotate(180)"/><path d="M387.35,208.51H377.15l-3.33-13.7h-.07l-3.33,13.7H360.22V185.23H367v14.93h.07l4-14.93h5.35l4,14.93h.07V185.23h6.78Z"/><path d="M345.43,209.06c-7.08,0-11.8-5.09-11.8-12.2s4.73-12.2,11.8-12.2,11.8,5.09,11.8,12.2S352.5,209.06,345.43,209.06Zm0-18.59c-1.83,0-4.63,1.21-4.63,6.39s2.8,6.39,4.63,6.39,4.63-1.21,4.63-6.39S347.25,190.48,345.43,190.48Z"/><path d="M325.15,202.54h6.52v6H311.45v-6H318V185.23h7.17Z"/><path d="M297.7,209.06c-7.08,0-11.8-5.09-11.8-12.2s4.73-12.2,11.8-12.2,11.8,5.09,11.8,12.2S304.77,209.06,297.7,209.06Zm0-18.59c-1.83,0-4.63,1.21-4.63,6.39s2.8,6.39,4.63,6.39,4.63-1.21,4.63-6.39S299.52,190.48,297.7,190.48Z"/><path d="M282.86,208.51H270.11c-6.13,0-7.43-3.46-7.43-5.84a4.8,4.8,0,0,1,2.87-4.56,5.68,5.68,0,0,1-4-5.8c0-4.66,4-7.08,8.15-7.08h13.21Zm-7.17-17.74h-4.21c-1.5,0-2.8.42-2.8,2.22,0,1.37.82,2.12,2.51,2.12h4.5Zm0,8.67h-3.78c-1.5,0-2.45.42-2.45,1.92,0,1.17,1,1.6,2.45,1.6h3.78Z"/><rect class="cls-21" x="114.93" y="771" width="159.36" height="27.49" transform="translate(979.35 590.14) rotate(90)"/><path d="M206.33,763.38v7.17H183v-7.17Z"/><path d="M206.33,774.23v7.17H183v-7.17Z"/><path d="M197.66,799.76a3.73,3.73,0,0,0,3.42-3.75c0-3.36-3.26-4.43-6.39-4.43s-6.39,1.08-6.39,4.43c0,2.41,1.7,3.36,3.88,3.78v7c-4.7,0-9.68-3.82-9.68-10.63,0-7.53,5.31-11.8,12.2-11.8,7.34,0,12.2,4.63,12.2,11.8,0,6.39-3.39,9.91-9.23,10.53Z"/><rect class="cls-21" x="536.88" y="1055.67" width="191.78" height="27.49"/><path d="M576.08,1057.7h7.17V1081h-7.17Z"/><path d="M586.93,1057.7h7.17V1081h-7.17Z"/><path d="M612.46,1066.37a3.73,3.73,0,0,0-3.75-3.42c-3.36,0-4.43,3.26-4.43,6.39s1.08,6.39,4.43,6.39c2.41,0,3.36-1.7,3.78-3.88h7c0,4.7-3.82,9.68-10.63,9.68-7.53,0-11.8-5.31-11.8-12.2,0-7.34,4.63-12.2,11.8-12.2,6.39,0,9.91,3.39,10.53,9.23Z"/><path d="M622.21,1069.6h10.21v5.35H622.21Z"/><path d="M635.8,1057.7H643V1081H635.8Z"/><path d="M646.69,1057.7H654l6.78,12.46h.07V1057.7h6.78V1081h-7l-7.14-12.72h-.07V1081h-6.78Z"/><path d="M676.85,1063.67h-6.52v-6h20.22v6H684V1081h-7.17Z"/><rect class="cls-21" x="679.16" y="285.95" width="148.46" height="27.49" transform="translate(453.7 1053.09) rotate(-90)"/><path d="M741.67,332.28v-12c0-6.33,4.63-8.54,8-8.54,5.64,0,8.28,3.78,8.28,9.13v4.24h7v7.17Zm10.7-7.17v-2.77c0-1.86-.13-3.82-2.48-3.82-2.12,0-2.25,1.63-2.25,3.39v3.2Z"/><path d="M741.67,309.33V296.58c0-6.13,3.46-7.43,5.84-7.43a4.8,4.8,0,0,1,4.56,2.87,5.68,5.68,0,0,1,5.8-4c4.66,0,7.08,4,7.08,8.15v13.21Zm9.06-7.17v-3.78c0-1.5-.42-2.45-1.92-2.45-1.17,0-1.6,1-1.6,2.45v3.78Zm8.67,0v-4.21c0-1.5-.42-2.8-2.22-2.8-1.37,0-2.12.82-2.12,2.51v4.5Z"/><path d="M747.8,267.85v10.57l3,.65.07-.07a8.3,8.3,0,0,1-1.34-5c0-4,2.35-7.4,7.7-7.4,4.6,0,8,3.62,8,10.17,0,8.38-5.15,9.91-7.4,9.72v-6.42a2.66,2.66,0,0,0,1.5-.91,4.09,4.09,0,0,0,.75-2.58,3.2,3.2,0,0,0-3-3.46,3,3,0,0,0-3.16,3.26,3.57,3.57,0,0,0,1.47,3.29v6.07l-13.08-2.35V267.85Z"/><rect class="cls-21" x="615.15" y="494.04" width="156.58" height="27.49" transform="translate(185.65 1201.23) rotate(-90)"/><path d="M697.18,539.48a4.3,4.3,0,0,0,1.53-.26c1.4-.52,1.7-2.09,1.7-3.42,0-1.17-.39-3-2.12-3-1.21,0-1.53,1-2.67,5-1,3.68-2.05,7.89-6.75,7.89-5.38,0-7.7-4.6-7.7-9.39,0-5.05,1.92-9.52,7.6-9.72v6.78a1.78,1.78,0,0,0-1.86.85,3.72,3.72,0,0,0-.59,2.12c0,1,.26,2.58,1.57,2.58,1.66-.13,2-3.46,2.93-6.75s2.45-6.55,6.72-6.55c6.06,0,8,5.58,8,10.76,0,2.64-.95,10.17-8.38,10.24Z"/><path d="M705,500.19v7l-14.18,2.51v.07L705,512.19v7l-23.28,6.33v-7l14.38-2.84v-.06l-14.38-2.8v-6.33l14.58-2.74v-.06l-14.58-2.9v-7.08Z"/><path d="M681.72,492V480.27c0-7.76,5.74-10.5,11.61-10.5,7.14,0,11.67,3.78,11.67,11.9V492ZM699,484.87v-2.8c0-4.47-3.62-5.12-5.8-5.12-1.47,0-5.54.46-5.54,5.64v2.28Z"/><rect class="cls-21" x="111.12" y="550.49" width="167.15" height="27.49" transform="translate(758.93 369.55) rotate(90)"/><path d="M192.13,529.54c-6.46,0-9.55-3.49-9.55-10.6s3.1-10.63,9.55-10.63h14.28v7.17H193.72c-2.38,0-5.35,0-5.35,3.49s3,3.39,5.35,3.39h12.68v7.17Z"/><path d="M191,538.86a4.3,4.3,0,0,0-1.53.26c-1.4.52-1.7,2.09-1.7,3.42,0,1.17.39,3,2.12,3,1.21,0,1.53-1,2.67-5,1-3.68,2.05-7.89,6.75-7.89,5.38,0,7.7,4.6,7.7,9.39,0,5.05-1.92,9.52-7.6,9.72v-6.78a1.78,1.78,0,0,0,1.86-.85,3.72,3.72,0,0,0,.59-2.12c0-1-.26-2.58-1.57-2.58-1.66.13-2,3.46-2.93,6.75s-2.45,6.55-6.72,6.55c-6.06,0-8-5.58-8-10.76,0-2.64.95-10.17,8.38-10.24Z"/><path d="M206.41,561.36v7l-23.28,8.48v-7.43l3.33-1V561l-3.33-1v-7.21Zm-15,5.64,7.17-2.09v-.07l-7.17-2.25Z"/><path d="M206.41,578.44V592.1c0,4.08-2.25,7.6-6.65,7.6-2.41,0-5-1.11-5.84-3.49-.75,2-2.9,3.16-5.8,3.42-1.14.1-3.91.13-5,.78v-7.17a16.76,16.76,0,0,1,3.59-.59c2.22-.2,4.53-.39,4.53-3.23v-3.82h-8.12v-7.17Zm-10.17,7.17v3.75c0,1.34.23,3.16,2.32,3.16,1.47,0,2.31-.82,2.31-3.55v-3.36Z"/><path d="M200.44,607.46v-6.52h6v20.22h-6v-6.52H183.13v-7.17Z"/><rect class="cls-14" x="419.09" y="854.68" width="94.5" height="72.25" rx="4.5" ry="4.5"/><path class="cls-38" d="M509.09,855.68a3.5,3.5,0,0,1,3.5,3.5v63.25a3.5,3.5,0,0,1-3.5,3.5h-85.5a3.5,3.5,0,0,1-3.5-3.5V859.18a3.5,3.5,0,0,1,3.5-3.5h85.5m0-2h-85.5a5.52,5.52,0,0,0-5.5,5.5v63.25a5.52,5.52,0,0,0,5.5,5.5h85.5a5.52,5.52,0,0,0,5.5-5.5V859.18a5.52,5.52,0,0,0-5.5-5.5Z"/><rect class="cls-39" x="421.19" y="819.77" width="13.67" height="27.92" rx="6.83" ry="6.83"/><rect class="cls-39" x="446.74" y="819.77" width="13.67" height="27.92" rx="6.83" ry="6.83"/><rect class="cls-39" x="472.28" y="819.77" width="13.67" height="27.92" rx="6.83" ry="6.83"/><rect class="cls-39" x="497.82" y="819.77" width="13.67" height="27.92" rx="6.83" ry="6.83"/><rect class="cls-39" x="421.19" y="937.73" width="13.67" height="27.92" rx="6.83" ry="6.83"/><rect class="cls-39" x="446.74" y="937.73" width="13.67" height="27.92" rx="6.83" ry="6.83"/><rect class="cls-39" x="472.28" y="937.73" width="13.67" height="27.92" rx="6.83" ry="6.83"/><rect class="cls-39" x="497.82" y="937.73" width="13.67" height="27.92" rx="6.83" ry="6.83"/><rect class="cls-40" x="423.28" y="829.93" width="9.5" height="23.75"/><rect class="cls-40" x="448.82" y="829.93" width="9.5" height="23.75"/><rect class="cls-40" x="474.36" y="829.93" width="9.5" height="23.75"/><rect class="cls-40" x="499.9" y="829.93" width="9.5" height="23.75"/><rect class="cls-40" x="423.28" y="927.93" width="9.5" height="23.75"/><rect class="cls-40" x="448.82" y="927.93" width="9.5" height="23.75"/><rect class="cls-40" x="474.36" y="927.93" width="9.5" height="23.75"/><rect class="cls-40" x="499.9" y="927.93" width="9.5" height="23.75"/><rect class="cls-39" x="276.34" y="892.7" width="66.45" height="138.61"/><rect class="cls-41" x="249" y="901.44" width="121.14" height="121.14" rx="7.76" ry="7.76"/><rect class="cls-39" x="586.85" y="989.94" width="112.26" height="28.58"/><rect class="cls-42" x="594.44" y="989.94" width="97.07" height="28.58"/><rect class="cls-43" x="604.26" y="980.12" width="78.53" height="47.55"/><rect class="cls-21" x="612.76" y="981.1" width="7.85" height="45.59"/><rect class="cls-39" x="586.85" y="914.39" width="112.26" height="28.58"/><rect class="cls-42" x="594.44" y="914.39" width="97.07" height="28.58"/><rect class="cls-43" x="604.26" y="904.57" width="78.53" height="47.55"/><rect class="cls-21" x="612.76" y="905.55" width="7.85" height="45.59"/><polygon class="cls-10" points="317.01 288.26 303.89 288.26 300.01 288.26 284.26 288.26 280.39 288.26 280.39 292.13 280.39 311.13 284.26 311.13 284.26 292.13 300.01 292.13 300.01 311.13 303.89 311.13 303.89 292.13 317.01 292.13 317.01 311.13 320.89 311.13 320.89 292.13 320.89 288.26 317.01 288.26"/><polygon class="cls-10" points="154.33 991.72 154.33 978.59 154.33 974.72 154.33 958.97 154.33 955.09 150.45 955.09 131.45 955.09 131.45 958.97 150.45 958.97 150.45 974.72 131.45 974.72 131.45 978.59 150.45 978.59 150.45 991.72 131.45 991.72 131.45 995.59 150.45 995.59 154.33 995.59 154.33 991.72"/><polygon class="cls-10" points="466.69 288.26 453.56 288.26 449.69 288.26 433.94 288.26 430.06 288.26 430.06 292.13 430.06 311.13 433.94 311.13 433.94 292.13 449.69 292.13 449.69 311.13 453.56 311.13 453.56 292.13 466.69 292.13 466.69 311.13 470.56 311.13 470.56 292.13 470.56 288.26 466.69 288.26"/><path class="cls-44" d="M830.45,448.45a13.5,13.5,0,1,1,13.5-13.5A13.52,13.52,0,0,1,830.45,448.45Z"/><path class="cls-39" d="M830.45,423.95a11,11,0,1,1-11,11,11,11,0,0,1,11-11m0-5a16,16,0,1,0,16,16,16,16,0,0,0-16-16Z"/><path class="cls-44" d="M754.62,457.72a9,9,0,1,1,9-9A9,9,0,0,1,754.62,457.72Z"/><path class="cls-39" d="M754.62,441.41a7.32,7.32,0,1,1-7.32,7.32,7.33,7.33,0,0,1,7.32-7.32m0-3.33a10.65,10.65,0,1,0,10.65,10.65,10.65,10.65,0,0,0-10.65-10.65Z"/><path class="cls-44" d="M754.62,496.65a9,9,0,1,1,9-9A9,9,0,0,1,754.62,496.65Z"/><path class="cls-39" d="M754.62,480.34a7.32,7.32,0,1,1-7.32,7.32,7.33,7.33,0,0,1,7.32-7.32m0-3.33a10.65,10.65,0,1,0,10.65,10.65A10.65,10.65,0,0,0,754.62,477Z"/><path class="cls-44" d="M754.62,535.58a9,9,0,1,1,9-9A9,9,0,0,1,754.62,535.58Z"/><path class="cls-39" d="M754.62,519.27a7.32,7.32,0,1,1-7.32,7.32,7.33,7.33,0,0,1,7.32-7.32m0-3.33a10.65,10.65,0,1,0,10.65,10.65,10.65,10.65,0,0,0-10.65-10.65Z"/><path class="cls-44" d="M830.45,580.29a13.5,13.5,0,1,1,13.5-13.5A13.52,13.52,0,0,1,830.45,580.29Z"/><path class="cls-39" d="M830.45,555.79a11,11,0,1,1-11,11,11,11,0,0,1,11-11m0-5a16,16,0,1,0,16,16,16,16,0,0,0-16-16Z"/><rect class="cls-39" x="723.87" y="739.44" width="30.75" height="44.5"/><polygon class="cls-45" points="739.37 636.36 739.37 688.82 729.37 688.82 729.37 750.03 781.37 750.03 781.37 771.69 920.04 771.69 920.04 636.36 739.37 636.36"/><rect class="cls-39" x="744.37" y="608.19" width="30.75" height="28.17"/><rect class="cls-39" x="840.12" y="608.19" width="40.25" height="28.17"/><rect class="cls-39" x="840.12" y="771.69" width="40.25" height="30.25"/><polygon class="cls-46" points="799.62 636.36 799.62 655.64 760.62 655.64 760.62 749.36 799.62 749.36 799.62 771.69 877.62 771.69 877.62 747.33 836.29 747.33 836.29 737.18 919.62 737.18 919.62 700.3 835.96 700.3 835.96 688.8 877.96 688.8 877.96 636.36 799.62 636.36"/><rect class="cls-47" x="919.62" y="668.19" width="33" height="100.51"/><path class="cls-21" d="M869.29,612.34c-1.6,6.79-5,11.5-9,11.5s-7.44-4.71-9-11.5h-6.79v24.5h31.67v-24.5Z"/><path class="cls-21" d="M767.58,618c-1.23,5.22-3.88,8.85-7,8.85s-5.73-3.62-7-8.85h-5.23v18.85h24.37V618Z"/><path class="cls-21" d="M852.3,796.19c1.6-6.79,5-11.5,9-11.5s7.44,4.71,9,11.5h6.79v-24.5H845.51v24.5Z"/><rect class="cls-10" x="866.84" y="438.08" width="77" height="123"/><rect class="cls-48" x="932" y="463.75" width="33.67" height="71.67"/><path class="cls-48" d="M917.94,572H830.45V560.42h87.49a8.27,8.27,0,0,0,8.26-8.26V449.5a8.27,8.27,0,0,0-8.26-8.26H830.45V429.63h87.49a19.89,19.89,0,0,1,19.86,19.86V552.17A19.89,19.89,0,0,1,917.94,572Z"/><path class="cls-49" d="M794.08,418.16V589.36h-72.7V418.16h72.7m4.4-4.4H717v180h81.49v-180Z"/><rect class="cls-44" x="746.89" y="556.31" width="18.42" height="18.42"/><path class="cls-39" d="M763.64,558v15.09H748.55V558h15.09m3.33-3.33H745.22v21.74H767V554.64Z"/><polygon class="cls-50" points="604.77 726.96 604.77 795.71 616.65 807.59 694.52 807.59 694.52 717.71 617.52 717.71 604.77 726.96"/><circle class="cls-9" cx="649.65" cy="762.65" r="39.25"/><path class="cls-51" d="M663.27,729.06a36.25,36.25,0,0,1,0,67.18Z"/><path class="cls-9" d="M666.27,733.86a33.24,33.24,0,0,1,0,57.58V733.86m-6-9v75.57a39.25,39.25,0,0,0,0-75.57Z"/><rect class="cls-41" x="593.06" y="750.71" width="13.33" height="21"/><rect class="cls-39" x="583.06" y="750.71" width="10" height="21"/><rect class="cls-41" x="692.9" y="750.71" width="13.33" height="21"/><rect class="cls-39" x="706.23" y="750.71" width="10" height="21"/><rect class="cls-39" x="583.06" y="835.77" width="124.9" height="37.34"/><rect class="cls-9" x="599.64" y="821.93" width="91.74" height="66.64"/><rect class="cls-52" x="608.82" y="821.93" width="53.12" height="66.64"/><rect class="cls-53" x="661.93" y="821.93" width="8.45" height="66.64"/><circle class="cls-21" cx="789.14" cy="943.95" r="9"/><line class="cls-54" x1="789.14" y1="870.14" x2="789.14" y2="915.89"/><polygon class="cls-21" points="782.34 874.77 789.14 849.41 795.94 874.77 782.34 874.77"/><line class="cls-54" x1="789.14" y1="1017.76" x2="789.14" y2="972.01"/><polygon class="cls-21" points="795.94 1013.13 789.14 1038.49 782.34 1013.13 795.94 1013.13"/><path class="cls-21" d="M757.39,986.3a9.83,9.83,0,1,1-9.83-9.7A9.58,9.58,0,0,1,757.39,986.3Zm-15.52,0a5.7,5.7,0,1,0,5.69-6A5.74,5.74,0,0,0,741.87,986.3Z"/><path class="cls-21" d="M727.62,984.48c1.22,1.64,2.37,3.22,3.54,4.86l.05,0c0-1.79-.05-3.61-.05-5.43v-7h4v18.82h-3.9l-5.64-7.59c-1.22-1.64-2.37-3.22-3.54-4.86l-.05,0c0,1.79.05,3.61.05,5.43v7h-4V976.89H722Z"/><path class="cls-21" d="M757.39,895.8a9.83,9.83,0,1,1-9.83-9.7A9.58,9.58,0,0,1,757.39,895.8Zm-15.52,0a5.7,5.7,0,1,0,5.69-6A5.74,5.74,0,0,0,741.87,895.8Z"/><path class="cls-21" d="M735.14,905.21H723.2V901.6H731v-4.06H724.3v-3.43H731v-7.72h4.13Z"/><path class="cls-21" d="M720.42,905.21H708.49V901.6h7.8v-4.06h-6.71v-3.43h6.71v-7.72h4.13Z"/><rect class="cls-55" x="718.73" y="835.62" width="39" height="27.33" rx="12" ry="12"/><rect class="cls-55" x="718.73" y="930.28" width="39" height="27.33" rx="12" ry="12"/><rect class="cls-55" x="718.73" y="1024.95" width="39" height="27.33" rx="12" ry="12"/><rect class="cls-41" x="815.06" y="812.7" width="129.5" height="262.5"/><rect class="cls-21" x="888.39" y="812.7" width="56.67" height="262.5"/><rect class="cls-41" x="873.56" y="937.82" width="42" height="12.25" rx="6.12" ry="6.12"/><rect class="cls-41" x="898.06" y="830.79" width="29.5" height="91.4" rx="6.7" ry="6.7"/><rect class="cls-41" x="898.06" y="965.7" width="29.5" height="91.4" rx="6.7" ry="6.7"/><rect class="cls-41" x="945.06" y="904.45" width="90.5" height="79"/><rect class="cls-48" x="733.39" y="846.28" width="83.33" height="6"/><rect class="cls-48" x="733.39" y="940.95" width="83.33" height="6"/><rect class="cls-48" x="733.39" y="1035.62" width="83.33" height="6"/><rect class="cls-56" x="718.73" y="416.49" width="78" height="176.77"/><rect class="cls-57" x="723.48" y="421.88" width="68.5" height="166"/><rect class="cls-58" x="753.19" y="449.27" width="9.07" height="9.07"/><rect class="cls-58" x="753.19" y="483.32" width="9.07" height="9.07"/><rect class="cls-58" x="753.19" y="517.37" width="9.07" height="9.07"/><rect class="cls-58" x="753.19" y="551.42" width="9.07" height="9.07"/></g></g></svg>