<svg xmlns="http://www.w3.org/2000/svg" xmlns:xlink="http://www.w3.org/1999/xlink" viewBox="0 0 946.34 1268.13"><defs><style>.cls-1{fill:#353535;}.cls-2{fill:none;stroke-width:3.31px;}.cls-2,.cls-4,.cls-8{stroke:#fff;}.cls-2,.cls-4,.cls-7,.cls-8{stroke-miterlimit:10;}.cls-3{fill:#f2cb6b;}.cls-4{fill:#9b9b9b;}.cls-4,.cls-7{stroke-width:0.66px;}.cls-5{fill:#d2d3d3;}.cls-6{fill:#030000;}.cls-7{fill:#58b1f9;stroke:#122c4f;}.cls-8{fill:#d0ab3c;stroke-width:1.99px;}.cls-9{fill:#f0c581;}.cls-10{fill:#c8a266;}.cls-11{fill:#fff;}.cls-12{fill:#f4cb70;}.cls-13{fill:#c6c5c5;}.cls-14{fill:#c0c4c6;}.cls-15{fill:#e6ebed;}.cls-16{fill:#d2d5d6;}.cls-17{fill:#aeafaf;}.cls-18{fill:url(#未命名的渐变_93);}.cls-19{fill:url(#未命名的渐变_95);}.cls-20{fill:#e5eaed;}.cls-21{fill:url(#未命名的渐变_93-2);}.cls-22{fill:url(#未命名的渐变_98);}.cls-23{fill:#e6ebee;}.cls-24{fill:#c1c7c9;}.cls-25{fill:#939393;}.cls-26{fill:#c4c793;}.cls-27{fill:#888a64;}.cls-28{fill:#ccc;}.cls-29{fill:#b7b7b7;}.cls-30{fill:#e5e5e5;}</style><linearGradient id="未命名的渐变_93" x1="396.25" y1="141.22" x2="550.09" y2="141.22" gradientUnits="userSpaceOnUse"><stop offset="0" stop-color="#dbe0e3"/><stop offset="1" stop-color="#c2c6c9"/></linearGradient><linearGradient id="未命名的渐变_95" x1="396.25" y1="141.22" x2="550.09" y2="141.22" gradientUnits="userSpaceOnUse"><stop offset="0" stop-color="#999"/><stop offset="1" stop-color="#c2c6c9"/></linearGradient><linearGradient id="未命名的渐变_93-2" x1="-3389.94" y1="725.05" x2="-3236.11" y2="725.05" gradientTransform="translate(-2839.86 1620.95) rotate(180)" xlink:href="#未命名的渐变_93"/><linearGradient id="未命名的渐变_98" x1="-3389.94" y1="725.05" x2="-3236.11" y2="725.05" gradientTransform="translate(-2839.86 1620.95) rotate(180)" gradientUnits="userSpaceOnUse"><stop offset="0" stop-color="#c2c6c9"/><stop offset="1" stop-color="#999"/></linearGradient></defs><title>PM2.5传感模块</title><g id="图层_2" data-name="图层 2"><g id="图层_1-2" data-name="图层 1"><path id="_复合路径_" data-name="&lt;复合路径&gt;" class="cls-1" d="M874.9,0H71.44A71.43,71.43,0,0,0,0,71.43V1196.69a71.44,71.44,0,0,0,71.44,71.44H874.9a71.44,71.44,0,0,0,71.44-71.44V71.43A71.43,71.43,0,0,0,874.9,0Zm23.39,43.58a6.37,6.37,0,1,1,0,9A6.37,6.37,0,0,1,898.29,43.58Zm9,60.31a6.37,6.37,0,1,1,0-9A6.37,6.37,0,0,1,907.3,103.88Zm0,1069.36a6.37,6.37,0,1,1,0-9A6.37,6.37,0,0,1,907.3,1173.25ZM877.14,31.09a6.37,6.37,0,1,1-6.37,6.37A6.37,6.37,0,0,1,877.14,31.09Zm0,18.46A24.18,24.18,0,1,1,853,73.73,24.18,24.18,0,0,1,877.14,49.55Zm0,66.83a6.37,6.37,0,1,1,6.37-6.37A6.37,6.37,0,0,1,877.14,116.37Zm6.37,1041.75a6.37,6.37,0,1,1-6.37-6.37A6.37,6.37,0,0,1,883.51,1158.12ZM856,103.88a6.37,6.37,0,1,1,0-9A6.37,6.37,0,0,1,856,103.88Zm0,1069.36a6.37,6.37,0,1,1,0-9A6.37,6.37,0,0,1,856,1173.25ZM847,43.58a6.37,6.37,0,1,1,0,9A6.37,6.37,0,0,1,847,43.58Zm-6.12,23.78a6.37,6.37,0,1,1-6.37,6.37A6.37,6.37,0,0,1,840.87,67.36ZM90.34,43.58a6.37,6.37,0,1,1,0,9A6.37,6.37,0,0,1,90.34,43.58Zm9,60.31a6.37,6.37,0,1,1,0-9A6.37,6.37,0,0,1,99.35,103.88Zm0,1069.36a6.37,6.37,0,1,1,0-9A6.37,6.37,0,0,1,99.35,1173.25ZM69.19,31.09a6.37,6.37,0,1,1-6.37,6.37A6.37,6.37,0,0,1,69.19,31.09Zm0,18.46A24.18,24.18,0,1,1,45,73.73,24.18,24.18,0,0,1,69.19,49.55Zm0,66.83A6.37,6.37,0,1,1,75.56,110,6.37,6.37,0,0,1,69.19,116.37Zm6.37,1041.75a6.37,6.37,0,1,1-6.37-6.37A6.37,6.37,0,0,1,75.56,1158.12ZM48,103.88a6.37,6.37,0,1,1,0-9A6.37,6.37,0,0,1,48,103.88Zm0,1069.36a6.37,6.37,0,1,1,0-9A6.37,6.37,0,0,1,48,1173.25ZM39,43.58a6.37,6.37,0,1,1,0,9A6.37,6.37,0,0,1,39,43.58ZM32.92,67.36a6.37,6.37,0,1,1-6.37,6.37A6.37,6.37,0,0,1,32.92,67.36Zm-6.37,1127a6.37,6.37,0,1,1,6.37,6.37A6.37,6.37,0,0,1,26.55,1194.39ZM48,1224.55a6.37,6.37,0,1,1,0-9A6.37,6.37,0,0,1,48,1224.55ZM69.19,1237a6.37,6.37,0,1,1,6.37-6.37A6.37,6.37,0,0,1,69.19,1237Zm0-18.46a24.18,24.18,0,1,1,24.18-24.18A24.18,24.18,0,0,1,69.19,1218.58Zm30.15,6a6.37,6.37,0,1,1,0-9A6.37,6.37,0,0,1,99.35,1224.55Zm6.12-23.78a6.37,6.37,0,1,1,6.37-6.37A6.37,6.37,0,0,1,105.47,1200.76Zm0-1120.66a6.37,6.37,0,1,1,6.37-6.37A6.37,6.37,0,0,1,105.47,80.1Zm729,1114.29a6.37,6.37,0,1,1,6.37,6.37A6.37,6.37,0,0,1,834.5,1194.39Zm21.5,30.15a6.37,6.37,0,1,1,0-9A6.37,6.37,0,0,1,856,1224.55ZM877.14,1237a6.37,6.37,0,1,1,6.37-6.37A6.37,6.37,0,0,1,877.14,1237Zm0-18.46a24.18,24.18,0,1,1,24.18-24.18A24.18,24.18,0,0,1,877.14,1218.58Zm30.15,6a6.37,6.37,0,1,1,0-9A6.37,6.37,0,0,1,907.3,1224.55Zm6.12-23.78a6.37,6.37,0,1,1,6.37-6.37A6.37,6.37,0,0,1,913.42,1200.76Zm0-1120.66a6.37,6.37,0,1,1,6.37-6.37A6.37,6.37,0,0,1,913.42,80.1Z"/><g id="_编组_" data-name="&lt;编组&gt;"><g id="_编组_2" data-name="&lt;编组&gt;"><circle id="_路径_" data-name="&lt;路径&gt;" class="cls-2" cx="69.19" cy="73.73" r="48.21"/><path id="_复合路径_2" data-name="&lt;复合路径&gt;" class="cls-3" d="M69.19,25.37a48.37,48.37,0,1,0,48.37,48.37A48.42,48.42,0,0,0,69.19,25.37ZM90.34,43.58a6.37,6.37,0,1,1,0,9A6.37,6.37,0,0,1,90.34,43.58ZM69.19,31.09a6.37,6.37,0,1,1-6.37,6.37A6.37,6.37,0,0,1,69.19,31.09ZM39,43.58a6.37,6.37,0,1,1,0,9A6.37,6.37,0,0,1,39,43.58ZM32.92,80.1a6.37,6.37,0,1,1,6.37-6.37A6.37,6.37,0,0,1,32.92,80.1ZM48,103.88a6.37,6.37,0,1,1,0-9A6.37,6.37,0,0,1,48,103.88Zm21.15,12.49A6.37,6.37,0,1,1,75.56,110,6.37,6.37,0,0,1,69.19,116.37Zm0-18.46A24.18,24.18,0,1,1,93.38,73.73,24.21,24.21,0,0,1,69.19,97.91Zm30.15,6a6.37,6.37,0,1,1,0-9A6.37,6.37,0,0,1,99.35,103.88Zm6.12-23.78a6.37,6.37,0,1,1,6.37-6.37A6.37,6.37,0,0,1,105.47,80.1Z"/></g><g id="_编组_3" data-name="&lt;编组&gt;"><circle id="_路径_2" data-name="&lt;路径&gt;" class="cls-2" cx="877.14" cy="73.73" r="48.21"/><path id="_复合路径_3" data-name="&lt;复合路径&gt;" class="cls-3" d="M877.14,25.37a48.37,48.37,0,1,0,48.37,48.37A48.42,48.42,0,0,0,877.14,25.37Zm21.15,18.21a6.37,6.37,0,1,1,0,9A6.37,6.37,0,0,1,898.29,43.58ZM877.14,31.09a6.37,6.37,0,1,1-6.37,6.37A6.37,6.37,0,0,1,877.14,31.09ZM847,43.58a6.37,6.37,0,1,1,0,9A6.37,6.37,0,0,1,847,43.58ZM840.87,80.1a6.37,6.37,0,1,1,6.37-6.37A6.37,6.37,0,0,1,840.87,80.1ZM856,103.88a6.37,6.37,0,1,1,0-9A6.37,6.37,0,0,1,856,103.88Zm21.15,12.49a6.37,6.37,0,1,1,6.37-6.37A6.37,6.37,0,0,1,877.14,116.37Zm0-18.46a24.18,24.18,0,1,1,24.18-24.18A24.21,24.21,0,0,1,877.14,97.91Zm30.15,6a6.37,6.37,0,1,1,0-9A6.37,6.37,0,0,1,907.3,103.88Zm6.12-23.78a6.37,6.37,0,1,1,6.37-6.37A6.37,6.37,0,0,1,913.42,80.1Z"/></g><g id="_编组_4" data-name="&lt;编组&gt;"><circle id="_路径_3" data-name="&lt;路径&gt;" class="cls-2" cx="69.19" cy="1194.39" r="48.21"/><path id="_复合路径_4" data-name="&lt;复合路径&gt;" class="cls-3" d="M69.19,1146a48.37,48.37,0,1,0,48.37,48.37A48.42,48.42,0,0,0,69.19,1146Zm21.15,18.21a6.37,6.37,0,1,1,0,9A6.37,6.37,0,0,1,90.34,1164.24Zm-21.15-12.49a6.37,6.37,0,1,1-6.37,6.37A6.37,6.37,0,0,1,69.19,1151.75ZM39,1164.24a6.37,6.37,0,1,1,0,9A6.37,6.37,0,0,1,39,1164.24Zm-6.12,36.52a6.37,6.37,0,1,1,6.37-6.37A6.37,6.37,0,0,1,32.92,1200.76ZM48,1224.55a6.37,6.37,0,1,1,0-9A6.37,6.37,0,0,1,48,1224.55ZM69.19,1237a6.37,6.37,0,1,1,6.37-6.37A6.37,6.37,0,0,1,69.19,1237Zm0-18.46a24.18,24.18,0,1,1,24.18-24.18A24.21,24.21,0,0,1,69.19,1218.58Zm30.15,6a6.37,6.37,0,1,1,0-9A6.37,6.37,0,0,1,99.35,1224.55Zm6.12-23.78a6.37,6.37,0,1,1,6.37-6.37A6.37,6.37,0,0,1,105.47,1200.76Z"/></g><g id="_编组_5" data-name="&lt;编组&gt;"><circle id="_路径_4" data-name="&lt;路径&gt;" class="cls-2" cx="877.14" cy="1194.39" r="48.21"/><path id="_复合路径_5" data-name="&lt;复合路径&gt;" class="cls-3" d="M877.14,1146a48.37,48.37,0,1,0,48.37,48.37A48.42,48.42,0,0,0,877.14,1146Zm21.15,18.21a6.37,6.37,0,1,1,0,9A6.37,6.37,0,0,1,898.29,1164.24Zm-21.15-12.49a6.37,6.37,0,1,1-6.37,6.37A6.37,6.37,0,0,1,877.14,1151.75ZM847,1164.24a6.37,6.37,0,1,1,0,9A6.37,6.37,0,0,1,847,1164.24Zm-6.12,36.52a6.37,6.37,0,1,1,6.37-6.37A6.37,6.37,0,0,1,840.87,1200.76ZM856,1224.55a6.37,6.37,0,1,1,0-9A6.37,6.37,0,0,1,856,1224.55ZM877.14,1237a6.37,6.37,0,1,1,6.37-6.37A6.37,6.37,0,0,1,877.14,1237Zm0-18.46a24.18,24.18,0,1,1,24.18-24.18A24.21,24.21,0,0,1,877.14,1218.58Zm30.15,6a6.37,6.37,0,1,1,0-9A6.37,6.37,0,0,1,907.3,1224.55Zm6.12-23.78a6.37,6.37,0,1,1,6.37-6.37A6.37,6.37,0,0,1,913.42,1200.76Z"/></g></g><g id="_编组_6" data-name="&lt;编组&gt;"><rect id="_矩形_" data-name="&lt;矩形&gt;" class="cls-4" x="806.68" y="1042.45" width="17.32" height="43.57"/><rect id="_矩形_2" data-name="&lt;矩形&gt;" class="cls-5" x="806.98" y="1048.68" width="16.71" height="29.78"/><polygon id="_路径_5" data-name="&lt;路径&gt;" class="cls-6" points="807.04 1054.06 807.04 1073.25 823.63 1073.25 823.63 1054.06 820.23 1054.06 820.23 1054.76 809.85 1054.76 809.85 1054.06 807.04 1054.06"/></g><g id="_编组_7" data-name="&lt;编组&gt;"><rect id="_矩形_3" data-name="&lt;矩形&gt;" class="cls-4" x="841.26" y="1044.07" width="17.32" height="13.51"/><rect id="_矩形_4" data-name="&lt;矩形&gt;" class="cls-4" x="841.26" y="1070.98" width="17.32" height="13.51"/><g id="_编组_8" data-name="&lt;编组&gt;"><path id="_路径_6" data-name="&lt;路径&gt;" class="cls-7" d="M854.58,1048.73a4.66,4.66,0,1,1-9.32,0h-2.79v8.85h14.89v-8.85Z"/><path id="_路径_7" data-name="&lt;路径&gt;" class="cls-7" d="M845.26,1079.84a4.66,4.66,0,1,1,9.32,0h2.79V1071H842.47v8.85Z"/><rect id="_矩形_5" data-name="&lt;矩形&gt;" class="cls-7" x="843.3" y="1054.5" width="13.24" height="19.47"/></g></g><g id="_编组_9" data-name="&lt;编组&gt;"><g id="_编组_10" data-name="&lt;编组&gt;"><g id="_编组_11" data-name="&lt;编组&gt;"><rect id="_矩形_6" data-name="&lt;矩形&gt;" class="cls-8" x="412.18" y="1102.08" width="18.53" height="56.47"/><rect id="_矩形_7" data-name="&lt;矩形&gt;" class="cls-9" x="416.31" y="1107.1" width="10.26" height="52.94" rx="5.13" ry="5.13"/></g><rect id="_矩形_8" data-name="&lt;矩形&gt;" class="cls-10" x="416.31" y="1130.17" width="10.26" height="6.78"/></g><g id="_编组_12" data-name="&lt;编组&gt;"><g id="_编组_13" data-name="&lt;编组&gt;"><rect id="_矩形_9" data-name="&lt;矩形&gt;" class="cls-8" x="447.78" y="1102.08" width="18.53" height="56.47"/><rect id="_矩形_10" data-name="&lt;矩形&gt;" class="cls-9" x="451.92" y="1107.1" width="10.26" height="52.94" rx="5.13" ry="5.13"/></g><rect id="_矩形_11" data-name="&lt;矩形&gt;" class="cls-10" x="451.92" y="1130.17" width="10.26" height="6.78"/></g><g id="_编组_14" data-name="&lt;编组&gt;"><g id="_编组_15" data-name="&lt;编组&gt;"><rect id="_矩形_12" data-name="&lt;矩形&gt;" class="cls-8" x="483.39" y="1102.08" width="18.53" height="56.47"/><rect id="_矩形_13" data-name="&lt;矩形&gt;" class="cls-9" x="487.53" y="1107.1" width="10.26" height="52.94" rx="5.13" ry="5.13"/></g><rect id="_矩形_14" data-name="&lt;矩形&gt;" class="cls-10" x="487.53" y="1130.17" width="10.26" height="6.78"/></g><g id="_编组_16" data-name="&lt;编组&gt;"><g id="_编组_17" data-name="&lt;编组&gt;"><rect id="_矩形_15" data-name="&lt;矩形&gt;" class="cls-8" x="519" y="1102.08" width="18.53" height="56.47"/><rect id="_矩形_16" data-name="&lt;矩形&gt;" class="cls-9" x="523.13" y="1107.1" width="10.26" height="52.94" rx="5.13" ry="5.13"/></g><rect id="_矩形_17" data-name="&lt;矩形&gt;" class="cls-10" x="523.13" y="1130.17" width="10.26" height="6.78"/></g><rect id="_矩形_18" data-name="&lt;矩形&gt;" class="cls-11" x="364.31" y="1149.78" width="217.72" height="114.27"/><g id="_编组_18" data-name="&lt;编组&gt;"><rect id="_矩形_19" data-name="&lt;矩形&gt;" class="cls-12" x="414.63" y="1171.18" width="10.26" height="71.47"/><rect id="_矩形_20" data-name="&lt;矩形&gt;" class="cls-12" x="521.45" y="1172.83" width="10.26" height="71.47"/></g><rect id="_矩形_21" data-name="&lt;矩形&gt;" class="cls-13" x="364.31" y="1117.35" width="18.53" height="32.43"/><rect id="_矩形_22" data-name="&lt;矩形&gt;" class="cls-13" x="563.5" y="1117.35" width="18.53" height="32.43"/><rect id="_矩形_23" data-name="&lt;矩形&gt;" class="cls-13" x="410.96" y="1264.04" width="124.41" height="4.08" rx="2.04" ry="2.04"/></g><g id="_编组_19" data-name="&lt;编组&gt;"><path id="_复合路径_6" data-name="&lt;复合路径&gt;" class="cls-11" d="M449,1080.89c0-5,4-7.42,8.5-7.42s8.53,2.3,8.53,7.42c0,5-4.14,7.37-8.53,7.37S449,1085.87,449,1080.89Zm15.46,0c0-3.85-3.21-5.71-7-5.71s-7,2-7,5.71,3.26,5.67,7,5.67S464.48,1084.59,464.48,1080.89Z"/><path id="_复合路径_7" data-name="&lt;复合路径&gt;" class="cls-11" d="M449.42,1068.82h9.85c3.14,0,5.2-1.48,5.2-4.63,0-3-1.93-4.56-5.2-4.56h-9.85v-1.71h9.94c4.5,0,6.69,2.52,6.69,6.27s-2.21,6.33-6.69,6.33h-9.94Z"/><path id="_复合路径_8" data-name="&lt;复合路径&gt;" class="cls-11" d="M449.42,1043.94h1.53v5.16h14.68v1.71H450.94v5.14h-1.53Z"/></g><g id="_编组_20" data-name="&lt;编组&gt;"><path id="_复合路径_9" data-name="&lt;复合路径&gt;" class="cls-11" d="M485,1080.89c0-5,4-7.42,8.5-7.42s8.53,2.3,8.53,7.42c0,5-4.14,7.37-8.53,7.37S485,1085.87,485,1080.89Zm15.46,0c0-3.85-3.21-5.71-7-5.71s-7,2-7,5.71,3.26,5.67,7,5.67S500.46,1084.59,500.46,1080.89Z"/><path id="_复合路径_10" data-name="&lt;复合路径&gt;" class="cls-11" d="M485.4,1068.82h9.85c3.14,0,5.2-1.48,5.2-4.63,0-3-1.93-4.56-5.2-4.56H485.4v-1.71h9.94c4.5,0,6.69,2.52,6.69,6.27s-2.21,6.33-6.69,6.33H485.4Z"/><path id="_复合路径_11" data-name="&lt;复合路径&gt;" class="cls-11" d="M485.4,1043.94h1.53v5.16h14.68v1.71H486.93v5.14H485.4Z"/></g><g id="_编组_21" data-name="&lt;编组&gt;"><path id="_复合路径_12" data-name="&lt;复合路径&gt;" class="cls-11" d="M414.08,1086.5l14-5v0l-14-5v-1.88l16.21,5.91v1.95l-16.21,5.87Z"/><path id="_复合路径_13" data-name="&lt;复合路径&gt;" class="cls-11" d="M413.68,1066.16c0-3.68,2.06-5.69,4.23-6.42l.29,1.75a4.67,4.67,0,0,0-3,4.67c0,3.28,2.3,5.45,7,5.45,4.25,0,7-2.21,7-5.45a4.82,4.82,0,0,0-3.21-4.87l.27-1.68a6.42,6.42,0,0,1,4.52,6.55c0,4.69-3.79,7.15-8.55,7.15S413.68,1071.23,413.68,1066.16Z"/><path id="_复合路径_14" data-name="&lt;复合路径&gt;" class="cls-11" d="M413.68,1050.37c0-3.68,2.06-5.69,4.23-6.42l.29,1.75a4.67,4.67,0,0,0-3,4.67c0,3.28,2.3,5.45,7,5.45,4.25,0,7-2.21,7-5.45a4.82,4.82,0,0,0-3.21-4.87l.27-1.68a6.42,6.42,0,0,1,4.52,6.55c0,4.69-3.79,7.15-8.55,7.15S413.68,1055.44,413.68,1050.37Z"/></g><g id="_编组_22" data-name="&lt;编组&gt;"><path id="_复合路径_15" data-name="&lt;复合路径&gt;" class="cls-11" d="M520.61,1080.74c0-4.1,2.35-5.6,4.47-6.51l.29,1.79a4.77,4.77,0,0,0-3.23,4.72c0,3.34,2.86,5.71,7,5.71,4.25,0,7-2.46,7-5.49a5.57,5.57,0,0,0-4.19-5.31h-1.75v4.94h-1.55v-6.67h8.64v1.55h-3.32a6.14,6.14,0,0,1,3.74,5.69c0,3.61-3.08,7-8.55,7C524,1088.16,520.61,1085.12,520.61,1080.74Z"/><path id="_复合路径_16" data-name="&lt;复合路径&gt;" class="cls-11" d="M521,1068.4l13.46-9.48v0H521v-1.71h16.21V1059l-13.46,9.43,0,0h13.49v1.73H521Z"/><path id="_复合路径_17" data-name="&lt;复合路径&gt;" class="cls-11" d="M521,1047.48c0-5.29,4.19-7.17,8.08-7.17,4.65,0,8.13,2.3,8.13,7.48v5.58H521Zm14.68,4.16v-3.9c0-3.23-2.15-5.74-6.6-5.74-3.08,0-6.55,1.51-6.55,5.78v3.85Z"/></g><rect class="cls-14" x="177.17" y="64.3" width="592" height="908.19"/><rect class="cls-15" x="264.29" y="149.4" width="417.75" height="738"/><polygon class="cls-16" points="177.17 972.49 264.29 887.4 682.04 887.4 769.17 972.49 177.17 972.49"/><polygon class="cls-17" points="769.17 64.3 682.04 149.4 264.29 149.4 177.17 64.3 769.17 64.3"/><polygon class="cls-16" points="769.17 972.49 682.04 887.4 682.04 149.4 769.17 64.3 769.17 972.49"/><circle class="cls-1" cx="356.18" cy="181.28" r="23.94"/><circle class="cls-1" cx="298.18" cy="250.28" r="23.94"/><circle class="cls-1" cx="314.18" cy="339.28" r="23.94"/><circle class="cls-1" cx="322.12" cy="642.58" r="42"/><circle class="cls-1" cx="538.12" cy="518.4" r="81.28"/><circle class="cls-18" cx="473.17" cy="141.22" r="76.92"/><path class="cls-19" d="M477,64.35a74,74,0,1,1-7.62,0,76.92,76.92,0,1,0,7.62,0Z"/><path class="cls-20" d="M420.25,139.85a52.92,52.92,0,1,0,95.42-31.53h-85A52.67,52.67,0,0,0,420.25,139.85Z"/><path class="cls-20" d="M430.63,108.32h0a53.23,53.23,0,0,1,4.68-5.49h0a52.76,52.76,0,0,1,37.81-15.9h0a52.84,52.84,0,0,1,42.5,21.39h0a88.18,88.18,0,0,1-17-44H447.57a88.23,88.23,0,0,1-16.93,44Z"/><path class="cls-20" d="M473.17,86.93h0a52.76,52.76,0,0,0-37.81,15.9h0a53.23,53.23,0,0,0-4.68,5.49h85A52.84,52.84,0,0,0,473.17,86.93Z"/><circle class="cls-21" cx="473.17" cy="895.91" r="76.92"/><path class="cls-22" d="M469.36,972.78a74,74,0,1,1,7.62,0,76.92,76.92,0,1,0-7.62,0Z"/><path class="cls-20" d="M526.09,897.28a52.92,52.92,0,1,0-95.42,31.53h85A52.67,52.67,0,0,0,526.09,897.28Z"/><path class="cls-20" d="M515.7,928.81h0A53.23,53.23,0,0,1,511,934.3h0a52.76,52.76,0,0,1-37.81,15.9h0a52.84,52.84,0,0,1-42.5-21.39h0a88.18,88.18,0,0,1,17,44h51.13a88.23,88.23,0,0,1,16.93-44Z"/><path class="cls-20" d="M473.17,950.2h0A52.76,52.76,0,0,0,511,934.3h0a53.23,53.23,0,0,0,4.68-5.49h-85A52.84,52.84,0,0,0,473.17,950.2Z"/><rect class="cls-23" x="583.18" y="642.58" width="185.99" height="329.91"/><rect class="cls-24" x="578.05" y="637.45" width="5.13" height="249.9"/><rect class="cls-24" x="669.99" y="545.5" width="5.13" height="189.02" transform="translate(1312.57 -32.54) rotate(90)"/><g id="_编组_23" data-name="&lt;编组&gt;"><g id="_编组_24" data-name="&lt;编组&gt;"><g id="_编组_25" data-name="&lt;编组&gt;"><rect id="_矩形_24" data-name="&lt;矩形&gt;" class="cls-25" x="606.76" y="831.13" width="10.26" height="28.09" rx="3.74" ry="3.74" transform="translate(-233.29 1457.06) rotate(-90)"/></g></g><g id="_编组_26" data-name="&lt;编组&gt;"><g id="_编组_27" data-name="&lt;编组&gt;"><rect id="_矩形_25" data-name="&lt;矩形&gt;" class="cls-25" x="606.76" y="795.52" width="10.26" height="28.09" rx="3.74" ry="3.74" transform="translate(-197.68 1421.45) rotate(-90)"/></g></g><g id="_编组_28" data-name="&lt;编组&gt;"><g id="_编组_29" data-name="&lt;编组&gt;"><rect id="_矩形_26" data-name="&lt;矩形&gt;" class="cls-25" x="606.76" y="759.91" width="10.26" height="28.09" rx="3.74" ry="3.74" transform="matrix(0, -1, 1, 0, -162.07, 1385.84)"/></g></g><g id="_编组_30" data-name="&lt;编组&gt;"><g id="_编组_31" data-name="&lt;编组&gt;"><rect id="_矩形_27" data-name="&lt;矩形&gt;" class="cls-25" x="606.76" y="724.3" width="10.26" height="28.09" rx="3.74" ry="3.74" transform="translate(-126.47 1350.24) rotate(-90)"/></g></g><rect id="_矩形_28" data-name="&lt;矩形&gt;" class="cls-11" x="563.94" y="736.31" width="217.72" height="114.27" transform="translate(-120.64 1466.25) rotate(-90)"/><g id="_编组_32" data-name="&lt;编组&gt;"><rect id="_矩形_29" data-name="&lt;矩形&gt;" class="cls-25" x="667.68" y="811.12" width="10.26" height="71.47" transform="translate(-174.05 1519.66) rotate(-90)"/><rect id="_矩形_30" data-name="&lt;矩形&gt;" class="cls-25" x="669.33" y="704.3" width="10.26" height="71.47" transform="translate(-65.57 1414.49) rotate(-90)"/></g><rect id="_矩形_31" data-name="&lt;矩形&gt;" class="cls-13" x="590.19" y="876.82" width="18.53" height="32.43" transform="translate(-293.58 1492.5) rotate(-90)"/><rect id="_矩形_32" data-name="&lt;矩形&gt;" class="cls-13" x="590.19" y="677.63" width="18.53" height="32.43" transform="translate(-94.39 1293.31) rotate(-90)"/><rect id="_矩形_33" data-name="&lt;矩形&gt;" class="cls-13" x="669.77" y="791.4" width="124.41" height="4.08" rx="2.04" ry="2.04" transform="translate(-61.46 1525.42) rotate(-90)"/></g><rect class="cls-26" x="804.1" y="766.8" width="67" height="178.5"/><rect class="cls-27" x="825.94" y="791.86" width="6.69" height="6.69"/><rect class="cls-27" x="825.94" y="816.2" width="6.69" height="6.69"/><rect class="cls-27" x="825.94" y="840.54" width="6.69" height="6.69"/><rect class="cls-27" x="825.94" y="864.88" width="6.69" height="6.69"/><rect class="cls-27" x="825.94" y="889.22" width="6.69" height="6.69"/><rect class="cls-27" x="825.94" y="913.56" width="6.69" height="6.69"/><path class="cls-28" d="M114.32,394.66v5.63H91.82v-5.63H86.19V355.28H74.94V344h45v50.63ZM108.69,389V355.28H97.44V389Z"/><path class="cls-28" d="M114.32,456.53v5.63H74.94V450.91h33.75V439.66H74.94V428.41h33.75V417.16H74.94V405.91h45v50.63Z"/><path class="cls-28" d="M114.32,518.41V524H97.44v-5.63H91.82V479H86.19v45H74.94V467.78h22.5v5.63h5.63v39.38h5.63v-45h11.25v50.63Z"/><path class="cls-28" d="M86.19,540.91H74.94V529.66H86.19Z"/><path class="cls-28" d="M119.94,602.78H108.69v-45h-5.63v39.38H97.44v5.63H80.57v-5.63H74.94V546.53H86.19v45h5.63v-45h28.13Z"/><circle class="cls-29" cx="473.15" cy="141.22" r="34.37"/><circle class="cls-29" cx="473.15" cy="897.64" r="34.37"/><rect class="cls-30" x="458.08" y="136.97" width="30.16" height="8.5"/><rect class="cls-30" x="458.08" y="136.97" width="30.16" height="8.5" transform="translate(331.93 614.37) rotate(-90)"/><rect class="cls-30" x="458.08" y="893.39" width="30.16" height="8.5" transform="translate(-496.14 597.48) rotate(-45)"/><rect class="cls-30" x="458.08" y="893.39" width="30.16" height="8.5" transform="translate(173 1866.93) rotate(-135)"/></g></g></svg>