<svg xmlns="http://www.w3.org/2000/svg" xmlns:xlink="http://www.w3.org/1999/xlink" viewBox="0 0 442.89 928.09"><defs><style>.cls-1{fill:#353535;}.cls-2,.cls-27,.cls-29,.cls-3{fill:none;}.cls-11,.cls-18,.cls-26,.cls-27,.cls-3,.cls-5{stroke:#fff;}.cls-11,.cls-15,.cls-17,.cls-18,.cls-23,.cls-26,.cls-27,.cls-29,.cls-3,.cls-5{stroke-miterlimit:10;}.cls-3{stroke-width:3.31px;}.cls-4{fill:#f2cb6b;}.cls-5{fill:#d0ab3c;stroke-width:1.99px;}.cls-6{fill:#f0c581;}.cls-7{fill:#fff;}.cls-8{fill:#f4cb70;}.cls-9{fill:#c6c5c5;}.cls-10{fill:#c8a266;}.cls-11{fill:#9b9b9b;}.cls-11,.cls-15,.cls-17,.cls-18,.cls-23{stroke-width:0.66px;}.cls-12{fill:#d2d3d3;}.cls-13{fill:#030000;}.cls-14{fill:#bb8c27;}.cls-15{fill:#ff4a5c;stroke:#681216;}.cls-16{fill:#e7e887;}.cls-17{fill:#58b1f9;stroke:#122c4f;}.cls-18,.cls-26{fill:#e1b737;}.cls-19{fill:#222;}.cls-20{fill:#d1d1d1;}.cls-21{fill:#a7a7a7;}.cls-22{fill:#efefef;}.cls-23{fill:#f99f46;stroke:#ef973f;}.cls-24{fill:#aaa;}.cls-25{fill:#dbdbdb;}.cls-26{stroke-width:0.41px;}.cls-27{stroke-width:1.24px;}.cls-28{fill:url(#未命名的渐变_44);}.cls-29{stroke:#dbdbdb;stroke-linecap:round;stroke-width:13px;}</style><radialGradient id="未命名的渐变_44" cx="216.85" cy="150.08" r="17.73" gradientUnits="userSpaceOnUse"><stop offset="0" stop-color="#fff"/><stop offset="0.06" stop-color="#e9e9e9"/><stop offset="0.16" stop-color="#cacaca"/><stop offset="0.26" stop-color="#b1b1b1"/><stop offset="0.38" stop-color="#9d9d9d"/><stop offset="0.52" stop-color="#8f8f8f"/><stop offset="0.69" stop-color="#878787"/><stop offset="1" stop-color="#858585"/></radialGradient></defs><title>心率传感模块</title><g id="图层_2" data-name="图层 2"><g id="图层_1-2" data-name="图层 1"><path id="_复合路径_" data-name="&lt;复合路径&gt;" class="cls-1" d="M385,0h-327A57.92,57.92,0,0,0,0,57.92V870.17a57.92,57.92,0,0,0,57.92,57.92H385a57.92,57.92,0,0,0,57.92-57.92V57.92A57.92,57.92,0,0,0,385,0Zm13.12,549.87a6.37,6.37,0,1,1,0,9A6.37,6.37,0,0,1,398.09,549.87Zm-21.15-12.49a6.37,6.37,0,1,1-6.37,6.37A6.37,6.37,0,0,1,376.94,537.38Zm-30.15,12.49a6.37,6.37,0,1,1,0,9A6.37,6.37,0,0,1,346.79,549.87Zm-259.7,0a6.37,6.37,0,1,1,0,9A6.37,6.37,0,0,1,87.09,549.87ZM65.94,537.38a6.37,6.37,0,1,1-6.37,6.37A6.37,6.37,0,0,1,65.94,537.38ZM35.79,549.87a6.37,6.37,0,1,1,0,9A6.37,6.37,0,0,1,35.79,549.87ZM23.3,580a6.37,6.37,0,1,1,6.37,6.37A6.37,6.37,0,0,1,23.3,580Zm21.5,30.15a6.37,6.37,0,1,1,0-9A6.37,6.37,0,0,1,44.8,610.17Zm21.15,12.49a6.37,6.37,0,1,1,6.37-6.37A6.37,6.37,0,0,1,65.94,622.66Zm0-17A25.65,25.65,0,1,1,91.59,580,25.65,25.65,0,0,1,65.94,605.67Zm30.15,4.5a6.37,6.37,0,1,1,0-9A6.37,6.37,0,0,1,96.1,610.17Zm6.12-23.78a6.37,6.37,0,1,1,6.37-6.37A6.37,6.37,0,0,1,102.22,586.39ZM334.3,580a6.37,6.37,0,1,1,6.37,6.37A6.37,6.37,0,0,1,334.3,580Zm21.5,30.15a6.37,6.37,0,1,1,0-9A6.37,6.37,0,0,1,355.8,610.17Zm21.15,12.49a6.37,6.37,0,1,1,6.37-6.37A6.37,6.37,0,0,1,376.94,622.66Zm0-17A25.65,25.65,0,1,1,402.59,580,25.65,25.65,0,0,1,376.94,605.67Zm30.15,4.5a6.37,6.37,0,1,1,0-9A6.37,6.37,0,0,1,407.1,610.17Zm6.12-23.78a6.37,6.37,0,1,1,6.37-6.37A6.37,6.37,0,0,1,413.22,586.39Z"/><circle id="_路径_" data-name="&lt;路径&gt;" class="cls-2" cx="65.94" cy="580.02" r="24.19"/><circle id="_路径_2" data-name="&lt;路径&gt;" class="cls-3" cx="65.94" cy="580.02" r="48.21"/><circle id="_路径_3" data-name="&lt;路径&gt;" class="cls-3" cx="376.94" cy="580.02" r="48.21"/><path id="_复合路径_2" data-name="&lt;复合路径&gt;" class="cls-4" d="M376.94,531.66A48.37,48.37,0,1,0,425.31,580,48.42,48.42,0,0,0,376.94,531.66Zm21.15,18.21a6.37,6.37,0,1,1,0,9A6.37,6.37,0,0,1,398.09,549.87Zm-21.15-12.49a6.37,6.37,0,1,1-6.37,6.37A6.37,6.37,0,0,1,376.94,537.38Zm-30.15,12.49a6.37,6.37,0,1,1,0,9A6.37,6.37,0,0,1,346.79,549.87Zm-6.12,36.52A6.37,6.37,0,1,1,347,580,6.37,6.37,0,0,1,340.67,586.39Zm15.13,23.78a6.37,6.37,0,1,1,0-9A6.37,6.37,0,0,1,355.8,610.17Zm21.15,12.49a6.37,6.37,0,1,1,6.37-6.37A6.37,6.37,0,0,1,376.94,622.66Zm0-18.46A24.18,24.18,0,1,1,401.13,580,24.21,24.21,0,0,1,376.94,604.2Zm30.15,6a6.37,6.37,0,1,1,0-9A6.37,6.37,0,0,1,407.1,610.17Zm6.12-23.78a6.37,6.37,0,1,1,6.37-6.37A6.37,6.37,0,0,1,413.22,586.39Z"/><path id="_复合路径_3" data-name="&lt;复合路径&gt;" class="cls-4" d="M65.94,531.66A48.37,48.37,0,1,0,114.31,580,48.42,48.42,0,0,0,65.94,531.66Zm21.15,18.21a6.37,6.37,0,1,1,0,9A6.37,6.37,0,0,1,87.09,549.87ZM65.94,537.38a6.37,6.37,0,1,1-6.37,6.37A6.37,6.37,0,0,1,65.94,537.38ZM35.79,549.87a6.37,6.37,0,1,1,0,9A6.37,6.37,0,0,1,35.79,549.87Zm-6.12,36.52A6.37,6.37,0,1,1,36,580,6.37,6.37,0,0,1,29.67,586.39ZM44.8,610.17a6.37,6.37,0,1,1,0-9A6.37,6.37,0,0,1,44.8,610.17Zm21.15,12.49a6.37,6.37,0,1,1,6.37-6.37A6.37,6.37,0,0,1,65.94,622.66Zm0-18.46A24.18,24.18,0,1,1,90.13,580,24.21,24.21,0,0,1,65.94,604.2Zm30.15,6a6.37,6.37,0,1,1,0-9A6.37,6.37,0,0,1,96.1,610.17Zm6.12-23.78a6.37,6.37,0,1,1,6.37-6.37A6.37,6.37,0,0,1,102.22,586.39Z"/><g id="_编组_" data-name="&lt;编组&gt;"><g id="_编组_2" data-name="&lt;编组&gt;"><rect id="_矩形_" data-name="&lt;矩形&gt;" class="cls-5" x="172.7" y="762.05" width="18.53" height="56.47"/><rect id="_矩形_2" data-name="&lt;矩形&gt;" class="cls-6" x="176.83" y="767.06" width="10.26" height="52.94" rx="5.13" ry="5.13"/></g><g id="_编组_3" data-name="&lt;编组&gt;"><rect id="_矩形_3" data-name="&lt;矩形&gt;" class="cls-5" x="212.18" y="762.05" width="18.53" height="56.47"/><rect id="_矩形_4" data-name="&lt;矩形&gt;" class="cls-6" x="216.32" y="767.06" width="10.26" height="52.94" rx="5.13" ry="5.13"/></g><g id="_编组_4" data-name="&lt;编组&gt;"><rect id="_矩形_5" data-name="&lt;矩形&gt;" class="cls-5" x="251.67" y="762.05" width="18.53" height="56.47"/><rect id="_矩形_6" data-name="&lt;矩形&gt;" class="cls-6" x="255.8" y="767.06" width="10.26" height="52.94" rx="5.13" ry="5.13"/></g><rect id="_矩形_7" data-name="&lt;矩形&gt;" class="cls-7" x="124.83" y="809.75" width="193.24" height="114.27"/><rect id="_矩形_8" data-name="&lt;矩形&gt;" class="cls-8" x="176.83" y="831.15" width="10.26" height="71.47"/><rect id="_矩形_9" data-name="&lt;矩形&gt;" class="cls-8" x="255.8" y="831.15" width="10.26" height="71.47"/><rect id="_矩形_10" data-name="&lt;矩形&gt;" class="cls-9" x="124.83" y="777.32" width="18.53" height="32.43"/><rect id="_矩形_11" data-name="&lt;矩形&gt;" class="cls-9" x="299.53" y="777.32" width="18.53" height="32.43"/><rect id="_矩形_12" data-name="&lt;矩形&gt;" class="cls-9" x="159.24" y="924.01" width="124.41" height="4.08" rx="2.04" ry="2.04"/><rect id="_矩形_13" data-name="&lt;矩形&gt;" class="cls-10" x="176.83" y="790.14" width="10.26" height="6.78"/><rect id="_矩形_14" data-name="&lt;矩形&gt;" class="cls-10" x="216.32" y="790.14" width="10.26" height="6.78"/><rect id="_矩形_15" data-name="&lt;矩形&gt;" class="cls-10" x="255.8" y="790.14" width="10.26" height="6.78"/></g><g id="_编组_5" data-name="&lt;编组&gt;"><path id="_复合路径_4" data-name="&lt;复合路径&gt;" class="cls-7" d="M173.64,739.68c0-5,4-7.42,8.5-7.42s8.53,2.3,8.53,7.42c0,5-4.14,7.37-8.53,7.37S173.64,744.67,173.64,739.68Zm15.46,0c0-3.85-3.21-5.71-7-5.71s-7,2-7,5.71,3.26,5.67,7,5.67S189.09,743.38,189.09,739.68Z"/><path id="_复合路径_5" data-name="&lt;复合路径&gt;" class="cls-7" d="M174,727.62h9.85c3.14,0,5.2-1.48,5.2-4.63,0-3-1.93-4.56-5.2-4.56H174v-1.71H184c4.5,0,6.69,2.52,6.69,6.27s-2.21,6.33-6.69,6.33H174Z"/><path id="_复合路径_6" data-name="&lt;复合路径&gt;" class="cls-7" d="M174,702.73h1.53v5.16h14.68v1.71H175.56v5.14H174Z"/></g><g id="_编组_6" data-name="&lt;编组&gt;"><path id="_复合路径_7" data-name="&lt;复合路径&gt;" class="cls-7" d="M213.33,745.32l14-5v0l-14-5v-1.88l16.21,5.91v1.95l-16.21,5.87Z"/><path id="_复合路径_8" data-name="&lt;复合路径&gt;" class="cls-7" d="M212.93,725c0-3.68,2.06-5.69,4.23-6.42l.29,1.75a4.67,4.67,0,0,0-3,4.67c0,3.28,2.3,5.45,7,5.45,4.25,0,7-2.21,7-5.45a4.82,4.82,0,0,0-3.21-4.87l.27-1.68A6.42,6.42,0,0,1,230,725c0,4.69-3.79,7.15-8.55,7.15S212.93,730,212.93,725Z"/><path id="_复合路径_9" data-name="&lt;复合路径&gt;" class="cls-7" d="M212.93,709.18c0-3.68,2.06-5.69,4.23-6.42l.29,1.75a4.67,4.67,0,0,0-3,4.67c0,3.28,2.3,5.45,7,5.45,4.25,0,7-2.21,7-5.45a4.82,4.82,0,0,0-3.21-4.87l.27-1.68a6.42,6.42,0,0,1,4.52,6.55c0,4.69-3.79,7.15-8.55,7.15S212.93,714.25,212.93,709.18Z"/></g><g id="_编组_7" data-name="&lt;编组&gt;"><path id="_复合路径_10" data-name="&lt;复合路径&gt;" class="cls-7" d="M252.42,741.4c0-4.1,2.35-5.6,4.47-6.51l.29,1.79a4.77,4.77,0,0,0-3.23,4.72c0,3.34,2.86,5.71,7,5.71,4.25,0,7-2.46,7-5.49a5.57,5.57,0,0,0-4.19-5.31h-1.75v4.94h-1.55v-6.67H269v1.55H265.7a6.14,6.14,0,0,1,3.74,5.69c0,3.61-3.08,7-8.55,7C255.83,748.82,252.42,745.78,252.42,741.4Z"/><path id="_复合路径_11" data-name="&lt;复合路径&gt;" class="cls-7" d="M252.82,729.07l13.46-9.48v0H252.82v-1.71H269v1.79l-13.46,9.43,0,0H269v1.73H252.82Z"/><path id="_复合路径_12" data-name="&lt;复合路径&gt;" class="cls-7" d="M252.82,708.14c0-5.29,4.19-7.17,8.08-7.17,4.65,0,8.13,2.3,8.13,7.48V714H252.82Zm14.68,4.16v-3.9c0-3.23-2.15-5.74-6.6-5.74-3.08,0-6.55,1.51-6.55,5.78v3.85Z"/></g><g id="_编组_8" data-name="&lt;编组&gt;"><rect id="_矩形_16" data-name="&lt;矩形&gt;" class="cls-11" x="161.83" y="577.61" width="17.32" height="43.57"/><rect id="_矩形_17" data-name="&lt;矩形&gt;" class="cls-12" x="162.13" y="583.84" width="16.71" height="29.78"/><polygon id="_路径_4" data-name="&lt;路径&gt;" class="cls-13" points="162.2 589.22 162.2 608.41 178.78 608.41 178.78 589.22 175.39 589.22 175.39 589.92 165.01 589.92 165.01 589.22 162.2 589.22"/></g><g id="_编组_9" data-name="&lt;编组&gt;"><rect id="_矩形_18" data-name="&lt;矩形&gt;" class="cls-11" x="195.8" y="577.61" width="17.32" height="43.57"/><rect id="_矩形_19" data-name="&lt;矩形&gt;" class="cls-12" x="196.11" y="583.84" width="16.71" height="29.78"/><polygon id="_路径_5" data-name="&lt;路径&gt;" class="cls-13" points="196.17 589.22 196.17 608.41 212.75 608.41 212.75 589.22 209.36 589.22 209.36 589.92 198.98 589.92 198.98 589.22 196.17 589.22"/></g><g id="_编组_10" data-name="&lt;编组&gt;"><rect id="_矩形_20" data-name="&lt;矩形&gt;" class="cls-11" x="229.77" y="577.61" width="17.32" height="43.57"/><rect id="_矩形_21" data-name="&lt;矩形&gt;" class="cls-12" x="230.08" y="583.84" width="16.71" height="29.78"/><polygon id="_路径_6" data-name="&lt;路径&gt;" class="cls-13" points="230.14 589.22 230.14 608.41 246.72 608.41 246.72 589.22 243.33 589.22 243.33 589.92 232.95 589.92 232.95 589.22 230.14 589.22"/></g><g id="_编组_11" data-name="&lt;编组&gt;"><rect id="_矩形_22" data-name="&lt;矩形&gt;" class="cls-11" x="263.74" y="577.61" width="17.32" height="43.57"/><rect id="_矩形_23" data-name="&lt;矩形&gt;" class="cls-12" x="264.05" y="583.84" width="16.71" height="29.78"/><polygon id="_路径_7" data-name="&lt;路径&gt;" class="cls-13" points="264.11 589.22 264.11 608.41 280.69 608.41 280.69 589.22 277.3 589.22 277.3 589.92 266.92 589.92 266.92 589.22 264.11 589.22"/></g><g id="_编组_12" data-name="&lt;编组&gt;"><rect id="_矩形_24" data-name="&lt;矩形&gt;" class="cls-11" x="36.91" y="684.07" width="17.32" height="43.57"/><rect id="_矩形_25" data-name="&lt;矩形&gt;" class="cls-12" x="37.21" y="690.3" width="16.71" height="29.78"/><polygon id="_路径_8" data-name="&lt;路径&gt;" class="cls-13" points="37.27 695.68 37.27 714.87 53.86 714.87 53.86 695.68 50.47 695.68 50.47 696.38 40.09 696.38 40.09 695.68 37.27 695.68"/></g><g id="_编组_13" data-name="&lt;编组&gt;"><rect id="_矩形_26" data-name="&lt;矩形&gt;" class="cls-11" x="64.92" y="684.07" width="17.32" height="43.57"/><rect id="_矩形_27" data-name="&lt;矩形&gt;" class="cls-12" x="65.23" y="690.3" width="16.71" height="29.78"/><polygon id="_路径_9" data-name="&lt;路径&gt;" class="cls-13" points="65.29 695.68 65.29 714.87 81.88 714.87 81.88 695.68 78.48 695.68 78.48 696.38 68.1 696.38 68.1 695.68 65.29 695.68"/></g><g id="_编组_14" data-name="&lt;编组&gt;"><rect id="_矩形_28" data-name="&lt;矩形&gt;" class="cls-11" x="36.91" y="737.4" width="17.32" height="13.51"/><rect id="_矩形_29" data-name="&lt;矩形&gt;" class="cls-11" x="36.91" y="764.31" width="17.32" height="13.51"/><g id="_编组_15" data-name="&lt;编组&gt;"><path id="_路径_10" data-name="&lt;路径&gt;" class="cls-14" d="M50.23,742.06a4.66,4.66,0,1,1-9.32,0H38.12v8.85H53v-8.85Z"/><path id="_路径_11" data-name="&lt;路径&gt;" class="cls-14" d="M40.91,773.16a4.66,4.66,0,1,1,9.32,0H53v-8.85H38.12v8.85Z"/><rect id="_矩形_30" data-name="&lt;矩形&gt;" class="cls-15" x="38.95" y="747.82" width="13.24" height="19.47"/></g></g><g id="_编组_16" data-name="&lt;编组&gt;"><rect id="_矩形_31" data-name="&lt;矩形&gt;" class="cls-11" x="64.92" y="737.4" width="17.32" height="13.51"/><rect id="_矩形_32" data-name="&lt;矩形&gt;" class="cls-11" x="64.92" y="764.31" width="17.32" height="13.51"/><path id="_路径_12" data-name="&lt;路径&gt;" class="cls-16" d="M78.24,742.06a4.66,4.66,0,1,1-9.32,0H66.14v8.85H81v-8.85Z"/><path id="_路径_13" data-name="&lt;路径&gt;" class="cls-16" d="M68.92,773.16a4.66,4.66,0,1,1,9.32,0H81v-8.85H66.14v8.85Z"/><rect id="_矩形_33" data-name="&lt;矩形&gt;" class="cls-17" x="66.97" y="747.82" width="13.24" height="19.47"/></g><g id="_编组_17" data-name="&lt;编组&gt;"><rect id="_矩形_34" data-name="&lt;矩形&gt;" class="cls-18" x="183.5" y="411.37" width="12.24" height="135.99" rx="6.12" ry="6.12"/><rect id="_矩形_35" data-name="&lt;矩形&gt;" class="cls-18" x="205.34" y="411.37" width="12.24" height="135.99" rx="6.12" ry="6.12"/><rect id="_矩形_36" data-name="&lt;矩形&gt;" class="cls-18" x="227.18" y="411.37" width="12.24" height="135.99" rx="6.12" ry="6.12"/><rect id="_矩形_37" data-name="&lt;矩形&gt;" class="cls-18" x="249.02" y="411.37" width="12.24" height="135.99" rx="6.12" ry="6.12"/><rect id="_矩形_38" data-name="&lt;矩形&gt;" class="cls-19" x="175.78" y="441.37" width="91.32" height="72.35"/><g id="_编组_18" data-name="&lt;编组&gt;"><rect id="_矩形_39" data-name="&lt;矩形&gt;" class="cls-20" x="185.66" y="421.96" width="7.94" height="19.41"/><rect id="_矩形_40" data-name="&lt;矩形&gt;" class="cls-21" x="185.66" y="428.83" width="7.94" height="7.53"/></g><g id="_编组_19" data-name="&lt;编组&gt;"><rect id="_矩形_41" data-name="&lt;矩形&gt;" class="cls-20" x="207.49" y="421.96" width="7.94" height="19.41"/><rect id="_矩形_42" data-name="&lt;矩形&gt;" class="cls-21" x="207.49" y="428.83" width="7.94" height="7.53"/></g><g id="_编组_20" data-name="&lt;编组&gt;"><rect id="_矩形_43" data-name="&lt;矩形&gt;" class="cls-20" x="229.33" y="421.96" width="7.94" height="19.41"/><rect id="_矩形_44" data-name="&lt;矩形&gt;" class="cls-21" x="229.33" y="428.83" width="7.94" height="7.53"/></g><g id="_编组_21" data-name="&lt;编组&gt;"><rect id="_矩形_45" data-name="&lt;矩形&gt;" class="cls-20" x="251.17" y="421.96" width="7.94" height="19.41"/><rect id="_矩形_46" data-name="&lt;矩形&gt;" class="cls-21" x="251.17" y="428.83" width="7.94" height="7.53"/></g><g id="_编组_22" data-name="&lt;编组&gt;"><rect id="_矩形_47" data-name="&lt;矩形&gt;" class="cls-20" x="251.17" y="513.73" width="7.94" height="19.41" transform="translate(510.28 1046.86) rotate(-180)"/><rect id="_矩形_48" data-name="&lt;矩形&gt;" class="cls-21" x="251.17" y="518.74" width="7.94" height="7.53" transform="translate(510.28 1045.02) rotate(-180)"/></g><g id="_编组_23" data-name="&lt;编组&gt;"><rect id="_矩形_49" data-name="&lt;矩形&gt;" class="cls-20" x="229.33" y="513.73" width="7.94" height="19.41" transform="translate(466.6 1046.86) rotate(-180)"/><rect id="_矩形_50" data-name="&lt;矩形&gt;" class="cls-21" x="229.33" y="518.74" width="7.94" height="7.53" transform="translate(466.6 1045.02) rotate(-180)"/></g><g id="_编组_24" data-name="&lt;编组&gt;"><rect id="_矩形_51" data-name="&lt;矩形&gt;" class="cls-20" x="207.49" y="513.73" width="7.94" height="19.41" transform="translate(422.93 1046.86) rotate(-180)"/><rect id="_矩形_52" data-name="&lt;矩形&gt;" class="cls-21" x="207.49" y="518.74" width="7.94" height="7.53" transform="translate(422.93 1045.02) rotate(-180)"/></g><g id="_编组_25" data-name="&lt;编组&gt;"><rect id="_矩形_53" data-name="&lt;矩形&gt;" class="cls-20" x="185.66" y="513.73" width="7.94" height="19.41" transform="translate(379.25 1046.86) rotate(-180)"/><rect id="_矩形_54" data-name="&lt;矩形&gt;" class="cls-21" x="185.66" y="518.74" width="7.94" height="7.53" transform="translate(379.25 1045.02) rotate(-180)"/></g><rect id="_矩形_55" data-name="&lt;矩形&gt;" class="cls-22" x="174.24" y="456.48" width="1.54" height="42.13" rx="0.77" ry="0.77"/><rect id="_矩形_56" data-name="&lt;矩形&gt;" class="cls-22" x="267.11" y="456.48" width="1.54" height="42.13" rx="0.77" ry="0.77"/></g><g id="_编组_26" data-name="&lt;编组&gt;"><rect id="_矩形_57" data-name="&lt;矩形&gt;" class="cls-11" x="122.2" y="324.82" width="17.32" height="43.57"/><rect id="_矩形_58" data-name="&lt;矩形&gt;" class="cls-12" x="122.5" y="331.05" width="16.71" height="29.78"/><polygon id="_路径_14" data-name="&lt;路径&gt;" class="cls-13" points="122.56 336.43 122.56 355.62 139.15 355.62 139.15 336.43 135.76 336.43 135.76 337.13 125.38 337.13 125.38 336.43 122.56 336.43"/></g><g id="_编组_27" data-name="&lt;编组&gt;"><rect id="_矩形_59" data-name="&lt;矩形&gt;" class="cls-11" x="158.43" y="324.82" width="17.32" height="43.57"/><rect id="_矩形_60" data-name="&lt;矩形&gt;" class="cls-12" x="158.74" y="331.05" width="16.71" height="29.78"/><polygon id="_路径_15" data-name="&lt;路径&gt;" class="cls-13" points="158.8 336.43 158.8 355.62 175.38 355.62 175.38 336.43 171.99 336.43 171.99 337.13 161.61 337.13 161.61 336.43 158.8 336.43"/></g><g id="_编组_28" data-name="&lt;编组&gt;"><rect id="_矩形_61" data-name="&lt;矩形&gt;" class="cls-11" x="194.67" y="326.44" width="17.32" height="13.51"/><rect id="_矩形_62" data-name="&lt;矩形&gt;" class="cls-11" x="194.67" y="353.35" width="17.32" height="13.51"/><g id="_编组_29" data-name="&lt;编组&gt;"><rect id="_矩形_63" data-name="&lt;矩形&gt;" class="cls-23" x="196.71" y="336.87" width="13.24" height="19.47"/></g><rect id="_矩形_64" data-name="&lt;矩形&gt;" class="cls-24" x="200.93" y="349.82" width="4.74" height="14.67" transform="translate(-153.86 560.46) rotate(-90)"/><rect id="_矩形_65" data-name="&lt;矩形&gt;" class="cls-24" x="200.93" y="328.76" width="4.74" height="14.67" transform="translate(-132.79 539.39) rotate(-90)"/></g><g id="_编组_30" data-name="&lt;编组&gt;"><rect id="_矩形_66" data-name="&lt;矩形&gt;" class="cls-11" x="230.91" y="326.44" width="17.32" height="13.51"/><rect id="_矩形_67" data-name="&lt;矩形&gt;" class="cls-11" x="230.91" y="353.35" width="17.32" height="13.51"/><g id="_编组_31" data-name="&lt;编组&gt;"><rect id="_矩形_68" data-name="&lt;矩形&gt;" class="cls-23" x="232.95" y="336.87" width="13.24" height="19.47"/></g><rect id="_矩形_69" data-name="&lt;矩形&gt;" class="cls-24" x="237.16" y="349.82" width="4.74" height="14.67" transform="translate(-117.62 596.69) rotate(-90)"/><rect id="_矩形_70" data-name="&lt;矩形&gt;" class="cls-24" x="237.16" y="328.76" width="4.74" height="14.67" transform="translate(-96.55 575.63) rotate(-90)"/></g><g id="_编组_32" data-name="&lt;编组&gt;"><rect id="_矩形_71" data-name="&lt;矩形&gt;" class="cls-11" x="267.14" y="326.44" width="17.32" height="13.51"/><rect id="_矩形_72" data-name="&lt;矩形&gt;" class="cls-11" x="267.14" y="353.35" width="17.32" height="13.51"/><g id="_编组_33" data-name="&lt;编组&gt;"><rect id="_矩形_73" data-name="&lt;矩形&gt;" class="cls-23" x="269.18" y="336.87" width="13.24" height="19.47"/></g><rect id="_矩形_74" data-name="&lt;矩形&gt;" class="cls-24" x="273.4" y="349.82" width="4.74" height="14.67" transform="translate(-81.39 632.93) rotate(-90)"/><rect id="_矩形_75" data-name="&lt;矩形&gt;" class="cls-24" x="273.4" y="328.76" width="4.74" height="14.67" transform="translate(-60.32 611.86) rotate(-90)"/></g><g id="_编组_34" data-name="&lt;编组&gt;"><rect id="_矩形_76" data-name="&lt;矩形&gt;" class="cls-11" x="303.38" y="326.44" width="17.32" height="13.51"/><rect id="_矩形_77" data-name="&lt;矩形&gt;" class="cls-11" x="303.38" y="353.35" width="17.32" height="13.51"/><g id="_编组_35" data-name="&lt;编组&gt;"><rect id="_矩形_78" data-name="&lt;矩形&gt;" class="cls-23" x="305.42" y="336.87" width="13.24" height="19.47"/></g><rect id="_矩形_79" data-name="&lt;矩形&gt;" class="cls-24" x="309.64" y="349.82" width="4.74" height="14.67" transform="translate(-45.15 669.16) rotate(-90)"/><rect id="_矩形_80" data-name="&lt;矩形&gt;" class="cls-24" x="309.64" y="328.76" width="4.74" height="14.67" transform="translate(-24.08 648.1) rotate(-90)"/></g><g id="_编组_36" data-name="&lt;编组&gt;"><path id="_复合路径_13" data-name="&lt;复合路径&gt;" class="cls-7" d="M381.25,889.19a7.75,7.75,0,0,1-3.47-.84l-.17-.08a95.45,95.45,0,0,1-20.35-13.21,60.33,60.33,0,0,1-12.49-14.42,38.71,38.71,0,0,1-5.83-20.1,26.8,26.8,0,0,1,26.6-26.93,26.4,26.4,0,0,1,15.71,5.2,26.43,26.43,0,0,1,15.71-5.2,26.79,26.79,0,0,1,26.6,26.92,38.72,38.72,0,0,1-5.83,20.1,60.33,60.33,0,0,1-12.49,14.42,95,95,0,0,1-20.32,13.2l-.24.12A7.71,7.71,0,0,1,381.25,889.19ZM365.54,817.8a22.6,22.6,0,0,0-22.41,22.74,34.58,34.58,0,0,0,5.23,17.94A56.19,56.19,0,0,0,360,871.89a91.09,91.09,0,0,0,19.4,12.6l.26.13a3.52,3.52,0,0,0,3.17,0l.23-.11a90.85,90.85,0,0,0,19.44-12.62,56.19,56.19,0,0,0,11.63-13.41,34.6,34.6,0,0,0,5.23-17.95A22.6,22.6,0,0,0,397,817.8a22.25,22.25,0,0,0-14.35,5.28l-1.35,1.15-1.35-1.15A22.22,22.22,0,0,0,365.54,817.8Z"/></g><path id="_路径_16" data-name="&lt;路径&gt;" class="cls-7" d="M369.83,867.82a2.09,2.09,0,0,1-1.73-.92l-9.16-13.53H342.8a2.09,2.09,0,0,1,0-4.19H360a2.09,2.09,0,0,1,1.73.92l7.53,11.11,11.15-29.32a2.09,2.09,0,0,1,3.87-.12l7.83,17.41h27.54a2.09,2.09,0,0,1,0,4.19H390.8a2.09,2.09,0,0,1-1.91-1.23l-6.32-14-10.79,28.37a2.09,2.09,0,0,1-1.72,1.34Z"/><g id="_编组_37" data-name="&lt;编组&gt;"><path id="_复合路径_14" data-name="&lt;复合路径&gt;" class="cls-25" d="M221.45,307.08A23.37,23.37,0,0,1,211,304.56l-.5-.24a287.7,287.7,0,0,1-61.33-39.83C133.27,250.8,120.6,236.18,111.5,221c-11.66-19.42-17.57-39.8-17.57-60.57,0-44.76,36-81.18,80.17-81.18A79.57,79.57,0,0,1,221.45,95a79.65,79.65,0,0,1,47.34-15.68c44.2,0,80.17,36.41,80.17,81.16,0,20.79-5.91,41.18-17.56,60.6-9.1,15.16-21.77,29.78-37.65,43.47a286.42,286.42,0,0,1-61.25,39.79l-.72.35A23.25,23.25,0,0,1,221.45,307.08ZM174.1,91.89c-37.24,0-67.54,30.75-67.54,68.55,0,18.46,5.3,36.65,15.77,54.07,8.41,14,20.21,27.6,35.07,40.4a274.58,274.58,0,0,0,58.49,38l.79.38a10.6,10.6,0,0,0,9.54,0l.7-.34a273.84,273.84,0,0,0,58.59-38c14.86-12.81,26.66-26.4,35.07-40.41,10.46-17.42,15.76-35.63,15.76-54.1,0-37.79-30.3-68.53-67.54-68.53a67.07,67.07,0,0,0-43.26,15.93l-4.08,3.45-4.08-3.46A67,67,0,0,0,174.1,91.89Z"/></g><rect class="cls-26" x="204.52" y="191.68" width="7.43" height="10.52"/><rect class="cls-26" x="204.52" y="217.83" width="7.43" height="10.52"/><rect class="cls-26" x="217.73" y="191.68" width="7.43" height="10.52"/><rect class="cls-26" x="217.73" y="217.83" width="7.43" height="10.52"/><rect class="cls-26" x="230.3" y="191.68" width="7.43" height="10.52"/><rect class="cls-26" x="230.3" y="217.83" width="7.43" height="10.52"/><rect x="208.88" y="197.95" width="25.14" height="25.14"/><path class="cls-27" d="M242.8,233.76H205.36l-5.26-5.26V187.35h42.7Z"/><circle class="cls-7" cx="221.45" cy="155.38" r="20.67"/><circle class="cls-28" cx="221.45" cy="155.38" r="15.13"/><polyline class="cls-29" points="106.93 195.27 170.6 195.27 187.93 170.52"/><polyline class="cls-29" points="334.26 195.27 276.93 195.27 259.93 217.83"/></g></g></svg>