<svg xmlns="http://www.w3.org/2000/svg" viewBox="0 0 442.89 928.09"><defs><style>.cls-1,.cls-26{fill:#353535;}.cls-15,.cls-2,.cls-20,.cls-3{fill:none;}.cls-11,.cls-15,.cls-20,.cls-3,.cls-5{stroke:#fff;}.cls-11,.cls-14,.cls-15,.cls-19,.cls-3,.cls-5{stroke-miterlimit:10;}.cls-3{stroke-width:3.31px;}.cls-4{fill:#f2cb6b;}.cls-5{fill:#d0ab3c;}.cls-20,.cls-5{stroke-width:1.99px;}.cls-6{fill:#f0c581;}.cls-7{fill:#fff;}.cls-8{fill:#f4cb70;}.cls-9{fill:#c6c5c5;}.cls-10{fill:#c8a266;}.cls-11{fill:#9b9b9b;}.cls-11,.cls-14,.cls-15,.cls-19{stroke-width:0.66px;}.cls-12{fill:#d2d3d3;}.cls-13{fill:#030000;}.cls-14{fill:#514f50;stroke:#494646;}.cls-16{fill:#c7c6c6;}.cls-17{fill:#a6a6a6;}.cls-18{fill:#bb8c27;}.cls-19{fill:#ff4a5c;stroke:#681216;}.cls-20{stroke-linecap:round;stroke-linejoin:round;}.cls-21{fill:#cecece;}.cls-22{fill:#f9b04e;}.cls-23{fill:#125fac;}.cls-24{fill:#266db6;}.cls-25{fill:#c1c1c1;}.cls-26{font-size:33.94px;font-family:MicrosoftYaHei-Bold, Microsoft YaHei;font-weight:700;}</style></defs><title>继电器模块</title><g id="图层_2" data-name="图层 2"><g id="图层_1-2" data-name="图层 1"><g id="_编组_" data-name="&lt;编组&gt;"><path id="_复合路径_" data-name="&lt;复合路径&gt;" class="cls-1" d="M385,0h-327A57.92,57.92,0,0,0,0,57.92V870.17a57.92,57.92,0,0,0,57.92,57.92H385a57.92,57.92,0,0,0,57.92-57.92V57.92A57.92,57.92,0,0,0,385,0Zm13.12,549.87a6.37,6.37,0,1,1,0,9A6.37,6.37,0,0,1,398.09,549.87Zm-21.15-12.49a6.37,6.37,0,1,1-6.37,6.37A6.37,6.37,0,0,1,376.94,537.38Zm-30.15,12.49a6.37,6.37,0,1,1,0,9A6.37,6.37,0,0,1,346.79,549.87Zm-259.7,0a6.37,6.37,0,1,1,0,9A6.37,6.37,0,0,1,87.09,549.87ZM65.94,537.38a6.37,6.37,0,1,1-6.37,6.37A6.37,6.37,0,0,1,65.94,537.38ZM35.79,549.87a6.37,6.37,0,1,1,0,9A6.37,6.37,0,0,1,35.79,549.87ZM23.3,580a6.37,6.37,0,1,1,6.37,6.37A6.37,6.37,0,0,1,23.3,580Zm21.5,30.15a6.37,6.37,0,1,1,0-9A6.37,6.37,0,0,1,44.8,610.17Zm21.15,12.49a6.37,6.37,0,1,1,6.37-6.37A6.37,6.37,0,0,1,65.94,622.66Zm0-17A25.65,25.65,0,1,1,91.59,580,25.65,25.65,0,0,1,65.94,605.67Zm30.15,4.5a6.37,6.37,0,1,1,0-9A6.37,6.37,0,0,1,96.1,610.17Zm6.12-23.78a6.37,6.37,0,1,1,6.37-6.37A6.37,6.37,0,0,1,102.22,586.39ZM334.3,580a6.37,6.37,0,1,1,6.37,6.37A6.37,6.37,0,0,1,334.3,580Zm21.5,30.15a6.37,6.37,0,1,1,0-9A6.37,6.37,0,0,1,355.8,610.17Zm21.15,12.49a6.37,6.37,0,1,1,6.37-6.37A6.37,6.37,0,0,1,376.94,622.66Zm0-17A25.65,25.65,0,1,1,402.59,580,25.65,25.65,0,0,1,376.94,605.67Zm30.15,4.5a6.37,6.37,0,1,1,0-9A6.37,6.37,0,0,1,407.1,610.17Zm6.12-23.78a6.37,6.37,0,1,1,6.37-6.37A6.37,6.37,0,0,1,413.22,586.39Z"/><circle id="_路径_" data-name="&lt;路径&gt;" class="cls-2" cx="65.94" cy="580.02" r="24.19"/><circle id="_路径_2" data-name="&lt;路径&gt;" class="cls-3" cx="65.94" cy="580.02" r="48.21"/><circle id="_路径_3" data-name="&lt;路径&gt;" class="cls-3" cx="376.94" cy="580.02" r="48.21"/><path id="_复合路径_2" data-name="&lt;复合路径&gt;" class="cls-4" d="M376.94,531.66A48.37,48.37,0,1,0,425.31,580,48.42,48.42,0,0,0,376.94,531.66Zm21.15,18.21a6.37,6.37,0,1,1,0,9A6.37,6.37,0,0,1,398.09,549.87Zm-21.15-12.49a6.37,6.37,0,1,1-6.37,6.37A6.37,6.37,0,0,1,376.94,537.38Zm-30.15,12.49a6.37,6.37,0,1,1,0,9A6.37,6.37,0,0,1,346.79,549.87Zm-6.12,36.52A6.37,6.37,0,1,1,347,580,6.37,6.37,0,0,1,340.67,586.39Zm15.13,23.78a6.37,6.37,0,1,1,0-9A6.37,6.37,0,0,1,355.8,610.17Zm21.15,12.49a6.37,6.37,0,1,1,6.37-6.37A6.37,6.37,0,0,1,376.94,622.66Zm0-18.46A24.18,24.18,0,1,1,401.13,580,24.21,24.21,0,0,1,376.94,604.2Zm30.15,6a6.37,6.37,0,1,1,0-9A6.37,6.37,0,0,1,407.1,610.17Zm6.12-23.78a6.37,6.37,0,1,1,6.37-6.37A6.37,6.37,0,0,1,413.22,586.39Z"/><path id="_复合路径_3" data-name="&lt;复合路径&gt;" class="cls-4" d="M65.94,531.66A48.37,48.37,0,1,0,114.31,580,48.42,48.42,0,0,0,65.94,531.66Zm21.15,18.21a6.37,6.37,0,1,1,0,9A6.37,6.37,0,0,1,87.09,549.87ZM65.94,537.38a6.37,6.37,0,1,1-6.37,6.37A6.37,6.37,0,0,1,65.94,537.38ZM35.79,549.87a6.37,6.37,0,1,1,0,9A6.37,6.37,0,0,1,35.79,549.87Zm-6.12,36.52A6.37,6.37,0,1,1,36,580,6.37,6.37,0,0,1,29.67,586.39ZM44.8,610.17a6.37,6.37,0,1,1,0-9A6.37,6.37,0,0,1,44.8,610.17Zm21.15,12.49a6.37,6.37,0,1,1,6.37-6.37A6.37,6.37,0,0,1,65.94,622.66Zm0-18.46A24.18,24.18,0,1,1,90.13,580,24.21,24.21,0,0,1,65.94,604.2Zm30.15,6a6.37,6.37,0,1,1,0-9A6.37,6.37,0,0,1,96.1,610.17Zm6.12-23.78a6.37,6.37,0,1,1,6.37-6.37A6.37,6.37,0,0,1,102.22,586.39Z"/><g id="_编组_2" data-name="&lt;编组&gt;"><g id="_编组_3" data-name="&lt;编组&gt;"><rect id="_矩形_" data-name="&lt;矩形&gt;" class="cls-5" x="172.7" y="762.05" width="18.53" height="56.47"/><rect id="_矩形_2" data-name="&lt;矩形&gt;" class="cls-6" x="176.83" y="767.06" width="10.26" height="52.94" rx="5.13" ry="5.13"/></g><g id="_编组_4" data-name="&lt;编组&gt;"><rect id="_矩形_3" data-name="&lt;矩形&gt;" class="cls-5" x="212.18" y="762.05" width="18.53" height="56.47"/><rect id="_矩形_4" data-name="&lt;矩形&gt;" class="cls-6" x="216.32" y="767.06" width="10.26" height="52.94" rx="5.13" ry="5.13"/></g><g id="_编组_5" data-name="&lt;编组&gt;"><rect id="_矩形_5" data-name="&lt;矩形&gt;" class="cls-5" x="251.67" y="762.05" width="18.53" height="56.47"/><rect id="_矩形_6" data-name="&lt;矩形&gt;" class="cls-6" x="255.8" y="767.06" width="10.26" height="52.94" rx="5.13" ry="5.13"/></g><rect id="_矩形_7" data-name="&lt;矩形&gt;" class="cls-7" x="124.83" y="809.75" width="193.24" height="114.27"/><rect id="_矩形_8" data-name="&lt;矩形&gt;" class="cls-8" x="176.83" y="831.15" width="10.26" height="71.47"/><rect id="_矩形_9" data-name="&lt;矩形&gt;" class="cls-8" x="255.8" y="831.15" width="10.26" height="71.47"/><rect id="_矩形_10" data-name="&lt;矩形&gt;" class="cls-9" x="124.83" y="777.32" width="18.53" height="32.43"/><rect id="_矩形_11" data-name="&lt;矩形&gt;" class="cls-9" x="299.53" y="777.32" width="18.53" height="32.43"/><rect id="_矩形_12" data-name="&lt;矩形&gt;" class="cls-9" x="159.24" y="924.01" width="124.41" height="4.08" rx="2.04" ry="2.04"/><rect id="_矩形_13" data-name="&lt;矩形&gt;" class="cls-10" x="176.83" y="790.14" width="10.26" height="6.78"/><rect id="_矩形_14" data-name="&lt;矩形&gt;" class="cls-10" x="216.32" y="790.14" width="10.26" height="6.78"/><rect id="_矩形_15" data-name="&lt;矩形&gt;" class="cls-10" x="255.8" y="790.14" width="10.26" height="6.78"/></g></g><g id="_编组_6" data-name="&lt;编组&gt;"><path id="_复合路径_4" data-name="&lt;复合路径&gt;" class="cls-7" d="M213.48,745.32l14-5v0l-14-5v-1.88l16.21,5.91v1.95l-16.21,5.87Z"/><path id="_复合路径_5" data-name="&lt;复合路径&gt;" class="cls-7" d="M213.08,725c0-3.68,2.06-5.69,4.23-6.42l.29,1.75a4.67,4.67,0,0,0-3,4.67c0,3.28,2.3,5.45,7,5.45,4.25,0,7-2.21,7-5.45a4.82,4.82,0,0,0-3.21-4.87l.27-1.68a6.42,6.42,0,0,1,4.52,6.55c0,4.69-3.79,7.15-8.55,7.15S213.08,730,213.08,725Z"/><path id="_复合路径_6" data-name="&lt;复合路径&gt;" class="cls-7" d="M213.08,709.18c0-3.68,2.06-5.69,4.23-6.42l.29,1.75a4.67,4.67,0,0,0-3,4.67c0,3.28,2.3,5.45,7,5.45,4.25,0,7-2.21,7-5.45a4.82,4.82,0,0,0-3.21-4.87l.27-1.68a6.42,6.42,0,0,1,4.52,6.55c0,4.69-3.79,7.15-8.55,7.15S213.08,714.25,213.08,709.18Z"/></g><g id="_编组_7" data-name="&lt;编组&gt;"><path id="_复合路径_7" data-name="&lt;复合路径&gt;" class="cls-7" d="M252.26,740.8c0-4.1,2.35-5.6,4.47-6.51l.29,1.79a4.77,4.77,0,0,0-3.23,4.72c0,3.34,2.86,5.71,7,5.71,4.25,0,7-2.46,7-5.49a5.57,5.57,0,0,0-4.19-5.31h-1.75v4.94h-1.55V734h8.64v1.55h-3.32a6.14,6.14,0,0,1,3.74,5.69c0,3.61-3.08,7-8.55,7C255.67,748.22,252.26,745.19,252.26,740.8Z"/><path id="_复合路径_8" data-name="&lt;复合路径&gt;" class="cls-7" d="M252.66,728.47,266.12,719v0H252.66v-1.71h16.21v1.79l-13.46,9.43,0,0h13.49v1.73H252.66Z"/><path id="_复合路径_9" data-name="&lt;复合路径&gt;" class="cls-7" d="M252.66,707.55c0-5.29,4.19-7.17,8.08-7.17,4.65,0,8.13,2.3,8.13,7.48v5.58H252.66Zm14.68,4.16v-3.9c0-3.23-2.15-5.74-6.6-5.74-3.08,0-6.55,1.51-6.55,5.78v3.85Z"/></g><g id="_编组_8" data-name="&lt;编组&gt;"><path id="_复合路径_10" data-name="&lt;复合路径&gt;" class="cls-7" d="M173.86,745.43h16.21v1.73H173.86Z"/><path id="_复合路径_11" data-name="&lt;复合路径&gt;" class="cls-7" d="M173.86,739.81l13.46-9.48v0H173.86V728.6h16.21v1.79l-13.46,9.43,0,0h13.49v1.73H173.86Z"/></g><rect id="_矩形_16" data-name="&lt;矩形&gt;" class="cls-11" x="156.17" y="551.87" width="17.32" height="43.57"/><rect id="_矩形_17" data-name="&lt;矩形&gt;" class="cls-12" x="156.48" y="558.1" width="16.71" height="29.78"/><polygon id="_路径_4" data-name="&lt;路径&gt;" class="cls-13" points="156.54 563.48 156.54 582.67 173.12 582.67 173.12 563.48 169.73 563.48 169.73 564.18 159.35 564.18 159.35 563.48 156.54 563.48"/><rect id="_矩形_18" data-name="&lt;矩形&gt;" class="cls-11" x="267.77" y="551.87" width="17.32" height="43.57"/><rect id="_矩形_19" data-name="&lt;矩形&gt;" class="cls-12" x="268.07" y="558.1" width="16.71" height="29.78"/><polygon id="_路径_5" data-name="&lt;路径&gt;" class="cls-13" points="268.14 563.48 268.14 582.67 284.72 582.67 284.72 563.48 281.33 563.48 281.33 564.18 270.95 564.18 270.95 563.48 268.14 563.48"/><rect id="_矩形_20" data-name="&lt;矩形&gt;" class="cls-11" x="202.3" y="548" width="11.17" height="21.09"/><rect id="_矩形_21" data-name="&lt;矩形&gt;" class="cls-11" x="230.37" y="548" width="11.17" height="21.09"/><rect id="_矩形_22" data-name="&lt;矩形&gt;" class="cls-11" x="216.33" y="586.3" width="11.17" height="21.09"/><rect id="_矩形_23" data-name="&lt;矩形&gt;" class="cls-14" x="194.87" y="565.62" width="54.1" height="24.65"/><polyline id="_路径_6" data-name="&lt;路径&gt;" class="cls-15" points="194.2 578.69 194.2 591.02 202.25 591.02"/><polyline id="_路径_7" data-name="&lt;路径&gt;" class="cls-15" points="249.54 578.69 249.54 591.02 241.49 591.02"/><rect id="_矩形_24" data-name="&lt;矩形&gt;" class="cls-16" x="203.39" y="555.75" width="8.99" height="9.87"/><rect id="_矩形_25" data-name="&lt;矩形&gt;" class="cls-16" x="231.46" y="555.75" width="8.99" height="9.87"/><rect id="_矩形_26" data-name="&lt;矩形&gt;" class="cls-16" x="217.42" y="590.27" width="8.99" height="9.87"/><rect id="_矩形_27" data-name="&lt;矩形&gt;" class="cls-17" x="203.39" y="562.4" width="8.99" height="1.05"/><rect id="_矩形_28" data-name="&lt;矩形&gt;" class="cls-17" x="231.46" y="562.4" width="8.99" height="1.05"/><rect id="_矩形_29" data-name="&lt;矩形&gt;" class="cls-17" x="217.42" y="592.37" width="8.99" height="1.05"/><rect id="_矩形_30" data-name="&lt;矩形&gt;" class="cls-11" x="38.01" y="684.07" width="17.32" height="43.57"/><rect id="_矩形_31" data-name="&lt;矩形&gt;" class="cls-12" x="38.31" y="690.3" width="16.71" height="29.78"/><polygon id="_路径_8" data-name="&lt;路径&gt;" class="cls-13" points="38.37 695.68 38.37 714.87 54.96 714.87 54.96 695.68 51.56 695.68 51.56 696.38 41.18 696.38 41.18 695.68 38.37 695.68"/><rect id="_矩形_32" data-name="&lt;矩形&gt;" class="cls-11" x="38.01" y="737.4" width="17.32" height="13.51"/><rect id="_矩形_33" data-name="&lt;矩形&gt;" class="cls-11" x="38.01" y="764.31" width="17.32" height="13.51"/><g id="_编组_9" data-name="&lt;编组&gt;"><path id="_路径_9" data-name="&lt;路径&gt;" class="cls-18" d="M51.32,742.06a4.66,4.66,0,1,1-9.32,0H39.22v8.85H54.11v-8.85Z"/><path id="_路径_10" data-name="&lt;路径&gt;" class="cls-18" d="M42,773.16a4.66,4.66,0,1,1,9.32,0h2.79v-8.85H39.22v8.85Z"/><rect id="_矩形_34" data-name="&lt;矩形&gt;" class="cls-19" x="40.05" y="747.82" width="13.24" height="19.47"/></g><polyline id="_路径_11" data-name="&lt;路径&gt;" class="cls-20" points="80.32 30.19 80.32 147 362.9 147 362.9 30.19"/><rect id="_矩形_35" data-name="&lt;矩形&gt;" class="cls-21" x="114.31" y="205.56" width="214.27" height="298.24"/><rect id="_矩形_36" data-name="&lt;矩形&gt;" class="cls-22" x="121.08" y="212.84" width="200.74" height="291.62"/><rect id="_矩形_37" data-name="&lt;矩形&gt;" class="cls-23" x="79.99" y="5.38" width="282.91" height="141.62"/><rect id="_矩形_38" data-name="&lt;矩形&gt;" class="cls-24" x="80.32" y="30.19" width="282.24" height="92.98"/><g id="_编组_10" data-name="&lt;编组&gt;"><circle id="_路径_12" data-name="&lt;路径&gt;" class="cls-25" cx="126.98" cy="76.74" r="30.66"/><circle id="_路径_13" data-name="&lt;路径&gt;" class="cls-25" cx="221.45" cy="76.74" r="30.66"/><circle id="_路径_14" data-name="&lt;路径&gt;" class="cls-25" cx="315.91" cy="76.74" r="30.66"/></g><circle id="_路径_15" data-name="&lt;路径&gt;" class="cls-24" cx="126.98" cy="128.14" r="8.82"/><circle id="_路径_16" data-name="&lt;路径&gt;" class="cls-24" cx="221.45" cy="128.14" r="8.82"/><circle id="_路径_17" data-name="&lt;路径&gt;" class="cls-24" cx="315.91" cy="128.14" r="8.82"/><polygon id="_路径_18" data-name="&lt;路径&gt;" class="cls-24" points="351.34 115.06 361.03 109.47 370.73 103.87 370.73 115.06 370.73 126.26 361.03 120.66 351.34 115.06"/><path id="_复合路径_12" data-name="&lt;复合路径&gt;" d="M233.65,265.31h-2.3v-7.76H209.27V255h22.09v-7.73h2.3Z"/><path id="_复合路径_13" data-name="&lt;复合路径&gt;" d="M233.65,278.07c0,5.26-2.76,7.7-6.56,7.7a6.89,6.89,0,0,1-6-4h0c-.7,2-2.6,3.37-5.5,3.5a24.41,24.41,0,0,0-6.33,1.23v-2.73a25,25,0,0,1,6.1-1c2.73-.17,4.53-1.67,4.53-4.2v-7.26H209.27v-2.57h24.38Zm-11.43-6.8v6.66c0,3.17,2.1,5.26,4.73,5.26s4.4-1.93,4.4-5.5v-6.43Z"/><path id="_复合路径_14" data-name="&lt;复合路径&gt;" d="M233.65,299.45c0,5.8-2.37,8.16-6.2,8.16a6.13,6.13,0,0,1-5.63-4.33c-.67,3.86-3.26,5.26-5.8,5.26-4.73,0-6.76-3.23-6.76-8.46v-9.33h24.38Zm-10.73-6.1v5.93c0,3,1.77,5.73,4.26,5.73,2.7,0,4.16-2,4.16-5.86v-5.8Zm-11.36,0v6.1c0,4.33,1.7,6.53,4.6,6.53,3.43,0,4.46-3,4.46-6.53v-6.1Z"/><path id="_复合路径_15" data-name="&lt;复合路径&gt;" d="M222.83,322.7h-2.17V311.64h2.17Z"/><path id="_复合路径_16" data-name="&lt;复合路径&gt;" d="M215.57,328.79a5.57,5.57,0,0,0-4.2,5.7c0,3.4,2.17,5.5,5.8,5.5a5.07,5.07,0,0,0,5.43-5.36,6.31,6.31,0,0,0-2.63-5.33l.4-2.4L233.22,328v13.26h-2.3V330.09l-8.43-.6a7.52,7.52,0,0,1,2.43,5.56c0,4.66-3,7.53-7.76,7.53-4.5,0-8.06-2.6-8.06-8,0-4.43,2.43-7.46,6-8.33Z"/><path id="_复合路径_17" data-name="&lt;复合路径&gt;" d="M233.65,347.61l-21.09,7.5v.07l21.09,7.49v2.83l-24.38-8.89v-2.93l24.38-8.83Z"/><path id="_复合路径_18" data-name="&lt;复合路径&gt;" d="M233.65,377.49c0,8-6.3,10.79-12.16,10.79-7,0-12.23-3.46-12.23-11.26v-8.39h24.38Zm-22.09-6.26v5.86c0,4.86,3.23,8.63,9.93,8.63,4.63,0,9.86-2.27,9.86-8.69v-5.8Z"/><path id="_复合路径_19" data-name="&lt;复合路径&gt;" d="M234.25,402.33c0,5.53-3.1,8.56-6.36,9.66l-.43-2.63c2.9-1.1,4.5-3.67,4.5-7,0-4.93-3.46-8.2-10.46-8.2-6.4,0-10.49,3.33-10.49,8.2a7.25,7.25,0,0,0,4.83,7.33l-.4,2.53c-3.93-1.4-6.8-4.43-6.8-9.86,0-7.06,5.7-10.76,12.86-10.76C228.46,391.57,234.25,394.71,234.25,402.33Z"/><path id="_复合路径_20" data-name="&lt;复合路径&gt;" d="M222.83,426.22h-2.17V415.16h2.17Z"/><path id="_复合路径_21" data-name="&lt;复合路径&gt;" d="M215.87,432.18c-3.46,1.4-4.86,3.86-4.86,6.9,0,3.66,2.27,5.6,4.16,5.6,2.86,0,4.5-4,5.5-6.56,1.8-5,3.63-8,6.86-8,4.1,0,6.73,3.86,6.73,8.56,0,4.36-2.37,7.46-5.8,8.56L228,444.5a6,6,0,0,0,3.93-5.9c0-3.3-1.93-5.63-4.13-5.63-2.47,0-3.56,2.76-4.9,6.23-2,5.46-4.33,8.36-7.43,8.36-4,0-6.86-3.43-6.86-8.56,0-4.83,2.33-8,6.8-9.63Z"/><path id="_复合路径_22" data-name="&lt;复合路径&gt;" d="M233.65,461c0,5.8-2.37,8.16-6.2,8.16a6.13,6.13,0,0,1-5.63-4.33c-.67,3.86-3.26,5.26-5.8,5.26-4.73,0-6.76-3.23-6.76-8.46v-9.33h24.38Zm-10.73-6.1v5.93c0,3,1.77,5.73,4.26,5.73,2.7,0,4.16-2,4.16-5.86v-5.8Zm-11.36,0V461c0,4.33,1.7,6.53,4.6,6.53,3.43,0,4.46-3,4.46-6.53v-6.1Z"/><rect class="cls-7" x="51.28" y="205.56" width="48" height="90.96"/><text class="cls-26" transform="translate(85.43 284.98) rotate(-90)">常开</text><rect class="cls-7" x="342.94" y="205.56" width="48" height="90.96"/><text class="cls-26" transform="translate(377.1 284.98) rotate(-90)">常闭</text></g></g></svg>