<svg xmlns="http://www.w3.org/2000/svg" viewBox="0 0 946.34 1268.38"><defs><style>.cls-1{fill:#353535;}.cls-15,.cls-2{fill:none;}.cls-10,.cls-13,.cls-15,.cls-18,.cls-2,.cls-4,.cls-58,.cls-59{stroke:#fff;}.cls-10,.cls-11,.cls-13,.cls-14,.cls-15,.cls-18,.cls-2,.cls-22,.cls-23,.cls-4,.cls-58,.cls-59{stroke-miterlimit:10;}.cls-2{stroke-width:3.31px;}.cls-3{fill:#f2cb6b;}.cls-10,.cls-4{fill:#d0ab3c;}.cls-4{stroke-width:1.99px;}.cls-5{fill:#f0c581;}.cls-6{fill:#fff;}.cls-7{fill:#f4cb70;}.cls-8{fill:#c6c5c5;}.cls-9{fill:#c8a266;}.cls-10{stroke-width:1.32px;}.cls-11{fill:#f99f46;stroke:#ef973f;}.cls-11,.cls-18,.cls-22,.cls-23{stroke-width:0.66px;}.cls-12{fill:#aaa;}.cls-13{fill:#d9b13b;}.cls-13,.cls-14,.cls-15{stroke-width:0.77px;}.cls-14{fill:#514f50;stroke:#494646;}.cls-16{fill:#c7c6c6;}.cls-17{fill:#a6a6a6;}.cls-18{fill:#9b9b9b;}.cls-19{fill:#d2d3d3;}.cls-20{fill:#030000;}.cls-21{fill:#bb8c27;}.cls-22{fill:#ff4a5c;stroke:#681216;}.cls-23{fill:#58b1f9;stroke:#122c4f;}.cls-24{fill:#cecece;}.cls-25{fill:#adadad;}.cls-26{fill:#aeaeae;}.cls-27{fill:#afafaf;}.cls-28{fill:#b0b0b0;}.cls-29{fill:#b1b1b1;}.cls-30{fill:#b2b2b2;}.cls-31{fill:#b3b3b3;}.cls-32{fill:#b4b4b4;}.cls-33{fill:#b5b5b5;}.cls-34{fill:#b6b6b6;}.cls-35{fill:#b7b7b7;}.cls-36{fill:#b8b8b8;}.cls-37{fill:#b9b9b9;}.cls-38{fill:#bababa;}.cls-39{fill:#bbb;}.cls-40{fill:#bcbcbc;}.cls-41{fill:#bdbdbd;}.cls-42{fill:#bebebe;}.cls-43{fill:#bfbfbf;}.cls-44{fill:silver;}.cls-45{fill:#c1c1c1;}.cls-46{fill:#c2c2c2;}.cls-47{fill:#c3c3c3;}.cls-48{fill:#c4c4c4;}.cls-49{fill:#c5c5c5;}.cls-50{fill:#c6c6c6;}.cls-51{fill:#c7c7c7;}.cls-52{fill:#c8c8c8;}.cls-53{fill:#c9c9c9;}.cls-54{fill:#cacaca;}.cls-55{fill:#cbcbcb;}.cls-56{fill:#ccc;}.cls-57{fill:#cdcdcd;}.cls-58,.cls-59{fill:#e1b737;}.cls-58{stroke-width:0.78px;}.cls-59{stroke-width:0.77px;}.cls-60{fill:#1f1f1f;}</style></defs><title>RFID射频模块</title><g id="图层_2" data-name="图层 2"><g id="图层_1-2" data-name="图层 1"><path class="cls-1" d="M874.9,0H71.44A71.43,71.43,0,0,0,0,71.43V1196.69a71.44,71.44,0,0,0,71.44,71.44H874.9a71.44,71.44,0,0,0,71.44-71.44V71.43A71.43,71.43,0,0,0,874.9,0ZM907.3,1173.25a6.37,6.37,0,1,1,0-9A6.37,6.37,0,0,1,907.3,1173.25Zm-23.78-15.13a6.37,6.37,0,1,1-6.37-6.37A6.37,6.37,0,0,1,883.51,1158.12ZM847,1164.24a6.37,6.37,0,1,1,0,9A6.37,6.37,0,0,1,847,1164.24Zm-747.64,9a6.37,6.37,0,1,1,0-9A6.37,6.37,0,0,1,99.35,1173.25Zm-23.78-15.13a6.37,6.37,0,1,1-6.37-6.37A6.37,6.37,0,0,1,75.56,1158.12ZM48,1173.25a6.37,6.37,0,1,1,0-9A6.37,6.37,0,0,1,48,1173.25Zm-21.5,21.15a6.37,6.37,0,1,1,6.37,6.37A6.37,6.37,0,0,1,26.55,1194.39ZM48,1224.55a6.37,6.37,0,1,1,0-9A6.37,6.37,0,0,1,48,1224.55ZM69.19,1237a6.37,6.37,0,1,1,6.37-6.37A6.37,6.37,0,0,1,69.19,1237Zm0-18.46a24.18,24.18,0,1,1,24.18-24.18A24.18,24.18,0,0,1,69.19,1218.58Zm30.15,6a6.37,6.37,0,1,1,0-9A6.37,6.37,0,0,1,99.35,1224.55Zm6.12-23.78a6.37,6.37,0,1,1,6.37-6.37A6.37,6.37,0,0,1,105.47,1200.76Zm729-6.37a6.37,6.37,0,1,1,6.37,6.37A6.37,6.37,0,0,1,834.5,1194.39Zm21.5,30.15a6.37,6.37,0,1,1,0-9A6.37,6.37,0,0,1,856,1224.55ZM877.14,1237a6.37,6.37,0,1,1,6.37-6.37A6.37,6.37,0,0,1,877.14,1237Zm0-18.46a24.18,24.18,0,1,1,24.18-24.18A24.18,24.18,0,0,1,877.14,1218.58Zm30.15,6a6.37,6.37,0,1,1,0-9A6.37,6.37,0,0,1,907.3,1224.55Zm6.12-23.78a6.37,6.37,0,1,1,6.37-6.37A6.37,6.37,0,0,1,913.42,1200.76Z"/><g id="_编组_" data-name="&lt;编组&gt;"><circle id="_路径_" data-name="&lt;路径&gt;" class="cls-2" cx="69.19" cy="1194.39" r="48.21"/><path id="_复合路径_" data-name="&lt;复合路径&gt;" class="cls-3" d="M69.19,1146a48.37,48.37,0,1,0,48.37,48.37A48.42,48.42,0,0,0,69.19,1146Zm21.15,18.21a6.37,6.37,0,1,1,0,9A6.37,6.37,0,0,1,90.34,1164.24Zm-21.15-12.49a6.37,6.37,0,1,1-6.37,6.37A6.37,6.37,0,0,1,69.19,1151.75ZM39,1164.24a6.37,6.37,0,1,1,0,9A6.37,6.37,0,0,1,39,1164.24Zm-6.12,36.52a6.37,6.37,0,1,1,6.37-6.37A6.37,6.37,0,0,1,32.92,1200.76ZM48,1224.55a6.37,6.37,0,1,1,0-9A6.37,6.37,0,0,1,48,1224.55ZM69.19,1237a6.37,6.37,0,1,1,6.37-6.37A6.37,6.37,0,0,1,69.19,1237Zm0-18.46a24.18,24.18,0,1,1,24.18-24.18A24.21,24.21,0,0,1,69.19,1218.58Zm30.15,6a6.37,6.37,0,1,1,0-9A6.37,6.37,0,0,1,99.35,1224.55Zm6.12-23.78a6.37,6.37,0,1,1,6.37-6.37A6.37,6.37,0,0,1,105.47,1200.76Z"/></g><g id="_编组_2" data-name="&lt;编组&gt;"><circle id="_路径_2" data-name="&lt;路径&gt;" class="cls-2" cx="877.14" cy="1194.39" r="48.21"/><path id="_复合路径_2" data-name="&lt;复合路径&gt;" class="cls-3" d="M877.14,1146a48.37,48.37,0,1,0,48.37,48.37A48.42,48.42,0,0,0,877.14,1146Zm21.15,18.21a6.37,6.37,0,1,1,0,9A6.37,6.37,0,0,1,898.29,1164.24Zm-21.15-12.49a6.37,6.37,0,1,1-6.37,6.37A6.37,6.37,0,0,1,877.14,1151.75ZM847,1164.24a6.37,6.37,0,1,1,0,9A6.37,6.37,0,0,1,847,1164.24Zm-6.12,36.52a6.37,6.37,0,1,1,6.37-6.37A6.37,6.37,0,0,1,840.87,1200.76ZM856,1224.55a6.37,6.37,0,1,1,0-9A6.37,6.37,0,0,1,856,1224.55ZM877.14,1237a6.37,6.37,0,1,1,6.37-6.37A6.37,6.37,0,0,1,877.14,1237Zm0-18.46a24.18,24.18,0,1,1,24.18-24.18A24.21,24.21,0,0,1,877.14,1218.58Zm30.15,6a6.37,6.37,0,1,1,0-9A6.37,6.37,0,0,1,907.3,1224.55Zm6.12-23.78a6.37,6.37,0,1,1,6.37-6.37A6.37,6.37,0,0,1,913.42,1200.76Z"/></g><g id="_编组_3" data-name="&lt;编组&gt;"><g id="_编组_4" data-name="&lt;编组&gt;"><rect id="_矩形_" data-name="&lt;矩形&gt;" class="cls-4" x="579.47" y="1102.27" width="18.53" height="56.47"/><rect id="_矩形_2" data-name="&lt;矩形&gt;" class="cls-5" x="583.6" y="1107.29" width="10.26" height="52.94" rx="5.13" ry="5.13"/></g><g id="_编组_5" data-name="&lt;编组&gt;"><rect id="_矩形_3" data-name="&lt;矩形&gt;" class="cls-4" x="618.95" y="1102.27" width="18.53" height="56.47"/><rect id="_矩形_4" data-name="&lt;矩形&gt;" class="cls-5" x="623.09" y="1107.29" width="10.26" height="52.94" rx="5.13" ry="5.13"/></g><g id="_编组_6" data-name="&lt;编组&gt;"><rect id="_矩形_5" data-name="&lt;矩形&gt;" class="cls-4" x="658.44" y="1102.27" width="18.53" height="56.47"/><rect id="_矩形_6" data-name="&lt;矩形&gt;" class="cls-5" x="662.57" y="1107.29" width="10.26" height="52.94" rx="5.13" ry="5.13"/></g><rect id="_矩形_7" data-name="&lt;矩形&gt;" class="cls-6" x="531.6" y="1149.98" width="193.24" height="114.27"/><rect id="_矩形_8" data-name="&lt;矩形&gt;" class="cls-7" x="583.6" y="1171.37" width="10.26" height="71.47"/><rect id="_矩形_9" data-name="&lt;矩形&gt;" class="cls-7" x="662.57" y="1171.37" width="10.26" height="71.47"/><rect id="_矩形_10" data-name="&lt;矩形&gt;" class="cls-8" x="531.6" y="1117.55" width="18.53" height="32.43"/><rect id="_矩形_11" data-name="&lt;矩形&gt;" class="cls-8" x="706.31" y="1117.55" width="18.53" height="32.43"/><rect id="_矩形_12" data-name="&lt;矩形&gt;" class="cls-8" x="566.01" y="1264.24" width="124.41" height="4.08" rx="2.04" ry="2.04"/><rect id="_矩形_13" data-name="&lt;矩形&gt;" class="cls-9" x="583.6" y="1130.37" width="10.26" height="6.78"/><rect id="_矩形_14" data-name="&lt;矩形&gt;" class="cls-9" x="623.09" y="1130.37" width="10.26" height="6.78"/><rect id="_矩形_15" data-name="&lt;矩形&gt;" class="cls-9" x="662.57" y="1130.37" width="10.26" height="6.78"/></g><g id="_编组_7" data-name="&lt;编组&gt;"><g id="_编组_8" data-name="&lt;编组&gt;"><g id="_编组_9" data-name="&lt;编组&gt;"><g id="_编组_10" data-name="&lt;编组&gt;"><rect id="_矩形_16" data-name="&lt;矩形&gt;" class="cls-4" x="271.06" y="1097.26" width="18.53" height="56.47"/><rect id="_矩形_17" data-name="&lt;矩形&gt;" class="cls-5" x="275.19" y="1102.27" width="10.26" height="52.94" rx="5.13" ry="5.13"/></g><rect id="_矩形_18" data-name="&lt;矩形&gt;" class="cls-9" x="275.19" y="1125.35" width="10.26" height="6.78"/></g><g id="_编组_11" data-name="&lt;编组&gt;"><g id="_编组_12" data-name="&lt;编组&gt;"><rect id="_矩形_19" data-name="&lt;矩形&gt;" class="cls-4" x="308.65" y="1097.26" width="18.53" height="56.47"/><rect id="_矩形_20" data-name="&lt;矩形&gt;" class="cls-5" x="312.78" y="1102.27" width="10.26" height="52.94" rx="5.13" ry="5.13"/></g><rect id="_矩形_21" data-name="&lt;矩形&gt;" class="cls-9" x="312.78" y="1125.35" width="10.26" height="6.78"/></g><g id="_编组_13" data-name="&lt;编组&gt;"><g id="_编组_14" data-name="&lt;编组&gt;"><rect id="_矩形_22" data-name="&lt;矩形&gt;" class="cls-4" x="346.24" y="1097.26" width="18.53" height="56.47"/><rect id="_矩形_23" data-name="&lt;矩形&gt;" class="cls-5" x="350.37" y="1102.27" width="10.26" height="52.94" rx="5.13" ry="5.13"/></g><rect id="_矩形_24" data-name="&lt;矩形&gt;" class="cls-9" x="350.37" y="1125.35" width="10.26" height="6.78"/></g><g id="_编组_15" data-name="&lt;编组&gt;"><g id="_编组_16" data-name="&lt;编组&gt;"><rect id="_矩形_25" data-name="&lt;矩形&gt;" class="cls-4" x="383.82" y="1097.26" width="18.53" height="56.47"/><rect id="_矩形_26" data-name="&lt;矩形&gt;" class="cls-5" x="387.96" y="1102.27" width="10.26" height="52.94" rx="5.13" ry="5.13"/></g><rect id="_矩形_27" data-name="&lt;矩形&gt;" class="cls-9" x="387.96" y="1125.35" width="10.26" height="6.78"/></g><g id="_编组_17" data-name="&lt;编组&gt;"><g id="_编组_18" data-name="&lt;编组&gt;"><rect id="_矩形_28" data-name="&lt;矩形&gt;" class="cls-4" x="421.41" y="1097.26" width="18.53" height="56.47"/><rect id="_矩形_29" data-name="&lt;矩形&gt;" class="cls-5" x="425.55" y="1102.27" width="10.26" height="52.94" rx="5.13" ry="5.13"/></g><rect id="_矩形_30" data-name="&lt;矩形&gt;" class="cls-9" x="425.55" y="1125.35" width="10.26" height="6.78"/></g><g id="_编组_19" data-name="&lt;编组&gt;"><g id="_编组_20" data-name="&lt;编组&gt;"><rect id="_矩形_31" data-name="&lt;矩形&gt;" class="cls-4" x="459" y="1097.26" width="18.53" height="56.47"/><rect id="_矩形_32" data-name="&lt;矩形&gt;" class="cls-5" x="463.14" y="1102.27" width="10.26" height="52.94" rx="5.13" ry="5.13"/></g><rect id="_矩形_33" data-name="&lt;矩形&gt;" class="cls-9" x="463.14" y="1125.35" width="10.26" height="6.78"/></g></g><rect id="_矩形_34" data-name="&lt;矩形&gt;" class="cls-6" x="221.5" y="1150.03" width="305.58" height="114.27"/><rect id="_矩形_35" data-name="&lt;矩形&gt;" class="cls-7" x="275.19" y="1171.43" width="10.26" height="71.47"/><rect id="_矩形_36" data-name="&lt;矩形&gt;" class="cls-7" x="463.14" y="1171.43" width="10.26" height="71.47"/><rect id="_矩形_37" data-name="&lt;矩形&gt;" class="cls-8" x="221.5" y="1117.61" width="18.53" height="32.43"/><rect id="_矩形_38" data-name="&lt;矩形&gt;" class="cls-8" x="508.56" y="1117.61" width="18.53" height="32.43"/><rect id="_矩形_39" data-name="&lt;矩形&gt;" class="cls-8" x="251.41" y="1264.3" width="245.77" height="4.08" rx="2.04" ry="2.04"/></g><g id="_编组_21" data-name="&lt;编组&gt;"><rect id="_矩形_40" data-name="&lt;矩形&gt;" class="cls-10" x="279.94" y="906.18" width="17.32" height="13.51" transform="translate(1201.53 624.34) rotate(90)"/><rect id="_矩形_41" data-name="&lt;矩形&gt;" class="cls-10" x="253.02" y="906.18" width="17.32" height="13.51" transform="translate(1174.61 651.25) rotate(90)"/><g id="_编组_22" data-name="&lt;编组&gt;"><rect id="_矩形_42" data-name="&lt;矩形&gt;" class="cls-11" x="268.58" y="903.2" width="13.24" height="19.47" transform="translate(1188.13 637.74) rotate(90)"/></g><rect id="_矩形_43" data-name="&lt;矩形&gt;" class="cls-12" x="262.27" y="905.57" width="4.74" height="14.67"/><rect id="_矩形_44" data-name="&lt;矩形&gt;" class="cls-12" x="283.33" y="905.57" width="4.74" height="14.67"/></g><g id="_编组_23" data-name="&lt;编组&gt;"><rect id="_矩形_45" data-name="&lt;矩形&gt;" class="cls-10" x="344.32" y="906.18" width="17.32" height="13.51" transform="translate(1265.91 559.95) rotate(90)"/><rect id="_矩形_46" data-name="&lt;矩形&gt;" class="cls-10" x="317.41" y="906.18" width="17.32" height="13.51" transform="translate(1239 586.86) rotate(90)"/><g id="_编组_24" data-name="&lt;编组&gt;"><rect id="_矩形_47" data-name="&lt;矩形&gt;" class="cls-11" x="332.96" y="903.2" width="13.24" height="19.47" transform="translate(1252.51 573.35) rotate(90)"/></g><rect id="_矩形_48" data-name="&lt;矩形&gt;" class="cls-12" x="326.65" y="905.57" width="4.74" height="14.67"/><rect id="_矩形_49" data-name="&lt;矩形&gt;" class="cls-12" x="347.72" y="905.57" width="4.74" height="14.67"/></g><g id="_编组_25" data-name="&lt;编组&gt;"><rect id="_矩形_50" data-name="&lt;矩形&gt;" class="cls-10" x="374.97" y="755.57" width="17.32" height="13.51" transform="translate(767.25 1524.65) rotate(180)"/><rect id="_矩形_51" data-name="&lt;矩形&gt;" class="cls-10" x="374.97" y="728.66" width="17.32" height="13.51" transform="translate(767.25 1470.83) rotate(180)"/><g id="_编组_26" data-name="&lt;编组&gt;"><rect id="_矩形_52" data-name="&lt;矩形&gt;" class="cls-11" x="377.01" y="739.19" width="13.24" height="19.47" transform="translate(767.25 1497.85) rotate(180)"/></g><rect id="_矩形_53" data-name="&lt;矩形&gt;" class="cls-12" x="381.28" y="731.03" width="4.74" height="14.67" transform="translate(1122.02 354.71) rotate(90)"/><rect id="_矩形_54" data-name="&lt;矩形&gt;" class="cls-12" x="381.28" y="752.1" width="4.74" height="14.67" transform="translate(1143.09 375.78) rotate(90)"/></g><g id="_编组_27" data-name="&lt;编组&gt;"><rect id="_矩形_55" data-name="&lt;矩形&gt;" class="cls-10" x="402.33" y="755.57" width="17.32" height="13.51" transform="translate(821.97 1524.65) rotate(180)"/><rect id="_矩形_56" data-name="&lt;矩形&gt;" class="cls-10" x="402.33" y="728.66" width="17.32" height="13.51" transform="translate(821.97 1470.83) rotate(180)"/><g id="_编组_28" data-name="&lt;编组&gt;"><rect id="_矩形_57" data-name="&lt;矩形&gt;" class="cls-11" x="404.37" y="739.19" width="13.24" height="19.47" transform="translate(821.97 1497.85) rotate(180)"/></g><rect id="_矩形_58" data-name="&lt;矩形&gt;" class="cls-12" x="408.64" y="731.03" width="4.74" height="14.67" transform="translate(1149.38 327.35) rotate(90)"/><rect id="_矩形_59" data-name="&lt;矩形&gt;" class="cls-12" x="408.64" y="752.1" width="4.74" height="14.67" transform="translate(1170.45 348.42) rotate(90)"/></g><g id="_编组_29" data-name="&lt;编组&gt;"><rect id="_矩形_60" data-name="&lt;矩形&gt;" class="cls-10" x="429.69" y="755.57" width="17.32" height="13.51" transform="translate(876.69 1524.65) rotate(180)"/><rect id="_矩形_61" data-name="&lt;矩形&gt;" class="cls-10" x="429.69" y="728.66" width="17.32" height="13.51" transform="translate(876.69 1470.83) rotate(180)"/><g id="_编组_30" data-name="&lt;编组&gt;"><rect id="_矩形_62" data-name="&lt;矩形&gt;" class="cls-11" x="431.73" y="739.19" width="13.24" height="19.47" transform="translate(876.69 1497.85) rotate(180)"/></g><rect id="_矩形_63" data-name="&lt;矩形&gt;" class="cls-12" x="436" y="731.03" width="4.74" height="14.67" transform="translate(1176.74 299.99) rotate(90)"/><rect id="_矩形_64" data-name="&lt;矩形&gt;" class="cls-12" x="436" y="752.1" width="4.74" height="14.67" transform="translate(1197.81 321.06) rotate(90)"/></g><g id="_编组_31" data-name="&lt;编组&gt;"><rect id="_矩形_65" data-name="&lt;矩形&gt;" class="cls-10" x="499.33" y="755.57" width="17.32" height="13.51" transform="translate(1015.98 1524.65) rotate(180)"/><rect id="_矩形_66" data-name="&lt;矩形&gt;" class="cls-10" x="499.33" y="728.66" width="17.32" height="13.51" transform="translate(1015.98 1470.83) rotate(180)"/><g id="_编组_32" data-name="&lt;编组&gt;"><rect id="_矩形_67" data-name="&lt;矩形&gt;" class="cls-11" x="501.37" y="739.19" width="13.24" height="19.47" transform="translate(1015.98 1497.85) rotate(180)"/></g><rect id="_矩形_68" data-name="&lt;矩形&gt;" class="cls-12" x="505.65" y="731.03" width="4.74" height="14.67" transform="translate(1246.39 230.35) rotate(90)"/><rect id="_矩形_69" data-name="&lt;矩形&gt;" class="cls-12" x="505.65" y="752.1" width="4.74" height="14.67" transform="translate(1267.45 251.41) rotate(90)"/></g><g id="_编组_33" data-name="&lt;编组&gt;"><rect id="_矩形_70" data-name="&lt;矩形&gt;" class="cls-10" x="526.69" y="755.57" width="17.32" height="13.51" transform="translate(1070.7 1524.65) rotate(180)"/><rect id="_矩形_71" data-name="&lt;矩形&gt;" class="cls-10" x="526.69" y="728.66" width="17.32" height="13.51" transform="translate(1070.7 1470.83) rotate(180)"/><g id="_编组_34" data-name="&lt;编组&gt;"><rect id="_矩形_72" data-name="&lt;矩形&gt;" class="cls-11" x="528.73" y="739.19" width="13.24" height="19.47" transform="translate(1070.7 1497.85) rotate(180)"/></g><rect id="_矩形_73" data-name="&lt;矩形&gt;" class="cls-12" x="533.01" y="731.03" width="4.74" height="14.67" transform="translate(1273.75 202.99) rotate(90)"/><rect id="_矩形_74" data-name="&lt;矩形&gt;" class="cls-12" x="533.01" y="752.1" width="4.74" height="14.67" transform="translate(1294.81 224.06) rotate(90)"/></g><g id="_编组_35" data-name="&lt;编组&gt;"><rect id="_矩形_75" data-name="&lt;矩形&gt;" class="cls-10" x="554.05" y="755.57" width="17.32" height="13.51" transform="translate(1125.42 1524.65) rotate(180)"/><rect id="_矩形_76" data-name="&lt;矩形&gt;" class="cls-10" x="554.05" y="728.66" width="17.32" height="13.51" transform="translate(1125.42 1470.83) rotate(180)"/><g id="_编组_36" data-name="&lt;编组&gt;"><rect id="_矩形_77" data-name="&lt;矩形&gt;" class="cls-11" x="556.09" y="739.19" width="13.24" height="19.47" transform="translate(1125.42 1497.85) rotate(180)"/></g><rect id="_矩形_78" data-name="&lt;矩形&gt;" class="cls-12" x="560.37" y="731.03" width="4.74" height="14.67" transform="translate(1301.11 175.63) rotate(90)"/><rect id="_矩形_79" data-name="&lt;矩形&gt;" class="cls-12" x="560.37" y="752.1" width="4.74" height="14.67" transform="translate(1322.17 196.7) rotate(90)"/></g><g id="_编组_37" data-name="&lt;编组&gt;"><rect id="_矩形_80" data-name="&lt;矩形&gt;" class="cls-10" x="344.32" y="936.98" width="17.32" height="13.51" transform="translate(1296.71 590.75) rotate(90)"/><rect id="_矩形_81" data-name="&lt;矩形&gt;" class="cls-10" x="317.41" y="936.98" width="17.32" height="13.51" transform="translate(1269.8 617.66) rotate(90)"/><g id="_编组_38" data-name="&lt;编组&gt;"><rect id="_矩形_82" data-name="&lt;矩形&gt;" class="cls-11" x="332.96" y="934" width="13.24" height="19.47" transform="translate(1283.31 604.15) rotate(90)"/></g><rect id="_矩形_83" data-name="&lt;矩形&gt;" class="cls-12" x="326.65" y="936.37" width="4.74" height="14.67"/><rect id="_矩形_84" data-name="&lt;矩形&gt;" class="cls-12" x="347.72" y="936.37" width="4.74" height="14.67"/></g><g id="_编组_39" data-name="&lt;编组&gt;"><rect id="_矩形_85" data-name="&lt;矩形&gt;" class="cls-10" x="279.94" y="967.78" width="17.32" height="13.51" transform="translate(1263.13 685.94) rotate(90)"/><rect id="_矩形_86" data-name="&lt;矩形&gt;" class="cls-10" x="253.02" y="967.78" width="17.32" height="13.51" transform="translate(1236.21 712.85) rotate(90)"/><g id="_编组_40" data-name="&lt;编组&gt;"><rect id="_矩形_87" data-name="&lt;矩形&gt;" class="cls-11" x="268.58" y="964.8" width="13.24" height="19.47" transform="translate(1249.73 699.34) rotate(90)"/></g><rect id="_矩形_88" data-name="&lt;矩形&gt;" class="cls-12" x="262.27" y="967.17" width="4.74" height="14.67"/><rect id="_矩形_89" data-name="&lt;矩形&gt;" class="cls-12" x="283.33" y="967.17" width="4.74" height="14.67"/></g><g id="_编组_41" data-name="&lt;编组&gt;"><rect id="_矩形_90" data-name="&lt;矩形&gt;" class="cls-10" x="279.94" y="998.58" width="17.32" height="13.51" transform="translate(1293.93 716.74) rotate(90)"/><rect id="_矩形_91" data-name="&lt;矩形&gt;" class="cls-10" x="253.02" y="998.58" width="17.32" height="13.51" transform="translate(1267.01 743.65) rotate(90)"/><g id="_编组_42" data-name="&lt;编组&gt;"><rect id="_矩形_92" data-name="&lt;矩形&gt;" class="cls-11" x="268.58" y="995.6" width="13.24" height="19.47" transform="translate(1280.53 730.14) rotate(90)"/></g><rect id="_矩形_93" data-name="&lt;矩形&gt;" class="cls-12" x="262.27" y="997.97" width="4.74" height="14.67"/><rect id="_矩形_94" data-name="&lt;矩形&gt;" class="cls-12" x="283.33" y="997.97" width="4.74" height="14.67"/></g><g id="_编组_43" data-name="&lt;编组&gt;"><rect id="_矩形_95" data-name="&lt;矩形&gt;" class="cls-13" x="722.41" y="1001.96" width="12.99" height="24.54" transform="translate(-285.32 1743.13) rotate(-90)"/><rect id="_矩形_96" data-name="&lt;矩形&gt;" class="cls-13" x="722.41" y="969.31" width="12.99" height="24.54" transform="translate(-252.67 1710.48) rotate(-90)"/><rect id="_矩形_97" data-name="&lt;矩形&gt;" class="cls-13" x="766.96" y="985.63" width="12.99" height="24.54" transform="translate(-224.45 1771.36) rotate(-90)"/><rect id="_矩形_98" data-name="&lt;矩形&gt;" class="cls-14" x="720" y="983.57" width="62.93" height="28.67" transform="translate(-246.44 1749.37) rotate(-90)"/><polyline id="_路径_3" data-name="&lt;路径&gt;" class="cls-15" points="752.33 1030.14 766.67 1030.14 766.67 1020.77"/><polyline id="_路径_4" data-name="&lt;路径&gt;" class="cls-15" points="752.33 965.77 766.67 965.77 766.67 975.13"/><rect id="_矩形_99" data-name="&lt;矩形&gt;" class="cls-16" x="726.16" y="1008.49" width="10.46" height="11.48" transform="translate(-282.84 1745.62) rotate(-90)"/><rect id="_矩形_100" data-name="&lt;矩形&gt;" class="cls-16" x="726.16" y="975.84" width="10.46" height="11.48" transform="translate(-250.19 1712.97) rotate(-90)"/><rect id="_矩形_101" data-name="&lt;矩形&gt;" class="cls-16" x="766.32" y="992.16" width="10.46" height="11.48" transform="translate(-226.36 1769.45) rotate(-90)"/><rect id="_矩形_102" data-name="&lt;矩形&gt;" class="cls-17" x="728.76" y="1013.62" width="10.46" height="1.22" transform="translate(-280.24 1748.22) rotate(-90)"/><rect id="_矩形_103" data-name="&lt;矩形&gt;" class="cls-17" x="728.76" y="980.97" width="10.46" height="1.22" transform="translate(-247.59 1715.57) rotate(-90)"/><rect id="_矩形_104" data-name="&lt;矩形&gt;" class="cls-17" x="763.62" y="997.29" width="10.46" height="1.22" transform="translate(-229.05 1766.75) rotate(-90)"/></g><g id="_编组_44" data-name="&lt;编组&gt;"><rect id="_矩形_105" data-name="&lt;矩形&gt;" class="cls-18" x="266.54" y="921.95" width="17.32" height="43.57" transform="translate(-668.54 1218.93) rotate(-90)"/><rect id="_矩形_106" data-name="&lt;矩形&gt;" class="cls-19" x="266.18" y="928.84" width="16.71" height="29.78" transform="translate(-669.2 1218.26) rotate(-90)"/><polygon id="_路径_5" data-name="&lt;路径&gt;" class="cls-20" points="265.02 952.02 284.21 952.02 284.21 935.44 265.02 935.44 265.02 938.83 265.72 938.83 265.72 949.21 265.02 949.21 265.02 952.02"/></g><g id="_编组_45" data-name="&lt;编组&gt;"><rect id="_矩形_107" data-name="&lt;矩形&gt;" class="cls-18" x="330.92" y="952.72" width="17.32" height="43.57" transform="translate(-634.92 1314.08) rotate(-90)"/><rect id="_矩形_108" data-name="&lt;矩形&gt;" class="cls-19" x="330.56" y="959.61" width="16.71" height="29.78" transform="translate(-635.59 1313.42) rotate(-90)"/><polygon id="_路径_6" data-name="&lt;路径&gt;" class="cls-20" points="329.4 982.8 348.6 982.8 348.6 966.21 329.4 966.21 329.4 969.6 330.11 969.6 330.11 979.98 329.4 979.98 329.4 982.8"/></g><g id="_编组_46" data-name="&lt;编组&gt;"><rect id="_矩形_109" data-name="&lt;矩形&gt;" class="cls-18" x="330.92" y="860.35" width="17.32" height="43.57" transform="translate(-542.55 1221.71) rotate(-90)"/><rect id="_矩形_110" data-name="&lt;矩形&gt;" class="cls-19" x="330.56" y="867.24" width="16.71" height="29.78" transform="translate(-543.21 1221.05) rotate(-90)"/><polygon id="_路径_7" data-name="&lt;路径&gt;" class="cls-20" points="329.4 890.42 348.6 890.42 348.6 873.84 329.4 873.84 329.4 877.23 330.11 877.23 330.11 887.61 329.4 887.61 329.4 890.42"/></g><g id="_编组_47" data-name="&lt;编组&gt;"><rect id="_矩形_111" data-name="&lt;矩形&gt;" class="cls-10" x="613.68" y="906.18" width="17.32" height="13.51" transform="translate(1535.27 290.59) rotate(90)"/><rect id="_矩形_112" data-name="&lt;矩形&gt;" class="cls-10" x="586.77" y="906.18" width="17.32" height="13.51" transform="translate(1508.36 317.5) rotate(90)"/><g id="_编组_48" data-name="&lt;编组&gt;"><rect id="_矩形_113" data-name="&lt;矩形&gt;" class="cls-11" x="602.32" y="903.2" width="13.24" height="19.47" transform="translate(1521.87 303.99) rotate(90)"/></g><rect id="_矩形_114" data-name="&lt;矩形&gt;" class="cls-12" x="596.01" y="905.57" width="4.74" height="14.67"/><rect id="_矩形_115" data-name="&lt;矩形&gt;" class="cls-12" x="617.08" y="905.57" width="4.74" height="14.67"/></g><g id="_编组_49" data-name="&lt;编组&gt;"><rect id="_矩形_116" data-name="&lt;矩形&gt;" class="cls-18" x="600.28" y="860.35" width="17.32" height="43.57" transform="translate(-273.19 1491.07) rotate(-90)"/><rect id="_矩形_117" data-name="&lt;矩形&gt;" class="cls-19" x="599.92" y="867.24" width="16.71" height="29.78" transform="translate(-273.85 1490.41) rotate(-90)"/><polygon id="_路径_8" data-name="&lt;路径&gt;" class="cls-20" points="598.77 890.42 617.96 890.42 617.96 873.84 598.77 873.84 598.77 877.23 599.47 877.23 599.47 887.61 598.77 887.61 598.77 890.42"/></g><g id="_编组_50" data-name="&lt;编组&gt;"><rect id="_矩形_118" data-name="&lt;矩形&gt;" class="cls-10" x="613.68" y="967.78" width="17.32" height="13.51" transform="translate(1596.87 352.19) rotate(90)"/><rect id="_矩形_119" data-name="&lt;矩形&gt;" class="cls-10" x="586.77" y="967.78" width="17.32" height="13.51" transform="translate(1569.96 379.1) rotate(90)"/><g id="_编组_51" data-name="&lt;编组&gt;"><rect id="_矩形_120" data-name="&lt;矩形&gt;" class="cls-11" x="602.32" y="964.8" width="13.24" height="19.47" transform="translate(1583.47 365.59) rotate(90)"/></g><rect id="_矩形_121" data-name="&lt;矩形&gt;" class="cls-12" x="596.01" y="967.17" width="4.74" height="14.67"/><rect id="_矩形_122" data-name="&lt;矩形&gt;" class="cls-12" x="617.08" y="967.17" width="4.74" height="14.67"/></g><g id="_编组_52" data-name="&lt;编组&gt;"><rect id="_矩形_123" data-name="&lt;矩形&gt;" class="cls-10" x="677.63" y="938.2" width="17.32" height="13.51" transform="translate(1631.25 258.67) rotate(90)"/><rect id="_矩形_124" data-name="&lt;矩形&gt;" class="cls-10" x="650.72" y="938.2" width="17.32" height="13.51" transform="translate(1604.33 285.58) rotate(90)"/><g id="_编组_53" data-name="&lt;编组&gt;"><rect id="_矩形_125" data-name="&lt;矩形&gt;" class="cls-11" x="666.27" y="935.22" width="13.24" height="19.47" transform="translate(1617.84 272.07) rotate(90)"/></g><rect id="_矩形_126" data-name="&lt;矩形&gt;" class="cls-12" x="659.96" y="937.6" width="4.74" height="14.67"/><rect id="_矩形_127" data-name="&lt;矩形&gt;" class="cls-12" x="681.02" y="937.6" width="4.74" height="14.67"/></g><g id="_编组_54" data-name="&lt;编组&gt;"><rect id="_矩形_128" data-name="&lt;矩形&gt;" class="cls-10" x="677.63" y="970.15" width="17.32" height="13.51" transform="translate(1663.2 290.62) rotate(90)"/><rect id="_矩形_129" data-name="&lt;矩形&gt;" class="cls-10" x="650.72" y="970.15" width="17.32" height="13.51" transform="translate(1636.28 317.53) rotate(90)"/><g id="_编组_55" data-name="&lt;编组&gt;"><rect id="_矩形_130" data-name="&lt;矩形&gt;" class="cls-11" x="666.27" y="967.17" width="13.24" height="19.47" transform="translate(1649.79 304.02) rotate(90)"/></g><rect id="_矩形_131" data-name="&lt;矩形&gt;" class="cls-12" x="659.96" y="969.55" width="4.74" height="14.67"/><rect id="_矩形_132" data-name="&lt;矩形&gt;" class="cls-12" x="681.02" y="969.55" width="4.74" height="14.67"/></g><g id="_编组_56" data-name="&lt;编组&gt;"><rect id="_矩形_133" data-name="&lt;矩形&gt;" class="cls-10" x="677.63" y="1000.11" width="17.32" height="13.51" transform="translate(1693.15 320.58) rotate(90)"/><rect id="_矩形_134" data-name="&lt;矩形&gt;" class="cls-10" x="650.72" y="1000.11" width="17.32" height="13.51" transform="translate(1666.24 347.49) rotate(90)"/><g id="_编组_57" data-name="&lt;编组&gt;"><rect id="_矩形_135" data-name="&lt;矩形&gt;" class="cls-11" x="666.27" y="997.13" width="13.24" height="19.47" transform="translate(1679.75 333.98) rotate(90)"/></g><rect id="_矩形_136" data-name="&lt;矩形&gt;" class="cls-12" x="659.96" y="999.5" width="4.74" height="14.67"/><rect id="_矩形_137" data-name="&lt;矩形&gt;" class="cls-12" x="681.02" y="999.5" width="4.74" height="14.67"/></g><g id="_编组_58" data-name="&lt;编组&gt;"><rect id="_矩形_138" data-name="&lt;矩形&gt;" class="cls-18" x="600.28" y="921.95" width="17.32" height="43.57" transform="translate(-334.79 1552.67) rotate(-90)"/><rect id="_矩形_139" data-name="&lt;矩形&gt;" class="cls-19" x="599.92" y="928.84" width="16.71" height="29.78" transform="translate(-335.45 1552.01) rotate(-90)"/><polygon id="_路径_9" data-name="&lt;路径&gt;" class="cls-20" points="598.77 952.02 617.96 952.02 617.96 935.44 598.77 935.44 598.77 938.83 599.47 938.83 599.47 949.21 598.77 949.21 598.77 952.02"/></g><g id="_编组_59" data-name="&lt;编组&gt;"><rect id="_矩形_140" data-name="&lt;矩形&gt;" class="cls-18" x="664.17" y="1015.04" width="17.32" height="43.57" transform="translate(-363.99 1709.66) rotate(-90)"/><rect id="_矩形_141" data-name="&lt;矩形&gt;" class="cls-19" x="663.82" y="1021.94" width="16.71" height="29.78" transform="translate(-364.66 1709) rotate(-90)"/><polygon id="_路径_10" data-name="&lt;路径&gt;" class="cls-20" points="662.66 1045.12 681.85 1045.12 681.85 1028.53 662.66 1028.53 662.66 1031.92 663.36 1031.92 663.36 1042.31 662.66 1042.31 662.66 1045.12"/></g><g id="_编组_60" data-name="&lt;编组&gt;"><rect id="_矩形_142" data-name="&lt;矩形&gt;" class="cls-18" x="45.19" y="928.33" width="17.32" height="43.57"/><rect id="_矩形_143" data-name="&lt;矩形&gt;" class="cls-19" x="45.49" y="934.56" width="16.71" height="29.78"/><polygon id="_路径_11" data-name="&lt;路径&gt;" class="cls-20" points="45.56 939.94 45.56 959.13 62.14 959.13 62.14 939.94 58.75 939.94 58.75 940.64 48.37 940.64 48.37 939.94 45.56 939.94"/></g><g id="_编组_61" data-name="&lt;编组&gt;"><rect id="_矩形_144" data-name="&lt;矩形&gt;" class="cls-18" x="75.88" y="928.33" width="17.32" height="43.57"/><rect id="_矩形_145" data-name="&lt;矩形&gt;" class="cls-19" x="76.19" y="934.56" width="16.71" height="29.78"/><polygon id="_路径_12" data-name="&lt;路径&gt;" class="cls-20" points="76.25 939.94 76.25 959.13 92.83 959.13 92.83 939.94 89.44 939.94 89.44 940.64 79.06 940.64 79.06 939.94 76.25 939.94"/></g><g id="_编组_62" data-name="&lt;编组&gt;"><rect id="_矩形_146" data-name="&lt;矩形&gt;" class="cls-18" x="45.19" y="1002.26" width="17.32" height="13.51"/><rect id="_矩形_147" data-name="&lt;矩形&gt;" class="cls-18" x="45.19" y="1029.17" width="17.32" height="13.51"/><g id="_编组_63" data-name="&lt;编组&gt;"><path id="_路径_13" data-name="&lt;路径&gt;" class="cls-21" d="M58.51,1006.92a4.66,4.66,0,1,1-9.32,0H46.4v8.85H61.29v-8.85Z"/><path id="_路径_14" data-name="&lt;路径&gt;" class="cls-21" d="M49.19,1038a4.66,4.66,0,1,1,9.32,0h2.79v-8.85H46.4V1038Z"/><rect id="_矩形_148" data-name="&lt;矩形&gt;" class="cls-22" x="47.23" y="1012.68" width="13.24" height="19.47"/></g></g><g id="_编组_64" data-name="&lt;编组&gt;"><rect id="_矩形_149" data-name="&lt;矩形&gt;" class="cls-18" x="75.88" y="1002.21" width="17.32" height="13.51"/><rect id="_矩形_150" data-name="&lt;矩形&gt;" class="cls-18" x="75.88" y="1029.12" width="17.32" height="13.51"/><g id="_编组_65" data-name="&lt;编组&gt;"><path id="_路径_15" data-name="&lt;路径&gt;" class="cls-23" d="M89.2,1006.87a4.66,4.66,0,1,1-9.32,0H77.1v8.85H92v-8.85Z"/><path id="_路径_16" data-name="&lt;路径&gt;" class="cls-23" d="M79.88,1038a4.66,4.66,0,1,1,9.32,0H92v-8.85H77.1V1038Z"/><rect id="_矩形_151" data-name="&lt;矩形&gt;" class="cls-23" x="77.92" y="1012.63" width="13.24" height="19.47"/></g></g><path class="cls-6" d="M544.17,467.16a70.78,70.78,0,0,1-20.82,50.18l13.43,13.43a89.86,89.86,0,0,0,0-127.22L523.35,417A70.78,70.78,0,0,1,544.17,467.16Z"/><path class="cls-6" d="M402.17,467.16A70.78,70.78,0,0,1,423,417l-13.43-13.43a89.86,89.86,0,0,0,0,127.22L423,517.34A70.78,70.78,0,0,1,402.17,467.16Z"/><path class="cls-6" d="M356.4,467.16a116.41,116.41,0,0,1,34.24-82.53L377.21,371.2a135.56,135.56,0,0,0,0,191.92l13.43-13.43A116.41,116.41,0,0,1,356.4,467.16Z"/><path class="cls-6" d="M589.94,467.16a116.41,116.41,0,0,1-34.24,82.53l13.43,13.43a135.56,135.56,0,0,0,0-191.92L555.7,384.63A116.41,116.41,0,0,1,589.94,467.16Z"/><path class="cls-6" d="M634.58,467.16a160.91,160.91,0,0,1-47.33,114.08l13.43,13.43a180.12,180.12,0,0,0,0-255l-13.43,13.43A160.91,160.91,0,0,1,634.58,467.16Z"/><path class="cls-6" d="M311.76,467.16a160.91,160.91,0,0,1,47.33-114.08l-13.43-13.43a180.12,180.12,0,0,0,0,255l13.43-13.43A160.91,160.91,0,0,1,311.76,467.16Z"/><path class="cls-6" d="M458,451.95a21.51,21.51,0,0,0,0,30.42l15.21-15.21Z"/><path class="cls-6" d="M488.38,482.37a21.51,21.51,0,0,0,0-30.42l-15.21,15.21Z"/><path class="cls-6" d="M473.17,445.64a21.45,21.45,0,0,0-15.21,6.3l15.21,15.21,15.21-15.21A21.45,21.45,0,0,0,473.17,445.64Z"/><path class="cls-6" d="M458,482.37a21.51,21.51,0,0,0,30.42,0l-15.21-15.21Z"/><rect class="cls-24" x="136.59" y="866.63" width="90.5" height="223.5" rx="45.25" ry="45.25"/><rect class="cls-25" x="143.84" y="874.75" width="76" height="207.25" rx="38" ry="38"/><rect class="cls-26" x="143.93" y="874.84" width="75.82" height="207.07" rx="37.91" ry="37.91"/><rect class="cls-27" x="144.02" y="874.93" width="75.64" height="206.89" rx="37.82" ry="37.82"/><rect class="cls-28" x="144.11" y="875.02" width="75.46" height="206.71" rx="37.73" ry="37.73"/><rect class="cls-29" x="144.2" y="875.11" width="75.28" height="206.53" rx="37.64" ry="37.64"/><rect class="cls-30" x="144.29" y="875.2" width="75.1" height="206.36" rx="37.55" ry="37.55"/><rect class="cls-31" x="144.38" y="875.29" width="74.92" height="206.18" rx="37.46" ry="37.46"/><rect class="cls-32" x="144.47" y="875.38" width="74.74" height="206" rx="37.37" ry="37.37"/><rect class="cls-33" x="144.56" y="875.47" width="74.56" height="205.82" rx="37.28" ry="37.28"/><rect class="cls-34" x="144.65" y="875.56" width="74.38" height="205.64" rx="37.19" ry="37.19"/><rect class="cls-35" x="144.74" y="875.65" width="74.2" height="205.46" rx="37.1" ry="37.1"/><rect class="cls-36" x="144.83" y="875.74" width="74.02" height="205.28" rx="37.01" ry="37.01"/><rect class="cls-37" x="144.92" y="875.83" width="73.85" height="205.1" rx="36.92" ry="36.92"/><rect class="cls-38" x="145.01" y="875.92" width="73.67" height="204.92" rx="36.83" ry="36.83"/><rect class="cls-39" x="145.1" y="876.01" width="73.49" height="204.75" rx="36.74" ry="36.74"/><rect class="cls-40" x="145.19" y="876.09" width="73.31" height="204.57" rx="36.65" ry="36.65"/><rect class="cls-41" x="145.28" y="876.18" width="73.13" height="204.39" rx="36.56" ry="36.56"/><rect class="cls-42" x="145.37" y="876.27" width="72.95" height="204.21" rx="36.47" ry="36.47"/><rect class="cls-42" x="145.46" y="876.36" width="72.77" height="204.03" rx="36.38" ry="36.38"/><rect class="cls-43" x="145.55" y="876.45" width="72.59" height="203.85" rx="36.29" ry="36.29"/><rect class="cls-44" x="145.63" y="876.54" width="72.41" height="203.67" rx="36.2" ry="36.2"/><rect class="cls-45" x="145.72" y="876.63" width="72.23" height="203.49" rx="36.11" ry="36.11"/><rect class="cls-46" x="145.81" y="876.72" width="72.05" height="203.31" rx="36.02" ry="36.02"/><rect class="cls-47" x="145.9" y="876.81" width="71.87" height="203.13" rx="35.93" ry="35.93"/><rect class="cls-48" x="145.99" y="876.9" width="71.69" height="202.96" rx="35.85" ry="35.85"/><rect class="cls-49" x="146.08" y="876.99" width="71.51" height="202.78" rx="35.76" ry="35.76"/><rect class="cls-50" x="146.17" y="877.08" width="71.33" height="202.6" rx="35.67" ry="35.67"/><rect class="cls-51" x="146.26" y="877.17" width="71.15" height="202.42" rx="35.58" ry="35.58"/><rect class="cls-52" x="146.35" y="877.26" width="70.97" height="202.24" rx="35.49" ry="35.49"/><rect class="cls-53" x="146.44" y="877.35" width="70.79" height="202.06" rx="35.4" ry="35.4"/><rect class="cls-54" x="146.53" y="877.44" width="70.61" height="201.88" rx="35.31" ry="35.31"/><rect class="cls-55" x="146.62" y="877.53" width="70.43" height="201.7" rx="35.22" ry="35.22"/><rect class="cls-56" x="146.71" y="877.62" width="70.25" height="201.52" rx="35.13" ry="35.13"/><rect class="cls-57" x="146.8" y="877.7" width="70.07" height="201.35" rx="35.04" ry="35.04"/><rect class="cls-24" x="146.89" y="877.79" width="69.89" height="201.17" rx="34.95" ry="34.95"/><rect id="_矩形_152" data-name="&lt;矩形&gt;" class="cls-58" x="469.19" y="950.47" width="8.4" height="113" rx="3.91" ry="3.91" transform="translate(-533.57 1480.36) rotate(-90)"/><rect id="_矩形_153" data-name="&lt;矩形&gt;" class="cls-58" x="469.19" y="940.45" width="8.4" height="113" rx="3.91" ry="3.91" transform="translate(-523.55 1470.34) rotate(-90)"/><rect id="_矩形_154" data-name="&lt;矩形&gt;" class="cls-58" x="469.19" y="930.43" width="8.4" height="113" rx="3.91" ry="3.91" transform="translate(-513.53 1460.32) rotate(-90)"/><rect id="_矩形_155" data-name="&lt;矩形&gt;" class="cls-58" x="469.19" y="920.41" width="8.4" height="113" rx="3.91" ry="3.91" transform="translate(-503.51 1450.3) rotate(-90)"/><rect id="_矩形_156" data-name="&lt;矩形&gt;" class="cls-58" x="469.19" y="910.39" width="8.4" height="113" rx="3.91" ry="3.91" transform="translate(-493.49 1440.28) rotate(-90)"/><rect id="_矩形_157" data-name="&lt;矩形&gt;" class="cls-58" x="469.19" y="900.37" width="8.4" height="113" rx="3.91" ry="3.91" transform="translate(-483.47 1430.26) rotate(-90)"/><rect id="_矩形_158" data-name="&lt;矩形&gt;" class="cls-58" x="469.19" y="890.35" width="8.4" height="113" rx="3.91" ry="3.91" transform="translate(-473.45 1420.24) rotate(-90)"/><rect id="_矩形_159" data-name="&lt;矩形&gt;" class="cls-58" x="469.19" y="880.33" width="8.4" height="113" rx="3.91" ry="3.91" transform="translate(-463.43 1410.22) rotate(-90)"/><rect id="_矩形_160" data-name="&lt;矩形&gt;" class="cls-59" x="504.06" y="915.88" width="8.4" height="110.42" rx="3.87" ry="3.87" transform="translate(1016.51 1942.18) rotate(180)"/><rect id="_矩形_161" data-name="&lt;矩形&gt;" class="cls-59" x="494.04" y="915.88" width="8.4" height="110.42" rx="3.87" ry="3.87" transform="translate(996.47 1942.18) rotate(180)"/><rect id="_矩形_162" data-name="&lt;矩形&gt;" class="cls-59" x="484.02" y="915.88" width="8.4" height="110.42" rx="3.87" ry="3.87" transform="translate(976.43 1942.18) rotate(180)"/><rect id="_矩形_163" data-name="&lt;矩形&gt;" class="cls-59" x="474" y="915.88" width="8.4" height="110.42" rx="3.87" ry="3.87" transform="translate(956.39 1942.18) rotate(180)"/><rect id="_矩形_164" data-name="&lt;矩形&gt;" class="cls-59" x="463.98" y="915.88" width="8.4" height="110.42" rx="3.87" ry="3.87" transform="translate(936.35 1942.18) rotate(180)"/><rect id="_矩形_165" data-name="&lt;矩形&gt;" class="cls-59" x="453.96" y="915.88" width="8.4" height="110.42" rx="3.87" ry="3.87" transform="translate(916.31 1942.18) rotate(180)"/><rect id="_矩形_166" data-name="&lt;矩形&gt;" class="cls-59" x="443.94" y="915.88" width="8.4" height="110.42" rx="3.87" ry="3.87" transform="translate(896.27 1942.18) rotate(180)"/><rect id="_矩形_167" data-name="&lt;矩形&gt;" class="cls-59" x="433.92" y="915.88" width="8.4" height="110.42" rx="3.87" ry="3.87" transform="translate(876.23 1942.18) rotate(180)"/><path id="_矩形_168" data-name="&lt;矩形&gt;" class="cls-60" d="M515.22,1019.57H431.15l-5.42-5.42v-84.5l5.42-5.42h84.08l5.42,5.42v84.5Z"/></g></g></svg>