<svg xmlns="http://www.w3.org/2000/svg" viewBox="0 0 442.89 928.09"><defs><style>.cls-1{fill:#353535;}.cls-2,.cls-3{fill:none;}.cls-11,.cls-19,.cls-3,.cls-5{stroke:#fff;}.cls-11,.cls-15,.cls-16,.cls-19,.cls-3,.cls-5{stroke-miterlimit:10;}.cls-3{stroke-width:3.31px;}.cls-4{fill:#f2cb6b;}.cls-5{fill:#d0ab3c;stroke-width:1.99px;}.cls-6{fill:#f0c581;}.cls-7{fill:#fff;}.cls-8{fill:#f4cb70;}.cls-9{fill:#c6c5c5;}.cls-10{fill:#c8a266;}.cls-11{fill:#9b9b9b;}.cls-11,.cls-15,.cls-16,.cls-19{stroke-width:0.66px;}.cls-12{fill:#d2d3d3;}.cls-13{fill:#030000;}.cls-14{fill:#bb8c27;}.cls-15{fill:#ff4a5c;stroke:#681216;}.cls-16{fill:#f99f46;stroke:#ef973f;}.cls-17{fill:#aaa;}.cls-18{fill:#e8e8e8;}.cls-19{fill:#e1b738;}.cls-20{fill:#ffffc1;}.cls-21{fill:#ccd3ef;}</style></defs><title>彩色led模块</title><g id="图层_2" data-name="图层 2"><g id="图层_1-2" data-name="图层 1"><path id="_复合路径_" data-name="&lt;复合路径&gt;" class="cls-1" d="M385,0h-327A57.92,57.92,0,0,0,0,57.92V870.17a57.92,57.92,0,0,0,57.92,57.92H385a57.92,57.92,0,0,0,57.92-57.92V57.92A57.92,57.92,0,0,0,385,0Zm13.12,549.87a6.37,6.37,0,1,1,0,9A6.37,6.37,0,0,1,398.09,549.87Zm-21.15-12.49a6.37,6.37,0,1,1-6.37,6.37A6.37,6.37,0,0,1,376.94,537.38Zm-30.15,12.49a6.37,6.37,0,1,1,0,9A6.37,6.37,0,0,1,346.79,549.87Zm-259.7,0a6.37,6.37,0,1,1,0,9A6.37,6.37,0,0,1,87.09,549.87ZM65.94,537.38a6.37,6.37,0,1,1-6.37,6.37A6.37,6.37,0,0,1,65.94,537.38ZM35.79,549.87a6.37,6.37,0,1,1,0,9A6.37,6.37,0,0,1,35.79,549.87ZM23.3,580a6.37,6.37,0,1,1,6.37,6.37A6.37,6.37,0,0,1,23.3,580Zm21.5,30.15a6.37,6.37,0,1,1,0-9A6.37,6.37,0,0,1,44.8,610.17Zm21.15,12.49a6.37,6.37,0,1,1,6.37-6.37A6.37,6.37,0,0,1,65.94,622.66Zm0-17A25.65,25.65,0,1,1,91.59,580,25.65,25.65,0,0,1,65.94,605.67Zm30.15,4.5a6.37,6.37,0,1,1,0-9A6.37,6.37,0,0,1,96.1,610.17Zm6.12-23.78a6.37,6.37,0,1,1,6.37-6.37A6.37,6.37,0,0,1,102.22,586.39ZM334.3,580a6.37,6.37,0,1,1,6.37,6.37A6.37,6.37,0,0,1,334.3,580Zm21.5,30.15a6.37,6.37,0,1,1,0-9A6.37,6.37,0,0,1,355.8,610.17Zm21.15,12.49a6.37,6.37,0,1,1,6.37-6.37A6.37,6.37,0,0,1,376.94,622.66Zm0-17A25.65,25.65,0,1,1,402.59,580,25.65,25.65,0,0,1,376.94,605.67Zm30.15,4.5a6.37,6.37,0,1,1,0-9A6.37,6.37,0,0,1,407.1,610.17Zm6.12-23.78a6.37,6.37,0,1,1,6.37-6.37A6.37,6.37,0,0,1,413.22,586.39Z"/><circle id="_路径_" data-name="&lt;路径&gt;" class="cls-2" cx="65.94" cy="580.02" r="24.19"/><circle id="_路径_2" data-name="&lt;路径&gt;" class="cls-3" cx="65.94" cy="580.02" r="48.21"/><circle id="_路径_3" data-name="&lt;路径&gt;" class="cls-3" cx="376.94" cy="580.02" r="48.21"/><path id="_复合路径_2" data-name="&lt;复合路径&gt;" class="cls-4" d="M376.94,531.66A48.37,48.37,0,1,0,425.31,580,48.42,48.42,0,0,0,376.94,531.66Zm21.15,18.21a6.37,6.37,0,1,1,0,9A6.37,6.37,0,0,1,398.09,549.87Zm-21.15-12.49a6.37,6.37,0,1,1-6.37,6.37A6.37,6.37,0,0,1,376.94,537.38Zm-30.15,12.49a6.37,6.37,0,1,1,0,9A6.37,6.37,0,0,1,346.79,549.87Zm-6.12,36.52A6.37,6.37,0,1,1,347,580,6.37,6.37,0,0,1,340.67,586.39Zm15.13,23.78a6.37,6.37,0,1,1,0-9A6.37,6.37,0,0,1,355.8,610.17Zm21.15,12.49a6.37,6.37,0,1,1,6.37-6.37A6.37,6.37,0,0,1,376.94,622.66Zm0-18.46A24.18,24.18,0,1,1,401.13,580,24.21,24.21,0,0,1,376.94,604.2Zm30.15,6a6.37,6.37,0,1,1,0-9A6.37,6.37,0,0,1,407.1,610.17Zm6.12-23.78a6.37,6.37,0,1,1,6.37-6.37A6.37,6.37,0,0,1,413.22,586.39Z"/><path id="_复合路径_3" data-name="&lt;复合路径&gt;" class="cls-4" d="M65.94,531.66A48.37,48.37,0,1,0,114.31,580,48.42,48.42,0,0,0,65.94,531.66Zm21.15,18.21a6.37,6.37,0,1,1,0,9A6.37,6.37,0,0,1,87.09,549.87ZM65.94,537.38a6.37,6.37,0,1,1-6.37,6.37A6.37,6.37,0,0,1,65.94,537.38ZM35.79,549.87a6.37,6.37,0,1,1,0,9A6.37,6.37,0,0,1,35.79,549.87Zm-6.12,36.52A6.37,6.37,0,1,1,36,580,6.37,6.37,0,0,1,29.67,586.39ZM44.8,610.17a6.37,6.37,0,1,1,0-9A6.37,6.37,0,0,1,44.8,610.17Zm21.15,12.49a6.37,6.37,0,1,1,6.37-6.37A6.37,6.37,0,0,1,65.94,622.66Zm0-18.46A24.18,24.18,0,1,1,90.13,580,24.21,24.21,0,0,1,65.94,604.2Zm30.15,6a6.37,6.37,0,1,1,0-9A6.37,6.37,0,0,1,96.1,610.17Zm6.12-23.78a6.37,6.37,0,1,1,6.37-6.37A6.37,6.37,0,0,1,102.22,586.39Z"/><g id="_编组_" data-name="&lt;编组&gt;"><g id="_编组_2" data-name="&lt;编组&gt;"><rect id="_矩形_" data-name="&lt;矩形&gt;" class="cls-5" x="172.7" y="762.05" width="18.53" height="56.47"/><rect id="_矩形_2" data-name="&lt;矩形&gt;" class="cls-6" x="176.83" y="767.06" width="10.26" height="52.94" rx="5.13" ry="5.13"/></g><g id="_编组_3" data-name="&lt;编组&gt;"><rect id="_矩形_3" data-name="&lt;矩形&gt;" class="cls-5" x="212.18" y="762.05" width="18.53" height="56.47"/><rect id="_矩形_4" data-name="&lt;矩形&gt;" class="cls-6" x="216.32" y="767.06" width="10.26" height="52.94" rx="5.13" ry="5.13"/></g><g id="_编组_4" data-name="&lt;编组&gt;"><rect id="_矩形_5" data-name="&lt;矩形&gt;" class="cls-5" x="251.67" y="762.05" width="18.53" height="56.47"/><rect id="_矩形_6" data-name="&lt;矩形&gt;" class="cls-6" x="255.8" y="767.06" width="10.26" height="52.94" rx="5.13" ry="5.13"/></g><rect id="_矩形_7" data-name="&lt;矩形&gt;" class="cls-7" x="124.83" y="809.75" width="193.24" height="114.27"/><rect id="_矩形_8" data-name="&lt;矩形&gt;" class="cls-8" x="176.83" y="831.15" width="10.26" height="71.47"/><rect id="_矩形_9" data-name="&lt;矩形&gt;" class="cls-8" x="255.8" y="831.15" width="10.26" height="71.47"/><rect id="_矩形_10" data-name="&lt;矩形&gt;" class="cls-9" x="124.83" y="777.32" width="18.53" height="32.43"/><rect id="_矩形_11" data-name="&lt;矩形&gt;" class="cls-9" x="299.53" y="777.32" width="18.53" height="32.43"/><rect id="_矩形_12" data-name="&lt;矩形&gt;" class="cls-9" x="159.24" y="924.01" width="124.41" height="4.08" rx="2.04" ry="2.04"/><rect id="_矩形_13" data-name="&lt;矩形&gt;" class="cls-10" x="176.83" y="790.14" width="10.26" height="6.78"/><rect id="_矩形_14" data-name="&lt;矩形&gt;" class="cls-10" x="216.32" y="790.14" width="10.26" height="6.78"/><rect id="_矩形_15" data-name="&lt;矩形&gt;" class="cls-10" x="255.8" y="790.14" width="10.26" height="6.78"/></g><g id="_编组_5" data-name="&lt;编组&gt;"><path id="_复合路径_4" data-name="&lt;复合路径&gt;" class="cls-7" d="M213.48,745.32l14-5v0l-14-5v-1.88l16.21,5.91v1.95l-16.21,5.87Z"/><path id="_复合路径_5" data-name="&lt;复合路径&gt;" class="cls-7" d="M213.08,725c0-3.68,2.06-5.69,4.23-6.42l.29,1.75a4.67,4.67,0,0,0-3,4.67c0,3.28,2.3,5.45,7,5.45,4.25,0,7-2.21,7-5.45a4.82,4.82,0,0,0-3.21-4.87l.27-1.68a6.42,6.42,0,0,1,4.52,6.55c0,4.69-3.79,7.15-8.55,7.15S213.08,730,213.08,725Z"/><path id="_复合路径_6" data-name="&lt;复合路径&gt;" class="cls-7" d="M213.08,709.18c0-3.68,2.06-5.69,4.23-6.42l.29,1.75a4.67,4.67,0,0,0-3,4.67c0,3.28,2.3,5.45,7,5.45,4.25,0,7-2.21,7-5.45a4.82,4.82,0,0,0-3.21-4.87l.27-1.68a6.42,6.42,0,0,1,4.52,6.55c0,4.69-3.79,7.15-8.55,7.15S213.08,714.25,213.08,709.18Z"/></g><g id="_编组_6" data-name="&lt;编组&gt;"><path id="_复合路径_7" data-name="&lt;复合路径&gt;" class="cls-7" d="M252.26,740.8c0-4.1,2.35-5.6,4.47-6.51l.29,1.79a4.77,4.77,0,0,0-3.23,4.72c0,3.34,2.86,5.71,7,5.71,4.25,0,7-2.46,7-5.49a5.57,5.57,0,0,0-4.19-5.31h-1.75v4.94h-1.55V734h8.64v1.55h-3.32a6.14,6.14,0,0,1,3.74,5.69c0,3.61-3.08,7-8.55,7C255.67,748.22,252.26,745.19,252.26,740.8Z"/><path id="_复合路径_8" data-name="&lt;复合路径&gt;" class="cls-7" d="M252.66,728.47,266.12,719v0H252.66v-1.71h16.21v1.79l-13.46,9.43,0,0h13.49v1.73H252.66Z"/><path id="_复合路径_9" data-name="&lt;复合路径&gt;" class="cls-7" d="M252.66,707.55c0-5.29,4.19-7.17,8.08-7.17,4.65,0,8.13,2.3,8.13,7.48v5.58H252.66Zm14.68,4.16v-3.9c0-3.23-2.15-5.74-6.6-5.74-3.08,0-6.55,1.51-6.55,5.78v3.85Z"/></g><g id="_编组_7" data-name="&lt;编组&gt;"><path id="_复合路径_10" data-name="&lt;复合路径&gt;" class="cls-7" d="M173.86,745.43h16.21v1.73H173.86Z"/><path id="_复合路径_11" data-name="&lt;复合路径&gt;" class="cls-7" d="M173.86,739.81l13.46-9.48v0H173.86V728.6h16.21v1.79l-13.46,9.43,0,0h13.49v1.73H173.86Z"/></g><g id="_编组_8" data-name="&lt;编组&gt;"><rect id="_矩形_16" data-name="&lt;矩形&gt;" class="cls-11" x="46.66" y="684.07" width="17.32" height="43.57"/><rect id="_矩形_17" data-name="&lt;矩形&gt;" class="cls-12" x="46.97" y="690.3" width="16.71" height="29.78"/><polygon id="_路径_4" data-name="&lt;路径&gt;" class="cls-13" points="47.03 695.68 47.03 714.87 63.62 714.87 63.62 695.68 60.22 695.68 60.22 696.38 49.84 696.38 49.84 695.68 47.03 695.68"/></g><g id="_编组_9" data-name="&lt;编组&gt;"><rect id="_矩形_18" data-name="&lt;矩形&gt;" class="cls-11" x="46.66" y="737.4" width="17.32" height="13.51"/><rect id="_矩形_19" data-name="&lt;矩形&gt;" class="cls-11" x="46.66" y="764.31" width="17.32" height="13.51"/><g id="_编组_10" data-name="&lt;编组&gt;"><path id="_路径_5" data-name="&lt;路径&gt;" class="cls-14" d="M60,742.06a4.66,4.66,0,1,1-9.32,0H47.88v8.85H62.77v-8.85Z"/><path id="_路径_6" data-name="&lt;路径&gt;" class="cls-14" d="M50.66,773.16a4.66,4.66,0,1,1,9.32,0h2.79v-8.85H47.88v8.85Z"/><rect id="_矩形_20" data-name="&lt;矩形&gt;" class="cls-15" x="48.7" y="747.82" width="13.24" height="19.47"/></g></g><g id="_编组_11" data-name="&lt;编组&gt;"><rect id="_矩形_21" data-name="&lt;矩形&gt;" class="cls-11" x="212.79" y="559.59" width="17.32" height="13.51"/><rect id="_矩形_22" data-name="&lt;矩形&gt;" class="cls-11" x="212.79" y="586.5" width="17.32" height="13.51"/><g id="_编组_12" data-name="&lt;编组&gt;"><rect id="_矩形_23" data-name="&lt;矩形&gt;" class="cls-16" x="214.83" y="570.01" width="13.24" height="19.47"/></g><rect id="_矩形_24" data-name="&lt;矩形&gt;" class="cls-17" x="219.05" y="582.97" width="4.74" height="14.67" transform="translate(-368.89 811.72) rotate(-90)"/><rect id="_矩形_25" data-name="&lt;矩形&gt;" class="cls-17" x="219.05" y="561.9" width="4.74" height="14.67" transform="translate(-347.82 790.66) rotate(-90)"/></g><g id="_编组_13" data-name="&lt;编组&gt;"><g id="_编组_14" data-name="&lt;编组&gt;"><rect id="_矩形_26" data-name="&lt;矩形&gt;" class="cls-18" x="94.97" y="297.11" width="8.6" height="98.27" rx="4.3" ry="4.3" transform="translate(445.52 246.98) rotate(90)"/><g id="_编组_15" data-name="&lt;编组&gt;"><rect id="_矩形_27" data-name="&lt;矩形&gt;" class="cls-18" x="94.97" y="202.7" width="8.6" height="98.27" rx="4.3" ry="4.3" transform="translate(351.1 152.57) rotate(90)"/><g id="_编组_16" data-name="&lt;编组&gt;"><rect id="_矩形_28" data-name="&lt;矩形&gt;" class="cls-19" x="89.34" y="204.13" width="18.86" height="133.68" transform="translate(369.74 172.2) rotate(90)"/><rect id="_矩形_29" data-name="&lt;矩形&gt;" class="cls-19" x="89.34" y="260.27" width="18.86" height="133.68" transform="translate(425.88 228.34) rotate(90)"/></g><rect id="_矩形_30" data-name="&lt;矩形&gt;" class="cls-7" x="52.28" y="252.06" width="94.41" height="93.97" transform="translate(398.53 199.56) rotate(90)"/><circle id="_路径_7" data-name="&lt;路径&gt;" class="cls-20" cx="99.49" cy="299.04" r="37.5"/><rect id="_矩形_31" data-name="&lt;矩形&gt;" class="cls-21" x="140.19" y="269.93" width="16.76" height="4.19" transform="translate(420.59 123.45) rotate(90)"/><rect id="_矩形_32" data-name="&lt;矩形&gt;" class="cls-21" x="140.19" y="323.97" width="16.76" height="4.19" transform="translate(474.63 177.5) rotate(90)"/><rect id="_矩形_33" data-name="&lt;矩形&gt;" class="cls-21" x="42.02" y="269.93" width="16.76" height="4.19" transform="translate(322.43 221.62) rotate(90)"/><rect id="_矩形_34" data-name="&lt;矩形&gt;" class="cls-21" x="42.02" y="323.97" width="16.76" height="4.19" transform="translate(376.47 275.66) rotate(90)"/><rect id="_矩形_35" data-name="&lt;矩形&gt;" class="cls-18" x="134.13" y="297.84" width="26.72" height="2.4" rx="1.2" ry="1.2" transform="translate(446.54 151.55) rotate(90)"/><rect id="_矩形_36" data-name="&lt;矩形&gt;" class="cls-18" x="37.94" y="297.84" width="26.72" height="2.4" rx="1.2" ry="1.2" transform="translate(350.35 247.74) rotate(90)"/></g></g><g id="_编组_17" data-name="&lt;编组&gt;"><rect id="_矩形_37" data-name="&lt;矩形&gt;" class="cls-18" x="340.32" y="297.11" width="8.6" height="98.27" rx="4.3" ry="4.3" transform="translate(690.87 1.63) rotate(90)"/><g id="_编组_18" data-name="&lt;编组&gt;"><rect id="_矩形_38" data-name="&lt;矩形&gt;" class="cls-18" x="340.32" y="202.7" width="8.6" height="98.27" rx="4.3" ry="4.3" transform="translate(596.45 -92.78) rotate(90)"/><g id="_编组_19" data-name="&lt;编组&gt;"><rect id="_矩形_39" data-name="&lt;矩形&gt;" class="cls-19" x="334.69" y="204.13" width="18.86" height="133.68" transform="translate(615.09 -73.15) rotate(90)"/><rect id="_矩形_40" data-name="&lt;矩形&gt;" class="cls-19" x="334.69" y="260.27" width="18.86" height="133.68" transform="translate(671.23 -17.01) rotate(90)"/></g><rect id="_矩形_41" data-name="&lt;矩形&gt;" class="cls-7" x="297.63" y="252.06" width="94.41" height="93.97" transform="translate(643.88 -45.79) rotate(90)"/><circle id="_路径_8" data-name="&lt;路径&gt;" class="cls-20" cx="344.84" cy="299.04" r="37.5"/><rect id="_矩形_42" data-name="&lt;矩形&gt;" class="cls-21" x="385.54" y="269.93" width="16.76" height="4.19" transform="translate(665.94 -121.9) rotate(90)"/><rect id="_矩形_43" data-name="&lt;矩形&gt;" class="cls-21" x="385.54" y="323.97" width="16.76" height="4.19" transform="translate(719.98 -67.85) rotate(90)"/><rect id="_矩形_44" data-name="&lt;矩形&gt;" class="cls-21" x="287.37" y="269.93" width="16.76" height="4.19" transform="translate(567.78 -23.74) rotate(90)"/><rect id="_矩形_45" data-name="&lt;矩形&gt;" class="cls-21" x="287.37" y="323.97" width="16.76" height="4.19" transform="translate(621.82 30.31) rotate(90)"/><rect id="_矩形_46" data-name="&lt;矩形&gt;" class="cls-18" x="379.48" y="297.84" width="26.72" height="2.4" rx="1.2" ry="1.2" transform="translate(691.89 -93.8) rotate(90)"/><rect id="_矩形_47" data-name="&lt;矩形&gt;" class="cls-18" x="283.29" y="297.84" width="26.72" height="2.4" rx="1.2" ry="1.2" transform="translate(595.7 2.39) rotate(90)"/></g></g><g id="_编组_20" data-name="&lt;编组&gt;"><rect id="_矩形_48" data-name="&lt;矩形&gt;" class="cls-18" x="169.94" y="132.06" width="8.6" height="98.27" rx="4.3" ry="4.3" transform="translate(348.48 362.39) rotate(180)"/><g id="_编组_21" data-name="&lt;编组&gt;"><rect id="_矩形_49" data-name="&lt;矩形&gt;" class="cls-18" x="264.35" y="132.06" width="8.6" height="98.27" rx="4.3" ry="4.3" transform="translate(537.3 362.39) rotate(180)"/><g id="_编组_22" data-name="&lt;编组&gt;"><rect id="_矩形_50" data-name="&lt;矩形&gt;" class="cls-19" x="240.09" y="113.86" width="18.86" height="133.68" transform="translate(499.03 361.39) rotate(180)"/><rect id="_矩形_51" data-name="&lt;矩形&gt;" class="cls-19" x="183.95" y="113.86" width="18.86" height="133.68" transform="translate(386.75 361.39) rotate(180)"/></g><rect id="_矩形_52" data-name="&lt;矩形&gt;" class="cls-7" x="174.24" y="134.43" width="94.41" height="93.97" transform="translate(442.89 362.83) rotate(180)"/><circle id="_路径_9" data-name="&lt;路径&gt;" class="cls-20" cx="221.45" cy="181.41" r="37.5"/><rect id="_矩形_53" data-name="&lt;矩形&gt;" class="cls-21" x="240.09" y="228.4" width="16.76" height="4.19" transform="translate(496.94 460.99) rotate(180)"/><rect id="_矩形_54" data-name="&lt;矩形&gt;" class="cls-21" x="186.04" y="228.4" width="16.76" height="4.19" transform="translate(388.85 460.99) rotate(180)"/><rect id="_矩形_55" data-name="&lt;矩形&gt;" class="cls-21" x="240.09" y="130.24" width="16.76" height="4.19" transform="translate(496.94 264.67) rotate(180)"/><rect id="_矩形_56" data-name="&lt;矩形&gt;" class="cls-21" x="186.04" y="130.24" width="16.76" height="4.19" transform="translate(388.85 264.67) rotate(180)"/><rect id="_矩形_57" data-name="&lt;矩形&gt;" class="cls-18" x="208.09" y="228.22" width="26.72" height="2.4" rx="1.2" ry="1.2" transform="translate(442.89 458.84) rotate(-180)"/><rect id="_矩形_58" data-name="&lt;矩形&gt;" class="cls-18" x="208.09" y="132.03" width="26.72" height="2.4" rx="1.2" ry="1.2" transform="translate(442.89 266.46) rotate(180)"/></g></g><g id="_编组_23" data-name="&lt;编组&gt;"><rect id="_矩形_59" data-name="&lt;矩形&gt;" class="cls-18" x="169.94" y="377.09" width="8.6" height="98.27" rx="4.3" ry="4.3" transform="translate(348.48 852.45) rotate(-180)"/><g id="_编组_24" data-name="&lt;编组&gt;"><rect id="_矩形_60" data-name="&lt;矩形&gt;" class="cls-18" x="264.35" y="377.09" width="8.6" height="98.27" rx="4.3" ry="4.3" transform="translate(537.3 852.45) rotate(-180)"/><g id="_编组_25" data-name="&lt;编组&gt;"><rect id="_矩形_61" data-name="&lt;矩形&gt;" class="cls-19" x="240.09" y="358.89" width="18.86" height="133.68" transform="translate(499.03 851.46) rotate(180)"/><rect id="_矩形_62" data-name="&lt;矩形&gt;" class="cls-19" x="183.95" y="358.89" width="18.86" height="133.68" transform="translate(386.75 851.46) rotate(180)"/></g><rect id="_矩形_63" data-name="&lt;矩形&gt;" class="cls-7" x="174.24" y="379.46" width="94.41" height="93.97" transform="translate(442.89 852.9) rotate(180)"/><circle id="_路径_10" data-name="&lt;路径&gt;" class="cls-20" cx="221.45" cy="426.45" r="37.5"/><rect id="_矩形_64" data-name="&lt;矩形&gt;" class="cls-21" x="240.09" y="473.43" width="16.76" height="4.19" transform="translate(496.94 951.06) rotate(180)"/><rect id="_矩形_65" data-name="&lt;矩形&gt;" class="cls-21" x="186.04" y="473.43" width="16.76" height="4.19" transform="translate(388.85 951.06) rotate(180)"/><rect id="_矩形_66" data-name="&lt;矩形&gt;" class="cls-21" x="240.09" y="375.27" width="16.76" height="4.19" transform="translate(496.94 754.73) rotate(180)"/><rect id="_矩形_67" data-name="&lt;矩形&gt;" class="cls-21" x="186.04" y="375.27" width="16.76" height="4.19" transform="translate(388.85 754.73) rotate(180)"/><rect id="_矩形_68" data-name="&lt;矩形&gt;" class="cls-18" x="208.09" y="473.25" width="26.72" height="2.4" rx="1.2" ry="1.2" transform="translate(442.89 948.91) rotate(-180)"/><rect id="_矩形_69" data-name="&lt;矩形&gt;" class="cls-18" x="208.09" y="377.06" width="26.72" height="2.4" rx="1.2" ry="1.2" transform="translate(442.89 756.53) rotate(-180)"/></g></g></g></g></g></svg>