<svg xmlns="http://www.w3.org/2000/svg" xmlns:xlink="http://www.w3.org/1999/xlink" viewBox="0 0 442.89 928.09"><defs><style>.cls-1{fill:#353535;}.cls-14,.cls-2{fill:none;}.cls-10,.cls-14,.cls-2,.cls-23,.cls-4{stroke:#fff;}.cls-10,.cls-11,.cls-13,.cls-14,.cls-2,.cls-20,.cls-22,.cls-23,.cls-34,.cls-4{stroke-miterlimit:10;}.cls-2{stroke-width:3.31px;}.cls-3{fill:#f2cb6b;}.cls-4{fill:#d0ab3c;stroke-width:1.99px;}.cls-5{fill:#f0c581;}.cls-6{fill:#c8a266;}.cls-7{fill:#fff;}.cls-8{fill:#f4cb70;}.cls-9{fill:#c6c5c5;}.cls-10{fill:#9b9b9b;}.cls-10,.cls-11,.cls-13,.cls-14,.cls-20,.cls-22,.cls-23{stroke-width:0.66px;}.cls-11{fill:#f99f46;stroke:#ef973f;}.cls-12{fill:#aaa;}.cls-13{fill:#514f50;stroke:#494646;}.cls-15{fill:#c7c6c6;}.cls-16{fill:#a6a6a6;}.cls-17{fill:#d2d3d3;}.cls-18{fill:#030000;}.cls-19{fill:#bb8c27;}.cls-20{fill:#ff4a5c;stroke:#681216;}.cls-21{fill:#e7e887;}.cls-22{fill:#58b1f9;stroke:#122c4f;}.cls-23,.cls-29{fill:#e1b737;}.cls-24{fill:#ececec;}.cls-25{fill:#404040;}.cls-26{fill:#222;}.cls-27{fill:#c6c6c6;}.cls-28{fill:#a1a1a1;}.cls-30{fill:#bc7646;}.cls-31{fill:#a9871f;}.cls-32{fill:#f3c332;}.cls-33{fill:#cea229;}.cls-34{stroke:#898989;stroke-width:3px;fill:url(#未命名的渐变_55);}.cls-35,.cls-36{fill:#b5b5b5;}.cls-36{font-size:35.24px;font-family:AzoSans-Thin, Azo Sans;}</style><linearGradient id="未命名的渐变_55" x1="213.48" y1="165.92" x2="225.48" y2="191.92" gradientUnits="userSpaceOnUse"><stop offset="0" stop-color="#cfcfcf"/><stop offset="0.23" stop-color="#cbcbcb"/><stop offset="0.47" stop-color="#bfbfbf"/><stop offset="0.7" stop-color="#ababab"/><stop offset="0.92" stop-color="#909090"/><stop offset="1" stop-color="#858585"/></linearGradient></defs><title>时钟模块</title><g id="图层_2" data-name="图层 2"><g id="图层_1-2" data-name="图层 1"><path id="_复合路径_" data-name="&lt;复合路径&gt;" class="cls-1" d="M385,0h-327A57.92,57.92,0,0,0,0,57.92V870.17a57.92,57.92,0,0,0,57.92,57.92H385a57.92,57.92,0,0,0,57.92-57.92V57.92A57.92,57.92,0,0,0,385,0Zm13.12,549.87a6.37,6.37,0,1,1,0,9A6.37,6.37,0,0,1,398.09,549.87Zm-21.15-12.49a6.37,6.37,0,1,1-6.37,6.37A6.37,6.37,0,0,1,376.94,537.38Zm-30.15,12.49a6.37,6.37,0,1,1,0,9A6.37,6.37,0,0,1,346.79,549.87Zm-259.7,0a6.37,6.37,0,1,1,0,9A6.37,6.37,0,0,1,87.09,549.87ZM65.94,537.38a6.37,6.37,0,1,1-6.37,6.37A6.37,6.37,0,0,1,65.94,537.38ZM35.79,549.87a6.37,6.37,0,1,1,0,9A6.37,6.37,0,0,1,35.79,549.87ZM23.3,580a6.37,6.37,0,1,1,6.37,6.37A6.37,6.37,0,0,1,23.3,580Zm21.5,30.15a6.37,6.37,0,1,1,0-9A6.37,6.37,0,0,1,44.8,610.17Zm21.15,12.49a6.37,6.37,0,1,1,6.37-6.37A6.37,6.37,0,0,1,65.94,622.66Zm0-17A25.65,25.65,0,1,1,91.59,580,25.65,25.65,0,0,1,65.94,605.67Zm30.15,4.5a6.37,6.37,0,1,1,0-9A6.37,6.37,0,0,1,96.1,610.17Zm6.12-23.78a6.37,6.37,0,1,1,6.37-6.37A6.37,6.37,0,0,1,102.22,586.39ZM334.3,580a6.37,6.37,0,1,1,6.37,6.37A6.37,6.37,0,0,1,334.3,580Zm21.5,30.15a6.37,6.37,0,1,1,0-9A6.37,6.37,0,0,1,355.8,610.17Zm21.15,12.49a6.37,6.37,0,1,1,6.37-6.37A6.37,6.37,0,0,1,376.94,622.66Zm0-17A25.65,25.65,0,1,1,402.59,580,25.65,25.65,0,0,1,376.94,605.67Zm30.15,4.5a6.37,6.37,0,1,1,0-9A6.37,6.37,0,0,1,407.1,610.17Zm6.12-23.78a6.37,6.37,0,1,1,6.37-6.37A6.37,6.37,0,0,1,413.22,586.39Z"/><circle id="_路径_" data-name="&lt;路径&gt;" class="cls-2" cx="65.94" cy="580.02" r="48.21"/><circle id="_路径_2" data-name="&lt;路径&gt;" class="cls-2" cx="376.94" cy="580.02" r="48.21"/><path id="_复合路径_2" data-name="&lt;复合路径&gt;" class="cls-3" d="M376.94,531.66A48.37,48.37,0,1,0,425.31,580,48.42,48.42,0,0,0,376.94,531.66Zm21.15,18.21a6.37,6.37,0,1,1,0,9A6.37,6.37,0,0,1,398.09,549.87Zm-21.15-12.49a6.37,6.37,0,1,1-6.37,6.37A6.37,6.37,0,0,1,376.94,537.38Zm-30.15,12.49a6.37,6.37,0,1,1,0,9A6.37,6.37,0,0,1,346.79,549.87Zm-6.12,36.52A6.37,6.37,0,1,1,347,580,6.37,6.37,0,0,1,340.67,586.39Zm15.13,23.78a6.37,6.37,0,1,1,0-9A6.37,6.37,0,0,1,355.8,610.17Zm21.15,12.49a6.37,6.37,0,1,1,6.37-6.37A6.37,6.37,0,0,1,376.94,622.66Zm0-18.46A24.18,24.18,0,1,1,401.13,580,24.21,24.21,0,0,1,376.94,604.2Zm30.15,6a6.37,6.37,0,1,1,0-9A6.37,6.37,0,0,1,407.1,610.17Zm6.12-23.78a6.37,6.37,0,1,1,6.37-6.37A6.37,6.37,0,0,1,413.22,586.39Z"/><path id="_复合路径_3" data-name="&lt;复合路径&gt;" class="cls-3" d="M65.94,531.66A48.37,48.37,0,1,0,114.31,580,48.42,48.42,0,0,0,65.94,531.66Zm21.15,18.21a6.37,6.37,0,1,1,0,9A6.37,6.37,0,0,1,87.09,549.87ZM65.94,537.38a6.37,6.37,0,1,1-6.37,6.37A6.37,6.37,0,0,1,65.94,537.38ZM35.79,549.87a6.37,6.37,0,1,1,0,9A6.37,6.37,0,0,1,35.79,549.87Zm-6.12,36.52A6.37,6.37,0,1,1,36,580,6.37,6.37,0,0,1,29.67,586.39ZM44.8,610.17a6.37,6.37,0,1,1,0-9A6.37,6.37,0,0,1,44.8,610.17Zm21.15,12.49a6.37,6.37,0,1,1,6.37-6.37A6.37,6.37,0,0,1,65.94,622.66Zm0-18.46A24.18,24.18,0,1,1,90.13,580,24.21,24.21,0,0,1,65.94,604.2Zm30.15,6a6.37,6.37,0,1,1,0-9A6.37,6.37,0,0,1,96.1,610.17Zm6.12-23.78a6.37,6.37,0,1,1,6.37-6.37A6.37,6.37,0,0,1,102.22,586.39Z"/><rect id="_矩形_" data-name="&lt;矩形&gt;" class="cls-4" x="160.45" y="762.05" width="18.53" height="56.47"/><rect id="_矩形_2" data-name="&lt;矩形&gt;" class="cls-5" x="164.59" y="767.06" width="10.26" height="52.94" rx="5.13" ry="5.13"/><rect id="_矩形_3" data-name="&lt;矩形&gt;" class="cls-6" x="164.59" y="790.14" width="10.26" height="6.78"/><rect id="_矩形_4" data-name="&lt;矩形&gt;" class="cls-4" x="196.06" y="762.05" width="18.53" height="56.47"/><rect id="_矩形_5" data-name="&lt;矩形&gt;" class="cls-5" x="200.2" y="767.06" width="10.26" height="52.94" rx="5.13" ry="5.13"/><rect id="_矩形_6" data-name="&lt;矩形&gt;" class="cls-6" x="200.2" y="790.14" width="10.26" height="6.78"/><rect id="_矩形_7" data-name="&lt;矩形&gt;" class="cls-4" x="231.67" y="762.05" width="18.53" height="56.47"/><rect id="_矩形_8" data-name="&lt;矩形&gt;" class="cls-5" x="235.8" y="767.06" width="10.26" height="52.94" rx="5.13" ry="5.13"/><rect id="_矩形_9" data-name="&lt;矩形&gt;" class="cls-6" x="235.8" y="790.14" width="10.26" height="6.78"/><rect id="_矩形_10" data-name="&lt;矩形&gt;" class="cls-4" x="267.27" y="762.05" width="18.53" height="56.47"/><rect id="_矩形_11" data-name="&lt;矩形&gt;" class="cls-5" x="271.41" y="767.06" width="10.26" height="52.94" rx="5.13" ry="5.13"/><rect id="_矩形_12" data-name="&lt;矩形&gt;" class="cls-6" x="271.41" y="790.14" width="10.26" height="6.78"/><rect id="_矩形_13" data-name="&lt;矩形&gt;" class="cls-7" x="112.59" y="809.75" width="217.72" height="114.27"/><rect id="_矩形_14" data-name="&lt;矩形&gt;" class="cls-8" x="162.91" y="831.15" width="10.26" height="71.47"/><rect id="_矩形_15" data-name="&lt;矩形&gt;" class="cls-8" x="269.73" y="832.8" width="10.26" height="71.47"/><rect id="_矩形_16" data-name="&lt;矩形&gt;" class="cls-9" x="112.59" y="777.32" width="18.53" height="32.43"/><rect id="_矩形_17" data-name="&lt;矩形&gt;" class="cls-9" x="311.78" y="777.32" width="18.53" height="32.43"/><rect id="_矩形_18" data-name="&lt;矩形&gt;" class="cls-9" x="159.24" y="924.01" width="124.41" height="4.08" rx="2.04" ry="2.04"/><path id="_复合路径_4" data-name="&lt;复合路径&gt;" class="cls-7" d="M161.49,746.89l14-5v0l-14-5V735l16.21,5.91v1.95l-16.21,5.87Z"/><path id="_复合路径_5" data-name="&lt;复合路径&gt;" class="cls-7" d="M161.09,726.54c0-3.68,2.06-5.69,4.23-6.42l.29,1.75a4.67,4.67,0,0,0-3,4.67c0,3.28,2.3,5.45,7,5.45,4.25,0,7-2.21,7-5.45a4.82,4.82,0,0,0-3.21-4.87l.27-1.68a6.42,6.42,0,0,1,4.52,6.55c0,4.69-3.79,7.15-8.55,7.15S161.09,731.61,161.09,726.54Z"/><path id="_复合路径_6" data-name="&lt;复合路径&gt;" class="cls-7" d="M161.09,710.75c0-3.68,2.06-5.69,4.23-6.42l.29,1.75a4.67,4.67,0,0,0-3,4.67c0,3.28,2.3,5.45,7,5.45,4.25,0,7-2.21,7-5.45a4.82,4.82,0,0,0-3.21-4.87l.27-1.68a6.42,6.42,0,0,1,4.52,6.55c0,4.69-3.79,7.15-8.55,7.15S161.09,715.83,161.09,710.75Z"/><path id="_复合路径_7" data-name="&lt;复合路径&gt;" class="cls-7" d="M268,741.12c0-4.1,2.35-5.6,4.47-6.51l.29,1.79a4.77,4.77,0,0,0-3.23,4.72c0,3.34,2.86,5.71,7,5.71,4.25,0,7-2.46,7-5.49A5.57,5.57,0,0,0,279.3,736h-1.75V741H276V734.3h8.64v1.55h-3.32a6.14,6.14,0,0,1,3.74,5.69c0,3.61-3.08,7-8.55,7C271.43,748.54,268,745.51,268,741.12Z"/><path id="_复合路径_8" data-name="&lt;复合路径&gt;" class="cls-7" d="M268.42,728.79l13.46-9.48v0H268.42v-1.71h16.21v1.79l-13.46,9.43,0,0h13.49v1.73H268.42Z"/><path id="_复合路径_9" data-name="&lt;复合路径&gt;" class="cls-7" d="M268.42,707.87c0-5.29,4.19-7.17,8.08-7.17,4.65,0,8.13,2.3,8.13,7.48v5.58H268.42ZM283.1,712v-3.9c0-3.23-2.15-5.74-6.6-5.74-3.08,0-6.55,1.51-6.55,5.78V712Z"/><path id="_复合路径_10" data-name="&lt;复合路径&gt;" class="cls-7" d="M244.84,746.77a4.89,4.89,0,0,0,3.41-4.83c0-2.57-1.59-3.92-2.92-3.92-2,0-3.15,2.78-3.85,4.6-1.26,3.48-2.55,5.58-4.81,5.58-2.87,0-4.72-2.71-4.72-6a6,6,0,0,1,4.06-6l.3,1.94a4.21,4.21,0,0,0-2.76,4.13c0,2.31,1.35,3.95,2.9,3.95,1.73,0,2.5-1.94,3.43-4.37,1.4-3.83,3-5.86,5.21-5.86,2.8,0,4.81,2.41,4.81,6a6.61,6.61,0,0,1-4.76,6.75Z"/><path id="_复合路径_11" data-name="&lt;复合路径&gt;" class="cls-7" d="M232,726c0-3.88,2.17-6,4.46-6.77l.3,1.85a4.92,4.92,0,0,0-3.15,4.93c0,3.46,2.43,5.74,7.33,5.74,4.48,0,7.36-2.33,7.36-5.74a5.08,5.08,0,0,0-3.39-5.14l.28-1.77a6.77,6.77,0,0,1,4.76,6.91c0,5-4,7.54-9,7.54S232,731.3,232,726Z"/><path id="_复合路径_12" data-name="&lt;复合路径&gt;" class="cls-7" d="M232.37,714.2h15.48v-9.11h1.61V716H232.37Z"/><path id="_复合路径_13" data-name="&lt;复合路径&gt;" class="cls-7" d="M208.85,747a4.42,4.42,0,0,0,3.08-4.36c0-2.32-1.43-3.54-2.63-3.54-1.81,0-2.85,2.51-3.48,4.15-1.14,3.14-2.3,5-4.34,5-2.59,0-4.26-2.45-4.26-5.42a5.37,5.37,0,0,1,3.67-5.42l.27,1.75a3.8,3.8,0,0,0-2.49,3.73c0,2.09,1.22,3.56,2.61,3.56,1.56,0,2.25-1.75,3.1-3.94,1.26-3.46,2.74-5.29,4.7-5.29,2.53,0,4.34,2.17,4.34,5.42a6,6,0,0,1-4.3,6.09Z"/><path id="_复合路径_14" data-name="&lt;复合路径&gt;" class="cls-7" d="M197.6,728.64c0-5,4-6.83,7.69-6.83,4.43,0,7.73,2.19,7.73,7.12v5.31H197.6Zm14,4v-3.71c0-3.08-2-5.46-6.28-5.46-2.93,0-6.24,1.43-6.24,5.5v3.67Z"/><path id="_复合路径_15" data-name="&lt;复合路径&gt;" class="cls-7" d="M197.6,714.45V712.7L213,706.61v1.71l-4.4,1.73v7.14l4.4,1.75v1.69Zm9.55,2.15v-6l-7.59,3v0Z"/><rect id="_矩形_19" data-name="&lt;矩形&gt;" class="cls-10" x="159.88" y="622.94" width="17.32" height="13.51" transform="translate(337.08 1259.39) rotate(180)"/><rect id="_矩形_20" data-name="&lt;矩形&gt;" class="cls-10" x="159.88" y="596.03" width="17.32" height="13.51" transform="translate(337.08 1205.57) rotate(180)"/><rect id="_矩形_21" data-name="&lt;矩形&gt;" class="cls-11" x="161.92" y="606.56" width="13.24" height="19.47" transform="translate(337.08 1232.59) rotate(180)"/><rect id="_矩形_22" data-name="&lt;矩形&gt;" class="cls-12" x="166.2" y="598.4" width="4.74" height="14.67" transform="translate(774.3 437.17) rotate(90)"/><rect id="_矩形_23" data-name="&lt;矩形&gt;" class="cls-12" x="166.2" y="619.47" width="4.74" height="14.67" transform="translate(795.37 458.24) rotate(90)"/><rect id="_矩形_24" data-name="&lt;矩形&gt;" class="cls-10" x="265.69" y="622.94" width="17.32" height="13.51" transform="translate(548.7 1259.39) rotate(180)"/><rect id="_矩形_25" data-name="&lt;矩形&gt;" class="cls-10" x="265.69" y="596.03" width="17.32" height="13.51" transform="translate(548.7 1205.57) rotate(180)"/><rect id="_矩形_26" data-name="&lt;矩形&gt;" class="cls-11" x="267.73" y="606.56" width="13.24" height="19.47" transform="translate(548.7 1232.59) rotate(180)"/><rect id="_矩形_27" data-name="&lt;矩形&gt;" class="cls-12" x="272.01" y="598.4" width="4.74" height="14.67" transform="translate(880.12 331.36) rotate(90)"/><rect id="_矩形_28" data-name="&lt;矩形&gt;" class="cls-12" x="272.01" y="619.47" width="4.74" height="14.67" transform="translate(901.18 352.42) rotate(90)"/><rect id="_矩形_29" data-name="&lt;矩形&gt;" class="cls-10" x="203.52" y="586.6" width="11.17" height="21.09"/><rect id="_矩形_30" data-name="&lt;矩形&gt;" class="cls-10" x="231.59" y="586.6" width="11.17" height="21.09"/><rect id="_矩形_31" data-name="&lt;矩形&gt;" class="cls-10" x="217.56" y="624.9" width="11.17" height="21.09"/><rect id="_矩形_32" data-name="&lt;矩形&gt;" class="cls-13" x="196.09" y="604.22" width="54.1" height="24.65"/><polyline id="_路径_3" data-name="&lt;路径&gt;" class="cls-14" points="195.43 617.29 195.43 629.61 203.48 629.61"/><polyline id="_路径_4" data-name="&lt;路径&gt;" class="cls-14" points="250.77 617.29 250.77 629.61 242.72 629.61"/><rect id="_矩形_33" data-name="&lt;矩形&gt;" class="cls-15" x="204.61" y="594.35" width="8.99" height="9.87"/><rect id="_矩形_34" data-name="&lt;矩形&gt;" class="cls-15" x="232.68" y="594.35" width="8.99" height="9.87"/><rect id="_矩形_35" data-name="&lt;矩形&gt;" class="cls-15" x="218.65" y="628.87" width="8.99" height="9.87"/><rect id="_矩形_36" data-name="&lt;矩形&gt;" class="cls-16" x="204.61" y="600.99" width="8.99" height="1.05"/><rect id="_矩形_37" data-name="&lt;矩形&gt;" class="cls-16" x="232.68" y="600.99" width="8.99" height="1.05"/><rect id="_矩形_38" data-name="&lt;矩形&gt;" class="cls-16" x="218.65" y="630.96" width="8.99" height="1.05"/><rect id="_矩形_39" data-name="&lt;矩形&gt;" class="cls-10" x="77.11" y="380.83" width="17.32" height="13.51" transform="translate(473.35 301.82) rotate(90)"/><rect id="_矩形_40" data-name="&lt;矩形&gt;" class="cls-10" x="50.2" y="380.83" width="17.32" height="13.51" transform="translate(446.44 328.73) rotate(90)"/><rect id="_矩形_41" data-name="&lt;矩形&gt;" class="cls-11" x="65.75" y="377.85" width="13.24" height="19.47" transform="translate(459.95 315.22) rotate(90)"/><rect id="_矩形_42" data-name="&lt;矩形&gt;" class="cls-12" x="59.44" y="380.22" width="4.74" height="14.67"/><rect id="_矩形_43" data-name="&lt;矩形&gt;" class="cls-12" x="80.51" y="380.22" width="4.74" height="14.67"/><rect id="_矩形_44" data-name="&lt;矩形&gt;" class="cls-10" x="63.66" y="435.61" width="17.32" height="43.57" transform="translate(529.7 385.08) rotate(90)"/><rect id="_矩形_45" data-name="&lt;矩形&gt;" class="cls-17" x="64.62" y="442.5" width="16.71" height="29.78" transform="translate(530.36 384.41) rotate(90)"/><polygon id="_路径_5" data-name="&lt;路径&gt;" class="cls-18" points="82.49 449.1 63.3 449.1 63.3 465.68 82.49 465.68 82.49 462.29 81.78 462.29 81.78 451.91 82.49 451.91 82.49 449.1"/><rect id="_矩形_46" data-name="&lt;矩形&gt;" class="cls-10" x="63.66" y="400.7" width="17.32" height="43.57" transform="translate(494.8 350.17) rotate(90)"/><rect id="_矩形_47" data-name="&lt;矩形&gt;" class="cls-17" x="64.62" y="407.6" width="16.71" height="29.78" transform="translate(495.46 349.51) rotate(90)"/><polygon id="_路径_6" data-name="&lt;路径&gt;" class="cls-18" points="82.49 414.19 63.3 414.19 63.3 430.78 82.49 430.78 82.49 427.39 81.78 427.39 81.78 417.01 82.49 417.01 82.49 414.19"/><rect id="_矩形_48" data-name="&lt;矩形&gt;" class="cls-10" x="36.91" y="682.23" width="17.32" height="43.57"/><rect id="_矩形_49" data-name="&lt;矩形&gt;" class="cls-17" x="37.21" y="688.46" width="16.71" height="29.78"/><polygon id="_路径_7" data-name="&lt;路径&gt;" class="cls-18" points="37.27 693.84 37.27 713.03 53.86 713.03 53.86 693.84 50.47 693.84 50.47 694.54 40.09 694.54 40.09 693.84 37.27 693.84"/><rect id="_矩形_50" data-name="&lt;矩形&gt;" class="cls-10" x="64.92" y="682.23" width="17.32" height="43.57"/><rect id="_矩形_51" data-name="&lt;矩形&gt;" class="cls-17" x="65.23" y="688.46" width="16.71" height="29.78"/><polygon id="_路径_8" data-name="&lt;路径&gt;" class="cls-18" points="65.29 693.84 65.29 713.03 81.88 713.03 81.88 693.84 78.48 693.84 78.48 694.54 68.1 694.54 68.1 693.84 65.29 693.84"/><rect id="_矩形_52" data-name="&lt;矩形&gt;" class="cls-10" x="36.91" y="735.56" width="17.32" height="13.51"/><rect id="_矩形_53" data-name="&lt;矩形&gt;" class="cls-10" x="36.91" y="762.47" width="17.32" height="13.51"/><path id="_路径_9" data-name="&lt;路径&gt;" class="cls-19" d="M50.23,740.22a4.66,4.66,0,1,1-9.32,0H38.12v8.85H53v-8.85Z"/><path id="_路径_10" data-name="&lt;路径&gt;" class="cls-19" d="M40.91,771.32a4.66,4.66,0,1,1,9.32,0H53v-8.85H38.12v8.85Z"/><rect id="_矩形_54" data-name="&lt;矩形&gt;" class="cls-20" x="38.95" y="745.98" width="13.24" height="19.47"/><rect id="_矩形_55" data-name="&lt;矩形&gt;" class="cls-10" x="64.92" y="735.56" width="17.32" height="13.51"/><rect id="_矩形_56" data-name="&lt;矩形&gt;" class="cls-10" x="64.92" y="762.47" width="17.32" height="13.51"/><path id="_路径_11" data-name="&lt;路径&gt;" class="cls-21" d="M78.24,740.22a4.66,4.66,0,1,1-9.32,0H66.14v8.85H81v-8.85Z"/><path id="_路径_12" data-name="&lt;路径&gt;" class="cls-21" d="M68.92,771.32a4.66,4.66,0,1,1,9.32,0H81v-8.85H66.14v8.85Z"/><rect id="_矩形_57" data-name="&lt;矩形&gt;" class="cls-22" x="66.97" y="745.98" width="13.24" height="19.47"/><rect id="_矩形_58" data-name="&lt;矩形&gt;" class="cls-23" x="132.77" y="327.11" width="13.9" height="225.66" rx="6.95" ry="6.95"/><rect id="_矩形_59" data-name="&lt;矩形&gt;" class="cls-23" x="156.12" y="327.11" width="13.9" height="225.66" rx="6.95" ry="6.95"/><rect id="_矩形_60" data-name="&lt;矩形&gt;" class="cls-23" x="179.47" y="327.11" width="13.9" height="225.66" rx="6.95" ry="6.95"/><rect id="_矩形_61" data-name="&lt;矩形&gt;" class="cls-23" x="202.82" y="327.11" width="13.9" height="225.66" rx="6.95" ry="6.95"/><rect id="_矩形_62" data-name="&lt;矩形&gt;" class="cls-23" x="226.17" y="327.11" width="13.9" height="225.66" rx="6.95" ry="6.95"/><rect id="_矩形_63" data-name="&lt;矩形&gt;" class="cls-23" x="249.52" y="327.11" width="13.9" height="225.66" rx="6.95" ry="6.95"/><rect id="_矩形_64" data-name="&lt;矩形&gt;" class="cls-24" x="115.56" y="378.93" width="211.77" height="116.47" rx="7.06" ry="7.06"/><rect id="_矩形_65" data-name="&lt;矩形&gt;" class="cls-23" x="272.87" y="327.11" width="13.9" height="225.66" rx="6.95" ry="6.95"/><rect id="_矩形_66" data-name="&lt;矩形&gt;" class="cls-23" x="296.23" y="327.11" width="13.9" height="225.66" rx="6.95" ry="6.95"/><rect id="_矩形_67" data-name="&lt;矩形&gt;" class="cls-25" x="120.86" y="367.59" width="201.18" height="144.71"/><rect id="_矩形_68" data-name="&lt;矩形&gt;" class="cls-26" x="121.52" y="367.59" width="199.85" height="134.56"/><rect id="_矩形_69" data-name="&lt;矩形&gt;" class="cls-27" x="134.53" y="338.69" width="10.37" height="28.9"/><rect id="_矩形_70" data-name="&lt;矩形&gt;" class="cls-28" x="134.53" y="353.03" width="10.37" height="8.49"/><rect id="_矩形_71" data-name="&lt;矩形&gt;" class="cls-27" x="157.88" y="338.69" width="10.37" height="28.9"/><rect id="_矩形_72" data-name="&lt;矩形&gt;" class="cls-28" x="157.88" y="353.03" width="10.37" height="8.49"/><rect id="_矩形_73" data-name="&lt;矩形&gt;" class="cls-27" x="181.24" y="338.69" width="10.37" height="28.9"/><rect id="_矩形_74" data-name="&lt;矩形&gt;" class="cls-28" x="181.24" y="353.03" width="10.37" height="8.49"/><rect id="_矩形_75" data-name="&lt;矩形&gt;" class="cls-27" x="204.59" y="338.69" width="10.37" height="28.9"/><rect id="_矩形_76" data-name="&lt;矩形&gt;" class="cls-28" x="204.59" y="353.03" width="10.37" height="8.49"/><rect id="_矩形_77" data-name="&lt;矩形&gt;" class="cls-27" x="227.94" y="338.69" width="10.37" height="28.9"/><rect id="_矩形_78" data-name="&lt;矩形&gt;" class="cls-28" x="227.94" y="353.03" width="10.37" height="8.49"/><rect id="_矩形_79" data-name="&lt;矩形&gt;" class="cls-27" x="251.29" y="338.69" width="10.37" height="28.9"/><rect id="_矩形_80" data-name="&lt;矩形&gt;" class="cls-28" x="251.29" y="353.03" width="10.37" height="8.49"/><rect id="_矩形_81" data-name="&lt;矩形&gt;" class="cls-27" x="274.64" y="338.69" width="10.37" height="28.9"/><rect id="_矩形_82" data-name="&lt;矩形&gt;" class="cls-28" x="274.64" y="353.03" width="10.37" height="8.49"/><rect id="_矩形_83" data-name="&lt;矩形&gt;" class="cls-27" x="297.99" y="338.69" width="10.37" height="28.9"/><rect id="_矩形_84" data-name="&lt;矩形&gt;" class="cls-28" x="297.99" y="353.03" width="10.37" height="8.49"/><rect id="_矩形_85" data-name="&lt;矩形&gt;" class="cls-27" x="297.99" y="512.29" width="10.37" height="28.9" transform="translate(606.35 1053.48) rotate(-180)"/><rect id="_矩形_86" data-name="&lt;矩形&gt;" class="cls-28" x="297.99" y="518.36" width="10.37" height="8.49" transform="translate(606.35 1045.21) rotate(-180)"/><rect id="_矩形_87" data-name="&lt;矩形&gt;" class="cls-27" x="274.64" y="512.29" width="10.37" height="28.9" transform="translate(559.65 1053.48) rotate(-180)"/><rect id="_矩形_88" data-name="&lt;矩形&gt;" class="cls-28" x="274.64" y="518.36" width="10.37" height="8.49" transform="translate(559.65 1045.21) rotate(-180)"/><rect id="_矩形_89" data-name="&lt;矩形&gt;" class="cls-27" x="251.29" y="512.29" width="10.37" height="28.9" transform="translate(512.94 1053.48) rotate(-180)"/><rect id="_矩形_90" data-name="&lt;矩形&gt;" class="cls-28" x="251.29" y="518.36" width="10.37" height="8.49" transform="translate(512.94 1045.21) rotate(-180)"/><rect id="_矩形_91" data-name="&lt;矩形&gt;" class="cls-27" x="227.94" y="512.29" width="10.37" height="28.9" transform="translate(466.24 1053.48) rotate(-180)"/><rect id="_矩形_92" data-name="&lt;矩形&gt;" class="cls-28" x="227.94" y="518.36" width="10.37" height="8.49" transform="translate(466.24 1045.21) rotate(-180)"/><rect id="_矩形_93" data-name="&lt;矩形&gt;" class="cls-27" x="204.59" y="512.29" width="10.37" height="28.9" transform="translate(419.54 1053.48) rotate(-180)"/><rect id="_矩形_94" data-name="&lt;矩形&gt;" class="cls-28" x="204.59" y="518.36" width="10.37" height="8.49" transform="translate(419.54 1045.21) rotate(-180)"/><rect id="_矩形_95" data-name="&lt;矩形&gt;" class="cls-27" x="181.24" y="512.29" width="10.37" height="28.9" transform="translate(372.84 1053.48) rotate(-180)"/><rect id="_矩形_96" data-name="&lt;矩形&gt;" class="cls-28" x="181.24" y="518.36" width="10.37" height="8.49" transform="translate(372.84 1045.21) rotate(-180)"/><rect id="_矩形_97" data-name="&lt;矩形&gt;" class="cls-27" x="157.88" y="512.29" width="10.37" height="28.9" transform="translate(326.14 1053.48) rotate(-180)"/><rect id="_矩形_98" data-name="&lt;矩形&gt;" class="cls-28" x="157.88" y="518.36" width="10.37" height="8.49" transform="translate(326.14 1045.21) rotate(-180)"/><rect id="_矩形_99" data-name="&lt;矩形&gt;" class="cls-27" x="134.53" y="512.29" width="10.37" height="28.9" transform="translate(279.43 1053.48) rotate(-180)"/><rect id="_矩形_100" data-name="&lt;矩形&gt;" class="cls-28" x="134.53" y="518.36" width="10.37" height="8.49" transform="translate(279.43 1045.21) rotate(-180)"/><rect id="_矩形_101" data-name="&lt;矩形&gt;" class="cls-29" x="17.62" y="153.93" width="407.65" height="47.65"/><path id="_路径_13" data-name="&lt;路径&gt;" class="cls-30" d="M350,39.66H336.29a17.43,17.43,0,0,0-17.43,17.43v18a145,145,0,0,0-99.29-38.95C140,36.13,75.5,99.44,75.5,177.53s64.5,141.4,144.07,141.4A145,145,0,0,0,318.86,280v18a17.43,17.43,0,0,0,17.43,17.43H350A17.43,17.43,0,0,0,367.39,298V57.09A17.43,17.43,0,0,0,350,39.66Z"/><rect id="_矩形_102" data-name="&lt;矩形&gt;" class="cls-31" x="79.4" y="160.21" width="9.04" height="34.74"/><rect id="_矩形_103" data-name="&lt;矩形&gt;" class="cls-32" x="353.87" y="160.46" width="44.34" height="34.58"/><path id="_复合路径_16" data-name="&lt;复合路径&gt;" class="cls-33" d="M218.6,133.41V109.7h-31v23.71h-66L94,157v3.2H32.81V195H94v3.64l27.57,23.16h66v23.71h31V221.76H285V133.41Zm49.63,68.44H144.48V195h92.15a6.07,6.07,0,0,0,6.07-6.07h0a6.07,6.07,0,0,0-6.07-6.07h-81.4V172.35h81.4a6.07,6.07,0,0,0,0-12.13H144.48v-6.89H268.23Z"/><circle class="cls-34" cx="218.94" cy="177.75" r="130.49"/><rect id="_矩形_104" data-name="&lt;矩形&gt;" class="cls-33" x="333.14" y="62.16" width="20.74" height="230.74"/><rect class="cls-35" x="197.88" y="97.8" width="42.13" height="2.29"/><rect class="cls-35" x="197.88" y="97.8" width="42.13" height="2.29" transform="translate(120 317.88) rotate(-90)"/><text class="cls-36" transform="translate(123.87 167.24)">Lithium Cell<tspan x="33.46" y="42.29">CR1220</tspan><tspan x="74.56" y="84.57">3V</tspan></text><rect class="cls-30" x="80.87" y="225.54" width="32.4" height="9.19" transform="translate(267.32 47.37) rotate(65.84)"/><rect class="cls-30" x="83.07" y="116.49" width="32.4" height="9.19" transform="translate(250.38 80.07) rotate(114.16)"/></g></g></svg>