<svg xmlns="http://www.w3.org/2000/svg" viewBox="0 0 880.45 717.91"><defs><style>.cls-1{fill:#0f0f0f;}.cls-2{fill:#1c1c1c;}.cls-3{fill:#757575;}.cls-4{fill:none;stroke:#919191;stroke-miterlimit:10;}.cls-5{opacity:0.18;}.cls-6{fill:#2b2b2b;}.cls-7{fill:#2c2c2c;}.cls-8{fill:#2d2d2d;}.cls-9{fill:#2e2e2e;}.cls-10{fill:#2f2f2f;}.cls-11{fill:#303030;}.cls-12{fill:#313131;}.cls-13{fill:#323232;}.cls-14{fill:#333;}.cls-15{fill:#343434;}.cls-16{fill:#353535;}.cls-17{fill:#363636;}.cls-18{fill:#373737;}.cls-19{fill:#383838;}.cls-20{fill:#393939;}.cls-21{fill:#3a3a3a;}.cls-22{fill:#3b3b3b;}.cls-23{fill:#3c3c3c;}.cls-24{fill:#3d3d3d;}.cls-25{fill:#3e3e3e;}.cls-26{fill:#3f3f3f;}.cls-27{fill:#404040;}.cls-28{fill:#414141;}.cls-29{fill:#424242;}.cls-30{fill:#434343;}.cls-31{fill:#444;}.cls-32{fill:#454545;}.cls-33{fill:#464646;}.cls-34{fill:#474747;}.cls-35{fill:#484848;}.cls-36{fill:#494949;}.cls-37{fill:#4a4a4a;}.cls-38{fill:#4b4b4b;}.cls-39{fill:#4c4c4c;}.cls-40{fill:#4d4d4d;}.cls-41{fill:#4e4e4e;}.cls-42{fill:#4f4f4f;}.cls-43{fill:#505050;}.cls-44{fill:#515151;}.cls-45{fill:#525252;}.cls-46{fill:#535353;}.cls-47{fill:#545454;}.cls-48{fill:#555;}.cls-49{fill:#565656;}.cls-50{fill:#575757;}.cls-51{fill:#585858;}.cls-52{fill:#595959;}.cls-53{fill:#5a5a5a;}.cls-54{fill:#5b5b5b;}.cls-55{fill:#5c5c5c;}.cls-56{fill:#5d5d5d;}.cls-57{fill:#5e5e5e;}.cls-58{fill:#5f5f5f;}.cls-59{fill:#606060;}.cls-60{fill:#616161;}.cls-61{fill:#626262;}.cls-62{fill:#636363;}.cls-63{fill:#646464;}.cls-64{fill:#656565;}.cls-65{fill:#666;}.cls-66{fill:#676767;}.cls-67{fill:#686868;}.cls-68{fill:#696969;}.cls-69{fill:#6a6a6a;}.cls-70{fill:#6b6b6b;}.cls-71{fill:#6c6c6c;}.cls-72{fill:#6d6d6d;}.cls-73{fill:#6e6e6e;}.cls-74{fill:#6f6f6f;}.cls-75{fill:#707070;}.cls-76{fill:#717171;}.cls-77{fill:#727272;}.cls-78{fill:#737373;}.cls-79{fill:#747474;}.cls-80{fill:#767676;}.cls-81{fill:#777;}.cls-82{fill:#787878;}.cls-83{fill:#797979;}.cls-84{fill:#7a7a7a;}.cls-85{fill:#7b7b7b;}.cls-86{fill:#7c7c7c;}.cls-87{fill:#7d7d7d;}.cls-88{fill:#7e7e7e;}.cls-89{fill:#7f7f7f;}.cls-90{fill:gray;}.cls-91{fill:#818181;}.cls-92{fill:#828282;}.cls-93{fill:#838383;}.cls-94{fill:#848484;}.cls-95{fill:#858585;}.cls-96{fill:#868686;}.cls-97{fill:#878787;}.cls-98{fill:#888;}.cls-99{fill:#898989;}.cls-100{fill:#8a8a8a;}.cls-101{fill:#8b8b8b;}.cls-102{fill:#8c8c8c;}.cls-103{fill:#8d8d8d;}.cls-104{fill:#8e8e8e;}.cls-105{fill:#8f8f8f;}.cls-106{fill:#909090;}.cls-107{fill:#919191;}.cls-108{fill:#929292;}.cls-109{fill:#939393;}.cls-110{fill:#949494;}.cls-111{fill:#959595;}.cls-112{fill:#969696;}.cls-113{fill:#979797;}.cls-114{fill:#989898;}.cls-115{fill:#999;}.cls-116{fill:#9a9a9a;}.cls-117{fill:#9b9b9b;}.cls-118{fill:#9c9c9c;}.cls-119{fill:#9d9d9d;}.cls-120{fill:#9e9e9e;}.cls-121{fill:#9f9f9f;}.cls-122{fill:#a0a0a0;}.cls-123{fill:#a1a1a1;}.cls-124{fill:#a2a2a2;}.cls-125{fill:#a3a3a3;}.cls-126{fill:#a4a4a4;}.cls-127{fill:#a5a5a5;}.cls-128{fill:#a6a6a6;}.cls-129{fill:#a7a7a7;}.cls-130{fill:#a8a8a8;}.cls-131{fill:#a9a9a9;}.cls-132{fill:#aaa;}.cls-133{fill:#ababab;}.cls-134{fill:#acacac;}.cls-135{fill:#adadad;}.cls-136{fill:#aeaeae;}.cls-137{fill:#afafaf;}.cls-138{fill:#b0b0b0;}.cls-139{fill:#b1b1b1;}.cls-140{fill:#b2b2b2;}.cls-141{fill:#b3b3b3;}.cls-142{fill:#b4b4b4;}.cls-143{fill:#b5b5b5;}.cls-144{fill:#b6b6b6;}.cls-145{fill:#b7b7b7;}.cls-146{fill:#b8b8b8;}.cls-147{fill:#b9b9b9;}.cls-148{fill:#bababa;}.cls-149{fill:#bbb;}.cls-150{fill:#bcbcbc;}.cls-151{fill:#bdbdbd;}.cls-152{fill:#bebebe;}.cls-153{fill:#bfbfbf;}.cls-154{fill:silver;}.cls-155{fill:#c1c1c1;}.cls-156{fill:#c2c2c2;}.cls-157{fill:#c3c3c3;}.cls-158{fill:#c4c4c4;}.cls-159{fill:#c5c5c5;}.cls-160{fill:#c6c6c6;}.cls-161{fill:#c7c7c7;}.cls-162{fill:#c8c8c8;}.cls-163{fill:#c9c9c9;}.cls-164{fill:#cacaca;}.cls-165{fill:#cbcbcb;}.cls-166{fill:#ccc;}.cls-167{fill:#cdcdcd;}.cls-168{fill:#cecece;}.cls-169{fill:#cfcfcf;}.cls-170{fill:#d0d0d0;}.cls-171{fill:#d1d1d1;}.cls-172{fill:#d2d2d2;}.cls-173{fill:#d3d3d3;}.cls-174{fill:#d4d4d4;}.cls-175{fill:#d5d5d5;}.cls-176{fill:#d6d6d6;}.cls-177{fill:#d7d7d7;}.cls-178{fill:#d8d8d8;}.cls-179{fill:#d9d9d9;}.cls-180{fill:#dadada;}.cls-181{fill:#dbdbdb;}.cls-182{fill:#dcdcdc;}.cls-183{fill:#ddd;}.cls-184{fill:#dedede;}.cls-185{fill:#dfdfdf;}.cls-186{fill:#e0e0e0;}.cls-187{fill:#e1e1e1;}.cls-188{fill:#e2e2e2;}.cls-189{fill:#e3e3e3;}.cls-190{fill:#e4e4e4;}.cls-191{fill:#e5e5e5;}.cls-192{fill:#e6e6e6;}.cls-193{fill:#e7e7e7;}.cls-194,.cls-208{fill:#e8e8e8;}.cls-195{fill:#e9e9e9;}.cls-196{fill:#eaeaea;}.cls-197{fill:#ebebeb;}.cls-198{fill:#ececec;}.cls-199{fill:#ededed;}.cls-200{fill:#eee;}.cls-201{fill:#efefef;}.cls-202{fill:#f0f0f0;}.cls-203{fill:#f1f1f1;}.cls-204{fill:#f2f2f2;}.cls-205{fill:#b70027;}.cls-206{fill:#282828;}.cls-207{fill:#eab854;}.cls-208{font-size:71.25px;font-family:AzoSans-BlackItalic, Azo Sans;font-style:italic;}.cls-209{letter-spacing:-0.08em;}.cls-210{letter-spacing:0em;}.cls-211{letter-spacing:-0.02em;}.cls-212{letter-spacing:0em;}</style></defs><title>舵机</title><g id="图层_2" data-name="图层 2"><g id="图层_1-2" data-name="图层 1"><rect class="cls-1" y="235.61" width="880.45" height="38.8" transform="translate(880.45 510.02) rotate(-180)"/><rect class="cls-2" x="110.78" y="274.41" width="658.88" height="443.5" transform="translate(880.45 992.32) rotate(-180)"/><rect class="cls-2" x="110.78" y="123.99" width="658.88" height="111.62" transform="translate(880.45 359.6) rotate(-180)"/><rect class="cls-2" x="162.33" y="93.17" width="488" height="30.83" transform="translate(812.66 217.16) rotate(-180)"/><rect class="cls-3" x="227.16" width="66.67" height="70.67" transform="translate(520.99 70.67) rotate(-180)"/><line class="cls-4" x1="293.29" x2="293.29" y2="70.67"/><line class="cls-4" x1="290.17" x2="290.17" y2="70.67"/><line class="cls-4" x1="287.05" x2="287.05" y2="70.67"/><line class="cls-4" x1="283.93" x2="283.93" y2="70.67"/><line class="cls-4" x1="280.81" x2="280.81" y2="70.67"/><line class="cls-4" x1="277.69" x2="277.69" y2="70.67"/><line class="cls-4" x1="274.57" x2="274.57" y2="70.67"/><line class="cls-4" x1="271.46" x2="271.46" y2="70.67"/><line class="cls-4" x1="268.34" x2="268.34" y2="70.67"/><line class="cls-4" x1="265.22" x2="265.22" y2="70.67"/><line class="cls-4" x1="262.1" x2="262.1" y2="70.67"/><line class="cls-4" x1="258.98" x2="258.98" y2="70.67"/><line class="cls-4" x1="255.86" x2="255.86" y2="70.67"/><line class="cls-4" x1="252.74" x2="252.74" y2="70.67"/><line class="cls-4" x1="249.62" x2="249.62" y2="70.67"/><line class="cls-4" x1="246.5" x2="246.5" y2="70.67"/><line class="cls-4" x1="243.38" x2="243.38" y2="70.67"/><line class="cls-4" x1="240.26" x2="240.26" y2="70.67"/><line class="cls-4" x1="237.15" x2="237.15" y2="70.67"/><line class="cls-4" x1="234.03" x2="234.03" y2="70.67"/><line class="cls-4" x1="230.91" x2="230.91" y2="70.67"/><line class="cls-4" x1="227.79" x2="227.79" y2="70.67"/><g class="cls-5"><rect class="cls-6" x="288.66" width="5.17" height="70.67"/><rect class="cls-7" x="288.44" width="5.2" height="70.67"/><rect class="cls-8" x="288.22" width="5.23" height="70.67"/><rect class="cls-9" x="288" width="5.25" height="70.67"/><rect class="cls-10" x="287.77" width="5.28" height="70.67"/><rect class="cls-11" x="287.55" width="5.31" height="70.67"/><rect class="cls-12" x="287.33" width="5.34" height="70.67"/><rect class="cls-13" x="287.1" width="5.37" height="70.67"/><rect class="cls-14" x="286.88" width="5.4" height="70.67"/><rect class="cls-15" x="286.66" width="5.43" height="70.67"/><rect class="cls-16" x="286.44" width="5.46" height="70.67"/><rect class="cls-17" x="286.21" width="5.49" height="70.67"/><rect class="cls-18" x="285.99" width="5.52" height="70.67"/><rect class="cls-19" x="285.77" width="5.55" height="70.67"/><rect class="cls-20" x="285.54" width="5.58" height="70.67"/><rect class="cls-21" x="285.32" width="5.61" height="70.67"/><rect class="cls-22" x="285.1" width="5.64" height="70.67"/><rect class="cls-23" x="284.88" width="5.66" height="70.67"/><rect class="cls-24" x="284.65" width="5.69" height="70.67"/><rect class="cls-25" x="284.43" width="5.72" height="70.67"/><rect class="cls-26" x="284.21" width="5.75" height="70.67"/><rect class="cls-27" x="283.99" width="5.78" height="70.67"/><rect class="cls-28" x="283.76" width="5.81" height="70.67"/><rect class="cls-29" x="283.54" width="5.84" height="70.67"/><rect class="cls-30" x="283.32" width="5.87" height="70.67"/><rect class="cls-31" x="283.09" width="5.9" height="70.67"/><rect class="cls-32" x="282.87" width="5.93" height="70.67"/><rect class="cls-33" x="282.65" width="5.96" height="70.67"/><rect class="cls-34" x="282.43" width="5.99" height="70.67"/><rect class="cls-35" x="282.2" width="6.02" height="70.67"/><rect class="cls-36" x="281.98" width="6.05" height="70.67"/><rect class="cls-37" x="281.76" width="6.08" height="70.67"/><rect class="cls-38" x="281.53" width="6.1" height="70.67"/><rect class="cls-39" x="281.31" width="6.13" height="70.67"/><rect class="cls-40" x="281.09" width="6.16" height="70.67"/><rect class="cls-41" x="280.87" width="6.19" height="70.67"/><rect class="cls-42" x="280.64" width="6.22" height="70.67"/><rect class="cls-43" x="280.42" width="6.25" height="70.67"/><rect class="cls-44" x="280.2" width="6.28" height="70.67"/><rect class="cls-45" x="279.98" width="6.31" height="70.67"/><rect class="cls-46" x="279.75" width="6.34" height="70.67"/><rect class="cls-47" x="279.53" width="6.37" height="70.67"/><rect class="cls-48" x="279.31" width="6.4" height="70.67"/><rect class="cls-49" x="279.08" width="6.43" height="70.67"/><rect class="cls-50" x="278.86" width="6.46" height="70.67"/><rect class="cls-51" x="278.64" width="6.49" height="70.67"/><rect class="cls-52" x="278.42" width="6.52" height="70.67"/><rect class="cls-53" x="278.19" width="6.54" height="70.67"/><rect class="cls-54" x="277.97" width="6.57" height="70.67"/><rect class="cls-55" x="277.75" width="6.6" height="70.67"/><rect class="cls-56" x="277.52" width="6.63" height="70.67"/><rect class="cls-57" x="277.3" width="6.66" height="70.67"/><rect class="cls-58" x="277.08" width="6.69" height="70.67"/><rect class="cls-59" x="276.86" width="6.72" height="70.67"/><rect class="cls-60" x="276.63" width="6.75" height="70.67"/><rect class="cls-61" x="276.41" width="6.78" height="70.67"/><rect class="cls-62" x="276.19" width="6.81" height="70.67"/><rect class="cls-63" x="275.97" width="6.84" height="70.67"/><rect class="cls-64" x="275.74" width="6.87" height="70.67"/><rect class="cls-65" x="275.52" width="6.9" height="70.67"/><rect class="cls-66" x="275.3" width="6.93" height="70.67"/><rect class="cls-67" x="275.07" width="6.95" height="70.67"/><rect class="cls-68" x="274.85" width="6.98" height="70.67"/><rect class="cls-69" x="274.63" width="7.01" height="70.67"/><rect class="cls-70" x="274.41" width="7.04" height="70.67"/><rect class="cls-71" x="274.18" width="7.07" height="70.67"/><rect class="cls-72" x="273.96" width="7.1" height="70.67"/><rect class="cls-73" x="273.74" width="7.13" height="70.67"/><rect class="cls-74" x="273.51" width="7.16" height="70.67"/><rect class="cls-75" x="273.29" width="7.19" height="70.67"/><rect class="cls-76" x="273.07" width="7.22" height="70.67"/><rect class="cls-77" x="272.85" width="7.25" height="70.67"/><rect class="cls-78" x="272.62" width="7.28" height="70.67"/><rect class="cls-79" x="272.4" width="7.31" height="70.67"/><rect class="cls-3" x="272.18" width="7.34" height="70.67"/><rect class="cls-80" x="271.96" width="7.37" height="70.67"/><rect class="cls-81" x="271.73" width="7.39" height="70.67"/><rect class="cls-82" x="271.51" width="7.42" height="70.67"/><rect class="cls-83" x="271.29" width="7.45" height="70.67"/><rect class="cls-84" x="271.06" width="7.48" height="70.67"/><rect class="cls-85" x="270.84" width="7.51" height="70.67"/><rect class="cls-86" x="270.62" width="7.54" height="70.67"/><rect class="cls-87" x="270.4" width="7.57" height="70.67"/><rect class="cls-88" x="270.17" width="7.6" height="70.67"/><rect class="cls-89" x="269.95" width="7.63" height="70.67"/><rect class="cls-90" x="269.73" width="7.66" height="70.67"/><rect class="cls-91" x="269.5" width="7.69" height="70.67"/><rect class="cls-92" x="269.28" width="7.72" height="70.67"/><rect class="cls-93" x="269.06" width="7.75" height="70.67"/><rect class="cls-94" x="268.84" width="7.78" height="70.67"/><rect class="cls-95" x="268.61" width="7.8" height="70.67"/><rect class="cls-96" x="268.39" width="7.83" height="70.67"/><rect class="cls-97" x="268.17" width="7.86" height="70.67"/><rect class="cls-98" x="267.95" width="7.89" height="70.67"/><rect class="cls-99" x="267.72" width="7.92" height="70.67"/><rect class="cls-100" x="267.5" width="7.95" height="70.67"/><rect class="cls-101" x="267.28" width="7.98" height="70.67"/><rect class="cls-102" x="267.05" width="8.01" height="70.67"/><rect class="cls-103" x="266.83" width="8.04" height="70.67"/><rect class="cls-104" x="266.61" width="8.07" height="70.67"/><rect class="cls-105" x="266.39" width="8.1" height="70.67"/><rect class="cls-106" x="266.16" width="8.13" height="70.67"/><rect class="cls-107" x="265.94" width="8.16" height="70.67"/><rect class="cls-108" x="265.72" width="8.19" height="70.67"/><rect class="cls-109" x="265.49" width="8.22" height="70.67"/><rect class="cls-110" x="265.27" width="8.24" height="70.67"/><rect class="cls-111" x="265.05" width="8.27" height="70.67"/><rect class="cls-112" x="264.83" width="8.3" height="70.67"/><rect class="cls-113" x="264.6" width="8.33" height="70.67"/><rect class="cls-114" x="264.38" width="8.36" height="70.67"/><rect class="cls-115" x="264.16" width="8.39" height="70.67"/><rect class="cls-116" x="263.94" width="8.42" height="70.67"/><rect class="cls-117" x="263.71" width="8.45" height="70.67"/><rect class="cls-118" x="263.49" width="8.48" height="70.67"/><rect class="cls-119" x="263.27" width="8.51" height="70.67"/><rect class="cls-120" x="263.04" width="8.54" height="70.67"/><rect class="cls-121" x="262.82" width="8.57" height="70.67"/><rect class="cls-122" x="262.6" width="8.6" height="70.67"/><rect class="cls-123" x="262.38" width="8.63" height="70.67"/><rect class="cls-124" x="262.15" width="8.65" height="70.67"/><rect class="cls-125" x="261.93" width="8.68" height="70.67"/><rect class="cls-126" x="261.71" width="8.71" height="70.67"/><rect class="cls-127" x="261.48" width="8.74" height="70.67"/><rect class="cls-128" x="261.26" width="8.77" height="70.67"/><rect class="cls-129" x="261.04" width="8.8" height="70.67"/><rect class="cls-130" x="260.82" width="8.83" height="70.67"/><rect class="cls-131" x="260.59" width="8.86" height="70.67"/><rect class="cls-132" x="260.37" width="8.89" height="70.67"/><rect class="cls-133" x="260.15" width="8.92" height="70.67"/><rect class="cls-134" x="259.93" width="8.95" height="70.67"/><rect class="cls-135" x="259.7" width="8.98" height="70.67"/><rect class="cls-136" x="259.48" width="9.01" height="70.67"/><rect class="cls-137" x="259.26" width="9.04" height="70.67"/><rect class="cls-138" x="259.03" width="9.07" height="70.67"/><rect class="cls-139" x="258.81" width="9.09" height="70.67"/><rect class="cls-140" x="258.59" width="9.12" height="70.67"/><rect class="cls-141" x="258.37" width="9.15" height="70.67"/><rect class="cls-142" x="258.14" width="9.18" height="70.67"/><rect class="cls-143" x="257.92" width="9.21" height="70.67"/><rect class="cls-144" x="257.7" width="9.24" height="70.67"/><rect class="cls-145" x="257.47" width="9.27" height="70.67"/><rect class="cls-146" x="257.25" width="9.3" height="70.67"/><rect class="cls-147" x="257.03" width="9.33" height="70.67"/><rect class="cls-148" x="256.81" width="9.36" height="70.67"/><rect class="cls-149" x="256.58" width="9.39" height="70.67"/><rect class="cls-150" x="256.36" width="9.42" height="70.67"/><rect class="cls-151" x="256.14" width="9.45" height="70.67"/><rect class="cls-152" x="255.91" width="9.48" height="70.67"/><rect class="cls-153" x="255.69" width="9.51" height="70.67"/><rect class="cls-154" x="255.47" width="9.53" height="70.67"/><rect class="cls-155" x="255.25" width="9.56" height="70.67"/><rect class="cls-156" x="255.02" width="9.59" height="70.67"/><rect class="cls-157" x="254.8" width="9.62" height="70.67"/><rect class="cls-158" x="254.58" width="9.65" height="70.67"/><rect class="cls-159" x="254.36" width="9.68" height="70.67"/><rect class="cls-160" x="254.13" width="9.71" height="70.67"/><rect class="cls-161" x="253.91" width="9.74" height="70.67"/><rect class="cls-162" x="253.69" width="9.77" height="70.67"/><rect class="cls-163" x="253.46" width="9.8" height="70.67"/><rect class="cls-164" x="253.24" width="9.83" height="70.67"/><rect class="cls-165" x="253.02" width="9.86" height="70.67"/><rect class="cls-166" x="252.8" width="9.89" height="70.67"/><rect class="cls-167" x="252.57" width="9.92" height="70.67"/><rect class="cls-168" x="252.35" width="9.94" height="70.67"/><rect class="cls-169" x="252.13" width="9.97" height="70.67"/><rect class="cls-170" x="251.9" width="10" height="70.67"/><rect class="cls-171" x="251.68" width="10.03" height="70.67"/><rect class="cls-172" x="251.46" width="10.06" height="70.67"/><rect class="cls-173" x="251.24" width="10.09" height="70.67"/><rect class="cls-174" x="251.01" width="10.12" height="70.67"/><rect class="cls-175" x="250.79" width="10.15" height="70.67"/><rect class="cls-176" x="250.57" width="10.18" height="70.67"/><rect class="cls-177" x="250.35" width="10.21" height="70.67"/><rect class="cls-178" x="250.12" width="10.24" height="70.67"/><rect class="cls-179" x="249.9" width="10.27" height="70.67"/><rect class="cls-180" x="249.68" width="10.3" height="70.67"/><rect class="cls-181" x="249.45" width="10.33" height="70.67"/><rect class="cls-182" x="249.23" width="10.36" height="70.67"/><rect class="cls-183" x="249.01" width="10.38" height="70.67"/><rect class="cls-184" x="248.79" width="10.41" height="70.67"/><rect class="cls-185" x="248.56" width="10.44" height="70.67"/><rect class="cls-186" x="248.34" width="10.47" height="70.67"/><rect class="cls-187" x="248.12" width="10.5" height="70.67"/><rect class="cls-188" x="247.89" width="10.53" height="70.67"/><rect class="cls-189" x="247.67" width="10.56" height="70.67"/><rect class="cls-190" x="247.45" width="10.59" height="70.67"/><rect class="cls-191" x="247.23" width="10.62" height="70.67"/><rect class="cls-192" x="247" width="10.65" height="70.67"/><rect class="cls-193" x="246.78" width="10.68" height="70.67"/><rect class="cls-194" x="246.56" width="10.71" height="70.67"/><rect class="cls-195" x="246.34" width="10.74" height="70.67"/><rect class="cls-196" x="246.11" width="10.77" height="70.67"/><rect class="cls-197" x="245.89" width="10.79" height="70.67"/><rect class="cls-198" x="245.67" width="10.82" height="70.67"/><rect class="cls-199" x="245.44" width="10.85" height="70.67"/><rect class="cls-200" x="245.22" width="10.88" height="70.67"/><rect class="cls-201" x="245" width="10.91" height="70.67"/><rect class="cls-202" x="244.78" width="10.94" height="70.67"/><rect class="cls-203" x="244.55" width="10.97" height="70.67"/><rect class="cls-204" x="244.33" width="11" height="70.67"/><rect class="cls-203" x="244.25" width="10.96" height="70.67"/><rect class="cls-202" x="244.16" width="10.93" height="70.67"/><rect class="cls-201" x="244.08" width="10.89" height="70.67"/><rect class="cls-200" x="244" width="10.85" height="70.67"/><rect class="cls-199" x="243.91" width="10.82" height="70.67"/><rect class="cls-198" x="243.83" width="10.78" height="70.67"/><rect class="cls-197" x="243.75" width="10.74" height="70.67"/><rect class="cls-196" x="243.67" width="10.71" height="70.67"/><rect class="cls-195" x="243.58" width="10.67" height="70.67"/><rect class="cls-194" x="243.5" width="10.63" height="70.67"/><rect class="cls-193" x="243.42" width="10.6" height="70.67"/><rect class="cls-192" x="243.33" width="10.56" height="70.67"/><rect class="cls-191" x="243.25" width="10.52" height="70.67"/><rect class="cls-190" x="243.17" width="10.49" height="70.67"/><rect class="cls-189" x="243.08" width="10.45" height="70.67"/><rect class="cls-188" x="243" width="10.41" height="70.67"/><rect class="cls-187" x="242.92" width="10.38" height="70.67"/><rect class="cls-186" x="242.83" width="10.34" height="70.67"/><rect class="cls-185" x="242.75" width="10.3" height="70.67"/><rect class="cls-184" x="242.67" width="10.27" height="70.67"/><rect class="cls-183" x="242.58" width="10.23" height="70.67"/><rect class="cls-182" x="242.5" width="10.19" height="70.67"/><rect class="cls-181" x="242.42" width="10.16" height="70.67"/><rect class="cls-180" x="242.34" width="10.12" height="70.67"/><rect class="cls-179" x="242.25" width="10.08" height="70.67"/><rect class="cls-178" x="242.17" width="10.05" height="70.67"/><rect class="cls-177" x="242.09" width="10.01" height="70.67"/><rect class="cls-176" x="242" width="9.97" height="70.67"/><rect class="cls-175" x="241.92" width="9.94" height="70.67"/><rect class="cls-174" x="241.84" width="9.9" height="70.67"/><rect class="cls-173" x="241.75" width="9.86" height="70.67"/><rect class="cls-172" x="241.67" width="9.83" height="70.67"/><rect class="cls-171" x="241.59" width="9.79" height="70.67"/><rect class="cls-170" x="241.5" width="9.75" height="70.67"/><rect class="cls-169" x="241.42" width="9.72" height="70.67"/><rect class="cls-168" x="241.34" width="9.68" height="70.67"/><rect class="cls-167" x="241.25" width="9.64" height="70.67"/><rect class="cls-166" x="241.17" width="9.61" height="70.67"/><rect class="cls-165" x="241.09" width="9.57" height="70.67"/><rect class="cls-164" x="241.01" width="9.53" height="70.67"/><rect class="cls-163" x="240.92" width="9.5" height="70.67"/><rect class="cls-162" x="240.84" width="9.46" height="70.67"/><rect class="cls-161" x="240.76" width="9.42" height="70.67"/><rect class="cls-160" x="240.67" width="9.39" height="70.67"/><rect class="cls-159" x="240.59" width="9.35" height="70.67"/><rect class="cls-158" x="240.51" width="9.31" height="70.67"/><rect class="cls-157" x="240.42" width="9.28" height="70.67"/><rect class="cls-156" x="240.34" width="9.24" height="70.67"/><rect class="cls-155" x="240.26" width="9.2" height="70.67"/><rect class="cls-154" x="240.17" width="9.17" height="70.67"/><rect class="cls-153" x="240.09" width="9.13" height="70.67"/><rect class="cls-152" x="240.01" width="9.09" height="70.67"/><rect class="cls-151" x="239.92" width="9.06" height="70.67"/><rect class="cls-150" x="239.84" width="9.02" height="70.67"/><rect class="cls-149" x="239.76" width="8.98" height="70.67"/><rect class="cls-148" x="239.68" width="8.95" height="70.67"/><rect class="cls-147" x="239.59" width="8.91" height="70.67"/><rect class="cls-146" x="239.51" width="8.87" height="70.67"/><rect class="cls-145" x="239.43" width="8.84" height="70.67"/><rect class="cls-144" x="239.34" width="8.8" height="70.67"/><rect class="cls-143" x="239.26" width="8.76" height="70.67"/><rect class="cls-142" x="239.18" width="8.73" height="70.67"/><rect class="cls-141" x="239.09" width="8.69" height="70.67"/><rect class="cls-140" x="239.01" width="8.65" height="70.67"/><rect class="cls-139" x="238.93" width="8.62" height="70.67"/><rect class="cls-138" x="238.84" width="8.58" height="70.67"/><rect class="cls-137" x="238.76" width="8.55" height="70.67"/><rect class="cls-136" x="238.68" width="8.51" height="70.67"/><rect class="cls-135" x="238.59" width="8.47" height="70.67"/><rect class="cls-134" x="238.51" width="8.44" height="70.67"/><rect class="cls-133" x="238.43" width="8.4" height="70.67"/><rect class="cls-132" x="238.35" width="8.36" height="70.67"/><rect class="cls-131" x="238.26" width="8.33" height="70.67"/><rect class="cls-130" x="238.18" width="8.29" height="70.67"/><rect class="cls-129" x="238.1" width="8.25" height="70.67"/><rect class="cls-128" x="238.01" width="8.22" height="70.67"/><rect class="cls-127" x="237.93" width="8.18" height="70.67"/><rect class="cls-126" x="237.85" width="8.14" height="70.67"/><rect class="cls-125" x="237.76" width="8.11" height="70.67"/><rect class="cls-124" x="237.68" width="8.07" height="70.67"/><rect class="cls-123" x="237.6" width="8.03" height="70.67"/><rect class="cls-122" x="237.51" width="8" height="70.67"/><rect class="cls-121" x="237.43" width="7.96" height="70.67"/><rect class="cls-120" x="237.35" width="7.92" height="70.67"/><rect class="cls-119" x="237.26" width="7.89" height="70.67"/><rect class="cls-118" x="237.18" width="7.85" height="70.67"/><rect class="cls-117" x="237.1" width="7.81" height="70.67"/><rect class="cls-116" x="237.02" width="7.78" height="70.67"/><rect class="cls-115" x="236.93" width="7.74" height="70.67"/><rect class="cls-114" x="236.85" width="7.7" height="70.67"/><rect class="cls-113" x="236.77" width="7.67" height="70.67"/><rect class="cls-112" x="236.68" width="7.63" height="70.67"/><rect class="cls-111" x="236.6" width="7.59" height="70.67"/><rect class="cls-110" x="236.52" width="7.56" height="70.67"/><rect class="cls-109" x="236.43" width="7.52" height="70.67"/><rect class="cls-108" x="236.35" width="7.48" height="70.67"/><rect class="cls-107" x="236.27" width="7.45" height="70.67"/><rect class="cls-106" x="236.18" width="7.41" height="70.67"/><rect class="cls-105" x="236.1" width="7.37" height="70.67"/><rect class="cls-104" x="236.02" width="7.34" height="70.67"/><rect class="cls-103" x="235.93" width="7.3" height="70.67"/><rect class="cls-102" x="235.85" width="7.26" height="70.67"/><rect class="cls-101" x="235.77" width="7.23" height="70.67"/><rect class="cls-100" x="235.69" width="7.19" height="70.67"/><rect class="cls-99" x="235.6" width="7.15" height="70.67"/><rect class="cls-98" x="235.52" width="7.12" height="70.67"/><rect class="cls-97" x="235.44" width="7.08" height="70.67"/><rect class="cls-96" x="235.35" width="7.04" height="70.67"/><rect class="cls-95" x="235.27" width="7.01" height="70.67"/><rect class="cls-94" x="235.19" width="6.97" height="70.67"/><rect class="cls-93" x="235.1" width="6.93" height="70.67"/><rect class="cls-92" x="235.02" width="6.9" height="70.67"/><rect class="cls-91" x="234.94" width="6.86" height="70.67"/><rect class="cls-90" x="234.85" width="6.82" height="70.67"/><rect class="cls-89" x="234.77" width="6.79" height="70.67"/><rect class="cls-88" x="234.69" width="6.75" height="70.67"/><rect class="cls-87" x="234.6" width="6.71" height="70.67"/><rect class="cls-86" x="234.52" width="6.68" height="70.67"/><rect class="cls-85" x="234.44" width="6.64" height="70.67"/><rect class="cls-84" x="234.36" width="6.6" height="70.67"/><rect class="cls-83" x="234.27" width="6.57" height="70.67"/><rect class="cls-82" x="234.19" width="6.53" height="70.67"/><rect class="cls-81" x="234.11" width="6.49" height="70.67"/><rect class="cls-80" x="234.02" width="6.46" height="70.67"/><rect class="cls-3" x="233.94" width="6.42" height="70.67"/><rect class="cls-79" x="233.86" width="6.38" height="70.67"/><rect class="cls-78" x="233.77" width="6.35" height="70.67"/><rect class="cls-77" x="233.69" width="6.31" height="70.67"/><rect class="cls-76" x="233.61" width="6.27" height="70.67"/><rect class="cls-75" x="233.52" width="6.24" height="70.67"/><rect class="cls-74" x="233.44" width="6.2" height="70.67"/><rect class="cls-73" x="233.36" width="6.16" height="70.67"/><rect class="cls-72" x="233.27" width="6.13" height="70.67"/><rect class="cls-71" x="233.19" width="6.09" height="70.67"/><rect class="cls-70" x="233.11" width="6.05" height="70.67"/><rect class="cls-69" x="233.03" width="6.02" height="70.67"/><rect class="cls-68" x="232.94" width="5.98" height="70.67"/><rect class="cls-67" x="232.86" width="5.94" height="70.67"/><rect class="cls-66" x="232.78" width="5.91" height="70.67"/><rect class="cls-65" x="232.69" width="5.87" height="70.67"/><rect class="cls-64" x="232.61" width="5.83" height="70.67"/><rect class="cls-63" x="232.53" width="5.8" height="70.67"/><rect class="cls-62" x="232.44" width="5.76" height="70.67"/><rect class="cls-61" x="232.36" width="5.72" height="70.67"/><rect class="cls-60" x="232.28" width="5.69" height="70.67"/><rect class="cls-59" x="232.19" width="5.65" height="70.67"/><rect class="cls-58" x="232.11" width="5.61" height="70.67"/><rect class="cls-57" x="232.03" width="5.58" height="70.67"/><rect class="cls-56" x="231.94" width="5.54" height="70.67"/><rect class="cls-55" x="231.86" width="5.5" height="70.67"/><rect class="cls-54" x="231.78" width="5.47" height="70.67"/><rect class="cls-53" x="231.7" width="5.43" height="70.67"/><rect class="cls-52" x="231.61" width="5.39" height="70.67"/><rect class="cls-51" x="231.53" width="5.36" height="70.67"/><rect class="cls-50" x="231.45" width="5.32" height="70.67"/><rect class="cls-49" x="231.36" width="5.28" height="70.67"/><rect class="cls-48" x="231.28" width="5.25" height="70.67"/><rect class="cls-47" x="231.2" width="5.21" height="70.67"/><rect class="cls-46" x="231.11" width="5.17" height="70.67"/><rect class="cls-45" x="231.03" width="5.14" height="70.67"/><rect class="cls-44" x="230.95" width="5.1" height="70.67"/><rect class="cls-43" x="230.86" width="5.06" height="70.67"/><rect class="cls-42" x="230.78" width="5.03" height="70.67"/><rect class="cls-41" x="230.7" width="4.99" height="70.67"/><rect class="cls-40" x="230.61" width="4.95" height="70.67"/><rect class="cls-39" x="230.53" width="4.92" height="70.67"/><rect class="cls-38" x="230.45" width="4.88" height="70.67"/><rect class="cls-37" x="230.37" width="4.84" height="70.67"/><rect class="cls-36" x="230.28" width="4.81" height="70.67"/><rect class="cls-35" x="230.2" width="4.77" height="70.67"/><rect class="cls-34" x="230.12" width="4.73" height="70.67"/><rect class="cls-33" x="230.03" width="4.7" height="70.67"/><rect class="cls-32" x="229.95" width="4.66" height="70.67"/><rect class="cls-31" x="229.87" width="4.62" height="70.67"/><rect class="cls-30" x="229.78" width="4.59" height="70.67"/><rect class="cls-29" x="229.7" width="4.55" height="70.67"/><rect class="cls-28" x="229.62" width="4.51" height="70.67"/><rect class="cls-27" x="229.53" width="4.48" height="70.67"/><rect class="cls-26" x="229.45" width="4.44" height="70.67"/><rect class="cls-25" x="229.37" width="4.4" height="70.67"/><rect class="cls-24" x="229.28" width="4.37" height="70.67"/><rect class="cls-23" x="229.2" width="4.33" height="70.67"/><rect class="cls-22" x="229.12" width="4.29" height="70.67"/><rect class="cls-21" x="229.04" width="4.26" height="70.67"/><rect class="cls-20" x="228.95" width="4.22" height="70.67"/><rect class="cls-19" x="228.87" width="4.18" height="70.67"/><rect class="cls-18" x="228.79" width="4.15" height="70.67"/><rect class="cls-17" x="228.7" width="4.11" height="70.67"/><rect class="cls-16" x="228.62" width="4.07" height="70.67"/><rect class="cls-15" x="228.54" width="4.04" height="70.67"/><rect class="cls-14" x="228.45" width="4" height="70.67"/><rect class="cls-13" x="228.37" width="3.96" height="70.67"/><rect class="cls-12" x="228.29" width="3.93" height="70.67"/><rect class="cls-11" x="228.2" width="3.89" height="70.67"/><rect class="cls-10" x="228.12" width="3.85" height="70.67"/><rect class="cls-9" x="228.04" width="3.82" height="70.67"/><rect class="cls-8" x="227.95" width="3.78" height="70.67"/><rect class="cls-7" x="227.87" width="3.74" height="70.67"/><rect class="cls-6" x="227.79" width="3.71" height="70.67"/></g><rect class="cls-2" x="192.16" y="71.83" width="136.5" height="21.33" transform="translate(520.83 165) rotate(-180)"/><rect class="cls-205" x="110.78" y="388.83" width="658.88" height="243.61" transform="translate(880.45 1021.28) rotate(-180)"/><rect class="cls-206" x="110.78" y="274.41" width="658.88" height="6.09" transform="translate(880.45 554.91) rotate(-180)"/><rect class="cls-206" x="110.78" y="229.52" width="658.88" height="6.09" transform="translate(880.45 465.13) rotate(-180)"/><rect class="cls-206" x="48.53" y="615.58" width="73.79" height="50.72" transform="translate(-555.52 726.36) rotate(-90)"/><rect class="cls-207" x="32.16" y="631.58" width="27.9" height="18.71" transform="translate(92.22 1281.88) rotate(-180)"/><path class="cls-2" d="M650.33,103.83h59.33a0,0,0,0,1,0,0V124a0,0,0,0,1,0,0H664.5a14.17,14.17,0,0,1-14.17-14.17v-6A0,0,0,0,1,650.33,103.83Z" transform="translate(1359.99 227.83) rotate(-180)"/><rect class="cls-206" x="162.33" y="117.9" width="547.33" height="6.09" transform="translate(871.99 241.89) rotate(-180)"/><text class="cls-208" transform="translate(164.78 531.66)">DIGI<tspan class="cls-209" x="150.61" y="0">T</tspan><tspan class="cls-210" x="194.15" y="0">AL SE</tspan><tspan class="cls-211" x="386.86" y="0">R</tspan><tspan class="cls-212" x="432.18" y="0">V</tspan><tspan x="484.4" y="0">O</tspan></text><rect class="cls-194" x="110.78" y="442.64" width="658.88" height="21"/><rect class="cls-194" x="110.78" y="557.64" width="658.88" height="21"/></g></g></svg>