<svg xmlns="http://www.w3.org/2000/svg" viewBox="0 0 442.89 886.73"><defs><style>.cls-1{fill:#e1b737;}.cls-2{fill:#dcdddd;}.cls-3{fill:#353535;}.cls-4{fill:#d0ab3c;stroke-width:1.99px;}.cls-10,.cls-4{stroke:#fff;}.cls-10,.cls-11,.cls-16,.cls-18,.cls-4{stroke-miterlimit:10;}.cls-5{fill:#f0c581;}.cls-6{fill:#fff;}.cls-7{fill:#f4cb70;}.cls-8{fill:#c6c5c5;}.cls-9{fill:#c8a266;}.cls-10{fill:#9b9b9b;}.cls-10,.cls-11,.cls-16,.cls-18{stroke-width:0.66px;}.cls-11{fill:#f99f46;stroke:#ef973f;}.cls-12{fill:#aaa;}.cls-13{fill:#d2d3d3;}.cls-14{fill:#030000;}.cls-15{fill:#bb8c27;}.cls-16{fill:#ff4a5c;stroke:#681216;}.cls-17{fill:#e7e887;}.cls-18{fill:#58b1f9;stroke:#122c4f;}</style></defs><title>土壤湿度传感模块</title><g id="图层_2" data-name="图层 2"><g id="图层_1-2" data-name="图层 1"><polygon id="_路径_" data-name="&lt;路径&gt;" class="cls-1" points="432.89 507.99 432.89 117.38 388.55 11 340.24 117.38 340.24 507.99 293.26 507.99 293.26 536.44 432.89 536.44 432.89 507.99"/><path class="cls-2" d="M442,113.15,397.71,6.77a11,11,0,0,0-10-6.77h-.12a11,11,0,0,0-10.06,6.45L329.23,112.83a10.92,10.92,0,0,0-1,4.55v366a17.38,17.38,0,0,1-15.43,9.38h15.43V497h-36a11,11,0,0,0-11,11v28.46a11,11,0,0,0,11,11H431.89a11,11,0,0,0,11-11V117.38A11,11,0,0,0,442,113.15Zm-21.15,6.43V525.44H303.26V519h36a11,11,0,0,0,11-11V119.76l36.88-81.21Z"/><polygon id="_路径_2" data-name="&lt;路径&gt;" class="cls-1" points="10 507.99 10 117.38 54.34 11 102.65 117.38 102.65 507.99 149.63 507.99 149.63 536.44 10 536.44 10 507.99"/><path class="cls-2" d="M0,117.38V536.44a11,11,0,0,0,11,11H150.63a11,11,0,0,0,11-11V508a11,11,0,0,0-11-11h-36v-4.25h15.43a17.38,17.38,0,0,1-15.43-9.38v-366a10.92,10.92,0,0,0-1-4.55L65.35,6.45A11,11,0,0,0,55.29,0h-.12a11,11,0,0,0-10,6.77L.85,113.15A11,11,0,0,0,0,117.38ZM55.77,38.56l36.88,81.21V508a11,11,0,0,0,11,11h36v6.46H22V119.58Z"/><path id="_矩形_" data-name="&lt;矩形&gt;" class="cls-3" d="M0,492.74H442.89a0,0,0,0,1,0,0v335a59,59,0,0,1-59,59H59a59,59,0,0,1-59-59v-335A0,0,0,0,1,0,492.74Z"/><rect id="_矩形_2" data-name="&lt;矩形&gt;" class="cls-4" x="172.7" y="720.68" width="18.53" height="56.47"/><rect id="_矩形_3" data-name="&lt;矩形&gt;" class="cls-5" x="176.83" y="725.69" width="10.26" height="52.94" rx="5.13" ry="5.13"/><rect id="_矩形_4" data-name="&lt;矩形&gt;" class="cls-4" x="212.18" y="720.68" width="18.53" height="56.47"/><rect id="_矩形_5" data-name="&lt;矩形&gt;" class="cls-5" x="216.32" y="725.69" width="10.26" height="52.94" rx="5.13" ry="5.13"/><rect id="_矩形_6" data-name="&lt;矩形&gt;" class="cls-4" x="251.67" y="720.68" width="18.53" height="56.47"/><rect id="_矩形_7" data-name="&lt;矩形&gt;" class="cls-5" x="255.8" y="725.69" width="10.26" height="52.94" rx="5.13" ry="5.13"/><rect id="_矩形_8" data-name="&lt;矩形&gt;" class="cls-6" x="124.83" y="768.38" width="193.24" height="114.27"/><rect id="_矩形_9" data-name="&lt;矩形&gt;" class="cls-7" x="176.83" y="789.78" width="10.26" height="71.47"/><rect id="_矩形_10" data-name="&lt;矩形&gt;" class="cls-7" x="255.8" y="789.78" width="10.26" height="71.47"/><rect id="_矩形_11" data-name="&lt;矩形&gt;" class="cls-8" x="124.83" y="735.95" width="18.53" height="32.43"/><rect id="_矩形_12" data-name="&lt;矩形&gt;" class="cls-8" x="299.53" y="735.95" width="18.53" height="32.43"/><rect id="_矩形_13" data-name="&lt;矩形&gt;" class="cls-8" x="159.24" y="882.64" width="124.41" height="4.08" rx="2.04" ry="2.04"/><rect id="_矩形_14" data-name="&lt;矩形&gt;" class="cls-9" x="176.83" y="748.77" width="10.26" height="6.78"/><rect id="_矩形_15" data-name="&lt;矩形&gt;" class="cls-9" x="216.32" y="748.77" width="10.26" height="6.78"/><rect id="_矩形_16" data-name="&lt;矩形&gt;" class="cls-9" x="255.8" y="748.77" width="10.26" height="6.78"/><path id="_复合路径_" data-name="&lt;复合路径&gt;" class="cls-6" d="M173.64,698.31c0-5,4-7.42,8.5-7.42s8.53,2.3,8.53,7.42c0,5-4.14,7.37-8.53,7.37S173.64,703.3,173.64,698.31Zm15.46,0c0-3.85-3.21-5.71-7-5.71s-7,2-7,5.71,3.26,5.67,7,5.67S189.09,702,189.09,698.31Z"/><path id="_复合路径_2" data-name="&lt;复合路径&gt;" class="cls-6" d="M174,686.25h9.85c3.14,0,5.2-1.48,5.2-4.63,0-3-1.93-4.56-5.2-4.56H174v-1.71H184c4.5,0,6.69,2.52,6.69,6.27S188.45,688,184,688H174Z"/><path id="_复合路径_3" data-name="&lt;复合路径&gt;" class="cls-6" d="M174,661.36h1.53v5.16h14.68v1.71H175.56v5.14H174Z"/><path id="_复合路径_4" data-name="&lt;复合路径&gt;" class="cls-6" d="M213.33,703.95l14-5v0l-14-5v-1.88L229.54,698v1.95l-16.21,5.87Z"/><path id="_复合路径_5" data-name="&lt;复合路径&gt;" class="cls-6" d="M212.93,683.6c0-3.68,2.06-5.69,4.23-6.42l.29,1.75a4.67,4.67,0,0,0-3,4.67c0,3.28,2.3,5.45,7,5.45,4.25,0,7-2.21,7-5.45a4.82,4.82,0,0,0-3.21-4.87l.27-1.68A6.42,6.42,0,0,1,230,683.6c0,4.69-3.79,7.15-8.55,7.15S212.93,688.67,212.93,683.6Z"/><path id="_复合路径_6" data-name="&lt;复合路径&gt;" class="cls-6" d="M212.93,667.81c0-3.68,2.06-5.69,4.23-6.42l.29,1.75a4.67,4.67,0,0,0-3,4.67c0,3.28,2.3,5.45,7,5.45,4.25,0,7-2.21,7-5.45a4.82,4.82,0,0,0-3.21-4.87l.27-1.68a6.42,6.42,0,0,1,4.52,6.55c0,4.69-3.79,7.15-8.55,7.15S212.93,672.88,212.93,667.81Z"/><path id="_复合路径_7" data-name="&lt;复合路径&gt;" class="cls-6" d="M252.42,700c0-4.1,2.35-5.6,4.47-6.51l.29,1.79a4.77,4.77,0,0,0-3.23,4.72c0,3.34,2.86,5.71,7,5.71,4.25,0,7-2.46,7-5.49a5.57,5.57,0,0,0-4.19-5.31h-1.75v4.94h-1.55v-6.67H269v1.55H265.7a6.14,6.14,0,0,1,3.74,5.69c0,3.61-3.08,7-8.55,7C255.83,707.45,252.42,704.41,252.42,700Z"/><path id="_复合路径_8" data-name="&lt;复合路径&gt;" class="cls-6" d="M252.82,687.7l13.46-9.48v0H252.82v-1.71H269v1.79l-13.46,9.43,0,0H269v1.73H252.82Z"/><path id="_复合路径_9" data-name="&lt;复合路径&gt;" class="cls-6" d="M252.82,666.77c0-5.29,4.19-7.17,8.08-7.17,4.65,0,8.13,2.3,8.13,7.48v5.58H252.82Zm14.68,4.16V667c0-3.23-2.15-5.74-6.6-5.74-3.08,0-6.55,1.51-6.55,5.78v3.85Z"/><rect id="_矩形_17" data-name="&lt;矩形&gt;" class="cls-10" x="234.92" y="596.83" width="17.32" height="13.51" transform="translate(487.17 1207.17) rotate(180)"/><rect id="_矩形_18" data-name="&lt;矩形&gt;" class="cls-10" x="234.92" y="569.92" width="17.32" height="13.51" transform="translate(487.17 1153.35) rotate(180)"/><rect id="_矩形_19" data-name="&lt;矩形&gt;" class="cls-11" x="236.97" y="580.45" width="13.24" height="19.47" transform="translate(487.17 1180.37) rotate(180)"/><rect id="_矩形_20" data-name="&lt;矩形&gt;" class="cls-12" x="241.24" y="572.29" width="4.74" height="14.67" transform="translate(823.24 336.02) rotate(90)"/><rect id="_矩形_21" data-name="&lt;矩形&gt;" class="cls-12" x="241.24" y="593.36" width="4.74" height="14.67" transform="translate(844.3 357.08) rotate(90)"/><rect id="_矩形_22" data-name="&lt;矩形&gt;" class="cls-10" x="190.65" y="568.4" width="17.32" height="43.57" transform="translate(398.62 1180.37) rotate(180)"/><rect id="_矩形_23" data-name="&lt;矩形&gt;" class="cls-13" x="190.95" y="575.96" width="16.71" height="29.78" transform="translate(398.62 1181.69) rotate(180)"/><polygon id="_路径_3" data-name="&lt;路径&gt;" class="cls-14" points="207.6 600.36 207.6 581.17 191.02 581.17 191.02 600.36 194.41 600.36 194.41 599.66 204.79 599.66 204.79 600.36 207.6 600.36"/><rect id="_矩形_24" data-name="&lt;矩形&gt;" class="cls-10" x="29.8" y="637.02" width="17.32" height="43.57"/><rect id="_矩形_25" data-name="&lt;矩形&gt;" class="cls-13" x="30.11" y="643.25" width="16.71" height="29.78"/><polygon id="_路径_4" data-name="&lt;路径&gt;" class="cls-14" points="30.17 648.63 30.17 667.82 46.76 667.82 46.76 648.63 43.36 648.63 43.36 649.34 32.98 649.34 32.98 648.63 30.17 648.63"/><rect id="_矩形_26" data-name="&lt;矩形&gt;" class="cls-10" x="57.82" y="637.02" width="17.32" height="43.57"/><rect id="_矩形_27" data-name="&lt;矩形&gt;" class="cls-13" x="58.12" y="643.25" width="16.71" height="29.78"/><polygon id="_路径_5" data-name="&lt;路径&gt;" class="cls-14" points="58.19 648.63 58.19 667.82 74.77 667.82 74.77 648.63 71.38 648.63 71.38 649.34 61 649.34 61 648.63 58.19 648.63"/><rect id="_矩形_28" data-name="&lt;矩形&gt;" class="cls-10" x="29.8" y="690.35" width="17.32" height="13.51"/><rect id="_矩形_29" data-name="&lt;矩形&gt;" class="cls-10" x="29.8" y="717.26" width="17.32" height="13.51"/><path id="_路径_6" data-name="&lt;路径&gt;" class="cls-15" d="M43.12,695a4.66,4.66,0,1,1-9.32,0H31v8.85H45.91V695Z"/><path id="_路径_7" data-name="&lt;路径&gt;" class="cls-15" d="M33.8,726.11a4.66,4.66,0,1,1,9.32,0h2.79v-8.85H31v8.85Z"/><rect id="_矩形_30" data-name="&lt;矩形&gt;" class="cls-16" x="31.85" y="700.77" width="13.24" height="19.47"/><rect id="_矩形_31" data-name="&lt;矩形&gt;" class="cls-10" x="57.82" y="690.35" width="17.32" height="13.51"/><rect id="_矩形_32" data-name="&lt;矩形&gt;" class="cls-10" x="57.82" y="717.26" width="17.32" height="13.51"/><path id="_路径_8" data-name="&lt;路径&gt;" class="cls-17" d="M71.14,695a4.66,4.66,0,1,1-9.32,0H59v8.85H73.92V695Z"/><path id="_路径_9" data-name="&lt;路径&gt;" class="cls-17" d="M61.82,726.11a4.66,4.66,0,1,1,9.32,0h2.79v-8.85H59v8.85Z"/><rect id="_矩形_33" data-name="&lt;矩形&gt;" class="cls-18" x="59.86" y="700.77" width="13.24" height="19.47"/></g></g></svg>