<svg xmlns="http://www.w3.org/2000/svg" viewBox="0 0 442.89 928.09"><defs><style>.cls-1,.cls-8{fill:#d0ab3c;}.cls-1,.cls-14,.cls-22,.cls-29,.cls-31,.cls-32,.cls-6,.cls-8{stroke:#fff;}.cls-1,.cls-14,.cls-16,.cls-18,.cls-22,.cls-25,.cls-26,.cls-31,.cls-32,.cls-6,.cls-8{stroke-miterlimit:10;}.cls-1,.cls-14,.cls-16,.cls-18,.cls-22,.cls-26{stroke-width:0.66px;}.cls-2{fill:#d2d3d3;}.cls-3{fill:#030000;}.cls-4{fill:#353535;}.cls-29,.cls-32,.cls-5,.cls-6{fill:none;}.cls-31,.cls-6{stroke-width:3.31px;}.cls-7{fill:#f2cb6b;}.cls-29,.cls-8{stroke-width:1.99px;}.cls-9{fill:#f0c581;}.cls-10{fill:#fff;}.cls-11{fill:#f4cb70;}.cls-12{fill:#c6c5c5;}.cls-13{fill:#c8a266;}.cls-14{fill:#9b9b9b;}.cls-15{fill:#bb8c27;}.cls-16{fill:#ff4a5c;stroke:#681216;}.cls-17{fill:#e7e887;}.cls-18{fill:#58b1f9;stroke:#122c4f;}.cls-19,.cls-22{fill:#d9b13b;}.cls-20{fill:#e4c55b;}.cls-21{fill:#de7215;}.cls-23{fill:#d1d1d1;}.cls-24{fill:#a7a7a7;}.cls-25{stroke:#11100e;stroke-width:2.65px;}.cls-26{fill:#f99f46;stroke:#ef973f;}.cls-27{fill:#aaa;}.cls-28{fill:#161616;}.cls-29{stroke-linecap:round;stroke-linejoin:round;}.cls-30{fill:#cfcfcf;}.cls-31{fill:#898989;}.cls-32{stroke-width:2.9px;}</style></defs><title>声音传感模块</title><g id="图层_2" data-name="图层 2"><g id="图层_1-2" data-name="图层 1"><g id="_编组_" data-name="&lt;编组&gt;"><rect id="_矩形_" data-name="&lt;矩形&gt;" class="cls-1" x="345.28" y="449.07" width="17.32" height="43.57" transform="translate(824.79 116.91) rotate(90)"/><rect id="_矩形_2" data-name="&lt;矩形&gt;" class="cls-2" x="346.25" y="455.96" width="16.71" height="29.78" transform="translate(825.45 116.25) rotate(90)"/><polygon id="_路径_" data-name="&lt;路径&gt;" class="cls-3" points="364.12 462.56 344.93 462.56 344.93 479.14 364.12 479.14 364.12 475.75 363.41 475.75 363.41 465.37 364.12 465.37 364.12 462.56"/></g><g id="_编组_2" data-name="&lt;编组&gt;"><rect id="_矩形_3" data-name="&lt;矩形&gt;" class="cls-1" x="345.28" y="415.03" width="17.32" height="43.57" transform="translate(790.75 82.87) rotate(90)"/><rect id="_矩形_4" data-name="&lt;矩形&gt;" class="cls-2" x="346.25" y="421.92" width="16.71" height="29.78" transform="translate(791.41 82.21) rotate(90)"/><polygon id="_路径_2" data-name="&lt;路径&gt;" class="cls-3" points="364.12 428.52 344.93 428.52 344.93 445.1 364.12 445.1 364.12 441.71 363.41 441.71 363.41 431.33 364.12 431.33 364.12 428.52"/></g><g id="_编组_3" data-name="&lt;编组&gt;"><rect id="_矩形_5" data-name="&lt;矩形&gt;" class="cls-1" x="345.28" y="380.99" width="17.32" height="43.57" transform="translate(756.71 48.83) rotate(90)"/><rect id="_矩形_6" data-name="&lt;矩形&gt;" class="cls-2" x="346.25" y="387.88" width="16.71" height="29.78" transform="translate(757.37 48.17) rotate(90)"/><polygon id="_路径_3" data-name="&lt;路径&gt;" class="cls-3" points="364.12 394.48 344.93 394.48 344.93 411.06 364.12 411.06 364.12 407.67 363.41 407.67 363.41 397.29 364.12 397.29 364.12 394.48"/></g><g id="_编组_4" data-name="&lt;编组&gt;"><rect id="_矩形_7" data-name="&lt;矩形&gt;" class="cls-1" x="345.28" y="346.95" width="17.32" height="43.57" transform="translate(722.67 14.79) rotate(90)"/><rect id="_矩形_8" data-name="&lt;矩形&gt;" class="cls-2" x="346.25" y="353.84" width="16.71" height="29.78" transform="translate(723.33 14.13) rotate(90)"/><polygon id="_路径_4" data-name="&lt;路径&gt;" class="cls-3" points="364.12 360.44 344.93 360.44 344.93 377.02 364.12 377.02 364.12 373.63 363.41 373.63 363.41 363.25 364.12 363.25 364.12 360.44"/></g><g id="_编组_5" data-name="&lt;编组&gt;"><rect id="_矩形_9" data-name="&lt;矩形&gt;" class="cls-1" x="345.28" y="312.44" width="17.32" height="43.57" transform="translate(688.16 -19.72) rotate(90)"/><rect id="_矩形_10" data-name="&lt;矩形&gt;" class="cls-2" x="346.25" y="319.33" width="16.71" height="29.78" transform="translate(688.82 -20.38) rotate(90)"/><polygon id="_路径_5" data-name="&lt;路径&gt;" class="cls-3" points="364.12 325.93 344.93 325.93 344.93 342.51 364.12 342.51 364.12 339.12 363.41 339.12 363.41 328.74 364.12 328.74 364.12 325.93"/></g><g id="_编组_6" data-name="&lt;编组&gt;"><rect id="_矩形_11" data-name="&lt;矩形&gt;" class="cls-1" x="221.8" y="312.91" width="17.32" height="43.57" transform="translate(565.15 104.23) rotate(90)"/><rect id="_矩形_12" data-name="&lt;矩形&gt;" class="cls-2" x="222.77" y="319.8" width="16.71" height="29.78" transform="translate(565.81 103.57) rotate(90)"/><polygon id="_路径_6" data-name="&lt;路径&gt;" class="cls-3" points="240.64 326.4 221.45 326.4 221.45 342.98 240.64 342.98 240.64 339.59 239.93 339.59 239.93 329.21 240.64 329.21 240.64 326.4"/></g><g id="_编组_7" data-name="&lt;编组&gt;"><rect id="_矩形_13" data-name="&lt;矩形&gt;" class="cls-1" x="102.63" y="415.03" width="17.32" height="43.57" transform="translate(548.1 325.52) rotate(90)"/><rect id="_矩形_14" data-name="&lt;矩形&gt;" class="cls-2" x="103.6" y="421.92" width="16.71" height="29.78" transform="translate(548.76 324.86) rotate(90)"/><polygon id="_路径_7" data-name="&lt;路径&gt;" class="cls-3" points="121.47 428.52 102.27 428.52 102.27 445.1 121.47 445.1 121.47 441.71 120.76 441.71 120.76 431.33 121.47 431.33 121.47 428.52"/></g><g id="_编组_8" data-name="&lt;编组&gt;"><rect id="_矩形_15" data-name="&lt;矩形&gt;" class="cls-1" x="102.63" y="450.62" width="17.32" height="43.57" transform="translate(583.69 361.11) rotate(90)"/><rect id="_矩形_16" data-name="&lt;矩形&gt;" class="cls-2" x="103.6" y="457.51" width="16.71" height="29.78" transform="translate(584.35 360.45) rotate(90)"/><polygon id="_路径_8" data-name="&lt;路径&gt;" class="cls-3" points="121.47 464.11 102.27 464.11 102.27 480.69 121.47 480.69 121.47 477.3 120.76 477.3 120.76 466.92 121.47 466.92 121.47 464.11"/></g><g id="_编组_9" data-name="&lt;编组&gt;"><path id="_复合路径_" data-name="&lt;复合路径&gt;" class="cls-4" d="M385,0h-327A57.92,57.92,0,0,0,0,57.92V870.17a57.92,57.92,0,0,0,57.92,57.92H385a57.92,57.92,0,0,0,57.92-57.92V57.92A57.92,57.92,0,0,0,385,0Zm13.12,549.87a6.37,6.37,0,1,1,0,9A6.37,6.37,0,0,1,398.09,549.87Zm-21.15-12.49a6.37,6.37,0,1,1-6.37,6.37A6.37,6.37,0,0,1,376.94,537.38Zm-30.15,12.49a6.37,6.37,0,1,1,0,9A6.37,6.37,0,0,1,346.79,549.87Zm-259.7,0a6.37,6.37,0,1,1,0,9A6.37,6.37,0,0,1,87.09,549.87ZM65.94,537.38a6.37,6.37,0,1,1-6.37,6.37A6.37,6.37,0,0,1,65.94,537.38ZM35.79,549.87a6.37,6.37,0,1,1,0,9A6.37,6.37,0,0,1,35.79,549.87ZM23.3,580a6.37,6.37,0,1,1,6.37,6.37A6.37,6.37,0,0,1,23.3,580Zm21.5,30.15a6.37,6.37,0,1,1,0-9A6.37,6.37,0,0,1,44.8,610.17Zm21.15,12.49a6.37,6.37,0,1,1,6.37-6.37A6.37,6.37,0,0,1,65.94,622.66Zm0-17A25.65,25.65,0,1,1,91.59,580,25.65,25.65,0,0,1,65.94,605.67Zm30.15,4.5a6.37,6.37,0,1,1,0-9A6.37,6.37,0,0,1,96.1,610.17Zm6.12-23.78a6.37,6.37,0,1,1,6.37-6.37A6.37,6.37,0,0,1,102.22,586.39ZM334.3,580a6.37,6.37,0,1,1,6.37,6.37A6.37,6.37,0,0,1,334.3,580Zm21.5,30.15a6.37,6.37,0,1,1,0-9A6.37,6.37,0,0,1,355.8,610.17Zm21.15,12.49a6.37,6.37,0,1,1,6.37-6.37A6.37,6.37,0,0,1,376.94,622.66Zm0-17A25.65,25.65,0,1,1,402.59,580,25.65,25.65,0,0,1,376.94,605.67Zm30.15,4.5a6.37,6.37,0,1,1,0-9A6.37,6.37,0,0,1,407.1,610.17Zm6.12-23.78a6.37,6.37,0,1,1,6.37-6.37A6.37,6.37,0,0,1,413.22,586.39Z"/><circle id="_路径_9" data-name="&lt;路径&gt;" class="cls-5" cx="65.94" cy="580.02" r="24.19"/><circle id="_路径_10" data-name="&lt;路径&gt;" class="cls-6" cx="65.94" cy="580.02" r="48.21"/><circle id="_路径_11" data-name="&lt;路径&gt;" class="cls-6" cx="376.94" cy="580.02" r="48.21"/><path id="_复合路径_2" data-name="&lt;复合路径&gt;" class="cls-7" d="M376.94,531.66A48.37,48.37,0,1,0,425.31,580,48.42,48.42,0,0,0,376.94,531.66Zm21.15,18.21a6.37,6.37,0,1,1,0,9A6.37,6.37,0,0,1,398.09,549.87Zm-21.15-12.49a6.37,6.37,0,1,1-6.37,6.37A6.37,6.37,0,0,1,376.94,537.38Zm-30.15,12.49a6.37,6.37,0,1,1,0,9A6.37,6.37,0,0,1,346.79,549.87Zm-6.12,36.52A6.37,6.37,0,1,1,347,580,6.37,6.37,0,0,1,340.67,586.39Zm15.13,23.78a6.37,6.37,0,1,1,0-9A6.37,6.37,0,0,1,355.8,610.17Zm21.15,12.49a6.37,6.37,0,1,1,6.37-6.37A6.37,6.37,0,0,1,376.94,622.66Zm0-18.46A24.18,24.18,0,1,1,401.13,580,24.21,24.21,0,0,1,376.94,604.2Zm30.15,6a6.37,6.37,0,1,1,0-9A6.37,6.37,0,0,1,407.1,610.17Zm6.12-23.78a6.37,6.37,0,1,1,6.37-6.37A6.37,6.37,0,0,1,413.22,586.39Z"/><path id="_复合路径_3" data-name="&lt;复合路径&gt;" class="cls-7" d="M65.94,531.66A48.37,48.37,0,1,0,114.31,580,48.42,48.42,0,0,0,65.94,531.66Zm21.15,18.21a6.37,6.37,0,1,1,0,9A6.37,6.37,0,0,1,87.09,549.87ZM65.94,537.38a6.37,6.37,0,1,1-6.37,6.37A6.37,6.37,0,0,1,65.94,537.38ZM35.79,549.87a6.37,6.37,0,1,1,0,9A6.37,6.37,0,0,1,35.79,549.87Zm-6.12,36.52A6.37,6.37,0,1,1,36,580,6.37,6.37,0,0,1,29.67,586.39ZM44.8,610.17a6.37,6.37,0,1,1,0-9A6.37,6.37,0,0,1,44.8,610.17Zm21.15,12.49a6.37,6.37,0,1,1,6.37-6.37A6.37,6.37,0,0,1,65.94,622.66Zm0-18.46A24.18,24.18,0,1,1,90.13,580,24.21,24.21,0,0,1,65.94,604.2Zm30.15,6a6.37,6.37,0,1,1,0-9A6.37,6.37,0,0,1,96.1,610.17Zm6.12-23.78a6.37,6.37,0,1,1,6.37-6.37A6.37,6.37,0,0,1,102.22,586.39Z"/><g id="_编组_10" data-name="&lt;编组&gt;"><g id="_编组_11" data-name="&lt;编组&gt;"><rect id="_矩形_17" data-name="&lt;矩形&gt;" class="cls-8" x="172.7" y="762.05" width="18.53" height="56.47"/><rect id="_矩形_18" data-name="&lt;矩形&gt;" class="cls-9" x="176.83" y="767.06" width="10.26" height="52.94" rx="5.13" ry="5.13"/></g><g id="_编组_12" data-name="&lt;编组&gt;"><rect id="_矩形_19" data-name="&lt;矩形&gt;" class="cls-8" x="212.18" y="762.05" width="18.53" height="56.47"/><rect id="_矩形_20" data-name="&lt;矩形&gt;" class="cls-9" x="216.32" y="767.06" width="10.26" height="52.94" rx="5.13" ry="5.13"/></g><g id="_编组_13" data-name="&lt;编组&gt;"><rect id="_矩形_21" data-name="&lt;矩形&gt;" class="cls-8" x="251.67" y="762.05" width="18.53" height="56.47"/><rect id="_矩形_22" data-name="&lt;矩形&gt;" class="cls-9" x="255.8" y="767.06" width="10.26" height="52.94" rx="5.13" ry="5.13"/></g><rect id="_矩形_23" data-name="&lt;矩形&gt;" class="cls-10" x="124.83" y="809.75" width="193.24" height="114.27"/><rect id="_矩形_24" data-name="&lt;矩形&gt;" class="cls-11" x="176.83" y="831.15" width="10.26" height="71.47"/><rect id="_矩形_25" data-name="&lt;矩形&gt;" class="cls-11" x="255.8" y="831.15" width="10.26" height="71.47"/><rect id="_矩形_26" data-name="&lt;矩形&gt;" class="cls-12" x="124.83" y="777.32" width="18.53" height="32.43"/><rect id="_矩形_27" data-name="&lt;矩形&gt;" class="cls-12" x="299.53" y="777.32" width="18.53" height="32.43"/><rect id="_矩形_28" data-name="&lt;矩形&gt;" class="cls-12" x="159.24" y="924.01" width="124.41" height="4.08" rx="2.04" ry="2.04"/><rect id="_矩形_29" data-name="&lt;矩形&gt;" class="cls-13" x="176.83" y="790.14" width="10.26" height="6.78"/><rect id="_矩形_30" data-name="&lt;矩形&gt;" class="cls-13" x="216.32" y="790.14" width="10.26" height="6.78"/><rect id="_矩形_31" data-name="&lt;矩形&gt;" class="cls-13" x="255.8" y="790.14" width="10.26" height="6.78"/></g></g><g id="_编组_14" data-name="&lt;编组&gt;"><path id="_复合路径_4" data-name="&lt;复合路径&gt;" class="cls-10" d="M173.64,739.68c0-5,4-7.42,8.5-7.42s8.53,2.3,8.53,7.42c0,5-4.14,7.37-8.53,7.37S173.64,744.67,173.64,739.68Zm15.46,0c0-3.85-3.21-5.71-7-5.71s-7,2-7,5.71,3.26,5.67,7,5.67S189.09,743.38,189.09,739.68Z"/><path id="_复合路径_5" data-name="&lt;复合路径&gt;" class="cls-10" d="M174,727.62h9.85c3.14,0,5.2-1.48,5.2-4.63,0-3-1.93-4.56-5.2-4.56H174v-1.71H184c4.5,0,6.69,2.52,6.69,6.27s-2.21,6.33-6.69,6.33H174Z"/><path id="_复合路径_6" data-name="&lt;复合路径&gt;" class="cls-10" d="M174,702.73h1.53v5.16h14.68v1.71H175.56v5.14H174Z"/></g><g id="_编组_15" data-name="&lt;编组&gt;"><path id="_复合路径_7" data-name="&lt;复合路径&gt;" class="cls-10" d="M213.33,745.32l14-5v0l-14-5v-1.88l16.21,5.91v1.95l-16.21,5.87Z"/><path id="_复合路径_8" data-name="&lt;复合路径&gt;" class="cls-10" d="M212.93,725c0-3.68,2.06-5.69,4.23-6.42l.29,1.75a4.67,4.67,0,0,0-3,4.67c0,3.28,2.3,5.45,7,5.45,4.25,0,7-2.21,7-5.45a4.82,4.82,0,0,0-3.21-4.87l.27-1.68A6.42,6.42,0,0,1,230,725c0,4.69-3.79,7.15-8.55,7.15S212.93,730,212.93,725Z"/><path id="_复合路径_9" data-name="&lt;复合路径&gt;" class="cls-10" d="M212.93,709.18c0-3.68,2.06-5.69,4.23-6.42l.29,1.75a4.67,4.67,0,0,0-3,4.67c0,3.28,2.3,5.45,7,5.45,4.25,0,7-2.21,7-5.45a4.82,4.82,0,0,0-3.21-4.87l.27-1.68a6.42,6.42,0,0,1,4.52,6.55c0,4.69-3.79,7.15-8.55,7.15S212.93,714.25,212.93,709.18Z"/></g><g id="_编组_16" data-name="&lt;编组&gt;"><path id="_复合路径_10" data-name="&lt;复合路径&gt;" class="cls-10" d="M252.42,741.4c0-4.1,2.35-5.6,4.47-6.51l.29,1.79a4.77,4.77,0,0,0-3.23,4.72c0,3.34,2.86,5.71,7,5.71,4.25,0,7-2.46,7-5.49a5.57,5.57,0,0,0-4.19-5.31h-1.75v4.94h-1.55v-6.67H269v1.55H265.7a6.14,6.14,0,0,1,3.74,5.69c0,3.61-3.08,7-8.55,7C255.83,748.82,252.42,745.78,252.42,741.4Z"/><path id="_复合路径_11" data-name="&lt;复合路径&gt;" class="cls-10" d="M252.82,729.07l13.46-9.48v0H252.82v-1.71H269v1.79l-13.46,9.43,0,0H269v1.73H252.82Z"/><path id="_复合路径_12" data-name="&lt;复合路径&gt;" class="cls-10" d="M252.82,708.14c0-5.29,4.19-7.17,8.08-7.17,4.65,0,8.13,2.3,8.13,7.48V714H252.82Zm14.68,4.16v-3.9c0-3.23-2.15-5.74-6.6-5.74-3.08,0-6.55,1.51-6.55,5.78v3.85Z"/></g><g id="_编组_17" data-name="&lt;编组&gt;"><rect id="_矩形_32" data-name="&lt;矩形&gt;" class="cls-14" x="33.93" y="684.07" width="17.32" height="43.57"/><rect id="_矩形_33" data-name="&lt;矩形&gt;" class="cls-2" x="34.23" y="690.3" width="16.71" height="29.78"/><polygon id="_路径_12" data-name="&lt;路径&gt;" class="cls-3" points="34.29 695.68 34.29 714.87 50.88 714.87 50.88 695.68 47.48 695.68 47.48 696.38 37.1 696.38 37.1 695.68 34.29 695.68"/></g><g id="_编组_18" data-name="&lt;编组&gt;"><rect id="_矩形_34" data-name="&lt;矩形&gt;" class="cls-14" x="61.94" y="684.07" width="17.32" height="43.57"/><rect id="_矩形_35" data-name="&lt;矩形&gt;" class="cls-2" x="62.24" y="690.3" width="16.71" height="29.78"/><polygon id="_路径_13" data-name="&lt;路径&gt;" class="cls-3" points="62.31 695.68 62.31 714.87 78.89 714.87 78.89 695.68 75.5 695.68 75.5 696.38 65.12 696.38 65.12 695.68 62.31 695.68"/></g><g id="_编组_19" data-name="&lt;编组&gt;"><rect id="_矩形_36" data-name="&lt;矩形&gt;" class="cls-14" x="33.93" y="737.4" width="17.32" height="13.51"/><rect id="_矩形_37" data-name="&lt;矩形&gt;" class="cls-14" x="33.93" y="764.31" width="17.32" height="13.51"/><g id="_编组_20" data-name="&lt;编组&gt;"><path id="_路径_14" data-name="&lt;路径&gt;" class="cls-15" d="M47.24,742.06a4.66,4.66,0,1,1-9.32,0H35.14v8.85H50v-8.85Z"/><path id="_路径_15" data-name="&lt;路径&gt;" class="cls-15" d="M37.92,773.16a4.66,4.66,0,1,1,9.32,0H50v-8.85H35.14v8.85Z"/><rect id="_矩形_38" data-name="&lt;矩形&gt;" class="cls-16" x="35.97" y="747.82" width="13.24" height="19.47"/></g></g><g id="_编组_21" data-name="&lt;编组&gt;"><rect id="_矩形_39" data-name="&lt;矩形&gt;" class="cls-14" x="61.94" y="737.4" width="17.32" height="13.51"/><rect id="_矩形_40" data-name="&lt;矩形&gt;" class="cls-14" x="61.94" y="764.31" width="17.32" height="13.51"/><path id="_路径_16" data-name="&lt;路径&gt;" class="cls-17" d="M75.26,742.06a4.66,4.66,0,1,1-9.32,0H63.15v8.85H78v-8.85Z"/><path id="_路径_17" data-name="&lt;路径&gt;" class="cls-17" d="M65.94,773.16a4.66,4.66,0,1,1,9.32,0H78v-8.85H63.15v8.85Z"/><rect id="_矩形_41" data-name="&lt;矩形&gt;" class="cls-18" x="63.98" y="747.82" width="13.24" height="19.47"/></g><g id="_编组_22" data-name="&lt;编组&gt;"><rect id="_矩形_42" data-name="&lt;矩形&gt;" class="cls-19" x="177.11" y="553.99" width="88.68" height="47.32"/><g id="_编组_23" data-name="&lt;编组&gt;"><rect id="_矩形_43" data-name="&lt;矩形&gt;" class="cls-20" x="188.69" y="551.62" width="65.52" height="52.06"/><rect id="_矩形_44" data-name="&lt;矩形&gt;" class="cls-21" x="196.54" y="551.62" width="7.39" height="52.06"/></g></g><g id="_编组_24" data-name="&lt;编组&gt;"><rect id="_矩形_45" data-name="&lt;矩形&gt;" class="cls-22" x="154.44" y="381.07" width="134.01" height="12.74" rx="6.37" ry="6.37"/><rect id="_矩形_46" data-name="&lt;矩形&gt;" class="cls-22" x="154.44" y="403.42" width="134.01" height="12.74" rx="6.37" ry="6.37"/><rect id="_矩形_47" data-name="&lt;矩形&gt;" class="cls-22" x="154.44" y="425.77" width="134.01" height="12.74" rx="6.37" ry="6.37"/><g id="_编组_25" data-name="&lt;编组&gt;"><rect id="_矩形_48" data-name="&lt;矩形&gt;" class="cls-23" x="163.93" y="383.3" width="20.63" height="8.27"/><rect id="_矩形_49" data-name="&lt;矩形&gt;" class="cls-24" x="172.58" y="383.3" width="3.72" height="8.27"/></g><g id="_编组_26" data-name="&lt;编组&gt;"><rect id="_矩形_50" data-name="&lt;矩形&gt;" class="cls-23" x="163.93" y="405.66" width="20.63" height="8.27"/><rect id="_矩形_51" data-name="&lt;矩形&gt;" class="cls-24" x="172.58" y="405.66" width="3.72" height="8.27"/></g><g id="_编组_27" data-name="&lt;编组&gt;"><rect id="_矩形_52" data-name="&lt;矩形&gt;" class="cls-23" x="163.93" y="428.01" width="20.63" height="8.27"/><rect id="_矩形_53" data-name="&lt;矩形&gt;" class="cls-24" x="172.58" y="428.01" width="3.72" height="8.27"/></g><rect id="_矩形_54" data-name="&lt;矩形&gt;" class="cls-22" x="154.44" y="448.13" width="134.01" height="12.74" rx="6.37" ry="6.37"/><g id="_编组_28" data-name="&lt;编组&gt;"><rect id="_矩形_55" data-name="&lt;矩形&gt;" class="cls-23" x="163.93" y="450.36" width="20.63" height="8.27"/><rect id="_矩形_56" data-name="&lt;矩形&gt;" class="cls-24" x="172.58" y="450.36" width="3.72" height="8.27"/></g><g id="_编组_29" data-name="&lt;编组&gt;"><rect id="_矩形_57" data-name="&lt;矩形&gt;" class="cls-23" x="257.07" y="450.36" width="20.63" height="8.27" transform="translate(534.77 908.99) rotate(180)"/><rect id="_矩形_58" data-name="&lt;矩形&gt;" class="cls-24" x="265.32" y="450.36" width="3.72" height="8.27" transform="translate(534.35 908.99) rotate(180)"/></g><g id="_编组_30" data-name="&lt;编组&gt;"><rect id="_矩形_59" data-name="&lt;矩形&gt;" class="cls-23" x="257.07" y="428.01" width="20.63" height="8.27" transform="translate(534.77 864.29) rotate(180)"/><rect id="_矩形_60" data-name="&lt;矩形&gt;" class="cls-24" x="265.32" y="428.01" width="3.72" height="8.27" transform="translate(534.35 864.29) rotate(180)"/></g><g id="_编组_31" data-name="&lt;编组&gt;"><rect id="_矩形_61" data-name="&lt;矩形&gt;" class="cls-23" x="257.07" y="405.66" width="20.63" height="8.27" transform="translate(534.77 819.58) rotate(180)"/><rect id="_矩形_62" data-name="&lt;矩形&gt;" class="cls-24" x="265.32" y="405.66" width="3.72" height="8.27" transform="translate(534.35 819.58) rotate(180)"/></g><g id="_编组_32" data-name="&lt;编组&gt;"><rect id="_矩形_63" data-name="&lt;矩形&gt;" class="cls-23" x="257.07" y="383.3" width="20.63" height="8.27" transform="translate(534.77 774.88) rotate(180)"/><rect id="_矩形_64" data-name="&lt;矩形&gt;" class="cls-24" x="265.32" y="383.3" width="3.72" height="8.27" transform="translate(534.35 774.88) rotate(180)"/></g><rect id="_矩形_65" data-name="&lt;矩形&gt;" class="cls-10" x="202.36" y="372.69" width="38.16" height="98.16" rx="3.64" ry="3.64"/><rect id="_矩形_66" data-name="&lt;矩形&gt;" class="cls-25" x="185.82" y="377.1" width="71.25" height="89.34"/></g><g id="_编组_33" data-name="&lt;编组&gt;"><rect id="_矩形_67" data-name="&lt;矩形&gt;" class="cls-14" x="295.58" y="327.47" width="17.32" height="13.51" transform="translate(638.46 29.99) rotate(90)"/><rect id="_矩形_68" data-name="&lt;矩形&gt;" class="cls-14" x="268.66" y="327.47" width="17.32" height="13.51" transform="translate(611.54 56.9) rotate(90)"/><g id="_编组_34" data-name="&lt;编组&gt;"><rect id="_矩形_69" data-name="&lt;矩形&gt;" class="cls-26" x="284.22" y="324.49" width="13.24" height="19.47" transform="translate(625.06 43.39) rotate(90)"/></g><rect id="_矩形_70" data-name="&lt;矩形&gt;" class="cls-27" x="277.91" y="326.86" width="4.74" height="14.67"/><rect id="_矩形_71" data-name="&lt;矩形&gt;" class="cls-27" x="298.97" y="326.86" width="4.74" height="14.67"/></g><g id="_编组_35" data-name="&lt;编组&gt;"><rect id="_矩形_72" data-name="&lt;矩形&gt;" class="cls-14" x="173.98" y="327.47" width="17.32" height="13.51" transform="translate(516.86 151.59) rotate(90)"/><rect id="_矩形_73" data-name="&lt;矩形&gt;" class="cls-14" x="147.07" y="327.47" width="17.32" height="13.51" transform="translate(489.94 178.5) rotate(90)"/><g id="_编组_36" data-name="&lt;编组&gt;"><rect id="_矩形_74" data-name="&lt;矩形&gt;" class="cls-26" x="162.62" y="324.49" width="13.24" height="19.47" transform="translate(503.46 164.99) rotate(90)"/></g><rect id="_矩形_75" data-name="&lt;矩形&gt;" class="cls-27" x="156.31" y="326.86" width="4.74" height="14.67"/><rect id="_矩形_76" data-name="&lt;矩形&gt;" class="cls-27" x="177.37" y="326.86" width="4.74" height="14.67"/></g><g id="_编组_37" data-name="&lt;编组&gt;"><rect id="_矩形_77" data-name="&lt;矩形&gt;" class="cls-14" x="112.27" y="327.47" width="17.32" height="13.51" transform="translate(455.15 213.29) rotate(90)"/><rect id="_矩形_78" data-name="&lt;矩形&gt;" class="cls-14" x="85.36" y="327.47" width="17.32" height="13.51" transform="translate(428.24 240.21) rotate(90)"/><g id="_编组_38" data-name="&lt;编组&gt;"><rect id="_矩形_79" data-name="&lt;矩形&gt;" class="cls-26" x="100.91" y="324.49" width="13.24" height="19.47" transform="translate(441.75 226.7) rotate(90)"/></g><rect id="_矩形_80" data-name="&lt;矩形&gt;" class="cls-27" x="94.6" y="326.86" width="4.74" height="14.67"/><rect id="_矩形_81" data-name="&lt;矩形&gt;" class="cls-27" x="115.66" y="326.86" width="4.74" height="14.67"/></g><g id="_编组_39" data-name="&lt;编组&gt;"><rect id="_矩形_82" data-name="&lt;矩形&gt;" class="cls-14" x="75.32" y="381.74" width="64.41" height="10.59"/><rect id="_矩形_83" data-name="&lt;矩形&gt;" class="cls-28" x="91.81" y="375.78" width="31.43" height="23.16"/><rect id="_矩形_84" data-name="&lt;矩形&gt;" class="cls-10" x="112.9" y="376.82" width="8.31" height="21.3"/><polyline id="_路径_18" data-name="&lt;路径&gt;" class="cls-29" points="89.66 379.09 89.66 374.24 124.62 374.24 124.62 379.09"/><polyline id="_路径_19" data-name="&lt;路径&gt;" class="cls-29" points="124.62 395.69 124.62 400.55 89.66 400.55 89.66 395.69"/><rect id="_矩形_85" data-name="&lt;矩形&gt;" class="cls-30" x="81.47" y="383.11" width="10.34" height="7.86"/><rect id="_矩形_86" data-name="&lt;矩形&gt;" class="cls-30" x="123.24" y="383.11" width="10.34" height="7.86"/></g><g id="_编组_40" data-name="&lt;编组&gt;"><circle id="_路径_20" data-name="&lt;路径&gt;" class="cls-31" cx="221.45" cy="174.16" r="91.32"/><g id="_编组_41" data-name="&lt;编组&gt;"><circle id="_路径_21" data-name="&lt;路径&gt;" class="cls-32" cx="221.46" cy="172.14" r="5.81"/><circle id="_路径_22" data-name="&lt;路径&gt;" class="cls-32" cx="221.46" cy="133.41" r="5.81"/><circle id="_路径_23" data-name="&lt;路径&gt;" class="cls-32" cx="187.92" cy="191.51" r="5.81"/><circle id="_路径_24" data-name="&lt;路径&gt;" class="cls-32" cx="255.01" cy="191.51" r="5.81"/><circle id="_路径_25" data-name="&lt;路径&gt;" class="cls-10" cx="221.46" cy="207.04" r="13.68"/><circle id="_路径_26" data-name="&lt;路径&gt;" class="cls-10" cx="255.01" cy="148.87" r="13.68"/><circle id="_路径_27" data-name="&lt;路径&gt;" class="cls-10" cx="187.88" cy="148.87" r="13.68"/></g></g><g id="_编组_42" data-name="&lt;编组&gt;"><rect id="_矩形_87" data-name="&lt;矩形&gt;" class="cls-14" x="221.8" y="312.33" width="17.32" height="43.57" transform="translate(-103.65 564.58) rotate(-90)"/><rect id="_矩形_88" data-name="&lt;矩形&gt;" class="cls-2" x="221.45" y="319.23" width="16.71" height="29.78" transform="translate(-104.32 563.92) rotate(-90)"/><polygon id="_路径_28" data-name="&lt;路径&gt;" class="cls-3" points="220.29 342.41 239.48 342.41 239.48 325.82 220.29 325.82 220.29 329.22 220.99 329.22 220.99 339.6 220.29 339.6 220.29 342.41"/></g></g></g></svg>