<svg xmlns="http://www.w3.org/2000/svg" xmlns:xlink="http://www.w3.org/1999/xlink" viewBox="0 0 946.34 1268.13"><defs><style>.cls-1{fill:#353535;}.cls-2,.cls-39,.cls-6{fill:none;}.cls-12,.cls-19,.cls-2,.cls-30,.cls-33,.cls-34,.cls-38,.cls-39,.cls-4,.cls-6,.cls-9{stroke:#fff;}.cls-12,.cls-14,.cls-16,.cls-17,.cls-19,.cls-2,.cls-30,.cls-33,.cls-34,.cls-38,.cls-39,.cls-4,.cls-5,.cls-6,.cls-9{stroke-miterlimit:10;}.cls-2{stroke-width:3.31px;}.cls-3{fill:#f2cb6b;}.cls-4{fill:#d9b13b;}.cls-14,.cls-16,.cls-17,.cls-4,.cls-5,.cls-6,.cls-9{stroke-width:0.66px;}.cls-5{fill:#514f50;stroke:#494646;}.cls-7{fill:#c7c6c6;}.cls-8{fill:#a6a6a6;}.cls-12,.cls-19,.cls-9{fill:#d0ab3c;}.cls-10{fill:#d2d3d3;}.cls-11{fill:#030000;}.cls-12,.cls-38{stroke-width:1.32px;}.cls-13{fill:#bb8c27;}.cls-14{fill:#ff4a5c;stroke:#681216;}.cls-15{fill:#e7e887;}.cls-16{fill:#58b1f9;stroke:#122c4f;}.cls-17{fill:#f99f46;stroke:#ef973f;}.cls-18{fill:#aaa;}.cls-19,.cls-30,.cls-34,.cls-39{stroke-width:1.99px;}.cls-20{fill:#f0c581;}.cls-21{fill:#c8a266;}.cls-22{fill:#fff;}.cls-23{fill:#f4cb70;}.cls-24{fill:#c6c5c5;}.cls-25{fill:#ececec;}.cls-26{fill:url(#未命名的渐变_61);}.cls-27{fill:url(#未命名的渐变_19);}.cls-28{fill:#c2c2c2;}.cls-29{fill:#8c8c8c;opacity:0.44;}.cls-30{fill:#e2b838;}.cls-31{fill:#848484;}.cls-32{fill:#454545;}.cls-33{fill:#69667f;stroke-width:2.65px;}.cls-34,.cls-38{fill:#e1b737;}.cls-35{fill:#1f1f1f;}.cls-36{fill:#d0d0d0;}.cls-37{fill:#a4a4a4;}.cls-40{fill:#161616;}.cls-41{fill:#c1c1c1;}</style><radialGradient id="未命名的渐变_61" cx="473.17" cy="335.06" r="296.64" gradientUnits="userSpaceOnUse"><stop offset="0" stop-color="#545454"/><stop offset="0.83" stop-color="#727171"/><stop offset="0.89" stop-color="#4d4b4a"/><stop offset="1" stop-color="#1f1f1f"/></radialGradient><radialGradient id="未命名的渐变_19" cx="351.87" cy="216.47" r="374.47" gradientUnits="userSpaceOnUse"><stop offset="0" stop-color="#545454"/><stop offset="1" stop-color="#282828"/></radialGradient></defs><title>语音合成模块</title><g id="图层_2" data-name="图层 2"><g id="图层_1-2" data-name="图层 1"><path id="_复合路径_" data-name="&lt;复合路径&gt;" class="cls-1" d="M874.9,0H71.44A71.43,71.43,0,0,0,0,71.43V1196.69a71.44,71.44,0,0,0,71.44,71.44H874.9a71.44,71.44,0,0,0,71.44-71.44V71.43A71.43,71.43,0,0,0,874.9,0Zm23.39,43.58a6.37,6.37,0,1,1,0,9A6.37,6.37,0,0,1,898.29,43.58Zm9,60.31a6.37,6.37,0,1,1,0-9A6.37,6.37,0,0,1,907.3,103.88Zm0,1069.36a6.37,6.37,0,1,1,0-9A6.37,6.37,0,0,1,907.3,1173.25ZM877.14,31.09a6.37,6.37,0,1,1-6.37,6.37A6.37,6.37,0,0,1,877.14,31.09Zm0,18.46A24.18,24.18,0,1,1,853,73.73,24.18,24.18,0,0,1,877.14,49.55Zm0,66.83a6.37,6.37,0,1,1,6.37-6.37A6.37,6.37,0,0,1,877.14,116.37Zm6.37,1041.75a6.37,6.37,0,1,1-6.37-6.37A6.37,6.37,0,0,1,883.51,1158.12ZM856,103.88a6.37,6.37,0,1,1,0-9A6.37,6.37,0,0,1,856,103.88Zm0,1069.36a6.37,6.37,0,1,1,0-9A6.37,6.37,0,0,1,856,1173.25ZM847,43.58a6.37,6.37,0,1,1,0,9A6.37,6.37,0,0,1,847,43.58Zm-6.12,23.78a6.37,6.37,0,1,1-6.37,6.37A6.37,6.37,0,0,1,840.87,67.36ZM90.34,43.58a6.37,6.37,0,1,1,0,9A6.37,6.37,0,0,1,90.34,43.58Zm9,60.31a6.37,6.37,0,1,1,0-9A6.37,6.37,0,0,1,99.35,103.88Zm0,1069.36a6.37,6.37,0,1,1,0-9A6.37,6.37,0,0,1,99.35,1173.25ZM69.19,31.09a6.37,6.37,0,1,1-6.37,6.37A6.37,6.37,0,0,1,69.19,31.09Zm0,18.46A24.18,24.18,0,1,1,45,73.73,24.18,24.18,0,0,1,69.19,49.55Zm0,66.83A6.37,6.37,0,1,1,75.56,110,6.37,6.37,0,0,1,69.19,116.37Zm6.37,1041.75a6.37,6.37,0,1,1-6.37-6.37A6.37,6.37,0,0,1,75.56,1158.12ZM48,103.88a6.37,6.37,0,1,1,0-9A6.37,6.37,0,0,1,48,103.88Zm0,1069.36a6.37,6.37,0,1,1,0-9A6.37,6.37,0,0,1,48,1173.25ZM39,43.58a6.37,6.37,0,1,1,0,9A6.37,6.37,0,0,1,39,43.58ZM32.92,67.36a6.37,6.37,0,1,1-6.37,6.37A6.37,6.37,0,0,1,32.92,67.36Zm-6.37,1127a6.37,6.37,0,1,1,6.37,6.37A6.37,6.37,0,0,1,26.55,1194.39ZM48,1224.55a6.37,6.37,0,1,1,0-9A6.37,6.37,0,0,1,48,1224.55ZM69.19,1237a6.37,6.37,0,1,1,6.37-6.37A6.37,6.37,0,0,1,69.19,1237Zm0-18.46a24.18,24.18,0,1,1,24.18-24.18A24.18,24.18,0,0,1,69.19,1218.58Zm30.15,6a6.37,6.37,0,1,1,0-9A6.37,6.37,0,0,1,99.35,1224.55Zm6.12-23.78a6.37,6.37,0,1,1,6.37-6.37A6.37,6.37,0,0,1,105.47,1200.76Zm0-1120.66a6.37,6.37,0,1,1,6.37-6.37A6.37,6.37,0,0,1,105.47,80.1Zm729,1114.29a6.37,6.37,0,1,1,6.37,6.37A6.37,6.37,0,0,1,834.5,1194.39Zm21.5,30.15a6.37,6.37,0,1,1,0-9A6.37,6.37,0,0,1,856,1224.55ZM877.14,1237a6.37,6.37,0,1,1,6.37-6.37A6.37,6.37,0,0,1,877.14,1237Zm0-18.46a24.18,24.18,0,1,1,24.18-24.18A24.18,24.18,0,0,1,877.14,1218.58Zm30.15,6a6.37,6.37,0,1,1,0-9A6.37,6.37,0,0,1,907.3,1224.55Zm6.12-23.78a6.37,6.37,0,1,1,6.37-6.37A6.37,6.37,0,0,1,913.42,1200.76Zm0-1120.66a6.37,6.37,0,1,1,6.37-6.37A6.37,6.37,0,0,1,913.42,80.1Z"/><g id="_编组_" data-name="&lt;编组&gt;"><g id="_编组_2" data-name="&lt;编组&gt;"><circle id="_路径_" data-name="&lt;路径&gt;" class="cls-2" cx="69.19" cy="73.73" r="48.21"/><path id="_复合路径_2" data-name="&lt;复合路径&gt;" class="cls-3" d="M69.19,25.37a48.37,48.37,0,1,0,48.37,48.37A48.42,48.42,0,0,0,69.19,25.37ZM90.34,43.58a6.37,6.37,0,1,1,0,9A6.37,6.37,0,0,1,90.34,43.58ZM69.19,31.09a6.37,6.37,0,1,1-6.37,6.37A6.37,6.37,0,0,1,69.19,31.09ZM39,43.58a6.37,6.37,0,1,1,0,9A6.37,6.37,0,0,1,39,43.58ZM32.92,80.1a6.37,6.37,0,1,1,6.37-6.37A6.37,6.37,0,0,1,32.92,80.1ZM48,103.88a6.37,6.37,0,1,1,0-9A6.37,6.37,0,0,1,48,103.88Zm21.15,12.49A6.37,6.37,0,1,1,75.56,110,6.37,6.37,0,0,1,69.19,116.37Zm0-18.46A24.18,24.18,0,1,1,93.38,73.73,24.21,24.21,0,0,1,69.19,97.91Zm30.15,6a6.37,6.37,0,1,1,0-9A6.37,6.37,0,0,1,99.35,103.88Zm6.12-23.78a6.37,6.37,0,1,1,6.37-6.37A6.37,6.37,0,0,1,105.47,80.1Z"/></g><g id="_编组_3" data-name="&lt;编组&gt;"><circle id="_路径_2" data-name="&lt;路径&gt;" class="cls-2" cx="877.14" cy="73.73" r="48.21"/><path id="_复合路径_3" data-name="&lt;复合路径&gt;" class="cls-3" d="M877.14,25.37a48.37,48.37,0,1,0,48.37,48.37A48.42,48.42,0,0,0,877.14,25.37Zm21.15,18.21a6.37,6.37,0,1,1,0,9A6.37,6.37,0,0,1,898.29,43.58ZM877.14,31.09a6.37,6.37,0,1,1-6.37,6.37A6.37,6.37,0,0,1,877.14,31.09ZM847,43.58a6.37,6.37,0,1,1,0,9A6.37,6.37,0,0,1,847,43.58ZM840.87,80.1a6.37,6.37,0,1,1,6.37-6.37A6.37,6.37,0,0,1,840.87,80.1ZM856,103.88a6.37,6.37,0,1,1,0-9A6.37,6.37,0,0,1,856,103.88Zm21.15,12.49a6.37,6.37,0,1,1,6.37-6.37A6.37,6.37,0,0,1,877.14,116.37Zm0-18.46a24.18,24.18,0,1,1,24.18-24.18A24.21,24.21,0,0,1,877.14,97.91Zm30.15,6a6.37,6.37,0,1,1,0-9A6.37,6.37,0,0,1,907.3,103.88Zm6.12-23.78a6.37,6.37,0,1,1,6.37-6.37A6.37,6.37,0,0,1,913.42,80.1Z"/></g><g id="_编组_4" data-name="&lt;编组&gt;"><circle id="_路径_3" data-name="&lt;路径&gt;" class="cls-2" cx="69.19" cy="1194.39" r="48.21"/><path id="_复合路径_4" data-name="&lt;复合路径&gt;" class="cls-3" d="M69.19,1146a48.37,48.37,0,1,0,48.37,48.37A48.42,48.42,0,0,0,69.19,1146Zm21.15,18.21a6.37,6.37,0,1,1,0,9A6.37,6.37,0,0,1,90.34,1164.24Zm-21.15-12.49a6.37,6.37,0,1,1-6.37,6.37A6.37,6.37,0,0,1,69.19,1151.75ZM39,1164.24a6.37,6.37,0,1,1,0,9A6.37,6.37,0,0,1,39,1164.24Zm-6.12,36.52a6.37,6.37,0,1,1,6.37-6.37A6.37,6.37,0,0,1,32.92,1200.76ZM48,1224.55a6.37,6.37,0,1,1,0-9A6.37,6.37,0,0,1,48,1224.55ZM69.19,1237a6.37,6.37,0,1,1,6.37-6.37A6.37,6.37,0,0,1,69.19,1237Zm0-18.46a24.18,24.18,0,1,1,24.18-24.18A24.21,24.21,0,0,1,69.19,1218.58Zm30.15,6a6.37,6.37,0,1,1,0-9A6.37,6.37,0,0,1,99.35,1224.55Zm6.12-23.78a6.37,6.37,0,1,1,6.37-6.37A6.37,6.37,0,0,1,105.47,1200.76Z"/></g><g id="_编组_5" data-name="&lt;编组&gt;"><circle id="_路径_4" data-name="&lt;路径&gt;" class="cls-2" cx="877.14" cy="1194.39" r="48.21"/><path id="_复合路径_5" data-name="&lt;复合路径&gt;" class="cls-3" d="M877.14,1146a48.37,48.37,0,1,0,48.37,48.37A48.42,48.42,0,0,0,877.14,1146Zm21.15,18.21a6.37,6.37,0,1,1,0,9A6.37,6.37,0,0,1,898.29,1164.24Zm-21.15-12.49a6.37,6.37,0,1,1-6.37,6.37A6.37,6.37,0,0,1,877.14,1151.75ZM847,1164.24a6.37,6.37,0,1,1,0,9A6.37,6.37,0,0,1,847,1164.24Zm-6.12,36.52a6.37,6.37,0,1,1,6.37-6.37A6.37,6.37,0,0,1,840.87,1200.76ZM856,1224.55a6.37,6.37,0,1,1,0-9A6.37,6.37,0,0,1,856,1224.55ZM877.14,1237a6.37,6.37,0,1,1,6.37-6.37A6.37,6.37,0,0,1,877.14,1237Zm0-18.46a24.18,24.18,0,1,1,24.18-24.18A24.21,24.21,0,0,1,877.14,1218.58Zm30.15,6a6.37,6.37,0,1,1,0-9A6.37,6.37,0,0,1,907.3,1224.55Zm6.12-23.78a6.37,6.37,0,1,1,6.37-6.37A6.37,6.37,0,0,1,913.42,1200.76Z"/></g></g><g id="_编组_6" data-name="&lt;编组&gt;"><rect id="_矩形_" data-name="&lt;矩形&gt;" class="cls-4" x="360.76" y="922.48" width="11.17" height="21.09" transform="translate(1299.37 566.69) rotate(90)"/><rect id="_矩形_2" data-name="&lt;矩形&gt;" class="cls-4" x="360.76" y="950.55" width="11.17" height="21.09" transform="translate(1327.44 594.76) rotate(90)"/><rect id="_矩形_3" data-name="&lt;矩形&gt;" class="cls-4" x="322.46" y="936.52" width="11.17" height="21.09" transform="translate(1275.11 619.02) rotate(90)"/><rect id="_矩形_4" data-name="&lt;矩形&gt;" class="cls-5" x="319.89" y="934.74" width="54.1" height="24.65" transform="translate(1294.01 600.12) rotate(90)"/><polyline id="_路径_5" data-name="&lt;路径&gt;" class="cls-6" points="346.2 919.35 333.87 919.35 333.87 927.4"/><polyline id="_路径_6" data-name="&lt;路径&gt;" class="cls-6" points="346.2 974.69 333.87 974.69 333.87 966.64"/><rect id="_矩形_5" data-name="&lt;矩形&gt;" class="cls-7" x="359.71" y="928.09" width="8.99" height="9.87" transform="translate(1297.23 568.83) rotate(90)"/><rect id="_矩形_6" data-name="&lt;矩形&gt;" class="cls-7" x="359.71" y="956.16" width="8.99" height="9.87" transform="translate(1325.3 596.9) rotate(90)"/><rect id="_矩形_7" data-name="&lt;矩形&gt;" class="cls-7" x="325.19" y="942.13" width="8.99" height="9.87" transform="translate(1276.75 617.38) rotate(90)"/><rect id="_矩形_8" data-name="&lt;矩形&gt;" class="cls-8" x="357.48" y="932.51" width="8.99" height="1.05" transform="translate(1295 571.06) rotate(90)"/><rect id="_矩形_9" data-name="&lt;矩形&gt;" class="cls-8" x="357.48" y="960.58" width="8.99" height="1.05" transform="translate(1323.07 599.13) rotate(90)"/><rect id="_矩形_10" data-name="&lt;矩形&gt;" class="cls-8" x="327.5" y="946.54" width="8.99" height="1.05" transform="translate(1279.06 615.07) rotate(90)"/></g><g id="_编组_7" data-name="&lt;编组&gt;"><rect id="_矩形_11" data-name="&lt;矩形&gt;" class="cls-9" x="262.13" y="905.62" width="17.32" height="43.57" transform="translate(1198.19 656.62) rotate(90)"/><rect id="_矩形_12" data-name="&lt;矩形&gt;" class="cls-10" x="263.09" y="912.52" width="16.71" height="29.78" transform="translate(1198.85 655.96) rotate(90)"/><polygon id="_路径_7" data-name="&lt;路径&gt;" class="cls-11" points="280.96 919.11 261.77 919.11 261.77 935.7 280.96 935.7 280.96 932.31 280.26 932.31 280.26 921.92 280.96 921.92 280.96 919.11"/></g><g id="_编组_8" data-name="&lt;编组&gt;"><rect id="_矩形_13" data-name="&lt;矩形&gt;" class="cls-9" x="262.13" y="944.9" width="17.32" height="43.57" transform="translate(1237.47 695.9) rotate(90)"/><rect id="_矩形_14" data-name="&lt;矩形&gt;" class="cls-10" x="263.09" y="951.79" width="16.71" height="29.78" transform="translate(1238.13 695.24) rotate(90)"/><polygon id="_路径_8" data-name="&lt;路径&gt;" class="cls-11" points="280.96 958.39 261.77 958.39 261.77 974.98 280.96 974.98 280.96 971.59 280.26 971.59 280.26 961.2 280.96 961.2 280.96 958.39"/></g><g id="_编组_9" data-name="&lt;编组&gt;"><rect id="_矩形_15" data-name="&lt;矩形&gt;" class="cls-9" x="120.12" y="1017.03" width="17.32" height="43.57" transform="translate(1167.6 910.04) rotate(90)"/><rect id="_矩形_16" data-name="&lt;矩形&gt;" class="cls-10" x="121.09" y="1023.93" width="16.71" height="29.78" transform="translate(1168.26 909.37) rotate(90)"/><polygon id="_路径_9" data-name="&lt;路径&gt;" class="cls-11" points="138.95 1030.52 119.76 1030.52 119.76 1047.11 138.95 1047.11 138.95 1043.72 138.25 1043.72 138.25 1033.34 138.95 1033.34 138.95 1030.52"/></g><g id="_编组_10" data-name="&lt;编组&gt;"><rect id="_矩形_17" data-name="&lt;矩形&gt;" class="cls-9" x="120.12" y="943.6" width="17.32" height="43.57" transform="translate(1094.17 836.61) rotate(90)"/><rect id="_矩形_18" data-name="&lt;矩形&gt;" class="cls-10" x="121.09" y="950.5" width="16.71" height="29.78" transform="translate(1094.83 835.95) rotate(90)"/><polygon id="_路径_10" data-name="&lt;路径&gt;" class="cls-11" points="138.95 957.1 119.76 957.1 119.76 973.68 138.95 973.68 138.95 970.29 138.25 970.29 138.25 959.91 138.95 959.91 138.95 957.1"/></g><g id="_编组_11" data-name="&lt;编组&gt;"><rect id="_矩形_19" data-name="&lt;矩形&gt;" class="cls-9" x="120.12" y="701.98" width="17.32" height="43.57" transform="translate(852.55 594.99) rotate(90)"/><rect id="_矩形_20" data-name="&lt;矩形&gt;" class="cls-10" x="121.09" y="708.88" width="16.71" height="29.78" transform="translate(853.21 594.33) rotate(90)"/><polygon id="_路径_11" data-name="&lt;路径&gt;" class="cls-11" points="138.95 715.47 119.76 715.47 119.76 732.06 138.95 732.06 138.95 728.67 138.25 728.67 138.25 718.29 138.95 718.29 138.95 715.47"/></g><g id="_编组_12" data-name="&lt;编组&gt;"><rect id="_矩形_21" data-name="&lt;矩形&gt;" class="cls-9" x="420.82" y="905.62" width="17.32" height="43.57" transform="translate(1356.88 497.93) rotate(90)"/><rect id="_矩形_22" data-name="&lt;矩形&gt;" class="cls-10" x="421.78" y="912.52" width="16.71" height="29.78" transform="translate(1357.54 497.27) rotate(90)"/><polygon id="_路径_12" data-name="&lt;路径&gt;" class="cls-11" points="439.65 919.11 420.46 919.11 420.46 935.7 439.65 935.7 439.65 932.31 438.95 932.31 438.95 921.92 439.65 921.92 439.65 919.11"/></g><g id="_编组_13" data-name="&lt;编组&gt;"><rect id="_矩形_23" data-name="&lt;矩形&gt;" class="cls-9" x="420.82" y="944.9" width="17.32" height="43.57" transform="translate(1396.16 537.21) rotate(90)"/><rect id="_矩形_24" data-name="&lt;矩形&gt;" class="cls-10" x="421.78" y="951.79" width="16.71" height="29.78" transform="translate(1396.82 536.54) rotate(90)"/><polygon id="_路径_13" data-name="&lt;路径&gt;" class="cls-11" points="439.65 958.39 420.46 958.39 420.46 974.98 439.65 974.98 439.65 971.59 438.95 971.59 438.95 961.2 439.65 961.2 439.65 958.39"/></g><g id="_编组_14" data-name="&lt;编组&gt;"><rect id="_矩形_25" data-name="&lt;矩形&gt;" class="cls-9" x="519.71" y="905.62" width="17.32" height="43.57" transform="translate(1455.77 399.04) rotate(90)"/><rect id="_矩形_26" data-name="&lt;矩形&gt;" class="cls-10" x="520.67" y="912.52" width="16.71" height="29.78" transform="translate(1456.43 398.38) rotate(90)"/><polygon id="_路径_14" data-name="&lt;路径&gt;" class="cls-11" points="538.54 919.11 519.35 919.11 519.35 935.7 538.54 935.7 538.54 932.31 537.84 932.31 537.84 921.92 538.54 921.92 538.54 919.11"/></g><g id="_编组_15" data-name="&lt;编组&gt;"><rect id="_矩形_27" data-name="&lt;矩形&gt;" class="cls-9" x="519.71" y="944.9" width="17.32" height="43.57" transform="translate(1495.05 438.32) rotate(90)"/><rect id="_矩形_28" data-name="&lt;矩形&gt;" class="cls-10" x="520.67" y="951.79" width="16.71" height="29.78" transform="translate(1495.71 437.66) rotate(90)"/><polygon id="_路径_15" data-name="&lt;路径&gt;" class="cls-11" points="538.54 958.39 519.35 958.39 519.35 974.98 538.54 974.98 538.54 971.59 537.84 971.59 537.84 961.2 538.54 961.2 538.54 958.39"/></g><g id="_编组_16" data-name="&lt;编组&gt;"><rect id="_矩形_29" data-name="&lt;矩形&gt;" class="cls-9" x="607" y="905.62" width="17.32" height="43.57" transform="translate(1543.06 311.75) rotate(90)"/><rect id="_矩形_30" data-name="&lt;矩形&gt;" class="cls-10" x="607.96" y="912.52" width="16.71" height="29.78" transform="translate(1543.72 311.09) rotate(90)"/><polygon id="_路径_16" data-name="&lt;路径&gt;" class="cls-11" points="625.83 919.11 606.64 919.11 606.64 935.7 625.83 935.7 625.83 932.31 625.13 932.31 625.13 921.92 625.83 921.92 625.83 919.11"/></g><g id="_编组_17" data-name="&lt;编组&gt;"><rect id="_矩形_31" data-name="&lt;矩形&gt;" class="cls-9" x="825.79" y="744.25" width="17.32" height="43.57" transform="translate(1600.48 -68.41) rotate(90)"/><rect id="_矩形_32" data-name="&lt;矩形&gt;" class="cls-10" x="826.75" y="751.14" width="16.71" height="29.78" transform="translate(1601.14 -69.07) rotate(90)"/><polygon id="_路径_17" data-name="&lt;路径&gt;" class="cls-11" points="844.62 757.74 825.43 757.74 825.43 774.33 844.62 774.33 844.62 770.93 843.92 770.93 843.92 760.55 844.62 760.55 844.62 757.74"/></g><g id="_编组_18" data-name="&lt;编组&gt;"><rect id="_矩形_33" data-name="&lt;矩形&gt;" class="cls-12" x="593.54" y="959.93" width="17.32" height="13.51" transform="translate(-364.49 1568.88) rotate(-90)"/><rect id="_矩形_34" data-name="&lt;矩形&gt;" class="cls-12" x="620.45" y="959.93" width="17.32" height="13.51" transform="translate(-337.57 1595.79) rotate(-90)"/><g id="_编组_19" data-name="&lt;编组&gt;"><path id="_路径_18" data-name="&lt;路径&gt;" class="cls-13" d="M600.1,962a4.66,4.66,0,1,1,0,9.32v2.79H609V959.24H600.1Z"/><path id="_路径_19" data-name="&lt;路径&gt;" class="cls-13" d="M631.21,971.34a4.66,4.66,0,1,1,0-9.32v-2.79h-8.85v14.89h8.85Z"/><rect id="_矩形_35" data-name="&lt;矩形&gt;" class="cls-14" x="608.98" y="956.95" width="13.24" height="19.47" transform="translate(-351.09 1582.28) rotate(-90)"/></g></g><g id="_编组_20" data-name="&lt;编组&gt;"><rect id="_矩形_36" data-name="&lt;矩形&gt;" class="cls-12" x="106.67" y="1068.77" width="17.32" height="13.51" transform="translate(-960.21 1190.85) rotate(-90)"/><rect id="_矩形_37" data-name="&lt;矩形&gt;" class="cls-12" x="133.58" y="1068.77" width="17.32" height="13.51" transform="translate(-933.29 1217.77) rotate(-90)"/><g id="_编组_21" data-name="&lt;编组&gt;"><path id="_路径_20" data-name="&lt;路径&gt;" class="cls-13" d="M113.23,1070.87a4.66,4.66,0,1,1,0,9.32V1083h8.85v-14.89h-8.85Z"/><path id="_路径_21" data-name="&lt;路径&gt;" class="cls-13" d="M144.33,1080.19a4.66,4.66,0,1,1,0-9.32v-2.79h-8.85V1083h8.85Z"/><rect id="_矩形_38" data-name="&lt;矩形&gt;" class="cls-14" x="122.11" y="1065.8" width="13.24" height="19.47" transform="translate(-946.81 1204.25) rotate(-90)"/></g></g><g id="_编组_22" data-name="&lt;编组&gt;"><rect id="_矩形_39" data-name="&lt;矩形&gt;" class="cls-12" x="106.67" y="995.35" width="17.32" height="13.51" transform="translate(-886.78 1117.43) rotate(-90)"/><rect id="_矩形_40" data-name="&lt;矩形&gt;" class="cls-12" x="133.58" y="995.35" width="17.32" height="13.51" transform="translate(-859.87 1144.34) rotate(-90)"/><path id="_路径_22" data-name="&lt;路径&gt;" class="cls-15" d="M113.23,997.44a4.66,4.66,0,1,1,0,9.32v2.79h8.85V994.66h-8.85Z"/><path id="_路径_23" data-name="&lt;路径&gt;" class="cls-15" d="M144.33,1006.76a4.66,4.66,0,1,1,0-9.32v-2.79h-8.85v14.89h8.85Z"/><rect id="_矩形_41" data-name="&lt;矩形&gt;" class="cls-16" x="122.11" y="992.37" width="13.24" height="19.47" transform="translate(-873.38 1130.83) rotate(-90)"/></g><g id="_编组_23" data-name="&lt;编组&gt;"><rect id="_矩形_42" data-name="&lt;矩形&gt;" class="cls-12" x="106.67" y="921.92" width="17.32" height="13.51" transform="translate(-813.35 1044) rotate(-90)"/><rect id="_矩形_43" data-name="&lt;矩形&gt;" class="cls-12" x="133.58" y="921.92" width="17.32" height="13.51" transform="translate(-786.44 1070.91) rotate(-90)"/><g id="_编组_24" data-name="&lt;编组&gt;"><rect id="_矩形_44" data-name="&lt;矩形&gt;" class="cls-17" x="122.11" y="918.94" width="13.24" height="19.47" transform="translate(-799.95 1057.4) rotate(-90)"/></g><rect id="_矩形_45" data-name="&lt;矩形&gt;" class="cls-18" x="136.91" y="921.37" width="4.74" height="14.67" transform="translate(278.56 1857.4) rotate(180)"/><rect id="_矩形_46" data-name="&lt;矩形&gt;" class="cls-18" x="115.84" y="921.37" width="4.74" height="14.67" transform="translate(236.43 1857.4) rotate(180)"/></g><g id="_编组_25" data-name="&lt;编组&gt;"><rect id="_矩形_47" data-name="&lt;矩形&gt;" class="cls-12" x="812.39" y="953.31" width="17.32" height="13.51" transform="translate(-139.02 1781.11) rotate(-90)"/><rect id="_矩形_48" data-name="&lt;矩形&gt;" class="cls-12" x="839.3" y="953.31" width="17.32" height="13.51" transform="translate(-112.11 1808.02) rotate(-90)"/><g id="_编组_26" data-name="&lt;编组&gt;"><rect id="_矩形_49" data-name="&lt;矩形&gt;" class="cls-17" x="827.83" y="950.33" width="13.24" height="19.47" transform="translate(-125.62 1794.51) rotate(-90)"/></g><rect id="_矩形_50" data-name="&lt;矩形&gt;" class="cls-18" x="842.63" y="952.76" width="4.74" height="14.67" transform="translate(1690.01 1920.19) rotate(180)"/><rect id="_矩形_51" data-name="&lt;矩形&gt;" class="cls-18" x="821.57" y="952.76" width="4.74" height="14.67" transform="translate(1647.87 1920.19) rotate(180)"/></g><g id="_编组_27" data-name="&lt;编组&gt;"><rect id="_矩形_52" data-name="&lt;矩形&gt;" class="cls-12" x="492.02" y="883.06" width="17.32" height="13.51" transform="translate(-389.13 1390.5) rotate(-90)"/><rect id="_矩形_53" data-name="&lt;矩形&gt;" class="cls-12" x="518.93" y="883.06" width="17.32" height="13.51" transform="translate(-362.22 1417.41) rotate(-90)"/><g id="_编组_28" data-name="&lt;编组&gt;"><rect id="_矩形_54" data-name="&lt;矩形&gt;" class="cls-17" x="507.46" y="880.08" width="13.24" height="19.47" transform="translate(-375.73 1403.9) rotate(-90)"/></g><rect id="_矩形_55" data-name="&lt;矩形&gt;" class="cls-18" x="522.27" y="882.51" width="4.74" height="14.67" transform="translate(1049.28 1779.69) rotate(180)"/><rect id="_矩形_56" data-name="&lt;矩形&gt;" class="cls-18" x="501.2" y="882.51" width="4.74" height="14.67" transform="translate(1007.15 1779.69) rotate(180)"/></g><g id="_编组_29" data-name="&lt;编组&gt;"><rect id="_矩形_57" data-name="&lt;矩形&gt;" class="cls-12" x="492.02" y="742.33" width="17.32" height="13.51" transform="translate(-248.4 1249.76) rotate(-90)"/><rect id="_矩形_58" data-name="&lt;矩形&gt;" class="cls-12" x="518.93" y="742.33" width="17.32" height="13.51" transform="translate(-221.49 1276.68) rotate(-90)"/><g id="_编组_30" data-name="&lt;编组&gt;"><rect id="_矩形_59" data-name="&lt;矩形&gt;" class="cls-17" x="507.46" y="739.35" width="13.24" height="19.47" transform="translate(-235 1263.16) rotate(-90)"/></g><rect id="_矩形_60" data-name="&lt;矩形&gt;" class="cls-18" x="522.27" y="741.78" width="4.74" height="14.67" transform="translate(1049.28 1498.22) rotate(180)"/><rect id="_矩形_61" data-name="&lt;矩形&gt;" class="cls-18" x="501.2" y="741.78" width="4.74" height="14.67" transform="translate(1007.15 1498.22) rotate(180)"/></g><g id="_编组_31" data-name="&lt;编组&gt;"><rect id="_矩形_62" data-name="&lt;矩形&gt;" class="cls-12" x="812.39" y="914.5" width="17.32" height="13.51" transform="translate(-100.22 1742.3) rotate(-90)"/><rect id="_矩形_63" data-name="&lt;矩形&gt;" class="cls-12" x="839.3" y="914.5" width="17.32" height="13.51" transform="translate(-73.3 1769.22) rotate(-90)"/><g id="_编组_32" data-name="&lt;编组&gt;"><rect id="_矩形_64" data-name="&lt;矩形&gt;" class="cls-17" x="827.83" y="911.53" width="13.24" height="19.47" transform="translate(-86.81 1755.7) rotate(-90)"/></g><rect id="_矩形_65" data-name="&lt;矩形&gt;" class="cls-18" x="842.63" y="913.95" width="4.74" height="14.67" transform="translate(1690.01 1842.57) rotate(180)"/><rect id="_矩形_66" data-name="&lt;矩形&gt;" class="cls-18" x="821.57" y="913.95" width="4.74" height="14.67" transform="translate(1647.87 1842.57) rotate(180)"/></g><g id="_编组_33" data-name="&lt;编组&gt;"><rect id="_矩形_67" data-name="&lt;矩形&gt;" class="cls-12" x="812.39" y="875.7" width="17.32" height="13.51" transform="translate(-61.41 1703.5) rotate(-90)"/><rect id="_矩形_68" data-name="&lt;矩形&gt;" class="cls-12" x="839.3" y="875.7" width="17.32" height="13.51" transform="translate(-34.5 1730.41) rotate(-90)"/><g id="_编组_34" data-name="&lt;编组&gt;"><rect id="_矩形_69" data-name="&lt;矩形&gt;" class="cls-17" x="827.83" y="872.72" width="13.24" height="19.47" transform="translate(-48.01 1716.9) rotate(-90)"/></g><rect id="_矩形_70" data-name="&lt;矩形&gt;" class="cls-18" x="842.63" y="875.15" width="4.74" height="14.67" transform="translate(1690.01 1764.96) rotate(180)"/><rect id="_矩形_71" data-name="&lt;矩形&gt;" class="cls-18" x="821.57" y="875.15" width="4.74" height="14.67" transform="translate(1647.87 1764.96) rotate(180)"/></g><g id="_编组_35" data-name="&lt;编组&gt;"><rect id="_矩形_72" data-name="&lt;矩形&gt;" class="cls-12" x="812.39" y="836.89" width="17.32" height="13.51" transform="translate(-22.6 1664.69) rotate(-90)"/><rect id="_矩形_73" data-name="&lt;矩形&gt;" class="cls-12" x="839.3" y="836.89" width="17.32" height="13.51" transform="translate(4.31 1691.6) rotate(-90)"/><g id="_编组_36" data-name="&lt;编组&gt;"><rect id="_矩形_74" data-name="&lt;矩形&gt;" class="cls-17" x="827.83" y="833.91" width="13.24" height="19.47" transform="translate(-9.2 1678.09) rotate(-90)"/></g><rect id="_矩形_75" data-name="&lt;矩形&gt;" class="cls-18" x="842.63" y="836.34" width="4.74" height="14.67" transform="translate(1690.01 1687.35) rotate(180)"/><rect id="_矩形_76" data-name="&lt;矩形&gt;" class="cls-18" x="821.57" y="836.34" width="4.74" height="14.67" transform="translate(1647.87 1687.35) rotate(180)"/></g><g id="_编组_37" data-name="&lt;编组&gt;"><rect id="_矩形_77" data-name="&lt;矩形&gt;" class="cls-12" x="812.39" y="798.08" width="17.32" height="13.51" transform="translate(16.2 1625.88) rotate(-90)"/><rect id="_矩形_78" data-name="&lt;矩形&gt;" class="cls-12" x="839.3" y="798.08" width="17.32" height="13.51" transform="translate(43.12 1652.8) rotate(-90)"/><g id="_编组_38" data-name="&lt;编组&gt;"><rect id="_矩形_79" data-name="&lt;矩形&gt;" class="cls-17" x="827.83" y="795.11" width="13.24" height="19.47" transform="translate(29.61 1639.28) rotate(-90)"/></g><rect id="_矩形_80" data-name="&lt;矩形&gt;" class="cls-18" x="842.63" y="797.53" width="4.74" height="14.67" transform="translate(1690.01 1609.73) rotate(180)"/><rect id="_矩形_81" data-name="&lt;矩形&gt;" class="cls-18" x="821.57" y="797.53" width="4.74" height="14.67" transform="translate(1647.87 1609.73) rotate(180)"/></g><g id="_编组_39" data-name="&lt;编组&gt;"><rect id="_矩形_82" data-name="&lt;矩形&gt;" class="cls-12" x="812.39" y="720.47" width="17.32" height="13.51" transform="translate(93.82 1548.27) rotate(-90)"/><rect id="_矩形_83" data-name="&lt;矩形&gt;" class="cls-12" x="839.3" y="720.47" width="17.32" height="13.51" transform="translate(120.73 1575.18) rotate(-90)"/><g id="_编组_40" data-name="&lt;编组&gt;"><rect id="_矩形_84" data-name="&lt;矩形&gt;" class="cls-17" x="827.83" y="717.49" width="13.24" height="19.47" transform="translate(107.22 1561.67) rotate(-90)"/></g><rect id="_矩形_85" data-name="&lt;矩形&gt;" class="cls-18" x="842.63" y="719.92" width="4.74" height="14.67" transform="translate(1690.01 1454.51) rotate(180)"/><rect id="_矩形_86" data-name="&lt;矩形&gt;" class="cls-18" x="821.57" y="719.92" width="4.74" height="14.67" transform="translate(1647.87 1454.51) rotate(180)"/></g><g id="_编组_41" data-name="&lt;编组&gt;"><rect id="_矩形_87" data-name="&lt;矩形&gt;" class="cls-12" x="106.67" y="774.81" width="17.32" height="13.51" transform="translate(-666.24 896.88) rotate(-90)"/><rect id="_矩形_88" data-name="&lt;矩形&gt;" class="cls-12" x="133.58" y="774.81" width="17.32" height="13.51" transform="translate(-639.33 923.8) rotate(-90)"/><g id="_编组_42" data-name="&lt;编组&gt;"><rect id="_矩形_89" data-name="&lt;矩形&gt;" class="cls-17" x="122.11" y="771.83" width="13.24" height="19.47" transform="translate(-652.84 910.29) rotate(-90)"/></g><rect id="_矩形_90" data-name="&lt;矩形&gt;" class="cls-18" x="136.91" y="774.25" width="4.74" height="14.67" transform="translate(278.56 1563.18) rotate(180)"/><rect id="_矩形_91" data-name="&lt;矩形&gt;" class="cls-18" x="115.84" y="774.25" width="4.74" height="14.67" transform="translate(236.43 1563.18) rotate(180)"/></g><g id="_编组_43" data-name="&lt;编组&gt;"><rect id="_矩形_92" data-name="&lt;矩形&gt;" class="cls-12" x="106.67" y="745.91" width="17.32" height="13.51" transform="translate(-637.34 867.99) rotate(-90)"/><rect id="_矩形_93" data-name="&lt;矩形&gt;" class="cls-12" x="133.58" y="745.91" width="17.32" height="13.51" transform="translate(-610.43 894.9) rotate(-90)"/><g id="_编组_44" data-name="&lt;编组&gt;"><rect id="_矩形_94" data-name="&lt;矩形&gt;" class="cls-17" x="122.11" y="742.93" width="13.24" height="19.47" transform="translate(-623.94 881.39) rotate(-90)"/></g><rect id="_矩形_95" data-name="&lt;矩形&gt;" class="cls-18" x="136.91" y="745.36" width="4.74" height="14.67" transform="translate(278.56 1505.38) rotate(180)"/><rect id="_矩形_96" data-name="&lt;矩形&gt;" class="cls-18" x="115.84" y="745.36" width="4.74" height="14.67" transform="translate(236.43 1505.38) rotate(180)"/></g><g id="_编组_45" data-name="&lt;编组&gt;"><rect id="_矩形_97" data-name="&lt;矩形&gt;" class="cls-12" x="106.67" y="688.11" width="17.32" height="13.51" transform="translate(-579.55 810.19) rotate(-90)"/><rect id="_矩形_98" data-name="&lt;矩形&gt;" class="cls-12" x="133.58" y="688.11" width="17.32" height="13.51" transform="translate(-552.63 837.11) rotate(-90)"/><g id="_编组_46" data-name="&lt;编组&gt;"><rect id="_矩形_99" data-name="&lt;矩形&gt;" class="cls-17" x="122.11" y="685.14" width="13.24" height="19.47" transform="translate(-566.15 823.59) rotate(-90)"/></g><rect id="_矩形_100" data-name="&lt;矩形&gt;" class="cls-18" x="136.91" y="687.56" width="4.74" height="14.67" transform="translate(278.56 1389.79) rotate(180)"/><rect id="_矩形_101" data-name="&lt;矩形&gt;" class="cls-18" x="115.84" y="687.56" width="4.74" height="14.67" transform="translate(236.43 1389.79) rotate(180)"/></g><g id="_编组_47" data-name="&lt;编组&gt;"><g id="_编组_48" data-name="&lt;编组&gt;"><g id="_编组_49" data-name="&lt;编组&gt;"><g id="_编组_50" data-name="&lt;编组&gt;"><g id="_编组_51" data-name="&lt;编组&gt;"><rect id="_矩形_102" data-name="&lt;矩形&gt;" class="cls-19" x="524.23" y="1102.08" width="18.53" height="56.47"/><rect id="_矩形_103" data-name="&lt;矩形&gt;" class="cls-20" x="528.36" y="1107.1" width="10.26" height="52.94" rx="5.13" ry="5.13"/></g><rect id="_矩形_104" data-name="&lt;矩形&gt;" class="cls-21" x="528.36" y="1130.17" width="10.26" height="6.78"/></g><g id="_编组_52" data-name="&lt;编组&gt;"><g id="_编组_53" data-name="&lt;编组&gt;"><rect id="_矩形_105" data-name="&lt;矩形&gt;" class="cls-19" x="559.84" y="1102.08" width="18.53" height="56.47"/><rect id="_矩形_106" data-name="&lt;矩形&gt;" class="cls-20" x="563.97" y="1107.1" width="10.26" height="52.94" rx="5.13" ry="5.13"/></g><rect id="_矩形_107" data-name="&lt;矩形&gt;" class="cls-21" x="563.97" y="1130.17" width="10.26" height="6.78"/></g><g id="_编组_54" data-name="&lt;编组&gt;"><g id="_编组_55" data-name="&lt;编组&gt;"><rect id="_矩形_108" data-name="&lt;矩形&gt;" class="cls-19" x="595.44" y="1102.08" width="18.53" height="56.47"/><rect id="_矩形_109" data-name="&lt;矩形&gt;" class="cls-20" x="599.58" y="1107.1" width="10.26" height="52.94" rx="5.13" ry="5.13"/></g><rect id="_矩形_110" data-name="&lt;矩形&gt;" class="cls-21" x="599.58" y="1130.17" width="10.26" height="6.78"/></g><g id="_编组_56" data-name="&lt;编组&gt;"><g id="_编组_57" data-name="&lt;编组&gt;"><rect id="_矩形_111" data-name="&lt;矩形&gt;" class="cls-19" x="631.05" y="1102.08" width="18.53" height="56.47"/><rect id="_矩形_112" data-name="&lt;矩形&gt;" class="cls-20" x="635.19" y="1107.1" width="10.26" height="52.94" rx="5.13" ry="5.13"/></g><rect id="_矩形_113" data-name="&lt;矩形&gt;" class="cls-21" x="635.19" y="1130.17" width="10.26" height="6.78"/></g><rect id="_矩形_114" data-name="&lt;矩形&gt;" class="cls-22" x="476.36" y="1149.78" width="217.72" height="114.27"/><g id="_编组_58" data-name="&lt;编组&gt;"><rect id="_矩形_115" data-name="&lt;矩形&gt;" class="cls-23" x="526.68" y="1171.18" width="10.26" height="71.47"/><rect id="_矩形_116" data-name="&lt;矩形&gt;" class="cls-23" x="633.5" y="1172.83" width="10.26" height="71.47"/></g><rect id="_矩形_117" data-name="&lt;矩形&gt;" class="cls-24" x="476.36" y="1117.35" width="18.53" height="32.43"/><rect id="_矩形_118" data-name="&lt;矩形&gt;" class="cls-24" x="675.55" y="1117.35" width="18.53" height="32.43"/><rect id="_矩形_119" data-name="&lt;矩形&gt;" class="cls-24" x="523.02" y="1264.04" width="124.41" height="4.08" rx="2.04" ry="2.04"/></g><g id="_编组_59" data-name="&lt;编组&gt;"><path id="_复合路径_6" data-name="&lt;复合路径&gt;" class="cls-22" d="M525.27,1086.92l14-5v0l-14-5V1075l16.21,5.91v1.95l-16.21,5.87Z"/><path id="_复合路径_7" data-name="&lt;复合路径&gt;" class="cls-22" d="M524.87,1066.57c0-3.68,2.06-5.69,4.23-6.42l.29,1.75a4.67,4.67,0,0,0-3,4.67c0,3.28,2.3,5.45,7,5.45,4.25,0,7-2.21,7-5.45a4.82,4.82,0,0,0-3.21-4.87l.27-1.68a6.42,6.42,0,0,1,4.52,6.55c0,4.69-3.79,7.15-8.55,7.15S524.87,1071.64,524.87,1066.57Z"/><path id="_复合路径_8" data-name="&lt;复合路径&gt;" class="cls-22" d="M524.87,1050.78c0-3.68,2.06-5.69,4.23-6.42l.29,1.75a4.67,4.67,0,0,0-3,4.67c0,3.28,2.3,5.45,7,5.45,4.25,0,7-2.21,7-5.45a4.82,4.82,0,0,0-3.21-4.87l.27-1.68a6.42,6.42,0,0,1,4.52,6.55c0,4.69-3.79,7.15-8.55,7.15S524.87,1055.86,524.87,1050.78Z"/></g><g id="_编组_60" data-name="&lt;编组&gt;"><path id="_复合路径_9" data-name="&lt;复合路径&gt;" class="cls-22" d="M631.8,1081.15c0-4.1,2.35-5.6,4.47-6.51l.29,1.79a4.77,4.77,0,0,0-3.23,4.72c0,3.34,2.86,5.71,7,5.71,4.25,0,7-2.46,7-5.49a5.57,5.57,0,0,0-4.19-5.31h-1.75V1081h-1.55v-6.67h8.64v1.55h-3.32a6.14,6.14,0,0,1,3.74,5.69c0,3.61-3.08,7-8.55,7C635.21,1088.57,631.8,1085.54,631.8,1081.15Z"/><path id="_复合路径_10" data-name="&lt;复合路径&gt;" class="cls-22" d="M632.2,1068.82l13.46-9.48v0H632.2v-1.71h16.21v1.79l-13.46,9.43,0,0h13.49v1.73H632.2Z"/><path id="_复合路径_11" data-name="&lt;复合路径&gt;" class="cls-22" d="M632.2,1047.9c0-5.29,4.19-7.17,8.08-7.17,4.65,0,8.13,2.3,8.13,7.48v5.58H632.2Zm14.68,4.16v-3.9c0-3.23-2.15-5.74-6.6-5.74-3.08,0-6.55,1.51-6.55,5.78v3.85Z"/></g><g id="_编组_61" data-name="&lt;编组&gt;"><path id="_复合路径_12" data-name="&lt;复合路径&gt;" class="cls-22" d="M608.62,1086.8A4.89,4.89,0,0,0,612,1082c0-2.57-1.59-3.92-2.92-3.92-2,0-3.15,2.78-3.85,4.6-1.26,3.48-2.55,5.58-4.81,5.58-2.87,0-4.72-2.71-4.72-6a6,6,0,0,1,4.06-6l.3,1.94a4.21,4.21,0,0,0-2.76,4.13c0,2.31,1.35,3.95,2.9,3.95,1.73,0,2.5-1.94,3.43-4.37,1.4-3.83,3-5.86,5.21-5.86,2.8,0,4.81,2.41,4.81,6a6.61,6.61,0,0,1-4.76,6.75Z"/><path id="_复合路径_13" data-name="&lt;复合路径&gt;" class="cls-22" d="M595.73,1066c0-3.88,2.17-6,4.46-6.77l.3,1.85a4.92,4.92,0,0,0-3.15,4.93c0,3.46,2.43,5.74,7.33,5.74,4.48,0,7.36-2.33,7.36-5.74a5.08,5.08,0,0,0-3.39-5.14l.28-1.77a6.77,6.77,0,0,1,4.76,6.91c0,5-4,7.54-9,7.54S595.73,1071.33,595.73,1066Z"/><path id="_复合路径_14" data-name="&lt;复合路径&gt;" class="cls-22" d="M596.15,1054.23h15.48v-9.11h1.61v10.93H596.15Z"/></g><g id="_编组_62" data-name="&lt;编组&gt;"><path id="_复合路径_15" data-name="&lt;复合路径&gt;" class="cls-22" d="M572.63,1087a4.42,4.42,0,0,0,3.08-4.36c0-2.32-1.43-3.54-2.63-3.54-1.81,0-2.85,2.51-3.48,4.15-1.14,3.14-2.3,5-4.34,5-2.59,0-4.26-2.45-4.26-5.42a5.37,5.37,0,0,1,3.67-5.42l.27,1.75a3.8,3.8,0,0,0-2.49,3.73c0,2.09,1.22,3.56,2.61,3.56,1.56,0,2.25-1.75,3.1-3.94,1.26-3.46,2.74-5.29,4.7-5.29,2.53,0,4.34,2.17,4.34,5.42a6,6,0,0,1-4.3,6.09Z"/><path id="_复合路径_16" data-name="&lt;复合路径&gt;" class="cls-22" d="M561.38,1068.67c0-5,4-6.83,7.69-6.83,4.43,0,7.73,2.19,7.73,7.12v5.31H561.38Zm14,4v-3.71c0-3.08-2-5.46-6.28-5.46-2.93,0-6.24,1.43-6.24,5.5v3.67Z"/><path id="_复合路径_17" data-name="&lt;复合路径&gt;" class="cls-22" d="M561.38,1054.48v-1.75l15.43-6.09v1.71l-4.4,1.73v7.14l4.4,1.75v1.69Zm9.55,2.15v-6l-7.59,3v0Z"/></g></g><g id="_编组_63" data-name="&lt;编组&gt;"><g id="_编组_64" data-name="&lt;编组&gt;"><g id="_编组_65" data-name="&lt;编组&gt;"><g id="_编组_66" data-name="&lt;编组&gt;"><rect id="_矩形_120" data-name="&lt;矩形&gt;" class="cls-19" x="300.12" y="1102.08" width="18.53" height="56.47"/><rect id="_矩形_121" data-name="&lt;矩形&gt;" class="cls-20" x="304.26" y="1107.1" width="10.26" height="52.94" rx="5.13" ry="5.13"/></g><rect id="_矩形_122" data-name="&lt;矩形&gt;" class="cls-21" x="304.26" y="1130.17" width="10.26" height="6.78"/></g><g id="_编组_67" data-name="&lt;编组&gt;"><g id="_编组_68" data-name="&lt;编组&gt;"><rect id="_矩形_123" data-name="&lt;矩形&gt;" class="cls-19" x="335.73" y="1102.08" width="18.53" height="56.47"/><rect id="_矩形_124" data-name="&lt;矩形&gt;" class="cls-20" x="339.87" y="1107.1" width="10.26" height="52.94" rx="5.13" ry="5.13"/></g><rect id="_矩形_125" data-name="&lt;矩形&gt;" class="cls-21" x="339.87" y="1130.17" width="10.26" height="6.78"/></g><g id="_编组_69" data-name="&lt;编组&gt;"><g id="_编组_70" data-name="&lt;编组&gt;"><rect id="_矩形_126" data-name="&lt;矩形&gt;" class="cls-19" x="371.34" y="1102.08" width="18.53" height="56.47"/><rect id="_矩形_127" data-name="&lt;矩形&gt;" class="cls-20" x="375.47" y="1107.1" width="10.26" height="52.94" rx="5.13" ry="5.13"/></g><rect id="_矩形_128" data-name="&lt;矩形&gt;" class="cls-21" x="375.47" y="1130.17" width="10.26" height="6.78"/></g><g id="_编组_71" data-name="&lt;编组&gt;"><g id="_编组_72" data-name="&lt;编组&gt;"><rect id="_矩形_129" data-name="&lt;矩形&gt;" class="cls-19" x="406.94" y="1102.08" width="18.53" height="56.47"/><rect id="_矩形_130" data-name="&lt;矩形&gt;" class="cls-20" x="411.08" y="1107.1" width="10.26" height="52.94" rx="5.13" ry="5.13"/></g><rect id="_矩形_131" data-name="&lt;矩形&gt;" class="cls-21" x="411.08" y="1130.17" width="10.26" height="6.78"/></g><rect id="_矩形_132" data-name="&lt;矩形&gt;" class="cls-22" x="252.26" y="1149.78" width="217.72" height="114.27"/><g id="_编组_73" data-name="&lt;编组&gt;"><rect id="_矩形_133" data-name="&lt;矩形&gt;" class="cls-23" x="302.58" y="1171.18" width="10.26" height="71.47"/><rect id="_矩形_134" data-name="&lt;矩形&gt;" class="cls-23" x="409.4" y="1172.83" width="10.26" height="71.47"/></g><rect id="_矩形_135" data-name="&lt;矩形&gt;" class="cls-24" x="252.26" y="1117.35" width="18.53" height="32.43"/><rect id="_矩形_136" data-name="&lt;矩形&gt;" class="cls-24" x="451.45" y="1117.35" width="18.53" height="32.43"/><rect id="_矩形_137" data-name="&lt;矩形&gt;" class="cls-24" x="298.91" y="1264.04" width="124.41" height="4.08" rx="2.04" ry="2.04"/></g><g id="_编组_74" data-name="&lt;编组&gt;"><path id="_复合路径_18" data-name="&lt;复合路径&gt;" class="cls-22" d="M301.16,1086.92l14-5v0l-14-5V1075l16.21,5.91v1.95l-16.21,5.87Z"/><path id="_复合路径_19" data-name="&lt;复合路径&gt;" class="cls-22" d="M300.76,1066.57c0-3.68,2.06-5.69,4.23-6.42l.29,1.75a4.67,4.67,0,0,0-3,4.67c0,3.28,2.3,5.45,7,5.45,4.25,0,7-2.21,7-5.45a4.82,4.82,0,0,0-3.21-4.87l.27-1.68a6.42,6.42,0,0,1,4.52,6.55c0,4.69-3.79,7.15-8.55,7.15S300.76,1071.64,300.76,1066.57Z"/><path id="_复合路径_20" data-name="&lt;复合路径&gt;" class="cls-22" d="M300.76,1050.78c0-3.68,2.06-5.69,4.23-6.42l.29,1.75a4.67,4.67,0,0,0-3,4.67c0,3.28,2.3,5.45,7,5.45,4.25,0,7-2.21,7-5.45a4.82,4.82,0,0,0-3.21-4.87l.27-1.68a6.42,6.42,0,0,1,4.52,6.55c0,4.69-3.79,7.15-8.55,7.15S300.76,1055.86,300.76,1050.78Z"/></g><g id="_编组_75" data-name="&lt;编组&gt;"><path id="_复合路径_21" data-name="&lt;复合路径&gt;" class="cls-22" d="M407.69,1081.15c0-4.1,2.35-5.6,4.47-6.51l.29,1.79a4.77,4.77,0,0,0-3.23,4.72c0,3.34,2.86,5.71,7,5.71,4.25,0,7-2.46,7-5.49a5.57,5.57,0,0,0-4.19-5.31h-1.75V1081h-1.55v-6.67h8.64v1.55H421a6.14,6.14,0,0,1,3.74,5.69c0,3.61-3.08,7-8.55,7C411.1,1088.57,407.69,1085.54,407.69,1081.15Z"/><path id="_复合路径_22" data-name="&lt;复合路径&gt;" class="cls-22" d="M408.09,1068.82l13.46-9.48v0H408.09v-1.71H424.3v1.79l-13.46,9.43,0,0H424.3v1.73H408.09Z"/><path id="_复合路径_23" data-name="&lt;复合路径&gt;" class="cls-22" d="M408.09,1047.9c0-5.29,4.19-7.17,8.08-7.17,4.65,0,8.13,2.3,8.13,7.48v5.58H408.09Zm14.68,4.16v-3.9c0-3.23-2.15-5.74-6.6-5.74-3.08,0-6.55,1.51-6.55,5.78v3.85Z"/></g><g id="_编组_76" data-name="&lt;编组&gt;"><path id="_复合路径_24" data-name="&lt;复合路径&gt;" class="cls-22" d="M372.09,1076.15h1.61v5.42h15.42v1.79H373.69v5.4h-1.61Z"/><path id="_复合路径_25" data-name="&lt;复合路径&gt;" class="cls-22" d="M372.09,1073.43l6.84-4.61-6.84-4.63v-2.12l8.4,5.68,8.63-5.84V1064l-7.07,4.79,7.07,4.79v2.09l-8.63-5.84-8.4,5.65Z"/><path id="_复合路径_26" data-name="&lt;复合路径&gt;" class="cls-22" d="M372.09,1053.47c0-5.56,4.4-7.54,8.49-7.54,4.89,0,8.54,2.42,8.54,7.86v5.86h-17Zm15.42,4.37v-4.09c0-3.4-2.26-6-6.93-6-3.23,0-6.89,1.58-6.89,6.07v4Z"/></g><g id="_编组_77" data-name="&lt;编组&gt;"><path id="_复合路径_27" data-name="&lt;复合路径&gt;" class="cls-22" d="M336.48,1082.22c0-3.68,1.93-5.37,4.58-5.37a4.81,4.81,0,0,1,4.16,2.79h0c.49-1.42,1.81-2.35,3.84-2.44a17.08,17.08,0,0,0,4.42-.86v1.91a17.45,17.45,0,0,1-4.26.72c-1.91.12-3.16,1.16-3.16,2.93V1087h7.42v1.79h-17Zm8,4.75v-4.65a3.39,3.39,0,0,0-3.3-3.68c-1.86,0-3.07,1.35-3.07,3.84V1087Z"/><path id="_复合路径_28" data-name="&lt;复合路径&gt;" class="cls-22" d="M336.48,1072.82l6.84-4.61-6.84-4.63v-2.12l8.4,5.68,8.63-5.84v2.12l-7.07,4.79,7.07,4.79v2.09l-8.63-5.84-8.4,5.65Z"/><path id="_复合路径_29" data-name="&lt;复合路径&gt;" class="cls-22" d="M336.48,1052.87c0-5.56,4.4-7.54,8.49-7.54,4.89,0,8.54,2.42,8.54,7.86v5.86h-17Zm15.42,4.37v-4.09c0-3.4-2.26-6-6.93-6-3.23,0-6.89,1.58-6.89,6.07v4Z"/></g></g></g><ellipse id="_路径_24" data-name="&lt;路径&gt;" class="cls-25" cx="473.17" cy="335.06" rx="304.03" ry="309.69"/><ellipse id="_路径_25" data-name="&lt;路径&gt;" class="cls-26" cx="473.17" cy="335.06" rx="292.79" ry="300.44"/><circle id="_路径_26" data-name="&lt;路径&gt;" class="cls-27" cx="473.17" cy="335.06" r="252.13"/><circle id="_路径_27" data-name="&lt;路径&gt;" class="cls-28" cx="473.17" cy="335.06" r="28.46"/><circle id="_路径_28" data-name="&lt;路径&gt;" class="cls-28" cx="511.46" cy="269.4" r="28.46" transform="translate(-20.84 43.96) rotate(-4.82)"/><circle id="_路径_29" data-name="&lt;路径&gt;" class="cls-28" cx="552.93" cy="202.78" r="28.46" transform="translate(-15.09 47.21) rotate(-4.82)"/><circle id="_路径_30" data-name="&lt;路径&gt;" class="cls-28" cx="476.11" cy="180.62" r="28.46" transform="translate(-17.88 304.23) rotate(-34.82)"/><circle id="_路径_31" data-name="&lt;路径&gt;" class="cls-28" cx="398.5" cy="199.84" r="28.46" transform="translate(48.11 475.47) rotate(-64.82)"/><circle id="_路径_32" data-name="&lt;路径&gt;" class="cls-28" cx="340.89" cy="255.3" r="28.46" transform="translate(-20.26 29.57) rotate(-4.82)"/><circle id="_路径_33" data-name="&lt;路径&gt;" class="cls-28" cx="318.73" cy="332.12" r="28.46" transform="translate(-132.58 241.49) rotate(-34.82)"/><circle id="_路径_34" data-name="&lt;路径&gt;" class="cls-28" cx="337.95" cy="409.73" r="28.46" transform="translate(-176.62 541.28) rotate(-64.82)"/><circle id="_路径_35" data-name="&lt;路径&gt;" class="cls-28" cx="393.41" cy="467.33" r="28.46" transform="translate(-37.9 34.73) rotate(-4.82)"/><circle id="_路径_36" data-name="&lt;路径&gt;" class="cls-28" cx="470.23" cy="489.49" r="28.46" transform="translate(-195.31 356.19) rotate(-34.82)"/><circle id="_路径_37" data-name="&lt;路径&gt;" class="cls-28" cx="547.84" cy="470.27" r="28.46" transform="translate(-110.81 766.01) rotate(-64.82)"/><circle id="_路径_38" data-name="&lt;路径&gt;" class="cls-28" cx="605.45" cy="414.82" r="28.46" transform="matrix(1, -0.08, 0.08, 1, -32.74, 52.38)"/><circle id="_路径_39" data-name="&lt;路径&gt;" class="cls-28" cx="627.6" cy="338" r="28.46" transform="translate(-80.62 418.92) rotate(-34.82)"/><circle id="_路径_40" data-name="&lt;路径&gt;" class="cls-28" cx="608.38" cy="260.38" r="28.46" transform="translate(113.92 700.2) rotate(-64.82)"/><circle id="_路径_41" data-name="&lt;路径&gt;" class="cls-28" cx="435.45" cy="269.07" r="28.46" transform="translate(6.7 548.69) rotate(-64.82)"/><circle id="_路径_42" data-name="&lt;路径&gt;" class="cls-28" cx="397.16" cy="334.73" r="28.46" transform="matrix(0.82, -0.57, 0.57, 0.82, -120.02, 286.74)"/><circle id="_路径_43" data-name="&lt;路径&gt;" class="cls-28" cx="434.88" cy="400.72" r="28.46" transform="translate(-32.15 37.99) rotate(-4.82)"/><circle id="_路径_44" data-name="&lt;路径&gt;" class="cls-28" cx="510.88" cy="401.05" r="28.46" transform="translate(-69.4 692.79) rotate(-64.82)"/><circle id="_路径_45" data-name="&lt;路径&gt;" class="cls-28" cx="549.18" cy="335.39" r="28.46" transform="translate(-93.18 373.67) rotate(-34.82)"/><path id="_路径_46" data-name="&lt;路径&gt;" class="cls-29" d="M202,337.33C202,187.23,323.73,65.54,473.83,65.54a270.51,270.51,0,0,1,143,40.62A270.51,270.51,0,0,0,469.2,62.61c-150.1,0-271.79,121.68-271.79,271.79A271.61,271.61,0,0,0,326.2,565.56,271.56,271.56,0,0,1,202,337.33Z"/><g id="_编组_78" data-name="&lt;编组&gt;"><rect id="_矩形_138" data-name="&lt;矩形&gt;" class="cls-30" x="108.45" y="476.22" width="32.76" height="189.93"/><polygon id="_路径_47" data-name="&lt;路径&gt;" class="cls-31" points="58.87 636.92 191.22 636.92 191.22 525.52 171.15 505.44 78.72 505.44 58.43 525.74 58.87 636.92"/><circle id="_路径_48" data-name="&lt;路径&gt;" class="cls-28" cx="124.83" cy="571.18" r="64.19"/><path id="_路径_49" data-name="&lt;路径&gt;" class="cls-32" d="M61.3,580.45a64.2,64.2,0,0,0,127,0Z"/></g><g id="_编组_79" data-name="&lt;编组&gt;"><rect id="_矩形_139" data-name="&lt;矩形&gt;" class="cls-30" x="824.49" y="476.22" width="32.76" height="189.93"/><polygon id="_路径_50" data-name="&lt;路径&gt;" class="cls-31" points="774.91 636.92 907.27 636.92 907.27 525.52 887.19 505.44 794.77 505.44 774.47 525.74 774.91 636.92"/><circle id="_路径_51" data-name="&lt;路径&gt;" class="cls-28" cx="840.87" cy="571.18" r="64.19"/><path id="_路径_52" data-name="&lt;路径&gt;" class="cls-32" d="M777.35,580.45a64.2,64.2,0,0,0,127,0Z"/></g><rect id="_矩形_140" data-name="&lt;矩形&gt;" class="cls-33" x="93.72" y="804.12" width="62.21" height="98.27" rx="12.41" ry="12.41"/><rect id="_矩形_141" data-name="&lt;矩形&gt;" class="cls-33" x="488.25" y="769.93" width="62.21" height="98.27" rx="12.41" ry="12.41"/><g id="_编组_80" data-name="&lt;编组&gt;"><g id="_编组_81" data-name="&lt;编组&gt;"><rect id="_矩形_142" data-name="&lt;矩形&gt;" class="cls-34" x="209.41" y="697.91" width="179.01" height="9.93" rx="4.96" ry="4.96"/><rect id="_矩形_143" data-name="&lt;矩形&gt;" class="cls-34" x="209.41" y="711.71" width="179.01" height="9.93" rx="4.96" ry="4.96"/><rect id="_矩形_144" data-name="&lt;矩形&gt;" class="cls-34" x="209.41" y="725.5" width="179.01" height="9.93" rx="4.96" ry="4.96"/><rect id="_矩形_145" data-name="&lt;矩形&gt;" class="cls-34" x="209.41" y="739.3" width="179.01" height="9.93" rx="4.96" ry="4.96"/><rect id="_矩形_146" data-name="&lt;矩形&gt;" class="cls-34" x="209.41" y="753.09" width="179.01" height="9.93" rx="4.96" ry="4.96"/><rect id="_矩形_147" data-name="&lt;矩形&gt;" class="cls-34" x="209.41" y="766.89" width="179.01" height="9.93" rx="4.96" ry="4.96"/><rect id="_矩形_148" data-name="&lt;矩形&gt;" class="cls-34" x="209.41" y="780.68" width="179.01" height="9.93" rx="4.96" ry="4.96"/><rect id="_矩形_149" data-name="&lt;矩形&gt;" class="cls-34" x="209.41" y="794.48" width="179.01" height="9.93" rx="4.96" ry="4.96"/><rect id="_矩形_150" data-name="&lt;矩形&gt;" class="cls-34" x="209.41" y="808.27" width="179.01" height="9.93" rx="4.96" ry="4.96"/><rect id="_矩形_151" data-name="&lt;矩形&gt;" class="cls-34" x="209.41" y="822.07" width="179.01" height="9.93" rx="4.96" ry="4.96"/><rect id="_矩形_152" data-name="&lt;矩形&gt;" class="cls-34" x="209.41" y="835.86" width="179.01" height="9.93" rx="4.96" ry="4.96"/><rect id="_矩形_153" data-name="&lt;矩形&gt;" class="cls-34" x="209.41" y="849.66" width="179.01" height="9.93" rx="4.96" ry="4.96"/><rect id="_矩形_154" data-name="&lt;矩形&gt;" class="cls-34" x="209.41" y="863.45" width="179.01" height="9.93" rx="4.96" ry="4.96"/><rect id="_矩形_155" data-name="&lt;矩形&gt;" class="cls-34" x="209.41" y="877.25" width="179.01" height="9.93" rx="4.96" ry="4.96"/></g><rect id="_矩形_156" data-name="&lt;矩形&gt;" class="cls-35" x="246.3" y="690.96" width="105.22" height="203.16"/><g id="_编组_82" data-name="&lt;编组&gt;"><rect id="_矩形_157" data-name="&lt;矩形&gt;" class="cls-36" x="223.14" y="700.52" width="23.16" height="4.72"/><rect id="_矩形_158" data-name="&lt;矩形&gt;" class="cls-37" x="232.5" y="700.52" width="7.47" height="4.72"/></g><g id="_编组_83" data-name="&lt;编组&gt;"><rect id="_矩形_159" data-name="&lt;矩形&gt;" class="cls-36" x="223.14" y="714.31" width="23.16" height="4.72"/><rect id="_矩形_160" data-name="&lt;矩形&gt;" class="cls-37" x="232.5" y="714.31" width="7.47" height="4.72"/></g><g id="_编组_84" data-name="&lt;编组&gt;"><rect id="_矩形_161" data-name="&lt;矩形&gt;" class="cls-36" x="223.14" y="728.11" width="23.16" height="4.72"/><rect id="_矩形_162" data-name="&lt;矩形&gt;" class="cls-37" x="232.5" y="728.11" width="7.47" height="4.72"/></g><g id="_编组_85" data-name="&lt;编组&gt;"><rect id="_矩形_163" data-name="&lt;矩形&gt;" class="cls-36" x="223.14" y="741.9" width="23.16" height="4.72"/><rect id="_矩形_164" data-name="&lt;矩形&gt;" class="cls-37" x="232.5" y="741.9" width="7.47" height="4.72"/></g><g id="_编组_86" data-name="&lt;编组&gt;"><rect id="_矩形_165" data-name="&lt;矩形&gt;" class="cls-36" x="223.14" y="755.7" width="23.16" height="4.72"/><rect id="_矩形_166" data-name="&lt;矩形&gt;" class="cls-37" x="232.5" y="755.7" width="7.47" height="4.72"/></g><g id="_编组_87" data-name="&lt;编组&gt;"><rect id="_矩形_167" data-name="&lt;矩形&gt;" class="cls-36" x="223.14" y="769.49" width="23.16" height="4.72"/><rect id="_矩形_168" data-name="&lt;矩形&gt;" class="cls-37" x="232.5" y="769.49" width="7.47" height="4.72"/></g><g id="_编组_88" data-name="&lt;编组&gt;"><rect id="_矩形_169" data-name="&lt;矩形&gt;" class="cls-36" x="223.14" y="783.29" width="23.16" height="4.72"/><rect id="_矩形_170" data-name="&lt;矩形&gt;" class="cls-37" x="232.5" y="783.29" width="7.47" height="4.72"/></g><g id="_编组_89" data-name="&lt;编组&gt;"><rect id="_矩形_171" data-name="&lt;矩形&gt;" class="cls-36" x="223.14" y="797.08" width="23.16" height="4.72"/><rect id="_矩形_172" data-name="&lt;矩形&gt;" class="cls-37" x="232.5" y="797.08" width="7.47" height="4.72"/></g><g id="_编组_90" data-name="&lt;编组&gt;"><rect id="_矩形_173" data-name="&lt;矩形&gt;" class="cls-36" x="223.14" y="810.88" width="23.16" height="4.72"/><rect id="_矩形_174" data-name="&lt;矩形&gt;" class="cls-37" x="232.5" y="810.88" width="7.47" height="4.72"/></g><g id="_编组_91" data-name="&lt;编组&gt;"><rect id="_矩形_175" data-name="&lt;矩形&gt;" class="cls-36" x="223.14" y="824.67" width="23.16" height="4.72"/><rect id="_矩形_176" data-name="&lt;矩形&gt;" class="cls-37" x="232.5" y="824.67" width="7.47" height="4.72"/></g><g id="_编组_92" data-name="&lt;编组&gt;"><rect id="_矩形_177" data-name="&lt;矩形&gt;" class="cls-36" x="223.14" y="838.47" width="23.16" height="4.72"/><rect id="_矩形_178" data-name="&lt;矩形&gt;" class="cls-37" x="232.5" y="838.47" width="7.47" height="4.72"/></g><g id="_编组_93" data-name="&lt;编组&gt;"><rect id="_矩形_179" data-name="&lt;矩形&gt;" class="cls-36" x="223.14" y="852.26" width="23.16" height="4.72"/><rect id="_矩形_180" data-name="&lt;矩形&gt;" class="cls-37" x="232.5" y="852.26" width="7.47" height="4.72"/></g><g id="_编组_94" data-name="&lt;编组&gt;"><rect id="_矩形_181" data-name="&lt;矩形&gt;" class="cls-36" x="223.14" y="866.06" width="23.16" height="4.72"/><rect id="_矩形_182" data-name="&lt;矩形&gt;" class="cls-37" x="232.5" y="866.06" width="7.47" height="4.72"/></g><g id="_编组_95" data-name="&lt;编组&gt;"><rect id="_矩形_183" data-name="&lt;矩形&gt;" class="cls-36" x="223.14" y="879.85" width="23.16" height="4.72"/><rect id="_矩形_184" data-name="&lt;矩形&gt;" class="cls-37" x="232.5" y="879.85" width="7.47" height="4.72"/></g><g id="_编组_96" data-name="&lt;编组&gt;"><rect id="_矩形_185" data-name="&lt;矩形&gt;" class="cls-36" x="351.52" y="879.85" width="23.16" height="4.72" transform="translate(726.2 1764.42) rotate(-180)"/><rect id="_矩形_186" data-name="&lt;矩形&gt;" class="cls-37" x="357.85" y="879.85" width="7.47" height="4.72" transform="translate(723.17 1764.42) rotate(-180)"/></g><g id="_编组_97" data-name="&lt;编组&gt;"><rect id="_矩形_187" data-name="&lt;矩形&gt;" class="cls-36" x="351.52" y="866.06" width="23.16" height="4.72" transform="translate(726.2 1736.83) rotate(-180)"/><rect id="_矩形_188" data-name="&lt;矩形&gt;" class="cls-37" x="357.85" y="866.06" width="7.47" height="4.72" transform="translate(723.17 1736.83) rotate(-180)"/></g><g id="_编组_98" data-name="&lt;编组&gt;"><rect id="_矩形_189" data-name="&lt;矩形&gt;" class="cls-36" x="351.52" y="852.26" width="23.16" height="4.72" transform="translate(726.2 1709.24) rotate(-180)"/><rect id="_矩形_190" data-name="&lt;矩形&gt;" class="cls-37" x="357.85" y="852.26" width="7.47" height="4.72" transform="translate(723.17 1709.24) rotate(-180)"/></g><g id="_编组_99" data-name="&lt;编组&gt;"><rect id="_矩形_191" data-name="&lt;矩形&gt;" class="cls-36" x="351.52" y="838.47" width="23.16" height="4.72" transform="translate(726.2 1681.65) rotate(-180)"/><rect id="_矩形_192" data-name="&lt;矩形&gt;" class="cls-37" x="357.85" y="838.47" width="7.47" height="4.72" transform="translate(723.17 1681.65) rotate(-180)"/></g><g id="_编组_100" data-name="&lt;编组&gt;"><rect id="_矩形_193" data-name="&lt;矩形&gt;" class="cls-36" x="351.52" y="824.67" width="23.16" height="4.72" transform="translate(726.2 1654.06) rotate(-180)"/><rect id="_矩形_194" data-name="&lt;矩形&gt;" class="cls-37" x="357.85" y="824.67" width="7.47" height="4.72" transform="translate(723.17 1654.06) rotate(-180)"/></g><g id="_编组_101" data-name="&lt;编组&gt;"><rect id="_矩形_195" data-name="&lt;矩形&gt;" class="cls-36" x="351.52" y="810.88" width="23.16" height="4.72" transform="translate(726.2 1626.47) rotate(-180)"/><rect id="_矩形_196" data-name="&lt;矩形&gt;" class="cls-37" x="357.85" y="810.88" width="7.47" height="4.72" transform="translate(723.17 1626.47) rotate(-180)"/></g><g id="_编组_102" data-name="&lt;编组&gt;"><rect id="_矩形_197" data-name="&lt;矩形&gt;" class="cls-36" x="351.52" y="797.08" width="23.16" height="4.72" transform="translate(726.2 1598.88) rotate(-180)"/><rect id="_矩形_198" data-name="&lt;矩形&gt;" class="cls-37" x="357.85" y="797.08" width="7.47" height="4.72" transform="translate(723.17 1598.88) rotate(-180)"/></g><g id="_编组_103" data-name="&lt;编组&gt;"><rect id="_矩形_199" data-name="&lt;矩形&gt;" class="cls-36" x="351.52" y="783.29" width="23.16" height="4.72" transform="translate(726.2 1571.29) rotate(-180)"/><rect id="_矩形_200" data-name="&lt;矩形&gt;" class="cls-37" x="357.85" y="783.29" width="7.47" height="4.72" transform="translate(723.17 1571.29) rotate(-180)"/></g><g id="_编组_104" data-name="&lt;编组&gt;"><rect id="_矩形_201" data-name="&lt;矩形&gt;" class="cls-36" x="351.52" y="769.49" width="23.16" height="4.72" transform="translate(726.2 1543.7) rotate(-180)"/><rect id="_矩形_202" data-name="&lt;矩形&gt;" class="cls-37" x="357.85" y="769.49" width="7.47" height="4.72" transform="translate(723.17 1543.7) rotate(-180)"/></g><g id="_编组_105" data-name="&lt;编组&gt;"><rect id="_矩形_203" data-name="&lt;矩形&gt;" class="cls-36" x="351.52" y="755.7" width="23.16" height="4.72" transform="translate(726.2 1516.11) rotate(-180)"/><rect id="_矩形_204" data-name="&lt;矩形&gt;" class="cls-37" x="357.85" y="755.7" width="7.47" height="4.72" transform="translate(723.17 1516.11) rotate(-180)"/></g><g id="_编组_106" data-name="&lt;编组&gt;"><rect id="_矩形_205" data-name="&lt;矩形&gt;" class="cls-36" x="351.52" y="741.9" width="23.16" height="4.72" transform="translate(726.2 1488.52) rotate(-180)"/><rect id="_矩形_206" data-name="&lt;矩形&gt;" class="cls-37" x="357.85" y="741.9" width="7.47" height="4.72" transform="translate(723.17 1488.52) rotate(-180)"/></g><g id="_编组_107" data-name="&lt;编组&gt;"><rect id="_矩形_207" data-name="&lt;矩形&gt;" class="cls-36" x="351.52" y="728.11" width="23.16" height="4.72" transform="translate(726.2 1460.93) rotate(-180)"/><rect id="_矩形_208" data-name="&lt;矩形&gt;" class="cls-37" x="357.85" y="728.11" width="7.47" height="4.72" transform="translate(723.17 1460.93) rotate(-180)"/></g><g id="_编组_108" data-name="&lt;编组&gt;"><rect id="_矩形_209" data-name="&lt;矩形&gt;" class="cls-36" x="351.52" y="714.31" width="23.16" height="4.72" transform="translate(726.2 1433.34) rotate(-180)"/><rect id="_矩形_210" data-name="&lt;矩形&gt;" class="cls-37" x="357.85" y="714.31" width="7.47" height="4.72" transform="translate(723.17 1433.34) rotate(-180)"/></g><g id="_编组_109" data-name="&lt;编组&gt;"><rect id="_矩形_211" data-name="&lt;矩形&gt;" class="cls-36" x="351.52" y="700.52" width="23.16" height="4.72" transform="translate(726.2 1405.75) rotate(-180)"/><rect id="_矩形_212" data-name="&lt;矩形&gt;" class="cls-37" x="357.85" y="700.52" width="7.47" height="4.72" transform="translate(723.17 1405.75) rotate(-180)"/></g></g><g id="_编组_110" data-name="&lt;编组&gt;"><g id="_编组_111" data-name="&lt;编组&gt;"><g id="_编组_112" data-name="&lt;编组&gt;"><rect id="_矩形_213" data-name="&lt;矩形&gt;" class="cls-38" x="619.25" y="691.9" width="13.24" height="205.15" rx="6.62" ry="6.62"/><rect id="_矩形_214" data-name="&lt;矩形&gt;" class="cls-38" x="635.03" y="691.9" width="13.24" height="205.15" rx="6.62" ry="6.62"/><rect id="_矩形_215" data-name="&lt;矩形&gt;" class="cls-38" x="650.82" y="691.9" width="13.24" height="205.15" rx="6.62" ry="6.62"/><rect id="_矩形_216" data-name="&lt;矩形&gt;" class="cls-38" x="666.61" y="691.9" width="13.24" height="205.15" rx="6.62" ry="6.62"/><rect id="_矩形_217" data-name="&lt;矩形&gt;" class="cls-38" x="682.4" y="691.9" width="13.24" height="205.15" rx="6.62" ry="6.62"/><rect id="_矩形_218" data-name="&lt;矩形&gt;" class="cls-38" x="698.18" y="691.9" width="13.24" height="205.15" rx="6.62" ry="6.62"/><rect id="_矩形_219" data-name="&lt;矩形&gt;" class="cls-38" x="713.97" y="691.9" width="13.24" height="205.15" rx="6.62" ry="6.62"/><rect id="_矩形_220" data-name="&lt;矩形&gt;" class="cls-38" x="729.76" y="691.9" width="13.24" height="205.15" rx="6.62" ry="6.62"/></g><g id="_编组_113" data-name="&lt;编组&gt;"><rect id="_矩形_221" data-name="&lt;矩形&gt;" class="cls-36" x="622.89" y="699.29" width="5.96" height="20.07"/><rect id="_矩形_222" data-name="&lt;矩形&gt;" class="cls-37" x="622.14" y="708.1" width="7.44" height="5.96" transform="translate(-85.22 1336.94) rotate(-90)"/></g><g id="_编组_114" data-name="&lt;编组&gt;"><rect id="_矩形_223" data-name="&lt;矩形&gt;" class="cls-36" x="638.67" y="699.29" width="5.96" height="20.07"/><rect id="_矩形_224" data-name="&lt;矩形&gt;" class="cls-37" x="637.93" y="708.1" width="7.44" height="5.96" transform="translate(-69.43 1352.73) rotate(-90)"/></g><g id="_编组_115" data-name="&lt;编组&gt;"><rect id="_矩形_225" data-name="&lt;矩形&gt;" class="cls-36" x="654.46" y="699.29" width="5.96" height="20.07"/><rect id="_矩形_226" data-name="&lt;矩形&gt;" class="cls-37" x="653.72" y="708.1" width="7.44" height="5.96" transform="translate(-53.64 1368.52) rotate(-90)"/></g><g id="_编组_116" data-name="&lt;编组&gt;"><rect id="_矩形_227" data-name="&lt;矩形&gt;" class="cls-36" x="670.25" y="699.29" width="5.96" height="20.07"/><rect id="_矩形_228" data-name="&lt;矩形&gt;" class="cls-37" x="669.5" y="708.1" width="7.44" height="5.96" transform="translate(-37.85 1384.31) rotate(-90)"/></g><g id="_编组_117" data-name="&lt;编组&gt;"><rect id="_矩形_229" data-name="&lt;矩形&gt;" class="cls-36" x="686.04" y="699.29" width="5.96" height="20.07"/><rect id="_矩形_230" data-name="&lt;矩形&gt;" class="cls-37" x="685.29" y="708.1" width="7.44" height="5.96" transform="translate(-22.07 1400.1) rotate(-90)"/></g><g id="_编组_118" data-name="&lt;编组&gt;"><rect id="_矩形_231" data-name="&lt;矩形&gt;" class="cls-36" x="701.82" y="699.29" width="5.96" height="20.07"/><rect id="_矩形_232" data-name="&lt;矩形&gt;" class="cls-37" x="701.08" y="708.1" width="7.44" height="5.96" transform="translate(-6.28 1415.88) rotate(-90)"/></g><g id="_编组_119" data-name="&lt;编组&gt;"><rect id="_矩形_233" data-name="&lt;矩形&gt;" class="cls-36" x="717.61" y="699.29" width="5.96" height="20.07"/><rect id="_矩形_234" data-name="&lt;矩形&gt;" class="cls-37" x="716.87" y="708.1" width="7.44" height="5.96" transform="translate(9.51 1431.67) rotate(-90)"/></g><g id="_编组_120" data-name="&lt;编组&gt;"><rect id="_矩形_235" data-name="&lt;矩形&gt;" class="cls-36" x="733.4" y="699.29" width="5.96" height="20.07"/><rect id="_矩形_236" data-name="&lt;矩形&gt;" class="cls-37" x="732.66" y="708.1" width="7.44" height="5.96" transform="translate(25.3 1447.46) rotate(-90)"/></g><g id="_编组_121" data-name="&lt;编组&gt;"><rect id="_矩形_237" data-name="&lt;矩形&gt;" class="cls-36" x="733.4" y="869.59" width="5.96" height="20.07" transform="translate(1472.76 1759.25) rotate(-180)"/><rect id="_矩形_238" data-name="&lt;矩形&gt;" class="cls-37" x="732.66" y="874.9" width="7.44" height="5.96" transform="translate(1614.25 141.5) rotate(90)"/></g><g id="_编组_122" data-name="&lt;编组&gt;"><rect id="_矩形_239" data-name="&lt;矩形&gt;" class="cls-36" x="717.61" y="869.59" width="5.96" height="20.07" transform="translate(1441.18 1759.25) rotate(-180)"/><rect id="_矩形_240" data-name="&lt;矩形&gt;" class="cls-37" x="716.87" y="874.9" width="7.44" height="5.96" transform="translate(1598.46 157.28) rotate(90)"/></g><g id="_编组_123" data-name="&lt;编组&gt;"><rect id="_矩形_241" data-name="&lt;矩形&gt;" class="cls-36" x="701.82" y="869.59" width="5.96" height="20.07" transform="translate(1409.61 1759.25) rotate(-180)"/><rect id="_矩形_242" data-name="&lt;矩形&gt;" class="cls-37" x="701.08" y="874.9" width="7.44" height="5.96" transform="translate(1582.68 173.07) rotate(90)"/></g><g id="_编组_124" data-name="&lt;编组&gt;"><rect id="_矩形_243" data-name="&lt;矩形&gt;" class="cls-36" x="686.04" y="869.59" width="5.96" height="20.07" transform="translate(1378.03 1759.25) rotate(-180)"/><rect id="_矩形_244" data-name="&lt;矩形&gt;" class="cls-37" x="685.29" y="874.9" width="7.44" height="5.96" transform="translate(1566.89 188.86) rotate(90)"/></g><g id="_编组_125" data-name="&lt;编组&gt;"><rect id="_矩形_245" data-name="&lt;矩形&gt;" class="cls-36" x="670.25" y="869.59" width="5.96" height="20.07" transform="translate(1346.45 1759.25) rotate(-180)"/><rect id="_矩形_246" data-name="&lt;矩形&gt;" class="cls-37" x="669.5" y="874.9" width="7.44" height="5.96" transform="translate(1551.1 204.65) rotate(90)"/></g><g id="_编组_126" data-name="&lt;编组&gt;"><rect id="_矩形_247" data-name="&lt;矩形&gt;" class="cls-36" x="654.46" y="869.59" width="5.96" height="20.07" transform="translate(1314.88 1759.25) rotate(-180)"/><rect id="_矩形_248" data-name="&lt;矩形&gt;" class="cls-37" x="653.72" y="874.9" width="7.44" height="5.96" transform="translate(1535.31 220.43) rotate(90)"/></g><g id="_编组_127" data-name="&lt;编组&gt;"><rect id="_矩形_249" data-name="&lt;矩形&gt;" class="cls-36" x="638.67" y="869.59" width="5.96" height="20.07" transform="translate(1283.3 1759.25) rotate(-180)"/><rect id="_矩形_250" data-name="&lt;矩形&gt;" class="cls-37" x="637.93" y="874.9" width="7.44" height="5.96" transform="translate(1519.52 236.22) rotate(90)"/></g><g id="_编组_128" data-name="&lt;编组&gt;"><rect id="_矩形_251" data-name="&lt;矩形&gt;" class="cls-36" x="622.89" y="869.59" width="5.96" height="20.07" transform="translate(1251.73 1759.25) rotate(-180)"/><rect id="_矩形_252" data-name="&lt;矩形&gt;" class="cls-37" x="622.14" y="874.9" width="7.44" height="5.96" transform="translate(1503.74 252.01) rotate(90)"/></g></g><g id="_编组_129" data-name="&lt;编组&gt;"><g id="_编组_130" data-name="&lt;编组&gt;"><rect id="_矩形_253" data-name="&lt;矩形&gt;" class="cls-38" x="674.83" y="747.16" width="13.24" height="205.15" rx="6.62" ry="6.62" transform="translate(-168.28 1531.18) rotate(-90)"/><rect id="_矩形_254" data-name="&lt;矩形&gt;" class="cls-38" x="674.83" y="731.37" width="13.24" height="205.15" rx="6.62" ry="6.62" transform="translate(-152.5 1515.4) rotate(-90)"/><rect id="_矩形_255" data-name="&lt;矩形&gt;" class="cls-38" x="674.83" y="715.58" width="13.24" height="205.15" rx="6.62" ry="6.62" transform="translate(-136.71 1499.61) rotate(-90)"/><rect id="_矩形_256" data-name="&lt;矩形&gt;" class="cls-38" x="674.83" y="699.8" width="13.24" height="205.15" rx="6.62" ry="6.62" transform="translate(-120.92 1483.82) rotate(-90)"/><rect id="_矩形_257" data-name="&lt;矩形&gt;" class="cls-38" x="674.83" y="684.01" width="13.24" height="205.15" rx="6.62" ry="6.62" transform="translate(-105.13 1468.03) rotate(-90)"/><rect id="_矩形_258" data-name="&lt;矩形&gt;" class="cls-38" x="674.83" y="668.22" width="13.24" height="205.15" rx="6.62" ry="6.62" transform="translate(-89.35 1452.24) rotate(-90)"/><rect id="_矩形_259" data-name="&lt;矩形&gt;" class="cls-38" x="674.83" y="652.43" width="13.24" height="205.15" rx="6.62" ry="6.62" transform="translate(-73.56 1436.46) rotate(-90)"/><rect id="_矩形_260" data-name="&lt;矩形&gt;" class="cls-38" x="674.83" y="636.65" width="13.24" height="205.15" rx="6.62" ry="6.62" transform="translate(-57.77 1420.67) rotate(-90)"/></g><g id="_编组_131" data-name="&lt;编组&gt;"><rect id="_矩形_261" data-name="&lt;矩形&gt;" class="cls-36" x="593.32" y="839.7" width="5.96" height="20.07" transform="translate(-253.43 1446.04) rotate(-90)"/><rect id="_矩形_262" data-name="&lt;矩形&gt;" class="cls-37" x="594.33" y="846.76" width="7.44" height="5.96" transform="translate(1196.11 1699.47) rotate(-180)"/></g><g id="_编组_132" data-name="&lt;编组&gt;"><rect id="_矩形_263" data-name="&lt;矩形&gt;" class="cls-36" x="593.32" y="823.91" width="5.96" height="20.07" transform="translate(-237.64 1430.25) rotate(-90)"/><rect id="_矩形_264" data-name="&lt;矩形&gt;" class="cls-37" x="594.33" y="830.97" width="7.44" height="5.96" transform="translate(1196.11 1667.89) rotate(-180)"/></g><g id="_编组_133" data-name="&lt;编组&gt;"><rect id="_矩形_265" data-name="&lt;矩形&gt;" class="cls-36" x="593.32" y="808.12" width="5.96" height="20.07" transform="translate(-221.86 1414.46) rotate(-90)"/><rect id="_矩形_266" data-name="&lt;矩形&gt;" class="cls-37" x="594.33" y="815.18" width="7.44" height="5.96" transform="translate(1196.11 1636.32) rotate(-180)"/></g><g id="_编组_134" data-name="&lt;编组&gt;"><rect id="_矩形_267" data-name="&lt;矩形&gt;" class="cls-36" x="593.32" y="792.33" width="5.96" height="20.07" transform="translate(-206.07 1398.67) rotate(-90)"/><rect id="_矩形_268" data-name="&lt;矩形&gt;" class="cls-37" x="594.33" y="799.39" width="7.44" height="5.96" transform="translate(1196.11 1604.74) rotate(-180)"/></g><g id="_编组_135" data-name="&lt;编组&gt;"><rect id="_矩形_269" data-name="&lt;矩形&gt;" class="cls-36" x="593.32" y="776.55" width="5.96" height="20.07" transform="translate(-190.28 1382.89) rotate(-90)"/><rect id="_矩形_270" data-name="&lt;矩形&gt;" class="cls-37" x="594.33" y="783.61" width="7.44" height="5.96" transform="translate(1196.11 1573.17) rotate(-180)"/></g><g id="_编组_136" data-name="&lt;编组&gt;"><rect id="_矩形_271" data-name="&lt;矩形&gt;" class="cls-36" x="593.32" y="760.76" width="5.96" height="20.07" transform="translate(-174.49 1367.1) rotate(-90)"/><rect id="_矩形_272" data-name="&lt;矩形&gt;" class="cls-37" x="594.33" y="767.82" width="7.44" height="5.96" transform="translate(1196.11 1541.59) rotate(-180)"/></g><g id="_编组_137" data-name="&lt;编组&gt;"><rect id="_矩形_273" data-name="&lt;矩形&gt;" class="cls-36" x="593.32" y="744.97" width="5.96" height="20.07" transform="translate(-158.71 1351.31) rotate(-90)"/><rect id="_矩形_274" data-name="&lt;矩形&gt;" class="cls-37" x="594.33" y="752.03" width="7.44" height="5.96" transform="translate(1196.11 1510.01) rotate(-180)"/></g><g id="_编组_138" data-name="&lt;编组&gt;"><rect id="_矩形_275" data-name="&lt;矩形&gt;" class="cls-36" x="593.32" y="729.18" width="5.96" height="20.07" transform="translate(-142.92 1335.52) rotate(-90)"/><rect id="_矩形_276" data-name="&lt;矩形&gt;" class="cls-37" x="594.33" y="736.24" width="7.44" height="5.96" transform="translate(1196.11 1478.44) rotate(-180)"/></g><g id="_编组_139" data-name="&lt;编组&gt;"><rect id="_矩形_277" data-name="&lt;矩形&gt;" class="cls-36" x="763.62" y="729.18" width="5.96" height="20.07" transform="translate(1505.82 -27.38) rotate(90)"/><rect id="_矩形_278" data-name="&lt;矩形&gt;" class="cls-37" x="761.12" y="736.24" width="7.44" height="5.96"/></g><g id="_编组_140" data-name="&lt;编组&gt;"><rect id="_矩形_279" data-name="&lt;矩形&gt;" class="cls-36" x="763.62" y="744.97" width="5.96" height="20.07" transform="translate(1521.6 -11.59) rotate(90)"/><rect id="_矩形_280" data-name="&lt;矩形&gt;" class="cls-37" x="761.12" y="752.03" width="7.44" height="5.96"/></g><g id="_编组_141" data-name="&lt;编组&gt;"><rect id="_矩形_281" data-name="&lt;矩形&gt;" class="cls-36" x="763.62" y="760.76" width="5.96" height="20.07" transform="translate(1537.39 4.2) rotate(90)"/><rect id="_矩形_282" data-name="&lt;矩形&gt;" class="cls-37" x="761.12" y="767.82" width="7.44" height="5.96"/></g><g id="_编组_142" data-name="&lt;编组&gt;"><rect id="_矩形_283" data-name="&lt;矩形&gt;" class="cls-36" x="763.62" y="776.55" width="5.96" height="20.07" transform="translate(1553.18 19.99) rotate(90)"/><rect id="_矩形_284" data-name="&lt;矩形&gt;" class="cls-37" x="761.12" y="783.61" width="7.44" height="5.96"/></g><g id="_编组_143" data-name="&lt;编组&gt;"><rect id="_矩形_285" data-name="&lt;矩形&gt;" class="cls-36" x="763.62" y="792.33" width="5.96" height="20.07" transform="translate(1568.97 35.77) rotate(90)"/><rect id="_矩形_286" data-name="&lt;矩形&gt;" class="cls-37" x="761.12" y="799.39" width="7.44" height="5.96"/></g><g id="_编组_144" data-name="&lt;编组&gt;"><rect id="_矩形_287" data-name="&lt;矩形&gt;" class="cls-36" x="763.62" y="808.12" width="5.96" height="20.07" transform="translate(1584.76 51.56) rotate(90)"/><rect id="_矩形_288" data-name="&lt;矩形&gt;" class="cls-37" x="761.12" y="815.18" width="7.44" height="5.96"/></g><g id="_编组_145" data-name="&lt;编组&gt;"><rect id="_矩形_289" data-name="&lt;矩形&gt;" class="cls-36" x="763.62" y="823.91" width="5.96" height="20.07" transform="translate(1600.54 67.35) rotate(90)"/><rect id="_矩形_290" data-name="&lt;矩形&gt;" class="cls-37" x="761.12" y="830.97" width="7.44" height="5.96"/></g><g id="_编组_146" data-name="&lt;编组&gt;"><rect id="_矩形_291" data-name="&lt;矩形&gt;" class="cls-36" x="763.62" y="839.7" width="5.96" height="20.07" transform="translate(1616.33 83.14) rotate(90)"/><rect id="_矩形_292" data-name="&lt;矩形&gt;" class="cls-37" x="761.12" y="846.76" width="7.44" height="5.96"/></g></g><path id="_矩形_293" data-name="&lt;矩形&gt;" class="cls-35" d="M747.36,869.59H614.88L606.34,861V727.91l8.54-8.54H747.36l8.54,8.54V861Z"/></g><g id="_编组_147" data-name="&lt;编组&gt;"><path id="_矩形_294" data-name="&lt;矩形&gt;" class="cls-39" d="M762.39,1114.79h-31L720.59,1104v-84.42l10.82-10.82h31l10.82,10.82V1104Z"/><path id="_矩形_295" data-name="&lt;矩形&gt;" class="cls-39" d="M814.42,1114.79h-31L772.62,1104v-84.42l10.82-10.82h31l10.82,10.82V1104Z"/><path id="_矩形_296" data-name="&lt;矩形&gt;" class="cls-39" d="M866.45,1114.79h-31L824.65,1104v-84.42l10.82-10.82h31l10.82,10.82V1104Z"/><g id="_编组_148" data-name="&lt;编组&gt;"><path id="_矩形_297" data-name="&lt;矩形&gt;" class="cls-40" d="M762.7,1061.77H731.1l-9.93-9.93v-31.6l9.93-9.93h31.6l9.93,9.93v31.6Z"/><rect id="_矩形_298" data-name="&lt;矩形&gt;" class="cls-41" x="740.11" y="1029.26" width="13.57" height="13.57"/><path id="_矩形_299" data-name="&lt;矩形&gt;" class="cls-40" d="M762.7,1113.22H731.1l-9.93-9.93v-31.6l9.93-9.93h31.6l9.93,9.93v31.6Z"/><rect id="_矩形_300" data-name="&lt;矩形&gt;" class="cls-41" x="740.11" y="1080.71" width="13.57" height="13.57"/></g><g id="_编组_149" data-name="&lt;编组&gt;"><path id="_矩形_301" data-name="&lt;矩形&gt;" class="cls-40" d="M814.73,1061.77h-31.6l-9.93-9.93v-31.6l9.93-9.93h31.6l9.93,9.93v31.6Z"/><rect id="_矩形_302" data-name="&lt;矩形&gt;" class="cls-41" x="792.14" y="1029.26" width="13.57" height="13.57"/><path id="_矩形_303" data-name="&lt;矩形&gt;" class="cls-40" d="M814.73,1113.22h-31.6l-9.93-9.93v-31.6l9.93-9.93h31.6l9.93,9.93v31.6Z"/><rect id="_矩形_304" data-name="&lt;矩形&gt;" class="cls-41" x="792.14" y="1080.71" width="13.57" height="13.57"/></g><g id="_编组_150" data-name="&lt;编组&gt;"><path id="_矩形_305" data-name="&lt;矩形&gt;" class="cls-40" d="M866.76,1061.77h-31.6l-9.93-9.93v-31.6l9.93-9.93h31.6l9.93,9.93v31.6Z"/><rect id="_矩形_306" data-name="&lt;矩形&gt;" class="cls-41" x="844.18" y="1029.26" width="13.57" height="13.57"/><path id="_矩形_307" data-name="&lt;矩形&gt;" class="cls-40" d="M866.76,1113.22h-31.6l-9.93-9.93v-31.6l9.93-9.93h31.6l9.93,9.93v31.6Z"/><rect id="_矩形_308" data-name="&lt;矩形&gt;" class="cls-41" x="844.18" y="1080.71" width="13.57" height="13.57"/></g></g></g></g></svg>