<?xml version="1.0" encoding="utf-8"?>
<!-- Generator: Adobe Illustrator 22.0.1, SVG Export Plug-In . SVG Version: 6.00 Build 0)  -->
<svg version="1.1" id="图层_1" xmlns="http://www.w3.org/2000/svg" xmlns:xlink="http://www.w3.org/1999/xlink" x="0px" y="0px"
	 viewBox="0 0 1032.7 1268.4" style="enable-background:new 0 0 1032.7 1268.4;" xml:space="preserve">
<style type="text/css">
	.st0{fill:#353535;}
	.st1{fill:none;stroke:#FFFFFF;stroke-width:3.31;stroke-miterlimit:10;}
	.st2{fill:#F2CB6B;}
	.st3{fill:none;stroke:#FFFFFF;stroke-width:1.99;stroke-miterlimit:10;}
	.st4{fill:#161616;}
	.st5{fill:#C1C1C1;}
	.st6{fill:#D0AB3C;stroke:#FFFFFF;stroke-width:1.99;stroke-miterlimit:10;}
	.st7{fill:#F0C581;}
	.st8{fill:#C8A266;}
	.st9{fill:#FFFFFF;}
	.st10{fill:#F4CB70;}
	.st11{fill:#C6C5C5;}
	.st12{fill:#D0AB3C;stroke:#FFFFFF;stroke-width:1.32;stroke-miterlimit:10;}
	.st13{fill:#F99F46;stroke:#EF973F;stroke-width:0.66;stroke-miterlimit:10;}
	.st14{fill:#AAAAAA;}
	.st15{fill:#9B9B9B;stroke:#FFFFFF;stroke-width:0.66;stroke-miterlimit:10;}
	.st16{fill:#D2D3D3;}
	.st17{fill:#030000;}
	.st18{fill:#D9B13B;stroke:#FFFFFF;stroke-width:0.77;stroke-miterlimit:10;}
	.st19{fill:#514F50;stroke:#494646;stroke-width:0.77;stroke-miterlimit:10;}
	.st20{fill:none;stroke:#FFFFFF;stroke-width:0.77;stroke-miterlimit:10;}
	.st21{fill:#C7C6C6;}
	.st22{fill:#A6A6A6;}
	.st23{fill:#BB8C27;}
	.st24{fill:#FF4A5C;stroke:#681216;stroke-width:0.66;stroke-miterlimit:10;}
	.st25{fill:#E2B838;stroke:#FFFFFF;stroke-width:1.99;stroke-miterlimit:10;}
	.st26{fill:#848484;}
	.st27{fill:#C2C2C2;}
	.st28{fill:#454545;}
	.st29{fill:#E1B737;}
	.st30{fill:#666666;}
	.st31{fill:#F4F4F4;}
	.st32{fill:#515151;}
	.st33{fill:#068306;}
	.st34{fill:#06C106;}
	.st35{fill:#B9B9B9;}
	.st36{fill:#8D8D8D;}
	.st37{fill:none;stroke:#EFEFEF;stroke-width:4;stroke-miterlimit:10;}
	.st38{fill:#EFEFEF;}
	.st39{fill:#C8C8C8;}
	.st40{fill:#817C75;}
	.st41{fill:#8B1313;}
	.st42{fill:#F4902C;}
	.st43{fill:none;stroke:#FFFFFF;stroke-width:6;stroke-miterlimit:10;}
	.st44{fill:#9FA0A0;stroke:#E1B737;stroke-width:4;stroke-miterlimit:10;}
	.st45{fill:#838383;}
	.st46{fill:#BBBBBB;}
	.st47{font-family:'Arial-BoldMT';}
	.st48{font-size:36.16px;}
	.st49{fill:#EAEAEA;}
	.st50{fill:#191919;}
	.st51{fill:#E8E8E8;}
	.st52{fill:#757575;}
	.st53{fill:#E5E5E5;}
	.st54{font-size:11.59px;}
	.st55{font-size:9.53px;}
</style>
<title>步进电机驱动模块</title>
<g id="图层_2_1_">
	<g id="图层_1-2">
		<path id="_复合路径_" class="st0" d="M71.4,1268.4h803.5c39.4,0,71.4-32,71.4-71.4V71.7c0-39.5-32-71.4-71.4-71.4l-803.5,0
			C32,0.3,0,32.2,0,71.7l0,1125.3C0,1236.4,32,1268.4,71.4,1268.4C71.4,1268.4,71.4,1268.4,71.4,1268.4z M48,1224.8
			c-2.5,2.5-6.5,2.5-9,0c-2.5-2.5-2.5-6.5,0-9s6.5-2.5,9,0c0,0,0,0,0,0C50.5,1218.3,50.5,1222.3,48,1224.8L48,1224.8z M39,1164.5
			c2.5-2.5,6.5-2.5,9,0c2.5,2.5,2.5,6.5,0,9s-6.5,2.5-9,0c0,0,0,0,0,0C36.6,1171,36.6,1167,39,1164.5L39,1164.5z M39,95.1
			c2.5-2.5,6.5-2.5,9,0s2.5,6.5,0,9s-6.5,2.5-9,0c0,0,0,0,0,0C37.1,101.8,37.6,97.9,39,95.1L39,95.1z M69.2,1237.3
			c-3.5,0-6.4-2.9-6.4-6.4s2.9-6.4,6.4-6.4s6.4,2.9,6.4,6.4l0,0C75.6,1234.4,72.7,1237.3,69.2,1237.3z M69.2,1218.8
			c-13.4,0-24.2-10.8-24.2-24.2s10.8-24.2,24.2-24.2s24.2,10.8,24.2,24.2c0,0,0,0,0,0C93.4,1208,82.6,1218.8,69.2,1218.8z
			 M69.2,1152c3.5,0,6.4,2.9,6.4,6.4s-2.9,6.4-6.4,6.4s-6.4-2.9-6.4-6.4l0,0C62.8,1154.9,65.7,1152,69.2,1152L69.2,1152z
			 M62.8,110.3c0-3.5,2.9-6.4,6.4-6.4s6.4,2.9,6.4,6.4s-2.9,6.4-6.4,6.4l0,0C65.7,116.6,62.8,113.8,62.8,110.3L62.8,110.3z
			 M90.3,1164.5c2.5-2.5,6.5-2.5,9,0c2.5,2.5,2.5,6.5,0,9s-6.5,2.5-9,0c0,0,0,0,0,0C87.9,1171,87.9,1167,90.3,1164.5z M90.3,95.1
			c2.5-2.5,6.5-2.5,9,0s2.5,6.5,0,9s-6.5,2.5-9,0c0,0,0,0,0,0C87.9,101.7,87.9,97.6,90.3,95.1C90.3,95.1,90.3,95.1,90.3,95.1
			L90.3,95.1z M99.3,1224.8c-2.5,2.5-6.5,2.5-9,0c-2.5-2.5-2.5-6.5,0-9s6.5-2.5,9,0c0,0,0,0,0,0
			C101.8,1218.3,101.8,1222.3,99.3,1224.8L99.3,1224.8z M105.5,1201c-3.5,0-6.4-2.9-6.4-6.4s2.9-6.4,6.4-6.4s6.4,2.9,6.4,6.4l0,0
			C111.8,1198.2,109,1201,105.5,1201L105.5,1201z M856,1224.8c-2.5,2.5-6.5,2.5-9,0c-2.5-2.5-2.5-6.5,0-9c2.5-2.5,6.5-2.5,9,0
			c0,0,0,0,0,0C858.5,1218.3,858.5,1222.3,856,1224.8z M847,1164.5c2.5-2.5,6.5-2.5,9,0c2.5,2.5,2.5,6.5,0,9s-6.5,2.5-9,0
			c0,0,0,0,0,0C844.5,1171,844.5,1167,847,1164.5L847,1164.5z M847,95.1c2.5-2.5,6.5-2.5,9,0s2.5,6.5,0,9s-6.5,2.5-9,0c0,0,0,0,0,0
			C844.5,101.6,844.5,97.6,847,95.1z M877.1,1237.3c-3.5,0-6.4-2.9-6.4-6.4s2.9-6.4,6.4-6.4s6.4,2.9,6.4,6.4l0,0
			C883.5,1234.4,880.7,1237.3,877.1,1237.3z M877.1,1218.8c-13.4,0-24.2-10.8-24.2-24.2s10.8-24.2,24.2-24.2s24.2,10.8,24.2,24.2
			c0,0,0,0,0,0C901.3,1208,890.5,1218.8,877.1,1218.8z M877.1,1152c3.5,0,6.4,2.9,6.4,6.4s-2.9,6.4-6.4,6.4s-6.4-2.9-6.4-6.4l0,0
			C870.8,1154.9,873.6,1152,877.1,1152L877.1,1152z M870.8,110.3c0-3.5,2.9-6.4,6.4-6.4s6.4,2.9,6.4,6.4s-2.9,6.4-6.4,6.4
			c0,0,0,0,0,0C873.6,116.6,870.8,113.8,870.8,110.3L870.8,110.3z M898.3,1164.5c2.5-2.5,6.5-2.5,9,0c2.5,2.5,2.5,6.5,0,9
			s-6.5,2.5-9,0c0,0,0,0,0,0C895.8,1171,895.8,1167,898.3,1164.5z M898.3,95.1c2.5-2.5,6.5-2.5,9,0c2.5,2.5,2.5,6.5,0,9
			s-6.5,2.5-9,0c0,0,0,0,0,0C895.8,101.7,895.8,97.6,898.3,95.1C898.3,95.1,898.3,95.1,898.3,95.1L898.3,95.1z M907.3,1224.8
			c-2.5,2.5-6.5,2.5-9,0c-2.5-2.5-2.5-6.5,0-9s6.5-2.5,9,0c0,0,0,0,0,0C909.8,1218.3,909.8,1222.3,907.3,1224.8L907.3,1224.8z
			 M913.4,1201c-3.5,0-6.4-2.9-6.4-6.4s2.9-6.4,6.4-6.4c3.5,0,6.4,2.9,6.4,6.4C919.8,1198.2,916.9,1201,913.4,1201L913.4,1201z
			 M919.8,74c0,3.5-2.9,6.4-6.4,6.4S907,77.5,907,74s2.9-6.4,6.4-6.4l0,0C916.9,67.7,919.8,70.5,919.8,74L919.8,74z M898.3,43.9
			c2.5-2.5,6.5-2.5,9,0s2.5,6.5,0,9c-2.5,2.5-6.5,2.5-9,0c0,0,0,0,0,0C895.8,50.4,895.8,46.4,898.3,43.9
			C898.3,43.9,898.3,43.8,898.3,43.9L898.3,43.9z M877.1,31.4c3.5,0,6.4,2.9,6.4,6.4s-2.9,6.4-6.4,6.4s-6.4-2.9-6.4-6.4l0,0
			C870.8,34.2,873.6,31.4,877.1,31.4z M877.1,49.8c13.4,0,24.2,10.8,24.2,24.2c0,13.4-10.8,24.2-24.2,24.2
			C863.8,98.2,853,87.4,853,74C852.9,60.7,863.8,49.8,877.1,49.8C877.1,49.8,877.1,49.8,877.1,49.8L877.1,49.8z M847,43.8
			c2.5-2.5,6.5-2.5,9,0c2.5,2.5,2.5,6.5,0,9s-6.5,2.5-9,0c0,0,0,0,0,0C846.1,51,849.2,47.3,847,43.8L847,43.8z M840.9,67.6
			c3.5,0,6.4,2.9,6.4,6.4s-2.9,6.4-6.4,6.4s-6.4-2.9-6.4-6.4l0,0C834.5,70.5,837.4,67.6,840.9,67.6L840.9,67.6z M840.9,1188.3
			c3.5,0,6.4,2.9,6.4,6.4c0,3.5-2.9,6.4-6.4,6.4c-3.5,0-6.4-2.9-6.4-6.4l0,0C834.5,1191.1,837.4,1188.3,840.9,1188.3L840.9,1188.3
			L840.9,1188.3z M111.9,74c0,3.5-2.9,6.4-6.4,6.4s-6.4-2.9-6.4-6.4s2.9-6.4,6.4-6.4l0,0C109,67.6,111.8,70.5,111.9,74L111.9,74z
			 M90.4,43.8c2.5-2.5,6.5-2.5,9,0s2.5,6.5,0,9s-6.5,2.5-9,0c0,0,0,0,0,0C87.9,50.4,87.9,46.3,90.4,43.8
			C90.3,43.8,90.3,43.8,90.4,43.8L90.4,43.8z M69.2,31.4c3.5,0,6.4,2.9,6.4,6.4s-2.9,6.4-6.4,6.4s-6.4-2.9-6.4-6.4l0,0
			C62.8,34.2,65.7,31.4,69.2,31.4z M69.2,49.8c13.4,0,24.2,10.8,24.2,24.2c0,13.4-10.8,24.2-24.2,24.2C55.8,98.2,45,87.4,45,74
			C45,60.7,55.8,49.8,69.2,49.8C69.2,49.8,69.2,49.8,69.2,49.8L69.2,49.8z M39,43.8c2.5-2.5,6.5-2.5,9,0s2.5,6.5,0,9s-6.5,2.5-9,0
			c0,0,0,0,0,0c-2.5-2.5-2.6-6.5-0.1-9C38.9,43.8,39,43.8,39,43.8L39,43.8z M32.9,67.6c3.5,0,6.4,2.9,6.4,6.4s-2.9,6.4-6.4,6.4
			s-6.4-2.9-6.4-6.4l0,0C26.6,70.5,29.4,67.6,32.9,67.6z M32.9,1188.3c3.5,0,6.4,2.9,6.4,6.4s-2.9,6.4-6.4,6.4s-6.4-2.9-6.4-6.4l0,0
			C26.6,1191.1,29.4,1188.3,32.9,1188.3L32.9,1188.3L32.9,1188.3z"/>
		<circle id="_路径_" class="st1" cx="877.1" cy="1194.7" r="48.2"/>
		<path id="_复合路径_2" class="st2" d="M877.1,1243c26.7,0,48.4-21.7,48.4-48.4s-21.7-48.4-48.4-48.4s-48.4,21.7-48.4,48.4l0,0
			C828.8,1221.3,850.4,1243,877.1,1243z M856,1224.8c-2.5,2.5-6.5,2.5-9,0c-2.5-2.5-2.5-6.5,0-9s6.5-2.5,9,0c0,0,0,0,0,0
			C858.5,1218.3,858.5,1222.3,856,1224.8L856,1224.8z M877.1,1237.3c-3.5,0-6.4-2.9-6.4-6.4s2.9-6.4,6.4-6.4s6.4,2.9,6.4,6.4l0,0
			C883.5,1234.4,880.7,1237.3,877.1,1237.3z M907.3,1224.8c-2.5,2.5-6.5,2.5-9,0c-2.5-2.5-2.5-6.5,0-9s6.5-2.5,9,0c0,0,0,0,0,0
			C909.8,1218.3,909.8,1222.3,907.3,1224.8z M913.4,1188.3c3.5,0,6.4,2.9,6.4,6.4s-2.9,6.4-6.4,6.4c-3.5,0-6.4-2.9-6.4-6.4
			S909.9,1188.3,913.4,1188.3L913.4,1188.3z M898.3,1164.5c2.5-2.5,6.5-2.5,9,0c2.5,2.5,2.5,6.5,0,9c-2.5,2.5-6.5,2.5-9,0
			c0,0,0,0,0,0C895.8,1171,895.8,1167,898.3,1164.5L898.3,1164.5z M877.1,1152c3.5,0,6.4,2.9,6.4,6.4s-2.9,6.4-6.4,6.4
			s-6.4-2.9-6.4-6.4l0,0C870.8,1154.9,873.6,1152,877.1,1152C877.1,1152,877.1,1152,877.1,1152L877.1,1152z M877.1,1170.5
			c13.4,0,24.2,10.8,24.2,24.2s-10.8,24.2-24.2,24.2S853,1208,853,1194.7C853,1181.3,863.8,1170.5,877.1,1170.5L877.1,1170.5z
			 M847,1164.5c2.5-2.5,6.5-2.5,9,0c2.5,2.5,2.5,6.5,0,9s-6.5,2.5-9,0c0,0,0,0,0,0C844.5,1171,844.5,1167,847,1164.5L847,1164.5z
			 M840.9,1188.3c3.5,0,6.4,2.9,6.4,6.4s-2.9,6.4-6.4,6.4s-6.4-2.9-6.4-6.4l0,0C834.5,1191.1,837.4,1188.3,840.9,1188.3
			L840.9,1188.3z"/>
		<circle id="_路径_2" class="st1" cx="69.2" cy="1194.7" r="48.2"/>
		<path id="_复合路径_3" class="st2" d="M69.2,1243c26.7,0,48.4-21.7,48.4-48.4s-21.7-48.4-48.4-48.4s-48.4,21.7-48.4,48.4l0,0
			C20.9,1221.3,42.5,1243,69.2,1243z M48,1224.8c-2.5,2.5-6.5,2.5-9,0c-2.5-2.5-2.5-6.5,0-9s6.5-2.5,9,0c0,0,0,0,0,0
			C50.5,1218.3,50.5,1222.3,48,1224.8L48,1224.8z M69.2,1237.3c-3.5,0-6.4-2.9-6.4-6.4s2.9-6.4,6.4-6.4s6.4,2.9,6.4,6.4l0,0
			C75.6,1234.4,72.7,1237.3,69.2,1237.3z M99.3,1224.8c-2.5,2.5-6.5,2.5-9,0c-2.5-2.5-2.5-6.5,0-9s6.5-2.5,9,0c0,0,0,0,0,0
			C101.8,1218.3,101.8,1222.3,99.3,1224.8z M105.5,1188.3c3.5,0,6.4,2.9,6.4,6.4s-2.9,6.4-6.4,6.4s-6.4-2.9-6.4-6.4l0,0
			C99.1,1191.1,102,1188.3,105.5,1188.3z M90.3,1164.5c2.5-2.5,6.5-2.5,9,0c2.5,2.5,2.5,6.5,0,9s-6.5,2.5-9,0c0,0,0,0,0,0
			C87.9,1171,87.9,1167,90.3,1164.5z M69.2,1152c3.5,0,6.4,2.9,6.4,6.4s-2.9,6.4-6.4,6.4s-6.4-2.9-6.4-6.4l0,0
			C62.8,1154.9,65.7,1152,69.2,1152C69.2,1152,69.2,1152,69.2,1152z M69.2,1170.5c13.4,0,24.2,10.8,24.2,24.2s-10.8,24.2-24.2,24.2
			S45,1208,45,1194.7l0,0C45,1181.3,55.9,1170.5,69.2,1170.5z M39,1164.5c2.5-2.5,6.5-2.5,9,0c2.5,2.5,2.5,6.5,0,9s-6.5,2.5-9,0
			c0,0,0,0,0,0C36.6,1171,36.6,1167,39,1164.5L39,1164.5z M32.9,1188.3c3.5,0,6.4,2.9,6.4,6.4s-2.9,6.4-6.4,6.4s-6.4-2.9-6.4-6.4
			l0,0C26.6,1191.1,29.4,1188.3,32.9,1188.3L32.9,1188.3z"/>
		
			<ellipse id="_路径_3" transform="matrix(0.9996 -2.937367e-02 2.937367e-02 0.9996 -1.7949 25.797)" class="st1" cx="877.1" cy="74" rx="48.2" ry="48.2"/>
		<path id="_复合路径_4" class="st2" d="M877.1,122.4c26.7,0,48.4-21.7,48.4-48.4s-21.7-48.4-48.4-48.4
			c-26.7,0-48.4,21.7-48.4,48.4l0,0C828.8,100.7,850.4,122.4,877.1,122.4z M856,104.2c-2.5,2.5-6.5,2.5-9,0s-2.5-6.5,0-9
			s6.5-2.5,9,0c0,0,0,0,0,0C856.5,96.6,849.9,100.4,856,104.2L856,104.2z M877.1,116.7c-3.5,0-6.4-2.9-6.4-6.4s2.9-6.4,6.4-6.4
			s6.4,2.9,6.4,6.4l0,0C883.5,113.8,880.7,116.6,877.1,116.7L877.1,116.7z M907.3,104.2c-2.5,2.5-6.5,2.5-9,0s-2.5-6.5,0-9
			s6.5-2.5,9,0c0,0,0,0,0,0C907.6,96.2,896,100.2,907.3,104.2L907.3,104.2z M913.4,67.7c3.5,0,6.4,2.9,6.4,6.4s-2.9,6.4-6.4,6.4
			S907,77.5,907,74l0,0C907,70.5,909.9,67.6,913.4,67.7C913.4,67.6,913.4,67.6,913.4,67.7L913.4,67.7z M898.3,43.9
			c2.5-2.5,6.5-2.5,9,0s2.5,6.5,0,9c-2.5,2.5-6.5,2.5-9,0c0,0,0,0,0,0C895.8,50.4,895.8,46.4,898.3,43.9
			C898.3,43.9,898.3,43.8,898.3,43.9L898.3,43.9z M877.1,31.4c3.5,0,6.4,2.9,6.4,6.4s-2.9,6.4-6.4,6.4s-6.4-2.9-6.4-6.4l0,0
			C870.8,34.2,873.6,31.4,877.1,31.4z M877.1,49.8c13.4,0,24.2,10.8,24.2,24.2c0,13.4-10.8,24.2-24.2,24.2
			C863.8,98.2,853,87.4,853,74C853,60.7,863.8,49.8,877.1,49.8L877.1,49.8z M847,43.8c2.5-2.5,6.5-2.5,9,0c2.5,2.5,2.5,6.5,0,9
			s-6.5,2.5-9,0c0,0,0,0,0,0C846.1,51,849.2,47.3,847,43.8L847,43.8z M840.9,67.6c3.5,0,6.4,2.9,6.4,6.4s-2.9,6.4-6.4,6.4
			s-6.4-2.9-6.4-6.4l0,0C834.5,70.5,837.4,67.6,840.9,67.6L840.9,67.6z"/>
		<circle id="_路径_4" class="st1" cx="69.2" cy="74" r="48.2"/>
		<path id="_复合路径_5" class="st2" d="M69.2,122.4c26.7,0,48.4-21.7,48.4-48.4S95.9,25.6,69.2,25.6S20.8,47.3,20.8,74l0,0
			C20.9,100.7,42.5,122.4,69.2,122.4z M48,104.2c-2.5,2.5-6.5,2.5-9,0s-2.5-6.5,0-9s6.5-2.5,9,0c0,0,0,0,0,0c2.7,2.3,3.3,6,1,8.6
			C48.8,104,48.6,104.3,48,104.2L48,104.2z M69.2,116.7c-3.5,0-6.4-2.9-6.4-6.4s2.9-6.4,6.4-6.4s6.4,2.9,6.4,6.4l0,0
			C75.6,113.8,72.7,116.6,69.2,116.7L69.2,116.7z M99.3,104.2c-2.5,2.5-6.5,2.5-9,0s-2.5-6.5,0-9s6.5-2.5,9,0c0,0,0,0,0,0
			C101.8,97.7,101.8,101.7,99.3,104.2L99.3,104.2z M105.5,67.7c3.5,0,6.4,2.9,6.4,6.4s-2.9,6.4-6.4,6.4s-6.4-2.9-6.4-6.4l0,0
			C99.1,70.5,101.9,67.6,105.5,67.7C105.5,67.6,105.5,67.6,105.5,67.7L105.5,67.7z M90.3,43.9c2.5-2.5,6.5-2.5,9,0s2.5,6.5,0,9
			s-6.5,2.5-9,0c0,0,0,0,0,0C87.8,50.4,87.8,46.4,90.3,43.9C90.3,43.9,90.3,43.8,90.3,43.9L90.3,43.9z M69.2,31.4
			c3.5,0,6.4,2.9,6.4,6.4s-2.9,6.4-6.4,6.4s-6.4-2.9-6.4-6.4l0,0C62.8,34.2,65.7,31.4,69.2,31.4z M69.2,49.8
			c13.4,0,24.2,10.8,24.2,24.2c0,13.4-10.8,24.2-24.2,24.2C55.8,98.2,45,87.4,45,74C45,60.7,55.8,49.8,69.2,49.8L69.2,49.8z
			 M39,43.8c2.5-2.5,6.5-2.5,9,0s2.5,6.5,0,9s-6.5,2.5-9,0c0,0,0,0,0,0c-2.5-2.5-2.6-6.5-0.1-9C38.9,43.8,39,43.8,39,43.8L39,43.8z
			 M32.9,67.6c3.5,0,6.4,2.9,6.4,6.4s-2.9,6.4-6.4,6.4s-6.4-2.9-6.4-6.4l0,0C26.6,70.5,29.4,67.6,32.9,67.6z"/>
		<path id="_矩形_" class="st3" d="M467.6,306.4v-31l10.8-10.8h84.4l10.8,10.8v31l-10.8,10.8h-84.4L467.6,306.4z"/>
		<path id="_矩形_2" class="st4" d="M520.6,306.7v-31.6l9.9-9.9h31.6l9.9,9.9v31.6l-9.9,9.9h-31.6L520.6,306.7z"/>
		<rect id="_矩形_3" x="539.5" y="284.1" class="st5" width="13.6" height="13.6"/>
		<path id="_矩形_4" class="st4" d="M469.1,306.7v-31.6l9.9-9.9h31.6l9.9,9.9v31.6l-9.9,9.9h-31.6L469.1,306.7z"/>
		<rect id="_矩形_5" x="488.1" y="284.1" class="st5" width="13.6" height="13.6"/>
		<path id="_矩形_6" class="st3" d="M572.6,306.4v-31l10.8-10.8h84.4l10.8,10.8v31l-10.8,10.8h-84.4L572.6,306.4z"/>
		<path id="_矩形_7" class="st4" d="M625.6,306.7v-31.6l9.9-9.9h31.6l9.9,9.9v31.6l-9.9,9.9h-31.6L625.6,306.7z"/>
		<rect id="_矩形_8" x="644.6" y="284.1" class="st5" width="13.6" height="13.6"/>
		<path id="_矩形_9" class="st4" d="M574.2,306.7v-31.6l9.9-9.9h31.6l9.9,9.9v31.6l-9.9,9.9h-31.6L574.2,306.7z"/>
		<rect id="_矩形_10" x="593.1" y="284.1" class="st5" width="13.6" height="13.6"/>
		<path id="_矩形_11" class="st3" d="M198.2,306.4v-31l10.8-10.8h84.4l10.8,10.8v31l-10.8,10.8H209L198.2,306.4z"/>
		<path id="_矩形_12" class="st4" d="M251.2,306.7v-31.6l9.9-9.9h31.6l9.9,9.9v31.6l-9.9,9.9h-31.6L251.2,306.7z"/>
		<rect id="_矩形_13" x="270.2" y="284.1" class="st5" width="13.6" height="13.6"/>
		<path id="_矩形_14" class="st4" d="M199.8,306.7v-31.6l9.9-9.9h31.6l9.9,9.9v31.6l-9.9,9.9h-31.6L199.8,306.7z"/>
		<rect id="_矩形_15" x="218.7" y="284.1" class="st5" width="13.6" height="13.6"/>
		<path id="_矩形_16" class="st3" d="M303.3,306.4v-31l10.8-10.8h84.4l10.8,10.8v31l-10.8,10.8h-84.4L303.3,306.4z"/>
		<path id="_矩形_17" class="st4" d="M356.3,306.7v-31.6l9.9-9.9h31.6l9.9,9.9v31.6l-9.9,9.9h-31.6L356.3,306.7z"/>
		<rect id="_矩形_18" x="375.2" y="284.1" class="st5" width="13.6" height="13.6"/>
		<path id="_矩形_19" class="st4" d="M304.8,306.7v-31.6l9.9-9.9h31.6l9.9,9.9v31.6l-9.9,9.9h-31.6L304.8,306.7z"/>
		<rect id="_矩形_20" x="323.8" y="284.1" class="st5" width="13.6" height="13.6"/>
		<g id="_编组_">
			<g id="_编组_2">
				<rect id="_矩形_21" x="713.6" y="114.7" class="st6" width="18.5" height="56.5"/>
				<path id="_矩形_22" class="st7" d="M722.8,166.1L722.8,166.1c-2.8,0-5.1-2.3-5.1-5.1v-42.7c0-2.8,2.3-5.1,5.1-5.1l0,0
					c2.8,0,5.1,2.3,5.1,5.1V161C727.9,163.8,725.7,166.1,722.8,166.1z"/>
			</g>
			<rect id="_矩形_23" x="717.7" y="136.3" class="st8" width="10.3" height="6.8"/>
		</g>
		<g id="_编组_3">
			<g id="_编组_4">
				<rect id="_矩形_24" x="676" y="114.7" class="st6" width="18.5" height="56.5"/>
				<path id="_矩形_25" class="st7" d="M685.2,166.1L685.2,166.1c-2.8,0-5.1-2.3-5.1-5.1v-42.7c0-2.8,2.3-5.1,5.1-5.1l0,0
					c2.8,0,5.1,2.3,5.1,5.1V161C690.4,163.8,688.1,166.1,685.2,166.1z"/>
			</g>
			<rect id="_矩形_26" x="680.1" y="136.3" class="st8" width="10.3" height="6.8"/>
		</g>
		<g id="_编组_5">
			<g id="_编组_6">
				<rect id="_矩形_27" x="638.4" y="114.7" class="st6" width="18.5" height="56.5"/>
				<path id="_矩形_28" class="st7" d="M647.6,166.1L647.6,166.1c-2.8,0-5.1-2.3-5.1-5.1v-42.7c0-2.8,2.3-5.1,5.1-5.1l0,0
					c2.8,0,5.1,2.3,5.1,5.1V161C652.8,163.8,650.5,166.1,647.6,166.1z"/>
			</g>
			<rect id="_矩形_29" x="642.5" y="136.3" class="st8" width="10.3" height="6.8"/>
		</g>
		<g id="_编组_7">
			<g id="_编组_8">
				<rect id="_矩形_30" x="600.8" y="114.7" class="st6" width="18.5" height="56.5"/>
				<path id="_矩形_31" class="st7" d="M610,166.1L610,166.1c-2.8,0-5.1-2.3-5.1-5.1v-42.7c0-2.8,2.3-5.1,5.1-5.1l0,0
					c2.8,0,5.1,2.3,5.1,5.1V161C615.2,163.8,612.9,166.1,610,166.1z"/>
			</g>
			<rect id="_矩形_32" x="604.9" y="136.3" class="st8" width="10.3" height="6.8"/>
		</g>
		<g id="_编组_9">
			<g id="_编组_10">
				<rect id="_矩形_33" x="563.2" y="114.7" class="st6" width="18.5" height="56.5"/>
				<path id="_矩形_34" class="st7" d="M572.5,166.1L572.5,166.1c-2.8,0-5.1-2.3-5.1-5.1v-42.7c0-2.8,2.3-5.1,5.1-5.1l0,0
					c2.8,0,5.1,2.3,5.1,5.1V161C577.6,163.8,575.3,166.1,572.5,166.1z"/>
			</g>
			<rect id="_矩形_35" x="567.3" y="136.3" class="st8" width="10.3" height="6.8"/>
		</g>
		<g id="_编组_11">
			<g id="_编组_12">
				<rect id="_矩形_36" x="525.6" y="114.7" class="st6" width="18.5" height="56.5"/>
				<path id="_矩形_37" class="st7" d="M534.9,166.1L534.9,166.1c-2.8,0-5.1-2.3-5.1-5.1v-42.7c0-2.8,2.3-5.1,5.1-5.1l0,0
					c2.8,0,5.1,2.3,5.1,5.1V161C540,163.8,537.7,166.1,534.9,166.1z"/>
			</g>
			<rect id="_矩形_38" x="529.7" y="136.3" class="st8" width="10.3" height="6.8"/>
		</g>
		<rect id="_矩形_39" x="476.1" y="4.1" class="st9" width="305.6" height="114.3"/>
		<rect id="_矩形_40" x="717.7" y="25.5" class="st10" width="10.3" height="71.5"/>
		<rect id="_矩形_41" x="529.7" y="25.5" class="st10" width="10.3" height="71.5"/>
		<rect id="_矩形_42" x="763.1" y="118.3" class="st11" width="18.5" height="32.4"/>
		<rect id="_矩形_43" x="476.1" y="118.3" class="st11" width="18.5" height="32.4"/>
		<path id="_矩形_44" class="st11" d="M749.7,4.1H508c-1.1,0-2-0.9-2-2v0c0-1.1,0.9-2,2-2l241.7,0c1.1,0,2,0.9,2,2v0
			C751.7,3.2,750.8,4.1,749.7,4.1z"/>
		<g id="_编组_13">
			<g id="_编组_14">
				<rect id="_矩形_45" x="395.1" y="114.7" class="st6" width="18.5" height="56.5"/>
				<path id="_矩形_46" class="st7" d="M404.3,166.1L404.3,166.1c-2.8,0-5.1-2.3-5.1-5.1v-42.7c0-2.8,2.3-5.1,5.1-5.1l0,0
					c2.8,0,5.1,2.3,5.1,5.1V161C409.5,163.8,407.2,166.1,404.3,166.1z"/>
			</g>
			<rect id="_矩形_47" x="399.2" y="136.3" class="st8" width="10.3" height="6.8"/>
		</g>
		<g id="_编组_15">
			<g id="_编组_16">
				<rect id="_矩形_48" x="357.5" y="114.7" class="st6" width="18.5" height="56.5"/>
				<path id="_矩形_49" class="st7" d="M366.7,166.1L366.7,166.1c-2.8,0-5.1-2.3-5.1-5.1v-42.7c0-2.8,2.3-5.1,5.1-5.1l0,0
					c2.8,0,5.1,2.3,5.1,5.1V161C371.9,163.8,369.6,166.1,366.7,166.1z"/>
			</g>
			<rect id="_矩形_50" x="361.6" y="136.3" class="st8" width="10.3" height="6.8"/>
		</g>
		<g id="_编组_17">
			<g id="_编组_18">
				<rect id="_矩形_51" x="319.9" y="114.7" class="st6" width="18.5" height="56.5"/>
				<path id="_矩形_52" class="st7" d="M329.2,166.1L329.2,166.1c-2.8,0-5.1-2.3-5.1-5.1v-42.7c0-2.8,2.3-5.1,5.1-5.1l0,0
					c2.8,0,5.1,2.3,5.1,5.1V161C334.3,163.8,332,166.1,329.2,166.1z"/>
			</g>
			<rect id="_矩形_53" x="324" y="136.3" class="st8" width="10.3" height="6.8"/>
		</g>
		<g id="_编组_19">
			<g id="_编组_20">
				<rect id="_矩形_54" x="282.3" y="114.7" class="st6" width="18.5" height="56.5"/>
				<path id="_矩形_55" class="st7" d="M291.6,166.1L291.6,166.1c-2.8,0-5.1-2.3-5.1-5.1v-42.7c0-2.8,2.3-5.1,5.1-5.1l0,0
					c2.8,0,5.1,2.3,5.1,5.1V161C296.7,163.8,294.4,166.1,291.6,166.1z"/>
			</g>
			<rect id="_矩形_56" x="286.4" y="136.3" class="st8" width="10.3" height="6.8"/>
		</g>
		<g id="_编组_21">
			<g id="_编组_22">
				<rect id="_矩形_57" x="244.7" y="114.7" class="st6" width="18.5" height="56.5"/>
				<path id="_矩形_58" class="st7" d="M254,166.1L254,166.1c-2.8,0-5.1-2.3-5.1-5.1v-42.7c0-2.8,2.3-5.1,5.1-5.1l0,0
					c2.8,0,5.1,2.3,5.1,5.1V161C259.1,163.8,256.8,166.1,254,166.1z"/>
			</g>
			<rect id="_矩形_59" x="248.8" y="136.3" class="st8" width="10.3" height="6.8"/>
		</g>
		<g id="_编组_23">
			<g id="_编组_24">
				<rect id="_矩形_60" x="207.1" y="114.7" class="st6" width="18.5" height="56.5"/>
				<path id="_矩形_61" class="st7" d="M216.4,166.1L216.4,166.1c-2.8,0-5.1-2.3-5.1-5.1v-42.7c0-2.8,2.3-5.1,5.1-5.1l0,0
					c2.8,0,5.1,2.3,5.1,5.1V161C221.5,163.8,219.2,166.1,216.4,166.1z"/>
			</g>
			<rect id="_矩形_62" x="211.3" y="136.3" class="st8" width="10.3" height="6.8"/>
		</g>
		<rect id="_矩形_63" x="157.6" y="4.1" class="st9" width="305.6" height="114.3"/>
		<rect id="_矩形_64" x="399.2" y="25.5" class="st10" width="10.3" height="71.5"/>
		<rect id="_矩形_65" x="211.3" y="25.5" class="st10" width="10.3" height="71.5"/>
		<rect id="_矩形_66" x="444.6" y="118.3" class="st11" width="18.5" height="32.4"/>
		<rect id="_矩形_67" x="157.6" y="118.3" class="st11" width="18.5" height="32.4"/>
		<path id="_矩形_68" class="st11" d="M431.2,4.1H189.5c-1.1,0-2-0.9-2-2v0c0-1.1,0.9-2,2-2l241.7,0c1.1,0,2,0.9,2,2v0
			C433.2,3.2,432.3,4.1,431.2,4.1z"/>
		<g id="_编组_25">
			<g id="_编组_26">
				<rect id="_矩形_69" x="369.9" y="1097.3" class="st6" width="18.5" height="56.5"/>
				<path id="_矩形_70" class="st7" d="M379.2,1102.3L379.2,1102.3c2.8,0,5.1,2.3,5.1,5.1v42.7c0,2.8-2.3,5.1-5.1,5.1l0,0
					c-2.8,0-5.1-2.3-5.1-5.1v-42.7C374.1,1104.6,376.4,1102.3,379.2,1102.3z"/>
			</g>
			<rect id="_矩形_71" x="374.1" y="1125.3" class="st8" width="10.3" height="6.8"/>
		</g>
		<g id="_编组_27">
			<g id="_编组_28">
				<rect id="_矩形_72" x="407.5" y="1097.3" class="st6" width="18.5" height="56.5"/>
				<path id="_矩形_73" class="st7" d="M416.8,1102.3L416.8,1102.3c2.8,0,5.1,2.3,5.1,5.1v42.7c0,2.8-2.3,5.1-5.1,5.1l0,0
					c-2.8,0-5.1-2.3-5.1-5.1v-42.7C411.7,1104.6,414,1102.3,416.8,1102.3z"/>
			</g>
			<rect id="_矩形_74" x="411.7" y="1125.3" class="st8" width="10.3" height="6.8"/>
		</g>
		<g id="_编组_29">
			<g id="_编组_30">
				<rect id="_矩形_75" x="445.1" y="1097.3" class="st6" width="18.5" height="56.5"/>
				<path id="_矩形_76" class="st7" d="M454.4,1102.3L454.4,1102.3c2.8,0,5.1,2.3,5.1,5.1v42.7c0,2.8-2.3,5.1-5.1,5.1l0,0
					c-2.8,0-5.1-2.3-5.1-5.1v-42.7C449.2,1104.6,451.5,1102.3,454.4,1102.3z"/>
			</g>
			<rect id="_矩形_77" x="449.2" y="1125.3" class="st8" width="10.3" height="6.8"/>
		</g>
		<g id="_编组_31">
			<g id="_编组_32">
				<rect id="_矩形_78" x="482.7" y="1097.3" class="st6" width="18.5" height="56.5"/>
				<path id="_矩形_79" class="st7" d="M492,1102.3L492,1102.3c2.8,0,5.1,2.3,5.1,5.1v42.7c0,2.8-2.3,5.1-5.1,5.1l0,0
					c-2.8,0-5.1-2.3-5.1-5.1v-42.7C486.8,1104.6,489.1,1102.3,492,1102.3z"/>
			</g>
			<rect id="_矩形_80" x="486.8" y="1125.3" class="st8" width="10.3" height="6.8"/>
		</g>
		<g id="_编组_33">
			<g id="_编组_34">
				<rect id="_矩形_81" x="520.3" y="1097.3" class="st6" width="18.5" height="56.5"/>
				<path id="_矩形_82" class="st7" d="M529.6,1102.3L529.6,1102.3c2.8,0,5.1,2.3,5.1,5.1v42.7c0,2.8-2.3,5.1-5.1,5.1l0,0
					c-2.8,0-5.1-2.3-5.1-5.1v-42.7C524.4,1104.6,526.7,1102.3,529.6,1102.3z"/>
			</g>
			<rect id="_矩形_83" x="524.4" y="1125.3" class="st8" width="10.3" height="6.8"/>
		</g>
		<g id="_编组_35">
			<g id="_编组_36">
				<rect id="_矩形_84" x="557.9" y="1097.3" class="st6" width="18.5" height="56.5"/>
				<path id="_矩形_85" class="st7" d="M567.1,1102.3L567.1,1102.3c2.8,0,5.1,2.3,5.1,5.1v42.7c0,2.8-2.3,5.1-5.1,5.1l0,0
					c-2.8,0-5.1-2.3-5.1-5.1v-42.7C562,1104.6,564.3,1102.3,567.1,1102.3z"/>
			</g>
			<rect id="_矩形_86" x="562" y="1125.3" class="st8" width="10.3" height="6.8"/>
		</g>
		<rect id="_矩形_87" x="320.4" y="1150" class="st9" width="305.6" height="114.3"/>
		<rect id="_矩形_88" x="374.1" y="1171.4" class="st10" width="10.3" height="71.5"/>
		<rect id="_矩形_89" x="562" y="1171.4" class="st10" width="10.3" height="71.5"/>
		<rect id="_矩形_90" x="320.4" y="1117.6" class="st11" width="18.5" height="32.4"/>
		<rect id="_矩形_91" x="607.4" y="1117.6" class="st11" width="18.5" height="32.4"/>
		<path id="_矩形_92" class="st11" d="M352.3,1264.3H594c1.1,0,2,0.9,2,2l0,0c0,1.1-0.9,2-2,2H352.3c-1.1,0-2-0.9-2-2l0,0
			C350.3,1265.2,351.2,1264.3,352.3,1264.3z"/>
		<rect id="_矩形_93" x="611.4" y="612.8" class="st12" width="13.5" height="17.3"/>
		<rect id="_矩形_94" x="584.5" y="612.8" class="st12" width="13.5" height="17.3"/>
		<rect id="_矩形_95" x="595" y="614.8" class="st13" width="19.5" height="13.2"/>
		<rect id="_矩形_96" x="591.8" y="614.1" class="st14" width="4.7" height="14.7"/>
		<rect id="_矩形_97" x="612.9" y="614.1" class="st14" width="4.7" height="14.7"/>
		<rect id="_矩形_98" x="627" y="380.5" class="st12" width="13.5" height="17.3"/>
		<rect id="_矩形_99" x="600.1" y="380.5" class="st12" width="13.5" height="17.3"/>
		<rect id="_矩形_100" x="610.6" y="382.6" class="st13" width="19.5" height="13.2"/>
		<rect id="_矩形_101" x="607.4" y="381.8" class="st14" width="4.7" height="14.7"/>
		<rect id="_矩形_102" x="628.5" y="381.8" class="st14" width="4.7" height="14.7"/>
		<rect id="_矩形_103" x="611.4" y="656.1" class="st12" width="13.5" height="17.3"/>
		<rect id="_矩形_104" x="584.5" y="656.2" class="st12" width="13.5" height="17.3"/>
		<rect id="_矩形_105" x="595" y="658.2" class="st13" width="19.5" height="13.2"/>
		<rect id="_矩形_106" x="591.8" y="657.4" class="st14" width="4.7" height="14.7"/>
		<rect id="_矩形_107" x="612.9" y="657.4" class="st14" width="4.7" height="14.7"/>
		<rect id="_矩形_108" x="495.3" y="649.8" class="st12" width="17.3" height="13.5"/>
		<rect id="_矩形_109" x="495.3" y="622.9" class="st12" width="17.3" height="13.5"/>
		<rect id="_矩形_110" x="497.3" y="633.5" class="st13" width="13.2" height="19.5"/>
		<rect id="_矩形_111" x="496.6" y="630.3" class="st14" width="14.7" height="4.7"/>
		<rect id="_矩形_112" x="496.6" y="651.3" class="st14" width="14.7" height="4.7"/>
		<rect id="_矩形_113" x="460.6" y="649.8" class="st12" width="17.3" height="13.5"/>
		<rect id="_矩形_114" x="460.6" y="622.9" class="st12" width="17.3" height="13.5"/>
		<rect id="_矩形_115" x="462.6" y="633.5" class="st13" width="13.2" height="19.5"/>
		<rect id="_矩形_116" x="462" y="630.3" class="st14" width="14.7" height="4.7"/>
		<rect id="_矩形_117" x="462" y="651.3" class="st14" width="14.7" height="4.7"/>
		<rect id="_矩形_118" x="272" y="612.8" class="st12" width="13.5" height="17.3"/>
		<rect id="_矩形_119" x="245.1" y="612.8" class="st12" width="13.5" height="17.3"/>
		<rect id="_矩形_120" x="255.7" y="614.8" class="st13" width="19.5" height="13.2"/>
		<rect id="_矩形_121" x="252.5" y="614.1" class="st14" width="4.7" height="14.7"/>
		<rect id="_矩形_122" x="273.5" y="614.1" class="st14" width="4.7" height="14.7"/>
		<rect id="_矩形_123" x="272" y="656.1" class="st12" width="13.5" height="17.3"/>
		<rect id="_矩形_124" x="245.1" y="656.1" class="st12" width="13.5" height="17.3"/>
		<rect id="_矩形_125" x="255.7" y="658.2" class="st13" width="19.5" height="13.2"/>
		<rect id="_矩形_126" x="252.5" y="657.4" class="st14" width="4.7" height="14.7"/>
		<rect id="_矩形_127" x="273.5" y="657.4" class="st14" width="4.7" height="14.7"/>
		<rect id="_矩形_128" x="155.9" y="649.8" class="st12" width="17.3" height="13.5"/>
		<rect id="_矩形_129" x="155.9" y="622.9" class="st12" width="17.3" height="13.5"/>
		<rect id="_矩形_130" x="157.9" y="633.5" class="st13" width="13.2" height="19.5"/>
		<rect id="_矩形_131" x="157.3" y="630.3" class="st14" width="14.7" height="4.7"/>
		<rect id="_矩形_132" x="157.3" y="651.3" class="st14" width="14.7" height="4.7"/>
		<rect id="_矩形_133" x="121.2" y="649.8" class="st12" width="17.3" height="13.5"/>
		<rect id="_矩形_134" x="121.2" y="622.9" class="st12" width="17.3" height="13.5"/>
		<rect id="_矩形_135" x="123.3" y="633.5" class="st13" width="13.2" height="19.5"/>
		<rect id="_矩形_136" x="122.6" y="630.3" class="st14" width="14.7" height="4.7"/>
		<rect id="_矩形_137" x="122.6" y="651.3" class="st14" width="14.7" height="4.7"/>
		<rect id="_矩形_138" x="836.7" y="275.5" class="st15" width="43.6" height="17.3"/>
		<rect id="_矩形_139" x="844.2" y="275.8" class="st16" width="29.8" height="16.7"/>
		<polygon id="_路径_5" class="st17" points="868.6,275.8 849.4,275.8 849.4,292.4 868.6,292.4 868.6,289 867.9,289 867.9,278.6 
			868.6,278.6 		"/>
		<rect id="_矩形_140" x="779.3" y="275.5" class="st15" width="43.6" height="17.3"/>
		<rect id="_矩形_141" x="786.9" y="275.8" class="st16" width="29.8" height="16.7"/>
		<polygon id="_路径_6" class="st17" points="811.3,275.8 792.1,275.8 792.1,292.4 811.3,292.4 811.3,289 810.6,289 810.6,278.6 
			811.3,278.6 		"/>
		<rect id="_矩形_142" x="529.7" y="380.5" class="st15" width="43.6" height="17.3"/>
		<rect id="_矩形_143" x="537.3" y="380.9" class="st16" width="29.8" height="16.7"/>
		<polygon id="_路径_7" class="st17" points="561.7,380.9 542.5,380.9 542.5,397.5 561.7,397.5 561.7,394.1 561,394.1 561,383.7 
			561.7,383.7 		"/>
		<rect id="_矩形_144" x="460.9" y="380.5" class="st15" width="43.6" height="17.3"/>
		<rect id="_矩形_145" x="468.5" y="380.8" class="st16" width="29.8" height="16.7"/>
		<polygon id="_路径_8" class="st17" points="492.9,380.9 473.7,380.9 473.7,397.5 492.9,397.5 492.9,394.1 492.2,394.1 
			492.2,383.7 492.9,383.7 		"/>
		<rect id="_矩形_146" x="279.8" y="380.5" class="st12" width="13.5" height="17.3"/>
		<rect id="_矩形_147" x="252.9" y="380.6" class="st12" width="13.5" height="17.3"/>
		<rect id="_矩形_148" x="263.5" y="382.6" class="st13" width="19.5" height="13.2"/>
		<rect id="_矩形_149" x="260.3" y="381.8" class="st14" width="4.7" height="14.7"/>
		<rect id="_矩形_150" x="281.3" y="381.8" class="st14" width="4.7" height="14.7"/>
		<rect id="_矩形_151" x="182.6" y="380.5" class="st15" width="43.6" height="17.3"/>
		<rect id="_矩形_152" x="190.1" y="380.9" class="st16" width="29.8" height="16.7"/>
		<polygon id="_路径_9" class="st17" points="214.5,380.9 195.3,380.9 195.3,397.5 214.5,397.5 214.5,394.1 213.8,394.1 
			213.8,383.7 214.5,383.7 		"/>
		<rect id="_矩形_153" x="113.8" y="380.5" class="st15" width="43.6" height="17.3"/>
		<rect id="_矩形_154" x="121.3" y="380.8" class="st16" width="29.8" height="16.7"/>
		<polygon id="_路径_10" class="st17" points="145.7,380.9 126.6,380.9 126.6,397.5 145.7,397.5 145.7,394.1 145,394.1 145,383.7 
			145.7,383.7 		"/>
		<rect id="_矩形_155" x="254.6" y="952.2" class="st12" width="17.3" height="13.5"/>
		<rect id="_矩形_156" x="254.6" y="925.3" class="st12" width="17.3" height="13.5"/>
		<rect id="_矩形_157" x="256.7" y="935.8" class="st13" width="13.2" height="19.5"/>
		<rect id="_矩形_158" x="256" y="932.6" class="st14" width="14.7" height="4.7"/>
		<rect id="_矩形_159" x="256" y="953.7" class="st14" width="14.7" height="4.7"/>
		<rect id="_矩形_160" x="360.2" y="952.2" class="st12" width="17.3" height="13.5"/>
		<rect id="_矩形_161" x="360.2" y="925.3" class="st12" width="17.3" height="13.5"/>
		<rect id="_矩形_162" x="362.2" y="935.8" class="st13" width="13.2" height="19.5"/>
		<rect id="_矩形_163" x="361.5" y="932.6" class="st14" width="14.7" height="4.7"/>
		<rect id="_矩形_164" x="361.5" y="953.7" class="st14" width="14.7" height="4.7"/>
		<rect id="_矩形_165" x="291.8" y="911" class="st18" width="13" height="24.5"/>
		<rect id="_矩形_166" x="324.4" y="911" class="st18" width="13" height="24.5"/>
		<rect id="_矩形_167" x="308.1" y="955.5" class="st18" width="13" height="24.5"/>
		<rect id="_矩形_168" x="283.2" y="931.5" class="st19" width="62.9" height="28.7"/>
		<polyline id="_路径_11" class="st20" points="282.4,946.7 282.4,961 291.7,961 		"/>
		<polyline id="_路径_12" class="st20" points="346.7,946.7 346.7,961 337.4,961 		"/>
		<rect id="_矩形_169" x="293.1" y="920" class="st21" width="10.5" height="11.5"/>
		<rect id="_矩形_170" x="325.7" y="920" class="st21" width="10.5" height="11.5"/>
		<rect id="_矩形_171" x="309.4" y="960.2" class="st21" width="10.5" height="11.5"/>
		<rect id="_矩形_172" x="293.1" y="927.7" class="st22" width="10.5" height="1.2"/>
		<rect id="_矩形_173" x="325.7" y="927.7" class="st22" width="10.5" height="1.2"/>
		<rect id="_矩形_174" x="309.4" y="962.6" class="st22" width="10.5" height="1.2"/>
		<rect id="_矩形_175" x="180.5" y="894.3" class="st15" width="17.3" height="43.6"/>
		<rect id="_矩形_176" x="180.8" y="901.9" class="st16" width="16.7" height="29.8"/>
		<polygon id="_路径_13" class="st17" points="197.5,926.3 197.5,907.1 180.9,907.1 180.9,926.3 184.3,926.3 184.3,925.6 
			194.7,925.6 194.7,926.3 		"/>
		<rect id="_矩形_177" x="147.2" y="894.3" class="st15" width="17.3" height="43.6"/>
		<rect id="_矩形_178" x="147.6" y="901.9" class="st16" width="16.7" height="29.8"/>
		<polygon id="_路径_14" class="st17" points="164.2,926.3 164.2,907.1 147.6,907.1 147.6,926.3 151,926.3 151,925.6 161.4,925.6 
			161.4,926.3 		"/>
		<rect id="_矩形_179" x="180.5" y="983.3" class="st15" width="17.3" height="13.5"/>
		<rect id="_矩形_180" x="180.5" y="956.3" class="st15" width="17.3" height="13.5"/>
		<path id="_路径_15" class="st23" d="M184.5,992.1c0-2.6,2.1-4.7,4.7-4.7c2.6,0,4.7,2.1,4.7,4.7h2.8v-8.9h-14.9v8.9H184.5z"/>
		<path id="_路径_16" class="st23" d="M193.8,961c0,2.6-2.1,4.7-4.7,4.7c-2.6,0-4.7-2.1-4.7-4.7l0,0h-2.8v8.8h14.9V961H193.8z"/>
		<rect id="_矩形_181" x="182.5" y="966.9" class="st24" width="13.2" height="19.5"/>
		<rect id="_矩形_182" x="147.2" y="983.3" class="st15" width="17.3" height="13.5"/>
		<rect id="_矩形_183" x="147.2" y="956.3" class="st15" width="17.3" height="13.5"/>
		<path id="_路径_17" class="st23" d="M151.2,992.1c0-2.6,2.1-4.7,4.7-4.7c2.6,0,4.7,2.1,4.7,4.7h2.8v-8.9h-14.9v8.9H151.2z"/>
		<path id="_路径_18" class="st23" d="M160.6,961c0,2.6-2.1,4.7-4.7,4.7c-2.6,0-4.7-2.1-4.7-4.7l0,0h-2.8v8.8h14.9V961H160.6z"/>
		<rect id="_矩形_184" x="149.3" y="966.9" class="st24" width="13.2" height="19.5"/>
		<rect id="_矩形_185" x="479.7" y="855.7" class="st25" width="32.8" height="189.9"/>
		<polygon id="_路径_19" class="st26" points="430.1,1016.4 562.4,1016.4 562.4,905 542.4,884.9 449.9,884.9 429.6,905.2 		"/>
		<circle id="_路径_20" class="st27" cx="496" cy="950.6" r="64.2"/>
		<path id="_路径_21" class="st28" d="M432.5,959.9c5.2,35.1,37.9,59.3,73,54c27.9-4.2,49.9-26.1,54-54L432.5,959.9z"/>
		<polygon class="st28" points="512.4,921.2 499.3,921.2 495.4,921.2 479.7,921.2 475.8,921.2 475.8,925 475.8,944 479.7,944 
			479.7,925 495.4,925 495.4,944 499.3,944 499.3,925 512.4,925 512.4,944 516.3,944 516.3,925 516.3,921.2 		"/>
		<rect x="729.9" y="690.4" class="st29" width="30.8" height="44.5"/>
		<polygon class="st30" points="745.4,587.4 745.4,639.8 735.4,639.8 735.4,701 787.4,701 787.4,722.7 926,722.7 926,587.4 		"/>
		<rect x="750.4" y="559.2" class="st29" width="30.8" height="28.2"/>
		<rect x="846.1" y="559.2" class="st29" width="40.3" height="28.2"/>
		<rect x="846.1" y="722.7" class="st29" width="40.3" height="30.3"/>
		<polygon class="st31" points="805.6,587.4 805.6,606.6 766.6,606.6 766.6,700.4 805.6,700.4 805.6,722.7 883.6,722.7 883.6,698.3 
			842.3,698.3 842.3,688.2 925.6,688.2 925.6,651.3 842,651.3 842,639.8 884,639.8 884,587.4 		"/>
		<rect x="925.6" y="619.2" class="st32" width="33" height="100.5"/>
		<path class="st9" d="M875.3,563.4c-1.6,6.8-5,11.5-9,11.5s-7.4-4.7-9-11.5h-6.8v24.5h31.6v-24.5H875.3z"/>
		<path class="st9" d="M773.6,569c-1.2,5.2-3.9,8.8-7,8.8s-5.7-3.6-7-8.8h-5.2v18.9h24.5V569H773.6z"/>
		<path class="st9" d="M858.3,747.2c1.6-6.8,5-11.5,9-11.5s7.4,4.7,9,11.5h6.8v-24.5h-31.7v24.5H858.3z"/>
		<rect x="617" y="893.2" class="st29" width="37.3" height="124.9"/>
		<rect x="601.6" y="909.8" class="st27" width="66.6" height="91.7"/>
		<rect x="601.6" y="919" class="st33" width="66.6" height="53.1"/>
		<rect x="601.6" y="972.1" class="st34" width="66.6" height="8.5"/>
		<rect x="454.3" y="410.7" class="st9" width="199.5" height="189.5"/>
		<rect x="631.2" y="410.7" class="st35" width="22.5" height="189.5"/>
		<rect x="587" y="410.7" class="st35" width="22.5" height="189.5"/>
		<rect x="542.8" y="410.7" class="st35" width="22.5" height="189.5"/>
		<rect x="498.6" y="410.7" class="st35" width="22.5" height="189.5"/>
		<rect x="454.3" y="410.7" class="st35" width="22.5" height="189.5"/>
		<rect x="107.4" y="410.7" class="st9" width="199.5" height="189.5"/>
		<rect x="284.2" y="410.7" class="st35" width="22.5" height="189.5"/>
		<rect x="240" y="410.7" class="st35" width="22.5" height="189.5"/>
		<rect x="195.8" y="410.7" class="st35" width="22.5" height="189.5"/>
		<rect x="151.6" y="410.7" class="st35" width="22.5" height="189.5"/>
		<rect x="107.4" y="410.7" class="st35" width="22.5" height="189.5"/>
		<rect x="672" y="736.5" class="st36" width="12" height="12"/>
		<rect x="672" y="686.1" class="st36" width="12" height="12"/>
		<rect x="672" y="635.6" class="st36" width="12" height="12"/>
		<rect x="672" y="585.1" class="st36" width="12" height="12"/>
		<rect x="672" y="534.6" class="st36" width="12" height="12"/>
		<rect x="672" y="484.2" class="st36" width="12" height="12"/>
		<rect x="672" y="433.7" class="st36" width="12" height="12"/>
		<rect x="672" y="383.2" class="st36" width="12" height="12"/>
		<rect x="419.4" y="736.5" class="st36" width="12" height="12"/>
		<rect x="419.4" y="686.1" class="st36" width="12" height="12"/>
		<rect x="419.4" y="635.6" class="st36" width="12" height="12"/>
		<rect x="419.4" y="585.1" class="st36" width="12" height="12"/>
		<rect x="419.4" y="534.6" class="st36" width="12" height="12"/>
		<rect x="419.4" y="484.2" class="st36" width="12" height="12"/>
		<rect x="419.4" y="433.7" class="st36" width="12" height="12"/>
		<rect x="419.4" y="383.2" class="st36" width="12" height="12"/>
		<rect x="327.9" y="736.5" class="st36" width="12" height="12"/>
		<rect x="327.9" y="686.1" class="st36" width="12" height="12"/>
		<rect x="327.9" y="635.6" class="st36" width="12" height="12"/>
		<rect x="327.9" y="585.1" class="st36" width="12" height="12"/>
		<rect x="327.9" y="534.6" class="st36" width="12" height="12"/>
		<rect x="327.9" y="484.2" class="st36" width="12" height="12"/>
		<rect x="327.9" y="433.7" class="st36" width="12" height="12"/>
		<rect x="327.9" y="383.2" class="st36" width="12" height="12"/>
		<rect x="74.4" y="736.5" class="st36" width="12" height="12"/>
		<rect x="74.4" y="686.1" class="st36" width="12" height="12"/>
		<rect x="74.4" y="635.6" class="st36" width="12" height="12"/>
		<rect x="74.4" y="585.1" class="st36" width="12" height="12"/>
		<rect x="74.4" y="534.6" class="st36" width="12" height="12"/>
		<rect x="74.4" y="484.2" class="st36" width="12" height="12"/>
		<rect x="74.4" y="433.7" class="st36" width="12" height="12"/>
		<rect x="74.4" y="383.2" class="st36" width="12" height="12"/>
		<path class="st37" d="M668.1,1163.8H726l12,12v57.9l-12,12h-57.9l-12-12v-57.9L668.1,1163.8z"/>
		<circle class="st37" cx="697" cy="1204.7" r="21"/>
		<circle class="st37" cx="697" cy="1204.7" r="7.3"/>
		<circle class="st38" cx="724.1" cy="1231.8" r="3.5"/>
		<circle class="st38" cx="670" cy="1231.8" r="3.5"/>
		<circle class="st38" cx="724.1" cy="1177.7" r="3.5"/>
		<circle class="st38" cx="670" cy="1177.7" r="3.5"/>
		<rect x="583.1" y="710" class="st39" width="44.7" height="47.3"/>
		<circle class="st40" cx="605.4" cy="729" r="14.8"/>
		<circle class="st41" cx="605.4" cy="729" r="4.7"/>
		<rect x="611" y="710" class="st40" width="5.8" height="9.8"/>
		<rect x="594" y="710" class="st40" width="5.8" height="9.8"/>
		<rect x="543.6" y="709.1" class="st27" width="25.7" height="41.5"/>
		<rect x="543.6" y="713.8" class="st28" width="25.7" height="32.2"/>
		<rect x="464.9" y="709.1" class="st27" width="25.7" height="41.5"/>
		<rect x="464.9" y="713.8" class="st42" width="25.7" height="32.2"/>
		<rect x="504.2" y="709.1" class="st27" width="25.7" height="41.5"/>
		<rect x="504.2" y="713.8" class="st28" width="25.7" height="32.2"/>
		<rect x="232.5" y="710" class="st39" width="44.7" height="47.3"/>
		<circle class="st40" cx="254.9" cy="729" r="14.8"/>
		<circle class="st41" cx="254.9" cy="729" r="4.7"/>
		<rect x="260.4" y="710" class="st40" width="5.8" height="9.8"/>
		<rect x="243.5" y="710" class="st40" width="5.8" height="9.8"/>
		<rect x="193.1" y="709.1" class="st27" width="25.7" height="41.5"/>
		<rect x="193.1" y="713.8" class="st28" width="25.7" height="32.2"/>
		<rect x="114.4" y="709.1" class="st27" width="25.7" height="41.5"/>
		<rect x="114.4" y="713.8" class="st42" width="25.7" height="32.2"/>
		<rect x="153.7" y="709.1" class="st27" width="25.7" height="41.5"/>
		<rect x="153.7" y="713.8" class="st28" width="25.7" height="32.2"/>
		
			<ellipse transform="matrix(0.1602 -0.9871 0.9871 0.1602 -277.9935 1560.6578)" class="st9" cx="778.2" cy="943.7" rx="9" ry="9"/>
		<line class="st43" x1="778.2" y1="869.9" x2="778.2" y2="915.6"/>
		<polygon class="st9" points="771.4,874.5 778.2,849.2 785,874.5 		"/>
		<line class="st43" x1="778.2" y1="1017.5" x2="778.2" y2="971.8"/>
		<polygon class="st9" points="785,1012.9 778.2,1038.2 771.4,1012.9 		"/>
		<path class="st9" d="M746.4,986c0.1,5.4-4.3,9.9-9.7,10c-5.4,0.1-9.9-4.3-10-9.7s4.3-9.9,9.7-10c0,0,0.1,0,0.1,0
			c5.3-0.1,9.7,4,9.8,9.3C746.4,985.8,746.4,985.9,746.4,986z M730.9,986c0.2,3.1,2.8,5.6,6,5.4c3.1-0.2,5.6-2.8,5.4-6
			c-0.2-3-2.7-5.4-5.7-5.4c-3.2,0-5.7,2.6-5.7,5.8C730.9,985.9,730.9,986,730.9,986z"/>
		<path class="st9" d="M716.7,984.2c1.2,1.6,2.4,3.2,3.5,4.9h0c0-1.8,0-3.6,0-5.4v-7h4v18.8h-3.9l-5.6-7.6c-1.2-1.6-2.4-3.2-3.5-4.9
			h0c0,1.8,0,3.6,0,5.4v7h-4v-18.8h3.9L716.7,984.2z"/>
		<path class="st9" d="M746.4,895.5c0.1,5.4-4.3,9.9-9.7,10c-5.4,0.1-9.9-4.3-10-9.7s4.3-9.9,9.7-10c0,0,0.1,0,0.1,0
			c5.3-0.1,9.7,4,9.8,9.3C746.4,895.3,746.4,895.4,746.4,895.5z M730.9,895.5c0.2,3.1,2.8,5.6,6,5.4c3.1-0.2,5.6-2.8,5.4-6
			c-0.2-3-2.7-5.4-5.7-5.4c-3.2,0-5.7,2.6-5.7,5.8C730.9,895.4,730.9,895.5,730.9,895.5z"/>
		<path class="st9" d="M724.2,905h-11.9v-3.6h7.8v-4.1h-6.7v-3.4h6.7v-7.7h4.1V905z"/>
		<path class="st9" d="M709.5,905h-11.9v-3.6h7.8v-4.1h-6.7v-3.4h6.7v-7.7h4.1V905z"/>
		<path class="st44" d="M727.9,838.4h15c6.6,0,12,5.4,12,12v3.3c0,6.6-5.4,12-12,12h-15c-6.6,0-12-5.4-12-12v-3.3
			C715.9,843.7,721.2,838.4,727.9,838.4z"/>
		<path class="st44" d="M727.9,933h15c6.6,0,12,5.4,12,12v3.3c0,6.6-5.4,12-12,12h-15c-6.6,0-12-5.4-12-12V945
			C715.9,938.4,721.2,933,727.9,933z"/>
		<path class="st44" d="M727.9,1027.7h15c6.6,0,12,5.4,12,12v3.3c0,6.6-5.4,12-12,12h-15c-6.6,0-12-5.4-12-12v-3.3
			C715.9,1033.1,721.2,1027.7,727.9,1027.7z"/>
		<rect x="812.2" y="815.4" class="st45" width="129.5" height="262.5"/>
		<rect x="885.5" y="815.4" class="st9" width="56.7" height="262.5"/>
		<path class="st45" d="M876.8,940.6h29.8c3.4,0,6.1,2.7,6.1,6.1v0c0,3.4-2.7,6.1-6.1,6.1h-29.8c-3.4,0-6.1-2.7-6.1-6.1v0
			C870.7,943.3,873.4,940.6,876.8,940.6z"/>
		<path class="st45" d="M901.9,833.5H918c3.7,0,6.7,3,6.7,6.7v78c0,3.7-3,6.7-6.7,6.7h-16.1c-3.7,0-6.7-3-6.7-6.7v-78
			C895.2,836.5,898.2,833.5,901.9,833.5z"/>
		<path class="st45" d="M901.9,968.5H918c3.7,0,6.7,3,6.7,6.7v78c0,3.7-3,6.7-6.7,6.7h-16.1c-3.7,0-6.7-3-6.7-6.7v-78
			C895.2,971.4,898.2,968.5,901.9,968.5z"/>
		<rect x="942.2" y="907.2" class="st45" width="90.5" height="79"/>
		<rect x="730.5" y="849" class="st46" width="83.3" height="6"/>
		<rect x="730.5" y="943.7" class="st46" width="83.3" height="6"/>
		<rect x="730.5" y="1038.4" class="st46" width="83.3" height="6"/>
		<text transform="matrix(-1 0 0 -1 651.3799 196.1602)" class="st9 st47 st48">M2</text>
		<text transform="matrix(-1 0 0 -1 337.3604 196.3701)" class="st9 st47 st48">M1</text>
		<path class="st29" d="M852,507.8h-99.6c-4.7,0-8.5-3.8-8.5-8.5l0,0c0-4.7,3.8-8.5,8.5-8.5H852c4.7,0,8.5,3.8,8.5,8.5l0,0
			C860.5,504,856.7,507.8,852,507.8z"/>
		<path class="st29" d="M852,482.2h-99.6c-4.7,0-8.5-3.8-8.5-8.5l0,0c0-4.7,3.8-8.5,8.5-8.5H852c4.7,0,8.5,3.8,8.5,8.5l0,0
			C860.5,478.4,856.7,482.2,852,482.2z"/>
		<path class="st29" d="M852,456.5h-99.6c-4.7,0-8.5-3.8-8.5-8.5l0,0c0-4.7,3.8-8.5,8.5-8.5H852c4.7,0,8.5,3.8,8.5,8.5l0,0
			C860.5,452.7,856.7,456.5,852,456.5z"/>
		<rect x="757" y="443.3" class="st49" width="22.5" height="9.8"/>
		<rect x="757" y="468.7" class="st49" width="22.5" height="9.8"/>
		<rect x="757" y="494.2" class="st49" width="22.5" height="9.8"/>
		<path class="st29" d="M797.4,439.4H897c4.7,0,8.5,3.8,8.5,8.5l0,0c0,4.7-3.8,8.5-8.5,8.5h-99.6c-4.7,0-8.5-3.8-8.5-8.5l0,0
			C788.9,443.2,792.7,439.4,797.4,439.4z"/>
		<path class="st29" d="M797.4,465.1H897c4.7,0,8.5,3.8,8.5,8.5l0,0c0,4.7-3.8,8.5-8.5,8.5h-99.6c-4.7,0-8.5-3.8-8.5-8.5l0,0
			C788.9,468.9,792.7,465.1,797.4,465.1z"/>
		<path class="st29" d="M797.4,490.8H897c4.7,0,8.5,3.8,8.5,8.5l0,0c0,4.7-3.8,8.5-8.5,8.5h-99.6c-4.7,0-8.5-3.8-8.5-8.5l0,0
			C788.9,494.6,792.7,490.8,797.4,490.8z"/>
		<rect x="869.9" y="494.1" class="st49" width="22.5" height="9.8"/>
		<rect x="869.9" y="468.7" class="st49" width="22.5" height="9.8"/>
		<rect x="869.9" y="443.3" class="st49" width="22.5" height="9.8"/>
		<rect x="779.5" y="439.5" class="st50" width="90.3" height="70.3"/>
		<rect x="805.8" y="491.9" class="st51" width="30.7" height="12.9"/>
		<rect x="805.8" y="466.7" class="st51" width="30.7" height="12.9"/>
		<rect x="805.8" y="441.6" class="st51" width="30.7" height="12.9"/>
		<rect x="806" y="492.1" class="st52" width="11.6" height="12.4"/>
		<rect x="806" y="466.9" class="st52" width="11.6" height="12.4"/>
		<rect x="806" y="441.8" class="st52" width="11.6" height="12.4"/>
		<text transform="matrix(-8.979324e-11 1 -1 -8.979324e-11 783.6797 445.6798)" class="st53 st47 st54">1</text>
		<text transform="matrix(-8.979324e-11 1 -1 -8.979324e-11 855.6309 443.3204)" class="st51 st47 st55">ON</text>
		<text transform="matrix(-8.979324e-11 1 -1 -8.979324e-11 855.6309 493.4103)" class="st51 st47 st55">KE</text>
		<text transform="matrix(-8.979324e-11 1 -1 -8.979324e-11 783.6797 470.0099)" class="st53 st47 st54">2</text>
		<text transform="matrix(-8.979324e-11 1 -1 -8.979324e-11 783.6797 495.3497)" class="st53 st47 st54">3</text>
		<path class="st29" d="M852,402.9h-99.6c-4.7,0-8.5-3.8-8.5-8.5l0,0c0-4.7,3.8-8.5,8.5-8.5H852c4.7,0,8.5,3.8,8.5,8.5l0,0
			C860.5,399.1,856.7,402.9,852,402.9z"/>
		<path class="st29" d="M852,377.3h-99.6c-4.7,0-8.5-3.8-8.5-8.5l0,0c0-4.7,3.8-8.5,8.5-8.5H852c4.7,0,8.5,3.8,8.5,8.5l0,0
			C860.5,373.5,856.7,377.3,852,377.3z"/>
		<path class="st29" d="M852,351.6h-99.6c-4.7,0-8.5-3.8-8.5-8.5l0,0c0-4.7,3.8-8.5,8.5-8.5H852c4.7,0,8.5,3.8,8.5,8.5l0,0
			C860.5,347.8,856.7,351.6,852,351.6z"/>
		<rect x="757" y="338.4" class="st49" width="22.5" height="9.8"/>
		<rect x="757" y="363.9" class="st49" width="22.5" height="9.8"/>
		<rect x="757" y="389.3" class="st49" width="22.5" height="9.8"/>
		<path class="st29" d="M797.4,334.5H897c4.7,0,8.5,3.8,8.5,8.5l0,0c0,4.7-3.8,8.5-8.5,8.5h-99.6c-4.7,0-8.5-3.8-8.5-8.5l0,0
			C788.9,338.4,792.7,334.5,797.4,334.5z"/>
		<path class="st29" d="M797.4,360.2H897c4.7,0,8.5,3.8,8.5,8.5l0,0c0,4.7-3.8,8.5-8.5,8.5h-99.6c-4.7,0-8.5-3.8-8.5-8.5l0,0
			C788.9,364,792.7,360.2,797.4,360.2z"/>
		<path class="st29" d="M797.4,385.9H897c4.7,0,8.5,3.8,8.5,8.5l0,0c0,4.7-3.8,8.5-8.5,8.5h-99.6c-4.7,0-8.5-3.8-8.5-8.5l0,0
			C788.9,389.7,792.7,385.9,797.4,385.9z"/>
		<rect x="869.9" y="389.2" class="st49" width="22.5" height="9.8"/>
		<rect x="869.9" y="363.8" class="st49" width="22.5" height="9.8"/>
		<rect x="869.9" y="338.4" class="st49" width="22.5" height="9.8"/>
		<rect x="779.5" y="334.6" class="st50" width="90.3" height="70.3"/>
		<rect x="805.8" y="387" class="st51" width="30.7" height="12.9"/>
		<rect x="805.8" y="361.8" class="st51" width="30.7" height="12.9"/>
		<rect x="805.8" y="336.7" class="st51" width="30.7" height="12.9"/>
		<rect x="806" y="387.2" class="st52" width="11.6" height="12.4"/>
		<rect x="806" y="362" class="st52" width="11.6" height="12.4"/>
		<rect x="806" y="336.9" class="st52" width="11.6" height="12.4"/>
		<text transform="matrix(-8.979324e-11 1 -1 -8.979324e-11 783.6797 340.7999)" class="st53 st47 st54">1</text>
		<text transform="matrix(-8.979324e-11 1 -1 -8.979324e-11 855.6309 338.4396)" class="st51 st47 st55">ON</text>
		<text transform="matrix(-8.979324e-11 1 -1 -8.979324e-11 855.6309 388.5197)" class="st51 st47 st55">KE</text>
		<text transform="matrix(-8.979324e-11 1 -1 -8.979324e-11 783.6797 365.13)" class="st53 st47 st54">2</text>
		<text transform="matrix(-8.979324e-11 1 -1 -8.979324e-11 783.6797 390.4601)" class="st53 st47 st54">3</text>
	</g>
</g>
</svg>
