<svg xmlns="http://www.w3.org/2000/svg" viewBox="0 0 442.89 928.09"><defs><style>.cls-1{fill:#353535;}.cls-2,.cls-3{fill:none;}.cls-14,.cls-20,.cls-3,.cls-5{stroke:#fff;}.cls-11,.cls-13,.cls-14,.cls-20,.cls-3,.cls-5,.cls-8{stroke-miterlimit:10;}.cls-3{stroke-width:3.31px;}.cls-4{fill:#f2cb6b;}.cls-5{fill:#9b9b9b;}.cls-11,.cls-13,.cls-5,.cls-8{stroke-width:0.66px;}.cls-6{fill:#d2d3d3;}.cls-7{fill:#030000;}.cls-8{fill:#f99f46;stroke:#ef973f;}.cls-9{fill:#aaa;}.cls-10{fill:#bb8c27;}.cls-11{fill:#ff4a5c;stroke:#681216;}.cls-12{fill:#e7e887;}.cls-13{fill:#58b1f9;stroke:#122c4f;}.cls-14{fill:#d0ab3c;stroke-width:1.99px;}.cls-15{fill:#f0c581;}.cls-16{fill:#fff;}.cls-17{fill:#f4cb70;}.cls-18{fill:#c6c5c5;}.cls-19{fill:#c8a266;}.cls-20{fill:#e1b737;}.cls-21{fill:#222;}.cls-22{fill:#bababa;}</style></defs><title>电容触摸模块</title><g id="图层_2" data-name="图层 2"><g id="图层_1-2" data-name="图层 1"><path id="_复合路径_" data-name="&lt;复合路径&gt;" class="cls-1" d="M385,0h-327A57.92,57.92,0,0,0,0,57.92V870.17a57.92,57.92,0,0,0,57.92,57.92H385a57.92,57.92,0,0,0,57.92-57.92V57.92A57.92,57.92,0,0,0,385,0Zm13.12,549.87a6.37,6.37,0,1,1,0,9A6.37,6.37,0,0,1,398.09,549.87Zm-21.15-12.49a6.37,6.37,0,1,1-6.37,6.37A6.37,6.37,0,0,1,376.94,537.38Zm-30.15,12.49a6.37,6.37,0,1,1,0,9A6.37,6.37,0,0,1,346.79,549.87Zm-259.7,0a6.37,6.37,0,1,1,0,9A6.37,6.37,0,0,1,87.09,549.87ZM65.94,537.38a6.37,6.37,0,1,1-6.37,6.37A6.37,6.37,0,0,1,65.94,537.38ZM35.79,549.87a6.37,6.37,0,1,1,0,9A6.37,6.37,0,0,1,35.79,549.87ZM23.3,580a6.37,6.37,0,1,1,6.37,6.37A6.37,6.37,0,0,1,23.3,580Zm21.5,30.15a6.37,6.37,0,1,1,0-9A6.37,6.37,0,0,1,44.8,610.17Zm21.15,12.49a6.37,6.37,0,1,1,6.37-6.37A6.37,6.37,0,0,1,65.94,622.66Zm0-17A25.65,25.65,0,1,1,91.59,580,25.65,25.65,0,0,1,65.94,605.67Zm30.15,4.5a6.37,6.37,0,1,1,0-9A6.37,6.37,0,0,1,96.1,610.17Zm6.12-23.78a6.37,6.37,0,1,1,6.37-6.37A6.37,6.37,0,0,1,102.22,586.39ZM334.3,580a6.37,6.37,0,1,1,6.37,6.37A6.37,6.37,0,0,1,334.3,580Zm21.5,30.15a6.37,6.37,0,1,1,0-9A6.37,6.37,0,0,1,355.8,610.17Zm21.15,12.49a6.37,6.37,0,1,1,6.37-6.37A6.37,6.37,0,0,1,376.94,622.66Zm0-17A25.65,25.65,0,1,1,402.59,580,25.65,25.65,0,0,1,376.94,605.67Zm30.15,4.5a6.37,6.37,0,1,1,0-9A6.37,6.37,0,0,1,407.1,610.17Zm6.12-23.78a6.37,6.37,0,1,1,6.37-6.37A6.37,6.37,0,0,1,413.22,586.39Z"/><circle id="_路径_" data-name="&lt;路径&gt;" class="cls-2" cx="65.94" cy="580.02" r="24.19"/><circle id="_路径_2" data-name="&lt;路径&gt;" class="cls-3" cx="65.94" cy="580.02" r="48.21"/><circle id="_路径_3" data-name="&lt;路径&gt;" class="cls-3" cx="376.94" cy="580.02" r="48.21"/><path id="_复合路径_2" data-name="&lt;复合路径&gt;" class="cls-4" d="M376.94,531.66A48.37,48.37,0,1,0,425.31,580,48.42,48.42,0,0,0,376.94,531.66Zm21.15,18.21a6.37,6.37,0,1,1,0,9A6.37,6.37,0,0,1,398.09,549.87Zm-21.15-12.49a6.37,6.37,0,1,1-6.37,6.37A6.37,6.37,0,0,1,376.94,537.38Zm-30.15,12.49a6.37,6.37,0,1,1,0,9A6.37,6.37,0,0,1,346.79,549.87Zm-6.12,36.52A6.37,6.37,0,1,1,347,580,6.37,6.37,0,0,1,340.67,586.39Zm15.13,23.78a6.37,6.37,0,1,1,0-9A6.37,6.37,0,0,1,355.8,610.17Zm21.15,12.49a6.37,6.37,0,1,1,6.37-6.37A6.37,6.37,0,0,1,376.94,622.66Zm0-18.46A24.18,24.18,0,1,1,401.13,580,24.21,24.21,0,0,1,376.94,604.2Zm30.15,6a6.37,6.37,0,1,1,0-9A6.37,6.37,0,0,1,407.1,610.17Zm6.12-23.78a6.37,6.37,0,1,1,6.37-6.37A6.37,6.37,0,0,1,413.22,586.39Z"/><path id="_复合路径_3" data-name="&lt;复合路径&gt;" class="cls-4" d="M65.94,531.66A48.37,48.37,0,1,0,114.31,580,48.42,48.42,0,0,0,65.94,531.66Zm21.15,18.21a6.37,6.37,0,1,1,0,9A6.37,6.37,0,0,1,87.09,549.87ZM65.94,537.38a6.37,6.37,0,1,1-6.37,6.37A6.37,6.37,0,0,1,65.94,537.38ZM35.79,549.87a6.37,6.37,0,1,1,0,9A6.37,6.37,0,0,1,35.79,549.87Zm-6.12,36.52A6.37,6.37,0,1,1,36,580,6.37,6.37,0,0,1,29.67,586.39ZM44.8,610.17a6.37,6.37,0,1,1,0-9A6.37,6.37,0,0,1,44.8,610.17Zm21.15,12.49a6.37,6.37,0,1,1,6.37-6.37A6.37,6.37,0,0,1,65.94,622.66Zm0-18.46A24.18,24.18,0,1,1,90.13,580,24.21,24.21,0,0,1,65.94,604.2Zm30.15,6a6.37,6.37,0,1,1,0-9A6.37,6.37,0,0,1,96.1,610.17Zm6.12-23.78a6.37,6.37,0,1,1,6.37-6.37A6.37,6.37,0,0,1,102.22,586.39Z"/><g id="_编组_" data-name="&lt;编组&gt;"><rect id="_矩形_" data-name="&lt;矩形&gt;" class="cls-5" x="38.49" y="665.98" width="17.32" height="43.57"/><rect id="_矩形_2" data-name="&lt;矩形&gt;" class="cls-6" x="38.79" y="672.22" width="16.71" height="29.78"/><polygon id="_路径_4" data-name="&lt;路径&gt;" class="cls-7" points="38.85 677.59 38.85 696.78 55.44 696.78 55.44 677.59 52.05 677.59 52.05 678.29 41.67 678.29 41.67 677.59 38.85 677.59"/></g><g id="_编组_2" data-name="&lt;编组&gt;"><rect id="_矩形_3" data-name="&lt;矩形&gt;" class="cls-5" x="66.5" y="665.98" width="17.32" height="43.57"/><rect id="_矩形_4" data-name="&lt;矩形&gt;" class="cls-6" x="66.81" y="672.22" width="16.71" height="29.78"/><polygon id="_路径_5" data-name="&lt;路径&gt;" class="cls-7" points="66.87 677.59 66.87 696.78 83.45 696.78 83.45 677.59 80.06 677.59 80.06 678.29 69.68 678.29 69.68 677.59 66.87 677.59"/></g><g id="_编组_3" data-name="&lt;编组&gt;"><rect id="_矩形_5" data-name="&lt;矩形&gt;" class="cls-5" x="199.94" y="459.71" width="17.32" height="13.51" transform="translate(417.2 932.92) rotate(180)"/><rect id="_矩形_6" data-name="&lt;矩形&gt;" class="cls-5" x="199.94" y="432.79" width="17.32" height="13.51" transform="translate(417.2 879.1) rotate(180)"/><g id="_编组_4" data-name="&lt;编组&gt;"><rect id="_矩形_7" data-name="&lt;矩形&gt;" class="cls-8" x="201.98" y="443.33" width="13.24" height="19.47" transform="translate(417.2 906.12) rotate(180)"/></g><rect id="_矩形_8" data-name="&lt;矩形&gt;" class="cls-9" x="206.25" y="435.17" width="4.74" height="14.67" transform="translate(651.13 233.88) rotate(90)"/><rect id="_矩形_9" data-name="&lt;矩形&gt;" class="cls-9" x="206.25" y="456.23" width="4.74" height="14.67" transform="translate(672.2 254.94) rotate(90)"/></g><g id="_编组_5" data-name="&lt;编组&gt;"><rect id="_矩形_10" data-name="&lt;矩形&gt;" class="cls-5" x="174.24" y="459.71" width="17.32" height="13.51" transform="translate(365.81 932.92) rotate(180)"/><rect id="_矩形_11" data-name="&lt;矩形&gt;" class="cls-5" x="174.24" y="432.79" width="17.32" height="13.51" transform="translate(365.81 879.1) rotate(180)"/><g id="_编组_6" data-name="&lt;编组&gt;"><rect id="_矩形_12" data-name="&lt;矩形&gt;" class="cls-8" x="176.29" y="443.33" width="13.24" height="19.47" transform="translate(365.81 906.12) rotate(180)"/></g><rect id="_矩形_13" data-name="&lt;矩形&gt;" class="cls-9" x="180.56" y="435.17" width="4.74" height="14.67" transform="translate(625.43 259.57) rotate(90)"/><rect id="_矩形_14" data-name="&lt;矩形&gt;" class="cls-9" x="180.56" y="456.23" width="4.74" height="14.67" transform="translate(646.5 280.64) rotate(90)"/></g><g id="_编组_7" data-name="&lt;编组&gt;"><rect id="_矩形_15" data-name="&lt;矩形&gt;" class="cls-5" x="225.64" y="431.56" width="17.32" height="43.57" transform="translate(468.59 906.68) rotate(180)"/><rect id="_矩形_16" data-name="&lt;矩形&gt;" class="cls-6" x="225.94" y="439.11" width="16.71" height="29.78" transform="translate(468.59 908.01) rotate(180)"/><polygon id="_路径_6" data-name="&lt;路径&gt;" class="cls-7" points="242.59 463.52 242.59 444.32 226 444.32 226 463.52 229.39 463.52 229.39 462.81 239.77 462.81 239.77 463.52 242.59 463.52"/></g><g id="_编组_8" data-name="&lt;编组&gt;"><rect id="_矩形_17" data-name="&lt;矩形&gt;" class="cls-5" x="251.33" y="431.56" width="17.32" height="43.57" transform="translate(519.98 906.68) rotate(180)"/><rect id="_矩形_18" data-name="&lt;矩形&gt;" class="cls-6" x="251.63" y="439.11" width="16.71" height="29.78" transform="translate(519.98 908.01) rotate(180)"/><polygon id="_路径_7" data-name="&lt;路径&gt;" class="cls-7" points="268.28 463.52 268.28 444.32 251.7 444.32 251.7 463.52 255.09 463.52 255.09 462.81 265.47 462.81 265.47 463.52 268.28 463.52"/></g><g id="_编组_9" data-name="&lt;编组&gt;"><rect id="_矩形_19" data-name="&lt;矩形&gt;" class="cls-5" x="38.49" y="717.68" width="17.32" height="13.51"/><rect id="_矩形_20" data-name="&lt;矩形&gt;" class="cls-5" x="38.49" y="744.59" width="17.32" height="13.51"/><g id="_编组_10" data-name="&lt;编组&gt;"><path id="_路径_8" data-name="&lt;路径&gt;" class="cls-10" d="M51.81,722.34a4.66,4.66,0,1,1-9.32,0H39.7v8.85H54.59v-8.85Z"/><path id="_路径_9" data-name="&lt;路径&gt;" class="cls-10" d="M42.49,753.44a4.66,4.66,0,1,1,9.32,0h2.79v-8.85H39.7v8.85Z"/><rect id="_矩形_21" data-name="&lt;矩形&gt;" class="cls-11" x="40.53" y="728.1" width="13.24" height="19.47"/></g></g><g id="_编组_11" data-name="&lt;编组&gt;"><rect id="_矩形_22" data-name="&lt;矩形&gt;" class="cls-5" x="66.5" y="717.68" width="17.32" height="13.51"/><rect id="_矩形_23" data-name="&lt;矩形&gt;" class="cls-5" x="66.5" y="744.59" width="17.32" height="13.51"/><path id="_路径_10" data-name="&lt;路径&gt;" class="cls-12" d="M79.82,722.34a4.66,4.66,0,1,1-9.32,0H67.72v8.85H82.61v-8.85Z"/><path id="_路径_11" data-name="&lt;路径&gt;" class="cls-12" d="M70.5,753.44a4.66,4.66,0,1,1,9.32,0h2.79v-8.85H67.72v8.85Z"/><rect id="_矩形_24" data-name="&lt;矩形&gt;" class="cls-13" x="68.54" y="728.1" width="13.24" height="19.47"/></g><g id="_编组_12" data-name="&lt;编组&gt;"><g id="_编组_13" data-name="&lt;编组&gt;"><rect id="_矩形_25" data-name="&lt;矩形&gt;" class="cls-14" x="172.7" y="762.05" width="18.53" height="56.47"/><rect id="_矩形_26" data-name="&lt;矩形&gt;" class="cls-15" x="176.83" y="767.06" width="10.26" height="52.94" rx="5.13" ry="5.13"/></g><g id="_编组_14" data-name="&lt;编组&gt;"><rect id="_矩形_27" data-name="&lt;矩形&gt;" class="cls-14" x="212.18" y="762.05" width="18.53" height="56.47"/><rect id="_矩形_28" data-name="&lt;矩形&gt;" class="cls-15" x="216.32" y="767.06" width="10.26" height="52.94" rx="5.13" ry="5.13"/></g><g id="_编组_15" data-name="&lt;编组&gt;"><rect id="_矩形_29" data-name="&lt;矩形&gt;" class="cls-14" x="251.67" y="762.05" width="18.53" height="56.47"/><rect id="_矩形_30" data-name="&lt;矩形&gt;" class="cls-15" x="255.8" y="767.06" width="10.26" height="52.94" rx="5.13" ry="5.13"/></g><rect id="_矩形_31" data-name="&lt;矩形&gt;" class="cls-16" x="124.83" y="809.75" width="193.24" height="114.27"/><rect id="_矩形_32" data-name="&lt;矩形&gt;" class="cls-17" x="176.83" y="831.15" width="10.26" height="71.47"/><rect id="_矩形_33" data-name="&lt;矩形&gt;" class="cls-17" x="255.8" y="831.15" width="10.26" height="71.47"/><rect id="_矩形_34" data-name="&lt;矩形&gt;" class="cls-18" x="124.83" y="777.32" width="18.53" height="32.43"/><rect id="_矩形_35" data-name="&lt;矩形&gt;" class="cls-18" x="299.53" y="777.32" width="18.53" height="32.43"/><rect id="_矩形_36" data-name="&lt;矩形&gt;" class="cls-18" x="159.24" y="924.01" width="124.41" height="4.08" rx="2.04" ry="2.04"/><rect id="_矩形_37" data-name="&lt;矩形&gt;" class="cls-19" x="176.83" y="790.14" width="10.26" height="6.78"/><rect id="_矩形_38" data-name="&lt;矩形&gt;" class="cls-19" x="216.32" y="790.14" width="10.26" height="6.78"/><rect id="_矩形_39" data-name="&lt;矩形&gt;" class="cls-19" x="255.8" y="790.14" width="10.26" height="6.78"/></g><g id="_编组_16" data-name="&lt;编组&gt;"><path id="_复合路径_4" data-name="&lt;复合路径&gt;" class="cls-16" d="M173.64,739.68c0-5,4-7.42,8.5-7.42s8.53,2.3,8.53,7.42c0,5-4.14,7.37-8.53,7.37S173.64,744.67,173.64,739.68Zm15.46,0c0-3.85-3.21-5.71-7-5.71s-7,2-7,5.71,3.26,5.67,7,5.67S189.09,743.38,189.09,739.68Z"/><path id="_复合路径_5" data-name="&lt;复合路径&gt;" class="cls-16" d="M174,727.62h9.85c3.14,0,5.2-1.48,5.2-4.63,0-3-1.93-4.56-5.2-4.56H174v-1.71H184c4.5,0,6.69,2.52,6.69,6.27s-2.21,6.33-6.69,6.33H174Z"/><path id="_复合路径_6" data-name="&lt;复合路径&gt;" class="cls-16" d="M174,702.73h1.53v5.16h14.68v1.71H175.56v5.14H174Z"/></g><g id="_编组_17" data-name="&lt;编组&gt;"><path id="_复合路径_7" data-name="&lt;复合路径&gt;" class="cls-16" d="M213.33,745.32l14-5v0l-14-5v-1.88l16.21,5.91v1.95l-16.21,5.87Z"/><path id="_复合路径_8" data-name="&lt;复合路径&gt;" class="cls-16" d="M212.93,725c0-3.68,2.06-5.69,4.23-6.42l.29,1.75a4.67,4.67,0,0,0-3,4.67c0,3.28,2.3,5.45,7,5.45,4.25,0,7-2.21,7-5.45a4.82,4.82,0,0,0-3.21-4.87l.27-1.68A6.42,6.42,0,0,1,230,725c0,4.69-3.79,7.15-8.55,7.15S212.93,730,212.93,725Z"/><path id="_复合路径_9" data-name="&lt;复合路径&gt;" class="cls-16" d="M212.93,709.18c0-3.68,2.06-5.69,4.23-6.42l.29,1.75a4.67,4.67,0,0,0-3,4.67c0,3.28,2.3,5.45,7,5.45,4.25,0,7-2.21,7-5.45a4.82,4.82,0,0,0-3.21-4.87l.27-1.68a6.42,6.42,0,0,1,4.52,6.55c0,4.69-3.79,7.15-8.55,7.15S212.93,714.25,212.93,709.18Z"/></g><g id="_编组_18" data-name="&lt;编组&gt;"><path id="_复合路径_10" data-name="&lt;复合路径&gt;" class="cls-16" d="M252.42,741.4c0-4.1,2.35-5.6,4.47-6.51l.29,1.79a4.77,4.77,0,0,0-3.23,4.72c0,3.34,2.86,5.71,7,5.71,4.25,0,7-2.46,7-5.49a5.57,5.57,0,0,0-4.19-5.31h-1.75v4.94h-1.55v-6.67H269v1.55H265.7a6.14,6.14,0,0,1,3.74,5.69c0,3.61-3.08,7-8.55,7C255.83,748.82,252.42,745.78,252.42,741.4Z"/><path id="_复合路径_11" data-name="&lt;复合路径&gt;" class="cls-16" d="M252.82,729.07l13.46-9.48v0H252.82v-1.71H269v1.79l-13.46,9.43,0,0H269v1.73H252.82Z"/><path id="_复合路径_12" data-name="&lt;复合路径&gt;" class="cls-16" d="M252.82,708.14c0-5.29,4.19-7.17,8.08-7.17,4.65,0,8.13,2.3,8.13,7.48V714H252.82Zm14.68,4.16v-3.9c0-3.23-2.15-5.74-6.6-5.74-3.08,0-6.55,1.51-6.55,5.78v3.85Z"/></g><path id="_路径_12" data-name="&lt;路径&gt;" class="cls-16" d="M270.17,218.19a6.49,6.49,0,0,1,5.06,2.41A50.88,50.88,0,1,1,186.09,241a6.51,6.51,0,1,1,12.67,3,37.89,37.89,0,1,0,74.77,8.66,37.46,37.46,0,0,0-8.41-23.81,6.51,6.51,0,0,1,5.05-10.6Z"/><path id="_路径_13" data-name="&lt;路径&gt;" class="cls-16" d="M294.95,207a6.5,6.5,0,0,1,5.44,2.92,77.53,77.53,0,1,1-142.26,42.67,6.51,6.51,0,0,1,13,0,64.51,64.51,0,1,0,118.39-35.5A6.51,6.51,0,0,1,294.95,207Z"/><g id="_编组_19" data-name="&lt;编组&gt;"><path id="_路径_14" data-name="&lt;路径&gt;" class="cls-16" d="M249.85,143.66a6.51,6.51,0,0,1,6.51,6.51V252.59a20.71,20.71,0,0,1-41.42,0V187.64a6.51,6.51,0,0,1,13,0v64.95a7.7,7.7,0,0,0,15.39,0V150.17A6.51,6.51,0,0,1,249.85,143.66Z"/></g><path id="_路径_15" data-name="&lt;路径&gt;" class="cls-16" d="M193,176.77a6.51,6.51,0,0,1,6.51,6.51v25.37a7.7,7.7,0,0,0,15.39,0V183.28a6.51,6.51,0,0,1,13,0v25.37a20.71,20.71,0,0,1-41.42,0V183.28A6.51,6.51,0,0,1,193,176.77Z"/><path id="_路径_16" data-name="&lt;路径&gt;" class="cls-16" d="M193,176.77a6.51,6.51,0,0,1,6.51,6.51V202.4a20.71,20.71,0,0,1-41.42,0V185.8a6.51,6.51,0,1,1,13,0v16.6a7.7,7.7,0,0,0,15.39,0V183.28A6.51,6.51,0,0,1,193,176.77Z"/><path id="_路径_17" data-name="&lt;路径&gt;" class="cls-16" d="M144.29,66.11a6.67,6.67,0,0,1,1.32.13,6.51,6.51,0,0,1,5.06,7.69l-7.94,38.62v81.73a7.7,7.7,0,0,0,15.39,0V180.59a6.51,6.51,0,1,1,13,0v13.68a20.71,20.71,0,0,1-41.42,0V111.22l8.21-39.91A6.51,6.51,0,0,1,144.29,66.11Z"/><path id="_路径_18" data-name="&lt;路径&gt;" class="cls-16" d="M251.85,66.11A6.5,6.5,0,0,1,257.24,69L285,109.88V171.6a20.71,20.71,0,0,1-41.42,0V134.79a6.51,6.51,0,0,1,13,0V171.6a7.7,7.7,0,0,0,15.39,0V113.88L246.47,76.27a6.51,6.51,0,0,1,5.38-10.16Z"/><path id="_路径_19" data-name="&lt;路径&gt;" class="cls-16" d="M356.32,833.94a2.52,2.52,0,0,1-2-.94A19.79,19.79,0,1,1,389,825.07a2.53,2.53,0,0,1-4.93-1.15A14.74,14.74,0,1,0,355,820.55a14.57,14.57,0,0,0,3.27,9.26,2.53,2.53,0,0,1-2,4.12Z"/><path id="_路径_20" data-name="&lt;路径&gt;" class="cls-16" d="M346.68,838.29a2.53,2.53,0,0,1-2.11-1.14,30.16,30.16,0,1,1,55.34-16.6,2.53,2.53,0,0,1-5.06,0,25.09,25.09,0,1,0-46.05,13.81,2.53,2.53,0,0,1-2.11,3.93Z"/><g id="_编组_20" data-name="&lt;编组&gt;"><path id="_路径_21" data-name="&lt;路径&gt;" class="cls-16" d="M364.22,862.93a2.53,2.53,0,0,1-2.53-2.53V820.55a8.06,8.06,0,0,1,16.11,0v25.26a2.53,2.53,0,0,1-5.06,0V820.55a3,3,0,0,0-6,0v39.84A2.53,2.53,0,0,1,364.22,862.93Z"/></g><path id="_路径_22" data-name="&lt;路径&gt;" class="cls-16" d="M386.32,850a2.53,2.53,0,0,1-2.53-2.53v-9.87a3,3,0,0,0-6,0v9.87a2.53,2.53,0,0,1-5.06,0v-9.87a8.06,8.06,0,0,1,16.11,0v9.87A2.53,2.53,0,0,1,386.32,850Z"/><path id="_路径_23" data-name="&lt;路径&gt;" class="cls-16" d="M386.32,850a2.53,2.53,0,0,1-2.53-2.53v-7.44a8.06,8.06,0,0,1,16.11,0v6.46a2.53,2.53,0,0,1-5.06,0v-6.46a3,3,0,0,0-6,0v7.44A2.53,2.53,0,0,1,386.32,850Z"/><path id="_路径_24" data-name="&lt;路径&gt;" class="cls-16" d="M405.28,893.09a2.6,2.6,0,0,1-.51-.05,2.53,2.53,0,0,1-2-3l3.09-15V843.24a3,3,0,0,0-6,0v5.32a2.53,2.53,0,1,1-5.06,0v-5.32a8.06,8.06,0,0,1,16.11,0v32.31l-3.19,15.53A2.53,2.53,0,0,1,405.28,893.09Z"/><path id="_路径_25" data-name="&lt;路径&gt;" class="cls-16" d="M363.44,893.09a2.53,2.53,0,0,1-2.1-1.11l-10.8-15.92v-24a8.06,8.06,0,0,1,16.11,0v14.32a2.53,2.53,0,0,1-5.06,0V852.06a3,3,0,0,0-6,0v22.45l9.93,14.63a2.53,2.53,0,0,1-2.09,4Z"/><rect class="cls-20" x="196.7" y="533.8" width="13.5" height="67.38"/><rect class="cls-20" x="214.7" y="533.8" width="13.5" height="67.38"/><rect class="cls-20" x="232.7" y="533.8" width="13.5" height="67.38"/><rect class="cls-21" x="194.76" y="552.55" width="53.38" height="29.25"/><rect class="cls-22" x="200.15" y="540.88" width="6.58" height="11.67"/><rect class="cls-22" x="200.15" y="581.8" width="6.58" height="11.67"/><rect class="cls-22" x="218.15" y="540.88" width="6.58" height="11.67"/><rect class="cls-22" x="218.15" y="581.8" width="6.58" height="11.67"/><rect class="cls-22" x="236.15" y="540.88" width="6.58" height="11.67"/><rect class="cls-22" x="236.15" y="581.8" width="6.58" height="11.67"/></g></g></svg>