<svg xmlns="http://www.w3.org/2000/svg" xmlns:xlink="http://www.w3.org/1999/xlink" viewBox="0 0 928.1 442.89"><defs><style>.cls-1{fill:#353535;}.cls-2{fill:#f2cb6b;}.cls-3{fill:none;stroke-miterlimit:10;stroke-width:3.31px;}.cls-3,.cls-4{stroke:#fff;}.cls-4{fill:#5b5b5b;stroke-linecap:round;stroke-linejoin:round;stroke-width:6.62px;}.cls-5{fill:url(#未命名的渐变_28);}.cls-6{fill:url(#未命名的渐变_45);}.cls-7{fill:url(#未命名的渐变_28-2);}.cls-8{fill:url(#未命名的渐变_45-2);}.cls-9{fill:url(#未命名的渐变_28-3);}.cls-10{fill:url(#未命名的渐变_45-3);}.cls-11{fill:url(#未命名的渐变_28-4);}.cls-12{fill:url(#未命名的渐变_45-4);}</style><radialGradient id="未命名的渐变_28" cx="177.5" cy="177.44" r="29.12" gradientUnits="userSpaceOnUse"><stop offset="0" stop-color="#efefef"/><stop offset="0.15" stop-color="#d6d6d6"/><stop offset="0.37" stop-color="#bababa"/><stop offset="0.58" stop-color="#a5a5a5"/><stop offset="0.79" stop-color="#999"/><stop offset="1" stop-color="#959595"/></radialGradient><radialGradient id="未命名的渐变_45" cx="178.16" cy="244.17" r="30.72" gradientUnits="userSpaceOnUse"><stop offset="0" stop-color="#3267ff"/><stop offset="0.04" stop-color="#2e63fa"/><stop offset="0.28" stop-color="#1a4fde"/><stop offset="0.52" stop-color="#0c41c9"/><stop offset="0.76" stop-color="#0338bd"/><stop offset="1" stop-color="#0035b9"/></radialGradient><radialGradient id="未命名的渐变_28-2" cx="365.44" cy="177.44" r="29.12" xlink:href="#未命名的渐变_28"/><radialGradient id="未命名的渐变_45-2" cx="366.11" cy="244.17" r="30.72" xlink:href="#未命名的渐变_45"/><radialGradient id="未命名的渐变_28-3" cx="553.39" cy="182.29" r="29.12" xlink:href="#未命名的渐变_28"/><radialGradient id="未命名的渐变_45-3" cx="554.05" cy="249.02" r="30.72" xlink:href="#未命名的渐变_45"/><radialGradient id="未命名的渐变_28-4" cx="741.33" cy="182.29" r="29.12" xlink:href="#未命名的渐变_28"/><radialGradient id="未命名的渐变_45-4" cx="741.99" cy="249.02" r="30.72" xlink:href="#未命名的渐变_45"/></defs><title>巡线阵列</title><g id="图层_2" data-name="图层 2"><g id="图层_1-2" data-name="图层 1"><path class="cls-1" d="M870.17,0H57.92A57.92,57.92,0,0,0,0,57.92V385a57.92,57.92,0,0,0,57.92,57.92H870.17A57.92,57.92,0,0,0,928.1,385v-327A57.92,57.92,0,0,0,870.17,0ZM64.81,424.72a48.37,48.37,0,1,1,48.37-48.37A48.42,48.42,0,0,1,64.81,424.72Zm1.65-311a48.37,48.37,0,1,1,48.37-48.37A48.42,48.42,0,0,1,66.47,113.69Zm796.5,309a48.37,48.37,0,1,1,48.37-48.37A48.42,48.42,0,0,1,863,422.65Zm0-311a48.37,48.37,0,1,1,48.37-48.37A48.42,48.42,0,0,1,863,111.62Z"/><path class="cls-2" d="M66.47,17a48.37,48.37,0,1,0,48.37,48.37A48.42,48.42,0,0,0,66.47,17ZM87.61,35.17a6.37,6.37,0,1,1,0,9A6.37,6.37,0,0,1,87.61,35.17ZM66.47,22.68A6.37,6.37,0,1,1,60.1,29,6.37,6.37,0,0,1,66.47,22.68ZM36.31,35.17a6.37,6.37,0,1,1,0,9A6.37,6.37,0,0,1,36.31,35.17ZM30.19,71.69a6.37,6.37,0,1,1,6.37-6.37A6.37,6.37,0,0,1,30.19,71.69ZM45.32,95.48a6.37,6.37,0,1,1,0-9A6.37,6.37,0,0,1,45.32,95.48ZM66.47,108a6.37,6.37,0,1,1,6.37-6.37A6.37,6.37,0,0,1,66.47,108Zm0-18.46A24.18,24.18,0,1,1,90.65,65.32,24.21,24.21,0,0,1,66.47,89.5Zm30.15,6a6.37,6.37,0,1,1,0-9A6.37,6.37,0,0,1,96.62,95.48Zm12.49-30.15A6.37,6.37,0,1,1,102.74,59,6.37,6.37,0,0,1,109.11,65.32Z"/><path class="cls-2" d="M863,14.89a48.37,48.37,0,1,0,48.37,48.37A48.42,48.42,0,0,0,863,14.89ZM884.12,33.1a6.37,6.37,0,1,1,0,9A6.37,6.37,0,0,1,884.12,33.1ZM863,20.61A6.37,6.37,0,1,1,856.6,27,6.37,6.37,0,0,1,863,20.61ZM832.82,33.1a6.37,6.37,0,1,1,0,9A6.37,6.37,0,0,1,832.82,33.1ZM826.7,69.62a6.37,6.37,0,1,1,6.37-6.37A6.37,6.37,0,0,1,826.7,69.62Zm15.13,23.78a6.37,6.37,0,1,1,0-9A6.37,6.37,0,0,1,841.82,93.41ZM863,105.9a6.37,6.37,0,1,1,6.37-6.37A6.37,6.37,0,0,1,863,105.9Zm0-18.46a24.18,24.18,0,1,1,24.18-24.18A24.21,24.21,0,0,1,863,87.44Zm30.15,6a6.37,6.37,0,1,1,0-9A6.37,6.37,0,0,1,893.12,93.41Zm12.49-30.15a6.37,6.37,0,1,1-6.37-6.37A6.37,6.37,0,0,1,905.61,63.25Z"/><path class="cls-2" d="M64.81,328a48.37,48.37,0,1,0,48.37,48.37A48.42,48.42,0,0,0,64.81,328ZM86,346.2a6.37,6.37,0,1,1,0,9A6.37,6.37,0,0,1,86,346.2ZM64.81,333.71a6.37,6.37,0,1,1-6.37,6.37A6.37,6.37,0,0,1,64.81,333.71ZM34.66,346.2a6.37,6.37,0,1,1,0,9A6.37,6.37,0,0,1,34.66,346.2Zm-6.12,36.52a6.37,6.37,0,1,1,6.37-6.37A6.37,6.37,0,0,1,28.54,382.72Zm15.13,23.78a6.37,6.37,0,1,1,0-9A6.37,6.37,0,0,1,43.67,406.51ZM64.81,419a6.37,6.37,0,1,1,6.37-6.37A6.37,6.37,0,0,1,64.81,419Zm0-18.46A24.18,24.18,0,1,1,89,376.35,24.21,24.21,0,0,1,64.81,400.54Zm30.15,6a6.37,6.37,0,1,1,0-9A6.37,6.37,0,0,1,95,406.51Zm12.49-30.15a6.37,6.37,0,1,1-6.37-6.37A6.37,6.37,0,0,1,107.45,376.35Z"/><path class="cls-2" d="M863,325.92a48.37,48.37,0,1,0,48.37,48.37A48.42,48.42,0,0,0,863,325.92Zm21.15,18.21a6.37,6.37,0,1,1,0,9A6.37,6.37,0,0,1,884.12,344.13ZM863,331.64A6.37,6.37,0,1,1,856.6,338,6.37,6.37,0,0,1,863,331.64Zm-30.15,12.49a6.37,6.37,0,1,1,0,9A6.37,6.37,0,0,1,832.82,344.13Zm-6.12,36.52a6.37,6.37,0,1,1,6.37-6.37A6.37,6.37,0,0,1,826.7,380.65Zm15.13,23.78a6.37,6.37,0,1,1,0-9A6.37,6.37,0,0,1,841.82,404.44ZM863,416.93a6.37,6.37,0,1,1,6.37-6.37A6.37,6.37,0,0,1,863,416.93Zm0-18.46a24.18,24.18,0,1,1,24.18-24.18A24.21,24.21,0,0,1,863,398.47Zm30.15,6a6.37,6.37,0,1,1,0-9A6.37,6.37,0,0,1,893.12,404.44Zm12.49-30.15a6.37,6.37,0,1,1-6.37-6.37A6.37,6.37,0,0,1,905.61,374.29Z"/><circle id="_路径_" data-name="&lt;路径&gt;" class="cls-3" cx="66.47" cy="65.32" r="48.21"/><circle id="_路径_2" data-name="&lt;路径&gt;" class="cls-3" cx="862.97" cy="63.25" r="48.21"/><circle id="_路径_3" data-name="&lt;路径&gt;" class="cls-3" cx="64.81" cy="376.35" r="48.21"/><circle id="_路径_4" data-name="&lt;路径&gt;" class="cls-3" cx="862.97" cy="374.29" r="48.21"/><g id="_编组_" data-name="&lt;编组&gt;"><g id="_编组_2" data-name="&lt;编组&gt;"><polygon id="_路径_5" data-name="&lt;路径&gt;" class="cls-4" points="206.4 317.73 157.87 317.73 125.3 285.16 125.3 120.31 238.97 120.31 238.97 285.16 206.4 317.73"/><g id="_编组_3" data-name="&lt;编组&gt;"><circle id="_路径_6" data-name="&lt;路径&gt;" class="cls-5" cx="182.13" cy="185.05" r="29.12"/><circle id="_路径_7" data-name="&lt;路径&gt;" class="cls-6" cx="182.13" cy="252.99" r="29.12"/></g></g><g id="_编组_4" data-name="&lt;编组&gt;"><polygon id="_路径_8" data-name="&lt;路径&gt;" class="cls-4" points="394.34 317.73 345.81 317.73 313.24 285.16 313.24 120.31 426.91 120.31 426.91 285.16 394.34 317.73"/><g id="_编组_5" data-name="&lt;编组&gt;"><circle id="_路径_9" data-name="&lt;路径&gt;" class="cls-7" cx="370.08" cy="185.05" r="29.12"/><circle id="_路径_10" data-name="&lt;路径&gt;" class="cls-8" cx="370.08" cy="252.99" r="29.12"/></g></g><g id="_编组_6" data-name="&lt;编组&gt;"><polygon id="_路径_11" data-name="&lt;路径&gt;" class="cls-4" points="582.28 322.59 533.75 322.59 501.18 290.01 501.18 125.16 614.86 125.16 614.86 290.01 582.28 322.59"/><g id="_编组_7" data-name="&lt;编组&gt;"><circle id="_路径_12" data-name="&lt;路径&gt;" class="cls-9" cx="558.02" cy="189.9" r="29.12"/><circle id="_路径_13" data-name="&lt;路径&gt;" class="cls-10" cx="558.02" cy="257.84" r="29.12"/></g></g><g id="_编组_8" data-name="&lt;编组&gt;"><polygon id="_路径_14" data-name="&lt;路径&gt;" class="cls-4" points="770.23 322.59 721.7 322.59 689.12 290.01 689.12 125.16 802.8 125.16 802.8 290.01 770.23 322.59"/><g id="_编组_9" data-name="&lt;编组&gt;"><circle id="_路径_15" data-name="&lt;路径&gt;" class="cls-11" cx="745.96" cy="189.9" r="29.12"/><circle id="_路径_16" data-name="&lt;路径&gt;" class="cls-12" cx="745.96" cy="257.84" r="29.12"/></g></g></g></g></g></svg>