<svg xmlns="http://www.w3.org/2000/svg" xmlns:xlink="http://www.w3.org/1999/xlink" viewBox="0 0 946.34 1268.13"><defs><style>.cls-1{fill:#353535;}.cls-17,.cls-2{fill:none;}.cls-10,.cls-15,.cls-17,.cls-2,.cls-22,.cls-28,.cls-40,.cls-41,.cls-7{stroke:#fff;}.cls-10,.cls-12,.cls-13,.cls-15,.cls-16,.cls-17,.cls-2,.cls-21,.cls-22,.cls-28,.cls-29,.cls-31,.cls-40,.cls-41,.cls-43,.cls-7{stroke-miterlimit:10;}.cls-2{stroke-width:3.31px;}.cls-3{fill:#f2cb6b;}.cls-4{fill:#d9b13b;}.cls-5{fill:#e4c55b;}.cls-6{fill:#de7215;}.cls-10,.cls-22,.cls-7{fill:#d0ab3c;}.cls-12,.cls-13,.cls-15,.cls-16,.cls-17,.cls-21,.cls-7{stroke-width:0.66px;}.cls-8{fill:#d2d3d3;}.cls-9{fill:#030000;}.cls-10{stroke-width:1.32px;}.cls-11{fill:#e7e887;}.cls-12{fill:#58b1f9;stroke:#122c4f;}.cls-13{fill:#f99f46;stroke:#ef973f;}.cls-14{fill:#aaa;}.cls-15{fill:#9b9b9b;}.cls-16{fill:#514f50;stroke:#494646;}.cls-18{fill:#c7c6c6;}.cls-19{fill:#a6a6a6;}.cls-20{fill:#bb8c27;}.cls-21{fill:#ff4a5c;stroke:#681216;}.cls-22,.cls-28,.cls-43{stroke-width:1.99px;}.cls-23{fill:#f0c581;}.cls-24{fill:#c8a266;}.cls-25,.cls-29{fill:#fff;}.cls-26{fill:#f4cb70;}.cls-27{fill:#c6c5c5;}.cls-28{fill:#69667f;}.cls-29{stroke:#f7b52c;stroke-width:3.97px;}.cls-30{fill:#e1e0df;}.cls-31{fill:#d2d2d2;stroke:#484949;stroke-width:13.24px;}.cls-32{fill:#0073c9;}.cls-33{fill:url(#未命名的渐变_105);}.cls-34{fill:#848484;}.cls-35{fill:url(#未命名的渐变_49);}.cls-36{fill:url(#未命名的渐变_49-2);}.cls-37{fill:#f4f4f4;}.cls-38{fill:#686868;}.cls-39{fill:#c9c9c9;}.cls-40,.cls-41{fill:#e1b737;}.cls-40{stroke-width:1.3px;}.cls-41{stroke-width:0.86px;}.cls-42{fill:#1f1f1f;}.cls-43{fill:#232323;stroke:#231815;}.cls-44{fill:#c2c2c2;}.cls-45{fill:#a2a2a2;}</style><radialGradient id="未命名的渐变_105" cx="-13070.11" cy="4874.93" r="107.29" gradientTransform="translate(-12296.99 5343.3) rotate(180)" gradientUnits="userSpaceOnUse"><stop offset="0.86" stop-color="#2a68ff"/><stop offset="1" stop-color="#006888"/></radialGradient><linearGradient id="未命名的渐变_49" x1="20.74" y1="270.94" x2="20.74" y2="371.55" gradientUnits="userSpaceOnUse"><stop offset="0" stop-color="#5f5f5f"/><stop offset="0.36" stop-color="#8c8c8d"/><stop offset="0.53" stop-color="#a4a4a4"/><stop offset="0.68" stop-color="#8f8f90"/><stop offset="1" stop-color="#808081"/></linearGradient><linearGradient id="未命名的渐变_49-2" x1="20.74" y1="808.29" x2="20.74" y2="908.91" xlink:href="#未命名的渐变_49"/></defs><title>语音识别模块</title><g id="图层_2" data-name="图层 2"><g id="图层_1-2" data-name="图层 1"><path id="_复合路径_" data-name="&lt;复合路径&gt;" class="cls-1" d="M874.9,0H71.44A71.43,71.43,0,0,0,0,71.43V1196.69a71.44,71.44,0,0,0,71.44,71.44H874.9a71.44,71.44,0,0,0,71.44-71.44V71.43A71.43,71.43,0,0,0,874.9,0Zm23.39,43.58a6.37,6.37,0,1,1,0,9A6.37,6.37,0,0,1,898.29,43.58Zm9,60.31a6.37,6.37,0,1,1,0-9A6.37,6.37,0,0,1,907.3,103.88Zm0,1069.36a6.37,6.37,0,1,1,0-9A6.37,6.37,0,0,1,907.3,1173.25ZM877.14,31.09a6.37,6.37,0,1,1-6.37,6.37A6.37,6.37,0,0,1,877.14,31.09Zm0,18.46A24.18,24.18,0,1,1,853,73.73,24.18,24.18,0,0,1,877.14,49.55Zm0,66.83a6.37,6.37,0,1,1,6.37-6.37A6.37,6.37,0,0,1,877.14,116.37Zm6.37,1041.75a6.37,6.37,0,1,1-6.37-6.37A6.37,6.37,0,0,1,883.51,1158.12ZM856,103.88a6.37,6.37,0,1,1,0-9A6.37,6.37,0,0,1,856,103.88Zm0,1069.36a6.37,6.37,0,1,1,0-9A6.37,6.37,0,0,1,856,1173.25ZM847,43.58a6.37,6.37,0,1,1,0,9A6.37,6.37,0,0,1,847,43.58Zm-6.12,23.78a6.37,6.37,0,1,1-6.37,6.37A6.37,6.37,0,0,1,840.87,67.36ZM90.34,43.58a6.37,6.37,0,1,1,0,9A6.37,6.37,0,0,1,90.34,43.58Zm9,60.31a6.37,6.37,0,1,1,0-9A6.37,6.37,0,0,1,99.35,103.88Zm0,1069.36a6.37,6.37,0,1,1,0-9A6.37,6.37,0,0,1,99.35,1173.25ZM69.19,31.09a6.37,6.37,0,1,1-6.37,6.37A6.37,6.37,0,0,1,69.19,31.09Zm0,18.46A24.18,24.18,0,1,1,45,73.73,24.18,24.18,0,0,1,69.19,49.55Zm0,66.83A6.37,6.37,0,1,1,75.56,110,6.37,6.37,0,0,1,69.19,116.37Zm6.37,1041.75a6.37,6.37,0,1,1-6.37-6.37A6.37,6.37,0,0,1,75.56,1158.12ZM48,103.88a6.37,6.37,0,1,1,0-9A6.37,6.37,0,0,1,48,103.88Zm0,1069.36a6.37,6.37,0,1,1,0-9A6.37,6.37,0,0,1,48,1173.25ZM39,43.58a6.37,6.37,0,1,1,0,9A6.37,6.37,0,0,1,39,43.58ZM32.92,67.36a6.37,6.37,0,1,1-6.37,6.37A6.37,6.37,0,0,1,32.92,67.36Zm-6.37,1127a6.37,6.37,0,1,1,6.37,6.37A6.37,6.37,0,0,1,26.55,1194.39ZM48,1224.55a6.37,6.37,0,1,1,0-9A6.37,6.37,0,0,1,48,1224.55ZM69.19,1237a6.37,6.37,0,1,1,6.37-6.37A6.37,6.37,0,0,1,69.19,1237Zm0-18.46a24.18,24.18,0,1,1,24.18-24.18A24.18,24.18,0,0,1,69.19,1218.58Zm30.15,6a6.37,6.37,0,1,1,0-9A6.37,6.37,0,0,1,99.35,1224.55Zm6.12-23.78a6.37,6.37,0,1,1,6.37-6.37A6.37,6.37,0,0,1,105.47,1200.76Zm0-1120.66a6.37,6.37,0,1,1,6.37-6.37A6.37,6.37,0,0,1,105.47,80.1Zm729,1114.29a6.37,6.37,0,1,1,6.37,6.37A6.37,6.37,0,0,1,834.5,1194.39Zm21.5,30.15a6.37,6.37,0,1,1,0-9A6.37,6.37,0,0,1,856,1224.55ZM877.14,1237a6.37,6.37,0,1,1,6.37-6.37A6.37,6.37,0,0,1,877.14,1237Zm0-18.46a24.18,24.18,0,1,1,24.18-24.18A24.18,24.18,0,0,1,877.14,1218.58Zm30.15,6a6.37,6.37,0,1,1,0-9A6.37,6.37,0,0,1,907.3,1224.55Zm6.12-23.78a6.37,6.37,0,1,1,6.37-6.37A6.37,6.37,0,0,1,913.42,1200.76Zm0-1120.66a6.37,6.37,0,1,1,6.37-6.37A6.37,6.37,0,0,1,913.42,80.1Z"/><circle id="_路径_" data-name="&lt;路径&gt;" class="cls-2" cx="69.19" cy="73.73" r="48.21"/><path id="_复合路径_2" data-name="&lt;复合路径&gt;" class="cls-3" d="M69.19,25.37a48.37,48.37,0,1,0,48.37,48.37A48.42,48.42,0,0,0,69.19,25.37ZM90.34,43.58a6.37,6.37,0,1,1,0,9A6.37,6.37,0,0,1,90.34,43.58ZM69.19,31.09a6.37,6.37,0,1,1-6.37,6.37A6.37,6.37,0,0,1,69.19,31.09ZM39,43.58a6.37,6.37,0,1,1,0,9A6.37,6.37,0,0,1,39,43.58ZM32.92,80.1a6.37,6.37,0,1,1,6.37-6.37A6.37,6.37,0,0,1,32.92,80.1ZM48,103.88a6.37,6.37,0,1,1,0-9A6.37,6.37,0,0,1,48,103.88Zm21.15,12.49A6.37,6.37,0,1,1,75.56,110,6.37,6.37,0,0,1,69.19,116.37Zm0-18.46A24.18,24.18,0,1,1,93.38,73.73,24.21,24.21,0,0,1,69.19,97.91Zm30.15,6a6.37,6.37,0,1,1,0-9A6.37,6.37,0,0,1,99.35,103.88Zm6.12-23.78a6.37,6.37,0,1,1,6.37-6.37A6.37,6.37,0,0,1,105.47,80.1Z"/><circle id="_路径_2" data-name="&lt;路径&gt;" class="cls-2" cx="877.14" cy="73.73" r="48.21"/><path id="_复合路径_3" data-name="&lt;复合路径&gt;" class="cls-3" d="M877.14,25.37a48.37,48.37,0,1,0,48.37,48.37A48.42,48.42,0,0,0,877.14,25.37Zm21.15,18.21a6.37,6.37,0,1,1,0,9A6.37,6.37,0,0,1,898.29,43.58ZM877.14,31.09a6.37,6.37,0,1,1-6.37,6.37A6.37,6.37,0,0,1,877.14,31.09ZM847,43.58a6.37,6.37,0,1,1,0,9A6.37,6.37,0,0,1,847,43.58ZM840.87,80.1a6.37,6.37,0,1,1,6.37-6.37A6.37,6.37,0,0,1,840.87,80.1ZM856,103.88a6.37,6.37,0,1,1,0-9A6.37,6.37,0,0,1,856,103.88Zm21.15,12.49a6.37,6.37,0,1,1,6.37-6.37A6.37,6.37,0,0,1,877.14,116.37Zm0-18.46a24.18,24.18,0,1,1,24.18-24.18A24.21,24.21,0,0,1,877.14,97.91Zm30.15,6a6.37,6.37,0,1,1,0-9A6.37,6.37,0,0,1,907.3,103.88Zm6.12-23.78a6.37,6.37,0,1,1,6.37-6.37A6.37,6.37,0,0,1,913.42,80.1Z"/><circle id="_路径_3" data-name="&lt;路径&gt;" class="cls-2" cx="69.19" cy="1194.39" r="48.21"/><path id="_复合路径_4" data-name="&lt;复合路径&gt;" class="cls-3" d="M69.19,1146a48.37,48.37,0,1,0,48.37,48.37A48.42,48.42,0,0,0,69.19,1146Zm21.15,18.21a6.37,6.37,0,1,1,0,9A6.37,6.37,0,0,1,90.34,1164.24Zm-21.15-12.49a6.37,6.37,0,1,1-6.37,6.37A6.37,6.37,0,0,1,69.19,1151.75ZM39,1164.24a6.37,6.37,0,1,1,0,9A6.37,6.37,0,0,1,39,1164.24Zm-6.12,36.52a6.37,6.37,0,1,1,6.37-6.37A6.37,6.37,0,0,1,32.92,1200.76ZM48,1224.55a6.37,6.37,0,1,1,0-9A6.37,6.37,0,0,1,48,1224.55ZM69.19,1237a6.37,6.37,0,1,1,6.37-6.37A6.37,6.37,0,0,1,69.19,1237Zm0-18.46a24.18,24.18,0,1,1,24.18-24.18A24.21,24.21,0,0,1,69.19,1218.58Zm30.15,6a6.37,6.37,0,1,1,0-9A6.37,6.37,0,0,1,99.35,1224.55Zm6.12-23.78a6.37,6.37,0,1,1,6.37-6.37A6.37,6.37,0,0,1,105.47,1200.76Z"/><circle id="_路径_4" data-name="&lt;路径&gt;" class="cls-2" cx="877.14" cy="1194.39" r="48.21"/><path id="_复合路径_5" data-name="&lt;复合路径&gt;" class="cls-3" d="M877.14,1146a48.37,48.37,0,1,0,48.37,48.37A48.42,48.42,0,0,0,877.14,1146Zm21.15,18.21a6.37,6.37,0,1,1,0,9A6.37,6.37,0,0,1,898.29,1164.24Zm-21.15-12.49a6.37,6.37,0,1,1-6.37,6.37A6.37,6.37,0,0,1,877.14,1151.75ZM847,1164.24a6.37,6.37,0,1,1,0,9A6.37,6.37,0,0,1,847,1164.24Zm-6.12,36.52a6.37,6.37,0,1,1,6.37-6.37A6.37,6.37,0,0,1,840.87,1200.76ZM856,1224.55a6.37,6.37,0,1,1,0-9A6.37,6.37,0,0,1,856,1224.55ZM877.14,1237a6.37,6.37,0,1,1,6.37-6.37A6.37,6.37,0,0,1,877.14,1237Zm0-18.46a24.18,24.18,0,1,1,24.18-24.18A24.21,24.21,0,0,1,877.14,1218.58Zm30.15,6a6.37,6.37,0,1,1,0-9A6.37,6.37,0,0,1,907.3,1224.55Zm6.12-23.78a6.37,6.37,0,1,1,6.37-6.37A6.37,6.37,0,0,1,913.42,1200.76Z"/><rect id="_矩形_" data-name="&lt;矩形&gt;" class="cls-4" x="246.33" y="973.83" width="88.68" height="47.32"/><rect id="_矩形_2" data-name="&lt;矩形&gt;" class="cls-5" x="257.92" y="971.46" width="65.52" height="52.06"/><rect id="_矩形_3" data-name="&lt;矩形&gt;" class="cls-6" x="265.76" y="971.46" width="7.39" height="52.06"/><rect id="_矩形_4" data-name="&lt;矩形&gt;" class="cls-7" x="286.49" y="722.82" width="17.32" height="43.57" transform="translate(1039.76 449.46) rotate(90)"/><rect id="_矩形_5" data-name="&lt;矩形&gt;" class="cls-8" x="287.46" y="729.72" width="16.71" height="29.78" transform="translate(1040.42 448.8) rotate(90)"/><polygon id="_路径_5" data-name="&lt;路径&gt;" class="cls-9" points="305.32 736.31 286.13 736.31 286.13 752.9 305.32 752.9 305.32 749.51 304.62 749.51 304.62 739.13 305.32 739.13 305.32 736.31"/><rect id="_矩形_6" data-name="&lt;矩形&gt;" class="cls-7" x="815.25" y="920.47" width="17.32" height="43.57" transform="translate(1766.16 118.35) rotate(90)"/><rect id="_矩形_7" data-name="&lt;矩形&gt;" class="cls-8" x="816.21" y="927.37" width="16.71" height="29.78" transform="translate(1766.82 117.69) rotate(90)"/><polygon id="_路径_6" data-name="&lt;路径&gt;" class="cls-9" points="834.08 933.96 814.89 933.96 814.89 950.55 834.08 950.55 834.08 947.16 833.38 947.16 833.38 936.78 834.08 936.78 834.08 933.96"/><rect id="_矩形_8" data-name="&lt;矩形&gt;" class="cls-7" x="815.25" y="887.26" width="17.32" height="43.57" transform="translate(1732.94 85.13) rotate(90)"/><rect id="_矩形_9" data-name="&lt;矩形&gt;" class="cls-8" x="816.21" y="894.15" width="16.71" height="29.78" transform="translate(1733.61 84.47) rotate(90)"/><polygon id="_路径_7" data-name="&lt;路径&gt;" class="cls-9" points="834.08 900.75 814.89 900.75 814.89 917.33 834.08 917.33 834.08 913.94 833.38 913.94 833.38 903.56 834.08 903.56 834.08 900.75"/><rect id="_矩形_10" data-name="&lt;矩形&gt;" class="cls-7" x="815.25" y="854.04" width="17.32" height="43.57" transform="translate(1699.73 51.92) rotate(90)"/><rect id="_矩形_11" data-name="&lt;矩形&gt;" class="cls-8" x="816.21" y="860.93" width="16.71" height="29.78" transform="translate(1700.39 51.25) rotate(90)"/><polygon id="_路径_8" data-name="&lt;路径&gt;" class="cls-9" points="834.08 867.53 814.89 867.53 814.89 884.12 834.08 884.12 834.08 880.72 833.38 880.72 833.38 870.34 834.08 870.34 834.08 867.53"/><rect id="_矩形_12" data-name="&lt;矩形&gt;" class="cls-7" x="815.25" y="820.82" width="17.32" height="43.57" transform="translate(1666.51 18.7) rotate(90)"/><rect id="_矩形_13" data-name="&lt;矩形&gt;" class="cls-8" x="816.21" y="827.71" width="16.71" height="29.78" transform="translate(1667.17 18.04) rotate(90)"/><polygon id="_路径_9" data-name="&lt;路径&gt;" class="cls-9" points="834.08 834.31 814.89 834.31 814.89 850.9 834.08 850.9 834.08 847.51 833.38 847.51 833.38 837.12 834.08 837.12 834.08 834.31"/><rect id="_矩形_14" data-name="&lt;矩形&gt;" class="cls-7" x="815.25" y="787.6" width="17.32" height="43.57" transform="translate(1633.29 -14.52) rotate(90)"/><rect id="_矩形_15" data-name="&lt;矩形&gt;" class="cls-8" x="816.21" y="794.5" width="16.71" height="29.78" transform="translate(1633.95 -15.18) rotate(90)"/><polygon id="_路径_10" data-name="&lt;路径&gt;" class="cls-9" points="834.08 801.09 814.89 801.09 814.89 817.68 834.08 817.68 834.08 814.29 833.38 814.29 833.38 803.91 834.08 803.91 834.08 801.09"/><rect id="_矩形_16" data-name="&lt;矩形&gt;" class="cls-7" x="815.25" y="687.95" width="17.32" height="43.57" transform="translate(1533.64 -114.17) rotate(90)"/><rect id="_矩形_17" data-name="&lt;矩形&gt;" class="cls-8" x="816.21" y="694.85" width="16.71" height="29.78" transform="translate(1534.3 -114.83) rotate(90)"/><polygon id="_路径_11" data-name="&lt;路径&gt;" class="cls-9" points="834.08 701.44 814.89 701.44 814.89 718.03 834.08 718.03 834.08 714.64 833.38 714.64 833.38 704.25 834.08 704.25 834.08 701.44"/><rect id="_矩形_18" data-name="&lt;矩形&gt;" class="cls-7" x="286.49" y="656.97" width="17.32" height="43.57" transform="translate(973.9 383.6) rotate(90)"/><rect id="_矩形_19" data-name="&lt;矩形&gt;" class="cls-8" x="287.46" y="663.86" width="16.71" height="29.78" transform="translate(974.56 382.94) rotate(90)"/><polygon id="_路径_12" data-name="&lt;路径&gt;" class="cls-9" points="305.32 670.46 286.13 670.46 286.13 687.05 305.32 687.05 305.32 683.65 304.62 683.65 304.62 673.27 305.32 673.27 305.32 670.46"/><rect id="_矩形_20" data-name="&lt;矩形&gt;" class="cls-7" x="286.49" y="624.04" width="17.32" height="43.57" transform="translate(940.97 350.68) rotate(90)"/><rect id="_矩形_21" data-name="&lt;矩形&gt;" class="cls-8" x="287.46" y="630.94" width="16.71" height="29.78" transform="translate(941.64 350.02) rotate(90)"/><polygon id="_路径_13" data-name="&lt;路径&gt;" class="cls-9" points="305.32 637.53 286.13 637.53 286.13 654.12 305.32 654.12 305.32 650.73 304.62 650.73 304.62 640.35 305.32 640.35 305.32 637.53"/><rect id="_矩形_22" data-name="&lt;矩形&gt;" class="cls-7" x="286.49" y="558.19" width="17.32" height="43.57" transform="translate(875.12 284.82) rotate(90)"/><rect id="_矩形_23" data-name="&lt;矩形&gt;" class="cls-8" x="287.46" y="565.08" width="16.71" height="29.78" transform="translate(875.78 284.16) rotate(90)"/><polygon id="_路径_14" data-name="&lt;路径&gt;" class="cls-9" points="305.32 571.68 286.13 571.68 286.13 588.26 305.32 588.26 305.32 584.87 304.62 584.87 304.62 574.49 305.32 574.49 305.32 571.68"/><rect id="_矩形_24" data-name="&lt;矩形&gt;" class="cls-7" x="286.49" y="525.26" width="17.32" height="43.57" transform="translate(842.19 251.9) rotate(90)"/><rect id="_矩形_25" data-name="&lt;矩形&gt;" class="cls-8" x="287.46" y="532.16" width="16.71" height="29.78" transform="translate(842.86 251.23) rotate(90)"/><polygon id="_路径_15" data-name="&lt;路径&gt;" class="cls-9" points="305.32 538.75 286.13 538.75 286.13 555.34 305.32 555.34 305.32 551.95 304.62 551.95 304.62 541.57 305.32 541.57 305.32 538.75"/><rect id="_矩形_26" data-name="&lt;矩形&gt;" class="cls-10" x="273.7" y="704.92" width="17.32" height="13.51" transform="translate(-429.33 994.03) rotate(-90)"/><rect id="_矩形_27" data-name="&lt;矩形&gt;" class="cls-10" x="300.61" y="704.92" width="17.32" height="13.51" transform="translate(-402.41 1020.95) rotate(-90)"/><path id="_路径_16" data-name="&lt;路径&gt;" class="cls-11" d="M280.26,707a4.66,4.66,0,1,1,0,9.32v2.79h8.85V704.23h-8.85Z"/><path id="_路径_17" data-name="&lt;路径&gt;" class="cls-11" d="M311.36,716.34a4.66,4.66,0,1,1,0-9.32v-2.79h-8.85v14.89h8.85Z"/><rect id="_矩形_28" data-name="&lt;矩形&gt;" class="cls-12" x="289.14" y="701.95" width="13.24" height="19.47" transform="translate(-415.92 1007.44) rotate(-90)"/><rect id="_矩形_29" data-name="&lt;矩形&gt;" class="cls-10" x="801.79" y="769.41" width="17.32" height="13.51" transform="translate(34.28 1586.62) rotate(-90)"/><rect id="_矩形_30" data-name="&lt;矩形&gt;" class="cls-10" x="828.7" y="769.41" width="17.32" height="13.51" transform="translate(61.19 1613.53) rotate(-90)"/><path id="_路径_18" data-name="&lt;路径&gt;" class="cls-11" d="M808.35,771.51a4.66,4.66,0,1,1,0,9.32v2.79h8.85V768.73h-8.85Z"/><path id="_路径_19" data-name="&lt;路径&gt;" class="cls-11" d="M839.46,780.83a4.66,4.66,0,1,1,0-9.32v-2.79h-8.85v14.89h8.85Z"/><rect id="_矩形_31" data-name="&lt;矩形&gt;" class="cls-12" x="817.23" y="766.44" width="13.24" height="19.47" transform="translate(47.68 1600.02) rotate(-90)"/><rect id="_矩形_32" data-name="&lt;矩形&gt;" class="cls-10" x="273.7" y="606.14" width="17.32" height="13.51" transform="translate(-330.54 895.25) rotate(-90)"/><rect id="_矩形_33" data-name="&lt;矩形&gt;" class="cls-10" x="300.61" y="606.14" width="17.32" height="13.51" transform="translate(-303.63 922.17) rotate(-90)"/><rect id="_矩形_34" data-name="&lt;矩形&gt;" class="cls-13" x="289.14" y="603.17" width="13.24" height="19.47" transform="translate(-317.14 908.65) rotate(-90)"/><rect id="_矩形_35" data-name="&lt;矩形&gt;" class="cls-14" x="303.94" y="605.59" width="4.74" height="14.67" transform="translate(612.63 1225.85) rotate(180)"/><rect id="_矩形_36" data-name="&lt;矩形&gt;" class="cls-14" x="282.88" y="605.59" width="4.74" height="14.67" transform="translate(570.49 1225.85) rotate(180)"/><rect id="_矩形_37" data-name="&lt;矩形&gt;" class="cls-10" x="273.7" y="507.36" width="17.32" height="13.51" transform="translate(-231.76 796.47) rotate(-90)"/><rect id="_矩形_38" data-name="&lt;矩形&gt;" class="cls-10" x="300.61" y="507.36" width="17.32" height="13.51" transform="translate(-204.85 823.38) rotate(-90)"/><rect id="_矩形_39" data-name="&lt;矩形&gt;" class="cls-13" x="289.14" y="504.38" width="13.24" height="19.47" transform="translate(-218.36 809.87) rotate(-90)"/><rect id="_矩形_40" data-name="&lt;矩形&gt;" class="cls-14" x="303.94" y="506.81" width="4.74" height="14.67" transform="translate(612.63 1028.29) rotate(180)"/><rect id="_矩形_41" data-name="&lt;矩形&gt;" class="cls-14" x="282.88" y="506.81" width="4.74" height="14.67" transform="translate(570.49 1028.29) rotate(180)"/><rect id="_矩形_42" data-name="&lt;矩形&gt;" class="cls-10" x="273.7" y="474.44" width="17.32" height="13.51" transform="translate(-198.84 763.55) rotate(-90)"/><rect id="_矩形_43" data-name="&lt;矩形&gt;" class="cls-10" x="300.61" y="474.44" width="17.32" height="13.51" transform="translate(-171.92 790.46) rotate(-90)"/><rect id="_矩形_44" data-name="&lt;矩形&gt;" class="cls-13" x="289.14" y="471.46" width="13.24" height="19.47" transform="translate(-185.44 776.95) rotate(-90)"/><rect id="_矩形_45" data-name="&lt;矩形&gt;" class="cls-14" x="303.94" y="473.88" width="4.74" height="14.67" transform="translate(612.63 962.44) rotate(180)"/><rect id="_矩形_46" data-name="&lt;矩形&gt;" class="cls-14" x="282.88" y="473.88" width="4.74" height="14.67" transform="translate(570.49 962.44) rotate(180)"/><rect id="_矩形_47" data-name="&lt;矩形&gt;" class="cls-10" x="273.7" y="441.51" width="17.32" height="13.51" transform="translate(-165.91 730.62) rotate(-90)"/><rect id="_矩形_48" data-name="&lt;矩形&gt;" class="cls-10" x="300.61" y="441.51" width="17.32" height="13.51" transform="translate(-139 757.53) rotate(-90)"/><rect id="_矩形_49" data-name="&lt;矩形&gt;" class="cls-13" x="289.14" y="438.53" width="13.24" height="19.47" transform="translate(-152.51 744.02) rotate(-90)"/><rect id="_矩形_50" data-name="&lt;矩形&gt;" class="cls-14" x="303.94" y="440.96" width="4.74" height="14.67" transform="translate(612.63 896.58) rotate(180)"/><rect id="_矩形_51" data-name="&lt;矩形&gt;" class="cls-14" x="282.88" y="440.96" width="4.74" height="14.67" transform="translate(570.49 896.58) rotate(180)"/><rect id="_矩形_52" data-name="&lt;矩形&gt;" class="cls-10" x="801.79" y="1001.94" width="17.32" height="13.51" transform="translate(-198.24 1819.14) rotate(-90)"/><rect id="_矩形_53" data-name="&lt;矩形&gt;" class="cls-10" x="828.7" y="1001.94" width="17.32" height="13.51" transform="translate(-171.33 1846.05) rotate(-90)"/><rect id="_矩形_54" data-name="&lt;矩形&gt;" class="cls-13" x="817.23" y="998.96" width="13.24" height="19.47" transform="translate(-184.84 1832.54) rotate(-90)"/><rect id="_矩形_55" data-name="&lt;矩形&gt;" class="cls-14" x="832.04" y="1001.38" width="4.74" height="14.67" transform="translate(1668.82 2017.44) rotate(180)"/><rect id="_矩形_56" data-name="&lt;矩形&gt;" class="cls-14" x="810.97" y="1001.38" width="4.74" height="14.67" transform="translate(1626.68 2017.44) rotate(180)"/><rect id="_矩形_57" data-name="&lt;矩形&gt;" class="cls-10" x="801.79" y="736.2" width="17.32" height="13.51" transform="translate(67.5 1553.4) rotate(-90)"/><rect id="_矩形_58" data-name="&lt;矩形&gt;" class="cls-10" x="828.7" y="736.2" width="17.32" height="13.51" transform="translate(94.41 1580.31) rotate(-90)"/><rect id="_矩形_59" data-name="&lt;矩形&gt;" class="cls-13" x="817.23" y="733.22" width="13.24" height="19.47" transform="translate(80.9 1566.8) rotate(-90)"/><rect id="_矩形_60" data-name="&lt;矩形&gt;" class="cls-14" x="832.04" y="735.65" width="4.74" height="14.67" transform="translate(1668.82 1485.96) rotate(180)"/><rect id="_矩形_61" data-name="&lt;矩形&gt;" class="cls-14" x="810.97" y="735.65" width="4.74" height="14.67" transform="translate(1626.68 1485.96) rotate(180)"/><rect id="_矩形_62" data-name="&lt;矩形&gt;" class="cls-10" x="801.79" y="968.72" width="17.32" height="13.51" transform="translate(-165.02 1785.92) rotate(-90)"/><rect id="_矩形_63" data-name="&lt;矩形&gt;" class="cls-10" x="828.7" y="968.72" width="17.32" height="13.51" transform="translate(-138.11 1812.83) rotate(-90)"/><rect id="_矩形_64" data-name="&lt;矩形&gt;" class="cls-13" x="817.23" y="965.74" width="13.24" height="19.47" transform="translate(-151.62 1799.32) rotate(-90)"/><rect id="_矩形_65" data-name="&lt;矩形&gt;" class="cls-14" x="832.04" y="968.17" width="4.74" height="14.67" transform="translate(1668.82 1951) rotate(180)"/><rect id="_矩形_66" data-name="&lt;矩形&gt;" class="cls-14" x="810.97" y="968.17" width="4.74" height="14.67" transform="translate(1626.68 1951) rotate(180)"/><rect id="_矩形_67" data-name="&lt;矩形&gt;" class="cls-7" x="620.11" y="206.7" width="17.32" height="43.57"/><rect id="_矩形_68" data-name="&lt;矩形&gt;" class="cls-8" x="620.41" y="212.93" width="16.71" height="29.78"/><polygon id="_路径_20" data-name="&lt;路径&gt;" class="cls-9" points="620.47 218.31 620.47 237.5 637.06 237.5 637.06 218.31 633.67 218.31 633.67 219.01 623.28 219.01 623.28 218.31 620.47 218.31"/><rect id="_矩形_69" data-name="&lt;矩形&gt;" class="cls-7" x="424.27" y="206.7" width="17.32" height="43.57"/><rect id="_矩形_70" data-name="&lt;矩形&gt;" class="cls-8" x="424.57" y="212.93" width="16.71" height="29.78"/><polygon id="_路径_21" data-name="&lt;路径&gt;" class="cls-9" points="424.64 218.31 424.64 237.5 441.22 237.5 441.22 218.31 437.83 218.31 437.83 219.01 427.45 219.01 427.45 218.31 424.64 218.31"/><rect id="_矩形_71" data-name="&lt;矩形&gt;" class="cls-7" x="326.35" y="206.7" width="17.32" height="43.57"/><rect id="_矩形_72" data-name="&lt;矩形&gt;" class="cls-8" x="326.66" y="212.93" width="16.71" height="29.78"/><polygon id="_路径_22" data-name="&lt;路径&gt;" class="cls-9" points="326.72 218.31 326.72 237.5 343.3 237.5 343.3 218.31 339.91 218.31 339.91 219.01 329.53 219.01 329.53 218.31 326.72 218.31"/><rect id="_矩形_73" data-name="&lt;矩形&gt;" class="cls-7" x="587.47" y="206.7" width="17.32" height="43.57"/><rect id="_矩形_74" data-name="&lt;矩形&gt;" class="cls-8" x="587.77" y="212.93" width="16.71" height="29.78"/><polygon id="_路径_23" data-name="&lt;路径&gt;" class="cls-9" points="587.83 218.31 587.83 237.5 604.42 237.5 604.42 218.31 601.03 218.31 601.03 219.01 590.64 219.01 590.64 218.31 587.83 218.31"/><rect id="_矩形_75" data-name="&lt;矩形&gt;" class="cls-10" x="554.83" y="234.52" width="17.32" height="13.51" transform="translate(1126.97 482.55) rotate(180)"/><rect id="_矩形_76" data-name="&lt;矩形&gt;" class="cls-10" x="554.83" y="207.61" width="17.32" height="13.51" transform="translate(1126.97 428.72) rotate(180)"/><rect id="_矩形_77" data-name="&lt;矩形&gt;" class="cls-13" x="556.87" y="218.14" width="13.24" height="19.47" transform="translate(1126.97 455.75) rotate(180)"/><rect id="_矩形_78" data-name="&lt;矩形&gt;" class="cls-14" x="561.14" y="209.98" width="4.74" height="14.67" transform="translate(780.83 -346.2) rotate(90)"/><rect id="_矩形_79" data-name="&lt;矩形&gt;" class="cls-14" x="561.14" y="231.05" width="4.74" height="14.67" transform="translate(801.89 -325.13) rotate(90)"/><rect id="_矩形_80" data-name="&lt;矩形&gt;" class="cls-10" x="522.19" y="234.52" width="17.32" height="13.51" transform="translate(1061.69 482.55) rotate(180)"/><rect id="_矩形_81" data-name="&lt;矩形&gt;" class="cls-10" x="522.19" y="207.61" width="17.32" height="13.51" transform="translate(1061.69 428.72) rotate(180)"/><rect id="_矩形_82" data-name="&lt;矩形&gt;" class="cls-13" x="524.23" y="218.14" width="13.24" height="19.47" transform="translate(1061.69 455.75) rotate(180)"/><rect id="_矩形_83" data-name="&lt;矩形&gt;" class="cls-14" x="528.5" y="209.98" width="4.74" height="14.67" transform="translate(748.19 -313.56) rotate(90)"/><rect id="_矩形_84" data-name="&lt;矩形&gt;" class="cls-14" x="528.5" y="231.05" width="4.74" height="14.67" transform="translate(769.26 -292.49) rotate(90)"/><rect id="_矩形_85" data-name="&lt;矩形&gt;" class="cls-10" x="489.55" y="234.52" width="17.32" height="13.51" transform="translate(996.41 482.55) rotate(180)"/><rect id="_矩形_86" data-name="&lt;矩形&gt;" class="cls-10" x="489.55" y="207.61" width="17.32" height="13.51" transform="translate(996.41 428.72) rotate(180)"/><rect id="_矩形_87" data-name="&lt;矩形&gt;" class="cls-13" x="491.59" y="218.14" width="13.24" height="19.47" transform="translate(996.41 455.75) rotate(180)"/><rect id="_矩形_88" data-name="&lt;矩形&gt;" class="cls-14" x="495.86" y="209.98" width="4.74" height="14.67" transform="translate(715.55 -280.92) rotate(90)"/><rect id="_矩形_89" data-name="&lt;矩形&gt;" class="cls-14" x="495.86" y="231.05" width="4.74" height="14.67" transform="translate(736.62 -259.85) rotate(90)"/><rect id="_矩形_90" data-name="&lt;矩形&gt;" class="cls-10" x="456.91" y="234.52" width="17.32" height="13.51" transform="translate(931.14 482.55) rotate(180)"/><rect id="_矩形_91" data-name="&lt;矩形&gt;" class="cls-10" x="456.91" y="207.61" width="17.32" height="13.51" transform="translate(931.14 428.72) rotate(180)"/><rect id="_矩形_92" data-name="&lt;矩形&gt;" class="cls-13" x="458.95" y="218.14" width="13.24" height="19.47" transform="translate(931.14 455.75) rotate(180)"/><rect id="_矩形_93" data-name="&lt;矩形&gt;" class="cls-14" x="463.22" y="209.98" width="4.74" height="14.67" transform="translate(682.91 -248.28) rotate(90)"/><rect id="_矩形_94" data-name="&lt;矩形&gt;" class="cls-14" x="463.22" y="231.05" width="4.74" height="14.67" transform="translate(703.98 -227.21) rotate(90)"/><rect id="_矩形_95" data-name="&lt;矩形&gt;" class="cls-10" x="391.63" y="234.52" width="17.32" height="13.51" transform="translate(800.58 482.55) rotate(180)"/><rect id="_矩形_96" data-name="&lt;矩形&gt;" class="cls-10" x="391.63" y="207.61" width="17.32" height="13.51" transform="translate(800.58 428.72) rotate(180)"/><rect id="_矩形_97" data-name="&lt;矩形&gt;" class="cls-13" x="393.67" y="218.14" width="13.24" height="19.47" transform="translate(800.58 455.75) rotate(180)"/><rect id="_矩形_98" data-name="&lt;矩形&gt;" class="cls-14" x="397.95" y="209.98" width="4.74" height="14.67" transform="translate(617.63 -183) rotate(90)"/><rect id="_矩形_99" data-name="&lt;矩形&gt;" class="cls-14" x="397.95" y="231.05" width="4.74" height="14.67" transform="translate(638.7 -161.94) rotate(90)"/><rect id="_矩形_100" data-name="&lt;矩形&gt;" class="cls-10" x="358.99" y="234.52" width="17.32" height="13.51" transform="translate(735.3 482.55) rotate(180)"/><rect id="_矩形_101" data-name="&lt;矩形&gt;" class="cls-10" x="358.99" y="207.61" width="17.32" height="13.51" transform="translate(735.3 428.72) rotate(180)"/><rect id="_矩形_102" data-name="&lt;矩形&gt;" class="cls-13" x="361.03" y="218.14" width="13.24" height="19.47" transform="translate(735.3 455.75) rotate(180)"/><rect id="_矩形_103" data-name="&lt;矩形&gt;" class="cls-14" x="365.31" y="209.98" width="4.74" height="14.67" transform="translate(584.99 -150.36) rotate(90)"/><rect id="_矩形_104" data-name="&lt;矩形&gt;" class="cls-14" x="365.31" y="231.05" width="4.74" height="14.67" transform="translate(606.06 -129.3) rotate(90)"/><rect id="_矩形_105" data-name="&lt;矩形&gt;" class="cls-15" x="374.78" y="1003.14" width="17.32" height="13.51" transform="translate(766.88 2019.8) rotate(180)"/><rect id="_矩形_106" data-name="&lt;矩形&gt;" class="cls-15" x="374.78" y="976.23" width="17.32" height="13.51" transform="translate(766.88 1965.97) rotate(180)"/><rect id="_矩形_107" data-name="&lt;矩形&gt;" class="cls-13" x="376.82" y="986.76" width="13.24" height="19.47" transform="translate(766.88 1993) rotate(180)"/><rect id="_矩形_108" data-name="&lt;矩形&gt;" class="cls-14" x="381.1" y="978.61" width="4.74" height="14.67" transform="translate(1369.41 602.47) rotate(90)"/><rect id="_矩形_109" data-name="&lt;矩形&gt;" class="cls-14" x="381.1" y="999.67" width="4.74" height="14.67" transform="translate(1390.48 623.54) rotate(90)"/><rect id="_矩形_110" data-name="&lt;矩形&gt;" class="cls-15" x="480.6" y="1003.14" width="17.32" height="13.51" transform="translate(978.51 2019.8) rotate(180)"/><rect id="_矩形_111" data-name="&lt;矩形&gt;" class="cls-15" x="480.6" y="976.23" width="17.32" height="13.51" transform="translate(978.51 1965.97) rotate(180)"/><rect id="_矩形_112" data-name="&lt;矩形&gt;" class="cls-13" x="482.64" y="986.76" width="13.24" height="19.47" transform="translate(978.51 1993) rotate(180)"/><rect id="_矩形_113" data-name="&lt;矩形&gt;" class="cls-14" x="486.91" y="978.61" width="4.74" height="14.67" transform="translate(1475.22 496.66) rotate(90)"/><rect id="_矩形_114" data-name="&lt;矩形&gt;" class="cls-14" x="486.91" y="999.67" width="4.74" height="14.67" transform="translate(1496.29 517.73) rotate(90)"/><rect id="_矩形_115" data-name="&lt;矩形&gt;" class="cls-15" x="418.42" y="966.8" width="11.17" height="21.09"/><rect id="_矩形_116" data-name="&lt;矩形&gt;" class="cls-15" x="446.49" y="966.8" width="11.17" height="21.09"/><rect id="_矩形_117" data-name="&lt;矩形&gt;" class="cls-15" x="432.46" y="1005.1" width="11.17" height="21.09"/><rect id="_矩形_118" data-name="&lt;矩形&gt;" class="cls-16" x="410.99" y="984.42" width="54.1" height="24.65"/><polyline id="_路径_24" data-name="&lt;路径&gt;" class="cls-17" points="410.33 997.49 410.33 1009.82 418.38 1009.82"/><polyline id="_路径_25" data-name="&lt;路径&gt;" class="cls-17" points="465.67 997.49 465.67 1009.82 457.62 1009.82"/><rect id="_矩形_119" data-name="&lt;矩形&gt;" class="cls-18" x="419.51" y="974.55" width="8.99" height="9.87"/><rect id="_矩形_120" data-name="&lt;矩形&gt;" class="cls-18" x="447.58" y="974.55" width="8.99" height="9.87"/><rect id="_矩形_121" data-name="&lt;矩形&gt;" class="cls-18" x="433.55" y="1009.07" width="8.99" height="9.87"/><rect id="_矩形_122" data-name="&lt;矩形&gt;" class="cls-19" x="419.51" y="981.2" width="8.99" height="1.05"/><rect id="_矩形_123" data-name="&lt;矩形&gt;" class="cls-19" x="447.58" y="981.2" width="8.99" height="1.05"/><rect id="_矩形_124" data-name="&lt;矩形&gt;" class="cls-19" x="433.55" y="1011.17" width="8.99" height="1.05"/><rect id="_矩形_125" data-name="&lt;矩形&gt;" class="cls-15" x="94.89" y="984.89" width="17.32" height="43.57"/><rect id="_矩形_126" data-name="&lt;矩形&gt;" class="cls-8" x="95.2" y="991.12" width="16.71" height="29.78"/><polygon id="_路径_26" data-name="&lt;路径&gt;" class="cls-9" points="95.26 996.5 95.26 1015.69 111.84 1015.69 111.84 996.5 108.45 996.5 108.45 997.2 98.07 997.2 98.07 996.5 95.26 996.5"/><rect id="_矩形_127" data-name="&lt;矩形&gt;" class="cls-15" x="131.57" y="984.89" width="17.32" height="43.57"/><rect id="_矩形_128" data-name="&lt;矩形&gt;" class="cls-8" x="131.87" y="991.12" width="16.71" height="29.78"/><polygon id="_路径_27" data-name="&lt;路径&gt;" class="cls-9" points="131.93 996.5 131.93 1015.69 148.52 1015.69 148.52 996.5 145.13 996.5 145.13 997.2 134.75 997.2 134.75 996.5 131.93 996.5"/><rect id="_矩形_129" data-name="&lt;矩形&gt;" class="cls-15" x="558.35" y="975.71" width="17.32" height="43.57"/><rect id="_矩形_130" data-name="&lt;矩形&gt;" class="cls-8" x="558.65" y="981.94" width="16.71" height="29.78"/><polygon id="_路径_28" data-name="&lt;路径&gt;" class="cls-9" points="558.71 987.32 558.71 1006.51 575.3 1006.51 575.3 987.32 571.91 987.32 571.91 988.02 561.52 988.02 561.52 987.32 558.71 987.32"/><rect id="_矩形_131" data-name="&lt;矩形&gt;" class="cls-15" x="594.42" y="975.71" width="17.32" height="43.57"/><rect id="_矩形_132" data-name="&lt;矩形&gt;" class="cls-8" x="594.73" y="981.94" width="16.71" height="29.78"/><polygon id="_路径_29" data-name="&lt;路径&gt;" class="cls-9" points="594.79 987.32 594.79 1006.51 611.37 1006.51 611.37 987.32 607.98 987.32 607.98 988.02 597.6 988.02 597.6 987.32 594.79 987.32"/><rect id="_矩形_133" data-name="&lt;矩形&gt;" class="cls-15" x="630.5" y="975.71" width="17.32" height="43.57"/><rect id="_矩形_134" data-name="&lt;矩形&gt;" class="cls-8" x="630.8" y="981.94" width="16.71" height="29.78"/><polygon id="_路径_30" data-name="&lt;路径&gt;" class="cls-9" points="630.86 987.32 630.86 1006.51 647.45 1006.51 647.45 987.32 644.06 987.32 644.06 988.02 633.67 988.02 633.67 987.32 630.86 987.32"/><rect id="_矩形_135" data-name="&lt;矩形&gt;" class="cls-15" x="666.57" y="975.71" width="17.32" height="43.57"/><rect id="_矩形_136" data-name="&lt;矩形&gt;" class="cls-8" x="666.88" y="981.94" width="16.71" height="29.78"/><polygon id="_路径_31" data-name="&lt;路径&gt;" class="cls-9" points="666.94 987.32 666.94 1006.51 683.52 1006.51 683.52 987.32 680.13 987.32 680.13 988.02 669.75 988.02 669.75 987.32 666.94 987.32"/><rect id="_矩形_137" data-name="&lt;矩形&gt;" class="cls-15" x="94.89" y="1052.42" width="17.32" height="13.51"/><rect id="_矩形_138" data-name="&lt;矩形&gt;" class="cls-15" x="94.89" y="1079.33" width="17.32" height="13.51"/><path id="_路径_32" data-name="&lt;路径&gt;" class="cls-20" d="M108.21,1057.08a4.66,4.66,0,1,1-9.32,0H96.11v8.85H111v-8.85Z"/><path id="_路径_33" data-name="&lt;路径&gt;" class="cls-20" d="M98.89,1088.18a4.66,4.66,0,1,1,9.32,0H111v-8.85H96.11v8.85Z"/><rect id="_矩形_139" data-name="&lt;矩形&gt;" class="cls-21" x="96.93" y="1062.84" width="13.24" height="19.47"/><rect id="_矩形_140" data-name="&lt;矩形&gt;" class="cls-15" x="131.57" y="1052.42" width="17.32" height="13.51"/><rect id="_矩形_141" data-name="&lt;矩形&gt;" class="cls-15" x="131.57" y="1079.33" width="17.32" height="13.51"/><path id="_路径_34" data-name="&lt;路径&gt;" class="cls-11" d="M144.89,1057.08a4.66,4.66,0,1,1-9.32,0h-2.79v8.85h14.89v-8.85Z"/><path id="_路径_35" data-name="&lt;路径&gt;" class="cls-11" d="M135.57,1088.18a4.66,4.66,0,1,1,9.32,0h2.79v-8.85H132.78v8.85Z"/><rect id="_矩形_142" data-name="&lt;矩形&gt;" class="cls-12" x="133.61" y="1062.84" width="13.24" height="19.47"/><g id="_编组_" data-name="&lt;编组&gt;"><g id="_编组_2" data-name="&lt;编组&gt;"><rect id="_矩形_143" data-name="&lt;矩形&gt;" class="cls-22" x="299.4" y="1102.08" width="18.53" height="56.47"/><rect id="_矩形_144" data-name="&lt;矩形&gt;" class="cls-23" x="303.54" y="1107.1" width="10.26" height="52.94" rx="5.13" ry="5.13"/></g><rect id="_矩形_145" data-name="&lt;矩形&gt;" class="cls-24" x="303.54" y="1130.17" width="10.26" height="6.78"/></g><g id="_编组_3" data-name="&lt;编组&gt;"><g id="_编组_4" data-name="&lt;编组&gt;"><rect id="_矩形_146" data-name="&lt;矩形&gt;" class="cls-22" x="335.01" y="1102.08" width="18.53" height="56.47"/><rect id="_矩形_147" data-name="&lt;矩形&gt;" class="cls-23" x="339.15" y="1107.1" width="10.26" height="52.94" rx="5.13" ry="5.13"/></g><rect id="_矩形_148" data-name="&lt;矩形&gt;" class="cls-24" x="339.15" y="1130.17" width="10.26" height="6.78"/></g><g id="_编组_5" data-name="&lt;编组&gt;"><g id="_编组_6" data-name="&lt;编组&gt;"><rect id="_矩形_149" data-name="&lt;矩形&gt;" class="cls-22" x="370.62" y="1102.08" width="18.53" height="56.47"/><rect id="_矩形_150" data-name="&lt;矩形&gt;" class="cls-23" x="374.75" y="1107.1" width="10.26" height="52.94" rx="5.13" ry="5.13"/></g><rect id="_矩形_151" data-name="&lt;矩形&gt;" class="cls-24" x="374.75" y="1130.17" width="10.26" height="6.78"/></g><g id="_编组_7" data-name="&lt;编组&gt;"><g id="_编组_8" data-name="&lt;编组&gt;"><rect id="_矩形_152" data-name="&lt;矩形&gt;" class="cls-22" x="406.22" y="1102.08" width="18.53" height="56.47"/><rect id="_矩形_153" data-name="&lt;矩形&gt;" class="cls-23" x="410.36" y="1107.1" width="10.26" height="52.94" rx="5.13" ry="5.13"/></g><rect id="_矩形_154" data-name="&lt;矩形&gt;" class="cls-24" x="410.36" y="1130.17" width="10.26" height="6.78"/></g><rect id="_矩形_155" data-name="&lt;矩形&gt;" class="cls-25" x="251.54" y="1149.78" width="217.72" height="114.27"/><g id="_编组_9" data-name="&lt;编组&gt;"><rect id="_矩形_156" data-name="&lt;矩形&gt;" class="cls-26" x="301.86" y="1171.18" width="10.26" height="71.47"/><rect id="_矩形_157" data-name="&lt;矩形&gt;" class="cls-26" x="408.68" y="1172.83" width="10.26" height="71.47"/></g><rect id="_矩形_158" data-name="&lt;矩形&gt;" class="cls-27" x="251.54" y="1117.35" width="18.53" height="32.43"/><rect id="_矩形_159" data-name="&lt;矩形&gt;" class="cls-27" x="450.73" y="1117.35" width="18.53" height="32.43"/><rect id="_矩形_160" data-name="&lt;矩形&gt;" class="cls-27" x="298.19" y="1264.04" width="124.41" height="4.08" rx="2.04" ry="2.04"/><path id="_复合路径_6" data-name="&lt;复合路径&gt;" class="cls-25" d="M300.44,1086.92l14-5v0l-14-5V1075l16.21,5.91v1.95l-16.21,5.87Z"/><path id="_复合路径_7" data-name="&lt;复合路径&gt;" class="cls-25" d="M300,1066.57c0-3.68,2.06-5.69,4.23-6.42l.29,1.75a4.67,4.67,0,0,0-3,4.67c0,3.28,2.3,5.45,7,5.45,4.25,0,7-2.21,7-5.45a4.82,4.82,0,0,0-3.21-4.87l.27-1.68a6.42,6.42,0,0,1,4.52,6.55c0,4.69-3.79,7.15-8.55,7.15S300,1071.64,300,1066.57Z"/><path id="_复合路径_8" data-name="&lt;复合路径&gt;" class="cls-25" d="M300,1050.78c0-3.68,2.06-5.69,4.23-6.42l.29,1.75a4.67,4.67,0,0,0-3,4.67c0,3.28,2.3,5.45,7,5.45,4.25,0,7-2.21,7-5.45a4.82,4.82,0,0,0-3.21-4.87l.27-1.68a6.42,6.42,0,0,1,4.52,6.55c0,4.69-3.79,7.15-8.55,7.15S300,1055.86,300,1050.78Z"/><path id="_复合路径_9" data-name="&lt;复合路径&gt;" class="cls-25" d="M407,1081.15c0-4.1,2.35-5.6,4.47-6.51l.29,1.79a4.77,4.77,0,0,0-3.23,4.72c0,3.34,2.86,5.71,7,5.71,4.25,0,7-2.46,7-5.49a5.57,5.57,0,0,0-4.19-5.31H416.5V1081h-1.55v-6.67h8.64v1.55h-3.32a6.14,6.14,0,0,1,3.74,5.69c0,3.61-3.08,7-8.55,7C410.39,1088.57,407,1085.54,407,1081.15Z"/><path id="_复合路径_10" data-name="&lt;复合路径&gt;" class="cls-25" d="M407.37,1068.82l13.46-9.48v0H407.37v-1.71h16.21v1.79l-13.46,9.43,0,0h13.49v1.73H407.37Z"/><path id="_复合路径_11" data-name="&lt;复合路径&gt;" class="cls-25" d="M407.37,1047.9c0-5.29,4.19-7.17,8.08-7.17,4.65,0,8.13,2.3,8.13,7.48v5.58H407.37Zm14.68,4.16v-3.9c0-3.23-2.15-5.74-6.6-5.74-3.08,0-6.55,1.51-6.55,5.78v3.85Z"/><path id="_复合路径_12" data-name="&lt;复合路径&gt;" class="cls-25" d="M383.79,1086.8a4.89,4.89,0,0,0,3.41-4.83c0-2.57-1.59-3.92-2.92-3.92-2,0-3.15,2.78-3.85,4.6-1.26,3.48-2.55,5.58-4.81,5.58-2.87,0-4.72-2.71-4.72-6a6,6,0,0,1,4.06-6l.3,1.94a4.21,4.21,0,0,0-2.76,4.13c0,2.31,1.35,3.95,2.9,3.95,1.73,0,2.5-1.94,3.43-4.37,1.4-3.83,3-5.86,5.21-5.86,2.8,0,4.81,2.41,4.81,6a6.61,6.61,0,0,1-4.76,6.75Z"/><path id="_复合路径_13" data-name="&lt;复合路径&gt;" class="cls-25" d="M370.9,1066c0-3.88,2.17-6,4.46-6.77l.3,1.85a4.92,4.92,0,0,0-3.15,4.93c0,3.46,2.43,5.74,7.33,5.74,4.48,0,7.36-2.33,7.36-5.74a5.08,5.08,0,0,0-3.39-5.14l.28-1.77a6.77,6.77,0,0,1,4.76,6.91c0,5-4,7.54-9,7.54S370.9,1071.33,370.9,1066Z"/><path id="_复合路径_14" data-name="&lt;复合路径&gt;" class="cls-25" d="M371.32,1054.23h15.48v-9.11h1.61v10.93H371.32Z"/><path id="_复合路径_15" data-name="&lt;复合路径&gt;" class="cls-25" d="M347.81,1087a4.42,4.42,0,0,0,3.08-4.36c0-2.32-1.43-3.54-2.63-3.54-1.81,0-2.85,2.51-3.48,4.15-1.14,3.14-2.3,5-4.34,5-2.59,0-4.26-2.45-4.26-5.42a5.37,5.37,0,0,1,3.67-5.42l.27,1.75a3.8,3.8,0,0,0-2.49,3.73c0,2.09,1.22,3.56,2.61,3.56,1.56,0,2.25-1.75,3.1-3.94,1.26-3.46,2.74-5.29,4.7-5.29,2.53,0,4.34,2.17,4.34,5.42a6,6,0,0,1-4.3,6.09Z"/><path id="_复合路径_16" data-name="&lt;复合路径&gt;" class="cls-25" d="M336.55,1068.67c0-5,4-6.83,7.69-6.83,4.43,0,7.73,2.19,7.73,7.12v5.31H336.55Zm14,4v-3.71c0-3.08-2-5.46-6.28-5.46-2.93,0-6.24,1.43-6.24,5.5v3.67Z"/><path id="_复合路径_17" data-name="&lt;复合路径&gt;" class="cls-25" d="M336.55,1054.48v-1.75l15.43-6.09v1.71l-4.4,1.73v7.14L352,1059v1.69Zm9.55,2.15v-6l-7.59,3v0Z"/><g id="_编组_10" data-name="&lt;编组&gt;"><g id="_编组_11" data-name="&lt;编组&gt;"><rect id="_矩形_161" data-name="&lt;矩形&gt;" class="cls-22" x="524.95" y="1102.08" width="18.53" height="56.47"/><rect id="_矩形_162" data-name="&lt;矩形&gt;" class="cls-23" x="529.08" y="1107.1" width="10.26" height="52.94" rx="5.13" ry="5.13"/></g><rect id="_矩形_163" data-name="&lt;矩形&gt;" class="cls-24" x="529.08" y="1130.17" width="10.26" height="6.78"/></g><g id="_编组_12" data-name="&lt;编组&gt;"><g id="_编组_13" data-name="&lt;编组&gt;"><rect id="_矩形_164" data-name="&lt;矩形&gt;" class="cls-22" x="560.55" y="1102.08" width="18.53" height="56.47"/><rect id="_矩形_165" data-name="&lt;矩形&gt;" class="cls-23" x="564.69" y="1107.1" width="10.26" height="52.94" rx="5.13" ry="5.13"/></g><rect id="_矩形_166" data-name="&lt;矩形&gt;" class="cls-24" x="564.69" y="1130.17" width="10.26" height="6.78"/></g><g id="_编组_14" data-name="&lt;编组&gt;"><g id="_编组_15" data-name="&lt;编组&gt;"><rect id="_矩形_167" data-name="&lt;矩形&gt;" class="cls-22" x="596.16" y="1102.08" width="18.53" height="56.47"/><rect id="_矩形_168" data-name="&lt;矩形&gt;" class="cls-23" x="600.3" y="1107.1" width="10.26" height="52.94" rx="5.13" ry="5.13"/></g><rect id="_矩形_169" data-name="&lt;矩形&gt;" class="cls-24" x="600.3" y="1130.17" width="10.26" height="6.78"/></g><g id="_编组_16" data-name="&lt;编组&gt;"><g id="_编组_17" data-name="&lt;编组&gt;"><rect id="_矩形_170" data-name="&lt;矩形&gt;" class="cls-22" x="631.77" y="1102.08" width="18.53" height="56.47"/><rect id="_矩形_171" data-name="&lt;矩形&gt;" class="cls-23" x="635.9" y="1107.1" width="10.26" height="52.94" rx="5.13" ry="5.13"/></g><rect id="_矩形_172" data-name="&lt;矩形&gt;" class="cls-24" x="635.9" y="1130.17" width="10.26" height="6.78"/></g><rect id="_矩形_173" data-name="&lt;矩形&gt;" class="cls-25" x="477.08" y="1149.78" width="217.72" height="114.27"/><g id="_编组_18" data-name="&lt;编组&gt;"><rect id="_矩形_174" data-name="&lt;矩形&gt;" class="cls-26" x="527.4" y="1171.18" width="10.26" height="71.47"/><rect id="_矩形_175" data-name="&lt;矩形&gt;" class="cls-26" x="634.22" y="1172.83" width="10.26" height="71.47"/></g><rect id="_矩形_176" data-name="&lt;矩形&gt;" class="cls-27" x="477.08" y="1117.35" width="18.53" height="32.43"/><rect id="_矩形_177" data-name="&lt;矩形&gt;" class="cls-27" x="676.27" y="1117.35" width="18.53" height="32.43"/><rect id="_矩形_178" data-name="&lt;矩形&gt;" class="cls-27" x="523.73" y="1264.04" width="124.41" height="4.08" rx="2.04" ry="2.04"/><path id="_复合路径_18" data-name="&lt;复合路径&gt;" class="cls-25" d="M526,1086.92l14-5v0l-14-5V1075l16.21,5.91v1.95L526,1088.76Z"/><path id="_复合路径_19" data-name="&lt;复合路径&gt;" class="cls-25" d="M525.59,1066.57c0-3.68,2.06-5.69,4.23-6.42l.29,1.75a4.67,4.67,0,0,0-3,4.67c0,3.28,2.3,5.45,7,5.45,4.25,0,7-2.21,7-5.45a4.82,4.82,0,0,0-3.21-4.87l.27-1.68a6.42,6.42,0,0,1,4.52,6.55c0,4.69-3.79,7.15-8.55,7.15S525.59,1071.64,525.59,1066.57Z"/><path id="_复合路径_20" data-name="&lt;复合路径&gt;" class="cls-25" d="M525.59,1050.78c0-3.68,2.06-5.69,4.23-6.42l.29,1.75a4.67,4.67,0,0,0-3,4.67c0,3.28,2.3,5.45,7,5.45,4.25,0,7-2.21,7-5.45a4.82,4.82,0,0,0-3.21-4.87l.27-1.68a6.42,6.42,0,0,1,4.52,6.55c0,4.69-3.79,7.15-8.55,7.15S525.59,1055.86,525.59,1050.78Z"/><path id="_复合路径_21" data-name="&lt;复合路径&gt;" class="cls-25" d="M632.52,1081.15c0-4.1,2.35-5.6,4.47-6.51l.29,1.79a4.77,4.77,0,0,0-3.23,4.72c0,3.34,2.86,5.71,7,5.71,4.25,0,7-2.46,7-5.49a5.57,5.57,0,0,0-4.19-5.31H642V1081h-1.55v-6.67h8.64v1.55h-3.32a6.14,6.14,0,0,1,3.74,5.69c0,3.61-3.08,7-8.55,7C635.93,1088.57,632.52,1085.54,632.52,1081.15Z"/><path id="_复合路径_22" data-name="&lt;复合路径&gt;" class="cls-25" d="M632.92,1068.82l13.46-9.48v0H632.92v-1.71h16.21v1.79l-13.46,9.43,0,0h13.49v1.73H632.92Z"/><path id="_复合路径_23" data-name="&lt;复合路径&gt;" class="cls-25" d="M632.92,1047.9c0-5.29,4.19-7.17,8.08-7.17,4.65,0,8.13,2.3,8.13,7.48v5.58H632.92Zm14.68,4.16v-3.9c0-3.23-2.15-5.74-6.6-5.74-3.08,0-6.55,1.51-6.55,5.78v3.85Z"/><path id="_复合路径_24" data-name="&lt;复合路径&gt;" class="cls-25" d="M596.91,1076.15h1.61v5.42h15.42v1.79H598.52v5.4h-1.61Z"/><path id="_复合路径_25" data-name="&lt;复合路径&gt;" class="cls-25" d="M596.91,1073.43l6.84-4.61-6.84-4.63v-2.12l8.4,5.68,8.63-5.84V1064l-7.07,4.79,7.07,4.79v2.09l-8.63-5.84-8.4,5.65Z"/><path id="_复合路径_26" data-name="&lt;复合路径&gt;" class="cls-25" d="M596.91,1053.47c0-5.56,4.4-7.54,8.49-7.54,4.89,0,8.54,2.42,8.54,7.86v5.86h-17Zm15.42,4.37v-4.09c0-3.4-2.26-6-6.93-6-3.23,0-6.89,1.58-6.89,6.07v4Z"/><path id="_复合路径_27" data-name="&lt;复合路径&gt;" class="cls-25" d="M561.31,1082.22c0-3.68,1.93-5.37,4.58-5.37a4.81,4.81,0,0,1,4.16,2.79h0c.49-1.42,1.81-2.35,3.84-2.44a17.08,17.08,0,0,0,4.42-.86v1.91a17.45,17.45,0,0,1-4.26.72c-1.91.12-3.16,1.16-3.16,2.93V1087h7.42v1.79h-17Zm8,4.75v-4.65a3.39,3.39,0,0,0-3.3-3.68c-1.86,0-3.07,1.35-3.07,3.84V1087Z"/><path id="_复合路径_28" data-name="&lt;复合路径&gt;" class="cls-25" d="M561.31,1072.82l6.84-4.61-6.84-4.63v-2.12l8.4,5.68,8.63-5.84v2.12l-7.07,4.79,7.07,4.79v2.09l-8.63-5.84-8.4,5.65Z"/><path id="_复合路径_29" data-name="&lt;复合路径&gt;" class="cls-25" d="M561.31,1052.87c0-5.56,4.4-7.54,8.49-7.54,4.89,0,8.54,2.42,8.54,7.86v5.86h-17Zm15.42,4.37v-4.09c0-3.4-2.26-6-6.93-6-3.23,0-6.89,1.58-6.89,6.07v4Z"/><rect id="_矩形_179" data-name="&lt;矩形&gt;" class="cls-10" x="405.6" y="840.36" width="17.32" height="13.51" transform="translate(-432.86 1261.38) rotate(-90)"/><rect id="_矩形_180" data-name="&lt;矩形&gt;" class="cls-10" x="432.52" y="840.36" width="17.32" height="13.51" transform="translate(-405.94 1288.29) rotate(-90)"/><rect id="_矩形_181" data-name="&lt;矩形&gt;" class="cls-13" x="421.04" y="837.38" width="13.24" height="19.47" transform="translate(-419.45 1274.78) rotate(-90)"/><rect id="_矩形_182" data-name="&lt;矩形&gt;" class="cls-14" x="435.85" y="839.81" width="4.74" height="14.67" transform="translate(876.44 1694.29) rotate(180)"/><rect id="_矩形_183" data-name="&lt;矩形&gt;" class="cls-14" x="414.78" y="839.81" width="4.74" height="14.67" transform="translate(834.31 1694.29) rotate(180)"/><rect id="_矩形_184" data-name="&lt;矩形&gt;" class="cls-10" x="405.6" y="699.63" width="17.32" height="13.51" transform="translate(-292.12 1120.65) rotate(-90)"/><rect id="_矩形_185" data-name="&lt;矩形&gt;" class="cls-10" x="432.52" y="699.63" width="17.32" height="13.51" transform="translate(-265.21 1147.56) rotate(-90)"/><rect id="_矩形_186" data-name="&lt;矩形&gt;" class="cls-13" x="421.04" y="696.65" width="13.24" height="19.47" transform="translate(-278.72 1134.05) rotate(-90)"/><rect id="_矩形_187" data-name="&lt;矩形&gt;" class="cls-14" x="435.85" y="699.08" width="4.74" height="14.67" transform="translate(876.44 1412.82) rotate(180)"/><rect id="_矩形_188" data-name="&lt;矩形&gt;" class="cls-14" x="414.78" y="699.08" width="4.74" height="14.67" transform="translate(834.31 1412.82) rotate(180)"/><path id="_矩形_189" data-name="&lt;矩形&gt;" class="cls-28" d="M453.89,825.5H401.43l-4.87-4.87V732.1l4.87-4.87h52.46l4.87,4.87v88.52Z"/><rect id="_路径_36" data-name="&lt;路径&gt;" class="cls-29" x="811.78" y="321.45" width="24.26" height="295.15"/><rect id="_路径_37" data-name="&lt;路径&gt;" class="cls-29" x="710.21" y="321.45" width="24.26" height="295.15"/><rect id="_矩形_190" data-name="&lt;矩形&gt;" class="cls-30" x="813.76" y="583.88" width="20.24" height="5.74" transform="translate(1647.76 1173.5) rotate(180)"/><rect id="_矩形_191" data-name="&lt;矩形&gt;" class="cls-30" x="712.22" y="583.88" width="20.24" height="5.74" transform="translate(1444.69 1173.5) rotate(180)"/><rect id="_矩形_192" data-name="&lt;矩形&gt;" class="cls-30" x="813.76" y="340.2" width="20.24" height="5.74" transform="translate(1647.76 686.14) rotate(180)"/><rect id="_矩形_193" data-name="&lt;矩形&gt;" class="cls-30" x="712.22" y="340.2" width="20.24" height="5.74" transform="translate(1444.69 686.14) rotate(180)"/><rect id="_路径_38" data-name="&lt;路径&gt;" class="cls-31" x="674.51" y="371.84" width="197.24" height="195.91" rx="6.29" ry="6.29"/><circle id="_路径_39" data-name="&lt;路径&gt;" class="cls-32" cx="773.13" cy="468.37" r="116.23"/><circle id="_路径_40" data-name="&lt;路径&gt;" class="cls-33" cx="773.13" cy="468.37" r="107.29"/><rect id="_矩形_194" data-name="&lt;矩形&gt;" class="cls-34" x="41.47" y="255.5" width="253.68" height="131.91"/><rect id="_矩形_195" data-name="&lt;矩形&gt;" class="cls-35" y="271.38" width="41.47" height="100.15"/><rect id="_矩形_196" data-name="&lt;矩形&gt;" class="cls-34" x="41.47" y="792.85" width="253.68" height="131.91"/><rect id="_矩形_197" data-name="&lt;矩形&gt;" class="cls-36" y="808.74" width="41.47" height="100.15"/><circle id="_路径_41" data-name="&lt;路径&gt;" class="cls-37" cx="131.57" cy="596.97" r="103.24"/><circle id="_路径_42" data-name="&lt;路径&gt;" class="cls-38" cx="131.57" cy="596.97" r="100.26"/><rect id="_矩形_198" data-name="&lt;矩形&gt;" class="cls-39" x="75.56" y="760.65" width="27.13" height="32.21"/><rect id="_矩形_199" data-name="&lt;矩形&gt;" class="cls-39" x="75.45" y="924.77" width="27.13" height="32.21"/><rect id="_矩形_200" data-name="&lt;矩形&gt;" class="cls-39" x="138.32" y="924.77" width="27.13" height="32.21"/><rect id="_矩形_201" data-name="&lt;矩形&gt;" class="cls-39" x="249.61" y="924.77" width="27.13" height="32.21"/><rect id="_矩形_202" data-name="&lt;矩形&gt;" class="cls-39" x="215.64" y="760.65" width="27.13" height="32.21"/><rect id="_矩形_203" data-name="&lt;矩形&gt;" class="cls-39" x="263.28" y="760.65" width="27.13" height="32.21"/><rect id="_矩形_204" data-name="&lt;矩形&gt;" class="cls-39" x="75.56" y="223.29" width="27.13" height="32.21"/><rect id="_矩形_205" data-name="&lt;矩形&gt;" class="cls-39" x="75.45" y="387.41" width="27.13" height="32.21"/><rect id="_矩形_206" data-name="&lt;矩形&gt;" class="cls-39" x="138.32" y="387.41" width="27.13" height="32.21"/><rect id="_矩形_207" data-name="&lt;矩形&gt;" class="cls-39" x="249.61" y="387.41" width="27.13" height="32.21"/><rect id="_矩形_208" data-name="&lt;矩形&gt;" class="cls-39" x="215.64" y="223.29" width="27.13" height="32.21"/><rect id="_矩形_209" data-name="&lt;矩形&gt;" class="cls-39" x="263.28" y="223.29" width="27.13" height="32.21"/><rect id="_矩形_210" data-name="&lt;矩形&gt;" class="cls-40" x="545.09" y="652.65" width="10.11" height="258.21" rx="4.59" ry="4.59"/><rect id="_矩形_211" data-name="&lt;矩形&gt;" class="cls-40" x="560.8" y="652.65" width="10.11" height="258.21" rx="4.59" ry="4.59"/><rect id="_矩形_212" data-name="&lt;矩形&gt;" class="cls-40" x="576.52" y="652.65" width="10.11" height="258.21" rx="4.59" ry="4.59"/><rect id="_矩形_213" data-name="&lt;矩形&gt;" class="cls-40" x="592.23" y="652.65" width="10.11" height="258.21" rx="4.59" ry="4.59"/><rect id="_矩形_214" data-name="&lt;矩形&gt;" class="cls-40" x="607.94" y="652.65" width="10.11" height="258.21" rx="4.59" ry="4.59"/><rect id="_矩形_215" data-name="&lt;矩形&gt;" class="cls-40" x="623.65" y="652.65" width="10.11" height="258.21" rx="4.59" ry="4.59"/><rect id="_矩形_216" data-name="&lt;矩形&gt;" class="cls-40" x="639.36" y="652.65" width="10.11" height="258.21" rx="4.59" ry="4.59"/><rect id="_矩形_217" data-name="&lt;矩形&gt;" class="cls-40" x="655.08" y="652.65" width="10.11" height="258.21" rx="4.59" ry="4.59"/><rect id="_矩形_218" data-name="&lt;矩形&gt;" class="cls-40" x="670.79" y="652.65" width="10.11" height="258.21" rx="4.59" ry="4.59"/><rect id="_矩形_219" data-name="&lt;矩形&gt;" class="cls-40" x="686.5" y="652.65" width="10.11" height="258.21" rx="4.59" ry="4.59"/><rect id="_矩形_220" data-name="&lt;矩形&gt;" class="cls-40" x="702.21" y="652.65" width="10.11" height="258.21" rx="4.59" ry="4.59"/><rect id="_矩形_221" data-name="&lt;矩形&gt;" class="cls-40" x="623.71" y="577.1" width="10.11" height="258.21" rx="4.59" ry="4.59" transform="translate(1334.97 77.44) rotate(90)"/><rect id="_矩形_222" data-name="&lt;矩形&gt;" class="cls-40" x="623.71" y="592.81" width="10.11" height="258.21" rx="4.59" ry="4.59" transform="translate(1350.68 93.15) rotate(90)"/><rect id="_矩形_223" data-name="&lt;矩形&gt;" class="cls-40" x="623.71" y="608.52" width="10.11" height="258.21" rx="4.59" ry="4.59" transform="translate(1366.39 108.86) rotate(90)"/><rect id="_矩形_224" data-name="&lt;矩形&gt;" class="cls-40" x="623.71" y="624.23" width="10.11" height="258.21" rx="4.59" ry="4.59" transform="translate(1382.1 124.57) rotate(90)"/><rect id="_矩形_225" data-name="&lt;矩形&gt;" class="cls-40" x="623.71" y="639.94" width="10.11" height="258.21" rx="4.59" ry="4.59" transform="translate(1397.82 140.29) rotate(90)"/><rect id="_矩形_226" data-name="&lt;矩形&gt;" class="cls-40" x="623.71" y="655.66" width="10.11" height="258.21" rx="4.59" ry="4.59" transform="translate(1413.53 156) rotate(90)"/><rect id="_矩形_227" data-name="&lt;矩形&gt;" class="cls-40" x="623.71" y="671.37" width="10.11" height="258.21" rx="4.59" ry="4.59" transform="translate(1429.24 171.71) rotate(90)"/><rect id="_矩形_228" data-name="&lt;矩形&gt;" class="cls-40" x="623.71" y="687.08" width="10.11" height="258.21" rx="4.59" ry="4.59" transform="translate(1444.95 187.42) rotate(90)"/><rect id="_矩形_229" data-name="&lt;矩形&gt;" class="cls-40" x="623.71" y="702.79" width="10.11" height="258.21" rx="4.59" ry="4.59" transform="translate(1460.66 203.14) rotate(90)"/><rect id="_矩形_230" data-name="&lt;矩形&gt;" class="cls-40" x="623.71" y="718.51" width="10.11" height="258.21" rx="4.59" ry="4.59" transform="translate(1476.38 218.85) rotate(90)"/><rect id="_矩形_231" data-name="&lt;矩形&gt;" class="cls-40" x="623.71" y="734.22" width="10.11" height="258.21" rx="4.59" ry="4.59" transform="translate(1492.09 234.56) rotate(90)"/><rect id="_矩形_232" data-name="&lt;矩形&gt;" class="cls-41" x="403.96" y="368.12" width="6.62" height="173.53" rx="3.04" ry="3.04"/><rect id="_矩形_233" data-name="&lt;矩形&gt;" class="cls-41" x="415.28" y="368.12" width="6.62" height="173.53" rx="3.04" ry="3.04"/><rect id="_矩形_234" data-name="&lt;矩形&gt;" class="cls-41" x="426.6" y="368.12" width="6.62" height="173.53" rx="3.04" ry="3.04"/><rect id="_矩形_235" data-name="&lt;矩形&gt;" class="cls-41" x="437.92" y="368.12" width="6.62" height="173.53" rx="3.04" ry="3.04"/><rect id="_矩形_236" data-name="&lt;矩形&gt;" class="cls-41" x="449.23" y="368.12" width="6.62" height="173.53" rx="3.04" ry="3.04"/><rect id="_矩形_237" data-name="&lt;矩形&gt;" class="cls-41" x="460.55" y="368.12" width="6.62" height="173.53" rx="3.04" ry="3.04"/><rect id="_矩形_238" data-name="&lt;矩形&gt;" class="cls-41" x="471.87" y="368.12" width="6.62" height="173.53" rx="3.04" ry="3.04"/><rect id="_矩形_239" data-name="&lt;矩形&gt;" class="cls-41" x="483.19" y="368.12" width="6.62" height="173.53" rx="3.04" ry="3.04"/><rect id="_矩形_240" data-name="&lt;矩形&gt;" class="cls-41" x="494.51" y="368.12" width="6.62" height="173.53" rx="3.04" ry="3.04"/><rect id="_矩形_241" data-name="&lt;矩形&gt;" class="cls-41" x="505.83" y="368.12" width="6.62" height="173.53" rx="3.04" ry="3.04"/><rect id="_矩形_242" data-name="&lt;矩形&gt;" class="cls-41" x="517.15" y="368.12" width="6.62" height="173.53" rx="3.04" ry="3.04"/><rect id="_矩形_243" data-name="&lt;矩形&gt;" class="cls-41" x="528.46" y="368.12" width="6.62" height="173.53" rx="3.04" ry="3.04"/><rect id="_矩形_244" data-name="&lt;矩形&gt;" class="cls-41" x="466.21" y="305.87" width="6.62" height="173.53" rx="3.04" ry="3.04" transform="translate(862.15 -76.89) rotate(90)"/><rect id="_矩形_245" data-name="&lt;矩形&gt;" class="cls-41" x="466.21" y="317.19" width="6.62" height="173.53" rx="3.04" ry="3.04" transform="translate(873.47 -65.57) rotate(90)"/><rect id="_矩形_246" data-name="&lt;矩形&gt;" class="cls-41" x="466.21" y="328.5" width="6.62" height="173.53" rx="3.04" ry="3.04" transform="translate(884.79 -54.25) rotate(90)"/><rect id="_矩形_247" data-name="&lt;矩形&gt;" class="cls-41" x="466.21" y="339.82" width="6.62" height="173.53" rx="3.04" ry="3.04" transform="translate(896.11 -42.94) rotate(90)"/><rect id="_矩形_248" data-name="&lt;矩形&gt;" class="cls-41" x="466.21" y="351.14" width="6.62" height="173.53" rx="3.04" ry="3.04" transform="translate(907.43 -31.62) rotate(90)"/><rect id="_矩形_249" data-name="&lt;矩形&gt;" class="cls-41" x="466.21" y="362.46" width="6.62" height="173.53" rx="3.04" ry="3.04" transform="translate(918.74 -20.3) rotate(90)"/><rect id="_矩形_250" data-name="&lt;矩形&gt;" class="cls-41" x="466.21" y="373.78" width="6.62" height="173.53" rx="3.04" ry="3.04" transform="translate(930.06 -8.98) rotate(90)"/><rect id="_矩形_251" data-name="&lt;矩形&gt;" class="cls-41" x="466.21" y="385.1" width="6.62" height="173.53" rx="3.04" ry="3.04" transform="translate(941.38 2.34) rotate(90)"/><rect id="_矩形_252" data-name="&lt;矩形&gt;" class="cls-41" x="466.21" y="396.41" width="6.62" height="173.53" rx="3.04" ry="3.04" transform="translate(952.7 13.66) rotate(90)"/><rect id="_矩形_253" data-name="&lt;矩形&gt;" class="cls-41" x="466.21" y="407.73" width="6.62" height="173.53" rx="3.04" ry="3.04" transform="translate(964.02 24.98) rotate(90)"/><rect id="_矩形_254" data-name="&lt;矩形&gt;" class="cls-41" x="466.21" y="419.05" width="6.62" height="173.53" rx="3.04" ry="3.04" transform="translate(975.34 36.29) rotate(90)"/><rect id="_矩形_255" data-name="&lt;矩形&gt;" class="cls-41" x="466.21" y="430.37" width="6.62" height="173.53" rx="3.04" ry="3.04" transform="translate(986.66 47.61) rotate(90)"/><rect id="_矩形_256" data-name="&lt;矩形&gt;" class="cls-42" x="394.74" y="379.77" width="149.56" height="150.22"/><path id="_矩形_257" data-name="&lt;矩形&gt;" class="cls-43" d="M718.35,883.86H539.18L528,872.7V696.83l11.17-11.17H718.35l11.17,11.17V872.7Z"/><rect id="_矩形_258" data-name="&lt;矩形&gt;" class="cls-44" x="546.79" y="665.31" width="6.95" height="20.35"/><rect id="_矩形_259" data-name="&lt;矩形&gt;" class="cls-45" x="546.79" y="675.05" width="6.95" height="4.25"/><rect id="_矩形_260" data-name="&lt;矩形&gt;" class="cls-44" x="562.49" y="665.31" width="6.95" height="20.35"/><rect id="_矩形_261" data-name="&lt;矩形&gt;" class="cls-45" x="562.49" y="675.05" width="6.95" height="4.25"/><rect id="_矩形_262" data-name="&lt;矩形&gt;" class="cls-44" x="578.19" y="665.31" width="6.95" height="20.35"/><rect id="_矩形_263" data-name="&lt;矩形&gt;" class="cls-45" x="578.19" y="675.05" width="6.95" height="4.25"/><rect id="_矩形_264" data-name="&lt;矩形&gt;" class="cls-44" x="593.89" y="665.31" width="6.95" height="20.35"/><rect id="_矩形_265" data-name="&lt;矩形&gt;" class="cls-45" x="593.89" y="675.05" width="6.95" height="4.25"/><rect id="_矩形_266" data-name="&lt;矩形&gt;" class="cls-44" x="609.59" y="665.31" width="6.95" height="20.35"/><rect id="_矩形_267" data-name="&lt;矩形&gt;" class="cls-45" x="609.59" y="675.05" width="6.95" height="4.25"/><rect id="_矩形_268" data-name="&lt;矩形&gt;" class="cls-44" x="625.29" y="665.31" width="6.95" height="20.35"/><rect id="_矩形_269" data-name="&lt;矩形&gt;" class="cls-45" x="625.29" y="675.05" width="6.95" height="4.25"/><rect id="_矩形_270" data-name="&lt;矩形&gt;" class="cls-44" x="640.99" y="665.31" width="6.95" height="20.35"/><rect id="_矩形_271" data-name="&lt;矩形&gt;" class="cls-45" x="640.99" y="675.05" width="6.95" height="4.25"/><rect id="_矩形_272" data-name="&lt;矩形&gt;" class="cls-44" x="656.69" y="665.31" width="6.95" height="20.35"/><rect id="_矩形_273" data-name="&lt;矩形&gt;" class="cls-45" x="656.69" y="675.05" width="6.95" height="4.25"/><rect id="_矩形_274" data-name="&lt;矩形&gt;" class="cls-44" x="672.39" y="665.31" width="6.95" height="20.35"/><rect id="_矩形_275" data-name="&lt;矩形&gt;" class="cls-45" x="672.39" y="675.05" width="6.95" height="4.25"/><rect id="_矩形_276" data-name="&lt;矩形&gt;" class="cls-44" x="688.09" y="665.31" width="6.95" height="20.35"/><rect id="_矩形_277" data-name="&lt;矩形&gt;" class="cls-45" x="688.09" y="675.05" width="6.95" height="4.25"/><rect id="_矩形_278" data-name="&lt;矩形&gt;" class="cls-44" x="703.79" y="665.31" width="6.95" height="20.35"/><rect id="_矩形_279" data-name="&lt;矩形&gt;" class="cls-45" x="703.79" y="675.05" width="6.95" height="4.25"/><rect id="_矩形_280" data-name="&lt;矩形&gt;" class="cls-44" x="703.79" y="883.86" width="6.95" height="20.35" transform="translate(1414.53 1788.08) rotate(180)"/><rect id="_矩形_281" data-name="&lt;矩形&gt;" class="cls-45" x="703.79" y="890.23" width="6.95" height="4.25" transform="translate(1414.53 1784.71) rotate(180)"/><rect id="_矩形_282" data-name="&lt;矩形&gt;" class="cls-44" x="688.09" y="883.86" width="6.95" height="20.35" transform="translate(1383.13 1788.08) rotate(180)"/><rect id="_矩形_283" data-name="&lt;矩形&gt;" class="cls-45" x="688.09" y="890.23" width="6.95" height="4.25" transform="translate(1383.13 1784.71) rotate(180)"/><rect id="_矩形_284" data-name="&lt;矩形&gt;" class="cls-44" x="672.39" y="883.86" width="6.95" height="20.35" transform="translate(1351.73 1788.08) rotate(180)"/><rect id="_矩形_285" data-name="&lt;矩形&gt;" class="cls-45" x="672.39" y="890.23" width="6.95" height="4.25" transform="translate(1351.73 1784.71) rotate(180)"/><rect id="_矩形_286" data-name="&lt;矩形&gt;" class="cls-44" x="656.69" y="883.86" width="6.95" height="20.35" transform="translate(1320.33 1788.08) rotate(180)"/><rect id="_矩形_287" data-name="&lt;矩形&gt;" class="cls-45" x="656.69" y="890.23" width="6.95" height="4.25" transform="translate(1320.33 1784.71) rotate(180)"/><rect id="_矩形_288" data-name="&lt;矩形&gt;" class="cls-44" x="640.99" y="883.86" width="6.95" height="20.35" transform="translate(1288.93 1788.08) rotate(180)"/><rect id="_矩形_289" data-name="&lt;矩形&gt;" class="cls-45" x="640.99" y="890.23" width="6.95" height="4.25" transform="translate(1288.93 1784.71) rotate(180)"/><rect id="_矩形_290" data-name="&lt;矩形&gt;" class="cls-44" x="625.29" y="883.86" width="6.95" height="20.35" transform="translate(1257.53 1788.08) rotate(180)"/><rect id="_矩形_291" data-name="&lt;矩形&gt;" class="cls-45" x="625.29" y="890.23" width="6.95" height="4.25" transform="translate(1257.53 1784.71) rotate(180)"/><rect id="_矩形_292" data-name="&lt;矩形&gt;" class="cls-44" x="609.59" y="883.86" width="6.95" height="20.35" transform="translate(1226.13 1788.08) rotate(180)"/><rect id="_矩形_293" data-name="&lt;矩形&gt;" class="cls-45" x="609.59" y="890.23" width="6.95" height="4.25" transform="translate(1226.13 1784.71) rotate(180)"/><rect id="_矩形_294" data-name="&lt;矩形&gt;" class="cls-44" x="593.89" y="883.86" width="6.95" height="20.35" transform="translate(1194.73 1788.08) rotate(180)"/><rect id="_矩形_295" data-name="&lt;矩形&gt;" class="cls-45" x="593.89" y="890.23" width="6.95" height="4.25" transform="translate(1194.73 1784.71) rotate(180)"/><rect id="_矩形_296" data-name="&lt;矩形&gt;" class="cls-44" x="578.19" y="883.86" width="6.95" height="20.35" transform="translate(1163.33 1788.08) rotate(180)"/><rect id="_矩形_297" data-name="&lt;矩形&gt;" class="cls-45" x="578.19" y="890.23" width="6.95" height="4.25" transform="translate(1163.33 1784.71) rotate(180)"/><rect id="_矩形_298" data-name="&lt;矩形&gt;" class="cls-44" x="562.49" y="883.86" width="6.95" height="20.35" transform="translate(1131.93 1788.08) rotate(180)"/><rect id="_矩形_299" data-name="&lt;矩形&gt;" class="cls-45" x="562.49" y="890.23" width="6.95" height="4.25" transform="translate(1131.93 1784.71) rotate(180)"/><rect id="_矩形_300" data-name="&lt;矩形&gt;" class="cls-44" x="546.79" y="883.86" width="6.95" height="20.35" transform="translate(1100.52 1788.08) rotate(180)"/><rect id="_矩形_301" data-name="&lt;矩形&gt;" class="cls-45" x="546.79" y="890.23" width="6.95" height="4.25" transform="translate(1100.52 1784.71) rotate(180)"/><rect id="_矩形_302" data-name="&lt;矩形&gt;" class="cls-44" x="736.22" y="696.09" width="6.95" height="20.35" transform="translate(1445.95 -33.43) rotate(90)"/><rect id="_矩形_303" data-name="&lt;矩形&gt;" class="cls-45" x="734.54" y="704.14" width="6.95" height="4.25" transform="translate(1444.27 -31.75) rotate(90)"/><rect id="_矩形_304" data-name="&lt;矩形&gt;" class="cls-44" x="736.22" y="711.79" width="6.95" height="20.35" transform="translate(1461.65 -17.73) rotate(90)"/><rect id="_矩形_305" data-name="&lt;矩形&gt;" class="cls-45" x="734.54" y="719.84" width="6.95" height="4.25" transform="translate(1459.97 -16.05) rotate(90)"/><rect id="_矩形_306" data-name="&lt;矩形&gt;" class="cls-44" x="736.22" y="727.49" width="6.95" height="20.35" transform="translate(1477.36 -2.03) rotate(90)"/><rect id="_矩形_307" data-name="&lt;矩形&gt;" class="cls-45" x="734.54" y="735.54" width="6.95" height="4.25" transform="translate(1475.67 -0.35) rotate(90)"/><rect id="_矩形_308" data-name="&lt;矩形&gt;" class="cls-44" x="736.22" y="743.19" width="6.95" height="20.35" transform="translate(1493.06 13.67) rotate(90)"/><rect id="_矩形_309" data-name="&lt;矩形&gt;" class="cls-45" x="734.54" y="751.24" width="6.95" height="4.25" transform="translate(1491.37 15.35) rotate(90)"/><rect id="_矩形_310" data-name="&lt;矩形&gt;" class="cls-44" x="736.22" y="758.89" width="6.95" height="20.35" transform="translate(1508.76 29.37) rotate(90)"/><rect id="_矩形_311" data-name="&lt;矩形&gt;" class="cls-45" x="734.54" y="766.94" width="6.95" height="4.25" transform="translate(1507.07 31.05) rotate(90)"/><rect id="_矩形_312" data-name="&lt;矩形&gt;" class="cls-44" x="736.22" y="774.59" width="6.95" height="20.35" transform="translate(1524.46 45.07) rotate(90)"/><rect id="_矩形_313" data-name="&lt;矩形&gt;" class="cls-45" x="734.54" y="782.64" width="6.95" height="4.25" transform="translate(1522.77 46.75) rotate(90)"/><rect id="_矩形_314" data-name="&lt;矩形&gt;" class="cls-44" x="736.22" y="790.29" width="6.95" height="20.35" transform="translate(1540.16 60.77) rotate(90)"/><rect id="_矩形_315" data-name="&lt;矩形&gt;" class="cls-45" x="734.54" y="798.34" width="6.95" height="4.25" transform="translate(1538.48 62.45) rotate(90)"/><rect id="_矩形_316" data-name="&lt;矩形&gt;" class="cls-44" x="736.22" y="805.99" width="6.95" height="20.35" transform="translate(1555.86 76.47) rotate(90)"/><rect id="_矩形_317" data-name="&lt;矩形&gt;" class="cls-45" x="734.54" y="814.04" width="6.95" height="4.25" transform="translate(1554.18 78.15) rotate(90)"/><rect id="_矩形_318" data-name="&lt;矩形&gt;" class="cls-44" x="736.22" y="821.69" width="6.95" height="20.35" transform="translate(1571.56 92.17) rotate(90)"/><rect id="_矩形_319" data-name="&lt;矩形&gt;" class="cls-45" x="734.54" y="829.74" width="6.95" height="4.25" transform="translate(1569.88 93.85) rotate(90)"/><rect id="_矩形_320" data-name="&lt;矩形&gt;" class="cls-44" x="736.22" y="837.39" width="6.95" height="20.35" transform="translate(1587.26 107.87) rotate(90)"/><rect id="_矩形_321" data-name="&lt;矩形&gt;" class="cls-45" x="734.54" y="845.44" width="6.95" height="4.25" transform="translate(1585.58 109.55) rotate(90)"/><rect id="_矩形_322" data-name="&lt;矩形&gt;" class="cls-44" x="736.22" y="853.09" width="6.95" height="20.35" transform="translate(1602.96 123.57) rotate(90)"/><rect id="_矩形_323" data-name="&lt;矩形&gt;" class="cls-45" x="734.54" y="861.14" width="6.95" height="4.25" transform="translate(1601.28 125.25) rotate(90)"/><rect id="_矩形_324" data-name="&lt;矩形&gt;" class="cls-44" x="514.36" y="853.09" width="6.95" height="20.35" transform="translate(-345.43 1381.1) rotate(-90)"/><rect id="_矩形_325" data-name="&lt;矩形&gt;" class="cls-45" x="516.04" y="861.14" width="6.95" height="4.25" transform="translate(-343.75 1382.78) rotate(-90)"/><rect id="_矩形_326" data-name="&lt;矩形&gt;" class="cls-44" x="514.36" y="837.39" width="6.95" height="20.35" transform="translate(-329.73 1365.4) rotate(-90)"/><rect id="_矩形_327" data-name="&lt;矩形&gt;" class="cls-45" x="516.04" y="845.44" width="6.95" height="4.25" transform="translate(-328.05 1367.08) rotate(-90)"/><rect id="_矩形_328" data-name="&lt;矩形&gt;" class="cls-44" x="514.36" y="821.69" width="6.95" height="20.35" transform="translate(-314.03 1349.7) rotate(-90)"/><rect id="_矩形_329" data-name="&lt;矩形&gt;" class="cls-45" x="516.04" y="829.74" width="6.95" height="4.25" transform="translate(-312.35 1351.38) rotate(-90)"/><rect id="_矩形_330" data-name="&lt;矩形&gt;" class="cls-44" x="514.36" y="805.99" width="6.95" height="20.35" transform="translate(-298.33 1334) rotate(-90)"/><rect id="_矩形_331" data-name="&lt;矩形&gt;" class="cls-45" x="516.04" y="814.04" width="6.95" height="4.25" transform="translate(-296.65 1335.68) rotate(-90)"/><rect id="_矩形_332" data-name="&lt;矩形&gt;" class="cls-44" x="514.36" y="790.29" width="6.95" height="20.35" transform="translate(-282.63 1318.3) rotate(-90)"/><rect id="_矩形_333" data-name="&lt;矩形&gt;" class="cls-45" x="516.04" y="798.34" width="6.95" height="4.25" transform="translate(-280.95 1319.98) rotate(-90)"/><rect id="_矩形_334" data-name="&lt;矩形&gt;" class="cls-44" x="514.36" y="774.59" width="6.95" height="20.35" transform="translate(-266.93 1302.6) rotate(-90)"/><rect id="_矩形_335" data-name="&lt;矩形&gt;" class="cls-45" x="516.04" y="782.64" width="6.95" height="4.25" transform="translate(-265.25 1304.28) rotate(-90)"/><rect id="_矩形_336" data-name="&lt;矩形&gt;" class="cls-44" x="514.36" y="758.89" width="6.95" height="20.35" transform="translate(-251.23 1286.9) rotate(-90)"/><rect id="_矩形_337" data-name="&lt;矩形&gt;" class="cls-45" x="516.04" y="766.94" width="6.95" height="4.25" transform="translate(-249.55 1288.58) rotate(-90)"/><rect id="_矩形_338" data-name="&lt;矩形&gt;" class="cls-44" x="514.36" y="743.19" width="6.95" height="20.35" transform="translate(-235.53 1271.2) rotate(-90)"/><rect id="_矩形_339" data-name="&lt;矩形&gt;" class="cls-45" x="516.04" y="751.24" width="6.95" height="4.25" transform="translate(-233.84 1272.88) rotate(-90)"/><rect id="_矩形_340" data-name="&lt;矩形&gt;" class="cls-44" x="514.36" y="727.49" width="6.95" height="20.35" transform="translate(-219.83 1255.5) rotate(-90)"/><rect id="_矩形_341" data-name="&lt;矩形&gt;" class="cls-45" x="516.04" y="735.54" width="6.95" height="4.25" transform="translate(-218.14 1257.18) rotate(-90)"/><rect id="_矩形_342" data-name="&lt;矩形&gt;" class="cls-44" x="514.36" y="711.79" width="6.95" height="20.35" transform="translate(-204.13 1239.8) rotate(-90)"/><rect id="_矩形_343" data-name="&lt;矩形&gt;" class="cls-45" x="516.04" y="719.84" width="6.95" height="4.25" transform="translate(-202.44 1241.48) rotate(-90)"/><rect id="_矩形_344" data-name="&lt;矩形&gt;" class="cls-44" x="514.36" y="696.09" width="6.95" height="20.35" transform="translate(-188.43 1224.1) rotate(-90)"/><rect id="_矩形_345" data-name="&lt;矩形&gt;" class="cls-45" x="516.04" y="704.14" width="6.95" height="4.25" transform="translate(-186.74 1225.78) rotate(-90)"/></g></g></svg>