<svg xmlns="http://www.w3.org/2000/svg" viewBox="0 0 442.89 928.09"><defs><style>.cls-1{fill:#353535;}.cls-2,.cls-21,.cls-28,.cls-36,.cls-38{fill:none;}.cls-10,.cls-2,.cls-21,.cls-24,.cls-4{stroke:#fff;}.cls-10,.cls-14,.cls-18,.cls-2,.cls-20,.cls-21,.cls-24,.cls-27,.cls-36,.cls-38,.cls-4{stroke-miterlimit:10;}.cls-2{stroke-width:3.31px;}.cls-3{fill:#f2cb6b;}.cls-4{fill:#d0ab3c;stroke-width:1.99px;}.cls-5{fill:#f0c581;}.cls-6{fill:#c8a266;}.cls-7{fill:#fff;}.cls-8{fill:#f4cb70;}.cls-9{fill:#c6c5c5;}.cls-10{fill:#9b9b9b;}.cls-10,.cls-14,.cls-18,.cls-20,.cls-21{stroke-width:0.66px;}.cls-11{fill:#d2d3d3;}.cls-12{fill:#030000;}.cls-13{fill:#bb8c27;}.cls-14{fill:#ff4a5c;stroke:#681216;}.cls-15,.cls-24{fill:#d9b13b;}.cls-16{fill:#e4c55b;}.cls-17{fill:#de7215;}.cls-18{fill:#f99f46;stroke:#ef973f;}.cls-19{fill:#aaa;}.cls-20{fill:#514f50;stroke:#494646;}.cls-22{fill:#c7c6c6;}.cls-23{fill:#a6a6a6;}.cls-24{stroke-width:0.33px;}.cls-25{fill:#d1d1d1;}.cls-26{fill:#a7a7a7;}.cls-27{stroke:#11100e;stroke-width:1.05px;}.cls-29{fill:#191919;}.cls-30{fill:#b2b2b2;}.cls-31{fill:#d6d6d6;}.cls-32{fill:#efefef;}.cls-33{fill:#e1b838;}.cls-34{fill:#e1b737;}.cls-35{fill:#515151;}.cls-36{stroke:#f9d27a;}.cls-36,.cls-38{stroke-width:7px;}.cls-37{fill:#727171;}.cls-38{stroke:#727171;}</style></defs><title>WiFi转串口模块</title><g id="图层_2" data-name="图层 2"><g id="图层_1-2" data-name="图层 1"><path id="_复合路径_" data-name="&lt;复合路径&gt;" class="cls-1" d="M385,0h-327A57.92,57.92,0,0,0,0,57.92V870.17a57.92,57.92,0,0,0,57.92,57.92H385a57.92,57.92,0,0,0,57.92-57.92V57.92A57.92,57.92,0,0,0,385,0Zm13.12,549.87a6.37,6.37,0,1,1,0,9A6.37,6.37,0,0,1,398.09,549.87Zm-21.15-12.49a6.37,6.37,0,1,1-6.37,6.37A6.37,6.37,0,0,1,376.94,537.38Zm-30.15,12.49a6.37,6.37,0,1,1,0,9A6.37,6.37,0,0,1,346.79,549.87Zm-259.7,0a6.37,6.37,0,1,1,0,9A6.37,6.37,0,0,1,87.09,549.87ZM65.94,537.38a6.37,6.37,0,1,1-6.37,6.37A6.37,6.37,0,0,1,65.94,537.38ZM35.79,549.87a6.37,6.37,0,1,1,0,9A6.37,6.37,0,0,1,35.79,549.87ZM23.3,580a6.37,6.37,0,1,1,6.37,6.37A6.37,6.37,0,0,1,23.3,580Zm21.5,30.15a6.37,6.37,0,1,1,0-9A6.37,6.37,0,0,1,44.8,610.17Zm21.15,12.49a6.37,6.37,0,1,1,6.37-6.37A6.37,6.37,0,0,1,65.94,622.66Zm0-17A25.65,25.65,0,1,1,91.59,580,25.65,25.65,0,0,1,65.94,605.67Zm30.15,4.5a6.37,6.37,0,1,1,0-9A6.37,6.37,0,0,1,96.1,610.17Zm6.12-23.78a6.37,6.37,0,1,1,6.37-6.37A6.37,6.37,0,0,1,102.22,586.39ZM334.3,580a6.37,6.37,0,1,1,6.37,6.37A6.37,6.37,0,0,1,334.3,580Zm21.5,30.15a6.37,6.37,0,1,1,0-9A6.37,6.37,0,0,1,355.8,610.17Zm21.15,12.49a6.37,6.37,0,1,1,6.37-6.37A6.37,6.37,0,0,1,376.94,622.66Zm0-17A25.65,25.65,0,1,1,402.59,580,25.65,25.65,0,0,1,376.94,605.67Zm30.15,4.5a6.37,6.37,0,1,1,0-9A6.37,6.37,0,0,1,407.1,610.17Zm6.12-23.78a6.37,6.37,0,1,1,6.37-6.37A6.37,6.37,0,0,1,413.22,586.39Z"/><circle id="_路径_" data-name="&lt;路径&gt;" class="cls-2" cx="65.94" cy="580.02" r="48.21"/><circle id="_路径_2" data-name="&lt;路径&gt;" class="cls-2" cx="376.94" cy="580.02" r="48.21"/><path id="_复合路径_2" data-name="&lt;复合路径&gt;" class="cls-3" d="M376.94,531.66A48.37,48.37,0,1,0,425.31,580,48.42,48.42,0,0,0,376.94,531.66Zm21.15,18.21a6.37,6.37,0,1,1,0,9A6.37,6.37,0,0,1,398.09,549.87Zm-21.15-12.49a6.37,6.37,0,1,1-6.37,6.37A6.37,6.37,0,0,1,376.94,537.38Zm-30.15,12.49a6.37,6.37,0,1,1,0,9A6.37,6.37,0,0,1,346.79,549.87Zm-6.12,36.52A6.37,6.37,0,1,1,347,580,6.37,6.37,0,0,1,340.67,586.39Zm15.13,23.78a6.37,6.37,0,1,1,0-9A6.37,6.37,0,0,1,355.8,610.17Zm21.15,12.49a6.37,6.37,0,1,1,6.37-6.37A6.37,6.37,0,0,1,376.94,622.66Zm0-18.46A24.18,24.18,0,1,1,401.13,580,24.21,24.21,0,0,1,376.94,604.2Zm30.15,6a6.37,6.37,0,1,1,0-9A6.37,6.37,0,0,1,407.1,610.17Zm6.12-23.78a6.37,6.37,0,1,1,6.37-6.37A6.37,6.37,0,0,1,413.22,586.39Z"/><path id="_复合路径_3" data-name="&lt;复合路径&gt;" class="cls-3" d="M65.94,531.66A48.37,48.37,0,1,0,114.31,580,48.42,48.42,0,0,0,65.94,531.66Zm21.15,18.21a6.37,6.37,0,1,1,0,9A6.37,6.37,0,0,1,87.09,549.87ZM65.94,537.38a6.37,6.37,0,1,1-6.37,6.37A6.37,6.37,0,0,1,65.94,537.38ZM35.79,549.87a6.37,6.37,0,1,1,0,9A6.37,6.37,0,0,1,35.79,549.87Zm-6.12,36.52A6.37,6.37,0,1,1,36,580,6.37,6.37,0,0,1,29.67,586.39ZM44.8,610.17a6.37,6.37,0,1,1,0-9A6.37,6.37,0,0,1,44.8,610.17Zm21.15,12.49a6.37,6.37,0,1,1,6.37-6.37A6.37,6.37,0,0,1,65.94,622.66Zm0-18.46A24.18,24.18,0,1,1,90.13,580,24.21,24.21,0,0,1,65.94,604.2Zm30.15,6a6.37,6.37,0,1,1,0-9A6.37,6.37,0,0,1,96.1,610.17Zm6.12-23.78a6.37,6.37,0,1,1,6.37-6.37A6.37,6.37,0,0,1,102.22,586.39Z"/><rect id="_矩形_" data-name="&lt;矩形&gt;" class="cls-4" x="160.45" y="762.05" width="18.53" height="56.47"/><rect id="_矩形_2" data-name="&lt;矩形&gt;" class="cls-5" x="164.59" y="767.06" width="10.26" height="52.94" rx="5.13" ry="5.13"/><rect id="_矩形_3" data-name="&lt;矩形&gt;" class="cls-6" x="164.59" y="790.14" width="10.26" height="6.78"/><rect id="_矩形_4" data-name="&lt;矩形&gt;" class="cls-4" x="196.06" y="762.05" width="18.53" height="56.47"/><rect id="_矩形_5" data-name="&lt;矩形&gt;" class="cls-5" x="200.2" y="767.06" width="10.26" height="52.94" rx="5.13" ry="5.13"/><rect id="_矩形_6" data-name="&lt;矩形&gt;" class="cls-6" x="200.2" y="790.14" width="10.26" height="6.78"/><rect id="_矩形_7" data-name="&lt;矩形&gt;" class="cls-4" x="231.67" y="762.05" width="18.53" height="56.47"/><rect id="_矩形_8" data-name="&lt;矩形&gt;" class="cls-5" x="235.8" y="767.06" width="10.26" height="52.94" rx="5.13" ry="5.13"/><rect id="_矩形_9" data-name="&lt;矩形&gt;" class="cls-6" x="235.8" y="790.14" width="10.26" height="6.78"/><rect id="_矩形_10" data-name="&lt;矩形&gt;" class="cls-4" x="267.27" y="762.05" width="18.53" height="56.47"/><rect id="_矩形_11" data-name="&lt;矩形&gt;" class="cls-5" x="271.41" y="767.06" width="10.26" height="52.94" rx="5.13" ry="5.13"/><rect id="_矩形_12" data-name="&lt;矩形&gt;" class="cls-6" x="271.41" y="790.14" width="10.26" height="6.78"/><rect id="_矩形_13" data-name="&lt;矩形&gt;" class="cls-7" x="112.59" y="809.75" width="217.72" height="114.27"/><rect id="_矩形_14" data-name="&lt;矩形&gt;" class="cls-8" x="162.91" y="831.15" width="10.26" height="71.47"/><rect id="_矩形_15" data-name="&lt;矩形&gt;" class="cls-8" x="269.73" y="832.8" width="10.26" height="71.47"/><rect id="_矩形_16" data-name="&lt;矩形&gt;" class="cls-9" x="112.59" y="777.32" width="18.53" height="32.43"/><rect id="_矩形_17" data-name="&lt;矩形&gt;" class="cls-9" x="311.78" y="777.32" width="18.53" height="32.43"/><rect id="_矩形_18" data-name="&lt;矩形&gt;" class="cls-9" x="159.24" y="924.01" width="124.41" height="4.08" rx="2.04" ry="2.04"/><path id="_复合路径_4" data-name="&lt;复合路径&gt;" class="cls-7" d="M161.49,746.89l14-5v0l-14-5V735l16.21,5.91v1.95l-16.21,5.87Z"/><path id="_复合路径_5" data-name="&lt;复合路径&gt;" class="cls-7" d="M161.09,726.54c0-3.68,2.06-5.69,4.23-6.42l.29,1.75a4.67,4.67,0,0,0-3,4.67c0,3.28,2.3,5.45,7,5.45,4.25,0,7-2.21,7-5.45a4.82,4.82,0,0,0-3.21-4.87l.27-1.68a6.42,6.42,0,0,1,4.52,6.55c0,4.69-3.79,7.15-8.55,7.15S161.09,731.61,161.09,726.54Z"/><path id="_复合路径_6" data-name="&lt;复合路径&gt;" class="cls-7" d="M161.09,710.75c0-3.68,2.06-5.69,4.23-6.42l.29,1.75a4.67,4.67,0,0,0-3,4.67c0,3.28,2.3,5.45,7,5.45,4.25,0,7-2.21,7-5.45a4.82,4.82,0,0,0-3.21-4.87l.27-1.68a6.42,6.42,0,0,1,4.52,6.55c0,4.69-3.79,7.15-8.55,7.15S161.09,715.83,161.09,710.75Z"/><path id="_复合路径_7" data-name="&lt;复合路径&gt;" class="cls-7" d="M268,741.12c0-4.1,2.35-5.6,4.47-6.51l.29,1.79a4.77,4.77,0,0,0-3.23,4.72c0,3.34,2.86,5.71,7,5.71,4.25,0,7-2.46,7-5.49A5.57,5.57,0,0,0,279.3,736h-1.75V741H276V734.3h8.64v1.55h-3.32a6.14,6.14,0,0,1,3.74,5.69c0,3.61-3.08,7-8.55,7C271.43,748.54,268,745.51,268,741.12Z"/><path id="_复合路径_8" data-name="&lt;复合路径&gt;" class="cls-7" d="M268.42,728.79l13.46-9.48v0H268.42v-1.71h16.21v1.79l-13.46,9.43,0,0h13.49v1.73H268.42Z"/><path id="_复合路径_9" data-name="&lt;复合路径&gt;" class="cls-7" d="M268.42,707.87c0-5.29,4.19-7.17,8.08-7.17,4.65,0,8.13,2.3,8.13,7.48v5.58H268.42ZM283.1,712v-3.9c0-3.23-2.15-5.74-6.6-5.74-3.08,0-6.55,1.51-6.55,5.78V712Z"/><rect id="_矩形_19" data-name="&lt;矩形&gt;" class="cls-10" x="38.01" y="673.64" width="17.32" height="43.57"/><rect id="_矩形_20" data-name="&lt;矩形&gt;" class="cls-11" x="38.31" y="679.87" width="16.71" height="29.78"/><polygon id="_路径_3" data-name="&lt;路径&gt;" class="cls-12" points="38.37 685.25 38.37 704.44 54.96 704.44 54.96 685.25 51.56 685.25 51.56 685.95 41.18 685.95 41.18 685.25 38.37 685.25"/><rect id="_矩形_21" data-name="&lt;矩形&gt;" class="cls-10" x="38.01" y="737.4" width="17.32" height="13.51"/><rect id="_矩形_22" data-name="&lt;矩形&gt;" class="cls-10" x="38.01" y="764.31" width="17.32" height="13.51"/><path id="_路径_4" data-name="&lt;路径&gt;" class="cls-13" d="M51.32,742.06a4.66,4.66,0,1,1-9.32,0H39.22v8.85H54.11v-8.85Z"/><path id="_路径_5" data-name="&lt;路径&gt;" class="cls-13" d="M42,773.16a4.66,4.66,0,1,1,9.32,0h2.79v-8.85H39.22v8.85Z"/><rect id="_矩形_23" data-name="&lt;矩形&gt;" class="cls-14" x="40.05" y="747.82" width="13.24" height="19.47"/><rect id="_矩形_24" data-name="&lt;矩形&gt;" class="cls-15" x="207.44" y="498.32" width="88.68" height="47.32"/><rect id="_矩形_25" data-name="&lt;矩形&gt;" class="cls-16" x="219.02" y="495.94" width="65.52" height="52.06"/><rect id="_矩形_26" data-name="&lt;矩形&gt;" class="cls-17" x="226.87" y="495.94" width="7.39" height="52.06"/><rect id="_矩形_27" data-name="&lt;矩形&gt;" class="cls-10" x="134.48" y="530.09" width="17.32" height="13.51" transform="translate(-393.71 679.98) rotate(-90)"/><rect id="_矩形_28" data-name="&lt;矩形&gt;" class="cls-10" x="161.39" y="530.09" width="17.32" height="13.51" transform="translate(-366.79 706.89) rotate(-90)"/><rect id="_矩形_29" data-name="&lt;矩形&gt;" class="cls-18" x="149.92" y="527.11" width="13.24" height="19.47" transform="translate(-380.31 693.38) rotate(-90)"/><rect id="_矩形_30" data-name="&lt;矩形&gt;" class="cls-19" x="164.72" y="529.54" width="4.74" height="14.67" transform="translate(334.19 1073.74) rotate(180)"/><rect id="_矩形_31" data-name="&lt;矩形&gt;" class="cls-19" x="143.66" y="529.54" width="4.74" height="14.67" transform="translate(292.06 1073.74) rotate(180)"/><rect id="_矩形_32" data-name="&lt;矩形&gt;" class="cls-10" x="21.24" y="192.28" width="17.32" height="13.51" transform="translate(59.79 398.08) rotate(180)"/><rect id="_矩形_33" data-name="&lt;矩形&gt;" class="cls-10" x="21.24" y="165.37" width="17.32" height="13.51" transform="translate(59.79 344.25) rotate(180)"/><rect id="_矩形_34" data-name="&lt;矩形&gt;" class="cls-18" x="23.28" y="175.9" width="13.24" height="19.47" transform="translate(59.79 371.28) rotate(180)"/><rect id="_矩形_35" data-name="&lt;矩形&gt;" class="cls-19" x="27.55" y="167.75" width="4.74" height="14.67" transform="translate(205 145.16) rotate(90)"/><rect id="_矩形_36" data-name="&lt;矩形&gt;" class="cls-19" x="27.55" y="188.81" width="4.74" height="14.67" transform="translate(226.07 166.22) rotate(90)"/><rect id="_矩形_37" data-name="&lt;矩形&gt;" class="cls-10" x="134.48" y="500.35" width="17.32" height="13.51" transform="translate(-363.97 650.24) rotate(-90)"/><rect id="_矩形_38" data-name="&lt;矩形&gt;" class="cls-10" x="161.39" y="500.35" width="17.32" height="13.51" transform="translate(-337.05 677.15) rotate(-90)"/><rect id="_矩形_39" data-name="&lt;矩形&gt;" class="cls-18" x="149.92" y="497.37" width="13.24" height="19.47" transform="translate(-350.57 663.64) rotate(-90)"/><rect id="_矩形_40" data-name="&lt;矩形&gt;" class="cls-19" x="164.72" y="499.8" width="4.74" height="14.67" transform="translate(334.19 1014.26) rotate(180)"/><rect id="_矩形_41" data-name="&lt;矩形&gt;" class="cls-19" x="143.66" y="499.8" width="4.74" height="14.67" transform="translate(292.06 1014.26) rotate(180)"/><rect id="_矩形_42" data-name="&lt;矩形&gt;" class="cls-10" x="134.48" y="650.77" width="17.32" height="13.51" transform="translate(-514.39 800.66) rotate(-90)"/><rect id="_矩形_43" data-name="&lt;矩形&gt;" class="cls-10" x="161.39" y="650.77" width="17.32" height="13.51" transform="translate(-487.48 827.58) rotate(-90)"/><rect id="_矩形_44" data-name="&lt;矩形&gt;" class="cls-18" x="149.92" y="647.79" width="13.24" height="19.47" transform="translate(-500.99 814.07) rotate(-90)"/><rect id="_矩形_45" data-name="&lt;矩形&gt;" class="cls-19" x="164.72" y="650.22" width="4.74" height="14.67" transform="translate(334.19 1315.11) rotate(180)"/><rect id="_矩形_46" data-name="&lt;矩形&gt;" class="cls-19" x="143.66" y="650.22" width="4.74" height="14.67" transform="translate(292.06 1315.11) rotate(180)"/><rect id="_矩形_47" data-name="&lt;矩形&gt;" class="cls-10" x="170.1" y="571.19" width="11.17" height="21.09" transform="translate(757.43 406.05) rotate(90)"/><rect id="_矩形_48" data-name="&lt;矩形&gt;" class="cls-10" x="170.1" y="599.26" width="11.17" height="21.09" transform="translate(785.5 434.12) rotate(90)"/><rect id="_矩形_49" data-name="&lt;矩形&gt;" class="cls-10" x="131.8" y="585.23" width="11.17" height="21.09" transform="translate(733.16 458.39) rotate(90)"/><rect id="_矩形_50" data-name="&lt;矩形&gt;" class="cls-20" x="129.24" y="583.45" width="54.1" height="24.65" transform="translate(752.07 439.49) rotate(90)"/><polyline id="_路径_6" data-name="&lt;路径&gt;" class="cls-21" points="155.54 568.06 143.22 568.06 143.22 576.12"/><polyline id="_路径_7" data-name="&lt;路径&gt;" class="cls-21" points="155.54 623.4 143.22 623.4 143.22 615.35"/><rect id="_矩形_51" data-name="&lt;矩形&gt;" class="cls-22" x="169.06" y="576.81" width="8.99" height="9.87" transform="translate(755.29 408.19) rotate(90)"/><rect id="_矩形_52" data-name="&lt;矩形&gt;" class="cls-22" x="169.06" y="604.88" width="8.99" height="9.87" transform="translate(783.36 436.26) rotate(90)"/><rect id="_矩形_53" data-name="&lt;矩形&gt;" class="cls-22" x="134.53" y="590.84" width="8.99" height="9.87" transform="translate(734.8 456.75) rotate(90)"/><rect id="_矩形_54" data-name="&lt;矩形&gt;" class="cls-23" x="166.82" y="581.22" width="8.99" height="1.05" transform="translate(753.06 410.42) rotate(90)"/><rect id="_矩形_55" data-name="&lt;矩形&gt;" class="cls-23" x="166.82" y="609.29" width="8.99" height="1.05" transform="translate(781.13 438.49) rotate(90)"/><rect id="_矩形_56" data-name="&lt;矩形&gt;" class="cls-23" x="136.85" y="595.25" width="8.99" height="1.05" transform="translate(737.12 454.43) rotate(90)"/><rect id="_矩形_57" data-name="&lt;矩形&gt;" class="cls-10" x="207.57" y="624.55" width="17.32" height="43.57" transform="translate(432.45 1292.66) rotate(180)"/><rect id="_矩形_58" data-name="&lt;矩形&gt;" class="cls-11" x="207.87" y="632.1" width="16.71" height="29.78" transform="translate(432.45 1293.98) rotate(180)"/><polygon id="_路径_8" data-name="&lt;路径&gt;" class="cls-12" points="224.52 656.5 224.52 637.31 207.93 637.31 207.93 656.5 211.32 656.5 211.32 655.8 221.7 655.8 221.7 656.5 224.52 656.5"/><rect id="_矩形_59" data-name="&lt;矩形&gt;" class="cls-10" x="255.87" y="635.13" width="17.32" height="43.57" transform="translate(-392.39 921.44) rotate(-90)"/><rect id="_矩形_60" data-name="&lt;矩形&gt;" class="cls-11" x="255.51" y="642.02" width="16.71" height="29.78" transform="translate(-393.05 920.78) rotate(-90)"/><polygon id="_路径_9" data-name="&lt;路径&gt;" class="cls-12" points="254.35 665.21 273.54 665.21 273.54 648.62 254.35 648.62 254.35 652.01 255.05 652.01 255.05 662.39 254.35 662.39 254.35 665.21"/><rect id="_矩形_61" data-name="&lt;矩形&gt;" class="cls-10" x="255.87" y="551.95" width="17.32" height="43.57" transform="translate(-309.21 838.26) rotate(-90)"/><rect id="_矩形_62" data-name="&lt;矩形&gt;" class="cls-11" x="255.51" y="558.84" width="16.71" height="29.78" transform="translate(-309.87 837.6) rotate(-90)"/><polygon id="_路径_10" data-name="&lt;路径&gt;" class="cls-12" points="254.35 582.03 273.54 582.03 273.54 565.44 254.35 565.44 254.35 568.83 255.05 568.83 255.05 579.21 254.35 579.21 254.35 582.03"/><rect id="_矩形_63" data-name="&lt;矩形&gt;" class="cls-10" x="207.57" y="564.48" width="17.32" height="43.57" transform="translate(432.45 1172.52) rotate(180)"/><rect id="_矩形_64" data-name="&lt;矩形&gt;" class="cls-11" x="207.87" y="572.03" width="16.71" height="29.78" transform="translate(432.45 1173.85) rotate(180)"/><polygon id="_路径_11" data-name="&lt;路径&gt;" class="cls-12" points="224.52 596.44 224.52 577.25 207.93 577.25 207.93 596.44 211.32 596.44 211.32 595.73 221.7 595.73 221.7 596.44 224.52 596.44"/><rect id="_矩形_65" data-name="&lt;矩形&gt;" class="cls-10" x="21.6" y="289.55" width="17.32" height="43.57" transform="translate(60.52 622.66) rotate(180)"/><rect id="_矩形_66" data-name="&lt;矩形&gt;" class="cls-11" x="21.91" y="297.1" width="16.71" height="29.78" transform="translate(60.52 623.99) rotate(180)"/><polygon id="_路径_12" data-name="&lt;路径&gt;" class="cls-12" points="38.55 321.51 38.55 302.31 21.97 302.31 21.97 321.51 25.36 321.51 25.36 320.8 35.74 320.8 35.74 321.51 38.55 321.51"/><rect id="_矩形_67" data-name="&lt;矩形&gt;" class="cls-10" x="404.56" y="384.91" width="17.32" height="43.57" transform="translate(826.43 813.39) rotate(180)"/><rect id="_矩形_68" data-name="&lt;矩形&gt;" class="cls-11" x="404.86" y="392.47" width="16.71" height="29.78" transform="translate(826.43 814.71) rotate(180)"/><polygon id="_路径_13" data-name="&lt;路径&gt;" class="cls-12" points="421.51 416.87 421.51 397.68 404.92 397.68 404.92 416.87 408.32 416.87 408.32 416.17 418.7 416.17 418.7 416.87 421.51 416.87"/><rect id="_矩形_69" data-name="&lt;矩形&gt;" class="cls-10" x="21.6" y="226.3" width="17.32" height="43.57" transform="translate(60.52 496.16) rotate(180)"/><rect id="_矩形_70" data-name="&lt;矩形&gt;" class="cls-11" x="21.91" y="233.85" width="16.71" height="29.78" transform="translate(60.52 497.48) rotate(180)"/><polygon id="_路径_14" data-name="&lt;路径&gt;" class="cls-12" points="38.55 258.25 38.55 239.06 21.97 239.06 21.97 258.25 25.36 258.25 25.36 257.55 35.74 257.55 35.74 258.25 38.55 258.25"/><rect id="_矩形_71" data-name="&lt;矩形&gt;" class="cls-24" x="237.72" y="599.93" width="53.6" height="7.72"/><rect id="_矩形_72" data-name="&lt;矩形&gt;" class="cls-24" x="237.72" y="612.21" width="53.6" height="7.72"/><rect id="_矩形_73" data-name="&lt;矩形&gt;" class="cls-24" x="237.72" y="624.5" width="53.6" height="7.72"/><rect id="_矩形_74" data-name="&lt;矩形&gt;" class="cls-25" x="277.4" y="625.65" width="10.66" height="5.42" transform="translate(565.46 1256.72) rotate(180)"/><rect id="_矩形_75" data-name="&lt;矩形&gt;" class="cls-26" x="281.66" y="625.65" width="1.92" height="5.42" transform="translate(565.24 1256.72) rotate(180)"/><rect id="_矩形_76" data-name="&lt;矩形&gt;" class="cls-25" x="277.4" y="613.36" width="10.66" height="5.42" transform="translate(565.46 1232.15) rotate(180)"/><rect id="_矩形_77" data-name="&lt;矩形&gt;" class="cls-26" x="281.66" y="613.36" width="1.92" height="5.42" transform="translate(565.24 1232.15) rotate(180)"/><rect id="_矩形_78" data-name="&lt;矩形&gt;" class="cls-25" x="277.4" y="601.08" width="10.66" height="5.42" transform="translate(565.46 1207.58) rotate(180)"/><rect id="_矩形_79" data-name="&lt;矩形&gt;" class="cls-26" x="281.66" y="601.08" width="1.92" height="5.42" transform="translate(565.24 1207.58) rotate(180)"/><rect id="_矩形_80" data-name="&lt;矩形&gt;" class="cls-25" x="240.96" y="600.96" width="10.66" height="5.42"/><rect id="_矩形_81" data-name="&lt;矩形&gt;" class="cls-26" x="245.43" y="600.96" width="1.92" height="5.42"/><rect id="_矩形_82" data-name="&lt;矩形&gt;" class="cls-25" x="240.96" y="613.24" width="10.66" height="5.42"/><rect id="_矩形_83" data-name="&lt;矩形&gt;" class="cls-26" x="245.43" y="613.24" width="1.92" height="5.42"/><rect id="_矩形_84" data-name="&lt;矩形&gt;" class="cls-25" x="240.96" y="625.52" width="10.66" height="5.42"/><rect id="_矩形_85" data-name="&lt;矩形&gt;" class="cls-26" x="245.43" y="625.52" width="1.92" height="5.42"/><rect id="_矩形_86" data-name="&lt;矩形&gt;" class="cls-7" x="251.65" y="593.73" width="25.75" height="44.7" rx="2.02" ry="2.02"/><rect id="_矩形_87" data-name="&lt;矩形&gt;" class="cls-27" x="252.15" y="595.73" width="24.76" height="40.68"/><path id="_路径_15" data-name="&lt;路径&gt;" class="cls-28" d="M381,156.41"/><path id="_复合路径_10" data-name="&lt;复合路径&gt;" class="cls-7" d="M232.42,736.12H234v5.42h15.42v1.79H234v5.4h-1.61Z"/><path id="_复合路径_11" data-name="&lt;复合路径&gt;" class="cls-7" d="M232.42,733.4l6.84-4.61-6.84-4.63V722l8.4,5.68,8.63-5.84V724l-7.07,4.79,7.07,4.79v2.09l-8.63-5.84-8.4,5.65Z"/><path id="_复合路径_12" data-name="&lt;复合路径&gt;" class="cls-7" d="M232.42,713.44c0-5.56,4.4-7.54,8.49-7.54,4.89,0,8.54,2.42,8.54,7.86v5.86h-17Zm15.42,4.37v-4.09c0-3.4-2.26-6-6.93-6-3.23,0-6.89,1.58-6.89,6.07v4Z"/><path id="_复合路径_13" data-name="&lt;复合路径&gt;" class="cls-7" d="M196.81,742.19c0-3.68,1.93-5.37,4.58-5.37a4.81,4.81,0,0,1,4.16,2.79h0c.49-1.42,1.81-2.35,3.84-2.44a17.08,17.08,0,0,0,4.42-.86v1.91a17.45,17.45,0,0,1-4.26.72c-1.91.12-3.16,1.16-3.16,2.93v5.07h7.42v1.79h-17Zm8,4.75v-4.65a3.39,3.39,0,0,0-3.3-3.68c-1.86,0-3.07,1.35-3.07,3.84v4.49Z"/><path id="_复合路径_14" data-name="&lt;复合路径&gt;" class="cls-7" d="M196.81,732.79l6.84-4.61-6.84-4.63v-2.12l8.4,5.68,8.63-5.84v2.12l-7.07,4.79,7.07,4.79v2.09l-8.63-5.84-8.4,5.65Z"/><path id="_复合路径_15" data-name="&lt;复合路径&gt;" class="cls-7" d="M196.81,712.83c0-5.56,4.4-7.54,8.49-7.54,4.89,0,8.54,2.42,8.54,7.86V719h-17Zm15.42,4.37v-4.09c0-3.4-2.26-6-6.93-6-3.23,0-6.89,1.58-6.89,6.07v4Z"/><rect id="_矩形_88" data-name="&lt;矩形&gt;" class="cls-29" x="72.11" y="1.35" width="300.44" height="449.11"/><rect id="_矩形_89" data-name="&lt;矩形&gt;" class="cls-30" x="110.16" y="144.73" width="224.34" height="287.21" rx="10.88" ry="10.88"/><rect id="_矩形_90" data-name="&lt;矩形&gt;" class="cls-31" x="118.1" y="144.73" width="216.4" height="277.86" rx="10.51" ry="10.51"/><rect id="_矩形_91" data-name="&lt;矩形&gt;" class="cls-32" x="53.22" y="149.52" width="43.51" height="18.69"/><rect id="_矩形_92" data-name="&lt;矩形&gt;" class="cls-32" x="53.22" y="187.2" width="43.51" height="18.69"/><rect id="_矩形_93" data-name="&lt;矩形&gt;" class="cls-32" x="53.22" y="224.87" width="43.51" height="18.69"/><rect id="_矩形_94" data-name="&lt;矩形&gt;" class="cls-32" x="53.22" y="262.54" width="43.51" height="18.69"/><rect id="_矩形_95" data-name="&lt;矩形&gt;" class="cls-32" x="53.22" y="300.22" width="43.51" height="18.69"/><rect id="_矩形_96" data-name="&lt;矩形&gt;" class="cls-32" x="53.22" y="337.89" width="43.51" height="18.69"/><rect id="_矩形_97" data-name="&lt;矩形&gt;" class="cls-32" x="53.22" y="375.56" width="43.51" height="18.69"/><rect id="_矩形_98" data-name="&lt;矩形&gt;" class="cls-32" x="53.22" y="413.24" width="43.51" height="18.69"/><rect id="_矩形_99" data-name="&lt;矩形&gt;" class="cls-32" x="346.16" y="149.52" width="43.51" height="18.69"/><rect id="_矩形_100" data-name="&lt;矩形&gt;" class="cls-32" x="346.16" y="187.2" width="43.51" height="18.69"/><rect id="_矩形_101" data-name="&lt;矩形&gt;" class="cls-32" x="346.16" y="224.87" width="43.51" height="18.69"/><rect id="_矩形_102" data-name="&lt;矩形&gt;" class="cls-32" x="346.16" y="262.54" width="43.51" height="18.69"/><rect id="_矩形_103" data-name="&lt;矩形&gt;" class="cls-32" x="346.16" y="300.22" width="43.51" height="18.69"/><rect id="_矩形_104" data-name="&lt;矩形&gt;" class="cls-32" x="346.16" y="337.89" width="43.51" height="18.69"/><rect id="_矩形_105" data-name="&lt;矩形&gt;" class="cls-32" x="346.16" y="375.56" width="43.51" height="18.69"/><rect id="_矩形_106" data-name="&lt;矩形&gt;" class="cls-32" x="346.16" y="413.24" width="43.51" height="18.69"/><rect id="_矩形_107" data-name="&lt;矩形&gt;" class="cls-33" x="118.1" y="439.09" width="19.19" height="11.37"/><rect id="_矩形_108" data-name="&lt;矩形&gt;" class="cls-33" x="155.95" y="439.09" width="19.19" height="11.37"/><rect id="_矩形_109" data-name="&lt;矩形&gt;" class="cls-33" x="193.81" y="439.09" width="19.19" height="11.37"/><rect id="_矩形_110" data-name="&lt;矩形&gt;" class="cls-33" x="231.66" y="439.09" width="19.19" height="11.37"/><rect id="_矩形_111" data-name="&lt;矩形&gt;" class="cls-33" x="269.51" y="439.09" width="19.19" height="11.37"/><rect id="_矩形_112" data-name="&lt;矩形&gt;" class="cls-33" x="307.37" y="439.09" width="19.19" height="11.37"/><rect id="_矩形_113" data-name="&lt;矩形&gt;" class="cls-34" x="403.99" y="306.86" width="18.46" height="54.93" rx="7.98" ry="7.98"/><rect id="_矩形_114" data-name="&lt;矩形&gt;" class="cls-35" x="403.99" y="327.7" width="18.46" height="13.24"/><polyline id="_路径_16" data-name="&lt;路径&gt;" class="cls-36" points="350.3 132.15 350.3 12.37 307.37 12.37 307.37 67.3 264.27 67.3 264.27 12.37 221.45 12.37 221.45 72.26 178.24 72.26 178.24 12.37 90.89 12.37 90.89 132.15"/><line id="_路径_17" data-name="&lt;路径&gt;" class="cls-36" x1="132.66" y1="15.68" x2="132.66" y2="132.15"/><path id="_复合路径_16" data-name="&lt;复合路径&gt;" class="cls-37" d="M282.63,274.87l-28.15-8.43v-4.8l20.73-6.07-20.73-6.1v-4.83l28.15-8.48v5.61L261.18,247l21.45,6.33v4.6l-21.45,6.35,21.45,5.18Z"/><path id="_复合路径_17" data-name="&lt;复合路径&gt;" class="cls-37" d="M254.48,283.88v-5h28.15v5Zm33.47,0v-5h5.43v5Z"/><path id="_复合路径_18" data-name="&lt;复合路径&gt;" class="cls-37" d="M278.75,303.41H254.48v-5h24.27v-4.17h3.88v4.17h2.53q9,0,9,7.88a17.41,17.41,0,0,1-.11,2.13,12.4,12.4,0,0,1-.29,1.58h-4.31q.11-.75.17-1.5t.06-1.5a3.42,3.42,0,0,0-1-2.76,5.52,5.52,0,0,0-3.52-.86h-2.47v5.32h-3.88Z"/><path id="_复合路径_19" data-name="&lt;复合路径&gt;" class="cls-37" d="M254.48,317.64v-5h28.15v5Zm33.47,0v-5h5.43v5Z"/><rect id="_矩形_115" data-name="&lt;矩形&gt;" class="cls-38" x="241.25" y="209.8" width="66.11" height="139.85" rx="30.87" ry="30.87"/></g></g></svg>