<svg width="255" height="102" xmlns="http://www.w3.org/2000/svg"><g fill="none" fill-rule="evenodd"><g transform="rotate(90 127 127.5)"><path d="M0 244.798h100.8V0H0v244.798zm2.52-7.198a4.686 4.686 0 0 1 4.684-4.682 4.68 4.68 0 0 1 4.682 4.678v.004a4.68 4.68 0 0 1-4.68 4.68 4.678 4.678 0 0 1-4.686-4.68zm86.4 0a4.68 4.68 0 0 1 4.68-4.68 4.685 4.685 0 0 1 4.686 4.68 4.683 4.683 0 0 1-9.366 0zm0-230.4a4.683 4.683 0 0 1 9.366 0c0 2.584-2.1 4.68-4.686 4.68a4.68 4.68 0 0 1-4.68-4.68zm-86.4 0a4.682 4.682 0 1 1 9.366-.004V7.2a4.68 4.68 0 0 1-4.68 4.68A4.68 4.68 0 0 1 2.52 7.2c0 .002 0 0 0 0zm2.088 14.4a2.593 2.593 0 1 1 5.183.001 2.593 2.593 0 0 1-5.183-.001zm0 14.4a2.591 2.591 0 1 1 5.185-.001A2.591 2.591 0 0 1 4.608 36zm0 14.4a2.593 2.593 0 1 1 5.183.001 2.593 2.593 0 0 1-5.183-.001zm0 14.4a2.591 2.591 0 1 1 5.185-.001 2.591 2.591 0 0 1-5.185.001zm0 14.4a2.591 2.591 0 1 1 5.185-.001 2.591 2.591 0 0 1-5.185.001zm0 14.4a2.593 2.593 0 0 1 5.184 0 2.591 2.591 0 1 1-5.184 0zm0 14.4a2.591 2.591 0 1 1 5.184 0 2.591 2.591 0 1 1-5.184 0zm0 14.4a2.593 2.593 0 1 1 5.183.001 2.593 2.593 0 0 1-5.183-.001zm0 14.398c0-1.43 1.156-2.59 2.592-2.59a2.591 2.591 0 1 1 0 5.184 2.592 2.592 0 0 1-2.592-2.594zm0 14.404zm0 14.398a2.593 2.593 0 0 1 5.184 0 2.592 2.592 0 1 1-5.184 0zm0 14.4a2.591 2.591 0 1 1 5.185-.001 2.591 2.591 0 0 1-5.185.001zm0 14.4a2.592 2.592 0 1 1 5.184 0 2.593 2.593 0 0 1-5.184 0zm0 14.398c0-1.43 1.156-2.59 2.592-2.59a2.591 2.591 0 1 1 0 5.184 2.592 2.592 0 0 1-2.592-2.594zm0 14.404zM91.008 21.6a2.594 2.594 0 0 1 2.59-2.594 2.594 2.594 0 0 1 2.6 2.59v.004a2.594 2.594 0 1 1-5.19.004V21.6zm0 14.4a2.593 2.593 0 0 1 2.59-2.594 2.597 2.597 0 0 1 2.6 2.59V36a2.595 2.595 0 0 1-5.19.004V36zm0 14.4a2.595 2.595 0 0 1 5.19-.004v.004a2.596 2.596 0 0 1-5.19.004V50.4zm0 14.4a2.593 2.593 0 0 1 2.59-2.594 2.594 2.594 0 0 1 2.6 2.59v.004a2.595 2.595 0 0 1-5.19.004V64.8zm0 14.4a2.595 2.595 0 0 1 5.19-.004v.004a2.595 2.595 0 0 1-5.19.004V79.2zm0 14.4a2.594 2.594 0 0 1 2.59-2.594 2.594 2.594 0 0 1 2.6 2.59v.004a2.594 2.594 0 1 1-5.19.004V93.6zm0 14.4a2.593 2.593 0 0 1 2.59-2.594 2.597 2.597 0 0 1 2.6 2.59V108a2.595 2.595 0 0 1-5.19.004V108zm0 14.4a2.595 2.595 0 0 1 5.19-.004v.004a2.596 2.596 0 0 1-5.19.004v-.004zm0 14.398a2.593 2.593 0 0 1 2.59-2.594 2.597 2.597 0 0 1 2.6 2.59v.004a2.592 2.592 0 0 1-2.594 2.594 2.59 2.59 0 0 1-2.596-2.59v-.004zm0 14.404a2.59 2.59 0 0 1 2.59-2.594 2.591 2.591 0 0 1 2.6 2.59v.004a2.595 2.595 0 0 1-5.19.004v-.004zm0 14.398a2.595 2.595 0 0 1 5.19-.004v.004a2.592 2.592 0 0 1-2.594 2.594 2.59 2.59 0 0 1-2.596-2.59v-.004zm0 14.4a2.596 2.596 0 0 1 5.19-.006V180a2.596 2.596 0 0 1-5.19.006V180zm0 14.4a2.59 2.59 0 0 1 2.59-2.594 2.591 2.591 0 0 1 2.6 2.59v.004a2.595 2.595 0 0 1-5.19.004v-.004zm0 14.398a2.593 2.593 0 0 1 2.59-2.594 2.597 2.597 0 0 1 2.6 2.59v.004a2.592 2.592 0 0 1-2.594 2.594 2.59 2.59 0 0 1-2.596-2.59v-.004zm0 14.404a2.59 2.59 0 0 1 2.59-2.594 2.591 2.591 0 0 1 2.6 2.59v.004a2.595 2.595 0 0 1-5.19.004v-.004zM62.208 7.776a2.593 2.593 0 0 1 5.184-.004v.004a2.591 2.591 0 1 1-5.184.004v-.004zm0 14.4a2.591 2.591 0 1 1 5.184-.004v.004a2.591 2.591 0 1 1-5.184.004v-.004zm-14.4-14.4a2.591 2.591 0 1 1 5.184-.004v.004a2.591 2.591 0 1 1-5.184.004v-.004zm0 14.4a2.591 2.591 0 1 1 5.184-.004v.004a2.591 2.591 0 1 1-5.184.004v-.004zm-14.4-14.4a2.591 2.591 0 1 1 5.184 0 2.591 2.591 0 1 1-5.184.004v-.004zm0 14.4a2.591 2.591 0 1 1 5.184 0 2.591 2.591 0 1 1-5.184.004v-.004z" fill="#00979D" fill-rule="nonzero"/><g font-family="Helvetica" fill="#FFF"><text transform="rotate(-90 20.896 8.464)" font-size="5.345"><tspan x="1.999" y="4.999">TX1</tspan></text><text transform="rotate(-90 27.096 14.664)" font-size="5.345"><tspan x="0" y="4.999">RX0</tspan></text><text transform="rotate(-90 35.224 22.792)" font-size="5.345"><tspan x="1.998" y="4.999">RST</tspan></text><text transform="rotate(-90 41.424 28.992)" font-size="5.345"><tspan x="0" y="4.999">GND</tspan></text><text transform="rotate(-90 47.76 35.328)" font-size="5.345"><tspan x="0" y="4.999">D2</tspan></text><text transform="rotate(-90 55.816 43.384)" font-size="5.345"><tspan x="1.999" y="4.999">D3</tspan></text><text transform="rotate(-90 62.088 49.656)" font-size="5.345"><tspan x="0" y="4.999">D4</tspan></text><text transform="rotate(-90 70.144 57.712)" font-size="5.345"><tspan x="1.999" y="4.999">D5</tspan></text><text transform="rotate(-90 76.488 64.056)" font-size="5.345"><tspan x="-.001" y="4.999">D6</tspan></text><text transform="rotate(-90 83.76 71.328)" font-size="5.345"><tspan x="0" y="4.999">D7</tspan></text><text transform="rotate(-90 91.816 79.384)" font-size="5.345"><tspan x="1.999" y="4.999">D8</tspan></text><text transform="rotate(-90 98.088 85.656)" font-size="5.345"><tspan x="0" y="4.999">D9</tspan></text><text transform="rotate(-90 107.44 95.008)" font-size="5.345"><tspan x="1.997" y="4.999">D10</tspan></text><text transform="rotate(-90 114.568 102.136)" font-size="5.345"><tspan x="1.999" y="4.999">D11</tspan></text><text transform="rotate(-90 121.768 109.336)" font-size="5.345"><tspan x="1.997" y="4.999">D12</tspan></text><text transform="rotate(-90 155.04 76.064)" font-size="5.345"><tspan x="1.997" y="6.998">D13</tspan></text><text transform="rotate(-90 146.768 67.792)" font-size="5.345"><tspan x="-.001" y="6.998">3V3</tspan></text><text transform="rotate(-90 140.64 61.664)" font-size="5.345"><tspan x="1.997" y="6.998">REF</tspan></text><text transform="rotate(-90 131.432 52.456)" font-size="5.345"><tspan x="-.001" y="6.998">A0</tspan></text><text transform="rotate(-90 125.16 46.184)" font-size="5.345"><tspan x="1.998" y="6.998">A1</tspan></text><text transform="rotate(-90 117.032 38.056)" font-size="5.345"><tspan x="0" y="6.998">A2</tspan></text><text transform="rotate(-90 110.832 31.856)" font-size="5.345"><tspan x="1.999" y="6.998">A3</tspan></text><text transform="rotate(-90 102.704 23.728)" font-size="5.345"><tspan x="0" y="6.998">A4</tspan></text><text transform="rotate(-90 95.432 16.456)" font-size="5.345"><tspan x="-.001" y="6.998">A5</tspan></text><text transform="rotate(-90 89.232 10.256)" font-size="5.345"><tspan x="1.998" y="6.998">A6</tspan></text><text transform="rotate(-90 81.104 2.128)" font-size="5.345"><tspan x="0" y="6.998">A7</tspan></text><text transform="rotate(-90 74.904 -4.072)" font-size="5.345"><tspan x="1.998" y="6.998">5V</tspan></text><text transform="rotate(-90 66.704 -12.272)" font-size="5.345"><tspan x="0" y="6.998">RST</tspan></text><text transform="rotate(-90 59.288 -19.688)" font-size="5.345"><tspan x="0" y="6.998">GND</tspan></text><text transform="rotate(-90 53.16 -25.816)" font-size="5.345"><tspan x="1.998" y="6.998">VIN</tspan></text><text transform="translate(72)" font-size="9.187"><tspan x="1.728" y="10.092">1</tspan></text><text transform="rotate(-90 17.384 -1.976)" font-size="5.345"><tspan x="0" y="6.999">ICSP</tspan></text><text transform="translate(18 60)" font-size="5.345"><tspan x="1.727" y="5.963">TX</tspan></text><text transform="translate(34 60)" font-size="5.345"><tspan x=".847" y="5.963">RX</tspan></text><text transform="translate(52 60)" font-size="5.345"><tspan x=".416" y="5.963">PWR</tspan></text><text transform="translate(46 90)" font-size="5.345"><tspan x="1.375" y="6.35">RST</tspan></text><text transform="translate(76 60)" font-size="5.345"><tspan x=".318" y="5.963">L</tspan></text><text transform="translate(58 188)" font-size="6.18"><tspan x="1.904" y="6.113">2009</tspan></text><text transform="translate(26 188)" font-size="6.18"><tspan x=".496" y="6.113">USA</tspan></text><text transform="rotate(-90 69.512 44.536)" font-size="5.345"><tspan x="-.001" y="6.998">ARDUINO.CC</tspan></text><text transform="translate(30 28)" font-size="6.682"><tspan x="1.248" y="7.154">ARDUINO</tspan></text><text transform="translate(38 36)" font-size="6.682"><tspan x=".735" y="6.93">NANO</tspan></text><text transform="translate(38 44)" font-size="6.682"><tspan x="1.885" y="6.561">V3.0</tspan></text><text transform="rotate(-90 98.72 88.608)" font-size="3.341"><tspan x="1.998" y="5.999">*</tspan></text><text transform="rotate(-90 105.992 95.88)" font-size="3.341"><tspan x="1.999" y="5.999">*</tspan></text><text transform="rotate(-90 113.12 103.008)" font-size="3.341"><tspan x="1.997" y="5.999">*</tspan></text><text transform="rotate(-90 77.12 67.008)" font-size="3.341"><tspan x="1.997" y="5.999">*</tspan></text><text transform="rotate(-90 68.848 58.736)" font-size="3.341"><tspan x="0" y="5.999">*</tspan></text><text transform="rotate(-90 54.52 44.408)" font-size="3.341"><tspan x="0" y="5.999">*</tspan></text></g><circle stroke="#9A916C" stroke-width="2.448" cx="7.2" cy="21.6" r="3.816"/><path stroke="#9A916C" stroke-width="2.448" d="M3.384 17.784h7.626v7.632H3.384z"/><circle stroke="#9A916C" stroke-width="2.448" cx="7.2" cy="36" r="3.816"/><circle stroke="#9A916C" stroke-width="2.448" cx="7.2" cy="50.4" r="3.816"/><circle stroke="#9A916C" stroke-width="2.448" cx="7.2" cy="64.8" r="3.816"/><circle stroke="#9A916C" stroke-width="2.448" cx="7.2" cy="79.2" r="3.816"/><circle stroke="#9A916C" stroke-width="2.448" cx="7.2" cy="93.6" r="3.816"/><circle stroke="#9A916C" stroke-width="2.448" cx="7.2" cy="108" r="3.816"/><circle stroke="#9A916C" stroke-width="2.448" cx="7.2" cy="122.4" r="3.816"/><circle stroke="#9A916C" stroke-width="2.448" cx="7.2" cy="136.8" r="3.816"/><circle stroke="#9A916C" stroke-width="2.448" cx="7.2" cy="151.2" r="3.816"/><circle stroke="#9A916C" stroke-width="2.448" cx="7.2" cy="165.6" r="3.816"/><circle stroke="#9A916C" stroke-width="2.448" cx="7.2" cy="180" r="3.816"/><circle stroke="#9A916C" stroke-width="2.448" cx="7.2" cy="194.4" r="3.816"/><circle stroke="#9A916C" stroke-width="2.448" cx="7.2" cy="208.8" r="3.816"/><circle stroke="#9A916C" stroke-width="2.448" cx="7.2" cy="223.2" r="3.816"/><circle stroke="#9A916C" stroke-width="2.448" cx="93.6" cy="21.6" r="3.816"/><circle stroke="#9A916C" stroke-width="2.448" cx="93.6" cy="36" r="3.816"/><circle stroke="#9A916C" stroke-width="2.448" cx="93.6" cy="50.4" r="3.816"/><circle stroke="#9A916C" stroke-width="2.448" cx="93.6" cy="64.8" r="3.816"/><circle stroke="#9A916C" stroke-width="2.448" cx="93.6" cy="79.2" r="3.816"/><circle stroke="#9A916C" stroke-width="2.448" cx="93.6" cy="93.6" r="3.816"/><circle stroke="#9A916C" stroke-width="2.448" cx="93.6" cy="108" r="3.816"/><circle stroke="#9A916C" stroke-width="2.448" cx="93.6" cy="122.4" r="3.816"/><circle stroke="#9A916C" stroke-width="2.448" cx="93.6" cy="136.8" r="3.816"/><circle stroke="#9A916C" stroke-width="2.448" cx="93.6" cy="151.2" r="3.816"/><circle stroke="#9A916C" stroke-width="2.448" cx="93.6" cy="165.6" r="3.816"/><circle stroke="#9A916C" stroke-width="2.448" cx="93.6" cy="180" r="3.816"/><circle stroke="#9A916C" stroke-width="2.448" cx="93.6" cy="194.4" r="3.816"/><circle stroke="#9A916C" stroke-width="2.448" cx="93.6" cy="208.8" r="3.816"/><circle stroke="#9A916C" stroke-width="2.448" cx="93.6" cy="223.2" r="3.816"/><circle stroke="#9A916C" stroke-width="2.448" cx="64.8" cy="7.776" r="3.816"/><path stroke="#9A916C" stroke-width="2.448" d="M60.984 3.96h7.632v7.632h-7.632z"/><circle stroke="#9A916C" stroke-width="2.448" cx="64.8" cy="22.176" r="3.816"/><circle stroke="#9A916C" stroke-width="2.448" cx="50.4" cy="7.776" r="3.816"/><circle stroke="#9A916C" stroke-width="2.448" cx="50.4" cy="22.176" r="3.816"/><circle stroke="#9A916C" stroke-width="2.448" cx="36" cy="7.776" r="3.816"/><circle stroke="#9A916C" stroke-width="2.448" cx="36" cy="22.176" r="3.816"/><g transform="translate(40 100)" fill-rule="nonzero"><path fill="#CCC" d="M17.41.688v.29H8.596v-.29h-6.66v12.606H24.07V.688z"/><path fill="#CCC" d="M8.596 15.312v-.288h8.814v.288h6.66V2.802H1.936v12.51z"/><circle fill="#000" cx="13.002" cy="8" r="4.634"/><path d="M8.366 8.224a4.633 4.633 0 0 0 9.264 0V8a4.631 4.631 0 1 1-9.264 0v.224z" fill="#000" opacity=".2"/><circle fill="#1A1A1A" cx="13.002" cy="8" r="4.464"/><circle fill="#333" cx="13.002" cy="7.894" r="4.464"/><path d="M8.536 8.106a4.463 4.463 0 0 0 4.462 4.464c2.466 0 4.466-2 4.466-4.464v-.212a4.466 4.466 0 0 1-4.466 4.464 4.463 4.463 0 0 1-4.462-4.464v.212z" fill="#000" opacity=".2"/><path d="M17.468 8.106a4.466 4.466 0 0 0-4.466-4.464A4.463 4.463 0 0 0 8.54 8.106v-.212a4.465 4.465 0 0 1 8.928 0v.212zM17.41.688h6.662v1H17.41zm-15.474 0h6.66v1h-6.66zm6.66.29h8.814v1H8.596z" fill="#FFF" opacity=".2"/><path fill="#000" opacity=".2" d="M17.41 15.008h6.662v1H17.41zm-15.474 0h6.66v1h-6.66zm6.66-.292h8.814v1H8.596z"/></g></g><path d="M186.457 74.196h-14.472"/><path fill="#F2F2F2" fill-rule="nonzero" d="M186.457 74.192v7.666h-14.696v-7.666z"/><path d="M176.961 74.192s-1.29.936-1.734.854c-.438-.082-1.082.294-1.352 0l.036-.85 3.05-.004z" fill-opacity=".7" fill="#22B573" fill-rule="nonzero"/><g fill-rule="nonzero"><path fill="#FFF" d="M180.105 77.12v1.922h-1.708V77.12z"/><path fill="#B3B3B3" d="M180.105 77.07v1h-1.708v-1z"/></g><g fill-rule="nonzero"><path fill="#D1C690" d="M175.801 75.038l-1.926-.208v1.462l1.926-.208z"/><path d="M175.679 75.438h.016c.532.07.894.208 1.196.324.418.16 1.118 1.562 1.656 1.39.054-.024.12.024.132.086.016.07-.02.136-.078.156-.61.19-1.348-1.234-1.786-1.402a4.244 4.244 0 0 0-1.144-.308.116.116 0 0 1-.098-.134c.006-.064.052-.112.106-.112zm6.962 5.376l1.932.208V79.56l-1.932.208z" fill="#D1C690"/><path d="M179.335 77.774c.05 0 .098.042.11.096.126.584 2.176 2.302 3.77 2.302.066 0 .114.05.114.126-.004.068-.05.126-.114.126h-.004c-1.498 0-3.782-1.542-3.986-2.49a.135.135 0 0 1 .082-.156c.01-.004.018-.004.028-.004zm-.94-.034s.712.004.766-.622h-.766v.622z" fill="#D1C690"/><path d="M179.265 78.378s-.316-.614-.106-.704c.214-.098.356-.106.48.054.122.172-.374.65-.374.65z" fill="#D1C690"/><path d="M178.547 77.042c-.54.168-1.238-1.236-1.656-1.396a4.43 4.43 0 0 0-1.196-.324v.12c.532.07.894.208 1.196.324.418.16 1.118 1.562 1.656 1.39v-.114zm4.094 2.614l1.932-.206v.11l-1.932.208z" fill="#9D956C"/><path d="M179.449 77.754c.124.58 2.14 2.424 3.77 2.296v.122c-1.754.122-3.652-1.718-3.774-2.302l.004-.116zm-.288-.746h-.762v.116h.762v-.116zm.48.62c-.126-.16-.262-.152-.476-.062l-.004.122c.214-.098.358-.104.48.054v-.114z" fill="#9D956C"/></g><path fill="#FFF" fill-rule="nonzero" opacity=".5" d="M183.501 81.756v1h-8.446v-1z"/><path fill="#F2F2F2" fill-rule="nonzero" opacity=".5" d="M184.539 81.858v-7.662h-10.634l-.008 7.662z"/><path d="M184.437 80.552v.542c-.036.3.024.542-.196.542h-9.708c-.336 0-.352-.128.024-.128h8.692c.914 0 1.036-.208 1.036-.392l-.004-.548c.002-.364.156-.364.156-.016z" fill="#FFF" fill-rule="nonzero" opacity=".55"/><path d="M174.183 74.634c0-.136-.024-.278.196-.278h9.634c.336 0 .352.128-.016.128l-7.178.004c-1.19.006-2.636.146-2.636.146z" fill="#000" fill-rule="nonzero" opacity=".03"/><path d="M186.455 74.192h-1.542v1.042c0 .25-.16.426-.376.538v6.096h2.02V74.2" fill="#D1C690" fill-rule="nonzero"/><path fill="#FFF" fill-rule="nonzero" opacity=".5" d="M186.555 81.756v1h-2.012v-1z"/><path d="M171.761 74.192v7.666h2.144V74.93c-.21-.114-.382-.292-.382-.542v-.2h-1.66" fill="#D1C690" fill-rule="nonzero"/><path fill="#FFF" fill-rule="nonzero" opacity=".5" d="M173.907 81.756v1h-2.144v-1z"/><path d="M186.457 54.99h-14.472"/><path fill="#F2F2F2" fill-rule="nonzero" d="M186.457 54.986v7.666h-14.696v-7.666z"/><path d="M176.961 54.986s-1.29.934-1.734.852c-.438-.082-1.082.296-1.352 0l.036-.848 3.05-.004z" fill-opacity=".7" fill="#22B573" fill-rule="nonzero"/><g fill-rule="nonzero"><path fill="#FFF" d="M180.105 57.916v1.922h-1.708v-1.922z"/><path fill="#B3B3B3" d="M180.105 57.866v1h-1.708v-1z"/></g><g fill-rule="nonzero"><path fill="#D1C690" d="M175.801 55.834l-1.926-.21v1.464l1.926-.21z"/><path d="M175.679 56.232h.016c.532.07.894.208 1.196.324.418.16 1.118 1.562 1.656 1.388.054-.024.12.026.132.088.016.07-.02.136-.078.156-.61.192-1.348-1.232-1.786-1.4a4.236 4.236 0 0 0-1.144-.31.118.118 0 0 1-.098-.136c.006-.06.052-.11.106-.11zm6.962 5.378l1.932.206v-1.46l-1.932.206z" fill="#D1C690"/><path d="M179.335 58.568c.05 0 .098.04.11.094.126.584 2.176 2.304 3.77 2.304.066 0 .114.048.114.126-.004.068-.05.126-.114.126h-.004c-1.498 0-3.782-1.542-3.986-2.49a.133.133 0 0 1 .082-.156c.01-.004.018-.004.028-.004zm-.94-.034s.712.004.766-.624h-.766v.624z" fill="#D1C690"/><path d="M179.265 59.174s-.316-.612-.106-.702c.214-.098.356-.106.48.056.122.168-.374.646-.374.646z" fill="#D1C690"/><path d="M178.547 57.838c-.54.168-1.238-1.236-1.656-1.396a4.44 4.44 0 0 0-1.196-.322v.12a4.76 4.76 0 0 1 1.196.322c.418.16 1.118 1.562 1.656 1.39v-.114zm4.094 2.612l1.932-.204v.11l-1.932.206z" fill="#9D956C"/><path d="M179.449 58.548c.124.58 2.14 2.424 3.77 2.294v.124c-1.754.12-3.652-1.72-3.774-2.304l.004-.114zm-.288-.746h-.762v.114h.762v-.114zm.48.622c-.126-.16-.262-.152-.476-.062l-.004.124c.214-.098.358-.104.48.054v-.116z" fill="#9D956C"/></g><path fill="#FFF" fill-rule="nonzero" opacity=".5" d="M183.501 62.55v1h-8.446v-1z"/><path fill="#F2F2F2" fill-rule="nonzero" opacity=".5" d="M184.539 62.652V54.99h-10.634l-.008 7.662z"/><path d="M184.437 61.348v.542c-.036.298.024.542-.196.542h-9.708c-.336 0-.352-.126.024-.126h8.692c.914 0 1.036-.21 1.036-.394l-.004-.546c.002-.366.156-.366.156-.018z" fill="#FFF" fill-rule="nonzero" opacity=".55"/><path d="M174.183 55.43c0-.134-.024-.276.196-.276h9.634c.336 0 .352.128-.016.128l-7.178.004c-1.19.002-2.636.144-2.636.144z" fill="#000" fill-rule="nonzero" opacity=".03"/><path d="M186.455 54.986h-1.542v1.042c0 .25-.16.428-.376.54v6.094h2.02V54.99" fill="#D1C690" fill-rule="nonzero"/><path fill="#FFF" fill-rule="nonzero" opacity=".5" d="M186.555 62.55v1h-2.012v-1z"/><path d="M171.761 54.986v7.666h2.144v-6.928c-.21-.112-.382-.292-.382-.542v-.2h-1.66" fill="#D1C690" fill-rule="nonzero"/><path fill="#FFF" fill-rule="nonzero" opacity=".5" d="M173.907 62.55v1h-2.144v-1z"/><path d="M186.457 35.416h-14.472"/><path fill="#F2F2F2" fill-rule="nonzero" d="M186.457 35.412v7.666h-14.696v-7.666z"/><path d="M176.961 35.412s-1.29.934-1.734.852c-.438-.082-1.082.296-1.352 0l.036-.848 3.05-.004z" fill-opacity=".7" fill="#22B573" fill-rule="nonzero"/><g fill-rule="nonzero"><path fill="#FFF" d="M180.105 38.342v1.922h-1.708v-1.922z"/><path fill="#B3B3B3" d="M180.105 38.292v1h-1.708v-1z"/></g><g fill-rule="nonzero"><path fill="#D1C690" d="M175.801 36.26l-1.926-.208v1.462l1.926-.208z"/><path d="M175.679 36.658h.016c.532.07.894.208 1.196.324.418.16 1.118 1.562 1.656 1.39.054-.026.12.024.132.086a.133.133 0 0 1-.078.156c-.61.19-1.348-1.234-1.786-1.402a4.244 4.244 0 0 0-1.144-.308.117.117 0 0 1-.098-.136c.006-.06.052-.11.106-.11zm6.962 5.378l1.932.206v-1.46l-1.932.206z" fill="#D1C690"/><path d="M179.335 38.994c.05 0 .098.042.11.094.126.584 2.176 2.304 3.77 2.304.066 0 .114.048.114.126-.004.068-.05.126-.114.126h-.004c-1.498 0-3.782-1.542-3.986-2.49a.133.133 0 0 1 .082-.156c.01-.004.018-.004.028-.004zm-.94-.032s.712.004.766-.624h-.766v.624z" fill="#D1C690"/><path d="M179.265 39.6s-.316-.612-.106-.702c.214-.098.356-.106.48.054.122.17-.374.648-.374.648z" fill="#D1C690"/><path d="M178.547 38.264c-.54.168-1.238-1.236-1.656-1.394a4.43 4.43 0 0 0-1.196-.324v.12c.532.07.894.208 1.196.324.418.16 1.118 1.562 1.656 1.39v-.116zm4.094 2.614l1.932-.206v.11l-1.932.206z" fill="#9D956C"/><path d="M179.449 38.976c.124.58 2.14 2.424 3.77 2.294v.124c-1.754.12-3.652-1.72-3.774-2.304l.004-.114zm-.288-.746h-.762v.114h.762v-.114zm.48.62c-.126-.16-.262-.15-.476-.06l-.004.122c.214-.098.358-.104.48.054v-.116z" fill="#9D956C"/></g><path fill="#FFF" fill-rule="nonzero" opacity=".5" d="M183.501 42.978v1h-8.446v-1z"/><path fill="#F2F2F2" fill-rule="nonzero" opacity=".5" d="M184.539 43.078v-7.662h-10.634l-.008 7.662z"/><path d="M184.437 41.774v.542c-.036.3.024.542-.196.542h-9.708c-.336 0-.352-.126.024-.126h8.692c.914 0 1.036-.21 1.036-.394l-.004-.542c.002-.37.156-.37.156-.022z" fill="#FFF" fill-rule="nonzero" opacity=".55"/><path d="M174.183 35.856c0-.134-.024-.276.196-.276h9.634c.336 0 .352.128-.016.128l-7.178.004c-1.19.004-2.636.144-2.636.144z" fill="#000" fill-rule="nonzero" opacity=".03"/><path d="M186.455 35.412h-1.542v1.042c0 .25-.16.426-.376.538v6.094h2.02v-7.668" fill="#D1C690" fill-rule="nonzero"/><path fill="#FFF" fill-rule="nonzero" opacity=".5" d="M186.555 42.978v1h-2.012v-1z"/><path d="M171.761 35.412v7.666h2.144V36.15c-.21-.112-.382-.292-.382-.542v-.2h-1.66" fill="#D1C690" fill-rule="nonzero"/><path fill="#FFF" fill-rule="nonzero" opacity=".5" d="M173.907 42.978v1h-2.144v-1z"/><path d="M186.457 20.396h-14.472"/><path fill="#F2F2F2" fill-rule="nonzero" d="M186.457 20.392v7.666h-14.696v-7.666z"/><path d="M176.961 20.392s-1.29.934-1.734.852c-.438-.082-1.082.296-1.352 0l.036-.848 3.05-.004z" fill-opacity=".7" fill="#22B573" fill-rule="nonzero"/><g fill-rule="nonzero"><path fill="#FFF" d="M180.105 23.322v1.922h-1.708v-1.922z"/><path fill="#B3B3B3" d="M180.105 23.27v1h-1.708v-1z"/></g><g fill-rule="nonzero"><path fill="#D1C690" d="M175.801 21.238l-1.926-.206v1.46l1.926-.208z"/><path d="M175.679 21.638h.016c.532.07.894.208 1.196.324.418.16 1.118 1.56 1.656 1.388.054-.024.12.026.132.086.016.07-.02.136-.078.156-.61.192-1.348-1.234-1.786-1.402a4.252 4.252 0 0 0-1.144-.306.118.118 0 0 1-.098-.136c.006-.062.052-.11.106-.11zm6.962 5.376l1.932.208V25.76l-1.932.208z" fill="#D1C690"/><path d="M179.335 23.974c.05 0 .098.04.11.094.126.584 2.176 2.304 3.77 2.304.066 0 .114.048.114.126-.004.068-.05.126-.114.126h-.004c-1.498 0-3.782-1.542-3.986-2.49a.133.133 0 0 1 .082-.156c.01-.004.018-.004.028-.004zm-.94-.034s.712.004.766-.622h-.766v.622z" fill="#D1C690"/><path d="M179.265 24.578s-.316-.612-.106-.702c.214-.1.356-.108.48.052.122.172-.374.65-.374.65z" fill="#D1C690"/><path d="M178.547 23.242c-.54.168-1.238-1.236-1.656-1.396a4.506 4.506 0 0 0-1.196-.324v.122c.532.07.894.208 1.196.324.418.16 1.118 1.56 1.656 1.388v-.114zm4.094 2.614l1.932-.204v.108l-1.932.208z" fill="#9D956C"/><path d="M179.449 23.954c.124.58 2.14 2.424 3.77 2.294v.124c-1.754.12-3.652-1.72-3.774-2.304l.004-.114zm-.288-.746h-.762v.114h.762v-.114zm.48.62c-.126-.16-.262-.152-.476-.062l-.004.124c.214-.098.358-.104.48.052v-.114z" fill="#9D956C"/></g><path fill="#FFF" fill-rule="nonzero" opacity=".5" d="M183.501 27.956v1h-8.446v-1z"/><path fill="#F2F2F2" fill-rule="nonzero" opacity=".5" d="M184.539 28.058v-7.662h-10.634l-.008 7.662z"/><path d="M184.437 26.752v.542c-.036.298.024.542-.196.542h-9.708c-.336 0-.352-.126.024-.126h8.692c.914 0 1.036-.21 1.036-.394l-.004-.548c.002-.364.156-.364.156-.016z" fill="#FFF" fill-rule="nonzero" opacity=".55"/><path d="M174.183 20.834c0-.134-.024-.276.196-.276h9.634c.336 0 .352.126-.016.126l-7.178.004c-1.19.006-2.636.146-2.636.146z" fill="#000" fill-rule="nonzero" opacity=".03"/><path d="M186.455 20.392h-1.542v1.042c0 .25-.16.426-.376.54v6.094h2.02V20.4" fill="#D1C690" fill-rule="nonzero"/><path fill="#FFF" fill-rule="nonzero" opacity=".5" d="M186.555 27.956v1h-2.012v-1z"/><path d="M171.761 20.392v7.666h2.144V21.13c-.21-.116-.382-.292-.382-.542v-.2h-1.66" fill="#D1C690" fill-rule="nonzero"/><path fill="#FFF" fill-rule="nonzero" opacity=".5" d="M173.907 27.956v1h-2.144v-1z"/><path fill="#1A1A1A" fill-rule="nonzero" d="M97.213 25.88l27.341 27.342-26.613 26.612-27.34-27.34z"/><g fill-rule="nonzero"><g transform="rotate(90 17 19.5)"><circle fill="#E6E6E6" cx="5.23" cy="5.234" r="3.784"/><path d="M9.018 5.888a3.784 3.784 0 0 0-3.786-3.782 3.784 3.784 0 0 0-3.786 3.782v-.654A3.784 3.784 0 0 1 5.232 1.45a3.784 3.784 0 0 1 3.786 3.784v.654z" fill="#FFF" opacity=".2"/><path d="M1.446 4.548a3.787 3.787 0 0 0 7.572 0v.686a3.788 3.788 0 0 1-3.786 3.788 3.788 3.788 0 0 1-3.786-3.788v-.686z" fill="#1A1A1A" opacity=".1"/><path fill="#CCC" d="M3.646 3.646h3.172V6.82H3.646z"/><path fill="#FFF" opacity=".2" d="M3.646 3.646h3.172v1H3.646z"/><path fill="#000" opacity=".1" d="M3.646 6.578h3.172v1H3.646z"/></g><g transform="rotate(90 24 26.5)"><circle fill="#E6E6E6" cx="5.23" cy="4.836" r="3.784"/><path d="M9.018 5.492a3.788 3.788 0 0 0-3.786-3.788 3.788 3.788 0 0 0-3.786 3.788v-.656a3.789 3.789 0 0 1 3.786-3.788 3.789 3.789 0 0 1 3.786 3.788v.656z" fill="#FFF" opacity=".2"/><path d="M1.446 4.146a3.788 3.788 0 0 0 3.786 3.788 3.788 3.788 0 0 0 3.786-3.788v.69a3.786 3.786 0 0 1-7.572 0v-.69z" fill="#1A1A1A" opacity=".1"/><path fill="#CCC" d="M3.646 3.246h3.172v3.176H3.646z"/><path fill="#FFF" opacity=".2" d="M3.646 3.246h3.172v1H3.646z"/><path fill="#000" opacity=".1" d="M3.646 6.176h3.172v1H3.646z"/></g><g transform="rotate(90 31 33.5)"><circle fill="#E6E6E6" cx="5.23" cy="4.434" r="3.784"/><path d="M9.018 5.09a3.786 3.786 0 0 0-7.572 0v-.656a3.786 3.786 0 0 1 7.572 0v.656z" fill="#FFF" opacity=".2"/><path d="M1.446 3.75a3.786 3.786 0 0 0 7.572 0v.684a3.788 3.788 0 0 1-3.786 3.788 3.788 3.788 0 0 1-3.786-3.788V3.75z" fill="#1A1A1A" opacity=".1"/><path fill="#CCC" d="M3.646 2.848h3.172v3.174H3.646z"/><path fill="#FFF" opacity=".2" d="M3.646 2.848h3.172v1H3.646z"/><path fill="#000" opacity=".1" d="M3.646 5.78h3.172v1H3.646z"/></g><g transform="rotate(90 38 40.5)"><circle fill="#E6E6E6" cx="5.23" cy="4.034" r="3.784"/><path d="M9.018 4.694A3.789 3.789 0 0 0 5.232.906a3.789 3.789 0 0 0-3.786 3.788v-.656A3.789 3.789 0 0 1 5.232.25a3.789 3.789 0 0 1 3.786 3.788v.656z" fill="#FFF" opacity=".2"/><path d="M1.446 3.348a3.788 3.788 0 0 0 3.786 3.788 3.788 3.788 0 0 0 3.786-3.788v.69a3.786 3.786 0 0 1-7.572 0v-.69z" fill="#1A1A1A" opacity=".1"/><path fill="#CCC" d="M3.646 2.448h3.172V5.62H3.646z"/><path fill="#FFF" opacity=".2" d="M3.646 2.448h3.172v1H3.646z"/><path fill="#000" opacity=".1" d="M3.646 5.376h3.172v1H3.646z"/></g><g transform="rotate(90 46 48.5)"><circle fill="#E6E6E6" cx="5.23" cy="5.632" r="3.784"/><path d="M9.018 6.292a3.789 3.789 0 0 0-3.786-3.788 3.789 3.789 0 0 0-3.786 3.788v-.656a3.789 3.789 0 0 1 3.786-3.788 3.789 3.789 0 0 1 3.786 3.788v.656z" fill="#FFF" opacity=".2"/><path d="M1.446 4.952a3.786 3.786 0 0 0 7.572 0v.684a3.787 3.787 0 0 1-7.572 0v-.684z" fill="#1A1A1A" opacity=".1"/><path fill="#CCC" d="M3.646 4.044h3.172v3.172H3.646z"/><path fill="#FFF" opacity=".2" d="M3.646 4.044h3.172v1H3.646z"/><path fill="#000" opacity=".1" d="M3.646 6.974h3.172v1H3.646z"/></g><g transform="rotate(90 53 55.5)"><circle fill="#E6E6E6" cx="5.23" cy="5.232" r="3.784"/><path d="M9.018 5.888a3.787 3.787 0 0 0-7.572 0v-.656a3.787 3.787 0 0 1 7.572 0v.656z" fill="#FFF" opacity=".2"/><path d="M1.446 4.544a3.789 3.789 0 0 0 3.786 3.788 3.789 3.789 0 0 0 3.786-3.788v.688a3.784 3.784 0 0 1-3.786 3.784 3.784 3.784 0 0 1-3.786-3.784v-.688z" fill="#1A1A1A" opacity=".1"/><path fill="#CCC" d="M3.646 3.642h3.172v3.176H3.646z"/><path fill="#FFF" opacity=".2" d="M3.646 3.642h3.172v1H3.646z"/><path fill="#000" opacity=".1" d="M3.646 6.574h3.172v1H3.646z"/></g><g transform="rotate(90 60 62.5)"><circle fill="#E6E6E6" cx="5.23" cy="4.832" r="3.784"/><path d="M9.018 5.488a3.784 3.784 0 0 0-3.786-3.784 3.784 3.784 0 0 0-3.786 3.784v-.656a3.786 3.786 0 0 1 7.572 0v.656z" fill="#FFF" opacity=".2"/><path d="M1.446 4.146a3.786 3.786 0 0 0 7.572 0v.686A3.789 3.789 0 0 1 5.232 8.62a3.789 3.789 0 0 1-3.786-3.788v-.686z" fill="#1A1A1A" opacity=".1"/><path fill="#CCC" d="M3.646 3.246h3.172v3.172H3.646z"/><path fill="#FFF" opacity=".2" d="M3.646 3.246h3.172v1H3.646z"/><path fill="#000" opacity=".1" d="M3.646 6.176h3.172v1H3.646z"/></g><g transform="rotate(90 67 69.5)"><circle fill="#E6E6E6" cx="5.23" cy="4.434" r="3.784"/><path d="M9.018 5.09a3.787 3.787 0 0 0-7.572 0v-.656a3.787 3.787 0 0 1 7.572 0v.656z" fill="#FFF" opacity=".2"/><path d="M1.446 3.748a3.787 3.787 0 0 0 7.572 0v.688a3.786 3.786 0 0 1-7.572 0v-.688z" fill="#1A1A1A" opacity=".1"/><path fill="#CCC" d="M3.646 2.844h3.172V6.02H3.646z"/><path fill="#FFF" opacity=".2" d="M3.646 2.844h3.172v1H3.646z"/><path fill="#000" opacity=".1" d="M3.646 5.774h3.172v1H3.646z"/></g><g transform="rotate(90 74 76.5)"><circle fill="#E6E6E6" cx="5.23" cy="4.036" r="3.784"/><path d="M9.018 4.688A3.784 3.784 0 0 0 5.232.906a3.784 3.784 0 0 0-3.786 3.782v-.652a3.787 3.787 0 0 1 7.572 0v.652z" fill="#FFF" opacity=".2"/><path d="M1.446 3.348a3.787 3.787 0 0 0 7.572 0v.688a3.784 3.784 0 0 1-3.786 3.782 3.784 3.784 0 0 1-3.786-3.782v-.688z" fill="#1A1A1A" opacity=".1"/><path fill="#CCC" d="M3.646 2.446h3.172v3.176H3.646z"/><path fill="#FFF" opacity=".2" d="M3.646 2.446h3.172v1H3.646z"/><path fill="#000" opacity=".1" d="M3.646 5.376h3.172v1H3.646z"/></g><g transform="rotate(90 82 84.5)"><circle fill="#E6E6E6" cx="5.23" cy="5.634" r="3.784"/><path d="M9.018 6.29a3.787 3.787 0 0 0-7.572 0v-.656a3.787 3.787 0 0 1 7.572 0v.656z" fill="#FFF" opacity=".2"/><path d="M1.446 4.95a3.784 3.784 0 0 0 3.786 3.782A3.784 3.784 0 0 0 9.018 4.95v.684a3.787 3.787 0 0 1-7.572 0V4.95z" fill="#1A1A1A" opacity=".1"/><path fill="#CCC" d="M3.646 4.048h3.172V7.22H3.646z"/><path fill="#FFF" opacity=".2" d="M3.646 4.048h3.172v1H3.646z"/><path fill="#000" opacity=".1" d="M3.646 6.978h3.172v1H3.646z"/></g><g transform="rotate(90 89 91.5)"><circle fill="#E6E6E6" cx="5.23" cy="5.232" r="3.784"/><path d="M9.018 5.888a3.787 3.787 0 0 0-7.572 0v-.652a3.787 3.787 0 0 1 7.572 0v.652z" fill="#FFF" opacity=".2"/><path d="M1.446 4.548a3.787 3.787 0 0 0 7.572 0v.688a3.784 3.784 0 0 1-3.786 3.782 3.784 3.784 0 0 1-3.786-3.782v-.688z" fill="#1A1A1A" opacity=".1"/><path fill="#CCC" d="M3.646 3.646h3.172v3.176H3.646z"/><path fill="#FFF" opacity=".2" d="M3.646 3.646h3.172v1H3.646z"/><path fill="#000" opacity=".1" d="M3.646 6.576h3.172v1H3.646z"/></g><g transform="rotate(90 96 98.5)"><circle fill="#E6E6E6" cx="5.23" cy="4.834" r="3.784"/><path d="M9.018 5.49a3.787 3.787 0 0 0-7.572 0v-.656a3.787 3.787 0 0 1 7.572 0v.656z" fill="#FFF" opacity=".2"/><path d="M1.446 4.146a3.787 3.787 0 0 0 7.572 0v.688a3.787 3.787 0 0 1-7.572 0v-.688z" fill="#1A1A1A" opacity=".1"/><path fill="#CCC" d="M3.646 3.248h3.172V6.42H3.646z"/><path fill="#FFF" opacity=".2" d="M3.646 3.248h3.172v1H3.646z"/><path fill="#000" opacity=".1" d="M3.646 6.176h3.172v1H3.646z"/></g><g transform="rotate(90 103 105.5)"><circle fill="#E6E6E6" cx="5.23" cy="4.428" r="3.784"/><path d="M9.018 5.084a3.784 3.784 0 0 0-3.786-3.782 3.784 3.784 0 0 0-3.786 3.782v-.652a3.787 3.787 0 0 1 7.572 0v.652z" fill="#FFF" opacity=".2"/><path d="M1.446 3.746a3.787 3.787 0 0 0 7.572 0v.688a3.784 3.784 0 0 1-3.786 3.782 3.784 3.784 0 0 1-3.786-3.782v-.688z" fill="#1A1A1A" opacity=".1"/><path fill="#CCC" d="M3.646 2.842h3.172v3.176H3.646z"/><path fill="#FFF" opacity=".2" d="M3.646 2.842h3.172v1H3.646z"/><path fill="#000" opacity=".1" d="M3.646 5.772h3.172v1H3.646z"/></g><g transform="rotate(90 110 112.5)"><circle fill="#E6E6E6" cx="5.23" cy="4.03" r="3.784"/><path d="M9.018 4.686a3.787 3.787 0 0 0-7.572 0V4.03a3.787 3.787 0 0 1 7.572 0v.656z" fill="#FFF" opacity=".2"/><path d="M1.446 3.342a3.787 3.787 0 0 0 7.572 0v.688a3.787 3.787 0 0 1-7.572 0v-.688z" fill="#1A1A1A" opacity=".1"/><path fill="#CCC" d="M3.646 2.444h3.172v3.172H3.646z"/><path fill="#FFF" opacity=".2" d="M3.646 2.444h3.172v1H3.646z"/><path fill="#000" opacity=".1" d="M3.646 5.374h3.172v1H3.646z"/></g><g transform="rotate(90 118 120.5)"><circle fill="#E6E6E6" cx="5.23" cy="5.628" r="3.784"/><path d="M9.018 6.284a3.787 3.787 0 0 0-7.572 0v-.652a3.79 3.79 0 0 1 3.786-3.79 3.79 3.79 0 0 1 3.786 3.79v.652z" fill="#FFF" opacity=".2"/><path d="M1.446 4.944a3.787 3.787 0 0 0 7.572 0v.688a3.784 3.784 0 0 1-3.786 3.782 3.784 3.784 0 0 1-3.786-3.782v-.688z" fill="#1A1A1A" opacity=".1"/><path fill="#CCC" d="M3.646 4.042h3.172v3.176H3.646z"/><path fill="#FFF" opacity=".2" d="M3.646 4.042h3.172v1H3.646z"/><path fill="#000" opacity=".1" d="M3.646 6.972h3.172v1H3.646z"/></g></g><g fill-rule="nonzero"><g transform="rotate(90 -26 62.5)"><circle fill="#E6E6E6" cx="5.708" cy="5.174" r="3.786"/><path d="M9.494 5.83a3.786 3.786 0 1 0-7.57 0v-.656a3.786 3.786 0 1 1 7.57 0v.656z" fill="#FFF" opacity=".2"/><path d="M1.928 4.486a3.784 3.784 0 0 0 3.784 3.786 3.79 3.79 0 0 0 3.79-3.786v.688a3.79 3.79 0 0 1-3.79 3.786 3.786 3.786 0 0 1-3.784-3.786v-.688z" fill="#1A1A1A" opacity=".1"/><path fill="#CCC" d="M4.122 3.586h3.176V6.76H4.122z"/><path fill="#FFF" opacity=".2" d="M4.122 3.586h3.176v1H4.122z"/><path fill="#000" opacity=".1" d="M4.122 6.516h3.176v1H4.122z"/></g><g transform="rotate(90 -19 69.5)"><circle fill="#E6E6E6" cx="5.708" cy="4.774" r="3.786"/><path d="M9.494 5.43a3.789 3.789 0 0 0-3.786-3.788A3.787 3.787 0 0 0 1.924 5.43v-.654a3.786 3.786 0 1 1 7.57 0v.654z" fill="#FFF" opacity=".2"/><path d="M1.928 4.086a3.787 3.787 0 1 0 7.574 0v.69a3.787 3.787 0 0 1-7.574 0v-.69z" fill="#1A1A1A" opacity=".1"/><path fill="#CCC" d="M4.122 3.184h3.176v3.178H4.122z"/><path fill="#FFF" opacity=".2" d="M4.122 3.184h3.176v1H4.122z"/><path fill="#000" opacity=".1" d="M4.122 6.116h3.176v1H4.122z"/></g><g transform="rotate(90 -12 76.5)"><circle fill="#E6E6E6" cx="5.708" cy="4.372" r="3.786"/><path d="M9.494 5.03a3.786 3.786 0 0 0-7.57 0v-.656a3.786 3.786 0 0 1 7.57 0v.656z" fill="#FFF" opacity=".2"/><path d="M1.928 3.69a3.787 3.787 0 0 0 7.574 0v.684a3.79 3.79 0 0 1-3.79 3.786 3.786 3.786 0 0 1-3.784-3.786V3.69z" fill="#1A1A1A" opacity=".1"/><path fill="#CCC" d="M4.122 2.784h3.176V5.96H4.122z"/><path fill="#FFF" opacity=".2" d="M4.122 2.788h3.176v1H4.122z"/><path fill="#000" opacity=".1" d="M4.122 5.712h3.176v1H4.122z"/></g><g transform="rotate(90 -5 83.5)"><circle fill="#E6E6E6" cx="5.708" cy="3.97" r="3.786"/><path d="M9.494 4.626a3.786 3.786 0 0 0-7.57 0V3.97a3.786 3.786 0 1 1 7.57 0v.656z" fill="#FFF" opacity=".2"/><path d="M1.928 3.288a3.784 3.784 0 0 0 3.784 3.784c2.09 0 3.79-1.694 3.79-3.784v.684a3.79 3.79 0 0 1-3.79 3.786 3.786 3.786 0 0 1-3.784-3.786v-.684z" fill="#1A1A1A" opacity=".1"/><path fill="#CCC" d="M4.122 2.38h3.176v3.176H4.122z"/><path fill="#FFF" opacity=".2" d="M4.122 2.38h3.176v1H4.122z"/><path fill="#000" opacity=".1" d="M4.122 5.31h3.176v1H4.122z"/></g><g transform="rotate(90 3 91.5)"><circle fill="#E6E6E6" cx="5.708" cy="5.57" r="3.788"/><path d="M9.494 6.224a3.784 3.784 0 0 0-3.786-3.782 3.782 3.782 0 0 0-3.784 3.782V5.57a3.783 3.783 0 0 1 3.784-3.784A3.784 3.784 0 0 1 9.494 5.57v.654z" fill="#FFF" opacity=".2"/><path d="M1.928 4.884a3.784 3.784 0 0 0 3.784 3.784c2.09 0 3.79-1.694 3.79-3.784v.686a3.787 3.787 0 0 1-7.574 0v-.686z" fill="#1A1A1A" opacity=".1"/><path fill="#CCC" d="M4.122 3.982h3.176v3.174H4.122z"/><path fill="#FFF" opacity=".2" d="M4.122 3.982h3.176v1H4.122z"/><path fill="#000" opacity=".1" d="M4.122 6.914h3.176v1H4.122z"/></g><g transform="rotate(90 10 98.5)"><circle fill="#E6E6E6" cx="5.708" cy="5.172" r="3.788"/><path d="M9.494 5.828a3.786 3.786 0 0 0-7.57 0v-.656a3.787 3.787 0 0 1 3.784-3.788 3.789 3.789 0 0 1 3.786 3.788v.656z" fill="#FFF" opacity=".2"/><path d="M1.928 4.484a3.787 3.787 0 1 0 7.574 0v.688c0 2.09-1.7 3.784-3.79 3.784a3.784 3.784 0 0 1-3.784-3.784v-.688z" fill="#1A1A1A" opacity=".1"/><path fill="#CCC" d="M4.122 3.582h3.176v3.176H4.122z"/><path fill="#FFF" opacity=".2" d="M4.122 3.582h3.176v1H4.122z"/><path fill="#000" opacity=".1" d="M4.122 6.512h3.176v1H4.122z"/></g><g transform="rotate(90 17 105.5)"><circle fill="#E6E6E6" cx="5.708" cy="4.77" r="3.786"/><path d="M9.494 5.426a3.786 3.786 0 0 0-7.57 0v-.654a3.784 3.784 0 1 1 7.57 0v.654z" fill="#FFF" opacity=".2"/><path d="M1.928 4.086A3.784 3.784 0 0 0 5.712 7.87c2.09 0 3.79-1.694 3.79-3.784v.686a3.79 3.79 0 0 1-3.79 3.786 3.786 3.786 0 0 1-3.784-3.786v-.686z" fill="#1A1A1A" opacity=".1"/><path fill="#CCC" d="M4.122 3.184h3.176v3.174H4.122z"/><path fill="#FFF" opacity=".2" d="M4.122 3.184h3.176v1H4.122z"/><path fill="#000" opacity=".1" d="M4.122 6.116h3.176v1H4.122z"/></g><g transform="rotate(90 24 112.5)"><circle fill="#E6E6E6" cx="5.708" cy="4.37" r="3.786"/><path d="M9.494 5.028a3.786 3.786 0 0 0-7.57 0v-.656a3.786 3.786 0 1 1 7.57 0v.656z" fill="#FFF" opacity=".2"/><path d="M1.928 3.684A3.786 3.786 0 0 0 5.712 7.47a3.79 3.79 0 0 0 3.79-3.786v.688c0 2.09-1.7 3.784-3.79 3.784a3.784 3.784 0 0 1-3.784-3.784v-.688z" fill="#1A1A1A" opacity=".1"/><path fill="#CCC" d="M4.122 2.782h3.176v3.174H4.122z"/><path fill="#FFF" opacity=".2" d="M4.122 2.784h3.176v1H4.122z"/><path fill="#000" opacity=".1" d="M4.122 5.712h3.176v1H4.122z"/></g><g transform="rotate(90 31 119.5)"><circle fill="#E6E6E6" cx="5.708" cy="3.97" r="3.786"/><path d="M9.494 4.626a3.786 3.786 0 0 0-7.57 0v-.652c0-2.09 1.694-3.79 3.784-3.79a3.79 3.79 0 0 1 3.786 3.79v.652z" fill="#FFF" opacity=".2"/><path d="M1.928 3.286a3.786 3.786 0 0 0 3.784 3.786 3.79 3.79 0 0 0 3.79-3.786v.688a3.787 3.787 0 0 1-7.574 0v-.688z" fill="#1A1A1A" opacity=".1"/><path fill="#CCC" d="M4.122 2.384h3.176V5.56H4.122z"/><path fill="#FFF" opacity=".2" d="M4.122 2.384h3.176v1H4.122z"/><path fill="#000" opacity=".1" d="M4.122 5.314h3.176v1H4.122z"/></g><g transform="rotate(90 39 127.5)"><circle fill="#E6E6E6" cx="5.708" cy="5.572" r="3.786"/><path d="M9.494 6.228a3.786 3.786 0 0 0-7.57 0v-.656a3.786 3.786 0 1 1 7.57 0v.656z" fill="#FFF" opacity=".2"/><path d="M1.928 4.884A3.786 3.786 0 0 0 5.712 8.67a3.79 3.79 0 0 0 3.79-3.786v.688a3.79 3.79 0 0 1-3.79 3.786 3.786 3.786 0 0 1-3.784-3.786v-.688z" fill="#1A1A1A" opacity=".1"/><path fill="#CCC" d="M4.122 3.986h3.176v3.172H4.122z"/><path fill="#FFF" opacity=".2" d="M4.122 3.986h3.176v1H4.122z"/><path fill="#000" opacity=".1" d="M4.122 6.916h3.176v1H4.122z"/></g><g transform="rotate(90 46 134.5)"><circle fill="#E6E6E6" cx="5.708" cy="5.168" r="3.786"/><path d="M9.494 5.826a3.784 3.784 0 0 0-3.786-3.782 3.782 3.782 0 0 0-3.784 3.782v-.652a3.786 3.786 0 1 1 7.57 0v.652z" fill="#FFF" opacity=".2"/><path d="M1.928 4.486a3.786 3.786 0 0 0 3.784 3.786 3.79 3.79 0 0 0 3.79-3.786v.688a3.787 3.787 0 0 1-7.574 0v-.688z" fill="#1A1A1A" opacity=".1"/><path fill="#CCC" d="M4.122 3.584h3.176V6.76H4.122z"/><path fill="#FFF" opacity=".2" d="M4.122 3.584h3.176v1H4.122z"/><path fill="#000" opacity=".1" d="M4.122 6.512h3.176v1H4.122z"/></g><g transform="rotate(90 53 141.5)"><circle fill="#E6E6E6" cx="5.708" cy="4.77" r="3.786"/><path d="M9.494 5.426a3.786 3.786 0 0 0-7.57 0V4.77a3.786 3.786 0 1 1 7.57 0v.656z" fill="#FFF" opacity=".2"/><path d="M1.928 4.084A3.786 3.786 0 0 0 5.712 7.87a3.79 3.79 0 0 0 3.79-3.786v.688a3.79 3.79 0 0 1-3.79 3.786 3.786 3.786 0 0 1-3.784-3.786v-.688z" fill="#1A1A1A" opacity=".1"/><path fill="#CCC" d="M4.122 3.184h3.176v3.172H4.122z"/><path fill="#FFF" opacity=".2" d="M4.122 3.184h3.176v1H4.122z"/><path fill="#000" opacity=".1" d="M4.122 6.114h3.176v1H4.122z"/></g><g transform="rotate(90 60 148.5)"><circle fill="#E6E6E6" cx="5.708" cy="4.366" r="3.786"/><path d="M9.494 5.022A3.784 3.784 0 0 0 5.708 1.24a3.782 3.782 0 0 0-3.784 3.782V4.37a3.786 3.786 0 1 1 7.57 0v.652z" fill="#FFF" opacity=".2"/><path d="M1.928 3.682a3.786 3.786 0 0 0 3.784 3.786 3.79 3.79 0 0 0 3.79-3.786v.688a3.787 3.787 0 0 1-7.574 0v-.688z" fill="#1A1A1A" opacity=".1"/><path fill="#CCC" d="M4.122 2.78h3.176v3.176H4.122z"/><path fill="#FFF" opacity=".2" d="M4.122 2.78h3.176v1H4.122z"/><path fill="#000" opacity=".1" d="M4.122 5.71h3.176v1H4.122z"/></g><g transform="rotate(90 67 155.5)"><circle fill="#E6E6E6" cx="5.708" cy="3.968" r="3.786"/><path d="M9.494 4.624a3.786 3.786 0 0 0-7.57 0v-.656a3.786 3.786 0 1 1 7.57 0v.656z" fill="#FFF" opacity=".2"/><path d="M1.928 3.284a3.787 3.787 0 0 0 7.574 0v.684a3.79 3.79 0 0 1-3.79 3.786 3.786 3.786 0 0 1-3.784-3.786v-.684z" fill="#1A1A1A" opacity=".1"/><path fill="#CCC" d="M4.122 2.382h3.176v3.172H4.122z"/><path fill="#FFF" opacity=".2" d="M4.122 2.382h3.176v1H4.122z"/><path fill="#000" opacity=".1" d="M4.122 5.312h3.176v1H4.122z"/></g><g transform="rotate(90 75 163.5)"><circle fill="#E6E6E6" cx="5.708" cy="5.566" r="3.786"/><path d="M9.494 6.222a3.786 3.786 0 0 0-7.57 0V5.57a3.786 3.786 0 1 1 7.57 0v.652z" fill="#FFF" opacity=".2"/><path d="M1.928 4.882a3.786 3.786 0 0 0 3.784 3.786 3.79 3.79 0 0 0 3.79-3.786v.688a3.787 3.787 0 0 1-7.574 0v-.688z" fill="#1A1A1A" opacity=".1"/><path fill="#CCC" d="M4.122 3.98h3.176v3.176H4.122z"/><path fill="#FFF" opacity=".2" d="M4.122 3.98h3.176v1H4.122z"/><path fill="#000" opacity=".1" d="M4.122 6.91h3.176v1H4.122z"/></g></g><path d="M217.144 20.26c.008 0 .02-.002.028 0h3.89c.25 0 .476.134.594.358a.659.659 0 0 1-.032.694l-1.95 2.918c-.25.376-.872.376-1.122 0l-1.86-2.788a.678.678 0 0 1 .452-1.182zm17.684 4.218c-.008 0-.016.002-.028 0h-3.886a.675.675 0 0 1-.562-1.054l1.946-2.918c.25-.376.876-.376 1.126 0l1.86 2.792c.136.124.226.3.226.506a.682.682 0 0 1-.682.674z" fill="#FFF" fill-rule="nonzero"/><g fill-rule="nonzero"><path fill="#CCC" d="M25.916 70.759v10.75h-14.3v-10.75zm31.262 0v10.75h-14.3v-10.75zM25.916 20.291v10.75h-14.3v-10.75z"/><path fill="#F2F2F2" d="M11.916 70.759v10.75h-1v-10.75zm0-50.468v10.75h-1v-10.75z"/><path fill="#000" opacity=".2" d="M25.916 70.759v10.75h-1v-10.75zm0-50.468v10.75h-1v-10.75z"/><path fill="#CCC" d="M57.178 20.291v10.75h-14.3v-10.75z"/><path fill="#F2F2F2" d="M43.262 70.759v10.75h-1v-10.75zm0-50.468v10.75h-1v-10.75z"/><path fill="#666" d="M56.63 40.295v2.504h-5.964v-2.504z"/><path fill="#999" d="M56.634 40.295v1H51.01v-1z"/><path fill="#666" d="M56.63 44.959v2.508h-5.964v-2.508z"/><path fill="#999" d="M56.634 44.959v1H51.01v-1z"/><path fill="#666" d="M56.63 49.615v2.508h-5.964v-2.508z"/><path fill="#999" d="M56.634 49.615v1H51.01v-1z"/><path fill="#666" d="M56.63 54.279v2.508h-5.964v-2.508z"/><path fill="#999" d="M56.634 54.279v1H51.01v-1z"/><path fill="#666" d="M56.63 58.939v2.504h-5.964v-2.504z"/><path fill="#999" d="M56.634 58.939v1H51.01v-1z"/><path fill="#B3B3B3" d="M.53 72.131V29.685h50.772v42.446z"/><path fill="#CCC" d="M51.302 29.685v42.446h-1V29.685z"/><path fill="#333" d="M51.302 32.935v35.876H3.672V32.935z"/><path d="M50.03 29.165l1.278.516v5.708s-.25-5.188-.632-5.372c-.382-.184-.64.246-.64.246v-1.098h-.006zm0 43.414l1.274-.516v-5.708s-.254 5.184-.63 5.368c-.38.192-.634-.238-.634-.238l-.01 1.094z" fill="#CCC"/><path d="M.534 72.579h50.77v-12.29H50.03V41.453h1.274V29.167H.534v43.412zm24.882-7.262c.278 0 .5.218.5.5v1.458c0 .278-.222.5-.5.5h-13.3a.498.498 0 0 1-.5-.5v-1.458c0-.282.222-.5.5-.5h13.3zM5.642 57.025v-.352c0-.28.222-.512.5-.536l19.832-1.126a.538.538 0 0 0 .5-.532v-7.338a.536.536 0 0 0-.5-.53L6.142 45.483a.54.54 0 0 1-.5-.536v-.348c0-.278.222-.488.5-.472l25.082 1.438c.276.016.5.254.5.532v9.434a.543.543 0 0 1-.5.536L6.142 57.501a.474.474 0 0 1-.5-.476zm2.082 7.528l-1.728-1.722a1.408 1.408 0 0 1-.354-.86v-1.204a.5.5 0 0 1 .5-.5h19.276c.276 0 .5.226.5.5v1.204c0 .282-.224.5-.5.5H11.014c-.276 0-.66.16-.854.36l-1.728 1.722a.503.503 0 0 1-.708 0zm36.25-27.868c.276 0 .5.222.5.5v26.34c0 .274-.224.5-.5.5h-1.668a.5.5 0 0 1-.5-.5v-26.34c0-.278.222-.5.5-.5h1.668zM8.43 36.641l1.728 1.726c.196.2.578.356.854.356h14.404c.278 0 .5.222.5.5v1.208a.5.5 0 0 1-.5.5H6.138a.5.5 0 0 1-.5-.5v-1.208c0-.278.16-.656.356-.856l1.726-1.726a.506.506 0 0 1 .71 0zm16.986-3.222c.278 0 .5.218.5.5v1.458c0 .278-.222.5-.5.5h-13.3a.498.498 0 0 1-.5-.5v-1.458c0-.282.222-.5.5-.5h13.3z" fill="#E6E6E6"/><path fill="#F2F2F2" d="M.53 30.079v-.914h50.8v3.45zm0 42.5l37.194-1.28 13.606-1.278v2.558z"/><path fill="#F2F2F2" d="M1.234 72.575H.53V29.173h.704"/></g><g fill-rule="nonzero"><path fill="#404040" d="M228.319 72.212h22.414l3.02-3.02V61.33l-3.02-3.022h-22.414l-3.024 3.022v7.862zm0-14.362h22.414l3.02-3.02v-7.864l-3.02-3.024h-22.414l-3.024 3.024v7.864zm0-14.356h22.414l3.02-3.024v-7.866l-3.02-3.016h-22.414l-3.024 3.016v7.866z"/><path fill="#404040" d="M228.319 72.212h22.414l3.02-3.02V61.33l-3.02-3.022h-22.414l-3.024 3.022v7.862zm0-14.362h22.414l3.02-3.02v-7.864l-3.02-3.024h-22.414l-3.024 3.024v7.864zm0-14.356h22.414l3.02-3.024v-7.866l-3.02-3.016h-22.414l-3.024 3.016v7.866z"/><path fill="#8D8C8C" d="M244.34 39.105v-4.6h4.598v4.6zm-14.397-.002V34.5h4.596v4.602zm14.396 14.398v-4.596h4.598v4.596zm-14.396 0v-4.596h4.596v4.596zm14.395 14.397v-4.596h4.6v4.596z"/><path fill="#8D8455" d="M229.943 67.897V63.3h4.596v4.598z"/><path fill="#8C8663" d="M231.053 66.783v-2.366h2.368v2.366z"/><path fill="#B8AF82" d="M234.537 67.898l-1.116-1.118h-2.364l-1.116 1.118z"/><path fill="#80795B" d="M231.057 64.42v2.36l-1.116 1.118v-4.596z"/><path fill="#5E5B43" d="M233.421 64.42h-2.364l-1.116-1.118h4.596z"/><path fill="#9A916C" d="M234.537 67.898l-1.116-1.118v-2.36l1.116-1.118z"/><path fill="#8C8663" d="M245.456 66.782v-2.368h2.366v2.368z"/><path fill="#B8AF82" d="M248.935 67.898l-1.116-1.118h-2.362l-1.116 1.118z"/><path fill="#80795B" d="M245.457 64.42v2.36l-1.116 1.118v-4.596z"/><path fill="#5E5B43" d="M247.819 64.42h-2.362l-1.116-1.118h4.594z"/><path fill="#9A916C" d="M248.935 67.898l-1.116-1.118v-2.36l1.116-1.118z"/><path fill="#8C8663" d="M231.052 52.387v-2.368h2.37v2.368z"/><path fill="#B8AF82" d="M234.537 53.502l-1.116-1.116h-2.364l-1.116 1.116z"/><path fill="#80795B" d="M231.057 50.022v2.364l-1.116 1.116v-4.596z"/><path fill="#5E5B43" d="M233.421 50.022h-2.364l-1.116-1.116h4.596z"/><path fill="#9A916C" d="M234.537 53.502l-1.116-1.116v-2.364l1.116-1.116z"/><path fill="#8C8663" d="M245.458 52.387v-2.37h2.364v2.37z"/><path fill="#B8AF82" d="M248.935 53.502l-1.116-1.116h-2.362l-1.116 1.116z"/><path fill="#80795B" d="M245.457 50.022v2.364l-1.116 1.116v-4.596z"/><path fill="#5E5B43" d="M247.819 50.022h-2.362l-1.116-1.116h4.594z"/><path fill="#9A916C" d="M248.935 53.502l-1.116-1.116v-2.364l1.116-1.116z"/><path fill="#8C8663" d="M231.052 37.985v-2.37h2.37v2.37z"/><path fill="#B8AF82" d="M234.537 39.104l-1.116-1.118h-2.364l-1.116 1.118z"/><path fill="#80795B" d="M231.057 35.618v2.368l-1.116 1.118V34.51z"/><path fill="#5E5B43" d="M233.421 35.618h-2.364l-1.116-1.108h4.596z"/><path fill="#9A916C" d="M234.537 39.104l-1.116-1.118v-2.368l1.116-1.108z"/><path fill="#8C8663" d="M245.456 37.985v-2.37h2.364v2.37z"/><path fill="#B8AF82" d="M248.935 39.104l-1.116-1.118h-2.362l-1.116 1.118z"/><path fill="#80795B" d="M245.457 35.618v2.368l-1.116 1.118V34.51z"/><path fill="#5E5B43" d="M247.819 35.618h-2.362l-1.116-1.108h4.594z"/><path fill="#9A916C" d="M248.935 39.104l-1.116-1.118v-2.368l1.116-1.108z"/></g></g></svg>