<svg width="373" height="283" xmlns="http://www.w3.org/2000/svg"><g fill="none" fill-rule="evenodd"><g transform="translate(9.902 .863)"><path d="M340.867 0l8.042 8.047V68.4l13.41 13.412v173.012l-13.408 13.411v8.13a5.286 5.286 0 0 1-5.281 5.284H5.49a5.287 5.287 0 0 1-5.281-5.285V5.28A5.28 5.28 0 0 1 5.489 0h335.378zM7.347 61.962a1.848 1.848 0 1 0 3.695.001 1.848 1.848 0 0 0-3.695 0zm-2.683 0c0 1.021.827 1.848 1.848 1.848 1.02 0 1.842-.827 1.842-1.848 0-1.02-.821-1.847-1.842-1.847-1.02 0-1.848.827-1.848 1.847zM7.347 98.98a1.848 1.848 0 1 0 3.695 0 1.848 1.848 0 0 0-3.695 0zm-2.683 0c0 1.02.827 1.848 1.848 1.848 1.02 0 1.842-.827 1.842-1.848a1.842 1.842 0 0 0-1.842-1.848c-1.02 0-1.848.827-1.848 1.848zm15.558-32.323a1.848 1.848 0 1 0 3.695.001 1.848 1.848 0 0 0-3.695 0zm0 1.342a1.848 1.848 0 1 0 3.695 0 1.848 1.848 0 0 0-3.695 0zm0 24.946a1.848 1.848 0 1 0 3.695 0 1.848 1.848 0 0 0-3.695 0zm0 1.34a1.848 1.848 0 1 0 3.695.001 1.848 1.848 0 0 0-3.695 0zm320.245-.402a8.448 8.448 0 0 0 16.895.028v-.03a8.445 8.445 0 0 0-8.433-8.462c-4.666-.007-8.449 3.767-8.462 8.433v.031zm0 147.532a8.447 8.447 0 0 0 8.433 8.462c4.666.008 8.455-3.765 8.462-8.429v-.033a8.45 8.45 0 0 0-8.433-8.467c-4.666-.007-8.449 3.769-8.462 8.435v.032zM72.23 13.412a8.45 8.45 0 0 0 8.436 8.46 8.45 8.45 0 0 0 8.46-8.436v-.024a8.445 8.445 0 0 0-8.436-8.46c-4.666-.006-8.455 3.77-8.46 8.436v.024zm-6.704 254.823a8.449 8.449 0 0 0 16.897.028v-.028a8.448 8.448 0 0 0-8.437-8.458 8.444 8.444 0 0 0-8.46 8.434v.024zM333.258 13.412a2.234 2.234 0 0 0 2.234 2.248c1.238.002 2.244-1 2.248-2.239v-.01c.004-1.24-1-2.246-2.237-2.25a2.242 2.242 0 0 0-2.245 2.24v.01zm-13.412 0a2.243 2.243 0 1 0 4.488.01v-.01a2.243 2.243 0 1 0-4.488-.011v.01zm-13.411 0a2.244 2.244 0 0 0 4.487.01v-.01a2.243 2.243 0 1 0-4.487-.011v.01zm-13.412 0a2.245 2.245 0 0 0 4.49.01v-.01a2.248 2.248 0 0 0-2.242-2.25 2.247 2.247 0 0 0-2.248 2.239v.01zm-13.412 0a2.245 2.245 0 0 0 4.487.01v-.01a2.243 2.243 0 1 0-4.487-.011v.01zm-13.412 0a2.234 2.234 0 0 0 2.234 2.248c1.238.002 2.244-1 2.248-2.239v-.01c.004-1.24-1-2.246-2.239-2.25a2.242 2.242 0 0 0-2.243 2.24v.01zm-13.411 0a2.243 2.243 0 1 0 4.487.01v-.01a2.243 2.243 0 1 0-4.487-.011v.01zm-13.412 0a2.244 2.244 0 0 0 4.487.01v-.01a2.243 2.243 0 1 0-4.487-.011v.01zm-93.883 254.823a2.243 2.243 0 1 0 4.488.015v-.015a2.243 2.243 0 0 0-2.237-2.25 2.24 2.24 0 0 0-2.25 2.235v.015zm13.414 0a2.243 2.243 0 1 0 4.487.015v-.015a2.243 2.243 0 0 0-2.237-2.25 2.24 2.24 0 0 0-2.25 2.235v.015zm13.41 0a2.245 2.245 0 0 0 4.49.015v-.015a2.244 2.244 0 0 0-4.49-.015v.015zm13.412 0a2.243 2.243 0 1 0 4.487.015v-.015a2.241 2.241 0 0 0-2.235-2.25 2.242 2.242 0 0 0-2.252 2.235v.015zm13.411 0a2.234 2.234 0 0 0 2.23 2.252 2.243 2.243 0 0 0 2.252-2.237v-.015a2.242 2.242 0 1 0-4.482-.015v.015zm13.412 0a2.243 2.243 0 1 0 4.488.015v-.015a2.244 2.244 0 0 0-4.488-.015v.015zm13.412 0a2.245 2.245 0 0 0 4.49.015v-.015a2.243 2.243 0 0 0-2.238-2.25 2.243 2.243 0 0 0-2.252 2.235v.015zm13.412 0a2.245 2.245 0 0 0 4.487.011v-.01a2.243 2.243 0 1 0-4.487-.01v.01zm26.823 0a2.234 2.234 0 0 0 2.234 2.25c1.238.002 2.244-1 2.248-2.239v-.01a2.242 2.242 0 0 0-4.482-.01v.01zm13.412 0a2.245 2.245 0 0 0 4.487.011v-.01a2.245 2.245 0 0 0-2.239-2.249 2.242 2.242 0 0 0-2.248 2.239v.01zm13.412 0a2.245 2.245 0 0 0 4.49.011v-.01a2.246 2.246 0 0 0-4.49-.01v.01zm13.412 0a2.245 2.245 0 0 0 4.487.011v-.01a2.243 2.243 0 1 0-4.487-.01v.01zm13.411 0a2.243 2.243 0 1 0 4.488.011v-.01a2.243 2.243 0 1 0-4.488-.01v.01zm13.412 0a2.234 2.234 0 0 0 2.234 2.25c1.238.002 2.244-1 2.248-2.239v-.01a2.244 2.244 0 0 0-2.237-2.249 2.242 2.242 0 0 0-2.245 2.239v.01zM217.915 13.412a2.243 2.243 0 0 0 2.237 2.25 2.243 2.243 0 0 0 2.252-2.237v-.015a2.243 2.243 0 1 0-4.489-.015v.017zm-13.41 0a2.237 2.237 0 0 0 2.232 2.25 2.243 2.243 0 0 0 2.25-2.237v-.015a2.234 2.234 0 0 0-2.23-2.252 2.245 2.245 0 0 0-2.252 2.237v.017zm-13.412 0a2.243 2.243 0 1 0 4.488.013v-.015a2.243 2.243 0 1 0-4.488-.015v.017zm-13.411 0a2.245 2.245 0 0 0 4.49.013l-.001-.015a2.243 2.243 0 1 0-4.49-.015v.017zm-13.41 0a2.242 2.242 0 0 0 2.237 2.25 2.24 2.24 0 0 0 2.25-2.237v-.015a2.243 2.243 0 1 0-4.487-.015v.017zm-13.414 0a2.243 2.243 0 0 0 2.237 2.25 2.243 2.243 0 0 0 2.252-2.237v-.015a2.245 2.245 0 0 0-4.489-.015v.017zm-13.41 0a2.24 2.24 0 1 0 4.482.013v-.015a2.235 2.235 0 0 0-2.232-2.252 2.243 2.243 0 0 0-2.25 2.237v.017zm-13.413 0a2.242 2.242 0 0 0 2.237 2.25 2.242 2.242 0 0 0 2.25-2.237v-.015a2.243 2.243 0 1 0-4.487-.015v.017zm-13.412 0a2.243 2.243 0 0 0 2.237 2.25 2.243 2.243 0 0 0 2.252-2.237v-.015a2.245 2.245 0 0 0-4.49-.015v.017zm-13.41 0a2.244 2.244 0 1 0 4.487.01v-.01a2.243 2.243 0 1 0-4.487-.011v.01z" fill="#00979D" fill-rule="nonzero"/><g transform="translate(1.863 22.353)"><path d="M8.405 249.235h6.706" stroke="#FFF" stroke-width="1.609" stroke-linecap="round"/><path d="M20.475 249.235a5.368 5.368 0 0 0-5.37-5.366m.005 10.733c2.97 0 5.37-2.405 5.37-5.367" stroke="#FFF" stroke-width="1.609"/><path d="M20.475 249.235h4.694m.001 3.355h6.705m-30.176 0h6.706m-3.353-3.355v6.704" stroke="#FFF" stroke-width="1.609" stroke-linecap="round"/><circle stroke="#FFF" stroke-width="1.609" cx="15.111" cy="249.235" r="2.122"/><text transform="rotate(-90 80.515 -67.029)" font-size="7.451" font-family="Helvetica" fill="#FFF"><tspan x="1.791" y="8">13</tspan></text><text transform="rotate(-90 87.221 -73.735)" font-size="7.451" font-family="Helvetica" fill="#FFF"><tspan x="1.791" y="8.001">12</tspan></text><text transform="rotate(-90 93.927 -80.44)" font-size="7.451" font-family="Helvetica" fill="#FFF"><tspan x="1.791" y="7.999">11</tspan></text><text transform="rotate(-90 100.633 -87.147)" font-size="7.451" font-family="Helvetica" fill="#FFF"><tspan x="1.791" y="8.002">10</tspan></text><text transform="rotate(-90 104.545 -96.647)" font-size="7.451" font-family="Helvetica" fill="#FFF"><tspan x="1.826" y="8">9</tspan></text><text transform="rotate(-90 111.25 -103.353)" font-size="7.451" font-family="Helvetica" fill="#FFF"><tspan x="1.826" y="8">8</tspan></text><text transform="rotate(-90 121.98 -114.082)" font-size="7.451" font-family="Helvetica" fill="#FFF"><tspan x="1.826" y="8.001">7</tspan></text><text transform="rotate(-90 128.686 -120.788)" font-size="7.451" font-family="Helvetica" fill="#FFF"><tspan x="1.826" y="8">6</tspan></text><text transform="rotate(-90 135.392 -127.494)" font-size="7.451" font-family="Helvetica" fill="#FFF"><tspan x="1.826" y="8">5</tspan></text><text transform="rotate(-90 142.098 -134.2)" font-size="7.451" font-family="Helvetica" fill="#FFF"><tspan x="1.826" y="8.001">4</tspan></text><text transform="rotate(-90 148.804 -140.905)" font-size="7.451" font-family="Helvetica" fill="#FFF"><tspan x="1.826" y="7.999">3</tspan></text><text transform="rotate(-90 155.51 -147.611)" font-size="7.451" font-family="Helvetica" fill="#FFF"><tspan x="1.826" y="8.001">2</tspan></text><text transform="rotate(-90 162.215 -154.317)" font-size="7.451" font-family="Helvetica" fill="#FFF"><tspan x="1.826" y="8">1</tspan></text><text transform="rotate(-90 168.921 -161.023)" font-size="7.451" font-family="Helvetica" fill="#FFF"><tspan x="1.826" y="8">0</tspan></text><text transform="translate(0 184.412)" font-size="7.779" font-family="Helvetica" fill="#FFF"><tspan x="1.7" y="8.373">+VIN</tspan></text><g fill="#FFF"><text transform="translate(14.902 139.706)" font-size="7.779" font-family="Helvetica"><tspan x=".21" y="8.149">L</tspan></text><path d="M20.76 152.53h1.056v1.053H20.76z" fill-rule="nonzero"/></g><g fill="#FFF"><text transform="translate(14.902 156.47)" font-size="8.712" font-family="Helvetica"><tspan x=".21" y="10.641">ON</tspan></text><path d="M20.76 172.649h1.056v1.054H20.76z" fill-rule="nonzero"/></g><text transform="translate(18.627 14.902)" font-size="7.779" font-family="Helvetica" fill="#FFF"><tspan x=".97" y="8.337">RESET</tspan></text><g fill="#FFF"><text transform="translate(14.902 96.863)" font-size="8.712" font-family="Helvetica"><tspan x=".21" y="9.895">RX</tspan></text><path d="M20.76 112.294h1.056v1.056H20.76z" fill-rule="nonzero"/></g><g fill="#FFF"><text transform="translate(14.902 117.353)" font-size="8.712" font-family="Helvetica"><tspan x=".21" y="9.522">TX</tspan></text><path d="M20.76 132.41h1.056v1.054H20.76z" fill-rule="nonzero"/></g></g><text transform="rotate(-90 229.346 31.32)" font-size="6.52" font-family="Helvetica" fill="#FFF"><tspan x="1.862" y="6">5V</tspan></text><text transform="rotate(-90 260.017 -.726)" font-size="7.451" fill="#FFF" font-family="Helvetica"><tspan x=".164" y="9.725">A0</tspan></text><text transform="rotate(-90 84.257 -37.768)" font-size="7.451" font-family="Helvetica" fill="#FFF"><tspan x=".93" y="8">AREF</tspan></text><g font-size="7.451" font-family="Helvetica" fill="#FFF"><text transform="rotate(-90 67.492 -26.591)"><tspan x=".721" y="8.533">SCL</tspan></text><text transform="rotate(-90 74.012 -33.11)"><tspan x=".785" y="8.903">SDA</tspan></text></g><text transform="translate(333.431 102.451)" font-size="7.779" font-family="Helvetica" fill="#FFF"><tspan x=".233" y="9.712">1</tspan></text><text transform="rotate(-90 88.167 -46.655)" font-size="7.451" font-family="Helvetica" fill="#FFF"><tspan x="1.396" y="8">GND</tspan></text><g font-family="Helvetica" fill="#FFF"><text font-size="6.845" transform="translate(227.255 37.255)"><tspan x="1.496" y="8.51">DIGITAL (PWM</tspan></text><text font-size="9.314" transform="translate(227.255 37.255)"><tspan x="60.885" y="9.648">~</tspan></text><text font-size="6.845" transform="translate(227.255 37.255)"><tspan x="66.437" y="8.51">)</tspan></text></g><text transform="rotate(-90 214.947 43.97)" font-size="6.52" font-family="Helvetica" fill="#FFF"><tspan x="0" y="6.001">RST</tspan></text><text transform="rotate(-90 221.653 37.263)" font-size="6.52" font-family="Helvetica" fill="#FFF"><tspan x="0" y="6.001">3V3</tspan></text><text transform="rotate(-90 265.54 -55.722)" font-size="6.635" fill="#FFF" font-family="Helvetica"><tspan x="-17.597" y="25.444">www.arduino.cc</tspan></text><text transform="rotate(-90 268.741 -60.38)" font-size="6.635" fill="#FFF" font-family="Helvetica"><tspan x="-19.053" y="26.376">MADE IN ITALY</tspan></text><g font-family="Helvetica" fill="#FFF"><text transform="translate(149.05 86.02)" font-size="10.017"><tspan x="1.67" y="11.707">Arduino</tspan></text><text transform="translate(201.172 55.103)" font-size="3.643"><tspan x="1.269" y="4.472">TM</tspan></text></g><g fill-rule="nonzero"><path d="M178.289 67.402c1.388-1.524 2.448-2.916 3.73-4.056 4.85-4.355 10.322-5.966 16.58-3.325 5.923 2.49 9.12 8.662 7.836 14.953-1.192 5.81-6.779 10.232-12.87 10.446-5.653.19-9.898-2.336-13.436-6.441-.544-.626-1.054-1.284-1.747-2.12-.49.583-.872 1.013-1.237 1.475-3.787 4.767-8.488 7.471-14.807 7.064-6.19-.395-11.858-6.084-12.242-12.272-.495-7.846 5.486-14.28 13.794-14.35 5.5-.047 9.807 2.793 13.158 7.072.38.464.75.931 1.24 1.554z" fill="#FFF"/><path d="M164.704 63.127c-5.722-.008-9.902 3.66-10.363 8.4-.411 4.203 2.925 8.402 7.519 9.404 4.53.98 8.143-.9 10.87-4.186 4.182-5.027 4.035-4.161.049-9.152-2.21-2.771-5.234-4.327-8.075-4.466zm28.347-.037c-.7.046-1.21.03-1.702.13-4.851.976-7.895 4.202-10.182 8.317-.177.324-.186.922-.004 1.237 2.057 3.57 4.644 6.631 8.75 7.922 3.984 1.25 7.467.22 10.207-2.839 2.463-2.734 3.02-5.977 1.392-9.36-1.718-3.573-4.793-5.15-8.46-5.408z" fill="#00979D"/></g><path d="M168.795 73.152a.232.232 0 0 1-.233.227h-8.46a.232.232 0 0 1-.232-.227v-2.56c0-.13.106-.23.233-.23h8.459a.24.24 0 0 1 .233.23v2.56zm27.933-2.554a.227.227 0 0 0-.23-.227h-2.493a.236.236 0 0 1-.231-.231v-2.487a.23.23 0 0 0-.227-.235h-2.56a.228.228 0 0 0-.225.235v2.487a.23.23 0 0 1-.233.23h-2.49a.234.234 0 0 0-.235.228v2.558c0 .13.112.232.235.232h2.49c.123 0 .233.105.233.231v2.487c0 .127.1.227.225.227h2.56a.23.23 0 0 0 .227-.227V73.62c0-.13.11-.23.23-.23h2.493a.234.234 0 0 0 .231-.233v-2.558zm130.592 1.745c0 7.174-6.706 13.042-14.902 13.042h-81.65c-8.196 0-14.902-5.87-14.902-13.042 0-7.173 6.706-13.043 14.902-13.043h81.65c8.196 0 14.902 5.87 14.902 13.043z" fill-rule="nonzero" fill="#FFF"/><text transform="translate(227.255 61.47)" font-size="14.902" font-family="Helvetica" fill="#0F7391"><tspan x="1.496" y="15.692">LEONARDO</tspan></text><text transform="rotate(-90 266.908 -7.246)" font-size="7.451" fill="#FFF" font-family="Helvetica"><tspan x=".535" y="9.725">A1</tspan></text><text transform="rotate(-90 273.8 -13.768)" font-size="7.451" fill="#FFF" font-family="Helvetica"><tspan x=".908" y="9.723">A2</tspan></text><text transform="rotate(-90 280.693 -20.285)" font-size="7.451" fill="#FFF" font-family="Helvetica"><tspan x="1.281" y="9.725">A3</tspan></text><text transform="rotate(-90 287.584 -26.805)" font-size="7.451" fill="#FFF" font-family="Helvetica"><tspan x="1.652" y="9.725">A4</tspan></text><text transform="rotate(-90 293.546 -34.256)" font-size="7.451" fill="#FFF" font-family="Helvetica"><tspan x=".164" y="9.725">A5</tspan></text><text transform="rotate(-90 249.463 11.202)" font-size="6.52" font-family="Helvetica" fill="#FFF"><tspan x="1.862" y="6.001">VIN</tspan></text><text transform="rotate(-90 236.052 24.613)" font-size="6.52" font-family="Helvetica" fill="#FFF"><tspan x="1.862" y="6">GND</tspan></text><text transform="rotate(-90 107.771 -66.195)" font-size="9.314" font-family="Helvetica" fill="#FFF"><tspan x="-.001" y="9.002">~</tspan></text><text transform="rotate(-90 114.142 -72.565)" font-size="9.314" font-family="Helvetica" fill="#FFF"><tspan x="-.001" y="9.001">~</tspan></text><text transform="rotate(-90 118.761 -81.357)" font-size="9.314" font-family="Helvetica" fill="#FFF"><tspan x="1.861" y="9">~</tspan></text><text transform="rotate(-90 143.238 -105.834)" font-size="9.314" font-family="Helvetica" fill="#FFF"><tspan x="1.861" y="9">~</tspan></text><text transform="rotate(-90 149.944 -112.54)" font-size="9.314" font-family="Helvetica" fill="#FFF"><tspan x="1.861" y="9.001">~</tspan></text><text transform="rotate(-90 163.355 -126.622)" font-size="9.314" font-family="Helvetica" fill="#FFF"><tspan x="1.861" y="9">~</tspan></text><text transform="rotate(-90 94.36 -52.783)" font-size="9.314" font-family="Helvetica" fill="#FFF"><tspan x="-.001" y="9.001">~</tspan></text><text transform="rotate(-90 208.24 50.675)" font-size="6.52" font-family="Helvetica" fill="#FFF"><tspan x="0" y="6.001">IOREF</tspan></text><text transform="rotate(-90 242.758 17.907)" font-size="6.52" font-family="Helvetica" fill="#FFF"><tspan x="1.862" y="6">GND</tspan></text><text transform="rotate(-90 234.44 -83.565)" font-size="8.712" font-family="Helvetica" fill="#FFF"><tspan x="1.861" y="9">ICSP</tspan></text><text transform="rotate(-90 183.045 -134.688)" font-size="7.451" font-family="Helvetica" fill="#FFF"><tspan x=".095" y="8.612">TX</tspan></text><text transform="rotate(-90 189.75 -141.394)" font-size="7.451" font-family="Helvetica" fill="#FFF"><tspan x=".095" y="8.614">RX</tspan></text><path d="M324.58 35.929h-3.65a.625.625 0 0 1-.553-.332.621.621 0 0 1 .03-.646l1.816-2.718c.233-.35.816-.35 1.049 0l1.736 2.597a.649.649 0 0 1 .207.47.638.638 0 0 1-.635.629zm9.86-3.959c.007 0 .014-.002.029 0h3.616c.232 0 .441.127.556.332a.595.595 0 0 1-.035.646l-1.812 2.718c-.233.35-.816.35-1.05 0l-1.733-2.597a.63.63 0 0 1-.209-.471.64.64 0 0 1 .637-.628z" fill="#FFF" fill-rule="nonzero"/><path fill="#333" fill-rule="nonzero" d="M222.98 169.124h50.691v50.689H222.98zm28.805-46.807h13.201v16.897h-13.201z"/><circle stroke="#9A916C" stroke-width="1.511" cx="335.501" cy="13.412" r="2.999"/><path d="M332.502 6.512h6v13.8h-6v-13.8zm0 6.9a3 3 0 0 0 2.993 2.999 2.995 2.995 0 0 0 3-3 2.998 2.998 0 0 0-3-2.998 3 3 0 0 0-2.993 2.999z" fill="#9A916C" fill-rule="nonzero"/><circle stroke="#9A916C" stroke-width="1.511" cx="322.091" cy="13.412" r="2.999"/><path d="M319.09 6.512h6v13.8h-6v-13.8zm0 6.9a3 3 0 0 0 3 2.999 2.995 2.995 0 0 0 2.993-3 2.997 2.997 0 1 0-5.993 0z" fill="#9A916C" fill-rule="nonzero"/><circle stroke="#9A916C" stroke-width="1.511" cx="308.679" cy="13.412" r="2.999"/><path d="M305.68 6.512h6.006v13.8h-6.006v-13.8zm0 6.9a2.995 2.995 0 1 0 5.992 0 2.999 2.999 0 0 0-2.995-3 3.001 3.001 0 0 0-2.997 3z" fill="#9A916C" fill-rule="nonzero"/><circle stroke="#9A916C" stroke-width="1.511" cx="295.267" cy="13.412" r="2.999"/><path d="M292.267 6.512h6.005v13.8h-6.005v-13.8zm0 6.9a3.005 3.005 0 0 0 3 2.999 3.001 3.001 0 0 0 2.998-3 3 3 0 0 0-5.998 0z" fill="#9A916C" fill-rule="nonzero"/><circle stroke="#9A916C" stroke-width="1.511" cx="281.858" cy="13.412" r="2.999"/><path d="M278.855 6.512h6v13.8h-6v-13.8zm0 6.9a2.996 2.996 0 1 0 5.992 0 2.998 2.998 0 0 0-2.999-3 2.998 2.998 0 0 0-2.993 3z" fill="#9A916C" fill-rule="nonzero"/><circle stroke="#9A916C" stroke-width="1.511" cx="268.442" cy="13.412" r="2.999"/><path d="M265.443 6.512h6v13.8h-6v-13.8zm0 6.9a3 3 0 0 0 2.993 2.999 2.995 2.995 0 0 0 3-3 2.998 2.998 0 0 0-3-2.998 3 3 0 0 0-2.993 2.999z" fill="#9A916C" fill-rule="nonzero"/><circle stroke="#9A916C" stroke-width="1.511" cx="255.032" cy="13.412" r="2.999"/><path d="M252.031 6.512h6v13.8h-6v-13.8zm0 6.9a3 3 0 0 0 3 2.999 2.995 2.995 0 0 0 2.993-3 2.997 2.997 0 1 0-5.993 0z" fill="#9A916C" fill-rule="nonzero"/><circle stroke="#9A916C" stroke-width="1.511" cx="241.62" cy="13.412" r="2.999"/><path d="M238.621 6.512h6.006v13.8h-6.006v-13.8zm0 6.9a2.995 2.995 0 1 0 5.992 0 2.997 2.997 0 0 0-5.992 0z" fill="#9A916C" fill-rule="nonzero"/><circle stroke="#9A916C" stroke-width="1.511" cx="147.738" cy="268.235" r="2.999"/><path d="M144.737 261.336h6v13.797h-6v-13.797zm0 6.9a2.997 2.997 0 1 0 5.993 0 2.995 2.995 0 0 0-3-2.996 2.991 2.991 0 0 0-2.993 2.995z" fill="#9A916C" fill-rule="nonzero"/><circle stroke="#9A916C" stroke-width="1.511" cx="161.15" cy="268.235" r="2.999"/><path d="M158.149 261.336h6.005v13.797h-6.005v-13.797zm0 6.9a2.998 2.998 0 1 0 5.998 0 2.999 2.999 0 0 0-3-2.996 2.994 2.994 0 0 0-2.998 2.995z" fill="#9A916C" fill-rule="nonzero"/><circle stroke="#9A916C" stroke-width="1.511" cx="174.562" cy="268.235" r="2.999"/><path d="M171.563 261.336h6.005v13.797h-6.005v-13.797zm0 6.9a3.002 3.002 0 0 0 2.999 2.998 2.998 2.998 0 0 0 2.993-2.999 2.994 2.994 0 0 0-2.993-2.995 2.99 2.99 0 0 0-3 2.995z" fill="#9A916C" fill-rule="nonzero"/><circle stroke="#9A916C" stroke-width="1.511" cx="187.973" cy="268.235" r="2.999"/><path d="M184.972 261.336h6v13.797h-6v-13.797zm0 6.9a2.998 2.998 0 0 0 3 2.998 2.995 2.995 0 0 0 2.993-2.999 2.994 2.994 0 0 0-2.994-2.995 2.995 2.995 0 0 0-2.999 2.995z" fill="#9A916C" fill-rule="nonzero"/><circle stroke="#9A916C" stroke-width="1.511" cx="201.383" cy="268.235" r="2.999"/><path d="M198.384 261.336h6v13.797h-6v-13.797zm0 6.9a2.998 2.998 0 0 0 2.994 2.998 2.995 2.995 0 0 0 2.999-2.999 2.995 2.995 0 0 0-3-2.995 2.993 2.993 0 0 0-2.993 2.995z" fill="#9A916C" fill-rule="nonzero"/><circle stroke="#9A916C" stroke-width="1.511" cx="214.799" cy="268.235" r="2.999"/><path d="M211.796 261.336h6v13.797h-6v-13.797zm0 6.9a2.997 2.997 0 1 0 5.992 0 2.995 2.995 0 0 0-2.999-2.996 2.994 2.994 0 0 0-2.993 2.995z" fill="#9A916C" fill-rule="nonzero"/><circle stroke="#9A916C" stroke-width="1.511" cx="228.209" cy="268.235" r="2.999"/><path d="M225.208 261.336h6.005v13.797h-6.005v-13.797zm0 6.9a3.003 3.003 0 0 0 3 2.998 3.001 3.001 0 0 0 2.998-2.999 2.998 2.998 0 0 0-2.997-2.995 2.993 2.993 0 0 0-3.001 2.995z" fill="#9A916C" fill-rule="nonzero"/><circle stroke="#9A916C" stroke-width="1.511" cx="241.62" cy="268.235" r="2.999"/><path d="M238.621 261.336h6.006v13.797h-6.006v-13.797zm0 6.9a2.995 2.995 0 1 0 5.992 0 2.995 2.995 0 0 0-2.994-2.996 2.99 2.99 0 0 0-2.998 2.995z" fill="#9A916C" fill-rule="nonzero"/><circle stroke="#9A916C" stroke-width="1.511" cx="268.442" cy="268.235" r="2.999"/><path d="M265.443 261.336h6v13.797h-6v-13.797zm0 6.9a2.998 2.998 0 0 0 2.993 2.998 2.995 2.995 0 0 0 3-2.999 2.995 2.995 0 0 0-3-2.995 2.993 2.993 0 0 0-2.993 2.995z" fill="#9A916C" fill-rule="nonzero"/><circle stroke="#9A916C" stroke-width="1.511" cx="281.858" cy="268.235" r="2.999"/><path d="M278.855 261.336h6v13.797h-6v-13.797zm0 6.9a2.997 2.997 0 1 0 5.992 0 2.995 2.995 0 0 0-2.999-2.996 2.994 2.994 0 0 0-2.993 2.995z" fill="#9A916C" fill-rule="nonzero"/><circle stroke="#9A916C" stroke-width="1.511" cx="295.267" cy="268.235" r="2.999"/><path d="M292.267 261.336h6.005v13.797h-6.005v-13.797zm0 6.9a3.003 3.003 0 0 0 3 2.998 3.001 3.001 0 0 0 2.998-2.999 2.998 2.998 0 0 0-2.998-2.995 2.993 2.993 0 0 0-3 2.995z" fill="#9A916C" fill-rule="nonzero"/><circle stroke="#9A916C" stroke-width="1.511" cx="308.679" cy="268.235" r="2.999"/><path d="M305.68 261.336h6.006v13.797h-6.006v-13.797zm0 6.9a2.995 2.995 0 1 0 5.992 0 2.995 2.995 0 0 0-2.995-2.996 2.991 2.991 0 0 0-2.997 2.995z" fill="#9A916C" fill-rule="nonzero"/><circle stroke="#9A916C" stroke-width="1.511" cx="322.091" cy="268.235" r="2.999"/><path d="M319.09 261.336h6v13.797h-6v-13.797zm0 6.9a2.998 2.998 0 0 0 3 2.998 2.995 2.995 0 0 0 2.993-2.999 2.994 2.994 0 0 0-2.994-2.995 2.995 2.995 0 0 0-2.999 2.995z" fill="#9A916C" fill-rule="nonzero"/><circle stroke="#9A916C" stroke-width="1.511" cx="335.501" cy="268.235" r="2.999"/><path d="M332.502 261.336h6v13.797h-6v-13.797zm0 6.9a2.998 2.998 0 0 0 2.993 2.998 2.995 2.995 0 0 0 3-2.999 2.995 2.995 0 0 0-3-2.995 2.993 2.993 0 0 0-2.993 2.995z" fill="#9A916C" fill-rule="nonzero"/><circle stroke="#9A916C" stroke-width="1.511" cx="220.162" cy="13.412" r="2.999"/><path d="M217.16 6.512h6v13.8h-6v-13.8zm0 6.9a2.996 2.996 0 1 0 5.992 0 3 3 0 0 0-2.998-3 2.998 2.998 0 0 0-2.993 3z" fill="#9A916C" fill-rule="nonzero"/><circle stroke="#9A916C" stroke-width="1.511" cx="206.75" cy="13.412" r="2.999"/><path d="M203.749 6.512h6v13.8h-6v-13.8zm0 6.9a3 3 0 0 0 2.999 2.999 2.995 2.995 0 0 0 2.993-3 2.997 2.997 0 1 0-5.992 0z" fill="#9A916C" fill-rule="nonzero"/><circle stroke="#9A916C" stroke-width="1.511" cx="193.338" cy="13.412" r="2.999"/><path d="M190.339 6.512h6v13.8h-6v-13.8zm0 6.9a2.995 2.995 0 1 0 5.992 0 2.999 2.999 0 0 0-2.995-3 2.998 2.998 0 0 0-2.997 3z" fill="#9A916C" fill-rule="nonzero"/><circle stroke="#9A916C" stroke-width="1.511" cx="179.926" cy="13.412" r="2.999"/><path d="M176.927 6.512h6.006v13.8h-6.006v-13.8zm0 6.9a3.003 3.003 0 0 0 3 2.999 3.003 3.003 0 0 0 2.998-3 2.998 2.998 0 1 0-5.998 0z" fill="#9A916C" fill-rule="nonzero"/><circle stroke="#9A916C" stroke-width="1.511" cx="166.515" cy="13.412" r="2.999"/><path d="M163.514 6.512h6.003v13.8h-6.003v-13.8zm0 6.9a2.997 2.997 0 1 0 5.996 0 3.002 3.002 0 0 0-3-3 3.001 3.001 0 0 0-2.996 3z" fill="#9A916C" fill-rule="nonzero"/><circle stroke="#9A916C" stroke-width="1.511" cx="153.103" cy="13.412" r="2.999"/><path d="M150.104 6.512h6v13.8h-6v-13.8zm0 6.9a2.996 2.996 0 1 0 5.992 0 2.997 2.997 0 0 0-5.992 0z" fill="#9A916C" fill-rule="nonzero"/><circle stroke="#9A916C" stroke-width="1.511" cx="139.691" cy="13.412" r="2.999"/><path d="M136.69 6.512h6v13.8h-6v-13.8zm0 6.9a3 3 0 0 0 3 2.999 2.995 2.995 0 0 0 2.993-3 2.997 2.997 0 0 0-2.994-2.998 3 3 0 0 0-2.999 2.999z" fill="#9A916C" fill-rule="nonzero"/><circle stroke="#9A916C" stroke-width="1.511" cx="126.279" cy="13.412" r="2.999"/><path d="M123.28 6.512h6v13.8h-6v-13.8zm0 6.9a3 3 0 0 0 3 2.999 2.995 2.995 0 0 0 2.993-3 2.997 2.997 0 1 0-5.993 0z" fill="#9A916C" fill-rule="nonzero"/><circle stroke="#9A916C" stroke-width="1.511" cx="112.867" cy="13.412" r="2.999"/><path d="M109.868 6.512h6.006v13.8h-6.006v-13.8zm0 6.9a2.998 2.998 0 1 0 6 .002 2.998 2.998 0 0 0-6-.002z" fill="#9A916C" fill-rule="nonzero"/><circle stroke="#9A916C" stroke-width="1.511" cx="99.456" cy="13.412" r="2.999"/><path d="M96.459 6.512h6v13.8h-6v-13.8zm0 6.9a2.998 2.998 0 0 0 2.993 2.999 2.998 2.998 0 1 0 0-5.998 2.997 2.997 0 0 0-2.993 2.999z" fill="#9A916C" fill-rule="nonzero"/></g><g fill-rule="nonzero"><path fill="#232323" d="M9.074 220.17h61.418v44.21H9.074z"/><path fill="#494949" d="M10.198 221.237H69.69v3.066H10.198z"/><path fill-opacity=".3" fill="#3D3D3D" d="M10.198 224.305H69.69v10.003H10.198z"/><path fill="#000" d="M8.268 260.397h61.426v3.016H8.268z"/><path fill-opacity=".4" fill="#0F0F0F" d="M8.268 249.636h61.426v10.852H8.268z"/><path fill="#000" opacity=".2" d="M69.388 220.17h1.103v44.206h-1.103z"/></g><path d="M65.258 264.378V220.17" stroke="#000" stroke-width=".5" opacity=".5"/><g fill-rule="nonzero" fill="#000" opacity=".25"><path d="M13.193 220.218h2.397v44.201h-2.397z"/><path d="M13.718 228.226v28.09h24.767c7.76 0 14.047-6.287 14.047-14.047 0-7.756-6.287-14.047-14.047-14.047l-24.767.004z" stroke="#565656" stroke-width=".5"/></g><g fill-rule="nonzero" fill="#232323"><path d="M13.718 228.226v28.09h24.767c7.76 0 14.047-6.287 14.047-14.047 0-7.756-6.287-14.047-14.047-14.047l-24.767.004z"/><path d="M.754 218.511h14.32v47.522H.755z"/></g><path fill="#6D6D6D" fill-rule="nonzero" d="M70.493 236.951h3.169v10.644h-3.17z"/><path fill="#494949" fill-rule="nonzero" d="M70.489 231.821h1.824v20.907h-1.824zM2.046 219.282h11.678v1.954H2.046z"/><path fill="#000" fill-rule="nonzero" d="M2.044 263.402h11.679v1.96H2.043z"/><g transform="rotate(90 -27.543 146.614)" fill-rule="nonzero"><path fill="#999" d="M33.272 1.865v9.12h-6.44v-9.12zm-12.206-.004v9.12h-6.443v-9.12zm-12.213.001v9.12H2.417v-9.12z"/><path fill="#FFF" opacity=".2" d="M33.272 1.865v1h-6.44v-1zM21.066 1.86v1h-6.443v-1zm-12.214.002v1H2.416v-1z"/><path fill="#999" d="M27.35 29.504v9.845H8.333v-9.845z"/><path fill="#FFF" opacity=".2" d="M27.35 39.05v1H8.333v-1z"/><path fill="#303030" d="M35.692 10.983v18.521H.002v-18.52z"/><path fill="#1F1F1F" d="M35.692 29.504H.002l1.337-1.343h33.004zm0-18.521H.002l1.337 1.345h33.004z"/><path fill="#000" d="M35.692 29.504V10.983l-1.349 1.345V28.16z"/><path fill="#3D3D3D" d="M.002 29.504V10.983l1.337 1.345V28.16z"/><circle fill="#1F1F1F" cx="31.669" cy="15.012" r="1.341"/></g><g fill-rule="nonzero"><path fill="#404040" d="M363.196 114.318h-20.874l-2.818 2.814v7.323l2.818 2.813h20.874l2.816-2.813v-7.323zm0 13.378h-20.874l-2.818 2.811v7.324l2.818 2.819h20.874l2.816-2.819v-7.324zm0 13.369h-20.874l-2.818 2.817v7.326l2.818 2.809h20.874l2.816-2.81v-7.325z"/><path fill="#404040" d="M363.196 114.318h-20.874l-2.818 2.814v7.323l2.818 2.813h20.874l2.816-2.813v-7.323zm0 13.378h-20.874l-2.818 2.811v7.324l2.818 2.819h20.874l2.816-2.819v-7.324zm0 13.369h-20.874l-2.818 2.817v7.326l2.818 2.809h20.874l2.816-2.81v-7.325z"/><path fill="#8D8C8C" d="M348.275 149.433h-4.281v-4.282h4.28zm13.409.003h-4.282v-4.286h4.282zm-13.41-13.41h-4.28v-4.28h4.28zm13.411-.004h-4.281v-4.28h4.28zm-13.41-13.409h-4.281v-4.28h4.28z"/><path fill="#8D8455" d="M361.686 122.615h-4.282v-4.28h4.282z"/><path fill="#8C8663" d="M360.649 121.577h-2.21v-2.204h2.21z"/><path fill="#B8AF82" d="M357.405 118.336l1.039 1.041h2.202l1.04-1.041z"/><path fill="#80795B" d="M360.646 121.577v-2.2l1.04-1.041v4.28z"/><path fill="#5E5B43" d="M358.444 121.577h2.202l1.04 1.04h-4.281z"/><path fill="#9A916C" d="M357.405 118.336l1.039 1.041v2.2l-1.04 1.04z"/><path fill="#8C8663" d="M347.236 121.575h-2.204v-2.203h2.204z"/><path fill="#B8AF82" d="M343.996 118.336l1.038 1.041h2.2l1.037-1.041z"/><path fill="#80795B" d="M347.234 121.577v-2.2l1.037-1.041v4.28z"/><path fill="#5E5B43" d="M345.034 121.577h2.2l1.037 1.04h-4.275z"/><path fill="#9A916C" d="M343.996 118.336l1.038 1.041v2.2l-1.038 1.04z"/><path fill="#8C8663" d="M360.652 134.989h-2.207v-2.205h2.207z"/><path fill="#B8AF82" d="M357.405 131.746l1.039 1.037h2.202l1.04-1.037z"/><path fill="#80795B" d="M360.646 134.987v-2.204l1.04-1.037v4.278z"/><path fill="#5E5B43" d="M358.444 134.987h2.202l1.04 1.037h-4.281z"/><path fill="#9A916C" d="M357.405 131.746l1.039 1.037v2.204l-1.04 1.037z"/><path fill="#8C8663" d="M347.237 134.987h-2.202v-2.205h2.202z"/><path fill="#B8AF82" d="M343.996 131.746l1.038 1.037h2.2l1.037-1.037z"/><path fill="#80795B" d="M347.234 134.987v-2.204l1.037-1.037v4.278z"/><path fill="#5E5B43" d="M345.034 134.987h2.2l1.037 1.037h-4.275z"/><path fill="#9A916C" d="M343.996 131.746l1.038 1.037v2.204l-1.038 1.037z"/><path fill="#8C8663" d="M360.652 148.403h-2.209v-2.213h2.209z"/><path fill="#B8AF82" d="M357.405 145.154l1.039 1.043h2.202l1.04-1.043z"/><path fill="#80795B" d="M360.646 148.4v-2.203l1.04-1.043v4.278z"/><path fill="#5E5B43" d="M358.444 148.4h2.202l1.04 1.032h-4.281z"/><path fill="#9A916C" d="M357.405 145.154l1.039 1.043v2.204l-1.04 1.031z"/><path fill="#8C8663" d="M347.236 148.4h-2.205v-2.209h2.205z"/><path fill="#B8AF82" d="M343.996 145.154l1.038 1.043h2.2l1.037-1.043z"/><path fill="#80795B" d="M347.234 148.4v-2.203l1.037-1.043v4.278z"/><path fill="#5E5B43" d="M345.034 148.4h2.2l1.037 1.032h-4.275z"/><path fill="#9A916C" d="M343.996 145.154l1.038 1.043v2.204l-1.038 1.031z"/></g><g fill-rule="nonzero"><path fill="#666" d="M36.242 75.383h-2.299v-1.846h2.3z"/><path fill="#999" d="M36.245 73.707h-2.042v-1h2.042z"/><path fill="#666" d="M36.245 78.817h-2.3v-1.844h2.3z"/><path fill="#999" d="M36.246 77.143H34.2v-1h2.045z"/><path fill="#666" d="M36.245 82.247h-2.3V80.4h2.3z"/><path fill="#999" d="M36.244 80.571h-2.045v-1h2.045z"/><path fill="#666" d="M36.245 85.682h-2.3v-1.844h2.3z"/><path fill="#999" d="M36.245 84.003H34.2v-1h2.045z"/><path fill="#666" d="M36.248 89.113h-2.3v-1.844h2.3z"/><path fill="#999" d="M36.246 87.435h-2.043v-1h2.043z"/><path fill="#B3B3B3" d="M2.79 98.907V63.806h31.682v35.103z"/><path fill="#666" d="M22.152 101.14h-5.665v-1.854h5.665zm.003-37.766H16.49v-1.868h5.665z"/><path fill="#CCC" d="M34.475 98.91h-1V63.807h1z"/><path fill="#333" d="M34.472 90.912H5.389v-19.17h29.083z"/><path fill="#B3B3B3" d="M3.48 63.374h-.89l-2.016-1.19v-.679z"/><path fill="#CCC" d="M2.59 63.374v.002l-1.005-.002-1.011-1.19z"/><path fill="#B3B3B3" d="M.574 101.148v-.678l2.015-1.19h.89z"/><path fill="#CCC" d="M.574 100.47l1.011-1.19 1.004-.002v.002z"/><path fill="#F2F2F2" d="M4.687 89.544H3.484v-1h1.203zm.004-3.884H3.486v-1h1.205zm-.004-3.888H3.484v-1h1.202zm.003-3.885H3.487v-1H4.69zm.002-3.884H3.485v-1h1.207z"/><path fill="gray" d="M4.69 73.296H3.485v-1H4.69zm.001 3.884H3.484v-1h1.207zm-.003 3.887H3.485v-1h1.203zm.002 3.886H3.487v-1H4.69zm0 3.887H3.489v-1H4.69z"/><path d="M3.137 72.16v.958h.737v.886h-.737v2.998h.737v.886h-.737v2.997h.737v.887h-.737v2.995h.737v.893h-.737v2.995h.737v.888h-.737v1.105c0 .147.117.268.272.268H5.39a.27.27 0 0 0 .272-.268V72.015a.271.271 0 0 0-.272-.272H3.409a.275.275 0 0 0-.272.272v.145z" fill="#4D4D4D"/><path d="M33.418 63.374l1.056.428v4.72s-.209-4.288-.526-4.44c-.316-.153-.53.204-.53.204v-.912zm0 35.906l1.048-.427v-4.72s-.205 4.286-.521 4.44c-.317.152-.527-.204-.527-.204v.911z" fill="#CCC"/><path d="M34.472 92.967h-3.044V89.98h3.044v-.86h-1.049V73.54h1.049v-.976h-3.046V69.57h3.046v-6.194H2.792v35.901h31.682s0-6.31-.002-6.31zM8.662 72.561H7.145v-2.968h1.647a2.89 2.89 0 0 1 2.435-1.318c1.114 0 2.056.408 2.55 1.318h8.343v2.966h-8.343c-.498.907-1.44 1.537-2.554 1.537a2.9 2.9 0 0 1-2.561-1.535zm0 20.281H7.145v-2.965h1.647a2.893 2.893 0 0 1 2.435-1.317c1.114 0 2.056.404 2.55 1.317h8.343v2.965h-8.343a2.892 2.892 0 0 1-5.115 0z" fill="#E6E6E6"/><path fill="#F2F2F2" d="M2.79 64.132v-.758h30.628v2.853z"/><path fill="#999" d="M2.79 99.28l20.451-1.062 10.177-1.054v2.116z"/><path fill="#CCC" d="M22.113 72.558h-1v-2.965h1zm.001 20.288h-1v-2.964h1z"/><path fill="#B3B3B3" d="M4.398 97.523H3.17V65.137H4.4z"/><path fill="#CCC" d="M3.373 97.521h-1V65.135h1z"/></g><g fill-rule="nonzero"><path fill="#404040" d="M352.135 20.675H244.839V7.265h107.296z"/><path fill="#000" d="M348.017 16.56h-5.18v-5.182h5.18z"/><path fill="#2A2A29" d="M349.926 18.47l-1.906-1.91h-5.184l-1.911 1.91z"/><path fill="#474747" d="M340.925 18.47l1.911-1.915v-5.18l-1.911-1.906z"/><path fill="#595959" d="M340.927 9.469l1.91 1.905h5.183l1.906-1.905z"/><path fill="#373737" d="M349.93 9.469l-1.91 1.909v5.182l1.91 1.91z"/><path fill="#000" d="M334.607 16.56h-5.175v-5.182h5.175z"/><path fill="#2A2A29" d="M336.516 18.47l-1.906-1.91h-5.188l-1.909 1.91z"/><path fill="#474747" d="M327.513 18.47l1.91-1.915v-5.18l-1.91-1.906z"/><path fill="#595959" d="M327.517 9.469l1.907 1.905h5.186l1.906-1.905z"/><path fill="#373737" d="M336.52 9.469l-1.91 1.909v5.182l1.91 1.91z"/><path fill="#000" d="M321.189 16.56h-5.175v-5.182h5.175z"/><path fill="#2A2A29" d="M323.106 18.47l-1.911-1.91h-5.184l-1.906 1.91z"/><path fill="#474747" d="M314.105 18.47l1.906-1.915v-5.18l-1.906-1.906z"/><path fill="#595959" d="M314.105 9.469l1.907 1.905h5.183l1.91-1.905z"/><path fill="#373737" d="M323.11 9.469l-1.915 1.909v5.182l1.915 1.91z"/><path fill="#000" d="M307.779 16.56h-5.18v-5.182h5.18z"/><path fill="#2A2A29" d="M309.692 18.47l-1.91-1.91H302.6l-1.908 1.91z"/><path fill="#474747" d="M300.691 18.47l1.908-1.915v-5.18l-1.908-1.906z"/><path fill="#595959" d="M300.693 9.469l1.91 1.905h5.18l1.91-1.905z"/><path fill="#373737" d="M309.696 9.469l-1.913 1.909v5.182l1.913 1.91z"/><path fill="#000" d="M294.37 16.56h-5.178v-5.182h5.178z"/><path fill="#2A2A29" d="M296.277 18.47l-1.904-1.91h-5.182l-1.913 1.91z"/><path fill="#474747" d="M287.278 18.47l1.913-1.915v-5.18l-1.913-1.906z"/><path fill="#595959" d="M287.28 9.469l1.91 1.905h5.183l1.904-1.905z"/><path fill="#373737" d="M296.282 9.469l-1.91 1.909v5.182l1.91 1.91z"/><path fill="#000" d="M280.958 16.56h-5.18v-5.182h5.18z"/><path fill="#2A2A29" d="M282.867 18.47l-1.906-1.91h-5.184l-1.911 1.91z"/><path fill="#474747" d="M273.866 18.47l1.911-1.915v-5.18l-1.911-1.906z"/><path fill="#595959" d="M273.868 9.469l1.911 1.905h5.182l1.906-1.905z"/><path fill="#373737" d="M282.87 9.469l-1.909 1.909v5.182l1.91 1.91z"/><path fill="#000" d="M267.548 16.56h-5.175v-5.182h5.175z"/><path fill="#2A2A29" d="M269.457 18.47l-1.906-1.91h-5.187l-1.91 1.91z"/><path fill="#474747" d="M260.454 18.47l1.91-1.915v-5.18l-1.91-1.906z"/><path fill="#595959" d="M260.458 9.469l1.907 1.905h5.186l1.906-1.905z"/><path fill="#373737" d="M269.46 9.469l-1.909 1.909v5.182l1.91 1.91z"/><path fill="#000" d="M254.13 16.56h-5.174v-5.182h5.175z"/><path fill="#2A2A29" d="M256.047 18.47l-1.911-1.91h-5.184l-1.906 1.91z"/><path fill="#474747" d="M247.046 18.47l1.906-1.915v-5.18l-1.906-1.906z"/><path fill="#595959" d="M247.046 9.469l1.908 1.905h5.182l1.911-1.905z"/><path fill="#373737" d="M256.05 9.469l-1.914 1.909v5.182l1.915 1.91z"/></g><g fill-rule="nonzero"><path fill="#404040" d="M150.913 262.696h107.294v13.41H150.913z"/><path fill="#000" d="M155.03 266.81h5.18v5.185h-5.18z"/><path fill="#2A2A29" d="M153.12 264.903l1.906 1.908h5.184l1.909-1.908z"/><path fill="#474747" d="M162.119 264.903l-1.91 1.915V272l1.91 1.904z"/><path fill="#595959" d="M162.117 273.904l-1.91-1.904h-5.181l-1.906 1.904z"/><path fill="#373737" d="M153.114 273.904l1.912-1.908v-5.185l-1.912-1.908z"/><path fill="#000" d="M168.44 266.81h5.18v5.185h-5.18z"/><path fill="#2A2A29" d="M166.53 264.903l1.907 1.908h5.186l1.91-1.908z"/><path fill="#474747" d="M175.533 264.903l-1.91 1.915V272l1.91 1.904z"/><path fill="#595959" d="M175.529 273.904L173.62 272h-5.184l-1.907 1.904z"/><path fill="#373737" d="M166.526 273.904l1.911-1.908v-5.185l-1.91-1.908z"/><path fill="#000" d="M181.855 266.81h5.175v5.185h-5.175z"/><path fill="#2A2A29" d="M179.942 264.903l1.909 1.908h5.182l1.911-1.908z"/><path fill="#474747" d="M188.944 264.903l-1.91 1.915V272l1.91 1.904z"/><path fill="#595959" d="M188.94 273.904L187.032 272h-5.18l-1.91 1.904z"/><path fill="#373737" d="M179.938 273.904l1.913-1.908v-5.185l-1.913-1.908z"/><path fill="#000" d="M195.267 266.81h5.175v5.185h-5.175z"/><path fill="#2A2A29" d="M193.353 264.903l1.908 1.908h5.188l1.905-1.908z"/><path fill="#474747" d="M202.354 264.903l-1.905 1.915V272l1.905 1.904z"/><path fill="#595959" d="M202.352 273.904L200.445 272h-5.184l-1.908 1.904z"/><path fill="#373737" d="M193.35 273.904l1.91-1.908v-5.185l-1.91-1.908z"/><path fill="#000" d="M208.679 266.81h5.18v5.185h-5.18z"/><path fill="#2A2A29" d="M206.767 264.903l1.908 1.908h5.184l1.909-1.908z"/><path fill="#474747" d="M215.768 264.903l-1.91 1.915V272l1.91 1.904z"/><path fill="#595959" d="M215.766 273.904L213.855 272h-5.18l-1.908 1.904z"/><path fill="#373737" d="M206.763 273.904l1.912-1.908v-5.185l-1.912-1.908z"/><path fill="#000" d="M222.088 266.81h5.18v5.185h-5.18z"/><path fill="#2A2A29" d="M220.179 264.903l1.905 1.908h5.184l1.91-1.908z"/><path fill="#474747" d="M229.178 264.903l-1.91 1.915V272l1.91 1.904z"/><path fill="#595959" d="M229.176 273.904l-1.91-1.904h-5.182l-1.905 1.904z"/><path fill="#373737" d="M220.171 273.904l1.913-1.908v-5.185l-1.913-1.908z"/><path fill="#000" d="M235.5 266.81h5.18v5.185h-5.18z"/><path fill="#2A2A29" d="M233.589 264.903l1.907 1.908h5.186l1.911-1.908z"/><path fill="#474747" d="M242.593 264.903l-1.91 1.915V272l1.91 1.904z"/><path fill="#595959" d="M242.59 273.904L240.68 272h-5.184l-1.907 1.904z"/><path fill="#373737" d="M233.585 273.904l1.911-1.908v-5.185l-1.911-1.908z"/><path fill="#000" d="M248.914 266.81h5.175v5.185h-5.175z"/><path fill="#2A2A29" d="M247.002 264.903l1.908 1.908h5.182l1.911-1.908z"/><path fill="#474747" d="M256.003 264.903l-1.911 1.915V272l1.911 1.904z"/><path fill="#595959" d="M256 273.904L254.09 272h-5.18l-1.908 1.904z"/><path fill="#373737" d="M246.997 273.904l1.913-1.908v-5.185l-1.913-1.908z"/></g><g fill-rule="nonzero"><path fill="#404040" d="M270.299 262.817h80.47v13.41H270.3z"/><path fill="#000" d="M274.416 266.932h5.18v5.18h-5.18z"/><path fill="#2A2A29" d="M272.506 265.022l1.906 1.91h5.186l1.909-1.91z"/><path fill="#474747" d="M281.507 265.022l-1.91 1.913v5.183l1.91 1.905z"/><path fill="#595959" d="M281.507 274.023l-1.911-1.905h-5.184l-1.906 1.905z"/><path fill="#373737" d="M272.502 274.023l1.91-1.91v-5.181l-1.91-1.91z"/><path fill="#000" d="M287.829 266.932h5.175v5.18h-5.175z"/><path fill="#2A2A29" d="M285.916 265.022l1.908 1.91h5.182l1.91-1.91z"/><path fill="#474747" d="M294.917 265.022l-1.911 1.913v5.183l1.91 1.905z"/><path fill="#595959" d="M294.915 274.023l-1.91-1.905h-5.181l-1.908 1.905z"/><path fill="#373737" d="M285.912 274.023l1.912-1.91v-5.181l-1.912-1.91z"/><path fill="#000" d="M301.237 266.932h5.18v5.18h-5.18z"/><path fill="#2A2A29" d="M299.328 265.022l1.907 1.91h5.186l1.91-1.91z"/><path fill="#474747" d="M308.33 265.022l-1.909 1.913v5.183l1.91 1.905z"/><path fill="#595959" d="M308.329 274.023l-1.908-1.905h-5.186l-1.907 1.905z"/><path fill="#373737" d="M299.326 274.023l1.91-1.91v-5.181l-1.91-1.91z"/><path fill="#000" d="M314.655 266.932h5.178v5.18h-5.178z"/><path fill="#2A2A29" d="M312.741 265.022l1.91 1.91h5.182l1.91-1.91z"/><path fill="#474747" d="M321.742 265.022l-1.91 1.913v5.183l1.91 1.905z"/><path fill="#595959" d="M321.74 274.023l-1.91-1.905h-5.18l-1.909 1.905z"/><path fill="#373737" d="M312.736 274.023l1.915-1.91v-5.181l-1.915-1.91z"/><path fill="#000" d="M328.063 266.932h5.18v5.18h-5.18z"/><path fill="#2A2A29" d="M326.151 265.022l1.908 1.91h5.186l1.909-1.91z"/><path fill="#474747" d="M335.154 265.022l-1.91 1.913v5.183l1.91 1.905z"/><path fill="#595959" d="M335.15 274.023l-1.907-1.905h-5.184l-1.908 1.905z"/><path fill="#373737" d="M326.15 274.023l1.909-1.91v-5.181l-1.91-1.91z"/><path fill="#000" d="M341.474 266.932h5.18v5.18h-5.18z"/><path fill="#2A2A29" d="M339.565 265.022l1.906 1.91h5.185l1.91-1.91z"/><path fill="#474747" d="M348.566 265.022l-1.91 1.913v5.183l1.91 1.905z"/><path fill="#595959" d="M348.566 274.023l-1.911-1.905h-5.184l-1.906 1.905z"/><path fill="#373737" d="M339.561 274.023l1.91-1.91v-5.181l-1.91-1.91z"/></g><g fill-rule="nonzero"><path fill="#404040" d="M236.79 20.675H102.672V7.265H236.79z"/><path fill="#000" d="M232.675 16.56H227.5v-5.182h5.175z"/><path fill="#2A2A29" d="M234.583 18.47l-1.905-1.91h-5.186l-1.91 1.91z"/><path fill="#474747" d="M225.582 18.47l1.91-1.915v-5.18l-1.91-1.906z"/><path fill="#595959" d="M225.584 9.469l1.91 1.905h5.184l1.905-1.905z"/><path fill="#373737" d="M234.587 9.469l-1.91 1.909v5.182l1.91 1.91z"/><path fill="#000" d="M219.258 16.56h-5.175v-5.182h5.175z"/><path fill="#2A2A29" d="M221.175 18.47l-1.91-1.91h-5.183l-1.908 1.91z"/><path fill="#474747" d="M212.174 18.47l1.908-1.915v-5.18l-1.908-1.906z"/><path fill="#595959" d="M212.174 9.469l1.91 1.905h5.182l1.91-1.905z"/><path fill="#373737" d="M221.179 9.469l-1.913 1.909v5.182l1.913 1.91z"/><path fill="#000" d="M205.85 16.56h-5.18v-5.182h5.18z"/><path fill="#2A2A29" d="M207.761 18.47l-1.907-1.91h-5.186l-1.91 1.91z"/><path fill="#474747" d="M198.759 18.47l1.91-1.915v-5.18l-1.91-1.906z"/><path fill="#595959" d="M198.759 9.469l1.911 1.905h5.184l1.907-1.905z"/><path fill="#373737" d="M207.763 9.469l-1.909 1.909v5.182l1.91 1.91z"/><path fill="#000" d="M192.436 16.56h-5.18v-5.182h5.18z"/><path fill="#2A2A29" d="M194.346 18.47l-1.906-1.91h-5.184l-1.909 1.91z"/><path fill="#474747" d="M185.347 18.47l1.91-1.915v-5.18l-1.91-1.906z"/><path fill="#595959" d="M185.349 9.469l1.911 1.905h5.18l1.906-1.905z"/><path fill="#373737" d="M194.353 9.469l-1.913 1.909v5.182l1.913 1.91z"/><path fill="#000" d="M179.026 16.56h-5.18v-5.182h5.18z"/><path fill="#2A2A29" d="M180.938 18.47l-1.908-1.91h-5.185l-1.908 1.91z"/><path fill="#474747" d="M171.937 18.47l1.908-1.915v-5.18l-1.908-1.906z"/><path fill="#595959" d="M171.939 9.469l1.906 1.905h5.185l1.908-1.905z"/><path fill="#373737" d="M180.942 9.469l-1.912 1.909v5.182l1.912 1.91z"/><path fill="#000" d="M165.613 16.56h-5.175v-5.182h5.175z"/><path fill="#2A2A29" d="M167.524 18.47l-1.907-1.91h-5.184l-1.91 1.91z"/><path fill="#474747" d="M158.524 18.47l1.909-1.915v-5.18l-1.91-1.906z"/><path fill="#595959" d="M158.525 9.469l1.912 1.905h5.18l1.907-1.905z"/><path fill="#373737" d="M167.528 9.469l-1.911 1.909v5.182l1.911 1.91z"/><path fill="#000" d="M152.201 16.56h-5.175v-5.182h5.175z"/><path fill="#2A2A29" d="M154.113 18.47l-1.906-1.91h-5.184l-1.911 1.91z"/><path fill="#474747" d="M145.112 18.47l1.91-1.915v-5.18l-1.91-1.906z"/><path fill="#595959" d="M145.115 9.469l1.91 1.905h5.182l1.906-1.905z"/><path fill="#373737" d="M154.116 9.469l-1.91 1.909v5.182l1.91 1.91z"/><path fill="#000" d="M138.791 16.56h-5.18v-5.182h5.18z"/><path fill="#2A2A29" d="M140.703 18.47l-1.908-1.91h-5.186l-1.909 1.91z"/><path fill="#474747" d="M131.7 18.47l1.91-1.915v-5.18l-1.91-1.906z"/><path fill="#595959" d="M131.7 9.469l1.911 1.905h5.184l1.908-1.905z"/><path fill="#373737" d="M140.704 9.469l-1.909 1.909v5.182l1.91 1.91z"/><path fill="#000" d="M125.377 16.56h-5.18v-5.182h5.18z"/><path fill="#2A2A29" d="M127.287 18.47l-1.905-1.91h-5.184l-1.91 1.91z"/><path fill="#474747" d="M118.288 18.47l1.91-1.915v-5.18l-1.91-1.906z"/><path fill="#595959" d="M118.292 9.469l1.91 1.905h5.18l1.905-1.905z"/><path fill="#373737" d="M127.295 9.469l-1.913 1.909v5.182l1.913 1.91z"/><path fill="#000" d="M111.967 16.56h-5.18v-5.182h5.18z"/><path fill="#2A2A29" d="M113.88 18.47l-1.908-1.91h-5.186l-1.908 1.91z"/><path fill="#474747" d="M104.878 18.47l1.908-1.915v-5.18l-1.908-1.906z"/><path fill="#595959" d="M104.88 9.469l1.906 1.905h5.186l1.907-1.905z"/><path fill="#373737" d="M113.883 9.469l-1.911 1.909v5.182l1.91 1.91z"/></g><path d="M39.858 171.44H26.381"/><path fill="#F2F2F2" fill-rule="nonzero" d="M39.859 178.579H26.168v-7.138h13.69z"/><path d="M31.014 171.436s-1.204.87-1.61.793c-.413-.076-1.007.276-1.264 0l.039-.79 2.835-.003z" fill-opacity=".7" fill="#22B573" fill-rule="nonzero"/><g fill-rule="nonzero"><path fill="#FFF" d="M33.94 175.959h-1.59v-1.792h1.59z"/><path fill="#B3B3B3" d="M33.945 174.212h-1.591v-1h1.59z"/></g><g fill-rule="nonzero"><path fill="#D1C690" d="M29.935 172.226l-1.795-.192v1.36l1.795-.192z"/><path d="M29.822 172.598h.015c.5.065.832.194 1.119.302.39.149 1.041 1.455 1.542 1.295.045-.023.112.022.118.08.015.065-.019.126-.073.145-.568.179-1.255-1.15-1.663-1.306a3.82 3.82 0 0 0-1.066-.287.108.108 0 0 1-.091-.123c.005-.06.046-.106.099-.106zm6.484 5.011l1.8.192v-1.36l-1.8.192z" fill="#D1C690"/><path d="M33.227 174.774c.046 0 .091.039.102.087.118.546 2.027 2.146 3.517 2.146.056 0 .106.047.106.118-.004.063-.046.117-.106.117h-.01c-1.389 0-3.522-1.436-3.706-2.321-.02-.065.022-.125.076-.145.004-.002.011-.002.02-.002zm-.876-.03s.66.004.714-.583h-.714v.583z" fill="#D1C690"/><path d="M33.162 175.336s-.295-.568-.1-.652c.195-.095.332-.102.448.047.113.162-.348.605-.348.605z" fill="#D1C690"/><path d="M32.493 174.092c-.505.157-1.153-1.147-1.543-1.296a4.05 4.05 0 0 0-1.12-.302v.112c.502.065.834.193 1.12.301.39.15 1.042 1.453 1.543 1.293v-.108zm3.813 2.435l1.8-.19v.104l-1.8.192z" fill="#9D956C"/><path d="M33.331 174.755c.117.542 1.993 2.26 3.517 2.139v.113c-1.634.118-3.401-1.6-3.52-2.146l.003-.106zm-.266-.695h-.71v.107h.71v-.107zm.447.578c-.118-.147-.244-.14-.444-.056l-.003.115c.193-.09.333-.1.447.049v-.108z" fill="#9D956C"/></g><path fill="#FFF" fill-rule="nonzero" opacity=".5" d="M37.106 178.58h-7.868v-1h7.868z"/><path fill="#F2F2F2" fill-rule="nonzero" opacity=".5" d="M38.072 178.578v-7.138h-9.899l-.007 7.138z"/><path d="M37.979 177.365v.505c-.034.281.022.505-.183.505h-9.042c-.313 0-.328-.12.028-.12h8.096c.851 0 .965-.193.965-.367l-.004-.504c-.006-.345.14-.345.14-.02z" fill="#FFF" fill-rule="nonzero" opacity=".55"/><path d="M28.428 171.853c0-.127-.022-.26.188-.26h8.968c.313 0 .328.117-.015.117l-6.686.003c-1.108.008-2.455.14-2.455.14z" fill="#000" fill-rule="nonzero" opacity=".03"/><path d="M39.856 171.436H38.42v.97c0 .233-.149.397-.35.501v5.676h1.887v-7.142" fill="#D1C690" fill-rule="nonzero"/><path fill="#FFF" fill-rule="nonzero" opacity=".5" d="M39.95 178.579h-1.873v-1h1.874z"/><path d="M26.172 171.436v7.141h1.997v-6.454c-.195-.11-.355-.272-.355-.505v-.19h-1.547" fill="#D1C690" fill-rule="nonzero"/><path fill="#FFF" fill-rule="nonzero" opacity=".5" d="M28.171 178.578h-1.997v-1h1.997z"/><path d="M39.82 191.56H26.34"/><path fill="#F2F2F2" fill-rule="nonzero" d="M39.819 198.694H26.132v-7.138h13.687z"/><path d="M30.975 191.556s-1.201.87-1.615.794c-.408-.076-1.008.272-1.259 0l.04-.79 2.834-.004z" fill-opacity=".7" fill="#22B573" fill-rule="nonzero"/><g fill-rule="nonzero"><path fill="#FFF" d="M33.902 196.075h-1.591v-1.79h1.591z"/><path fill="#B3B3B3" d="M33.902 194.328h-1.591v-1h1.591z"/></g><g fill-rule="nonzero"><path fill="#D1C690" d="M29.893 192.344l-1.792-.193v1.361l1.792-.195z"/><path d="M29.781 192.717h.015c.496.061.833.194 1.114.298.39.149 1.047 1.459 1.542 1.298.05-.026.118.019.123.08a.12.12 0 0 1-.072.142c-.568.179-1.256-1.146-1.664-1.302a3.938 3.938 0 0 0-1.065-.29c-.054-.008-.108-.058-.092-.124.006-.057.049-.102.1-.102zm6.483 5.007l1.8.192v-1.362l-1.8.194z" fill="#D1C690"/><path d="M33.186 194.893c.041 0 .092.039.103.087.117.542 2.026 2.142 3.511 2.142.061 0 .112.047.112.118-.004.065-.047.117-.112.117h-.004c-1.395 0-3.522-1.436-3.712-2.32a.129.129 0 0 1 .076-.144h.026zm-.877-.032s.663.004.719-.581h-.72v.581z" fill="#D1C690"/><path d="M33.121 195.455s-.294-.575-.099-.66c.194-.09.332-.098.442.051.12.164-.343.61-.343.61z" fill="#D1C690"/><path d="M32.452 194.21c-.503.157-1.153-1.152-1.542-1.301-.27-.11-.61-.237-1.114-.3v.112c.496.063.833.193 1.114.3.39.149 1.047 1.458 1.542 1.298v-.108zm3.812 2.437l1.8-.193v.1l-1.8.194z" fill="#9D956C"/><path d="M33.292 194.87c.118.542 1.994 2.26 3.512 2.139v.113c-1.634.114-3.396-1.6-3.515-2.142l.003-.11zm-.268-.695h-.71v.11h.71v-.11zm.446.582c-.118-.15-.245-.142-.438-.056l-.004.112c.194-.094.333-.097.441.052v-.108z" fill="#9D956C"/></g><path fill="#FFF" fill-rule="nonzero" opacity=".5" d="M37.067 198.695H29.2v-1h7.868z"/><path fill="#F2F2F2" fill-rule="nonzero" opacity=".5" d="M38.033 198.694v-7.134h-9.898l-.008 7.134z"/><path d="M37.938 197.478v.505c-.033.28.023.505-.182.505h-9.042c-.313 0-.328-.118.022-.118h8.101c.852 0 .965-.193.965-.361l-.004-.505c-.003-.348.14-.348.14-.026z" fill="#FFF" fill-rule="nonzero" opacity=".55"/><path d="M28.388 191.966c0-.125-.022-.255.182-.255h8.973c.313 0 .328.117-.015.117l-6.685.004a32.548 32.548 0 0 0-2.455.134z" fill="#000" fill-rule="nonzero" opacity=".03"/><path d="M39.818 191.556H38.38v.97c0 .234-.149.398-.35.504v5.676h1.882v-7.142" fill="#D1C690" fill-rule="nonzero"/><path fill="#FFF" fill-rule="nonzero" opacity=".5" d="M39.913 198.698h-1.874v-1h1.874z"/><path d="M26.132 191.556v7.138h1.997v-6.454c-.196-.102-.356-.272-.356-.505v-.186h-1.546" fill="#D1C690" fill-rule="nonzero"/><path fill="#FFF" fill-rule="nonzero" opacity=".5" d="M28.132 198.698h-1.997v-1h1.997z"/><path d="M39.858 131.206H26.381"/><path fill="#F2F2F2" fill-rule="nonzero" d="M39.86 138.344H26.169v-7.14h13.69z"/><path d="M31.014 131.203s-1.204.87-1.61.793c-.413-.076-1.007.276-1.264 0l.039-.79 2.835-.003z" fill-opacity=".7" fill="#22B573" fill-rule="nonzero"/><g fill-rule="nonzero"><path fill="#FFF" d="M33.943 135.723h-1.591v-1.79h1.59z"/><path fill="#B3B3B3" d="M33.945 133.976h-1.591v-1h1.59z"/></g><g fill-rule="nonzero"><path fill="#D1C690" d="M29.935 131.992l-1.795-.193v1.361l1.795-.193z"/><path d="M29.822 132.363h.015c.5.065.832.194 1.119.302.39.149 1.041 1.457 1.542 1.296.045-.022.112.02.118.08.015.066-.019.127-.073.146-.568.177-1.255-1.15-1.663-1.306a3.945 3.945 0 0 0-1.066-.289.11.11 0 0 1-.091-.126c.005-.056.046-.103.099-.103zm6.484 5.009l1.8.192v-1.36l-1.8.192z" fill="#D1C690"/><path d="M33.227 134.539a.11.11 0 0 1 .102.087c.118.544 2.027 2.146 3.517 2.146.056 0 .106.049.106.118-.004.063-.046.117-.106.117h-.01c-1.389 0-3.522-1.434-3.706-2.32-.02-.064.022-.126.076-.145.004-.003.011-.003.02-.003zm-.876-.03s.66.004.714-.58h-.714v.58z" fill="#D1C690"/><path d="M33.162 135.103s-.295-.57-.1-.654c.195-.09.332-.097.448.053.113.156-.348.601-.348.601z" fill="#D1C690"/><path d="M32.493 133.859c-.505.156-1.153-1.151-1.543-1.3a4.185 4.185 0 0 0-1.12-.302v.11c.502.065.834.194 1.12.302.39.149 1.042 1.456 1.543 1.296v-.106zm3.813 2.434l1.8-.191v.102l-1.8.192z" fill="#9D956C"/><path d="M33.331 134.52c.117.542 1.993 2.258 3.517 2.14v.112c-1.634.112-3.401-1.602-3.52-2.146l.003-.106zm-.266-.695h-.71v.107h.71v-.107zm.447.58c-.118-.15-.244-.142-.444-.058l-.003.112c.193-.092.333-.097.447.052v-.106z" fill="#9D956C"/></g><path fill="#FFF" fill-rule="nonzero" opacity=".5" d="M37.104 138.343h-7.868v-1h7.868z"/><path fill="#F2F2F2" fill-rule="nonzero" opacity=".5" d="M38.072 138.342v-7.136h-9.899l-.007 7.136z"/><path d="M37.979 137.128v.505c-.034.281.022.505-.183.505h-9.042c-.313 0-.328-.121.028-.121h8.096c.851 0 .965-.196.965-.367l-.004-.507c-.006-.34.14-.34.14-.015z" fill="#FFF" fill-rule="nonzero" opacity=".55"/><path d="M28.428 131.616c0-.127-.022-.257.188-.257h8.968c.313 0 .328.121-.015.121l-6.686.004c-1.108.002-2.455.132-2.455.132z" fill="#000" fill-rule="nonzero" opacity=".03"/><path d="M39.856 131.203H38.42v.97c0 .233-.149.397-.35.5v5.675h1.887v-7.142" fill="#D1C690" fill-rule="nonzero"/><path fill="#FFF" fill-rule="nonzero" opacity=".5" d="M39.95 138.342h-1.874v-1h1.874z"/><path d="M26.172 131.203v7.14h1.997v-6.453c-.195-.104-.355-.272-.355-.505v-.186h-1.547" fill="#D1C690" fill-rule="nonzero"/><path fill="#FFF" fill-rule="nonzero" opacity=".5" d="M28.17 138.345h-1.992v-1h1.993z"/><path d="M39.858 151.326H26.381"/><path fill="#F2F2F2" fill-rule="nonzero" d="M39.86 158.46H26.171v-7.14H39.86z"/><path d="M31.014 151.322s-1.204.87-1.61.793c-.413-.076-1.007.272-1.264 0l.039-.79 2.835-.003z" fill-opacity=".7" fill="#22B573" fill-rule="nonzero"/><g fill-rule="nonzero"><path fill="#FFF" d="M33.942 155.84h-1.59v-1.79h1.59z"/><path fill="#B3B3B3" d="M33.944 154.094h-1.59v-1h1.59z"/></g><g fill-rule="nonzero"><path fill="#D1C690" d="M29.935 152.11l-1.795-.194v1.362l1.795-.196z"/><path d="M29.822 152.482h.015c.5.062.832.194 1.119.298.39.15 1.041 1.459 1.542 1.299.045-.026.112.018.118.08a.12.12 0 0 1-.073.141c-.568.18-1.255-1.145-1.663-1.302a3.938 3.938 0 0 0-1.066-.29.106.106 0 0 1-.091-.123c.005-.058.046-.103.099-.103zm6.484 5.008l1.8.191v-1.361l-1.8.193z" fill="#D1C690"/><path d="M33.227 154.658c.046 0 .091.04.102.088.118.542 2.027 2.142 3.517 2.142.056 0 .106.046.106.117-.004.065-.046.117-.106.117h-.01c-1.389 0-3.522-1.436-3.706-2.32-.02-.064.022-.125.076-.144h.02zm-.876-.032s.66.004.714-.58h-.714v.58z" fill="#D1C690"/><path d="M33.162 155.22s-.295-.575-.1-.659c.195-.091.332-.099.448.05.113.164-.348.61-.348.61z" fill="#D1C690"/><path d="M32.493 153.976c-.505.157-1.153-1.153-1.543-1.302a4.195 4.195 0 0 0-1.12-.3v.112c.502.063.834.194 1.12.3.39.149 1.042 1.459 1.543 1.298v-.108zm3.813 2.437l1.8-.194v.1l-1.8.194z" fill="#9D956C"/><path d="M33.331 154.636c.117.542 1.993 2.26 3.517 2.138v.114c-1.634.113-3.401-1.6-3.52-2.142l.003-.11zm-.266-.696h-.71v.11h.71v-.11zm.447.582c-.118-.149-.244-.141-.444-.056l-.003.112c.193-.093.333-.097.447.052v-.108z" fill="#9D956C"/></g><path fill="#FFF" fill-rule="nonzero" opacity=".5" d="M37.108 158.46H29.24v-1h7.868z"/><path fill="#F2F2F2" fill-rule="nonzero" opacity=".5" d="M38.072 158.46v-7.134h-9.899l-.007 7.134z"/><path d="M37.979 157.244v.504c-.034.278.022.505-.183.505h-9.042c-.313 0-.328-.117.028-.117h8.096c.851 0 .965-.194.965-.362l-.004-.504c-.006-.349.14-.349.14-.026z" fill="#FFF" fill-rule="nonzero" opacity=".55"/><path d="M28.428 151.732c0-.125-.022-.255.188-.255h8.968c.313 0 .328.117-.015.117l-6.686.004a32.548 32.548 0 0 0-2.455.134z" fill="#000" fill-rule="nonzero" opacity=".03"/><path d="M39.856 151.322H38.42v.97c0 .233-.149.397-.35.503v5.676h1.887v-7.141" fill="#D1C690" fill-rule="nonzero"/><path fill="#FFF" fill-rule="nonzero" opacity=".5" d="M39.953 158.463h-1.874v-1h1.874z"/><path d="M26.172 151.322v7.138h1.997v-6.454c-.195-.103-.355-.272-.355-.505v-.187h-1.547" fill="#D1C690" fill-rule="nonzero"/><path fill="#FFF" fill-rule="nonzero" opacity=".5" d="M28.17 158.462h-1.993v-1h1.993z"/><g fill-rule="nonzero"><g transform="rotate(-90 31.342 8.221)"><path fill="#CCC" d="M35.157 27.64h-.685V12.246h.685V.611H5.393v38.665h29.764z"/><path fill="#CCC" d="M.624 12.246h.687V27.64H.624v11.636h29.543V.611H.624z"/><circle fill="#641D1C" cx="17.895" cy="19.941" r="9.532"/><path d="M17.43 10.413c-5.266 0-9.534 4.264-9.534 9.526 0 5.259 4.264 9.537 9.534 9.537h.464c-5.266 0-9.534-4.269-9.534-9.537 0-5.262 4.268-9.526 9.534-9.526h-.464z" fill="#000" opacity=".2"/><circle fill="#852725" cx="17.894" cy="19.941" r="9.183"/><circle fill="#C14C4A" cx="18.11" cy="19.941" r="9.181"/><path d="M27.075 19.723a9.182 9.182 0 0 0-9.185-9.185 9.18 9.18 0 0 0-9.182 9.185v.428c0-5.072 4.113-9.183 9.182-9.183a9.182 9.182 0 0 1 9.185 9.183v-.428z" fill="#000" opacity=".1"/><path d="M8.71 19.723a9.181 9.181 0 0 0 9.182 9.183 9.18 9.18 0 0 0 9.185-9.183v.428c0 5.08-4.11 9.191-9.185 9.191-5.074 0-9.182-4.11-9.182-9.19v-.429zm25.76 19.555V27.64h1v11.638zm0-27.036V.612h1v11.63z" fill="#FFF" opacity=".2"/><path fill="#FFF" opacity=".2" d="M33.792 27.642v-15.4h1v15.4z"/><path fill="#000" opacity=".2" d="M.657 39.28V27.642h1V39.28zM.655 12.246V.617h1v11.63z"/><path fill="#000" opacity=".2" d="M1.343 27.642V12.237h1v15.405z"/></g><path fill="#E6E6E6" d="M18.567 8.165h5.123v4.193h-5.123zm0 22.818h5.123v4.195h-5.123zm43.541-12.339h5.123v6.365h-5.123zm0-10.479h5.123v4.193h-5.123zm0 22.818h5.123v4.195h-5.123z"/><path fill="#FFF" opacity=".2" d="M66.61 18.644h1v6.365h-1zm0-10.479h1v4.193h-1zm0 22.818h1v4.195h-1z"/><path fill="#000" opacity=".2" d="M18.486 8.2h1v4.193h-1zm0 22.82h1v4.194h-1z"/><path fill="#000" opacity=".1" d="M23.037 8.14h1v4.193h-1zm0 22.82h1v4.194h-1z"/></g><path d="M160.266 51.82h191.869m-77.496 190.963h73.632m-155.615 0h63.257" stroke="#FFF" stroke-width="1.609" stroke-linecap="round"/><text transform="translate(272.549 229.98)" font-size="8.382" font-family="Helvetica" fill="#FFF"><tspan x=".892" y="8.973">ANALOG IN</tspan></text><text transform="translate(225.98 229.98)" font-size="8.382" font-family="Helvetica" fill="#FFF"><tspan x=".908" y="8.973">POWER</tspan></text></g></svg>