<svg width="393" height="281" xmlns="http://www.w3.org/2000/svg"><g fill="none" fill-rule="evenodd"><g transform="translate(32.162 .701)"><path d="M339.246 0l7.994 7.995v59.96l13.323 13.326v171.886l-13.323 13.327v8.068a5.252 5.252 0 0 1-5.244 5.25H6.044a5.248 5.248 0 0 1-5.245-5.244V5.245A5.245 5.245 0 0 1 6.044 0h333.202zm-.402 93.273a8.393 8.393 0 0 0 8.378 8.407 8.398 8.398 0 0 0 8.411-8.38v-.03a8.393 8.393 0 0 0-8.38-8.407 8.395 8.395 0 0 0-8.409 8.378v.032zm0 146.571a8.393 8.393 0 0 0 8.378 8.408 8.395 8.395 0 0 0 8.411-8.378v-.03a8.393 8.393 0 0 0-8.38-8.407c-4.636-.011-8.4 3.74-8.409 8.378v.03zM72.352 13.324a8.395 8.395 0 0 0 16.788.03v-.03a8.392 8.392 0 0 0-8.382-8.405 8.394 8.394 0 0 0-8.406 8.382v.024zm-6.662 253.17a8.394 8.394 0 0 0 8.382 8.403 8.39 8.39 0 0 0 8.405-8.38v-.023a8.394 8.394 0 0 0-8.381-8.408 8.388 8.388 0 0 0-8.406 8.374v.034zm199.372 0a2.23 2.23 0 0 0 2.225 2.233 2.231 2.231 0 0 0 2.234-2.226v-.007a2.231 2.231 0 0 0-2.223-2.238 2.232 2.232 0 0 0-2.236 2.226v.012zm13.325 0a2.23 2.23 0 0 0 2.223 2.233 2.226 2.226 0 0 0 2.233-2.226v-.007a2.229 2.229 0 1 0-4.456-.012v.012zm13.325 0a2.229 2.229 0 1 0 4.46.007v-.007a2.231 2.231 0 0 0-2.223-2.238 2.234 2.234 0 0 0-2.237 2.226v.012zm13.326 0a2.23 2.23 0 1 0 4.457.007v-.007a2.229 2.229 0 1 0-4.457-.012v.012zm13.323 0a2.23 2.23 0 0 0 4.46.007v-.007a2.233 2.233 0 0 0-2.226-2.238c-1.23 0-2.23.994-2.234 2.226v.012zm13.325 0a2.23 2.23 0 0 0 2.224 2.233 2.231 2.231 0 0 0 2.234-2.226v-.007a2.231 2.231 0 0 0-2.223-2.238 2.232 2.232 0 0 0-2.235 2.226v.012zm.405-146.572a2.496 2.496 0 0 0 4.991.01v-.008a2.495 2.495 0 0 0-2.495-2.495 2.492 2.492 0 0 0-2.496 2.488v.005zm13.325 0a2.493 2.493 0 0 0 4.985.01v-.008a2.493 2.493 0 0 0-4.985-.007v.005zm-13.325 13.325a2.496 2.496 0 0 0 4.991.007v-.007a2.497 2.497 0 0 0-2.495-2.497 2.493 2.493 0 0 0-2.496 2.49v.007zm13.325 0a2.495 2.495 0 0 0 2.487 2.496 2.495 2.495 0 0 0 2.498-2.489v-.007a2.496 2.496 0 0 0-2.487-2.497 2.494 2.494 0 0 0-2.498 2.49v.007zM332.09 146.57a2.495 2.495 0 0 0 4.991.008v-.008a2.496 2.496 0 0 0-4.991-.007v.007zm13.325 0a2.496 2.496 0 0 0 2.487 2.499 2.498 2.498 0 0 0 2.498-2.491v-.008a2.494 2.494 0 0 0-2.487-2.494 2.491 2.491 0 0 0-2.498 2.487v.007zM107.57 30.647a2.493 2.493 0 0 0 4.984.007v-.007a2.492 2.492 0 1 0-4.984-.008v.008zm0 13.324a2.492 2.492 0 0 0 4.984.008v-.008a2.492 2.492 0 0 0-4.984-.009v.01zM94.244 30.647a2.493 2.493 0 0 0 4.984.007v-.007a2.493 2.493 0 1 0-4.984-.008v.008zm0 13.324a2.492 2.492 0 0 0 4.983.008v-.008a2.493 2.493 0 0 0-4.983-.009v.01zM80.919 30.647a2.491 2.491 0 1 0 4.982 0 2.491 2.491 0 0 0-4.982 0zm0 13.324a2.492 2.492 0 1 0 4.985-.002 2.492 2.492 0 0 0-4.985.002zm136.174-30.646a2.228 2.228 0 1 0 4.459.009v-.01a2.23 2.23 0 0 0-4.459-.01v.01zm-13.324 0a2.228 2.228 0 0 0 2.224 2.233 2.232 2.232 0 0 0 2.236-2.224v-.01a2.23 2.23 0 0 0-4.46-.014v.015zm-13.323 0a2.229 2.229 0 0 0 4.456.013v-.015a2.228 2.228 0 1 0-4.456-.015v.017zm-13.327 0a2.227 2.227 0 0 0 2.223 2.235 2.229 2.229 0 0 0 2.238-2.222v-.015a2.229 2.229 0 1 0-4.46-.015v.017zm-13.324 0a2.229 2.229 0 0 0 2.224 2.235 2.234 2.234 0 0 0 2.238-2.222v-.015a2.231 2.231 0 0 0-2.223-2.238 2.227 2.227 0 0 0-2.236 2.223c-.003.007-.003.011-.003.017zm-13.325 0a2.227 2.227 0 0 0 2.223 2.235 2.226 2.226 0 0 0 2.235-2.222v-.015a2.229 2.229 0 1 0-4.458-.015v.017zm-13.326 0a2.228 2.228 0 0 0 2.222 2.235 2.229 2.229 0 0 0 2.238-2.222v-.015a2.23 2.23 0 0 0-4.46-.015v.017zm-13.323 0a2.227 2.227 0 0 0 2.222 2.235 2.227 2.227 0 0 0 2.236-2.222v-.015a2.229 2.229 0 1 0-4.458-.015v.017zm-13.325 0a2.228 2.228 0 0 0 2.223 2.235 2.229 2.229 0 0 0 2.237-2.222v-.015a2.23 2.23 0 0 0-4.458-.015c-.002.007-.002.011-.002.017zm-13.325 0a2.227 2.227 0 0 0 2.223 2.235 2.229 2.229 0 0 0 2.237-2.222v-.015a2.23 2.23 0 0 0-4.46-.015v.017zm234.515 0a2.228 2.228 0 1 0 4.458.009v-.01a2.23 2.23 0 1 0-4.458-.01v.01zm-13.325 0a2.228 2.228 0 0 0 2.224 2.233 2.232 2.232 0 0 0 2.236-2.224v-.01a2.23 2.23 0 0 0-4.46-.011v.012zm-13.323 0a2.228 2.228 0 0 0 4.456.01v-.01a2.227 2.227 0 1 0-4.456-.011v.01zm-13.326 0a2.231 2.231 0 0 0 4.46.009v-.01a2.23 2.23 0 1 0-4.46-.01v.01zm-13.325 0a2.228 2.228 0 1 0 4.456.009v-.01a2.227 2.227 0 0 0-2.222-2.235 2.226 2.226 0 0 0-2.234 2.225v.01zm-13.325 0a2.228 2.228 0 1 0 4.459.009v-.01a2.23 2.23 0 1 0-4.459-.01v.01zm-13.324 0a2.228 2.228 0 0 0 2.224 2.233 2.232 2.232 0 0 0 2.236-2.224v-.01a2.23 2.23 0 0 0-4.46-.011v.012zm-13.323 0a2.228 2.228 0 0 0 4.456.01v-.01a2.227 2.227 0 1 0-4.456-.011v.01zm-79.95 253.169a2.228 2.228 0 0 0 2.223 2.233 2.223 2.223 0 0 0 2.235-2.219v-.014a2.228 2.228 0 1 0-4.458-.015v.015zm-13.323 0a2.228 2.228 0 0 0 2.223 2.233 2.223 2.223 0 0 0 2.235-2.219v-.014a2.228 2.228 0 1 0-4.458-.015v.015zm26.65 0a2.228 2.228 0 0 0 4.456.014v-.014a2.229 2.229 0 0 0-4.456-.015v.015zm13.322 0a2.228 2.228 0 0 0 2.223 2.233 2.228 2.228 0 0 0 2.237-2.219v-.014a2.23 2.23 0 0 0-4.46-.015v.015zm13.325 0a2.225 2.225 0 0 0 2.22 2.233 2.226 2.226 0 0 0 2.238-2.219v-.014a2.229 2.229 0 1 0-4.458-.015v.015zm13.325 0a2.23 2.23 0 0 0 2.222 2.233 2.226 2.226 0 0 0 2.234-2.226v-.007a2.229 2.229 0 1 0-4.456-.012v.012zm13.324 0c0 1.228.994 2.23 2.227 2.233a2.229 2.229 0 0 0 2.233-2.226v-.007a2.231 2.231 0 0 0-2.222-2.238 2.234 2.234 0 0 0-2.238 2.226v.012zm13.327 0a2.23 2.23 0 1 0 4.456.007v-.007a2.229 2.229 0 1 0-4.456-.012v.012z" fill="#00979D" fill-rule="nonzero"/><g transform="translate(113.74 20.357)"><circle stroke="#FFF" stroke-width="1.332" cx="2.983" cy="3.627" r="1.332"/><text transform="rotate(-90 23.149 -11.328)" font-size="6.94" font-family="Helvetica" fill="#FFF"><tspan x="0" y="6">13</tspan></text><text transform="rotate(-90 29.812 -17.991)" font-size="6.94" font-family="Helvetica" fill="#FFF"><tspan x="0" y="6">12</tspan></text><text transform="rotate(-90 36.474 -24.653)" font-size="6.94" font-family="Helvetica" fill="#FFF"><tspan x="0" y="6">11</tspan></text><text transform="rotate(-90 43.135 -31.315)" font-size="6.94" font-family="Helvetica" fill="#FFF"><tspan x="0" y="6">10</tspan></text><text transform="rotate(-90 47.294 -40.483)" font-size="6.94" font-family="Helvetica" fill="#FFF"><tspan x="0" y="6">9</tspan></text><text transform="rotate(-90 53.955 -47.145)" font-size="6.94" font-family="Helvetica" fill="#FFF"><tspan x="0" y="6">8</tspan></text><text transform="rotate(-90 64.615 -57.804)" font-size="6.94" font-family="Helvetica" fill="#FFF"><tspan x="0" y="6">7</tspan></text><text transform="rotate(-90 71.278 -64.467)" font-size="6.94" font-family="Helvetica" fill="#FFF"><tspan x="0" y="6">6</tspan></text><text transform="rotate(-90 77.94 -71.129)" font-size="6.94" font-family="Helvetica" fill="#FFF"><tspan x="0" y="6">5</tspan></text><text transform="rotate(-90 84.601 -77.79)" font-size="6.94" font-family="Helvetica" fill="#FFF"><tspan x="0" y="6">4</tspan></text><text transform="rotate(-90 91.265 -84.454)" font-size="6.94" font-family="Helvetica" fill="#FFF"><tspan x="0" y="6">3</tspan></text><text transform="rotate(-90 97.926 -91.116)" font-size="6.94" font-family="Helvetica" fill="#FFF"><tspan x="0" y="6">2</tspan></text><text transform="translate(17.307 37.375)" font-size="8.656" font-family="Helvetica" fill="#FFF"><tspan x="0" y="9">L</tspan></text></g><g fill="#FFF"><text transform="rotate(-90 226.538 30.696)" font-size="6.183" font-family="Helvetica"><tspan x="0" y="6">5V</tspan></text><text transform="rotate(-90 259.716 -2.482)" font-size="6.183" font-family="Helvetica"><tspan x="0" y="6">A0</tspan></text><text transform="translate(292.647 234.683)" font-size="6.801" font-family="Helvetica"><tspan x="0" y="6">ANALOG IN</tspan></text><text transform="rotate(-90 81.67 -39.387)" font-size="6.94" font-family="Helvetica"><tspan x="0" y="6">AREF</tspan></text><text transform="translate(321.256 112.157)" font-size="7.728" font-family="Helvetica"><tspan x="0" y="8">1</tspan></text><text transform="rotate(-90 86.15 -48.84)" font-size="6.94" font-family="Helvetica"><tspan x="0" y="6">GND</tspan></text><text transform="translate(124.053 82.015)" font-size="8.656" font-family="Helvetica"><tspan x="0" y="9">TX</tspan></text><text transform="translate(124.194 94.673)" font-size="8.656" font-family="Helvetica"><tspan x="0" y="9">RX</tspan></text><text transform="rotate(-90 212.224 44.276)" font-size="6.183" font-family="Helvetica"><tspan x="0" y="6">RESET</tspan></text><text transform="rotate(-90 219.885 37.28)" font-size="6.183" font-family="Helvetica"><tspan x="0" y="6">3V3</tspan></text><text transform="rotate(-90 266.378 -9.144)" font-size="6.183" font-family="Helvetica"><tspan x="0" y="6">A1</tspan></text><text transform="rotate(-90 273.043 -15.809)" font-size="6.183" font-family="Helvetica"><tspan x="0" y="6">A2</tspan></text><text transform="rotate(-90 279.703 -22.469)" font-size="6.183" font-family="Helvetica"><tspan x="0" y="6">A3</tspan></text><text transform="rotate(-90 286.366 -29.132)" font-size="6.183" font-family="Helvetica"><tspan x="0" y="6">A4</tspan></text><text transform="rotate(-90 293.028 -35.794)" font-size="6.183" font-family="Helvetica"><tspan x="0" y="6">A5</tspan></text><text transform="rotate(-90 246.527 10.707)" font-size="6.183" font-family="Helvetica"><tspan x="0" y="6">VIN</tspan></text><text transform="rotate(-90 233.198 24.036)" font-size="6.183" font-family="Helvetica"><tspan x="0" y="6">GND</tspan></text><text transform="rotate(-90 239.637 17.528)" font-size="6.183" font-family="Helvetica"><tspan x="0" y="6">GND</tspan></text><g font-size="6.801" font-family="Helvetica"><text transform="translate(236.173 43.075)"><tspan x="0" y="6">DIGITAL (PWM=</tspan></text><text transform="translate(304.409 43.075)"><tspan x="0" y="6">)</tspan></text></g><path d="M194.06 39.076c-.925.04-1.399-.462-1.399-1.103 0-.388.119-.684.417-1.306.224-.472.39-.814.39-1.157 0-.335-.268-.492-.777-.501v-.555c1.038-.047 1.399.49 1.399 1.066 0 .37-.113.703-.41 1.343-.212.435-.408.777-.408 1.112 0 .335.231.537.788.556v.545zm-13.735 0c-.926.04-1.4-.462-1.4-1.103 0-.388.12-.684.417-1.306.224-.472.39-.814.39-1.157 0-.335-.268-.492-.777-.501v-.555c1.039-.047 1.4.49 1.4 1.066 0 .37-.114.703-.41 1.343-.212.435-.409.777-.409 1.112 0 .335.232.537.789.556v.545zm87.689-5.606c-.929.038-1.399-.462-1.399-1.102 0-.389.118-.685.416-1.307.224-.47.39-.812.39-1.155 0-.334-.27-.492-.78-.501v-.555c1.04-.046 1.399.49 1.399 1.066 0 .37-.11.703-.405 1.343-.213.433-.41.778-.41 1.11 0 .334.232.537.79.556v.546zm26.648 0c-.928.038-1.401-.462-1.401-1.102 0-.389.116-.685.418-1.307.224-.47.39-.812.39-1.155 0-.334-.27-.492-.779-.501v-.555c1.038-.046 1.4.49 1.4 1.066 0 .37-.114.703-.408 1.343-.213.435-.41.778-.41 1.113 0 .335.23.536.79.555v.544zm-39.306 0c-.93.038-1.4-.462-1.4-1.102 0-.389.119-.685.417-1.307.224-.47.39-.812.39-1.155 0-.334-.27-.492-.78-.501v-.555c1.038-.046 1.399.49 1.399 1.066 0 .37-.11.703-.406 1.343-.213.433-.409.778-.409 1.11 0 .334.232.537.789.556v.546zm-48.637 0c-.926.038-1.4-.462-1.4-1.102 0-.389.12-.685.417-1.307.224-.47.389-.812.389-1.155 0-.334-.27-.492-.778-.501v-.555c1.039-.046 1.4.49 1.4 1.066 0 .37-.117.703-.41 1.343-.212.435-.412.778-.412 1.113 0 .335.231.536.794.555v.544z" fill-rule="nonzero"/><g font-family="Helvetica"><text transform="translate(169.29 91.013)" font-size="11.328"><tspan x="0" y="11">Arduino</tspan></text><text transform="translate(224.775 89.907)" font-size="4.119"><tspan x="0" y="4">TM</tspan></text></g><text transform="rotate(-90 206.562 49.938)" font-size="6.183" font-family="Helvetica"><tspan x="0" y="6">IOREF</tspan></text><text transform="rotate(-90 236.277 -82.46)" font-size="7.728" font-family="Helvetica"><tspan x="0" y="8">ICSP</tspan></text><text transform="translate(77.415 51.935)" font-size="7.728" font-family="Helvetica"><tspan x="0" y="8">ICSP2</tspan></text><text transform="translate(320.591 82.022)" font-size="8.656" font-family="Helvetica"><tspan x="0" y="9">ON</tspan></text></g><path fill="#333" fill-rule="nonzero" d="M92.282 84.821h26.229v26.229H92.282zm54.422 94.396h194.54v29.314h-194.54z"/><circle stroke="#9A916C" stroke-width="1.501" cx="267.292" cy="266.494" r="2.98"/><path d="M264.31 259.637h5.964v13.71h-5.963v-13.71zm0 6.857a2.973 2.973 0 0 0 2.98 2.97 2.975 2.975 0 0 0 2.978-2.97 2.979 2.979 0 1 0-5.957 0z" fill="#9A916C" fill-rule="nonzero"/><circle stroke="#9A916C" stroke-width="1.501" cx="280.617" cy="266.494" r="2.98"/><path d="M277.636 259.637h5.96v13.71h-5.96v-13.71zm0 6.857a2.972 2.972 0 0 0 2.977 2.97 2.976 2.976 0 1 0-2.978-2.97z" fill="#9A916C" fill-rule="nonzero"/><circle stroke="#9A916C" stroke-width="1.501" cx="293.942" cy="266.494" r="2.98"/><path d="M290.958 259.637h5.963v13.71h-5.963v-13.71zm0 6.857a2.974 2.974 0 0 0 2.982 2.97 2.972 2.972 0 0 0 2.972-2.97 2.98 2.98 0 0 0-2.972-2.982 2.983 2.983 0 0 0-2.982 2.982z" fill="#9A916C" fill-rule="nonzero"/><circle stroke="#9A916C" stroke-width="1.501" cx="307.268" cy="266.494" r="2.98"/><path d="M304.285 259.637h5.96v13.71h-5.96v-13.71zm0 6.857a2.97 2.97 0 0 0 2.97 2.97 2.972 2.972 0 0 0 2.982-2.97 2.98 2.98 0 0 0-2.982-2.982 2.98 2.98 0 0 0-2.97 2.982z" fill="#9A916C" fill-rule="nonzero"/><circle stroke="#9A916C" stroke-width="1.501" cx="320.591" cy="266.494" r="2.98"/><path d="M317.61 259.637h5.96v13.71h-5.96v-13.71zm0 6.857a2.972 2.972 0 0 0 2.981 2.97 2.975 2.975 0 1 0 0-5.952 2.98 2.98 0 0 0-2.981 2.982z" fill="#9A916C" fill-rule="nonzero"/><circle stroke="#9A916C" stroke-width="1.501" cx="333.916" cy="266.494" r="2.98"/><path d="M330.934 259.637h5.963v13.71h-5.963v-13.71zm0 6.857a2.973 2.973 0 0 0 2.98 2.97 2.975 2.975 0 0 0 2.978-2.97 2.979 2.979 0 1 0-5.958 0z" fill="#9A916C" fill-rule="nonzero"/><circle stroke="#9A916C" stroke-width="1.574" cx="334.584" cy="119.922" r="3.279"/><circle stroke="#9A916C" stroke-width="1.574" cx="347.907" cy="119.922" r="3.279"/><circle stroke="#9A916C" stroke-width="1.574" cx="334.584" cy="133.247" r="3.277"/><circle stroke="#9A916C" stroke-width="1.574" cx="347.907" cy="133.247" r="3.277"/><circle stroke="#9A916C" stroke-width="1.574" cx="334.584" cy="146.571" r="3.277"/><circle stroke="#9A916C" stroke-width="1.574" cx="347.907" cy="146.571" r="3.277"/><circle stroke="#9A916C" stroke-width="1.574" cx="110.061" cy="30.647" r="3.277"/><circle stroke="#9A916C" stroke-width="1.574" cx="110.061" cy="43.971" r="3.279"/><circle stroke="#9A916C" stroke-width="1.574" cx="96.736" cy="30.647" r="3.277"/><circle stroke="#9A916C" stroke-width="1.574" cx="96.736" cy="43.971" r="3.279"/><circle stroke="#9A916C" stroke-width="1.574" cx="83.41" cy="30.647" r="3.277"/><circle stroke="#9A916C" stroke-width="1.574" cx="83.41" cy="43.971" r="3.279"/><circle stroke="#9A916C" stroke-width="1.501" cx="219.322" cy="13.325" r="2.98"/><path d="M216.342 6.47h5.963v13.71h-5.963V6.47zm0 6.855a2.981 2.981 0 0 0 2.98 2.98 2.977 2.977 0 0 0 2.977-2.98c0-1.647-1.34-2.98-2.977-2.98a2.981 2.981 0 0 0-2.98 2.98z" fill="#9A916C" fill-rule="nonzero"/><circle stroke="#9A916C" stroke-width="1.501" cx="205.999" cy="13.325" r="2.98"/><path d="M203.017 6.47h5.961v13.71h-5.96V6.47zm0 6.855a2.98 2.98 0 1 0 5.961-.002 2.98 2.98 0 0 0-5.96.002z" fill="#9A916C" fill-rule="nonzero"/><circle stroke="#9A916C" stroke-width="1.501" cx="192.674" cy="13.325" r="2.98"/><path d="M189.695 6.47h5.968v13.71h-5.968V6.47zm0 6.855a2.98 2.98 0 1 0 5.96 0 2.98 2.98 0 0 0-5.96 0z" fill="#9A916C" fill-rule="nonzero"/><circle stroke="#9A916C" stroke-width="1.501" cx="179.349" cy="13.325" r="2.98"/><path d="M176.366 6.47h5.961v13.71h-5.96V6.47zm0 6.855a2.982 2.982 0 0 0 2.982 2.98 2.972 2.972 0 0 0 2.97-2.98 2.982 2.982 0 0 0-2.97-2.98 2.982 2.982 0 0 0-2.982 2.98z" fill="#9A916C" fill-rule="nonzero"/><circle stroke="#9A916C" stroke-width="1.501" cx="166.025" cy="13.325" r="2.98"/><path d="M163.043 6.47h5.961v13.71h-5.96V6.47zm0 6.855a2.98 2.98 0 0 0 2.978 2.98 2.974 2.974 0 0 0 2.974-2.98 2.978 2.978 0 0 0-2.974-2.98 2.98 2.98 0 0 0-2.978 2.98z" fill="#9A916C" fill-rule="nonzero"/><circle stroke="#9A916C" stroke-width="1.501" cx="152.7" cy="13.325" r="2.98"/><path d="M149.719 6.47h5.96v13.71h-5.96V6.47zm0 6.855a2.98 2.98 0 1 0 5.96-.001 2.98 2.98 0 0 0-5.96 0z" fill="#9A916C" fill-rule="nonzero"/><circle stroke="#9A916C" stroke-width="1.501" cx="139.375" cy="13.325" r="2.98"/><path d="M136.394 6.47h5.961v13.71h-5.96V6.47zm0 6.855a2.98 2.98 0 1 0 5.96-.001 2.98 2.98 0 0 0-5.96 0z" fill="#9A916C" fill-rule="nonzero"/><circle stroke="#9A916C" stroke-width="1.501" cx="126.051" cy="13.325" r="2.98"/><path d="M123.071 6.47h5.961v13.71h-5.96V6.47zm0 6.855a2.98 2.98 0 1 0 5.96-.001 2.98 2.98 0 0 0-5.96 0z" fill="#9A916C" fill-rule="nonzero"/><circle stroke="#9A916C" stroke-width="1.501" cx="112.726" cy="13.325" r="2.98"/><path d="M109.745 6.47h5.96v13.71h-5.96V6.47zm0 6.855a2.98 2.98 0 1 0 5.96-.001 2.98 2.98 0 0 0-5.96 0z" fill="#9A916C" fill-rule="nonzero"/><circle stroke="#9A916C" stroke-width="1.501" cx="99.4" cy="13.325" r="2.98"/><path d="M96.42 6.47h5.961v13.71H96.42V6.47zm0 6.855a2.98 2.98 0 1 0 5.96-.001 2.98 2.98 0 0 0-5.96 0z" fill="#9A916C" fill-rule="nonzero"/><circle stroke="#9A916C" stroke-width="1.501" cx="333.916" cy="13.325" r="2.98"/><path d="M330.934 6.47h5.963v13.71h-5.963V6.47zm0 6.855a2.981 2.981 0 0 0 2.98 2.98 2.977 2.977 0 0 0 2.978-2.98c0-1.647-1.34-2.98-2.978-2.98a2.981 2.981 0 0 0-2.98 2.98z" fill="#9A916C" fill-rule="nonzero"/><circle stroke="#9A916C" stroke-width="1.501" cx="320.591" cy="13.325" r="2.98"/><path d="M317.61 6.47h5.96v13.71h-5.96V6.47zm0 6.855a2.98 2.98 0 1 0 5.96-.002 2.98 2.98 0 0 0-5.96.002z" fill="#9A916C" fill-rule="nonzero"/><circle stroke="#9A916C" stroke-width="1.501" cx="307.268" cy="13.325" r="2.98"/><path d="M304.285 6.47h5.96v13.71h-5.96V6.47zm0 6.855a2.978 2.978 0 0 0 2.97 2.98 2.974 2.974 0 0 0 2.982-2.98 2.984 2.984 0 0 0-2.982-2.98 2.978 2.978 0 0 0-2.97 2.98z" fill="#9A916C" fill-rule="nonzero"/><circle stroke="#9A916C" stroke-width="1.501" cx="293.942" cy="13.325" r="2.98"/><path d="M290.958 6.47h5.963v13.71h-5.963V6.47zm0 6.855a2.982 2.982 0 0 0 2.982 2.98 2.974 2.974 0 0 0 2.972-2.98 2.983 2.983 0 0 0-2.972-2.98 2.982 2.982 0 0 0-2.982 2.98z" fill="#9A916C" fill-rule="nonzero"/><circle stroke="#9A916C" stroke-width="1.501" cx="280.617" cy="13.325" r="2.98"/><path d="M277.636 6.47h5.96v13.71h-5.96V6.47zm0 6.855a2.976 2.976 0 1 0 5.954 0 2.98 2.98 0 0 0-2.977-2.98 2.98 2.98 0 0 0-2.977 2.98z" fill="#9A916C" fill-rule="nonzero"/><circle stroke="#9A916C" stroke-width="1.501" cx="267.292" cy="13.325" r="2.98"/><path d="M264.31 6.47h5.964v13.71h-5.963V6.47zm0 6.855a2.981 2.981 0 0 0 2.98 2.98 2.977 2.977 0 0 0 2.978-2.98c0-1.647-1.34-2.98-2.978-2.98a2.981 2.981 0 0 0-2.98 2.98z" fill="#9A916C" fill-rule="nonzero"/><circle stroke="#9A916C" stroke-width="1.501" cx="253.968" cy="13.325" r="2.98"/><path d="M250.986 6.47h5.961v13.71h-5.96V6.47zm0 6.855a2.98 2.98 0 1 0 5.961-.002 2.98 2.98 0 0 0-5.96.002z" fill="#9A916C" fill-rule="nonzero"/><circle stroke="#9A916C" stroke-width="1.501" cx="240.645" cy="13.325" r="2.98"/><path d="M237.662 6.47h5.96v13.71h-5.96V6.47zm0 6.855a2.978 2.978 0 0 0 2.97 2.98 2.974 2.974 0 0 0 2.981-2.98 2.984 2.984 0 0 0-2.981-2.98 2.978 2.978 0 0 0-2.97 2.98z" fill="#9A916C" fill-rule="nonzero"/><circle stroke="#9A916C" stroke-width="1.501" cx="160.695" cy="266.494" r="2.98"/><circle stroke="#9A916C" stroke-width="1.501" cx="147.37" cy="266.494" r="2.98"/><path d="M157.714 259.637h5.96v13.71h-5.96v-13.71zm0 6.857a2.972 2.972 0 0 0 2.98 2.97 2.976 2.976 0 0 0 0-5.952 2.982 2.982 0 0 0-2.98 2.982zm-13.324-6.857h5.962v13.71h-5.961v-13.71zm0 6.857a2.972 2.972 0 0 0 2.98 2.97 2.976 2.976 0 0 0 0-5.952 2.98 2.98 0 0 0-2.98 2.982z" fill="#9A916C" fill-rule="nonzero"/><circle stroke="#9A916C" stroke-width="1.501" cx="174.021" cy="266.494" r="2.98"/><path d="M171.038 259.637H177v13.71h-5.96v-13.71zm0 6.857a2.97 2.97 0 0 0 2.97 2.97 2.972 2.972 0 0 0 2.982-2.97 2.98 2.98 0 0 0-2.981-2.982 2.98 2.98 0 0 0-2.97 2.982z" fill="#9A916C" fill-rule="nonzero"/><circle stroke="#9A916C" stroke-width="1.501" cx="187.344" cy="266.494" r="2.98"/><path d="M184.363 259.637h5.96v13.71h-5.96v-13.71zm0 6.857a2.972 2.972 0 0 0 2.981 2.97 2.975 2.975 0 1 0 0-5.952 2.98 2.98 0 0 0-2.981 2.982z" fill="#9A916C" fill-rule="nonzero"/><circle stroke="#9A916C" stroke-width="1.501" cx="200.669" cy="266.494" r="2.98"/><path d="M197.688 259.637h5.962v13.71h-5.962v-13.71zm0 6.857a2.973 2.973 0 0 0 2.98 2.97 2.975 2.975 0 0 0 2.977-2.97 2.979 2.979 0 1 0-5.957 0z" fill="#9A916C" fill-rule="nonzero"/><circle stroke="#9A916C" stroke-width="1.501" cx="213.994" cy="266.494" r="2.98"/><path d="M211.012 259.637h5.961v13.71h-5.96v-13.71zm0 6.857a2.972 2.972 0 0 0 2.978 2.97 2.976 2.976 0 1 0-2.978-2.97z" fill="#9A916C" fill-rule="nonzero"/><circle stroke="#9A916C" stroke-width="1.501" cx="227.318" cy="266.494" r="2.98"/><path d="M224.335 259.637h5.963v13.71h-5.963v-13.71zm0 6.857a2.974 2.974 0 0 0 2.981 2.97 2.972 2.972 0 0 0 2.973-2.97 2.98 2.98 0 0 0-2.973-2.982 2.983 2.983 0 0 0-2.98 2.982z" fill="#9A916C" fill-rule="nonzero"/><circle stroke="#9A916C" stroke-width="1.501" cx="240.645" cy="266.494" r="2.98"/><path d="M237.662 259.637h5.96v13.71h-5.96v-13.71zm0 6.857a2.97 2.97 0 0 0 2.97 2.97 2.972 2.972 0 0 0 2.981-2.97 2.98 2.98 0 0 0-2.981-2.982 2.98 2.98 0 0 0-2.97 2.982z" fill="#9A916C" fill-rule="nonzero"/><path d="M139.268 53.965h197.853m-73.352 179.598h73.352" stroke="#FFF" stroke-width="1.599" stroke-linecap="round"/><text transform="translate(222.846 234.683)" font-size="6.801" font-family="Helvetica" fill="#FFF"><tspan x="0" y="6">POWER</tspan></text><path d="M180.682 233.563h66.462" stroke="#FFF" stroke-width="1.599" stroke-linecap="round"/><text transform="rotate(-90 178.465 -151.297)" font-size="6.94" font-family="Helvetica" fill="#FFF"><tspan x="0" y="6">0</tspan></text><text transform="rotate(-90 171.803 -144.635)" font-size="6.94" font-family="Helvetica" fill="#FFF"><tspan x="0" y="6">1</tspan></text><text transform="rotate(-90 183.606 -132.832)" font-size="6.94" font-family="Helvetica" fill="#FFF"><tspan x="0" y="6">TX0</tspan></text><text transform="rotate(-90 190.268 -139.493)" font-size="6.94" font-family="Helvetica" fill="#FFF"><tspan x="0" y="6">RX0</tspan></text><path d="M323.067 33.325h-3.626a.623.623 0 0 1-.549-.332.61.61 0 0 1 .033-.642l1.81-2.7c.232-.348.811-.348 1.042 0l1.721 2.58c.123.115.21.281.21.468a.647.647 0 0 1-.64.626zm9.807-3.937h3.618c.231 0 .44.126.557.33a.598.598 0 0 1-.037.644l-1.8 2.7c-.232.348-.811.348-1.043 0l-1.72-2.584a.62.62 0 0 1-.21-.466.638.638 0 0 1 .635-.624zM300.473 48.34c-.04-1.015.505-1.533 1.208-1.533.424 0 .75.131 1.433.457.51.244.886.425 1.27.425.367 0 .54-.294.55-.853h.61c.05 1.138-.54 1.534-1.168 1.534-.41 0-.774-.122-1.475-.447-.478-.234-.853-.448-1.22-.448-.366 0-.588.255-.609.864l-.6.002z" fill-rule="nonzero" fill="#FFF"/><g fill-rule="nonzero"><path d="M200.465 68.6c1.57-1.721 2.773-3.29 4.222-4.586 5.489-4.915 11.672-6.738 18.749-3.757 6.695 2.82 10.317 9.797 8.86 16.915-1.343 6.568-7.657 11.57-14.553 11.805-6.39.217-11.19-2.64-15.194-7.28-.612-.713-1.195-1.455-1.967-2.4-.553.65-.986 1.143-1.403 1.663-4.28 5.391-9.6 8.452-16.743 7.995-7.004-.45-13.413-6.884-13.842-13.882-.558-8.868 6.207-16.148 15.604-16.228 6.222-.054 11.087 3.16 14.883 7.997.41.53.831 1.058 1.384 1.758z" fill="#FFF"/><path d="M185.101 63.768c-6.47-.011-11.196 4.14-11.718 9.5-.465 4.754 3.31 9.506 8.507 10.633 5.12 1.11 9.211-1.018 12.294-4.732 4.734-5.687 4.564-4.704.058-10.347-2.506-3.139-5.926-4.897-9.14-5.054zm32.059-.043c-.792.056-1.37.035-1.926.146-5.488 1.109-8.928 4.753-11.513 9.405-.202.367-.21 1.044-.008 1.401 2.336 4.04 5.252 7.501 9.898 8.96 4.502 1.411 8.444.244 11.548-3.211 2.783-3.1 3.416-6.766 1.576-10.586-1.952-4.04-5.428-5.822-9.575-6.115z" fill="#00979D"/><path d="M189.73 75.105a.263.263 0 0 1-.265.263h-9.564a.269.269 0 0 1-.268-.263v-2.889c0-.144.116-.263.268-.263h9.564c.144 0 .265.119.265.263v2.889zm31.587-2.885a.263.263 0 0 0-.267-.263h-2.815a.268.268 0 0 1-.266-.263V68.88a.263.263 0 0 0-.263-.262h-2.893a.265.265 0 0 0-.264.262v2.815a.263.263 0 0 1-.265.263h-2.815a.269.269 0 0 0-.268.263v2.889c0 .144.117.262.268.262h2.815c.145 0 .265.119.265.263v2.813c0 .145.116.263.264.263h2.893c.14 0 .263-.118.263-.263v-2.813c0-.144.116-.263.266-.263h2.815a.267.267 0 0 0 .267-.262v-2.89z" fill="#FFF"/><g transform="translate(250.688 57.37)" fill="#FFF"><circle cx="35.88" cy="2.817" r="1.051"/><circle cx="33.258" cy="2.817" r="1.051"/><circle cx="30.636" cy="2.817" r="1.051"/><circle cx="28.013" cy="2.817" r="1.051"/><circle cx="25.391" cy="2.817" r="1.051"/><circle cx="22.769" cy="2.817" r="1.051"/><circle cx="20.146" cy="2.817" r="1.051"/><circle cx="17.524" cy="2.817" r="1.051"/><circle cx="14.9" cy="2.817" r="1.051"/><circle cx="12.279" cy="2.817" r="1.051"/><circle cx="9.655" cy="2.817" r="1.051"/><circle cx="7.034" cy="2.817" r="1.051"/><circle cx="4.41" cy="2.817" r="1.051"/><circle cx="1.79" cy="2.817" r="1.051"/></g><g transform="translate(282.15 57.37)" fill="#FFF"><circle cx="4.525" cy="30.358" r="1.049"/><circle cx="7.02" cy="29.864" r="1.049"/><circle cx="9.385" cy="28.922" r="1.051"/><circle cx="11.535" cy="27.564" r="1.049"/><circle cx="13.401" cy="25.833" r="1.051"/><circle cx="14.918" cy="23.79" r="1.049"/><circle cx="16.036" cy="21.505" r="1.049"/><circle cx="16.715" cy="19.052" r="1.049"/><circle cx="16.935" cy="16.517" r="1.049"/><circle cx="16.687" cy="13.985" r="1.049"/><circle cx="15.977" cy="11.541" r="1.049"/><circle cx="14.837" cy="9.268" r="1.049"/><circle cx="13.297" cy="7.243" r="1.049"/><circle cx="11.413" cy="5.533" r="1.051"/><circle cx="9.248" cy="4.199" r="1.051"/><circle cx="6.871" cy="3.283" r="1.051"/><circle cx="4.369" cy="2.817" r="1.051"/><circle cx="1.825" cy="2.817" r="1.051"/></g><g transform="translate(235.883 57.37)" fill="#FFF"><circle cx="13.719" cy="30.182" r="1.051"/><circle cx="11.258" cy="29.659" r="1.051"/><circle cx="8.929" cy="28.696" r="1.051"/><circle cx="6.818" cy="27.325" r="1.051"/><circle cx="4.991" cy="25.591" r="1.051"/><circle cx="3.511" cy="23.553" r="1.051"/><circle cx="2.428" cy="21.281" r="1.051"/><circle cx="1.777" cy="18.849" r="1.051"/><circle cx="1.579" cy="16.339" r="1.051"/><path d="M1.95 12.79a1.052 1.052 0 0 1-.22 2.091 1.054 1.054 0 0 1-.934-1.16 1.05 1.05 0 0 1 1.155-.931zm.906-2.378a1.053 1.053 0 0 1-.598 2.017 1.053 1.053 0 0 1 .598-2.017z"/><circle cx="3.699" cy="9.177" r="1.051"/><circle cx="5.232" cy="7.179" r="1.051"/><circle cx="7.099" cy="5.495" r="1.051"/><circle cx="9.251" cy="4.179" r="1.051"/><circle cx="11.6" cy="3.276" r="1.051"/><circle cx="14.076" cy="2.817" r="1.051"/><circle cx="16.595" cy="2.817" r="1.051"/></g><g transform="translate(250.688 85.13)" fill="#FFF"><circle cx="35.88" cy="2.691" r="1.051"/><circle cx="33.258" cy="2.691" r="1.051"/><circle cx="30.636" cy="2.691" r="1.051"/><circle cx="28.013" cy="2.691" r="1.051"/><circle cx="25.391" cy="2.691" r="1.051"/><circle cx="22.769" cy="2.691" r="1.051"/><circle cx="20.146" cy="2.691" r="1.051"/><circle cx="17.524" cy="2.691" r="1.051"/><circle cx="14.9" cy="2.691" r="1.051"/><circle cx="12.279" cy="2.691" r="1.051"/><circle cx="9.655" cy="2.691" r="1.051"/><circle cx="7.034" cy="2.691" r="1.051"/><circle cx="4.41" cy="2.691" r="1.051"/><circle cx="1.79" cy="2.691" r="1.051"/></g><path d="M252.844 82.467c-1.84 0-3.224-.381-4.153-1.144-.897-.742-1.478-1.627-1.732-2.654-.13-.518-.22-1.073-.277-1.663a22.42 22.42 0 0 1-.084-1.897v-9.69h1.738v9.66c0 2.19.35 3.918 1.059 4.623.697.694 1.725 1.042 3.08 1.042 1.365 0 2.764-.348 3.462-1.042.705-.703 1.058-2.432 1.058-4.623v-9.66h1.775v9.69c0 2.013-.231 3.508-.698 4.486-.923 1.915-2.442 2.872-5.228 2.872zm22.367-.317h-1.747l-8.776-13.756v13.78h-1.474V65.42h1.628l8.622 13.796V65.42h1.747zm10.475-17.135c1.066 0 2.049.213 2.95.64a6.748 6.748 0 0 1 2.324 1.805c.655.777 1.153 1.714 1.514 2.807.363 1.092.546 2.308.546 3.642 0 1.333-.183 2.547-.546 3.639-.36 1.095-.866 2.034-1.514 2.815a6.737 6.737 0 0 1-2.324 1.811c-.894.426-1.884.639-2.95.639-1.073 0-2.06-.213-2.965-.639a6.878 6.878 0 0 1-2.328-1.811c-.655-.781-1.164-1.722-1.523-2.815-.359-1.09-.544-2.306-.544-3.639 0-1.334.185-2.548.544-3.642.359-1.093.87-2.03 1.523-2.807a6.844 6.844 0 0 1 2.328-1.805c.9-.425 1.892-.64 2.965-.64zm-.011 15.844a4.68 4.68 0 0 0 2.1-.474 4.752 4.752 0 0 0 1.659-1.37c.464-.597.827-1.325 1.088-2.182.26-.858.39-1.834.39-2.925 0-1.094-.13-2.07-.39-2.928-.261-.857-.62-1.584-1.083-2.182a4.64 4.64 0 0 0-1.643-1.362 4.717 4.717 0 0 0-2.082-.467c-.763 0-1.468.156-2.112.467a4.704 4.704 0 0 0-1.673 1.354c-.47.593-.835 1.32-1.103 2.18-.266.865-.4 1.842-.4 2.936 0 1.092.13 2.067.396 2.926.261.856.622 1.584 1.089 2.181a4.769 4.769 0 0 0 1.658 1.37c.64.316 1.343.476 2.106.476z" fill="#FFF"/></g></g><g fill-rule="nonzero"><path fill="#404040" d="M292.796 260.533h79.946v13.323h-79.946z"/><path fill="#000" d="M296.884 264.62h5.147v5.15h-5.147z"/><path fill="#2A2A29" d="M294.985 262.724l1.895 1.897h5.154l1.894-1.897z"/><path fill="#474747" d="M303.928 262.724l-1.894 1.904v5.147l1.894 1.893z"/><path fill="#595959" d="M303.928 271.668l-1.897-1.893h-5.15l-1.896 1.893z"/><path fill="#373737" d="M294.982 271.668l1.898-1.897v-5.15l-1.898-1.897z"/><path fill="#000" d="M310.21 264.62h5.148v5.15h-5.147z"/><path fill="#2A2A29" d="M308.308 262.724l1.899 1.897h5.147l1.897-1.897z"/><path fill="#474747" d="M317.25 262.724l-1.896 1.904v5.147l1.897 1.893z"/><path fill="#595959" d="M317.25 271.668l-1.896-1.893h-5.147l-1.899 1.893z"/><path fill="#373737" d="M308.304 271.668l1.903-1.897v-5.15l-1.903-1.897z"/><path fill="#000" d="M323.534 264.62h5.147v5.15h-5.147z"/><path fill="#2A2A29" d="M321.637 262.724l1.893 1.897h5.15l1.899-1.897z"/><path fill="#474747" d="M330.579 262.724l-1.899 1.904v5.147l1.899 1.893z"/><path fill="#595959" d="M330.579 271.668l-1.899-1.893h-5.15l-1.893 1.893z"/><path fill="#373737" d="M321.633 271.668l1.897-1.897v-5.15l-1.897-1.897z"/><path fill="#000" d="M336.86 264.62h5.147v5.15h-5.147z"/><path fill="#2A2A29" d="M334.963 262.724l1.893 1.897h5.15l1.9-1.897z"/><path fill="#474747" d="M343.905 262.724l-1.898 1.904v5.147l1.898 1.893z"/><path fill="#595959" d="M343.902 271.668l-1.899-1.893h-5.147l-1.893 1.893z"/><path fill="#373737" d="M334.956 271.668l1.9-1.897v-5.15l-1.9-1.897z"/><path fill="#000" d="M350.183 264.62h5.143v5.15h-5.143z"/><path fill="#2A2A29" d="M348.286 262.724l1.893 1.897h5.152l1.897-1.897z"/><path fill="#474747" d="M357.228 262.724l-1.897 1.904v5.147l1.897 1.893z"/><path fill="#595959" d="M357.225 271.668l-1.894-1.893h-5.152l-1.893 1.893z"/><path fill="#373737" d="M348.282 271.668l1.897-1.897v-5.15l-1.897-1.897z"/><path fill="#000" d="M363.508 264.62h5.147v5.15h-5.147z"/><path fill="#2A2A29" d="M361.609 262.724l1.895 1.897h5.154l1.893-1.897z"/><path fill="#474747" d="M370.551 262.724l-1.893 1.904v5.147l1.893 1.893z"/><path fill="#595959" d="M370.551 271.668l-1.897-1.893h-5.15l-1.895 1.893z"/><path fill="#373737" d="M361.605 271.668l1.899-1.897v-5.15l-1.899-1.897z"/></g><g fill-rule="nonzero"><path fill="#404040" d="M383.778 114.14h-20.741l-2.796 2.798v7.273l2.796 2.794h20.74l2.797-2.794v-7.273zm0 13.291h-20.741l-2.796 2.793v7.276l2.796 2.802h20.74l2.797-2.802v-7.276zm0 13.282h-20.741l-2.796 2.798v7.283l2.796 2.789h20.74l2.797-2.79v-7.282z"/><path fill="#404040" d="M383.778 114.14h-20.741l-2.796 2.798v7.273l2.796 2.794h20.74l2.797-2.794v-7.273zm0 13.291h-20.741l-2.796 2.793v7.276l2.796 2.802h20.74l2.797-2.802v-7.276zm0 13.282h-20.741l-2.796 2.798v7.283l2.796 2.789h20.74l2.797-2.79v-7.282z"/><path d="M368.948 149.023h-4.253v-4.255h4.253zm13.319-.001h-4.251v-4.255h4.25zm-13.32-13.324h-4.255v-4.253h4.255zm13.323-.001h-4.25v-4.253h4.25zm-13.327-13.321h-4.25v-4.253h4.25z" fill="#8D8C8C"/><path d="M382.267 122.377h-4.251v-4.253h4.25z" fill="#8D8455"/><path d="M381.243 121.346h-2.193v-2.189h2.193z" fill="#8C8663"/><path fill="#B8AF82" d="M378.017 118.126l1.032 1.034h2.184l1.036-1.034z"/><path fill="#80795B" d="M381.233 121.344v-2.184l1.036-1.034v4.25z"/><path fill="#5E5B43" d="M379.05 121.344h2.183l1.036 1.033h-4.252z"/><path fill="#9A916C" d="M378.017 118.126l1.032 1.034v2.184l-1.032 1.033z"/><path d="M367.916 121.344h-2.193v-2.19h2.193z" fill="#8C8663"/><path fill="#B8AF82" d="M364.696 118.126l1.03 1.034h2.184l1.033-1.034z"/><path fill="#80795B" d="M367.91 121.344v-2.184l1.033-1.034v4.25z"/><path fill="#5E5B43" d="M365.726 121.344h2.184l1.033 1.033h-4.247z"/><path fill="#9A916C" d="M364.696 118.126l1.03 1.034v2.184l-1.03 1.033z"/><path d="M381.24 134.666h-2.192v-2.191h2.193z" fill="#8C8663"/><path fill="#B8AF82" d="M378.017 131.447l1.032 1.03h2.184l1.036-1.03z"/><path fill="#80795B" d="M381.233 134.669v-2.191l1.036-1.031v4.25z"/><path fill="#5E5B43" d="M379.05 134.669h2.183l1.036 1.029h-4.252z"/><path fill="#9A916C" d="M378.017 131.447l1.032 1.03v2.192l-1.032 1.029z"/><path d="M367.914 134.67h-2.193v-2.192h2.193z" fill="#8C8663"/><path fill="#B8AF82" d="M364.696 131.447l1.03 1.03h2.184l1.033-1.03z"/><path fill="#80795B" d="M367.91 134.669v-2.191l1.033-1.031v4.25z"/><path fill="#5E5B43" d="M365.726 134.669h2.184l1.033 1.029h-4.247z"/><path fill="#9A916C" d="M364.696 131.447l1.03 1.03v2.192l-1.03 1.029z"/><path d="M381.241 147.996h-2.191v-2.193h2.191z" fill="#8C8663"/><path fill="#B8AF82" d="M378.017 144.772l1.032 1.03h2.184l1.036-1.03z"/><path fill="#80795B" d="M381.233 147.995v-2.193l1.036-1.03v4.25z"/><path fill="#5E5B43" d="M379.05 147.995h2.183l1.036 1.028h-4.252z"/><path fill="#9A916C" d="M378.017 144.772l1.032 1.03v2.193l-1.032 1.028z"/><path d="M367.913 147.997h-2.191V145.8h2.191z" fill="#8C8663"/><path fill="#B8AF82" d="M364.696 144.772l1.03 1.03h2.184l1.035-1.03z"/><path fill="#80795B" d="M367.91 147.995v-2.193l1.035-1.03v4.25z"/><path fill="#5E5B43" d="M365.726 147.995h2.184l1.035 1.028h-4.25z"/><path fill="#9A916C" d="M364.696 144.772l1.03 1.03v2.193l-1.03 1.028z"/></g><g fill-rule="nonzero"><path fill="#404040" d="M109.177 27.642V48.38l2.796 2.797h7.275l2.794-2.796V27.642l-2.794-2.798h-7.275zm13.291 0V48.38l2.793 2.797h7.276l2.8-2.796V27.642l-2.8-2.798h-7.276zm13.282 0V48.38l2.798 2.797h7.279l2.793-2.796V27.642l-2.793-2.798h-7.279z"/><path fill="#404040" d="M109.177 27.642V48.38l2.796 2.797h7.275l2.794-2.796V27.642l-2.794-2.798h-7.275zm13.291 0V48.38l2.793 2.797h7.276l2.8-2.796V27.642l-2.8-2.798h-7.276zm13.282 0V48.38l2.798 2.797h7.279l2.793-2.796V27.642l-2.793-2.798h-7.279z"/><path fill="#8D8C8C" d="M144.065 46.718h-4.255v-4.253h4.255zm0-13.322h-4.255v-4.253h4.255zm-13.323 13.322h-4.253v-4.253h4.253zm0-13.322h-4.253v-4.253h4.253zm-13.321 13.322h-4.253v-4.253h4.253z"/><path fill="#8D8455" d="M117.421 33.396h-4.253v-4.253h4.253z"/><path fill="#8C8663" d="M116.388 32.361H114.2v-2.19h2.19z"/><path fill="#B8AF82" d="M113.167 33.396l1.036-1.035v-2.185l-1.036-1.033z"/><path fill="#80795B" d="M116.389 30.176h-2.186l-1.036-1.033h4.254z"/><path fill="#5E5B43" d="M116.389 32.361v-2.185l1.032-1.033v4.253z"/><path fill="#9A916C" d="M113.167 33.396l1.036-1.035h2.186l1.032 1.035z"/><path fill="#8C8663" d="M116.388 45.686H114.2V43.5h2.19z"/><path fill="#B8AF82" d="M113.167 46.719l1.036-1.033V43.5l-1.036-1.032z"/><path fill="#80795B" d="M116.389 43.5h-2.186l-1.036-1.032h4.254z"/><path fill="#5E5B43" d="M116.389 45.686V43.5l1.032-1.032v4.25z"/><path fill="#9A916C" d="M113.167 46.719l1.036-1.033h2.186l1.032 1.033z"/><path fill="#8C8663" d="M129.711 32.361h-2.19v-2.19h2.19z"/><path fill="#B8AF82" d="M126.491 33.396l1.031-1.035v-2.185l-1.03-1.033z"/><path fill="#80795B" d="M129.711 30.176h-2.189l-1.03-1.033h4.25z"/><path fill="#5E5B43" d="M129.711 32.361v-2.185l1.031-1.033v4.253z"/><path fill="#9A916C" d="M126.491 33.396l1.031-1.035h2.19l1.03 1.035z"/><path fill="#8C8663" d="M129.711 45.686h-2.19V43.5h2.19z"/><path fill="#B8AF82" d="M126.491 46.719l1.031-1.033V43.5l-1.03-1.032z"/><path fill="#80795B" d="M129.711 43.5h-2.189l-1.03-1.032h4.25z"/><path fill="#5E5B43" d="M129.711 45.686V43.5l1.031-1.032v4.25z"/><path fill="#9A916C" d="M126.491 46.719l1.031-1.033h2.19l1.03 1.033z"/><path fill="#8C8663" d="M143.038 32.361h-2.193v-2.19h2.193z"/><path fill="#B8AF82" d="M139.812 33.396l1.033-1.035v-2.185l-1.033-1.033z"/><path fill="#80795B" d="M143.038 30.176h-2.193l-1.033-1.033h4.253z"/><path fill="#5E5B43" d="M143.038 32.361v-2.185l1.027-1.033v4.253z"/><path fill="#9A916C" d="M139.812 33.396l1.033-1.035h2.193l1.027 1.035z"/><path fill="#8C8663" d="M143.038 45.686h-2.193V43.5h2.193z"/><path fill="#B8AF82" d="M139.812 46.719l1.033-1.033V43.5l-1.033-1.032z"/><path fill="#80795B" d="M143.038 43.5h-2.193l-1.033-1.032h4.253z"/><path fill="#5E5B43" d="M143.038 45.686V43.5l1.027-1.032v4.25z"/><path fill="#9A916C" d="M139.812 46.719l1.033-1.033h2.193l1.027 1.033z"/></g><g fill-rule="nonzero"><path fill="#404040" d="M372.74 20.688H266.145V7.365H372.74z"/><path fill="#000" d="M275.376 16.602h-5.145v-5.149h5.145z"/><path fill="#2A2A29" d="M268.336 9.557l1.891 1.897h5.149l1.902-1.897z"/><path fill="#474747" d="M277.278 9.557l-1.902 1.902v5.147l1.902 1.893z"/><path fill="#595959" d="M277.276 18.499l-1.9-1.893h-5.149l-1.891 1.893z"/><path fill="#373737" d="M268.332 18.499l1.895-1.897v-5.148l-1.895-1.897z"/><path fill="#000" d="M288.703 16.602h-5.143v-5.149h5.143z"/><path fill="#2A2A29" d="M281.657 9.557l1.895 1.897h5.154l1.897-1.897z"/><path fill="#474747" d="M290.603 9.557l-1.897 1.902v5.147l1.897 1.893z"/><path fill="#595959" d="M290.6 18.499l-1.898-1.893h-5.15l-1.895 1.893z"/><path fill="#373737" d="M281.653 18.499l1.899-1.897v-5.148l-1.899-1.897z"/><path fill="#000" d="M302.03 16.602h-5.146v-5.149h5.147z"/><path fill="#2A2A29" d="M294.984 9.557l1.895 1.897h5.152l1.895-1.897z"/><path fill="#474747" d="M303.926 9.557l-1.895 1.902v5.147l1.895 1.893z"/><path fill="#595959" d="M303.92 18.499l-1.891-1.893h-5.15l-1.895 1.893z"/><path fill="#373737" d="M294.98 18.499l1.899-1.897v-5.148l-1.9-1.897z"/><path fill="#000" d="M315.356 16.602h-5.145v-5.149h5.145z"/><path fill="#2A2A29" d="M308.304 9.557l1.903 1.897h5.148l1.892-1.897z"/><path fill="#474747" d="M317.247 9.557l-1.892 1.902v5.147l1.892 1.893z"/><path fill="#595959" d="M317.247 18.499l-1.895-1.893h-5.145l-1.903 1.893z"/><path fill="#373737" d="M308.3 18.499l1.907-1.897v-5.148L308.3 9.557z"/><path fill="#000" d="M328.678 16.602h-5.147v-5.149h5.147z"/><path fill="#2A2A29" d="M321.635 9.557l1.893 1.897h5.15l1.899-1.897z"/><path fill="#474747" d="M330.577 9.557l-1.899 1.902v5.147l1.899 1.893z"/><path fill="#595959" d="M330.573 18.499l-1.9-1.893h-5.145l-1.893 1.893z"/><path fill="#373737" d="M321.631 18.499l1.897-1.897v-5.148l-1.897-1.897z"/><path fill="#000" d="M341.999 16.602h-5.145v-5.149h5.145z"/><path fill="#2A2A29" d="M334.96 9.557l1.89 1.897H342l1.902-1.897z"/><path fill="#474747" d="M343.902 9.557l-1.903 1.902v5.147l1.903 1.893z"/><path fill="#595959" d="M343.9 18.499l-1.9-1.893h-5.15l-1.89 1.893z"/><path fill="#373737" d="M334.956 18.499l1.895-1.897v-5.148l-1.895-1.897z"/><path fill="#000" d="M355.326 16.602h-5.143v-5.149h5.143z"/><path fill="#2A2A29" d="M348.28 9.557l1.895 1.897h5.154l1.897-1.897z"/><path fill="#474747" d="M357.226 9.557l-1.897 1.902v5.147l1.897 1.893z"/><path fill="#595959" d="M357.223 18.499l-1.897-1.893h-5.15l-1.896 1.893z"/><path fill="#373737" d="M348.277 18.499l1.898-1.897v-5.148l-1.898-1.897z"/><path fill="#000" d="M368.654 16.602h-5.147v-5.149h5.147z"/><path fill="#2A2A29" d="M361.607 9.557l1.895 1.897h5.152l1.895-1.897z"/><path fill="#474747" d="M370.55 9.557l-1.896 1.902v5.147l1.895 1.893z"/><path fill="#595959" d="M370.544 18.499l-1.892-1.893h-5.15l-1.895 1.893z"/><path fill="#373737" d="M361.603 18.499l1.899-1.897v-5.148l-1.899-1.897z"/></g><path d="M172.102 67.46h13.392"/><path d="M185.695 67.459h-13.599v-7.094h13.6z" fill-rule="nonzero" fill="#F2F2F2"/><path d="M180.882 67.46s1.193-.864 1.604-.788c.406.075 1.001-.274 1.251 0l-.033.784-2.822.004z" fill-opacity=".7" fill="#22B573" fill-rule="nonzero"/><g fill-rule="nonzero"><path d="M179.554 64.75h-1.58v-1.778h1.58z" fill="#FFF"/><path d="M179.554 64.792h-1.58v-1h1.58z" fill="#B3B3B3"/></g><g fill-rule="nonzero"><path fill="#D1C690" d="M181.955 66.672l1.784.196V65.51l-1.784.195z"/><path d="M182.068 66.307h-.015a4.476 4.476 0 0 1-1.107-.3c-.386-.148-1.034-1.447-1.532-1.288-.05.022-.11-.02-.122-.08a.122.122 0 0 1 .072-.144c.565-.176 1.248 1.142 1.653 1.298a3.92 3.92 0 0 0 1.058.286.11.11 0 0 1 .091.126c-.002.056-.046.102-.098.102zm-6.442-4.977l-1.784-.19v1.351l1.784-.19z" fill="#D1C690"/><path d="M178.685 64.145c-.046 0-.09-.037-.102-.087-.116-.54-2.013-2.131-3.488-2.131-.061 0-.106-.049-.106-.117.004-.063.047-.117.106-.117h.003c1.387 0 3.5 1.425 3.689 2.304a.123.123 0 0 1-.076.145c-.004.003-.013.003-.026.003zm.872.03s-.66-.004-.71.576h.71v-.576z" fill="#D1C690"/><path d="M178.75 63.581s.292.566.098.65c-.198.088-.33.096-.444-.052-.113-.152.346-.598.346-.598z" fill="#D1C690"/><path d="M179.414 64.817c.5-.155 1.146 1.144 1.532 1.292.269.111.611.235 1.107.3v-.11a4.476 4.476 0 0 1-1.107-.3c-.386-.147-1.034-1.446-1.532-1.287v.105zm-3.788-2.415l-1.784.19v-.101l1.784-.19z" fill="#9D956C"/><path d="M178.583 64.16c-.115-.538-1.98-2.243-3.488-2.126v-.111c1.623-.111 3.379 1.591 3.492 2.132l-.004.105zm.267.69h.705v-.105h-.705v.106zm-.448-.575c.116.148.242.14.44.057l.004-.11c-.198.09-.331.096-.444-.052v.105z" fill="#9D956C"/></g><path d="M182.645 60.462h-7.815v-1h7.815z" fill-rule="nonzero" fill="#FFF" opacity=".5"/><path fill="#F2F2F2" fill-rule="nonzero" opacity=".5" d="M173.873 60.366v7.09h9.84l.008-7.09z"/><path d="M173.966 61.57v-.502c.033-.28-.022-.502.181-.502h8.983c.311 0 .326.12-.022.12h-8.043c-.846 0-.959.195-.959.365l.004.504c0 .336-.144.336-.144.014z" fill="#FFF" fill-rule="nonzero" opacity=".55"/><path d="M183.452 67.045c0 .126.022.256-.181.256h-8.915c-.31 0-.325-.12.015-.12l6.642-.004c1.101.002 2.44-.132 2.44-.132z" fill="#000" fill-rule="nonzero" opacity=".03"/><path d="M172.1 67.46h1.427v-.964c0-.232.148-.394.348-.496v-5.64h-1.869v7.097" fill="#D1C690" fill-rule="nonzero"/><path d="M173.867 60.463h-1.862v-1h1.862z" fill-rule="nonzero" fill="#FFF" opacity=".5"/><path d="M185.693 67.46v-7.094h-1.982v6.411c.193.104.354.27.354.502v.185h1.534" fill="#D1C690" fill-rule="nonzero"/><path d="M185.69 60.457h-1.984v-1h1.984z" fill-rule="nonzero" fill="#FFF" opacity=".5"/><path d="M337.384 92.394h13.391"/><path d="M350.976 92.392h-13.6v-7.094h13.6z" fill-rule="nonzero" fill="#F2F2F2"/><path d="M346.165 92.39s1.196-.864 1.6-.788c.406.076 1.002-.274 1.256 0l-.04.784-2.816.004z" fill-opacity=".7" fill="#22B573" fill-rule="nonzero"/><g fill-rule="nonzero"><path d="M344.837 89.68h-1.58v-1.777h1.58z" fill="#FFF"/><path d="M344.835 89.727h-1.58v-1h1.58z" fill="#B3B3B3"/></g><g fill-rule="nonzero"><path fill="#D1C690" d="M347.238 91.605l1.783.193v-1.353l-1.783.193z"/><path d="M347.353 91.237h-.015c-.497-.065-.827-.192-1.112-.3-.387-.148-1.038-1.447-1.529-1.288-.048.022-.116-.02-.12-.08a.123.123 0 0 1 .072-.144c.567-.175 1.248 1.142 1.655 1.298.272.11.587.227 1.057.286a.11.11 0 0 1 .092.126c-.011.056-.052.102-.1.102zm-6.443-4.977l-1.79-.19v1.351l1.79-.19z" fill="#D1C690"/><path d="M343.966 89.076c-.046 0-.09-.04-.101-.087-.117-.54-2.014-2.132-3.489-2.132a.115.115 0 0 1-.115-.117c.004-.063.041-.117.115-.117h.004c1.384 0 3.5 1.425 3.686 2.305a.131.131 0 0 1-.075.144c-.006.004-.013.004-.025.004zm.872.029s-.655-.004-.709.576h.71v-.576z" fill="#D1C690"/><path d="M344.035 88.515s.29.566.1.65c-.198.088-.331.096-.444-.052-.115-.156.344-.598.344-.598z" fill="#D1C690"/><path d="M344.697 89.751c.502-.155 1.142 1.144 1.53 1.292.27.11.61.235 1.111.3v-.11c-.497-.064-.827-.192-1.112-.3-.387-.147-1.038-1.447-1.529-1.287v.105zm-3.787-2.419l-1.79.19v-.1l1.79-.192z" fill="#9D956C"/><path d="M343.863 89.094c-.117-.538-1.979-2.243-3.489-2.126v-.111c1.623-.111 3.376 1.591 3.494 2.132l-.005.105zm.267.69h.704v-.105h-.705v.105zm-.445-.575c.117.148.243.14.439.057l.005-.11c-.198.09-.333.095-.444-.053v.106z" fill="#9D956C"/></g><path d="M347.93 85.39h-7.82v-1h7.82z" fill-rule="nonzero" fill="#FFF" opacity=".5"/><path fill="#F2F2F2" fill-rule="nonzero" opacity=".5" d="M339.153 85.298v7.09h9.838l.007-7.09z"/><path d="M339.25 86.503v-.501c.034-.28-.025-.502.182-.502h8.983c.311 0 .326.12-.025.12h-8.047c-.846 0-.962.195-.962.365l.007.503c0 .337-.139.337-.139.015z" fill="#FFF" fill-rule="nonzero" opacity=".55"/><path d="M348.737 91.98c0 .125.025.255-.183.255h-8.914c-.311 0-.328-.12.016-.12l6.644-.004c1.098-.002 2.437-.132 2.437-.132z" fill="#000" fill-rule="nonzero" opacity=".03"/><path d="M337.378 92.39h1.427v-.964c0-.231.148-.394.348-.496v-5.64h-1.87v7.095" fill="#D1C690" fill-rule="nonzero"/><path d="M339.151 85.388h-1.864v-1h1.864z" fill-rule="nonzero" fill="#FFF" opacity=".5"/><path d="M350.979 92.39v-7.093h-1.982v6.41c.192.104.351.27.351.502v.185h1.536" fill="#D1C690" fill-rule="nonzero"/><path d="M350.972 85.39h-1.98v-1h1.98z" fill-rule="nonzero" fill="#FFF" opacity=".5"/><g transform="rotate(90 -13.97 197.825)" fill-rule="nonzero"><path d="M39.653 15.758v2.354H37.73v-2.354zm-35.885-.002v2.354h-1.92v-2.354z" fill="#CCC"/><path d="M39.652 15.753v1H37.73v-1zm-35.885-.002v1h-1.92v-1z" fill="#000" opacity=".1"/><path d="M39.652 17.734v1H37.73v-1zM3.767 17.73v1H1.848v-1z" fill="#FFF" opacity=".2"/><path d="M10.817 33.965h24.349a2.572 2.572 0 0 0 2.563-2.56V2.573A2.573 2.573 0 0 0 35.166.006H10.817l-7.05 7.052v19.86l7.05 7.047z" fill="#1A1A1A"/><circle fill="#E6E6E6" cx="20.748" cy="16.985" r="16.106"/><path d="M10.817 33.965h24.349a2.572 2.572 0 0 0 2.563-2.56V2.573A2.573 2.573 0 0 0 35.166.006H10.817l-7.05 7.052v19.86l7.05 7.047z" fill="#333"/><path d="M3.768 7.397L10.82.344h24.347a2.573 2.573 0 0 1 2.563 2.567v-.34A2.573 2.573 0 0 0 35.168.004H10.817l-7.05 7.053v.34z" fill="#000"/><path d="M37.727 31.063a2.572 2.572 0 0 1-2.563 2.561H10.815L3.762 26.58v.339l7.053 7.047h24.35a2.572 2.572 0 0 0 2.562-2.56v-.342z" fill="#FFF" opacity=".1"/><path d="M20.748.655a16.06 16.06 0 0 1 9.325 2.987c4.1 2.922 6.78 7.704 6.78 13.117 0 5.417-2.68 10.196-6.78 13.116a16.022 16.022 0 0 1-9.325 2.989c-8.893 0-16.105-7.21-16.105-16.106 0-8.89 7.214-16.103 16.105-16.103z" fill="#E6E6E6"/><path d="M36.856 16.985c0-5.415-2.682-10.195-6.781-13.117V30.1c4.097-2.919 6.78-7.699 6.78-13.116z" fill="#000"/><path d="M4.643 16.534c0 8.896 7.212 16.106 16.105 16.106 3.48 0 6.69-1.118 9.325-2.99 4.1-2.921 6.78-7.701 6.78-13.116v.451c0 5.417-2.68 10.197-6.78 13.116a16.009 16.009 0 0 1-9.325 2.989c-8.893 0-16.105-7.21-16.105-16.105v-.451z" fill="#FFF" opacity=".3"/><path d="M36.856 17.41c0-5.414-2.682-10.194-6.781-13.118v-.424c4.1 2.922 6.78 7.702 6.78 13.117v.424z" fill="#FFF" opacity=".5"/><path d="M30.073 4.292a16.035 16.035 0 0 0-9.325-2.99c-8.893 0-16.105 7.215-16.105 16.107v-.424C4.643 8.093 11.855.88 20.748.88c3.48 0 6.69 1.118 9.325 2.989v.424z" fill="#000" opacity=".2"/></g><g transform="rotate(90 -32.625 179.17)" fill-rule="nonzero"><path d="M39.654 15.756v2.354h-1.921v-2.354zM3.77 15.754v2.354H1.85v-2.354z" fill="#CCC"/><path d="M39.652 15.751v1H37.73v-1zm-35.885.001v1H1.848v-1z" fill="#000" opacity=".1"/><path d="M39.654 17.734v1h-1.923v-1zM3.77 17.73v1H1.85v-1z" fill="#FFF" opacity=".2"/><path d="M10.819 33.965h24.349a2.572 2.572 0 0 0 2.563-2.56V2.573A2.573 2.573 0 0 0 35.168.006h-24.35l-7.05 7.052v19.86l7.05 7.047z" fill="#1A1A1A"/><circle fill="#E6E6E6" cx="20.749" cy="16.985" r="16.106"/><path d="M10.819 33.965h24.349a2.572 2.572 0 0 0 2.563-2.56V2.573A2.573 2.573 0 0 0 35.168.006H10.819L3.768 7.058v19.86l7.05 7.047z" fill="#333"/><path d="M3.77 7.397L10.823.344H35.17a2.573 2.573 0 0 1 2.563 2.567v-.34A2.573 2.573 0 0 0 35.17.004H10.82L3.77 7.057v.34z" fill="#000"/><path d="M37.73 31.063a2.572 2.572 0 0 1-2.564 2.561H10.817L3.764 26.58v.339l7.053 7.047h24.349a2.572 2.572 0 0 0 2.563-2.56v-.342z" fill="#FFF" opacity=".1"/><path d="M20.75.655a16.06 16.06 0 0 1 9.325 2.987c4.1 2.922 6.78 7.704 6.78 13.117 0 5.417-2.68 10.196-6.78 13.116a16.022 16.022 0 0 1-9.326 2.989c-8.892 0-16.104-7.21-16.104-16.106C4.645 7.868 11.86.655 20.75.655z" fill="#E6E6E6"/><path d="M36.856 16.985c0-5.415-2.682-10.195-6.781-13.117V30.1c4.1-2.919 6.783-7.699 6.78-13.116z" fill="#000"/><path d="M4.645 16.534c0 8.896 7.212 16.106 16.104 16.106 3.482 0 6.69-1.118 9.326-2.99 4.1-2.921 6.78-7.701 6.78-13.116v.451c0 5.417-2.68 10.197-6.78 13.116a16.009 16.009 0 0 1-9.326 2.989c-8.892 0-16.104-7.21-16.104-16.105v-.451z" fill="#FFF" opacity=".3"/><path d="M36.856 17.41c0-5.414-2.682-10.194-6.781-13.118v-.424c4.1 2.922 6.78 7.702 6.78 13.117v.424z" fill="#FFF" opacity=".5"/><path d="M30.075 4.292a16.035 16.035 0 0 0-9.326-2.99c-8.892 0-16.104 7.215-16.104 16.107v-.424C4.645 8.093 11.857.88 20.75.88a16.05 16.05 0 0 1 9.326 2.989v.424z" fill="#000" opacity=".2"/></g><g fill-rule="nonzero"><path fill="#404040" d="M172.87 260.533h106.599v13.323h-106.6z"/><path fill="#000" d="M176.96 264.62h5.147v5.15h-5.147z"/><path fill="#2A2A29" d="M175.063 262.724l1.893 1.897h5.15l1.9-1.897z"/><path fill="#474747" d="M184.005 262.724l-1.898 1.904v5.147l1.898 1.893z"/><path fill="#595959" d="M184.004 271.668l-1.9-1.893h-5.148l-1.893 1.893z"/><path fill="#373737" d="M175.06 271.668l1.896-1.897v-5.15l-1.897-1.897z"/><path fill="#000" d="M190.285 264.62h5.147v5.15h-5.147z"/><path fill="#2A2A29" d="M188.386 262.724l1.895 1.897h5.152l1.899-1.897z"/><path fill="#474747" d="M197.332 262.724l-1.899 1.904v5.147l1.899 1.893z"/><path fill="#595959" d="M197.328 271.668l-1.897-1.893h-5.15l-1.895 1.893z"/><path fill="#373737" d="M188.382 271.668l1.899-1.897v-5.15l-1.899-1.897z"/><path fill="#000" d="M203.612 264.62h5.145v5.15h-5.145z"/><path fill="#2A2A29" d="M201.71 262.724l1.896 1.897h5.152l1.895-1.897z"/><path fill="#474747" d="M210.653 262.724l-1.895 1.904v5.147l1.895 1.893z"/><path fill="#595959" d="M210.651 271.668l-1.897-1.893h-5.148l-1.895 1.893z"/><path fill="#373737" d="M201.707 271.668l1.899-1.897v-5.15l-1.9-1.897z"/><path fill="#000" d="M216.934 264.62h5.147v5.15h-5.147z"/><path fill="#2A2A29" d="M215.033 262.724l1.897 1.897h5.154l1.892-1.897z"/><path fill="#474747" d="M223.976 262.724l-1.892 1.904v5.147l1.892 1.893z"/><path fill="#595959" d="M223.976 271.668l-1.895-1.893h-5.15l-1.898 1.893z"/><path fill="#373737" d="M215.03 271.668l1.9-1.897v-5.15l-1.9-1.897z"/><path fill="#000" d="M230.26 264.62h5.146v5.15h-5.145z"/><path fill="#2A2A29" d="M228.358 262.724l1.899 1.897h5.148l1.895-1.897z"/><path fill="#474747" d="M237.3 262.724l-1.895 1.904v5.147l1.895 1.893z"/><path fill="#595959" d="M237.3 271.668l-1.896-1.893h-5.147l-1.899 1.893z"/><path fill="#373737" d="M228.354 271.668l1.903-1.897v-5.15l-1.903-1.897z"/><path fill="#000" d="M243.584 264.62h5.145v5.15h-5.145z"/><path fill="#2A2A29" d="M241.686 262.724l1.894 1.897h5.148l1.9-1.897z"/><path fill="#474747" d="M250.629 262.724l-1.9 1.904v5.147l1.9 1.893z"/><path fill="#595959" d="M250.625 271.668l-1.897-1.893h-5.148l-1.894 1.893z"/><path fill="#373737" d="M241.683 271.668l1.897-1.897v-5.15l-1.897-1.897z"/><path fill="#000" d="M256.908 264.62h5.145v5.15h-5.145z"/><path fill="#2A2A29" d="M255.01 262.724l1.894 1.897h5.149l1.902-1.897z"/><path fill="#474747" d="M263.955 262.724l-1.902 1.904v5.147l1.902 1.893z"/><path fill="#595959" d="M263.952 271.668l-1.9-1.893h-5.148l-1.895 1.893z"/><path fill="#373737" d="M255.006 271.668l1.898-1.897v-5.15l-1.898-1.897z"/><path fill="#000" d="M270.235 264.62h5.145v5.15h-5.145z"/><path fill="#2A2A29" d="M268.334 262.724l1.895 1.897h5.152l1.895-1.897z"/><path fill="#474747" d="M277.276 262.724l-1.895 1.904v5.147l1.895 1.893z"/><path fill="#595959" d="M277.274 271.668l-1.896-1.893h-5.149l-1.895 1.893z"/><path fill="#373737" d="M268.33 271.668l1.899-1.897v-5.15l-1.899-1.897z"/></g><path d="M185.5 96.887h-13.392"/><path d="M185.496 103.97h-13.599v-7.094h13.599z" fill-rule="nonzero" fill="#F2F2F2"/><path d="M176.709 96.876s-1.194.864-1.605.788c-.405-.076-1 .274-1.25 0l.033-.785 2.822-.003z" fill-opacity=".7" fill="#22B573" fill-rule="nonzero"/><g fill-rule="nonzero"><path d="M179.616 101.37h-1.58v-1.78h1.58z" fill="#FFF"/><path d="M179.619 99.635h-1.58v-1h1.58z" fill="#B3B3B3"/></g><g fill-rule="nonzero"><path fill="#D1C690" d="M175.636 97.664l-1.783-.192v1.352l1.783-.192z"/><path d="M175.523 98.029h.014a4.4 4.4 0 0 1 1.107.3c.387.147 1.035 1.447 1.532 1.287.05-.022.111.02.123.08.014.065-.019.126-.073.144-.564.176-1.247-1.141-1.652-1.297a3.92 3.92 0 0 0-1.059-.287.11.11 0 0 1-.09-.126c.005-.055.048-.101.098-.101zm6.442 4.976l1.787.19v-1.35l-1.787.19z" fill="#D1C690"/><path d="M178.906 100.19c.046 0 .09.037.101.087.117.54 2.014 2.132 3.489 2.132.06 0 .105.048.105.117-.003.063-.046.116-.105.116h-.004c-1.386 0-3.5-1.425-3.688-2.304a.123.123 0 0 1 .076-.144c.009-.004.016-.004.026-.004zm-.87-.03s.659.004.709-.575h-.71v.576z" fill="#D1C690"/><path d="M178.84 100.753s-.292-.567-.097-.65c.198-.089.33-.096.444.052.113.154-.346.598-.346.598z" fill="#D1C690"/><path d="M178.176 99.518c-.5.156-1.145-1.143-1.532-1.291a4.15 4.15 0 0 0-1.107-.3v.109c.493.065.828.193 1.107.3.387.148 1.035 1.447 1.532 1.288v-.106zm3.789 2.416l1.787-.187v.098l-1.787.19z" fill="#9D956C"/><path d="M179.011 100.174c.115.538 1.98 2.243 3.489 2.126v.111c-1.623.111-3.38-1.592-3.493-2.132l.004-.105zm-.266-.693h-.705v.106h.705v-.106zm.444.578c-.117-.148-.243-.14-.44-.058l-.004.111c.198-.09.33-.096.444.052v-.105z" fill="#9D956C"/></g><path d="M182.759 103.975h-7.815v-1h7.815z" fill-rule="nonzero" fill="#FFF" opacity=".5"/><path fill="#F2F2F2" fill-rule="nonzero" opacity=".5" d="M183.721 103.97v-7.09h-9.84l-.007 7.09z"/><path d="M183.627 102.763v.501c-.034.28.022.502-.182.502h-8.983c-.31 0-.326-.12.022-.12h8.043c.846 0 .959-.195.959-.365l-.004-.504c.002-.333.145-.333.145-.014z" fill="#FFF" fill-rule="nonzero" opacity=".55"/><path d="M174.138 97.287c0-.126-.022-.256.182-.256h8.914c.311 0 .326.12-.015.12l-6.642.004c-1.1.006-2.439.132-2.439.132z" fill="#000" fill-rule="nonzero" opacity=".03"/><path d="M185.494 96.876h-1.427v.964c0 .231-.148.394-.348.496v5.639h1.87v-7.096" fill="#D1C690" fill-rule="nonzero"/><path d="M185.587 103.977h-1.862v-1h1.862z" fill-rule="nonzero" fill="#FFF" opacity=".5"/><path d="M171.897 96.876v7.093h1.984v-6.41c-.194-.104-.353-.27-.353-.502v-.185h-1.536" fill="#D1C690" fill-rule="nonzero"/><path d="M173.881 103.977h-1.984v-1h1.984z" fill-rule="nonzero" fill="#FFF" opacity=".5"/><path d="M185.5 84.895h-13.392"/><path d="M185.494 91.978h-13.599v-7.094h13.6z" fill-rule="nonzero" fill="#F2F2F2"/><path d="M176.709 84.883s-1.194.865-1.605.789c-.405-.076-1 .274-1.25 0l.033-.785 2.822-.004z" fill-opacity=".7" fill="#22B573" fill-rule="nonzero"/><g fill-rule="nonzero"><path d="M179.616 89.377h-1.58V87.6h1.58z" fill="#FFF"/><path d="M179.616 87.642h-1.58v-1h1.58z" fill="#B3B3B3"/></g><g fill-rule="nonzero"><path fill="#D1C690" d="M175.636 85.672l-1.783-.193v1.353l1.783-.192z"/><path d="M175.523 86.036h.014c.493.065.828.193 1.107.3.387.148 1.035 1.447 1.532 1.288.05-.022.111.02.123.08.014.065-.019.126-.073.144-.564.176-1.247-1.142-1.652-1.297a3.92 3.92 0 0 0-1.059-.287.11.11 0 0 1-.09-.126c.005-.053.048-.102.098-.102zm6.442 4.977l1.787.19v-1.35l-1.787.19z" fill="#D1C690"/><path d="M178.906 88.198c.046 0 .09.037.101.087.117.54 2.014 2.132 3.489 2.132.06 0 .105.048.105.117-.003.062-.046.116-.105.116h-.004c-1.386 0-3.5-1.425-3.688-2.304a.123.123 0 0 1 .076-.144c.009-.004.016-.004.026-.004zm-.87-.026s.659.004.709-.575h-.71v.575z" fill="#D1C690"/><path d="M178.84 88.762s-.292-.566-.097-.65c.198-.088.33-.095.444.053.113.151-.346.597-.346.597z" fill="#D1C690"/><path d="M178.176 87.526c-.5.156-1.145-1.144-1.532-1.292a4.15 4.15 0 0 0-1.107-.3v.11c.493.065.828.192 1.107.3.387.148 1.035 1.447 1.532 1.288v-.106zm3.789 2.419l1.787-.192v.1l-1.787.19z" fill="#9D956C"/><path d="M179.011 88.183c.115.539 1.98 2.243 3.489 2.127v.11c-1.623.112-3.38-1.59-3.493-2.131l.004-.106zm-.266-.69h-.705v.105h.705v-.105zm.444.575c-.117-.148-.243-.14-.44-.057l-.004.111c.198-.09.33-.096.444.052v-.106z" fill="#9D956C"/></g><path d="M182.758 91.98h-7.815v-1h7.815z" fill-rule="nonzero" fill="#FFF" opacity=".5"/><path fill="#F2F2F2" fill-rule="nonzero" opacity=".5" d="M183.721 91.977v-7.09h-9.84l-.007 7.09z"/><path d="M183.627 90.772v.502c-.034.28.022.501-.182.501h-8.983c-.31 0-.326-.12.022-.12h8.043c.846 0 .959-.194.959-.365l-.004-.503c.002-.335.145-.335.145-.015z" fill="#FFF" fill-rule="nonzero" opacity=".55"/><path d="M174.138 85.298c0-.126-.022-.255.182-.255h8.914c.311 0 .326.12-.015.12l-6.642.004c-1.1.001-2.439.131-2.439.131z" fill="#000" fill-rule="nonzero" opacity=".03"/><path d="M185.494 84.883h-1.427v.965c0 .231-.148.394-.348.496v5.639h1.87v-7.096" fill="#D1C690" fill-rule="nonzero"/><path d="M185.586 91.983h-1.862v-1h1.862z" fill-rule="nonzero" fill="#FFF" opacity=".5"/><path d="M171.897 84.883v7.094h1.984v-6.41c-.194-.104-.353-.27-.353-.502v-.185h-1.536" fill="#D1C690" fill-rule="nonzero"/><path d="M173.88 91.98h-1.983v-1h1.984z" fill-rule="nonzero" fill="#FFF" opacity=".5"/><g transform="rotate(90 -38.336 132.095)" fill-rule="nonzero"><path d="M34.135 2.207v9.06h-6.4v-9.06zm-12.13.001v9.061h-6.401V2.21zM9.872 2.207v9.06H3.478v-9.06z" fill="#999"/><path d="M34.135 2.207v1h-6.4v-1zm-12.13.001v1h-6.401v-1zM9.871 2.207v1H3.477v-1z" fill="#FFF" opacity=".2"/><path d="M28.248 29.667v9.78H9.358v-9.78z" fill="#999"/><path d="M28.248 39.15v1H9.358v-1z" fill="#FFF" opacity=".2"/><path d="M36.536 11.268V29.67H1.078v-18.4z" fill="#303030"/><path fill="#1F1F1F" d="M36.54 29.668H1.076l1.33-1.335H35.2zm0-18.401H1.076l1.33 1.338H35.2z"/><path fill="#000" d="M36.54 29.668V11.267l-1.34 1.338v15.728z"/><path fill="#3D3D3D" d="M1.077 29.668V11.267l1.33 1.338v15.728z"/><circle fill="#1F1F1F" cx="32.538" cy="15.27" r="1.332"/></g><g fill-rule="nonzero"><path fill="#232323" d="M93.346 261.51h-61.02v-43.92h61.02z"/><path fill="#494949" d="M92.548 221.697H33.444v-3.046h59.104z"/><path fill-opacity=".3" fill="#3D3D3D" d="M92.545 231.636H33.443V221.7h59.102z"/><path fill="#000" d="M92.548 260.553H31.527v-2.996h61.02z"/><path fill-opacity=".4" fill="#0F0F0F" d="M92.548 257.642H31.527V246.86h61.02z"/><path fill="#000" opacity=".2" d="M93.346 261.506H92.25V217.59h1.096z"/></g><path d="M88.145 261.51v-43.92" stroke="#000" stroke-width=".5" opacity=".5"/><g fill-rule="nonzero" fill="#000" opacity=".25"><path d="M38.8 261.55h-2.383v-43.914H38.8z"/><path d="M36.941 225.59v27.908h24.607c7.71 0 13.955-6.246 13.955-13.956 0-7.706-6.246-13.956-13.955-13.956l-24.607.004z" stroke="#565656" stroke-width=".5"/></g><g fill-rule="nonzero" fill="#232323"><path d="M36.941 225.59v27.908h24.607c7.71 0 13.955-6.246 13.955-13.956 0-7.706-6.246-13.956-13.955-13.956l-24.607.004z"/><path d="M38.285 263.155H24.057v-47.217h14.228z"/></g><path fill="#6D6D6D" fill-rule="nonzero" d="M96.495 244.834h-3.148V234.26h3.148z"/><path fill="#494949" fill-rule="nonzero" d="M95.148 249.932h-1.806v-20.775h1.806zM36.94 218.649H25.342v-1.945H36.94z"/><path fill="#000" fill-rule="nonzero" d="M36.94 262.487h-11.6v-1.945h11.6z"/><g fill-rule="nonzero"><path d="M35.976 43.055h5.47v7.54l-5.47.004h-3.569v-5.867c0-.93.752-1.68 1.679-1.68 0 0 1.89 0 1.89.003z" fill="#999"/><path d="M33.9 43.055V50.6h-1.493v-6.14c0-.747 1.037-1.404 1.494-1.404z" fill="gray"/><path d="M81.95 110.696H14.064V50.589h67.885z" fill="#B3B3B3"/><path d="M14.067 110.698h-14V50.591h14z" fill="#999"/><path d="M81.954 110.696H.068v-3.786h81.886z" fill="#CCC" opacity=".5"/><path d="M81.951 54.378H.065V50.59h81.886z" fill="#000" opacity=".2"/><path d="M35.972 118.242h5.47v-7.546h-9.038v5.87c0 .93.751 1.676 1.678 1.676h1.89z" fill="#B3B3B3"/><path d="M33.897 118.242v-7.546h-1.493v6.143c0 .747 1.036 1.403 1.493 1.403z" fill="#E6E6E6"/></g><g fill-rule="nonzero"><g transform="rotate(-90 41.726 -2.576)"><path fill="#CCC" d="M2.274 12.44h.681v15.293h-.68v11.56h29.571V.877H2.274z"/><path fill="#CCC" d="M36.584 27.733H35.9V12.44h.683V.88H7.232v38.413h29.352z"/><circle fill="#641D1C" cx="19.424" cy="20.088" r="9.47"/><path d="M19.887 29.554c5.232 0 9.472-4.236 9.472-9.464 0-5.23-4.236-9.475-9.472-9.475h-.46c5.231 0 9.47 4.241 9.47 9.475 0 5.228-4.239 9.464-9.47 9.464h.46z" fill="#000" opacity=".2"/><circle fill="#852725" cx="19.426" cy="20.088" r="9.124"/><circle fill="#C14C4A" cx="19.212" cy="20.088" r="9.122"/><path d="M10.304 20.305a9.123 9.123 0 0 0 9.126 9.125 9.12 9.12 0 0 0 9.122-9.125v-.432c0 5.042-4.086 9.126-9.122 9.126a9.123 9.123 0 0 1-9.126-9.126v.432z" fill="#000" opacity=".1"/><path d="M28.55 20.305a9.122 9.122 0 0 0-9.122-9.124 9.12 9.12 0 0 0-9.125 9.124v-.432a9.123 9.123 0 0 1 9.125-9.125 9.12 9.12 0 0 1 9.122 9.125v.432zM2.275 12.434V.871h1v11.563zm.001 26.853V27.732h1v11.555z" fill="#FFF" opacity=".2"/><path d="M2.956 27.73V12.433h1V27.73z" fill="#FFF" opacity=".2"/><path d="M35.878 12.435V.872h1v11.563zm-.006 26.851V27.73h1v11.555z" fill="#000" opacity=".2"/><path d="M35.19 27.733v-15.3h1v15.3z" fill="#000" opacity=".2"/></g><path fill="#E6E6E6" d="M83.637 28.976h5.089v4.166h-5.09zm0-22.673h5.089v4.168h-5.09zM40.378 16.406h5.089v6.324h-5.09zm0 12.57h5.089v4.166h-5.09zm0-22.673h5.089v4.168h-5.09z"/><path fill="#FFF" opacity=".2" d="M40.378 16.406h1v6.324h-1zm0 12.57h1v4.166h-1zm0-22.673h1v4.168h-1z"/><path fill="#000" opacity=".2" d="M88.616 28.941h1v4.166h-1zm0-22.673h1v4.168h-1z"/><path fill="#000" opacity=".1" d="M83.667 29h1v4.166h-1zm0-22.673h1v4.168h-1z"/></g><text transform="translate(50.534 36.605)" font-size="7.728" font-family="Helvetica" fill="#FFF"><tspan x="0" y="8">RESET</tspan></text><g fill-rule="nonzero"><path fill="#404040" d="M124.79 7.364h133.246v13.323H124.79z"/><path fill="#000" d="M128.881 11.452h5.143v5.15h-5.143z"/><path fill="#2A2A29" d="M126.984 9.555l1.893 1.897h5.15l1.9-1.897z"/><path fill="#474747" d="M135.926 9.555l-1.898 1.903v5.146l1.898 1.894z"/><path fill="#595959" d="M135.926 18.498l-1.898-1.894h-5.15l-1.894 1.894z"/><path fill="#373737" d="M126.98 18.498l1.897-1.897v-5.149l-1.897-1.897z"/><path fill="#000" d="M142.207 11.452h5.147v5.15h-5.147z"/><path fill="#2A2A29" d="M140.307 9.555l1.893 1.897h5.15l1.9-1.897z"/><path fill="#474747" d="M149.25 9.555l-1.9 1.903v5.146l1.9 1.894z"/><path fill="#595959" d="M149.25 18.498l-1.903-1.894H142.2l-1.893 1.894z"/><path fill="#373737" d="M140.303 18.498L142.2 16.6v-5.149l-1.897-1.897z"/><path fill="#000" d="M155.53 11.452h5.143v5.15h-5.143z"/><path fill="#2A2A29" d="M153.63 9.555l1.893 1.897h5.156l1.897-1.897z"/><path fill="#474747" d="M162.576 9.555l-1.897 1.903v5.146l1.897 1.894z"/><path fill="#595959" d="M162.572 18.498l-1.893-1.894h-5.156l-1.893 1.894z"/><path fill="#373737" d="M153.63 18.498l1.893-1.897v-5.149l-1.893-1.897z"/><path fill="#000" d="M168.857 11.452h5.147v5.15h-5.147z"/><path fill="#2A2A29" d="M166.956 9.555l1.899 1.897h5.15l1.893-1.897z"/><path fill="#474747" d="M175.898 9.555l-1.893 1.903v5.146l1.893 1.894z"/><path fill="#595959" d="M175.898 18.498l-1.896-1.894h-5.147l-1.899 1.894z"/><path fill="#373737" d="M166.952 18.498l1.903-1.897v-5.149l-1.903-1.897z"/><path fill="#000" d="M182.181 11.452h5.143v5.15h-5.143z"/><path fill="#2A2A29" d="M180.279 9.555l1.899 1.897h5.15l1.893-1.897z"/><path fill="#474747" d="M189.221 9.555l-1.893 1.903v5.146l1.893 1.894z"/><path fill="#595959" d="M189.218 18.498l-1.894-1.894h-5.146l-1.899 1.894z"/><path fill="#373737" d="M180.275 18.498l1.903-1.897v-5.149l-1.903-1.897z"/><path fill="#000" d="M195.508 11.452h5.143v5.15h-5.143z"/><path fill="#2A2A29" d="M193.607 9.555l1.894 1.897h5.15l1.9-1.897z"/><path fill="#474747" d="M202.552 9.555l-1.901 1.903v5.146l1.9 1.894z"/><path fill="#595959" d="M202.552 18.498l-1.907-1.894h-5.144l-1.894 1.894z"/><path fill="#373737" d="M193.604 18.498L195.5 16.6v-5.149l-1.897-1.897z"/><path fill="#000" d="M208.827 11.452h5.145v5.15h-5.145z"/><path fill="#2A2A29" d="M206.936 9.555l1.887 1.897h5.149l1.904-1.897z"/><path fill="#474747" d="M215.876 9.555l-1.904 1.903v5.146l1.904 1.894z"/><path fill="#595959" d="M215.873 18.498l-1.905-1.894h-5.145l-1.887 1.894z"/><path fill="#373737" d="M206.93 18.498l1.893-1.897v-5.149l-1.893-1.897z"/><path fill="#000" d="M222.152 11.452h5.143v5.15h-5.143z"/><path fill="#2A2A29" d="M220.253 9.555l1.891 1.897h5.16l1.891-1.897z"/><path fill="#474747" d="M229.195 9.555l-1.891 1.903v5.146l1.891 1.894z"/><path fill="#595959" d="M229.195 18.498l-1.891-1.894h-5.16l-1.891 1.894z"/><path fill="#373737" d="M220.25 18.498l1.894-1.897v-5.149l-1.895-1.897z"/><path fill="#000" d="M235.478 11.452h5.145v5.15h-5.145z"/><path fill="#2A2A29" d="M233.58 9.555l1.898 1.897h5.152l1.892-1.897z"/><path fill="#474747" d="M242.522 9.555l-1.892 1.903v5.146l1.892 1.894z"/><path fill="#595959" d="M242.516 18.498l-1.891-1.894h-5.147l-1.898 1.894z"/><path fill="#373737" d="M233.576 18.498l1.902-1.897v-5.149l-1.902-1.897z"/><path fill="#000" d="M248.807 11.452h5.141v5.15h-5.14z"/><path fill="#2A2A29" d="M246.9 9.555l1.901 1.897h5.147l1.895-1.897z"/><path fill="#474747" d="M255.843 9.555l-1.895 1.903v5.146l1.895 1.894z"/><path fill="#595959" d="M255.84 18.498l-1.892-1.894H248.8l-1.9 1.894z"/><path fill="#373737" d="M246.897 18.498L248.8 16.6v-5.149l-1.904-1.897z"/></g></g></svg>