<svg width="575" height="285" xmlns="http://www.w3.org/2000/svg"><g fill="none" fill-rule="evenodd"><g transform="translate(32.944 -1.004)"><path d="M514.946 1.88l13.524 13.528v54.118L542 83.056v182.647l-13.53 13.529v1.438a5.328 5.328 0 0 1-5.327 5.327H6.152a5.328 5.328 0 0 1-5.326-5.326V7.204A5.327 5.327 0 0 1 6.152 1.88h508.794zm-8.524 270.587a8.516 8.516 0 0 0 8.518 8.522 8.52 8.52 0 0 0 8.52-8.522 8.52 8.52 0 1 0-17.038 0zM73.478 15.408a8.524 8.524 0 0 0 17.045.03v-.03a8.52 8.52 0 0 0-8.51-8.534 8.524 8.524 0 0 0-8.535 8.51v.024zm399.12 0a8.516 8.516 0 0 0 8.519 8.522 8.52 8.52 0 0 0 8.52-8.522 8.52 8.52 0 1 0-17.038 0zM66.716 272.468A8.518 8.518 0 0 0 75.219 281a8.52 8.52 0 0 0 8.535-8.508v-.025a8.518 8.518 0 0 0-8.504-8.536 8.517 8.517 0 0 0-8.535 8.502v.034zm277.35-175.883a8.522 8.522 0 0 0 17.043.028l.001-.03c.008-4.707-3.798-8.53-8.505-8.537a8.522 8.522 0 0 0-8.538 8.507v.032zm0 148.823a8.52 8.52 0 0 0 8.507 8.537 8.52 8.52 0 0 0 8.537-8.506v-.03c.008-4.708-3.798-8.53-8.505-8.537a8.52 8.52 0 0 0-8.538 8.506v.03zm46.85 27.06a2.265 2.265 0 0 0 2.259 2.267 2.262 2.262 0 0 0 2.268-2.26v-.008a2.266 2.266 0 0 0-2.257-2.271 2.266 2.266 0 0 0-2.27 2.26v.011zm13.53 0a2.263 2.263 0 0 0 4.525.008v-.009a2.264 2.264 0 0 0-2.257-2.271 2.267 2.267 0 0 0-2.268 2.26v.011zm13.527 0a2.264 2.264 0 0 0 4.529.008v-.009a2.266 2.266 0 0 0-2.259-2.271 2.268 2.268 0 0 0-2.27 2.26v.011zm13.531 0a2.264 2.264 0 1 0 4.527.007v-.008a2.267 2.267 0 0 0-2.259-2.271 2.264 2.264 0 0 0-2.268 2.26v.011zm13.53 0a2.262 2.262 0 1 0 4.523.007v-.008a2.263 2.263 0 0 0-2.255-2.271 2.268 2.268 0 0 0-2.268 2.26v.011zm13.53 0a2.265 2.265 0 0 0 2.258 2.267 2.262 2.262 0 0 0 2.268-2.26v-.008a2.266 2.266 0 0 0-2.257-2.271 2.266 2.266 0 0 0-2.27 2.26v.011zm13.529 0a2.264 2.264 0 1 0 4.524.007v-.008a2.264 2.264 0 0 0-2.256-2.271 2.267 2.267 0 0 0-2.268 2.26v.011zm13.527 0a2.264 2.264 0 0 0 4.529.008v-.009a2.266 2.266 0 0 0-2.259-2.271 2.268 2.268 0 0 0-2.27 2.26v.011zm-216.469 0a2.263 2.263 0 0 0 4.525.008v-.009a2.264 2.264 0 0 0-2.257-2.271 2.267 2.267 0 0 0-2.268 2.26v.011zm13.528 0a2.264 2.264 0 0 0 4.529.008v-.009a2.266 2.266 0 0 0-2.26-2.271 2.268 2.268 0 0 0-2.27 2.26v.011zm13.531 0a2.264 2.264 0 1 0 4.527.007v-.008a2.267 2.267 0 0 0-2.259-2.271 2.264 2.264 0 0 0-2.268 2.26v.011zm13.53 0a2.262 2.262 0 1 0 4.523.007v-.008a2.263 2.263 0 0 0-2.255-2.271 2.268 2.268 0 0 0-2.268 2.26v.011zm13.53 0a2.265 2.265 0 0 0 2.258 2.267 2.262 2.262 0 0 0 2.268-2.26v-.008a2.266 2.266 0 0 0-2.257-2.271 2.266 2.266 0 0 0-2.27 2.26v.011zm13.528 0a2.263 2.263 0 0 0 4.525.008v-.009a2.264 2.264 0 0 0-2.256-2.271 2.267 2.267 0 0 0-2.269 2.26v.011zm13.528 0a2.264 2.264 0 0 0 4.529.008v-.009a2.266 2.266 0 0 0-2.26-2.271 2.268 2.268 0 0 0-2.269 2.26v.011zm13.531 0a2.264 2.264 0 1 0 4.527.007v-.008a2.267 2.267 0 0 0-2.259-2.271 2.264 2.264 0 0 0-2.268 2.26v.011zm94.706-257.06a2.263 2.263 0 1 0 4.527.01v-.01a2.264 2.264 0 1 0-4.527-.01v.01zm-13.53 0a2.26 2.26 0 0 0 2.256 2.269 2.266 2.266 0 0 0 2.268-2.26v-.009a2.261 2.261 0 1 0-4.523-.01v.01zm-13.529 0a2.264 2.264 0 0 0 4.527.01v-.01a2.263 2.263 0 1 0-4.527-.011v.011zm-13.53 0a2.266 2.266 0 0 0 4.528.01v-.01a2.264 2.264 0 0 0-4.529-.01v.01zm-13.528 0a2.262 2.262 0 1 0 4.524.01v-.01a2.263 2.263 0 1 0-4.524-.01v.01zm-13.53 0a2.263 2.263 0 1 0 4.527.01v-.01a2.264 2.264 0 1 0-4.527-.01v.01zm-13.53 0a2.26 2.26 0 0 0 2.256 2.269 2.266 2.266 0 0 0 2.268-2.26v-.009a2.261 2.261 0 1 0-4.523-.01v.01zm-13.529 0a2.264 2.264 0 0 0 4.527.01v-.01a2.263 2.263 0 1 0-4.527-.011v.011zm-265.176 0a2.262 2.262 0 0 0 2.257 2.27 2.263 2.263 0 0 0 2.271-2.256v-.015a2.264 2.264 0 0 0-4.528-.015v.016zm13.53 0a2.263 2.263 0 0 0 2.256 2.27 2.268 2.268 0 0 0 2.272-2.256v-.015a2.264 2.264 0 0 0-4.527-.015c-.002.007-.002.01-.002.016zm13.53 0a2.253 2.253 0 0 0 2.252 2.27 2.262 2.262 0 0 0 2.27-2.256v-.015a2.262 2.262 0 0 0-2.252-2.272 2.263 2.263 0 0 0-2.27 2.257v.016zm13.526 0a2.263 2.263 0 0 0 2.257 2.27 2.263 2.263 0 0 0 2.272-2.256v-.015a2.264 2.264 0 0 0-4.529-.015v.016zm13.531 0a2.259 2.259 0 0 0 2.255 2.27 2.26 2.26 0 0 0 2.27-2.256v-.015a2.262 2.262 0 1 0-4.525-.015v.016zm13.53 0a2.263 2.263 0 0 0 2.257 2.27 2.263 2.263 0 0 0 2.271-2.256v-.015a2.264 2.264 0 0 0-4.528-.015v.016zm13.53 0a2.262 2.262 0 0 0 2.256 2.27 2.265 2.265 0 0 0 2.27-2.256v-.015a2.263 2.263 0 1 0-4.527-.015v.016zm13.53 0a2.253 2.253 0 0 0 2.25 2.27 2.263 2.263 0 0 0 2.272-2.256v-.015a2.262 2.262 0 0 0-4.521-.015v.016zm13.528 0a2.264 2.264 0 0 0 4.529.01v-.01a2.264 2.264 0 0 0-4.527-.015c-.002.006-.002.01-.002.015zm13.53 0a2.262 2.262 0 1 0 4.526.01v-.01a2.265 2.265 0 0 0-2.257-2.27 2.264 2.264 0 0 0-2.268 2.26l-.001.01zm-73.06 257.06a2.262 2.262 0 0 0 2.257 2.267 2.258 2.258 0 0 0 2.27-2.253v-.015a2.263 2.263 0 1 0-4.526-.015v.015zm13.53 0a2.262 2.262 0 0 0 2.257 2.267 2.257 2.257 0 0 0 2.27-2.253v-.015a2.263 2.263 0 1 0-4.527-.015v.015zm13.53 0a2.258 2.258 0 0 0 2.25 2.267 2.258 2.258 0 0 0 2.27-2.253v-.015a2.26 2.26 0 1 0-4.521-.015v.015zm13.529 0a2.264 2.264 0 0 0 2.257 2.267 2.26 2.26 0 0 0 2.272-2.253v-.015a2.264 2.264 0 0 0-4.53-.015v.015zm13.53 0a2.26 2.26 0 0 0 2.254 2.267 2.258 2.258 0 0 0 2.27-2.253v-.015a2.262 2.262 0 1 0-4.525-.015v.015zm13.529 0a2.265 2.265 0 0 0 4.529.008v-.009a2.267 2.267 0 0 0-2.26-2.271 2.268 2.268 0 0 0-2.27 2.26v.011zm13.53 0a2.266 2.266 0 0 0 2.258 2.267 2.266 2.266 0 0 0 2.27-2.26v-.008a2.267 2.267 0 0 0-2.259-2.271 2.267 2.267 0 0 0-2.27 2.26v.011zm13.529 0a2.262 2.262 0 1 0 4.52.007v-.008a2.264 2.264 0 0 0-2.252-2.271 2.266 2.266 0 0 0-2.268 2.26v.011zm94.705-257.06a2.262 2.262 0 1 0 4.525.01v-.01a2.263 2.263 0 1 0-4.525-.01v.01zm-13.529 0a2.263 2.263 0 1 0 4.527.01v-.01a2.264 2.264 0 1 0-4.527-.01v.01zm-13.53 0a2.26 2.26 0 0 0 2.256 2.269 2.266 2.266 0 0 0 2.268-2.26v-.009a2.261 2.261 0 1 0-4.523-.01v.01zm-13.529 0a2.264 2.264 0 0 0 4.527.01v-.01a2.263 2.263 0 1 0-4.527-.011v.011zm-13.531 0a2.266 2.266 0 0 0 4.529.01v-.01a2.264 2.264 0 0 0-4.53-.01v.01zm-13.528 0a2.262 2.262 0 1 0 4.525.01v-.01a2.263 2.263 0 1 0-4.525-.01v.01zm-13.529 0a2.263 2.263 0 1 0 4.527.01v-.01a2.264 2.264 0 1 0-4.527-.01v.01zm-13.53 0a2.26 2.26 0 0 0 2.254 2.269 2.264 2.264 0 0 0 2.268-2.26v-.009a2.262 2.262 0 0 0-2.253-2.27 2.264 2.264 0 0 0-2.268 2.26v.01zm256.794 0a2.532 2.532 0 0 0 2.537 2.53 2.53 2.53 0 0 0 0-5.06 2.537 2.537 0 0 0-2.537 2.53zm13.53 0a2.531 2.531 0 0 0 2.535 2.53 2.536 2.536 0 0 0 2.533-2.53 2.534 2.534 0 0 0-5.068 0zm-13.53 13.53a2.533 2.533 0 0 0 5.066 0 2.534 2.534 0 0 0-5.066 0zm13.53 0a2.533 2.533 0 0 0 5.068 0 2.531 2.531 0 0 0-2.533-2.53 2.531 2.531 0 0 0-2.535 2.53zm-13.53 13.53a2.532 2.532 0 0 0 2.537 2.529 2.53 2.53 0 0 0 0-5.06 2.536 2.536 0 0 0-2.537 2.53zm13.53 0a2.531 2.531 0 0 0 2.535 2.529 2.536 2.536 0 0 0 2.533-2.53 2.534 2.534 0 0 0-5.068 0zm-13.53 13.529a2.533 2.533 0 0 0 5.066 0 2.534 2.534 0 0 0-5.066 0zm13.53 0a2.533 2.533 0 0 0 5.068 0 2.531 2.531 0 0 0-2.533-2.53 2.531 2.531 0 0 0-2.535 2.53zm-13.53 13.53a2.532 2.532 0 0 0 2.537 2.528 2.529 2.529 0 1 0 0-5.058 2.534 2.534 0 0 0-2.537 2.53zm13.53 0a2.531 2.531 0 0 0 2.535 2.528 2.536 2.536 0 0 0 2.533-2.529 2.532 2.532 0 0 0-2.533-2.53 2.531 2.531 0 0 0-2.535 2.53zm-13.53 13.529a2.532 2.532 0 0 0 2.537 2.529 2.53 2.53 0 0 0 0-5.06 2.537 2.537 0 0 0-2.537 2.53zm13.53 0a2.531 2.531 0 0 0 2.535 2.529 2.536 2.536 0 0 0 2.533-2.53 2.534 2.534 0 0 0-5.068 0zm-13.53 13.529a2.533 2.533 0 0 0 5.066 0 2.534 2.534 0 0 0-5.066 0zm13.53 0a2.533 2.533 0 0 0 5.068 0 2.531 2.531 0 0 0-2.533-2.53 2.531 2.531 0 0 0-2.535 2.53zm-13.53 13.53a2.532 2.532 0 0 0 2.537 2.529 2.53 2.53 0 0 0 0-5.06 2.536 2.536 0 0 0-2.537 2.53zm13.53 0a2.531 2.531 0 0 0 2.535 2.529 2.536 2.536 0 0 0 2.533-2.53 2.534 2.534 0 0 0-5.068 0zm-13.53 13.529a2.533 2.533 0 0 0 5.066 0 2.534 2.534 0 0 0-5.066 0zm13.53 0a2.533 2.533 0 0 0 5.068 0 2.531 2.531 0 0 0-2.533-2.53 2.531 2.531 0 0 0-2.535 2.53zm-13.53 13.53a2.532 2.532 0 0 0 2.537 2.528 2.529 2.529 0 1 0 0-5.058 2.534 2.534 0 0 0-2.537 2.53zm13.53 0a2.531 2.531 0 0 0 2.535 2.528 2.536 2.536 0 0 0 2.533-2.529 2.532 2.532 0 0 0-2.533-2.529 2.531 2.531 0 0 0-2.535 2.53zm-13.53 13.529a2.535 2.535 0 0 0 2.537 2.533 2.529 2.529 0 0 0 2.53-2.533 2.53 2.53 0 0 0-2.53-2.53 2.537 2.537 0 0 0-2.537 2.53zm13.53 0a2.535 2.535 0 0 0 5.068 0 2.533 2.533 0 0 0-5.068 0zm-13.53 13.529a2.535 2.535 0 0 0 2.537 2.531 2.528 2.528 0 0 0 2.53-2.531 2.53 2.53 0 0 0-2.53-2.531 2.537 2.537 0 0 0-2.537 2.531zm13.53 0a2.534 2.534 0 0 0 5.068 0 2.534 2.534 0 0 0-5.068 0zm-13.53 13.53a2.532 2.532 0 0 0 2.537 2.529 2.525 2.525 0 0 0 2.53-2.53 2.531 2.531 0 0 0-2.53-2.533 2.537 2.537 0 0 0-2.537 2.533zm13.53 0a2.535 2.535 0 0 0 5.068 0 2.534 2.534 0 0 0-5.068 0zm-13.53 13.527a2.535 2.535 0 0 0 2.537 2.533 2.529 2.529 0 0 0 2.53-2.533 2.529 2.529 0 0 0-2.53-2.53 2.535 2.535 0 0 0-2.537 2.53zm13.53 0a2.535 2.535 0 0 0 5.068 0 2.534 2.534 0 1 0-5.068 0zm-13.53 13.531a2.534 2.534 0 0 0 5.066 0 2.536 2.536 0 0 0-2.529-2.538 2.542 2.542 0 0 0-2.537 2.538zm13.53 0a2.534 2.534 0 1 0 2.535-2.538 2.545 2.545 0 0 0-2.535 2.538zm-13.53 13.53a2.535 2.535 0 0 0 2.537 2.533 2.529 2.529 0 0 0 2.53-2.533 2.53 2.53 0 0 0-2.53-2.53 2.537 2.537 0 0 0-2.537 2.53zm13.53 0a2.535 2.535 0 0 0 5.068 0 2.533 2.533 0 0 0-5.068 0zm-13.53 13.53a2.535 2.535 0 0 0 2.537 2.53 2.528 2.528 0 0 0 2.53-2.53 2.53 2.53 0 0 0-2.53-2.532 2.537 2.537 0 0 0-2.537 2.531zm13.53 0a2.534 2.534 0 0 0 5.068 0 2.534 2.534 0 0 0-5.068 0zm-13.53 13.528a2.532 2.532 0 0 0 2.537 2.53 2.525 2.525 0 0 0 2.53-2.53 2.531 2.531 0 0 0-2.53-2.533 2.537 2.537 0 0 0-2.537 2.533zm13.53 0a2.535 2.535 0 0 0 5.068 0 2.534 2.534 0 0 0-5.068 0z" fill="#00979D" fill-rule="nonzero"/><path d="M501.417 255.556v2.705m0 0h13.529m0 0v-2.705M501.417 8.644V5.26m0 .001h13.529m0 0v3.383M150.85 56.673h167.256m4.834 16.912h140.52m-193.473 161h195.359l4.737 4.735h22.32m-305.117-4.735h63.812m215.988-5.307V73.585l6.086-6.088V26.339" stroke="#FFF" stroke-width="1.624" stroke-linecap="round"/><text transform="rotate(-90 183.624 -151.304)" font-size="7.047" font-family="Helvetica" fill="#FFF"><tspan x=".001" y="6">0</tspan></text><text transform="rotate(-90 176.86 -144.54)" font-size="7.047" font-family="Helvetica" fill="#FFF"><tspan x=".001" y="6.001">1</tspan></text><text transform="rotate(-90 170.095 -137.774)" font-size="7.047" font-family="Helvetica" fill="#FFF"><tspan x=".001" y="6.002">2</tspan></text><text transform="rotate(-90 163.33 -131.01)" font-size="7.047" font-family="Helvetica" fill="#FFF"><tspan x=".001" y="6">3</tspan></text><text transform="rotate(-90 156.565 -124.245)" font-size="7.047" font-family="Helvetica" fill="#FFF"><tspan x=".001" y="6.002">4</tspan></text><text transform="rotate(-90 149.8 -117.48)" font-size="7.047" font-family="Helvetica" fill="#FFF"><tspan x=".001" y="6">5</tspan></text><text transform="rotate(-90 143.036 -110.716)" font-size="7.047" font-family="Helvetica" fill="#FFF"><tspan x=".001" y="6.001">6</tspan></text><text transform="rotate(-90 136.271 -103.95)" font-size="7.047" font-family="Helvetica" fill="#FFF"><tspan x=".001" y="6.001">7</tspan></text><text transform="rotate(-90 126.124 -93.804)" font-size="7.047" font-family="Helvetica" fill="#FFF"><tspan x=".001" y="6.001">8</tspan></text><text transform="rotate(-90 119.36 -87.04)" font-size="7.047" font-family="Helvetica" fill="#FFF"><tspan x=".001" y="6.001">9</tspan></text><text transform="rotate(-90 115.977 -76.892)" font-size="7.047" font-family="Helvetica" fill="#FFF"><tspan x=".001" y="6">10</tspan></text><text transform="rotate(-90 109.212 -70.127)" font-size="7.047" font-family="Helvetica" fill="#FFF"><tspan x=".001" y="6">11</tspan></text><text transform="rotate(-90 102.448 -63.363)" font-size="7.047" font-family="Helvetica" fill="#FFF"><tspan x=".001" y="6">12</tspan></text><text transform="rotate(-90 95.683 -56.598)" font-size="7.047" font-family="Helvetica" fill="#FFF"><tspan x=".001" y="6.001">13</tspan></text><text transform="rotate(-90 265.402 -2.555)" font-size="7.047" font-family="Helvetica" fill="#FFF"><tspan x=".697" y="6.079">A0</tspan></text><text transform="rotate(-90 271.49 -8.644)" font-size="7.047" font-family="Helvetica" fill="#FFF"><tspan x=".697" y="6.08">A1</tspan></text><text transform="rotate(-90 278.931 -16.085)" font-size="7.047" font-family="Helvetica" fill="#FFF"><tspan x=".697" y="6.08">A2</tspan></text><text transform="rotate(-90 285.696 -22.85)" font-size="7.047" font-family="Helvetica" fill="#FFF"><tspan x=".697" y="6.078">A3</tspan></text><text transform="rotate(-90 292.46 -29.614)" font-size="7.047" font-family="Helvetica" fill="#FFF"><tspan x=".697" y="6.081">A4</tspan></text><text transform="rotate(-90 298.887 -36.04)" font-size="7.047" font-family="Helvetica" fill="#FFF"><tspan x=".697" y="6.08">A5</tspan></text><text transform="rotate(-90 305.652 -42.805)" font-size="7.047" font-family="Helvetica" fill="#FFF"><tspan x=".697" y="6.079">6</tspan></text><text transform="rotate(-90 312.755 -49.908)" font-size="7.047" font-family="Helvetica" fill="#FFF"><tspan x=".697" y="6.08">A7</tspan></text><text transform="rotate(-90 326.284 -63.438)" font-size="7.047" font-family="Helvetica" fill="#FFF"><tspan x=".697" y="6.08">A8</tspan></text><text transform="rotate(-90 333.049 -70.202)" font-size="7.047" font-family="Helvetica" fill="#FFF"><tspan x=".697" y="6.079">A9</tspan></text><text transform="rotate(-90 339.814 -76.967)" font-size="7.047" font-family="Helvetica" fill="#FFF"><tspan x=".697" y="6.081">A10</tspan></text><text transform="rotate(-90 346.578 -83.732)" font-size="7.047" font-family="Helvetica" fill="#FFF"><tspan x=".697" y="6.08">A11</tspan></text><text transform="rotate(-90 353.343 -90.497)" font-size="7.047" font-family="Helvetica" fill="#FFF"><tspan x=".697" y="6.078">A12</tspan></text><text transform="rotate(-90 360.108 -97.261)" font-size="7.047" font-family="Helvetica" fill="#FFF"><tspan x=".697" y="6.08">A13</tspan></text><text transform="rotate(-90 366.872 -104.026)" font-size="7.047" font-family="Helvetica" fill="#FFF"><tspan x=".697" y="6.079">A14</tspan></text><text transform="rotate(-90 373.299 -110.452)" font-size="7.047" font-family="Helvetica" fill="#FFF"><tspan x=".697" y="6.079">A15</tspan></text><text transform="translate(481.046 24.428)" font-size="7.047" font-family="Helvetica" fill="#FFF"><tspan x=".076" y="6.375">22</tspan></text><text transform="translate(481.046 37.582)" font-size="7.047" font-family="Helvetica" fill="#FFF"><tspan x=".076" y="6.751">24</tspan></text><text transform="translate(481.046 51.735)" font-size="7.047" font-family="Helvetica" fill="#FFF"><tspan x=".076" y="6.128">26</tspan></text><text transform="translate(481.046 64.889)" font-size="7.047" font-family="Helvetica" fill="#FFF"><tspan x=".076" y="6.504">28</tspan></text><text transform="translate(481.046 78.922)" font-size="7.047" font-family="Helvetica" fill="#FFF"><tspan x=".076" y="6.001">30</tspan></text><text transform="translate(524.265 78.922)" font-size="7.047" font-family="Helvetica" fill="#FFF"><tspan x=".828" y="6.001">31</tspan></text><text transform="translate(481.046 92.075)" font-size="7.047" font-family="Helvetica" fill="#FFF"><tspan x=".076" y="6.375">32</tspan></text><text transform="translate(524.265 92.075)" font-size="7.047" font-family="Helvetica" fill="#FFF"><tspan x=".828" y="6.375">33</tspan></text><text transform="translate(481.046 105.229)" font-size="7.047" font-family="Helvetica" fill="#FFF"><tspan x=".076" y="6.751">34</tspan></text><text transform="translate(524.265 105.229)" font-size="7.047" font-family="Helvetica" fill="#FFF"><tspan x=".828" y="6.751">35</tspan></text><text transform="translate(481.046 119.382)" font-size="7.047" font-family="Helvetica" fill="#FFF"><tspan x=".076" y="6.128">36</tspan></text><text transform="translate(524.265 119.382)" font-size="7.047" font-family="Helvetica" fill="#FFF"><tspan x=".828" y="6.128">37</tspan></text><text transform="translate(481.046 132.536)" font-size="7.047" font-family="Helvetica" fill="#FFF"><tspan x=".076" y="6.504">38</tspan></text><text transform="translate(524.265 132.536)" font-size="7.047" font-family="Helvetica" fill="#FFF"><tspan x=".828" y="6.504">39</tspan></text><text transform="translate(524.265 146.569)" font-size="7.047" font-family="Helvetica" fill="#FFF"><tspan x=".828" y="6.001">41</tspan></text><text transform="translate(481.046 146.569)" font-size="7.047" font-family="Helvetica" fill="#FFF"><tspan x=".076" y="6.001">40</tspan></text><text transform="translate(524.265 159.722)" font-size="7.047" font-family="Helvetica" fill="#FFF"><tspan x=".828" y="6.375">43</tspan></text><text transform="translate(481.046 159.722)" font-size="7.047" font-family="Helvetica" fill="#FFF"><tspan x=".076" y="6.375">42</tspan></text><text transform="translate(524.265 172.876)" font-size="7.047" font-family="Helvetica" fill="#FFF"><tspan x=".828" y="6.751">45</tspan></text><text transform="translate(524.265 187.03)" font-size="7.047" font-family="Helvetica" fill="#FFF"><tspan x=".828" y="6.128">47</tspan></text><text transform="translate(524.265 200.183)" font-size="7.047" font-family="Helvetica" fill="#FFF"><tspan x=".828" y="6.504">49</tspan></text><text transform="translate(524.265 214.216)" font-size="7.047" font-family="Helvetica" fill="#FFF"><tspan x=".828" y="6.001">51</tspan></text><text transform="translate(481.046 172.876)" font-size="7.047" font-family="Helvetica" fill="#FFF"><tspan x=".076" y="6.751">44</tspan></text><text transform="translate(481.046 187.03)" font-size="7.047" font-family="Helvetica" fill="#FFF"><tspan x=".076" y="6.128">46</tspan></text><text transform="translate(481.046 214.216)" font-size="7.047" font-family="Helvetica" fill="#FFF"><tspan x=".076" y="6.001">50</tspan></text><text transform="translate(481.046 200.183)" font-size="7.047" font-family="Helvetica" fill="#FFF"><tspan x=".076" y="6.504">48</tspan></text><text transform="translate(524.265 227.37)" font-size="7.047" font-family="Helvetica" fill="#FFF"><tspan x=".828" y="6.375">53</tspan></text><text transform="translate(481.046 227.37)" font-size="7.047" font-family="Helvetica" fill="#FFF"><tspan x=".076" y="6.375">52</tspan></text><text transform="translate(132.415 56.373)" font-size="8.789" font-family="Helvetica" fill="#FFF"><tspan x=".058" y="9.37">L</tspan></text><text transform="translate(125.899 96.833)" font-size="8.789" font-family="Helvetica" fill="#FFF"><tspan x=".752" y="9.504">RX</tspan></text><text transform="translate(125.899 84.559)" font-size="8.789" font-family="Helvetica" fill="#FFF"><tspan x=".752" y="9.601">TX</tspan></text><g font-family="Helvetica" fill="#FFF"><text transform="translate(268.71 237.765)" font-size="8.456"><tspan x=".068" y="9.128">ANALOG IN</tspan></text><text transform="translate(322.395 62)" font-size="8.456"><tspan x=".542" y="9.011">COMMUNICATION</tspan></text><text transform="translate(221.732 237.765)" font-size="8.456"><tspan x=".086" y="9.128">POWER</tspan></text><text transform="rotate(-90 87.859 -37.203)" font-size="7.047"><tspan x="0" y="6">AREF</tspan></text><text transform="rotate(-90 91.54 -47.785)" font-size="7.047"><tspan x="0" y="6">GND</tspan></text><text transform="rotate(-90 190.727 -130.671)" font-size="7.047"><tspan x=".001" y="6.001">TX0</tspan></text><text transform="rotate(-90 196.992 -136.936)" font-size="7.047"><tspan x=".001" y="6.999">RX0</tspan></text><text transform="rotate(-90 216.775 45.562)" font-size="6.107"><tspan x=".172" y="6.574">RESET</tspan></text><text transform="rotate(-90 223.54 38.797)" font-size="6.107"><tspan x=".172" y="6.574">3V3</tspan></text><text transform="rotate(-90 230.423 31.01)" font-size="6.107"><tspan x=".467" y="6.709">5V</tspan></text><text transform="rotate(-90 250.839 10.596)" font-size="6.107"><tspan x=".481" y="6.898">VIN</tspan></text><text transform="rotate(-90 244.013 17.61)" font-size="6.107"><tspan x=".672" y="6.776">GND</tspan></text><text transform="rotate(-90 237.06 24.187)" font-size="6.107"><tspan x=".295" y="6.776">GND</tspan></text><text transform="rotate(-90 250.23 -192.054)" font-size="7.047"><tspan x=".68" y="6.551">SDA 20</tspan></text><text transform="rotate(-90 256.995 -198.818)" font-size="7.047"><tspan x=".68" y="6.549">SCL 21</tspan></text><text transform="rotate(-90 223.171 -164.995)" font-size="7.047"><tspan x=".68" y="6.549">TX2 16</tspan></text><text transform="rotate(-90 229.936 -171.76)" font-size="7.047"><tspan x=".68" y="6.548">RX2 17</tspan></text><text transform="rotate(-90 216.407 -158.23)" font-size="7.047"><tspan x=".68" y="6.551">RX3 15</tspan></text><text transform="rotate(-90 209.642 -151.466)" font-size="7.047"><tspan x=".68" y="6.549">TX3 14</tspan></text><text transform="rotate(-90 243.466 -185.29)" font-size="7.047"><tspan x=".68" y="6.549">RX1 19</tspan></text><text transform="rotate(-90 236.7 -178.524)" font-size="7.047"><tspan x=".68" y="6.55">TX1 18</tspan></text><text transform="translate(149.395 46)" font-size="8.456"><tspan x=".357" y="9.527">PWM</tspan></text><text transform="translate(488.562)" font-size="6.107"><tspan x=".164" y="6.933">5V</tspan></text><text transform="translate(519.507 250.918)" font-size="7.047"><tspan x=".852" y="6.504">GND</tspan></text><text transform="rotate(-90 350.738 -118.483)" font-size="8.456"><tspan x=".376" y="9.999">DIGITAL</tspan></text><text transform="translate(386.092 181.392)" font-size="18.215"><tspan x=".51" y="18.364">MEGA</tspan></text><text transform="rotate(-90 210.611 51.726)" font-size="6.107"><tspan x=".172" y="6.079">IOREF</tspan></text><text transform="translate(398.366 93.954)" font-size="7.047"><tspan x=".578" y="6.188">ON</tspan></text></g><path d="M324.46 35.87c.007 0 .018-.002.026 0h3.655a.64.64 0 0 1 .558.334c.11.207.1.457-.036.652l-1.828 2.742c-.235.353-.823.353-1.058 0l-1.75-2.62a.665.665 0 0 1-.212-.475.65.65 0 0 1 .644-.633zm17.3 3.991c-.013 0-.02.002-.032 0h-3.645a.656.656 0 0 1-.568-.334.616.616 0 0 1 .04-.652l1.828-2.742c.235-.353.823-.353 1.058 0l1.748 2.62a.63.63 0 0 1 .212.475.642.642 0 0 1-.64.633z" fill="#FFF" fill-rule="nonzero"/><path fill-opacity=".15" fill="#FFF" fill-rule="nonzero" d="M67.838 37.099h5.325v9.833h-5.325z"/><path fill="#333" fill-rule="nonzero" d="M234.128 97.722h74.573v74.571h-74.573zM93.717 87.327h26.632v26.632H93.717z"/><path fill-opacity=".15" fill="#FFF" fill-rule="nonzero" d="M38.403 41.845H51.72v6.658H38.403z"/><circle stroke="#9A916C" stroke-width="1.525" cx="393.179" cy="272.467" r="3.025"/><path d="M390.154 265.505h6.053v13.92h-6.053v-13.92zm0 6.962a3.016 3.016 0 0 0 3.018 3.016 3.023 3.023 0 1 0-3.018-3.016z" fill="#9A916C" fill-rule="nonzero"/><circle stroke="#9A916C" stroke-width="1.525" cx="406.709" cy="272.467" r="3.025"/><path d="M403.682 265.505h6.058v13.92h-6.058v-13.92zm0 6.962c0 1.67 1.36 3.016 3.025 3.016a3.026 3.026 0 0 0 3.023-3.016 3.025 3.025 0 1 0-6.048 0z" fill="#9A916C" fill-rule="nonzero"/><circle stroke="#9A916C" stroke-width="1.525" cx="420.236" cy="272.467" r="3.025"/><path d="M417.211 265.505h6.058v13.92h-6.058v-13.92zm0 6.962a3.022 3.022 0 0 0 6.045 0 3.023 3.023 0 0 0-3.022-3.027 3.03 3.03 0 0 0-3.023 3.027z" fill="#9A916C" fill-rule="nonzero"/><circle stroke="#9A916C" stroke-width="1.525" cx="433.77" cy="272.467" r="3.025"/><path d="M430.739 265.505h6.054v13.92h-6.054v-13.92zm0 6.962a3.019 3.019 0 0 0 3.023 3.016 3.022 3.022 0 1 0-3.023-3.016z" fill="#9A916C" fill-rule="nonzero"/><circle stroke="#9A916C" stroke-width="1.525" cx="447.299" cy="272.467" r="3.025"/><path d="M444.268 265.505h6.054v13.92h-6.054v-13.92zm0 6.962a3.02 3.02 0 0 0 3.022 3.016 3.022 3.022 0 1 0-3.022-3.016z" fill="#9A916C" fill-rule="nonzero"/><circle stroke="#9A916C" stroke-width="1.525" cx="460.826" cy="272.467" r="3.025"/><path d="M457.801 265.505h6.053v13.92H457.8v-13.92zm0 6.962a3.016 3.016 0 0 0 3.018 3.016 3.023 3.023 0 1 0-3.018-3.016z" fill="#9A916C" fill-rule="nonzero"/><circle stroke="#9A916C" stroke-width="1.525" cx="474.356" cy="272.467" r="3.025"/><path d="M471.329 265.505h6.058v13.92h-6.058v-13.92zm0 6.962a3.02 3.02 0 0 0 3.023 3.016 3.023 3.023 0 0 0 3.025-3.016c0-1.68-1.36-3.027-3.025-3.027a3.03 3.03 0 0 0-3.023 3.027z" fill="#9A916C" fill-rule="nonzero"/><circle stroke="#9A916C" stroke-width="1.525" cx="487.883" cy="272.467" r="3.025"/><path d="M484.858 265.505h6.058v13.92h-6.058v-13.92zm0 6.962a3.022 3.022 0 0 0 6.045 0 3.023 3.023 0 0 0-3.021-3.027 3.03 3.03 0 0 0-3.024 3.027z" fill="#9A916C" fill-rule="nonzero"/><circle stroke="#9A916C" stroke-width="1.525" cx="271.415" cy="272.467" r="3.025"/><path d="M268.387 265.505h6.059v13.92h-6.059v-13.92zm0 6.962a3.026 3.026 0 0 0 6.049 0 3.025 3.025 0 1 0-6.048 0z" fill="#9A916C" fill-rule="nonzero"/><circle stroke="#9A916C" stroke-width="1.525" cx="284.942" cy="272.467" r="3.025"/><path d="M281.917 265.505h6.058v13.92h-6.058v-13.92zm0 6.962a3.022 3.022 0 0 0 6.045 0 3.023 3.023 0 0 0-3.022-3.027 3.03 3.03 0 0 0-3.023 3.027z" fill="#9A916C" fill-rule="nonzero"/><circle stroke="#9A916C" stroke-width="1.525" cx="298.475" cy="272.467" r="3.025"/><path d="M295.444 265.505h6.055v13.92h-6.055v-13.92zm0 6.962a3.019 3.019 0 0 0 3.024 3.016 3.022 3.022 0 1 0-3.023-3.016z" fill="#9A916C" fill-rule="nonzero"/><circle stroke="#9A916C" stroke-width="1.525" cx="312.005" cy="272.467" r="3.025"/><path d="M308.974 265.505h6.054v13.92h-6.054v-13.92zm0 6.962a3.02 3.02 0 0 0 3.021 3.016 3.022 3.022 0 1 0-3.022-3.016z" fill="#9A916C" fill-rule="nonzero"/><circle stroke="#9A916C" stroke-width="1.525" cx="325.532" cy="272.467" r="3.025"/><path d="M322.507 265.505h6.053v13.92h-6.053v-13.92zm0 6.962a3.016 3.016 0 0 0 3.018 3.016 3.023 3.023 0 1 0-3.018-3.016z" fill="#9A916C" fill-rule="nonzero"/><circle stroke="#9A916C" stroke-width="1.525" cx="339.062" cy="272.467" r="3.025"/><path d="M336.035 265.505h6.058v13.92h-6.058v-13.92zm0 6.962c0 1.67 1.36 3.016 3.025 3.016a3.026 3.026 0 0 0 3.023-3.016 3.025 3.025 0 1 0-6.048 0z" fill="#9A916C" fill-rule="nonzero"/><circle stroke="#9A916C" stroke-width="1.525" cx="352.589" cy="272.467" r="3.025"/><path d="M349.564 265.505h6.058v13.92h-6.058v-13.92zm0 6.962a3.022 3.022 0 0 0 6.045 0 3.023 3.023 0 0 0-3.022-3.027 3.03 3.03 0 0 0-3.023 3.027z" fill="#9A916C" fill-rule="nonzero"/><circle stroke="#9A916C" stroke-width="1.525" cx="366.122" cy="272.467" r="3.025"/><path d="M363.092 265.505h6.054v13.92h-6.054v-13.92zm0 6.962a3.019 3.019 0 0 0 3.023 3.016 3.022 3.022 0 1 0-3.023-3.016z" fill="#9A916C" fill-rule="nonzero"/><circle stroke="#9A916C" stroke-width="1.525" cx="460.826" cy="15.408" r="3.025"/><path d="M457.801 8.448h6.053v13.92H457.8V8.449zm0 6.96a3.021 3.021 0 1 0 6.043 0 3.026 3.026 0 0 0-3.025-3.025 3.023 3.023 0 0 0-3.018 3.025z" fill="#9A916C" fill-rule="nonzero"/><circle stroke="#9A916C" stroke-width="1.525" cx="447.299" cy="15.408" r="3.025"/><path d="M444.268 8.448h6.054v13.92h-6.054V8.449zm0 6.96a3.022 3.022 0 1 0 6.045 0 3.025 3.025 0 0 0-3.023-3.025 3.026 3.026 0 0 0-3.022 3.025z" fill="#9A916C" fill-rule="nonzero"/><circle stroke="#9A916C" stroke-width="1.525" cx="433.77" cy="15.408" r="3.025"/><path d="M430.739 8.448h6.054v13.92h-6.054V8.449zm0 6.96a3.027 3.027 0 0 0 3.023 3.026 3.02 3.02 0 0 0 3.022-3.026 3.025 3.025 0 0 0-3.022-3.025 3.027 3.027 0 0 0-3.023 3.025z" fill="#9A916C" fill-rule="nonzero"/><circle stroke="#9A916C" stroke-width="1.525" cx="420.236" cy="15.408" r="3.025"/><path d="M417.211 8.448h6.058v13.92h-6.058V8.449zm0 6.96a3.03 3.03 0 0 0 3.023 3.026 3.026 3.026 0 0 0 0-6.05 3.029 3.029 0 0 0-3.023 3.024z" fill="#9A916C" fill-rule="nonzero"/><circle stroke="#9A916C" stroke-width="1.525" cx="406.709" cy="15.408" r="3.025"/><path d="M403.682 8.448h6.058v13.92h-6.058V8.449zm0 6.96a3.03 3.03 0 0 0 3.025 3.026 3.028 3.028 0 0 0 3.023-3.026 3.028 3.028 0 0 0-3.023-3.025 3.026 3.026 0 0 0-3.025 3.025z" fill="#9A916C" fill-rule="nonzero"/><circle stroke="#9A916C" stroke-width="1.525" cx="393.179" cy="15.408" r="3.025"/><path d="M390.154 8.448h6.053v13.92h-6.053V8.449zm0 6.96a3.021 3.021 0 1 0 6.043 0 3.026 3.026 0 0 0-3.025-3.025 3.023 3.023 0 0 0-3.018 3.025z" fill="#9A916C" fill-rule="nonzero"/><circle stroke="#9A916C" stroke-width="1.525" cx="379.652" cy="15.408" r="3.025"/><path d="M376.62 8.448h6.055v13.92h-6.054V8.449zm0 6.96a3.022 3.022 0 1 0 6.045 0 3.025 3.025 0 0 0-3.023-3.025 3.026 3.026 0 0 0-3.021 3.025z" fill="#9A916C" fill-rule="nonzero"/><circle stroke="#9A916C" stroke-width="1.525" cx="366.122" cy="15.408" r="3.025"/><path d="M363.092 8.448h6.054v13.92h-6.054V8.449zm0 6.96a3.027 3.027 0 0 0 3.023 3.026 3.02 3.02 0 0 0 3.022-3.026 3.025 3.025 0 0 0-3.022-3.025 3.027 3.027 0 0 0-3.023 3.025z" fill="#9A916C" fill-rule="nonzero"/><circle stroke="#9A916C" stroke-width="1.525" cx="100.942" cy="15.408" r="3.025"/><path d="M97.917 8.448h6.052v13.92h-6.052V8.449zm0 6.96a3.025 3.025 0 0 0 3.023 3.026 3.02 3.02 0 0 0 3.022-3.026 3.024 3.024 0 1 0-6.045 0z" fill="#9A916C" fill-rule="nonzero"/><circle stroke="#9A916C" stroke-width="1.525" cx="114.474" cy="15.408" r="3.025"/><path d="M111.446 8.448h6.055v13.92h-6.055V8.449zm0 6.96a3.022 3.022 0 1 0 6.045 0 3.025 3.025 0 0 0-3.02-3.025 3.027 3.027 0 0 0-3.025 3.025z" fill="#9A916C" fill-rule="nonzero"/><circle stroke="#9A916C" stroke-width="1.525" cx="128.003" cy="15.408" r="3.025"/><path d="M124.978 8.448h6.054v13.92h-6.054V8.449zm0 6.96a3.023 3.023 0 0 0 6.045 0 3.023 3.023 0 0 0-6.045 0z" fill="#9A916C" fill-rule="nonzero"/><circle stroke="#9A916C" stroke-width="1.525" cx="141.532" cy="15.408" r="3.025"/><path d="M138.505 8.448h6.053v13.92h-6.053V8.449zm0 6.96a3.02 3.02 0 1 0 6.043 0 3.027 3.027 0 0 0-3.023-3.025 3.025 3.025 0 0 0-3.02 3.025z" fill="#9A916C" fill-rule="nonzero"/><circle stroke="#9A916C" stroke-width="1.525" cx="155.062" cy="15.408" r="3.025"/><path d="M152.035 8.448h6.058v13.92h-6.058V8.449zm0 6.96a3.025 3.025 0 1 0 6.048.002 3.025 3.025 0 0 0-6.048-.002z" fill="#9A916C" fill-rule="nonzero"/><circle stroke="#9A916C" stroke-width="1.525" cx="168.591" cy="15.408" r="3.025"/><path d="M165.564 8.448h6.053v13.92h-6.053V8.449zm0 6.96a3.025 3.025 0 0 0 3.023 3.026 3.02 3.02 0 0 0 3.02-3.026 3.023 3.023 0 0 0-3.02-3.025 3.024 3.024 0 0 0-3.023 3.025z" fill="#9A916C" fill-rule="nonzero"/><circle stroke="#9A916C" stroke-width="1.525" cx="182.121" cy="15.408" r="3.025"/><path d="M179.093 8.448h6.055v13.92h-6.055V8.449zm0 6.96a3.027 3.027 0 0 0 3.026 3.026 3.02 3.02 0 0 0 3.02-3.026 3.025 3.025 0 0 0-3.02-3.025 3.027 3.027 0 0 0-3.026 3.025z" fill="#9A916C" fill-rule="nonzero"/><circle stroke="#9A916C" stroke-width="1.525" cx="195.65" cy="15.408" r="3.025"/><path d="M192.623 8.448h6.054v13.92h-6.054V8.449zm0 6.96a3.022 3.022 0 0 0 6.043 0 3.024 3.024 0 0 0-3.024-3.025 3.026 3.026 0 0 0-3.02 3.025z" fill="#9A916C" fill-rule="nonzero"/><circle stroke="#9A916C" stroke-width="1.525" cx="209.179" cy="15.408" r="3.025"/><path d="M206.152 8.448h6.053v13.92h-6.053V8.449zm0 6.96a3.02 3.02 0 1 0 6.043 0 3.027 3.027 0 0 0-3.023-3.025 3.025 3.025 0 0 0-3.02 3.025z" fill="#9A916C" fill-rule="nonzero"/><circle stroke="#9A916C" stroke-width="1.525" cx="222.709" cy="15.408" r="3.025"/><path d="M219.682 8.448h6.058v13.92h-6.058V8.449zm0 6.96a3.023 3.023 0 1 0 6.049 0 3.028 3.028 0 0 0-3.026-3.025 3.028 3.028 0 0 0-3.023 3.025z" fill="#9A916C" fill-rule="nonzero"/><circle stroke="#9A916C" stroke-width="1.525" cx="149.65" cy="272.467" r="3.025"/><path d="M146.625 265.505h6.058v13.92h-6.058v-13.92zm0 6.962a3.02 3.02 0 0 0 3.023 3.016 3.023 3.023 0 0 0 3.025-3.016c0-1.68-1.36-3.027-3.025-3.027a3.03 3.03 0 0 0-3.023 3.027z" fill="#9A916C" fill-rule="nonzero"/><circle stroke="#9A916C" stroke-width="1.525" cx="163.179" cy="272.467" r="3.025"/><path d="M160.15 265.505h6.055v13.92h-6.055v-13.92zm0 6.962a3.019 3.019 0 0 0 3.026 3.016 3.022 3.022 0 0 0 0-6.043 3.029 3.029 0 0 0-3.026 3.027z" fill="#9A916C" fill-rule="nonzero"/><circle stroke="#9A916C" stroke-width="1.525" cx="176.711" cy="272.467" r="3.025"/><path d="M173.682 265.505h6.054v13.92h-6.054v-13.92zm0 6.962a3.018 3.018 0 0 0 3.02 3.016 3.023 3.023 0 1 0-3.02-3.016z" fill="#9A916C" fill-rule="nonzero"/><circle stroke="#9A916C" stroke-width="1.525" cx="190.238" cy="272.467" r="3.025"/><path d="M187.211 265.505h6.053v13.92h-6.053v-13.92zm0 6.962a3.017 3.017 0 0 0 3.02 3.016 3.021 3.021 0 1 0-3.02-3.016z" fill="#9A916C" fill-rule="nonzero"/><circle stroke="#9A916C" stroke-width="1.525" cx="203.768" cy="272.467" r="3.025"/><path d="M200.74 265.505h6.059v13.92h-6.059v-13.92zm0 6.962a3.026 3.026 0 0 0 6.049 0 3.025 3.025 0 1 0-6.049 0z" fill="#9A916C" fill-rule="nonzero"/><circle stroke="#9A916C" stroke-width="1.525" cx="217.297" cy="272.467" r="3.025"/><path d="M214.27 265.505h6.058v13.92h-6.058v-13.92zm0 6.962a3.02 3.02 0 0 0 3.023 3.016 3.022 3.022 0 1 0-3.023-3.016z" fill="#9A916C" fill-rule="nonzero"/><circle stroke="#9A916C" stroke-width="1.525" cx="230.826" cy="272.467" r="3.025"/><path d="M227.797 265.505h6.055v13.92h-6.055v-13.92zm0 6.962a3.019 3.019 0 0 0 3.026 3.016 3.022 3.022 0 0 0 0-6.043 3.029 3.029 0 0 0-3.026 3.027z" fill="#9A916C" fill-rule="nonzero"/><circle stroke="#9A916C" stroke-width="1.525" cx="244.358" cy="272.467" r="3.025"/><path d="M241.329 265.505h6.054v13.92h-6.054v-13.92zm0 6.962a3.018 3.018 0 0 0 3.02 3.016 3.023 3.023 0 1 0-3.02-3.016z" fill="#9A916C" fill-rule="nonzero"/><circle stroke="#9A916C" stroke-width="1.525" cx="339.062" cy="15.408" r="3.025"/><path d="M336.035 8.448h6.058v13.92h-6.058V8.449zm0 6.96a3.03 3.03 0 0 0 3.025 3.026 3.028 3.028 0 0 0 3.023-3.026 3.028 3.028 0 0 0-3.023-3.025 3.026 3.026 0 0 0-3.025 3.025z" fill="#9A916C" fill-rule="nonzero"/><circle stroke="#9A916C" stroke-width="1.525" cx="325.532" cy="15.408" r="3.025"/><path d="M322.507 8.448h6.053v13.92h-6.053V8.449zm0 6.96a3.021 3.021 0 1 0 6.043 0 3.026 3.026 0 0 0-3.025-3.025 3.023 3.023 0 0 0-3.018 3.025z" fill="#9A916C" fill-rule="nonzero"/><circle stroke="#9A916C" stroke-width="1.525" cx="312.005" cy="15.408" r="3.025"/><path d="M308.974 8.448h6.054v13.92h-6.054V8.449zm0 6.96a3.022 3.022 0 1 0 6.045 0 3.025 3.025 0 0 0-3.024-3.025 3.026 3.026 0 0 0-3.021 3.025z" fill="#9A916C" fill-rule="nonzero"/><circle stroke="#9A916C" stroke-width="1.525" cx="298.475" cy="15.408" r="3.025"/><path d="M295.444 8.448h6.055v13.92h-6.055V8.449zm0 6.96a3.027 3.027 0 0 0 3.024 3.026 3.02 3.02 0 0 0 3.021-3.026 3.025 3.025 0 0 0-3.021-3.025 3.027 3.027 0 0 0-3.024 3.025z" fill="#9A916C" fill-rule="nonzero"/><circle stroke="#9A916C" stroke-width="1.525" cx="284.942" cy="15.408" r="3.025"/><path d="M281.917 8.448h6.058v13.92h-6.058V8.449zm0 6.96a3.03 3.03 0 0 0 3.023 3.026 3.026 3.026 0 0 0 0-6.05 3.029 3.029 0 0 0-3.023 3.024z" fill="#9A916C" fill-rule="nonzero"/><circle stroke="#9A916C" stroke-width="1.525" cx="271.415" cy="15.408" r="3.025"/><path d="M268.387 8.448h6.059v13.92h-6.059V8.449zm0 6.96a3.03 3.03 0 0 0 3.026 3.026 3.028 3.028 0 0 0 3.023-3.026 3.028 3.028 0 0 0-3.023-3.025 3.026 3.026 0 0 0-3.026 3.025z" fill="#9A916C" fill-rule="nonzero"/><circle stroke="#9A916C" stroke-width="1.525" cx="257.885" cy="15.408" r="3.025"/><path d="M254.858 8.448h6.053v13.92h-6.053V8.449zm0 6.96a3.022 3.022 0 1 0 6.045 0 3.026 3.026 0 0 0-3.025-3.025 3.025 3.025 0 0 0-3.02 3.025z" fill="#9A916C" fill-rule="nonzero"/><circle stroke="#9A916C" stroke-width="1.525" cx="244.358" cy="15.408" r="3.025"/><path d="M241.329 8.448h6.054v13.92h-6.054V8.449zm0 6.96a3.026 3.026 0 0 0 3.02 3.026 3.026 3.026 0 0 0 0-6.05 3.026 3.026 0 0 0-3.02 3.024z" fill="#9A916C" fill-rule="nonzero"/><circle stroke="#9A916C" stroke-width="1.935" cx="501.417" cy="15.408" r="3.497"/><circle stroke="#9A916C" stroke-width="1.935" cx="514.946" cy="15.408" r="3.497"/><circle stroke="#9A916C" stroke-width="1.935" cx="501.417" cy="28.938" r="3.497"/><circle stroke="#9A916C" stroke-width="1.935" cx="514.946" cy="28.938" r="3.497"/><circle stroke="#9A916C" stroke-width="1.935" cx="501.417" cy="42.467" r="3.497"/><circle stroke="#9A916C" stroke-width="1.935" cx="514.946" cy="42.467" r="3.497"/><circle stroke="#9A916C" stroke-width="1.935" cx="501.417" cy="55.997" r="3.497"/><circle stroke="#9A916C" stroke-width="1.935" cx="514.946" cy="55.997" r="3.497"/><circle stroke="#9A916C" stroke-width="1.935" cx="501.417" cy="69.526" r="3.497"/><circle stroke="#9A916C" stroke-width="1.935" cx="514.946" cy="69.526" r="3.497"/><circle stroke="#9A916C" stroke-width="1.935" cx="501.417" cy="83.056" r="3.497"/><circle stroke="#9A916C" stroke-width="1.935" cx="514.946" cy="83.056" r="3.497"/><circle stroke="#9A916C" stroke-width="1.935" cx="501.417" cy="96.585" r="3.497"/><circle stroke="#9A916C" stroke-width="1.935" cx="514.946" cy="96.585" r="3.497"/><circle stroke="#9A916C" stroke-width="1.935" cx="501.417" cy="110.114" r="3.497"/><circle stroke="#9A916C" stroke-width="1.935" cx="514.946" cy="110.114" r="3.497"/><circle stroke="#9A916C" stroke-width="1.935" cx="501.417" cy="123.644" r="3.497"/><circle stroke="#9A916C" stroke-width="1.935" cx="514.946" cy="123.644" r="3.497"/><circle stroke="#9A916C" stroke-width="1.935" cx="501.417" cy="137.173" r="3.497"/><circle stroke="#9A916C" stroke-width="1.935" cx="514.946" cy="137.173" r="3.497"/><circle stroke="#9A916C" stroke-width="1.935" cx="501.417" cy="150.703" r="3.497"/><circle stroke="#9A916C" stroke-width="1.935" cx="514.946" cy="150.703" r="3.497"/><circle stroke="#9A916C" stroke-width="1.935" cx="501.417" cy="164.232" r="3.497"/><circle stroke="#9A916C" stroke-width="1.935" cx="514.946" cy="164.232" r="3.497"/><circle stroke="#9A916C" stroke-width="1.935" cx="501.417" cy="177.761" r="3.497"/><circle stroke="#9A916C" stroke-width="1.935" cx="514.946" cy="177.761" r="3.497"/><circle stroke="#9A916C" stroke-width="1.935" cx="501.417" cy="191.291" r="3.497"/><circle stroke="#9A916C" stroke-width="1.935" cx="514.946" cy="191.291" r="3.497"/><circle stroke="#9A916C" stroke-width="1.935" cx="501.417" cy="204.82" r="3.497"/><circle stroke="#9A916C" stroke-width="1.935" cx="514.946" cy="204.82" r="3.497"/><circle stroke="#9A916C" stroke-width="1.935" cx="501.417" cy="218.35" r="3.497"/><circle stroke="#9A916C" stroke-width="1.935" cx="514.946" cy="218.35" r="3.497"/><circle stroke="#9A916C" stroke-width="1.935" cx="501.417" cy="231.879" r="3.497"/><circle stroke="#9A916C" stroke-width="1.935" cx="514.946" cy="231.879" r="3.497"/><circle stroke="#9A916C" stroke-width="1.935" cx="501.417" cy="245.408" r="3.497"/><circle stroke="#9A916C" stroke-width="1.935" cx="514.946" cy="245.408" r="3.497"/></g><g fill-rule="nonzero"><path fill="#404040" d="M419.337 264.7h108.235v13.529H419.337z"/><path fill="#000" d="M423.492 268.852h5.218v5.228h-5.218z"/><path fill="#2A2A29" d="M421.563 266.924l1.924 1.927h5.228l1.928-1.927z"/><path fill="#474747" d="M430.643 266.924l-1.928 1.933v5.226l1.928 1.922z"/><path fill="#595959" d="M430.64 276.005l-1.927-1.922h-5.226l-1.924 1.922z"/><path fill="#373737" d="M421.558 276.005l1.93-1.926v-5.228l-1.93-1.927z"/><path fill="#000" d="M437.017 268.852h5.226v5.228h-5.226z"/><path fill="#2A2A29" d="M435.09 266.924l1.925 1.927h5.231l1.925-1.927z"/><path fill="#474747" d="M444.17 266.924l-1.924 1.933v5.226l1.925 1.922z"/><path fill="#595959" d="M444.167 276.005l-1.922-1.922h-5.23l-1.924 1.922z"/><path fill="#373737" d="M435.087 276.005l1.928-1.926v-5.228l-1.928-1.927z"/><path fill="#000" d="M450.55 268.852h5.226v5.228h-5.226z"/><path fill="#2A2A29" d="M448.62 266.924l1.926 1.927h5.23l1.924-1.927z"/><path fill="#474747" d="M457.7 266.924l-1.924 1.933v5.226l1.924 1.922z"/><path fill="#595959" d="M457.7 276.005l-1.928-1.922h-5.226l-1.926 1.922z"/><path fill="#373737" d="M448.617 276.005l1.93-1.926v-5.228l-1.93-1.927z"/><path fill="#000" d="M464.08 268.852h5.222v5.228h-5.222z"/><path fill="#2A2A29" d="M462.15 266.924l1.926 1.927h5.227l1.926-1.927z"/><path fill="#474747" d="M471.23 266.924l-1.927 1.933v5.226l1.926 1.922z"/><path fill="#595959" d="M471.228 276.005l-1.928-1.922h-5.224l-1.926 1.922z"/><path fill="#373737" d="M462.146 276.005l1.93-1.926v-5.228l-1.93-1.927z"/><path fill="#000" d="M477.606 268.852h5.226v5.228h-5.226z"/><path fill="#2A2A29" d="M475.681 266.924l1.92 1.927h5.232l1.928-1.927z"/><path fill="#474747" d="M484.76 266.924l-1.927 1.933v5.226l1.928 1.922z"/><path fill="#595959" d="M484.759 276.005l-1.926-1.922H477.6l-1.92 1.922z"/><path fill="#373737" d="M475.677 276.005l1.924-1.926v-5.228l-1.924-1.927z"/><path fill="#000" d="M491.139 268.852h5.218v5.228h-5.218z"/><path fill="#2A2A29" d="M489.21 266.924l1.925 1.927h5.227l1.926-1.927z"/><path fill="#474747" d="M498.288 266.924l-1.926 1.933v5.226l1.926 1.922z"/><path fill="#595959" d="M498.286 276.005l-1.926-1.922h-5.225l-1.925 1.922z"/><path fill="#373737" d="M489.205 276.005l1.93-1.926v-5.228l-1.93-1.927z"/><path fill="#000" d="M504.664 268.852h5.226v5.228h-5.226z"/><path fill="#2A2A29" d="M502.738 266.924l1.924 1.927h5.231l1.925-1.927z"/><path fill="#474747" d="M511.818 266.924l-1.925 1.933v5.226l1.925 1.922z"/><path fill="#595959" d="M511.814 276.005l-1.922-1.922h-5.23l-1.924 1.922z"/><path fill="#373737" d="M502.734 276.005l1.928-1.926v-5.228l-1.928-1.927z"/><path fill="#000" d="M518.198 268.852h5.224v5.228h-5.224z"/><path fill="#2A2A29" d="M516.267 266.924l1.926 1.927h5.228l1.926-1.927z"/><path fill="#474747" d="M525.347 266.924l-1.926 1.933v5.226l1.926 1.922z"/><path fill="#595959" d="M525.347 276.005l-1.928-1.922h-5.226l-1.926 1.922z"/><path fill="#373737" d="M516.264 276.005l1.93-1.926v-5.228l-1.93-1.927z"/></g><g fill-rule="nonzero"><path fill="#404040" d="M297.572 264.7h108.243v13.529H297.572z"/><path fill="#000" d="M301.72 268.852h5.227v5.228h-5.226z"/><path fill="#2A2A29" d="M299.797 266.924l1.924 1.927h5.23l1.925-1.927z"/><path fill="#474747" d="M308.876 266.924l-1.926 1.933v5.226l1.926 1.922z"/><path fill="#595959" d="M308.876 276.005l-1.927-1.922h-5.228l-1.924 1.922z"/><path fill="#373737" d="M299.793 276.005l1.928-1.926v-5.228l-1.928-1.927z"/><path fill="#000" d="M315.254 268.852h5.222v5.228h-5.222z"/><path fill="#2A2A29" d="M313.326 266.924l1.924 1.927h5.232l1.928-1.927z"/><path fill="#474747" d="M322.41 266.924l-1.928 1.933v5.226l1.928 1.922z"/><path fill="#595959" d="M322.406 276.005l-1.928-1.922h-5.228l-1.924 1.922z"/><path fill="#373737" d="M313.322 276.005l1.928-1.926v-5.228l-1.928-1.927z"/><path fill="#000" d="M328.785 268.852h5.222v5.228h-5.222z"/><path fill="#2A2A29" d="M326.854 266.924l1.926 1.927h5.23l1.925-1.927z"/><path fill="#474747" d="M335.935 266.924l-1.926 1.933v5.226l1.926 1.922z"/><path fill="#595959" d="M335.933 276.005l-1.924-1.922h-5.23l-1.925 1.922z"/><path fill="#373737" d="M326.852 276.005l1.928-1.926v-5.228l-1.928-1.927z"/><path fill="#000" d="M342.315 268.852h5.226v5.228h-5.226z"/><path fill="#2A2A29" d="M340.385 266.924l1.926 1.927h5.231l1.923-1.927z"/><path fill="#474747" d="M349.465 266.924l-1.923 1.933v5.226l1.923 1.922z"/><path fill="#595959" d="M349.463 276.005l-1.924-1.922h-5.228l-1.926 1.922z"/><path fill="#373737" d="M340.381 276.005l1.93-1.926v-5.228l-1.93-1.927z"/><path fill="#000" d="M355.844 268.852h5.218v5.228h-5.218z"/><path fill="#2A2A29" d="M353.914 266.924l1.926 1.927h5.228l1.928-1.927z"/><path fill="#474747" d="M362.996 266.924l-1.928 1.933v5.226l1.928 1.922z"/><path fill="#595959" d="M362.992 276.005l-1.926-1.922h-5.226l-1.926 1.922z"/><path fill="#373737" d="M353.912 276.005l1.928-1.926v-5.228l-1.928-1.927z"/><path fill="#000" d="M369.368 268.852h5.226v5.228h-5.226z"/><path fill="#2A2A29" d="M367.444 266.924l1.924 1.927h5.23l1.926-1.927z"/><path fill="#474747" d="M376.524 266.924l-1.927 1.933v5.226l1.927 1.922z"/><path fill="#595959" d="M376.524 276.005l-1.928-1.922h-5.228l-1.924 1.922z"/><path fill="#373737" d="M367.44 276.005l1.928-1.926v-5.228l-1.928-1.927z"/><path fill="#000" d="M382.9 268.852h5.223v5.228H382.9z"/><path fill="#2A2A29" d="M380.973 266.924l1.924 1.927h5.232l1.928-1.927z"/><path fill="#474747" d="M390.057 266.924l-1.928 1.933v5.226l1.928 1.922z"/><path fill="#595959" d="M390.053 276.005l-1.928-1.922h-5.228l-1.924 1.922z"/><path fill="#373737" d="M380.97 276.005l1.927-1.926v-5.228l-1.928-1.927z"/><path fill="#000" d="M396.433 268.852h5.222v5.228h-5.222z"/><path fill="#2A2A29" d="M394.5 266.924l1.927 1.927h5.23l1.925-1.927z"/><path fill="#474747" d="M403.582 266.924l-1.926 1.933v5.226l1.926 1.922z"/><path fill="#595959" d="M403.58 276.005l-1.924-1.922h-5.23l-1.925 1.922z"/><path fill="#373737" d="M394.499 276.005l1.928-1.926v-5.228l-1.928-1.927z"/></g><g fill-rule="nonzero"><path fill="#404040" d="M500.554 21.167H392.32V7.639h108.235z"/><path fill="#000" d="M496.403 17.016h-5.224v-5.228h5.224z"/><path fill="#2A2A29" d="M498.331 18.942l-1.924-1.926h-5.23l-1.925 1.926z"/><path fill="#474747" d="M489.252 18.942l1.926-1.932v-5.225l-1.926-1.923z"/><path fill="#595959" d="M489.252 9.862l1.928 1.923h5.227l1.924-1.923z"/><path fill="#373737" d="M498.335 9.862l-1.928 1.926v5.228l1.928 1.926z"/><path fill="#000" d="M482.874 17.016h-5.226v-5.228h5.226z"/><path fill="#2A2A29" d="M484.802 18.942l-1.924-1.926h-5.232l-1.927 1.926z"/><path fill="#474747" d="M475.719 18.942l1.927-1.932v-5.225l-1.927-1.923z"/><path fill="#595959" d="M475.722 9.862l1.926 1.923h5.23l1.924-1.923z"/><path fill="#373737" d="M484.806 9.862l-1.928 1.926v5.228l1.928 1.926z"/><path fill="#000" d="M469.343 17.016h-5.218v-5.228h5.218z"/><path fill="#2A2A29" d="M471.27 18.942l-1.923-1.926h-5.228l-1.928 1.926z"/><path fill="#474747" d="M462.191 18.942l1.928-1.932v-5.225l-1.928-1.923z"/><path fill="#595959" d="M462.193 9.862l1.926 1.923h5.228l1.924-1.923z"/><path fill="#373737" d="M471.275 9.862l-1.928 1.926v5.228l1.928 1.926z"/><path fill="#000" d="M455.813 17.016h-5.226v-5.228h5.226z"/><path fill="#2A2A29" d="M457.743 18.942l-1.926-1.926h-5.231l-1.923 1.926z"/><path fill="#474747" d="M448.663 18.942l1.923-1.932v-5.225l-1.923-1.923z"/><path fill="#595959" d="M448.665 9.862l1.925 1.923h5.227l1.926-1.923z"/><path fill="#373737" d="M457.747 9.862l-1.93 1.926v5.228l1.93 1.926z"/><path fill="#000" d="M442.286 17.016h-5.226v-5.228h5.226z"/><path fill="#2A2A29" d="M444.212 18.942l-1.924-1.926h-5.23l-1.926 1.926z"/><path fill="#474747" d="M435.132 18.942l1.926-1.932v-5.225l-1.926-1.923z"/><path fill="#595959" d="M435.134 9.862l1.926 1.923h5.228l1.924-1.923z"/><path fill="#373737" d="M444.216 9.862l-1.928 1.926v5.228l1.928 1.926z"/><path fill="#000" d="M428.756 17.016h-5.224v-5.228h5.224z"/><path fill="#2A2A29" d="M430.684 18.942l-1.924-1.926h-5.23l-1.925 1.926z"/><path fill="#474747" d="M421.605 18.942l1.926-1.932v-5.225l-1.926-1.923z"/><path fill="#595959" d="M421.605 9.862l1.928 1.923h5.227l1.924-1.923z"/><path fill="#373737" d="M430.688 9.862l-1.928 1.926v5.228l1.928 1.926z"/><path fill="#000" d="M415.227 17.016h-5.226v-5.228h5.226z"/><path fill="#2A2A29" d="M417.155 18.942l-1.924-1.926h-5.232l-1.928 1.926z"/><path fill="#474747" d="M408.071 18.942L410 17.01v-5.225l-1.928-1.923z"/><path fill="#595959" d="M408.075 9.862l1.926 1.923h5.23l1.924-1.923z"/><path fill="#373737" d="M417.159 9.862l-1.928 1.926v5.228l1.928 1.926z"/><path fill="#000" d="M401.695 17.016h-5.218v-5.228h5.218z"/><path fill="#2A2A29" d="M403.624 18.942l-1.924-1.926h-5.228l-1.928 1.926z"/><path fill="#474747" d="M394.544 18.942l1.928-1.932v-5.225l-1.928-1.923z"/><path fill="#595959" d="M394.546 9.862l1.926 1.923h5.228l1.924-1.923z"/><path fill="#373737" d="M403.627 9.862l-1.927 1.926v5.228l1.927 1.926z"/></g><g transform="rotate(90 -36.307 135)" fill-rule="nonzero"><path fill="#999" d="M34.565 0v9.2H28.07V0zM22.249 0v9.2h-6.5V0zM9.927.003v9.2H3.435v-9.2z"/><path fill="#FFF" opacity=".2" d="M34.565 0v1H28.07V0zM22.249 0v1h-6.5V0zM9.927.003v1H3.435v-1z"/><path fill="#999" d="M28.587 27.885v9.927H9.407v-9.927z"/><path fill="#FFF" opacity=".2" d="M28.588 37.514v1H9.408v-1z"/><path fill="#303030" d="M37.006 9.2v18.682H1V9.2z"/><path fill="#1F1F1F" d="M37.005 27.884H1l1.351-1.355h33.294zm0-18.684H1l1.351 1.359h33.294z"/><path fill="#000" d="M37.005 27.884V9.2l-1.36 1.359v15.97z"/><path fill="#3D3D3D" d="M1 27.884V9.2l1.351 1.359v15.97z"/><circle fill="#1F1F1F" cx="32.944" cy="13.264" r="1.353"/></g><g fill-rule="nonzero"><path fill="#404040" d="M388.62 115.261h-21.057l-2.84 2.84v7.386l2.84 2.838h21.056l2.843-2.838v-7.386zm0 13.496h-21.057l-2.84 2.835v7.389l2.84 2.843h21.056l2.843-2.843v-7.389zm0 13.486h-21.057l-2.84 2.841v7.39l2.84 2.836h21.056l2.843-2.835v-7.39z"/><path fill="#404040" d="M388.62 115.261h-21.057l-2.84 2.84v7.386l2.84 2.838h21.056l2.843-2.838v-7.386zm0 13.496h-21.057l-2.84 2.835v7.389l2.84 2.843h21.056l2.843-2.843v-7.389zm0 13.486h-21.057l-2.84 2.841v7.39l2.84 2.836h21.056l2.843-2.835v-7.39z"/><path fill="#8D8C8C" d="M373.566 150.685h-4.32v-4.32h4.32zm13.528 0h-4.32v-4.324h4.32zm-13.526-13.528h-4.318v-4.318h4.318zm13.525.001h-4.318v-4.318h4.318zm-13.526-13.525h-4.318v-4.318h4.318z"/><path fill="#8D8455" d="M387.092 123.631h-4.318v-4.318h4.318z"/><path fill="#8C8663" d="M386.05 122.582h-2.226v-2.223h2.225z"/><path fill="#B8AF82" d="M382.779 119.314l1.049 1.05h2.215l1.05-1.05z"/><path fill="#80795B" d="M386.043 122.584v-2.22l1.05-1.05v4.319z"/><path fill="#5E5B43" d="M383.828 122.584h2.215l1.05 1.049h-4.314z"/><path fill="#9A916C" d="M382.779 119.314l1.049 1.05v2.22l-1.049 1.049z"/><path fill="#8C8663" d="M372.517 122.586h-2.223v-2.223h2.223z"/><path fill="#B8AF82" d="M369.25 119.314l1.048 1.05h2.22l1.046-1.05z"/><path fill="#80795B" d="M372.517 122.584v-2.22l1.047-1.05v4.319z"/><path fill="#5E5B43" d="M370.298 122.584h2.22l1.046 1.049h-4.314z"/><path fill="#9A916C" d="M369.25 119.314l1.048 1.05v2.22l-1.048 1.049z"/><path fill="#8C8663" d="M386.052 136.11h-2.229v-2.226h2.23z"/><path fill="#B8AF82" d="M382.779 132.842l1.049 1.047h2.215l1.05-1.047z"/><path fill="#80795B" d="M386.043 136.112v-2.223l1.05-1.047v4.316z"/><path fill="#5E5B43" d="M383.828 136.112h2.215l1.05 1.046h-4.314z"/><path fill="#9A916C" d="M382.779 132.842l1.049 1.047v2.223l-1.049 1.046z"/><path fill="#8C8663" d="M372.518 136.11h-2.223v-2.225h2.223z"/><path fill="#B8AF82" d="M369.25 132.842l1.048 1.047h2.22l1.046-1.047z"/><path fill="#80795B" d="M372.517 136.112v-2.223l1.047-1.047v4.316z"/><path fill="#5E5B43" d="M370.298 136.112h2.22l1.046 1.046h-4.314z"/><path fill="#9A916C" d="M369.25 132.842l1.048 1.047v2.223l-1.048 1.046z"/><path fill="#8C8663" d="M386.053 149.644h-2.23v-2.23h2.23z"/><path fill="#B8AF82" d="M382.779 146.368l1.049 1.052h2.215l1.05-1.052z"/><path fill="#80795B" d="M386.043 149.643v-2.223l1.05-1.052v4.318z"/><path fill="#5E5B43" d="M383.828 149.643h2.215l1.05 1.043h-4.314z"/><path fill="#9A916C" d="M382.779 146.368l1.049 1.052v2.223l-1.049 1.043z"/><path fill="#8C8663" d="M372.522 149.643h-2.227v-2.232h2.227z"/><path fill="#B8AF82" d="M369.25 146.368l1.048 1.052h2.22l1.046-1.052z"/><path fill="#80795B" d="M372.517 149.643v-2.223l1.047-1.052v4.318z"/><path fill="#5E5B43" d="M370.298 149.643h2.22l1.046 1.043h-4.314z"/><path fill="#9A916C" d="M369.25 146.368l1.048 1.052v2.223l-1.048 1.043z"/></g><g fill-rule="nonzero"><path fill="#404040" d="M112.465 29.133V50.19l2.842 2.84h7.384l2.84-2.84V29.133l-2.84-2.841h-7.384zm13.498 0V50.19l2.835 2.84h7.39l2.842-2.84V29.133l-2.843-2.841h-7.389zm13.484 0V50.19l2.843 2.84h7.39l2.836-2.84V29.133l-2.835-2.841h-7.39z"/><path fill="#404040" d="M112.465 29.133V50.19l2.842 2.84h7.384l2.84-2.84V29.133l-2.84-2.841h-7.384zm13.498 0V50.19l2.835 2.84h7.39l2.842-2.84V29.133l-2.843-2.841h-7.389zm13.484 0V50.19l2.843 2.84h7.39l2.836-2.84V29.133l-2.835-2.841h-7.39z"/><path fill="#8D8C8C" d="M147.892 48.503h-4.32v-4.318h4.32zm0-13.528h-4.32v-4.318h4.32zm-13.528 13.528h-4.32v-4.318h4.32zm0-13.528h-4.32v-4.318h4.32zm-13.526 13.528h-4.318v-4.318h4.318z"/><path fill="#8D8455" d="M120.838 34.975h-4.318v-4.318h4.318z"/><path fill="#8C8663" d="M119.79 33.925h-2.223V31.7h2.223z"/><path fill="#B8AF82" d="M116.52 34.975l1.051-1.05v-2.22l-1.05-1.048z"/><path fill="#80795B" d="M119.79 31.706h-2.219l-1.05-1.049h4.318z"/><path fill="#5E5B43" d="M119.79 33.925v-2.22l1.049-1.048v4.318z"/><path fill="#9A916C" d="M116.52 34.975l1.051-1.05h2.22l1.048 1.05z"/><path fill="#8C8663" d="M119.79 47.454h-2.223v-2.221h2.223z"/><path fill="#B8AF82" d="M116.52 48.503l1.051-1.049v-2.22l-1.05-1.048z"/><path fill="#80795B" d="M119.79 45.235h-2.219l-1.05-1.049h4.318z"/><path fill="#5E5B43" d="M119.79 47.454v-2.22l1.049-1.048v4.317z"/><path fill="#9A916C" d="M116.52 48.503l1.051-1.049h2.22l1.048 1.049z"/><path fill="#8C8663" d="M133.317 33.925h-2.23V31.7h2.23z"/><path fill="#B8AF82" d="M130.048 34.975l1.047-1.05v-2.22l-1.047-1.048z"/><path fill="#80795B" d="M133.318 31.706h-2.223l-1.047-1.049h4.316z"/><path fill="#5E5B43" d="M133.318 33.925v-2.22l1.046-1.048v4.318z"/><path fill="#9A916C" d="M130.048 34.975l1.047-1.05h2.223l1.046 1.05z"/><path fill="#8C8663" d="M133.317 47.454h-2.23v-2.221h2.23z"/><path fill="#B8AF82" d="M130.048 48.503l1.047-1.049v-2.22l-1.047-1.048z"/><path fill="#80795B" d="M133.318 45.235h-2.223l-1.047-1.049h4.316z"/><path fill="#5E5B43" d="M133.318 47.454v-2.22l1.046-1.048v4.317z"/><path fill="#9A916C" d="M130.048 48.503l1.047-1.049h2.223l1.046 1.049z"/><path fill="#8C8663" d="M146.85 33.925h-2.233V31.7h2.232z"/><path fill="#B8AF82" d="M143.574 34.975l1.05-1.05v-2.22l-1.05-1.048z"/><path fill="#80795B" d="M146.849 31.706h-2.225l-1.05-1.049h4.318z"/><path fill="#5E5B43" d="M146.849 33.925v-2.22l1.043-1.048v4.318z"/><path fill="#9A916C" d="M143.574 34.975l1.05-1.05h2.225l1.043 1.05z"/><path fill="#8C8663" d="M146.85 47.454h-2.233v-2.221h2.232z"/><path fill="#B8AF82" d="M143.574 48.503l1.05-1.049v-2.22l-1.05-1.048z"/><path fill="#80795B" d="M146.849 45.235h-2.225l-1.05-1.049h4.318z"/><path fill="#5E5B43" d="M146.849 47.454v-2.22l1.043-1.048v4.317z"/><path fill="#9A916C" d="M143.574 48.503l1.05-1.049h2.225l1.043 1.049z"/></g><g fill-rule="nonzero"><path fill="#404040" d="M127.1 7.642h135.294V21.17H127.1z"/><path fill="#000" d="M131.25 11.793h5.225v5.228h-5.224z"/><path fill="#2A2A29" d="M129.329 9.867l1.92 1.926h5.233l1.926-1.926z"/><path fill="#474747" d="M138.408 9.867l-1.926 1.932v5.225l1.926 1.923z"/><path fill="#595959" d="M138.406 18.947l-1.926-1.923h-5.231l-1.92 1.923z"/><path fill="#373737" d="M129.325 18.947l1.924-1.926v-5.228l-1.924-1.926z"/><path fill="#000" d="M144.786 11.793h5.226v5.228h-5.226z"/><path fill="#2A2A29" d="M142.856 9.867l1.924 1.926h5.228l1.928-1.926z"/><path fill="#474747" d="M151.936 9.867l-1.928 1.932v5.225l1.928 1.923z"/><path fill="#595959" d="M151.934 18.947l-1.928-1.923h-5.226l-1.924 1.923z"/><path fill="#373737" d="M142.852 18.947l1.928-1.926v-5.228l-1.928-1.926z"/><path fill="#000" d="M158.314 11.793h5.224v5.228h-5.224z"/><path fill="#2A2A29" d="M156.382 9.867l1.926 1.926h5.233l1.922-1.926z"/><path fill="#474747" d="M165.463 9.867l-1.922 1.932v5.225l1.922 1.923z"/><path fill="#595959" d="M165.463 18.947l-1.924-1.923h-5.231l-1.926 1.923z"/><path fill="#373737" d="M156.382 18.947l1.926-1.926v-5.228l-1.926-1.926z"/><path fill="#000" d="M171.845 11.793h5.226v5.228h-5.226z"/><path fill="#2A2A29" d="M169.917 9.867l1.924 1.926h5.23l1.926-1.926z"/><path fill="#474747" d="M178.997 9.867l-1.927 1.932v5.225l1.927 1.923z"/><path fill="#595959" d="M178.995 18.947l-1.928-1.923h-5.226l-1.924 1.923z"/><path fill="#373737" d="M169.911 18.947l1.93-1.926v-5.228l-1.93-1.926z"/><path fill="#000" d="M185.373 11.793h5.22v5.228h-5.22z"/><path fill="#2A2A29" d="M183.444 9.867l1.925 1.926h5.227l1.926-1.926z"/><path fill="#474747" d="M192.522 9.867l-1.926 1.932v5.225l1.926 1.923z"/><path fill="#595959" d="M192.52 18.947l-1.924-1.923h-5.227l-1.925 1.923z"/><path fill="#373737" d="M183.439 18.947l1.93-1.926v-5.228l-1.93-1.926z"/><path fill="#000" d="M198.9 11.793h5.224v5.228H198.9z"/><path fill="#2A2A29" d="M196.976 9.867l1.92 1.926h5.233l1.926-1.926z"/><path fill="#474747" d="M206.055 9.867l-1.926 1.932v5.225l1.926 1.923z"/><path fill="#595959" d="M206.054 18.947l-1.928-1.923h-5.23l-1.92 1.923z"/><path fill="#373737" d="M196.972 18.947l1.924-1.926v-5.228l-1.924-1.926z"/><path fill="#000" d="M212.43 11.793h5.225v5.228h-5.224z"/><path fill="#2A2A29" d="M210.505 9.867l1.922 1.926h5.228l1.93-1.926z"/><path fill="#474747" d="M219.585 9.867l-1.93 1.932v5.225l1.93 1.923z"/><path fill="#595959" d="M219.581 18.947l-1.928-1.923h-5.226l-1.922 1.923z"/><path fill="#373737" d="M210.501 18.947l1.926-1.926v-5.228l-1.926-1.926z"/><path fill="#000" d="M225.96 11.793h5.225v5.228h-5.224z"/><path fill="#2A2A29" d="M224.029 9.867l1.926 1.926h5.233l1.922-1.926z"/><path fill="#474747" d="M233.11 9.867l-1.922 1.932v5.225l1.922 1.923z"/><path fill="#595959" d="M233.11 18.947l-1.924-1.923h-5.231l-1.926 1.923z"/><path fill="#373737" d="M224.029 18.947l1.926-1.926v-5.228l-1.926-1.926z"/><path fill="#000" d="M239.492 11.793h5.226v5.228h-5.226z"/><path fill="#2A2A29" d="M237.564 9.867l1.924 1.926h5.23l1.926-1.926z"/><path fill="#474747" d="M246.644 9.867l-1.926 1.932v5.225l1.926 1.923z"/><path fill="#595959" d="M246.64 18.947l-1.926-1.923h-5.226l-1.924 1.923z"/><path fill="#373737" d="M237.558 18.947l1.93-1.926v-5.228l-1.93-1.926z"/><path fill="#000" d="M253.02 11.793h5.22v5.228h-5.22z"/><path fill="#2A2A29" d="M251.091 9.867l1.925 1.926h5.227l1.926-1.926z"/><path fill="#474747" d="M260.17 9.867l-1.927 1.932v5.225l1.926 1.923z"/><path fill="#595959" d="M260.167 18.947l-1.924-1.923h-5.227l-1.925 1.923z"/><path fill="#373737" d="M251.086 18.947l1.93-1.926v-5.228l-1.93-1.926z"/></g><g fill-rule="nonzero"><path fill="#404040" d="M527.596 7.65h13.528v108.234h-13.528z"/><path fill="#000" d="M531.745 11.806h5.228v5.224h-5.228z"/><path fill="#2A2A29" d="M538.9 9.88l-1.927 1.922v5.23l1.928 1.927z"/><path fill="#474747" d="M538.9 18.96l-1.935-1.928h-5.223l-1.92 1.927z"/><path fill="#595959" d="M529.821 18.956l1.92-1.926v-5.228l-1.92-1.922z"/><path fill="#373737" d="M529.821 9.876l1.924 1.926h5.228l1.928-1.926z"/><path fill="#000" d="M531.745 25.335h5.228v5.226h-5.228z"/><path fill="#2A2A29" d="M538.9 23.407l-1.927 1.924v5.232l1.928 1.924z"/><path fill="#474747" d="M538.9 32.487l-1.935-1.924h-5.223l-1.92 1.924z"/><path fill="#595959" d="M529.821 32.483l1.92-1.922v-5.23l-1.92-1.924z"/><path fill="#373737" d="M529.821 23.404l1.924 1.927h5.228l1.928-1.927z"/><path fill="#000" d="M531.745 38.867h5.228v5.226h-5.228z"/><path fill="#2A2A29" d="M538.9 36.935l-1.927 1.928v5.23l1.928 1.922z"/><path fill="#474747" d="M538.9 46.015l-1.935-1.923h-5.223l-1.92 1.923z"/><path fill="#595959" d="M529.821 46.015l1.92-1.927v-5.225l-1.92-1.928z"/><path fill="#373737" d="M529.821 36.931l1.924 1.932h5.228l1.928-1.932z"/><path fill="#000" d="M531.745 52.396h5.228v5.224h-5.228z"/><path fill="#2A2A29" d="M538.9 50.466l-1.927 1.926v5.228l1.928 1.926z"/><path fill="#474747" d="M538.9 59.546l-1.935-1.926h-5.223l-1.92 1.926z"/><path fill="#595959" d="M529.821 59.544l1.92-1.928v-5.224l-1.92-1.926z"/><path fill="#373737" d="M529.821 50.462l1.924 1.93h5.228l1.928-1.93z"/><path fill="#000" d="M531.745 65.922h5.228v5.226h-5.228z"/><path fill="#2A2A29" d="M538.9 63.997l-1.927 1.92v5.23l1.928 1.93z"/><path fill="#474747" d="M538.9 73.077l-1.935-1.93h-5.223l-1.92 1.93z"/><path fill="#595959" d="M529.821 73.075l1.92-1.928v-5.23l-1.92-1.92z"/><path fill="#373737" d="M529.821 63.994l1.924 1.924h5.228l1.928-1.924z"/><path fill="#000" d="M531.745 79.453h5.228v5.226h-5.228z"/><path fill="#2A2A29" d="M538.9 77.527l-1.927 1.922v5.23l1.928 1.928z"/><path fill="#474747" d="M538.9 86.607l-1.935-1.928h-5.223l-1.92 1.928z"/><path fill="#595959" d="M529.821 86.603l1.92-1.928v-5.226l-1.92-1.922z"/><path fill="#373737" d="M529.821 77.523l1.924 1.926h5.228l1.928-1.926z"/><path fill="#000" d="M531.745 92.98h5.228v5.226h-5.228z"/><path fill="#2A2A29" d="M538.9 91.054l-1.927 1.923v5.233l1.928 1.924z"/><path fill="#474747" d="M538.9 100.134l-1.935-1.924h-5.223l-1.92 1.924z"/><path fill="#595959" d="M529.821 100.13l1.92-1.924v-5.23l-1.92-1.922z"/><path fill="#373737" d="M529.821 91.05l1.924 1.927h5.228l1.928-1.926z"/><path fill="#000" d="M531.745 106.512h5.228v5.226h-5.228z"/><path fill="#2A2A29" d="M538.9 104.582l-1.927 1.926v5.231l1.928 1.923z"/><path fill="#474747" d="M538.9 113.662l-1.935-1.923h-5.223l-1.92 1.923z"/><path fill="#595959" d="M529.821 113.662l1.92-1.926v-5.228l-1.92-1.926z"/><path fill="#373737" d="M529.821 104.578l1.924 1.93h5.228l1.928-1.93z"/><path fill="#404040" d="M527.597 115.885h13.522v135.294h-13.522z"/><path fill="#000" d="M531.744 120.038h5.224v5.224h-5.224z"/><path fill="#2A2A29" d="M538.9 118.112l-1.928 1.92v5.233l1.928 1.926z"/><path fill="#474747" d="M538.9 127.191l-1.934-1.926h-5.226l-1.922 1.926z"/><path fill="#595959" d="M529.818 127.19l1.922-1.926v-5.232l-1.922-1.92z"/><path fill="#373737" d="M529.818 118.108l1.926 1.924h5.228l1.928-1.924z"/><path fill="#000" d="M531.744 133.567h5.224v5.226h-5.224z"/><path fill="#2A2A29" d="M538.9 131.64l-1.928 1.925v5.228l1.928 1.926z"/><path fill="#474747" d="M538.9 140.719l-1.934-1.926h-5.226l-1.922 1.926z"/><path fill="#595959" d="M529.818 140.717l1.922-1.926v-5.226l-1.922-1.926z"/><path fill="#373737" d="M529.818 131.635l1.926 1.93h5.228l1.928-1.93z"/><path fill="#000" d="M531.744 147.097h5.224v5.226h-5.224z"/><path fill="#2A2A29" d="M538.9 145.169l-1.928 1.924v5.233l1.928 1.922z"/><path fill="#474747" d="M538.9 154.248l-1.934-1.922h-5.226l-1.922 1.922z"/><path fill="#595959" d="M529.818 154.248l1.922-1.926v-5.23l-1.922-1.923z"/><path fill="#373737" d="M529.818 145.165l1.926 1.928h5.228l1.928-1.928z"/><path fill="#000" d="M531.744 160.628h5.224v5.226h-5.224z"/><path fill="#2A2A29" d="M538.9 158.7l-1.928 1.924v5.23l1.928 1.928z"/><path fill="#474747" d="M538.9 167.782l-1.934-1.928h-5.226l-1.922 1.928z"/><path fill="#595959" d="M529.818 167.778l1.922-1.928v-5.226l-1.922-1.924z"/><path fill="#373737" d="M529.818 158.694l1.926 1.93h5.228l1.928-1.93z"/><path fill="#000" d="M531.744 174.155h5.224v5.226h-5.224z"/><path fill="#2A2A29" d="M538.9 172.23l-1.928 1.922v5.23l1.928 1.927z"/><path fill="#474747" d="M538.9 181.31l-1.934-1.929h-5.226l-1.922 1.928z"/><path fill="#595959" d="M529.818 181.305l1.922-1.924v-5.23l-1.922-1.922z"/><path fill="#373737" d="M529.818 172.226l1.926 1.926h5.228l1.928-1.926z"/><path fill="#000" d="M531.744 187.687h5.224v5.226h-5.224z"/><path fill="#2A2A29" d="M538.9 185.76l-1.928 1.923v5.231l1.928 1.926z"/><path fill="#474747" d="M538.9 194.84l-1.934-1.926h-5.226l-1.922 1.926z"/><path fill="#595959" d="M529.818 194.837l1.922-1.926v-5.228l-1.922-1.922z"/><path fill="#373737" d="M529.818 185.757l1.926 1.926h5.228l1.928-1.926z"/><path fill="#000" d="M531.744 201.214h5.224v5.218h-5.224z"/><path fill="#2A2A29" d="M538.9 199.288l-1.928 1.924v5.23l1.928 1.926z"/><path fill="#474747" d="M538.9 208.368l-1.934-1.926h-5.226l-1.922 1.926z"/><path fill="#595959" d="M529.818 208.364l1.922-1.926v-5.226l-1.922-1.924z"/><path fill="#373737" d="M529.818 199.284l1.926 1.928h5.228l1.928-1.928z"/><path fill="#000" d="M531.744 214.744h5.224v5.226h-5.224z"/><path fill="#2A2A29" d="M538.9 212.816l-1.928 1.924v5.233l1.928 1.922z"/><path fill="#474747" d="M538.9 221.895l-1.934-1.922h-5.226l-1.922 1.922z"/><path fill="#595959" d="M529.818 221.895l1.922-1.926v-5.23l-1.922-1.923z"/><path fill="#373737" d="M529.818 212.812l1.926 1.928h5.228l1.928-1.928z"/><path fill="#000" d="M531.744 228.275h5.224v5.226h-5.224z"/><path fill="#2A2A29" d="M538.9 226.347l-1.928 1.924v5.23l1.928 1.928z"/><path fill="#474747" d="M538.9 235.429l-1.934-1.928h-5.226l-1.922 1.928z"/><path fill="#595959" d="M529.818 235.425l1.922-1.928v-5.226l-1.922-1.924z"/><path fill="#373737" d="M529.818 226.341l1.926 1.93h5.228l1.928-1.93z"/><path fill="#000" d="M531.744 241.802h5.224v5.226h-5.224z"/><path fill="#2A2A29" d="M538.9 239.876l-1.928 1.923v5.23l1.928 1.927z"/><path fill="#474747" d="M538.9 248.956l-1.934-1.928h-5.226l-1.922 1.928z"/><path fill="#595959" d="M529.818 248.952l1.922-1.924v-5.23l-1.922-1.922z"/><path fill="#373737" d="M529.818 239.873l1.926 1.926h5.228l1.928-1.926z"/><path fill="#404040" d="M541.124 7.65h13.526v108.234h-13.526z"/><path fill="#000" d="M545.273 11.806h5.226v5.224h-5.226z"/><path fill="#2A2A29" d="M552.425 9.88l-1.925 1.922v5.23l1.925 1.927z"/><path fill="#474747" d="M552.425 18.96l-1.93-1.928h-5.226l-1.92 1.927z"/><path fill="#595959" d="M543.349 18.956l1.92-1.926v-5.228l-1.92-1.922z"/><path fill="#373737" d="M543.349 9.876l1.924 1.926h5.227l1.925-1.926z"/><path fill="#000" d="M545.273 25.335h5.226v5.226h-5.226z"/><path fill="#2A2A29" d="M552.425 23.407l-1.925 1.924v5.232l1.925 1.924z"/><path fill="#474747" d="M552.425 32.487l-1.93-1.924h-5.226l-1.92 1.924z"/><path fill="#595959" d="M543.349 32.483l1.92-1.922v-5.23l-1.92-1.924z"/><path fill="#373737" d="M543.349 23.404l1.924 1.927h5.227l1.925-1.927z"/><path fill="#000" d="M545.273 38.867h5.226v5.226h-5.226z"/><path fill="#2A2A29" d="M552.425 36.935l-1.925 1.928v5.23l1.925 1.922z"/><path fill="#474747" d="M552.425 46.015l-1.93-1.923h-5.226l-1.92 1.923z"/><path fill="#595959" d="M543.349 46.015l1.92-1.927v-5.225l-1.92-1.928z"/><path fill="#373737" d="M543.349 36.931l1.924 1.932h5.227l1.925-1.932z"/><path fill="#000" d="M545.273 52.396h5.226v5.224h-5.226z"/><path fill="#2A2A29" d="M552.425 50.466l-1.925 1.926v5.228l1.925 1.926z"/><path fill="#474747" d="M552.425 59.546l-1.93-1.926h-5.226l-1.92 1.926z"/><path fill="#595959" d="M543.349 59.544l1.92-1.928v-5.224l-1.92-1.926z"/><path fill="#373737" d="M543.349 50.462l1.924 1.93h5.227l1.925-1.93z"/><path fill="#000" d="M545.273 65.922h5.226v5.226h-5.226z"/><path fill="#2A2A29" d="M552.425 63.997l-1.925 1.92v5.23l1.925 1.93z"/><path fill="#474747" d="M552.425 73.077l-1.93-1.93h-5.226l-1.92 1.93z"/><path fill="#595959" d="M543.349 73.075l1.92-1.928v-5.23l-1.92-1.92z"/><path fill="#373737" d="M543.349 63.994l1.924 1.924h5.227l1.925-1.924z"/><path fill="#000" d="M545.273 79.453h5.226v5.226h-5.226z"/><path fill="#2A2A29" d="M552.425 77.527l-1.925 1.922v5.23l1.925 1.928z"/><path fill="#474747" d="M552.425 86.607l-1.93-1.928h-5.226l-1.92 1.928z"/><path fill="#595959" d="M543.349 86.603l1.92-1.928v-5.226l-1.92-1.922z"/><path fill="#373737" d="M543.349 77.523l1.924 1.926h5.227l1.925-1.926z"/><path fill="#000" d="M545.273 92.98h5.226v5.226h-5.226z"/><path fill="#2A2A29" d="M552.425 91.054l-1.925 1.923v5.233l1.925 1.924z"/><path fill="#474747" d="M552.425 100.134l-1.93-1.924h-5.226l-1.92 1.924z"/><path fill="#595959" d="M543.349 100.13l1.92-1.924v-5.23l-1.92-1.922z"/><path fill="#373737" d="M543.349 91.05l1.924 1.927h5.227l1.925-1.926z"/><path fill="#000" d="M545.273 106.512h5.226v5.226h-5.226z"/><path fill="#2A2A29" d="M552.425 104.582l-1.925 1.926v5.231l1.925 1.923z"/><path fill="#474747" d="M552.425 113.662l-1.93-1.923h-5.226l-1.92 1.923z"/><path fill="#595959" d="M543.349 113.662l1.92-1.926v-5.228l-1.92-1.926z"/><path fill="#373737" d="M543.349 104.578l1.924 1.93h5.227l1.925-1.93z"/><path fill="#404040" d="M541.123 115.885h13.528v135.294h-13.528z"/><path fill="#000" d="M545.272 120.038h5.229v5.224h-5.23z"/><path fill="#2A2A29" d="M552.427 118.112l-1.926 1.92v5.233l1.926 1.926z"/><path fill="#474747" d="M552.427 127.191l-1.933-1.926h-5.226l-1.92 1.926z"/><path fill="#595959" d="M543.347 127.19l1.92-1.926v-5.232l-1.92-1.92z"/><path fill="#373737" d="M543.347 118.108l1.925 1.924h5.23l1.925-1.924z"/><path fill="#000" d="M545.272 133.567h5.229v5.226h-5.23z"/><path fill="#2A2A29" d="M552.427 131.64l-1.926 1.925v5.228l1.926 1.926z"/><path fill="#474747" d="M552.427 140.719l-1.933-1.926h-5.226l-1.92 1.926z"/><path fill="#595959" d="M543.347 140.717l1.92-1.926v-5.226l-1.92-1.926z"/><path fill="#373737" d="M543.347 131.635l1.925 1.93h5.23l1.925-1.93z"/><path fill="#000" d="M545.272 147.097h5.229v5.226h-5.23z"/><path fill="#2A2A29" d="M552.427 145.169l-1.926 1.924v5.233l1.926 1.922z"/><path fill="#474747" d="M552.427 154.248l-1.933-1.922h-5.226l-1.92 1.922z"/><path fill="#595959" d="M543.347 154.248l1.92-1.926v-5.23l-1.92-1.923z"/><path fill="#373737" d="M543.347 145.165l1.925 1.928h5.23l1.925-1.928z"/><path fill="#000" d="M545.272 160.628h5.229v5.226h-5.23z"/><path fill="#2A2A29" d="M552.427 158.7l-1.926 1.924v5.23l1.926 1.928z"/><path fill="#474747" d="M552.427 167.782l-1.933-1.928h-5.226l-1.92 1.928z"/><path fill="#595959" d="M543.347 167.778l1.92-1.928v-5.226l-1.92-1.924z"/><path fill="#373737" d="M543.347 158.694l1.925 1.93h5.23l1.925-1.93z"/><path fill="#000" d="M545.272 174.155h5.229v5.226h-5.23z"/><path fill="#2A2A29" d="M552.427 172.23l-1.926 1.922v5.23l1.926 1.927z"/><path fill="#474747" d="M552.427 181.31l-1.933-1.929h-5.226l-1.92 1.928z"/><path fill="#595959" d="M543.347 181.305l1.92-1.924v-5.23l-1.92-1.922z"/><path fill="#373737" d="M543.347 172.226l1.925 1.926h5.23l1.925-1.926z"/><path fill="#000" d="M545.272 187.687h5.229v5.226h-5.23z"/><path fill="#2A2A29" d="M552.427 185.76l-1.926 1.923v5.231l1.926 1.926z"/><path fill="#474747" d="M552.427 194.84l-1.933-1.926h-5.226l-1.92 1.926z"/><path fill="#595959" d="M543.347 194.837l1.92-1.926v-5.228l-1.92-1.922z"/><path fill="#373737" d="M543.347 185.757l1.925 1.926h5.23l1.925-1.926z"/><path fill="#000" d="M545.272 201.214h5.229v5.218h-5.23z"/><path fill="#2A2A29" d="M552.427 199.288l-1.926 1.924v5.23l1.926 1.926z"/><path fill="#474747" d="M552.427 208.368l-1.933-1.926h-5.226l-1.92 1.926z"/><path fill="#595959" d="M543.347 208.364l1.92-1.926v-5.226l-1.92-1.924z"/><path fill="#373737" d="M543.347 199.284l1.925 1.928h5.23l1.925-1.928z"/><path fill="#000" d="M545.272 214.744h5.229v5.226h-5.23z"/><path fill="#2A2A29" d="M552.427 212.816l-1.926 1.924v5.233l1.926 1.922z"/><path fill="#474747" d="M552.427 221.895l-1.933-1.922h-5.226l-1.92 1.922z"/><path fill="#595959" d="M543.347 221.895l1.92-1.926v-5.23l-1.92-1.923z"/><path fill="#373737" d="M543.347 212.812l1.925 1.928h5.23l1.925-1.928z"/><path fill="#000" d="M545.272 228.275h5.229v5.226h-5.23z"/><path fill="#2A2A29" d="M552.427 226.347l-1.926 1.924v5.23l1.926 1.928z"/><path fill="#474747" d="M552.427 235.429l-1.933-1.928h-5.226l-1.92 1.928z"/><path fill="#595959" d="M543.347 235.425l1.92-1.928v-5.226l-1.92-1.924z"/><path fill="#373737" d="M543.347 226.341l1.925 1.93h5.23l1.925-1.93z"/><path fill="#000" d="M545.272 241.802h5.229v5.226h-5.23z"/><path fill="#2A2A29" d="M552.427 239.876l-1.926 1.923v5.23l1.926 1.927z"/><path fill="#474747" d="M552.427 248.956l-1.933-1.928h-5.226l-1.92 1.928z"/><path fill="#595959" d="M543.347 248.952l1.92-1.924v-5.23l-1.92-1.922z"/><path fill="#373737" d="M543.347 239.873l1.925 1.926h5.23l1.925-1.926z"/></g><path d="M189.035 57.929h-13.597"/><path fill="#F2F2F2" fill-rule="nonzero" d="M189.034 65.129h-13.81v-7.203h13.81z"/><path d="M180.113 57.925s-1.214.878-1.63.8c-.41-.076-1.016.279-1.27 0l.034-.796 2.866-.004z" fill-opacity=".7" fill="#22B573" fill-rule="nonzero"/><g fill-rule="nonzero"><path fill="#FFF" d="M183.066 62.484h-1.605v-1.806h1.605z"/><path fill="#B3B3B3" d="M183.068 60.726h-1.605v-1h1.605z"/></g><g fill-rule="nonzero"><path fill="#D1C690" d="M179.023 58.722l-1.81-.196V59.9l1.81-.195z"/><path d="M178.908 59.096h.015c.506.066.84.195 1.13.304.393.15 1.052 1.47 1.556 1.308.045-.022.114.02.118.08.015.067-.02.129-.073.147-.575.179-1.267-1.159-1.68-1.317a3.944 3.944 0 0 0-1.073-.291.112.112 0 0 1-.094-.128c.007-.056.05-.103.101-.103zm6.542 5.053l1.815.193V62.97l-1.815.194z" fill="#D1C690"/><path d="M182.343 61.29c.046 0 .092.038.104.089.118.549 2.05 2.165 3.547 2.165.057 0 .108.048.108.118-.004.064-.046.118-.108.118h-.003c-1.408 0-3.56-1.447-3.745-2.34a.125.125 0 0 1 .077-.146c.004-.003.011-.003.02-.003zm-.883-.03s.665.004.72-.584h-.72v.585z" fill="#D1C690"/><path d="M182.278 61.86s-.297-.575-.102-.66c.201-.09.337-.097.451.053.117.158-.35.607-.35.607z" fill="#D1C690"/><path d="M181.603 60.605c-.51.158-1.163-1.162-1.556-1.312a4.222 4.222 0 0 0-1.13-.304v.11c.506.066.84.196 1.13.305.393.15 1.052 1.47 1.556 1.308v-.107zm3.847 2.455l1.815-.193v.103l-1.815.194z" fill="#9D956C"/><path d="M182.447 61.272c.118.547 2.01 2.277 3.547 2.159v.113c-1.647.112-3.43-1.616-3.551-2.165l.004-.107zm-.267-.702h-.716v.108h.716zm.45.585c-.117-.15-.245-.143-.446-.058l-.004.113c.201-.092.338-.098.45.052v-.107z" fill="#9D956C"/></g><path fill="#FFF" fill-rule="nonzero" opacity=".5" d="M186.26 65.13h-7.94v-1h7.94z"/><path fill="#F2F2F2" fill-rule="nonzero" opacity=".5" d="M187.233 65.128v-7.2h-9.991l-.008 7.2z"/><path d="M187.137 63.903v.509c-.036.283.028.509-.186.509h-9.121c-.316 0-.33-.122.028-.122h8.167c.858 0 .979-.197.979-.37l-.008-.511c-.007-.342.141-.342.141-.015z" fill="#FFF" fill-rule="nonzero" opacity=".55"/><path d="M177.503 58.342c0-.127-.025-.259.19-.259h9.046c.315 0 .33.122-.017.122l-6.744.004a31.184 31.184 0 0 0-2.475.133z" fill="#000" fill-rule="nonzero" opacity=".03"/><path d="M189.033 57.925h-1.449v.98c0 .234-.148.4-.353.503v5.725h1.898V57.93" fill="#D1C690" fill-rule="nonzero"/><path fill="#FFF" fill-rule="nonzero" opacity=".5" d="M189.124 65.129h-1.89v-1h1.89z"/><path d="M175.227 57.925v7.202h2.013V58.62c-.196-.106-.357-.275-.357-.51v-.188h-1.56" fill="#D1C690" fill-rule="nonzero"/><path fill="#FFF" fill-rule="nonzero" opacity=".5" d="M177.242 65.13h-2.013v-1h2.013z"/><path d="M445.693 85.01h-13.596"/><path fill="#F2F2F2" fill-rule="nonzero" d="M445.69 92.207h-13.813v-7.203h13.813z"/><path d="M436.77 85.005s-1.213.878-1.628.8c-.412-.076-1.017.279-1.27 0l.039-.796 2.86-.004z" fill-opacity=".7" fill="#22B573" fill-rule="nonzero"/><g fill-rule="nonzero"><path fill="#FFF" d="M439.719 89.566h-1.605V87.76h1.605z"/><path fill="#B3B3B3" d="M439.72 87.804h-1.605v-1h1.605z"/></g><g fill-rule="nonzero"><path fill="#D1C690" d="M435.679 85.802l-1.808-.195v1.373l1.808-.195z"/><path d="M435.564 86.176h.02c.505.066.835.195 1.123.304.393.15 1.058 1.47 1.556 1.308.047-.022.118.021.12.081a.12.12 0 0 1-.073.147c-.573.178-1.267-1.16-1.682-1.318a3.908 3.908 0 0 0-1.071-.29c-.05-.008-.11-.063-.092-.129.01-.056.05-.103.1-.103zm6.54 5.053l1.819.193v-1.371l-1.82.193z" fill="#D1C690"/><path d="M439 88.37c.04 0 .091.038.106.09.119.548 2.045 2.164 3.543 2.164.062 0 .114.049.114.118-.004.064-.045.119-.114.119h-.004c-1.408 0-3.557-1.447-3.745-2.34a.131.131 0 0 1 .077-.146c.01-.004.017-.004.022-.004zm-.888-.03s.668.005.728-.584h-.728v.585z" fill="#D1C690"/><path d="M438.934 88.94s-.294-.575-.1-.66c.195-.09.334-.097.445.053.12.158-.345.607-.345.607z" fill="#D1C690"/><path d="M438.26 87.685c-.508.158-1.162-1.161-1.555-1.312a4.152 4.152 0 0 0-1.124-.304v.11c.5.067.837.196 1.124.305.393.15 1.058 1.47 1.556 1.308v-.107zm3.844 2.455l1.819-.193v.104l-1.82.193zm-2.996-1.788c.119.547 2.007 2.278 3.542 2.16v.112c-1.648.113-3.423-1.616-3.545-2.165l.003-.107z" fill="#9D956C"/><path fill="#9D956C" d="M438.84 87.651h-.716v.107h.716zm.445.585c-.118-.15-.246-.143-.44-.059l-.003.113c.195-.092.334-.098.443.053v-.107z"/></g><path fill="#FFF" fill-rule="nonzero" opacity=".5" d="M442.913 92.21h-7.937v-1h7.937z"/><path fill="#F2F2F2" fill-rule="nonzero" opacity=".5" d="M443.89 92.208v-7.199h-9.985l-.007 7.199z"/><path d="M443.793 90.983v.509c-.034.284.026.51-.184.51h-9.121c-.316 0-.333-.123.022-.123h8.172c.86 0 .977-.197.977-.37l-.003-.511c-.006-.342.137-.342.137-.015z" fill="#FFF" fill-rule="nonzero" opacity=".55"/><path d="M434.159 85.423c0-.128-.023-.26.188-.26h9.05c.315 0 .332.122-.016.122l-6.746.004a31.262 31.262 0 0 0-2.476.134z" fill="#000" fill-rule="nonzero" opacity=".03"/><path d="M445.69 85.005h-1.448v.98c0 .234-.15.4-.353.503v5.726h1.898v-7.205" fill="#D1C690" fill-rule="nonzero"/><path fill="#FFF" fill-rule="nonzero" opacity=".5" d="M445.784 92.211h-1.892v-1h1.892z"/><path d="M431.883 85.005v7.202h2.015V85.7c-.196-.105-.36-.275-.36-.51v-.187h-1.555" fill="#D1C690" fill-rule="nonzero"/><path fill="#FFF" fill-rule="nonzero" opacity=".5" d="M433.9 92.21h-2.01v-1h2.01z"/><g transform="rotate(90 -33.996 183.096)" fill-rule="nonzero"><path fill="#CCC" d="M38.39 15.998v2.388h-1.953v-2.388zm-36.438 0v2.388H.002v-2.388z"/><path fill="#000" opacity=".1" d="M38.389 15.998v1h-1.952v-1zm-36.437-.006v1H.002v-1z"/><path fill="#FFF" opacity=".2" d="M38.389 18.006v1h-1.952v-1zm-36.437-.002v1H.003v-1z"/><path d="M9.114 34.487h24.72a2.612 2.612 0 0 0 2.603-2.6V2.611A2.613 2.613 0 0 0 33.835.004H9.114L1.952 7.167v20.168l7.162 7.152z" fill="#1A1A1A"/><circle fill="#E6E6E6" cx="19.197" cy="17.246" r="16.354"/><path d="M9.114 34.487h24.72a2.612 2.612 0 0 0 2.603-2.6V2.611A2.613 2.613 0 0 0 33.835.004H9.114L1.952 7.167v20.168l7.162 7.152z" fill="#333"/><path d="M1.952 7.51L9.114.347h24.72a2.613 2.613 0 0 1 2.603 2.608v-.346A2.613 2.613 0 0 0 33.835 0H9.114L1.952 7.163v.348z" fill="#000"/><path d="M36.437 31.542a2.612 2.612 0 0 1-2.602 2.601H9.114l-7.162-7.16v.35l7.162 7.156h24.72a2.612 2.612 0 0 0 2.603-2.6v-.347z" fill="#FFF" opacity=".1"/><path d="M19.197.665c3.532 0 6.79 1.135 9.467 3.031 4.162 2.967 6.885 7.823 6.885 13.321 0 5.5-2.723 10.352-6.885 13.317a16.252 16.252 0 0 1-9.467 3.033c-9.031 0-16.352-7.321-16.352-16.352 0-9.027 7.32-16.35 16.352-16.35z" fill="#E6E6E6"/><path d="M35.549 17.244c0-5.498-2.723-10.352-6.885-13.319v26.638c4.162-2.963 6.885-7.817 6.885-13.319z" fill="#000"/><path d="M2.845 16.788c0 9.038 7.32 16.352 16.352 16.352 3.532 0 6.79-1.135 9.467-3.035 4.162-2.965 6.885-7.82 6.885-13.317v.456c0 5.502-2.723 10.356-6.885 13.32a16.238 16.238 0 0 1-9.467 3.032c-9.031 0-16.352-7.32-16.352-16.352v-.456z" fill="#FFF" opacity=".3"/><path d="M35.549 17.678c0-5.5-2.723-10.353-6.885-13.322v-.43c4.162 2.966 6.885 7.82 6.885 13.318v.434z" fill="#FFF" opacity=".5"/><path d="M28.664 4.358a16.275 16.275 0 0 0-9.467-3.03c-9.031 0-16.352 7.321-16.352 16.352v-.432C2.845 8.22 10.165.896 19.197.896c3.532 0 6.79 1.135 9.467 3.033v.429z" fill="#000" opacity=".2"/></g><g transform="rotate(90 -15.055 202.037)" fill-rule="nonzero"><path fill="#CCC" d="M38.388 16v2.388h-1.952V16zM1.953 16v2.389H.003V16z"/><path fill="#000" opacity=".1" d="M38.39 15.996v1h-1.953v-1zm-36.438-.003v1H.003v-1z"/><path fill="#FFF" opacity=".2" d="M38.39 18.006v1h-1.953v-1zm-36.437-.002v1H.003v-1z"/><path d="M9.114 34.487h24.72a2.611 2.611 0 0 0 2.603-2.599V2.612A2.613 2.613 0 0 0 33.835.004H9.114L1.952 7.167v20.168l7.162 7.152z" fill="#1A1A1A"/><circle fill="#E6E6E6" cx="19.197" cy="17.246" r="16.354"/><path d="M9.114 34.487h24.72a2.611 2.611 0 0 0 2.603-2.599V2.612A2.613 2.613 0 0 0 33.835.004H9.114L1.952 7.167v20.168l7.162 7.152z" fill="#333"/><path d="M1.952 7.51L9.114.347h24.72a2.614 2.614 0 0 1 2.603 2.612v-.35A2.613 2.613 0 0 0 33.835 0H9.114L1.952 7.163v.348z" fill="#000"/><path d="M36.437 31.544a2.61 2.61 0 0 1-2.602 2.6H9.114l-7.162-7.158v.349l7.162 7.156h24.72a2.611 2.611 0 0 0 2.603-2.6v-.347z" fill="#FFF" opacity=".1"/><path d="M19.197.665c3.532 0 6.79 1.135 9.467 3.031 4.162 2.967 6.885 7.823 6.885 13.321 0 5.5-2.723 10.352-6.885 13.317a16.225 16.225 0 0 1-9.467 3.033c-9.031 0-16.352-7.321-16.352-16.352 0-9.027 7.32-16.35 16.352-16.35z" fill="#E6E6E6"/><path d="M35.549 17.246c0-5.5-2.723-10.354-6.885-13.32v26.637c4.162-2.963 6.885-7.817 6.885-13.317z" fill="#000"/><path d="M2.845 16.788c0 9.038 7.32 16.353 16.352 16.353a16.29 16.29 0 0 0 9.467-3.036c4.162-2.965 6.885-7.82 6.885-13.317v.458c0 5.5-2.723 10.354-6.885 13.317a16.238 16.238 0 0 1-9.467 3.033c-9.031 0-16.352-7.32-16.352-16.35v-.458z" fill="#FFF" opacity=".3"/><path d="M35.549 17.68c0-5.502-2.723-10.355-6.885-13.324v-.43c4.162 2.966 6.885 7.82 6.885 13.32v.434z" fill="#FFF" opacity=".5"/><path d="M28.664 4.358a16.275 16.275 0 0 0-9.467-3.03c-9.031 0-16.352 7.321-16.352 16.354v-.432c0-9.03 7.32-16.354 16.352-16.354 3.532 0 6.79 1.135 9.467 3.033v.429z" fill="#000" opacity=".2"/></g><g fill-rule="nonzero"><path fill="#404040" d="M175.808 264.7h108.235v13.529H175.808z"/><path fill="#000" d="M179.96 268.852h5.22v5.228h-5.22z"/><path fill="#2A2A29" d="M178.035 266.924l1.922 1.927h5.226l1.931-1.927z"/><path fill="#474747" d="M187.114 266.924l-1.931 1.933v5.226l1.931 1.922z"/><path fill="#595959" d="M187.11 276.005l-1.93-1.922h-5.223l-1.922 1.922z"/><path fill="#373737" d="M178.029 276.005l1.928-1.926v-5.228l-1.928-1.927z"/><path fill="#000" d="M193.485 268.852h5.226v5.228h-5.226z"/><path fill="#2A2A29" d="M191.562 266.924l1.92 1.927h5.236l1.926-1.927z"/><path fill="#474747" d="M200.644 266.924l-1.926 1.933v5.226l1.926 1.922z"/><path fill="#595959" d="M200.64 276.005l-1.924-1.922h-5.233l-1.92 1.922z"/><path fill="#373737" d="M191.558 276.005l1.925-1.926v-5.228l-1.925-1.927z"/><path fill="#000" d="M207.02 268.852h5.227v5.228h-5.226z"/><path fill="#2A2A29" d="M205.092 266.924l1.926 1.927h5.23l1.923-1.927z"/><path fill="#474747" d="M214.171 266.924l-1.924 1.933v5.226l1.924 1.922z"/><path fill="#595959" d="M214.17 276.005l-1.927-1.922h-5.225l-1.926 1.922z"/><path fill="#373737" d="M205.088 276.005l1.93-1.926v-5.228l-1.93-1.927z"/><path fill="#000" d="M220.55 268.852h5.225v5.228h-5.224z"/><path fill="#2A2A29" d="M218.617 266.924l1.93 1.927h5.23l1.92-1.927z"/><path fill="#474747" d="M227.697 266.924l-1.92 1.933v5.226l1.92 1.922z"/><path fill="#595959" d="M227.695 276.005l-1.922-1.922h-5.226l-1.93 1.922z"/><path fill="#373737" d="M218.613 276.005l1.934-1.926v-5.228l-1.934-1.927z"/><path fill="#000" d="M234.078 268.852h5.226v5.228h-5.226z"/><path fill="#2A2A29" d="M232.152 266.924l1.923 1.927h5.23l1.927-1.927z"/><path fill="#474747" d="M241.232 266.924l-1.928 1.933v5.226l1.928 1.922z"/><path fill="#595959" d="M241.23 276.005l-1.928-1.922h-5.227l-1.923 1.922z"/><path fill="#373737" d="M232.149 276.005l1.926-1.926v-5.228l-1.926-1.927z"/><path fill="#000" d="M247.608 268.852h5.22v5.228h-5.22z"/><path fill="#2A2A29" d="M245.682 266.924l1.922 1.927h5.226l1.93-1.927z"/><path fill="#474747" d="M254.76 266.924l-1.93 1.933v5.226l1.93 1.922z"/><path fill="#595959" d="M254.758 276.005l-1.93-1.922h-5.224l-1.922 1.922z"/><path fill="#373737" d="M245.676 276.005l1.928-1.926v-5.228l-1.928-1.927z"/><path fill="#000" d="M261.132 268.852h5.226v5.228h-5.226z"/><path fill="#2A2A29" d="M259.21 266.924l1.92 1.927h5.235l1.926-1.927z"/><path fill="#474747" d="M268.29 266.924l-1.925 1.933v5.226l1.926 1.922z"/><path fill="#595959" d="M268.287 276.005l-1.924-1.922h-5.233l-1.92 1.922z"/><path fill="#373737" d="M259.205 276.005l1.925-1.926v-5.228l-1.925-1.927z"/><path fill="#000" d="M274.669 268.852h5.224v5.228h-5.224z"/><path fill="#2A2A29" d="M272.739 266.924l1.926 1.927h5.227l1.926-1.927z"/><path fill="#474747" d="M281.818 266.924l-1.926 1.933v5.226l1.926 1.922z"/><path fill="#595959" d="M281.817 276.005l-1.927-1.922h-5.225l-1.926 1.922z"/><path fill="#373737" d="M272.735 276.005l1.93-1.926v-5.228l-1.93-1.927z"/></g><g fill-rule="nonzero"><path fill="#404040" d="M378.792 21.167H270.549V7.639h108.243z"/><path fill="#000" d="M374.639 17.016h-5.226v-5.228h5.226z"/><path fill="#2A2A29" d="M376.565 18.942l-1.922-1.926h-5.232l-1.928 1.926z"/><path fill="#474747" d="M367.483 18.942l1.928-1.932v-5.225l-1.928-1.923z"/><path fill="#595959" d="M367.483 9.862l1.932 1.923h5.228l1.922-1.923z"/><path fill="#373737" d="M376.565 9.862l-1.922 1.926v5.228l1.922 1.926z"/><path fill="#000" d="M361.11 17.016h-5.224v-5.228h5.224z"/><path fill="#2A2A29" d="M363.037 18.942l-1.924-1.926h-5.231l-1.924 1.926z"/><path fill="#474747" d="M353.958 18.942l1.924-1.932v-5.225l-1.924-1.923z"/><path fill="#595959" d="M353.961 9.862l1.923 1.923h5.23l1.923-1.923z"/><path fill="#373737" d="M363.041 9.862l-1.928 1.926v5.228l1.928 1.926z"/><path fill="#000" d="M347.579 17.016h-5.226v-5.228h5.226z"/><path fill="#2A2A29" d="M349.51 18.942l-1.928-1.926h-5.232l-1.922 1.926z"/><path fill="#474747" d="M340.428 18.942l1.922-1.932v-5.225l-1.922-1.923z"/><path fill="#595959" d="M340.428 9.862l1.922 1.923h5.232l1.928-1.923z"/><path fill="#373737" d="M349.512 9.862l-1.93 1.926v5.228l1.93 1.926z"/><path fill="#000" d="M334.049 17.016h-5.218v-5.228h5.218z"/><path fill="#2A2A29" d="M335.977 18.942l-1.926-1.926h-5.226l-1.928 1.926z"/><path fill="#474747" d="M326.897 18.942l1.928-1.932v-5.225l-1.928-1.923z"/><path fill="#595959" d="M326.9 9.862l1.929 1.923h5.222l1.926-1.923z"/><path fill="#373737" d="M335.98 9.862l-1.93 1.926v5.228l1.93 1.926z"/><path fill="#000" d="M320.523 17.016h-5.226v-5.228h5.226z"/><path fill="#2A2A29" d="M322.447 18.942l-1.92-1.926h-5.232l-1.928 1.926z"/><path fill="#474747" d="M313.367 18.942l1.928-1.932v-5.225l-1.928-1.923z"/><path fill="#595959" d="M313.37 9.862l1.925 1.923h5.232l1.92-1.923z"/><path fill="#373737" d="M322.451 9.862l-1.924 1.926v5.228l1.924 1.926z"/><path fill="#000" d="M306.992 17.016h-5.226v-5.228h5.226z"/><path fill="#2A2A29" d="M308.918 18.942l-1.922-1.926h-5.232l-1.928 1.926z"/><path fill="#474747" d="M299.836 18.942l1.928-1.932v-5.225l-1.928-1.923z"/><path fill="#595959" d="M299.836 9.862l1.932 1.923h5.228l1.922-1.923z"/><path fill="#373737" d="M308.918 9.862l-1.922 1.926v5.228l1.922 1.926z"/><path fill="#000" d="M293.463 17.016h-5.224v-5.228h5.224z"/><path fill="#2A2A29" d="M295.39 18.942l-1.924-1.926h-5.231l-1.926 1.926z"/><path fill="#474747" d="M286.309 18.942l1.926-1.932v-5.225l-1.926-1.923z"/><path fill="#595959" d="M286.312 9.862l1.925 1.923h5.23l1.923-1.923z"/><path fill="#373737" d="M295.394 9.862l-1.928 1.926v5.228l1.928 1.926z"/><path fill="#000" d="M279.93 17.016h-5.225v-5.228h5.226z"/><path fill="#2A2A29" d="M281.86 18.942l-1.925-1.926h-5.232l-1.922 1.926z"/><path fill="#474747" d="M272.781 18.942l1.922-1.932v-5.225l-1.922-1.923z"/><path fill="#595959" d="M272.783 9.862l1.92 1.923h5.232l1.926-1.923z"/><path fill="#373737" d="M281.865 9.862l-1.93 1.926v5.228l1.93 1.926z"/></g><path d="M188.663 98.698h-13.597"/><path fill="#F2F2F2" fill-rule="nonzero" d="M188.662 105.895h-13.81v-7.203h13.81z"/><path d="M179.74 98.695s-1.213.877-1.628.8c-.412-.077-1.017.278-1.27 0l.035-.797 2.864-.003z" fill-opacity=".7" fill="#22B573" fill-rule="nonzero"/><g fill-rule="nonzero"><path fill="#FFF" d="M182.694 103.253h-1.605v-1.806h1.605z"/><path fill="#B3B3B3" d="M182.694 101.492h-1.605v-1h1.605z"/></g><g fill-rule="nonzero"><path fill="#D1C690" d="M178.651 99.491l-1.81-.195v1.373l1.81-.195z"/><path d="M178.533 99.865h.02c.5.066.835.196 1.124.305.393.15 1.052 1.47 1.556 1.307.05-.022.115.021.118.081a.12.12 0 0 1-.067.147c-.58.178-1.273-1.16-1.684-1.317a3.94 3.94 0 0 0-1.075-.292c-.049-.007-.105-.062-.092-.127.01-.057.053-.104.1-.104zm6.544 5.053l1.816.194v-1.372l-1.816.193z" fill="#D1C690"/><path d="M181.97 102.06a.12.12 0 0 1 .108.088c.119.549 2.045 2.165 3.543 2.165.062 0 .109.049.109.118-.004.064-.042.119-.11.119h-.003c-1.408 0-3.56-1.447-3.745-2.34a.127.127 0 0 1 .077-.146c.005-.004.013-.004.02-.004zm-.884-.03s.67.004.722-.584h-.722v.584z" fill="#D1C690"/><path d="M181.907 102.63s-.296-.576-.105-.66c.2-.09.34-.098.45.052.116.158-.345.607-.345.607z" fill="#D1C690"/><path d="M181.231 101.374c-.51.158-1.163-1.161-1.556-1.311a4.192 4.192 0 0 0-1.124-.305v.111c.5.066.835.195 1.124.304.393.15 1.052 1.47 1.556 1.308v-.107zm3.846 2.456l1.816-.193v.103l-1.816.193z" fill="#9D956C"/><path d="M182.078 102.041c.119.547 2.005 2.278 3.543 2.16v.112c-1.648.113-3.43-1.616-3.546-2.165l.003-.107zm-.27-.701h-.716v.107h.716zm.451.585c-.119-.15-.246-.143-.445-.059l-.004.113c.199-.092.342-.098.449.053v-.107z" fill="#9D956C"/></g><path fill="#FFF" fill-rule="nonzero" opacity=".5" d="M185.886 105.898h-7.943v-1h7.943z"/><path fill="#F2F2F2" fill-rule="nonzero" opacity=".5" d="M186.86 105.897v-7.199h-9.988l-.008 7.2z"/><path d="M186.765 104.672v.51c-.04.283.022.508-.19.508h-9.121c-.316 0-.336-.122.023-.122h8.168c.859 0 .979-.197.979-.37l-.004-.511c0-.342.145-.342.145-.015z" fill="#FFF" fill-rule="nonzero" opacity=".55"/><path d="M177.133 99.112c0-.128-.028-.26.184-.26h9.046c.321 0 .336.123-.015.123l-6.744.003c-1.115.002-2.471.134-2.471.134z" fill="#000" fill-rule="nonzero" opacity=".03"/><path d="M188.66 98.695h-1.448v.979c0 .234-.15.4-.353.503v5.726h1.898v-7.205" fill="#D1C690" fill-rule="nonzero"/><path fill="#FFF" fill-rule="nonzero" opacity=".5" d="M188.754 105.902h-1.892v-1h1.892z"/><path d="M174.852 98.695v7.202h2.016v-6.51c-.196-.104-.354-.273-.354-.508v-.188h-1.56" fill="#D1C690" fill-rule="nonzero"/><path fill="#FFF" fill-rule="nonzero" opacity=".5" d="M176.872 105.901h-2.011v-1h2.01z"/><path d="M188.663 86.522h-13.597"/><path fill="#F2F2F2" fill-rule="nonzero" d="M188.66 93.72h-13.807v-7.203h13.808z"/><path d="M179.74 86.518s-1.213.878-1.628.8c-.412-.076-1.017.279-1.27 0l.035-.796 2.864-.004z" fill-opacity=".7" fill="#22B573" fill-rule="nonzero"/><g fill-rule="nonzero"><path fill="#FFF" d="M182.694 91.077h-1.605v-1.806h1.605z"/><path fill="#B3B3B3" d="M182.694 89.316h-1.605v-1h1.605z"/></g><g fill-rule="nonzero"><path fill="#D1C690" d="M178.651 87.315l-1.81-.196v1.374l1.81-.195z"/><path d="M178.533 87.689h.02c.5.066.835.195 1.124.304.393.15 1.052 1.47 1.556 1.308.05-.023.115.02.118.08a.12.12 0 0 1-.067.147c-.58.179-1.273-1.159-1.684-1.317a3.94 3.94 0 0 0-1.075-.291c-.049-.008-.105-.062-.092-.128.01-.056.053-.103.1-.103zm6.544 5.053l1.816.193v-1.372l-1.816.194z" fill="#D1C690"/><path d="M181.97 89.884a.12.12 0 0 1 .108.088c.119.549 2.045 2.165 3.543 2.165.062 0 .109.048.109.118-.004.064-.042.118-.11.118h-.003c-1.408 0-3.56-1.447-3.745-2.34a.127.127 0 0 1 .077-.146c.005-.003.013-.003.02-.003zm-.884-.031s.67.004.722-.584h-.722v.584z" fill="#D1C690"/><path d="M181.907 90.453s-.296-.575-.105-.66c.2-.09.34-.097.45.053.116.158-.345.607-.345.607z" fill="#D1C690"/><path d="M181.231 89.198c-.51.157-1.163-1.162-1.556-1.312a4.192 4.192 0 0 0-1.124-.304v.11c.5.066.835.196 1.124.305.393.15 1.052 1.47 1.556 1.308v-.107zm3.846 2.456l1.816-.194v.103l-1.816.194z" fill="#9D956C"/><path d="M182.078 89.865c.119.547 2.005 2.277 3.543 2.159v.113c-1.648.112-3.43-1.616-3.546-2.165l.003-.107zm-.27-.701h-.716v.107h.716zm.451.584c-.119-.15-.246-.143-.445-.058l-.004.113c.199-.092.342-.098.449.052v-.107z" fill="#9D956C"/></g><path fill="#FFF" fill-rule="nonzero" opacity=".5" d="M185.883 93.723h-7.939v-1h7.939z"/><path fill="#F2F2F2" fill-rule="nonzero" opacity=".5" d="M186.86 93.72v-7.198h-9.988l-.008 7.199z"/><path d="M186.765 92.495v.51c-.04.283.022.509-.19.509h-9.121c-.316 0-.336-.122.023-.122h8.168c.859 0 .979-.198.979-.37l-.004-.512c0-.342.145-.342.145-.015z" fill="#FFF" fill-rule="nonzero" opacity=".55"/><path d="M177.133 86.935c0-.128-.028-.26.184-.26h9.046c.321 0 .336.123-.015.123l-6.744.004c-1.115.002-2.471.133-2.471.133z" fill="#000" fill-rule="nonzero" opacity=".03"/><path d="M188.66 86.518h-1.448v.98c0 .234-.15.4-.353.503v5.725h1.898v-7.204" fill="#D1C690" fill-rule="nonzero"/><path fill="#FFF" fill-rule="nonzero" opacity=".5" d="M188.753 93.724h-1.89v-1h1.89z"/><path d="M174.852 86.518v7.202h2.016v-6.509c-.196-.105-.354-.274-.354-.509v-.188h-1.56" fill="#D1C690" fill-rule="nonzero"/><path fill="#FFF" fill-rule="nonzero" opacity=".5" d="M176.872 93.723h-2.011v-1h2.011z"/><g fill-rule="nonzero"><path fill="#232323" d="M32.54 221.19h61.963v44.591H32.54z"/><path fill="#494949" d="M33.673 222.267h60.014v3.093H33.673z"/><path fill-opacity=".3" fill="#3D3D3D" d="M33.671 225.364h60.012v10.09H33.671z"/><path fill="#000" d="M31.726 261.771h61.961v3.042h-61.96z"/><path fill-opacity=".4" fill="#0F0F0F" d="M31.726 250.916h61.961v10.948h-61.96z"/><path fill="#000" opacity=".2" d="M93.383 221.19h1.118v44.59h-1.118z"/></g><path d="M89.215 265.789V221.19" stroke="#000" stroke-width=".5" opacity=".5"/><g opacity=".25" fill-rule="nonzero" fill="#000"><path d="M36.692 221.24h2.418v44.588h-2.418z"/><path d="M37.224 229.318v28.336H62.21c7.828 0 14.17-6.342 14.17-14.17 0-7.824-6.342-14.17-14.17-14.17l-24.985.004z" stroke="#565656" stroke-width=".5"/></g><g fill-rule="nonzero" fill="#232323"><path d="M37.224 229.318v28.336H62.21c7.828 0 14.17-6.342 14.17-14.17 0-7.824-6.342-14.17-14.17-14.17l-24.985.004z"/><path d="M24.142 219.518h14.446v47.94H24.142z"/></g><path fill="#6D6D6D" fill-rule="nonzero" d="M94.497 238.121h3.19v10.735h-3.19z"/><path fill="#494949" fill-rule="nonzero" d="M94.493 232.942h1.834v21.093h-1.834zM25.45 220.296h11.776v1.971H25.45z"/><path fill="#000" fill-rule="nonzero" d="M25.448 264.802h11.778v1.975H25.448z"/><g fill-rule="nonzero"><path d="M47.05 120.25h-5.555v-7.656l5.555-.003h3.628v5.956c0 .944-.763 1.706-1.704 1.706-.006 0-1.924 0-1.924-.003z" fill="#999"/><path d="M49.156 120.25v-7.66h1.522v6.235c-.005.758-1.058 1.425-1.522 1.425z" fill="gray"/><path fill="#B3B3B3" d="M.364 51.566h68.93v61.03H.364z"/><path fill="#999" d="M69.287 51.566H83.5v61.03H69.287z"/><path fill="#CCC" opacity=".5" d="M.364 51.566h83.144v3.843H.364z"/><path fill="#000" opacity=".2" d="M.364 108.748h83.144v3.846H.364z"/><path d="M47.05 43.902h-5.555v7.663h9.183v-5.96a1.71 1.71 0 0 0-1.71-1.703H47.05z" fill="#B3B3B3"/><path d="M49.156 43.902v7.663h1.522v-6.238c-.005-.757-1.058-1.425-1.522-1.425z" fill="#E6E6E6"/></g><g fill-rule="nonzero"><g transform="rotate(-90 283.616 -127.197)"><path fill="#CCC" d="M12.336 35.58v-.694h15.53v.694h11.736V5.55H.599v30.03z"/><path fill="#CCC" d="M27.867.743v.694h-15.53V.743H.598v29.8h39.003V.744z"/><circle fill="#641D1C" cx="20.102" cy="18.164" r="9.615"/><path d="M29.714 17.69c0-5.306-4.301-9.61-9.612-9.61-5.31 0-9.62 4.3-9.62 9.61v.469c0-5.307 4.306-9.612 9.62-9.612 5.31 0 9.612 4.305 9.612 9.612v-.468z" fill="#000" opacity=".2"/><circle fill="#852725" cx="20.102" cy="18.163" r="9.264"/><circle fill="#C14C4A" cx="20.102" cy="18.382" r="9.262"/><path d="M20.322 27.426c5.117 0 9.264-4.145 9.264-9.27a9.26 9.26 0 0 0-9.264-9.263h-.44c5.117 0 9.264 4.15 9.264 9.262 0 5.126-4.147 9.271-9.263 9.271h.44z" fill="#000" opacity=".1"/><path d="M20.322 8.899a9.262 9.262 0 0 0-9.264 9.262 9.261 9.261 0 0 0 9.264 9.271h-.44c-5.116 0-9.263-4.145-9.263-9.271a9.26 9.26 0 0 1 9.264-9.262h.44zM.594 35.587v-1h11.741v1zm27.274-.007v-1h11.733v1z" fill="#FFF" opacity=".2"/><path fill="#FFF" opacity=".2" d="M12.336 34.896v-1h15.536v1z"/><path fill="#000" opacity=".2" d="M.596 1.468v-1h11.74v1zm27.27.002v-1h11.733v1z"/><path fill="#000" opacity=".2" d="M12.336 2.165v-1h15.533v1z"/></g><path fill="#E6E6E6" d="M438.366 111.606h4.23v5.167h-4.23zm-23.021 0h4.232v5.167h-4.232zm10.258 43.924h6.42v5.167h-6.42zm12.763 0h4.23v5.167h-4.23zm-23.021 0h4.232v5.167h-4.232z"/><path fill="#FFF" opacity=".2" d="M425.603 160.07h6.42v1h-6.42zm12.763 0h4.23v1h-4.23zm-23.021 0h4.232v1h-4.232z"/><path fill="#000" opacity=".2" d="M438.336 111.526h4.23v1h-4.23zm-23.021 0h4.232v1h-4.232z"/><path fill="#000" opacity=".1" d="M438.396 116.116h4.23v1h-4.23zm-23.021 0h4.232v1h-4.232z"/></g><g font-family="Helvetica" fill="#FFF"><text transform="translate(338.266 208.911)" font-size="12.811"><tspan x=".106" y="13.261">Arduino</tspan></text><text transform="translate(398.362 169.206)" font-size="4.182"><tspan x=".137" y="4.93">TM</tspan></text></g><g fill-rule="nonzero"><path d="M370.764 184.91c1.594-1.747 2.815-3.34 4.286-4.655 5.576-4.991 11.852-6.844 19.037-3.815 6.8 2.864 10.478 9.948 9 17.175-1.367 6.669-7.778 11.748-14.78 11.986-6.488.22-11.363-2.681-15.425-7.392-.624-.723-1.214-1.477-2-2.437-.561.66-.997 1.16-1.424 1.687-4.346 5.476-9.745 8.582-17 8.118-7.112-.457-13.62-6.99-14.054-14.095-.569-9.005 6.303-16.397 15.845-16.478 6.315-.054 11.256 3.208 15.11 8.118.417.543.843 1.079 1.405 1.789z" fill="#FFF"/><path d="M355.166 180.006c-6.57-.01-11.37 4.202-11.899 9.646-.473 4.825 3.362 9.653 8.637 10.797 5.197 1.127 9.352-1.035 12.483-4.807 4.808-5.774 4.635-4.776.058-10.506-2.545-3.185-6.017-4.972-9.28-5.13zm32.549-.045c-.804.055-1.39.038-1.956.149-5.571 1.125-9.064 4.823-11.69 9.55-.204.371-.212 1.057-.007 1.422 2.371 4.104 5.333 7.616 10.05 9.096 4.573 1.434 8.574.248 11.725-3.26 2.826-3.145 3.469-6.868 1.6-10.748-1.982-4.102-5.512-5.912-9.722-6.209z" fill="#00979D"/><path d="M359.864 191.516a.269.269 0 0 1-.27.269h-9.71a.273.273 0 0 1-.273-.27v-2.932a.27.27 0 0 1 .273-.27h9.71a.27.27 0 0 1 .27.27v2.933zm32.072-2.93a.27.27 0 0 0-.273-.268h-2.858a.27.27 0 0 1-.268-.267v-2.856a.27.27 0 0 0-.27-.27h-2.936a.27.27 0 0 0-.269.27v2.858a.27.27 0 0 1-.272.267h-2.857a.275.275 0 0 0-.274.268v2.934c0 .146.12.268.274.268h2.857c.146 0 .272.12.272.269v2.856c0 .147.118.267.269.267h2.937a.27.27 0 0 0 .269-.267v-2.856c0-.147.118-.269.268-.269h2.858c.147 0 .273-.12.273-.268v-2.936z" fill="#FFF"/><g transform="translate(407.761 174.751)" fill="#FFF"><circle cx="24.55" cy="1.618" r="1.067"/><circle cx="21.889" cy="1.618" r="1.067"/><circle cx="19.227" cy="1.618" r="1.067"/><circle cx="16.564" cy="1.618" r="1.067"/><circle cx="13.644" cy="29.404" r="1.067"/><circle cx="11.145" cy="28.872" r="1.067"/><circle cx="8.781" cy="27.895" r="1.067"/><circle cx="6.637" cy="26.502" r="1.067"/><circle cx="4.784" cy="24.742" r="1.067"/><circle cx="3.279" cy="22.673" r="1.067"/><circle cx="2.182" cy="20.365" r="1.067"/><circle cx="1.518" cy="17.896" r="1.065"/><circle cx="1.319" cy="15.348" r="1.067"/><path d="M1.697 11.744a1.069 1.069 0 0 1-.224 2.125 1.069 1.069 0 0 1 .224-2.125zm.919-2.414a1.069 1.069 0 0 1-.605 2.048 1.068 1.068 0 1 1 .605-2.048z"/><circle cx="3.471" cy="8.076" r="1.067"/><circle cx="5.027" cy="6.047" r="1.067"/><circle cx="6.924" cy="4.337" r="1.067"/><circle cx="9.108" cy="3.001" r="1.067"/><circle cx="11.492" cy="2.084" r="1.067"/><circle cx="14.007" cy="1.618" r="1.067"/><circle cx="16.564" cy="1.618" r="1.067"/><circle cx="24.55" cy="29.676" r="1.067"/><circle cx="21.889" cy="29.676" r="1.067"/><circle cx="19.227" cy="29.676" r="1.067"/><circle cx="16.564" cy="29.676" r="1.067"/><circle cx="61.833" cy="1.618" r="1.067"/><circle cx="59.169" cy="1.618" r="1.067"/><circle cx="56.508" cy="1.618" r="1.067"/><circle cx="53.843" cy="1.618" r="1.067"/><circle cx="51.183" cy="1.618" r="1.067"/><circle cx="48.518" cy="1.618" r="1.067"/><circle cx="45.857" cy="1.618" r="1.067"/><circle cx="43.193" cy="1.618" r="1.067"/><circle cx="40.528" cy="1.618" r="1.067"/><circle cx="37.867" cy="1.618" r="1.067"/><circle cx="35.203" cy="1.618" r="1.067"/><circle cx="32.542" cy="1.618" r="1.067"/><circle cx="29.877" cy="1.618" r="1.067"/><circle cx="27.217" cy="1.618" r="1.067"/><circle cx="61.94" cy="29.582" r="1.065"/><circle cx="64.473" cy="29.08" r="1.065"/><circle cx="66.873" cy="28.124" r="1.067"/><circle cx="69.056" cy="26.745" r="1.065"/><circle cx="70.95" cy="24.988" r="1.067"/><circle cx="72.491" cy="22.913" r="1.065"/><circle cx="73.626" cy="20.593" r="1.065"/><circle cx="74.316" cy="18.103" r="1.065"/><circle cx="74.54" cy="15.528" r="1.065"/><circle cx="74.29" cy="12.958" r="1.065"/><circle cx="73.566" cy="10.476" r="1.065"/><circle cx="72.411" cy="8.168" r="1.065"/><circle cx="70.847" cy="6.112" r="1.065"/><circle cx="68.932" cy="4.376" r="1.067"/><circle cx="66.734" cy="3.021" r="1.065"/><circle cx="64.323" cy="2.091" r="1.067"/><circle cx="61.782" cy="1.618" r="1.067"/><circle cx="59.199" cy="1.618" r="1.067"/><circle cx="61.833" cy="29.676" r="1.067"/><circle cx="59.169" cy="29.676" r="1.067"/><circle cx="56.508" cy="29.676" r="1.067"/><circle cx="53.843" cy="29.676" r="1.067"/><circle cx="51.183" cy="29.676" r="1.067"/><circle cx="48.518" cy="29.676" r="1.067"/><circle cx="45.857" cy="29.676" r="1.067"/><circle cx="43.193" cy="29.676" r="1.067"/><circle cx="40.528" cy="29.676" r="1.067"/><circle cx="37.867" cy="29.676" r="1.067"/><circle cx="35.203" cy="29.676" r="1.067"/><circle cx="32.542" cy="29.676" r="1.067"/><circle cx="29.877" cy="29.676" r="1.067"/><circle cx="27.217" cy="29.676" r="1.067"/></g></g><text fill="#FFF" font-family="Helvetica" font-size="5.637" transform="translate(0 -1.004)"><tspan x="465.892" y="215.11">2560</tspan></text></g></svg>