<?xml version="1.0" encoding="UTF-8"?>
<svg width="150px" height="150px" viewBox="0 0 150 150" version="1.1" xmlns="http://www.w3.org/2000/svg" xmlns:xlink="http://www.w3.org/1999/xlink">
    <!-- Generator: Sketch 46.1 (44463) - http://www.bohemiancoding.com/sketch -->
    <title>hts221</title>
    <desc>Created with Sketch.</desc>
    <defs>
        <path d="M0.890625,4.44579466 C0.890625,2.50821702 2.45192118,0.9375 4.39020904,0.9375 L61.844166,0.9375 C63.7769329,0.9375 65.34375,2.50626416 65.34375,4.44579466 L65.34375,81.5698303 C65.34375,83.507408 63.7824538,85.078125 61.844166,85.078125 L4.39020904,85.078125 C2.45744214,85.078125 0.890625,83.5093608 0.890625,81.5698303 L0.890625,4.44579466 Z M43.6258492,0.9375 L43.6258492,6.546875 L50.6316236,6.546875 L50.6316236,0.9375 L43.6258492,0.9375 Z M29.6143003,0.9375 L29.6143003,6.546875 L36.6200747,6.546875 L36.6200747,0.9375 L29.6143003,0.9375 Z M57.6373981,28.2832031 L57.6373981,35.2949219 L65.34375,35.2949219 L65.34375,28.2832031 L57.6373981,28.2832031 Z M57.6373981,42.3066406 L57.6373981,49.3183594 L65.34375,49.3183594 L65.34375,42.3066406 L57.6373981,42.3066406 Z M57.6373981,70.3535156 L57.6373981,77.3652344 L65.34375,77.3652344 L65.34375,70.3535156 L57.6373981,70.3535156 Z M15.6027514,0.9375 L15.6027514,6.546875 L22.6085258,6.546875 L22.6085258,0.9375 L15.6027514,0.9375 Z M15.6027514,14.2597656 L15.6027514,21.2714844 L22.6085258,21.2714844 L22.6085258,14.2597656 L15.6027514,14.2597656 Z M29.6143003,14.2597656 L29.6143003,21.2714844 L36.6200747,21.2714844 L36.6200747,14.2597656 L29.6143003,14.2597656 Z M43.6258492,14.2597656 L43.6258492,21.2714844 L50.6316236,21.2714844 L50.6316236,14.2597656 L43.6258492,14.2597656 Z M15.6027514,28.2832031 L15.6027514,35.2949219 L22.6085258,35.2949219 L22.6085258,28.2832031 L15.6027514,28.2832031 Z M29.6143003,28.2832031 L29.6143003,35.2949219 L36.6200747,35.2949219 L36.6200747,28.2832031 L29.6143003,28.2832031 Z M43.6258492,28.2832031 L43.6258492,35.2949219 L50.6316236,35.2949219 L50.6316236,28.2832031 L43.6258492,28.2832031 Z M15.6027514,42.3066406 L15.6027514,49.3183594 L22.6085258,49.3183594 L22.6085258,42.3066406 L15.6027514,42.3066406 Z M29.6143003,42.3066406 L29.6143003,49.3183594 L36.6200747,49.3183594 L36.6200747,42.3066406 L29.6143003,42.3066406 Z M43.6258492,42.3066406 L43.6258492,49.3183594 L50.6316236,49.3183594 L50.6316236,42.3066406 L43.6258492,42.3066406 Z M15.6027514,56.3300781 L15.6027514,63.3417969 L22.6085258,63.3417969 L22.6085258,56.3300781 L15.6027514,56.3300781 Z M29.6143003,56.3300781 L29.6143003,63.3417969 L36.6200747,63.3417969 L36.6200747,56.3300781 L29.6143003,56.3300781 Z M43.6258492,56.3300781 L43.6258492,63.3417969 L50.6316236,63.3417969 L50.6316236,56.3300781 L43.6258492,56.3300781 Z M15.6027514,70.3535156 L15.6027514,77.3652344 L22.6085258,77.3652344 L22.6085258,70.3535156 L15.6027514,70.3535156 Z M0.890625,28.2832031 L0.890625,35.2949219 L8.5969769,35.2949219 L8.5969769,28.2832031 L0.890625,28.2832031 Z M0.890625,42.3066406 L0.890625,49.3183594 L8.5969769,49.3183594 L8.5969769,42.3066406 L0.890625,42.3066406 Z M0.890625,70.3535156 L0.890625,77.3652344 L8.5969769,77.3652344 L8.5969769,70.3535156 L0.890625,70.3535156 Z M29.6143003,70.3535156 L29.6143003,77.3652344 L36.6200747,77.3652344 L36.6200747,70.3535156 L29.6143003,70.3535156 Z M43.6258492,70.3535156 L43.6258492,77.3652344 L50.6316236,77.3652344 L50.6316236,70.3535156 L43.6258492,70.3535156 Z" id="path-1"></path>
    </defs>
    <g id="Page-1" stroke="none" stroke-width="1" fill="none" fill-rule="evenodd">
        <g id="hts221">
            <g id="Group" transform="translate(42.000000, 26.000000)">
                <rect id="Rectangle-1498" fill="#1F73C9" opacity="0.519881063" x="5.8125" y="8.203125" width="54.375" height="70.546875"></rect>
                <rect id="Rectangle-1498" fill="#FFFFFF" opacity="0.519881063" x="18.703125" y="31.640625" width="29.0625" height="14.765625"></rect>
                <g id="Combined-Shape">
                    <use fill="#1891EC" fill-rule="evenodd" xlink:href="#path-1"></use>
                    <path stroke="#1891EC" stroke-width="0.699703165" d="M1.24047658,4.44579466 L1.24047658,81.5698303 C1.24047658,83.3156331 2.65015155,84.7282734 4.39020904,84.7282734 L61.844166,84.7282734 C63.5870487,84.7282734 64.9938984,83.3163834 64.9938984,81.5698303 L64.9938984,4.44579466 C64.9938984,2.69999193 63.5842234,1.28735158 61.844166,1.28735158 L4.39020904,1.28735158 C2.64732629,1.28735158 1.24047658,2.69924157 1.24047658,4.44579466 Z M43.2759976,6.89672658 L43.2759976,0.587648417 L50.9814752,0.587648417 L50.9814752,6.89672658 L43.2759976,6.89672658 Z M29.2644487,6.89672658 L29.2644487,0.587648417 L36.9699263,0.587648417 L36.9699263,6.89672658 L29.2644487,6.89672658 Z M57.2875465,35.6447735 L57.2875465,27.9333515 L65.6936016,27.9333515 L65.6936016,35.6447735 L57.2875465,35.6447735 Z M57.2875465,49.668211 L57.2875465,41.956789 L65.6936016,41.956789 L65.6936016,49.668211 L57.2875465,49.668211 Z M57.2875465,77.715086 L57.2875465,70.003664 L65.6936016,70.003664 L65.6936016,77.715086 L57.2875465,77.715086 Z M15.2528998,6.89672658 L15.2528998,0.587648417 L22.9583774,0.587648417 L22.9583774,6.89672658 L15.2528998,6.89672658 Z M15.2528998,21.621336 L15.2528998,13.909914 L22.9583774,13.909914 L22.9583774,21.621336 L15.2528998,21.621336 Z M29.2644487,21.621336 L29.2644487,13.909914 L36.9699263,13.909914 L36.9699263,21.621336 L29.2644487,21.621336 Z M43.2759976,21.621336 L43.2759976,13.909914 L50.9814752,13.909914 L50.9814752,21.621336 L43.2759976,21.621336 Z M15.2528998,35.6447735 L15.2528998,27.9333515 L22.9583774,27.9333515 L22.9583774,35.6447735 L15.2528998,35.6447735 Z M29.2644487,35.6447735 L29.2644487,27.9333515 L36.9699263,27.9333515 L36.9699263,35.6447735 L29.2644487,35.6447735 Z M43.2759976,35.6447735 L43.2759976,27.9333515 L50.9814752,27.9333515 L50.9814752,35.6447735 L43.2759976,35.6447735 Z M15.2528998,49.668211 L15.2528998,41.956789 L22.9583774,41.956789 L22.9583774,49.668211 L15.2528998,49.668211 Z M29.2644487,49.668211 L29.2644487,41.956789 L36.9699263,41.956789 L36.9699263,49.668211 L29.2644487,49.668211 Z M43.2759976,49.668211 L43.2759976,41.956789 L50.9814752,41.956789 L50.9814752,49.668211 L43.2759976,49.668211 Z M15.2528998,63.6916485 L15.2528998,55.9802265 L22.9583774,55.9802265 L22.9583774,63.6916485 L15.2528998,63.6916485 Z M29.2644487,63.6916485 L29.2644487,55.9802265 L36.9699263,55.9802265 L36.9699263,63.6916485 L29.2644487,63.6916485 Z M43.2759976,63.6916485 L43.2759976,55.9802265 L50.9814752,55.9802265 L50.9814752,63.6916485 L43.2759976,63.6916485 Z M15.2528998,77.715086 L15.2528998,70.003664 L22.9583774,70.003664 L22.9583774,77.715086 L15.2528998,77.715086 Z M0.540773417,35.6447735 L0.540773417,27.9333515 L8.94682848,27.9333515 L8.94682848,35.6447735 L0.540773417,35.6447735 Z M0.540773417,49.668211 L0.540773417,41.956789 L8.94682848,41.956789 L8.94682848,49.668211 L0.540773417,49.668211 Z M0.540773417,77.715086 L0.540773417,70.003664 L8.94682848,70.003664 L8.94682848,77.715086 L0.540773417,77.715086 Z M29.2644487,77.715086 L29.2644487,70.003664 L36.9699263,70.003664 L36.9699263,77.715086 L29.2644487,77.715086 Z M43.2759976,70.003664 L50.9814752,70.003664 L50.9814752,77.715086 L43.2759976,77.715086 L43.2759976,70.003664 Z"></path>
                </g>
                <rect id="Rectangle-1529" fill="#C3C3C8" x="10.03125" y="91.875" width="7.03125" height="7.03125"></rect>
                <circle id="Oval-60" fill="#C3C3C8" cx="26.90625" cy="95.390625" r="3.515625"></circle>
                <circle id="Oval-60-Copy" fill="#C3C3C8" cx="39.5625" cy="95.390625" r="3.515625"></circle>
                <circle id="Oval-60-Copy-2" fill="#C3C3C8" cx="52.921875" cy="95.390625" r="3.515625"></circle>
                <rect id="Rectangle-1525" fill="#C3C3C8" x="11.671875" y="85.3125" width="4.21875" height="10.3125"></rect>
                <rect id="Rectangle-1525-Copy" fill="#C3C3C8" x="24.796875" y="85.3125" width="4.21875" height="10.3125"></rect>
                <rect id="Rectangle-1525-Copy-2" fill="#C3C3C8" x="37.921875" y="85.3125" width="4.21875" height="10.3125"></rect>
                <rect id="Rectangle-1525-Copy-3" fill="#C3C3C8" x="50.578125" y="85.3125" width="4.21875" height="10.3125"></rect>
            </g>
        </g>
    </g>
</svg>