<?xml version="1.0" encoding="UTF-8"?>
<svg width="150px" height="150px" viewBox="0 0 150 150" version="1.1" xmlns="http://www.w3.org/2000/svg" xmlns:xlink="http://www.w3.org/1999/xlink">
    <!-- Generator: Sketch 46.1 (44463) - http://www.bohemiancoding.com/sketch -->
    <title>rtc</title>
    <desc>Created with Sketch.</desc>
    <defs>
        <linearGradient x1="50%" y1="-0.202678571%" x2="50%" y2="100.24375%" id="linearGradient-1">
            <stop stop-color="#9C9C9C" offset="0%"></stop>
            <stop stop-color="#4D4D4D" offset="100%"></stop>
        </linearGradient>
    </defs>
    <g id="Page-1" stroke="none" stroke-width="1" fill="none" fill-rule="evenodd">
        <g id="rtc">
            <path d="M77.0407407,51.5855263 C74.5703704,51.5855263 72.5296296,53.6105263 72.5296296,56.0618421 L72.5296296,61.9236842 C66.7296296,55.5289474 58.3518519,51.5855263 49.0074074,51.5855263 C31.5,51.5855263 17.3222222,65.6539474 17.3222222,83.0263158 C17.3222222,100.398684 31.5,114.467105 49.0074074,114.467105 C58.3518519,114.467105 66.7296296,110.417105 72.5296296,104.128947 L72.5296296,109.990789 C72.5296296,112.442105 74.5703704,114.467105 77.0407407,114.467105 C79.5111111,114.467105 81.5518519,112.442105 81.5518519,109.990789 L81.5518519,56.0618421 C81.6592593,53.6105263 79.5111111,51.5855263 77.0407407,51.5855263 Z" id="Shape" fill="#84899D"></path>
            <ellipse id="Oval" fill="#D7DAE5" cx="49.0074074" cy="83.0263158" rx="27.6037037" ry="27.3907895"></ellipse>
            <path d="M52.9814815,63.9486842 L49.6518519,63.9486842 L49.6518519,60.6447368 C49.6518519,60.2184211 49.3296296,60.0052632 49.0074074,60.0052632 C48.6851852,60.0052632 48.362963,60.325 48.362963,60.6447368 L48.362963,63.9486842 L45.0333333,63.9486842 C44.6037037,63.9486842 44.3888889,64.2684211 44.3888889,64.5881579 C44.3888889,65.0144737 44.7111111,65.2276316 45.0333333,65.2276316 L48.362963,65.2276316 L48.362963,68.5315789 C48.362963,68.9578947 48.6851852,69.1710526 49.0074074,69.1710526 C49.3296296,69.1710526 49.6518519,68.8513158 49.6518519,68.5315789 L49.6518519,65.2276316 L52.9814815,65.2276316 C53.4111111,65.2276316 53.6259259,64.9078947 53.6259259,64.5881579 C53.6259259,64.2684211 53.3037037,63.9486842 52.9814815,63.9486842 Z" id="Shape" fill="#84899D" fill-rule="nonzero"></path>
            <path d="M46.4296296,101.038158 C46.7518519,100.825 47.0740741,100.611842 47.2888889,100.292105 C47.5037037,99.9723684 47.6111111,99.6526316 47.6111111,99.2263158 C47.6111111,98.4802632 47.3962963,97.9473684 46.9666667,97.5210526 C46.537037,97.0947368 45.8925926,96.8815789 45.0333333,96.8815789 C44.4962963,96.8815789 44.0666667,96.9881579 43.7444444,97.2013158 C43.3148148,97.4144737 42.9925926,97.6276316 42.7777778,97.9473684 C42.562963,98.2671053 42.4555556,98.6934211 42.4555556,99.1197368 L43.8518519,99.1197368 C43.8518519,98.8 43.9592593,98.4802632 44.1740741,98.2671053 C44.3888889,98.0539474 44.7111111,97.9473684 45.0333333,97.9473684 C45.462963,97.9473684 45.7851852,98.0539474 46,98.2671053 C46.2148148,98.4802632 46.3222222,98.8 46.3222222,99.1197368 C46.3222222,99.5460526 46.2148148,99.8657895 46,100.078947 C45.7851852,100.292105 45.462963,100.398684 45.0333333,100.398684 L44.1740741,100.398684 L44.1740741,101.464474 L44.9259259,101.464474 C45.462963,101.464474 45.7851852,101.571053 46,101.784211 C46.2148148,101.997368 46.4296296,102.317105 46.4296296,102.743421 C46.4296296,103.169737 46.3222222,103.489474 46.1074074,103.702632 C45.8925926,103.915789 45.5703704,104.022368 45.1407407,104.022368 C44.7111111,104.022368 44.3888889,103.915789 44.1740741,103.702632 C43.9592593,103.489474 43.8518519,103.169737 43.8518519,102.85 L42.4555556,102.85 C42.4555556,103.489474 42.6703704,104.128947 43.2074074,104.448684 C43.7444444,104.875 44.3888889,105.088158 45.1407407,105.088158 C46,105.088158 46.6444444,104.875 47.0740741,104.448684 C47.6111111,104.022368 47.8259259,103.489474 47.8259259,102.743421 C47.8259259,102.317105 47.7185185,101.890789 47.5037037,101.571053 C47.1814815,101.357895 46.8592593,101.144737 46.4296296,101.038158 Z" id="Shape" fill="#84899D" fill-rule="nonzero"></path>
            <polygon id="Shape" fill="#84899D" fill-rule="nonzero" points="54.162963 97.0947368 52.1222222 103.382895 50.0814815 97.0947368 48.4703704 97.0947368 51.3703704 105.088158 52.7666667 105.088158 55.6666667 97.0947368"></polygon>
            <path d="M77.4703704,110.417105 L77.362963,110.417105 C76.7185185,110.417105 76.1814815,109.884211 76.1814815,109.244737 L76.1814815,56.8078947 C76.1814815,56.1684211 76.7185185,55.6355263 77.362963,55.6355263 L77.4703704,55.6355263 C78.1148148,55.6355263 78.6518519,56.1684211 78.6518519,56.8078947 L78.6518519,109.244737 C78.6518519,109.884211 78.1148148,110.417105 77.4703704,110.417105 Z" id="Shape" fill="#FFB53D"></path>
            <path d="M93.0444444,52.0118421 C92.1851852,52.0118421 91.4333333,54.6763158 91.4333333,57.9802632 C91.4333333,61.2842105 92.1851852,63.9486842 93.0444444,63.9486842 L131.496296,63.9486842 L131.496296,52.0118421 L93.0444444,52.0118421 L93.0444444,52.0118421 Z" id="Shape" fill="#525260"></path>
            <ellipse id="Oval" fill="url(#linearGradient-1)" cx="131.388889" cy="57.9802632" rx="1.18148148" ry="5.96842105"></ellipse>
            <path d="M94.9777778,96.9881579 L94.5481481,96.9881579 C94.1185185,96.9881579 93.6888889,96.5618421 93.6888889,96.1355263 L93.6888889,91.6592105 C93.6888889,91.2328947 94.1185185,90.8065789 94.5481481,90.8065789 L94.9777778,90.8065789 C95.4074074,90.8065789 95.837037,91.2328947 95.837037,91.6592105 L95.837037,96.1355263 C95.837037,96.6684211 95.5148148,96.9881579 94.9777778,96.9881579 Z" id="Shape" fill="#D7DAE5"></path>
            <path d="M101.422222,96.9881579 L100.992593,96.9881579 C100.562963,96.9881579 100.133333,96.5618421 100.133333,96.1355263 L100.133333,91.6592105 C100.133333,91.2328947 100.562963,90.8065789 100.992593,90.8065789 L101.422222,90.8065789 C101.851852,90.8065789 102.281481,91.2328947 102.281481,91.6592105 L102.281481,96.1355263 C102.281481,96.6684211 101.959259,96.9881579 101.422222,96.9881579 Z" id="Shape" fill="#D7DAE5"></path>
            <path d="M107.866667,96.9881579 L107.437037,96.9881579 C107.007407,96.9881579 106.577778,96.5618421 106.577778,96.1355263 L106.577778,91.6592105 C106.577778,91.2328947 107.007407,90.8065789 107.437037,90.8065789 L107.866667,90.8065789 C108.296296,90.8065789 108.725926,91.2328947 108.725926,91.6592105 L108.725926,96.1355263 C108.725926,96.6684211 108.403704,96.9881579 107.866667,96.9881579 Z" id="Shape" fill="#D7DAE5"></path>
            <path d="M114.311111,96.9881579 L113.881481,96.9881579 C113.451852,96.9881579 113.022222,96.5618421 113.022222,96.1355263 L113.022222,91.6592105 C113.022222,91.2328947 113.451852,90.8065789 113.881481,90.8065789 L114.311111,90.8065789 C114.740741,90.8065789 115.17037,91.2328947 115.17037,91.6592105 L115.17037,96.1355263 C115.17037,96.6684211 114.848148,96.9881579 114.311111,96.9881579 Z" id="Shape" fill="#D7DAE5"></path>
            <path d="M94.9777778,77.4842105 L94.5481481,77.4842105 C94.1185185,77.4842105 93.6888889,77.0578947 93.6888889,76.6315789 L93.6888889,72.1552632 C93.6888889,71.7289474 94.1185185,71.3026316 94.5481481,71.3026316 L94.9777778,71.3026316 C95.4074074,71.3026316 95.837037,71.7289474 95.837037,72.1552632 L95.837037,76.6315789 C95.837037,77.0578947 95.5148148,77.4842105 94.9777778,77.4842105 Z" id="Shape" fill="#D7DAE5"></path>
            <path d="M101.422222,77.4842105 L100.992593,77.4842105 C100.562963,77.4842105 100.133333,77.0578947 100.133333,76.6315789 L100.133333,72.1552632 C100.133333,71.7289474 100.562963,71.3026316 100.992593,71.3026316 L101.422222,71.3026316 C101.851852,71.3026316 102.281481,71.7289474 102.281481,72.1552632 L102.281481,76.6315789 C102.281481,77.0578947 101.959259,77.4842105 101.422222,77.4842105 Z" id="Shape" fill="#D7DAE5"></path>
            <path d="M107.866667,77.4842105 L107.437037,77.4842105 C107.007407,77.4842105 106.577778,77.0578947 106.577778,76.6315789 L106.577778,72.1552632 C106.577778,71.7289474 107.007407,71.3026316 107.437037,71.3026316 L107.866667,71.3026316 C108.296296,71.3026316 108.725926,71.7289474 108.725926,72.1552632 L108.725926,76.6315789 C108.725926,77.0578947 108.403704,77.4842105 107.866667,77.4842105 Z" id="Shape" fill="#D7DAE5"></path>
            <path d="M114.311111,77.4842105 L113.881481,77.4842105 C113.451852,77.4842105 113.022222,77.0578947 113.022222,76.6315789 L113.022222,72.1552632 C113.022222,71.7289474 113.451852,71.3026316 113.881481,71.3026316 L114.311111,71.3026316 C114.740741,71.3026316 115.17037,71.7289474 115.17037,72.1552632 L115.17037,76.6315789 C115.17037,77.0578947 114.848148,77.4842105 114.311111,77.4842105 Z" id="Shape" fill="#D7DAE5"></path>
            <rect id="Rectangle-path" fill="#525260" x="92.6148148" y="76.4184211" width="23.4148148" height="15.4539474"></rect>
            <path d="M94.8703704,114.147368 L94.8703704,114.147368 C93.9037037,114.147368 93.0444444,113.294737 93.0444444,112.335526 L93.0444444,105.940789 C93.0444444,104.981579 93.9037037,104.128947 94.8703704,104.128947 L94.8703704,104.128947 C95.837037,104.128947 96.6962963,104.981579 96.6962963,105.940789 L96.6962963,112.335526 C96.6962963,113.294737 95.9444444,114.147368 94.8703704,114.147368 Z" id="Shape" fill="#D7DAE5" fill-rule="nonzero"></path>
            <rect id="Rectangle-path" fill="#525260" fill-rule="nonzero" x="93.0444444" y="105.940789" width="3.65185185" height="6.39473684"></rect>
            <path d="M102.281481,114.147368 L102.281481,114.147368 C101.314815,114.147368 100.455556,113.294737 100.455556,112.335526 L100.455556,105.940789 C100.455556,104.981579 101.314815,104.128947 102.281481,104.128947 L102.281481,104.128947 C103.248148,104.128947 104.107407,104.981579 104.107407,105.940789 L104.107407,112.335526 C104.107407,113.294737 103.248148,114.147368 102.281481,114.147368 Z" id="Shape" fill="#D7DAE5" fill-rule="nonzero"></path>
            <rect id="Rectangle-path" fill="#525260" fill-rule="nonzero" x="100.455556" y="105.940789" width="3.65185185" height="6.39473684"></rect>
            <path d="M109.585185,114.147368 L109.585185,114.147368 C108.618519,114.147368 107.759259,113.294737 107.759259,112.335526 L107.759259,105.940789 C107.759259,104.981579 108.618519,104.128947 109.585185,104.128947 L109.585185,104.128947 C110.551852,104.128947 111.411111,104.981579 111.411111,105.940789 L111.411111,112.335526 C111.411111,113.294737 110.659259,114.147368 109.585185,114.147368 Z" id="Shape" fill="#D7DAE5" fill-rule="nonzero"></path>
            <rect id="Rectangle-path" fill="#525260" fill-rule="nonzero" x="107.759259" y="105.940789" width="3.65185185" height="6.39473684"></rect>
            <path d="M116.996296,114.147368 L116.996296,114.147368 C116.02963,114.147368 115.17037,113.294737 115.17037,112.335526 L115.17037,105.940789 C115.17037,104.981579 116.02963,104.128947 116.996296,104.128947 L116.996296,104.128947 C117.962963,104.128947 118.822222,104.981579 118.822222,105.940789 L118.822222,112.335526 C118.822222,113.294737 117.962963,114.147368 116.996296,114.147368 Z" id="Shape" fill="#D7DAE5" fill-rule="nonzero"></path>
            <rect id="Rectangle-path" fill="#525260" fill-rule="nonzero" x="115.062963" y="105.940789" width="3.65185185" height="6.39473684"></rect>
            <path d="M124.3,114.147368 L124.3,114.147368 C123.333333,114.147368 122.474074,113.294737 122.474074,112.335526 L122.474074,105.940789 C122.474074,104.981579 123.333333,104.128947 124.3,104.128947 L124.3,104.128947 C125.266667,104.128947 126.125926,104.981579 126.125926,105.940789 L126.125926,112.335526 C126.125926,113.294737 125.266667,114.147368 124.3,114.147368 Z" id="Shape" fill="#D7DAE5" fill-rule="nonzero"></path>
            <rect id="Rectangle-path" fill="#525260" fill-rule="nonzero" x="122.474074" y="105.940789" width="3.65185185" height="6.39473684"></rect>
            <path d="M122.474074,89.1013158 L122.474074,89.1013158 C121.507407,89.1013158 120.648148,88.2486842 120.648148,87.2894737 L120.648148,80.8947368 C120.648148,79.9355263 121.507407,79.0828947 122.474074,79.0828947 L122.474074,79.0828947 C123.440741,79.0828947 124.3,79.9355263 124.3,80.8947368 L124.3,87.2894737 C124.3,88.3552632 123.440741,89.1013158 122.474074,89.1013158 Z" id="Shape" fill="#D7DAE5" fill-rule="nonzero"></path>
            <rect id="Rectangle-path" fill="#525260" fill-rule="nonzero" x="120.648148" y="80.8947368" width="3.65185185" height="6.39473684"></rect>
            <path d="M31.1276596,29.8571429 C31.1276596,29.5079365 30.9361702,29.1587302 30.7446809,28.984127 C30.5531915,28.8095238 29.787234,28.4603175 29.0212766,28.2857143 C28.2553191,28.1111111 27.4893617,27.7619048 27.106383,27.5873016 C25.7659574,26.8888889 25.1914894,26.015873 25.1914894,24.968254 C25.1914894,24.4444444 25.3829787,23.9206349 25.7659574,23.3968254 C26.1489362,22.8730159 26.5319149,22.5238095 27.2978723,22.3492063 C28.0638298,22.1746032 28.6382979,22 29.5957447,22 C30.3617021,22 31.1276596,22.1746032 31.893617,22.3492063 C32.4680851,22.6984127 33.0425532,23.047619 33.4255319,23.5714286 C33.8085106,24.0952381 34,24.6190476 34,25.3174603 L31.7021277,25.3174603 C31.7021277,24.7936508 31.5106383,24.4444444 31.1276596,24.2698413 C30.7446809,23.9206349 30.3617021,23.9206349 29.787234,23.9206349 C29.212766,23.9206349 28.8297872,24.0952381 28.4468085,24.2698413 C28.0638298,24.4444444 27.8723404,24.7936508 27.8723404,25.1428571 C27.8723404,25.4920635 28.0638298,25.8412698 28.4468085,26.015873 C28.8297872,26.1904762 29.4042553,26.5396825 30.1702128,26.7142857 C31.5106383,27.0634921 32.4680851,27.5873016 33.0425532,28.1111111 C33.6170213,28.6349206 34,29.3333333 34,30.2063492 C34,31.0793651 33.6170213,31.7777778 32.8510638,32.3015873 C32.0851064,32.8253968 31.1276596,33 29.787234,33 C28.8297872,33 28.0638298,32.8253968 27.2978723,32.4761905 C26.5319149,32.1269841 25.9574468,31.7777778 25.5744681,31.2539683 C25.1914894,30.7301587 25,30.2063492 25,29.5079365 L27.2978723,29.5079365 C27.2978723,30.7301587 28.0638298,31.2539683 29.5957447,31.2539683 C30.1702128,31.2539683 30.5531915,31.0793651 30.9361702,30.9047619 C31.3191489,30.7301587 31.1276596,30.3809524 31.1276596,29.8571429 Z" id="Shape" fill="#909090" fill-rule="nonzero"></path>
            <path d="M35,32.8196721 L35,22 L38.6382979,22 C39.5957447,22 40.5531915,22.1803279 41.3191489,22.7213115 C42.0851064,23.0819672 42.6595745,23.8032787 43.2340426,24.5245902 C43.6170213,25.2459016 44,26.147541 44,27.2295082 L44,27.7704918 C44,28.852459 43.8085106,29.7540984 43.4255319,30.4754098 C43.0425532,31.1967213 42.2765957,31.9180328 41.5106383,32.2786885 C40.7446809,32.6393443 39.787234,33 38.8297872,33 L35,33 L35,32.8196721 Z M37.4893617,23.8032787 L37.4893617,31.0163934 L38.6382979,31.0163934 C39.5957447,31.0163934 40.3617021,30.6557377 40.7446809,30.1147541 C41.1276596,29.5737705 41.5106383,28.6721311 41.5106383,27.5901639 L41.5106383,27.0491803 C41.5106383,25.9672131 41.3191489,25.0655738 40.7446809,24.5245902 C40.1702128,23.9836066 39.5957447,23.6229508 38.6382979,23.6229508 L37.4893617,23.6229508 L37.4893617,23.8032787 Z" id="Shape" fill="#909090" fill-rule="nonzero"></path>
            <path d="M50.8421053,30.8 L46.9824561,30.8 L46.2807018,33 L44,33 L47.8596491,22 L49.9649123,22 L54,33 L51.7192982,33 L50.8421053,30.8 Z M47.5087719,28.9666667 L50.1403509,28.9666667 L48.7368421,24.75 L47.5087719,28.9666667 Z" id="Shape" fill="#909090" fill-rule="nonzero"></path>
            <path d="M106.12766,29.8571429 C106.12766,29.5079365 105.93617,29.1587302 105.744681,28.984127 C105.553191,28.8095238 104.787234,28.4603175 104.021277,28.2857143 C103.255319,28.1111111 102.489362,27.7619048 102.106383,27.5873016 C100.765957,26.8888889 100.191489,26.015873 100.191489,24.968254 C100.191489,24.4444444 100.382979,23.9206349 100.765957,23.3968254 C101.148936,22.8730159 101.531915,22.5238095 102.297872,22.3492063 C103.06383,22.1746032 103.638298,22 104.595745,22 C105.361702,22 106.12766,22.1746032 106.893617,22.3492063 C107.468085,22.6984127 108.042553,23.047619 108.425532,23.5714286 C108.808511,24.0952381 109,24.6190476 109,25.3174603 L106.702128,25.3174603 C106.702128,24.7936508 106.510638,24.4444444 106.12766,24.2698413 C105.744681,23.9206349 105.361702,23.9206349 104.787234,23.9206349 C104.212766,23.9206349 103.829787,24.0952381 103.446809,24.2698413 C103.06383,24.4444444 102.87234,24.7936508 102.87234,25.1428571 C102.87234,25.4920635 103.06383,25.8412698 103.446809,26.015873 C103.829787,26.1904762 104.404255,26.5396825 105.170213,26.7142857 C106.510638,27.0634921 107.468085,27.5873016 108.042553,28.1111111 C108.617021,28.6349206 109,29.3333333 109,30.2063492 C109,31.0793651 108.617021,31.7777778 107.851064,32.3015873 C107.085106,32.8253968 106.12766,33 104.787234,33 C103.829787,33 103.06383,32.8253968 102.297872,32.4761905 C101.531915,32.1269841 100.957447,31.7777778 100.574468,31.2539683 C100.191489,30.7301587 100,30.2063492 100,29.5079365 L102.297872,29.5079365 C102.297872,30.7301587 103.06383,31.2539683 104.595745,31.2539683 C105.170213,31.2539683 105.553191,31.0793651 105.93617,30.9047619 C106.319149,30.7301587 106.12766,30.3809524 106.12766,29.8571429 Z" id="Shape" fill="#909090" fill-rule="nonzero"></path>
            <path d="M118,29.2741935 C118,30.516129 117.44898,31.4032258 116.714286,31.9354839 C115.979592,32.6451613 114.877551,33 113.591837,33 C112.122449,33 111.020408,32.4677419 110.285714,31.5806452 C109.55102,30.6935484 109,29.4516129 109,27.8548387 L109,27.1451613 C109,26.0806452 109.183673,25.1935484 109.55102,24.483871 C109.918367,23.7741935 110.469388,23.0645161 111.204082,22.7096774 C111.938776,22.3548387 112.673469,22 113.591837,22 C114.877551,22 115.979592,22.3548387 116.714286,23.0645161 C117.44898,23.7741935 118,24.6612903 118,25.9032258 L115.795918,25.9032258 C115.795918,25.1935484 115.612245,24.6612903 115.244898,24.483871 C114.877551,24.3064516 114.326531,23.9516129 113.591837,23.9516129 C112.857143,23.9516129 112.306122,24.1290323 111.938776,24.6612903 C111.571429,25.1935484 111.387755,26.0806452 111.387755,27.1451613 L111.387755,28.0322581 C111.387755,29.2741935 111.571429,29.983871 111.938776,30.516129 C112.306122,31.0483871 112.857143,31.4032258 113.591837,31.4032258 C114.326531,31.4032258 114.877551,31.2258065 115.244898,30.8709677 C115.612245,30.516129 115.795918,30.1612903 115.795918,29.4516129 L118,29.4516129 L118,29.2741935 Z" id="Shape" fill="#909090" fill-rule="nonzero"></path>
            <polygon id="Shape" fill="#909090" fill-rule="nonzero" points="121 31.1666667 125 31.1666667 125 33 119 33 119 22 120.846154 22 120.846154 31.1666667"></polygon>
        </g>
    </g>
</svg>