<svg id="图层_1" data-name="图层 1" xmlns="http://www.w3.org/2000/svg" xmlns:xlink="http://www.w3.org/1999/xlink" viewBox="0 0 418.61 287.38"><defs><style>.cls-1,.cls-27,.cls-28,.cls-29{fill:none;}.cls-2{fill:#3f3f3f;}.cls-3{fill:#262828;}.cls-18,.cls-4{fill:#fff;}.cls-5,.cls-7{fill:#999799;}.cls-6,.cls-8{fill:#f2f2f3;}.cls-10,.cls-16,.cls-17,.cls-24,.cls-7,.cls-8{fill-rule:evenodd;}.cls-17,.cls-9{fill:#f5b647;}.cls-10,.cls-11{fill:#eaaf3c;}.cls-12,.cls-16{fill:#2d2d2d;}.cls-13{fill:#969497;}.cls-14{fill:#1a1b1b;}.cls-15{fill:#c6c4c4;}.cls-18{stroke:#e99b43;}.cls-18,.cls-27,.cls-28,.cls-29{stroke-miterlimit:10;}.cls-18,.cls-28{stroke-width:2px;}.cls-19{fill:#e7e6e6;}.cls-20{clip-path:url(#clip-path);}.cls-21{clip-path:url(#clip-path-2);}.cls-22{fill:#7abd40;}.cls-23{fill:#c4c4c2;}.cls-24{fill:#dc932e;}.cls-25{fill:#1c1d1d;}.cls-26{fill:#a27423;}.cls-27,.cls-29{stroke:#fff;}.cls-28{stroke:#eaaf3c;}.cls-29{stroke-width:0.5px;}</style><clipPath id="clip-path" transform="translate(-211.99 -154.16)"><rect class="cls-1" x="296.95" y="327.34" width="11.79" height="36.88"/></clipPath><clipPath id="clip-path-2" transform="translate(-211.99 -154.16)"><rect class="cls-1" x="388.9" y="327.6" width="11.78" height="36.86" transform="translate(789.69 691.94) rotate(179.98)"/></clipPath></defs><title>控制器</title><rect class="cls-2" x="15.65" y="6.26" width="396.32" height="274.43" rx="14.17" ry="14.17"/><rect class="cls-3" x="0.01" y="147.49" width="72.36" height="66.1"/><path class="cls-4" d="M245,86.76h.64A1.37,1.37,0,0,1,247,88.12V99.59a1.07,1.07,0,0,1-1.07,1.07h-1.24a1.07,1.07,0,0,1-1.07-1.07V88.12A1.37,1.37,0,0,1,245,86.76Z"/><path class="cls-4" d="M252.05,86.75h.64a1.37,1.37,0,0,1,1.37,1.37V99.59a1.07,1.07,0,0,1-1.07,1.07h-1.24a1.07,1.07,0,0,1-1.07-1.07V88.12A1.37,1.37,0,0,1,252.05,86.75Z"/><path class="cls-4" d="M259.12,86.75h.64a1.37,1.37,0,0,1,1.37,1.37V99.59a1.07,1.07,0,0,1-1.07,1.07h-1.24a1.07,1.07,0,0,1-1.07-1.07V88.12a1.37,1.37,0,0,1,1.37-1.37Z"/><path class="cls-4" d="M266.19,86.75h.64a1.37,1.37,0,0,1,1.37,1.37V99.58a1.07,1.07,0,0,1-1.07,1.07h-1.24a1.07,1.07,0,0,1-1.07-1.07V88.12A1.37,1.37,0,0,1,266.19,86.75Z"/><path class="cls-4" d="M273.26,86.75h.64a1.37,1.37,0,0,1,1.37,1.37V99.58a1.07,1.07,0,0,1-1.07,1.07H273a1.07,1.07,0,0,1-1.07-1.07V88.11a1.37,1.37,0,0,1,1.37-1.37Z"/><path class="cls-4" d="M280.33,86.75H281a1.37,1.37,0,0,1,1.37,1.37V99.58a1.07,1.07,0,0,1-1.07,1.07H280A1.07,1.07,0,0,1,279,99.58V88.11a1.37,1.37,0,0,1,1.37-1.37Z"/><path class="cls-4" d="M287.4,86.74H288a1.37,1.37,0,0,1,1.37,1.37V99.58a1.07,1.07,0,0,1-1.07,1.07H287.1A1.07,1.07,0,0,1,286,99.58V88.11a1.37,1.37,0,0,1,1.37-1.37Z"/><path class="cls-4" d="M294.47,86.74h.64a1.37,1.37,0,0,1,1.37,1.37V99.57a1.07,1.07,0,0,1-1.07,1.07h-1.24a1.07,1.07,0,0,1-1.07-1.07V88.11a1.37,1.37,0,0,1,1.37-1.37Z"/><rect class="cls-4" x="505.11" y="297.87" width="3.38" height="13.9" rx="1.37" ry="1.37" transform="translate(801.7 455.33) rotate(179.98)"/><rect class="cls-4" x="498.04" y="297.87" width="3.38" height="13.9" rx="1.37" ry="1.37" transform="translate(787.56 455.34) rotate(179.98)"/><rect class="cls-4" x="490.97" y="297.88" width="3.38" height="13.9" rx="1.37" ry="1.37" transform="translate(773.42 455.34) rotate(179.98)"/><path class="cls-4" d="M485.26,297.88h.64a1.37,1.37,0,0,1,1.37,1.37v11.47a1.07,1.07,0,0,1-1.07,1.07H485a1.07,1.07,0,0,1-1.07-1.07V299.25a1.37,1.37,0,0,1,1.37-1.37Z" transform="translate(759.28 455.35) rotate(179.98)"/><path class="cls-4" d="M478.2,297.88h.64a1.37,1.37,0,0,1,1.37,1.37v11.47a1.07,1.07,0,0,1-1.07,1.07H477.9a1.07,1.07,0,0,1-1.07-1.07V299.25A1.37,1.37,0,0,1,478.2,297.88Z" transform="translate(745.14 455.36) rotate(179.98)"/><path class="cls-4" d="M471.13,297.88h.64a1.37,1.37,0,0,1,1.37,1.37v11.47a1.07,1.07,0,0,1-1.07,1.07h-1.24a1.07,1.07,0,0,1-1.07-1.07V299.25a1.37,1.37,0,0,1,1.37-1.37Z" transform="translate(731.01 455.36) rotate(179.98)"/><path class="cls-4" d="M464.06,297.89h.64a1.37,1.37,0,0,1,1.37,1.37v11.47a1.07,1.07,0,0,1-1.07,1.07h-1.24a1.07,1.07,0,0,1-1.07-1.07V299.25a1.37,1.37,0,0,1,1.37-1.37Z" transform="translate(716.87 455.37) rotate(179.98)"/><path class="cls-4" d="M457,297.89h.64a1.37,1.37,0,0,1,1.37,1.37v11.47a1.07,1.07,0,0,1-1.07,1.07h-1.24a1.07,1.07,0,0,1-1.07-1.07V299.25a1.37,1.37,0,0,1,1.37-1.37Z" transform="translate(702.73 455.38) rotate(179.98)"/><path class="cls-4" d="M510,244.64h.64A1.37,1.37,0,0,1,512,246v11.47a1.07,1.07,0,0,1-1.07,1.07h-1.24a1.07,1.07,0,0,1-1.07-1.07V246a1.37,1.37,0,0,1,1.37-1.37Z" transform="translate(549.8 -412.99) rotate(89.98)"/><path class="cls-4" d="M510,251.71h.64a1.37,1.37,0,0,1,1.37,1.37v11.47a1.07,1.07,0,0,1-1.07,1.07h-1.24a1.07,1.07,0,0,1-1.07-1.07V253.08a1.37,1.37,0,0,1,1.37-1.37Z" transform="translate(556.87 -405.93) rotate(89.98)"/><path class="cls-4" d="M510,258.78h.64a1.37,1.37,0,0,1,1.37,1.37v11.47a1.07,1.07,0,0,1-1.07,1.07h-1.24a1.07,1.07,0,0,1-1.07-1.07V260.15a1.37,1.37,0,0,1,1.37-1.37Z" transform="translate(563.94 -398.86) rotate(89.98)"/><path class="cls-4" d="M510,265.85h.64a1.37,1.37,0,0,1,1.37,1.37v11.47a1.07,1.07,0,0,1-1.07,1.07h-1.24a1.07,1.07,0,0,1-1.07-1.07V267.22a1.37,1.37,0,0,1,1.37-1.37Z" transform="translate(571.01 -391.8) rotate(89.98)"/><path class="cls-4" d="M510,272.92h.64a1.37,1.37,0,0,1,1.37,1.37v11.47a1.07,1.07,0,0,1-1.07,1.07h-1.24a1.07,1.07,0,0,1-1.07-1.07V274.29a1.37,1.37,0,0,1,1.37-1.37Z" transform="translate(578.08 -384.73) rotate(89.98)"/><path class="cls-4" d="M510,280h.64a1.37,1.37,0,0,1,1.37,1.37v11.47a1.07,1.07,0,0,1-1.07,1.07h-1.24a1.07,1.07,0,0,1-1.07-1.07V281.36A1.37,1.37,0,0,1,510,280Z" transform="translate(585.15 -377.67) rotate(89.98)"/><path class="cls-4" d="M510,287.06h.64a1.37,1.37,0,0,1,1.37,1.37v11.47A1.07,1.07,0,0,1,511,301h-1.24a1.07,1.07,0,0,1-1.07-1.07V288.43a1.37,1.37,0,0,1,1.37-1.37Z" transform="translate(592.23 -370.6) rotate(89.98)"/><path class="cls-4" d="M510,294.13h.64a1.37,1.37,0,0,1,1.37,1.37V307A1.07,1.07,0,0,1,511,308h-1.24a1.07,1.07,0,0,1-1.07-1.07V295.49A1.37,1.37,0,0,1,510,294.13Z" transform="translate(599.3 -363.54) rotate(89.98)"/><path class="cls-4" d="M453.28,294.15h.64a1.37,1.37,0,0,1,1.37,1.37V307a1.07,1.07,0,0,1-1.07,1.07H453a1.07,1.07,0,0,1-1.07-1.07V295.51a1.37,1.37,0,0,1,1.37-1.37Z" transform="translate(-59.34 600.64) rotate(-90.02)"/><path class="cls-4" d="M453.28,287.08h.64a1.37,1.37,0,0,1,1.37,1.37v11.47a1.07,1.07,0,0,1-1.07,1.07H453a1.07,1.07,0,0,1-1.07-1.07V288.44a1.37,1.37,0,0,1,1.37-1.37Z" transform="translate(-52.27 593.56) rotate(-90.02)"/><path class="cls-4" d="M453.28,280h.64a1.37,1.37,0,0,1,1.37,1.37v11.47a1.07,1.07,0,0,1-1.07,1.07H453a1.07,1.07,0,0,1-1.07-1.07V281.37a1.37,1.37,0,0,1,1.37-1.37Z" transform="translate(-45.2 586.49) rotate(-90.02)"/><path class="cls-4" d="M453.28,272.94h.64a1.37,1.37,0,0,1,1.37,1.37v11.47a1.07,1.07,0,0,1-1.07,1.07H453a1.07,1.07,0,0,1-1.07-1.07V274.3A1.37,1.37,0,0,1,453.28,272.94Z" transform="translate(-38.14 579.42) rotate(-90.02)"/><path class="cls-4" d="M453.27,265.87h.64a1.37,1.37,0,0,1,1.37,1.37V278.7a1.07,1.07,0,0,1-1.07,1.07H453a1.07,1.07,0,0,1-1.07-1.07V267.24a1.37,1.37,0,0,1,1.37-1.37Z" transform="translate(-31.07 572.34) rotate(-90.02)"/><path class="cls-4" d="M453.27,258.8h.64a1.37,1.37,0,0,1,1.37,1.37v11.47a1.07,1.07,0,0,1-1.07,1.07H453a1.07,1.07,0,0,1-1.07-1.07V260.17a1.37,1.37,0,0,1,1.37-1.37Z" transform="translate(-24 565.27) rotate(-90.02)"/><path class="cls-4" d="M453.27,251.73h.64a1.37,1.37,0,0,1,1.37,1.37v11.47a1.07,1.07,0,0,1-1.07,1.07H453a1.07,1.07,0,0,1-1.07-1.07V253.1a1.37,1.37,0,0,1,1.37-1.37Z" transform="matrix(0, -1, 1, 0, -16.94, 558.2)"/><path class="cls-4" d="M453.27,244.66h.64a1.37,1.37,0,0,1,1.37,1.37V257.5a1.07,1.07,0,0,1-1.07,1.07H453a1.07,1.07,0,0,1-1.07-1.07V246a1.37,1.37,0,0,1,1.37-1.37Z" transform="translate(-9.87 551.12) rotate(-90.02)"/><polygon class="cls-3" points="296.65 93.69 243.53 93.71 241.6 95.63 241.62 148.76 243.54 150.68 296.67 150.66 298.59 148.74 298.57 95.61 296.65 93.69"/><rect class="cls-5" x="363.76" y="170.49" width="4.74" height="2.76"/><rect class="cls-5" x="363.77" y="195.11" width="4.74" height="2.76"/><rect class="cls-5" x="397.05" y="170.48" width="4.74" height="2.76"/><rect class="cls-5" x="397.06" y="195.1" width="4.74" height="2.76"/><rect class="cls-6" x="578.1" y="325.45" width="9.17" height="1.18" transform="translate(-211.17 -155.61) rotate(0.14)"/><rect class="cls-6" x="602.24" y="325.52" width="9.17" height="1.18" transform="translate(-211.17 -155.67) rotate(0.14)"/><rect class="cls-6" x="578.1" y="350.07" width="9.17" height="1.18" transform="translate(-211.11 -155.61) rotate(0.14)"/><rect class="cls-6" x="602.25" y="350.13" width="9.17" height="1.18" transform="matrix(1, 0, 0, 1, -211.11, -155.67)"/><polygon class="cls-7" points="392.18 169.33 373.32 169.34 367.83 174.74 367.83 193.78 373.32 199.18 392.19 199.17 397.68 193.77 397.67 174.73 392.18 169.33"/><polygon class="cls-8" points="390.66 171.73 374.84 171.74 370.24 176.27 370.24 192.25 374.85 196.78 390.67 196.77 395.27 192.24 395.27 176.26 390.66 171.73"/><circle class="cls-9" cx="382.75" cy="184.26" r="6.94"/><path class="cls-10" d="M465.12,324.07a.68.68,0,1,1,1,1c-.64.64-1.1,1.13-1.46,1.48a1.24,1.24,0,0,1-2,0c-.35-.35-.8-.84-1.43-1.46a.68.68,0,0,1,1-1l1.14,1.13c.29.29.45.3.75,0Z" transform="translate(-211.99 -154.16)"/><path class="cls-10" d="M463.61,328.16a7.71,7.71,0,1,1-7.71,7.71,7.71,7.71,0,0,1,7.71-7.71Zm2.76,6.38v-.84c0-.13-.06-.17-.19-.17h-.78a1,1,0,1,0,.68,1.65h0a1,1,0,0,0,.28-.63Zm-7.73-1.28a1.1,1.1,0,0,0-.78,1.88h0a1.1,1.1,0,1,0,.78-1.88Z" transform="translate(-211.99 -154.16)"/><path class="cls-11" d="M479.56,327q0,2.24-2,2.24t-1.95-2.16v-3.21h.68V327q0,1.58,1.33,1.58t1.28-1.53v-3.23h.68Z" transform="translate(-211.99 -154.16)"/><path class="cls-11" d="M481.54,327.17v2h-.68v-5.28h1.5a2,2,0,0,1,1.33.41,1.48,1.48,0,0,1,.47,1.18,1.59,1.59,0,0,1-.55,1.26,1.92,1.92,0,0,1-1.38.46Zm0-2.71v2.11h.63a1.41,1.41,0,0,0,.95-.28,1,1,0,0,0,.32-.81q0-1-1.21-1Z" transform="translate(-211.99 -154.16)"/><path class="cls-11" d="M485.13,329.14v-5.28h1.51a2.91,2.91,0,0,1,2,.7,2.37,2.37,0,0,1,.8,1.87,2.56,2.56,0,0,1-.8,2,2.89,2.89,0,0,1-2,.74Zm.68-4.67v4.07h.77a2.16,2.16,0,0,0,1.57-.55,2,2,0,0,0,.56-1.54,1.85,1.85,0,0,0-.58-1.49,2.26,2.26,0,0,0-1.52-.5Z" transform="translate(-211.99 -154.16)"/><path class="cls-11" d="M494.36,327q0,2.24-2,2.24t-1.95-2.16v-3.21h.68V327q0,1.58,1.33,1.58t1.28-1.53v-3.23h.68Z" transform="translate(-211.99 -154.16)"/><path class="cls-11" d="M496.34,323.86v5.28h-.68v-5.28Z" transform="translate(-211.99 -154.16)"/><path class="cls-11" d="M502,329.14h-.81L498.56,325a2,2,0,0,1-.18-.34h0a6.24,6.24,0,0,1,0,.74v3.71h-.67v-5.28h.86l2.58,4a3.84,3.84,0,0,1,.22.36h0a5.85,5.85,0,0,1,0-.77v-3.63H502Z" transform="translate(-211.99 -154.16)"/><path class="cls-11" d="M503,326.56a2.9,2.9,0,0,1,.69-2,2.41,2.41,0,0,1,1.87-.76,2.28,2.28,0,0,1,1.77.74,2.76,2.76,0,0,1,.67,1.93,2.9,2.9,0,0,1-.69,2,2.37,2.37,0,0,1-1.84.75,2.33,2.33,0,0,1-1.8-.74A2.74,2.74,0,0,1,503,326.56Zm.72-.05a2.3,2.3,0,0,0,.49,1.54,1.59,1.59,0,0,0,1.28.58,1.67,1.67,0,0,0,1.33-.55,2.28,2.28,0,0,0,.48-1.55,2.37,2.37,0,0,0-.47-1.58,1.61,1.61,0,0,0-1.29-.56,1.64,1.64,0,0,0-1.31.59A2.28,2.28,0,0,0,503.76,326.51Z" transform="translate(-211.99 -154.16)"/><path class="cls-11" d="M478.56,335.37q0,1.12-1,1.12t-1-1.08v-1.6h.34v1.59q0,.79.66.79t.64-.77v-1.61h.34Z" transform="translate(-211.99 -154.16)"/><path class="cls-11" d="M481.36,336.45H481l-1.33-2.05a1,1,0,0,1-.09-.17h0a3,3,0,0,1,0,.37v1.86h-.34v-2.64h.43l1.29,2,.11.18h0a3,3,0,0,1,0-.39v-1.81h.34Z" transform="translate(-211.99 -154.16)"/><path class="cls-11" d="M481.87,335.16a1.45,1.45,0,0,1,.35-1,1.21,1.21,0,0,1,.94-.38,1.14,1.14,0,0,1,.89.37,1.38,1.38,0,0,1,.34,1,1.45,1.45,0,0,1-.34,1,1.18,1.18,0,0,1-.92.38,1.16,1.16,0,0,1-.9-.37A1.37,1.37,0,0,1,481.87,335.16Zm.36,0a1.15,1.15,0,0,0,.24.77.8.8,0,0,0,.64.29.83.83,0,0,0,.66-.28,1.14,1.14,0,0,0,.24-.77,1.18,1.18,0,0,0-.24-.79.81.81,0,0,0-.65-.28.82.82,0,0,0-.65.29A1.14,1.14,0,0,0,482.23,335.13Z" transform="translate(-211.99 -154.16)"/><path class="cls-11" d="M488.62,336.44v-2.26a1.12,1.12,0,0,1-.26.18,1.59,1.59,0,0,1-.35.14v-.33a2.23,2.23,0,0,0,.45-.19,1.93,1.93,0,0,0,.37-.24h.13v2.7Z" transform="translate(-211.99 -154.16)"/><path class="cls-11" d="M489.9,336.27a.21.21,0,0,1,.06-.16.22.22,0,0,1,.38.15.21.21,0,0,1-.06.15.22.22,0,0,1-.16.06.22.22,0,0,1-.22-.22Z" transform="translate(-211.99 -154.16)"/><path class="cls-11" d="M490.69,335.17a2,2,0,0,1,.23-1.06.75.75,0,0,1,.67-.36q.84,0,.84,1.35a1.84,1.84,0,0,1-.24,1,.75.75,0,0,1-.66.35.7.7,0,0,1-.62-.34A1.78,1.78,0,0,1,490.69,335.17Zm.34,0q0,1.05.53,1.05t.52-1.07q0-1.11-.51-1.11T491,335.16Z" transform="translate(-211.99 -154.16)"/><path class="cls-11" d="M493.55,336.44v-2.26a1.12,1.12,0,0,1-.26.18,1.59,1.59,0,0,1-.35.14v-.33a2.23,2.23,0,0,0,.45-.19,1.93,1.93,0,0,0,.37-.24h.13v2.7Z" transform="translate(-211.99 -154.16)"/><path class="cls-11" d="M477.81,341.63a.43.43,0,0,0-.13-.33.53.53,0,0,0-.37-.12.74.74,0,0,0-.33.08,1.1,1.1,0,0,0-.31.24v-.32A.91.91,0,0,1,477,341a1,1,0,0,1,.39-.07.84.84,0,0,1,.58.19.65.65,0,0,1,.22.52.93.93,0,0,1-.13.5,1.62,1.62,0,0,1-.46.44q-.33.23-.44.33a.65.65,0,0,0-.16.19.49.49,0,0,0,0,.22h1.31v.3h-1.66v-.13a1.06,1.06,0,0,1,.06-.39,1,1,0,0,1,.21-.31,3,3,0,0,1,.45-.36,1.73,1.73,0,0,0,.42-.38A.64.64,0,0,0,477.81,341.63Z" transform="translate(-211.99 -154.16)"/><path class="cls-11" d="M478.56,342.31a2,2,0,0,1,.23-1.06.75.75,0,0,1,.67-.36q.84,0,.84,1.35a1.84,1.84,0,0,1-.24,1,.75.75,0,0,1-.66.35.7.7,0,0,1-.62-.34A1.78,1.78,0,0,1,478.56,342.31Zm.34,0q0,1.05.53,1.05t.52-1.07q0-1.11-.51-1.11T478.9,342.3Z" transform="translate(-211.99 -154.16)"/><path class="cls-11" d="M481.43,343.58v-2.26a1.12,1.12,0,0,1-.26.18,1.59,1.59,0,0,1-.35.14v-.33a2.23,2.23,0,0,0,.45-.19,1.93,1.93,0,0,0,.37-.24h.13v2.7Z" transform="translate(-211.99 -154.16)"/><path class="cls-11" d="M484.37,341.14a9.92,9.92,0,0,0-.65,1.34,4.63,4.63,0,0,0-.29,1.09h-.35a4.65,4.65,0,0,1,.3-1.06,9.9,9.9,0,0,1,.63-1.28h-1.31v-.29h1.68Z" transform="translate(-211.99 -154.16)"/><path class="cls-11" d="M484.75,343.4a.21.21,0,0,1,.06-.16.22.22,0,0,1,.38.15.21.21,0,0,1-.06.15.22.22,0,0,1-.16.06.22.22,0,0,1-.22-.22Z" transform="translate(-211.99 -154.16)"/><path class="cls-11" d="M485.54,342.31a2,2,0,0,1,.23-1.06.75.75,0,0,1,.67-.36q.84,0,.84,1.35a1.84,1.84,0,0,1-.24,1,.75.75,0,0,1-.66.35.7.7,0,0,1-.62-.34A1.78,1.78,0,0,1,485.54,342.31Zm.34,0q0,1.05.53,1.05t.52-1.07q0-1.11-.51-1.11T485.88,342.29Z" transform="translate(-211.99 -154.16)"/><path class="cls-11" d="M488.4,343.58v-2.26a1.12,1.12,0,0,1-.26.18,1.59,1.59,0,0,1-.35.14v-.33a2.23,2.23,0,0,0,.45-.19,1.93,1.93,0,0,0,.37-.24h.13v2.7Z" transform="translate(-211.99 -154.16)"/><rect class="cls-11" x="243.91" y="192.57" width="52.16" height="6.33"/><path class="cls-12" d="M472.54,348.2l-.7,2.36h-.43l-.47-1.65a1.18,1.18,0,0,1,0-.23h0a1,1,0,0,1,0,.22l-.51,1.66h-.42l-.71-2.36h.43l.47,1.75a1.19,1.19,0,0,1,0,.22h0a1,1,0,0,1,0-.22l.51-1.74h.39l.49,1.75a1.34,1.34,0,0,1,0,.22h0a1,1,0,0,1,0-.22l.46-1.75Z" transform="translate(-211.99 -154.16)"/><path class="cls-12" d="M476,348.2l-.7,2.36h-.43l-.47-1.65a1.18,1.18,0,0,1,0-.23h0a1,1,0,0,1,0,.22l-.51,1.66h-.42l-.71-2.36h.43l.47,1.75a1.19,1.19,0,0,1,0,.22h0a1,1,0,0,1,0-.22l.51-1.74h.39l.49,1.75a1.34,1.34,0,0,1,0,.22h0a1,1,0,0,1,0-.22l.46-1.75Z" transform="translate(-211.99 -154.16)"/><path class="cls-12" d="M479.43,348.2l-.7,2.36h-.43l-.47-1.65a1.18,1.18,0,0,1,0-.23h0a1,1,0,0,1,0,.22l-.51,1.66h-.42l-.71-2.36h.43l.47,1.75a1.19,1.19,0,0,1,0,.22h0a1,1,0,0,1,0-.22l.51-1.74H478l.49,1.75a1.34,1.34,0,0,1,0,.22h0a1,1,0,0,1,0-.22l.46-1.75Z" transform="translate(-211.99 -154.16)"/><path class="cls-12" d="M479.5,350.33a.26.26,0,0,1,.08-.19.28.28,0,0,1,.47.19.26.26,0,0,1-.08.19.27.27,0,0,1-.2.08.26.26,0,0,1-.2-.08A.26.26,0,0,1,479.5,350.33Z" transform="translate(-211.99 -154.16)"/><path class="cls-12" d="M482.61,350.55h-.42v-.37h0a.78.78,0,0,1-.73.43q-.84,0-.84-1V348.2H481v1.35q0,.72.55.72a.55.55,0,0,0,.44-.2.76.76,0,0,0,.17-.51V348.2h.42Z" transform="translate(-211.99 -154.16)"/><path class="cls-12" d="M483.77,350.22v1.42h-.42V348.2h.42v.41h0a.89.89,0,0,1,.81-.46.86.86,0,0,1,.71.32,1.31,1.31,0,0,1,.26.85,1.45,1.45,0,0,1-.29.94,1,1,0,0,1-.78.36.78.78,0,0,1-.7-.39Zm0-.64a.68.68,0,0,0,.19.48.65.65,0,0,0,1-.06,1.18,1.18,0,0,0,.19-.71.92.92,0,0,0-.18-.6.58.58,0,0,0-.48-.22.65.65,0,0,0-.51.22.8.8,0,0,0-.2.56Z" transform="translate(-211.99 -154.16)"/><path class="cls-12" d="M488.06,349.48h-1.65a.84.84,0,0,0,.21.58.72.72,0,0,0,.55.21,1.17,1.17,0,0,0,.73-.25v.37a1.4,1.4,0,0,1-.82.22,1,1,0,0,1-.8-.32,1.31,1.31,0,0,1-.29-.9,1.29,1.29,0,0,1,.31-.89,1,1,0,0,1,.78-.35.91.91,0,0,1,.72.3,1.22,1.22,0,0,1,.26.83Zm-.42-.33a.75.75,0,0,0-.15-.49.52.52,0,0,0-.42-.17.59.59,0,0,0-.43.19.86.86,0,0,0-.23.48Z" transform="translate(-211.99 -154.16)"/><path class="cls-12" d="M489.88,348.61a.49.49,0,0,0-.29-.07.47.47,0,0,0-.4.23,1,1,0,0,0-.16.6v1.19h-.42v-2.36H489v.48h0a.64.64,0,0,1,.62-.52.59.59,0,0,1,.22,0Z" transform="translate(-211.99 -154.16)"/><path class="cls-12" d="M489.77,350.33a.26.26,0,0,1,.08-.19.28.28,0,0,1,.47.19.26.26,0,0,1-.08.19.27.27,0,0,1-.2.08.26.26,0,0,1-.2-.08A.26.26,0,0,1,489.77,350.33Z" transform="translate(-211.99 -154.16)"/><path class="cls-12" d="M492.57,350.44a1.25,1.25,0,0,1-.65.16,1.08,1.08,0,0,1-.82-.33,1.18,1.18,0,0,1-.31-.85,1.31,1.31,0,0,1,.34-.93,1.18,1.18,0,0,1,.9-.35,1.23,1.23,0,0,1,.55.11v.41a.92.92,0,0,0-.55-.18.75.75,0,0,0-.58.25,1,1,0,0,0-.22.66.9.9,0,0,0,.21.64.74.74,0,0,0,.57.23,1,1,0,0,0,.58-.2Z" transform="translate(-211.99 -154.16)"/><path class="cls-12" d="M494.76,350.44a1.25,1.25,0,0,1-.65.16,1.08,1.08,0,0,1-.82-.33,1.18,1.18,0,0,1-.31-.85,1.31,1.31,0,0,1,.34-.93,1.18,1.18,0,0,1,.9-.35,1.23,1.23,0,0,1,.55.11v.41a.92.92,0,0,0-.55-.18.75.75,0,0,0-.58.25,1,1,0,0,0-.22.66.9.9,0,0,0,.21.64.74.74,0,0,0,.57.23,1,1,0,0,0,.58-.2Z" transform="translate(-211.99 -154.16)"/><rect class="cls-13" x="10.9" y="78.95" width="2" height="43.83"/><path class="cls-6" d="M261.29,269.33a.81.81,0,0,1-.81-.81v-4.77h0a.81.81,0,0,1-.81-.81v-1a.81.81,0,0,1,.81-.81h2.8V248.91h-2.8a.81.81,0,0,1-.81-.81v-1a.81.81,0,0,1,.81-.81h0v-4.77a.81.81,0,0,1,.81-.81h2V229H224.88l-4-.4v.93l4,2.2v46.47l-4,2.2v.93l4-.4h38.39V269.33Zm-26.12-35.41a.81.81,0,0,1,.81-.81h1a.81.81,0,0,1,.81.81h4.77a.81.81,0,0,1,.81.81v3.11a.81.81,0,0,1-.81.81h-4.77a.81.81,0,0,1-.81.81h-1a.81.81,0,0,1-.81-.81Zm7.41,42.21h-4.77a.81.81,0,0,1-.81.81h-1a.81.81,0,0,1-.81-.81v-4.75a.81.81,0,0,1,.81-.81h1a.81.81,0,0,1,.81.81h4.77a.81.81,0,0,1,.81.81v3.11A.81.81,0,0,1,242.59,276.12Z" transform="translate(-211.99 -154.16)"/><path class="cls-14" d="M216.33,229.64" transform="translate(-211.99 -154.16)"/><path class="cls-15" d="M35.14,11.38h7.18a0,0,0,0,1,0,0v4.49a0,0,0,0,1,0,0H35.14a2.08,2.08,0,0,1-2.08-2.08v-.34A2.08,2.08,0,0,1,35.14,11.38Z"/><path class="cls-15" d="M35.14,29.69h7.18a0,0,0,0,1,0,0v4.49a0,0,0,0,1,0,0H35.14a2.08,2.08,0,0,1-2.08-2.08v-.34A2.08,2.08,0,0,1,35.14,29.69Z"/><path class="cls-15" d="M35.15,48h7.18a0,0,0,0,1,0,0v4.49a0,0,0,0,1,0,0H35.15a2.08,2.08,0,0,1-2.08-2.08v-.34A2.08,2.08,0,0,1,35.15,48Z"/><path class="cls-15" d="M273.73,202.15h7.18a0,0,0,0,1,0,0v4.49a0,0,0,0,1,0,0h-7.18a2.08,2.08,0,0,1-2.08-2.08v-.34a2.08,2.08,0,0,1,2.08-2.08Z" transform="translate(340.64 254.54) rotate(179.98)"/><path class="cls-15" d="M273.73,183.84h7.18a0,0,0,0,1,0,0v4.49a0,0,0,0,1,0,0h-7.18a2.08,2.08,0,0,1-2.08-2.08v-.34a2.08,2.08,0,0,1,2.08-2.08Z" transform="matrix(-1, 0, 0, -1, 340.63, 217.92)"/><path class="cls-15" d="M273.72,165.54h7.18a0,0,0,0,1,0,0V170a0,0,0,0,1,0,0h-7.18a2.08,2.08,0,0,1-2.08-2.08v-.34A2.08,2.08,0,0,1,273.72,165.54Z" transform="translate(340.61 181.31) rotate(179.98)"/><polygon class="cls-16" points="37.69 6.74 37.7 57.13 46.64 57.12 46.64 53.78 55.36 53.77 55.36 57.12 64.3 57.12 64.28 6.73 37.69 6.74"/><path class="cls-3" d="M43.4.1H58.56A1.91,1.91,0,0,1,60.48,2V6.75a0,0,0,0,1,0,0h-19a0,0,0,0,1,0,0V2A1.91,1.91,0,0,1,43.4.1Z"/><polygon class="cls-17" points="47.89 6.74 49.08 2.64 52.64 2.63 53.94 6.72 47.89 6.74"/><path class="cls-15" d="M96.83,11.36H104a0,0,0,0,1,0,0v4.49a0,0,0,0,1,0,0H96.83a2.08,2.08,0,0,1-2.08-2.08v-.34a2.08,2.08,0,0,1,2.08-2.08Z"/><path class="cls-15" d="M96.84,29.67H104a0,0,0,0,1,0,0v4.49a0,0,0,0,1,0,0H96.84a2.08,2.08,0,0,1-2.08-2.08v-.34A2.08,2.08,0,0,1,96.84,29.67Z"/><path class="cls-15" d="M96.84,48H104a0,0,0,0,1,0,0v4.49a0,0,0,0,1,0,0H96.84a2.08,2.08,0,0,1-2.08-2.08v-.34A2.08,2.08,0,0,1,96.84,48Z"/><path class="cls-15" d="M335.42,202.13h7.18a0,0,0,0,1,0,0v4.49a0,0,0,0,1,0,0h-7.18a2.08,2.08,0,0,1-2.08-2.08v-.34A2.08,2.08,0,0,1,335.42,202.13Z" transform="translate(464.03 254.48) rotate(179.98)"/><path class="cls-15" d="M335.42,183.82h7.18a0,0,0,0,1,0,0v4.49a0,0,0,0,1,0,0h-7.18a2.08,2.08,0,0,1-2.08-2.08v-.34a2.08,2.08,0,0,1,2.08-2.08Z" transform="translate(464.01 217.87) rotate(179.98)"/><path class="cls-15" d="M335.41,165.52h7.18a0,0,0,0,1,0,0V170a0,0,0,0,1,0,0h-7.18a2.08,2.08,0,0,1-2.08-2.08v-.34A2.08,2.08,0,0,1,335.41,165.52Z" transform="translate(464 181.25) rotate(179.98)"/><polygon class="cls-16" points="99.38 6.72 99.39 57.11 108.33 57.1 108.33 53.76 117.05 53.76 117.05 57.1 125.99 57.1 125.98 6.71 99.38 6.72"/><path class="cls-3" d="M105.1.08h15.16A1.91,1.91,0,0,1,122.17,2V6.73a0,0,0,0,1,0,0h-19a0,0,0,0,1,0,0V2A1.91,1.91,0,0,1,105.1.08Z"/><path class="cls-15" d="M158.52,11.35h7.18a0,0,0,0,1,0,0v4.49a0,0,0,0,1,0,0h-7.18a2.08,2.08,0,0,1-2.08-2.08v-.34a2.08,2.08,0,0,1,2.08-2.08Z"/><path class="cls-15" d="M158.53,29.65h7.18a0,0,0,0,1,0,0v4.49a0,0,0,0,1,0,0h-7.18a2.08,2.08,0,0,1-2.08-2.08v-.34A2.08,2.08,0,0,1,158.53,29.65Z"/><path class="cls-15" d="M158.53,48h7.18a0,0,0,0,1,0,0v4.49a0,0,0,0,1,0,0h-7.18a2.08,2.08,0,0,1-2.08-2.08V50A2.08,2.08,0,0,1,158.53,48Z"/><path class="cls-15" d="M397.12,202.11h7.18a0,0,0,0,1,0,0v4.49a0,0,0,0,1,0,0h-7.18a2.08,2.08,0,0,1-2.08-2.08v-.34A2.08,2.08,0,0,1,397.12,202.11Z" transform="translate(587.42 254.42) rotate(179.98)"/><path class="cls-15" d="M397.11,183.8h7.18a0,0,0,0,1,0,0v4.49a0,0,0,0,1,0,0h-7.18a2.08,2.08,0,0,1-2.08-2.08v-.34A2.08,2.08,0,0,1,397.11,183.8Z" transform="translate(587.4 217.81) rotate(179.98)"/><path class="cls-15" d="M397.11,165.5h7.18a0,0,0,0,1,0,0V170a0,0,0,0,1,0,0h-7.18a2.08,2.08,0,0,1-2.08-2.08v-.34a2.08,2.08,0,0,1,2.08-2.08Z" transform="translate(587.38 181.2) rotate(179.98)"/><polygon class="cls-16" points="161.07 6.7 161.09 57.09 170.03 57.08 170.03 53.74 178.75 53.74 178.75 57.08 187.69 57.08 187.67 6.7 161.07 6.7"/><path class="cls-3" d="M166.79.06h15.16A1.91,1.91,0,0,1,183.86,2V6.71a0,0,0,0,1,0,0h-19a0,0,0,0,1,0,0V2A1.91,1.91,0,0,1,166.79.06Z"/><path class="cls-15" d="M220.22,11.33h7.18a0,0,0,0,1,0,0v4.49a0,0,0,0,1,0,0h-7.18a2.08,2.08,0,0,1-2.08-2.08V13.4A2.08,2.08,0,0,1,220.22,11.33Z"/><path class="cls-15" d="M220.22,29.63h7.18a0,0,0,0,1,0,0v4.49a0,0,0,0,1,0,0h-7.18A2.08,2.08,0,0,1,218.15,32v-.34a2.08,2.08,0,0,1,2.08-2.08Z"/><path class="cls-15" d="M220.23,47.94h7.18a0,0,0,0,1,0,0v4.49a0,0,0,0,1,0,0h-7.18a2.08,2.08,0,0,1-2.08-2.08V50A2.08,2.08,0,0,1,220.23,47.94Z"/><path class="cls-15" d="M458.81,202.09H466a0,0,0,0,1,0,0v4.49a0,0,0,0,1,0,0h-7.18a2.08,2.08,0,0,1-2.08-2.08v-.34A2.08,2.08,0,0,1,458.81,202.09Z" transform="translate(710.8 254.36) rotate(179.98)"/><path class="cls-15" d="M458.81,183.78H466a0,0,0,0,1,0,0v4.49a0,0,0,0,1,0,0h-7.18a2.08,2.08,0,0,1-2.08-2.08v-.34A2.08,2.08,0,0,1,458.81,183.78Z" transform="matrix(-1, 0, 0, -1, 710.78, 217.75)"/><path class="cls-15" d="M458.8,165.48H466a0,0,0,0,1,0,0V170a0,0,0,0,1,0,0H458.8a2.08,2.08,0,0,1-2.08-2.08v-.34A2.08,2.08,0,0,1,458.8,165.48Z" transform="translate(710.77 181.14) rotate(179.98)"/><polygon class="cls-16" points="222.77 6.68 222.78 57.07 231.72 57.06 231.72 53.72 240.44 53.72 240.44 57.06 249.38 57.06 249.36 6.68 222.77 6.68"/><path class="cls-3" d="M228.48,0h15.16A1.91,1.91,0,0,1,245.56,2V6.69a0,0,0,0,1,0,0h-19a0,0,0,0,1,0,0V2A1.91,1.91,0,0,1,228.48,0Z"/><path class="cls-15" d="M281.91,11.31h7.18a0,0,0,0,1,0,0v4.49a0,0,0,0,1,0,0h-7.18a2.08,2.08,0,0,1-2.08-2.08v-.34A2.08,2.08,0,0,1,281.91,11.31Z"/><path class="cls-15" d="M281.91,29.61h7.18a0,0,0,0,1,0,0V34.1a0,0,0,0,1,0,0h-7.18A2.08,2.08,0,0,1,279.84,32v-.34a2.08,2.08,0,0,1,2.08-2.08Z"/><path class="cls-15" d="M281.92,47.92h7.18a0,0,0,0,1,0,0v4.49a0,0,0,0,1,0,0h-7.18a2.08,2.08,0,0,1-2.08-2.08V50A2.08,2.08,0,0,1,281.92,47.92Z"/><path class="cls-15" d="M520.5,202.07h7.18a0,0,0,0,1,0,0v4.49a0,0,0,0,1,0,0H520.5a2.08,2.08,0,0,1-2.08-2.08v-.34a2.08,2.08,0,0,1,2.08-2.08Z" transform="translate(834.19 254.31) rotate(179.98)"/><path class="cls-15" d="M520.5,183.76h7.18a0,0,0,0,1,0,0v4.49a0,0,0,0,1,0,0H520.5a2.08,2.08,0,0,1-2.08-2.08v-.34A2.08,2.08,0,0,1,520.5,183.76Z" transform="translate(834.17 217.69) rotate(179.98)"/><path class="cls-15" d="M520.49,165.46h7.18a0,0,0,0,1,0,0v4.49a0,0,0,0,1,0,0h-7.18a2.08,2.08,0,0,1-2.08-2.08v-.34A2.08,2.08,0,0,1,520.49,165.46Z" transform="translate(834.15 181.08) rotate(179.98)"/><polygon class="cls-16" points="284.46 6.67 284.47 57.05 293.41 57.05 293.41 53.7 302.13 53.7 302.13 57.04 311.07 57.04 311.06 6.66 284.46 6.67"/><path class="cls-3" d="M290.17,0h15.16a1.91,1.91,0,0,1,1.91,1.91V6.67a0,0,0,0,1,0,0h-19a0,0,0,0,1,0,0V1.93A1.91,1.91,0,0,1,290.17,0Z"/><path class="cls-15" d="M343.6,11.29h7.18a0,0,0,0,1,0,0v4.49a0,0,0,0,1,0,0H343.6a2.08,2.08,0,0,1-2.08-2.08v-.34A2.08,2.08,0,0,1,343.6,11.29Z"/><path class="cls-15" d="M343.61,29.59h7.18a0,0,0,0,1,0,0v4.49a0,0,0,0,1,0,0h-7.18A2.08,2.08,0,0,1,341.53,32v-.34a2.08,2.08,0,0,1,2.08-2.08Z"/><path class="cls-15" d="M343.61,47.9h7.18a0,0,0,0,1,0,0v4.49a0,0,0,0,1,0,0h-7.18a2.08,2.08,0,0,1-2.08-2.08V50A2.08,2.08,0,0,1,343.61,47.9Z"/><path class="cls-15" d="M582.2,202.05h7.18a0,0,0,0,1,0,0v4.49a0,0,0,0,1,0,0H582.2a2.08,2.08,0,0,1-2.08-2.08v-.34A2.08,2.08,0,0,1,582.2,202.05Z" transform="translate(957.57 254.25) rotate(179.98)"/><path class="cls-15" d="M582.19,183.75h7.18a0,0,0,0,1,0,0v4.49a0,0,0,0,1,0,0h-7.18a2.08,2.08,0,0,1-2.08-2.08v-.34A2.08,2.08,0,0,1,582.19,183.75Z" transform="translate(957.56 217.64) rotate(179.98)"/><path class="cls-15" d="M582.19,165.44h7.18a0,0,0,0,1,0,0v4.49a0,0,0,0,1,0,0h-7.18a2.08,2.08,0,0,1-2.08-2.08v-.34A2.08,2.08,0,0,1,582.19,165.44Z" transform="translate(957.54 181.02) rotate(179.98)"/><polygon class="cls-16" points="346.15 6.65 346.17 57.03 355.11 57.03 355.11 53.68 363.82 53.68 363.82 57.02 372.76 57.02 372.75 6.64 346.15 6.65"/><path class="cls-3" d="M351.87,0H367a1.91,1.91,0,0,1,1.91,1.91V6.65a0,0,0,0,1,0,0H350a0,0,0,0,1,0,0V1.91A1.91,1.91,0,0,1,351.87,0Z"/><path class="cls-3" d="M563.85,434.8H579a1.91,1.91,0,0,1,1.91,1.91v4.74a0,0,0,0,1,0,0h-19a0,0,0,0,1,0,0v-4.74A1.91,1.91,0,0,1,563.85,434.8Z" transform="translate(931.02 721.9) rotate(179.98)"/><path class="cls-3" d="M502.16,434.81h15.16a1.91,1.91,0,0,1,1.91,1.91v4.74a0,0,0,0,1,0,0h-19a0,0,0,0,1,0,0v-4.74a1.91,1.91,0,0,1,1.91-1.91Z" transform="translate(807.63 721.96) rotate(179.98)"/><path class="cls-3" d="M440.47,434.83h15.16a1.91,1.91,0,0,1,1.91,1.91v4.74a0,0,0,0,1,0,0h-19a0,0,0,0,1,0,0v-4.74A1.91,1.91,0,0,1,440.47,434.83Z" transform="translate(684.25 722.02) rotate(179.98)"/><path class="cls-3" d="M378.78,434.85h15.16a1.91,1.91,0,0,1,1.91,1.91v4.74a0,0,0,0,1,0,0h-19a0,0,0,0,1,0,0v-4.74a1.91,1.91,0,0,1,1.91-1.91Z" transform="translate(560.86 722.08) rotate(179.98)"/><path class="cls-3" d="M317.08,434.87h15.16a1.91,1.91,0,0,1,1.91,1.91v4.74a0,0,0,0,1,0,0h-19a0,0,0,0,1,0,0v-4.74a1.91,1.91,0,0,1,1.91-1.91Z" transform="translate(437.48 722.13) rotate(179.98)"/><path class="cls-3" d="M255.39,434.89h15.16a1.91,1.91,0,0,1,1.91,1.91v4.74a0,0,0,0,1,0,0h-19a0,0,0,0,1,0,0V436.8A1.91,1.91,0,0,1,255.39,434.89Z" transform="translate(314.09 722.19) rotate(179.98)"/><path class="cls-15" d="M614.5,216.44h7.18a0,0,0,0,1,0,0v4.49a0,0,0,0,1,0,0H614.5a2.08,2.08,0,0,1-2.08-2.08v-.34a2.08,2.08,0,0,1,2.08-2.08Z" transform="translate(623.55 -552.6) rotate(89.98)"/><path class="cls-15" d="M596.19,216.44h7.18a0,0,0,0,1,0,0v4.49a0,0,0,0,1,0,0h-7.18a2.08,2.08,0,0,1-2.08-2.08v-.34a2.08,2.08,0,0,1,2.08-2.08Z" transform="translate(605.26 -534.29) rotate(89.98)"/><path class="cls-15" d="M577.89,216.45h7.18a0,0,0,0,1,0,0v4.49a0,0,0,0,1,0,0h-7.18a2.08,2.08,0,0,1-2.08-2.08v-.34A2.08,2.08,0,0,1,577.89,216.45Z" transform="translate(586.97 -515.97) rotate(89.98)"/><path class="cls-15" d="M577.9,243h7.18a0,0,0,0,1,0,0v4.49a0,0,0,0,1,0,0H577.9a2.08,2.08,0,0,1-2.08-2.08v-.34A2.08,2.08,0,0,1,577.9,243Z" transform="translate(123.35 671.65) rotate(-90.02)"/><path class="cls-15" d="M596.2,243h7.18a0,0,0,0,1,0,0v4.49a0,0,0,0,1,0,0H596.2a2.08,2.08,0,0,1-2.08-2.08v-.34A2.08,2.08,0,0,1,596.2,243Z" transform="translate(141.67 689.95) rotate(-90.02)"/><path class="cls-15" d="M614.51,243h7.18a0,0,0,0,1,0,0v4.49a0,0,0,0,1,0,0h-7.18a2.08,2.08,0,0,1-2.08-2.08v-.34A2.08,2.08,0,0,1,614.51,243Z" transform="translate(159.99 708.26) rotate(-90.02)"/><polygon class="cls-16" points="411.95 64.52 361.57 64.54 361.57 73.47 364.91 73.47 364.92 82.19 361.57 82.19 361.58 91.13 411.96 91.12 411.95 64.52"/><path class="cls-15" d="M614.52,278.13h7.18a0,0,0,0,1,0,0v4.49a0,0,0,0,1,0,0h-7.18a2.08,2.08,0,0,1-2.08-2.08v-.34a2.08,2.08,0,0,1,2.08-2.08Z" transform="translate(685.27 -490.94) rotate(89.98)"/><path class="cls-15" d="M596.21,278.14h7.18a0,0,0,0,1,0,0v4.49a0,0,0,0,1,0,0h-7.18a2.08,2.08,0,0,1-2.08-2.08v-.34a2.08,2.08,0,0,1,2.08-2.08Z" transform="translate(666.97 -472.63) rotate(89.98)"/><path class="cls-15" d="M577.91,278.14h7.18a0,0,0,0,1,0,0v4.49a0,0,0,0,1,0,0h-7.18a2.08,2.08,0,0,1-2.08-2.08v-.34a2.08,2.08,0,0,1,2.08-2.08Z" transform="translate(648.68 -454.32) rotate(89.98)"/><path class="cls-15" d="M577.92,304.74h7.18a0,0,0,0,1,0,0v4.49a0,0,0,0,1,0,0h-7.18a2.08,2.08,0,0,1-2.08-2.08v-.34A2.08,2.08,0,0,1,577.92,304.74Z" transform="translate(61.68 733.39) rotate(-90.02)"/><path class="cls-15" d="M596.22,304.73h7.18a0,0,0,0,1,0,0v4.49a0,0,0,0,1,0,0h-7.18a2.08,2.08,0,0,1-2.08-2.08v-.34A2.08,2.08,0,0,1,596.22,304.73Z" transform="translate(80 751.69) rotate(-90.02)"/><path class="cls-15" d="M614.53,304.73h7.18a0,0,0,0,1,0,0v4.49a0,0,0,0,1,0,0h-7.18a2.08,2.08,0,0,1-2.08-2.08v-.34a2.08,2.08,0,0,1,2.08-2.08Z" transform="matrix(0, -1, 1, 0, 98.31, 769.99)"/><polygon class="cls-16" points="411.97 126.21 361.59 126.23 361.59 135.17 364.93 135.17 364.94 143.88 361.59 143.89 361.6 152.82 411.98 152.81 411.97 126.21"/><path class="cls-15" d="M582.27,425.67h7.18a0,0,0,0,1,0,0v4.49a0,0,0,0,1,0,0h-7.18a2.08,2.08,0,0,1-2.08-2.08v-.34A2.08,2.08,0,0,1,582.27,425.67Z" transform="translate(957.78 701.48) rotate(179.98)"/><path class="cls-15" d="M582.26,407.36h7.18a0,0,0,0,1,0,0v4.49a0,0,0,0,1,0,0h-7.18a2.08,2.08,0,0,1-2.08-2.08v-.34a2.08,2.08,0,0,1,2.08-2.08Z" transform="translate(957.77 664.87) rotate(179.98)"/><path class="cls-15" d="M582.26,389.06h7.18a0,0,0,0,1,0,0v4.49a0,0,0,0,1,0,0h-7.18a2.08,2.08,0,0,1-2.08-2.08v-.34A2.08,2.08,0,0,1,582.26,389.06Z" transform="translate(957.75 628.26) rotate(179.98)"/><path class="cls-15" d="M343.67,234.91h7.18a0,0,0,0,1,0,0v4.49a0,0,0,0,1,0,0h-7.18a2.08,2.08,0,0,1-2.08-2.08V237a2.08,2.08,0,0,1,2.08-2.08Z"/><path class="cls-15" d="M343.68,253.21h7.18a0,0,0,0,1,0,0v4.49a0,0,0,0,1,0,0h-7.18a2.08,2.08,0,0,1-2.08-2.08v-.34A2.08,2.08,0,0,1,343.68,253.21Z"/><path class="cls-15" d="M343.68,271.52h7.18a0,0,0,0,1,0,0V276a0,0,0,0,1,0,0h-7.18a2.08,2.08,0,0,1-2.08-2.08v-.34a2.08,2.08,0,0,1,2.08-2.08Z"/><polygon class="cls-16" points="372.83 280.64 372.82 230.26 363.88 230.26 363.88 233.6 355.16 233.61 355.16 230.26 346.22 230.26 346.24 280.65 372.83 280.64"/><path class="cls-15" d="M520.57,425.69h7.18a0,0,0,0,1,0,0v4.49a0,0,0,0,1,0,0h-7.18a2.08,2.08,0,0,1-2.08-2.08v-.34A2.08,2.08,0,0,1,520.57,425.69Z" transform="translate(834.4 701.54) rotate(179.98)"/><path class="cls-15" d="M520.57,407.38h7.18a0,0,0,0,1,0,0v4.49a0,0,0,0,1,0,0h-7.18a2.08,2.08,0,0,1-2.08-2.08v-.34A2.08,2.08,0,0,1,520.57,407.38Z" transform="translate(834.38 664.93) rotate(179.98)"/><path class="cls-15" d="M520.56,389.08h7.18a0,0,0,0,1,0,0v4.49a0,0,0,0,1,0,0h-7.18a2.08,2.08,0,0,1-2.08-2.08v-.34A2.08,2.08,0,0,1,520.56,389.08Z" transform="translate(834.36 628.32) rotate(179.98)"/><path class="cls-15" d="M282,234.92h7.18a0,0,0,0,1,0,0v4.49a0,0,0,0,1,0,0H282a2.08,2.08,0,0,1-2.08-2.08V237A2.08,2.08,0,0,1,282,234.92Z"/><path class="cls-15" d="M282,253.23h7.18a0,0,0,0,1,0,0v4.49a0,0,0,0,1,0,0H282a2.08,2.08,0,0,1-2.08-2.08v-.34a2.08,2.08,0,0,1,2.08-2.08Z"/><path class="cls-15" d="M282,271.54h7.18a0,0,0,0,1,0,0V276a0,0,0,0,1,0,0H282a2.08,2.08,0,0,1-2.08-2.08v-.34a2.08,2.08,0,0,1,2.08-2.08Z"/><polygon class="cls-16" points="311.14 280.66 311.13 230.28 302.19 230.28 302.19 233.62 293.47 233.63 293.47 230.28 284.53 230.28 284.54 280.67 311.14 280.66"/><path class="cls-15" d="M458.88,425.71h7.18a0,0,0,0,1,0,0v4.49a0,0,0,0,1,0,0h-7.18a2.08,2.08,0,0,1-2.08-2.08v-.34A2.08,2.08,0,0,1,458.88,425.71Z" transform="translate(711.01 701.6) rotate(179.98)"/><path class="cls-15" d="M458.87,407.4h7.18a0,0,0,0,1,0,0v4.49a0,0,0,0,1,0,0h-7.18a2.08,2.08,0,0,1-2.08-2.08v-.34A2.08,2.08,0,0,1,458.87,407.4Z" transform="translate(710.99 664.99) rotate(179.98)"/><path class="cls-15" d="M458.87,389.1H466a0,0,0,0,1,0,0v4.49a0,0,0,0,1,0,0h-7.18a2.08,2.08,0,0,1-2.08-2.08v-.34A2.08,2.08,0,0,1,458.87,389.1Z" transform="translate(710.98 628.37) rotate(179.98)"/><path class="cls-15" d="M220.29,234.94h7.18a0,0,0,0,1,0,0v4.49a0,0,0,0,1,0,0h-7.18a2.08,2.08,0,0,1-2.08-2.08V237a2.08,2.08,0,0,1,2.08-2.08Z"/><path class="cls-15" d="M220.29,253.25h7.18a0,0,0,0,1,0,0v4.49a0,0,0,0,1,0,0h-7.18a2.08,2.08,0,0,1-2.08-2.08v-.34A2.08,2.08,0,0,1,220.29,253.25Z"/><path class="cls-15" d="M220.3,271.56h7.18a0,0,0,0,1,0,0V276a0,0,0,0,1,0,0H220.3a2.08,2.08,0,0,1-2.08-2.08v-.34A2.08,2.08,0,0,1,220.3,271.56Z"/><polygon class="cls-16" points="249.45 280.68 249.43 230.29 240.49 230.3 240.49 233.64 231.78 233.64 231.77 230.3 222.84 230.3 222.85 280.69 249.45 280.68"/><path class="cls-15" d="M397.19,425.73h7.18a0,0,0,0,1,0,0v4.49a0,0,0,0,1,0,0h-7.18a2.08,2.08,0,0,1-2.08-2.08v-.34A2.08,2.08,0,0,1,397.19,425.73Z" transform="translate(587.62 701.66) rotate(179.98)"/><path class="cls-15" d="M397.18,407.42h7.18a0,0,0,0,1,0,0v4.49a0,0,0,0,1,0,0h-7.18a2.08,2.08,0,0,1-2.08-2.08v-.34a2.08,2.08,0,0,1,2.08-2.08Z" transform="translate(587.61 665.05) rotate(179.98)"/><path class="cls-15" d="M397.18,389.11h7.18a0,0,0,0,1,0,0v4.49a0,0,0,0,1,0,0h-7.18a2.08,2.08,0,0,1-2.08-2.08v-.34A2.08,2.08,0,0,1,397.18,389.11Z" transform="translate(587.59 628.43) rotate(179.98)"/><path class="cls-15" d="M158.59,235h7.18a0,0,0,0,1,0,0v4.49a0,0,0,0,1,0,0h-7.18a2.08,2.08,0,0,1-2.08-2.08V237A2.08,2.08,0,0,1,158.59,235Z"/><path class="cls-15" d="M158.6,253.27h7.18a0,0,0,0,1,0,0v4.49a0,0,0,0,1,0,0H158.6a2.08,2.08,0,0,1-2.08-2.08v-.34A2.08,2.08,0,0,1,158.6,253.27Z"/><path class="cls-15" d="M158.6,271.58h7.18a0,0,0,0,1,0,0v4.49a0,0,0,0,1,0,0H158.6a2.08,2.08,0,0,1-2.08-2.08v-.34A2.08,2.08,0,0,1,158.6,271.58Z"/><polygon class="cls-16" points="187.75 280.7 187.74 230.31 178.8 230.32 178.8 233.66 170.08 233.66 170.08 230.32 161.14 230.32 161.16 280.7 187.75 280.7"/><path class="cls-15" d="M335.49,425.75h7.18a0,0,0,0,1,0,0v4.49a0,0,0,0,1,0,0h-7.18a2.08,2.08,0,0,1-2.08-2.08v-.34A2.08,2.08,0,0,1,335.49,425.75Z" transform="translate(464.24 701.72) rotate(179.98)"/><path class="cls-15" d="M335.49,407.44h7.18a0,0,0,0,1,0,0v4.49a0,0,0,0,1,0,0h-7.18a2.08,2.08,0,0,1-2.08-2.08v-.34a2.08,2.08,0,0,1,2.08-2.08Z" transform="translate(464.22 665.1) rotate(179.98)"/><path class="cls-15" d="M335.48,389.13h7.18a0,0,0,0,1,0,0v4.49a0,0,0,0,1,0,0h-7.18a2.08,2.08,0,0,1-2.08-2.08v-.34A2.08,2.08,0,0,1,335.48,389.13Z" transform="matrix(-1, 0, 0, -1, 464.2, 628.49)"/><path class="cls-15" d="M96.9,235h7.18a0,0,0,0,1,0,0v4.49a0,0,0,0,1,0,0H96.9a2.08,2.08,0,0,1-2.08-2.08v-.34A2.08,2.08,0,0,1,96.9,235Z"/><path class="cls-15" d="M96.91,253.29h7.18a0,0,0,0,1,0,0v4.49a0,0,0,0,1,0,0H96.91a2.08,2.08,0,0,1-2.08-2.08v-.34A2.08,2.08,0,0,1,96.91,253.29Z"/><path class="cls-15" d="M96.91,271.59h7.18a0,0,0,0,1,0,0v4.49a0,0,0,0,1,0,0H96.91A2.08,2.08,0,0,1,94.84,274v-.34A2.08,2.08,0,0,1,96.91,271.59Z"/><polygon class="cls-16" points="126.06 280.71 126.05 230.33 117.11 230.34 117.11 233.68 108.39 233.68 108.39 230.34 99.45 230.34 99.47 280.72 126.06 280.71"/><path class="cls-15" d="M273.8,425.77H281a0,0,0,0,1,0,0v4.49a0,0,0,0,1,0,0H273.8a2.08,2.08,0,0,1-2.08-2.08v-.34A2.08,2.08,0,0,1,273.8,425.77Z" transform="matrix(-1, 0, 0, -1, 340.85, 701.77)"/><path class="cls-15" d="M273.8,407.46H281a0,0,0,0,1,0,0v4.49a0,0,0,0,1,0,0H273.8a2.08,2.08,0,0,1-2.08-2.08v-.34A2.08,2.08,0,0,1,273.8,407.46Z" transform="translate(340.84 665.16) rotate(179.98)"/><path class="cls-15" d="M273.79,389.15H281a0,0,0,0,1,0,0v4.49a0,0,0,0,1,0,0h-7.18a2.08,2.08,0,0,1-2.08-2.08v-.34A2.08,2.08,0,0,1,273.79,389.15Z" transform="translate(340.82 628.55) rotate(179.98)"/><path class="cls-15" d="M35.21,235h7.18a0,0,0,0,1,0,0v4.49a0,0,0,0,1,0,0H35.21a2.08,2.08,0,0,1-2.08-2.08v-.34A2.08,2.08,0,0,1,35.21,235Z"/><path class="cls-15" d="M35.21,253.31h7.18a0,0,0,0,1,0,0v4.49a0,0,0,0,1,0,0H35.21a2.08,2.08,0,0,1-2.08-2.08v-.34a2.08,2.08,0,0,1,2.08-2.08Z"/><path class="cls-15" d="M35.22,271.61H42.4a0,0,0,0,1,0,0v4.49a0,0,0,0,1,0,0H35.22A2.08,2.08,0,0,1,33.14,274v-.34a2.08,2.08,0,0,1,2.08-2.08Z"/><polygon class="cls-16" points="64.37 280.74 64.35 230.35 55.41 230.35 55.41 233.7 46.7 233.7 46.7 230.36 37.76 230.36 37.77 280.74 64.37 280.74"/><circle class="cls-18" cx="394.59" cy="24.84" r="8.52"/><circle class="cls-18" cx="394.66" cy="262.63" r="8.52"/><circle class="cls-19" cx="107.78" cy="191.75" r="21.63"/><g class="cls-20"><circle class="cls-3" cx="107.78" cy="191.75" r="21.63"/></g><circle class="cls-19" cx="165.89" cy="191.74" r="21.61"/><g class="cls-21"><circle class="cls-3" cx="165.89" cy="191.74" r="21.61"/></g><rect class="cls-4" x="125.41" y="151.56" width="10.31" height="7.62"/><rect class="cls-22" x="135.72" y="151.56" width="2.64" height="7.62"/><rect class="cls-23" x="122.77" y="151.57" width="2.64" height="7.62"/><rect class="cls-23" x="138.36" y="151.56" width="2.64" height="7.62"/><rect class="cls-4" x="145.49" y="151.56" width="10.31" height="7.62"/><rect class="cls-22" x="155.79" y="151.56" width="2.64" height="7.62"/><rect class="cls-23" x="142.85" y="151.56" width="2.64" height="7.62"/><rect class="cls-23" x="158.43" y="151.56" width="2.64" height="7.62"/><rect class="cls-4" x="125.41" y="142.15" width="10.31" height="7.62"/><rect class="cls-22" x="135.72" y="142.15" width="2.64" height="7.62"/><rect class="cls-23" x="122.77" y="142.15" width="2.64" height="7.62"/><rect class="cls-23" x="138.36" y="142.15" width="2.64" height="7.62"/><rect class="cls-4" x="145.49" y="142.15" width="10.31" height="7.62"/><rect class="cls-22" x="155.8" y="142.15" width="2.64" height="7.62"/><rect class="cls-23" x="142.85" y="142.15" width="2.64" height="7.62"/><rect class="cls-23" x="158.44" y="142.15" width="2.64" height="7.62"/><polygon class="cls-24" points="63.8 8.87 63.3 7.72 60.08 7.72 60.08 9.28 55.69 11.83 53.94 6.72 50.99 6.72 47.89 6.74 46.3 11.83 41.91 9.28 41.91 7.72 38.69 7.72 38.18 8.87 37.69 9.85 37.69 16.7 50.99 16.7 64.3 16.7 64.3 9.85 63.8 8.87"/><polygon class="cls-17" points="109.58 6.74 110.77 2.64 114.33 2.63 115.63 6.72 109.58 6.74"/><polygon class="cls-24" points="125.5 8.87 124.99 7.72 121.77 7.72 121.77 9.28 117.38 11.83 115.63 6.72 112.69 6.72 109.58 6.74 107.99 11.83 103.6 9.28 103.6 7.72 100.38 7.72 99.88 8.87 99.38 9.85 99.38 16.7 112.69 16.7 125.99 16.7 125.99 9.85 125.5 8.87"/><polygon class="cls-17" points="171.25 6.74 172.44 2.64 176 2.63 177.29 6.72 171.25 6.74"/><polygon class="cls-24" points="187.17 8.87 186.67 7.72 183.45 7.72 183.45 9.28 179.06 11.83 177.31 6.72 174.36 6.72 171.26 6.74 169.67 11.83 165.28 9.28 165.28 7.72 162.06 7.72 161.55 8.87 161.06 9.85 161.06 16.7 174.36 16.7 187.67 16.7 187.67 9.85 187.17 8.87"/><polygon class="cls-17" points="232.93 6.74 234.12 2.64 237.68 2.63 238.97 6.72 232.93 6.74"/><polygon class="cls-24" points="248.84 8.87 248.34 7.72 245.12 7.72 245.12 9.28 240.72 11.83 238.97 6.72 236.03 6.72 232.93 6.74 231.34 11.83 226.94 9.28 226.94 7.72 223.72 7.72 223.22 8.87 222.72 9.85 222.72 16.7 236.03 16.7 249.34 16.7 249.34 9.85 248.84 8.87"/><polygon class="cls-17" points="294.65 6.74 295.84 2.64 299.4 2.63 300.69 6.72 294.65 6.74"/><polygon class="cls-24" points="310.56 8.87 310.06 7.72 306.84 7.72 306.84 9.28 302.44 11.83 300.69 6.72 297.75 6.72 294.65 6.74 293.06 11.83 288.66 9.28 288.66 7.72 285.45 7.72 284.94 8.87 284.44 9.85 284.44 16.7 297.75 16.7 311.06 16.7 311.06 9.85 310.56 8.87"/><polygon class="cls-17" points="356.34 6.74 357.53 2.64 361.09 2.63 362.39 6.72 356.34 6.74"/><polygon class="cls-24" points="372.25 8.87 371.75 7.72 368.53 7.72 368.53 9.28 364.14 11.83 362.39 6.72 359.44 6.72 356.34 6.74 354.75 11.83 350.35 9.28 350.35 7.72 347.14 7.72 346.63 8.87 346.14 9.85 346.14 16.7 359.44 16.7 372.75 16.7 372.75 9.85 372.25 8.87"/><path class="cls-3" d="M619.68,228.66h15.16a1.91,1.91,0,0,1,1.91,1.91v4.74a0,0,0,0,1,0,0h-19a0,0,0,0,1,0,0v-4.74A1.91,1.91,0,0,1,619.68,228.66Z" transform="translate(647.07 -549.51) rotate(89.98)"/><polygon class="cls-17" points="411.94 74.74 416.04 75.93 416.05 79.49 411.96 80.78 411.94 74.74"/><polygon class="cls-24" points="409.81 90.65 410.96 90.14 410.96 86.93 409.4 86.93 406.85 82.53 411.96 80.78 411.96 77.84 411.94 74.74 406.85 73.15 409.4 68.75 410.96 68.75 410.96 65.53 409.81 65.03 408.83 64.53 401.99 64.53 401.99 77.84 401.99 91.15 408.83 91.15 409.81 90.65"/><path class="cls-3" d="M619.68,290.33h15.16a1.91,1.91,0,0,1,1.91,1.91V297a0,0,0,0,1,0,0h-19a0,0,0,0,1,0,0v-4.74A1.91,1.91,0,0,1,619.68,290.33Z" transform="translate(708.73 -487.86) rotate(89.98)"/><polygon class="cls-17" points="411.94 136.4 416.04 137.59 416.05 141.15 411.96 142.45 411.94 136.4"/><polygon class="cls-24" points="409.81 152.31 410.96 151.81 410.96 148.59 409.4 148.59 406.85 144.2 411.96 142.45 411.96 139.51 411.94 136.4 406.85 134.81 409.4 130.42 410.96 130.42 410.96 127.2 409.81 126.7 408.83 126.2 401.99 126.2 401.99 139.51 401.99 152.81 408.83 152.81 409.81 152.31"/><polygon class="cls-17" points="54.18 280.7 52.99 284.81 49.43 284.81 48.13 280.72 54.18 280.7"/><polygon class="cls-24" points="38.27 278.58 38.77 279.72 41.99 279.72 41.99 278.17 46.38 275.62 48.13 280.72 51.08 280.72 54.18 280.7 55.77 275.62 60.16 278.17 60.16 279.72 63.38 279.72 63.88 278.58 64.38 277.59 64.38 270.75 51.08 270.75 37.77 270.75 37.77 277.59 38.27 278.58"/><polygon class="cls-17" points="115.87 280.7 114.68 284.81 111.12 284.81 109.83 280.72 115.87 280.7"/><polygon class="cls-24" points="99.96 278.58 100.46 279.72 103.68 279.72 103.68 278.17 108.07 275.62 109.83 280.72 112.77 280.72 115.87 280.7 117.46 275.62 121.86 278.17 121.86 279.72 125.07 279.72 125.58 278.58 126.07 277.59 126.07 270.75 112.77 270.75 99.46 270.75 99.46 277.59 99.96 278.58"/><polygon class="cls-17" points="177.56 280.7 176.37 284.81 172.81 284.81 171.52 280.72 177.56 280.7"/><polygon class="cls-24" points="161.65 278.58 162.16 279.72 165.37 279.72 165.37 278.17 169.77 275.62 171.52 280.72 174.46 280.72 177.56 280.7 179.16 275.62 183.55 278.17 183.55 279.72 186.77 279.72 187.27 278.58 187.77 277.59 187.77 270.75 174.46 270.75 161.16 270.75 161.16 277.59 161.65 278.58"/><polygon class="cls-17" points="239.24 280.7 238.05 284.81 234.49 284.81 233.2 280.72 239.24 280.7"/><polygon class="cls-24" points="223.33 278.58 223.84 279.72 227.05 279.72 227.05 278.17 231.45 275.62 233.2 280.72 236.14 280.72 239.24 280.7 240.84 275.62 245.23 278.17 245.23 279.72 248.45 279.72 248.95 278.58 249.45 277.59 249.45 270.75 236.14 270.75 222.84 270.75 222.84 277.59 223.33 278.58"/><polygon class="cls-17" points="300.95 280.7 299.76 284.81 296.2 284.81 294.9 280.72 300.95 280.7"/><polygon class="cls-24" points="285.04 278.58 285.54 279.72 288.76 279.72 288.76 278.17 293.15 275.62 294.9 280.72 297.85 280.72 300.95 280.7 302.54 275.62 306.94 278.17 306.94 279.72 310.15 279.72 310.66 278.58 311.15 277.59 311.15 270.75 297.85 270.75 284.54 270.75 284.54 277.59 285.04 278.58"/><polygon class="cls-17" points="362.64 280.7 361.45 284.81 357.89 284.81 356.6 280.72 362.64 280.7"/><polygon class="cls-24" points="346.73 278.58 347.24 279.72 350.45 279.72 350.45 278.17 354.85 275.62 356.6 280.72 359.54 280.72 362.64 280.7 364.23 275.62 368.63 278.17 368.63 279.72 371.85 279.72 372.35 278.58 372.85 277.59 372.85 270.75 359.54 270.75 346.23 270.75 346.23 277.59 346.73 278.58"/><rect class="cls-25" x="114.89" y="146.68" width="4.99" height="7.98"/><rect class="cls-23" x="114.89" y="145.03" width="4.99" height="1.65"/><rect class="cls-23" x="114.89" y="154.66" width="4.99" height="1.65"/><rect class="cls-26" x="87.66" y="119.91" width="5.36" height="8.56"/><rect class="cls-23" x="87.66" y="118.14" width="5.36" height="1.77"/><rect class="cls-23" x="87.66" y="128.48" width="5.36" height="1.77"/><rect class="cls-25" x="163.97" y="146.68" width="5.67" height="7.98"/><rect class="cls-23" x="163.97" y="145.03" width="5.67" height="1.65"/><rect class="cls-23" x="163.97" y="154.66" width="5.67" height="1.65"/><rect class="cls-27" x="103.57" y="61.72" width="46.11" height="27.93"/><circle class="cls-28" cx="142.78" cy="68.62" r="4.37"/><circle class="cls-28" cx="126.63" cy="68.62" r="4.37"/><circle class="cls-28" cx="110.47" cy="68.62" r="4.37"/><circle class="cls-28" cx="142.78" cy="82.37" r="4.37"/><circle class="cls-28" cx="126.63" cy="82.37" r="4.37"/><circle class="cls-28" cx="110.47" cy="82.37" r="4.37"/><rect class="cls-27" x="135.88" y="61.72" width="13.8" height="13.8"/><rect class="cls-27" x="152.52" y="61.72" width="46.11" height="27.93"/><circle class="cls-28" cx="191.73" cy="68.62" r="4.37"/><circle class="cls-28" cx="175.58" cy="68.62" r="4.37"/><circle class="cls-28" cx="159.42" cy="68.62" r="4.37"/><circle class="cls-28" cx="191.73" cy="82.37" r="4.37"/><circle class="cls-28" cx="175.58" cy="82.37" r="4.37"/><circle class="cls-28" cx="159.42" cy="82.37" r="4.37"/><rect class="cls-27" x="184.83" y="61.72" width="13.8" height="13.8"/><circle class="cls-28" cx="242.61" cy="68.62" r="4.37"/><rect class="cls-27" x="235.71" y="61.72" width="13.8" height="13.8"/><rect class="cls-27" x="221.92" y="61.72" width="13.8" height="13.8"/><rect class="cls-25" x="281.25" y="269.86" width="8.21" height="16.99" transform="translate(-204.99 409.55) rotate(-90)"/><rect class="cls-23" x="78.65" y="118.48" width="3.21" height="1.61"/><rect class="cls-23" x="71.76" y="117.7" width="3.21" height="2.39"/><rect class="cls-23" x="64.87" y="118.48" width="3.21" height="1.61"/><rect class="cls-23" x="78.65" y="128.3" width="3.21" height="1.61"/><rect class="cls-23" x="64.87" y="128.3" width="3.21" height="1.61"/><rect class="cls-29" x="313.17" y="64.72" width="22.5" height="13.48"/><rect class="cls-23" x="311.63" y="66.52" width="25.57" height="9.88"/><rect class="cls-29" x="158.4" y="96.43" width="22.5" height="13.48"/><rect class="cls-23" x="156.86" y="98.23" width="25.57" height="9.88"/><path class="cls-4" d="M546.62,249.07a.28.28,0,0,0,.07-.18v-5.12a.1.1,0,0,1,.1-.1h.71a.1.1,0,0,1,.1.1v5.51a.34.34,0,0,1-.07.18l-.72.72a.33.33,0,0,1-.18.07h-1.16a.33.33,0,0,1-.18-.07l-.72-.72a.34.34,0,0,1-.07-.18v-5.51a.1.1,0,0,1,.1-.1h.71a.1.1,0,0,1,.1.1v5.12a.34.34,0,0,0,.07.18l.18.18a.33.33,0,0,0,.18.07h.4a.33.33,0,0,0,.18-.07Z" transform="translate(-211.99 -154.16)"/><path class="cls-4" d="M550,243.76a.14.14,0,0,1,.13-.09h.7a.12.12,0,0,1,.12.09l1.55,6.38a.07.07,0,0,1-.08.1h-.75a.14.14,0,0,1-.13-.1l-.22-.91a.12.12,0,0,0-.13-.09h-1.42a.13.13,0,0,0-.13.09l-.22.91a.13.13,0,0,1-.13.1h-.74a.08.08,0,0,1-.09-.1Zm-.08,4.34a.08.08,0,0,0,.08.1h1a.08.08,0,0,0,.08-.1l-.54-2.24c0-.06,0-.06-.05,0Z" transform="translate(-211.99 -154.16)"/><path class="cls-4" d="M556.31,246.79a.29.29,0,0,1-.08.18l-.27.27a.19.19,0,0,0-.05.17l.47,2.72a.09.09,0,0,1-.09.1h-.73a.12.12,0,0,1-.12-.1l-.4-2.27a.12.12,0,0,0-.12-.09h-.72a.09.09,0,0,0-.09.09v2.27a.11.11,0,0,1-.1.1h-.71a.11.11,0,0,1-.11-.1v-6.37a.1.1,0,0,1,.1-.1h2a.29.29,0,0,1,.18.08l.72.72a.29.29,0,0,1,.08.17Zm-1-.2a.29.29,0,0,0,.08-.18V245a.27.27,0,0,0-.08-.17l-.18-.18a.29.29,0,0,0-.17-.08h-.74a.11.11,0,0,0-.1.1v2.06a.11.11,0,0,0,.1.1H555a.28.28,0,0,0,.17-.07Z" transform="translate(-211.99 -154.16)"/><path class="cls-4" d="M557.35,244.53a.1.1,0,0,1-.1-.1v-.67a.1.1,0,0,1,.1-.09h2.77a.1.1,0,0,1,.1.09v.67a.11.11,0,0,1-.1.1h-.85a.1.1,0,0,0-.1.1v5.5a.1.1,0,0,1-.1.1h-.66a.1.1,0,0,1-.1-.1v-5.5a.11.11,0,0,0-.1-.1Z" transform="translate(-211.99 -154.16)"/><path class="cls-4" d="M544.62,295.3a.1.1,0,0,1-.1-.1v-.71a.1.1,0,0,1,.1-.1h2.6a.11.11,0,0,1,.1.1v.71a.11.11,0,0,1-.1.1h-.75a.11.11,0,0,0-.1.1v4.52a.1.1,0,0,0,.1.1h.75a.11.11,0,0,1,.1.1v.71a.11.11,0,0,1-.1.1h-2.6a.1.1,0,0,1-.1-.1v-.71a.1.1,0,0,1,.1-.1h.73a.1.1,0,0,0,.1-.1v-4.52a.1.1,0,0,0-.1-.1Z" transform="translate(-211.99 -154.16)"/><path class="cls-4" d="M548.12,295.3a.1.1,0,0,1-.1-.1v-.71a.1.1,0,0,1,.1-.1h2.6a.11.11,0,0,1,.1.1v.71a.11.11,0,0,1-.1.1H550a.11.11,0,0,0-.1.1v4.52a.1.1,0,0,0,.1.1h.75a.11.11,0,0,1,.1.1v.71a.11.11,0,0,1-.1.1h-2.6a.1.1,0,0,1-.1-.1v-.71a.1.1,0,0,1,.1-.1h.73a.1.1,0,0,0,.1-.1v-4.52a.1.1,0,0,0-.1-.1Z" transform="translate(-211.99 -154.16)"/><path class="cls-4" d="M552.31,294.44a.31.31,0,0,1,.17-.07h1.17a.31.31,0,0,1,.17.07l.72.73a.25.25,0,0,1,.08.17v.9a.1.1,0,0,1-.1.1h-.71a.11.11,0,0,1-.1-.1v-.52a.33.33,0,0,0-.07-.18l-.19-.18a.29.29,0,0,0-.17-.07h-.41a.29.29,0,0,0-.17.07l-.19.18a.34.34,0,0,0-.07.18v3.88a.29.29,0,0,0,.07.17l.19.19a.28.28,0,0,0,.17.07h.41a.29.29,0,0,0,.17-.07l.19-.19a.28.28,0,0,0,.07-.17v-.52a.11.11,0,0,1,.1-.1h.71a.1.1,0,0,1,.1.1v.9a.26.26,0,0,1-.08.17l-.72.73a.31.31,0,0,1-.17.07h-1.17a.31.31,0,0,1-.17-.07l-.73-.73a.3.3,0,0,1-.07-.17v-4.64a.29.29,0,0,1,.07-.17Z" transform="translate(-211.99 -154.16)"/><path class="cls-4" d="M547.63,341.54a.29.29,0,0,1-.08.18l-.27.27a.19.19,0,0,0-.05.17l.47,2.72a.09.09,0,0,1-.09.1h-.73a.12.12,0,0,1-.12-.1l-.4-2.27a.12.12,0,0,0-.12-.09h-.72a.09.09,0,0,0-.09.09v2.27a.11.11,0,0,1-.1.1h-.71a.11.11,0,0,1-.11-.1v-6.37a.1.1,0,0,1,.1-.1h2a.29.29,0,0,1,.18.08l.72.72a.29.29,0,0,1,.08.17Zm-1-.2a.29.29,0,0,0,.08-.18v-1.4a.27.27,0,0,0-.08-.17l-.18-.18a.29.29,0,0,0-.17-.08h-.74a.11.11,0,0,0-.1.1v2.06a.1.1,0,0,0,.1.1h.74a.27.27,0,0,0,.17-.07Z" transform="translate(-211.99 -154.16)"/><path class="cls-4" d="M551.21,339.24a.11.11,0,0,1-.1.1h-1.52a.1.1,0,0,0-.1.1v1.23a.1.1,0,0,0,.1.1h1.15a.11.11,0,0,1,.1.1v.71a.1.1,0,0,1-.1.1h-1.15a.11.11,0,0,0-.1.1V344a.1.1,0,0,0,.1.1h1.52a.1.1,0,0,1,.1.1v.71a.1.1,0,0,1-.1.1h-2.44a.1.1,0,0,1-.1-.1v-6.36a.1.1,0,0,1,.1-.1h2.44a.1.1,0,0,1,.1.1Z" transform="translate(-211.99 -154.16)"/><path class="cls-4" d="M552.88,338.49a.29.29,0,0,1,.17-.08h1.17a.29.29,0,0,1,.18.08l.72.72a.34.34,0,0,1,.07.17v.9a.1.1,0,0,1-.1.1h-.71a.11.11,0,0,1-.1-.1v-.52a.26.26,0,0,0-.07-.17l-.18-.19a.34.34,0,0,0-.18-.07h-.41a.34.34,0,0,0-.17.07l-.18.19a.27.27,0,0,0-.08.17v.92a.31.31,0,0,0,.07.17l.19.18a.25.25,0,0,0,.17.08h.79a.3.3,0,0,1,.17.07l.73.72a.33.33,0,0,1,.07.18V344a.3.3,0,0,1-.07.17l-.72.73a.32.32,0,0,1-.18.07H553a.33.33,0,0,1-.17-.07l-.72-.73a.26.26,0,0,1-.08-.17v-1.11a.11.11,0,0,1,.1-.1h.71a.1.1,0,0,1,.1.1v.73a.28.28,0,0,0,.08.18l.18.18a.33.33,0,0,0,.17.07h.41A.33.33,0,0,0,554,344l.18-.18a.27.27,0,0,0,.07-.18v-1.18a.28.28,0,0,0-.07-.18l-.19-.18a.24.24,0,0,0-.17-.07H553a.27.27,0,0,1-.17-.08l-.73-.72a.33.33,0,0,1-.07-.18v-1.67a.29.29,0,0,1,.08-.17Z" transform="translate(-211.99 -154.16)"/><path class="cls-4" d="M558.69,339.24a.11.11,0,0,1-.1.1h-1.52a.1.1,0,0,0-.1.1v1.23a.1.1,0,0,0,.1.1h1.15a.11.11,0,0,1,.1.1v.71a.1.1,0,0,1-.1.1h-1.15a.11.11,0,0,0-.1.1V344a.1.1,0,0,0,.1.1h1.52a.1.1,0,0,1,.1.1v.71a.1.1,0,0,1-.1.1h-2.44a.1.1,0,0,1-.1-.1v-6.36a.1.1,0,0,1,.1-.1h2.44a.1.1,0,0,1,.1.1Z" transform="translate(-211.99 -154.16)"/><path class="cls-4" d="M559.66,339.28a.1.1,0,0,1-.1-.1v-.66a.1.1,0,0,1,.1-.09h2.77a.1.1,0,0,1,.1.09v.66a.11.11,0,0,1-.1.1h-.85a.1.1,0,0,0-.1.1v5.51a.1.1,0,0,1-.1.1h-.66a.1.1,0,0,1-.1-.1v-5.51a.1.1,0,0,0-.1-.1Z" transform="translate(-211.99 -154.16)"/><path class="cls-10" d="M436.16,218.13v9.29h9.29v-9.29ZM440.8,226a3.24,3.24,0,1,1,3.24-3.24A3.24,3.24,0,0,1,440.8,226Z" transform="translate(-211.99 -154.16)"/><path class="cls-4" d="M257.8,180.33a.09.09,0,0,1-.1-.1v-5.89a.09.09,0,0,1,.1-.1h1.89a.24.24,0,0,1,.16.06l.66.66a.27.27,0,0,1,.07.17v4.29a.25.25,0,0,1-.07.16l-.66.66a.25.25,0,0,1-.16.07Zm1.54-.85a.25.25,0,0,0,.16-.07l.17-.17a.25.25,0,0,0,.07-.16V175.5a.27.27,0,0,0-.07-.17l-.17-.17a.29.29,0,0,0-.16-.06h-.69a.1.1,0,0,0-.1.1v4.2a.1.1,0,0,0,.1.1Z" transform="translate(-211.99 -154.16)"/><path class="cls-4" d="M263.27,179.39a.1.1,0,0,0,.1.1h.52a.09.09,0,0,1,.1.1v.66a.09.09,0,0,1-.1.1h-2.07a.09.09,0,0,1-.1-.1v-.66a.09.09,0,0,1,.1-.1h.5a.1.1,0,0,0,.1-.1v-3.45c0-.06,0-.06,0,0l-.23.42a.1.1,0,0,1-.14,0l-.57-.33a.09.09,0,0,1,0-.13l.9-1.58s.06-.09.08-.09h.79a.1.1,0,0,1,.1.1Z" transform="translate(-211.99 -154.16)"/><path class="cls-4" d="M267.46,176.62a.28.28,0,0,1-.06.16l-.25.25a.09.09,0,0,0,0,.14l.25.24a.31.31,0,0,1,.06.17v1.86a.26.26,0,0,1-.07.16l-.66.67a.31.31,0,0,1-.17.06h-1.08a.31.31,0,0,1-.16-.06l-.67-.67a.32.32,0,0,1-.06-.16v-.83a.09.09,0,0,1,.1-.1h.66a.09.09,0,0,1,.1.1v.48a.25.25,0,0,0,.07.16l.17.17a.25.25,0,0,0,.16.07h.38a.27.27,0,0,0,.17-.07l.17-.17a.26.26,0,0,0,.07-.16v-1.16a.27.27,0,0,0-.07-.17l-.17-.17a.27.27,0,0,0-.16-.07h-.55a.09.09,0,0,1-.1-.1v-.66a.1.1,0,0,1,.1-.1h.55a.31.31,0,0,0,.16-.06l.17-.18a.23.23,0,0,0,.07-.16v-.78a.27.27,0,0,0-.07-.17l-.17-.17a.26.26,0,0,0-.17-.06h-.38a.24.24,0,0,0-.16.06l-.17.17a.27.27,0,0,0-.07.17V176a.09.09,0,0,1-.1.1h-.66a.09.09,0,0,1-.1-.1v-.83a.31.31,0,0,1,.06-.17l.67-.66a.25.25,0,0,1,.16-.06h1.08a.26.26,0,0,1,.17.06l.66.66a.27.27,0,0,1,.07.17Z" transform="translate(-211.99 -154.16)"/><path class="cls-4" d="M257.8,198.67a.09.09,0,0,1-.1-.1v-5.89a.09.09,0,0,1,.1-.1h1.89a.24.24,0,0,1,.16.06l.66.66a.27.27,0,0,1,.07.17v4.29a.25.25,0,0,1-.07.16l-.66.66a.25.25,0,0,1-.16.07Zm1.54-.85a.25.25,0,0,0,.16-.07l.17-.17a.25.25,0,0,0,.07-.16v-3.59a.27.27,0,0,0-.07-.17l-.17-.17a.29.29,0,0,0-.16-.06h-.69a.1.1,0,0,0-.1.1v4.2a.1.1,0,0,0,.1.1Z" transform="translate(-211.99 -154.16)"/><path class="cls-4" d="M263.27,197.72a.1.1,0,0,0,.1.1h.52a.09.09,0,0,1,.1.1v.66a.09.09,0,0,1-.1.1h-2.07a.09.09,0,0,1-.1-.1v-.66a.09.09,0,0,1,.1-.1h.5a.1.1,0,0,0,.1-.1v-3.45c0-.06,0-.06,0,0l-.23.42a.1.1,0,0,1-.14,0l-.57-.33a.09.09,0,0,1,0-.13l.9-1.58s.06-.09.08-.09h.79a.1.1,0,0,1,.1.1Z" transform="translate(-211.99 -154.16)"/><path class="cls-4" d="M264.68,198.67a.09.09,0,0,1-.1-.1V196a.31.31,0,0,1,.06-.17l.67-.66a.27.27,0,0,1,.17-.07h.72a.26.26,0,0,0,.17-.06l.17-.17a.27.27,0,0,0,.07-.17v-.84a.32.32,0,0,0-.07-.17l-.17-.17a.27.27,0,0,0-.17-.07h-.38a.25.25,0,0,0-.16.07l-.18.17a.31.31,0,0,0-.06.16v.48a.09.09,0,0,1-.1.1h-.66a.09.09,0,0,1-.1-.1v-.82a.31.31,0,0,1,.06-.17l.67-.66a.25.25,0,0,1,.16-.07h1.08a.23.23,0,0,1,.16.07l.67.66a.31.31,0,0,1,.06.17V195a.19.19,0,0,1-.06.16l-.66.67a.31.31,0,0,1-.17.06h-.73a.27.27,0,0,0-.16.07l-.18.17a.32.32,0,0,0-.06.17v1.39a.09.09,0,0,0,.1.1h1.83a.11.11,0,0,1,.1.1v.66a.1.1,0,0,1-.1.1Z" transform="translate(-211.99 -154.16)"/><path class="cls-4" d="M260.45,404.8a.13.13,0,0,1,.12-.09h.65a.11.11,0,0,1,.11.09l1.44,5.9a.07.07,0,0,1-.07.1H262a.13.13,0,0,1-.12-.1l-.2-.84a.11.11,0,0,0-.12-.09h-1.31a.12.12,0,0,0-.12.09l-.2.84a.12.12,0,0,1-.12.1h-.69a.08.08,0,0,1-.08-.1Zm-.07,4a.08.08,0,0,0,.07.1h.9a.07.07,0,0,0,.07-.1l-.5-2.07c0-.06,0-.06,0,0Z" transform="translate(-211.99 -154.16)"/><path class="cls-4" d="M264.3,410.79a.29.29,0,0,1-.16-.06l-.67-.67a.29.29,0,0,1-.06-.16v-4.29a.31.31,0,0,1,.06-.17l.67-.66a.28.28,0,0,1,.16-.06h1.08a.26.26,0,0,1,.16.06l.67.67a.26.26,0,0,1,.06.16v4.29a.28.28,0,0,1-.06.16l-.67.67a.27.27,0,0,1-.16.06Zm.73-.85a.31.31,0,0,0,.17-.06l.17-.18a.22.22,0,0,0,.06-.16V406a.26.26,0,0,0-.06-.17l-.17-.17a.27.27,0,0,0-.17-.07h-.38a.23.23,0,0,0-.16.07l-.18.17a.32.32,0,0,0-.06.17v3.58a.27.27,0,0,0,.06.16l.18.18a.26.26,0,0,0,.16.06Z" transform="translate(-211.99 -154.16)"/><path class="cls-4" d="M322.38,404.8a.13.13,0,0,1,.12-.09h.65a.11.11,0,0,1,.11.09l1.44,5.9a.07.07,0,0,1-.07.1h-.7a.13.13,0,0,1-.12-.1l-.2-.84a.11.11,0,0,0-.12-.09h-1.31a.12.12,0,0,0-.12.09l-.2.84a.12.12,0,0,1-.12.1h-.69a.08.08,0,0,1-.08-.1Zm-.07,4a.08.08,0,0,0,.07.1h.9a.07.07,0,0,0,.07-.1l-.5-2.07c0-.06,0-.06,0,0Z" transform="translate(-211.99 -154.16)"/><path class="cls-4" d="M327.23,409.85a.1.1,0,0,0,.1.1h.52a.09.09,0,0,1,.1.1v.66a.09.09,0,0,1-.1.1h-2.07a.09.09,0,0,1-.1-.1V410a.09.09,0,0,1,.1-.1h.5a.1.1,0,0,0,.1-.1V406.4c0-.06,0-.06,0,0l-.23.42a.1.1,0,0,1-.14,0l-.57-.33a.09.09,0,0,1,0-.13l.9-1.58s.06-.09.08-.09h.79a.1.1,0,0,1,.1.1Z" transform="translate(-211.99 -154.16)"/><path class="cls-4" d="M383.83,404.8a.13.13,0,0,1,.12-.09h.65a.11.11,0,0,1,.11.09l1.44,5.9a.07.07,0,0,1-.07.1h-.7a.13.13,0,0,1-.12-.1l-.2-.84a.11.11,0,0,0-.12-.09h-1.31a.12.12,0,0,0-.12.09l-.2.84a.12.12,0,0,1-.12.1h-.69a.08.08,0,0,1-.08-.1Zm-.07,4a.08.08,0,0,0,.07.1h.9a.07.07,0,0,0,.07-.1l-.5-2.07c0-.06,0-.06,0,0Z" transform="translate(-211.99 -154.16)"/><path class="cls-4" d="M386.89,410.79a.09.09,0,0,1-.1-.1v-2.6a.32.32,0,0,1,.06-.17l.67-.66a.27.27,0,0,1,.17-.07h.72a.26.26,0,0,0,.17-.06l.17-.17a.27.27,0,0,0,.07-.17V406a.32.32,0,0,0-.07-.17l-.17-.17a.27.27,0,0,0-.17-.07H388a.25.25,0,0,0-.16.07l-.18.17a.31.31,0,0,0-.06.16v.48a.09.09,0,0,1-.1.1h-.66a.09.09,0,0,1-.1-.1v-.82a.31.31,0,0,1,.06-.17l.67-.66a.25.25,0,0,1,.16-.07h1.08a.23.23,0,0,1,.16.07l.67.66a.31.31,0,0,1,.06.17v1.54a.19.19,0,0,1-.06.16l-.66.67a.31.31,0,0,1-.17.06H388a.26.26,0,0,0-.16.07l-.18.17a.32.32,0,0,0-.06.17v1.39a.09.09,0,0,0,.1.1h1.83a.11.11,0,0,1,.1.1v.66a.1.1,0,0,1-.1.1Z" transform="translate(-211.99 -154.16)"/><path class="cls-4" d="M445.51,404.8a.13.13,0,0,1,.12-.09h.65a.11.11,0,0,1,.11.09l1.44,5.9a.07.07,0,0,1-.07.1h-.7a.13.13,0,0,1-.12-.1l-.2-.84a.11.11,0,0,0-.12-.09h-1.31a.12.12,0,0,0-.12.09l-.2.84a.12.12,0,0,1-.12.1h-.69a.08.08,0,0,1-.08-.1Zm-.07,4a.08.08,0,0,0,.07.1h.9a.07.07,0,0,0,.07-.1l-.5-2.07c0-.06,0-.06,0,0Z" transform="translate(-211.99 -154.16)"/><path class="cls-4" d="M451.35,407.08a.28.28,0,0,1-.06.16l-.25.25a.09.09,0,0,0,0,.14l.25.24a.31.31,0,0,1,.06.17v1.86a.26.26,0,0,1-.07.16l-.66.67a.31.31,0,0,1-.17.06h-1.08a.32.32,0,0,1-.16-.06l-.67-.67a.32.32,0,0,1-.06-.16v-.83a.09.09,0,0,1,.1-.1h.66a.09.09,0,0,1,.1.1v.48a.25.25,0,0,0,.07.16l.17.17a.25.25,0,0,0,.16.07h.38a.27.27,0,0,0,.17-.07l.17-.17a.27.27,0,0,0,.07-.16v-1.16a.27.27,0,0,0-.07-.17l-.17-.17a.27.27,0,0,0-.16-.07h-.55a.09.09,0,0,1-.1-.1v-.66a.1.1,0,0,1,.1-.1h.55a.31.31,0,0,0,.16-.06l.17-.18a.23.23,0,0,0,.07-.16V406a.27.27,0,0,0-.07-.17l-.17-.17a.26.26,0,0,0-.17-.06h-.38a.24.24,0,0,0-.16.06l-.17.17a.27.27,0,0,0-.07.17v.48a.09.09,0,0,1-.1.1h-.66a.09.09,0,0,1-.1-.1v-.83a.31.31,0,0,1,.06-.17l.67-.66a.25.25,0,0,1,.16-.06h1.08a.26.26,0,0,1,.17.06l.66.66a.26.26,0,0,1,.07.17Z" transform="translate(-211.99 -154.16)"/><path class="cls-4" d="M507.21,404.8a.13.13,0,0,1,.12-.09H508a.11.11,0,0,1,.11.09l1.44,5.9a.07.07,0,0,1-.07.1h-.7a.13.13,0,0,1-.12-.1l-.2-.84a.11.11,0,0,0-.12-.09H507a.12.12,0,0,0-.12.09l-.2.84a.12.12,0,0,1-.12.1h-.69a.08.08,0,0,1-.08-.1Zm-.07,4a.08.08,0,0,0,.07.1h.9a.07.07,0,0,0,.07-.1l-.5-2.07c0-.06,0-.06,0,0Z" transform="translate(-211.99 -154.16)"/><path class="cls-4" d="M511.67,404.79a.22.22,0,0,1,.15-.08h.72a.1.1,0,0,1,.1.1v2.44a.09.09,0,0,0,.1.1H513a.1.1,0,0,1,.1.1v.66a.1.1,0,0,1-.1.1h-.24a.09.09,0,0,0-.1.1v2.41a.1.1,0,0,1-.1.1h-.66a.1.1,0,0,1-.1-.1v-2.41a.09.09,0,0,0-.1-.1h-1.42a.1.1,0,0,1-.1-.1v-1a.39.39,0,0,1,.06-.18Zm0,2.55a.09.09,0,0,0,.1-.1v-1c0-.06,0-.06-.06,0l-.7,1s0,.08,0,.08Z" transform="translate(-211.99 -154.16)"/><path class="cls-4" d="M568.91,404.8a.13.13,0,0,1,.12-.09h.65a.11.11,0,0,1,.11.09l1.44,5.9a.07.07,0,0,1-.07.1h-.7a.13.13,0,0,1-.12-.1l-.2-.84a.11.11,0,0,0-.12-.09h-1.31a.12.12,0,0,0-.12.09l-.2.84a.12.12,0,0,1-.12.1h-.69a.08.08,0,0,1-.08-.1Zm-.07,4a.08.08,0,0,0,.07.1h.9a.07.07,0,0,0,.07-.1l-.5-2.07c0-.06,0-.06,0,0Z" transform="translate(-211.99 -154.16)"/><path class="cls-4" d="M572.71,410.79a.31.31,0,0,1-.17-.06l-.66-.67a.28.28,0,0,1-.06-.16v-.83a.1.1,0,0,1,.1-.1h.66a.1.1,0,0,1,.1.1v.48a.26.26,0,0,0,.06.17l.17.17a.31.31,0,0,0,.17.06h.38a.31.31,0,0,0,.16-.06l.17-.18a.23.23,0,0,0,.07-.16v-1.42a.27.27,0,0,0-.06-.16l-.18-.18a.28.28,0,0,0-.16-.06h-.73a.25.25,0,0,1-.16-.07l-.67-.66a.28.28,0,0,1-.06-.16v-2a.1.1,0,0,1,.1-.1h2.67a.1.1,0,0,1,.1.1v.66a.09.09,0,0,1-.1.1h-1.83a.1.1,0,0,0-.09.1v.82a.22.22,0,0,0,.06.16l.17.18a.31.31,0,0,0,.17.06h.73a.25.25,0,0,1,.16.07l.66.66a.26.26,0,0,1,.07.16v2.12a.25.25,0,0,1-.07.16l-.66.67a.32.32,0,0,1-.17.06Z" transform="translate(-211.99 -154.16)"/><path class="cls-4" d="M270,257.89a.39.39,0,0,0,.1-.25v-7.11a.15.15,0,0,1,.14-.14h1a.14.14,0,0,1,.14.14v7.64a.46.46,0,0,1-.1.25l-1,1a.46.46,0,0,1-.25.1h-1.61a.46.46,0,0,1-.25-.1l-1-1a.46.46,0,0,1-.1-.25v-7.64a.14.14,0,0,1,.14-.14h1a.15.15,0,0,1,.14.14v7.11a.46.46,0,0,0,.1.25l.25.25a.46.46,0,0,0,.25.1h.55a.47.47,0,0,0,.25-.1Z" transform="translate(-211.99 -154.16)"/><path class="cls-4" d="M273.63,250.49a.4.4,0,0,1,.24-.11h1.62a.4.4,0,0,1,.25.11l1,1a.46.46,0,0,1,.1.24V253a.14.14,0,0,1-.14.14h-1a.15.15,0,0,1-.14-.14v-.72a.36.36,0,0,0-.1-.24l-.25-.26a.46.46,0,0,0-.25-.1h-.56a.47.47,0,0,0-.24.1l-.25.26a.37.37,0,0,0-.11.24v1.27a.43.43,0,0,0,.1.24l.26.25a.35.35,0,0,0,.24.11h1.09a.43.43,0,0,1,.24.1l1,1a.46.46,0,0,1,.1.25v2.7a.43.43,0,0,1-.1.24l-1,1a.46.46,0,0,1-.25.1h-1.62a.46.46,0,0,1-.24-.1l-1-1a.37.37,0,0,1-.11-.24v-1.54a.15.15,0,0,1,.14-.14h1a.14.14,0,0,1,.14.14v1a.4.4,0,0,0,.11.25l.25.25a.47.47,0,0,0,.24.1H275a.46.46,0,0,0,.25-.1l.25-.25a.39.39,0,0,0,.1-.25V256a.39.39,0,0,0-.1-.25l-.26-.25a.34.34,0,0,0-.24-.1h-1.09a.37.37,0,0,1-.24-.11l-1-1a.46.46,0,0,1-.1-.25v-2.31a.39.39,0,0,1,.11-.24Z" transform="translate(-211.99 -154.16)"/><path class="cls-4" d="M278,250.51a.14.14,0,0,1,.14-.14H281a.4.4,0,0,1,.24.11l1,1a.4.4,0,0,1,.11.24V254a.35.35,0,0,1-.11.24l-.35.36a.15.15,0,0,0,0,.2l.37.37a.46.46,0,0,1,.1.24v2.77a.4.4,0,0,1-.11.24l-1,1a.4.4,0,0,1-.24.11h-2.83a.14.14,0,0,1-.14-.14Zm1.42,1.13a.14.14,0,0,0-.14.14v2.12a.14.14,0,0,0,.14.14h1a.36.36,0,0,0,.24-.1l.26-.25a.46.46,0,0,0,.1-.25v-1.21a.43.43,0,0,0-.1-.24l-.26-.26a.42.42,0,0,0-.24-.1Zm1.54,6.24a.43.43,0,0,0,.1-.24v-1.71a.46.46,0,0,0-.1-.25l-.24-.24a.4.4,0,0,0-.24-.11h-1.06a.15.15,0,0,0-.14.14v2.63a.14.14,0,0,0,.14.14h1a.43.43,0,0,0,.24-.1Z" transform="translate(-211.99 -154.16)"/><path class="cls-4" d="M252.66,340.07a.14.14,0,0,1-.14.14h-8.84a.14.14,0,0,1-.14-.14v-2.83a.36.36,0,0,1,.1-.24l1-1a.4.4,0,0,1,.25-.11h6.44a.37.37,0,0,1,.24.11l1,1a.37.37,0,0,1,.11.24Zm-1.27-2.3a.37.37,0,0,0-.11-.24l-.25-.25a.37.37,0,0,0-.24-.11h-5.38a.4.4,0,0,0-.25.11l-.25.25a.43.43,0,0,0-.1.24v1a.15.15,0,0,0,.14.14h6.3a.15.15,0,0,0,.14-.14Z" transform="translate(-211.99 -154.16)"/><path class="cls-4" d="M243.63,333.59a.43.43,0,0,1-.1-.24v-1.62a.43.43,0,0,1,.1-.24l1-1a.34.34,0,0,1,.24-.11h1.25a.15.15,0,0,1,.14.14v1a.15.15,0,0,1-.14.14h-.72a.46.46,0,0,0-.25.1l-.25.26a.4.4,0,0,0-.1.24v.56a.4.4,0,0,0,.1.24l.25.26a.46.46,0,0,0,.25.1h5.38a.4.4,0,0,0,.24-.1l.26-.26a.4.4,0,0,0,.1-.24v-.56a.4.4,0,0,0-.1-.24l-.26-.26a.4.4,0,0,0-.24-.1h-.72a.15.15,0,0,1-.14-.14v-1a.14.14,0,0,1,.14-.14h1.25a.37.37,0,0,1,.24.11l1,1a.43.43,0,0,1,.1.24v1.62a.43.43,0,0,1-.1.24l-1,1a.43.43,0,0,1-.24.1h-6.44a.39.39,0,0,1-.24-.1Z" transform="translate(-211.99 -154.16)"/><path class="cls-4" d="M319.73,180.33a.09.09,0,0,1-.1-.1v-5.89a.09.09,0,0,1,.1-.1h1.89a.24.24,0,0,1,.16.06l.66.66a.27.27,0,0,1,.07.17v4.29a.25.25,0,0,1-.07.16l-.66.66a.25.25,0,0,1-.16.07Zm1.54-.85a.25.25,0,0,0,.16-.07l.17-.17a.25.25,0,0,0,.07-.16V175.5a.27.27,0,0,0-.07-.17l-.17-.17a.29.29,0,0,0-.16-.06h-.69a.1.1,0,0,0-.1.1v4.2a.1.1,0,0,0,.1.1Z" transform="translate(-211.99 -154.16)"/><path class="cls-4" d="M325.2,179.39a.1.1,0,0,0,.1.1h.52a.09.09,0,0,1,.1.1v.66a.09.09,0,0,1-.1.1h-2.07a.09.09,0,0,1-.1-.1v-.66a.09.09,0,0,1,.1-.1h.5a.1.1,0,0,0,.1-.1v-3.45c0-.06,0-.06,0,0l-.23.42a.1.1,0,0,1-.14,0l-.57-.33a.09.09,0,0,1,0-.13l.9-1.58s.06-.09.08-.09h.79a.1.1,0,0,1,.1.1Z" transform="translate(-211.99 -154.16)"/><path class="cls-4" d="M328.4,179.39a.1.1,0,0,0,.1.1H329a.09.09,0,0,1,.1.1v.66a.09.09,0,0,1-.1.1h-2.07a.09.09,0,0,1-.1-.1v-.66a.09.09,0,0,1,.1-.1h.5a.1.1,0,0,0,.1-.1v-3.45c0-.06,0-.06,0,0l-.23.42a.1.1,0,0,1-.14,0l-.57-.33a.09.09,0,0,1,0-.13l.9-1.58s.06-.09.08-.09h.79a.1.1,0,0,1,.1.1Z" transform="translate(-211.99 -154.16)"/><path class="cls-4" d="M319.49,198.67a.09.09,0,0,1-.1-.1v-5.89a.09.09,0,0,1,.1-.1h1.89a.24.24,0,0,1,.16.06l.66.66a.27.27,0,0,1,.07.17v4.29a.25.25,0,0,1-.07.16l-.66.66a.25.25,0,0,1-.16.07Zm1.54-.85a.25.25,0,0,0,.16-.07l.17-.17a.25.25,0,0,0,.07-.16v-3.59a.27.27,0,0,0-.07-.17l-.17-.17a.29.29,0,0,0-.16-.06h-.69a.1.1,0,0,0-.1.1v4.2a.1.1,0,0,0,.1.1Z" transform="translate(-211.99 -154.16)"/><path class="cls-4" d="M325,197.72a.1.1,0,0,0,.1.1h.52a.09.09,0,0,1,.1.1v.66a.09.09,0,0,1-.1.1H323.5a.09.09,0,0,1-.1-.1v-.66a.09.09,0,0,1,.1-.1h.5a.1.1,0,0,0,.1-.1v-3.45c0-.06,0-.06,0,0l-.23.42a.1.1,0,0,1-.14,0l-.57-.33a.09.09,0,0,1,0-.13l.9-1.58s.06-.09.08-.09h.79a.1.1,0,0,1,.1.1Z" transform="translate(-211.99 -154.16)"/><path class="cls-4" d="M327.17,198.67a.29.29,0,0,1-.16-.06l-.67-.67a.29.29,0,0,1-.06-.16v-4.29a.31.31,0,0,1,.06-.17l.67-.66a.28.28,0,0,1,.16-.06h1.08a.26.26,0,0,1,.16.06l.67.67a.26.26,0,0,1,.06.16v4.29a.28.28,0,0,1-.06.16l-.67.67a.26.26,0,0,1-.16.06Zm.73-.85a.31.31,0,0,0,.17-.06l.17-.18a.22.22,0,0,0,.06-.16v-3.58a.26.26,0,0,0-.06-.17l-.17-.17a.27.27,0,0,0-.17-.07h-.38a.23.23,0,0,0-.16.07l-.18.17a.31.31,0,0,0-.06.17v3.58a.27.27,0,0,0,.06.16l.18.18a.26.26,0,0,0,.16.06Z" transform="translate(-211.99 -154.16)"/><path class="cls-4" d="M382.77,180.33a.09.09,0,0,1-.1-.1v-5.89a.09.09,0,0,1,.1-.1h1.89a.24.24,0,0,1,.16.06l.66.66a.27.27,0,0,1,.07.17v4.29a.25.25,0,0,1-.07.16l-.66.66a.25.25,0,0,1-.16.07Zm1.54-.85a.25.25,0,0,0,.16-.07l.17-.17a.25.25,0,0,0,.07-.16V175.5a.27.27,0,0,0-.07-.17l-.17-.17a.29.29,0,0,0-.16-.06h-.69a.1.1,0,0,0-.1.1v4.2a.1.1,0,0,0,.1.1Z" transform="translate(-211.99 -154.16)"/><path class="cls-4" d="M387.25,180.33a.31.31,0,0,1-.16-.06l-.67-.67a.31.31,0,0,1-.06-.16v-.83a.09.09,0,0,1,.1-.1h.66a.09.09,0,0,1,.1.1v.48a.26.26,0,0,0,.07.16l.17.17a.24.24,0,0,0,.16.07H388a.27.27,0,0,0,.17-.07l.17-.17a.26.26,0,0,0,.07-.16v-1.22a.1.1,0,0,0-.1-.1h-1a.31.31,0,0,1-.16-.06l-.67-.67a.31.31,0,0,1-.06-.16v-1.73a.31.31,0,0,1,.06-.17l.67-.66a.25.25,0,0,1,.16-.06h1.08a.26.26,0,0,1,.17.06l.66.66a.27.27,0,0,1,.07.17v4.29a.27.27,0,0,1-.07.16l-.66.67a.31.31,0,0,1-.17.06Zm.74-3.41a.31.31,0,0,0,.16-.06l.17-.18a.25.25,0,0,0,.07-.16v-1a.27.27,0,0,0-.07-.17l-.17-.17a.26.26,0,0,0-.17-.06h-.38a.24.24,0,0,0-.16.06l-.17.17a.27.27,0,0,0-.07.17v1a.25.25,0,0,0,.07.16l.17.18a.28.28,0,0,0,.16.06Z" transform="translate(-211.99 -154.16)"/><path class="cls-4" d="M382.8,198.67a.09.09,0,0,1-.1-.1v-5.89a.09.09,0,0,1,.1-.1h1.89a.24.24,0,0,1,.16.06l.66.66a.27.27,0,0,1,.07.17v4.29a.25.25,0,0,1-.07.16l-.66.66a.25.25,0,0,1-.16.07Zm1.54-.85a.25.25,0,0,0,.16-.07l.17-.17a.25.25,0,0,0,.07-.16v-3.59a.27.27,0,0,0-.07-.17l-.17-.17a.29.29,0,0,0-.16-.06h-.69a.1.1,0,0,0-.1.1v4.2a.1.1,0,0,0,.1.1Z" transform="translate(-211.99 -154.16)"/><path class="cls-4" d="M389.13,193.3a.23.23,0,0,1,.07.16v1.42a.27.27,0,0,1-.07.16l-.24.24a.1.1,0,0,0,0,.13l.24.24a.27.27,0,0,1,.07.16v2a.26.26,0,0,1-.07.16l-.65.66a.31.31,0,0,1-.17.06h-1.05a.31.31,0,0,1-.16-.06l-.66-.66a.31.31,0,0,1-.06-.16v-2a.31.31,0,0,1,.06-.16l.24-.24a.08.08,0,0,0,0-.13l-.24-.24a.31.31,0,0,1-.06-.16v-1.42a.26.26,0,0,1,.06-.16l.66-.66a.25.25,0,0,1,.16-.06h1.05a.26.26,0,0,1,.17.06Zm-1.53.11a.25.25,0,0,0-.16.06l-.17.17a.26.26,0,0,0-.06.16v.73a.31.31,0,0,0,.06.16l.17.17a.31.31,0,0,0,.16.06H388a.26.26,0,0,0,.16-.06l.17-.17a.27.27,0,0,0,.07-.16v-.73a.23.23,0,0,0-.07-.16l-.17-.17a.22.22,0,0,0-.16-.06Zm.7,4.19a.26.26,0,0,0,.07-.16v-1.3a.27.27,0,0,0-.07-.16l-.17-.17a.26.26,0,0,0-.16-.06h-.37a.31.31,0,0,0-.16.06l-.17.17a.31.31,0,0,0-.06.16v1.3a.31.31,0,0,0,.06.16l.17.17a.31.31,0,0,0,.16.06H388a.26.26,0,0,0,.16-.06Z" transform="translate(-211.99 -154.16)"/><path class="cls-4" d="M442.88,180.33a.09.09,0,0,1-.1-.1v-5.89a.09.09,0,0,1,.1-.1h1.89a.24.24,0,0,1,.16.06l.66.66a.27.27,0,0,1,.07.17v4.29a.25.25,0,0,1-.07.16l-.66.66a.25.25,0,0,1-.16.07Zm1.54-.85a.25.25,0,0,0,.16-.07l.17-.17a.25.25,0,0,0,.07-.16V175.5a.27.27,0,0,0-.07-.17l-.17-.17a.29.29,0,0,0-.16-.06h-.69a.1.1,0,0,0-.1.1v4.2a.1.1,0,0,0,.1.1Z" transform="translate(-211.99 -154.16)"/><path class="cls-4" d="M449.35,174.27a.1.1,0,0,1,.1.1V175a.71.71,0,0,1,0,.18l-.55,1.59a.06.06,0,0,0,.06.09h.17a.1.1,0,0,1,.1.1v.66a.1.1,0,0,1-.1.1h-.46a.14.14,0,0,0-.12.09l-.84,2.41a.14.14,0,0,1-.13.09h-.73a.06.06,0,0,1-.06-.09l.84-2.41s0-.09-.07-.09h-.37a.1.1,0,0,1-.1-.1V177a.1.1,0,0,1,.1-.1h.66a.14.14,0,0,0,.13-.09l.56-1.61a.06.06,0,0,0-.06-.09h-1.89a.09.09,0,0,1-.1-.1v-.66a.1.1,0,0,1,.1-.1Z" transform="translate(-211.99 -154.16)"/><path class="cls-4" d="M442.88,198.67a.09.09,0,0,1-.1-.1v-5.89a.09.09,0,0,1,.1-.1h1.89a.24.24,0,0,1,.16.06l.66.66a.27.27,0,0,1,.07.17v4.29a.25.25,0,0,1-.07.16l-.66.66a.25.25,0,0,1-.16.07Zm1.54-.85a.25.25,0,0,0,.16-.07l.17-.17a.25.25,0,0,0,.07-.16v-3.59a.27.27,0,0,0-.07-.17l-.17-.17a.29.29,0,0,0-.16-.06h-.69a.1.1,0,0,0-.1.1v4.2a.1.1,0,0,0,.1.1Z" transform="translate(-211.99 -154.16)"/><path class="cls-4" d="M447.36,198.67a.31.31,0,0,1-.17-.06l-.66-.67a.27.27,0,0,1-.07-.16v-4.29a.27.27,0,0,1,.07-.17l.66-.66a.26.26,0,0,1,.17-.06h1.08a.25.25,0,0,1,.16.06l.66.66a.27.27,0,0,1,.07.17v.83a.09.09,0,0,1-.1.1h-.66a.09.09,0,0,1-.1-.1v-.48a.27.27,0,0,0-.07-.17l-.17-.17a.26.26,0,0,0-.16-.06h-.38a.26.26,0,0,0-.17.06l-.17.17a.27.27,0,0,0-.07.17V195a.1.1,0,0,0,.1.1h1a.26.26,0,0,1,.16.07l.66.66a.27.27,0,0,1,.07.17v1.73a.27.27,0,0,1-.07.16l-.66.67a.31.31,0,0,1-.16.06Zm.73-.85a.27.27,0,0,0,.16-.07l.17-.17a.25.25,0,0,0,.07-.16v-1a.27.27,0,0,0-.07-.17l-.17-.17a.27.27,0,0,0-.16-.07h-.38a.26.26,0,0,0-.16.07l-.17.17a.27.27,0,0,0-.07.17v1a.25.25,0,0,0,.07.16l.17.17a.26.26,0,0,0,.17.07Z" transform="translate(-211.99 -154.16)"/><path class="cls-4" d="M506.16,180.33a.09.09,0,0,1-.1-.1v-5.89a.09.09,0,0,1,.1-.1H508a.24.24,0,0,1,.16.06l.66.66a.27.27,0,0,1,.07.17v4.29a.25.25,0,0,1-.07.16l-.66.66a.25.25,0,0,1-.16.07Zm1.54-.85a.25.25,0,0,0,.16-.07l.17-.17a.25.25,0,0,0,.07-.16V175.5a.27.27,0,0,0-.07-.17l-.17-.17a.29.29,0,0,0-.16-.06H507a.1.1,0,0,0-.1.1v4.2a.1.1,0,0,0,.1.1Z" transform="translate(-211.99 -154.16)"/><path class="cls-4" d="M510.58,180.33a.31.31,0,0,1-.17-.06l-.66-.67a.28.28,0,0,1-.06-.16v-.83a.1.1,0,0,1,.1-.1h.66a.1.1,0,0,1,.1.1v.48a.26.26,0,0,0,.06.17l.17.17a.31.31,0,0,0,.17.06h.38a.3.3,0,0,0,.16-.06l.17-.18a.23.23,0,0,0,.07-.16v-1.42a.27.27,0,0,0-.06-.16l-.18-.18a.28.28,0,0,0-.16-.06h-.73a.25.25,0,0,1-.16-.07l-.67-.66a.28.28,0,0,1-.06-.16v-2a.1.1,0,0,1,.1-.1h2.67a.1.1,0,0,1,.1.1V175a.09.09,0,0,1-.1.1h-1.83a.1.1,0,0,0-.09.1V176a.22.22,0,0,0,.06.16l.17.18a.31.31,0,0,0,.17.06h.73a.25.25,0,0,1,.16.07l.66.66a.26.26,0,0,1,.07.16v2.12a.25.25,0,0,1-.07.16l-.66.67a.31.31,0,0,1-.17.06Z" transform="translate(-211.99 -154.16)"/><path class="cls-4" d="M506.15,198.67a.09.09,0,0,1-.1-.1v-5.89a.09.09,0,0,1,.1-.1H508a.24.24,0,0,1,.16.06l.66.66a.27.27,0,0,1,.07.17v4.29a.25.25,0,0,1-.07.16l-.66.66a.25.25,0,0,1-.16.07Zm1.54-.85a.25.25,0,0,0,.16-.07l.17-.17a.25.25,0,0,0,.07-.16v-3.59a.27.27,0,0,0-.07-.17l-.17-.17a.29.29,0,0,0-.16-.06H507a.1.1,0,0,0-.1.1v4.2a.1.1,0,0,0,.1.1Z" transform="translate(-211.99 -154.16)"/><path class="cls-4" d="M511.22,192.66a.22.22,0,0,1,.15-.08h.72a.1.1,0,0,1,.1.1v2.44a.09.09,0,0,0,.1.1h.24a.1.1,0,0,1,.1.1V196a.1.1,0,0,1-.1.1h-.24a.09.09,0,0,0-.1.1v2.41a.1.1,0,0,1-.1.1h-.66a.1.1,0,0,1-.1-.1v-2.41a.09.09,0,0,0-.1-.1h-1.42a.1.1,0,0,1-.1-.1v-1a.39.39,0,0,1,.06-.18Zm0,2.55a.09.09,0,0,0,.1-.1v-1c0-.06,0-.06-.06,0l-.7,1s0,.08,0,.08Z" transform="translate(-211.99 -154.16)"/><path class="cls-4" d="M567.85,180.33a.09.09,0,0,1-.1-.1v-5.89a.09.09,0,0,1,.1-.1h1.89a.24.24,0,0,1,.16.06l.66.66a.27.27,0,0,1,.07.17v4.29a.25.25,0,0,1-.07.16l-.66.66a.25.25,0,0,1-.16.07Zm1.54-.85a.25.25,0,0,0,.16-.07l.17-.17a.25.25,0,0,0,.07-.16V175.5a.27.27,0,0,0-.07-.17l-.17-.17a.29.29,0,0,0-.16-.06h-.69a.1.1,0,0,0-.1.1v4.2a.1.1,0,0,0,.1.1Z" transform="translate(-211.99 -154.16)"/><path class="cls-4" d="M574.31,176.62a.28.28,0,0,1-.06.16L574,177a.09.09,0,0,0,0,.14l.25.24a.31.31,0,0,1,.06.17v1.86a.27.27,0,0,1-.07.16l-.66.67a.31.31,0,0,1-.17.06h-1.08a.31.31,0,0,1-.16-.06l-.67-.67a.31.31,0,0,1-.06-.16v-.83a.09.09,0,0,1,.1-.1h.66a.09.09,0,0,1,.1.1v.48a.25.25,0,0,0,.07.16l.17.17a.24.24,0,0,0,.16.07h.38a.27.27,0,0,0,.17-.07l.17-.17a.26.26,0,0,0,.07-.16v-1.16a.27.27,0,0,0-.07-.17l-.17-.17a.27.27,0,0,0-.16-.07h-.55a.09.09,0,0,1-.1-.1v-.66a.1.1,0,0,1,.1-.1h.55a.31.31,0,0,0,.16-.06l.17-.18a.23.23,0,0,0,.07-.16v-.78a.27.27,0,0,0-.07-.17l-.17-.17a.26.26,0,0,0-.17-.06h-.38a.24.24,0,0,0-.16.06l-.17.17a.27.27,0,0,0-.07.17V176a.09.09,0,0,1-.1.1h-.66a.09.09,0,0,1-.1-.1v-.83a.31.31,0,0,1,.06-.17l.67-.66a.25.25,0,0,1,.16-.06h1.08a.26.26,0,0,1,.17.06l.66.66a.27.27,0,0,1,.07.17Z" transform="translate(-211.99 -154.16)"/><path class="cls-4" d="M567.85,198.67a.09.09,0,0,1-.1-.1v-5.89a.09.09,0,0,1,.1-.1h1.89a.24.24,0,0,1,.16.06l.66.66a.27.27,0,0,1,.07.17v4.29a.25.25,0,0,1-.07.16l-.66.66a.25.25,0,0,1-.16.07Zm1.54-.85a.25.25,0,0,0,.16-.07l.17-.17a.25.25,0,0,0,.07-.16v-3.59a.27.27,0,0,0-.07-.17l-.17-.17a.29.29,0,0,0-.16-.06h-.69a.1.1,0,0,0-.1.1v4.2a.1.1,0,0,0,.1.1Z" transform="translate(-211.99 -154.16)"/><path class="cls-4" d="M571.53,198.67a.09.09,0,0,1-.1-.1V196a.31.31,0,0,1,.06-.17l.67-.66a.27.27,0,0,1,.17-.07h.72a.26.26,0,0,0,.17-.06l.17-.17a.27.27,0,0,0,.07-.17v-.84a.32.32,0,0,0-.07-.17l-.17-.17a.27.27,0,0,0-.17-.07h-.38a.25.25,0,0,0-.16.07l-.18.17a.31.31,0,0,0-.06.16v.48a.09.09,0,0,1-.1.1h-.66a.09.09,0,0,1-.1-.1v-.82a.31.31,0,0,1,.06-.17l.67-.66a.25.25,0,0,1,.16-.07h1.08a.23.23,0,0,1,.16.07l.67.66a.31.31,0,0,1,.06.17V195a.19.19,0,0,1-.06.16l-.66.67a.31.31,0,0,1-.17.06h-.73a.26.26,0,0,0-.16.07l-.18.17a.32.32,0,0,0-.06.17v1.39a.09.09,0,0,0,.1.1h1.83a.11.11,0,0,1,.1.1v.66a.1.1,0,0,1-.1.1Z" transform="translate(-211.99 -154.16)"/><path class="cls-4" d="M584.79,231.73a.27.27,0,0,1-.07.17l-.25.25a.17.17,0,0,0,0,.16l.44,2.52a.08.08,0,0,1-.08.1h-.67a.11.11,0,0,1-.11-.1l-.37-2.1a.11.11,0,0,0-.11-.09h-.66a.08.08,0,0,0-.09.09v2.1a.1.1,0,0,1-.1.1H582a.1.1,0,0,1-.1-.1v-5.89a.09.09,0,0,1,.1-.1h1.88a.26.26,0,0,1,.17.07l.66.66a.26.26,0,0,1,.07.16Zm-.92-.18a.27.27,0,0,0,.07-.17v-1.3a.25.25,0,0,0-.07-.16l-.17-.17a.27.27,0,0,0-.16-.07h-.69a.1.1,0,0,0-.1.1v1.9a.1.1,0,0,0,.1.1h.69a.25.25,0,0,0,.16-.06Z" transform="translate(-211.99 -154.16)"/><path class="cls-4" d="M588,228.91a.16.16,0,0,1,.14-.09h.72a.06.06,0,0,1,.06.09l-1.15,2.87a.25.25,0,0,0,0,.18l1.15,2.86a.06.06,0,0,1-.06.09h-.72a.16.16,0,0,1-.14-.09l-.7-1.73s0,0-.07,0l-.69,1.73a.16.16,0,0,1-.14.09h-.72a.06.06,0,0,1-.06-.09l1.15-2.86a.24.24,0,0,0,0-.18l-1.15-2.87a.06.06,0,0,1,.06-.09h.73a.15.15,0,0,1,.13.09l.7,1.74s.06,0,.07,0Z" transform="translate(-211.99 -154.16)"/><path class="cls-4" d="M598.18,229.63a.1.1,0,0,1-.1-.1v-.62a.09.09,0,0,1,.1-.09h2.56a.1.1,0,0,1,.1.09v.62a.1.1,0,0,1-.1.1H600a.09.09,0,0,0-.1.1v5.09a.09.09,0,0,1-.1.1h-.61a.09.09,0,0,1-.1-.1v-5.09a.1.1,0,0,0-.1-.1Z" transform="translate(-211.99 -154.16)"/><path class="cls-4" d="M604,228.91a.16.16,0,0,1,.14-.09h.72a.06.06,0,0,1,.06.09l-1.15,2.87a.25.25,0,0,0,0,.18l1.15,2.86a.06.06,0,0,1-.06.09h-.72a.16.16,0,0,1-.14-.09l-.7-1.73s0,0-.07,0l-.69,1.73a.16.16,0,0,1-.14.09h-.72a.06.06,0,0,1-.06-.09L602.8,232a.24.24,0,0,0,0-.18l-1.15-2.87a.06.06,0,0,1,.06-.09h.73a.15.15,0,0,1,.13.09l.7,1.74s.06,0,.07,0Z" transform="translate(-211.99 -154.16)"/><path class="cls-4" d="M582.65,291.29a.27.27,0,0,1,.16-.07h1.08a.27.27,0,0,1,.17.07l.66.66a.31.31,0,0,1,.06.16v.83a.09.09,0,0,1-.1.1H584a.1.1,0,0,1-.1-.1v-.48a.23.23,0,0,0-.06-.16l-.17-.18a.32.32,0,0,0-.17-.06h-.38a.31.31,0,0,0-.16.06l-.17.18a.24.24,0,0,0-.07.16v.85a.29.29,0,0,0,.06.16l.18.17a.23.23,0,0,0,.16.07h.73a.28.28,0,0,1,.16.06l.67.66a.31.31,0,0,1,.06.17v1.8a.28.28,0,0,1-.06.16l-.66.67a.31.31,0,0,1-.17.06h-1.08a.31.31,0,0,1-.16-.06l-.66-.67a.25.25,0,0,1-.07-.16v-1a.1.1,0,0,1,.1-.1h.66a.09.09,0,0,1,.1.1v.67a.26.26,0,0,0,.07.17l.17.17a.3.3,0,0,0,.16.06h.38a.31.31,0,0,0,.17-.06l.17-.17a.25.25,0,0,0,.06-.17V295a.26.26,0,0,0-.06-.17l-.18-.17a.22.22,0,0,0-.16-.06h-.73a.25.25,0,0,1-.16-.07l-.67-.66a.31.31,0,0,1-.06-.17v-1.54A.27.27,0,0,1,582,292Z" transform="translate(-211.99 -154.16)"/><path class="cls-4" d="M586.32,291.28a.28.28,0,0,1,.16-.06h1.08a.28.28,0,0,1,.16.06l.66.67a.23.23,0,0,1,.07.16v.83a.1.1,0,0,1-.1.1h-.66a.1.1,0,0,1-.1-.1v-.48a.31.31,0,0,0-.06-.17l-.18-.17a.27.27,0,0,0-.16-.06h-.38a.26.26,0,0,0-.16.06l-.18.17a.32.32,0,0,0-.06.17v3.59a.26.26,0,0,0,.06.16l.18.18a.26.26,0,0,0,.16.06h.38a.26.26,0,0,0,.16-.06l.18-.18a.26.26,0,0,0,.06-.16v-.48a.1.1,0,0,1,.1-.1h.66a.09.09,0,0,1,.1.1v.83a.25.25,0,0,1-.07.16l-.66.67a.28.28,0,0,1-.16.06h-1.08a.28.28,0,0,1-.16-.06l-.67-.67a.28.28,0,0,1-.06-.16v-4.29a.26.26,0,0,1,.06-.16Z" transform="translate(-211.99 -154.16)"/><path class="cls-4" d="M590,291.23a.1.1,0,0,1,.1.1v5a.09.09,0,0,0,.1.1h1.58a.1.1,0,0,1,.1.1v.66a.09.09,0,0,1-.1.1h-2.42a.09.09,0,0,1-.1-.1v-5.88a.09.09,0,0,1,.1-.1Z" transform="translate(-211.99 -154.16)"/><path class="cls-4" d="M598.82,291.29a.27.27,0,0,1,.16-.07h1.08a.27.27,0,0,1,.17.07l.66.66a.31.31,0,0,1,.06.16v.83a.09.09,0,0,1-.1.1h-.66a.1.1,0,0,1-.1-.1v-.48a.23.23,0,0,0-.06-.16l-.17-.18a.32.32,0,0,0-.17-.06h-.38a.31.31,0,0,0-.16.06l-.17.18a.24.24,0,0,0-.07.16v.85a.29.29,0,0,0,.06.16l.18.17a.23.23,0,0,0,.16.07h.73a.28.28,0,0,1,.16.06l.67.66a.31.31,0,0,1,.06.17v1.8a.28.28,0,0,1-.06.16l-.66.67a.31.31,0,0,1-.17.06H599a.31.31,0,0,1-.16-.06l-.66-.67a.25.25,0,0,1-.07-.16v-1a.1.1,0,0,1,.1-.1h.66a.09.09,0,0,1,.1.1v.67a.26.26,0,0,0,.07.17l.17.17a.3.3,0,0,0,.16.06h.38a.31.31,0,0,0,.17-.06l.17-.17a.25.25,0,0,0,.06-.17V295a.26.26,0,0,0-.06-.17l-.18-.17a.22.22,0,0,0-.16-.06H599a.25.25,0,0,1-.16-.07l-.67-.66a.31.31,0,0,1-.06-.17v-1.54a.27.27,0,0,1,.07-.16Z" transform="translate(-211.99 -154.16)"/><path class="cls-4" d="M601.86,297.3a.09.09,0,0,1-.1-.1v-5.89a.09.09,0,0,1,.1-.1h1.89a.24.24,0,0,1,.16.06l.66.66a.27.27,0,0,1,.07.17v4.29a.25.25,0,0,1-.07.16l-.66.66a.24.24,0,0,1-.16.07Zm1.54-.85a.25.25,0,0,0,.16-.07l.17-.17a.24.24,0,0,0,.07-.16v-3.59a.27.27,0,0,0-.07-.17l-.17-.17a.29.29,0,0,0-.16-.06h-.69a.1.1,0,0,0-.1.1v4.2a.1.1,0,0,0,.1.1Z" transform="translate(-211.99 -154.16)"/><path class="cls-4" d="M606.85,291.31a.13.13,0,0,1,.12-.09h.65a.11.11,0,0,1,.11.09l1.44,5.9a.07.07,0,0,1-.07.1h-.7a.13.13,0,0,1-.12-.1l-.2-.84a.11.11,0,0,0-.12-.09h-1.31a.12.12,0,0,0-.12.09l-.2.84a.12.12,0,0,1-.12.1h-.69a.08.08,0,0,1-.08-.1Zm-.07,4a.08.08,0,0,0,.07.1h.9a.07.07,0,0,0,.07-.1l-.5-2.07c0-.06,0-.06,0,0Z" transform="translate(-211.99 -154.16)"/></svg>