<?xml version="1.0" encoding="utf-8"?>
<!-- Generator: Adobe Illustrator 22.0.0, SVG Export Plug-In . SVG Version: 6.00 Build 0)  -->
<svg version="1.1" id="图层_1" xmlns="http://www.w3.org/2000/svg" xmlns:xlink="http://www.w3.org/1999/xlink" x="0px" y="0px"
	 viewBox="0 0 605.5 294.8" style="enable-background:new 0 0 605.5 294.8;" xml:space="preserve">
<style type="text/css">
	.st0{fill:#3E3E3F;}
	.st1{fill:#D7D7D8;}
	.st2{fill:#C8C9C9;}
	.st3{fill:#323333;}
	.st4{fill:#1C1D1D;}
	.st5{fill:#A4A4A4;}
	.st6{fill:#262727;}
	.st7{fill:#D4A42C;}
	.st8{fill:#ACAC40;}
	.st9{fill:#FFFFFF;stroke:#D4A42C;stroke-miterlimit:10;}
	.st10{fill:#5F5F5F;}
	.st11{fill:#FFFFFF;}
	.st12{font-family:'AdobeSongStd-Light-GBpc-EUC-H';}
	.st13{font-size:4px;}
	.st14{font-size:3.6406px;}
	.st15{font-size:3.3865px;}
	.st16{font-size:2.7677px;}
	.st17{font-size:6.475px;}
	.st18{font-size:10.6748px;}
	.st19{fill:none;stroke:#FFFFFF;stroke-width:0.5;stroke-miterlimit:10;}
	.st20{fill:none;stroke:#D4A42C;stroke-width:0.5;stroke-miterlimit:10;}
</style>
<g>
	<path class="st0" d="M171.1,81.5v159c0,3.8,3.1,6.9,6.9,6.9h177.3c3.8,0,6.9-3.1,6.9-6.9v-159c0-3.8-3.1-6.9-6.9-6.9H178.1
		C174.2,74.6,171.1,77.7,171.1,81.5z"/>
	<g>
		<path class="st1" d="M183.7,154.9v-1.5h-0.5v-18h0.5V134h-12.5v20.9H183.7z M173.8,137.2l4.2,0.4v1.6l-4.2,0.3V137.2z
			 M173.8,149.6l4.2,0.4v1.6l-4.2,0.3V149.6z"/>
		<polygon class="st2" points="170.2,132.7 171.2,133.9 171.2,154.8 170.2,156.2 		"/>
		<g>
			<g>
				
					<rect x="182" y="148.8" transform="matrix(-1 -1.224647e-16 1.224647e-16 -1 365.1395 301.0673)" class="st3" width="1.2" height="3.6"/>
				
					<rect x="182" y="136.5" transform="matrix(-1 -1.224647e-16 1.224647e-16 -1 365.1395 276.591)" class="st3" width="1.2" height="3.6"/>
			</g>
			
				<rect x="182.7" y="143.2" transform="matrix(-1 -1.224647e-16 1.224647e-16 -1 365.8807 289.2538)" class="st3" width="0.4" height="2.9"/>
		</g>
	</g>
	<g>
		<g>
			<path class="st4" d="M182,70.4h4.5c0.3,0,0.6,0.3,0.6,0.6v8.6c0,0.3-0.3,0.6-0.6,0.6H182c-0.3,0-0.6-0.3-0.6-0.6v-8.6
				C181.3,70.7,181.6,70.4,182,70.4z"/>
			<path class="st5" d="M178.1,80.7H175c-0.5,0-0.9-0.4-0.9-0.9v-1.1c0-0.5,0.4-0.9,0.9-0.9h3.1V80.7z"/>
			<path class="st5" d="M190.4,77.9h3.1c0.5,0,0.9,0.4,0.9,0.9v1.1c0,0.5-0.4,0.9-0.9,0.9h-3.1V77.9z"/>
			<path class="st5" d="M178.1,89.3H175c-0.5,0-0.9-0.4-0.9-0.9v-1.1c0-0.5,0.4-0.9,0.9-0.9h3.1V89.3z"/>
			<path class="st5" d="M190.4,86.5h3.1c0.5,0,0.9,0.4,0.9,0.9v1.1c0,0.5-0.4,0.9-0.9,0.9h-3.1V86.5z"/>
			<path class="st5" d="M178.1,97.9H175c-0.5,0-0.9-0.4-0.9-0.9v-1.1c0-0.5,0.4-0.9,0.9-0.9h3.1V97.9z"/>
			<path class="st5" d="M190.4,95.1h3.1c0.5,0,0.9,0.4,0.9,0.9v1.1c0,0.5-0.4,0.9-0.9,0.9h-3.1V95.1z"/>
			<path class="st6" d="M179.6,73.3h9.2c0.8,0,1.5,0.7,1.5,1.5v23c0,0.8-0.7,1.5-1.5,1.5h-9.2c-0.8,0-1.5-0.7-1.5-1.5v-23
				C178.1,74,178.8,73.3,179.6,73.3z"/>
			<path class="st7" d="M182.7,73.3l-1,4.4l2.1,2.5h6.5v-4.7c0,0,0-2.1-2.2-2.2l-1.9,1.7l-0.5-1.7H182.7z"/>
		</g>
		<g>
			<path class="st4" d="M229.3,70.4h4.5c0.3,0,0.6,0.3,0.6,0.6v8.6c0,0.3-0.3,0.6-0.6,0.6h-4.5c-0.3,0-0.6-0.3-0.6-0.6v-8.6
				C228.7,70.7,228.9,70.4,229.3,70.4z"/>
			<path class="st5" d="M225.4,80.7h-3.1c-0.5,0-0.9-0.4-0.9-0.9v-1.1c0-0.5,0.4-0.9,0.9-0.9h3.1V80.7z"/>
			<path class="st5" d="M237.7,77.9h3.1c0.5,0,0.9,0.4,0.9,0.9v1.1c0,0.5-0.4,0.9-0.9,0.9h-3.1V77.9z"/>
			<path class="st5" d="M225.4,89.3h-3.1c-0.5,0-0.9-0.4-0.9-0.9v-1.1c0-0.5,0.4-0.9,0.9-0.9h3.1V89.3z"/>
			<path class="st5" d="M237.7,86.5h3.1c0.5,0,0.9,0.4,0.9,0.9v1.1c0,0.5-0.4,0.9-0.9,0.9h-3.1V86.5z"/>
			<path class="st5" d="M225.4,97.9h-3.1c-0.5,0-0.9-0.4-0.9-0.9v-1.1c0-0.5,0.4-0.9,0.9-0.9h3.1V97.9z"/>
			<path class="st5" d="M237.7,95.1h3.1c0.5,0,0.9,0.4,0.9,0.9v1.1c0,0.5-0.4,0.9-0.9,0.9h-3.1V95.1z"/>
			<path class="st6" d="M226.9,73.3h9.2c0.8,0,1.5,0.7,1.5,1.5v23c0,0.8-0.7,1.5-1.5,1.5h-9.2c-0.8,0-1.5-0.7-1.5-1.5v-23
				C225.4,74,226.1,73.3,226.9,73.3z"/>
			<path class="st7" d="M230.1,73.3l-1,4.4l2.1,2.5h6.5v-4.7c0,0,0-2.1-2.2-2.2l-1.9,1.7l-0.5-1.7H230.1z"/>
		</g>
		<g>
			<path class="st4" d="M205.6,70.4h4.5c0.3,0,0.6,0.3,0.6,0.6v8.6c0,0.3-0.3,0.6-0.6,0.6h-4.5c-0.3,0-0.6-0.3-0.6-0.6v-8.6
				C205,70.7,205.3,70.4,205.6,70.4z"/>
			<path class="st5" d="M201.8,80.7h-3.1c-0.5,0-0.9-0.4-0.9-0.9v-1.1c0-0.5,0.4-0.9,0.9-0.9h3.1V80.7z"/>
			<path class="st5" d="M214,77.9h3.1c0.5,0,0.9,0.4,0.9,0.9v1.1c0,0.5-0.4,0.9-0.9,0.9H214V77.9z"/>
			<path class="st5" d="M201.8,89.3h-3.1c-0.5,0-0.9-0.4-0.9-0.9v-1.1c0-0.5,0.4-0.9,0.9-0.9h3.1V89.3z"/>
			<path class="st5" d="M214,86.5h3.1c0.5,0,0.9,0.4,0.9,0.9v1.1c0,0.5-0.4,0.9-0.9,0.9H214V86.5z"/>
			<path class="st5" d="M201.8,97.9h-3.1c-0.5,0-0.9-0.4-0.9-0.9v-1.1c0-0.5,0.4-0.9,0.9-0.9h3.1V97.9z"/>
			<path class="st5" d="M214,95.1h3.1c0.5,0,0.9,0.4,0.9,0.9v1.1c0,0.5-0.4,0.9-0.9,0.9H214V95.1z"/>
			<path class="st6" d="M203.3,73.3h9.2c0.8,0,1.5,0.7,1.5,1.5v23c0,0.8-0.7,1.5-1.5,1.5h-9.2c-0.8,0-1.5-0.7-1.5-1.5v-23
				C201.8,74,202.4,73.3,203.3,73.3z"/>
			<path class="st7" d="M206.4,73.3l-1,4.4l2.1,2.5h6.5v-4.7c0,0,0-2.1-2.2-2.2L210,75l-0.5-1.7H206.4z"/>
		</g>
		<g>
			<path class="st4" d="M252.9,70.4h4.5c0.3,0,0.6,0.3,0.6,0.6v8.6c0,0.3-0.3,0.6-0.6,0.6h-4.5c-0.3,0-0.6-0.3-0.6-0.6v-8.6
				C252.3,70.7,252.6,70.4,252.9,70.4z"/>
			<path class="st5" d="M249.1,80.7H246c-0.5,0-0.9-0.4-0.9-0.9v-1.1c0-0.5,0.4-0.9,0.9-0.9h3.1V80.7z"/>
			<path class="st5" d="M261.3,77.9h3.1c0.5,0,0.9,0.4,0.9,0.9v1.1c0,0.5-0.4,0.9-0.9,0.9h-3.1V77.9z"/>
			<path class="st5" d="M249.1,89.3H246c-0.5,0-0.9-0.4-0.9-0.9v-1.1c0-0.5,0.4-0.9,0.9-0.9h3.1V89.3z"/>
			<path class="st5" d="M261.3,86.5h3.1c0.5,0,0.9,0.4,0.9,0.9v1.1c0,0.5-0.4,0.9-0.9,0.9h-3.1V86.5z"/>
			<path class="st5" d="M249.1,97.9H246c-0.5,0-0.9-0.4-0.9-0.9v-1.1c0-0.5,0.4-0.9,0.9-0.9h3.1V97.9z"/>
			<path class="st5" d="M261.3,95.1h3.1c0.5,0,0.9,0.4,0.9,0.9v1.1c0,0.5-0.4,0.9-0.9,0.9h-3.1V95.1z"/>
			<path class="st6" d="M250.6,73.3h9.2c0.8,0,1.5,0.7,1.5,1.5v23c0,0.8-0.7,1.5-1.5,1.5h-9.2c-0.8,0-1.5-0.7-1.5-1.5v-23
				C249.1,74,249.8,73.3,250.6,73.3z"/>
			<path class="st7" d="M253.7,73.3l-1,4.4l2.1,2.5h6.5v-4.7c0,0,0-2.1-2.2-2.2l-1.9,1.7l-0.5-1.7H253.7z"/>
		</g>
		<g>
			<path class="st4" d="M276.6,70.4h4.5c0.3,0,0.6,0.3,0.6,0.6v8.6c0,0.3-0.3,0.6-0.6,0.6h-4.5c-0.3,0-0.6-0.3-0.6-0.6v-8.6
				C276,70.7,276.3,70.4,276.6,70.4z"/>
			<path class="st5" d="M272.7,80.7h-3.1c-0.5,0-0.9-0.4-0.9-0.9v-1.1c0-0.5,0.4-0.9,0.9-0.9h3.1V80.7z"/>
			<path class="st5" d="M285,77.9h3.1c0.5,0,0.9,0.4,0.9,0.9v1.1c0,0.5-0.4,0.9-0.9,0.9H285V77.9z"/>
			<path class="st5" d="M272.7,89.3h-3.1c-0.5,0-0.9-0.4-0.9-0.9v-1.1c0-0.5,0.4-0.9,0.9-0.9h3.1V89.3z"/>
			<path class="st5" d="M285,86.5h3.1c0.5,0,0.9,0.4,0.9,0.9v1.1c0,0.5-0.4,0.9-0.9,0.9H285V86.5z"/>
			<path class="st5" d="M272.7,97.9h-3.1c-0.5,0-0.9-0.4-0.9-0.9v-1.1c0-0.5,0.4-0.9,0.9-0.9h3.1V97.9z"/>
			<path class="st5" d="M285,95.1h3.1c0.5,0,0.9,0.4,0.9,0.9v1.1c0,0.5-0.4,0.9-0.9,0.9H285V95.1z"/>
			<path class="st6" d="M274.3,73.3h9.2c0.8,0,1.5,0.7,1.5,1.5v23c0,0.8-0.7,1.5-1.5,1.5h-9.2c-0.8,0-1.5-0.7-1.5-1.5v-23
				C272.7,74,273.4,73.3,274.3,73.3z"/>
			<path class="st7" d="M277.4,73.3l-1,4.4l2.1,2.5h6.5v-4.7c0,0,0-2.1-2.2-2.2L281,75l-0.5-1.7H277.4z"/>
		</g>
		<g>
			<path class="st4" d="M300.3,70.4h4.5c0.3,0,0.6,0.3,0.6,0.6v8.6c0,0.3-0.3,0.6-0.6,0.6h-4.5c-0.3,0-0.6-0.3-0.6-0.6v-8.6
				C299.6,70.7,299.9,70.4,300.3,70.4z"/>
			<path class="st5" d="M296.4,80.7h-3.1c-0.5,0-0.9-0.4-0.9-0.9v-1.1c0-0.5,0.4-0.9,0.9-0.9h3.1V80.7z"/>
			<path class="st5" d="M308.7,77.9h3.1c0.5,0,0.9,0.4,0.9,0.9v1.1c0,0.5-0.4,0.9-0.9,0.9h-3.1V77.9z"/>
			<path class="st5" d="M296.4,89.3h-3.1c-0.5,0-0.9-0.4-0.9-0.9v-1.1c0-0.5,0.4-0.9,0.9-0.9h3.1V89.3z"/>
			<path class="st5" d="M308.7,86.5h3.1c0.5,0,0.9,0.4,0.9,0.9v1.1c0,0.5-0.4,0.9-0.9,0.9h-3.1V86.5z"/>
			<path class="st5" d="M296.4,97.9h-3.1c-0.5,0-0.9-0.4-0.9-0.9v-1.1c0-0.5,0.4-0.9,0.9-0.9h3.1V97.9z"/>
			<path class="st5" d="M308.7,95.1h3.1c0.5,0,0.9,0.4,0.9,0.9v1.1c0,0.5-0.4,0.9-0.9,0.9h-3.1V95.1z"/>
			<path class="st6" d="M297.9,73.3h9.2c0.8,0,1.5,0.7,1.5,1.5v23c0,0.8-0.7,1.5-1.5,1.5h-9.2c-0.8,0-1.5-0.7-1.5-1.5v-23
				C296.4,74,297.1,73.3,297.9,73.3z"/>
			<path class="st7" d="M301,73.3l-1,4.4l2.1,2.5h6.5v-4.7c0,0,0-2.1-2.2-2.2l-1.9,1.7l-0.5-1.7H301z"/>
		</g>
		<g>
			<path class="st4" d="M323.9,70.4h4.5c0.3,0,0.6,0.3,0.6,0.6v8.6c0,0.3-0.3,0.6-0.6,0.6h-4.5c-0.3,0-0.6-0.3-0.6-0.6v-8.6
				C323.3,70.7,323.6,70.4,323.9,70.4z"/>
			<path class="st5" d="M320.1,80.7h-3.1c-0.5,0-0.9-0.4-0.9-0.9v-1.1c0-0.5,0.4-0.9,0.9-0.9h3.1V80.7z"/>
			<path class="st5" d="M332.3,77.9h3.1c0.5,0,0.9,0.4,0.9,0.9v1.1c0,0.5-0.4,0.9-0.9,0.9h-3.1V77.9z"/>
			<path class="st5" d="M320.1,89.3h-3.1c-0.5,0-0.9-0.4-0.9-0.9v-1.1c0-0.5,0.4-0.9,0.9-0.9h3.1V89.3z"/>
			<path class="st5" d="M332.3,86.5h3.1c0.5,0,0.9,0.4,0.9,0.9v1.1c0,0.5-0.4,0.9-0.9,0.9h-3.1V86.5z"/>
			<path class="st5" d="M320.1,97.9h-3.1c-0.5,0-0.9-0.4-0.9-0.9v-1.1c0-0.5,0.4-0.9,0.9-0.9h3.1V97.9z"/>
			<path class="st5" d="M332.3,95.1h3.1c0.5,0,0.9,0.4,0.9,0.9v1.1c0,0.5-0.4,0.9-0.9,0.9h-3.1V95.1z"/>
			<path class="st6" d="M321.6,73.3h9.2c0.8,0,1.5,0.7,1.5,1.5v23c0,0.8-0.7,1.5-1.5,1.5h-9.2c-0.8,0-1.5-0.7-1.5-1.5v-23
				C320.1,74,320.7,73.3,321.6,73.3z"/>
			<path class="st7" d="M324.7,73.3l-1,4.4l2.1,2.5h6.5v-4.7c0,0,0-2.1-2.2-2.2l-1.9,1.7l-0.5-1.7H324.7z"/>
		</g>
	</g>
	<g>
		<path class="st4" d="M182,250.7h4.5c0.3,0,0.6-0.3,0.6-0.6v-8.6c0-0.3-0.3-0.6-0.6-0.6H182c-0.3,0-0.6,0.3-0.6,0.6v8.6
			C181.3,250.4,181.6,250.7,182,250.7z"/>
		<path class="st5" d="M178.1,240.4H175c-0.5,0-0.9,0.4-0.9,0.9v1.1c0,0.5,0.4,0.9,0.9,0.9h3.1V240.4z"/>
		<path class="st5" d="M190.4,243.3h3.1c0.5,0,0.9-0.4,0.9-0.9v-1.1c0-0.5-0.4-0.9-0.9-0.9h-3.1V243.3z"/>
		<path class="st5" d="M178.1,231.8H175c-0.5,0-0.9,0.4-0.9,0.9v1.1c0,0.5,0.4,0.9,0.9,0.9h3.1V231.8z"/>
		<path class="st5" d="M190.4,234.7h3.1c0.5,0,0.9-0.4,0.9-0.9v-1.1c0-0.5-0.4-0.9-0.9-0.9h-3.1V234.7z"/>
		<path class="st5" d="M178.1,223.2H175c-0.5,0-0.9,0.4-0.9,0.9v1.1c0,0.5,0.4,0.9,0.9,0.9h3.1V223.2z"/>
		<path class="st5" d="M190.4,226.1h3.1c0.5,0,0.9-0.4,0.9-0.9v-1.1c0-0.5-0.4-0.9-0.9-0.9h-3.1V226.1z"/>
		<path class="st6" d="M179.6,247.8h9.2c0.8,0,1.5-0.7,1.5-1.5v-23c0-0.8-0.7-1.5-1.5-1.5h-9.2c-0.8,0-1.5,0.7-1.5,1.5v23
			C178.1,247.2,178.8,247.8,179.6,247.8z"/>
		<path class="st7" d="M182.7,247.8l-1-4.4l2.1-2.5h6.5v4.7c0,0,0,2.1-2.2,2.2l-1.9-1.7l-0.5,1.7H182.7z"/>
	</g>
	<g>
		<path class="st4" d="M229.3,250.7h4.5c0.3,0,0.6-0.3,0.6-0.6v-8.6c0-0.3-0.3-0.6-0.6-0.6h-4.5c-0.3,0-0.6,0.3-0.6,0.6v8.6
			C228.7,250.4,228.9,250.7,229.3,250.7z"/>
		<path class="st5" d="M225.4,240.4h-3.1c-0.5,0-0.9,0.4-0.9,0.9v1.1c0,0.5,0.4,0.9,0.9,0.9h3.1V240.4z"/>
		<path class="st5" d="M237.7,243.3h3.1c0.5,0,0.9-0.4,0.9-0.9v-1.1c0-0.5-0.4-0.9-0.9-0.9h-3.1V243.3z"/>
		<path class="st5" d="M225.4,231.8h-3.1c-0.5,0-0.9,0.4-0.9,0.9v1.1c0,0.5,0.4,0.9,0.9,0.9h3.1V231.8z"/>
		<path class="st5" d="M237.7,234.7h3.1c0.5,0,0.9-0.4,0.9-0.9v-1.1c0-0.5-0.4-0.9-0.9-0.9h-3.1V234.7z"/>
		<path class="st5" d="M225.4,223.2h-3.1c-0.5,0-0.9,0.4-0.9,0.9v1.1c0,0.5,0.4,0.9,0.9,0.9h3.1V223.2z"/>
		<path class="st5" d="M237.7,226.1h3.1c0.5,0,0.9-0.4,0.9-0.9v-1.1c0-0.5-0.4-0.9-0.9-0.9h-3.1V226.1z"/>
		<path class="st6" d="M226.9,247.8h9.2c0.8,0,1.5-0.7,1.5-1.5v-23c0-0.8-0.7-1.5-1.5-1.5h-9.2c-0.8,0-1.5,0.7-1.5,1.5v23
			C225.4,247.2,226.1,247.8,226.9,247.8z"/>
		<path class="st7" d="M230.1,247.8l-1-4.4l2.1-2.5h6.5v4.7c0,0,0,2.1-2.2,2.2l-1.9-1.7l-0.5,1.7H230.1z"/>
	</g>
	<g>
		<path class="st4" d="M205.6,250.7h4.5c0.3,0,0.6-0.3,0.6-0.6v-8.6c0-0.3-0.3-0.6-0.6-0.6h-4.5c-0.3,0-0.6,0.3-0.6,0.6v8.6
			C205,250.4,205.3,250.7,205.6,250.7z"/>
		<path class="st5" d="M201.8,240.4h-3.1c-0.5,0-0.9,0.4-0.9,0.9v1.1c0,0.5,0.4,0.9,0.9,0.9h3.1V240.4z"/>
		<path class="st5" d="M214,243.3h3.1c0.5,0,0.9-0.4,0.9-0.9v-1.1c0-0.5-0.4-0.9-0.9-0.9H214V243.3z"/>
		<path class="st5" d="M201.8,231.8h-3.1c-0.5,0-0.9,0.4-0.9,0.9v1.1c0,0.5,0.4,0.9,0.9,0.9h3.1V231.8z"/>
		<path class="st5" d="M214,234.7h3.1c0.5,0,0.9-0.4,0.9-0.9v-1.1c0-0.5-0.4-0.9-0.9-0.9H214V234.7z"/>
		<path class="st5" d="M201.8,223.2h-3.1c-0.5,0-0.9,0.4-0.9,0.9v1.1c0,0.5,0.4,0.9,0.9,0.9h3.1V223.2z"/>
		<path class="st5" d="M214,226.1h3.1c0.5,0,0.9-0.4,0.9-0.9v-1.1c0-0.5-0.4-0.9-0.9-0.9H214V226.1z"/>
		<path class="st6" d="M203.3,247.8h9.2c0.8,0,1.5-0.7,1.5-1.5v-23c0-0.8-0.7-1.5-1.5-1.5h-9.2c-0.8,0-1.5,0.7-1.5,1.5v23
			C201.8,247.2,202.4,247.8,203.3,247.8z"/>
		<path class="st7" d="M206.4,247.8l-1-4.4l2.1-2.5h6.5v4.7c0,0,0,2.1-2.2,2.2l-1.9-1.7l-0.5,1.7H206.4z"/>
	</g>
	<g>
		<path class="st4" d="M252.9,250.7h4.5c0.3,0,0.6-0.3,0.6-0.6v-8.6c0-0.3-0.3-0.6-0.6-0.6h-4.5c-0.3,0-0.6,0.3-0.6,0.6v8.6
			C252.3,250.4,252.6,250.7,252.9,250.7z"/>
		<path class="st5" d="M249.1,240.4H246c-0.5,0-0.9,0.4-0.9,0.9v1.1c0,0.5,0.4,0.9,0.9,0.9h3.1V240.4z"/>
		<path class="st5" d="M261.3,243.3h3.1c0.5,0,0.9-0.4,0.9-0.9v-1.1c0-0.5-0.4-0.9-0.9-0.9h-3.1V243.3z"/>
		<path class="st5" d="M249.1,231.8H246c-0.5,0-0.9,0.4-0.9,0.9v1.1c0,0.5,0.4,0.9,0.9,0.9h3.1V231.8z"/>
		<path class="st5" d="M261.3,234.7h3.1c0.5,0,0.9-0.4,0.9-0.9v-1.1c0-0.5-0.4-0.9-0.9-0.9h-3.1V234.7z"/>
		<path class="st5" d="M249.1,223.2H246c-0.5,0-0.9,0.4-0.9,0.9v1.1c0,0.5,0.4,0.9,0.9,0.9h3.1V223.2z"/>
		<path class="st5" d="M261.3,226.1h3.1c0.5,0,0.9-0.4,0.9-0.9v-1.1c0-0.5-0.4-0.9-0.9-0.9h-3.1V226.1z"/>
		<path class="st6" d="M250.6,247.8h9.2c0.8,0,1.5-0.7,1.5-1.5v-23c0-0.8-0.7-1.5-1.5-1.5h-9.2c-0.8,0-1.5,0.7-1.5,1.5v23
			C249.1,247.2,249.8,247.8,250.6,247.8z"/>
		<path class="st7" d="M253.7,247.8l-1-4.4l2.1-2.5h6.5v4.7c0,0,0,2.1-2.2,2.2l-1.9-1.7l-0.5,1.7H253.7z"/>
	</g>
	<g>
		<path class="st4" d="M276.6,250.7h4.5c0.3,0,0.6-0.3,0.6-0.6v-8.6c0-0.3-0.3-0.6-0.6-0.6h-4.5c-0.3,0-0.6,0.3-0.6,0.6v8.6
			C276,250.4,276.3,250.7,276.6,250.7z"/>
		<path class="st5" d="M272.7,240.4h-3.1c-0.5,0-0.9,0.4-0.9,0.9v1.1c0,0.5,0.4,0.9,0.9,0.9h3.1V240.4z"/>
		<path class="st5" d="M285,243.3h3.1c0.5,0,0.9-0.4,0.9-0.9v-1.1c0-0.5-0.4-0.9-0.9-0.9H285V243.3z"/>
		<path class="st5" d="M272.7,231.8h-3.1c-0.5,0-0.9,0.4-0.9,0.9v1.1c0,0.5,0.4,0.9,0.9,0.9h3.1V231.8z"/>
		<path class="st5" d="M285,234.7h3.1c0.5,0,0.9-0.4,0.9-0.9v-1.1c0-0.5-0.4-0.9-0.9-0.9H285V234.7z"/>
		<path class="st5" d="M272.7,223.2h-3.1c-0.5,0-0.9,0.4-0.9,0.9v1.1c0,0.5,0.4,0.9,0.9,0.9h3.1V223.2z"/>
		<path class="st5" d="M285,226.1h3.1c0.5,0,0.9-0.4,0.9-0.9v-1.1c0-0.5-0.4-0.9-0.9-0.9H285V226.1z"/>
		<path class="st6" d="M274.3,247.8h9.2c0.8,0,1.5-0.7,1.5-1.5v-23c0-0.8-0.7-1.5-1.5-1.5h-9.2c-0.8,0-1.5,0.7-1.5,1.5v23
			C272.7,247.2,273.4,247.8,274.3,247.8z"/>
		<path class="st7" d="M277.4,247.8l-1-4.4l2.1-2.5h6.5v4.7c0,0,0,2.1-2.2,2.2l-1.9-1.7l-0.5,1.7H277.4z"/>
	</g>
	<g>
		<path class="st4" d="M300.3,250.7h4.5c0.3,0,0.6-0.3,0.6-0.6v-8.6c0-0.3-0.3-0.6-0.6-0.6h-4.5c-0.3,0-0.6,0.3-0.6,0.6v8.6
			C299.6,250.4,299.9,250.7,300.3,250.7z"/>
		<path class="st5" d="M296.4,240.4h-3.1c-0.5,0-0.9,0.4-0.9,0.9v1.1c0,0.5,0.4,0.9,0.9,0.9h3.1V240.4z"/>
		<path class="st5" d="M308.7,243.3h3.1c0.5,0,0.9-0.4,0.9-0.9v-1.1c0-0.5-0.4-0.9-0.9-0.9h-3.1V243.3z"/>
		<path class="st5" d="M296.4,231.8h-3.1c-0.5,0-0.9,0.4-0.9,0.9v1.1c0,0.5,0.4,0.9,0.9,0.9h3.1V231.8z"/>
		<path class="st5" d="M308.7,234.7h3.1c0.5,0,0.9-0.4,0.9-0.9v-1.1c0-0.5-0.4-0.9-0.9-0.9h-3.1V234.7z"/>
		<path class="st5" d="M296.4,223.2h-3.1c-0.5,0-0.9,0.4-0.9,0.9v1.1c0,0.5,0.4,0.9,0.9,0.9h3.1V223.2z"/>
		<path class="st5" d="M308.7,226.1h3.1c0.5,0,0.9-0.4,0.9-0.9v-1.1c0-0.5-0.4-0.9-0.9-0.9h-3.1V226.1z"/>
		<path class="st6" d="M297.9,247.8h9.2c0.8,0,1.5-0.7,1.5-1.5v-23c0-0.8-0.7-1.5-1.5-1.5h-9.2c-0.8,0-1.5,0.7-1.5,1.5v23
			C296.4,247.2,297.1,247.8,297.9,247.8z"/>
		<path class="st7" d="M301,247.8l-1-4.4l2.1-2.5h6.5v4.7c0,0,0,2.1-2.2,2.2l-1.9-1.7l-0.5,1.7H301z"/>
	</g>
	<g>
		<rect x="245.9" y="137" class="st5" width="1.9" height="21"/>
		<rect x="249.2" y="137" class="st5" width="1.9" height="21"/>
		<rect x="252.4" y="137" class="st5" width="1.9" height="21"/>
		<rect x="255.7" y="137" class="st5" width="1.9" height="21"/>
		<rect x="259" y="137" class="st5" width="1.9" height="21"/>
		<rect x="262.3" y="137" class="st5" width="1.9" height="21"/>
		<rect x="265.5" y="137" class="st5" width="1.9" height="21"/>
		<rect x="268.8" y="137" class="st5" width="1.9" height="21"/>
		<rect x="244.5" y="139.7" class="st6" width="27.2" height="15.6"/>
	</g>
	<g>
		
			<rect x="210.2" y="190.7" transform="matrix(6.123234e-17 -1 1 6.123234e-17 7.1014 415.2298)" class="st5" width="2" height="26.7"/>
		
			<rect x="210.3" y="176.6" transform="matrix(-1 -1.224647e-16 1.224647e-16 -1 422.6687 385.1909)" class="st5" width="2" height="32"/>
		
			<rect x="200.4" y="176.6" transform="matrix(-1 -1.224647e-16 1.224647e-16 -1 402.8312 385.1909)" class="st5" width="2" height="32"/>
		
			<rect x="220.3" y="176.6" transform="matrix(-1 -1.224647e-16 1.224647e-16 -1 442.5062 385.1909)" class="st5" width="2" height="32"/>
		
			<rect x="216.9" y="176.6" transform="matrix(-1 -1.224647e-16 1.224647e-16 -1 435.8936 385.1909)" class="st5" width="2" height="32"/>
		
			<rect x="203.7" y="176.6" transform="matrix(-1 -1.224647e-16 1.224647e-16 -1 409.4437 385.1909)" class="st5" width="2" height="32"/>
		
			<rect x="207" y="176.6" transform="matrix(-1 -1.224647e-16 1.224647e-16 -1 416.0562 385.1909)" class="st5" width="2" height="32"/>
		
			<rect x="213.6" y="176.6" transform="matrix(-1 -1.224647e-16 1.224647e-16 -1 429.2812 385.1909)" class="st5" width="2" height="32"/>
		
			<rect x="210.2" y="187.7" transform="matrix(6.123234e-17 -1 1 6.123234e-17 10.0545 412.2766)" class="st5" width="2" height="26.7"/>
		
			<rect x="210.2" y="184.8" transform="matrix(6.123234e-17 -1 1 6.123234e-17 13.0077 409.3235)" class="st5" width="2" height="26.7"/>
		
			<rect x="210.2" y="181.8" transform="matrix(6.123234e-17 -1 1 6.123234e-17 15.9608 406.3704)" class="st5" width="2" height="26.7"/>
		
			<rect x="210.2" y="178.9" transform="matrix(6.123234e-17 -1 1 6.123234e-17 18.9139 403.4173)" class="st5" width="2" height="26.7"/>
		
			<rect x="210.2" y="175.9" transform="matrix(6.123234e-17 -1 1 6.123234e-17 21.867 400.4641)" class="st5" width="2" height="26.7"/>
		
			<rect x="210.2" y="173" transform="matrix(6.123234e-17 -1 1 6.123234e-17 24.8202 397.511)" class="st5" width="2" height="26.7"/>
		
			<rect x="210.2" y="167.1" transform="matrix(6.123234e-17 -1 1 6.123234e-17 30.7264 391.6048)" class="st5" width="2" height="26.7"/>
		
			<rect x="210.2" y="170" transform="matrix(6.123234e-17 -1 1 6.123234e-17 27.7733 394.5579)" class="st5" width="2" height="26.7"/>
		
			<rect x="197.2" y="181" transform="matrix(6.123234e-17 -1 1 6.123234e-17 18.5702 403.761)" class="st6" width="28" height="23.2"/>
	</g>
	<g>
		<path class="st5" d="M322.7,245L322.7,245c-0.7,0-1.3-0.6-1.3-1.3v-20.8c0-0.7,0.6-1.3,1.3-1.3l0,0c0.7,0,1.3,0.6,1.3,1.3v20.8
			C324,244.4,323.4,245,322.7,245z"/>
		<path class="st5" d="M329.2,245L329.2,245c-0.7,0-1.3-0.6-1.3-1.3v-20.8c0-0.7,0.6-1.3,1.3-1.3l0,0c0.7,0,1.3,0.6,1.3,1.3v20.8
			C330.5,244.4,329.9,245,329.2,245z"/>
		<g>
			<polygon class="st5" points="330.6,224.5 321.8,224.5 317.7,228.6 317.7,237.9 321.8,242 330.6,242 334.6,237.9 334.6,228.6 			
				"/>
			<polygon class="st1" points="330,225.8 322.4,225.8 319,229.3 319,237.2 322.4,240.7 330,240.7 333.4,237.2 333.4,229.3 			"/>
			<circle class="st8" cx="326.2" cy="233.3" r="3.9"/>
		</g>
	</g>
	
		<rect x="182.4" y="112.1" transform="matrix(6.123234e-17 -1 1 6.123234e-17 59.6686 306.6291)" class="st5" width="1.5" height="22.8"/>
	
		<rect x="180.9" y="106.8" transform="matrix(6.123234e-17 -1 1 6.123234e-17 69.2585 297.0391)" class="st5" width="4.4" height="14.1"/>
	
		<rect x="180.5" y="115.1" transform="matrix(6.123234e-17 -1 1 6.123234e-17 59.6686 306.6291)" class="st6" width="5.3" height="16.7"/>
	
		<rect x="315.8" y="112.4" transform="matrix(6.123234e-17 -1 1 6.123234e-17 196.2149 436.3912)" class="st5" width="1" height="15.4"/>
	
		<rect x="314.5" y="114.5" transform="matrix(6.123234e-17 -1 1 6.123234e-17 196.2149 436.3912)" class="st6" width="3.6" height="11.3"/>
	
		<rect x="315" y="111.5" transform="matrix(6.123234e-17 -1 1 6.123234e-17 200.5295 432.0765)" class="st6" width="2.7" height="8.5"/>
	
		<rect x="330.3" y="115.8" transform="matrix(6.123234e-17 -1 1 6.123234e-17 211.5718 451.7481)" class="st6" width="2.7" height="8.5"/>
	
		<rect x="331.2" y="108.1" transform="matrix(6.123234e-17 -1 1 6.123234e-17 215.8864 447.4335)" class="st5" width="1" height="15.4"/>
	
		<rect x="329.9" y="110.1" transform="matrix(6.123234e-17 -1 1 6.123234e-17 215.8864 447.4335)" class="st6" width="3.6" height="11.3"/>
	
		<rect x="178.7" y="109.2" transform="matrix(6.123234e-17 -1 1 6.123234e-17 69.2585 297.0391)" class="st7" width="8.9" height="9.4"/>
	<circle class="st9" cx="351.8" cy="234.8" r="6"/>
	<circle class="st9" cx="351.8" cy="83.9" r="6"/>
	<g>
		<g>
			<path class="st1" d="M315.3,140.8v51.5h45.7v-3.4c0,0-5.5-11.7-5.5-20.2c0-8.4,5.5-20.7,5.5-20.7h1.2v-7.2H315.3z"/>
			<g>
				<path class="st0" d="M339.8,147.8c0,0.2,0.2,0.4,0.5,0.4h3.9c0.3,0,0.5-0.2,0.5-0.4l0,0c0-0.2,0.2-0.4,0.5-0.4h10.5
					c0.6,0,1.1-0.4,1.1-1v-4.5c0-0.5-0.5-1-1.1-1h-15.7V147.8z"/>
				<path class="st1" d="M339.8,142.8v3.4c0,0.2,0.2,0.3,0.4,0.3h2c0.2,0,0.5-0.1,0.7-0.2l0.5-0.3c0.3-0.2,0.5-0.4,0.5-0.7v0
					l12.8,0.2v-2.2l-12.8,0.2c0-0.2-0.2-0.4-0.4-0.6l-0.5-0.4c-0.2-0.1-0.5-0.2-0.8-0.2h-1.9C339.9,142.5,339.8,142.6,339.8,142.8z"
					/>
			</g>
		</g>
	</g>
	<g>
		<g>
			
				<rect x="264" y="195.7" transform="matrix(-1 -1.224647e-16 1.224647e-16 -1 530.0225 408.0296)" class="st5" width="1.9" height="16.6"/>
			
				<rect x="260.8" y="195.7" transform="matrix(-1 -1.224647e-16 1.224647e-16 -1 523.4734 408.0296)" class="st5" width="1.9" height="16.6"/>
			
				<rect x="257.5" y="195.7" transform="matrix(-1 -1.224647e-16 1.224647e-16 -1 516.9243 408.0296)" class="st5" width="1.9" height="16.6"/>
			
				<rect x="254.2" y="195.7" transform="matrix(-1 -1.224647e-16 1.224647e-16 -1 510.3752 408.0296)" class="st5" width="1.9" height="16.6"/>
			
				<rect x="250.9" y="195.7" transform="matrix(-1 -1.224647e-16 1.224647e-16 -1 503.8261 408.0296)" class="st5" width="1.9" height="16.6"/>
			
				<rect x="247.7" y="195.7" transform="matrix(-1 -1.224647e-16 1.224647e-16 -1 497.2771 408.0296)" class="st5" width="1.9" height="16.6"/>
			
				<rect x="245.5" y="197.9" transform="matrix(-1 -1.224647e-16 1.224647e-16 -1 512.8393 408.0296)" class="st6" width="21.9" height="12.3"/>
		</g>
		
			<rect x="264.1" y="203.7" transform="matrix(-1 -1.224647e-16 1.224647e-16 -1 530.0621 410.6023)" class="st10" width="1.9" height="3.2"/>
		
			<rect x="260.8" y="203.7" transform="matrix(-1 -1.224647e-16 1.224647e-16 -1 523.4734 410.6023)" class="st10" width="1.9" height="3.2"/>
		
			<rect x="257.5" y="203.7" transform="matrix(-1 -1.224647e-16 1.224647e-16 -1 516.9639 410.6023)" class="st10" width="1.9" height="3.2"/>
		
			<rect x="254.2" y="203.7" transform="matrix(-1 -1.224647e-16 1.224647e-16 -1 510.3752 410.6023)" class="st10" width="1.9" height="3.2"/>
		
			<rect x="251" y="203.7" transform="matrix(-1 -1.224647e-16 1.224647e-16 -1 503.8658 410.6023)" class="st10" width="1.9" height="3.2"/>
		
			<rect x="247.7" y="203.7" transform="matrix(-1 -1.224647e-16 1.224647e-16 -1 497.2771 410.6023)" class="st10" width="1.9" height="3.2"/>
	</g>
	<g>
		<g>
			
				<rect x="255.4" y="120.7" transform="matrix(6.123234e-17 -1 1 6.123234e-17 127.4386 385.4007)" class="st5" width="1.9" height="16.6"/>
			
				<rect x="255.4" y="117.4" transform="matrix(6.123234e-17 -1 1 6.123234e-17 130.7131 382.1262)" class="st5" width="1.9" height="16.6"/>
			
				<rect x="255.4" y="114.1" transform="matrix(6.123234e-17 -1 1 6.123234e-17 133.9877 378.8516)" class="st5" width="1.9" height="16.6"/>
			
				<rect x="255.4" y="110.9" transform="matrix(6.123234e-17 -1 1 6.123234e-17 137.2622 375.5771)" class="st5" width="1.9" height="16.6"/>
			
				<rect x="255.4" y="107.6" transform="matrix(6.123234e-17 -1 1 6.123234e-17 140.5367 372.3025)" class="st5" width="1.9" height="16.6"/>
			
				<rect x="255.4" y="104.3" transform="matrix(6.123234e-17 -1 1 6.123234e-17 143.8113 369.028)" class="st5" width="1.9" height="16.6"/>
			
				<rect x="245.5" y="114.2" transform="matrix(6.123234e-17 -1 1 6.123234e-17 136.0302 376.8091)" class="st6" width="21.9" height="12.3"/>
		</g>
		
			<rect x="254.2" y="127.4" transform="matrix(6.123234e-17 -1 1 6.123234e-17 126.1324 384.1342)" class="st10" width="1.9" height="3.2"/>
		
			<rect x="254.2" y="124.1" transform="matrix(6.123234e-17 -1 1 6.123234e-17 129.4267 380.8398)" class="st10" width="1.9" height="3.2"/>
		
			<rect x="254.2" y="120.8" transform="matrix(6.123234e-17 -1 1 6.123234e-17 132.6815 377.5851)" class="st10" width="1.9" height="3.2"/>
		
			<rect x="254.2" y="117.5" transform="matrix(6.123234e-17 -1 1 6.123234e-17 135.9758 374.2907)" class="st10" width="1.9" height="3.2"/>
		
			<rect x="254.2" y="114.3" transform="matrix(6.123234e-17 -1 1 6.123234e-17 139.2306 371.0359)" class="st10" width="1.9" height="3.2"/>
		
			<rect x="254.2" y="111" transform="matrix(6.123234e-17 -1 1 6.123234e-17 142.5249 367.7416)" class="st10" width="1.9" height="3.2"/>
	</g>
	<text transform="matrix(1 0 0 1 297.0934 84.7263)" class="st11 st12 st13">D3</text>
	<text transform="matrix(1 0 0 1 305.4905 84.7263)" class="st11 st12 st13">V</text>
	<text transform="matrix(1 0 0 1 305.4904 95.0388)" class="st11 st12 st13">G</text>
	<text transform="matrix(1 0 0 1 297.0968 95.0388)" class="st11 st12 st13">D2</text>
	<text transform="matrix(1 0 0 1 320.6713 84.7263)" class="st11 st12 st13">D1</text>
	<text transform="matrix(1 0 0 1 329.0685 84.7263)" class="st11 st12 st13">V</text>
	<text transform="matrix(1 0 0 1 329.0684 95.0388)" class="st11 st12 st13">G</text>
	<text transform="matrix(1 0 0 1 320.6748 95.0388)" class="st11 st12 st13">D0</text>
	<text transform="matrix(1 0 0 1 273.1327 84.7263)" class="st11 st12 st13">D5</text>
	<text transform="matrix(1 0 0 1 281.5299 84.7263)" class="st11 st12 st13">V</text>
	<text transform="matrix(1 0 0 1 281.5298 95.0388)" class="st11 st12 st13">G</text>
	<text transform="matrix(1 0 0 1 273.1362 95.0388)" class="st11 st12 st13">D4</text>
	<text transform="matrix(1 0 0 1 249.9546 84.7263)" class="st11 st12 st13">D7</text>
	<text transform="matrix(1 0 0 1 258.3517 84.7263)" class="st11 st12 st13">V</text>
	<text transform="matrix(1 0 0 1 258.3517 95.0388)" class="st11 st12 st13">G</text>
	<text transform="matrix(1 0 0 1 249.9581 95.0388)" class="st11 st12 st13">D6</text>
	<text transform="matrix(1 0 0 1 226.4964 84.7263)" class="st11 st12 st13">D9</text>
	<text transform="matrix(1 0 0 1 234.8935 84.7263)" class="st11 st12 st13">V</text>
	<text transform="matrix(1 0 0 1 234.8934 95.0388)" class="st11 st12 st13">G</text>
	<text transform="matrix(1 0 0 1 226.4999 95.0388)" class="st11 st12 st13">D8</text>
	<text transform="matrix(1 0 0 1 202.3614 84.7263)" class="st11 st12 st13">D11</text>
	<text transform="matrix(1 0 0 1 210.7584 84.7263)" class="st11 st12 st13">V</text>
	<text transform="matrix(1 0 0 1 210.7584 95.0388)" class="st11 st12 st13">G</text>
	<text transform="matrix(1 0 0 1 202.3649 95.0388)" class="st11 st12 st13">D10</text>
	<text transform="matrix(1 0 0 1 179.0843 84.7269)" class="st11 st12 st13">D13</text>
	<text transform="matrix(1 0 0 1 193.0843 114.9518)" class="st11 st12 st13">E1</text>
	<text transform="matrix(1 0 0 1 313.3302 112.6795)" class="st11 st12 st14">RS</text>
	<rect x="274.6" y="166" class="st6" width="2.5" height="7.9"/>
	<rect x="270.4" y="166" class="st6" width="2.5" height="7.9"/>
	<text transform="matrix(6.123234e-17 1 -1 6.123234e-17 278.7238 167.2859)" class="st11 st12 st15">R36</text>
	<text transform="matrix(1 0 0 1 329.6378 112.6795)" class="st11 st12 st14">D2</text>
	<text transform="matrix(1 0 0 1 313.3302 124.9656)" class="st11 st12 st14">D1</text>
	<rect x="271.2" y="175.2" class="st5" width="0.8" height="11.7"/>
	<rect x="270.2" y="176.8" class="st6" width="2.7" height="8.6"/>
	<rect x="275.5" y="175.2" class="st5" width="0.8" height="11.7"/>
	<rect x="274.5" y="176.8" class="st6" width="2.7" height="8.6"/>
	<text transform="matrix(6.123234e-17 1 -1 6.123234e-17 279.0245 179.9636)" class="st11 st12 st16">D17</text>
	<text transform="matrix(6.123234e-17 1 -1 6.123234e-17 281.8917 167.2859)" class="st11 st12 st15">R35</text>
	<text transform="matrix(6.123234e-17 1 -1 6.123234e-17 282.1945 179.9636)" class="st11 st12 st16">D16</text>
	<text transform="matrix(1 0 0 1 329.6378 124.9656)" class="st11 st12 st14">R10</text>
	<text transform="matrix(1 0 0 1 196.001 124.756)" class="st11 st12 st13">03</text>
	<text transform="matrix(6.123234e-17 -1 1 6.123234e-17 190.8103 149.6136)" class="st11 st12 st17">USB</text>
	<text transform="matrix(6.123234e-17 -1 1 6.123234e-17 325.4835 178.5967)" class="st11 st12 st18">62561</text>
	<text transform="matrix(1 0 0 1 187.4813 84.7269)" class="st11 st12 st13">V</text>
	<text transform="matrix(1 0 0 1 187.4813 95.0394)" class="st11 st12 st13">G</text>
	<text transform="matrix(1 0 0 1 179.0878 95.0394)" class="st11 st12 st13">D12</text>
	<text transform="matrix(1 0 0 1 297.097 227.8721)" class="st11 st12 st13">G</text>
	<text transform="matrix(1 0 0 1 297.097 238.1847)" class="st11 st12 st13">A</text>
	<text transform="matrix(1 0 0 1 303.5853 233.351)" class="st11 st12 st13">A5</text>
	<text transform="matrix(1 0 0 1 273.6112 228.1951)" class="st11 st12 st13">G</text>
	<text transform="matrix(1 0 0 1 273.6112 238.5076)" class="st11 st12 st13">A</text>
	<text transform="matrix(1 0 0 1 280.0995 233.6739)" class="st11 st12 st13">A4</text>
	<text transform="matrix(1 0 0 1 249.9581 227.8718)" class="st11 st12 st13">G</text>
	<text transform="matrix(1 0 0 1 249.9581 238.1843)" class="st11 st12 st13">A</text>
	<text transform="matrix(1 0 0 1 256.4464 233.3506)" class="st11 st12 st13">A3</text>
	<text transform="matrix(1 0 0 1 226.4741 227.8718)" class="st11 st12 st13">G</text>
	<text transform="matrix(1 0 0 1 226.474 238.1843)" class="st11 st12 st13">A</text>
	<text transform="matrix(1 0 0 1 232.9623 233.3506)" class="st11 st12 st13">A2</text>
	<text transform="matrix(1 0 0 1 202.7789 227.2301)" class="st11 st12 st13">G</text>
	<text transform="matrix(1 0 0 1 202.7789 237.5426)" class="st11 st12 st13">A</text>
	<text transform="matrix(1 0 0 1 209.2672 232.709)" class="st11 st12 st13">A1</text>
	<text transform="matrix(1 0 0 1 178.7179 228.1941)" class="st11 st12 st13">G</text>
	<text transform="matrix(1 0 0 1 178.7179 238.5067)" class="st11 st12 st13">A</text>
	<text transform="matrix(1 0 0 1 185.2062 233.673)" class="st11 st12 st13">A0</text>
</g>
<rect x="228.5" y="111.4" class="st19" width="12.2" height="16.4"/>
<circle class="st20" cx="232.1" cy="113.4" r="1.2"/>
<circle class="st20" cx="237.1" cy="113.8" r="1.2"/>
<circle class="st20" cx="232.1" cy="117.5" r="1.2"/>
<circle class="st20" cx="237.1" cy="117.5" r="1.2"/>
<circle class="st20" cx="232.1" cy="120.9" r="1.2"/>
<circle class="st20" cx="237.1" cy="120.9" r="1.2"/>
<circle class="st20" cx="232.1" cy="124.3" r="1.2"/>
<circle class="st20" cx="237.1" cy="124.3" r="1.2"/>
<rect x="214.9" y="111.4" class="st19" width="12.2" height="12.7"/>
<circle class="st20" cx="218.5" cy="113.6" r="1.2"/>
<circle class="st20" cx="223.5" cy="113.8" r="1.2"/>
<circle class="st20" cx="218.5" cy="117.5" r="1.2"/>
<circle class="st20" cx="223.5" cy="117.5" r="1.2"/>
<circle class="st20" cx="218.5" cy="120.9" r="1.2"/>
<circle class="st20" cx="223.5" cy="120.9" r="1.2"/>
<polyline class="st19" points="221,111.4 221,115.4 214.9,115.4 "/>
<polyline class="st19" points="234.9,111.4 234.9,115.4 228.7,115.4 "/>
</svg>
