<svg id="图层_1" data-name="图层 1" xmlns="http://www.w3.org/2000/svg" viewBox="0 0 240.49 51.9"><defs><style>.cls-1{fill:#fe8f00;fill-rule:evenodd;}</style></defs><title>吖扑科学</title><path class="cls-1" d="M213.45,375.27a13.92,13.92,0,0,1-19.73,19.64h0a13.91,13.91,0,1,1,19.67-19.67,0,0,0,0,1,0,0Zm120.16,4.11a2.42,2.42,0,0,1,.08.65v1.59a12.42,12.42,0,0,1,3.18,1.11,14.62,14.62,0,0,1,5.13,4.05,3.28,3.28,0,0,1-5.13,4.08,8.18,8.18,0,0,0-2.83-2.27,1.71,1.71,0,0,0-.34-.14V403.7a3.34,3.34,0,0,1-3.34,3.32h0A3.34,3.34,0,0,1,327,403.7V388.57a.87.87,0,0,1-.23.11,8.45,8.45,0,0,0-2.89,2.49,3.27,3.27,0,1,1-5.3-3.83,15,15,0,0,1,5.22-4.48,16.05,16.05,0,0,1,3.2-1.19V380a2.13,2.13,0,0,1,.06-.6v-1.79h-4.73a3.27,3.27,0,0,1,0-6.55h4.73v-1.36a3.26,3.26,0,1,1,6.52,0v1.36h4.73a3.27,3.27,0,0,1,0,6.55h-4.73Zm-59.13-4.17h3.2a3.27,3.27,0,1,1,0,6.55h-3.2v5.13a4.8,4.8,0,0,1,0,.65,11.52,11.52,0,0,1-3.32,7.51l-.08.08a11.67,11.67,0,1,1-8.25-19.93h5.13v-4.79h-6.86a3.26,3.26,0,1,1,0-6.52h6.86v-2.24a3.27,3.27,0,0,1,6.55,0v13.55Zm38,9.72a2.93,2.93,0,0,1-.71,4.54c-2,1.22-3.54.45-4.82-.82l-8-7.85a3.27,3.27,0,1,1,4.59-4.65Zm-24.55-23.27a3.27,3.27,0,0,1,6.55,0v40.82a3.27,3.27,0,0,1-6.55,0Zm-59.41,23.5a3.42,3.42,0,1,1,6.83,0v19.56a3.42,3.42,0,0,1-6.83,0ZM246.3,359a3.41,3.41,0,0,1,4.79,4.85l-12.19,12a10.16,10.16,0,0,1-6.94,3.2A9.69,9.69,0,0,1,225,376l-12.3-12.16a3.4,3.4,0,1,1,4.76-4.85l12.3,12.16a3.37,3.37,0,0,0,2.1,1.13,3.71,3.71,0,0,0,2.24-1.25Zm140.54-2.81a4.29,4.29,0,1,1-4.28,4.31,4.3,4.3,0,0,1,4.28-4.31Zm15.25,0a4.29,4.29,0,1,1-4.28,4.31,4.31,4.31,0,0,1,4.28-4.31Zm15.28,0a4.29,4.29,0,1,1-4.28,4.31,4.28,4.28,0,0,1,4.28-4.31Zm2.72,16.44h-36a3.67,3.67,0,0,0-2,.85,3.42,3.42,0,0,0-1.11,1.87,3.28,3.28,0,0,1-6.38-1.5,10,10,0,0,1,3.23-5.3,10.12,10.12,0,0,1,5.7-2.44h37a10.18,10.18,0,0,1,8.93,7.74,3.28,3.28,0,0,1-6.38,1.5,3.56,3.56,0,0,0-3.09-2.72ZM401.78,385.9l5.24-4.28H388a3.27,3.27,0,1,1,0-6.55H415.5c1.59,0,2.83.26,3.63,1.81a3.32,3.32,0,0,1-.88,4l-6.15,5h14.8a3.27,3.27,0,0,1,0,6.55h-16a9.89,9.89,0,0,1,.65,3.51,10.07,10.07,0,0,1-9.07,10,3.26,3.26,0,1,1-.65-6.49,3.57,3.57,0,0,0,2.27-5.92,3.43,3.43,0,0,0-2.1-1.13H377.29a3.1,3.1,0,0,1-.74.08h-5.84v10.29a3.26,3.26,0,1,1-6.52,0V392.53H347.73a3.27,3.27,0,1,1,0-6.55H364.2V362a3.26,3.26,0,1,1,6.52,0v24h5.73a3.09,3.09,0,0,1,.74-.09ZM361.9,374.22v.14a5.56,5.56,0,0,1-1.87,4L355.44,383a3.27,3.27,0,1,1-4.65-4.59l4-4.05-4-4.05a3.26,3.26,0,1,1,4.65-4.56l4.59,4.62a5.75,5.75,0,0,1,1.87,3.85Zm-26.28-15.48a3.27,3.27,0,0,1,0,6.55H325.08a3.27,3.27,0,0,1,0-6.55Zm-127,21.32a7.09,7.09,0,0,0-12.1,5,7.06,7.06,0,0,0,7.09,7.11,7.08,7.08,0,0,0,5-2.1,7,7,0,0,0,0-10Zm59.33,1.7H262.8a5.13,5.13,0,1,0,3.63,8.76l.09-.06a5.21,5.21,0,0,0,1.42-3.57Z" transform="translate(-189.67 -356.22)"/></svg>