<svg xmlns="http://www.w3.org/2000/svg" viewBox="0 0 256 256">
  <path d="M1 213.7v-170c.3-1.1.8-2.1 1-3.2C6.9 17.6 26.9.9 50.2.8 102.8.6 155.5.6 208.1.8c26.6.1 48.7 22.2 48.8 48.8.2 52.6.2 105.3 0 157.9-.1 22-15.1 41.3-36.3 47.2-2.2.6-4.4 1.3-6.6 1.9H44c-1.1-.3-2.1-.8-3.2-1-18.7-4.5-31.1-15.8-37.4-33.9-1-2.5-1.6-5.3-2.4-8zm7.4-112.3v88.9h104.2v-22.4H26.4v-43.8h94.1c-11.9 8.9-7.2 21.2-8 32.4h138.1V68H71.2v22.2h161.4v44h-93.9c1.7-2.1 3.1-3.5 4.2-5.2 1.6-2.3 4.1-4.6 4.3-7 .6-6.7.2-13.6.2-20.6H8.4zM173 123.3h35.5v-21.5H173v21.5zM87.7 135H52.3v21.5h35.4V135z"/>
  <path fill="#fff" d="M8.4 101.4h139c0 7.1.4 13.9-.2 20.6-.2 2.5-2.7 4.8-4.3 7-1.1 1.6-2.5 3.1-4.2 5.2h93.9v-44H71.2V68h179.4v88.5H112.5c.8-11.2-3.9-23.5 8-32.4H26.4v43.8h86.2v22.4H8.4v-88.9z" />
</svg>
