<?xml version="1.0" encoding="utf-8"?>
<!-- Generator: Adobe Illustrator 22.0.1, SVG Export Plug-In . SVG Version: 6.00 Build 0)  -->
<svg version="1.1" id="图层_1" xmlns="http://www.w3.org/2000/svg" xmlns:xlink="http://www.w3.org/1999/xlink" x="0px" y="0px"
	 viewBox="0 0 150 150" style="enable-background:new 0 0 150 150;" xml:space="preserve">
<style type="text/css">
	.st0{fill:#00979D;}
	.st1{fill:#161616;}
	.st2{fill:#5A5A5A;}
	.st3{fill:#D6D6D6;}
	.st4{fill:#FFFFFF;}
	.st5{fill:#BFBFBF;}
	.st6{fill:#68552B;}
	.st7{fill:#CCAE71;}
	.st8{fill:none;stroke:#B3A76D;stroke-width:1.44;}
	.st9{fill:#838697;}
</style>
<title>bluetooth</title>
<desc>Created with Sketch.</desc>
<g>
	<polygon id="Shape" class="st0" points="135,96.1 135,32.4 15.1,32.4 15.1,96.1 	"/>
	<path id="Shape_1_" class="st1" d="M50,91H25.9c-2.2,0-3.9-1.7-3.9-3.9V56.4c0-3.6,2.4-5.3,4.6-5.3l23.5,1.4c2.2,0,3.9,1.7,3.9,3.9
		l1.3,30C55.2,88.4,53.6,91,50,91z"/>
	<path id="Shape_2_" class="st2" d="M51.3,89.6H27.2c-2.2,0-3.9-1.7-3.9-3.9V54.9c0-2.2,1.7-3.9,3.9-3.9h24.1c2.2,0,3.9,1.7,3.9,3.9
		v30.7C55.2,87.7,53.5,89.6,51.3,89.6z"/>
	<path id="Shape_3_" class="st1" d="M97.8,91H64.7c-2.2,0-3.9-1.7-3.9-3.9V56.4c0-3.6,2.4-5.3,4.6-5.3l23.5,1.4
		c2.2,0,3.9,1.7,3.9,3.9l9.3,29.3C102.1,87.7,100.8,91,97.8,91z"/>
	<path id="Shape_4_" class="st2" d="M97.7,89.6H66.4c-2.4,0-4.4-2-4.4-4.5V55.4c0-2.5,2-4.5,4.4-4.5h31.3c2.4,0,4.4,2,4.4,4.5v29.7
		C102.1,87.5,100.1,89.6,97.7,89.6z"/>
	<path id="Shape_5_" class="st1" d="M27.3,45.7L27.3,45.7c-0.4,0-0.9-0.4-0.9-0.9v-3c0-0.4,0.4-0.9,0.9-0.9l0,0
		c0.4,0,0.9,0.4,0.9,0.9v3C28.2,45.3,27.8,45.7,27.3,45.7z"/>
	<g id="Group" transform="translate(25.482353, 40.655738)">
		<path id="Shape_6_" class="st3" d="M2.7,1.2L2.7,1.2c0-0.6-0.4-1-0.9-1S1,0.6,1,1v0.1h1.7V1.2z"/>
		<path id="Shape_7_" class="st3" d="M1,4L1,4c0,0.6,0.4,1,0.9,1s0.9-0.4,0.9-0.9V4H1L1,4z"/>
	</g>
	<path id="Shape_8_" class="st1" d="M30.5,45.7L30.5,45.7c-0.4,0-0.9-0.4-0.9-0.9v-3c0-0.4,0.4-0.9,0.9-0.9l0,0
		c0.4,0,0.9,0.4,0.9,0.9v3C31.4,45.3,30.9,45.7,30.5,45.7z"/>
	<g id="Group_1_" transform="translate(28.352941, 40.655738)">
		<path id="Shape_9_" class="st3" d="M3,1.2L3,1.2c0-0.6-0.4-1-0.9-1S1.3,0.6,1.3,1v0.1H3V1.2z"/>
		<path id="Shape_10_" class="st3" d="M1.3,4L1.3,4c0,0.6,0.4,1,0.9,1S3,4.6,3,4.2V4H1.3L1.3,4z"/>
	</g>
	<path id="Shape_11_" class="st1" d="M33.7,45.7L33.7,45.7c-0.4,0-0.9-0.4-0.9-0.9v-3c0-0.4,0.4-0.9,0.9-0.9l0,0
		c0.4,0,0.9,0.4,0.9,0.9v3C34.5,45.3,34.1,45.7,33.7,45.7z"/>
	<g id="Group_2_" transform="translate(32.658824, 40.655738)">
		<path id="Shape_12_" class="st3" d="M1.9,1.2L1.9,1.2c0-0.6-0.4-1-0.9-1S0.1,0.6,0.1,1v0.1h1.8V1.2z"/>
		<path id="Shape_13_" class="st3" d="M0.1,4L0.1,4c0,0.6,0.4,1,0.9,1s0.9-0.4,0.9-0.9V4H0.1L0.1,4z"/>
	</g>
	<path id="Shape_14_" class="st1" d="M36.8,45.7L36.8,45.7c-0.4,0-0.9-0.4-0.9-0.9v-3c0-0.4,0.4-0.9,0.9-0.9l0,0
		c0.4,0,0.9,0.4,0.9,0.9v3C37.7,45.3,37.3,45.7,36.8,45.7z"/>
	<g id="Group_3_" transform="translate(35.529412, 40.655738)">
		<path id="Shape_15_" class="st3" d="M2.2,1.2L2.2,1.2c0-0.6-0.4-1-0.9-1S0.4,0.6,0.4,1v0.1h1.8V1.2z"/>
		<path id="Shape_16_" class="st3" d="M0.4,4L0.4,4c0,0.6,0.4,1,0.9,1s0.9-0.4,0.9-0.9V4H0.4L0.4,4z"/>
	</g>
	<path id="Shape_17_" class="st1" d="M58.1,56.7L58.1,56.7c-0.4,0-0.9-0.4-0.9-0.9v-3c0-0.4,0.4-0.9,0.9-0.9l0,0
		c0.4,0,0.9,0.4,0.9,0.9v3C58.9,56.2,58.6,56.7,58.1,56.7z"/>
	<g id="Group_4_" transform="translate(57.058824, 50.754098)">
		<path id="Shape_18_" class="st3" d="M1.9,2L1.9,2c0-0.6-0.4-1-0.9-1S0.1,1.4,0.1,1.9V2H1.9L1.9,2z"/>
		<path id="Shape_19_" class="st3" d="M0.1,4.9L0.1,4.9c0,0.6,0.4,1,0.9,1S1.9,5.5,1.9,5V4.9H0.1L0.1,4.9z"/>
	</g>
	<path id="Shape_20_" class="st1" d="M58.1,69.2L58.1,69.2c-0.4,0-0.9-0.4-0.9-0.9v-3c0-0.4,0.4-0.9,0.9-0.9l0,0
		c0.4,0,0.9,0.4,0.9,0.9v3C58.9,68.9,58.6,69.2,58.1,69.2z"/>
	<g id="Group_5_" transform="translate(57.058824, 63.737705)">
		<path id="Shape_21_" class="st3" d="M1.9,1.6L1.9,1.6c0-0.6-0.4-1-0.9-1S0.1,1,0.1,1.4v0.1h1.8V1.6z"/>
		<path id="Shape_22_" class="st3" d="M0.1,4.6L0.1,4.6c0,0.6,0.4,1,0.9,1s0.9-0.4,0.9-0.9V4.6H0.1L0.1,4.6z"/>
	</g>
	<path id="Shape_23_" class="st4" d="M84.2,45.7L84.2,45.7c-0.4,0-0.9-0.4-0.9-0.9v-3c0-0.4,0.4-0.9,0.9-0.9l0,0
		c0.4,0,0.9,0.4,0.9,0.9v3C85,45.3,84.6,45.7,84.2,45.7z"/>
	<g id="Group_6_" transform="translate(82.894118, 40.655738)">
		<path id="Shape_24_" class="st5" d="M2.2,1.2L2.2,1.2c0-0.6-0.4-1-0.9-1S0.4,0.6,0.4,1v0.1h1.8V1.2z"/>
		<path id="Shape_25_" class="st5" d="M0.4,4L0.4,4c0,0.6,0.4,1,0.9,1s0.9-0.4,0.9-0.9V4H0.4L0.4,4z"/>
	</g>
	<path id="Shape_26_" class="st4" d="M58.1,85.1L58.1,85.1c-0.4,0-0.9-0.4-0.9-0.9v-3c0-0.4,0.4-0.9,0.9-0.9l0,0
		c0.4,0,0.9,0.4,0.9,0.9v3C58.9,84.7,58.6,85.1,58.1,85.1z"/>
	<g id="Group_7_" transform="translate(57.058824, 79.606557)">
		<path id="Shape_27_" class="st5" d="M1.9,1.6L1.9,1.6c0-0.6-0.4-1-0.9-1S0.1,1,0.1,1.4v0.1h1.8V1.6z"/>
		<path id="Shape_28_" class="st5" d="M0.1,4.6L0.1,4.6c0,0.6,0.4,1,0.9,1s0.9-0.4,0.9-0.9V4.6H0.1L0.1,4.6z"/>
	</g>
	<path id="Shape_29_" class="st4" d="M107.7,45.7L107.7,45.7c-0.4,0-0.9-0.4-0.9-0.9v-3c0-0.4,0.4-0.9,0.9-0.9l0,0
		c0.4,0,0.9,0.4,0.9,0.9v3C108.6,45.3,108.2,45.7,107.7,45.7z"/>
	<g id="Group_8_" transform="translate(105.858824, 40.655738)">
		<path id="Shape_30_" class="st5" d="M2.7,1.2L2.7,1.2c0-0.6-0.4-1-0.9-1S1,0.6,1,1v0.1h1.7V1.2z"/>
		<path id="Shape_31_" class="st5" d="M1,4L1,4c0,0.6,0.4,1,0.9,1s0.9-0.4,0.9-0.9V4H1L1,4z"/>
	</g>
	<path id="Shape_32_" class="st4" d="M111,44.4v-0.6c0-0.6,0.4-1.2,1.1-1.2h2.6c0.6,0,1.1,0.4,1.1,1.2v0.6c0,0.6-0.4,1.2-1.1,1.2
		h-2.6C111.6,45.6,111,45,111,44.4z"/>
	<g id="Group_9_" transform="translate(110.164706, 42.098361)">
		<path id="Shape_33_" class="st5" d="M4.7,3.5L4.7,3.5c0.6,0,1-0.6,1-1.4S5.3,0.6,4.9,0.6H4.7V3.5z"/>
		<path id="Shape_34_" class="st5" d="M1.9,0.6L1.9,0.6c-0.6,0-1,0.6-1,1.4s0.4,1.4,0.9,1.4h0.1V0.6z"/>
	</g>
	<path id="Shape_35_" class="st4" d="M74.4,44.4v-0.6c0-0.6,0.4-1.2,1.1-1.2h2.6c0.6,0,1.1,0.4,1.1,1.2v0.6c0,0.6-0.4,1.2-1.1,1.2
		h-2.6C75,45.6,74.4,45,74.4,44.4z"/>
	<g id="Group_10_" transform="translate(74.282353, 42.098361)">
		<path id="Shape_36_" class="st5" d="M4,3.5L4,3.5c0.6,0,1-0.6,1-1.4S4.6,0.6,4.2,0.6H4V3.5z"/>
		<path id="Shape_37_" class="st5" d="M1.1,0.6L1.1,0.6c-0.6,0-1,0.6-1,1.4S0.6,3.5,1,3.5h0.1V0.6z"/>
	</g>
	<path id="Shape_38_" class="st1" d="M113.3,55.8L113.3,55.8c-0.4,0-0.9-0.4-0.9-0.9v-3c0-0.4,0.4-0.9,0.9-0.9l0,0
		c0.4,0,0.9,0.4,0.9,0.9v3C114.2,55.4,113.9,55.8,113.3,55.8z"/>
	<g id="Group_11_" transform="translate(111.600000, 50.754098)">
		<path id="Shape_39_" class="st3" d="M2.6,1.2L2.6,1.2c0-0.6-0.4-1-0.9-1S0.9,0.6,0.9,1v0.1h1.7V1.2z"/>
		<path id="Shape_40_" class="st3" d="M0.9,4L0.9,4c0,0.6,0.4,1,0.9,1s0.9-0.4,0.9-0.9V4H0.9L0.9,4z"/>
	</g>
	<path id="Shape_41_" class="st1" d="M104.3,53.4L104.3,53.4c0-0.4,0.4-0.9,0.9-0.9h3c0.4,0,0.9,0.4,0.9,0.9l0,0
		c0,0.4-0.4,0.9-0.9,0.9h-3C104.7,54.2,104.3,53.8,104.3,53.4z"/>
	<g id="Group_12_" transform="translate(102.988235, 52.196721)">
		<path id="Shape_42_" class="st3" d="M5.2,2L5.2,2c0.6,0,1-0.4,1-0.9S5.7,0.3,5.3,0.3H5.2V2z"/>
		<path id="Shape_43_" class="st3" d="M2.2,0.3L2.2,0.3c-0.6,0-1,0.4-1,0.9S1.6,2,2,2h0.1V0.3H2.2z"/>
	</g>
	<path id="Shape_44_" class="st1" d="M116.5,55.8L116.5,55.8c-0.4,0-0.9-0.4-0.9-0.9v-3c0-0.4,0.4-0.9,0.9-0.9l0,0
		c0.4,0,0.9,0.4,0.9,0.9v3C117.3,55.4,116.9,55.8,116.5,55.8z"/>
	<g id="Group_13_" transform="translate(114.470588, 50.754098)">
		<path id="Shape_45_" class="st3" d="M2.9,1.2L2.9,1.2c0-0.6-0.4-1-0.9-1S1.1,0.6,1.1,1v0.1h1.8V1.2z"/>
		<path id="Shape_46_" class="st3" d="M1.1,4L1.1,4c0,0.6,0.4,1,0.9,1s0.9-0.4,0.9-0.9V4H1.1L1.1,4z"/>
	</g>
	<path id="Shape_47_" class="st1" d="M113.3,90L113.3,90c-0.4,0-0.9-0.4-0.9-0.9v-3c0-0.4,0.4-0.9,0.9-0.9l0,0
		c0.4,0,0.9,0.4,0.9,0.9v3C114.2,89.6,113.9,90,113.3,90z"/>
	<g id="Group_14_" transform="translate(111.600000, 83.934426)">
		<path id="Shape_48_" class="st3" d="M2.6,2.2L2.6,2.2c0-0.6-0.4-1-0.9-1S0.9,1.6,0.9,2v0.1h1.7V2.2z"/>
		<path id="Shape_49_" class="st3" d="M0.9,5L0.9,5c0,0.6,0.4,1,0.9,1s0.9-0.4,0.9-0.9V5H0.9L0.9,5z"/>
	</g>
	<path id="Shape_50_" class="st1" d="M106.7,90L106.7,90c-0.4,0-0.9-0.4-0.9-0.9v-3c0-0.4,0.4-0.9,0.9-0.9l0,0
		c0.4,0,0.9,0.4,0.9,0.9v3C107.6,89.6,107.2,90,106.7,90z"/>
	<g id="Group_15_" transform="translate(105.858824, 83.934426)">
		<path id="Shape_51_" class="st3" d="M1.7,2.2L1.7,2.2c0-0.6-0.4-1-0.9-1S0,1.6,0,2v0.1h1.7V2.2z"/>
		<path id="Shape_52_" class="st3" d="M0,5L0,5c0,0.6,0.4,1,0.9,1s0.9-0.4,0.9-0.9V5H0L0,5z"/>
	</g>
	<path id="Shape_53_" class="st1" d="M116.5,90L116.5,90c-0.4,0-0.9-0.4-0.9-0.9v-3c0-0.4,0.4-0.9,0.9-0.9l0,0
		c0.4,0,0.9,0.4,0.9,0.9v3C117.3,89.6,116.9,90,116.5,90z"/>
	<g id="Group_16_" transform="translate(114.470588, 83.934426)">
		<path id="Shape_54_" class="st3" d="M2.9,2.2L2.9,2.2c0-0.6-0.4-1-0.9-1S1.1,1.6,1.1,2v0.1h1.8V2.2z"/>
		<path id="Shape_55_" class="st3" d="M1.1,5L1.1,5c0,0.6,0.4,1,0.9,1s0.9-0.4,0.9-0.9V5H1.1L1.1,5z"/>
	</g>
	<path id="Shape_56_" class="st6" d="M101.7,49H89.4c-1.1,0-2-0.9-2-2v-5.8c0-1.4,1.4-2.2,2.6-2.2l11.2,0.7c1.1,0,2,0.9,2,2l0.6,4.8
		C103.7,47.6,103.4,49,101.7,49z"/>
	<path id="Shape_57_" class="st7" d="M101.8,48.3H90.1c-1.1,0-2-0.9-2-2v-5.2c0-1.2,0.9-2,2-2h11.8c1.1,0,2,0.9,2,2v5.2
		C103.7,47.4,102.8,48.3,101.8,48.3z"/>
	<polyline id="Shape_58_" class="st8" points="120.9,89.6 133.8,89.6 133.8,84.2 123.5,84.2 123.5,79.5 133.8,79.5 133.8,74.3 
		123.5,74.3 123.5,68.9 133.8,68.9 133.8,63.6 123.5,63.6 123.5,58.7 133.8,58.7 133.8,52.9 123.5,52.9 123.5,47.4 133.8,47.4 
		133.8,41.8 123.1,41.8 123.1,36.5 133.8,36.5 133.8,34.7 	"/>
	<path id="Shape_59_" class="st9" d="M24.6,127.8h-2.7v6.6h-3.6v-17.8h6.3c2.2,0,3.6,0.3,4.8,1.2c1.2,0.9,1.5,2.2,1.5,4.1
		c0,1.2-0.3,2.2-0.9,3.2s-1.2,1.6-2.4,1.9l3.6,7.1v0.3h-3.8L24.6,127.8z M21.7,124.6h2.7c0.9,0,1.5-0.3,2.2-0.7
		c0.6-0.3,0.6-1.2,0.6-1.9c0-0.9-0.3-1.6-0.6-1.9c-0.3-0.3-1.2-0.7-2.2-0.7h-2.7V124.6z"/>
	<polygon id="Shape_60_" class="st9" points="40.4,122.8 43.7,116.6 47.4,116.6 42.4,125.3 47.4,134.2 43.3,134.2 40.2,128 
		37,134.2 32.9,134.2 37.8,125.3 32.9,116.6 36.6,116.6 	"/>
	<path id="Shape_61_" class="st9" d="M49,134.2v-17.8h5.4c1.5,0,2.7,0.3,3.8,0.9c1.2,0.7,2.2,1.6,2.7,3.2c0.6,1.6,0.9,2.8,0.9,4.4
		v0.9c0,1.6-0.3,3.2-0.9,4.4c-0.6,1.2-1.5,2.2-2.7,3.2c-1.2,0.9-2.4,0.9-3.8,0.9H49V134.2z M52.6,119.3v11.9h1.8
		c1.5,0,2.4-0.3,3.3-1.2c0.9-0.9,1.2-2.2,1.2-4.1v-0.9c0-1.9-0.3-3.2-1.2-4.1c-0.9-0.9-1.8-1.2-3.3-1.2h-1.8V119.3z"/>
	<polygon id="Shape_62_" class="st9" points="102.1,119.1 96.7,119.1 96.7,134.2 92.9,134.2 92.9,119.1 87.5,119.1 87.5,116.2 
		102.1,116.2 	"/>
	<polygon id="Shape_63_" class="st9" points="111.5,122.5 114.7,116.2 118.6,116.2 113.5,125 118.6,134.2 114.4,134.2 111.1,127.9 
		107.9,134.2 103.8,134.2 108.8,125 103.8,116.2 107.6,116.2 	"/>
	<path id="Shape_64_" class="st9" d="M120.1,134.2v-18h5.5c1.6,0,2.8,0.4,4,1s2.2,1.6,2.8,3.1c0.6,1.6,1,2.9,1,4.4v1
		c0,1.6-0.4,3.1-1,4.4c-0.6,1.3-1.6,2.2-2.8,3.1s-2.4,1-4,1L120.1,134.2L120.1,134.2z M123.8,119v12h1.8c1.6,0,2.4-0.4,3.4-1.3
		c1-1,1.2-2.2,1.2-4.1v-1c0-1.9-0.4-3.1-1.2-4.1c-1-1-1.8-1.3-3.4-1.3h-1.8V119z"/>
</g>
</svg>
