<?xml version="1.0" encoding="UTF-8"?>
<svg width="150px" height="150px" viewBox="0 0 150 150" version="1.1" xmlns="http://www.w3.org/2000/svg" xmlns:xlink="http://www.w3.org/1999/xlink">
    <!-- Generator: Sketch 46.1 (44463) - http://www.bohemiancoding.com/sketch -->
    <title>bluetooth</title>
    <desc>Created with Sketch.</desc>
    <defs></defs>
    <g id="Page-1" stroke="none" stroke-width="1" fill="none" fill-rule="evenodd">
        <g id="bluetooth">
            <polygon id="Shape" fill="#00979D" fill-rule="nonzero" points="134.995294 96.052459 134.995294 32.4327869 15.1482353 32.4327869 15.1482353 96.052459"></polygon>
            <path d="M50.0258824,91.0032787 L25.9129412,91.0032787 C23.76,91.0032787 22.0376471,89.2721311 22.0376471,87.1081967 L22.0376471,56.3803279 C22.0376471,52.7737705 24.4776471,51.042623 26.6305882,51.042623 L50.1694118,52.4852459 C52.3223529,52.4852459 54.0447059,54.2163934 54.0447059,56.3803279 L55.3364706,86.3868852 C55.1929412,88.4065574 53.6141176,91.0032787 50.0258824,91.0032787 Z" id="Shape" fill="#161616" fill-rule="nonzero"></path>
            <path d="M51.3176471,89.5606557 L27.2047059,89.5606557 C25.0517647,89.5606557 23.3294118,87.8295082 23.3294118,85.6655738 L23.3294118,54.9377049 C23.3294118,52.7737705 25.0517647,51.042623 27.2047059,51.042623 L51.3176471,51.042623 C53.4705882,51.042623 55.1929412,52.7737705 55.1929412,54.9377049 L55.1929412,85.6655738 C55.1929412,87.6852459 53.4705882,89.5606557 51.3176471,89.5606557 Z" id="Shape" fill="#5A5A5A" fill-rule="nonzero"></path>
            <path d="M97.8211765,91.0032787 L64.6658824,91.0032787 C62.5129412,91.0032787 60.7905882,89.2721311 60.7905882,87.1081967 L60.7905882,56.3803279 C60.7905882,52.7737705 63.2305882,51.042623 65.3835294,51.042623 L88.9223529,52.4852459 C91.0752941,52.4852459 92.7976471,54.2163934 92.7976471,56.3803279 L102.127059,85.6655738 C102.127059,87.6852459 100.835294,91.0032787 97.8211765,91.0032787 Z" id="Shape" fill="#161616" fill-rule="nonzero"></path>
            <path d="M97.6776471,89.5606557 L66.3882353,89.5606557 C63.9482353,89.5606557 61.9388235,87.5409836 61.9388235,85.0885246 L61.9388235,55.3704918 C61.9388235,52.9180328 63.9482353,50.8983607 66.3882353,50.8983607 L97.6776471,50.8983607 C100.117647,50.8983607 102.127059,52.9180328 102.127059,55.3704918 L102.127059,85.0885246 C102.127059,87.5409836 100.117647,89.5606557 97.6776471,89.5606557 Z" id="Shape" fill="#5A5A5A" fill-rule="nonzero"></path>
            <path d="M27.3482353,45.704918 L27.3482353,45.704918 C26.9176471,45.704918 26.4870588,45.2721311 26.4870588,44.8393443 L26.4870588,41.8098361 C26.4870588,41.3770492 26.9176471,40.9442623 27.3482353,40.9442623 L27.3482353,40.9442623 C27.7788235,40.9442623 28.2094118,41.3770492 28.2094118,41.8098361 L28.2094118,44.8393443 C28.2094118,45.2721311 27.7788235,45.704918 27.3482353,45.704918 Z" id="Shape" fill="#161616" fill-rule="nonzero"></path>
            <g id="Group" transform="translate(25.482353, 40.655738)" fill-rule="nonzero" fill="#D6D6D6">
                <path d="M2.72705882,1.15409836 L2.72705882,1.15409836 C2.72705882,0.57704918 2.29647059,0.144262295 1.86588235,0.144262295 C1.43529412,0.144262295 1.00470588,0.57704918 1.00470588,1.00983607 L1.00470588,1.15409836 L2.72705882,1.15409836 L2.72705882,1.15409836 Z" id="Shape"></path>
                <path d="M1.00470588,4.03934426 L1.00470588,4.03934426 C1.00470588,4.61639344 1.43529412,5.04918033 1.86588235,5.04918033 C2.29647059,5.04918033 2.72705882,4.61639344 2.72705882,4.18360656 L2.72705882,4.03934426 L1.00470588,4.03934426 L1.00470588,4.03934426 Z" id="Shape"></path>
            </g>
            <path d="M30.5058824,45.704918 L30.5058824,45.704918 C30.0752941,45.704918 29.6447059,45.2721311 29.6447059,44.8393443 L29.6447059,41.8098361 C29.6447059,41.3770492 30.0752941,40.9442623 30.5058824,40.9442623 L30.5058824,40.9442623 C30.9364706,40.9442623 31.3670588,41.3770492 31.3670588,41.8098361 L31.3670588,44.8393443 C31.3670588,45.2721311 30.9364706,45.704918 30.5058824,45.704918 Z" id="Shape" fill="#161616" fill-rule="nonzero"></path>
            <g id="Group" transform="translate(28.352941, 40.655738)" fill-rule="nonzero" fill="#D6D6D6">
                <path d="M3.01411765,1.15409836 L3.01411765,1.15409836 C3.01411765,0.57704918 2.58352941,0.144262295 2.15294118,0.144262295 C1.72235294,0.144262295 1.29176471,0.57704918 1.29176471,1.00983607 L1.29176471,1.15409836 L3.01411765,1.15409836 L3.01411765,1.15409836 Z" id="Shape"></path>
                <path d="M1.29176471,4.03934426 L1.29176471,4.03934426 C1.29176471,4.61639344 1.72235294,5.04918033 2.15294118,5.04918033 C2.58352941,5.04918033 3.01411765,4.61639344 3.01411765,4.18360656 L3.01411765,4.03934426 L1.29176471,4.03934426 L1.29176471,4.03934426 Z" id="Shape"></path>
            </g>
            <path d="M33.6635294,45.704918 L33.6635294,45.704918 C33.2329412,45.704918 32.8023529,45.2721311 32.8023529,44.8393443 L32.8023529,41.8098361 C32.8023529,41.3770492 33.2329412,40.9442623 33.6635294,40.9442623 L33.6635294,40.9442623 C34.0941176,40.9442623 34.5247059,41.3770492 34.5247059,41.8098361 L34.5247059,44.8393443 C34.5247059,45.2721311 34.0941176,45.704918 33.6635294,45.704918 Z" id="Shape" fill="#161616" fill-rule="nonzero"></path>
            <g id="Group" transform="translate(32.658824, 40.655738)" fill-rule="nonzero" fill="#D6D6D6">
                <path d="M1.86588235,1.15409836 L1.86588235,1.15409836 C1.86588235,0.57704918 1.43529412,0.144262295 1.00470588,0.144262295 C0.574117647,0.144262295 0.143529412,0.57704918 0.143529412,1.00983607 L0.143529412,1.15409836 L1.86588235,1.15409836 L1.86588235,1.15409836 Z" id="Shape"></path>
                <path d="M0.143529412,4.03934426 L0.143529412,4.03934426 C0.143529412,4.61639344 0.574117647,5.04918033 1.00470588,5.04918033 C1.43529412,5.04918033 1.86588235,4.61639344 1.86588235,4.18360656 L1.86588235,4.03934426 L0.143529412,4.03934426 L0.143529412,4.03934426 Z" id="Shape"></path>
            </g>
            <path d="M36.8211765,45.704918 L36.8211765,45.704918 C36.3905882,45.704918 35.96,45.2721311 35.96,44.8393443 L35.96,41.8098361 C35.96,41.3770492 36.3905882,40.9442623 36.8211765,40.9442623 L36.8211765,40.9442623 C37.2517647,40.9442623 37.6823529,41.3770492 37.6823529,41.8098361 L37.6823529,44.8393443 C37.6823529,45.2721311 37.2517647,45.704918 36.8211765,45.704918 Z" id="Shape" fill="#161616" fill-rule="nonzero"></path>
            <g id="Group" transform="translate(35.529412, 40.655738)" fill-rule="nonzero" fill="#D6D6D6">
                <path d="M2.15294118,1.15409836 L2.15294118,1.15409836 C2.15294118,0.57704918 1.72235294,0.144262295 1.29176471,0.144262295 C0.861176471,0.144262295 0.430588235,0.57704918 0.430588235,1.00983607 L0.430588235,1.15409836 L2.15294118,1.15409836 L2.15294118,1.15409836 Z" id="Shape"></path>
                <path d="M0.430588235,4.03934426 L0.430588235,4.03934426 C0.430588235,4.61639344 0.861176471,5.04918033 1.29176471,5.04918033 C1.72235294,5.04918033 2.15294118,4.61639344 2.15294118,4.18360656 L2.15294118,4.03934426 L0.430588235,4.03934426 L0.430588235,4.03934426 Z" id="Shape"></path>
            </g>
            <path d="M58.0635294,56.6688525 L58.0635294,56.6688525 C57.6329412,56.6688525 57.2023529,56.2360656 57.2023529,55.8032787 L57.2023529,52.7737705 C57.2023529,52.3409836 57.6329412,51.9081967 58.0635294,51.9081967 L58.0635294,51.9081967 C58.4941176,51.9081967 58.9247059,52.3409836 58.9247059,52.7737705 L58.9247059,55.8032787 C58.9247059,56.2360656 58.6376471,56.6688525 58.0635294,56.6688525 Z" id="Shape" fill="#161616" fill-rule="nonzero"></path>
            <g id="Group" transform="translate(57.058824, 50.754098)" fill-rule="nonzero" fill="#D6D6D6">
                <path d="M1.86588235,2.01967213 L1.86588235,2.01967213 C1.86588235,1.44262295 1.43529412,1.00983607 1.00470588,1.00983607 C0.574117647,1.00983607 0.143529412,1.44262295 0.143529412,1.87540984 L0.143529412,2.01967213 L1.86588235,2.01967213 L1.86588235,2.01967213 Z" id="Shape"></path>
                <path d="M0.143529412,4.90491803 L0.143529412,4.90491803 C0.143529412,5.48196721 0.574117647,5.9147541 1.00470588,5.9147541 C1.43529412,5.9147541 1.86588235,5.48196721 1.86588235,5.04918033 L1.86588235,4.90491803 L0.143529412,4.90491803 L0.143529412,4.90491803 Z" id="Shape"></path>
            </g>
            <path d="M58.0635294,69.2196721 L58.0635294,69.2196721 C57.6329412,69.2196721 57.2023529,68.7868852 57.2023529,68.3540984 L57.2023529,65.3245902 C57.2023529,64.8918033 57.6329412,64.4590164 58.0635294,64.4590164 L58.0635294,64.4590164 C58.4941176,64.4590164 58.9247059,64.8918033 58.9247059,65.3245902 L58.9247059,68.3540984 C58.9247059,68.9311475 58.6376471,69.2196721 58.0635294,69.2196721 Z" id="Shape" fill="#161616" fill-rule="nonzero"></path>
            <g id="Group" transform="translate(57.058824, 63.737705)" fill-rule="nonzero" fill="#D6D6D6">
                <path d="M1.86588235,1.58688525 L1.86588235,1.58688525 C1.86588235,1.00983607 1.43529412,0.57704918 1.00470588,0.57704918 C0.574117647,0.57704918 0.143529412,1.00983607 0.143529412,1.44262295 L0.143529412,1.58688525 L1.86588235,1.58688525 L1.86588235,1.58688525 Z" id="Shape"></path>
                <path d="M0.143529412,4.61639344 L0.143529412,4.61639344 C0.143529412,5.19344262 0.574117647,5.62622951 1.00470588,5.62622951 C1.43529412,5.62622951 1.86588235,5.19344262 1.86588235,4.76065574 L1.86588235,4.61639344 L0.143529412,4.61639344 L0.143529412,4.61639344 Z" id="Shape"></path>
            </g>
            <path d="M84.1858824,45.704918 L84.1858824,45.704918 C83.7552941,45.704918 83.3247059,45.2721311 83.3247059,44.8393443 L83.3247059,41.8098361 C83.3247059,41.3770492 83.7552941,40.9442623 84.1858824,40.9442623 L84.1858824,40.9442623 C84.6164706,40.9442623 85.0470588,41.3770492 85.0470588,41.8098361 L85.0470588,44.8393443 C85.0470588,45.2721311 84.6164706,45.704918 84.1858824,45.704918 Z" id="Shape" fill="#FFFFFF" fill-rule="nonzero"></path>
            <g id="Group" transform="translate(82.894118, 40.655738)" fill-rule="nonzero" fill="#BFBFBF">
                <path d="M2.15294118,1.15409836 L2.15294118,1.15409836 C2.15294118,0.57704918 1.72235294,0.144262295 1.29176471,0.144262295 C0.861176471,0.144262295 0.430588235,0.57704918 0.430588235,1.00983607 L0.430588235,1.15409836 L2.15294118,1.15409836 L2.15294118,1.15409836 Z" id="Shape"></path>
                <path d="M0.430588235,4.03934426 L0.430588235,4.03934426 C0.430588235,4.61639344 0.861176471,5.04918033 1.29176471,5.04918033 C1.72235294,5.04918033 2.15294118,4.61639344 2.15294118,4.18360656 L2.15294118,4.03934426 L0.430588235,4.03934426 L0.430588235,4.03934426 Z" id="Shape"></path>
            </g>
            <path d="M58.0635294,85.0885246 L58.0635294,85.0885246 C57.6329412,85.0885246 57.2023529,84.6557377 57.2023529,84.2229508 L57.2023529,81.1934426 C57.2023529,80.7606557 57.6329412,80.3278689 58.0635294,80.3278689 L58.0635294,80.3278689 C58.4941176,80.3278689 58.9247059,80.7606557 58.9247059,81.1934426 L58.9247059,84.2229508 C58.9247059,84.6557377 58.6376471,85.0885246 58.0635294,85.0885246 Z" id="Shape" fill="#FFFFFF" fill-rule="nonzero"></path>
            <g id="Group" transform="translate(57.058824, 79.606557)" fill-rule="nonzero" fill="#BFBFBF">
                <path d="M1.86588235,1.58688525 L1.86588235,1.58688525 C1.86588235,1.00983607 1.43529412,0.57704918 1.00470588,0.57704918 C0.574117647,0.57704918 0.143529412,1.00983607 0.143529412,1.44262295 L0.143529412,1.58688525 L1.86588235,1.58688525 L1.86588235,1.58688525 Z" id="Shape"></path>
                <path d="M0.143529412,4.61639344 L0.143529412,4.61639344 C0.143529412,5.19344262 0.574117647,5.62622951 1.00470588,5.62622951 C1.43529412,5.62622951 1.86588235,5.19344262 1.86588235,4.76065574 L1.86588235,4.61639344 L0.143529412,4.61639344 L0.143529412,4.61639344 Z" id="Shape"></path>
            </g>
            <path d="M107.724706,45.704918 L107.724706,45.704918 C107.294118,45.704918 106.863529,45.2721311 106.863529,44.8393443 L106.863529,41.8098361 C106.863529,41.3770492 107.294118,40.9442623 107.724706,40.9442623 L107.724706,40.9442623 C108.155294,40.9442623 108.585882,41.3770492 108.585882,41.8098361 L108.585882,44.8393443 C108.585882,45.2721311 108.155294,45.704918 107.724706,45.704918 Z" id="Shape" fill="#FFFFFF" fill-rule="nonzero"></path>
            <g id="Group" transform="translate(105.858824, 40.655738)" fill-rule="nonzero" fill="#BFBFBF">
                <path d="M2.72705882,1.15409836 L2.72705882,1.15409836 C2.72705882,0.57704918 2.29647059,0.144262295 1.86588235,0.144262295 C1.43529412,0.144262295 1.00470588,0.57704918 1.00470588,1.00983607 L1.00470588,1.15409836 L2.72705882,1.15409836 L2.72705882,1.15409836 Z" id="Shape"></path>
                <path d="M1.00470588,4.03934426 L1.00470588,4.03934426 C1.00470588,4.61639344 1.43529412,5.04918033 1.86588235,5.04918033 C2.29647059,5.04918033 2.72705882,4.61639344 2.72705882,4.18360656 L2.72705882,4.03934426 L1.00470588,4.03934426 L1.00470588,4.03934426 Z" id="Shape"></path>
            </g>
            <path d="M111.025882,44.4065574 L111.025882,43.8295082 C111.025882,43.252459 111.456471,42.6754098 112.174118,42.6754098 L114.757647,42.6754098 C115.331765,42.6754098 115.905882,43.1081967 115.905882,43.8295082 L115.905882,44.4065574 C115.905882,44.9836066 115.475294,45.5606557 114.757647,45.5606557 L112.174118,45.5606557 C111.6,45.5606557 111.025882,44.9836066 111.025882,44.4065574 Z" id="Shape" fill="#FFFFFF" fill-rule="nonzero"></path>
            <g id="Group" transform="translate(110.164706, 42.098361)" fill-rule="nonzero" fill="#BFBFBF">
                <path d="M4.73647059,3.46229508 L4.73647059,3.46229508 C5.31058824,3.46229508 5.74117647,2.8852459 5.74117647,2.01967213 C5.74117647,1.15409836 5.31058824,0.57704918 4.88,0.57704918 L4.73647059,0.57704918 L4.73647059,3.46229508 Z" id="Shape"></path>
                <path d="M1.86588235,0.57704918 L1.86588235,0.57704918 C1.29176471,0.57704918 0.861176471,1.15409836 0.861176471,2.01967213 C0.861176471,2.8852459 1.29176471,3.46229508 1.72235294,3.46229508 L1.86588235,3.46229508 L1.86588235,0.57704918 Z" id="Shape"></path>
            </g>
            <path d="M74.4258824,44.4065574 L74.4258824,43.8295082 C74.4258824,43.252459 74.8564706,42.6754098 75.5741176,42.6754098 L78.1576471,42.6754098 C78.7317647,42.6754098 79.3058824,43.1081967 79.3058824,43.8295082 L79.3058824,44.4065574 C79.3058824,44.9836066 78.8752941,45.5606557 78.1576471,45.5606557 L75.5741176,45.5606557 C75,45.5606557 74.4258824,44.9836066 74.4258824,44.4065574 Z" id="Shape" fill="#FFFFFF" fill-rule="nonzero"></path>
            <g id="Group" transform="translate(74.282353, 42.098361)" fill-rule="nonzero" fill="#BFBFBF">
                <path d="M4.01882353,3.46229508 L4.01882353,3.46229508 C4.59294118,3.46229508 5.02352941,2.8852459 5.02352941,2.01967213 C5.02352941,1.15409836 4.59294118,0.57704918 4.16235294,0.57704918 L4.01882353,0.57704918 L4.01882353,3.46229508 Z" id="Shape"></path>
                <path d="M1.14823529,0.57704918 L1.14823529,0.57704918 C0.574117647,0.57704918 0.143529412,1.15409836 0.143529412,2.01967213 C0.143529412,2.8852459 0.574117647,3.46229508 1.00470588,3.46229508 L1.14823529,3.46229508 L1.14823529,0.57704918 Z" id="Shape"></path>
            </g>
            <path d="M113.322353,55.8032787 L113.322353,55.8032787 C112.891765,55.8032787 112.461176,55.3704918 112.461176,54.9377049 L112.461176,51.9081967 C112.461176,51.4754098 112.891765,51.042623 113.322353,51.042623 L113.322353,51.042623 C113.752941,51.042623 114.183529,51.4754098 114.183529,51.9081967 L114.183529,54.9377049 C114.183529,55.3704918 113.896471,55.8032787 113.322353,55.8032787 Z" id="Shape" fill="#161616" fill-rule="nonzero"></path>
            <g id="Group" transform="translate(111.600000, 50.754098)" fill-rule="nonzero" fill="#D6D6D6">
                <path d="M2.58352941,1.15409836 L2.58352941,1.15409836 C2.58352941,0.57704918 2.15294118,0.144262295 1.72235294,0.144262295 C1.29176471,0.144262295 0.861176471,0.57704918 0.861176471,1.00983607 L0.861176471,1.15409836 L2.58352941,1.15409836 L2.58352941,1.15409836 Z" id="Shape"></path>
                <path d="M0.861176471,4.03934426 L0.861176471,4.03934426 C0.861176471,4.61639344 1.29176471,5.04918033 1.72235294,5.04918033 C2.15294118,5.04918033 2.58352941,4.61639344 2.58352941,4.18360656 L2.58352941,4.03934426 L0.861176471,4.03934426 L0.861176471,4.03934426 Z" id="Shape"></path>
            </g>
            <path d="M104.28,53.3508197 L104.28,53.3508197 C104.28,52.9180328 104.710588,52.4852459 105.141176,52.4852459 L108.155294,52.4852459 C108.585882,52.4852459 109.016471,52.9180328 109.016471,53.3508197 L109.016471,53.3508197 C109.016471,53.7836066 108.585882,54.2163934 108.155294,54.2163934 L105.141176,54.2163934 C104.710588,54.2163934 104.28,53.7836066 104.28,53.3508197 Z" id="Shape" fill="#161616" fill-rule="nonzero"></path>
            <g id="Group" transform="translate(102.988235, 52.196721)" fill-rule="nonzero" fill="#D6D6D6">
                <path d="M5.16705882,2.01967213 L5.16705882,2.01967213 C5.74117647,2.01967213 6.17176471,1.58688525 6.17176471,1.15409836 C6.17176471,0.721311475 5.74117647,0.28852459 5.31058824,0.28852459 L5.16705882,0.28852459 L5.16705882,2.01967213 Z" id="Shape"></path>
                <path d="M2.15294118,0.28852459 L2.15294118,0.28852459 C1.57882353,0.28852459 1.14823529,0.721311475 1.14823529,1.15409836 C1.14823529,1.58688525 1.57882353,2.01967213 2.00941176,2.01967213 L2.15294118,2.01967213 L2.15294118,0.28852459 Z" id="Shape"></path>
            </g>
            <path d="M116.48,55.8032787 L116.48,55.8032787 C116.049412,55.8032787 115.618824,55.3704918 115.618824,54.9377049 L115.618824,51.9081967 C115.618824,51.4754098 116.049412,51.042623 116.48,51.042623 L116.48,51.042623 C116.910588,51.042623 117.341176,51.4754098 117.341176,51.9081967 L117.341176,54.9377049 C117.341176,55.3704918 116.910588,55.8032787 116.48,55.8032787 Z" id="Shape" fill="#161616" fill-rule="nonzero"></path>
            <g id="Group" transform="translate(114.470588, 50.754098)" fill-rule="nonzero" fill="#D6D6D6">
                <path d="M2.87058824,1.15409836 L2.87058824,1.15409836 C2.87058824,0.57704918 2.44,0.144262295 2.00941176,0.144262295 C1.57882353,0.144262295 1.14823529,0.57704918 1.14823529,1.00983607 L1.14823529,1.15409836 L2.87058824,1.15409836 L2.87058824,1.15409836 Z" id="Shape"></path>
                <path d="M1.14823529,4.03934426 L1.14823529,4.03934426 C1.14823529,4.61639344 1.57882353,5.04918033 2.00941176,5.04918033 C2.44,5.04918033 2.87058824,4.61639344 2.87058824,4.18360656 L2.87058824,4.03934426 L1.14823529,4.03934426 L1.14823529,4.03934426 Z" id="Shape"></path>
            </g>
            <path d="M113.322353,89.9934426 L113.322353,89.9934426 C112.891765,89.9934426 112.461176,89.5606557 112.461176,89.1278689 L112.461176,86.0983607 C112.461176,85.6655738 112.891765,85.2327869 113.322353,85.2327869 L113.322353,85.2327869 C113.752941,85.2327869 114.183529,85.6655738 114.183529,86.0983607 L114.183529,89.1278689 C114.183529,89.5606557 113.896471,89.9934426 113.322353,89.9934426 Z" id="Shape" fill="#161616" fill-rule="nonzero"></path>
            <g id="Group" transform="translate(111.600000, 83.934426)" fill-rule="nonzero" fill="#D6D6D6">
                <path d="M2.58352941,2.16393443 L2.58352941,2.16393443 C2.58352941,1.58688525 2.15294118,1.15409836 1.72235294,1.15409836 C1.29176471,1.15409836 0.861176471,1.58688525 0.861176471,2.01967213 L0.861176471,2.16393443 L2.58352941,2.16393443 L2.58352941,2.16393443 Z" id="Shape"></path>
                <path d="M0.861176471,5.04918033 L0.861176471,5.04918033 C0.861176471,5.62622951 1.29176471,6.05901639 1.72235294,6.05901639 C2.15294118,6.05901639 2.58352941,5.62622951 2.58352941,5.19344262 L2.58352941,5.04918033 L0.861176471,5.04918033 L0.861176471,5.04918033 Z" id="Shape"></path>
            </g>
            <path d="M106.72,89.9934426 L106.72,89.9934426 C106.289412,89.9934426 105.858824,89.5606557 105.858824,89.1278689 L105.858824,86.0983607 C105.858824,85.6655738 106.289412,85.2327869 106.72,85.2327869 L106.72,85.2327869 C107.150588,85.2327869 107.581176,85.6655738 107.581176,86.0983607 L107.581176,89.1278689 C107.581176,89.5606557 107.150588,89.9934426 106.72,89.9934426 Z" id="Shape" fill="#161616" fill-rule="nonzero"></path>
            <g id="Group" transform="translate(105.858824, 83.934426)" fill-rule="nonzero" fill="#D6D6D6">
                <path d="M1.72235294,2.16393443 L1.72235294,2.16393443 C1.72235294,1.58688525 1.29176471,1.15409836 0.861176471,1.15409836 C0.430588235,1.15409836 0,1.58688525 0,2.01967213 L0,2.16393443 L1.72235294,2.16393443 L1.72235294,2.16393443 Z" id="Shape"></path>
                <path d="M0,5.04918033 L0,5.04918033 C0,5.62622951 0.430588235,6.05901639 0.861176471,6.05901639 C1.29176471,6.05901639 1.72235294,5.62622951 1.72235294,5.19344262 L1.72235294,5.04918033 L0,5.04918033 L0,5.04918033 Z" id="Shape"></path>
            </g>
            <path d="M116.48,89.9934426 L116.48,89.9934426 C116.049412,89.9934426 115.618824,89.5606557 115.618824,89.1278689 L115.618824,86.0983607 C115.618824,85.6655738 116.049412,85.2327869 116.48,85.2327869 L116.48,85.2327869 C116.910588,85.2327869 117.341176,85.6655738 117.341176,86.0983607 L117.341176,89.1278689 C117.341176,89.5606557 116.910588,89.9934426 116.48,89.9934426 Z" id="Shape" fill="#161616" fill-rule="nonzero"></path>
            <g id="Group" transform="translate(114.470588, 83.934426)" fill-rule="nonzero" fill="#D6D6D6">
                <path d="M2.87058824,2.16393443 L2.87058824,2.16393443 C2.87058824,1.58688525 2.44,1.15409836 2.00941176,1.15409836 C1.57882353,1.15409836 1.14823529,1.58688525 1.14823529,2.01967213 L1.14823529,2.16393443 L2.87058824,2.16393443 L2.87058824,2.16393443 Z" id="Shape"></path>
                <path d="M1.14823529,5.04918033 L1.14823529,5.04918033 C1.14823529,5.62622951 1.57882353,6.05901639 2.00941176,6.05901639 C2.44,6.05901639 2.87058824,5.62622951 2.87058824,5.19344262 L2.87058824,5.04918033 L1.14823529,5.04918033 L1.14823529,5.04918033 Z" id="Shape"></path>
            </g>
            <path d="M101.696471,49.0229508 L89.3529412,49.0229508 C88.2047059,49.0229508 87.3435294,48.157377 87.3435294,47.0032787 L87.3435294,41.2327869 C87.3435294,39.7901639 88.7788235,39.0688525 89.9270588,39.0688525 L101.122353,39.7901639 C102.270588,39.7901639 103.131765,40.6557377 103.131765,41.8098361 L103.705882,46.5704918 C103.705882,47.5803279 103.418824,49.0229508 101.696471,49.0229508 Z" id="Shape" fill="#68552B" fill-rule="nonzero"></path>
            <path d="M101.84,48.3016393 L90.0705882,48.3016393 C88.9223529,48.3016393 88.0611765,47.4360656 88.0611765,46.2819672 L88.0611765,41.0885246 C88.0611765,39.9344262 88.9223529,39.0688525 90.0705882,39.0688525 L101.84,39.0688525 C102.988235,39.0688525 103.849412,39.9344262 103.849412,41.0885246 L103.849412,46.2819672 C103.705882,47.4360656 102.844706,48.3016393 101.84,48.3016393 Z" id="Shape" fill="#CCAE71" fill-rule="nonzero"></path>
            <polyline id="Shape" stroke="#B3A76D" stroke-width="1.43999994" points="120.929412 89.5606557 133.847059 89.5606557 133.847059 84.2229508 123.512941 84.2229508 123.512941 79.4622951 133.847059 79.4622951 133.847059 74.2688525 123.512941 74.2688525 123.512941 68.9311475 133.847059 68.9311475 133.847059 63.5934426 123.512941 63.5934426 123.512941 58.6885246 133.847059 58.6885246 133.847059 52.9180328 123.512941 52.9180328 123.512941 47.4360656 133.847059 47.4360656 133.847059 41.8098361 123.082353 41.8098361 123.082353 36.4721311 133.847059 36.4721311 133.847059 34.7409836"></polyline>
            <path d="M31.9069767,117.947368 L30.2325581,117.947368 L30.2325581,122 L28,122 L28,111 L31.9069767,111 C33.2093023,111 34.1395349,111.192982 34.8837209,111.77193 C35.627907,112.350877 35.8139535,113.122807 35.8139535,114.280702 C35.8139535,115.052632 35.627907,115.631579 35.255814,116.210526 C34.8837209,116.789474 34.5116279,117.175439 33.7674419,117.368421 L36,121.807018 L36,122 L33.5813953,122 L31.9069767,117.947368 Z M30.0465116,116.017544 L31.7209302,116.017544 C32.2790698,116.017544 32.6511628,115.824561 33.0232558,115.631579 C33.3953488,115.438596 33.3953488,114.859649 33.3953488,114.473684 C33.3953488,113.894737 33.2093023,113.508772 33.0232558,113.315789 C32.8372093,113.122807 32.2790698,112.929825 31.7209302,112.929825 L30.0465116,112.929825 L30.0465116,116.017544 Z" id="Shape" fill="#838697" fill-rule="nonzero"></path>
            <polygon id="Shape" fill="#838697" fill-rule="nonzero" points="41.68 114.859649 43.66 111 46 111 42.94 116.403509 46 122 43.48 122 41.5 118.140351 39.52 122 37 122 40.06 116.403509 37 111 39.34 111"></polygon>
            <path d="M47,122 L47,111 L50.3488372,111 C51.2790698,111 52.0232558,111.192982 52.7674419,111.578947 C53.5116279,111.964912 54.0697674,112.54386 54.4418605,113.508772 C54.8139535,114.473684 55,115.245614 55,116.210526 L55,116.789474 C55,117.754386 54.8139535,118.719298 54.4418605,119.491228 C54.0697674,120.263158 53.5116279,120.842105 52.7674419,121.421053 C52.0232558,122 51.2790698,122 50.3488372,122 L47,122 Z M49.2325581,112.736842 L49.2325581,120.070175 L50.3488372,120.070175 C51.2790698,120.070175 51.8372093,119.877193 52.3953488,119.298246 C52.9534884,118.719298 53.1395349,117.947368 53.1395349,116.789474 L53.1395349,116.210526 C53.1395349,115.052632 52.9534884,114.280702 52.3953488,113.701754 C51.8372093,113.122807 51.2790698,112.929825 50.3488372,112.929825 L49.2325581,112.929825 L49.2325581,112.736842 Z" id="Shape" fill="#838697" fill-rule="nonzero"></path>
            <polygon id="Shape" fill="#838697" fill-rule="nonzero" points="103 112.767857 99.673913 112.767857 99.673913 122 97.326087 122 97.326087 112.767857 94 112.767857 94 111 103 111 103 112.767857"></polygon>
            <polygon id="Shape" fill="#838697" fill-rule="nonzero" points="108.68 114.859649 110.66 111 113 111 109.94 116.403509 113 122 110.48 122 108.5 118.140351 106.52 122 104 122 107.06 116.403509 104 111 106.34 111"></polygon>
            <path d="M114,122 L114,111 L117.348837,111 C118.27907,111 119.023256,111.192982 119.767442,111.578947 C120.511628,111.964912 121.069767,112.54386 121.44186,113.508772 C121.813953,114.473684 122,115.245614 122,116.210526 L122,116.789474 C122,117.754386 121.813953,118.719298 121.44186,119.491228 C121.069767,120.263158 120.511628,120.842105 119.767442,121.421053 C119.023256,122 118.27907,122 117.348837,122 L114,122 Z M116.232558,112.736842 L116.232558,120.070175 L117.348837,120.070175 C118.27907,120.070175 118.837209,119.877193 119.395349,119.298246 C119.953488,118.719298 120.139535,117.947368 120.139535,116.789474 L120.139535,116.210526 C120.139535,115.052632 119.953488,114.280702 119.395349,113.701754 C118.837209,113.122807 118.27907,112.929825 117.348837,112.929825 L116.232558,112.929825 L116.232558,112.736842 Z" id="Shape" fill="#838697" fill-rule="nonzero"></path>
        </g>
    </g>
</svg>