<?xml version="1.0" encoding="UTF-8"?>
<svg width="150px" height="150px" viewBox="0 0 150 150" version="1.1" xmlns="http://www.w3.org/2000/svg" xmlns:xlink="http://www.w3.org/1999/xlink">
    <!-- Generator: Sketch 46.1 (44463) - http://www.bohemiancoding.com/sketch -->
    <title>motor</title>
    <desc>Created with Sketch.</desc>
    <defs></defs>
    <g id="Page-1" stroke="none" stroke-width="1" fill="none" fill-rule="evenodd">
        <g id="motor">
            <g id="dc_motor_leg" transform="translate(76.000000, 77.000000) rotate(-90.000000) translate(-76.000000, -77.000000) translate(13.000000, 48.000000)">
                <rect id="connector0pin" fill="#8C8C8C" fill-rule="nonzero" x="20.1193884" y="12.99925" width="1.04132231" height="1.03571429"></rect>
                <rect id="connector1pin" fill="#8C8C8C" fill-rule="nonzero" x="20.0152562" y="44.8018929" width="1.04132231" height="1.03571429"></rect>
                <g id="Group" transform="translate(110.380165, 25.892857)" fill-rule="nonzero">
                    <rect id="Rectangle-path" fill="#878787" x="1.20480992" y="0.228892857" width="13.511157" height="4.72492857"></rect>
                    <rect id="Rectangle-path" fill="#2D2D2D" x="1.20480992" y="0.228892857" width="1" height="4.72492857"></rect>
                    <rect id="Rectangle-path" fill="#000000" opacity="0.35" x="1.20480992" y="4.41007143" width="13.511157" height="1"></rect>
                    <path d="M14.4066942,1.53078571 C14.4066942,1.79489286 14.1203306,2.00825 13.7641983,2.00825 L0.812231405,2.00825 C0.458181818,2.00825 0.169735537,1.81353571 0.169735537,1.54942857 L0.169735537,1.16725 C0.169735537,0.902107143 0.458181818,0.671142857 0.812231405,0.671142857 L13.7641983,0.671142857 C14.1203306,0.671142857 14.4066942,0.885535714 14.4066942,1.14860714 L14.4066942,1.53078571 L14.4066942,1.53078571 Z" id="Shape" fill="#FFFFFF" opacity="0.35"></path>
                </g>
                <path d="M111.095554,7.73160714 C111.095554,6.11485714 109.767868,4.79639286 108.144446,4.79639286 L108.112165,4.79639286 C106.486661,4.79639286 105.158975,3.83317857 105.158975,2.66075 C105.158975,1.48832143 103.833372,0.526142857 102.207868,0.526142857 L29.6849752,0.526142857 L29.6849752,57.18075 L102.207868,57.18075 C103.833372,57.18075 105.158975,56.2175357 105.158975,55.0451071 C105.158975,53.8726786 106.486661,52.9105 108.112165,52.9105 L108.144446,52.9105 C109.767868,52.9105 111.095554,51.5899643 111.095554,49.9732143 L111.095554,7.73160714 L111.095554,7.73160714 Z" id="Shape" stroke="#6D6D6D" stroke-width="1.03999996" fill="#6D6D6D" fill-rule="nonzero"></path>
                <path d="M108.589091,49.5226786 L108.558893,49.5226786 C106.943802,49.5226786 105.328711,50.1503214 105.328711,50.91675 C105.328711,51.6811071 104.306132,52.3108214 102.693124,52.3108214 L35.6340496,52.3108214 L35.6340496,56.9228571 L102.104777,56.9228571 C103.715702,56.9228571 105.032975,55.9637857 105.032975,54.7944643 C105.032975,53.6251429 106.355455,52.6660714 107.965339,52.6660714 L107.99762,52.6660714 C109.610628,52.6660714 110.927901,51.3496786 110.927901,49.7412143 L110.927901,47.6066071 C110.932066,48.6609643 110.202099,49.5226786 108.589091,49.5226786 Z" id="Shape" fill="#000000" fill-rule="nonzero" opacity="0.35"></path>
                <rect id="Rectangle-path" fill="#878787" fill-rule="nonzero" x="24.8928099" y="27.2807143" width="1" height="3.14960714"></rect>
                <rect id="Rectangle-path" fill="#E5E500" fill-rule="nonzero" x="28.7842314" y="25.9643214" width="10.6652231" height="5.78342857"></rect>
                <g id="Group" transform="translate(24.991736, 0.000000)" fill-rule="nonzero">
                    <rect id="Rectangle-path" fill="#E5E500" x="0.882" y="19.5397857" width="2.91049587" height="18.6304286"></rect>
                    <polygon id="Shape" fill="#F3FF00" points="11.6190744 25.9643214 11.6190744 0 3.79249587 0 3.79249587 26.9285714 14.457719 26.9285714 14.457719 30.7803929 3.79249587 30.7803929 3.79249587 57.7110357 11.6190744 57.7110357 11.6190744 31.74775 14.457719 31.74775 14.457719 25.9643214"></polygon>
                </g>
                <path d="M105.927471,29.0673214 C105.927471,42.81125 105.138149,53.9462143 105.138149,53.9462143 L105.138149,4.19153571 C105.138149,4.19153571 105.927471,15.3316786 105.927471,29.0673214 Z" id="Shape" fill="#686868" fill-rule="nonzero" opacity="0.5"></path>
                <path d="M103.943752,18.4761071 C103.943752,19.9437143 102.459868,21.1316786 100.631306,21.1316786 L42.8181322,21.1316786 C40.9885289,21.1316786 39.505686,20.0452143 39.505686,18.5765714 L39.505686,5.32771429 C39.505686,3.85907143 40.9885289,2.56442857 42.8181322,2.56442857 L100.631306,2.56442857 C102.459868,2.56442857 103.943752,3.7555 103.943752,5.22414286 L103.943752,18.4761071 Z" id="Shape" fill="#FFFFFF" fill-rule="nonzero" opacity="0.16"></path>
                <g id="Group" opacity="0.16" transform="translate(106.214876, 6.214286)" fill-rule="nonzero" fill="#FFFFFF">
                    <path d="M3.74355372,12.6129286 C3.74355372,13.4207857 3.07814876,14.0805357 2.268,14.0805357 L1.90145455,14.0805357 C1.09234711,14.0805357 0.425900826,13.41975 0.425900826,12.6129286 L0.425900826,1.74517857 C0.425900826,0.937321429 1.09234711,0.277571429 1.90145455,0.277571429 L2.268,0.277571429 C3.07814876,0.277571429 3.74355372,0.938357143 3.74355372,1.74517857 L3.74355372,12.6129286 Z" id="Shape"></path>
                </g>
                <g id="Group" transform="translate(92.677686, 11.392857)" fill-rule="nonzero">
                    <path d="M3.17499174,14.1478571 C2.09826446,14.1478571 1.22147107,13.2768214 1.22147107,12.2058929 L1.22147107,3.48310714 C1.22147107,2.41114286 2.09826446,1.53907143 3.17499174,1.53907143 C4.25171901,1.53907143 5.1285124,2.41114286 5.1285124,3.48310714 L5.1285124,12.2058929 C5.1285124,13.2757857 4.25171901,14.1478571 3.17499174,14.1478571 L3.17499174,14.1478571 Z" id="Shape" fill="#000000"></path>
                    <path d="M3.17499174,2.05692857 C3.96535537,2.05692857 4.60785124,2.697 4.60785124,3.48310714 L4.60785124,12.2058929 C4.60785124,12.9930357 3.96535537,13.63 3.17499174,13.63 C2.3846281,13.63 1.74213223,12.9930357 1.74213223,12.2058929 L1.74213223,3.48310714 C1.74213223,2.69596429 2.3846281,2.05692857 3.17499174,2.05692857 L3.17499174,2.05692857 Z M3.17499174,1.02121429 C1.80877686,1.02121429 0.700809917,2.12321429 0.700809917,3.48310714 L0.700809917,12.2058929 C0.700809917,13.56475 1.80669421,14.6657143 3.17499174,14.6657143 C4.54120661,14.6657143 5.64917355,13.5657857 5.64917355,12.2058929 L5.64917355,3.48310714 C5.64917355,2.12321429 4.54120661,1.02121429 3.17499174,1.02121429 L3.17499174,1.02121429 Z" id="Shape" fill="#6B6B6B"></path>
                </g>
                <g id="Group" transform="translate(92.677686, 31.071429)" fill-rule="nonzero">
                    <path d="M3.17499174,13.7066429 C2.09826446,13.7066429 1.22147107,12.8345714 1.22147107,11.7636429 L1.22147107,3.04189286 C1.22147107,1.96992857 2.09826446,1.09785714 3.17499174,1.09785714 C4.25171901,1.09785714 5.1285124,1.96992857 5.1285124,3.04189286 L5.1285124,11.7636429 C5.1285124,12.8345714 4.25171901,13.7066429 3.17499174,13.7066429 L3.17499174,13.7066429 Z" id="Shape" fill="#000000"></path>
                    <path d="M3.17499174,1.61571429 C3.96535537,1.61571429 4.60785124,2.25578571 4.60785124,3.04189286 L4.60785124,11.7636429 C4.60785124,12.54975 3.96535537,13.1887857 3.17499174,13.1887857 C2.3846281,13.1887857 1.74213223,12.54975 1.74213223,11.7636429 L1.74213223,3.04189286 C1.74213223,2.25578571 2.3846281,1.61571429 3.17499174,1.61571429 L3.17499174,1.61571429 Z M3.17499174,0.58 C1.80877686,0.58 0.700809917,1.682 0.700809917,3.04189286 L0.700809917,11.7636429 C0.700809917,13.1225 1.80669421,14.2245 3.17499174,14.2245 C4.54120661,14.2245 5.64917355,13.1245714 5.64917355,11.7636429 L5.64917355,3.04189286 C5.64917355,1.68303571 4.54120661,0.58 3.17499174,0.58 L3.17499174,0.58 Z" id="Shape" fill="#6B6B6B"></path>
                </g>
                <g id="Group" transform="translate(92.677686, 0.000000)" fill-rule="nonzero">
                    <path d="M3.17499174,6.30335714 C2.09826446,6.30335714 1.22147107,5.43025 1.22147107,4.36139286 L1.22147107,0.517857143 L5.1285124,0.517857143 L5.1285124,4.36139286 C5.1285124,5.43232143 4.25171901,6.30335714 3.17499174,6.30335714 L3.17499174,6.30335714 Z" id="Shape" fill="#000000"></path>
                    <path d="M4.60785124,1.03571429 L4.60785124,4.36139286 C4.60785124,5.14646429 3.96535537,5.7855 3.17499174,5.7855 C2.3846281,5.7855 1.74213223,5.14646429 1.74213223,4.36139286 L1.74213223,1.03571429 L4.60785124,1.03571429 L4.60785124,1.03571429 Z M5.64917355,0 L0.700809917,0 L0.700809917,4.36139286 C0.700809917,5.72025 1.80669421,6.82121429 3.17499174,6.82121429 C4.54120661,6.82121429 5.64917355,5.72025 5.64917355,4.36139286 L5.64917355,0 L5.64917355,0 Z" id="Shape" fill="#6B6B6B"></path>
                </g>
                <g id="Group" transform="translate(92.677686, 50.750000)" fill-rule="nonzero">
                    <path d="M1.22147107,6.44317857 L1.22147107,2.59964286 C1.22147107,1.52767857 2.09826446,0.655607143 3.17499174,0.655607143 C4.25171901,0.655607143 5.1285124,1.52767857 5.1285124,2.59964286 L5.1285124,6.44317857 L1.22147107,6.44317857 Z" id="Shape" fill="#000000"></path>
                    <path d="M3.17499174,1.17346429 C3.96535537,1.17346429 4.60785124,1.81353571 4.60785124,2.59964286 L4.60785124,5.92532143 L1.74213223,5.92532143 L1.74213223,2.59964286 C1.74213223,1.81353571 2.3846281,1.17346429 3.17499174,1.17346429 L3.17499174,1.17346429 Z M3.17499174,0.13775 C1.80877686,0.13775 0.700809917,1.23767857 0.700809917,2.59964286 L0.700809917,6.96103571 L5.64917355,6.96103571 L5.64917355,2.59964286 C5.64917355,1.24078571 4.54120661,0.13775 3.17499174,0.13775 L3.17499174,0.13775 Z" id="Shape" fill="#6B6B6B"></path>
                </g>
                <g id="wires" transform="translate(0.000000, 10.357143)">
                    <path d="M20.7056529,0.453642857 L20.1849917,1.02121429 L20.1849917,4.12835714 L20.7670909,4.69592857 L28.7842314,4.69592857 L28.7842314,0.452607143 L20.7056529,0.453642857 L20.7056529,0.453642857 Z M22.3290744,3.973 C21.5522479,3.973 20.9232893,3.34742857 20.9232893,2.57478571 C20.9232893,1.80214286 21.5522479,1.17657143 22.3290744,1.17657143 C23.1059008,1.17657143 23.7348595,1.80214286 23.7348595,2.57478571 C23.7348595,3.34742857 23.1059008,3.973 22.3290744,3.973 Z" id="Shape" fill="#ED8F66" fill-rule="nonzero"></path>
                    <path d="M20.7056529,32.3225714 L20.1849917,32.8911786 L20.1849917,35.9983214 L20.7670909,36.5658929 L28.7842314,36.5658929 L28.7842314,32.3225714 L20.7056529,32.3225714 Z M22.3290744,35.8429643 C21.5522479,35.8429643 20.9232893,35.2173929 20.9232893,34.44475 C20.9232893,33.6721071 21.5522479,33.0465357 22.3290744,33.0465357 C23.1059008,33.0465357 23.7348595,33.6721071 23.7348595,34.44475 C23.7348595,35.2173929 23.1059008,35.8429643 22.3290744,35.8429643 Z" id="Shape" fill="#ED8F66" fill-rule="nonzero"></path>
                    <path d="M0,16.1291786 L2.08264463,15.0934643" id="connector0leg" stroke="#32BF4F" stroke-width="3.11999989" stroke-linecap="round"></path>
                    <path d="M0,23.8804643 L2.08264463,23.8804643" id="connector1leg" stroke="#FFD500" stroke-width="3.11999989" stroke-linecap="round"></path>
                    <path d="M2.08264463,15.0934643 C7.80991736,11.6279643 9.46978512,2.64210714 20.1193884,2.64210714" id="Shape" stroke="#32BF4F" stroke-width="3.11999989"></path>
                    <path d="M2.08264463,23.8804643 C9.90505785,24.2326071 14.1172066,34.44475 20.0152562,34.44475" id="Shape" stroke="#FFD500" stroke-width="3.11999989"></path>
                </g>
            </g>
        </g>
    </g>
</svg>