<?xml version="1.0" encoding="utf-8"?>
<!-- Generator: Adobe Illustrator 22.0.1, SVG Export Plug-In . SVG Version: 6.00 Build 0)  -->
<svg version="1.1" id="图层_1" xmlns="http://www.w3.org/2000/svg" xmlns:xlink="http://www.w3.org/1999/xlink" x="0px" y="0px"
	 viewBox="0 0 150 150" style="enable-background:new 0 0 150 150;" xml:space="preserve">
<style type="text/css">
	.st0{fill:#82889A;}
	.st1{fill:#D6D9E3;}
	.st2{fill:#F5B042;}
	.st3{fill:#9FA0A0;}
	.st4{fill:url(#Oval_2_);}
	.st5{fill:#515160;}
	.st6{fill:#3B3B47;}
</style>
<g>
	<g>
		<path class="st0" d="M136.9,73.3v10.7c0,0.6-0.5,1.1-1.2,1.1H133c-3,14.3-15.6,25-30.8,25c-17.4,0-31.4-14.1-31.4-31.5
			c0-17.4,14.1-31.4,31.4-31.4c15.1,0,27.8,10.7,30.8,24.9h2.7C136.4,72.2,136.9,72.7,136.9,73.3z"/>
		<path class="st1" d="M102.5,51.8c-15.3,0-27.6,12.3-27.6,27.4c0,15.1,12.4,27.4,27.6,27.4c15.2,0,27.6-12.3,27.6-27.4
			C130,64,117.7,51.8,102.5,51.8z M100.5,100.6c-0.4,0.4-1.1,0.6-1.9,0.6c-0.8,0-1.4-0.2-1.9-0.6c-0.5-0.3-0.8-1-0.8-1.6h1.4
			c0,0.3,0.1,0.6,0.3,0.8c0.2,0.2,0.5,0.3,1,0.3c0.4,0,0.8-0.1,1-0.3c0.2-0.2,0.3-0.5,0.3-1c0-0.4-0.2-0.7-0.4-1
			c-0.2-0.2-0.5-0.3-1.1-0.3h-0.8v-1.1h0.9c0.4,0,0.8-0.1,1-0.3c0.2-0.2,0.3-0.5,0.3-1c0-0.3-0.1-0.6-0.3-0.8
			c-0.2-0.2-0.5-0.3-1-0.3c-0.3,0-0.6,0.1-0.9,0.3c-0.2,0.2-0.3,0.5-0.3,0.8h-1.4c0-0.4,0.1-0.8,0.3-1.2c0.2-0.3,0.5-0.5,1-0.8
			c0.3-0.2,0.8-0.3,1.3-0.3c0.9,0,1.5,0.2,1.9,0.6s0.6,1,0.6,1.7c0,0.4-0.1,0.8-0.3,1.1c-0.2,0.3-0.5,0.5-0.9,0.8
			c0.4,0.1,0.8,0.3,1.1,0.5c0.2,0.3,0.3,0.8,0.3,1.2C101.3,99.6,101,100.2,100.5,100.6z M98.5,61.4c-0.3,0-0.6-0.2-0.6-0.6
			c0-0.3,0.2-0.6,0.6-0.6h3.3v-3.3c0-0.3,0.3-0.6,0.7-0.6c0.3,0,0.6,0.2,0.6,0.6v3.3h3.3c0.3,0,0.7,0.3,0.7,0.6s-0.2,0.6-0.7,0.6
			h-3.3v3.3c0,0.3-0.3,0.6-0.6,0.6c-0.3,0-0.7-0.2-0.7-0.6v-3.3H98.5z M106.2,101.2h-1.4l-2.9-8h1.6l2,6.3l2-6.3h1.5L106.2,101.2z"
			/>
		<path class="st2" d="M135.3,75.9v5.6c0,0.6-0.6,1.2-1.3,1.2h-0.1c-0.7,0-1.3-0.5-1.3-1.2v-5.6c0-0.6,0.6-1.2,1.3-1.2h0.1
			C134.7,74.7,135.3,75.3,135.3,75.9z"/>
	</g>
	<g>
		<path id="Shape_5_" class="st3" d="M38.4,29.9c-0.9,0-1.6,2.7-1.6,6s0.8,6,1.6,6h38.5V29.9H38.4L38.4,29.9z"/>
		
			<linearGradient id="Oval_2_" gradientUnits="userSpaceOnUse" x1="-150.455" y1="468.9398" x2="-150.455" y2="467.9354" gradientTransform="matrix(2.363 0 0 -11.9368 432.2945 5627.5068)">
			<stop  offset="0" style="stop-color:#9C9C9C"/>
			<stop  offset="1" style="stop-color:#4E4D4D"/>
		</linearGradient>
		<ellipse id="Oval_1_" class="st4" cx="76.8" cy="35.8" rx="1.2" ry="6"/>
	</g>
	<g>
		<path id="Shape_13_" class="st1" d="M32.2,64.5v1.1c0,1.1-1.1,2.2-2.2,2.2H18.3c-1.1,0-2.2-1.1-2.2-2.2v-1.1
			c0-1.1,1.1-2.2,2.2-2.2h11.6C31,62.2,32.2,63.1,32.2,64.5z"/>
		<path id="Shape_1_" class="st1" d="M56.8,64.5v1.1c0,1.1-1.1,2.2-2.2,2.2H42.9c-1.1,0-2.2-1.1-2.2-2.2v-1.1c0-1.1,1.1-2.2,2.2-2.2
			h11.6C55.7,62.2,56.8,63.1,56.8,64.5z"/>
		<path id="Shape_2_" class="st1" d="M32.2,74.3v1.1c0,1.1-1.1,2.2-2.2,2.2H18.3c-1.1,0-2.2-1.1-2.2-2.2v-1.1c0-1.1,1.1-2.2,2.2-2.2
			h11.6C31,72,32.2,72.9,32.2,74.3z"/>
		<path id="Shape_3_" class="st1" d="M56.8,74.3v1.1c0,1.1-1.1,2.2-2.2,2.2H42.9c-1.1,0-2.2-1.1-2.2-2.2v-1.1c0-1.1,1.1-2.2,2.2-2.2
			h11.6C55.7,72,56.8,72.9,56.8,74.3z"/>
		<path id="Shape_4_" class="st1" d="M32.2,84.1v1.1c0,1.1-1.1,2.2-2.2,2.2H18.3c-1.1,0-2.2-1.1-2.2-2.2v-1.1c0-1.1,1.1-2.2,2.2-2.2
			h11.6C31,81.8,32.2,82.7,32.2,84.1z"/>
		<path id="Shape_6_" class="st1" d="M56.8,84.1v1.1c0,1.1-1.1,2.2-2.2,2.2H42.9c-1.1,0-2.2-1.1-2.2-2.2v-1.1c0-1.1,1.1-2.2,2.2-2.2
			h11.6C55.7,81.8,56.8,82.7,56.8,84.1z"/>
		<path id="Shape_7_" class="st1" d="M56.8,93.9V95c0,1.1-1.1,2.2-2.2,2.2H42.9c-1.1,0-2.2-1.1-2.2-2.2v-1.1c0-1.1,1.1-2.2,2.2-2.2
			h11.6C55.7,91.7,56.8,92.5,56.8,93.9z"/>
		<path id="Shape_8_" class="st1" d="M32.2,93.9V95c0,1.1-1.1,2.2-2.2,2.2H18.3c-1.1,0-2.2-1.1-2.2-2.2v-1.1c0-1.1,1.1-2.2,2.2-2.2
			h11.6C31,91.7,32.2,92.5,32.2,93.9z"/>
		<rect id="Rectangle-path" x="23.1" y="59.3" class="st5" width="26.9" height="40.7"/>
		<path class="st6" d="M40.6,59.3c0,2.3-1.8,4.1-4.1,4.1c-2.3,0-4.1-1.8-4.1-4.1H40.6z"/>
	</g>
</g>
</svg>
