<?xml version="1.0" encoding="utf-8"?>
<!-- Generator: Adobe Illustrator 16.0.0, SVG Export Plug-In . SVG Version: 6.00 Build 0)  -->
<!DOCTYPE svg PUBLIC "-//W3C//DTD SVG 1.1//EN" "http://www.w3.org/Graphics/SVG/1.1/DTD/svg11.dtd">
<svg version="1.1" id="图层_1" xmlns="http://www.w3.org/2000/svg" xmlns:xlink="http://www.w3.org/1999/xlink" x="0px" y="0px"
	 width="175px" height="330px" viewBox="0 0 175 330" enable-background="new 0 0 175 330" xml:space="preserve">
<path fill="#383A40" d="M175,234.111c0,6.013-5.373,10.889-12,10.889H12c-6.627,0-12-4.876-12-10.889V10.889C0,4.875,5.373,0,12,0
	h151c6.627,0,12,4.875,12,10.889V234.111z"/>
<ellipse fill="#3D3042" cx="88.316" cy="78.595" rx="55.38" ry="52.215"/>
<rect x="32" y="79" fill="#3D3042" width="111" height="166"/>
<ellipse transform="matrix(-0.6101 -0.7924 0.7924 -0.6101 60.1857 117.1921)" fill="#6F6277" cx="58.93" cy="43.786" rx="5.558" ry="18.152"/>
<rect x="80" y="245" fill="#8C8F94" width="15" height="85"/>
<rect x="49" y="245" fill="#8C8F94" width="15" height="30"/>
<rect x="109" y="245" fill="#8C8F94" width="15" height="30"/>
<rect x="25" y="288" fill="#8C8F94" width="15" height="42"/>
<rect x="135" y="286" fill="#8C8F94" width="15" height="44"/>
<line fill="none" x1="87" y1="260" x2="117" y2="260"/>
<line fill="none" x1="87" y1="260" x2="57" y2="260"/>
<line fill="none" x1="87" y1="263" x2="117" y2="263"/>
<rect x="36.539" y="262.549" transform="matrix(0.6589 0.7522 -0.7522 0.6589 226.9361 62.5488)" fill="#8C8F94" width="15.921" height="37.902"/>
<rect x="121.025" y="261.042" transform="matrix(-0.6233 0.782 -0.782 -0.6233 429.5609 354.0795)" fill="#8C8F94" width="16.951" height="38.917"/>
</svg>
