<svg xmlns="http://www.w3.org/2000/svg" id="图层_1" viewBox="0 0 150 150">
  <style>
    .st0{fill:#d3d3d4}.st1{fill:#3d3042}
  </style>
  <path d="M107.1 100.1c0 2.2-2 4-4.4 4H47.9c-2.4 0-4.4-1.8-4.4-4V19c0-2.2 2-4 4.4-4h54.9c2.4 0 4.4 1.8 4.4 4v81.1z" class="st0"/>
  <path d="M55.5 42.9z" class="st1"/>
  <path fill="#3c3c3c" d="M95.8 43.6v60.5H55.5V42.5c.6-10 9.4-17.9 20.1-17.9 10.7 0 19.5 7.9 20.1 17.9 0 .4.1.7.1 1.1z"/>
  <path d="M55.5 42.5v.4-.4zm40.3 0v1.1c0-.4-.1-.7 0-1.1z" class="st1"/>
  <path fill="#808081" d="M72.6 104.1h5.5V135h-5.5zm-5.8 0V115l-8.8 7.6V135h-5.4v-15.3l8.7-7.6v-8zM98.1 119v16h-5.5v-12.5l-9.5-7.5v-10.9h5.5v7.4z"/>
  <path fill="none" d="M75.1 109.5H86m-10.9 0H64.2m10.9 1.1H86"/>
  <path fill="none" stroke="#d3d3d4" stroke-linecap="round" stroke-miterlimit="10" stroke-width="3" d="M58.5 33.6l38.5 33m-4.2-33L54 66.8"/>
  <path d="M95.8 71.4v32.8H55.5V71.4c3.8 4.4 11.4 7.4 20.1 7.4 8.8.1 16.4-2.9 20.2-7.4z" class="st0"/>
  <path fill="none" stroke="#b3b3b3" stroke-linecap="round" stroke-miterlimit="10" d="M95.7 71.8l.1 31.9M55.5 71.8v32"/>
</svg>
