<svg xmlns="http://www.w3.org/2000/svg" id="图层_1" viewBox="0 0 150 150">
  <style>
    .st0{fill:#7a7e84}.st3{fill:#96a3b2}
  </style>
  <path id="Rectangle-path" d="M52.4 80.1h6.7v45h-6.7z" class="st0"/>
  <path id="Shape" d="M81.4 110.8c0-3.7-3.3-6.6-6.5-9.3-1.2-1.2-3.7-3.1-3.7-4.5V79.9h-6.7V98c0 3.3 2.9 5.8 6.1 8.6 1.4 1.2 4.1 3.9 4.1 5.6v13.2h6.7v-14.6z" class="st0"/>
  <path id="path16" fill="#c35655" d="M85.7 60.2V41.7c0-12.1-9.8-22-21.8-22S42 29.5 42 41.7v42.6c4.5 5.1 12.6 8.6 21.8 8.6 14.3 0 25.9-8.2 25.9-18.3v-4.7c-.1-3.6-1.6-6.9-4-9.7z"/>
  <ellipse id="ellipse24" cx="63.7" cy="69.8" fill="#e9edf4" opacity=".25" rx="21.8" ry="15.4"/>
  <path id="polygon28" d="M48.6 49.9v19.9h3v-9.2h8.8l12.4-13.4H52.4z" class="st3"/>
  <path id="polygon30" d="M75.1 46.4l1.4 1.4-11.8 12.8h11.4v9.2h2.7V46.4z" class="st3"/>
  <path id="path34" fill="#fff" d="M73.9 31.4l4.5-.8c-2.7-3.5-6.5-6.2-11-7l.8 3.3c2.4 1 4.4 2.4 5.7 4.5z" opacity=".76"/>
  <path id="path36" fill="#fff" d="M44.3 81.8v4.7c2 1.6 4.5 3.1 7.1 4.1v-4.7c-2.8-1.1-5.3-2.5-7.1-4.1z" opacity=".8"/>
  <path id="path38" fill="#fff" d="M76.1 82.8c-.8.4-1.6.6-2.4 1-.2 0-.4.2-.6.2-1.8.6-3.7 1-5.5 1.2H67c-1 0-2 .2-3.1.2h-1.4c-3.7-.2-7.1-1-10.2-2.3v-41c0-4.5 2.7-8.4 6.3-10.5v-.2l-3.9-4.7c-5.1 3.1-8.6 8.8-8.6 15.2v37c-.2-.2-1-1-1.4-1.6l-1 2.1C48 83.9 55.5 87 63.9 87c5.1 0 10-1.2 13.9-3.1l-1.7-1.1z"/>
</svg>
