<svg xmlns="http://www.w3.org/2000/svg" viewBox="0 0 150 150">
  <radialGradient id="a" cx="76.152" cy="111.079" r="58.079" gradientUnits="userSpaceOnUse">
    <stop offset="0" stop-color="#404040" stop-opacity=".8"/>
    <stop offset=".735" stop-color="#404040" stop-opacity=".927"/>
    <stop offset="1" stop-color="#404040" stop-opacity=".95"/>
  </radialGradient>
  <path fill="url(#a)" d="M125 111.4l-99.4-.4c0-17.4 12.6-31.8 33.6-36.9h32.2V74c21.3 5 33.6 19.8 33.6 37.4z"/>
  <linearGradient id="b" x1="59.142" x2="91.368" y1="64.111" y2="64.111" gradientUnits="userSpaceOnUse">
    <stop offset="0" stop-color="#404040"/>
    <stop offset=".522" stop-color="#404040" stop-opacity=".8"/>
    <stop offset="1" stop-color="#404040"/>
  </linearGradient>
  <path fill="url(#b)" d="M59.1 54h32.2v20.2H59.1z"/>
  <path fill="#404041" d="M105.2 50.4v2.7c0 .5 0 .5-.2 1.1H44.9c-.2-.5-.2-1.9-.1-2.5 0-.5 0-.8.1-1.3 0-.7.4-1.5.6-2 .2-.4.9-1.3 1.3-1.6 4.1-3.6 13.8-8.1 28.2-8.1 13.4 0 24.8 4.4 29.1 8.9.5.5.7 1.1.9 1.5.1.4.1.5.2 1.3z"/>
</svg>
