<svg xmlns="http://www.w3.org/2000/svg" viewBox="0 0 150 150">
  <style>
    .st2,.st3{fill:#036eb8;stroke:#efefef;stroke-miterlimit:10}.st3{fill:#e60012}.st4{fill:#efefef}
  </style>
  <g id="图层_1">
    <path fill="#3e3a39" d="M127.9 133.3H22.1c-5.1 0-9.2-4.1-9.2-9.2V26c0-5.1 4.1-9.2 9.2-9.2h105.8c5.1 0 9.2 4.1 9.2 9.2v98c0 5.1-4.1 9.3-9.2 9.3z"/>
    <path fill="none" stroke="#efefef" stroke-miterlimit="10" d="M121 126H29c-2.7 0-5-2.2-5-5V29c0-2.7 2.2-5 5-5h92c2.7 0 5 2.2 5 5v92c0 2.8-2.2 5-5 5z"/>
  </g>
  <g id="图层_2">
    <path d="M43.8 48.3H32.2c-1.3 0-2.3-1-2.3-2.3V34.3c0-1.3 1-2.3 2.3-2.3h11.6c1.3 0 2.3 1 2.3 2.3v11.6c0 1.3-1 2.4-2.3 2.4zM68.6 48.3H57c-1.3 0-2.3-1-2.3-2.3V34.3c0-1.3 1-2.3 2.3-2.3h11.6c1.3 0 2.3 1 2.3 2.3v11.6c.1 1.3-1 2.4-2.3 2.4zM93.4 48.3H81.8c-1.3 0-2.3-1-2.3-2.3V34.3c0-1.3 1-2.3 2.3-2.3h11.6c1.3 0 2.3 1 2.3 2.3v11.6c.1 1.3-1 2.4-2.3 2.4z" class="st2"/>
    <path d="M118.3 48.3h-11.6c-1.3 0-2.3-1-2.3-2.3V34.3c0-1.3 1-2.3 2.3-2.3h11.6c1.3 0 2.3 1 2.3 2.3v11.6c0 1.3-1.1 2.4-2.3 2.4z" class="st3"/>
    <path d="M43.8 71.5H32.2c-1.3 0-2.3-1-2.3-2.3V57.5c0-1.3 1-2.3 2.3-2.3h11.6c1.3 0 2.3 1 2.3 2.3v11.6c0 1.3-1 2.4-2.3 2.4zM43.8 94.7H32.2c-1.3 0-2.3-1-2.3-2.3V80.8c0-1.3 1-2.3 2.3-2.3h11.6c1.3 0 2.3 1 2.3 2.3v11.6c0 1.3-1 2.3-2.3 2.3z" class="st2"/>
    <path d="M43.8 117.9H32.2c-1.3 0-2.3-1-2.3-2.3V104c0-1.3 1-2.3 2.3-2.3h11.6c1.3 0 2.3 1 2.3 2.3v11.6c0 1.3-1 2.3-2.3 2.3z" class="st3"/>
    <path d="M68.6 71.5H57c-1.3 0-2.3-1-2.3-2.3V57.5c0-1.3 1-2.3 2.3-2.3h11.6c1.3 0 2.3 1 2.3 2.3v11.6c.1 1.3-1 2.4-2.3 2.4zM68.6 94.7H57c-1.3 0-2.3-1-2.3-2.3V80.8c0-1.3 1-2.3 2.3-2.3h11.6c1.3 0 2.3 1 2.3 2.3v11.6c.1 1.3-1 2.3-2.3 2.3zM68.6 117.9H57c-1.3 0-2.3-1-2.3-2.3V104c0-1.3 1-2.3 2.3-2.3h11.6c1.3 0 2.3 1 2.3 2.3v11.6c.1 1.3-1 2.3-2.3 2.3zM93.4 71.5H81.8c-1.3 0-2.3-1-2.3-2.3V57.5c0-1.3 1-2.3 2.3-2.3h11.6c1.3 0 2.3 1 2.3 2.3v11.6c.1 1.3-1 2.4-2.3 2.4zM93.4 94.7H81.8c-1.3 0-2.3-1-2.3-2.3V80.8c0-1.3 1-2.3 2.3-2.3h11.6c1.3 0 2.3 1 2.3 2.3v11.6c.1 1.3-1 2.3-2.3 2.3z" class="st2"/>
    <path d="M93.4 117.9H81.8c-1.3 0-2.3-1-2.3-2.3V104c0-1.3 1-2.3 2.3-2.3h11.6c1.3 0 2.3 1 2.3 2.3v11.6c.1 1.3-1 2.3-2.3 2.3zM118.3 71.5h-11.6c-1.3 0-2.3-1-2.3-2.3V57.5c0-1.3 1-2.3 2.3-2.3h11.6c1.3 0 2.3 1 2.3 2.3v11.6c0 1.3-1.1 2.4-2.3 2.4zM118.3 94.7h-11.6c-1.3 0-2.3-1-2.3-2.3V80.8c0-1.3 1-2.3 2.3-2.3h11.6c1.3 0 2.3 1 2.3 2.3v11.6c0 1.3-1.1 2.3-2.3 2.3zM118.3 117.9h-11.6c-1.3 0-2.3-1-2.3-2.3V104c0-1.3 1-2.3 2.3-2.3h11.6c1.3 0 2.3 1 2.3 2.3v11.6c0 1.3-1.1 2.3-2.3 2.3z" class="st3"/>
  </g>
  <g id="图层_3">
    <path d="M37.8 37.6c-.4.4-.9.8-1.5 1.2v-.9c.8-.5 1.4-1.2 1.9-1.9h.6v8.1h-.9v-6.5zM38.9 65.6h-3.6v-.8l3.8-5.5h.7v5.5h1.1v.8h-1.1v1.8h-.9v-1.8zm0-.8v-3.7l-2.6 3.7h2.6zM39.7 83.3h-4v-.8h5v.8c-1.5 2.4-2.4 4.8-2.9 7.1h-1c.5-2.4 1.5-4.8 2.9-7.1zM40.9 111.1l-.5.8-1.9-1.2.1 2.4h-.9l.1-2.4-1.9 1.2-.5-.8 2-1-2-1 .5-.8 1.9 1.2-.1-2.3h.9l-.1 2.3 1.9-1.2.5.8-2 1 2 1zM60.6 43.9c0-.5.3-.9.7-1.3.4-.4.9-1 1.5-1.8s1-1.4 1.2-1.9c.2-.4.3-.8.2-1.1 0-.3-.2-.6-.4-.8-.3-.2-.5-.3-.9-.3-.3 0-.6.2-.9.4-.3.2-.5.5-.7 1l-.9-.1c.3-.7.6-1.2 1-1.6.4-.3.9-.5 1.4-.5h.8c.3 0 .5.2.8.3.3.2.5.4.7.8.2.3.2.8.2 1.2 0 .5-.3 1.1-.7 1.7-.4.7-1.3 1.7-2.5 3.2h3.4v.8h-4.7zM61 65.1c.2.8.6 1.3 1.1 1.4.5.1 1 0 1.3-.2.3-.2.6-.5.7-.8s.2-.7.2-1.1c0-.4-.1-.8-.3-1-.2-.3-.5-.5-.8-.6-.3-.1-.7-.1-1.1 0-.4.1-.7.3-1 .7l-.8-.1c.1-.2.4-1.5.9-4H65v.8h-3c-.2.8-.3 1.5-.5 2 .5-.2.9-.3 1.3-.3s.8.1 1.2.3c.4.2.6.4.8.7.2.3.3.6.4.9.1.3.1.6.1 1 0 .3-.1.7-.2 1.1-.1.4-.3.7-.6.9l-.9.6c-.4.1-.8.2-1.2.2-.5 0-.9-.2-1.3-.5s-.7-.8-.9-1.6l.8-.4zM60.3 88c0-.4.1-.7.3-1.1s.5-.6.9-.9c-.4-.2-.6-.5-.8-.7-.1-.3-.2-.6-.2-.9 0-.3 0-.6.1-.9.1-.3.3-.5.5-.7.2-.2.5-.4.7-.4.3-.1.6-.1.9-.1.3 0 .6 0 .8.1.3.1.5.2.8.4s.5.5.6.9c.1.4.1.8 0 1.3s-.5.9-1.1 1.2c.5.2.9.4 1.1.7.2.3.3.7.3 1.2s-.1.8-.2 1.1-.3.5-.5.7c-.2.2-.4.3-.7.4-.3.1-.7.2-1.1.2-.5 0-.8-.1-1.2-.2s-.6-.3-.8-.5c-.2-.2-.4-.5-.4-.8.1-.2 0-.6 0-1zm1 0c0 .4 0 .7.2 1s.4.5.8.5.8.1 1.2 0c.4-.1.7-.3.8-.7.2-.3.2-.7.2-1s-.2-.6-.6-.9c-.3-.2-.7-.3-1.1-.3-.4 0-.7.2-1 .4-.4.3-.5.6-.5 1zm.2-3.7c0 .3.1.6.3.9.2.3.6.4 1 .4s.8-.1 1.1-.4.3-.6.3-1-.2-.7-.4-.9c-.3-.2-.6-.3-1.1-.2-.5 0-.8.2-1 .4s-.2.5-.2.8zM60.4 109.2c0-.8.1-1.5.4-2 .2-.5.5-.9.9-1.2s.8-.5 1.4-.5c.5 0 1 .2 1.4.7.4.5.7 1 .8 1.7.1.7.2 1.5.1 2.4s-.2 1.6-.5 2.2c-.3.6-.7 1-1.2 1.2-.5.2-1.1.2-1.6-.1-.5-.3-.9-.6-1.1-1.1-.2-.4-.4-.9-.5-1.4s-.1-1-.1-1.9zm1-.2c-.1.9-.1 1.6.1 2.3.2.7.4 1.1.8 1.4.4.3.7.3 1.1.2s.6-.5.8-1c.2-.5.3-1.1.3-1.7s0-1.2-.1-1.7-.2-1-.4-1.4-.5-.6-.9-.6-.7.2-1 .6c-.4.4-.6 1-.7 1.9zM85.3 42.1l.8-.1c.1.4.3.7.6 1 .3.3.6.4 1.1.4.4 0 .8-.2 1-.5s.4-.7.3-1.1-.2-.8-.5-1-.8-.4-1.4-.5v-.6c.7-.1 1.1-.2 1.4-.5s.4-.6.4-1.1c0-.5-.2-.8-.6-1-.4-.2-.8-.2-1.2-.1-.4.2-.8.6-1 1.3l-.8-.1c.2-.6.4-1 .8-1.4s.8-.6 1.3-.7c.6-.1 1.1 0 1.5.2.4.2.7.5.9.9s.2.9.1 1.4c-.1.5-.5.9-1.1 1.3.4.2.8.5 1 .8s.3.9.2 1.5-.4 1.1-.8 1.5-1 .6-1.6.5c-.6 0-1.1-.2-1.5-.6-.4-.3-.7-.8-.9-1.5zM85.3 64.6c0-.5.1-.8.3-1.1.1-.3.4-.7.6-1.2l1.9-3h1.1l-2 3.1c.8-.2 1.5-.2 2 .1s.8.6 1 1c.2.4.3.8.3 1.2s0 .8-.2 1.2c-.1.4-.4.8-.8 1.1s-.9.5-1.5.5-1.2-.1-1.6-.4c-.5-.3-.8-.6-.9-1.1-.1-.5-.2-.9-.2-1.4zm1.5 1.5c.3.3.7.5 1.1.5.5 0 .9-.1 1.2-.5.3-.3.5-.8.5-1.5s-.2-1.1-.6-1.4c-.4-.3-.8-.3-1.3-.3-.5.1-.8.3-1.1.7-.2.4-.3.8-.3 1.3.1.6.2 1 .5 1.2zM86.4 90.5c.7-1.2 1.3-2.2 1.7-3.1-.8.1-1.4 0-1.9-.3s-.8-.8-.9-1.3-.1-1.1 0-1.5.3-.8.6-1.1.6-.5 1-.6.7-.2 1-.2.6.1.9.2.6.3.8.6.4.5.5.8.1.6.1 1-.2 1-.5 1.6-1.1 2-2.3 4.1h-1zm-.3-5.3c0 .4.2.7.5 1s.6.4 1 .4.6-.1.8-.3.4-.4.6-.8c.1-.5.2-.9.1-1.2s-.2-.6-.5-.8-.6-.3-.9-.3c-.2 0-.4 0-.7.1s-.5.4-.7.8-.2.7-.2 1.1zM90.5 111.6h-1.4l-.3 2.2H88l.3-2.2h-1.5l-.3 2.2h-.8l.3-2.2h-.9v-.9h1l.3-2h-1.3v-.9h1.4l.3-2.1h.8l-.3 2.1h1.5l.3-2.1h.8l-.3 2.1h.9v.9h-1l-.3 2h1.3v.9zm-1.8-2.8h-1.5l-.3 2h1.5l.3-2zM115.5 44.1h-1.1l-.7-2.5h-2.1l-.7 2.5h-1.1l2.3-8.1h.9l2.5 8.1zm-2-3.3l-.8-2.9h-.1l-.8 2.9h1.7zM115.3 65c0 .9-.3 1.5-.8 1.9-.5.3-1.1.5-1.9.5h-2.3v-8h2.4c.8 0 1.4.2 1.8.6.4.4.6.9.6 1.5s-.1 1-.4 1.2c-.3.3-.5.4-.8.5.4.1.7.3 1 .6.2.3.4.7.4 1.2zm-1.3-3.6c0-.4-.1-.7-.4-.9s-.5-.3-.9-.3h-1.4v2.5h1.4c.3 0 .6-.1.9-.3.2-.2.4-.5.4-1zm.2 3.6c0-.5-.2-.9-.5-1.1-.3-.2-.7-.3-1.1-.3h-1.2v2.9h1.1c.6 0 1-.1 1.3-.3.2-.2.4-.6.4-1.2zM115.3 87.2c0 1.2-.3 2-.8 2.5s-1 .8-1.7.8c-.8 0-1.4-.3-1.9-.9s-.8-1.6-.8-2.9c0-1.5.3-2.6.8-3.3s1.2-1.1 2-1.1c.7 0 1.3.3 1.7.8s.7 1.2.6 2.2h-1c0-.7-.1-1.2-.3-1.5s-.5-.5-1-.5-.9.3-1.2.8-.4 1.4-.4 2.6c0 1.1.1 1.9.4 2.4s.7.7 1.1.7c.3 0 .7-.2.9-.5s.4-1 .4-1.9h1.2zM115.2 109.8c0 1.4-.3 2.5-.9 3.1s-1.4.9-2.5.9h-1.6v-8h1.6c1.2 0 2 .3 2.6.9s.8 1.6.8 3.1zm-1.1 0c0-1.2-.2-2-.6-2.4s-.9-.7-1.7-.7h-.5v6.2h.5c.8 0 1.3-.2 1.7-.7s.6-1.3.6-2.4z" class="st4"/>
  </g>
</svg>
