<svg xmlns="http://www.w3.org/2000/svg" viewBox="0 0 150 150">
  <style>
    .st2,.st3{fill:#036eb8;stroke:#efefef;stroke-miterlimit:10}.st3{fill:#e60012}.st4{fill:#efefef}
  </style>
  <g id="图层_3">
    <path fill="#3e3a39" d="M127.9 133.3H22.1c-5.1 0-9.2-4.1-9.2-9.2V26c0-5.1 4.1-9.2 9.2-9.2h105.8c5.1 0 9.2 4.1 9.2 9.2v98c0 5.1-4.1 9.3-9.2 9.3z"/>
    <path fill="none" stroke="#efefef" stroke-miterlimit="10" d="M121 126H29c-2.7 0-5-2.2-5-5V29c0-2.7 2.2-5 5-5h92c2.7 0 5 2.2 5 5v92c0 2.8-2.2 5-5 5z"/>
    <path d="M52 48.3H40.4c-1.3 0-2.3-1-2.3-2.3V34.4c0-1.3 1-2.3 2.3-2.3H52c1.3 0 2.3 1 2.3 2.3V46c0 1.3-1 2.3-2.3 2.3zM80.8 48.3H69.2c-1.3 0-2.3-1-2.3-2.3V34.4c0-1.3 1-2.3 2.3-2.3h11.6c1.3 0 2.3 1 2.3 2.3V46c0 1.3-1 2.3-2.3 2.3zM109.6 48.3H98c-1.3 0-2.3-1-2.3-2.3V34.4c0-1.3 1-2.3 2.3-2.3h11.6c1.3 0 2.3 1 2.3 2.3V46c.1 1.3-1 2.3-2.3 2.3zM52 71.5H40.4c-1.3 0-2.3-1-2.3-2.3V57.6c0-1.3 1-2.3 2.3-2.3H52c1.3 0 2.3 1 2.3 2.3v11.6c0 1.3-1 2.3-2.3 2.3zM52 94.7H40.4c-1.3 0-2.3-1-2.3-2.3V80.8c0-1.3 1-2.3 2.3-2.3H52c1.3 0 2.3 1 2.3 2.3v11.6c0 1.3-1 2.3-2.3 2.3z" class="st2"/>
    <path d="M52 118H40.4c-1.3 0-2.3-1-2.3-2.3V104c0-1.3 1-2.3 2.3-2.3H52c1.3 0 2.3 1 2.3 2.3v11.6c0 1.3-1 2.4-2.3 2.4z" class="st3"/>
    <path d="M80.8 71.5H69.2c-1.3 0-2.3-1-2.3-2.3V57.6c0-1.3 1-2.3 2.3-2.3h11.6c1.3 0 2.3 1 2.3 2.3v11.6c0 1.3-1 2.3-2.3 2.3zM80.8 94.7H69.2c-1.3 0-2.3-1-2.3-2.3V80.8c0-1.3 1-2.3 2.3-2.3h11.6c1.3 0 2.3 1 2.3 2.3v11.6c0 1.3-1 2.3-2.3 2.3zM80.8 118H69.2c-1.3 0-2.3-1-2.3-2.3V104c0-1.3 1-2.3 2.3-2.3h11.6c1.3 0 2.3 1 2.3 2.3v11.6c0 1.3-1 2.4-2.3 2.4zM109.6 71.5H98c-1.3 0-2.3-1-2.3-2.3V57.6c0-1.3 1-2.3 2.3-2.3h11.6c1.3 0 2.3 1 2.3 2.3v11.6c.1 1.3-1 2.3-2.3 2.3zM109.6 94.7H98c-1.3 0-2.3-1-2.3-2.3V80.8c0-1.3 1-2.3 2.3-2.3h11.6c1.3 0 2.3 1 2.3 2.3v11.6c.1 1.3-1 2.3-2.3 2.3z" class="st2"/>
    <path d="M109.6 118H98c-1.3 0-2.3-1-2.3-2.3V104c0-1.3 1-2.3 2.3-2.3h11.6c1.3 0 2.3 1 2.3 2.3v11.6c.1 1.3-1 2.4-2.3 2.4z" class="st3"/>
    <path d="M45.9 37.7c-.4.4-.9.8-1.5 1.2V38c.8-.5 1.4-1.2 1.9-1.9h.6v8.1H46v-6.5zM47.1 65.6h-3.6v-.8l3.8-5.5h.7v5.5h1.1v.8H48v1.8h-.9v-1.8zm0-.8v-3.7l-2.6 3.7h2.6zM47.9 83.3h-4v-.8h5v.8c-1.5 2.4-2.4 4.8-2.9 7.1h-1c.5-2.4 1.4-4.7 2.9-7.1zM49.1 111.1l-.5.8-1.9-1.2.1 2.4h-.9l.1-2.4-2 1.3-.5-.8 2-1-2-1 .5-.8 1.9 1.2-.1-2.3h.9l-.1 2.3 1.9-1.2.5.8-2 1 2.1.9zM72.7 44c0-.5.3-.9.7-1.3.4-.4.9-1 1.5-1.8s1-1.4 1.2-1.9c.2-.4.3-.8.2-1.1 0-.3-.2-.6-.4-.8-.3-.2-.5-.3-.9-.3-.3 0-.6.2-.9.4-.3.2-.5.5-.7 1l-.9-.1c.3-.7.6-1.2 1-1.6.4-.3.9-.5 1.4-.5h.8c.3 0 .5.2.8.3.3.2.5.4.7.8.2.3.2.8.2 1.2 0 .5-.3 1.1-.7 1.7-.4.7-1.3 1.7-2.5 3.2h3.4v.8h-4.7zM73.2 65.2c.2.8.6 1.3 1.1 1.4.5.1 1 0 1.3-.2.3-.2.6-.5.7-.8s.2-.7.2-1.1c0-.4-.1-.7-.3-1-.2-.3-.5-.5-.8-.6-.3-.1-.7-.1-1.1 0-.4.1-.7.3-1 .7l-.8-.1c.1-.2.4-1.5.9-4h3.7v.8h-3c-.2.8-.3 1.5-.5 2 .5-.2.9-.3 1.3-.3s.8.1 1.2.3c.4.2.6.4.8.7.2.3.3.6.4.9.1.3.1.6.1 1 0 .3-.1.7-.2 1.1-.1.4-.3.7-.6.9l-.9.6c-.4.1-.8.2-1.2.2-.5 0-.9-.2-1.3-.5s-.7-.8-.9-1.6l.9-.4zM72.5 88.1c0-.4.1-.7.3-1.1s.5-.6.9-.9c-.4-.2-.6-.5-.8-.7-.1-.3-.2-.6-.2-.9 0-.3 0-.6.1-.9.1-.3.3-.5.5-.7.2-.2.5-.4.7-.4.3-.1.6-.1.9-.1.3 0 .6 0 .8.1.3.1.5.2.8.4s.5.5.6.9c.1.4.1.8 0 1.3s-.5.9-1.1 1.2c.5.2.9.4 1.1.7.2.3.3.7.3 1.2s-.1.8-.2 1.1-.3.5-.5.7c-.2.2-.4.3-.7.4-.3.1-.7.2-1.1.2-.5 0-.8-.1-1.2-.2s-.6-.3-.8-.5c-.2-.2-.4-.5-.4-.8.1-.3 0-.6 0-1zm1-.1c0 .4 0 .7.2 1s.4.5.8.5.8.1 1.2 0c.4-.1.7-.3.8-.7.2-.3.2-.7.2-1s-.3-.6-.7-.8c-.3-.2-.7-.3-1.1-.3-.4 0-.7.2-1 .4-.3.3-.4.6-.4.9zm.1-3.6c0 .3.1.6.3.9.2.3.6.4 1 .4s.8-.1 1.1-.4.3-.6.3-1-.2-.7-.4-.9c-.3-.2-.6-.3-1.1-.2-.5 0-.8.2-1 .4s-.2.5-.2.8zM72.6 109.3c0-.8.1-1.5.4-2 .2-.5.5-.9.9-1.2s.8-.5 1.4-.5c.5 0 1 .2 1.4.7.4.5.7 1 .8 1.7.1.7.2 1.5.1 2.4s-.2 1.6-.5 2.2c-.3.6-.7 1-1.2 1.2-.5.2-1.1.2-1.6-.1-.5-.3-.9-.6-1.1-1.1-.2-.4-.4-.9-.5-1.4s-.1-1.1-.1-1.9zm1-.3c-.1.9-.1 1.6.1 2.3.2.7.4 1.1.8 1.4.4.3.7.3 1.1.2s.6-.5.8-1c.2-.5.3-1.1.3-1.7s0-1.2-.1-1.7-.2-1-.4-1.4-.5-.6-.9-.6-.7.2-1 .6c-.4.4-.6 1-.7 1.9zM101.5 42.1l.8-.1c.1.4.3.7.6 1 .3.3.6.4 1.1.4.4 0 .8-.2 1-.5s.4-.7.3-1.1-.2-.8-.5-1-.8-.4-1.4-.5v-.6c.7-.1 1.1-.2 1.4-.5s.4-.6.4-1.1c0-.5-.2-.8-.6-1-.4-.2-.8-.2-1.2-.1-.4.2-.8.6-1 1.3l-.8-.1c.2-.6.4-1 .8-1.4s.8-.6 1.3-.7c.6-.1 1.1 0 1.5.2.4.2.7.5.9.9s.2.9.1 1.4c-.1.5-.5.9-1.1 1.3.4.2.8.5 1 .8s.3.9.2 1.5-.4 1.1-.8 1.5-1 .6-1.6.5c-.6 0-1.1-.2-1.5-.6-.5-.3-.7-.8-.9-1.5zM101.5 64.6c0-.5.1-.8.3-1.1.1-.3.4-.7.6-1.2l1.9-3h1.1l-2 3.1c.8-.2 1.5-.2 2 .1s.8.6 1 1c.2.4.3.7.3 1.2s0 .8-.2 1.2c-.1.4-.4.8-.8 1.1s-.9.5-1.5.5-1.2-.1-1.6-.4c-.5-.3-.8-.6-.9-1.1-.1-.4-.2-.9-.2-1.4zm1.5 1.6c.3.3.7.5 1.1.5.5 0 .9-.1 1.2-.5.3-.3.5-.8.5-1.5s-.2-1.1-.6-1.4c-.4-.3-.8-.3-1.3-.3-.5.1-.8.3-1.1.7-.2.4-.3.8-.3 1.3s.2.9.5 1.2zM102.6 90.5c.7-1.2 1.3-2.2 1.7-3.1-.8.1-1.4 0-1.9-.3s-.8-.8-.9-1.3-.1-1.1 0-1.5.3-.8.6-1.1.6-.5 1-.6.7-.2 1-.2.6.1.9.2.6.3.8.6.4.5.5.8.1.6.1 1-.2 1-.5 1.6-1.1 2-2.3 4.1h-1zm-.3-5.2c0 .4.2.7.5 1s.6.4 1 .4.6-.1.8-.3.4-.4.6-.8c.1-.5.2-.9.1-1.2s-.2-.6-.5-.8-.6-.3-.9-.3c-.2 0-.4 0-.7.1s-.5.4-.7.8-.2.7-.2 1.1zM106.7 111.7h-1.4l-.3 2.2h-.8l.3-2.2H103l-.3 2.2h-.8l.3-2.2h-.9v-.9h1l.3-2h-1.3v-.9h1.4l.3-2.1h.8l-.3 2.1h1.5l.3-2.1h.8l-.3 2.1h.9v.9h-1l-.3 2h1.3v.9zm-1.8-2.9h-1.5l-.3 2h1.5l.3-2z" class="st4"/>
  </g>
</svg>
