<svg xmlns="http://www.w3.org/2000/svg" id="图层_1" viewBox="0 0 150 150">
  <style>
    .st1{fill:#f7f8f8;stroke:#b5b5b6;stroke-miterlimit:10}.st2{fill:#c9caca}.st4,.st5{fill:none;stroke:#dcdddd;stroke-width:3;stroke-miterlimit:10}.st5{stroke-linecap:round}
  </style>
  <path fill="#595757" d="M22.5 13h105v120h-105z"/>
  <circle cx="27" cy="17.5" r="4.5" class="st1"/>
  <circle cx="123" cy="128.5" r="4.5" class="st1"/>
  <circle cx="27" cy="128.5" r="4.5" class="st1"/>
  <circle cx="123" cy="17.5" r="4.5" class="st1"/>
  <circle cx="71.2" cy="20.4" r="1.8" class="st2"/>
  <circle cx="78.6" cy="20.4" r="1.8" class="st2"/>
  <path fill="none" stroke="#dcdddd" stroke-miterlimit="10" d="M65.5 16.1h18.9v8.8H65.5z"/>
  <path d="M71.2 24.9v3.3" class="st4"/>
  <path d="M23.5 28.2h47.7" class="st5"/>
  <path d="M78.6 24.9v3.3" class="st4"/>
  <path d="M126.5 28.2H78.6M23.5 28.2v91.9" class="st5"/>
  <path fill="none" stroke="#dcdddd" stroke-linecap="round" stroke-linejoin="round" stroke-miterlimit="10" stroke-width="3" d="M126.5 28.2v92.3"/>
  <path d="M23.5 120.1c2.6-.2 7.8 0 10.1 2.5 1.3 1.5 1.8 3.1 2.1 5.5M126.5 120.5s-5.2-.8-8 1.4c-3.5 2.6-3.8 6.6-3.8 6.6M35.7 128.1h67.6M126.5 120.5H39.1M23.5 114.3h97.2M126.5 107.7H31.1M23.5 101h97.2M126.5 94.4h-95M23.5 87.8h97.2M126.5 81.2h-95M23.5 74.5h97.2M126.5 67.9h-95M23.5 61.3h97.2M126.5 54.7h-95M23.5 48h97.2M126.5 41.4H31.1M23.5 34.8h97.2" class="st5"/>
</svg>
