<svg xmlns="http://www.w3.org/2000/svg" id="图层_1" viewBox="0 0 150 150">
  <style>
    .st1{fill:#c9caca;stroke:#595757;stroke-miterlimit:10}
  </style>
  <path fill="#595757" stroke="#595757" stroke-miterlimit="10" stroke-width="2" d="M124.4 125H25.6c-.3 0-.6-.3-.6-.6V25.6c0-.3.3-.6.6-.6h98.8c.3 0 .6.3.6.6v98.8c0 .3-.3.6-.6.6z"/>
  <circle cx="30.3" cy="30.2" r="5.3" class="st1"/>
  <circle cx="30.3" cy="43" r="5.3" class="st1"/>
  <circle cx="30.3" cy="55.8" r="5.3" class="st1"/>
  <circle cx="30.3" cy="68.6" r="5.3" class="st1"/>
  <circle cx="30.3" cy="81.4" r="5.3" class="st1"/>
  <circle cx="30.3" cy="94.1" r="5.3" class="st1"/>
  <circle cx="30.3" cy="106.9" r="5.3" class="st1"/>
  <circle cx="30.3" cy="119.7" r="5.3" class="st1"/>
  <circle cx="43.1" cy="30.2" r="5.3" class="st1"/>
  <circle cx="43.1" cy="43" r="5.3" class="st1"/>
  <circle cx="43.1" cy="55.8" r="5.3" class="st1"/>
  <circle cx="43.1" cy="68.6" r="5.3" class="st1"/>
  <circle cx="43.1" cy="81.4" r="5.3" class="st1"/>
  <circle cx="43.1" cy="94.1" r="5.3" class="st1"/>
  <circle cx="43.1" cy="106.9" r="5.3" class="st1"/>
  <circle cx="43.1" cy="119.7" r="5.3" class="st1"/>
  <circle cx="55.8" cy="30.2" r="5.3" class="st1"/>
  <circle cx="55.8" cy="43" r="5.3" class="st1"/>
  <circle cx="55.8" cy="55.8" r="5.3" class="st1"/>
  <circle cx="55.8" cy="68.6" r="5.3" class="st1"/>
  <circle cx="55.8" cy="81.4" r="5.3" class="st1"/>
  <circle cx="55.8" cy="94.1" r="5.3" class="st1"/>
  <circle cx="55.8" cy="106.9" r="5.3" class="st1"/>
  <circle cx="55.8" cy="119.7" r="5.3" class="st1"/>
  <circle cx="68.6" cy="30.2" r="5.3" class="st1"/>
  <circle cx="68.6" cy="43" r="5.3" class="st1"/>
  <circle cx="68.6" cy="55.8" r="5.3" class="st1"/>
  <circle cx="68.6" cy="68.6" r="5.3" class="st1"/>
  <circle cx="68.6" cy="81.4" r="5.3" class="st1"/>
  <circle cx="68.6" cy="94.1" r="5.3" class="st1"/>
  <circle cx="68.6" cy="106.9" r="5.3" class="st1"/>
  <circle cx="68.6" cy="119.7" r="5.3" class="st1"/>
  <circle cx="81.4" cy="30.2" r="5.3" class="st1"/>
  <circle cx="81.4" cy="43" r="5.3" class="st1"/>
  <circle cx="81.4" cy="55.8" r="5.3" class="st1"/>
  <circle cx="81.4" cy="68.6" r="5.3" class="st1"/>
  <circle cx="81.4" cy="81.4" r="5.3" class="st1"/>
  <circle cx="81.4" cy="94.1" r="5.3" class="st1"/>
  <circle cx="81.4" cy="106.9" r="5.3" class="st1"/>
  <circle cx="81.4" cy="119.7" r="5.3" class="st1"/>
  <circle cx="94.2" cy="30.2" r="5.3" class="st1"/>
  <circle cx="94.2" cy="43" r="5.3" class="st1"/>
  <circle cx="94.2" cy="55.8" r="5.3" class="st1"/>
  <circle cx="94.2" cy="68.6" r="5.3" class="st1"/>
  <circle cx="94.2" cy="81.4" r="5.3" class="st1"/>
  <circle cx="94.2" cy="94.1" r="5.3" class="st1"/>
  <circle cx="94.2" cy="106.9" r="5.3" class="st1"/>
  <circle cx="94.2" cy="119.7" r="5.3" class="st1"/>
  <circle cx="106.9" cy="30.2" r="5.3" class="st1"/>
  <circle cx="106.9" cy="43" r="5.3" class="st1"/>
  <circle cx="106.9" cy="55.8" r="5.3" class="st1"/>
  <circle cx="106.9" cy="68.6" r="5.3" class="st1"/>
  <circle cx="106.9" cy="81.4" r="5.3" class="st1"/>
  <circle cx="106.9" cy="94.1" r="5.3" class="st1"/>
  <circle cx="106.9" cy="106.9" r="5.3" class="st1"/>
  <circle cx="106.9" cy="119.7" r="5.3" class="st1"/>
  <circle cx="119.7" cy="30.2" r="5.3" class="st1"/>
  <circle cx="119.7" cy="43" r="5.3" class="st1"/>
  <circle cx="119.7" cy="55.8" r="5.3" class="st1"/>
  <circle cx="119.7" cy="68.6" r="5.3" class="st1"/>
  <circle cx="119.7" cy="81.4" r="5.3" class="st1"/>
  <circle cx="119.7" cy="94.1" r="5.3" class="st1"/>
  <circle cx="119.7" cy="106.9" r="5.3" class="st1"/>
  <circle cx="119.7" cy="119.7" r="5.3" class="st1"/>
</svg>
