<svg xmlns="http://www.w3.org/2000/svg" id="图层_1" viewBox="0 0 150 150">
  <style>
    .st1{fill:#595757}.st2{fill:#888}.st3{fill:#9e9e9f}
  </style>
  <path fill="#3e3a39" d="M49.8 24.4H103V78H49.8z"/>
  <path d="M103 21.3H47l2.8 3.1H103z" class="st1"/>
  <path d="M47 21.3l2.8 3.1V78H47z" class="st1"/>
  <path d="M57.1 78h3.3v50.7h-3.3zM74.8 78h3.3v50.7h-3.3zM92.4 78h3.3v50.7h-3.3z" class="st2"/>
  <g>
    <path d="M56.8 51.9v-8.6h1.1v7.6h4.2v1h-5.3zM63.4 51.9v-8.6h1.7l2 6.1c.2.6.3 1 .4 1.3.1-.3.3-.8.5-1.4l2.1-6h1.5v8.6h-1.1v-7.2L68 51.9h-1l-2.5-7.3v7.3h-1.1zM73 49.6l1.1-.1c.1.6.3 1 .6 1.3s.6.4 1.1.4c.5 0 .9-.2 1.3-.5s.5-.8.5-1.3-.2-.9-.5-1.2-.7-.5-1.2-.5c-.2 0-.4 0-.7.1l.1-.9h.2c.4 0 .9-.1 1.2-.4s.5-.6.5-1.1c0-.4-.1-.7-.4-1s-.6-.4-1-.4-.8.1-1 .4-.4.6-.5 1.2l-1.1-.2c.1-.7.4-1.3.9-1.6s1-.6 1.7-.6c.5 0 .9.1 1.3.3s.7.5.9.8.3.7.3 1.1c0 .4-.1.7-.3 1s-.5.5-.9.7c.5.1.9.4 1.2.7s.4.8.4 1.4c0 .8-.3 1.4-.8 1.9s-1.3.9-2.1.9-1.4-.2-1.9-.7-.8-1-.9-1.7zM79.7 49.6l1.1-.1c.1.5.3.9.6 1.2s.7.4 1.1.4c.5 0 .9-.2 1.3-.6s.5-.9.5-1.5-.2-1.1-.5-1.4-.8-.5-1.3-.5c-.3 0-.6.1-.9.2s-.5.4-.6.6l-1-.1.8-4.4H85v1h-3.4l-.5 2.3c.5-.4 1.1-.5 1.6-.5.8 0 1.4.3 1.9.8s.8 1.2.8 2-.2 1.4-.7 2c-.6.7-1.3 1-2.3 1-.8 0-1.4-.2-1.9-.7s-.7-1-.8-1.7z" class="st3"/>
  </g>
</svg>
