<svg xmlns="http://www.w3.org/2000/svg" viewBox="0 0 150 150">
  <style>
    .st3{fill:#b5b5b6}.st4{fill:none;stroke:#fff;stroke-linecap:round;stroke-miterlimit:10}.st5{fill:#fff}
  </style>
  <g id="图层_1">
    <path id="XMLID_24_" fill="#00a0e9" d="M132.6 14.4H17.4c-1.7 0-3 1.4-3 3v115.1c0 1.7 1.4 3 3 3h115.1c1.7 0 3-1.4 3-3V17.4c.1-1.6-1.3-3-2.9-3zM24.4 131.2c-4.1 2.6-8.4-1.7-5.8-5.8.2-.3.4-.5.7-.7 4.1-2.6 8.4 1.7 5.8 5.8-.2.3-.4.5-.7.7zm0-105.6c-4.1 2.6-8.4-1.7-5.8-5.8.2-.3.4-.5.7-.7 4.1-2.6 8.4 1.7 5.8 5.8-.2.2-.4.5-.7.7zM131 131.2c-4.1 2.6-8.4-1.7-5.8-5.8.2-.3.4-.5.7-.7 4.1-2.6 8.4 1.7 5.8 5.8-.2.3-.4.5-.7.7zm0-105.6c-4.1 2.6-8.4-1.7-5.8-5.8.2-.3.4-.5.7-.7 4.1-2.6 8.4 1.7 5.8 5.8-.2.2-.4.5-.7.7z"/>
  </g>
  <g id="图层_2">
    <path id="XMLID_51_" fill="#dcdddd" d="M125.1 118.8h-100c-4.1 0-7.4-3.3-7.4-7.4V40c0-4.1 3.3-7.4 7.4-7.4h100c4.1 0 7.4 3.3 7.4 7.4v71.4c0 4.1-3.3 7.4-7.4 7.4z"/>
  </g>
  <g id="图层_3">
    <path id="XMLID_7_" fill="#9fb99a" d="M117.4 114.9H32.8c-6.1 0-11-4.9-11-11V59.2c0-6.1 4.9-11 11-11h84.6c6.1 0 11 4.9 11 11v44.6c0 6.1-4.9 11.1-11 11.1z"/>
  </g>
  <g id="图层_4">
    <circle id="XMLID_48_" cx="39.4" cy="125.6" r="2.6" class="st3"/>
    <circle id="XMLID_47_" cx="49.7" cy="125.6" r="2.6" class="st3"/>
    <circle id="XMLID_46_" cx="111" cy="125.6" r="2.6" class="st3"/>
    <circle id="XMLID_45_" cx="100.8" cy="125.6" r="2.6" class="st3"/>
    <circle id="XMLID_44_" cx="90.6" cy="125.6" r="2.6" class="st3"/>
    <circle id="XMLID_43_" cx="80.4" cy="125.6" r="2.6" class="st3"/>
    <circle id="XMLID_42_" cx="70.1" cy="125.6" r="2.6" class="st3"/>
    <circle id="XMLID_41_" cx="59.9" cy="125.6" r="2.6" class="st3"/>
    <path id="XMLID_40_" d="M34.6 122.1v7" class="st4"/>
    <path id="XMLID_39_" d="M116.6 122.1v7" class="st4"/>
    <path d="M30.7 124.6v3.1c0 .1 0 .2.1.2.1.1.2.1.3.1h.2v.1h-1.5v-.1h.2c.1 0 .2 0 .3-.1.1-.1.1-.1.1-.2v-2.5c0-.1 0-.1-.1-.1 0 0-.1-.1-.2-.1h-.4v-.1h.3c.2 0 .3 0 .4-.1.1 0 .1-.1.3-.2zm91 2.5c0 .3-.1.5-.3.7-.2.2-.5.3-.9.3-.3 0-.6-.1-.8-.3-.2-.2-.3-.4-.3-.7 0-.3.1-.5.2-.7.1-.2.3-.3.6-.5-.2-.1-.4-.2-.5-.4-.1-.2-.2-.3-.2-.5 0-.3.1-.5.3-.7.2-.2.5-.3.8-.3.3 0 .6.1.8.3s.3.4.3.7c0 .2-.1.4-.2.5-.1.2-.3.3-.5.4.3.2.5.3.6.5 0 .3.1.5.1.7zm-2.1.1c0 .2.1.4.2.6s.4.2.6.2c.3 0 .5-.1.6-.2.1-.2.2-.3.2-.6 0-.2-.1-.4-.3-.6-.2-.2-.5-.4-.8-.5-.2.1-.3.3-.4.5 0 .1-.1.3-.1.6zm1.7-2.1c0-.2-.1-.4-.2-.6-.1-.2-.3-.2-.6-.2s-.5.1-.6.2c-.1.2-.2.3-.2.5s.1.3.3.5c.2.2.4.3.8.4.2-.1.3-.2.4-.3.1-.2.1-.3.1-.5zm-85.8 8.6v-3.2h1.4c.3 0 .5 0 .6.1.1.1.3.2.4.3.1.1.1.3.1.5s-.1.4-.2.6c-.1.2-.4.3-.7.3.1.1.2.1.3.2.1.1.2.3.3.4l.6.9h-.5l-.4-.7c-.1-.2-.2-.3-.3-.4l-.2-.2c-.1 0-.1-.1-.2-.1H36v1.4h-.5zm.4-1.7h.9c.2 0 .3 0 .5-.1.1 0 .2-.1.2-.2.1-.1.1-.2.1-.3 0-.2-.1-.3-.2-.4-.1-.1-.3-.1-.5-.1h-1v1.1zm2.6.7h.4c0 .2.1.3.1.4.1.1.2.2.3.2.1.1.3.1.5.1s.3 0 .4-.1c.1 0 .2-.1.3-.2.1-.1.1-.2.1-.3 0-.1 0-.2-.1-.3-.1-.1-.2-.1-.3-.2-.1 0-.3-.1-.6-.2s-.5-.1-.6-.2c-.2-.1-.3-.2-.3-.3-.1-.1-.1-.3-.1-.4 0-.2 0-.3.1-.5.1-.1.2-.2.4-.3s.4-.1.6-.1c.2 0 .4 0 .6.1.2.1.3.2.4.3.1.1.1.3.2.5h-.4c0-.2-.1-.4-.2-.5s-.3-.2-.6-.2-.4 0-.6.1c-.1.1-.2.2-.2.3 0 .1 0 .2.1.3.1.1.3.1.6.2s.6.1.7.2c.2.1.3.2.4.3s.1.3.1.5 0 .3-.1.5c-.1.1-.2.3-.4.3s-.4.1-.6.1c-.3 0-.5 0-.7-.1s-.3-.2-.5-.4c.1.3 0 .1 0-.1zm4 1v-2.8h-1v-.4H44v.4h-1.1v2.8h-.4zm6.8-1.1l.4.1c-.1.3-.2.6-.5.8-.2.2-.5.3-.8.3-.3 0-.6-.1-.8-.2s-.4-.3-.5-.6c-.1-.3-.2-.5-.2-.9 0-.3.1-.6.2-.9.1-.2.3-.4.5-.6.2-.1.5-.2.8-.2.3 0 .6.1.8.2.2.2.4.4.5.7l-.4.1c-.1-.2-.2-.4-.3-.5-.1-.1-.3-.2-.5-.2s-.4.1-.6.2-.3.3-.3.5c-.1.2-.1.4-.1.6 0 .3 0 .5.1.7.1.2.2.4.4.5.2.1.3.2.5.2s.4-.1.6-.2c0-.1.1-.3.2-.6zm.9 1.1v-3.2h2.3v.4h-1.9v1h1.8v.4h-1.8v1.1h2v.4h-2.4zm6.7 0v-3.2h1.7c.2 0 .3.1.5.2s.3.3.4.5c.1.2.1.5.1.8 0 .2 0 .5-.1.6-.1.2-.1.3-.2.5l-.3.3c-.1.1-.2.1-.4.2-.1 0-.3.1-.5.1h-1.2zm.4-.3h.7c.2 0 .4 0 .5-.1.1 0 .2-.1.3-.2.1-.1.2-.2.2-.4.1-.2.1-.4.1-.6 0-.3-.1-.6-.2-.8s-.2-.3-.4-.4c-.1 0-.3-.1-.5-.1h-.7v2.6zm5.1-.8l.4.1c-.1.3-.2.6-.5.8-.2.2-.5.3-.8.3-.3 0-.6-.1-.8-.2s-.4-.3-.5-.6c-.1-.3-.2-.5-.2-.9 0-.3.1-.6.2-.9.1-.2.3-.4.5-.6.2-.1.5-.2.8-.2.3 0 .6.1.8.2.2.2.4.4.5.7l-.4.1c-.1-.2-.2-.4-.3-.5-.1-.1-.3-.2-.5-.2s-.4.1-.6.2-.3.3-.3.5c-.1.2-.1.4-.1.6 0 .3 0 .5.1.7.1.2.2.4.4.5.2.1.3.2.5.2s.4-.1.6-.2c0-.1.1-.3.2-.6zm4 1.1v-3.2h1.7c.2 0 .3.1.5.2s.3.3.4.5c.1.2.1.5.1.8 0 .2 0 .5-.1.6-.1.2-.1.3-.2.5l-.3.3c-.1.1-.2.1-.4.2-.1 0-.3.1-.5.1h-1.2zm.4-.3h.7c.2 0 .4 0 .5-.1.1 0 .2-.1.3-.2.1-.1.2-.2.2-.4.1-.2.1-.4.1-.6 0-.3-.1-.6-.2-.8s-.2-.3-.4-.4c-.1 0-.3-.1-.5-.1h-.7v2.6zm2.9.3v-3.2h.4v3.2h-.4zm1.1 0v-3.2h.4l1.7 2.5v-2.5h.4v3.2h-.4l-1.7-2.5v2.5h-.4zM78.6 132.6l.4.1c-.1.3-.2.6-.5.8s-.5.3-.8.3c-.3 0-.6-.1-.8-.2s-.4-.3-.5-.6-.2-.5-.2-.9c0-.3.1-.6.2-.9.1-.2.3-.4.5-.6s.5-.2.8-.2c.3 0 .6.1.8.2.2.2.4.4.5.7l-.4.1c-.1-.2-.2-.4-.3-.5-.1-.1-.3-.2-.5-.2s-.4.1-.6.2c-.2.1-.3.3-.3.5-.1.2-.1.4-.1.6 0 .3 0 .5.1.7.1.2.2.4.4.5.2.1.3.2.5.2s.4-.1.6-.2c.1-.1.2-.3.2-.6zm1 1.1v-3.2h.4v2.8h1.6v.4h-2zm2.4 0v-3.2h.4v1.6l1.6-1.6h.6l-1.3 1.3 1.4 1.9h-.6l-1.1-1.6-.5.5v1.1H82zM87.5 133.7l-1.2-3.2h.5l.8 2.3c.1.2.1.4.2.5 0-.2.1-.3.2-.5l.9-2.3h.4l-1.2 3.2h-.6zm4.3-1.1l.4.1c-.1.3-.2.6-.5.8s-.5.3-.8.3c-.3 0-.6-.1-.8-.2s-.4-.3-.5-.6-.2-.5-.2-.9c0-.3.1-.6.2-.9.1-.2.3-.4.5-.6s.5-.2.8-.2c.3 0 .6.1.8.2.2.2.4.4.5.7l-.4.1c-.1-.2-.2-.4-.3-.5-.1-.1-.3-.2-.5-.2s-.4.1-.6.2c-.2.1-.3.3-.3.5-.1.2-.1.4-.1.6 0 .3 0 .5.1.7.1.2.2.4.4.5.2.1.3.2.5.2s.4-.1.6-.2c.1-.1.2-.3.2-.6zm3.2 0l.4.1c-.1.3-.2.6-.5.8s-.5.3-.8.3c-.3 0-.6-.1-.8-.2s-.4-.3-.5-.6-.2-.5-.2-.9c0-.3.1-.6.2-.9.1-.2.3-.4.5-.6s.5-.2.8-.2c.3 0 .6.1.8.2.2.2.4.4.5.7l-.4.1c-.1-.2-.2-.4-.3-.5-.1-.1-.3-.2-.5-.2s-.4.1-.6.2c-.2.1-.3.3-.3.5-.1.2-.1.4-.1.6 0 .3 0 .5.1.7.1.2.2.4.4.5.2.1.3.2.5.2s.4-.1.6-.2c.1-.1.2-.3.2-.6zM98.8 133.7v-3.2h1.2c.2 0 .4 0 .6.1.1.1.3.2.3.3s.1.3.1.4c0 .1 0 .3-.1.4l-.3.3c.2.1.3.2.4.3.1.1.2.3.2.5 0 .1 0 .3-.1.4-.1.1-.1.2-.2.3-.1.1-.2.1-.3.2-.1 0-.3.1-.5.1h-1.3zm.4-1.8h1.1c.1 0 .2-.1.2-.2.1-.1.1-.2.1-.3 0-.1 0-.2-.1-.3l-.2-.2h-1.1v1zm0 1.5h1.1c.1 0 .2 0 .2-.1.1 0 .1-.1.2-.2 0-.1.1-.2.1-.3 0-.1 0-.2-.1-.3-.1-.1-.1-.1-.3-.2-.1 0-.3-.1-.5-.1h-.7v1.2zm2.5.3v-3.2h.4v2.8h1.6v.4h-2zM108 132.5v-.4h1.3v1.2c-.2.2-.4.3-.6.4s-.4.1-.7.1c-.3 0-.6-.1-.9-.2-.3-.1-.4-.3-.6-.6s-.2-.5-.2-.8c0-.3.1-.6.2-.9.1-.3.3-.5.6-.6.2-.1.5-.2.8-.2.2 0 .4 0 .6.1.2.1.3.2.4.3s.2.3.2.5l-.4.1c0-.2-.1-.3-.2-.4-.1-.1-.2-.2-.3-.2s-.3-.1-.4-.1c-.2 0-.4 0-.5.1s-.3.1-.3.2-.2.2-.2.3c-.1.2-.1.4-.1.6 0 .3 0 .5.1.7.1.2.2.3.4.4.2.1.4.1.6.1.2 0 .4 0 .5-.1s.3-.1.4-.2v-.6h-.7zm1.9 1.2v-3.2h.4l1.7 2.5v-2.5h.4v3.2h-.4l-1.7-2.5v2.5h-.4zm3.2 0v-3.2h1.7c.2 0 .3.1.5.2s.3.3.4.5c.1.2.1.5.1.8 0 .2 0 .5-.1.6s-.1.3-.2.5l-.3.3c-.1.1-.2.1-.4.2-.1 0-.3.1-.5.1h-1.2zm.5-.3h.7c.2 0 .4 0 .5-.1s.2-.1.3-.2c.1-.1.2-.2.2-.4.1-.2.1-.4.1-.6 0-.3-.1-.6-.2-.8-.1-.2-.2-.3-.4-.4-.1 0-.3-.1-.5-.1h-.7v2.6z" class="st5"/>
  </g>
</svg>
