<svg width="357" height="250" viewBox="0 0 357 250" xmlns="http://www.w3.org/2000/svg">
    <title>pir</title>
    <g fill="none" fill-rule="evenodd">
        <path d="M.2.1H357v249.8H.2V.1zm340 124.9c0-6.2-5-11.2-11.2-11.2-6.2 0-11.2 5-11.2 11.2 0 6.2 5 11.2 11.2 11.2 6.1 0 11.2-5 11.2-11.2zm-300.8 0c0-6.2-5-11.2-11.2-11.2-6.2 0-11.2 5-11.2 11.2 0 6.2 5 11.2 11.2 11.2 6.2 0 11.2-5 11.2-11.2z" fill="#00979D" fill-rule="nonzero" />
        <path d="M344 125c0-8.3-6.7-15-15-15s-15 6.7-15 15 6.7 15 15 15 15-6.7 15-15zm-300.8 0c0-8.3-6.7-15-15-15s-15 6.7-15 15 6.7 15 15 15 15-6.7 15-15z" stroke="#CCC" stroke-width="4.739" />
        <path stroke="#E3E3E3" stroke-width="1.58" d="M159.5 79.1h38.2V47.2h-38.2zM140.3 214.2h76.5v-76.5h-76.5v76.5m0-25.5h76.5m-25.5-50.9v76.5m-25.5-.1v-76.5" />
        <path d="M66.4 12.9h224.3c1.4 0 2.5 1.1 2.5 2.5v219.2c0 1.4-1.1 2.5-2.5 2.5H66.4c-1.4 0-2.5-1.1-2.5-2.5V15.4c0-1.4 1.1-2.5 2.5-2.5z" stroke="#F0F0F0" stroke-width="6.319" fill="#E0EEE0" fill-rule="nonzero" />
        <path d="M290.7 125H66.4v12.7c0 61.9 50.2 112.1 112.1 112.1 61.9 0 112.1-50.2 112.1-112.1V125h.1z" fill="#000" fill-rule="nonzero" opacity=".25" />
        <circle fill="#F8F8F8" fill-rule="nonzero" cx="178.6" cy="125" r="112.1" />
        <circle fill="#F8F8F8" fill-rule="nonzero" opacity=".5" cx="178.6" cy="125" r="112.1" />
        <path d="M260.8 124.4c-.2-28.9-15.6-55.6-40.5-70.2l11.2-19.3c31.8 18.6 51.5 52.7 51.7 89.5h-22.4z" fill="#D4D4D4" fill-rule="nonzero" opacity=".5" />
        <path d="M219.1 53.5a82.02 82.02 0 0 0-81.1 0l-11.1-19.3c32-18.2 71.3-18.2 103.4 0l-11.2 19.3z" fill="#DDD" fill-rule="nonzero" opacity=".5" />
        <path d="M96.4 124.4c.2-28.9 15.6-55.6 40.5-70.2l-11.2-19.3C93.9 53.5 74.2 87.6 74 124.4h22.4zM96.4 125.6c.2 28.9 15.6 55.6 40.5 70.2l-11.2 19.3c-31.8-18.6-51.5-52.7-51.7-89.5h22.4z" fill="#D4D4D4" fill-rule="nonzero" opacity=".5" />
        <path d="M138 196.5a82.02 82.02 0 0 0 81.1 0l11.1 19.3c-32 18.2-71.3 18.2-103.4 0l11.2-19.3z" fill="#DDD" fill-rule="nonzero" opacity=".5" />
        <path d="M260.8 125.6c-.2 28.9-15.6 55.6-40.5 70.2l11.2 19.3c31.8-18.6 51.5-52.7 51.7-89.5h-22.4zM209.8 124.4c-.1-6.2-2.1-12.1-5.6-17.2L244.4 78c9.7 13.5 15 29.8 15.1 46.4h-49.7z" fill="#D4D4D4" fill-rule="nonzero" opacity=".5" />
        <path d="M203.5 106.2c-3.7-4.9-8.8-8.6-14.6-10.6l15.4-47.3c15.8 5.3 29.6 15.3 39.5 28.7l-40.3 29.2z" fill="#DDD" fill-rule="nonzero" opacity=".5" />
        <path d="M187.6 95.1c-5.9-1.6-12.2-1.5-18.1.5l-15.3-47.7c15.9-5 32.9-5 48.8 0l-15.4 47.2z" fill="#D4D4D4" fill-rule="nonzero" opacity=".5" />
        <path d="M153.7 106.2c3.7-4.9 8.8-8.6 14.6-10.6L153 48.2c-15.8 5.3-29.6 15.3-39.5 28.7l40.2 29.3z" fill="#DDD" fill-rule="nonzero" opacity=".5" />
        <path d="M147.4 124.4c.1-6.2 2.1-12.1 5.6-17.2L112.7 78c-9.7 13.5-15 29.8-15.1 46.4h49.8z" fill="#D4D4D4" fill-rule="nonzero" opacity=".5" />
        <path d="M153.7 143.9c3.7 4.9 8.8 8.6 14.6 10.6L153 201.8c-15.8-5.3-29.6-15.3-39.5-28.7l40.2-29.2zM203.5 143.9c-3.7 4.9-8.8 8.6-14.6 10.6l15.4 47.3c15.8-5.3 29.6-15.3 39.5-28.7l-40.3-29.2z" fill="#DDD" fill-rule="nonzero" opacity=".5" />
        <path d="M187.6 154.9c-5.9 1.6-12.2 1.5-18.1-.5l-15.3 47.7c15.9 5 32.9 5 48.8 0l-15.4-47.2zM147.4 125.6c.1 6.2 2.1 12.1 5.6 17.2L112.8 172c-9.7-13.5-15-29.8-15.1-46.4h49.7zM209.8 125.6c-.1 6.2-2.1 12.1-5.6 17.2l40.2 29.2c9.7-13.5 15-29.8 15.1-46.4h-49.7z" fill="#D4D4D4" fill-rule="nonzero" opacity=".5" />
        <circle fill="#DDD" fill-rule="nonzero" cx="178.6" cy="125" r="29.9" />
        <circle fill="#EEE" fill-rule="nonzero" cx="178.6" cy="125" r="2.5" />
        <path d="M290.7 125C257.3 162.2 180 176 118 156c-21.9-7.1-39.8-17.8-51.6-31 33.4 61.9 110.7 85 172.7 51.6 21.9-11.8 39.8-29.7 51.6-51.6z" fill="#000" fill-rule="nonzero" opacity=".04" />
        <path d="M290.7 125C257.3 211.7 180 244.1 118 197.3c-21.9-16.5-39.8-41.6-51.6-72.3 33.4 61.9 110.7 85 172.7 51.6 21.9-11.8 39.8-29.7 51.6-51.6z" fill="#000" fill-rule="nonzero" opacity=".07" />
        <path d="M290.7 125C257.3 211.7 180 244.1 118 197.3c-21.9-16.5-39.8-41.6-51.6-72.3 0 61.9 50.2 112.1 112.1 112.1 61.9 0 112.2-50.2 112.2-112.1z" fill="#000" fill-rule="nonzero" opacity=".1" />
        <path d="M.2.1H357v249.8H.2V.1zm340 124.9c0-6.2-5-11.2-11.2-11.2-6.2 0-11.2 5-11.2 11.2 0 6.2 5 11.2 11.2 11.2 6.1 0 11.2-5 11.2-11.2zm-300.8 0c0-6.2-5-11.2-11.2-11.2-6.2 0-11.2 5-11.2 11.2 0 6.2 5 11.2 11.2 11.2 6.2 0 11.2-5 11.2-11.2z" fill="none" />
    </g>
</svg>
