<svg xmlns="http://www.w3.org/2000/svg" id="图层_1" viewBox="0 0 150 150">
  <style>
    .st7,.st8{opacity:.5;fill:#d4d4d4;enable-background:new}.st8{fill:#ddd}
  </style>
  <path fill="#0f9095" d="M15.5 31.8h123.8v86.7H15.5V31.8zm118 43.3c0-2.2-1.7-3.9-3.9-3.9s-3.9 1.7-3.9 3.9 1.7 3.9 3.9 3.9c2.1 0 3.9-1.7 3.9-3.9zm-104.4 0c0-2.2-1.7-3.9-3.9-3.9s-3.9 1.7-3.9 3.9S23 79 25.2 79s3.9-1.7 3.9-3.9z"/>
  <path fill="#fff" stroke="#ccc" d="M134.8 75.1c0-2.9-2.3-5.2-5.2-5.2-2.9 0-5.2 2.3-5.2 5.2s2.3 5.2 5.2 5.2c2.9 0 5.2-2.3 5.2-5.2zm-104.4 0c0-2.9-2.3-5.2-5.2-5.2S20 72.2 20 75.1s2.3 5.2 5.2 5.2 5.2-2.3 5.2-5.2z"/>
  <path fill="none" stroke="#e4e3e3" stroke-width="1.58" d="M70.8 59.2H84V48.1H70.8v11.1zm-6.7 46.9h26.6V79.5H64.1v26.6m0-8.9h26.6m-8.9-17.6v26.6m-8.8-.1V79.5"/>
  <path fill="#deecde" stroke="#f0f0f0" stroke-width="2" d="M38.5 36.2h77.9c.5 0 .9.4.9.9v76.1c0 .5-.4.9-.9.9H38.5c-.5 0-.9-.4-.9-.9V37.1c0-.5.4-.9.9-.9z"/>
  <path fill="#040000" d="M116.3 75.1H38.5v4.4c0 21.5 17.4 38.9 38.9 38.9s38.9-17.4 38.9-38.9v-4.4z" opacity=".25"/>
  <circle cx="77.4" cy="75.1" r="38.9" fill="#f8f8f8"/>
  <circle cx="77.4" cy="75.1" r="38.9" fill="#f8f8f8" opacity=".5"/>
  <path d="M105.9 74.9c-.1-10-5.4-19.3-14.1-24.4l3.9-6.7c11 6.5 17.9 18.3 17.9 31.1h-7.7z" class="st7"/>
  <path d="M91.5 50.3c-8.7-5-19.4-5-28.1 0l-3.9-6.7c11.1-6.3 24.7-6.3 35.9 0l-3.9 6.7z" class="st8"/>
  <path d="M48.9 74.9c.1-10 5.4-19.3 14.1-24.4l-3.9-6.7c-11 6.5-17.9 18.3-17.9 31.1h7.7zm0 .4c.1 10 5.4 19.3 14.1 24.4l-3.9 6.7c-11-6.5-17.9-18.3-17.9-31.1h7.7z" class="st7"/>
  <path d="M63.3 99.9c8.7 5 19.4 5 28.1 0l3.9 6.7c-11.1 6.3-24.7 6.3-35.9 0l3.9-6.7z" class="st8"/>
  <path d="M105.9 75.3c-.1 10-5.4 19.3-14.1 24.4l3.9 6.7c11-6.5 17.9-18.3 17.9-31.1h-7.7zm-17.7-.4c0-2.2-.7-4.2-1.9-6l14-10.1c3.4 4.7 5.2 10.3 5.2 16.1H88.2z" class="st7"/>
  <path d="M86.1 68.6c-1.3-1.7-3.1-3-5.1-3.7l5.3-16.4c5.5 1.8 10.3 5.3 13.7 10L86.1 68.6z" class="st8"/>
  <path d="M80.5 64.8c-2-.6-4.2-.5-6.3.2l-5.3-16.6c5.5-1.7 11.4-1.7 16.9 0l-5.3 16.4z" class="st7"/>
  <path d="M68.8 68.6c1.3-1.7 3.1-3 5.1-3.7l-5.3-16.5c-5.5 1.8-10.3 5.3-13.7 10l13.9 10.2z" class="st8"/>
  <path d="M66.6 74.9c0-2.2.7-4.2 1.9-6l-14-10.1c-3.4 4.7-5.2 10.3-5.2 16.1h17.3z" class="st7"/>
  <path d="M68.8 81.7c1.3 1.7 3.1 3 5.1 3.7l-5.3 16.4c-5.5-1.8-10.3-5.3-13.7-10l13.9-10.1zm17.3 0c-1.3 1.7-3.1 3-5.1 3.7l5.3 16.4c5.5-1.8 10.3-5.3 13.7-10L86.1 81.7z" class="st8"/>
  <path d="M80.5 85.5c-2 .6-4.2.5-6.3-.2l-5.3 16.6c5.5 1.7 11.4 1.7 16.9 0l-5.3-16.4zM66.6 75.3c0 2.2.7 4.2 1.9 6l-14 10.1c-3.4-4.7-5.2-10.3-5.2-16.1h17.3zm21.6 0c0 2.2-.7 4.2-1.9 6l14 10.1c3.4-4.7 5.2-10.3 5.2-16.1H88.2z" class="st7"/>
  <circle cx="77.4" cy="75.1" r="10.4" fill="#ddd"/>
  <circle cx="77.4" cy="75.1" r=".9" fill="#efeeee"/>
  <path fill="#040000" d="M116.3 75.1C104.7 88 77.9 92.8 56.4 85.9c-7.6-2.5-13.8-6.2-17.9-10.8C50.1 96.6 76.9 104.6 98.4 93c7.6-4.1 13.8-10.3 17.9-17.9z" opacity=".04"/>
  <path fill="#040000" d="M116.3 75.1c-11.6 30.1-38.4 41.3-59.9 25.1-7.6-5.7-13.8-14.4-17.9-25.1C50.1 96.6 76.9 104.6 98.4 93c7.6-4.1 13.8-10.3 17.9-17.9z" opacity=".07"/>
  <path fill="#040000" d="M116.3 75.1c-11.6 30.1-38.4 41.3-59.9 25.1-7.6-5.7-13.8-14.4-17.9-25.1 0 21.5 17.4 38.9 38.9 38.9s38.9-17.4 38.9-38.9z" opacity=".1"/>
</svg>
