<svg xmlns="http://www.w3.org/2000/svg" id="图层_1" viewBox="0 0 150 150">
  <style>
    .st0{fill:#185cab}.st1{fill:#036eb8}.st2{fill:#c9caca}.st3,.st5{fill:none;stroke:#fff;stroke-miterlimit:10}.st5{stroke:#154290;stroke-linecap:round}.st6{fill:#dcdddd}
  </style>
  <path d="M114.6 21.4H35.4c-.4 0-.7-.3-.7-.7v-1.9c0-.4.3-.7.7-.7h79.2c.4 0 .7.3.7.7v1.9c0 .4-.3.7-.7.7z" class="st0"/>
  <path d="M110.6 133.5H39.4c-2.6 0-4.7-2.1-4.7-4.7V42.2c0-2.6 2.1-4.7 4.7-4.7h71.2c2.6 0 4.7 2.1 4.7 4.7v86.6c0 2.6-2.1 4.7-4.7 4.7z" class="st1"/>
  <path d="M114.6 37.5H35.4c-.4 0-.7-.3-.7-.7v-1.9c0-.4.3-.7.7-.7h79.2c.4 0 .7.3.7.7v1.9c0 .3-.3.7-.7.7z" class="st0"/>
  <path d="M34.7 20.6h80.7v14.2H34.7z" class="st1"/>
  <circle cx="75" cy="27.7" r="5.1" class="st2"/>
  <path d="M69.9 27.7h10.2M75 32.8V22.7" class="st3"/>
  <circle cx="100.8" cy="27.7" r="5.1" class="st2"/>
  <path d="M95.7 27.7h10.1M100.8 32.8V22.7" class="st3"/>
  <g>
    <circle cx="47.6" cy="27.7" r="5.1" class="st2"/>
    <path d="M42.6 27.7h10.1M47.6 32.8V22.7" class="st3"/>
  </g>
  <circle cx="75" cy="82.7" r="2.9" fill="#15469b"/>
  <path d="M61.3 21.5v11.2M88.3 21.4v11.2" class="st5"/>
  <g>
    <path d="M42.6 86.4h8.6v3.8c0 .8-.1 1.3-.2 1.7s-.4.7-.8 1-.8.4-1.3.4c-.6 0-1.1-.2-1.5-.6s-.7-1-.8-1.8c-.1.3-.3.5-.4.7-.3.3-.7.6-1.1.9L42.6 94v-1.4l1.8-1.1c.5-.3.9-.6 1.2-.8s.5-.4.6-.6.2-.3.2-.5v-1.9h-3.8v-1.3zm4.8 1.2V90c0 .5.1.9.2 1.2s.3.5.5.7.5.2.8.2c.4 0 .7-.1 1-.4s.4-.8.4-1.4v-2.7h-2.9zM42.6 95.1h8.6v6.2h-1v-5.1h-2.6v4.8h-1v-4.8h-2.9v5.3h-1v-6.4zM42.6 102.1l8.6 3.3v1.2l-8.6 3.5v-1.3l2.6-1v-3.6l-2.6-.9v-1.2zm3.5 2.5v2.9l2.4-.9c.7-.3 1.3-.5 1.8-.6-.6-.1-1.1-.3-1.6-.5l-2.6-.9zM42.6 111h8.6v1.1h-7.6v4.2h-1V111zM42.6 119.3h3.6l5-3.3v1.4l-2.6 1.7-1.5.9c.4.3 1 .6 1.5.9l2.5 1.7v1.3l-5-3.4h-3.6v-1.2z" class="st6"/>
  </g>
</svg>
