<svg xmlns="http://www.w3.org/2000/svg" viewBox="0 0 150 150">
  <style>
    .st1{display:inline;fill:none;stroke:#231815;stroke-miterlimit:10}.st5{fill:#3e3a39}.st6{fill:#9e9e9f}.st7{fill:#b28146}.st11{fill:#fff;stroke:#c8c9ca;stroke-miterlimit:10}.st12{fill:#dbdcdc}.st13{fill:none;stroke:#fff;stroke-width:2;stroke-miterlimit:10}.st15{fill:#fff}
  </style>
  <g id="图层_5">
    <path id="XMLID_1_" fill="#0d8f95" d="M28.8 13.9h92.3v122.2H28.8z" transform="rotate(-180 75 75)"/>
    <circle id="XMLID_3_" cx="74.2" cy="51.1" r=".8" fill="#fff" stroke="#fff" stroke-miterlimit="10"/>
    <path id="XMLID_138_" fill="none" stroke="#008384" stroke-linecap="round" stroke-miterlimit="10" d="M76.1 24.1h33.8l1 1.1v56.6l-1 .9H98.1l-9.6-9.6H61.1l-10.4 9.6H40.1l-.7-.8V25l1.1-1.1h31.6l3.2-2H111l1.8 1.9v58.8l-1.9 1.9-71.6-.1-2-1.9.1-58.5 1.8-1.9h32.4l3.3-2.2H112l2.6 2.5-.1 61.2-2.9 2.8H38.5l-3.3-3.1.1-60.5 2.8-2.8h33.1l3-2.1h38.7l3.5 3.5v63l-4.4 4.3H37.6L33 84V21.5l3.6-3.6h33.9"/>
    <path id="XMLID_4_" d="M69.2 105h9.9v10.1h-9.9z" class="st5" transform="rotate(-180 74.185 109.993)"/>
    <path id="XMLID_6_" d="M44.4 121.3h2.2v4.2h-2.2z" class="st6" transform="rotate(-180 45.542 123.43)"/>
    <path id="XMLID_7_" d="M44.4 112.4h2.2v4.1h-2.2z" class="st6" transform="rotate(-180 45.542 114.406)"/>
    <path id="XMLID_11_" d="M54.2 95.5h6v2.4h-6z" class="st7" transform="rotate(-180 57.202 96.692)"/>
    <path id="XMLID_42_" fill="silver" d="M41.3 110.5v14.9c0 1.8-1.6 3.2-3.5 3.2s-3.5-1.4-3.5-3.2v-14.9c0-1.8 1.6-3.2 3.5-3.2 2 .1 3.5 1.5 3.5 3.2z"/>
    <path id="XMLID_5_" d="M54.2 101.7h6v2.4h-6z" class="st5" transform="rotate(-180 57.202 102.9)"/>
    <path id="XMLID_8_" d="M54.2 107.9h6v2.4h-6z" class="st5" transform="rotate(-180 57.202 109.108)"/>
    <path id="XMLID_9_" d="M54.2 114.1h6v2.4h-6z" class="st7" transform="rotate(-180 57.202 115.315)"/>
    <path id="XMLID_10_" d="M89.6 103.5h6v2.4h-6z" class="st6" transform="rotate(-180 92.585 104.714)"/>
    <path id="XMLID_12_" d="M89.6 110h6v2.4h-6z" class="st6" transform="rotate(-180 92.585 111.253)"/>
    <path id="XMLID_13_" d="M89.6 116.6h6v2.4h-6z" class="st5" transform="rotate(-180 92.585 117.793)"/>
    <path id="XMLID_14_" d="M89.6 123.1h6v2.4h-6z" class="st7" transform="rotate(-180 92.585 124.332)"/>
    <path id="XMLID_15_" d="M103.6 111.1h6v2.4h-6z" class="st5" transform="rotate(-180 106.654 112.36)"/>
    <path id="XMLID_16_" d="M103.6 116.4h6v2.4h-6z" class="st5" transform="rotate(-180 106.654 117.565)"/>
    <path id="XMLID_17_" d="M103.6 121.6h6v2.4h-6z" class="st5" transform="rotate(-180 106.654 122.771)"/>
    <path id="XMLID_18_" fill="#c8c9ca" d="M103.6 126.8h6v2.4h-6z" transform="rotate(-180 106.654 127.977)"/>
    <path id="XMLID_19_" fill="none" stroke="#fff" stroke-miterlimit="10" d="M51.7 129.4H98v5.1H51.7z"/>
    <ellipse id="XMLID_67_" cx="115.2" cy="93.9" class="st11" rx="3.1" ry="3.2"/>
    <circle id="XMLID_64_" cx="34.9" cy="93.9" r="3.2" class="st11"/>
    <ellipse id="XMLID_62_" cx="44.5" cy="29.3" class="st11" rx="3.1" ry="3.2"/>
    <ellipse id="XMLID_56_" cx="105.9" cy="29.3" class="st11" rx="3.1" ry="3.2"/>
    <circle id="XMLID_55_" cx="55.3" cy="132" r="1.2" class="st12"/>
    <circle id="XMLID_54_" cx="94.5" cy="132" r="1.2" class="st12"/>
    <circle id="XMLID_53_" cx="60.9" cy="132" r="1.2" class="st12"/>
    <circle id="XMLID_52_" cx="66.5" cy="132" r="1.2" class="st12"/>
    <circle id="XMLID_51_" cx="72.1" cy="132" r="1.2" class="st12"/>
    <circle id="XMLID_50_" cx="77.7" cy="132" r="1.2" class="st12"/>
    <circle id="XMLID_49_" cx="83.3" cy="132" r="1.2" class="st12"/>
    <circle id="XMLID_48_" cx="88.9" cy="132" r="1.2" class="st12"/>
    <path id="XMLID_47_" d="M71.5 53.8c-.7-.7-1.1-1.7-1.1-2.7s.4-2 1.1-2.7" class="st13"/>
    <path id="XMLID_46_" d="M76.9 48.4c.7.7 1.1 1.7 1.1 2.7 0 1.1-.4 2-1.1 2.7" class="st13"/>
    <path id="XMLID_45_" d="M67.4 57.9c-1.6-1.7-2.7-4-2.7-6.6 0-2.7 1.1-5.1 2.9-6.8" class="st13"/>
    <path id="XMLID_41_" d="M80.7 44.5c1.8 1.7 2.9 4.1 2.9 6.8 0 2.6-1 4.9-2.7 6.6" class="st13"/>
    <path id="XMLID_40_" d="M63.8 61.5c-2.6-2.6-4.1-6.2-4.1-10.2 0-4 1.6-7.7 4.3-10.3l.1-.1" class="st13"/>
    <path id="XMLID_39_" d="M84.4 40.9c2.7 2.6 4.4 6.3 4.4 10.4 0 4-1.6 7.6-4.2 10.2" class="st13"/>
    <path id="XMLID_38_" d="M60.1 65.2c-3.6-3.6-5.8-8.6-5.8-14.1s2.2-10.5 5.8-14.1" class="st13"/>
    <path id="XMLID_37_" d="M88.3 37c3.6 3.6 5.9 8.6 5.9 14.1S92 61.6 88.4 65.2" class="st13"/>
    <path id="XMLID_36_" d="M56.5 68.8C52 64.3 49.2 58 49.2 51.1S52 38 56.5 33.5" class="st13"/>
    <path id="XMLID_35_" d="M91.9 33.4c4.5 4.5 7.3 10.8 7.3 17.7 0 6.9-2.8 13.1-7.3 17.7" class="st13"/>
    <path id="XMLID_33_" d="M53.5 71.8c-5.3-5.3-8.6-12.6-8.6-20.7s3.3-15.4 8.6-20.7" class="st13"/>
    <path id="XMLID_32_" d="M94.9 30.4c5.3 5.3 8.6 12.6 8.6 20.7s-3.3 15.4-8.6 20.7" class="st13"/>
    <path d="M90.3 27v4h-1.8c-.4 0-.6 0-.8-.1-.2-.1-.3-.2-.4-.4-.1-.2-.2-.4-.2-.6 0-.3.1-.5.3-.7.2-.2.5-.3.9-.4-.1-.1-.2-.1-.3-.2-.2-.1-.3-.3-.4-.5l-.9-1.1h.7l.5.8c.2.2.3.4.4.6s.2.2.3.3c.1.1.2.1.2.1H89.7V27h.6zm-.6 2.2h-1.1c-.2 0-.4 0-.6.1-.1.1-.2.1-.3.2-.1.1-.1.2-.1.4s.1.3.2.5c.1.1.4.2.7.2h1.3v-1.4zM86.2 27v4h-2.7v-.5h2.2v-1.2h-1.9v-.5h1.9V27h.5zM82.7 27v4h-.5v-4h.5zM81.2 27v4h-1.4c-.3 0-.6 0-.7-.1-.2-.1-.4-.1-.6-.3-.2-.2-.4-.4-.5-.7-.1-.3-.2-.6-.2-1 0-.3 0-.6.1-.8l.3-.6c.1-.2.2-.3.4-.4.1-.1.3-.2.5-.2s.4-.1.6-.1h1.5zm-.5.4h-.9c-.3 0-.5 0-.6.1-.2 0-.3.1-.4.2-.1.1-.2.3-.3.5-.1.2-.1.5-.1.8 0 .4.1.7.2 1 .1.2.3.4.5.5.1.1.4.1.7.1h.8v-3.2zM77.4 28.2v.5h-1.5v-.5h1.5zM75.3 27v4h-1.8c-.4 0-.6 0-.8-.1-.2-.1-.3-.2-.4-.4-.1-.2-.2-.4-.2-.6 0-.3.1-.5.3-.7.2-.2.5-.3.9-.4-.1-.1-.2-.1-.3-.2-.2-.1-.3-.3-.4-.5l-.9-1.1h.7l.5.8c.2.2.3.4.4.6l.3.3c.1.1.2.1.2.1H74.7V27h.6zm-.6 2.2h-1.1c-.2 0-.4 0-.6.1-.1.1-.2.1-.3.2-.1.1-.1.2-.1.4s.1.3.2.5c.1.1.4.2.7.2h1.3v-1.4zM68.3 28.4l-.5-.1c.1-.4.3-.8.6-1 .3-.2.6-.3 1.1-.3.4 0 .8.1 1.1.3.3.2.5.4.6.8.1.3.2.7.2 1.1 0 .4-.1.8-.2 1.1-.2.3-.4.5-.7.7-.3.2-.6.2-1 .2s-.7-.1-1-.3c-.3-.2-.5-.5-.6-.9l.5-.1c.1.3.2.5.4.6s.4.2.7.2c.3 0 .6-.1.8-.2.2-.1.4-.3.4-.6.1-.3.1-.5.1-.8 0-.3 0-.6-.1-.9-.1-.3-.3-.4-.5-.6s-.4-.2-.7-.2c-.3 0-.6.1-.8.3-.2.1-.3.3-.4.7zM67.3 28h-.5c0-.3-.1-.4-.3-.6-.1-.1-.3-.2-.5-.2s-.4.1-.6.3c-.2.2-.2.4-.2.7 0 .3.1.5.2.7.2.2.4.2.6.2.2 0 .3 0 .4-.1l.3-.3.5.1-.4 2.1h-2v-.5h1.6l.2-1.1c-.2.2-.5.3-.8.3-.4 0-.6-.1-.9-.4s-.4-.6-.4-.9c0-.4.1-.7.3-.9.3-.3.6-.5 1.1-.5.4 0 .7.1.9.3.4.2.5.5.5.8zM61.6 27.4V27h2.7c0 .1 0 .2-.1.3-.1.2-.2.4-.3.5-.1.2-.4.4-.6.6-.4.4-.7.6-.9.9-.2.2-.2.4-.2.6 0 .2.1.4.2.5.1.1.3.2.5.2s.4-.1.6-.2.2-.3.2-.6l.5.1c0 .4-.2.7-.4.9-.2.2-.5.3-.9.3s-.7-.1-.9-.3-.3-.5-.3-.8c0-.2 0-.3.1-.5s.2-.3.3-.5c.2-.2.4-.4.8-.7.3-.2.5-.4.6-.5.1-.1.2-.2.2-.3h-2.1zM58.5 27.4V27h2.7c0 .1 0 .2-.1.3-.1.2-.2.4-.3.5-.1.2-.4.4-.6.6-.4.4-.7.6-.9.9-.2.2-.2.4-.2.6 0 .2.1.4.2.5.1.1.3.2.5.2s.4-.1.6-.2c.1-.1.2-.3.2-.6l.5.1c0 .4-.2.7-.4.9-.2.2-.5.3-.9.3s-.7-.1-.9-.3c-.2-.2-.3-.5-.3-.8 0-.2 0-.3.1-.5s.2-.3.3-.5c.2-.2.4-.4.8-.7.3-.2.5-.4.6-.5.1-.1.2-.2.2-.3h-2.1z" class="st15"/>
    <path id="XMLID_22_" d="M62.6 70.9h1.9v4.5h-1.9z" class="st6"/>
    <path id="XMLID_23_" d="M66.9 70.9h1.9v4.5h-1.9z" class="st6"/>
    <path id="XMLID_24_" d="M71.1 70.9H73v4.5h-1.9z" class="st6"/>
    <path id="XMLID_25_" d="M75.4 70.9h1.9v4.5h-1.9z" class="st6"/>
    <path id="XMLID_26_" d="M79.6 70.9h1.9v4.5h-1.9z" class="st6"/>
    <path id="XMLID_27_" d="M83.9 70.9h1.9v4.5h-1.9z" class="st6"/>
  </g>
</svg>
