<?xml version="1.0" encoding="UTF-8"?>
<svg width="150px" height="150px" viewBox="0 0 150 150" version="1.1" xmlns="http://www.w3.org/2000/svg" xmlns:xlink="http://www.w3.org/1999/xlink">
    <!-- Generator: Sketch 46.1 (44463) - http://www.bohemiancoding.com/sketch -->
    <title>rtc</title>
    <desc>Created with Sketch.</desc>
    <defs>
        <linearGradient x1="50%" y1="-0.202678571%" x2="50%" y2="100.24375%" id="linearGradient-1">
            <stop stop-color="#9C9C9C" offset="0%"></stop>
            <stop stop-color="#4D4D4D" offset="100%"></stop>
        </linearGradient>
    </defs>
    <g id="Page-1" stroke="none" stroke-width="1" fill="none" fill-rule="evenodd">
        <g id="rtc">
            <path d="M77.0407407,51.5855263 C74.5703704,51.5855263 72.5296296,53.6105263 72.5296296,56.0618421 L72.5296296,61.9236842 C66.7296296,55.5289474 58.3518519,51.5855263 49.0074074,51.5855263 C31.5,51.5855263 17.3222222,65.6539474 17.3222222,83.0263158 C17.3222222,100.398684 31.5,114.467105 49.0074074,114.467105 C58.3518519,114.467105 66.7296296,110.417105 72.5296296,104.128947 L72.5296296,109.990789 C72.5296296,112.442105 74.5703704,114.467105 77.0407407,114.467105 C79.5111111,114.467105 81.5518519,112.442105 81.5518519,109.990789 L81.5518519,56.0618421 C81.6592593,53.6105263 79.5111111,51.5855263 77.0407407,51.5855263 Z" id="Shape" fill="#84899D"></path>
            <ellipse id="Oval" fill="#D7DAE5" cx="49.0074074" cy="83.0263158" rx="27.6037037" ry="27.3907895"></ellipse>
            <path d="M52.9814815,63.9486842 L49.6518519,63.9486842 L49.6518519,60.6447368 C49.6518519,60.2184211 49.3296296,60.0052632 49.0074074,60.0052632 C48.6851852,60.0052632 48.362963,60.325 48.362963,60.6447368 L48.362963,63.9486842 L45.0333333,63.9486842 C44.6037037,63.9486842 44.3888889,64.2684211 44.3888889,64.5881579 C44.3888889,65.0144737 44.7111111,65.2276316 45.0333333,65.2276316 L48.362963,65.2276316 L48.362963,68.5315789 C48.362963,68.9578947 48.6851852,69.1710526 49.0074074,69.1710526 C49.3296296,69.1710526 49.6518519,68.8513158 49.6518519,68.5315789 L49.6518519,65.2276316 L52.9814815,65.2276316 C53.4111111,65.2276316 53.6259259,64.9078947 53.6259259,64.5881579 C53.6259259,64.2684211 53.3037037,63.9486842 52.9814815,63.9486842 Z" id="Shape" fill="#84899D" fill-rule="nonzero"></path>
            <path d="M46.4296296,101.038158 C46.7518519,100.825 47.0740741,100.611842 47.2888889,100.292105 C47.5037037,99.9723684 47.6111111,99.6526316 47.6111111,99.2263158 C47.6111111,98.4802632 47.3962963,97.9473684 46.9666667,97.5210526 C46.537037,97.0947368 45.8925926,96.8815789 45.0333333,96.8815789 C44.4962963,96.8815789 44.0666667,96.9881579 43.7444444,97.2013158 C43.3148148,97.4144737 42.9925926,97.6276316 42.7777778,97.9473684 C42.562963,98.2671053 42.4555556,98.6934211 42.4555556,99.1197368 L43.8518519,99.1197368 C43.8518519,98.8 43.9592593,98.4802632 44.1740741,98.2671053 C44.3888889,98.0539474 44.7111111,97.9473684 45.0333333,97.9473684 C45.462963,97.9473684 45.7851852,98.0539474 46,98.2671053 C46.2148148,98.4802632 46.3222222,98.8 46.3222222,99.1197368 C46.3222222,99.5460526 46.2148148,99.8657895 46,100.078947 C45.7851852,100.292105 45.462963,100.398684 45.0333333,100.398684 L44.1740741,100.398684 L44.1740741,101.464474 L44.9259259,101.464474 C45.462963,101.464474 45.7851852,101.571053 46,101.784211 C46.2148148,101.997368 46.4296296,102.317105 46.4296296,102.743421 C46.4296296,103.169737 46.3222222,103.489474 46.1074074,103.702632 C45.8925926,103.915789 45.5703704,104.022368 45.1407407,104.022368 C44.7111111,104.022368 44.3888889,103.915789 44.1740741,103.702632 C43.9592593,103.489474 43.8518519,103.169737 43.8518519,102.85 L42.4555556,102.85 C42.4555556,103.489474 42.6703704,104.128947 43.2074074,104.448684 C43.7444444,104.875 44.3888889,105.088158 45.1407407,105.088158 C46,105.088158 46.6444444,104.875 47.0740741,104.448684 C47.6111111,104.022368 47.8259259,103.489474 47.8259259,102.743421 C47.8259259,102.317105 47.7185185,101.890789 47.5037037,101.571053 C47.1814815,101.357895 46.8592593,101.144737 46.4296296,101.038158 Z" id="Shape" fill="#84899D" fill-rule="nonzero"></path>
            <polygon id="Shape" fill="#84899D" fill-rule="nonzero" points="54.162963 97.0947368 52.1222222 103.382895 50.0814815 97.0947368 48.4703704 97.0947368 51.3703704 105.088158 52.7666667 105.088158 55.6666667 97.0947368"></polygon>
            <path d="M77.4703704,110.417105 L77.362963,110.417105 C76.7185185,110.417105 76.1814815,109.884211 76.1814815,109.244737 L76.1814815,56.8078947 C76.1814815,56.1684211 76.7185185,55.6355263 77.362963,55.6355263 L77.4703704,55.6355263 C78.1148148,55.6355263 78.6518519,56.1684211 78.6518519,56.8078947 L78.6518519,109.244737 C78.6518519,109.884211 78.1148148,110.417105 77.4703704,110.417105 Z" id="Shape" fill="#FFB53D"></path>
            <path d="M93.0444444,52.0118421 C92.1851852,52.0118421 91.4333333,54.6763158 91.4333333,57.9802632 C91.4333333,61.2842105 92.1851852,63.9486842 93.0444444,63.9486842 L131.496296,63.9486842 L131.496296,52.0118421 L93.0444444,52.0118421 L93.0444444,52.0118421 Z" id="Shape" fill="#525260"></path>
            <ellipse id="Oval" fill="url(#linearGradient-1)" cx="131.388889" cy="57.9802632" rx="1.18148148" ry="5.96842105"></ellipse>
            <path d="M94.9777778,96.9881579 L94.5481481,96.9881579 C94.1185185,96.9881579 93.6888889,96.5618421 93.6888889,96.1355263 L93.6888889,91.6592105 C93.6888889,91.2328947 94.1185185,90.8065789 94.5481481,90.8065789 L94.9777778,90.8065789 C95.4074074,90.8065789 95.837037,91.2328947 95.837037,91.6592105 L95.837037,96.1355263 C95.837037,96.6684211 95.5148148,96.9881579 94.9777778,96.9881579 Z" id="Shape" fill="#D7DAE5"></path>
            <path d="M101.422222,96.9881579 L100.992593,96.9881579 C100.562963,96.9881579 100.133333,96.5618421 100.133333,96.1355263 L100.133333,91.6592105 C100.133333,91.2328947 100.562963,90.8065789 100.992593,90.8065789 L101.422222,90.8065789 C101.851852,90.8065789 102.281481,91.2328947 102.281481,91.6592105 L102.281481,96.1355263 C102.281481,96.6684211 101.959259,96.9881579 101.422222,96.9881579 Z" id="Shape" fill="#D7DAE5"></path>
            <path d="M107.866667,96.9881579 L107.437037,96.9881579 C107.007407,96.9881579 106.577778,96.5618421 106.577778,96.1355263 L106.577778,91.6592105 C106.577778,91.2328947 107.007407,90.8065789 107.437037,90.8065789 L107.866667,90.8065789 C108.296296,90.8065789 108.725926,91.2328947 108.725926,91.6592105 L108.725926,96.1355263 C108.725926,96.6684211 108.403704,96.9881579 107.866667,96.9881579 Z" id="Shape" fill="#D7DAE5"></path>
            <path d="M114.311111,96.9881579 L113.881481,96.9881579 C113.451852,96.9881579 113.022222,96.5618421 113.022222,96.1355263 L113.022222,91.6592105 C113.022222,91.2328947 113.451852,90.8065789 113.881481,90.8065789 L114.311111,90.8065789 C114.740741,90.8065789 115.17037,91.2328947 115.17037,91.6592105 L115.17037,96.1355263 C115.17037,96.6684211 114.848148,96.9881579 114.311111,96.9881579 Z" id="Shape" fill="#D7DAE5"></path>
            <path d="M94.9777778,77.4842105 L94.5481481,77.4842105 C94.1185185,77.4842105 93.6888889,77.0578947 93.6888889,76.6315789 L93.6888889,72.1552632 C93.6888889,71.7289474 94.1185185,71.3026316 94.5481481,71.3026316 L94.9777778,71.3026316 C95.4074074,71.3026316 95.837037,71.7289474 95.837037,72.1552632 L95.837037,76.6315789 C95.837037,77.0578947 95.5148148,77.4842105 94.9777778,77.4842105 Z" id="Shape" fill="#D7DAE5"></path>
            <path d="M101.422222,77.4842105 L100.992593,77.4842105 C100.562963,77.4842105 100.133333,77.0578947 100.133333,76.6315789 L100.133333,72.1552632 C100.133333,71.7289474 100.562963,71.3026316 100.992593,71.3026316 L101.422222,71.3026316 C101.851852,71.3026316 102.281481,71.7289474 102.281481,72.1552632 L102.281481,76.6315789 C102.281481,77.0578947 101.959259,77.4842105 101.422222,77.4842105 Z" id="Shape" fill="#D7DAE5"></path>
            <path d="M107.866667,77.4842105 L107.437037,77.4842105 C107.007407,77.4842105 106.577778,77.0578947 106.577778,76.6315789 L106.577778,72.1552632 C106.577778,71.7289474 107.007407,71.3026316 107.437037,71.3026316 L107.866667,71.3026316 C108.296296,71.3026316 108.725926,71.7289474 108.725926,72.1552632 L108.725926,76.6315789 C108.725926,77.0578947 108.403704,77.4842105 107.866667,77.4842105 Z" id="Shape" fill="#D7DAE5"></path>
            <path d="M114.311111,77.4842105 L113.881481,77.4842105 C113.451852,77.4842105 113.022222,77.0578947 113.022222,76.6315789 L113.022222,72.1552632 C113.022222,71.7289474 113.451852,71.3026316 113.881481,71.3026316 L114.311111,71.3026316 C114.740741,71.3026316 115.17037,71.7289474 115.17037,72.1552632 L115.17037,76.6315789 C115.17037,77.0578947 114.848148,77.4842105 114.311111,77.4842105 Z" id="Shape" fill="#D7DAE5"></path>
            <rect id="Rectangle-path" fill="#525260" x="92.6148148" y="76.4184211" width="23.4148148" height="15.4539474"></rect>
            <path d="M94.8703704,114.147368 L94.8703704,114.147368 C93.9037037,114.147368 93.0444444,113.294737 93.0444444,112.335526 L93.0444444,105.940789 C93.0444444,104.981579 93.9037037,104.128947 94.8703704,104.128947 L94.8703704,104.128947 C95.837037,104.128947 96.6962963,104.981579 96.6962963,105.940789 L96.6962963,112.335526 C96.6962963,113.294737 95.9444444,114.147368 94.8703704,114.147368 Z" id="Shape" fill="#D7DAE5" fill-rule="nonzero"></path>
            <rect id="Rectangle-path" fill="#525260" fill-rule="nonzero" x="93.0444444" y="105.940789" width="3.65185185" height="6.39473684"></rect>
            <path d="M102.281481,114.147368 L102.281481,114.147368 C101.314815,114.147368 100.455556,113.294737 100.455556,112.335526 L100.455556,105.940789 C100.455556,104.981579 101.314815,104.128947 102.281481,104.128947 L102.281481,104.128947 C103.248148,104.128947 104.107407,104.981579 104.107407,105.940789 L104.107407,112.335526 C104.107407,113.294737 103.248148,114.147368 102.281481,114.147368 Z" id="Shape" fill="#D7DAE5" fill-rule="nonzero"></path>
            <rect id="Rectangle-path" fill="#525260" fill-rule="nonzero" x="100.455556" y="105.940789" width="3.65185185" height="6.39473684"></rect>
            <path d="M109.585185,114.147368 L109.585185,114.147368 C108.618519,114.147368 107.759259,113.294737 107.759259,112.335526 L107.759259,105.940789 C107.759259,104.981579 108.618519,104.128947 109.585185,104.128947 L109.585185,104.128947 C110.551852,104.128947 111.411111,104.981579 111.411111,105.940789 L111.411111,112.335526 C111.411111,113.294737 110.659259,114.147368 109.585185,114.147368 Z" id="Shape" fill="#D7DAE5" fill-rule="nonzero"></path>
            <rect id="Rectangle-path" fill="#525260" fill-rule="nonzero" x="107.759259" y="105.940789" width="3.65185185" height="6.39473684"></rect>
            <path d="M116.996296,114.147368 L116.996296,114.147368 C116.02963,114.147368 115.17037,113.294737 115.17037,112.335526 L115.17037,105.940789 C115.17037,104.981579 116.02963,104.128947 116.996296,104.128947 L116.996296,104.128947 C117.962963,104.128947 118.822222,104.981579 118.822222,105.940789 L118.822222,112.335526 C118.822222,113.294737 117.962963,114.147368 116.996296,114.147368 Z" id="Shape" fill="#D7DAE5" fill-rule="nonzero"></path>
            <rect id="Rectangle-path" fill="#525260" fill-rule="nonzero" x="115.062963" y="105.940789" width="3.65185185" height="6.39473684"></rect>
            <path d="M124.3,114.147368 L124.3,114.147368 C123.333333,114.147368 122.474074,113.294737 122.474074,112.335526 L122.474074,105.940789 C122.474074,104.981579 123.333333,104.128947 124.3,104.128947 L124.3,104.128947 C125.266667,104.128947 126.125926,104.981579 126.125926,105.940789 L126.125926,112.335526 C126.125926,113.294737 125.266667,114.147368 124.3,114.147368 Z" id="Shape" fill="#D7DAE5" fill-rule="nonzero"></path>
            <rect id="Rectangle-path" fill="#525260" fill-rule="nonzero" x="122.474074" y="105.940789" width="3.65185185" height="6.39473684"></rect>
            <path d="M122.474074,89.1013158 L122.474074,89.1013158 C121.507407,89.1013158 120.648148,88.2486842 120.648148,87.2894737 L120.648148,80.8947368 C120.648148,79.9355263 121.507407,79.0828947 122.474074,79.0828947 L122.474074,79.0828947 C123.440741,79.0828947 124.3,79.9355263 124.3,80.8947368 L124.3,87.2894737 C124.3,88.3552632 123.440741,89.1013158 122.474074,89.1013158 Z" id="Shape" fill="#D7DAE5" fill-rule="nonzero"></path>
            <rect id="Rectangle-path" fill="#525260" fill-rule="nonzero" x="120.648148" y="80.8947368" width="3.65185185" height="6.39473684"></rect>
        </g>
    </g>
</svg>
