<svg xmlns="http://www.w3.org/2000/svg" viewBox="0 0 150 150">
  <style>
    .st1{fill:#edcc92}.st2{fill:#fff}
  </style>
  <g id="图层_2">
    <path fill="#333" d="M100.9 14.9c-.4-.5-1.1-.4-1.1-.4h-49s-1-.2-1.5.4c-.6.7-.8 1.2-.8 1.2v29.6h15.8c0-6 4.9-10.9 10.9-10.9S86 39.5 86.1 45.5l15.2-.1V16.1s.2-.5-.4-1.2zm-47.2 6.2c-1.4 0-2.5-1.1-2.5-2.5s1.1-2.5 2.5-2.5 2.5 1.1 2.5 2.5-1.1 2.5-2.5 2.5zm43.2 0c-1.4 0-2.5-1.1-2.5-2.5s1.1-2.5 2.5-2.5 2.5 1.1 2.5 2.5-1.1 2.5-2.5 2.5z"/>
    <path d="M48.6 45.6v73l7.3 16.7s.3.3.6.3.6-.3.6-.3l7.3-16.7v-73H48.6zm3.7 71.7c-.3 0-.6-.2-.6-.5s.3-.5.6-.5.6.2.6.5c-.1.3-.3.5-.6.5zm0-15.2c-.3 0-.6-.2-.6-.5s.3-.5.6-.5.6.2.6.5c-.1.2-.3.5-.6.5zm0-13.8c-.3 0-.6-.2-.6-.5s.3-.5.6-.5.6.2.6.5c-.1.3-.3.5-.6.5zm0-15c-.3 0-.6-.2-.6-.5s.3-.5.6-.5.6.2.6.5c-.1.3-.3.5-.6.5zm0-15.4c-.3 0-.6-.2-.6-.5s.3-.5.6-.5.6.2.6.5c-.1.2-.3.5-.6.5zm4.4 74.1c-.3 0-.6-.2-.6-.5s.3-.5.6-.5.6.2.6.5c-.1.3-.3.5-.6.5zm0-14.7c-.3 0-.6-.2-.6-.5s.3-.5.6-.5.6.2.6.5c-.1.3-.3.5-.6.5zm0-15.2c-.3 0-.6-.2-.6-.5s.3-.5.6-.5.6.2.6.5c-.1.2-.3.5-.6.5zm0-13.8c-.3 0-.6-.2-.6-.5s.3-.5.6-.5.6.2.6.5c-.1.3-.3.5-.6.5zm0-15c-.3 0-.6-.2-.6-.5s.3-.5.6-.5.6.2.6.5c-.1.3-.3.5-.6.5zm0-15.4c-.3 0-.6-.2-.6-.5s.3-.5.6-.5.6.2.6.5c-.1.2-.3.5-.6.5zm4.3 59.4c-.3 0-.6-.2-.6-.5s.3-.5.6-.5.6.2.6.5-.3.5-.6.5zm0-15.2c-.3 0-.6-.2-.6-.5s.3-.5.6-.5.6.2.6.5c0 .2-.3.5-.6.5zm0-13.8c-.3 0-.6-.2-.6-.5s.3-.5.6-.5.6.2.6.5-.3.5-.6.5zm0-15c-.3 0-.6-.2-.6-.5s.3-.5.6-.5.6.2.6.5-.3.5-.6.5zm0-15.4c-.3 0-.6-.2-.6-.5s.3-.5.6-.5.6.2.6.5c0 .2-.3.5-.6.5zM86.1 45.4v73l7 16.7s.2.3.5.3.5-.3.5-.3l7-16.7v-73h-15zm3.5 71.7c-.3 0-.5-.2-.5-.5s.2-.5.5-.5.5.2.5.5c.1.3-.2.5-.5.5zm0-15.2c-.3 0-.5-.2-.5-.5s.2-.5.5-.5.5.2.5.5c.1.3-.2.5-.5.5zm0-13.7c-.3 0-.5-.2-.5-.5s.2-.5.5-.5.5.2.5.5c.1.2-.2.5-.5.5zm0-15c-.3 0-.5-.2-.5-.5s.2-.5.5-.5.5.2.5.5c.1.2-.2.5-.5.5zm0-15.5c-.3 0-.5-.2-.5-.5s.2-.5.5-.5.5.2.5.5c.1.3-.2.5-.5.5zm4.2 74.2c-.3 0-.5-.2-.5-.5s.2-.5.5-.5.5.2.5.5c.1.2-.2.5-.5.5zm0-14.8c-.3 0-.5-.2-.5-.5s.2-.5.5-.5.5.2.5.5c.1.3-.2.5-.5.5zm0-15.2c-.3 0-.5-.2-.5-.5s.2-.5.5-.5.5.2.5.5c.1.3-.2.5-.5.5zm0-13.7c-.3 0-.5-.2-.5-.5s.2-.5.5-.5.5.2.5.5c.1.2-.2.5-.5.5zm0-15c-.3 0-.5-.2-.5-.5s.2-.5.5-.5.5.2.5.5c.1.2-.2.5-.5.5zm0-15.5c-.3 0-.5-.2-.5-.5s.2-.5.5-.5.5.2.5.5c.1.3-.2.5-.5.5zm4.2 59.4c-.3 0-.5-.2-.5-.5s.2-.5.5-.5.5.2.5.5c.1.3-.2.5-.5.5zm0-15.2c-.3 0-.5-.2-.5-.5s.2-.5.5-.5.5.2.5.5c.1.3-.2.5-.5.5zm0-13.7c-.3 0-.5-.2-.5-.5s.2-.5.5-.5.5.2.5.5c.1.2-.2.5-.5.5zm0-15c-.3 0-.5-.2-.5-.5s.2-.5.5-.5.5.2.5.5c.1.2-.2.5-.5.5zm0-15.5c-.3 0-.5-.2-.5-.5s.2-.5.5-.5.5.2.5.5c.1.3-.2.5-.5.5z" class="st1"/>
    <path d="M63.4 28.7c.1.1.1.1 0 0 .1.1 0 .1 0 .1h-4.7c-.1 0-.3 0-.4.1l-.2-.2h2.6v-2.5h-1.6c-.1 0-.3 0-.4.1l-.2-.2h2.1v-1.4-.8l.5.2c.1 0 .1 0 .1.1l-.1.1H61V26h1.6l.3-.4.4.4v.1H61v2.5h1.8l.3-.4.3.5zM65.8 27.1l-1.2.8c-.2.1-.3.2-.3.3l-.3-.4.8-.4v-1.8h-.3c-.1 0-.3 0-.4.1l-.1-.1h.8v-1-.8l.4.2s.1 0 .1.1l-.2.1v1.4h.3l.2-.3.2.3v.1H65v1.7l.8-.3zm3.5 1.7c-.3 0-.5.1-.5.2-.8-.4-1.1-.8-1.4-1.5h-.1c-.1.1-.3.3-.5.4v.8l.8-.4v.1c-.6.4-.9.6-1 .7l-.4-.1c.2-.1.2-.1.2-.3v-.6c-.5.4-1 .7-1.5.9v-.1c.7-.4 1.5-1 1.9-1.5H66c-.1 0-.3 0-.4.1l-.2-.2H66.6V27h-.2c-.1 0-.3 0-.4.1l-.2-.2h.8v-.5h-.4c-.1 0-.3 0-.4.1l-.2-.2h.9v-.4l.5.1-.2.1v.1h.8v-.4h-.1v-.1V25.1v-.4l.2.2h.7l.1-.2.3.2v.1l-.1.1v.6c0 .1-.2.2-.2.2v-.2h-.7c0 .1 0 .1-.1.1l.3.1-.1.1v.2h.6l.2-.3.3.3h-1v.5h.4l.2-.2.3.3H68v.5h.7l.2-.3.3.3h-1.9c.1.3.3.6.5.7.2-.2.6-.4.7-.6l.3.2v.1h-.1c-.1 0-.4.1-.9.3.4.6.8.7 1.5.8zm-.1-4.3s0 .1 0 0l-3.1.1c-.1 0-.3 0-.4.1l-.2-.2h3.1l.2-.3.4.3zm-2 .5c0 .1 0 .1 0 0l-.1.2v.6c0 .1-.2.1-.2.1v-.2h-.7v.1c0 .1 0 .1-.1.1H66s-.1 0-.1-.1V25v-.4l.3.2h.6l.1-.2.3.4zm-.3.6V25h-.7v.6h.7zm.8 1.3v-.5h-.8v.5h.8zm0 .5V27h-.8v.5h.8zm-.7-3.7c.5.2.6.4.6.5 0 .1-.1.2-.2.2s-.1 0-.1-.1c-.1-.1-.2-.4-.3-.6zm1.5 1.9V25h-.7v.6h.7zM69.7 25.3c.6.1.9.4.9.7 0 .1 0 .2-.1.2l-.1-.1c-.1-.3-.3-.5-.7-.8zm1.9-.9l-.8 2.8c-.1.2-.1.4-.1.6 0 .2 0 .5.1.8v.2c0 .2-.1.3-.2.3s-.2-.1-.2-.2v-.1c0-.2.1-.4.1-.6 0-.2 0-.4-.1-.5 0 0-.2-.1-.5-.1v-.1c.6 0 .7-.1.7-.3.4-1.1.6-1.7 1-2.8zm-1.5-.4c.5.1.8.2.9.4 0 .1.1.1.1.2s-.1.2-.1.2c-.1 0-.1-.1-.2-.2s-.3-.3-.7-.6zm5 4.6c.1 0 .1 0 0 0 .1.1 0 .1 0 .1h-3.5c-.1 0-.3 0-.4.1l-.2-.2h1.5v-1.7-.8l.4.2s.1 0 .1.1l-.2.1v2.1h.6v-1.8-.8l.4.2s.1 0 .1.1l-.2.1v1.5c.3-.5.7-1.1.8-1.4l.3.2v.1h-.1c-.1 0-.2.1-.3.3l-.8 1v.5h.8l.3-.3.4.3zm-3.6-2c.5.4.7.8.7 1.1 0 .2-.1.3-.2.3s-.1-.1-.1-.3c0-.2-.2-.6-.4-1.1zm3.3-2.5s0 .1 0 0v.1l-.2.1v1.5c0 .1 0 .1-.1.2h-.1s-.1 0-.1-.1v-.2h-2.2c0 .2 0 .2-.1.2h-.1s-.1 0-.1-.1v-1.3-.6l.3.3h2.1l.2-.3.4.2zm-.5.8v-.6h-2.2v.6h2.2zm0 .9V25h-2.2v.7h2.2zM80.8 24.6l-4.2.1V26c0 1.4-.2 2.6-1 3.2v-.1c.6-.8.8-1.3.8-3.1v-1.1-.7l.4.3h3.5l.3-.3.2.4zm.2 4.2c-.3 0-.5.1-.5.3 0 0-1.3-.3-1.8-.6-.6.5-1.4.7-2.4.7v-.1c1-.2 1.7-.4 2.2-.8-.4-.3-.6-.7-.7-1.1h-.2c-.1 0-.2 0-.3.1L77 27h2.3l.2-.2.3.3c-.1 0-.2.1-.2.2-.3.4-.5.7-.8 1 .5.3 1.2.4 2.2.5zm-.2-3.3c0 .1 0 .1 0 0 0 .1 0 .1 0 0l-1.3.1v1c0 .1 0 .1-.1.1h-.1v-.2H78c0 .1 0 .1-.1.2h-.1v-.1-1.1h-.4c-.1 0-.3 0-.4.1l-.2-.2h.9v-.2-.5l.4.2-.1.2v.4h1.2v-.2-.6l.4.2-.2.1v.4h.7l.2-.3.5.4zm-3 1.7c.2.4.4.7.8 1 .4-.3.6-.6.8-1h-1.6zm1.4-.8v-.8H78v.8h1.2zM78 23.8c.3 0 .5.1.7.2 0 0 .1.1.1.2s-.1.3-.2.3-.1-.1-.2-.2c0-.2-.2-.4-.4-.5zM83.4 25.1c0 .1 0 .1 0 0 .1.1 0 .1 0 .1h-.8v.8c.5.2.6.4.6.6 0 .1-.1.3-.2.3s-.1-.1-.1-.2c0-.2-.1-.4-.3-.6v2.8c0 .1 0 .1-.1.2h-.1V29v-.1V25.8c-.2.7-.5 1.2-.9 1.8h-.1c.4-.7.8-1.6.9-2.4h-.4c-.1 0-.3 0-.4.1l-.2-.2h1v-.5-.8l.4.2s.1 0 .1.1l-.2.2v1h.3l.2-.3.3.1zm3.1 3.7s.1 0 0 0c.1.1 0 .1 0 .1h-3c-.1 0-.3 0-.4.1l-.1-.3h2c.3-1 .6-1.9.7-2.4l.3.2s.1 0 .1.1l-.1.1c-.1 0-.1 0-.2.3-.1.2-.3.8-.7 1.8h.9l.2-.3.3.3zM85 24c0 .1-.1.1-.2.1.6 1 1.2 1.5 2 1.6v.1c-.3 0-.4.1-.5.2-.7-.5-1.1-1-1.5-1.8-.5.9-.9 1.4-1.6 2l-.1-.1c.6-.7 1.2-1.7 1.5-2.4l.4.3zm-1.4 2.6c.3.4.6 1 .6 1.3 0 .2-.1.3-.2.3s-.1-.1-.1-.3c0-.1-.1-.8-.3-1.3zm2.1-.6s.1 0 0 0c.1.1 0 .1 0 .1h-1.5c-.1 0-.3 0-.4.1l-.1-.2h1.5l.2-.3.3.3zm-1.3.4c.3.5.5 1 .5 1.3 0 .2-.1.4-.2.4s-.1-.1-.1-.4c0-.3 0-.9-.2-1.3zM87.2 25.3c.2.1.8.2.8.6 0 .1-.1.3-.1.3-.1 0-.1 0-.2-.1 0-.3-.2-.6-.5-.8zm1.7-.7l-.7 2.7c0 .2-.1.4-.1.6v.8c0 .2-.1.3-.2.3s-.2-.1-.2-.2.1-.8.1-.9c0-.3-.2-.4-.6-.4v-.1c.6 0 .7 0 .8-.5l.9-2.3zm-1.3-.7c.6.2.9.3.9.6 0 .1-.1.2-.2.2s-.1 0-.1-.1c-.1-.2-.3-.4-.6-.7zM90 25s-.1.1-.1.2c0 1.2 0 1.9-.1 2.3.5.2.9.6 1 .9v.2c0 .2-.1.3-.2.3s-.1-.1-.1-.2c0-.3-.3-.7-.7-1-.2.7-.6 1.2-1.5 1.7l-.1-.1c1-.6 1.4-1.3 1.4-2.1V25h.4zm.8-.9c.1.1 0 .1 0 .1l-.1.1V27c0 .1 0 .1-.1.2h-.1s-.1 0-.1-.1V24.2h-1.2v2.9c0 .1 0 .1-.1.1H89s-.1 0-.1-.1V27v-2.7-.8l.3.3h1l.2-.3.4.6zm1.6-.2c.1 0 .1.1 0 0 .1.1 0 .1 0 .1l-.1.1v4.5c0 .4 0 .4-.4.5 0-.2-.1-.3-.7-.4v-.1c.4.1.6.1.7.1.2 0 .2-.1.2-.2v-3.9-.9l.3.2zm-.8.8c0 .1 0 .1 0 0l-.1.2V27.3c0 .1 0 .1-.1.1h-.1c-.1 0-.1 0-.1-.2V25v-.8l.4.5z" class="st2"/>
  </g>
</svg>
