<svg xmlns="http://www.w3.org/2000/svg" viewBox="0 0 150 150">
  <style>
    .st6{fill:#b3b3b3}
  </style>
  <path id="底板" fill="#1a9fcc" d="M134 19.2H16.5L13 23.4v104.2l5 3.8h26.3l6.4-6h50.7l6.6 6h26.2l2.8-2.7V22.1l-3-2.9zM23.6 128.3c-2.4 0-4.4-2-4.4-4.4s2-4.4 4.4-4.4 4.4 2 4.4 4.4-1.9 4.4-4.4 4.4zm0-96.7c-2.4 0-4.4-2-4.4-4.4s2-4.4 4.4-4.4 4.4 2 4.4 4.4-1.9 4.4-4.4 4.4zM126 128.3c-2.4 0-4.4-2-4.4-4.4s2-4.4 4.4-4.4 4.4 2 4.4 4.4-1.9 4.4-4.4 4.4zm0-97.4c-2.4 0-4.4-2-4.4-4.4s2-4.4 4.4-4.4 4.4 2 4.4 4.4-1.9 4.4-4.4 4.4z"/>
  <g id="线框" fill="none" stroke="#fff" stroke-linejoin="round" stroke-miterlimit="10">
    <path d="M32.5 20.8h85v11.8h-85z"/>
    <path stroke-linecap="round" d="M15.9 38.5h117.9v78.6H15.9z"/>
  </g>
  <path id="排线" fill="#c0997a" d="M101.1 127.6c-.1.1-.4.3-.4.3H51.6s-.3-.1-.5-.3c-.2-.2-.4-.6-.4-.6v-3.8l1.6-.7v-2.4l-1.6-.7V115h50.6v4.5l-1.3.7v2.4l1.3.7v3.9c0-.1-.1.3-.2.4z"/>
  <path id="挡板" fill="#1a1a1a" stroke="#1a1a1a" stroke-miterlimit="10" d="M107.5 116h-8s-.7 0-1.1.4c-.4.4-.4 1.1-.4 1.1l.1 9.3s0 .4-.2.7c-.2.3-.8.4-.8.4H55s-.4 0-.6-.3c-.2-.2-.2-.6-.2-.6l.2-9.5s0-.5-.2-.9-.8-.5-.8-.5l-9-.1s-.5-.1-.9-.5c-.4-.5-.5-1-.5-1v-10.1s.1-.4.5-.7c.2-.2.8-.3.8-.3H108s.7.1 1 .5c.4.5.3 1.1.3 1.1v9.6s0 .5-.5.9-1.3.5-1.3.5z"/>
  <path id="屏" fill="#333" stroke="#333" stroke-miterlimit="10" d="M18.3 39.7h113.3v62.5H18.3z"/>
  <g id="图层_5">
    <path d="M56.1 26.4c0 1.9-1.6 3.5-3.5 3.5s-3.5-1.6-3.5-3.5 1.6-3.5 3.5-3.5c2 0 3.5 1.6 3.5 3.5zm11.5 0c0 1.9-1.6 3.5-3.5 3.5s-3.5-1.6-3.5-3.5 1.6-3.5 3.5-3.5 3.5 1.6 3.5 3.5zm11.5 0c0 1.9-1.6 3.5-3.5 3.5s-3.5-1.6-3.5-3.5 1.6-3.5 3.5-3.5 3.5 1.6 3.5 3.5zm11.3 0c0 1.9-1.6 3.5-3.5 3.5s-3.5-1.6-3.5-3.5 1.6-3.5 3.5-3.5c2 0 3.5 1.6 3.5 3.5z" class="st6"/>
    <path fill="#fff" d="M38.1 35.9v-.4h1.4v1.2c-.2.2-.4.3-.7.4-.2.1-.5.1-.7.1-.3 0-.6-.1-.9-.2-.3-.1-.5-.3-.6-.6s-.2-.6-.2-.9c0-.3.1-.6.2-.9.1-.3.3-.5.6-.6.3-.1.5-.2.9-.2.2 0 .5 0 .6.1.2.1.3.2.5.3s.2.3.2.5l-.4.2c0-.2-.1-.3-.2-.4-.1-.1-.2-.2-.3-.2-.1-.1-.3-.1-.5-.1s-.4 0-.5.1c-.1.1-.3.1-.3.2-.1.1-.2.2-.2.3-.1.2-.1.4-.1.7 0 .3.1.5.2.7.1.2.2.3.4.4.2.1.4.1.6.1.2 0 .4 0 .5-.1.2-.1.3-.1.4-.2v-.6h-.9zm2 1.2v-3.3h.4l1.7 2.6v-2.6h.4v3.3h-.4l-1.7-2.6v2.6h-.4zm3.3 0v-3.3h1.7c.2 0 .3.1.5.2s.3.3.4.6c.1.2.1.5.1.8 0 .2 0 .5-.1.7-.1.2-.1.4-.2.5l-.3.3c-.1.1-.2.1-.4.2-.2 0-.3.1-.5.1h-1.2zm.4-.3h.7c.2 0 .4 0 .5-.1.1 0 .2-.1.3-.2.1-.1.2-.2.2-.4.1-.2.1-.4.1-.6 0-.3-.1-.6-.2-.8-.1-.2-.2-.3-.4-.4-.1 0-.3-.1-.6-.1h-.7v2.6zm6.4.3l-1.3-3.3h.5l.9 2.4c.1.2.1.4.2.5.1-.2.1-.4.2-.5l.9-2.4h.4l-1.3 3.3h-.5zm4.4-1.1l.4.1c-.1.4-.3.6-.5.8-.2.2-.5.3-.9.3s-.6-.1-.9-.2c-.2-.1-.4-.4-.5-.6-.1-.3-.2-.6-.2-.9 0-.3.1-.6.2-.9.1-.3.3-.4.6-.6.2-.1.5-.2.8-.2.3 0 .6.1.8.3.2.2.4.4.5.7l-.4.1c-.1-.2-.2-.4-.3-.5-.1-.1-.3-.2-.5-.2-.3 0-.5.1-.6.2-.2.1-.3.3-.4.5-.1.2-.1.4-.1.6 0 .3 0 .5.1.7.1.2.2.4.4.5s.4.2.6.2c.2 0 .4-.1.6-.2.2-.2.3-.4.3-.7zm3.3 0l.4.1c-.1.4-.3.6-.5.8-.2.2-.5.3-.9.3s-.6-.1-.9-.2c-.2-.1-.4-.4-.5-.6-.1-.3-.2-.6-.2-.9 0-.3.1-.6.2-.9.1-.3.3-.4.6-.6.2-.1.5-.2.8-.2.3 0 .6.1.8.3.2.2.4.4.5.7l-.4.1c-.1-.2-.2-.4-.3-.5-.1-.1-.3-.2-.5-.2-.3 0-.5.1-.6.2-.2.1-.3.3-.4.5-.1.2-.1.4-.1.6 0 .3 0 .5.1.7.1.2.2.4.4.5s.4.2.6.2c.2 0 .4-.1.6-.2.2-.2.3-.4.3-.7zm3.4.1h.4c0 .2.1.3.1.4l.3.3c.1.1.3.1.5.1s.3 0 .4-.1c.1 0 .2-.1.3-.2.1-.1.1-.2.1-.3 0-.1 0-.2-.1-.3s-.2-.1-.3-.2c-.1 0-.3-.1-.6-.2s-.5-.1-.6-.2c-.2-.1-.3-.2-.3-.3-.1-.1-.1-.3-.1-.4 0-.2 0-.3.1-.5.1-.1.2-.3.4-.3.2-.1.4-.1.6-.1.2 0 .5 0 .6.1.2.1.3.2.4.3.1.2.2.3.2.5h-.4c0-.2-.1-.4-.2-.5-.1-.1-.3-.2-.6-.2s-.5 0-.6.1c-.1.1-.2.2-.2.3 0 .1 0 .2.1.3.1.1.3.2.7.2.4.1.6.1.7.2.2.1.3.2.4.3.1.1.1.3.1.5s-.1.3-.1.5c-.1.2-.2.3-.4.4-.2.1-.4.1-.6.1-.3 0-.5 0-.7-.1-.2-.1-.4-.2-.5-.4 0 .1-.1-.1-.1-.3zm5.5-.1l.4.1c-.1.4-.3.6-.5.8-.2.2-.5.3-.9.3s-.6-.1-.9-.2c-.2-.1-.4-.4-.5-.6-.1-.3-.2-.6-.2-.9 0-.3.1-.6.2-.9.1-.3.3-.4.6-.6.2-.1.5-.2.8-.2.3 0 .6.1.8.3.2.2.4.4.5.7l-.4.1c-.1-.2-.2-.4-.3-.5-.1-.1-.3-.2-.5-.2-.3 0-.5.1-.6.2-.2.1-.3.3-.4.5-.1.2-.1.4-.1.6 0 .3 0 .5.1.7.1.2.2.4.4.5.2.1.4.2.6.2.2 0 .4-.1.6-.2.2-.2.3-.4.3-.7zm1 1.1v-3.3h.4v1.6l1.6-1.6h.6L69 35.1l1.4 1.9h-.6l-1.2-1.7-.4.7v1.1h-.4zm5.4-1h.4c0 .2.1.3.1.4l.3.3c.1.1.3.1.5.1s.3 0 .4-.1.2-.1.3-.2c.1-.1.1-.2.1-.3 0-.1 0-.2-.1-.3-.1-.1-.2-.1-.3-.2-.1 0-.3-.1-.6-.2s-.5-.1-.6-.2c-.2-.1-.3-.2-.3-.3-.1-.1-.1-.3-.1-.4 0-.2 0-.3.1-.5.1-.1.2-.3.4-.3.2-.1.4-.1.6-.1.2 0 .5 0 .6.1.2.1.3.2.4.3.1.2.2.3.2.5h-.4c0-.2-.1-.4-.2-.5-.1-.1-.3-.2-.6-.2s-.5 0-.6.1c-.1.1-.2.2-.2.3 0 .1 0 .2.1.3.1.1.3.2.7.2.4.1.6.1.7.2.2.1.3.2.4.3.1.1.1.3.1.5s-.1.3-.1.5c-.1.2-.2.3-.4.4-.2.1-.4.1-.6.1-.3 0-.5 0-.7-.1-.2-.1-.4-.2-.5-.4 0 .1 0-.1-.1-.3zm3.2 1v-3.3h1.7c.2 0 .3.1.5.2s.3.3.4.6c.1.2.1.5.1.8 0 .2 0 .5-.1.7-.1.2-.1.4-.2.5l-.3.3c-.1.1-.2.1-.4.2-.2 0-.3.1-.5.1h-1.2zm.5-.3h.7c.2 0 .4 0 .5-.1.1 0 .2-.1.3-.2.1-.1.2-.2.2-.4.1-.2.1-.4.1-.6 0-.3-.1-.6-.2-.8-.1-.2-.2-.3-.4-.4-.1 0-.3-.1-.6-.1h-.7v2.6zm2.5.3l1.3-3.3h.5l1.3 3.3H82l-.4-1h-1.4l-.4 1h-.4zm.9-1.3h1.1l-.3-.9c-.1-.3-.2-.5-.2-.7 0 .2-.1.4-.2.6l-.4 1zm4.8 1.3v-3.3h1.5c.3 0 .5 0 .7.1.2.1.3.2.4.3s.1.3.1.5-.1.4-.2.6c-.2.2-.4.3-.7.3.1.1.2.1.3.2.1.1.2.3.4.4l.6.9h-.5l-.7-.6c-.1-.2-.2-.3-.3-.5l-.2-.2c-.1 0-.1-.1-.2-.1h-.7v1.5h-.5zm.4-1.8h.9c.2 0 .4 0 .5-.1.1 0 .2-.1.3-.2.1-.1.1-.2.1-.3 0-.2-.1-.3-.2-.4-.1-.1-.3-.1-.5-.1h-1v1.1zm2.9 1.8v-3.3h2.4v.4h-1.9v1h1.8v.4h-1.8v1.1h2v.4h-2.5zm2.9-1h.4c0 .2.1.3.1.4l.3.3c.1.1.3.1.5.1s.3 0 .4-.1c.1 0 .2-.1.3-.2.1-.1.1-.2.1-.3 0-.1 0-.2-.1-.3-.1-.1-.2-.1-.3-.2-.1 0-.3-.1-.6-.2s-.5-.1-.6-.2c-.2-.1-.3-.2-.3-.3-.1-.1-.1-.3-.1-.4 0-.2 0-.3.1-.5.1-.1.2-.3.4-.3.2-.1.4-.1.6-.1.2 0 .5 0 .6.1.2.1.3.2.4.3.1.2.2.3.2.5h-.4c0-.2-.1-.4-.2-.5-.1-.1-.3-.2-.6-.2s-.5 0-.6.1c-.1.1-.2.2-.2.3 0 .1 0 .2.1.3.1.1.3.2.7.2.4.1.6.1.7.2.2.1.3.2.4.3.1.1.1.3.1.5s-.1.3-.1.5c-.1.2-.2.3-.4.4-.2.1-.4.1-.6.1-.3 0-.5 0-.7-.1-.2-.1-.4-.2-.5-.4 0 .1-.1-.1-.1-.3zm5.7 1v-3.3h1.7c.2 0 .3.1.5.2s.3.3.4.6c.1.2.1.5.1.8 0 .2 0 .5-.1.7-.1.2-.1.4-.2.5l-.3.3c-.1.1-.2.1-.4.2-.2 0-.3.1-.5.1H97zm.5-.3h.7c.2 0 .4 0 .5-.1.1 0 .2-.1.3-.2.1-.1.2-.2.2-.4.1-.2.1-.4.1-.6 0-.3-.1-.6-.2-.8-.1-.2-.2-.3-.4-.4-.1 0-.3-.1-.6-.1h-.7v2.6zm5.2-.8l.4.1c-.1.4-.3.6-.5.8-.2.2-.5.3-.9.3s-.6-.1-.9-.2c-.2-.1-.4-.4-.5-.6-.1-.3-.2-.6-.2-.9 0-.3.1-.6.2-.9.1-.3.3-.4.6-.6.2-.1.5-.2.8-.2.3 0 .6.1.8.3.2.2.4.4.5.7l-.4.1c-.1-.2-.2-.4-.3-.5-.1-.1-.3-.2-.5-.2-.3 0-.5.1-.6.2-.2.1-.3.3-.4.5-.1.2-.1.4-.1.6 0 .3 0 .5.1.7.1.2.2.4.4.5s.4.2.6.2c.2 0 .4-.1.6-.2.1-.2.2-.4.3-.7zm7.1 0l.4.1c-.1.4-.3.6-.5.8-.2.2-.5.3-.9.3s-.6-.1-.9-.2c-.2-.1-.4-.4-.5-.6-.1-.3-.2-.6-.2-.9 0-.3.1-.6.2-.9.1-.3.3-.4.6-.6.2-.1.5-.2.8-.2.3 0 .6.1.8.3.2.2.4.4.5.7l-.4.1c-.1-.2-.2-.4-.3-.5-.1-.1-.3-.2-.5-.2-.3 0-.5.1-.6.2-.2.1-.3.3-.4.5-.1.2-.1.4-.1.6 0 .3 0 .5.1.7.1.2.2.4.4.5s.4.2.6.2c.2 0 .4-.1.6-.2.1-.2.3-.4.3-.7zm.8.1h.4c0 .2.1.3.1.4l.3.3c.1.1.3.1.5.1s.3 0 .4-.1c.1 0 .2-.1.3-.2.1-.1.1-.2.1-.3 0-.1 0-.2-.1-.3-.1-.1-.2-.1-.3-.2-.1 0-.3-.1-.6-.2s-.5-.1-.6-.2c-.2-.1-.3-.2-.3-.3-.1-.1-.1-.3-.1-.4 0-.2 0-.3.1-.5.1-.1.2-.3.4-.3.2-.1.4-.1.6-.1.2 0 .5 0 .6.1.2.1.3.2.4.3.1.2.2.3.2.5h-.4c0-.2-.1-.4-.2-.5-.1-.1-.3-.2-.6-.2s-.5 0-.6.1c-.1.1-.2.2-.2.3 0 .1 0 .2.1.3.1.1.3.2.7.2.4.1.6.1.7.2.2.1.3.2.4.3.1.1.1.3.1.5s-.1.3-.1.5c-.1.2-.2.3-.4.4-.2.1-.4.1-.6.1-.3 0-.5 0-.7-.1-.2-.1-.4-.2-.5-.4 0 .1-.1-.1-.1-.3z"/>
    <path d="M44.7 26.6c0 1.9-1.6 3.5-3.5 3.5s-3.5-1.6-3.5-3.5 1.6-3.5 3.5-3.5 3.5 1.6 3.5 3.5zm57.2 0c0 1.9-1.6 3.5-3.5 3.5s-3.5-1.6-3.5-3.5 1.6-3.5 3.5-3.5 3.5 1.6 3.5 3.5zm11.4-.2c0 1.9-1.6 3.5-3.5 3.5s-3.5-1.6-3.5-3.5 1.6-3.5 3.5-3.5 3.5 1.6 3.5 3.5z" class="st6"/>
  </g>
</svg>
