<svg xmlns="http://www.w3.org/2000/svg" id="图层_1" viewBox="0 0 150 150">
  <style>
    .st7{fill:#036eb8}.st9{fill:#b28247}.st10{fill:none;stroke:#595757;stroke-width:.5;stroke-linecap:round;stroke-miterlimit:10}
  </style>
  <linearGradient id="SVGID_1_" x1="69.261" x2="71.199" y1="119.9" y2="119.9" gradientUnits="userSpaceOnUse">
    <stop offset="0" stop-color="#e7cbcf" stop-opacity=".5"/>
    <stop offset=".141" stop-color="#e4c0ce" stop-opacity=".642"/>
    <stop offset=".331" stop-color="#e2b5cb" stop-opacity=".833"/>
    <stop offset=".497" stop-color="#e1b1ca"/>
    <stop offset=".688" stop-color="#e2b4cb" stop-opacity=".81"/>
    <stop offset=".821" stop-color="#e3bbcb" stop-opacity=".678"/>
    <stop offset=".935" stop-color="#e6c6cc" stop-opacity=".564"/>
    <stop offset="1" stop-color="#e8cfcb" stop-opacity=".5"/>
  </linearGradient>
  <path fill="url(#SVGID_1_)" d="M69.3 110.1h1.9v19.6h-1.9z"/>
  <linearGradient id="SVGID_2_" x1="71.199" x2="73.136" y1="119.9" y2="119.9" gradientUnits="userSpaceOnUse">
    <stop offset="0" stop-color="#37334a" stop-opacity=".5"/>
    <stop offset=".497" stop-color="#37334a"/>
    <stop offset=".94" stop-color="#37334a" stop-opacity=".56"/>
    <stop offset="1" stop-color="#37334a" stop-opacity=".5"/>
  </linearGradient>
  <path fill="url(#SVGID_2_)" d="M71.2 110.1h1.9v19.6h-1.9z"/>
  <linearGradient id="SVGID_3_" x1="73.136" x2="75.074" y1="119.9" y2="119.9" gradientUnits="userSpaceOnUse">
    <stop offset="0" stop-color="#bb463c" stop-opacity=".5"/>
    <stop offset=".497" stop-color="#bb463c" stop-opacity=".9"/>
    <stop offset=".976" stop-color="#bb463c" stop-opacity=".519"/>
    <stop offset="1" stop-color="#bb463c" stop-opacity=".5"/>
  </linearGradient>
  <path fill="url(#SVGID_3_)" d="M73.1 110.1H75v19.6h-1.9z"/>
  <linearGradient id="SVGID_4_" x1="75.074" x2="77.011" y1="119.9" y2="119.9" gradientUnits="userSpaceOnUse">
    <stop offset="0" stop-color="#d99d17" stop-opacity=".5"/>
    <stop offset=".497" stop-color="#d99d17" stop-opacity=".9"/>
    <stop offset="1" stop-color="#d99d17" stop-opacity=".5"/>
  </linearGradient>
  <path fill="url(#SVGID_4_)" d="M75.1 110.1H77v19.6h-1.9z"/>
  <linearGradient id="SVGID_5_" x1="77.011" x2="78.949" y1="119.9" y2="119.9" gradientUnits="userSpaceOnUse">
    <stop offset="0" stop-color="#df813d" stop-opacity=".5"/>
    <stop offset=".497" stop-color="#df813d" stop-opacity=".9"/>
    <stop offset="1" stop-color="#df813d" stop-opacity=".5"/>
  </linearGradient>
  <path fill="url(#SVGID_5_)" d="M77 110.1h1.9v19.6H77z"/>
  <path fill="#b5b5b6" d="M123.7 56.1h-7.6c-2.7-20.2-20.1-35.8-41-35.8s-38.3 15.6-41 35.8h-7.8c-3.1 0-5.6 2.5-5.6 5.6 0 3.1 2.5 5.6 5.6 5.6h7.8c2 14.8 11.9 27.2 25.3 32.7v10.1h31.5V100c13.4-5.5 23.3-17.9 25.3-32.7h7.6c3.1 0 5.6-2.5 5.6-5.6 0-3.1-2.6-5.6-5.7-5.6zm-97.1 9.4c-2.1 0-3.7-1.7-3.7-3.7s1.7-3.7 3.7-3.7 3.7 1.7 3.7 3.7-1.6 3.7-3.7 3.7zm96.8 0c-2 0-3.7-1.7-3.7-3.7s1.7-3.7 3.7-3.7c2.1 0 3.7 1.7 3.7 3.7s-1.6 3.7-3.7 3.7z"/>
  <g>
    <path fill="none" stroke="#036eb8" stroke-miterlimit="10" d="M59.4 100.1v10h31.5v-10"/>
    <path d="M59.4 101.3l-3.3-1.3-.4-1.7 3.7 1.8zM90.9 101.3l3.2-1.3.4-1.7-3.6 1.8z" class="st7"/>
  </g>
  <g>
    <circle cx="75" cy="39.7" r="14.7" fill="#9fa0a0"/>
    <circle cx="75" cy="39.7" r="9.3" class="st9"/>
    <path d="M83.2 44c-.8 1.5-2 2.8-3.4 3.6l-14-7.4c-.1-1.6.2-3.3 1-4.8s2-2.8 3.4-3.6l14 7.4c.1 1.6-.2 3.3-1 4.8z" class="st9"/>
    <path d="M70.4 31.9l13.7 7.2M65.9 40.3l13.7 7.2" class="st10"/>
    <linearGradient id="SVGID_6_" x1="38.826" x2="57.347" y1="18.356" y2="18.356" gradientTransform="rotate(27.88 18.567 83.242)" gradientUnits="userSpaceOnUse">
      <stop offset="0" stop-color="#c9caca" stop-opacity=".4"/>
      <stop offset=".076" stop-color="#c6bda9" stop-opacity=".492"/>
      <stop offset=".161" stop-color="#c1ad81" stop-opacity=".594"/>
      <stop offset=".242" stop-color="#bc9e5d" stop-opacity=".692"/>
      <stop offset=".318" stop-color="#b69142" stop-opacity=".784"/>
      <stop offset=".388" stop-color="#b1882f" stop-opacity=".868"/>
      <stop offset=".45" stop-color="#ae8223" stop-opacity=".943"/>
      <stop offset=".497" stop-color="#ad8020"/>
      <stop offset=".582" stop-color="#ae8121" stop-opacity=".899"/>
      <stop offset=".648" stop-color="#b08428" stop-opacity=".82"/>
      <stop offset=".708" stop-color="#b38a34" stop-opacity=".749"/>
      <stop offset=".764" stop-color="#b69244" stop-opacity=".682"/>
      <stop offset=".817" stop-color="#bb9c5a" stop-opacity=".619"/>
      <stop offset=".868" stop-color="#bfa875" stop-opacity=".557"/>
      <stop offset=".918" stop-color="#c4b595" stop-opacity=".498"/>
      <stop offset=".965" stop-color="#c7c2b5" stop-opacity=".442"/>
      <stop offset="1" stop-color="#c9caca" stop-opacity=".4"/>
    </linearGradient>
    <path fill="url(#SVGID_6_)" d="M83.5 43.3c.1-.2.2-.3.2-.5.1-.2.1-.4.2-.6.1-.3.1-.5.2-.8.1-.7.2-1.5.1-2.3l-1.2-.6c.2 1.6 0 3.4-.9 4.9s-2.1 2.8-3.6 3.5l1.2.6c.7-.4 1.2-.8 1.8-1.4l.6-.6c.1-.2.3-.3.4-.5.1-.2.2-.3.3-.5.1-.2.3-.4.4-.6s.2-.3.3-.6zM70.2 31.8c-.1.1-.2.1-.3.2-1.3.8-2.3 2-3.1 3.4-.7 1.4-1.1 2.9-1.1 4.4v.4l1.2.6c-.2-1.6 0-3.4.9-4.9.8-1.6 2.1-2.8 3.6-3.5l-1.2-.6z"/>
  </g>
</svg>
