<svg xmlns="http://www.w3.org/2000/svg" viewBox="0 0 297 102">
  <g>
    <path fill="#595757" d="M294 102H3c-1.6 0-3-1.3-3-3V3c0-1.6 1.3-3 3-3h291c1.6 0 3 1.3 3 3v96c0 1.7-1.3 3-3 3z"/>
    <path fill="#dcdddd" d="M32.9 57.1l-4.2 23.7-6.3 5.1-2.1-2.7c-.6-.8-.9-1.7-.9-2.8 0-.5.1-1.1.2-1.7l3.1-18c.3-1.7 1-3 2-3.9l4.4-3.9 3.8 4.2zm-2.5 24.6h23.7l4.3 5.6-2.6 2.2c-.9.8-1.7 1.3-2.3 1.5-.7.2-1.8.3-3.3.3H30.3c-2.4 0-4.1-.5-5.2-1.7l-1.6-2.1 6.9-5.8zm8.5-58.8l-4 22.8-5.4 4.4-2.2-2.5c-1-1.2-1.5-2.4-1.5-3.6 0-.5.1-1.2.2-2.1l2.8-16.2c.3-1.8 1.3-3.5 2.8-4.9l3.3-3.1 4 5.2zm-2.4 23.8h23.7l4 4.9-5.7 4.6H34.8l-4.1-4.6 5.8-4.9zm28.2-25.3H40.8l-4.3-5.1 2.7-2.6c1.4-1.3 2.9-1.9 4.6-1.9h21.5c1.7 0 3.1.7 4.1 1.9l1.9 2.4-6.6 5.3zm-9.1 59.4l4.1-23 5.7-4.7 2.3 2.7c.8.9 1.2 2 1.2 3.1 0 .6-.1 1.4-.2 2.3l-3.1 17.6c-.2 1.3-.5 2.2-.7 2.6-.2.4-.8 1-1.8 1.9L59.8 86l-4.2-5.2zm6.3-35.1l4-23 6.6-5.2 1.7 2.3c.7.9 1 1.9 1 2.8 0 .5-.1 1.1-.2 1.9L72 42c-.4 2.4-1.4 4.3-3 5.7l-3.3 2.6-3.8-4.6zM91.6 57.1l-4.2 23.7-6.4 5-2.1-2.7c-.6-.8-.9-1.7-.9-2.8 0-.5.1-1.1.2-1.7l3.1-18c.3-1.7 1-3 2-3.9l4.4-3.9 3.9 4.3zm-2.5 24.6h23.7l4.3 5.6-2.6 2.2c-.9.8-1.7 1.3-2.3 1.5-.7.2-1.8.3-3.3.3H89c-2.4 0-4.1-.5-5.2-1.7l-1.6-2.1 6.9-5.8zm8.5-58.8l-4 22.8-5.4 4.4-2.2-2.5c-1-1.2-1.5-2.4-1.5-3.6 0-.5.1-1.2.2-2.1l2.8-16.2c.3-1.8 1.3-3.5 2.8-4.9l3.3-3.1 4 5.2zm-2.4 23.8h23.7l4 4.9-5.7 4.6H93.5l-4.1-4.6 5.8-4.9zm28.2-25.3H99.5l-4.3-5.1 2.7-2.6c1.4-1.3 2.9-1.9 4.6-1.9H124c1.7 0 3.1.7 4.1 1.9l1.9 2.4-6.6 5.3zm-9.1 59.4l4.1-23 5.7-4.7 2.3 2.7c.8.9 1.2 2 1.2 3.1 0 .6-.1 1.4-.2 2.3l-3.1 17.6c-.2 1.3-.5 2.2-.7 2.6-.2.4-.8 1-1.8 1.9l-3.3 2.7-4.2-5.2zm6.3-35.1l4-23 6.6-5.2 1.7 2.3c.7.9 1 1.9 1 2.8 0 .5-.1 1.1-.2 1.9l-3 17.3c-.4 2.4-1.4 4.3-3 5.7l-3.3 2.6-3.8-4.4zM180 57.1l-4.2 23.7-6.3 5.1-2.1-2.7c-.6-.8-.9-1.7-.9-2.8 0-.5.1-1.1.2-1.7l3.1-18c.3-1.7 1-3 2-3.9l4.4-3.9 3.8 4.2zm-2.5 24.6h23.7l4.3 5.6-2.6 2.2c-.9.8-1.7 1.3-2.3 1.5-.7.2-1.8.3-3.3.3h-19.8c-2.4 0-4.1-.5-5.2-1.7l-1.6-2.1 6.8-5.8zm8.6-58.8l-4 22.8-5.4 4.4-2.2-2.5c-1-1.2-1.5-2.4-1.5-3.6 0-.5.1-1.2.2-2.1l2.8-16.2c.3-1.8 1.3-3.5 2.8-4.9l3.3-3.1 4 5.2zm-2.4 23.8h23.7l4 4.9-5.7 4.6H182l-4.1-4.6 5.8-4.9zm28.2-25.3H188l-4.3-5.1 2.7-2.6c1.4-1.3 2.9-1.9 4.6-1.9h21.5c1.7 0 3.1.7 4.1 1.9l1.9 2.4-6.6 5.3zm-9.1 59.4l4.1-23 5.7-4.7 2.3 2.7c.8.9 1.2 2 1.2 3.1 0 .6-.1 1.4-.2 2.3l-3.1 17.6c-.2 1.3-.5 2.2-.7 2.6-.2.4-.8 1-1.8 1.9L207 86l-4.2-5.2zm6.2-35.1l4-23 6.6-5.2 1.7 2.3c.7.9 1 1.9 1 2.8 0 .5-.1 1.1-.2 1.9l-3 17.3c-.4 2.4-1.4 4.3-3 5.7l-3.3 2.6-3.8-4.4zM238.7 57.1l-4.2 23.7-6.3 5.1-2.1-2.7c-.6-.8-.9-1.7-.9-2.8 0-.5.1-1.1.2-1.7l3.1-18c.3-1.7 1-3 2-3.9L235 53l3.7 4.1zm-2.5 24.6h23.7l4.3 5.6-2.6 2.2c-.9.8-1.7 1.3-2.3 1.5-.7.2-1.8.3-3.3.3h-19.8c-2.4 0-4.1-.5-5.2-1.7l-1.6-2.1 6.8-5.8zm8.6-58.8l-4 22.8-5.4 4.4-2.2-2.5c-1-1.2-1.5-2.4-1.5-3.6 0-.5.1-1.2.2-2.1l2.8-16.2c.3-1.8 1.3-3.5 2.8-4.9l3.3-3.1 4 5.2zm-2.4 23.8h23.7l4 4.9-5.7 4.6h-23.7l-4.1-4.6 5.8-4.9zm28.2-25.3h-23.9l-4.3-5.1 2.7-2.6c1.4-1.3 2.9-1.9 4.6-1.9h21.5c1.7 0 3.1.7 4.1 1.9l1.9 2.4-6.6 5.3zm-9.1 59.4l4.1-23 5.7-4.7 2.3 2.7c.8.9 1.2 2 1.2 3.1 0 .6-.1 1.4-.2 2.3l-3.1 17.6c-.2 1.3-.5 2.2-.7 2.6-.2.4-.8 1-1.8 1.9l-3.3 2.7-4.2-5.2zm6.2-35.1l4-23 6.6-5.2 1.7 2.3c.7.9 1 1.9 1 2.8 0 .5-.1 1.1-.2 1.9l-3 17.3c-.4 2.4-1.4 4.3-3 5.7l-3.3 2.6-3.8-4.4z" />
    <path fill="#c9caca" d="M150.3 79c-3.1-.3-5.5-3-5.2-6.1s3.1-5.5 6.2-5.2c3.1.3 5.5 3.1 5.2 6.2s-3.1 5.4-6.2 5.1zm3.3-37.3c-3.1-.3-5.5-3-5.2-6.1s3.1-5.5 6.2-5.2c3.1.3 5.5 3.1 5.2 6.2-.3 3.1-3.1 5.3-6.2 5.1z"/>
  </g>
</svg>
