<svg xmlns="http://www.w3.org/2000/svg" viewBox="0 0 150 150">
  <style>
    .st3{fill:#dcdddd}
  </style>
  <g id="屏幕">
    <path id="XMLID_2_" fill="#595757" d="M136.3 97.1H13.7c-1.6 0-3-1.3-3-3V55.9c0-1.6 1.3-3 3-3h122.6c1.6 0 3 1.3 3 3v38.2c-.1 1.6-1.4 3-3 3z"/>
  </g>
  <g id="数字">
    <path d="M25 77.7l-1.8 10.2-2.7 2.2-.9-1.2c-.3-.4-.4-.8-.4-1.2 0-.2 0-.5.1-.7l1.4-7.8c.1-.7.4-1.3.9-1.7l1.9-1.7 1.5 1.9zm-1.1 10.6h10.3l1.9 2.4-1.1 1c-.4.3-.7.5-1 .6-.3.1-.8.1-1.4.1H24c-1 0-1.8-.2-2.3-.8l-.7-.9 2.9-2.4zm3.7-25.5l-1.7 9.9-2.3 1.9-1-1.1c-.4-.5-.7-1-.7-1.6 0-.2 0-.5.1-.9l1.2-7c.2-.8.6-1.5 1.2-2.1l1.4-1.3 1.8 2.2zm-1 10.4h10.3l1.7 2.1-2.5 2H25.8l-1.8-2 2.6-2.1zm12.1-11H28.4L26.5 60l1.2-1.1c.6-.6 1.3-.8 2-.8H39c.7 0 1.3.3 1.8.8l.8 1.1-2.9 2.2zm-3.9 25.7l1.8-9.9 2.5-2 1 1.2c.3.4.5.9.5 1.4 0 .3 0 .6-.1 1L39.1 87c-.1.6-.2.9-.3 1.1-.1.2-.4.4-.8.8l-1.4 1.2-1.8-2.2zm2.7-15.2l1.7-9.9 2.9-2.2.8 1c.3.4.5.8.5 1.2 0 .2 0 .5-.1.8L42 71.1c-.2 1.1-.6 1.9-1.3 2.5l-1.4 1.1-1.8-2zM50.4 77.7l-1.8 10.2-2.7 2.2-.9-1.2c-.3-.4-.4-.8-.4-1.2 0-.2 0-.5.1-.7l1.4-7.8c.1-.7.4-1.3.9-1.7l1.9-1.7 1.5 1.9zm-1.1 10.6h10.3l1.9 2.4-1.1 1c-.4.3-.7.5-1 .6-.3.1-.8.1-1.4.1h-8.6c-1 0-1.8-.2-2.3-.8l-.7-.9 2.9-2.4zM53 62.8l-1.7 9.9-2.3 1.9-1-1.1c-.4-.5-.7-1-.7-1.6 0-.2 0-.5.1-.9l1.2-7c.2-.8.6-1.5 1.2-2.1l1.4-1.3 1.8 2.2zm-1.1 10.4h10.3l1.7 2.1-2.5 2H51.2l-1.8-2 2.5-2.1zm12.2-11H53.8L51.9 60l1.2-1.1c.6-.6 1.3-.8 2-.8h9.3c.7 0 1.3.3 1.8.8L67 60l-2.9 2.2zm-3.9 25.7L62 78l2.5-2 1 1.2c.3.4.5.9.5 1.4 0 .3 0 .6-.1 1L64.5 87c-.1.6-.2.9-.3 1.1-.1.2-.4.4-.8.8L62 90.2l-1.8-2.3zm2.7-15.2l1.7-9.9 2.9-2.2.8 1c.3.4.5.8.5 1.2 0 .2 0 .5-.1.8l-1.3 7.5c-.2 1.1-.6 1.9-1.3 2.5l-1.4 1.1-1.8-2zM88.6 77.7l-1.8 10.2-2.7 2.2-.9-1.2c-.3-.4-.4-.8-.4-1.2 0-.2 0-.5.1-.7l1.4-7.8c.1-.7.4-1.3.9-1.7l1.9-1.7 1.5 1.9zm-1.1 10.6h10.3l1.9 2.4-1.1 1c-.4.3-.7.5-1 .6-.3.1-.8.1-1.4.1h-8.6c-1 0-1.8-.2-2.3-.8l-.7-.9 2.9-2.4zm3.7-25.5l-1.7 9.9-2.3 1.9-1-1.1c-.4-.5-.7-1-.7-1.6 0-.2 0-.5.1-.9l1.2-7c.2-.8.6-1.5 1.2-2.1l1.4-1.3 1.8 2.2zm-1 10.4h10.3l1.7 2.1-2.5 2H89.5l-1.8-2 2.5-2.1zm12.2-11H92.1L90.2 60l1.2-1.1c.6-.6 1.3-.8 2-.8h9.3c.7 0 1.3.3 1.8.8l.8 1.1-2.9 2.2zm-3.9 25.7l1.8-9.9 2.5-2 1 1.2c.3.4.5.9.5 1.4 0 .3 0 .6-.1 1l-1.4 7.6c-.1.6-.2.9-.3 1.1-.1.2-.4.4-.8.8l-1.4 1.2-1.8-2.4zm2.7-15.2l1.7-9.9 2.9-2.2.8 1c.3.4.5.8.5 1.2 0 .2 0 .5-.1.8l-1.3 7.5c-.2 1.1-.6 1.9-1.3 2.5l-1.4 1.1-1.8-2zM114 77.7l-1.8 10.2-2.7 2.2-.9-1.2c-.3-.4-.4-.8-.4-1.2 0-.2 0-.5.1-.7l1.4-7.8c.1-.7.4-1.3.9-1.7l1.9-1.7 1.5 1.9zm-1.1 10.6h10.3l1.9 2.4-1.1 1c-.4.3-.7.5-1 .6-.3.1-.8.1-1.4.1H113c-1 0-1.8-.2-2.3-.8l-.7-.9 2.9-2.4zm3.7-25.5l-1.7 9.9-2.3 1.9-1-1.1c-.4-.5-.7-1-.7-1.6 0-.2 0-.5.1-.9l1.2-7c.2-.8.6-1.5 1.2-2.1l1.4-1.3 1.8 2.2zm-1 10.4h10.3l1.7 2.1-2.5 2h-10.3l-1.8-2 2.6-2.1zm12.2-11h-10.4l-1.9-2.2 1.2-1.1c.6-.6 1.3-.8 2-.8h9.3c.7 0 1.3.3 1.8.8l.8 1.1-2.8 2.2zm-3.9 25.7l1.8-9.9 2.5-2 1 1.2c.3.4.5.9.5 1.4 0 .3 0 .6-.1 1l-1.4 7.6c-.1.6-.2.9-.3 1.1-.1.2-.4.4-.8.8l-1.4 1.2-1.8-2.4zm2.7-15.2l1.7-9.9 2.9-2.2.8 1c.3.4.5.8.5 1.2 0 .2 0 .5-.1.8l-1.3 7.5c-.2 1.1-.6 1.9-1.3 2.5l-1.4 1.1-1.8-2z" class="st3"/>
    <g>
      <path fill="#c9caca" d="M75.8 87.1c-1.3-.1-2.4-1.3-2.3-2.6.1-1.3 1.3-2.4 2.7-2.3 1.3.1 2.4 1.3 2.3 2.7-.2 1.3-1.4 2.3-2.7 2.2zM77.2 71c-1.3-.1-2.4-1.3-2.3-2.6.1-1.3 1.3-2.4 2.7-2.3 1.3.1 2.4 1.3 2.3 2.7-.1 1.3-1.4 2.3-2.7 2.2z"/>
    </g>
  </g>
</svg>
