<svg xmlns="http://www.w3.org/2000/svg" viewBox="0 0 150 150">
  <style>
    .st4{fill:#fff}
  </style>
  <path id="图层_1" fill="#1a9fcc" d="M137.5 130.8l-2.8 2.8H108l-6.7-6.1H49.9l-6.5 6.1H16.6l-5.1-3.8V23.9l3.6-4.2 119.4-.1 3 3z"/>
  <g id="图层_5" fill="none" stroke="#fff" stroke-linejoin="round" stroke-miterlimit="10">
    <path d="M49.7 21.2h49.4v12H49.7z"/>
    <path stroke-linecap="round" d="M42.9 37.4H14.5v81.7h119.8V37.4h-26.9"/>
  </g>
  <path id="图层_4" fill="#c0997a" d="M101 129.8c-.1.1-.4.3-.4.3H50.7s-.3-.1-.5-.3c-.2-.2-.4-.6-.4-.6v-3.9l1.6-.7v-2.5l-1.6-.7V117h51.4v4.5l-1.3.7v2.4l1.3.7v4s-.1.4-.2.5z"/>
  <g id="图层_3">
    <path d="M26.8 27.7c0 2.5-2 4.5-4.5 4.5s-4.5-2-4.5-4.5 2-4.5 4.5-4.5 4.5 2 4.5 4.5zm104.1-.7c0 2.5-2 4.5-4.5 4.5s-4.5-2-4.5-4.5 2-4.5 4.5-4.5c2.4 0 4.5 2 4.5 4.5zm0 99c0 2.5-2 4.5-4.5 4.5s-4.5-2-4.5-4.5 2-4.5 4.5-4.5c2.4 0 4.5 2 4.5 4.5zm-104.1 0c0 2.5-2 4.5-4.5 4.5s-4.5-2-4.5-4.5 2-4.5 4.5-4.5 4.5 2 4.5 4.5z" class="st4"/>
    <path fill="#333" stroke="#333" stroke-miterlimit="10" d="M16.9 40.5H132v63.6H16.9z"/>
    <path fill="#1a1a1a" stroke="#1a1a1a" stroke-miterlimit="10" d="M107.3 118h-8.1s-.7 0-1.1.4c-.4.4-.4 1.1-.4 1.1l.1 9.4s0 .4-.2.7c-.2.3-.8.4-.8.4H54s-.4 0-.7-.3c-.2-.2-.2-.6-.2-.6l.2-9.6s0-.5-.2-.9-.8-.5-.8-.5l-9.2-.1s-.5-.1-.9-.5c-.4-.5-.5-1-.5-1v-10.2s.1-.4.5-.8c.2-.2.9-.3.9-.3h64.7s.7.1 1 .6c.4.6.3 1.1.3 1.1v9.8s0 .5-.5.9c-.5.3-1.3.4-1.3.4z"/>
    <path fill="#b3b3b3" d="M61.6 26.9c0 2-1.6 3.5-3.5 3.5-2 0-3.5-1.6-3.5-3.5 0-2 1.6-3.5 3.5-3.5s3.5 1.6 3.5 3.5zm11.3 0c0 2-1.6 3.5-3.5 3.5-2 0-3.5-1.6-3.5-3.5 0-2 1.6-3.5 3.5-3.5s3.5 1.6 3.5 3.5zm11.5 0c0 2-1.6 3.5-3.5 3.5-2 0-3.5-1.6-3.5-3.5 0-2 1.6-3.5 3.5-3.5s3.5 1.6 3.5 3.5zm11.1 0c0 2-1.6 3.5-3.5 3.5-2 0-3.5-1.6-3.5-3.5 0-2 1.6-3.5 3.5-3.5s3.5 1.6 3.5 3.5z"/>
    <path d="M52.7 37.9l-1.3-3.3h.5l.9 2.4c.1.2.1.4.2.5.1-.2.1-.4.2-.5l.9-2.4h.4l-1.3 3.3h-.5zm4.6-1.2l.4.1c-.1.4-.3.6-.5.8-.2.2-.5.3-.9.3s-.7-.1-.9-.2c-.2-.1-.4-.4-.5-.6-.1-.3-.2-.6-.2-.9 0-.3.1-.6.2-.9.1-.3.3-.5.6-.6.2-.1.5-.2.8-.2.3 0 .6.1.8.3.2.2.4.4.5.7l-.4.1c-.1-.2-.2-.4-.3-.5-.1-.1-.3-.2-.6-.2s-.5.1-.6.2c-.2.1-.3.3-.4.5-.1.2-.1.4-.1.6 0 .3 0 .5.1.7.1.2.2.4.4.5.2.1.4.2.6.2.2 0 .5-.1.6-.2.2-.2.3-.4.4-.7zm3.3 0l.4.1c-.1.4-.3.6-.5.8-.2.2-.5.3-.9.3s-.7-.1-.9-.2c-.2-.1-.4-.4-.5-.6-.1-.3-.2-.6-.2-.9 0-.3.1-.6.2-.9.1-.3.3-.5.6-.6.2-.1.5-.2.8-.2.3 0 .6.1.8.3.2.2.4.4.5.7l-.4.1c-.1-.2-.2-.4-.3-.5-.1-.1-.3-.2-.6-.2s-.5.1-.6.2c-.2.1-.3.3-.4.5-.1.2-.1.4-.1.6 0 .3 0 .5.1.7.1.2.2.4.4.5.2.1.4.2.6.2.2 0 .5-.1.6-.2s.4-.4.4-.7zm5.2-.2v-.4h1.4v1.2c-.2.2-.4.3-.7.4-.2.1-.5.1-.7.1-.3 0-.6-.1-.9-.2-.3-.1-.5-.3-.6-.6-.1-.3-.2-.6-.2-.9 0-.3.1-.6.2-.9.1-.3.3-.5.6-.6.3-.1.5-.2.9-.2.2 0 .5 0 .7.1.2.1.3.2.5.3s.2.3.3.5l-.4.1c0-.2-.1-.3-.2-.4-.1-.1-.2-.2-.3-.2-.1-.1-.3-.1-.5-.1s-.4 0-.5.1c-.1.1-.3.1-.4.2-.1.1-.2.2-.2.3-.1.2-.1.4-.1.7 0 .3.1.5.2.7.1.2.3.3.4.4.2.1.4.1.6.1.2 0 .4 0 .6-.1.2-.1.3-.2.4-.2v-.6h-1.1zm2 1.4v-3.3h.5l1.7 2.6v-2.6h.4v3.3H70l-1.7-2.6v2.6h-.5zm3.4 0v-3.3h1.7c.2 0 .4.1.5.2.2.1.3.3.4.6s.1.5.1.8c0 .3 0 .5-.1.7-.1.2-.1.4-.2.5l-.3.3c-.1.1-.2.1-.4.2-.2 0-.3.1-.5.1h-1.2zm.4-.4h.7c.2 0 .4 0 .5-.1.1 0 .2-.1.3-.2.1-.1.2-.2.2-.4.1-.2.1-.4.1-.6 0-.3-.1-.6-.2-.8 0-.2-.2-.4-.3-.4-.1 0-.3-.1-.6-.1h-.7v2.6zm5.4-.7h.4c0 .2.1.3.1.4l.3.3c.2.1.3.1.5.1s.3 0 .4-.1c.1 0 .2-.1.3-.2.1-.1.1-.2.1-.3 0-.1 0-.2-.1-.3-.1-.1-.2-.1-.3-.2-.1 0-.3-.1-.6-.2s-.5-.1-.6-.2c-.2-.1-.3-.2-.4-.3-.1-.1-.1-.3-.1-.4 0-.2 0-.3.1-.5.1-.1.2-.3.4-.3.2-.1.4-.1.6-.1.2 0 .5 0 .7.1s.3.2.4.4c.1.2.2.3.2.5H79c0-.2-.1-.4-.2-.5-.1-.1-.3-.2-.6-.2s-.5 0-.6.1c-.1.1-.2.2-.2.4 0 .1 0 .2.1.3.1.1.3.2.7.2.4.1.6.2.7.2.2.1.3.2.4.3.1.1.1.3.1.5s-.1.3-.2.5-.2.3-.4.4c-.2.1-.4.1-.6.1-.3 0-.6 0-.8-.1-.2-.1-.4-.2-.5-.4s.1-.3.1-.5zm5.6-.1l.4.1c-.1.4-.3.6-.5.8-.2.2-.5.3-.9.3s-.7-.1-.9-.2c-.2-.1-.4-.4-.5-.6-.1-.3-.2-.6-.2-.9 0-.3.1-.6.2-.9.1-.3.3-.5.6-.6.2-.1.5-.2.8-.2.3 0 .6.1.8.3.2.2.4.4.5.7l-.4.1c-.1-.2-.2-.4-.3-.5-.1-.1-.3-.2-.6-.2s-.5.1-.6.2c-.2.1-.3.3-.4.5-.1.2-.1.4-.1.6 0 .3 0 .5.1.7.1.2.2.4.4.5.2.1.4.2.6.2.2 0 .5-.1.6-.2.2-.2.3-.4.4-.7zm1 1.2v-3.3h.4v2.9h1.6v.4h-2zm4.8-1.1h.4c0 .2.1.3.1.4l.3.3c.2.1.3.1.5.1s.3 0 .4-.1c.1 0 .2-.1.3-.2.1-.1.1-.2.1-.3 0-.1 0-.2-.1-.3-.1-.1-.2-.1-.3-.2-.1 0-.3-.1-.6-.2s-.5-.1-.6-.2c-.2-.1-.3-.2-.4-.3-.1-.1-.1-.3-.1-.4 0-.2 0-.3.1-.5.1-.1.2-.3.4-.3.2-.1.4-.1.6-.1.2 0 .5 0 .7.1.2.1.3.2.4.4.1.2.2.3.2.5h-.4c0-.2-.1-.4-.2-.5-.1-.1-.3-.2-.6-.2s-.5 0-.6.1v.5c0 .1 0 .2.1.3.1.1.3.2.7.2.4.1.6.2.7.2.2.1.3.2.4.3.1.1.1.3.1.5s-.1.3-.2.5-.2.3-.4.4c-.2.1-.4.1-.6.1-.3 0-.6 0-.8-.1-.2-.1-.4-.2-.5-.4 0-.2-.1-.4-.1-.6zm3.3 1.1v-3.3h1.7c.2 0 .4.1.5.2.2.1.3.3.4.6.1.2.1.5.1.8 0 .3 0 .5-.1.7-.1.2-.1.4-.2.5l-.3.3c-.1.1-.2.1-.4.2-.2 0-.3.1-.5.1h-1.2zm.4-.4h.7c.2 0 .4 0 .5-.1.1 0 .2-.1.3-.2.1-.1.2-.2.2-.4.1-.2.1-.4.1-.6 0-.3-.1-.6-.2-.8-.1-.2-.3-.3-.4-.4-.1 0-.3-.1-.6-.1H92v2.6zm2.6.4l1.3-3.3h.5l1.4 3.3h-.5l-.4-1h-1.4l-.4 1h-.5zm.9-1.4h1.1l-.3-.9c-.1-.3-.2-.5-.2-.7 0 .2-.1.4-.2.6l-.4 1z" class="st4"/>
  </g>
</svg>
