<svg xmlns="http://www.w3.org/2000/svg" id="图层_1" viewBox="0 0 150 150">
  <style>
    .st0{fill:#c9a063}.st3{fill:#c9caca}.st5,.st6,.st7,.st8,.st9{fill:none;stroke:#9fa0a0;stroke-miterlimit:10}.st6,.st7,.st8,.st9{fill:#dcdddd;stroke:#dcdddd}.st7,.st8,.st9{fill:none;stroke:#efefef;stroke-width:.5}.st8,.st9{stroke:#956134}.st9{stroke:#595757}.st10{fill:#dcdddd}.st11{fill:none;stroke:#f7f8f8;stroke-linecap:round;stroke-miterlimit:10}
  </style>
  <ellipse cx="125.1" cy="109.6" class="st0" rx="4.5" ry="9.8"/>
  <path fill="#595757" d="M21.2 91.7h78.3v26.4H21.2z"/>
  <path fill="#3b3c3c" d="M28.1 104.9c0 3.8-3.1 6.8-6.8 6.8V98.1c3.7 0 6.8 3 6.8 6.8z"/>
  <path d="M23.9 87.9h5.9v3.8h-5.9zM33.4 87.9h5.9v3.8h-5.9zM43 87.9h5.9v3.8H43zM62.1 87.9H68v3.8h-5.9zM71.7 87.9h5.9v3.8h-5.9zM81.2 87.9h5.9v3.8h-5.9zM90.8 87.9h5.9v3.8h-5.9zM52.5 87.9h5.9v3.8h-5.9zM23.9 118.1h5.9v3.8h-5.9zM90.8 118.1h5.9v3.8h-5.9zM62.1 118.1H68v3.8h-5.9zM71.7 118.1h5.9v3.8h-5.9zM81.2 118.1h5.9v3.8h-5.9zM52.5 118.1h5.9v3.8h-5.9zM43 118.1h5.9v3.8H43zM33.4 118.1h5.9v3.8h-5.9z" class="st3"/>
  <path fill="#c9caca" stroke="#dcdddd" stroke-miterlimit="10" d="M21.8 61.2h49.4v14.7H21.8z"/>
  <path d="M21.8 63.7v3M71.2 63.7v3M26 61.2h3.6M63.3 61.2H67" class="st5"/>
  <path d="M28.4 67.4h2.4v2.4h-2.4zM39.5 67.4h2.4v2.4h-2.4zM50.7 67.4h2.4v2.4h-2.4zM61.8 67.4h2.4v2.4h-2.4z" class="st6"/>
  <path d="M131.3 40.4zM133.5 39.6v3.1c-.5.5-1.3.8-2.2.8-.9 0-1.6-.3-2.2-.8H124c-.5.5-1.3.8-2.2.8-.9 0-1.6-.3-2.2-.8v-3.1c.5-.5 1.3-.8 2.2-.8.9 0 1.6.3 2.2.8h5.1c.5-.5 1.3-.8 2.2-.8.8 0 1.6.3 2.2.8z" class="st0"/>
  <path d="M125.1 39.6v3.2" class="st7"/>
  <path d="M126.6 39.6v3.2" class="st8"/>
  <path d="M128 39.6l.1 3.2" class="st9"/>
  <g>
    <path d="M131.3 49zM133.5 48.2v3.1c-.5.5-1.3.8-2.2.8-.9 0-1.6-.3-2.2-.8H124c-.5.5-1.3.8-2.2.8-.9 0-1.6-.3-2.2-.8v-3.1c.5-.5 1.3-.8 2.2-.8.9 0 1.6.3 2.2.8h5.1c.5-.5 1.3-.8 2.2-.8.8 0 1.6.3 2.2.8z" class="st0"/>
    <path d="M125.1 48.2v3.2" class="st7"/>
    <path d="M126.6 48.2v3.2" class="st8"/>
    <path d="M128 48.2l.1 3.2" class="st9"/>
  </g>
  <g>
    <path d="M131.3 57.6zM133.5 56.8v3.1c-.5.5-1.3.8-2.2.8-.9 0-1.6-.3-2.2-.8H124c-.5.5-1.3.8-2.2.8-.9 0-1.6-.3-2.2-.8v-3.1c.5-.5 1.3-.8 2.2-.8.9 0 1.6.3 2.2.8h5.1c.5-.5 1.3-.8 2.2-.8.8 0 1.6.3 2.2.8z" class="st0"/>
    <path d="M125.1 56.8V60" class="st7"/>
    <path d="M126.6 56.8V60" class="st8"/>
    <path d="M128 56.8l.1 3.2" class="st9"/>
  </g>
  <g>
    <path d="M131.3 66.3c0-.1 0-.1 0 0zM133.5 65.5v3.1c-.5.5-1.3.8-2.2.8-.9 0-1.6-.3-2.2-.8H124c-.5.5-1.3.8-2.2.8-.9 0-1.6-.3-2.2-.8v-3.1c.5-.5 1.3-.8 2.2-.8.9 0 1.6.3 2.2.8h5.1c.5-.5 1.3-.8 2.2-.8.8 0 1.6.3 2.2.8 0-.1 0-.1 0 0z" class="st0"/>
    <path d="M125.1 65.4v3.2" class="st7"/>
    <path d="M126.6 65.4v3.2" class="st8"/>
    <path d="M128 65.4l.1 3.2" class="st9"/>
  </g>
  <g>
    <circle cx="27.5" cy="33.9" r="5.7" class="st10"/>
    <path d="M31.6 34.2c0-2.4-1.7-4.4-3.8-4.4" class="st11"/>
  </g>
  <g>
    <circle cx="63.8" cy="33.9" r="5.7" class="st10"/>
    <path d="M67.9 34.2c0-2.4-1.7-4.4-3.8-4.4" class="st11"/>
  </g>
  <g>
    <circle cx="83" cy="33.9" r="5.7" class="st10"/>
    <path d="M87.1 34.2c0-2.4-1.7-4.4-3.8-4.4" class="st11"/>
  </g>
  <g>
    <circle cx="45.7" cy="33.9" r="5.7" class="st10"/>
    <path d="M49.8 34.2c0-2.4-1.7-4.4-3.8-4.4" class="st11"/>
  </g>
</svg>
