<svg xmlns="http://www.w3.org/2000/svg" id="图层_1" viewBox="0 0 150 150">
  <style>
    .st1{fill:#595757}.st2{opacity:.81;fill:#9e9e9f}.st3{fill:none;stroke:#3e3a39;stroke-width:.5;stroke-miterlimit:10}.st4{fill:#c8c9ca}
  </style>
  <path fill="#2f4656" d="M128.2 74.9c0 12.4-10 22.5-22.4 22.5H44.1c-12.3 0-22.4-10.1-22.4-22.5s10-22.5 22.4-22.5h61.8c12.3.1 22.3 10.1 22.3 22.5z"/>
  <ellipse id="Oval_1_" cx="44.1" cy="75" class="st1" rx="22.4" ry="22.5"/>
  <circle cx="44.1" cy="75" r="9.8" class="st2"/>
  <path d="M45.1 95.4l20.1-20.1M23.7 71.5L41 54.2M47.3 95.4l17.6-17.6M24.2 73.3l19.1-19.1M24.2 80.1l25.5-25.5M24.8 81.8l26.7-26.7M25.4 83.4L53 55.8M25.8 85.2l28.5-28.5M27 86.4l28.5-28.5M37.4 94L64 67.4M39.4 94.3l25-25M41.1 94.9l23.6-23.6M42.9 95.3l22.2-22.2M24.1 77.9l23.4-23.4M23.9 75.9l21.5-21.6M28.1 87.5L56.6 59M29.2 88.6l28.5-28.5M30.4 89.8l28.5-28.5M31.5 90.9L60 62.4M32.6 92l28.5-28.5M34.1 92.8l28.2-28.1M35.5 93.7l27.9-27.9" class="st3"/>
  <g>
    <path d="M64.9 74.1L44.8 54M41 95.5L23.7 78.2M64.9 71.8L47.4 54.3M42.8 95L23.7 75.9M49.6 95L24.1 69.5M51.3 94.4L24.6 67.7M52.9 93.7L25.3 66.2M54.7 93.4L26.2 64.9M55.9 92.2L27.4 63.7M63.5 81.7L36.9 55.1M63.8 79.8l-25-25M64.4 78.1L40.8 54.5M64.8 76.3L42.6 54.1M47.4 95.1L24 71.6M45.4 95.3L23.9 73.8M57 91.1L28.5 62.6M58.1 90L29.6 61.5M59.3 88.8L30.8 60.3M60.4 87.7L31.9 59.2M61.5 86.6L33 58.1M62.3 85.1L34.2 56.9M63.2 83.7L35.3 55.8" class="st3"/>
  </g>
  <path d="M44.1 52.6c-12.3 0-22.4 10.1-22.4 22.5s10 22.5 22.4 22.5c12.4 0 22.4-10.1 22.4-22.5-.1-12.4-10.1-22.5-22.4-22.5zm0 40.9c-10.2 0-18.4-8.3-18.4-18.4 0-10.2 8.2-18.4 18.4-18.4S62.5 65 62.5 75.1c0 10.2-8.2 18.4-18.4 18.4z" class="st4"/>
  <g>
    <ellipse id="Oval_2_" cx="105.9" cy="74.9" class="st1" rx="22.4" ry="22.5"/>
    <circle cx="105.9" cy="74.9" r="9.8" class="st2"/>
    <path d="M106.9 95.3l20.1-20M85.5 71.5l17.3-17.3M109.2 95.3l17.5-17.5M86 73.2l19.1-19M86 80l25.5-25.5M86.6 81.7L113.3 55M87.3 83.3l27.5-27.6M87.7 85.2l28.5-28.5M88.8 86.3l28.5-28.5M99.3 93.9l26.6-26.6M101.2 94.3l25-25.1M102.9 94.8l23.6-23.6M104.7 95.3l22.2-22.2M85.9 77.9l23.5-23.5M85.7 75.8l21.5-21.5M89.9 87.4l28.5-28.5M91.1 88.6l28.5-28.5M92.2 89.7l28.5-28.5M93.3 90.8l28.5-28.5M94.4 92L123 63.5M95.9 92.8l28.2-28.2M97.3 93.6l27.9-27.9" class="st3"/>
    <g>
      <path d="M126.7 74l-20-20M102.9 95.4L85.6 78.1M126.7 71.8l-17.5-17.6M104.6 94.9l-19-19.1M111.4 94.9L85.9 69.4M113.1 94.3L86.4 67.6M114.7 93.7L87.2 66.1M116.6 93.3L88.1 64.8M117.7 92.2L89.2 63.7M125.3 81.7L98.7 55.1M125.7 79.8l-25-25.1M126.2 78.1l-23.6-23.6M126.7 76.2L104.5 54M109.3 95L85.8 71.6M107.2 95.2L85.7 73.7M118.8 91L90.3 62.5M120 89.9L91.5 61.4M121.1 88.8L92.6 60.3M122.2 87.6L93.7 59.1M123.4 86.5L94.9 58M124.2 85L96 56.9M125 83.6L97.1 55.7" class="st3"/>
    </g>
    <path d="M105.9 52.5c-12.3 0-22.4 10.1-22.4 22.5s10 22.5 22.4 22.5c12.4 0 22.4-10.1 22.4-22.5s-10-22.5-22.4-22.5zm0 40.9c-10.2 0-18.4-8.3-18.4-18.4 0-10.2 8.3-18.4 18.4-18.4s18.4 8.3 18.4 18.4c0 10.2-8.2 18.4-18.4 18.4z" class="st4"/>
  </g>
</svg>
