<?xml version="1.0" encoding="utf-8"?>
<!-- Generator: Adobe Illustrator 22.0.1, SVG Export Plug-In . SVG Version: 6.00 Build 0)  -->
<svg version="1.1" id="图层_1" xmlns="http://www.w3.org/2000/svg" xmlns:xlink="http://www.w3.org/1999/xlink" x="0px" y="0px"
	 viewBox="0 0 150 150" style="enable-background:new 0 0 150 150;" xml:space="preserve">
<style type="text/css">
	.st0{fill:#00979D;}
	.st1{fill:#EEF5FC;}
	.st2{fill:#FCCF74;}
	.st3{fill:#E3902A;}
	.st4{fill:#3A3A3A;}
	.st5{fill:#D6D6D6;}
	.st6{fill:#FFFFFF;stroke:#9494AF;stroke-width:0.5;}
	.st7{fill:#C6D2DF;stroke:#B7CDD2;stroke-width:0.6524;}
	.st8{enable-background:new    ;}
	.st9{fill:#7988A1;}
	.st10{font-family:'PingFang-SC-Bold';}
	.st11{font-size:9px;}
	.st12{fill:#FAD46F;}
	.st13{fill:#A5AABE;}
	.st14{fill:#A9BFD2;}
	.st15{fill:#838697;}
</style>
<title>wifi</title>
<desc>Created with Sketch.</desc>
<g>
	<g>
		<rect id="Rectangle-1" x="19.8" y="33" class="st0" width="110.4" height="55.5"/>
		<g id="Rectangle-2-Copy" transform="translate(17.700000, 13.350000)">
			<g id="path-1-link">
				<path id="path-1" d="M21.4,33h35.9c0.9,0,1.6,0.7,1.6,1.6v26.1c0,0.9-0.7,1.6-1.6,1.6H21.4c-0.9,0-1.6-0.7-1.6-1.6V34.6
					C19.8,33.7,20.5,33,21.4,33z"/>
			</g>
			<g id="path-1-link_1_">
				<path id="path-1_1_" class="st1" d="M21.4,33h35.9c0.9,0,1.6,0.7,1.6,1.6v26.1c0,0.9-0.7,1.6-1.6,1.6H21.4
					c-0.9,0-1.6-0.7-1.6-1.6V34.6C19.8,33.7,20.5,33,21.4,33z"/>
			</g>
		</g>
		
			<g id="Rectangle-5" transform="translate(69.309754, 28.757625) rotate(90.000000) translate(-69.309754, -28.757625) translate(64.359754, 24.782625)">
			<g id="path-3-link">
				<path id="path-3" d="M34-19.8h7.8c0.5,0,1,0.4,1,1v5.9c0,0.5-0.4,1-1,1H34c-0.5,0-1-0.4-1-1v-5.9C33-19.4,33.4-19.8,34-19.8z"/>
			</g>
			<g id="path-3-link_1_">
				<path id="path-3_1_" class="st2" d="M34-19.8h7.8c0.5,0,1,0.4,1,1v5.9c0,0.5-0.4,1-1,1H34c-0.5,0-1-0.4-1-1v-5.9
					C33-19.4,33.4-19.8,34-19.8z"/>
			</g>
		</g>
		<rect id="Rectangle-43" x="85.2" y="62.9" class="st3" width="7.9" height="2.7"/>
		<g id="Group" transform="translate(72.602956, 38.088235)">
			<rect id="Rectangle-6" x="19.8" y="34" class="st4" width="1.9" height="2.9"/>
			<rect id="Rectangle-7" x="20.4" y="33" class="st5" width="1" height="1"/>
			<rect id="Rectangle-7-Copy" x="20.4" y="36.9" class="st5" width="1" height="1"/>
		</g>
		<g id="Group-Copy-6" transform="translate(58.734975, 33.191176)">
			<rect id="Rectangle-6_1_" x="19.8" y="34" class="st2" width="1.9" height="2.9"/>
			<rect id="Rectangle-7_1_" x="20.4" y="33" class="st5" width="1" height="1"/>
			<rect id="Rectangle-7-Copy_1_" x="20.4" y="36.9" class="st5" width="1" height="1"/>
		</g>
		<g id="Group-Copy-7" transform="translate(58.734975, 26.117647)">
			<rect id="Rectangle-6_2_" x="19.8" y="34" class="st2" width="1.9" height="2.9"/>
			<rect id="Rectangle-7_2_" x="20.4" y="33" class="st5" width="1" height="1"/>
			<rect id="Rectangle-7-Copy_2_" x="20.4" y="36.9" class="st5" width="1" height="1"/>
		</g>
		<g id="Group-Copy-8" transform="translate(58.734975, 19.044118)">
			<rect id="Rectangle-6_3_" x="19.8" y="34" class="st2" width="1.9" height="2.9"/>
			<rect id="Rectangle-7_3_" x="20.4" y="33" class="st5" width="1" height="1"/>
			<rect id="Rectangle-7-Copy_3_" x="20.4" y="36.9" class="st5" width="1" height="1"/>
		</g>
		<g id="Group-Copy" transform="translate(75.866010, 38.088235)">
			<rect id="Rectangle-6_4_" x="19.8" y="34" class="st4" width="1.9" height="2.9"/>
			<rect id="Rectangle-7_4_" x="20.4" y="33" class="st5" width="1" height="1"/>
			<rect id="Rectangle-7-Copy_4_" x="20.4" y="36.9" class="st5" width="1" height="1"/>
		</g>
		<g id="Group-Copy-2" transform="translate(66.076847, 38.088235)">
			<rect id="Rectangle-6_5_" x="19.8" y="34" class="st4" width="1.9" height="2.9"/>
			<rect id="Rectangle-7_5_" x="20.4" y="33" class="st5" width="1" height="1"/>
			<rect id="Rectangle-7-Copy_5_" x="20.4" y="36.9" class="st5" width="1" height="1"/>
		</g>
		<g id="Group-Copy-3" transform="translate(69.339901, 38.088235)">
			<rect id="Rectangle-6_6_" x="19.8" y="34" class="st4" width="1.9" height="2.9"/>
			<rect id="Rectangle-7_6_" x="20.4" y="33" class="st5" width="1" height="1"/>
			<rect id="Rectangle-7-Copy_6_" x="20.4" y="36.9" class="st5" width="1" height="1"/>
		</g>
		
			<g id="Group-Copy-4" transform="translate(80.870081, 19.339452) rotate(90.000000) translate(-80.870081, -19.339452) translate(79.895081, 16.864452)">
			
				<rect id="Rectangle-6_7_" x="32.5" y="-18.3" transform="matrix(2.535182e-06 1 -1 2.535182e-06 16.5969 -51.3034)" class="st4" width="2.9" height="1.9"/>
			
				<rect id="Rectangle-7_7_" x="33.6" y="-19.8" transform="matrix(2.535182e-06 1 -1 2.535182e-06 14.7999 -53.4688)" class="st5" width="1" height="1"/>
			
				<rect id="Rectangle-7-Copy_7_" x="33.7" y="-15.9" transform="matrix(2.535182e-06 1 -1 2.535182e-06 18.7351 -49.5688)" class="st5" width="1" height="1"/>
		</g>
		
			<g id="Group-Copy-5" transform="translate(81.921001, 28.776166) rotate(90.000000) translate(-81.921001, -28.776166) translate(75.321001, 25.176166)">
			
				<rect id="Rectangle-6_8_" x="32.5" y="-16.1" transform="matrix(2.535182e-06 1 -1 2.535182e-06 18.8241 -49.1498)" class="st4" width="2.9" height="1.9"/>
			
				<rect id="Rectangle-7_8_" x="33.6" y="-17.6" transform="matrix(2.535182e-06 1 -1 2.535182e-06 17.0012 -51.1997)" class="st5" width="1" height="1"/>
			
				<rect id="Rectangle-7-Copy_8_" x="33.7" y="-13.7" transform="matrix(2.535182e-06 1 -1 2.535182e-06 20.9177 -47.3998)" class="st5" width="1" height="1"/>
			
				<rect id="Rectangle-7-Copy-2" x="41.1" y="-13.7" transform="matrix(2.535182e-06 1 -1 2.535182e-06 28.4177 -54.8488)" class="st5" width="1" height="1"/>
			
				<rect id="Rectangle-7-Copy-3" x="42.4" y="-13.7" transform="matrix(2.535182e-06 1 -1 2.535182e-06 29.7177 -56.1486)" class="st5" width="1" height="1"/>
			
				<rect id="Rectangle-7-Copy-3_1_" x="43.7" y="-13.7" transform="matrix(2.535182e-06 1 -1 2.535182e-06 31.0178 -57.4485)" class="st5" width="1" height="1"/>
			
				<rect id="Rectangle-7-Copy-6" x="41.1" y="-19.8" transform="matrix(2.535182e-06 1 -1 2.535182e-06 22.2999 -60.9488)" class="st5" width="1" height="1"/>
			
				<rect id="Rectangle-7-Copy-5" x="42.4" y="-19.8" transform="matrix(2.535182e-06 1 -1 2.535182e-06 23.5999 -62.2486)" class="st5" width="1" height="1"/>
			
				<rect id="Rectangle-7-Copy-4" x="43.7" y="-19.8" transform="matrix(2.535182e-06 1 -1 2.535182e-06 24.8998 -63.5485)" class="st5" width="1" height="1"/>
			
				<g id="Group-2" transform="translate(12.612380, 3.382638) rotate(90.000000) translate(-12.612380, -3.382638) translate(10.980853, 2.838521)">
				<rect id="Rectangle-7-Copy-9" x="-19.8" y="-33" class="st5" width="1" height="1"/>
				<rect id="Rectangle-7-Copy-8" x="-18.5" y="-33" class="st5" width="1" height="1"/>
				<rect id="Rectangle-7-Copy-7" x="-17.2" y="-33" class="st5" width="1" height="1"/>
			</g>
			
				<g id="Group-2-Copy" transform="translate(6.762758, 3.382638) rotate(90.000000) translate(-6.762758, -3.382638) translate(5.131231, 2.838521)">
				<rect id="Rectangle-7-Copy-9_1_" x="-19.8" y="-33" class="st5" width="1" height="1"/>
				<rect id="Rectangle-7-Copy-8_1_" x="-18.5" y="-33" class="st5" width="1" height="1"/>
				<rect id="Rectangle-7-Copy-7_1_" x="-17.2" y="-33" class="st5" width="1" height="1"/>
			</g>
		</g>
		<g id="Rectangle-21-Clipped" transform="translate(64.989163, 13.330882)">
			<g id="path-5">
			</g>
			<g id="Rectangle-21">
				<path id="path-5_1_" class="st6" d="M21.6,33h6c1,0,1.8,0.8,1.8,1.8l0,0c0,1-0.8,1.8-1.8,1.8h-6c-1,0-1.8-0.8-1.8-1.8l0,0
					C19.8,33.8,20.6,33,21.6,33z"/>
			</g>
		</g>
		<rect id="Rectangle-35" x="113.9" y="46.1" class="st1" width="16.3" height="29.4"/>
		<g id="Rectangle-44-Clipped" transform="translate(107.136946, 13.058824)">
			<g id="path-7">
			</g>
			<g id="Rectangle-44">
				<rect id="path-7_1_" x="19.8" y="33" class="st7" width="3.3" height="3.3"/>
			</g>
		</g>
		<g id="Rectangle-44-Copy-Clipped" transform="translate(107.136946, 39.176471)">
			<g id="path-9">
			</g>
			<g id="Rectangle-44-Copy">
				<rect id="path-9_1_" x="19.8" y="33" class="st7" width="3.3" height="3.3"/>
			</g>
		</g>
		<g class="st8">
			<path class="st9" d="M41.9,57.3h1.5l1.7,6.7l0,0l1.8-6.7h1.4L50,64l0,0l1.7-6.7h1.5l-2.5,8.6h-1.4l-1.7-6.6l0,0l-1.7,6.6h-1.4
				L41.9,57.3z"/>
			<path class="st9" d="M57.1,57.5c0.2,0.2,0.3,0.4,0.3,0.6c0,0.2-0.1,0.4-0.3,0.6c-0.2,0.2-0.4,0.2-0.6,0.2s-0.4-0.1-0.6-0.2
				c-0.2-0.2-0.3-0.4-0.3-0.6c0-0.3,0.1-0.5,0.3-0.6c0.2-0.2,0.4-0.2,0.6-0.2C56.8,57.2,57,57.3,57.1,57.5z M55.9,59.7h1.3v6.2h-1.3
				V59.7z"/>
			<path class="st9" d="M60.7,57.3h5.8v1.1H62v2.5h4.3V62H62v3.8h-1.3V57.3z"/>
			<path class="st9" d="M70.7,57.5c0.2,0.2,0.3,0.4,0.3,0.6c0,0.2-0.1,0.4-0.3,0.6c-0.2,0.2-0.4,0.2-0.6,0.2s-0.4-0.1-0.6-0.2
				c-0.2-0.2-0.3-0.4-0.3-0.6c0-0.3,0.1-0.5,0.3-0.6c0.2-0.2,0.4-0.2,0.6-0.2C70.3,57.2,70.5,57.3,70.7,57.5z M69.4,59.7h1.3v6.2
				h-1.3V59.7z"/>
		</g>
		<text transform="matrix(1 0 0 1 65.4827 64.2676)" class="st9 st10 st11"> </text>
		<path id="Rectangle-38" class="st4" d="M99.9,62.4h4.1c0.4,0,0.7,0.3,0.7,0.7V67c0,0.4-0.3,0.7-0.7,0.7h-4.1
			c-0.4,0-0.7-0.3-0.7-0.7v-4C99.2,62.7,99.5,62.4,99.9,62.4z"/>
		<polygon id="Combined-Shape" class="st12" points="22.7,68.4 30.6,68.4 30.6,67.7 30.6,60.5 29.9,60.5 22.7,60.5 22.7,54.3 
			30.6,54.3 30.6,53.7 30.6,46.5 29.9,46.5 22.7,46.5 22.7,40.6 34.5,40.6 34.5,39.3 21.7,39.3 21.7,40.1 21.7,46.6 21.7,47.4 
			29.2,47.4 29.2,53.3 21.7,53.3 21.7,54 21.7,60.9 21.7,61.5 29.2,61.5 29.2,67.4 21.7,67.4 21.7,68.2 21.7,81.6 21.7,82.8 
			34.5,82.8 34.5,81.5 22.7,81.5 22.7,75.7 34.5,75.7 34.5,74.7 22.7,74.7 		"/>
		<rect id="Rectangle-63" x="110.6" y="46.1" class="st13" width="3.3" height="1.4"/>
		<g id="Group-3" transform="translate(87.558621, 19.044118)">
			<rect id="Rectangle-63-Copy-2" x="19.8" y="33" class="st14" width="6.5" height="1.3"/>
			<rect id="Rectangle-63-Copy-3" x="19.8" y="38.5" class="st14" width="6.5" height="1.3"/>
			<rect id="Rectangle-63-Copy-4" x="19.8" y="43.9" class="st14" width="6.5" height="1.3"/>
			<rect id="Rectangle-63-Copy-5" x="19.8" y="49.4" class="st14" width="6.5" height="1.3"/>
		</g>
		<rect id="Rectangle-63-Copy" x="110.6" y="74.1" class="st13" width="3.3" height="1.4"/>
	</g>
	<path id="Shape_59_" class="st15" d="M26.6,127.8h-2.7v6.6h-3.6v-17.8h6.3c2.2,0,3.6,0.3,4.8,1.2c1.2,0.9,1.5,2.2,1.5,4.1
		c0,1.2-0.3,2.2-0.9,3.2c-0.6,1-1.2,1.6-2.4,1.9l3.6,7.1v0.3h-3.8L26.6,127.8z M23.7,124.6h2.7c0.9,0,1.5-0.3,2.2-0.7
		c0.6-0.3,0.6-1.2,0.6-1.9c0-0.9-0.3-1.6-0.6-1.9c-0.3-0.3-1.2-0.7-2.2-0.7h-2.7V124.6z"/>
	<polygon id="Shape_60_" class="st15" points="42.4,122.8 45.7,116.6 49.4,116.6 44.4,125.3 49.4,134.2 45.3,134.2 42.2,128 
		39,134.2 34.9,134.2 39.8,125.3 34.9,116.6 38.6,116.6 	"/>
	<path id="Shape_61_" class="st15" d="M51,134.2v-17.8h5.4c1.5,0,2.7,0.3,3.8,0.9c1.2,0.7,2.2,1.6,2.7,3.2s0.9,2.8,0.9,4.4v0.9
		c0,1.6-0.3,3.2-0.9,4.4c-0.6,1.2-1.5,2.2-2.7,3.2c-1.2,0.9-2.4,0.9-3.8,0.9H51V134.2z M54.6,119.3v11.9h1.8c1.5,0,2.4-0.3,3.3-1.2
		c0.9-0.9,1.2-2.2,1.2-4.1v-0.9c0-1.9-0.3-3.2-1.2-4.1c-0.9-0.9-1.8-1.2-3.3-1.2h-1.8V119.3z"/>
	<polygon id="Shape_62_" class="st15" points="100.1,119.1 94.7,119.1 94.7,134.2 90.9,134.2 90.9,119.1 85.5,119.1 85.5,116.2 
		100.1,116.2 	"/>
	<polygon id="Shape_63_" class="st15" points="109.5,122.5 112.7,116.2 116.6,116.2 111.5,125 116.6,134.2 112.4,134.2 109.1,127.9 
		105.9,134.2 101.8,134.2 106.8,125 101.8,116.2 105.6,116.2 	"/>
	<path id="Shape_64_" class="st15" d="M118.1,134.2v-18h5.5c1.6,0,2.8,0.4,4,1c1.2,0.6,2.2,1.6,2.8,3.1c0.6,1.6,1,2.9,1,4.4v1
		c0,1.6-0.4,3.1-1,4.4c-0.6,1.3-1.6,2.2-2.8,3.1c-1.2,1-2.4,1-4,1L118.1,134.2L118.1,134.2z M121.8,119v12h1.8
		c1.6,0,2.4-0.4,3.4-1.3c1-1,1.2-2.2,1.2-4.1v-1c0-1.9-0.4-3.1-1.2-4.1c-1-1-1.8-1.3-3.4-1.3h-1.8V119z"/>
</g>
</svg>
