<svg id="图层_1" data-name="图层 1" xmlns="http://www.w3.org/2000/svg" viewBox="0 0 56.1 140.24"><defs><style>.cls-1{fill:#3f3f3f;}.cls-2{fill:#a5a5a5;}.cls-3{fill:#fff;stroke:#d5a52c;stroke-miterlimit:10;}.cls-4{fill:#1c1d1d;}.cls-5{fill:#272828;}.cls-6{fill:#d5a52c;}.cls-7{fill:#b98a22;}.cls-8{fill:#227238;}.cls-9{fill:#2c934b;}.cls-10{fill:#a89e26;}</style></defs><title>蓝牙</title><rect class="cls-1" x="52.9" y="11.16" width="56.1" height="137.4" rx="5.67" ry="5.67" transform="translate(109 151.41) rotate(180)"/><rect class="cls-2" x="12.43" y="71.87" width="3.23" height="14.25" rx="1.49" ry="1.49"/><rect class="cls-2" x="16.81" y="71.87" width="3.23" height="14.25" rx="1.49" ry="1.49"/><rect class="cls-2" x="21.18" y="71.87" width="3.23" height="14.25" rx="1.49" ry="1.49"/><rect class="cls-2" x="25.55" y="71.87" width="3.23" height="14.25" rx="1.49" ry="1.49"/><rect class="cls-2" x="29.93" y="71.87" width="3.23" height="14.25" rx="1.49" ry="1.49"/><rect class="cls-2" x="34.3" y="71.87" width="3.23" height="14.25" rx="1.49" ry="1.49"/><rect class="cls-2" x="38.68" y="71.87" width="3.23" height="14.25" rx="1.49" ry="1.49"/><circle class="cls-3" cx="9.23" cy="10" r="3.58"/><circle class="cls-3" cx="46.87" cy="10" r="3.58"/><rect class="cls-4" x="76.61" y="8.32" width="5.92" height="10.09" rx="0.62" ry="0.62" transform="translate(106.23 18.41) rotate(180)"/><path class="cls-2" d="M17.16,7.64h3.22a0,0,0,0,1,0,0v2.92a0,0,0,0,1,0,0H17.16a.85.85,0,0,1-.85-.85V8.49A.85.85,0,0,1,17.16,7.64Z"/><path class="cls-2" d="M86.7,16h3.22a0,0,0,0,1,0,0v2.92a0,0,0,0,1,0,0H86.7a.85.85,0,0,1-.85-.85V16.82A.85.85,0,0,1,86.7,16Z" transform="translate(122.87 26.53) rotate(180)"/><path class="cls-2" d="M17.16,16.45h3.22a0,0,0,0,1,0,0v2.92a0,0,0,0,1,0,0H17.16a.85.85,0,0,1-.85-.85V17.3A.85.85,0,0,1,17.16,16.45Z"/><path class="cls-2" d="M86.7,24.77h3.22a0,0,0,0,1,0,0v2.92a0,0,0,0,1,0,0H86.7a.85.85,0,0,1-.85-.85V25.62A.85.85,0,0,1,86.7,24.77Z" transform="translate(122.87 44.14) rotate(180)"/><path class="cls-2" d="M17.16,25.26h3.22a0,0,0,0,1,0,0v2.92a0,0,0,0,1,0,0H17.16a.85.85,0,0,1-.85-.85V26.11A.85.85,0,0,1,17.16,25.26Z"/><path class="cls-2" d="M86.7,33.58h3.22a0,0,0,0,1,0,0V36.5a0,0,0,0,1,0,0H86.7a.85.85,0,0,1-.85-.85V34.43A.85.85,0,0,1,86.7,33.58Z" transform="translate(122.87 61.76) rotate(180)"/><rect class="cls-5" x="73.28" y="11.26" width="12.57" height="26.73" rx="1.51" ry="1.51" transform="translate(106.23 40.94) rotate(180)"/><path class="cls-6" d="M78,11.26l-1,4.5,2.14,2.53h6.69V13.47a2.19,2.19,0,0,0-2.21-2.21L81.74,13l-.52-1.76Z" transform="translate(-52.9 -8.32)"/><polygon class="cls-7" points="25.14 2.94 25.6 1.23 27.71 1.23 28.32 2.94 25.14 2.94"/><rect class="cls-8" x="12.43" y="125.43" width="29.47" height="14.82"/><rect class="cls-2" x="8.13" y="75.24" width="38" height="3.69" rx="1.85" ry="1.85"/><rect class="cls-2" x="8.13" y="80.6" width="38" height="3.69" rx="1.85" ry="1.85"/><rect class="cls-2" x="8.13" y="85.97" width="38" height="3.69" rx="1.85" ry="1.85"/><rect class="cls-2" x="8.13" y="91.33" width="38" height="3.69" rx="1.85" ry="1.85"/><rect class="cls-2" x="8.13" y="96.7" width="38" height="3.69" rx="1.85" ry="1.85"/><rect class="cls-2" x="8.13" y="102.06" width="38" height="3.69" rx="1.85" ry="1.85"/><rect class="cls-2" x="8.13" y="107.43" width="38" height="3.69" rx="1.85" ry="1.85"/><rect class="cls-2" x="8.13" y="112.79" width="38" height="3.69" rx="1.85" ry="1.85"/><rect class="cls-2" x="8.13" y="118.15" width="38" height="3.69" rx="1.85" ry="1.85"/><rect class="cls-2" x="8.13" y="123.52" width="38" height="3.69" rx="1.85" ry="1.85"/><rect class="cls-2" x="8.13" y="128.88" width="38" height="3.69" rx="1.85" ry="1.85"/><rect class="cls-9" x="12.42" y="75.11" width="29.49" height="57.46"/><rect class="cls-1" x="13.6" y="76.55" width="12.88" height="10.5"/><rect class="cls-1" x="13.6" y="89.38" width="16.5" height="14.47"/><rect class="cls-10" x="12.85" y="132.57" width="1.14" height="6.65" rx="0.57" ry="0.57"/><rect class="cls-10" x="67.18" y="145.41" width="1.14" height="3.98" transform="translate(162.25 71.34) rotate(90)"/><rect class="cls-10" x="15.7" y="134" width="1.14" height="5.65"/><rect class="cls-10" x="18.34" y="134" width="1.14" height="5.65"/><rect class="cls-10" x="69.93" y="140.99" width="1.14" height="3.8" transform="translate(160.49 64.07) rotate(90)"/><rect class="cls-10" x="72.66" y="145.41" width="1.14" height="3.98" transform="translate(167.74 65.85) rotate(90)"/><rect class="cls-10" x="21.18" y="134" width="1.14" height="5.65"/><rect class="cls-10" x="23.82" y="134" width="1.14" height="5.65"/><rect class="cls-10" x="75.41" y="140.99" width="1.14" height="3.8" transform="translate(165.97 58.59) rotate(90)"/><rect class="cls-10" x="78.15" y="145.41" width="1.14" height="3.98" transform="translate(173.22 60.37) rotate(90)"/><rect class="cls-10" x="26.67" y="134" width="1.14" height="5.65"/><rect class="cls-10" x="29.31" y="134" width="1.14" height="5.65"/><rect class="cls-10" x="80.9" y="140.99" width="1.14" height="3.8" transform="translate(171.46 53.1) rotate(90)"/><rect class="cls-10" x="83.63" y="145.41" width="1.14" height="3.98" transform="translate(178.71 54.88) rotate(90)"/><rect class="cls-10" x="32.15" y="134" width="1.14" height="5.65"/><rect class="cls-10" x="89.12" y="145.41" width="1.14" height="3.98" transform="translate(184.19 49.4) rotate(90)"/><rect class="cls-10" x="37.64" y="134" width="1.14" height="5.65"/><rect class="cls-10" x="34.79" y="134" width="1.14" height="5.65"/><rect class="cls-10" x="40.26" y="134" width="1.14" height="5.65"/><rect class="cls-10" x="86.38" y="140.99" width="1.14" height="3.8" transform="translate(176.94 47.62) rotate(90)"/><rect class="cls-10" x="91.84" y="140.99" width="1.14" height="3.8" transform="translate(182.4 42.16) rotate(90)"/></svg>