<svg id="图层_1" data-name="图层 1" xmlns="http://www.w3.org/2000/svg" xmlns:xlink="http://www.w3.org/1999/xlink" viewBox="0 0 47.94 83.37"><defs><style>.cls-1{fill:none;}.cls-2{fill:#3f3f3f;}.cls-3{fill:#fff;stroke:#d5a52c;stroke-miterlimit:10;}.cls-4{font-size:3px;font-family:MicrosoftYaHei, Microsoft YaHei;}.cls-4,.cls-8{fill:#d5a52c;}.cls-5{fill:#1c1d1d;}.cls-6{fill:#a5a5a5;}.cls-7{fill:#272828;}.cls-9{fill:#1f91c7;}.cls-10{fill:#afafaf;}.cls-11{clip-path:url(#clip-path);}.cls-12{fill:#7c7b7c;}.cls-13{clip-path:url(#clip-path-2);}</style><clipPath id="clip-path" transform="translate(-43.98 -21.54)"><circle class="cls-1" cx="61.86" cy="33.66" r="4.05"/></clipPath><clipPath id="clip-path-2" transform="translate(-43.98 -21.54)"><circle class="cls-1" cx="75.66" cy="33.66" r="4.05"/></clipPath></defs><title>水泵</title><rect class="cls-2" width="47.94" height="80.5" rx="5.67" ry="5.67"/><circle class="cls-3" cx="5.68" cy="75.05" r="3.48"/><circle class="cls-3" cx="42.36" cy="75.05" r="3.48"/><text class="cls-4" transform="translate(4.88 25.97) rotate(90)"><tspan xml:space="preserve">Bump  Module</tspan></text><rect class="cls-5" x="21.09" y="73.53" width="5.77" height="9.83" rx="0.62" ry="0.62"/><path class="cls-6" d="M74.93,94.61H78a0,0,0,0,1,0,0v2.84a0,0,0,0,1,0,0H74.93a.85.85,0,0,1-.85-.85V95.46A.85.85,0,0,1,74.93,94.61Z" transform="translate(108.15 170.53) rotate(180)"/><path class="cls-6" d="M14.73,73.08h3.12a0,0,0,0,1,0,0v2.84a0,0,0,0,1,0,0H14.73a.85.85,0,0,1-.85-.85V73.93a.85.85,0,0,1,.85-.85Z"/><path class="cls-6" d="M74.93,86H78a0,0,0,0,1,0,0v2.84a0,0,0,0,1,0,0H74.93a.85.85,0,0,1-.85-.85V86.88A.85.85,0,0,1,74.93,86Z" transform="translate(108.15 153.36) rotate(180)"/><path class="cls-6" d="M14.73,64.49h3.12a0,0,0,0,1,0,0v2.84a0,0,0,0,1,0,0H14.73a.85.85,0,0,1-.85-.85V65.34A.85.85,0,0,1,14.73,64.49Z"/><path class="cls-6" d="M74.93,77.44H78a0,0,0,0,1,0,0v2.84a0,0,0,0,1,0,0H74.93a.85.85,0,0,1-.85-.85V78.29A.85.85,0,0,1,74.93,77.44Z" transform="translate(108.15 136.19) rotate(180)"/><path class="cls-6" d="M14.73,55.91h3.12a0,0,0,0,1,0,0v2.84a0,0,0,0,1,0,0H14.73a.85.85,0,0,1-.85-.85V56.76A.85.85,0,0,1,14.73,55.91Z"/><rect class="cls-7" x="17.85" y="54.45" width="12.25" height="26.05" rx="1.51" ry="1.51"/><path class="cls-8" d="M69.44,102l1-4.39-2.08-2.47H61.83v4.7A2.13,2.13,0,0,0,64,102l1.85-1.72.51,1.72Z" transform="translate(-43.98 -21.54)"/><rect class="cls-9" x="10.98" y="5.23" width="13.8" height="13.8"/><circle class="cls-10" cx="17.88" cy="12.13" r="4.05"/><g class="cls-11"><path class="cls-12" d="M65.67,33.23H62.3V29.85a.44.44,0,0,0-.87,0v3.38H58a.44.44,0,0,0,0,.88h3.38v3.38a.44.44,0,0,0,.88,0V34.1h3.38a.44.44,0,0,0,0-.87Z" transform="translate(-43.98 -21.54)"/></g><rect class="cls-9" x="24.77" y="5.23" width="13.8" height="13.8"/><circle class="cls-10" cx="31.67" cy="12.13" r="4.05"/><g class="cls-13"><path class="cls-12" d="M79.47,33.23H76.09V29.85a.44.44,0,0,0-.87,0v3.38H71.84a.44.44,0,0,0,0,.88h3.38v3.38a.44.44,0,0,0,.88,0V34.1h3.38a.44.44,0,0,0,0-.87Z" transform="translate(-43.98 -21.54)"/></g></svg>