<svg id="图层_1" data-name="图层 1" xmlns="http://www.w3.org/2000/svg" viewBox="0 0 47.94 83.37"><defs><style>.cls-1{fill:#1c1d1d;}.cls-2{fill:#a5a5a5;}.cls-3{fill:#272828;}.cls-11,.cls-4{fill:#d5a52c;}.cls-5{fill:#3f3f3f;}.cls-10,.cls-6{fill:#fff;}.cls-6{stroke:#d5a52c;stroke-miterlimit:10;}.cls-7{fill:#b5b5b5;}.cls-8{fill:#2a2b2b;}.cls-9{fill:#cccecc;}.cls-11{font-size:3px;font-family:MicrosoftYaHei, Microsoft YaHei;}.cls-12{letter-spacing:-0.01em;}.cls-13{letter-spacing:-0.01em;}.cls-14{letter-spacing:0em;}</style></defs><title>button&amp;apos;&amp;apos;白色</title><rect class="cls-1" x="21.09" y="73.53" width="5.77" height="9.83" rx="0.62" ry="0.62"/><path class="cls-2" d="M73.87,95.95H77a0,0,0,0,1,0,0v2.84a0,0,0,0,1,0,0H73.87a.85.85,0,0,1-.85-.85V96.8A.85.85,0,0,1,73.87,95.95Z" transform="translate(107.08 171.87) rotate(180)"/><path class="cls-2" d="M14.73,73.08h3.12a0,0,0,0,1,0,0v2.84a0,0,0,0,1,0,0H14.73a.85.85,0,0,1-.85-.85V73.93A.85.85,0,0,1,14.73,73.08Z"/><path class="cls-2" d="M73.87,87.36H77a0,0,0,0,1,0,0v2.84a0,0,0,0,1,0,0H73.87a.85.85,0,0,1-.85-.85V88.21A.85.85,0,0,1,73.87,87.36Z" transform="translate(107.08 154.7) rotate(180)"/><path class="cls-2" d="M14.73,64.49h3.12a0,0,0,0,1,0,0v2.84a0,0,0,0,1,0,0H14.73a.85.85,0,0,1-.85-.85V65.34A.85.85,0,0,1,14.73,64.49Z"/><path class="cls-2" d="M73.87,78.78H77a0,0,0,0,1,0,0v2.84a0,0,0,0,1,0,0H73.87a.85.85,0,0,1-.85-.85V79.63A.85.85,0,0,1,73.87,78.78Z" transform="translate(107.08 137.53) rotate(180)"/><path class="cls-2" d="M14.73,55.91h3.12a0,0,0,0,1,0,0v2.84a0,0,0,0,1,0,0H14.73a.85.85,0,0,1-.85-.85V56.76A.85.85,0,0,1,14.73,55.91Z"/><rect class="cls-3" x="17.85" y="54.45" width="12.25" height="26.05" rx="1.51" ry="1.51"/><path class="cls-4" d="M68.37,103.37l1-4.39-2.08-2.47H60.76v4.7a2.13,2.13,0,0,0,2.16,2.16l1.85-1.72.51,1.72Z" transform="translate(-42.92 -22.87)"/><rect class="cls-5" width="47.94" height="80.5" rx="5.67" ry="5.67"/><circle class="cls-6" cx="5.68" cy="75.05" r="3.48"/><circle class="cls-6" cx="42.36" cy="75.05" r="3.48"/><rect class="cls-1" x="8.46" y="7.64" width="31.03" height="31.03"/><rect class="cls-7" x="10.34" y="9.53" width="27.26" height="27.26"/><circle class="cls-8" cx="12.6" cy="11.75" r="1.36"/><circle class="cls-8" cx="12.6" cy="34.74" r="1.36"/><circle class="cls-8" cx="35.17" cy="11.75" r="1.36"/><circle class="cls-8" cx="35.17" cy="34.74" r="1.36"/><circle class="cls-9" cx="23.97" cy="23.16" r="15.52"/><circle class="cls-10" cx="23.97" cy="23.16" r="13.48"/><text class="cls-11" transform="translate(42.34 8.45) rotate(90)">But<tspan class="cls-12" x="4.85" y="0">t</tspan><tspan x="5.94" y="0">on </tspan><tspan class="cls-13" x="10.58" y="0">S</tspan><tspan x="12.27" y="0">wi</tspan><tspan class="cls-13" x="15.44" y="0">t</tspan><tspan class="cls-14" x="16.52" y="0">ch</tspan></text></svg>