<svg id="图层_1" data-name="图层 1" xmlns="http://www.w3.org/2000/svg" viewBox="0 0 47.94 83.37"><defs><style>.cls-1,.cls-12{fill:#1c1d1d;}.cls-2{fill:#a5a5a5;}.cls-3{fill:#272828;}.cls-11,.cls-4{fill:#d5a52c;}.cls-5{fill:#3f3f3f;}.cls-6{fill:#fff;stroke:#d5a52c;}.cls-10,.cls-12,.cls-6,.cls-9{stroke-miterlimit:10;}.cls-7{fill:#1f2020;}.cls-8{fill:#151515;}.cls-10,.cls-9{fill:none;stroke:#151515;stroke-width:0.5px;}.cls-10{stroke-linecap:round;}.cls-11{font-size:3px;font-family:MicrosoftYaHei, Microsoft YaHei;}.cls-12{stroke:#7a7a78;stroke-width:0.25px;}</style></defs><title>蜂鸣器</title><rect class="cls-1" x="21.09" y="73.53" width="5.77" height="9.83" rx="0.62" ry="0.62"/><path class="cls-2" d="M81.77,90.75h3.12a0,0,0,0,1,0,0v2.84a0,0,0,0,1,0,0H81.77a.85.85,0,0,1-.85-.85V91.6A.85.85,0,0,1,81.77,90.75Z" transform="translate(114.98 166.67) rotate(180)"/><path class="cls-2" d="M14.73,73.08h3.12a0,0,0,0,1,0,0v2.84a0,0,0,0,1,0,0H14.73a.85.85,0,0,1-.85-.85V73.93A.85.85,0,0,1,14.73,73.08Z"/><path class="cls-2" d="M81.77,82.16h3.12a0,0,0,0,1,0,0V85a0,0,0,0,1,0,0H81.77a.85.85,0,0,1-.85-.85V83A.85.85,0,0,1,81.77,82.16Z" transform="translate(114.98 149.5) rotate(180)"/><path class="cls-2" d="M14.73,64.49h3.12a0,0,0,0,1,0,0v2.84a0,0,0,0,1,0,0H14.73a.85.85,0,0,1-.85-.85V65.34A.85.85,0,0,1,14.73,64.49Z"/><path class="cls-2" d="M81.77,73.58h3.12a0,0,0,0,1,0,0v2.84a0,0,0,0,1,0,0H81.77a.85.85,0,0,1-.85-.85V74.43A.85.85,0,0,1,81.77,73.58Z" transform="translate(114.98 132.33) rotate(180)"/><path class="cls-2" d="M14.73,55.91h3.12a0,0,0,0,1,0,0v2.84a0,0,0,0,1,0,0H14.73a.85.85,0,0,1-.85-.85V56.76A.85.85,0,0,1,14.73,55.91Z"/><rect class="cls-3" x="17.85" y="54.45" width="12.25" height="26.05" rx="1.51" ry="1.51"/><path class="cls-4" d="M76.27,98.18l1-4.39-2.08-2.47H68.66V96a2.13,2.13,0,0,0,2.16,2.16l1.85-1.72.51,1.72Z" transform="translate(-50.82 -17.67)"/><rect class="cls-5" width="47.94" height="80.5" rx="5.67" ry="5.67"/><circle class="cls-6" cx="5.68" cy="75.05" r="3.48"/><circle class="cls-6" cx="42.36" cy="75.05" r="3.48"/><circle class="cls-7" cx="23.97" cy="23.13" r="15.69"/><circle class="cls-8" cx="23.97" cy="23.13" r="3.2"/><circle class="cls-9" cx="14.17" cy="18.94" r="2.2"/><line class="cls-10" x1="12.98" y1="18.94" x2="15.23" y2="18.94"/><line class="cls-10" x1="14.1" y1="17.82" x2="14.1" y2="20.07"/><text class="cls-11" transform="translate(42.26 8.45) rotate(90)">Buzzer</text><circle class="cls-12" cx="74.79" cy="75.65" r="1.92" transform="translate(-82.4 57.37) rotate(-45)"/><circle class="cls-12" cx="74.79" cy="91.52" r="1.92" transform="translate(-93.63 62.02) rotate(-45)"/><path class="cls-4" d="M97,41.35l-.3-.3a3.79,3.79,0,0,1-5.37,0l-.3.3A4.22,4.22,0,0,0,97,41.35Z" transform="translate(-50.82 -17.67)"/><path class="cls-4" d="M91.58,40.74l-.3.3a3.79,3.79,0,0,0,5.37,0l-.3-.3A3.37,3.37,0,0,1,91.58,40.74Z" transform="translate(-50.82 -17.67)"/><path class="cls-4" d="M92.18,40.15l-.3.3a3,3,0,0,0,4.18,0l-.3-.3A2.53,2.53,0,0,1,92.18,40.15Z" transform="translate(-50.82 -17.67)"/><path class="cls-4" d="M95.76,40.15l-.3-.3a2.11,2.11,0,0,1-3,0l-.3.3A2.53,2.53,0,0,0,95.76,40.15Z" transform="translate(-50.82 -17.67)"/><path class="cls-4" d="M93.08,39.25l-.3.3a1.69,1.69,0,0,0,2.39,0l-.3-.3A1.26,1.26,0,0,1,93.08,39.25Z" transform="translate(-50.82 -17.67)"/><path class="cls-4" d="M93.38,39l-.3.3a1.26,1.26,0,0,0,1.79,0l-.3-.3A.84.84,0,0,1,93.38,39Z" transform="translate(-50.82 -17.67)"/><path class="cls-4" d="M94.27,38.06a.42.42,0,0,0-.6,0l.3.3Z" transform="translate(-50.82 -17.67)"/><path class="cls-4" d="M93.68,38.06a.42.42,0,0,0,0,.6l.3-.3Z" transform="translate(-50.82 -17.67)"/><path class="cls-4" d="M94.27,38.06l-.3.3.3.3A.42.42,0,0,0,94.27,38.06Z" transform="translate(-50.82 -17.67)"/><path class="cls-4" d="M93.68,38.66a.42.42,0,0,0,.6,0l-.3-.3Z" transform="translate(-50.82 -17.67)"/><path class="cls-4" d="M94.19,36.75a.42.42,0,0,0-.58.15l.36.21Z" transform="translate(-50.82 -17.67)"/><path class="cls-4" d="M93.62,36.91a.42.42,0,0,0,.15.58l.21-.36Z" transform="translate(-50.82 -17.67)"/><path class="cls-4" d="M94.19,36.75l-.21.36.36.21A.42.42,0,0,0,94.19,36.75Z" transform="translate(-50.82 -17.67)"/><path class="cls-4" d="M93.77,37.48a.42.42,0,0,0,.58-.15L94,37.12Z" transform="translate(-50.82 -17.67)"/></svg>