<svg id="图层_1" data-name="图层 1" xmlns="http://www.w3.org/2000/svg" viewBox="0 0 47.94 83.37"><defs><style>.cls-1,.cls-7{fill:#1c1d1d;}.cls-2{fill:#a5a5a5;}.cls-3{fill:#272828;}.cls-4,.cls-8{fill:#d5a52c;}.cls-5{fill:#3f3f3f;}.cls-6{fill:#fff;stroke:#d5a52c;}.cls-6,.cls-7{stroke-miterlimit:10;}.cls-7{stroke:#7a7a78;stroke-width:0.25px;}.cls-8{font-size:3px;font-family:MicrosoftYaHei, Microsoft YaHei;}.cls-9{fill:#eaeaea;}.cls-10{fill:#188cb3;}.cls-11{fill:#30a4d3;}</style></defs><title>温湿度传感器</title><rect class="cls-1" x="21.09" y="73.53" width="5.77" height="9.83" rx="0.62" ry="0.62"/><path class="cls-2" d="M77.17,77.38h3.12a0,0,0,0,1,0,0v2.84a0,0,0,0,1,0,0H77.17a.85.85,0,0,1-.85-.85V78.23A.85.85,0,0,1,77.17,77.38Z" transform="translate(110.38 153.3) rotate(180)"/><path class="cls-2" d="M14.73,73.08h3.12a0,0,0,0,1,0,0v2.84a0,0,0,0,1,0,0H14.73a.85.85,0,0,1-.85-.85V73.93A.85.85,0,0,1,14.73,73.08Z"/><path class="cls-2" d="M77.17,68.8h3.12a0,0,0,0,1,0,0v2.84a0,0,0,0,1,0,0H77.17a.85.85,0,0,1-.85-.85V69.65A.85.85,0,0,1,77.17,68.8Z" transform="translate(110.38 136.13) rotate(180)"/><path class="cls-2" d="M14.73,64.49h3.12a0,0,0,0,1,0,0v2.84a0,0,0,0,1,0,0H14.73a.85.85,0,0,1-.85-.85V65.34A.85.85,0,0,1,14.73,64.49Z"/><path class="cls-2" d="M77.17,60.22h3.12a0,0,0,0,1,0,0v2.84a0,0,0,0,1,0,0H77.17a.85.85,0,0,1-.85-.85V61.07A.85.85,0,0,1,77.17,60.22Z" transform="translate(110.38 118.97) rotate(180)"/><path class="cls-2" d="M14.73,55.91h3.12a0,0,0,0,1,0,0v2.84a0,0,0,0,1,0,0H14.73a.85.85,0,0,1-.85-.85V56.76A.85.85,0,0,1,14.73,55.91Z"/><rect class="cls-3" x="17.85" y="54.45" width="12.25" height="26.05" rx="1.51" ry="1.51"/><path class="cls-4" d="M71.67,84.81l1-4.39L70.58,78H64.06v4.7a2.13,2.13,0,0,0,2.16,2.16l1.85-1.72.51,1.72Z" transform="translate(-46.22 -4.31)"/><rect class="cls-5" width="47.94" height="80.5" rx="5.67" ry="5.67"/><circle class="cls-6" cx="5.68" cy="75.05" r="3.48"/><circle class="cls-6" cx="42.36" cy="75.05" r="3.48"/><circle class="cls-7" cx="70.19" cy="60.34" r="1.92" transform="translate(-68.33 63) rotate(-45)"/><circle class="cls-7" cx="70.19" cy="76.21" r="1.92" transform="translate(-79.55 67.64) rotate(-45)"/><text class="cls-8" transform="translate(42.29 8.48) rotate(90)">DHT11</text><rect class="cls-9" x="10.62" y="2.04" width="26.7" height="29.59"/><rect class="cls-10" x="10.62" y="1.29" width="26.7" height="1.05"/><rect class="cls-10" x="43.28" y="21.69" width="28.65" height="1.54" transform="translate(33.85 -39.46) rotate(90)"/><rect class="cls-10" x="68.5" y="21.74" width="28.65" height="1.43" transform="translate(59.06 -64.68) rotate(90)"/><path class="cls-11" d="M83.54,14.78V5.6H79.26V7.89h-3V5.6H71.69V7.89h-3V5.6H64.11V7.89h-3V5.6H56.84v9.18h3v3h-3v2.11h3v3h-3V30.1h3v3h-3v3.68h26.7V33.1h-3v-3h3V22.89h-3v-3h3V17.78h-3v-3ZM64.11,33.1h-3v-3h3Zm0-5.11h-3V25h3Zm0-5.11h-3v-3h3Zm0-5.11h-3v-3h3Zm0-5.11h-3v-3h3ZM71.69,33.1h-3v-3h3Zm0-5.11h-3V25h3Zm0-5.11h-3v-3h3Zm0-5.11h-3v-3h3Zm0-5.11h-3v-3h3ZM79.26,33.1h-3v-3h3Zm0-5.11h-3V25h3Zm0-5.11h-3v-3h3Zm0-5.11h-3v-3h3Zm0-5.11h-3v-3h3Z" transform="translate(-46.22 -4.31)"/></svg>