<svg id="图层_1" data-name="图层 1" xmlns="http://www.w3.org/2000/svg" viewBox="0 0 120.98 210.37"><defs><style>.cls-1{fill:#3f3f3f;}.cls-2{fill:#fff;stroke:#d5a52c;stroke-width:2.52px;}.cls-2,.cls-8,.cls-9{stroke-miterlimit:10;}.cls-3{font-size:7.57px;font-family:MicrosoftYaHei, Microsoft YaHei;}.cls-3,.cls-7{fill:#d5a52c;}.cls-4{fill:#1c1d1d;}.cls-5{fill:#a5a5a5;}.cls-6{fill:#272828;}.cls-8,.cls-9{fill:none;stroke:#ad9a5f;stroke-width:0.63px;}.cls-9{stroke-linecap:round;}.cls-10{fill:#1f2020;}</style></defs><title>8</title><rect class="cls-1" width="120.98" height="203.13" rx="5.67" ry="5.67"/><circle class="cls-2" cx="14.32" cy="189.39" r="8.79"/><circle class="cls-2" cx="106.89" cy="189.39" r="8.79"/><text class="cls-3" transform="translate(100.93 73.12) rotate(90)">Magent1c Sensor</text><rect class="cls-4" x="53.22" y="185.55" width="14.55" height="24.82" rx="0.62" ry="0.62"/><path class="cls-5" d="M246,206.28h9.16a0,0,0,0,1,0,0v7.17a0,0,0,0,1,0,0H246a.85.85,0,0,1-.85-.85v-5.47A.85.85,0,0,1,246,206.28Z" transform="translate(331.08 397.85) rotate(180)"/><path class="cls-5" d="M35.88,184.4H45a0,0,0,0,1,0,0v7.17a0,0,0,0,1,0,0H35.88a.85.85,0,0,1-.85-.85v-5.47A.85.85,0,0,1,35.88,184.4Z"/><path class="cls-5" d="M246,184.62h9.16a0,0,0,0,1,0,0v7.17a0,0,0,0,1,0,0H246a.85.85,0,0,1-.85-.85v-5.47A.85.85,0,0,1,246,184.62Z" transform="translate(331.08 354.53) rotate(180)"/><path class="cls-5" d="M35.88,162.74H45a0,0,0,0,1,0,0v7.17a0,0,0,0,1,0,0H35.88a.85.85,0,0,1-.85-.85v-5.47A.85.85,0,0,1,35.88,162.74Z"/><path class="cls-5" d="M246,163h9.16a0,0,0,0,1,0,0v7.17a0,0,0,0,1,0,0H246a.85.85,0,0,1-.85-.85v-5.47A.85.85,0,0,1,246,163Z" transform="translate(331.08 311.21) rotate(180)"/><path class="cls-5" d="M35.88,141.08H45a0,0,0,0,1,0,0v7.17a0,0,0,0,1,0,0H35.88a.85.85,0,0,1-.85-.85v-5.47A.85.85,0,0,1,35.88,141.08Z"/><rect class="cls-6" x="45.03" y="137.4" width="30.92" height="65.73" rx="1.51" ry="1.51"/><path class="cls-7" d="M233.39,225l2.51-11.08-5.26-6.23H214.2v11.86a5.38,5.38,0,0,0,5.44,5.44l4.67-4.33L225.6,225Z" transform="translate(-169.17 -21.89)"/><circle class="cls-8" cx="12.24" cy="23.38" r="2.52"/><circle class="cls-8" cx="103.46" cy="23.91" r="2.52"/><line class="cls-9" x1="12.24" y1="23.38" x2="24.54" y2="23.38"/><line class="cls-9" x1="92.04" y1="23.91" x2="103.46" y2="23.91"/><rect class="cls-10" x="19.81" y="16.86" width="78.29" height="12.26"/></svg>