<svg id="图层_1" data-name="图层 1" xmlns="http://www.w3.org/2000/svg" viewBox="0 0 47.94 83.37"><defs><style>.cls-1{fill:#3f3f3f;}.cls-2{fill:#fff;stroke:#d5a52c;stroke-miterlimit:10;}.cls-3{font-size:3px;font-family:MicrosoftYaHei, Microsoft YaHei;}.cls-13,.cls-3{fill:#d5a52c;}.cls-4{letter-spacing:-0.03em;}.cls-5{letter-spacing:0em;}.cls-6{letter-spacing:-0.01em;}.cls-7{letter-spacing:0em;}.cls-8{fill:#1f2020;}.cls-9{fill:#151515;}.cls-10{fill:#1c1d1d;}.cls-11{fill:#a5a5a5;}.cls-12{fill:#272828;}</style></defs><title>红外</title><rect class="cls-1" width="47.94" height="80.5" rx="5.67" ry="5.67"/><circle class="cls-2" cx="5.68" cy="75.05" r="3.48"/><circle class="cls-2" cx="42.36" cy="75.05" r="3.48"/><text class="cls-3" transform="translate(38.87 8.48) rotate(90)"><tspan xml:space="preserve">38K  </tspan><tspan class="cls-4" x="7.2" y="0">R</tspan><tspan class="cls-5" x="9.07" y="0">ecei</tspan><tspan class="cls-6" x="14.77" y="0">v</tspan><tspan class="cls-7" x="16.33" y="0">er</tspan></text><rect class="cls-8" x="17.36" y="7.93" width="12" height="4.86"/><path class="cls-9" d="M159,354a4.54,4.54,0,0,0-9,0Z" transform="translate(-131.15 -345.91)"/><rect class="cls-10" x="21.09" y="73.53" width="5.77" height="9.83" rx="0.62" ry="0.62"/><path class="cls-11" d="M162.1,419h3.12a0,0,0,0,1,0,0v2.84a0,0,0,0,1,0,0H162.1a.85.85,0,0,1-.85-.85v-1.14A.85.85,0,0,1,162.1,419Z" transform="translate(195.31 494.9) rotate(180)"/><path class="cls-11" d="M14.73,73.08h3.12a0,0,0,0,1,0,0v2.84a0,0,0,0,1,0,0H14.73a.85.85,0,0,1-.85-.85V73.93A.85.85,0,0,1,14.73,73.08Z"/><path class="cls-11" d="M162.1,410.4h3.12a0,0,0,0,1,0,0v2.84a0,0,0,0,1,0,0H162.1a.85.85,0,0,1-.85-.85v-1.14A.85.85,0,0,1,162.1,410.4Z" transform="translate(195.31 477.74) rotate(180)"/><path class="cls-11" d="M14.73,64.49h3.12a0,0,0,0,1,0,0v2.84a0,0,0,0,1,0,0H14.73a.85.85,0,0,1-.85-.85V65.34A.85.85,0,0,1,14.73,64.49Z"/><path class="cls-11" d="M162.1,401.82h3.12a0,0,0,0,1,0,0v2.84a0,0,0,0,1,0,0H162.1a.85.85,0,0,1-.85-.85v-1.14A.85.85,0,0,1,162.1,401.82Z" transform="translate(195.31 460.57) rotate(180)"/><path class="cls-11" d="M14.73,55.91h3.12a0,0,0,0,1,0,0v2.84a0,0,0,0,1,0,0H14.73a.85.85,0,0,1-.85-.85V56.76A.85.85,0,0,1,14.73,55.91Z"/><rect class="cls-12" x="17.85" y="54.45" width="12.25" height="26.05" rx="1.51" ry="1.51"/><path class="cls-13" d="M156.6,426.41l1-4.39-2.08-2.47H149v4.7a2.13,2.13,0,0,0,2.16,2.16L153,424.7l.51,1.72Z" transform="translate(-131.15 -345.91)"/></svg>