<svg id="图层_1" data-name="图层 1" xmlns="http://www.w3.org/2000/svg" xmlns:xlink="http://www.w3.org/1999/xlink" viewBox="0 0 47.94 83.37"><defs><style>.cls-1,.cls-9{fill:none;}.cls-16,.cls-2{fill:#1c1d1d;}.cls-3{fill:#a5a5a5;}.cls-4{fill:#272828;}.cls-5,.cls-8{fill:#d5a52c;}.cls-6{fill:#3f3f3f;}.cls-13,.cls-7{fill:#fff;}.cls-7{stroke:#d5a52c;}.cls-16,.cls-7,.cls-9{stroke-miterlimit:10;}.cls-8{font-size:3px;font-family:MicrosoftYaHei, Microsoft YaHei;}.cls-9{stroke:#fff;stroke-width:0.5px;}.cls-10{fill:#bcbcbc;}.cls-11{clip-path:url(#clip-path);}.cls-12{fill:#982929;}.cls-14{fill:#846e3b;}.cls-15{fill:#2f3030;}.cls-16{stroke:#7a7a78;stroke-width:0.25px;}</style><clipPath id="clip-path" transform="translate(-43.99 -27.35)"><path class="cls-1" d="M69.88,41.79H66.16a3.15,3.15,0,0,0,0,6.22h3.72a3.15,3.15,0,0,0,0-6.22Z"/></clipPath></defs><title>光敏传感器</title><rect class="cls-2" x="21.09" y="73.53" width="5.77" height="9.83" rx="0.62" ry="0.62"/><path class="cls-3" d="M74.94,100.43h3.12a0,0,0,0,1,0,0v2.84a0,0,0,0,1,0,0H74.94a.85.85,0,0,1-.85-.85v-1.14A.85.85,0,0,1,74.94,100.43Z" transform="translate(108.15 176.35) rotate(180)"/><path class="cls-3" d="M14.73,73.08h3.12a0,0,0,0,1,0,0v2.84a0,0,0,0,1,0,0H14.73a.85.85,0,0,1-.85-.85V73.93A.85.85,0,0,1,14.73,73.08Z"/><path class="cls-3" d="M74.94,91.84h3.12a0,0,0,0,1,0,0v2.84a0,0,0,0,1,0,0H74.94a.85.85,0,0,1-.85-.85V92.69A.85.85,0,0,1,74.94,91.84Z" transform="translate(108.15 159.18) rotate(180)"/><path class="cls-3" d="M14.73,64.49h3.12a0,0,0,0,1,0,0v2.84a0,0,0,0,1,0,0H14.73a.85.85,0,0,1-.85-.85V65.34A.85.85,0,0,1,14.73,64.49Z"/><path class="cls-3" d="M74.94,83.26h3.12a0,0,0,0,1,0,0V86.1a0,0,0,0,1,0,0H74.94a.85.85,0,0,1-.85-.85V84.11A.85.85,0,0,1,74.94,83.26Z" transform="translate(108.15 142.01) rotate(180)"/><path class="cls-3" d="M14.73,55.91h3.12a0,0,0,0,1,0,0v2.84a0,0,0,0,1,0,0H14.73a.85.85,0,0,1-.85-.85V56.76A.85.85,0,0,1,14.73,55.91Z"/><rect class="cls-4" x="17.85" y="54.45" width="12.25" height="26.05" rx="1.51" ry="1.51"/><path class="cls-5" d="M69.44,107.85l1-4.39L68.35,101H61.84v4.7A2.13,2.13,0,0,0,64,107.85l1.85-1.72.51,1.72Z" transform="translate(-43.99 -27.35)"/><rect class="cls-6" width="47.94" height="80.5" rx="5.67" ry="5.67"/><circle class="cls-7" cx="5.68" cy="75.05" r="3.48"/><circle class="cls-7" cx="42.36" cy="75.05" r="3.48"/><text class="cls-8" transform="translate(33.83 8.48) rotate(90)">Light Sensor</text><circle class="cls-9" cx="24.05" cy="17.55" r="5.17"/><path class="cls-10" d="M69.91,41.79H66.19a3.15,3.15,0,0,0,0,6.22h3.72a3.15,3.15,0,0,0,0-6.22Z" transform="translate(-43.99 -27.35)"/><g class="cls-11"><path class="cls-12" d="M70.61,47.18H64.26a.16.16,0,0,1,0-.32h6.35a.19.19,0,0,0,.19-.19v-.42a.19.19,0,0,0-.19-.19H66a.52.52,0,0,1-.52-.52v-.28a.52.52,0,0,1,.52-.52h4.62a.2.2,0,0,0,.2-.2v-.36a.19.19,0,0,0-.19-.19H66a.51.51,0,0,1-.51-.51v-.31a.5.5,0,0,1,.5-.51c4.91-.06,5.83,0,5.88,0a.16.16,0,0,1-.13.29c-.24,0-3.53,0-5.75,0a.19.19,0,0,0-.19.19v.31a.2.2,0,0,0,.2.2h4.64a.51.51,0,0,1,.51.51v.36a.52.52,0,0,1-.52.52H66a.2.2,0,0,0-.2.2v.28a.21.21,0,0,0,.21.21h4.61a.51.51,0,0,1,.51.51v.42A.51.51,0,0,1,70.61,47.18Z" transform="translate(-43.99 -27.35)"/></g><path class="cls-13" d="M58.88,35.67V32.13a.49.49,0,0,1,.49-.49h2a.78.78,0,0,0,.51-.17,3.11,3.11,0,1,1,0,4.71.8.8,0,0,0-.52-.18H59.21A.33.33,0,0,1,58.88,35.67Zm7.79-1.86a2.94,2.94,0,0,0-.06-.59,2.8,2.8,0,0,0-4.56-1.52,1.09,1.09,0,0,1-.71.25h-2a.19.19,0,0,0-.19.19v3.53l2.15,0a1.1,1.1,0,0,1,.72.25,2.8,2.8,0,0,0,4.62-2.13Z" transform="translate(-43.99 -27.35)"/><path class="cls-13" d="M58.24,35.45V32.18a.15.15,0,0,1,.3,0v3.27a.15.15,0,0,1-.3,0Z" transform="translate(-43.99 -27.35)"/><path class="cls-13" d="M57.68,34.43V33.21a.15.15,0,0,1,.3,0v1.22a.15.15,0,1,1-.3,0Z" transform="translate(-43.99 -27.35)"/><path class="cls-13" d="M62.22,33.85A1.79,1.79,0,1,1,64,35.63,1.79,1.79,0,0,1,62.22,33.85Zm3.33,0A1.54,1.54,0,1,0,64,35.39,1.54,1.54,0,0,0,65.55,33.85Z" transform="translate(-43.99 -27.35)"/><rect class="cls-6" x="62.13" y="33.3" width="0.7" height="1.23" transform="translate(52.4 -55.92) rotate(90)"/><path class="cls-13" d="M67.56,33.82a.15.15,0,0,1,.15-.15h1.5a.15.15,0,0,1,0,.3h-1.5A.15.15,0,0,1,67.56,33.82Z" transform="translate(-43.99 -27.35)"/><path class="cls-13" d="M67.23,32a.15.15,0,0,1,.08-.13l1.3-.75a.15.15,0,0,1,.15.26l-1.3.75a.15.15,0,0,1-.21-.06A.15.15,0,0,1,67.23,32Z" transform="translate(-43.99 -27.35)"/><path class="cls-13" d="M66.3,30.77a.15.15,0,0,1,0-.08l.75-1.3a.15.15,0,1,1,.26.15l-.75,1.3a.15.15,0,0,1-.28-.08Z" transform="translate(-43.99 -27.35)"/><path class="cls-13" d="M66.3,36.55a.15.15,0,0,1,.28-.08l.75,1.3a.15.15,0,1,1-.26.15l-.75-1.3A.15.15,0,0,1,66.3,36.55Z" transform="translate(-43.99 -27.35)"/><path class="cls-13" d="M67.23,35.45a.15.15,0,0,1,0-.08.15.15,0,0,1,.21-.06l1.3.75a.15.15,0,0,1-.15.26l-1.3-.75A.15.15,0,0,1,67.23,35.45Z" transform="translate(-43.99 -27.35)"/><rect class="cls-14" x="22.25" y="27.91" width="3.44" height="2.58"/><rect class="cls-10" x="69.68" y="55.26" width="0.85" height="2.58" transform="translate(96.22 85.75) rotate(180)"/><rect class="cls-10" x="65.4" y="55.26" width="0.85" height="2.58" transform="translate(87.65 85.75) rotate(180)"/><rect class="cls-15" x="22.25" y="31.99" width="3.44" height="2.58"/><rect class="cls-10" x="69.68" y="59.34" width="0.85" height="2.58" transform="translate(96.22 93.91) rotate(180)"/><rect class="cls-10" x="65.4" y="59.34" width="0.85" height="2.58" transform="translate(87.65 93.91) rotate(180)"/><circle class="cls-16" cx="68.05" cy="85.73" r="1.92" transform="translate(-84.68 45.88) rotate(-45)"/><circle class="cls-16" cx="68.05" cy="101.6" r="1.92" transform="translate(-95.9 50.53) rotate(-45)"/></svg>