<svg id="图层_1" data-name="图层 1" xmlns="http://www.w3.org/2000/svg" xmlns:xlink="http://www.w3.org/1999/xlink" viewBox="0 0 137.19 406.69"><defs><style>.cls-1{fill:none;}.cls-2{fill:#edcc92;}.cls-2,.cls-5{stroke:#040000;stroke-miterlimit:10;stroke-width:2px;}.cls-3{clip-path:url(#clip-path);}.cls-4{fill:#3e3e3f;}.cls-5{fill:#1b1d1d;}.cls-6{fill:#a5a5a4;}.cls-7{fill:#262727;}.cls-8,.cls-9{fill:#cda030;}.cls-9{font-size:11px;font-family:MicrosoftYaHei, Microsoft YaHei;}.cls-10{letter-spacing:-0.01em;}.cls-11{fill:#fff;}</style><clipPath id="clip-path" transform="translate(-18.46 29.54)"><rect class="cls-1" x="-5.53" y="-61.75" width="184.21" height="135.19" transform="translate(80.74 92.42) rotate(-90)"/></clipPath></defs><title>土壤湿度传感器</title><path class="cls-2" d="M19.46-2.15V326.2l17.79,46.16a5.83,5.83,0,0,0,4.4,3.71,5.68,5.68,0,0,0,6.26-3.55L65.75,326.2V93.4A18.79,18.79,0,0,1,84.54,74.61h5A18.79,18.79,0,0,1,108.37,93.4V326.2l17.79,46.16a5.83,5.83,0,0,0,4.4,3.71,5.68,5.68,0,0,0,6.26-3.55l17.85-46.32V-2.15a18.56,18.56,0,0,0-18.56-18.56H38A18.56,18.56,0,0,0,19.46-2.15Z" transform="translate(-18.46 29.54)"/><g class="cls-3"><path class="cls-4" d="M19.46-2.15V326.2l17.79,46.16a5.83,5.83,0,0,0,4.4,3.71,5.68,5.68,0,0,0,6.26-3.55L65.75,326.2V93.4A18.79,18.79,0,0,1,84.54,74.61h5A18.79,18.79,0,0,1,108.37,93.4V326.2l17.79,46.16a5.83,5.83,0,0,0,4.4,3.71,5.68,5.68,0,0,0,6.26-3.55l17.85-46.32V-2.15a18.56,18.56,0,0,0-18.56-18.56H38A18.56,18.56,0,0,0,19.46-2.15Z" transform="translate(-18.46 29.54)"/></g><path class="cls-5" d="M80.12-28.54H94a.62.62,0,0,1,.62.62V-9.4A6.63,6.63,0,0,1,88-2.77H86.14A6.63,6.63,0,0,1,79.5-9.4V-27.92A.62.62,0,0,1,80.12-28.54Z" transform="translate(155.65 -1.77) rotate(180)"/><path class="cls-6" d="M45.87,20.52h6.67a0,0,0,0,1,0,0V28a0,0,0,0,1,0,0H45.87a3.72,3.72,0,0,1-3.72-3.72v0A3.72,3.72,0,0,1,45.87,20.52Z"/><path class="cls-6" d="M106.84-9h6.67a0,0,0,0,1,0,0v7.45a0,0,0,0,1,0,0h-6.67a3.72,3.72,0,0,1-3.72-3.72v0A3.72,3.72,0,0,1,106.84-9Z" transform="translate(198.15 18.94) rotate(-180)"/><path class="cls-6" d="M45.87,43h6.67a0,0,0,0,1,0,0v7.45a0,0,0,0,1,0,0H45.87a3.72,3.72,0,0,1-3.72-3.72v0A3.72,3.72,0,0,1,45.87,43Z"/><path class="cls-6" d="M106.84,13.47h6.67a0,0,0,0,1,0,0v7.45a0,0,0,0,1,0,0h-6.67a3.72,3.72,0,0,1-3.72-3.72v0a3.72,3.72,0,0,1,3.72-3.72Z" transform="translate(198.15 63.93) rotate(180)"/><path class="cls-6" d="M45.87,65.5h6.67a0,0,0,0,1,0,0V73a0,0,0,0,1,0,0H45.87a3.72,3.72,0,0,1-3.72-3.72v0a3.72,3.72,0,0,1,3.72-3.72Z"/><path class="cls-6" d="M106.84,36h6.67a0,0,0,0,1,0,0v7.45a0,0,0,0,1,0,0h-6.67a3.72,3.72,0,0,1-3.72-3.72v0A3.72,3.72,0,0,1,106.84,36Z" transform="translate(198.15 108.91) rotate(180)"/><rect class="cls-7" x="71.01" y="-21.03" width="32.1" height="68.26" rx="7.53" ry="7.53" transform="translate(155.65 55.74) rotate(180)"/><path class="cls-8" d="M83.18-21l-2.6,11.5L86-3.07h17.07V-15.38A5.59,5.59,0,0,0,97.46-21l-4.85,4.5L91.28-21Z" transform="translate(-18.46 29.54)"/><text class="cls-9" transform="translate(15.83 20.52) rotate(90)">Moistu<tspan class="cls-10" x="36.63" y="0">r</tspan><tspan x="40.67" y="0" xml:space="preserve">e  Sensor</tspan></text><circle class="cls-11" cx="125.85" cy="165.99" r="2.75"/><circle class="cls-11" cx="112.78" cy="165.99" r="2.75"/><circle class="cls-11" cx="99.7" cy="165.99" r="2.75"/><circle class="cls-11" cx="125.85" cy="208.61" r="2.75"/><circle class="cls-11" cx="112.78" cy="208.61" r="2.75"/><circle class="cls-11" cx="99.7" cy="208.61" r="2.75"/><circle class="cls-11" cx="125.85" cy="251.23" r="2.75"/><circle class="cls-11" cx="112.78" cy="251.23" r="2.75"/><circle class="cls-11" cx="99.7" cy="251.23" r="2.75"/><circle class="cls-11" cx="125.85" cy="293.85" r="2.75"/><circle class="cls-11" cx="112.78" cy="293.85" r="2.75"/><circle class="cls-11" cx="99.7" cy="293.85" r="2.75"/><circle class="cls-11" cx="125.85" cy="336.47" r="2.75"/><circle class="cls-11" cx="112.78" cy="336.47" r="2.75"/><circle class="cls-11" cx="99.7" cy="336.47" r="2.75"/><circle class="cls-11" cx="36.03" cy="165.99" r="2.75"/><circle class="cls-11" cx="22.96" cy="165.99" r="2.75"/><circle class="cls-11" cx="9.88" cy="165.99" r="2.75"/><circle class="cls-11" cx="36.03" cy="208.61" r="2.75"/><circle class="cls-11" cx="22.96" cy="208.61" r="2.75"/><circle class="cls-11" cx="9.88" cy="208.61" r="2.75"/><circle class="cls-11" cx="36.03" cy="251.23" r="2.75"/><circle class="cls-11" cx="22.96" cy="251.23" r="2.75"/><circle class="cls-11" cx="9.88" cy="251.23" r="2.75"/><circle class="cls-11" cx="36.03" cy="293.85" r="2.75"/><circle class="cls-11" cx="22.96" cy="293.85" r="2.75"/><circle class="cls-11" cx="9.88" cy="293.85" r="2.75"/><circle class="cls-11" cx="36.03" cy="336.47" r="2.75"/><circle class="cls-11" cx="22.96" cy="336.47" r="2.75"/><circle class="cls-11" cx="9.88" cy="336.47" r="2.75"/></svg>