<svg id="图层_1" data-name="图层 1" xmlns="http://www.w3.org/2000/svg" viewBox="0 0 639.89 352.32"><defs><style>.cls-1{fill:#403f3f;}.cls-2{fill:#48bed1;}.cls-3{fill:#288e99;}.cls-13,.cls-4{fill:#fff;}.cls-5{fill:#ededec;}.cls-6{fill:#b7b7b7;}.cls-7{fill:#d1d3d1;}.cls-8{fill:#a5a5a5;}.cls-9{fill:#272828;}.cls-10,.cls-11{fill:none;stroke-miterlimit:10;}.cls-10{stroke:#e5e5e5;}.cls-11{stroke:#181818;stroke-width:3px;}.cls-12{fill:#b3af16;}.cls-13{font-size:24px;font-family:AdobeSongStd-Light-GBpc-EUC-H, Adobe Song Std;}</style></defs><title>1</title><polygon class="cls-1" points="22.07 0 22.07 15.02 0 21.03 0 199.39 22.07 205.4 22.07 272.44 409.07 272.44 409.07 0 22.07 0"/><rect class="cls-2" x="135.91" y="5.64" width="87" height="13.04"/><rect class="cls-3" x="137.91" y="7.48" width="9.37" height="9.37"/><rect class="cls-3" x="152.67" y="7.48" width="9.37" height="9.37"/><rect class="cls-3" x="167.44" y="7.48" width="9.37" height="9.37"/><rect class="cls-3" x="182.21" y="7.48" width="9.37" height="9.37"/><rect class="cls-3" x="196.97" y="7.48" width="9.37" height="9.37"/><rect class="cls-3" x="211.74" y="7.48" width="9.37" height="9.37"/><circle class="cls-4" cx="15.41" cy="37.05" r="9.33"/><circle class="cls-4" cx="316.07" cy="15.05" r="9.33"/><circle class="cls-4" cx="389.07" cy="86.1" r="9.33"/><circle class="cls-4" cx="336.66" cy="86.1" r="9.33"/><circle class="cls-4" cx="284.24" cy="86.1" r="9.33"/><circle class="cls-4" cx="316.07" cy="255.1" r="9.33"/><circle class="cls-4" cx="15.41" cy="186.3" r="9.33"/><rect class="cls-2" x="39.07" y="5.64" width="87" height="13.04"/><rect class="cls-2" x="39.07" y="238.5" width="112.5" height="9.37"/><rect class="cls-3" x="41.07" y="7.48" width="9.37" height="9.37"/><rect class="cls-3" x="41.95" y="239.82" width="7.63" height="6.74"/><rect class="cls-3" x="141.45" y="239.82" width="7.63" height="6.74"/><rect class="cls-3" x="127.23" y="239.82" width="7.63" height="6.74"/><rect class="cls-3" x="113.02" y="239.82" width="7.63" height="6.74"/><rect class="cls-3" x="98.81" y="239.82" width="7.63" height="6.74"/><rect class="cls-3" x="84.59" y="239.82" width="7.63" height="6.74"/><rect class="cls-3" x="70.38" y="239.82" width="7.63" height="6.74"/><rect class="cls-3" x="56.16" y="239.82" width="7.63" height="6.74"/><rect class="cls-2" x="162.41" y="238.5" width="112.5" height="9.37"/><rect class="cls-3" x="165.28" y="239.82" width="7.63" height="6.74"/><rect class="cls-3" x="264.78" y="239.82" width="7.63" height="6.74"/><rect class="cls-3" x="250.57" y="239.82" width="7.63" height="6.74"/><rect class="cls-3" x="236.35" y="239.82" width="7.63" height="6.74"/><rect class="cls-3" x="222.14" y="239.82" width="7.63" height="6.74"/><rect class="cls-3" x="207.92" y="239.82" width="7.63" height="6.74"/><rect class="cls-3" x="193.71" y="239.82" width="7.63" height="6.74"/><rect class="cls-3" x="179.5" y="239.82" width="7.63" height="6.74"/><rect class="cls-3" x="55.84" y="7.48" width="9.37" height="9.37"/><rect class="cls-3" x="70.61" y="7.48" width="9.37" height="9.37"/><rect class="cls-3" x="85.37" y="7.48" width="9.37" height="9.37"/><rect class="cls-3" x="100.14" y="7.48" width="9.37" height="9.37"/><rect class="cls-3" x="114.91" y="7.48" width="9.37" height="9.37"/><rect class="cls-5" x="62.85" y="150.71" width="34.26" height="64.58"/><rect class="cls-6" x="66.57" y="155.73" width="26.82" height="54.53"/><rect class="cls-7" x="93.39" y="164.75" width="3.72" height="36.49"/><rect class="cls-7" x="89.67" y="150.71" width="3.72" height="5.03"/><rect class="cls-8" x="78.12" y="166.58" width="3.72" height="5.03"/><rect class="cls-8" x="78.12" y="175.53" width="3.72" height="5.03"/><rect class="cls-8" x="78.12" y="184.49" width="3.72" height="5.03"/><rect class="cls-8" x="78.12" y="193.45" width="3.72" height="5.03"/><rect class="cls-7" x="89.67" y="210.26" width="3.72" height="5.03"/><rect class="cls-5" x="110.1" y="150.71" width="34.26" height="64.58"/><rect class="cls-6" x="113.82" y="155.73" width="26.82" height="54.53"/><rect class="cls-7" x="140.64" y="164.75" width="3.72" height="36.49"/><rect class="cls-7" x="136.93" y="150.71" width="3.72" height="5.03"/><rect class="cls-8" x="125.37" y="166.58" width="3.72" height="5.03"/><rect class="cls-8" x="125.37" y="175.53" width="3.72" height="5.03"/><rect class="cls-8" x="125.37" y="184.49" width="3.72" height="5.03"/><rect class="cls-8" x="125.37" y="193.45" width="3.72" height="5.03"/><rect class="cls-7" x="136.93" y="210.26" width="3.72" height="5.03"/><rect class="cls-8" x="131.22" y="336.84" width="1.64" height="27.14" transform="translate(-253.3 267.5) rotate(-90)"/><rect class="cls-8" x="131.22" y="334.07" width="1.64" height="27.14" transform="translate(-250.53 264.73) rotate(-90)"/><rect class="cls-8" x="131.22" y="331.3" width="1.64" height="27.14" transform="translate(-247.76 261.95) rotate(-90)"/><rect class="cls-8" x="131.22" y="328.52" width="1.64" height="27.14" transform="translate(-244.98 259.18) rotate(-90)"/><rect class="cls-8" x="131.22" y="325.75" width="1.64" height="27.14" transform="translate(-242.21 256.41) rotate(-90)"/><rect class="cls-8" x="131.22" y="322.98" width="1.64" height="27.14" transform="translate(-239.44 253.63) rotate(-90)"/><rect class="cls-8" x="131.22" y="320.21" width="1.64" height="27.14" transform="translate(-236.67 250.86) rotate(-90)"/><rect class="cls-8" x="131.22" y="317.43" width="1.64" height="27.14" transform="translate(-233.89 248.09) rotate(-90)"/><rect class="cls-9" x="120.54" y="330.84" width="23" height="20.12" transform="translate(-243.79 257.99) rotate(-90)"/><rect class="cls-8" x="65.65" y="67.76" width="2" height="26.74"/><rect class="cls-8" x="112.05" y="280.23" width="2" height="32.04" transform="translate(-218.13 194.35) rotate(-90)"/><rect class="cls-8" x="112.05" y="270.31" width="2" height="32.04" transform="translate(-208.21 184.43) rotate(-90)"/><rect class="cls-8" x="112.05" y="290.15" width="2" height="32.04" transform="translate(-228.05 204.26) rotate(-90)"/><rect class="cls-8" x="112.05" y="286.84" width="2" height="32.04" transform="translate(-224.74 200.96) rotate(-90)"/><rect class="cls-8" x="112.05" y="273.62" width="2" height="32.04" transform="translate(-211.52 187.73) rotate(-90)"/><rect class="cls-8" x="112.05" y="276.92" width="2" height="32.04" transform="translate(-214.82 191.04) rotate(-90)"/><rect class="cls-8" x="112.05" y="283.53" width="2" height="32.04" transform="translate(-221.43 197.65) rotate(-90)"/><rect class="cls-8" x="68.61" y="67.76" width="2" height="26.74"/><rect class="cls-8" x="71.56" y="67.76" width="2" height="26.74"/><rect class="cls-8" x="74.51" y="67.76" width="2" height="26.74"/><rect class="cls-8" x="77.47" y="67.76" width="2" height="26.74"/><rect class="cls-8" x="80.42" y="67.76" width="2" height="26.74"/><rect class="cls-8" x="83.37" y="67.76" width="2" height="26.74"/><rect class="cls-8" x="89.28" y="67.76" width="2" height="26.74"/><rect class="cls-8" x="86.32" y="67.76" width="2" height="26.74"/><rect class="cls-9" x="64.12" y="69.54" width="28" height="23.18"/><rect class="cls-6" x="79.47" y="33.8" width="34.36" height="10.75" rx="5.37" ry="5.37"/><polyline class="cls-10" points="409.07 31.55 243.98 31.55 243.98 169.09 409.07 169.09"/><path class="cls-1" d="M497.85,404.23v163h177v-163ZM587,545a57.69,57.69,0,1,1,57.69-57.69A57.69,57.69,0,0,1,587,545Z" transform="translate(-34.93 -214.95)"/><polyline class="cls-11" points="228.49 74.26 475.95 74.26 475.95 230.42"/><rect class="cls-6" x="469.45" y="198.55" width="14.25" height="19.12" rx="5.67" ry="5.67"/><circle class="cls-6" cx="476.57" cy="230.42" r="7.12"/><path class="cls-12" d="M267.38,286.57h-6.55a4.09,4.09,0,0,0-4-3.55H243.13a4.11,4.11,0,0,0-4.09,4.09v4a4.11,4.11,0,0,0,4.09,4.09h13.65a4.1,4.1,0,0,0,4-3.41h6.57a.79.79,0,0,0,.79-.79v-3.69A.79.79,0,0,0,267.38,286.57Z" transform="translate(-34.93 -214.95)"/><text class="cls-13" transform="translate(396.35 210.36) rotate(180)">NFC Shield</text></svg>