<svg id="图层_1" data-name="图层 1" xmlns="http://www.w3.org/2000/svg" viewBox="0 0 102.84 222.74"><defs><style>.cls-1{fill:#1c1d1d;}.cls-2{fill:#a5a5a5;}.cls-3{fill:#272828;}.cls-4{fill:#d5a52c;}.cls-5{fill:#3f3f3f;}.cls-6{fill:#fff;stroke:#d5a52c;stroke-miterlimit:10;stroke-width:2.09px;}.cls-7{fill:#b98a22;}.cls-8{fill:#35ae62;}.cls-9{fill:#1f7b3b;}.cls-10{fill:#1c9c6f;}.cls-11{fill:#a7bcb5;}</style></defs><title>未标题-6</title><rect class="cls-1" x="45.23" y="200.99" width="12.37" height="21.1" rx="0.62" ry="0.62"/><path class="cls-2" d="M224.13,385.53h7.66a0,0,0,0,1,0,0v6.1a0,0,0,0,1,0,0h-7.66a.85.85,0,0,1-.85-.85v-4.4A.85.85,0,0,1,224.13,385.53Z" transform="translate(296.35 591.64) rotate(180)"/><path class="cls-2" d="M30.62,200h7.66a0,0,0,0,1,0,0v6.1a0,0,0,0,1,0,0H30.62a.85.85,0,0,1-.85-.85v-4.4A.85.85,0,0,1,30.62,200Z"/><path class="cls-2" d="M224.13,367.11h7.66a0,0,0,0,1,0,0v6.1a0,0,0,0,1,0,0h-7.66a.85.85,0,0,1-.85-.85V368A.85.85,0,0,1,224.13,367.11Z" transform="translate(296.35 554.81) rotate(180)"/><path class="cls-2" d="M30.62,181.6h7.66a0,0,0,0,1,0,0v6.1a0,0,0,0,1,0,0H30.62a.85.85,0,0,1-.85-.85v-4.4A.85.85,0,0,1,30.62,181.6Z"/><path class="cls-2" d="M224.13,348.7h7.66a0,0,0,0,1,0,0v6.1a0,0,0,0,1,0,0h-7.66a.85.85,0,0,1-.85-.85v-4.4A.85.85,0,0,1,224.13,348.7Z" transform="translate(296.35 517.99) rotate(180)"/><path class="cls-2" d="M30.62,163.19h7.66a0,0,0,0,1,0,0v6.1a0,0,0,0,1,0,0H30.62a.85.85,0,0,1-.85-.85V164A.85.85,0,0,1,30.62,163.19Z"/><rect class="cls-3" x="38.28" y="160.06" width="26.28" height="55.88" rx="1.51" ry="1.51"/><path class="cls-4" d="M213.32,401.46l2.13-9.41-4.47-5.3H197v10.08a4.57,4.57,0,0,0,4.63,4.63l4-3.68,1.09,3.68Z" transform="translate(-158.72 -185.52)"/><rect class="cls-5" y="43.27" width="102.84" height="172.67" rx="5.67" ry="5.67"/><circle class="cls-6" cx="12.18" cy="204.25" r="7.47"/><circle class="cls-6" cx="90.86" cy="204.25" r="7.47"/><rect class="cls-1" x="45.23" y="201.65" width="12.37" height="21.1" rx="0.62" ry="0.62"/><path class="cls-2" d="M224.13,386.18h7.66a0,0,0,0,1,0,0v6.1a0,0,0,0,1,0,0h-7.66a.85.85,0,0,1-.85-.85V387A.85.85,0,0,1,224.13,386.18Z" transform="translate(296.35 592.95) rotate(180)"/><path class="cls-2" d="M30.62,200.67h7.66a0,0,0,0,1,0,0v6.1a0,0,0,0,1,0,0H30.62a.85.85,0,0,1-.85-.85v-4.4A.85.85,0,0,1,30.62,200.67Z"/><path class="cls-2" d="M224.13,367.77h7.66a0,0,0,0,1,0,0v6.1a0,0,0,0,1,0,0h-7.66a.85.85,0,0,1-.85-.85v-4.4A.85.85,0,0,1,224.13,367.77Z" transform="translate(296.35 556.12) rotate(180)"/><path class="cls-2" d="M30.62,182.25h7.66a0,0,0,0,1,0,0v6.1a0,0,0,0,1,0,0H30.62a.85.85,0,0,1-.85-.85v-4.4A.85.85,0,0,1,30.62,182.25Z"/><path class="cls-2" d="M224.13,349.36h7.66a0,0,0,0,1,0,0v6.1a0,0,0,0,1,0,0h-7.66a.85.85,0,0,1-.85-.85v-4.4A.85.85,0,0,1,224.13,349.36Z" transform="translate(296.35 519.3) rotate(180)"/><path class="cls-2" d="M30.62,163.84h7.66a0,0,0,0,1,0,0v6.1a0,0,0,0,1,0,0H30.62a.85.85,0,0,1-.85-.85v-4.4A.85.85,0,0,1,30.62,163.84Z"/><rect class="cls-3" x="38.28" y="160.72" width="26.28" height="55.88" rx="1.51" ry="1.51"/><path class="cls-4" d="M213.32,402.11l2.13-9.41L211,387.4H197v10.08a4.57,4.57,0,0,0,4.63,4.63l4-3.68,1.09,3.68Z" transform="translate(-158.72 -185.52)"/><polygon class="cls-7" points="54.59 216.6 53.65 220.16 49.23 220.16 47.97 216.6 54.59 216.6"/><rect class="cls-8" x="27.2" y="72.88" width="48.44" height="10.63"/><rect class="cls-9" x="27.2" y="64.52" width="48.44" height="8.36"/><rect class="cls-10" x="27.2" y="53.89" width="48.44" height="10.63"/><rect class="cls-11" x="27.2" y="43.27" width="48.44" height="10.63"/><path class="cls-11" d="M217.46,191.57c0-3.34-3.28-6.05-7.32-6.05s-7.32,2.71-7.32,6.05c0,.16,0,.32.06.48h0v36.73h14.59V192h0C217.42,191.89,217.46,191.73,217.46,191.57Z" transform="translate(-158.72 -185.52)"/></svg>