<svg id="图层_1" data-name="图层 1" xmlns="http://www.w3.org/2000/svg" viewBox="0 0 434.49 47.35"><defs><style>.cls-1{fill:#e8e8e8;}.cls-2{fill:#3f3f3f;}.cls-3{fill:#fff;}.cls-4{fill:#d0ebf0;}.cls-14,.cls-15,.cls-16,.cls-5{fill:none;stroke-miterlimit:10;}.cls-5{stroke:#272828;stroke-width:0.53px;}.cls-6{fill:#b17039;}.cls-7{fill:#1c1d1d;}.cls-8{fill:#a5a5a5;}.cls-9{fill:#272828;}.cls-10{fill:#d5a52c;}.cls-11{fill:#b98a22;}.cls-12{fill:#aeaeaf;}.cls-13{fill:#f2f2f2;}.cls-14{stroke:#e71f19;}.cls-14,.cls-15,.cls-16{stroke-width:2.07px;}.cls-15{stroke:#efea3a;}.cls-16{stroke:#2a2b2b;}</style></defs><title>13</title><rect class="cls-1" x="249.91" y="-39.09" width="47.35" height="334.83" transform="translate(395.4 -249.91) rotate(90)"/><rect class="cls-2" x="334.67" y="125.11" width="39.42" height="5.35" transform="translate(475.65 -331.26) rotate(90)"/><rect class="cls-2" x="324.32" y="125.11" width="39.42" height="5.35" transform="translate(465.29 -320.9) rotate(90)"/><rect class="cls-3" x="334.11" y="112.66" width="30.25" height="30.25" transform="translate(470.49 -326.1) rotate(90)"/><circle class="cls-4" cx="342.55" cy="23.25" r="15"/><rect class="cls-2" x="231.78" y="125.11" width="39.42" height="5.35" transform="translate(372.76 -228.36) rotate(90)"/><rect class="cls-2" x="221.42" y="125.11" width="39.42" height="5.35" transform="translate(362.4 -218) rotate(90)"/><rect class="cls-3" x="231.21" y="112.66" width="30.25" height="30.25" transform="translate(367.6 -223.2) rotate(90)"/><circle class="cls-4" cx="239.65" cy="23.25" r="15"/><line class="cls-5" x1="381.08" y1="2.13" x2="381.08" y2="45.22"/><rect class="cls-6" x="384.26" y="102.67" width="6.04" height="26.34" rx="2.64" ry="2.64" transform="translate(496.6 -376.1) rotate(90)"/><rect class="cls-6" x="384.26" y="113.92" width="6.04" height="26.34" rx="2.64" ry="2.64" transform="translate(507.86 -364.85) rotate(90)"/><rect class="cls-6" x="384.26" y="125.17" width="6.04" height="26.34" rx="2.64" ry="2.64" transform="translate(519.11 -353.6) rotate(90)"/><polygon class="cls-2" points="414.37 22.43 400.12 30.67 400.12 14.2 414.37 22.43"/><rect class="cls-2" x="130.88" y="125.11" width="39.42" height="5.35" transform="translate(271.86 -127.46) rotate(90)"/><rect class="cls-2" x="120.52" y="125.11" width="39.42" height="5.35" transform="translate(261.5 -117.1) rotate(90)"/><rect class="cls-3" x="130.31" y="112.66" width="30.25" height="30.25" transform="translate(266.7 -122.3) rotate(90)"/><circle class="cls-4" cx="138.75" cy="23.25" r="15"/><line class="cls-5" x1="177.29" y1="2.13" x2="177.29" y2="45.22"/><rect class="cls-6" x="180.47" y="102.67" width="6.04" height="26.34" rx="2.64" ry="2.64" transform="translate(292.81 -172.3) rotate(90)"/><rect class="cls-6" x="180.47" y="113.92" width="6.04" height="26.34" rx="2.64" ry="2.64" transform="translate(304.06 -161.05) rotate(90)"/><rect class="cls-6" x="180.47" y="125.17" width="6.04" height="26.34" rx="2.64" ry="2.64" transform="translate(315.31 -149.8) rotate(90)"/><polygon class="cls-2" points="210.58 22.43 196.32 30.67 196.32 14.2 210.58 22.43"/><line class="cls-5" x1="283.56" y1="2.13" x2="283.56" y2="45.22"/><rect class="cls-6" x="286.74" y="102.67" width="6.04" height="26.34" rx="2.64" ry="2.64" transform="translate(399.08 -278.57) rotate(90)"/><rect class="cls-6" x="286.74" y="113.92" width="6.04" height="26.34" rx="2.64" ry="2.64" transform="translate(410.33 -267.32) rotate(90)"/><rect class="cls-6" x="286.74" y="125.17" width="6.04" height="26.34" rx="2.64" ry="2.64" transform="translate(421.58 -256.07) rotate(90)"/><polygon class="cls-2" points="316.85 22.43 302.59 30.67 302.59 14.2 316.85 22.43"/><rect class="cls-2" x="19.75" y="101.85" width="35.97" height="49.56" rx="2.12" ry="2.12" transform="translate(157.84 -15.75) rotate(90)"/><rect class="cls-7" x="9" y="120.53" width="7.05" height="12.02" rx="0.62" ry="0.62" transform="translate(132.55 9.37) rotate(90)"/><path class="cls-8" d="M15.78,134.72h4a0,0,0,0,1,0,0v3.47a0,0,0,0,1,0,0h-4a.85.85,0,0,1-.85-.85v-1.77A.85.85,0,0,1,15.78,134.72Z" transform="translate(-125.61 49.16) rotate(-90)"/><path class="cls-8" d="M15.78,114.89h4a0,0,0,0,1,0,0v3.47a0,0,0,0,1,0,0h-4a.85.85,0,0,1-.85-.85v-1.77A.85.85,0,0,1,15.78,114.89Z" transform="translate(127.47 -5.38) rotate(90)"/><path class="cls-8" d="M26.28,134.72h4a0,0,0,0,1,0,0v3.47a0,0,0,0,1,0,0h-4a.85.85,0,0,1-.85-.85v-1.77A.85.85,0,0,1,26.28,134.72Z" transform="translate(-115.12 59.65) rotate(-90)"/><path class="cls-8" d="M26.28,114.89h4a0,0,0,0,1,0,0v3.47a0,0,0,0,1,0,0h-4a.85.85,0,0,1-.85-.85v-1.77A.85.85,0,0,1,26.28,114.89Z" transform="translate(137.97 -15.87) rotate(90)"/><path class="cls-8" d="M36.77,134.72h4a0,0,0,0,1,0,0v3.47a0,0,0,0,1,0,0h-4a.85.85,0,0,1-.85-.85v-1.77A.85.85,0,0,1,36.77,134.72Z" transform="translate(-104.63 70.15) rotate(-90)"/><path class="cls-8" d="M36.77,114.89h4a0,0,0,0,1,0,0v3.47a0,0,0,0,1,0,0h-4a.85.85,0,0,1-.85-.85v-1.77A.85.85,0,0,1,36.77,114.89Z" transform="translate(148.46 -26.36) rotate(90)"/><rect class="cls-9" x="18.45" y="110.62" width="14.98" height="31.84" rx="1.51" ry="1.51" transform="translate(145.97 -4.05) rotate(90)"/><path class="cls-10" d="M10,128.35l5.37,1.21,3-2.55v-8H12.65A2.61,2.61,0,0,0,10,121.69l2.1,2.26-2.1.62Z" transform="translate(-6.52 -104.65)"/><polygon class="cls-11" points="3.5 23.7 1.47 23.16 1.47 20.64 3.5 19.92 3.5 23.7"/><rect class="cls-12" x="40.97" y="13.3" width="15.02" height="16.91"/><rect class="cls-13" x="40.97" y="10.71" width="12.12" height="3.94"/><rect class="cls-13" x="40.97" y="29.29" width="12.12" height="3.94"/><rect class="cls-13" x="40.97" y="19.17" width="12.12" height="5.71"/><rect class="cls-13" x="37.97" y="124.88" width="22.54" height="3.5" transform="translate(169.35 -27.26) rotate(90)"/><path class="cls-13" d="M59.61,119.3l-1.07,2.08a.61.61,0,0,1-1.09,0l-1.07-2.08Z" transform="translate(-6.52 -104.65)"/><path class="cls-13" d="M54.31,122.09,55.38,120a.61.61,0,0,1,1.09,0l1.07,2.08Z" transform="translate(-6.52 -104.65)"/><rect class="cls-13" x="47.79" y="17.44" width="7.83" height="1.44"/><rect class="cls-13" x="56.94" y="126.04" width="9.17" height="1.28" transform="translate(181.69 -39.5) rotate(90)"/><path class="cls-13" d="M59.61,133.94l-1.07-2.08a.61.61,0,0,0-1.09,0l-1.07,2.08Z" transform="translate(-6.52 -104.65)"/><path class="cls-13" d="M54.28,131.31l1.07,2.08a.61.61,0,0,0,1.09,0l1.07-2.08Z" transform="translate(-6.52 -104.65)"/><rect class="cls-13" x="47.76" y="25.22" width="7.89" height="1.44"/><rect class="cls-13" x="55.28" y="13.47" width="0.72" height="16.75"/><rect class="cls-13" x="40.39" y="10.71" width="1.03" height="3.79"/><rect class="cls-13" x="40.39" y="29.45" width="1.03" height="3.79"/><rect class="cls-13" x="40.39" y="19.13" width="0.9" height="1.35"/><rect class="cls-13" x="40.39" y="23.45" width="0.9" height="1.35"/><line class="cls-14" x1="104" y1="17.41" x2="55.65" y2="17.41"/><line class="cls-15" x1="104" y1="20.48" x2="56" y2="27.71"/><line class="cls-16" x1="104" y1="25.22" x2="56" y2="22.02"/></svg>