<svg id="图层_1" data-name="图层 1" xmlns="http://www.w3.org/2000/svg" viewBox="0 0 83.05 83.33"><defs><style>.cls-1{fill:#3f3f3f;}.cls-2{fill:#fff;stroke:#d5a52c;}.cls-2,.cls-8{stroke-miterlimit:10;}.cls-3{fill:#1c1d1d;}.cls-4{fill:#a5a5a5;}.cls-5{fill:#272828;}.cls-6{fill:#d5a52c;}.cls-7{fill:#b98a22;}.cls-8{fill:none;stroke:#6c625b;stroke-width:2px;}.cls-9{fill:#ddd;}.cls-10{fill:#ab772c;}</style></defs><title>时钟模块</title><rect class="cls-1" width="83.05" height="80.5" rx="5.67" ry="5.67"/><circle class="cls-2" cx="5.68" cy="75.05" r="3.48"/><circle class="cls-2" cx="77.53" cy="75.05" r="3.48"/><rect class="cls-3" x="38.64" y="73.49" width="5.77" height="9.83" rx="0.62" ry="0.62"/><path class="cls-4" d="M82.54,101.91h3.12a0,0,0,0,1,0,0v2.84a0,0,0,0,1,0,0H82.54a.85.85,0,0,1-.85-.85v-1.14A.85.85,0,0,1,82.54,101.91Z" transform="translate(133.3 177.78) rotate(180)"/><path class="cls-4" d="M32.28,73H35.4a0,0,0,0,1,0,0v2.84a0,0,0,0,1,0,0H32.28a.85.85,0,0,1-.85-.85V73.88A.85.85,0,0,1,32.28,73Z"/><path class="cls-4" d="M82.54,93.32h3.12a0,0,0,0,1,0,0v2.84a0,0,0,0,1,0,0H82.54a.85.85,0,0,1-.85-.85V94.17A.85.85,0,0,1,82.54,93.32Z" transform="translate(133.3 160.62) rotate(180)"/><path class="cls-4" d="M32.28,64.45H35.4a0,0,0,0,1,0,0v2.84a0,0,0,0,1,0,0H32.28a.85.85,0,0,1-.85-.85V65.3A.85.85,0,0,1,32.28,64.45Z"/><path class="cls-4" d="M82.54,84.74h3.12a0,0,0,0,1,0,0v2.84a0,0,0,0,1,0,0H82.54a.85.85,0,0,1-.85-.85V85.59A.85.85,0,0,1,82.54,84.74Z" transform="translate(133.3 143.45) rotate(180)"/><path class="cls-4" d="M32.28,55.87H35.4a0,0,0,0,1,0,0v2.84a0,0,0,0,1,0,0H32.28a.85.85,0,0,1-.85-.85V56.72A.85.85,0,0,1,32.28,55.87Z"/><rect class="cls-5" x="35.4" y="54.41" width="12.25" height="26.05" rx="1.51" ry="1.51"/><path class="cls-6" d="M77,109.34l1-4.39-2.08-2.47H69.43v4.7a2.13,2.13,0,0,0,2.16,2.16l1.85-1.72.51,1.72Z" transform="translate(-34.04 -28.87)"/><polygon class="cls-7" points="43 80.46 42.56 82.12 40.5 82.12 39.91 80.46 43 80.46"/><rect class="cls-5" x="99.67" y="58.04" width="5.9" height="9.02" transform="translate(6.03 136.29) rotate(-90)"/><rect class="cls-4" x="97.15" y="57.56" width="3" height="1.08" transform="translate(6.51 127.87) rotate(-90)"/><rect class="cls-4" x="99.87" y="57.56" width="3" height="1.08" transform="translate(9.23 130.6) rotate(-90)"/><rect class="cls-4" x="102.51" y="57.56" width="3" height="1.08" transform="translate(11.88 133.24) rotate(-90)"/><rect class="cls-4" x="97.15" y="66.46" width="3" height="1.08" transform="translate(-2.39 136.77) rotate(-90)"/><rect class="cls-4" x="99.87" y="66.46" width="3" height="1.08" transform="translate(0.34 139.5) rotate(-90)"/><rect class="cls-4" x="102.51" y="66.46" width="3" height="1.08" transform="translate(2.98 142.14) rotate(-90)"/><rect class="cls-4" x="105.09" y="57.56" width="3" height="1.08" transform="translate(14.45 135.82) rotate(-90)"/><rect class="cls-4" x="105.09" y="66.46" width="3" height="1.08" transform="translate(5.55 144.71) rotate(-90)"/><rect class="cls-5" x="58" y="8.57" width="14.09" height="5.5"/><rect class="cls-4" x="58" y="7.26" width="2.29" height="1.32"/><rect class="cls-4" x="58" y="14.07" width="2.29" height="1.32"/><rect class="cls-4" x="69.79" y="7.26" width="2.29" height="1.32"/><rect class="cls-4" x="69.79" y="14.07" width="2.29" height="1.32"/><path class="cls-8" d="M69.06,47.45A13.93,13.93,0,1,0,52.68,63.9a1.3,1.3,0,0,1,.64,2.19L51.62,67.8l3,3,6.83-6.83,1.93-.75a3.17,3.17,0,0,0,1.1-.72l1.6-1.6,1.6-1.6a3.19,3.19,0,0,0,.72-1.11l.75-1.93,6.83-6.83-3-3L71.32,48.1A1.34,1.34,0,0,1,69.06,47.45Z" transform="translate(-34.04 -28.87)"/><rect class="cls-1" x="43.56" y="38.38" width="4.01" height="4.01" transform="translate(-49.25 15.17) rotate(-45)"/><circle class="cls-9" cx="21.51" cy="21.58" r="11.91"/><rect class="cls-10" x="63.37" y="45.28" width="0.67" height="26.67" rx="0.33" ry="0.33" transform="translate(26.06 -56.75) rotate(45)"/></svg>