<svg id="图层_1" data-name="图层 1" xmlns="http://www.w3.org/2000/svg" xmlns:xlink="http://www.w3.org/1999/xlink" viewBox="0 0 49.2 85.87"><defs><style>.cls-1,.cls-14,.cls-16,.cls-9{fill:none;}.cls-2{fill:#1c1d1d;}.cls-3{fill:#a5a5a5;}.cls-4{fill:#272828;}.cls-5{fill:#d5a52c;}.cls-6{fill:#3f3f3f;}.cls-17,.cls-7{fill:#fff;}.cls-7{stroke:#d5a52c;}.cls-14,.cls-16,.cls-7,.cls-9{stroke-miterlimit:10;}.cls-8{fill:#b98a22;}.cls-9{stroke:#fff;stroke-width:0.2px;}.cls-10{fill:#2ea7e0;}.cls-11{fill:#1f91c7;}.cls-12{fill:#afafaf;}.cls-13{fill:#727171;}.cls-14{stroke:#036eb8;stroke-width:0.5px;}.cls-15{clip-path:url(#clip-path);}.cls-16{stroke:#727171;}.cls-18{font-size:2.05px;fill:#036eb8;font-family:MicrosoftYaHei-Bold, Microsoft YaHei;font-weight:700;}.cls-19{fill:#231815;}.cls-20{fill:#c9caca;}</style><clipPath id="clip-path" transform="translate(-44.95 -48.67)"><path class="cls-1" d="M56.13,78.76a1.52,1.52,0,0,1-2.59,1.07,3.49,3.49,0,0,0-.2,1.14,3.53,3.53,0,0,0,7.06,0,3.49,3.49,0,0,0-.2-1.13,1.51,1.51,0,1,1-2.11-2.17,3.35,3.35,0,0,0-2.43,0A1.51,1.51,0,0,1,56.13,78.76Z"/></clipPath></defs><title>声音模块</title><rect class="cls-2" x="21.64" y="75.46" width="5.92" height="10.09" rx="0.62" ry="0.62"/><path class="cls-3" d="M76.69,123.66H79.9a0,0,0,0,1,0,0v2.92a0,0,0,0,1,0,0H76.69a.85.85,0,0,1-.85-.85v-1.22A.85.85,0,0,1,76.69,123.66Z" transform="translate(110.79 201.57) rotate(180)"/><path class="cls-3" d="M15.09,75h3.22a0,0,0,0,1,0,0v2.92a0,0,0,0,1,0,0H15.09a.85.85,0,0,1-.85-.85V75.84A.85.85,0,0,1,15.09,75Z"/><path class="cls-3" d="M76.69,114.85H79.9a0,0,0,0,1,0,0v2.92a0,0,0,0,1,0,0H76.69a.85.85,0,0,1-.85-.85V115.7A.85.85,0,0,1,76.69,114.85Z" transform="translate(110.79 183.95) rotate(-180)"/><path class="cls-3" d="M15.09,66.18h3.22a0,0,0,0,1,0,0V69.1a0,0,0,0,1,0,0H15.09a.85.85,0,0,1-.85-.85V67a.85.85,0,0,1,.85-.85Z"/><path class="cls-3" d="M76.69,106H79.9a0,0,0,0,1,0,0V109a0,0,0,0,1,0,0H76.69a.85.85,0,0,1-.85-.85v-1.22A.85.85,0,0,1,76.69,106Z" transform="translate(110.79 166.33) rotate(180)"/><path class="cls-3" d="M15.09,57.37h3.22a0,0,0,0,1,0,0v2.92a0,0,0,0,1,0,0H15.09a.85.85,0,0,1-.85-.85V58.22A.85.85,0,0,1,15.09,57.37Z"/><rect class="cls-4" x="18.31" y="55.88" width="12.57" height="26.73" rx="1.51" ry="1.51"/><path class="cls-5" d="M71.07,131.28l1-4.5-2.14-2.53H63.26v4.82a2.19,2.19,0,0,0,2.21,2.21l1.9-1.76.52,1.76Z" transform="translate(-44.95 -48.67)"/><rect class="cls-6" width="49.2" height="82.61" rx="5.67" ry="5.67"/><circle class="cls-7" cx="5.82" cy="77.02" r="3.58"/><circle class="cls-7" cx="43.47" cy="77.02" r="3.58"/><rect class="cls-2" x="21.35" y="75.77" width="5.92" height="10.09" rx="0.62" ry="0.62"/><path class="cls-3" d="M76.39,124h3.22a0,0,0,0,1,0,0v2.92a0,0,0,0,1,0,0H76.39a.85.85,0,0,1-.85-.85v-1.22A.85.85,0,0,1,76.39,124Z" transform="translate(110.21 202.19) rotate(180)"/><path class="cls-3" d="M14.8,75.3H18a0,0,0,0,1,0,0v2.92a0,0,0,0,1,0,0H14.8a.85.85,0,0,1-.85-.85V76.15A.85.85,0,0,1,14.8,75.3Z"/><path class="cls-3" d="M76.39,115.16h3.22a0,0,0,0,1,0,0v2.92a0,0,0,0,1,0,0H76.39a.85.85,0,0,1-.85-.85V116A.85.85,0,0,1,76.39,115.16Z" transform="translate(110.21 184.58) rotate(180)"/><path class="cls-3" d="M14.8,66.5H18a0,0,0,0,1,0,0v2.92a0,0,0,0,1,0,0H14.8a.85.85,0,0,1-.85-.85V67.35A.85.85,0,0,1,14.8,66.5Z"/><path class="cls-3" d="M76.39,106.36h3.22a0,0,0,0,1,0,0v2.92a0,0,0,0,1,0,0H76.39a.85.85,0,0,1-.85-.85v-1.22A.85.85,0,0,1,76.39,106.36Z" transform="translate(110.21 166.96) rotate(180)"/><path class="cls-3" d="M14.8,57.69H18a0,0,0,0,1,0,0V60.6a0,0,0,0,1,0,0H14.8a.85.85,0,0,1-.85-.85V58.54a.85.85,0,0,1,.85-.85Z"/><rect class="cls-4" x="18.02" y="56.19" width="12.57" height="26.73" rx="1.51" ry="1.51"/><path class="cls-5" d="M70.78,131.6l1-4.5-2.14-2.53H63v4.82a2.19,2.19,0,0,0,2.21,2.21l1.9-1.76.52,1.76Z" transform="translate(-44.95 -48.67)"/><polygon class="cls-8" points="25.83 82.93 25.37 84.63 23.26 84.63 22.66 82.93 25.83 82.93"/><rect class="cls-9" x="48.82" y="72.64" width="16.8" height="16.8" transform="translate(69.49 113.42) rotate(180)"/><rect class="cls-10" x="49.51" y="73.69" width="14.69" height="14.69" transform="translate(68.76 113.39) rotate(180)"/><rect class="cls-11" x="4.56" y="25.02" width="14.69" height="14.69"/><path class="cls-12" d="M56.13,78.76a1.52,1.52,0,0,1-2.59,1.07,3.49,3.49,0,0,0-.2,1.14,3.53,3.53,0,0,0,7.06,0,3.49,3.49,0,0,0-.2-1.13,1.51,1.51,0,1,1-2.11-2.17,3.35,3.35,0,0,0-2.43,0A1.51,1.51,0,0,1,56.13,78.76Z" transform="translate(-44.95 -48.67)"/><path class="cls-13" d="M57.61,78.76a1.51,1.51,0,0,0,2.57,1.08,3.52,3.52,0,0,0-2.11-2.17A1.51,1.51,0,0,0,57.61,78.76Z" transform="translate(-44.95 -48.67)"/><path class="cls-13" d="M53.53,79.83a1.51,1.51,0,1,0,2.12-2.16A3.51,3.51,0,0,0,53.53,79.83Z" transform="translate(-44.95 -48.67)"/><line class="cls-14" x1="11.91" y1="28.77" x2="11.91" y2="26.46"/><line class="cls-14" x1="13.67" y1="29.24" x2="14.43" y2="27.93"/><line class="cls-14" x1="9.39" y1="36.66" x2="10.14" y2="35.35"/><line class="cls-14" x1="14.96" y1="30.53" x2="16.27" y2="29.78"/><line class="cls-14" x1="7.54" y1="34.82" x2="8.85" y2="34.06"/><line class="cls-14" x1="15.43" y1="32.3" x2="16.95" y2="32.3"/><line class="cls-14" x1="6.87" y1="32.3" x2="8.38" y2="32.3"/><line class="cls-14" x1="14.96" y1="34.06" x2="16.27" y2="34.82"/><line class="cls-14" x1="7.54" y1="29.78" x2="8.85" y2="30.53"/><line class="cls-14" x1="9.39" y1="27.93" x2="10.14" y2="29.24"/><line class="cls-14" x1="13.78" y1="35.28" x2="15.13" y2="37.17"/><g class="cls-15"><line class="cls-16" x1="11.91" y1="35.83" x2="11.91" y2="28.77"/><line class="cls-16" x1="8.38" y1="32.3" x2="15.43" y2="32.3"/></g><circle class="cls-17" cx="7.42" cy="36.81" r="0.39"/><text class="cls-18" transform="translate(4.88 39.27)"><tspan xml:space="preserve">1     3362     3</tspan></text><rect class="cls-9" x="28.22" y="40.32" width="12.78" height="10.2"/><rect class="cls-19" x="28.28" y="40.53" width="12.72" height="9.76"/><rect class="cls-20" x="28.44" y="38.05" width="0.92" height="2.48"/><rect class="cls-20" x="32.25" y="38.05" width="0.92" height="2.48"/><rect class="cls-20" x="36.06" y="38.05" width="0.92" height="2.48"/><rect class="cls-20" x="39.87" y="38.05" width="0.92" height="2.48"/><rect class="cls-20" x="28.46" y="50.29" width="0.92" height="2.48"/><rect class="cls-20" x="32.27" y="50.29" width="0.92" height="2.48"/><rect class="cls-20" x="36.09" y="50.29" width="0.92" height="2.48"/><rect class="cls-20" x="39.9" y="50.29" width="0.92" height="2.48"/><circle class="cls-20" cx="19.25" cy="8.9" r="5.99"/><circle class="cls-19" cx="19.25" cy="8.9" r="5.48"/></svg>