<svg id="图层_1" data-name="图层 1" xmlns="http://www.w3.org/2000/svg" viewBox="0 0 141.8 220.77"><defs><style>.cls-1{fill:#3f3f3f;}.cls-2{fill:#1c1d1d;}.cls-3{fill:#a5a5a5;}.cls-4{fill:#272828;}.cls-5{fill:#d5a52c;}.cls-6{fill:#b98a22;}.cls-7{fill:#214198;}.cls-8{fill:#f0ee84;}</style></defs><title>10</title><rect class="cls-1" width="141.8" height="195.41" rx="4.4" ry="4.4"/><rect class="cls-2" x="56.67" y="173.37" width="27.79" height="47.4" rx="0.62" ry="0.62"/><path class="cls-3" d="M259.28,198.84h18.26a0,0,0,0,1,0,0v13.7a0,0,0,0,1,0,0H259.28a.85.85,0,0,1-.85-.85v-12A.85.85,0,0,1,259.28,198.84Z" transform="translate(377.63 383.71) rotate(180)"/><path class="cls-3" d="M22.78,171.17H41a0,0,0,0,1,0,0v13.7a0,0,0,0,1,0,0H22.78a.85.85,0,0,1-.85-.85V172A.85.85,0,0,1,22.78,171.17Z"/><path class="cls-3" d="M259.28,157.47h18.26a0,0,0,0,1,0,0v13.7a0,0,0,0,1,0,0H259.28a.85.85,0,0,1-.85-.85v-12A.85.85,0,0,1,259.28,157.47Z" transform="translate(377.63 300.97) rotate(180)"/><path class="cls-3" d="M22.78,129.8H41a0,0,0,0,1,0,0v13.7a0,0,0,0,1,0,0H22.78a.85.85,0,0,1-.85-.85v-12A.85.85,0,0,1,22.78,129.8Z"/><path class="cls-3" d="M259.28,116.1h18.26a0,0,0,0,1,0,0v13.7a0,0,0,0,1,0,0H259.28a.85.85,0,0,1-.85-.85V117A.85.85,0,0,1,259.28,116.1Z" transform="translate(377.63 218.24) rotate(180)"/><path class="cls-3" d="M22.78,88.43H41a0,0,0,0,1,0,0v13.7a0,0,0,0,1,0,0H22.78a.85.85,0,0,1-.85-.85v-12A.85.85,0,0,1,22.78,88.43Z"/><rect class="cls-4" x="41.05" y="81.41" width="59.04" height="125.54" rx="1.51" ry="1.51"/><path class="cls-5" d="M236,234.63l4.79-21.15-10-11.9H199.38v22.65s-.11,10,10.4,10.4l8.93-8.27,2.44,8.27Z" transform="translate(-158.33 -27.67)"/><polygon class="cls-6" points="77.7 206.96 75.57 214.97 65.64 214.97 62.81 206.96 77.7 206.96"/><rect class="cls-7" x="198.55" y="27.67" width="60.58" height="49.06" transform="translate(299.34 76.73) rotate(180)"/><rect class="cls-8" x="236.09" y="72.94" width="9.02" height="3.79" transform="translate(322.87 122) rotate(180)"/><rect class="cls-8" x="224.33" y="72.94" width="9.02" height="3.79" transform="translate(299.34 122) rotate(180)"/><rect class="cls-8" x="212.56" y="72.94" width="9.02" height="3.79" transform="translate(275.81 122) rotate(180)"/><rect class="cls-3" x="211.05" y="66.72" width="34.05" height="1.49" transform="translate(297.83 107.26) rotate(180)"/><rect class="cls-3" x="211.05" y="64.24" width="34.05" height="1.49" transform="translate(297.83 102.3) rotate(180)"/><rect class="cls-3" x="211.05" y="61.76" width="34.05" height="1.49" transform="translate(297.83 97.34) rotate(180)"/><rect class="cls-3" x="211.05" y="59.28" width="34.05" height="1.49" transform="translate(297.83 92.38) rotate(180)"/><rect class="cls-3" x="211.05" y="56.8" width="34.05" height="1.49" transform="translate(297.83 87.42) rotate(180)"/><rect class="cls-1" x="215.65" y="55.36" width="25.62" height="13.93" transform="translate(298.6 96.98) rotate(180)"/><rect class="cls-3" x="241.67" y="44.99" width="11.4" height="0.87" transform="translate(336.41 63.18) rotate(180)"/><rect class="cls-3" x="241.67" y="43.54" width="11.4" height="0.87" transform="translate(336.41 60.29) rotate(180)"/><rect class="cls-3" x="241.67" y="42.09" width="11.4" height="0.87" transform="translate(336.41 57.39) rotate(180)"/><rect class="cls-3" x="241.67" y="40.65" width="11.4" height="0.87" transform="translate(336.41 54.5) rotate(180)"/><rect class="cls-3" x="241.67" y="39.2" width="11.4" height="0.87" transform="translate(336.41 51.6) rotate(180)"/><rect class="cls-3" x="238.78" y="42.09" width="11.4" height="0.87" transform="translate(43.62 259.34) rotate(-90)"/><rect class="cls-3" x="240.22" y="42.09" width="11.4" height="0.87" transform="translate(45.06 260.79) rotate(-90)"/><rect class="cls-3" x="241.67" y="42.09" width="11.4" height="0.87" transform="translate(46.51 262.24) rotate(-90)"/><rect class="cls-3" x="243.12" y="42.09" width="11.4" height="0.87" transform="translate(47.96 263.68) rotate(-90)"/><rect class="cls-3" x="244.56" y="42.09" width="11.4" height="0.87" transform="translate(49.41 265.13) rotate(-90)"/><rect class="cls-1" x="242.93" y="38.08" width="8.89" height="8.89" transform="translate(336.41 57.39) rotate(180)"/></svg>