<svg id="图层_1" data-name="图层 1" xmlns="http://www.w3.org/2000/svg" xmlns:xlink="http://www.w3.org/1999/xlink" viewBox="0 0 47.94 83.37"><defs><style>.cls-1,.cls-12{fill:none;}.cls-2,.cls-8{fill:#1c1d1d;}.cls-3{fill:#a5a5a5;}.cls-4{fill:#272828;}.cls-5{fill:#d5a52c;}.cls-6{fill:#3f3f3f;}.cls-13,.cls-7{fill:#fff;}.cls-7{stroke:#d5a52c;}.cls-12,.cls-7,.cls-8{stroke-miterlimit:10;}.cls-8{stroke:#7a7a78;stroke-width:0.25px;}.cls-9{clip-path:url(#clip-path);}.cls-10{fill:#1f2020;}.cls-11{fill:#bcbcbc;}.cls-12{stroke:#fff;stroke-width:0.5px;}</style><clipPath id="clip-path" transform="translate(-48.67 -22.46)"><rect class="cls-1" x="68.6" y="35.97" width="8.08" height="4.04"/></clipPath></defs><title>温度传感器</title><rect class="cls-2" x="21.09" y="73.52" width="5.77" height="9.83" rx="0.62" ry="0.62"/><path class="cls-3" d="M79.62,95.52h3.12a0,0,0,0,1,0,0v2.84a0,0,0,0,1,0,0H79.62a.85.85,0,0,1-.85-.85V96.37A.85.85,0,0,1,79.62,95.52Z" transform="translate(112.83 171.42) rotate(180)"/><path class="cls-3" d="M14.73,73.06h3.12a0,0,0,0,1,0,0v2.84a0,0,0,0,1,0,0H14.73a.85.85,0,0,1-.85-.85V73.91A.85.85,0,0,1,14.73,73.06Z"/><path class="cls-3" d="M79.62,86.93h3.12a0,0,0,0,1,0,0v2.84a0,0,0,0,1,0,0H79.62a.85.85,0,0,1-.85-.85V87.79A.85.85,0,0,1,79.62,86.93Z" transform="translate(112.83 154.26) rotate(180)"/><path class="cls-3" d="M14.73,64.48h3.12a0,0,0,0,1,0,0v2.84a0,0,0,0,1,0,0H14.73a.85.85,0,0,1-.85-.85V65.33A.85.85,0,0,1,14.73,64.48Z"/><path class="cls-3" d="M79.62,78.35h3.12a0,0,0,0,1,0,0v2.84a0,0,0,0,1,0,0H79.62a.85.85,0,0,1-.85-.85V79.2A.85.85,0,0,1,79.62,78.35Z" transform="translate(112.83 137.09) rotate(180)"/><path class="cls-3" d="M14.73,55.89h3.12a0,0,0,0,1,0,0v2.84a0,0,0,0,1,0,0H14.73a.85.85,0,0,1-.85-.85V56.75A.85.85,0,0,1,14.73,55.89Z"/><rect class="cls-4" x="17.85" y="54.44" width="12.25" height="26.05" rx="1.51" ry="1.51"/><path class="cls-5" d="M74.12,102.95l1-4.39L73,96.09H66.51v4.7a2.13,2.13,0,0,0,2.16,2.16l1.85-1.72.51,1.72Z" transform="translate(-48.67 -22.46)"/><rect class="cls-2" x="21.09" y="73.53" width="5.77" height="9.83" rx="0.62" ry="0.62"/><path class="cls-3" d="M79.62,95.53h3.12a0,0,0,0,1,0,0v2.84a0,0,0,0,1,0,0H79.62a.85.85,0,0,1-.85-.85V96.38A.85.85,0,0,1,79.62,95.53Z" transform="translate(112.83 171.45) rotate(180)"/><path class="cls-3" d="M14.73,73.08h3.12a0,0,0,0,1,0,0v2.84a0,0,0,0,1,0,0H14.73a.85.85,0,0,1-.85-.85V73.93A.85.85,0,0,1,14.73,73.08Z"/><path class="cls-3" d="M79.62,86.95h3.12a0,0,0,0,1,0,0v2.84a0,0,0,0,1,0,0H79.62a.85.85,0,0,1-.85-.85V87.8A.85.85,0,0,1,79.62,86.95Z" transform="translate(112.83 154.28) rotate(180)"/><path class="cls-3" d="M14.73,64.49h3.12a0,0,0,0,1,0,0v2.84a0,0,0,0,1,0,0H14.73a.85.85,0,0,1-.85-.85V65.34A.85.85,0,0,1,14.73,64.49Z"/><path class="cls-3" d="M79.62,78.36h3.12a0,0,0,0,1,0,0v2.84a0,0,0,0,1,0,0H79.62a.85.85,0,0,1-.85-.85V79.21A.85.85,0,0,1,79.62,78.36Z" transform="translate(112.83 137.12) rotate(180)"/><path class="cls-3" d="M14.73,55.91h3.12a0,0,0,0,1,0,0v2.84a0,0,0,0,1,0,0H14.73a.85.85,0,0,1-.85-.85V56.76A.85.85,0,0,1,14.73,55.91Z"/><rect class="cls-4" x="17.85" y="54.45" width="12.25" height="26.05" rx="1.51" ry="1.51"/><path class="cls-5" d="M74.12,103l1-4.39L73,96.1H66.51v4.7A2.13,2.13,0,0,0,68.67,103l1.85-1.72L71,103Z" transform="translate(-48.67 -22.46)"/><rect class="cls-6" width="47.94" height="80.5" rx="5.67" ry="5.67"/><circle class="cls-7" cx="5.68" cy="75.05" r="3.48"/><circle class="cls-7" cx="42.36" cy="75.05" r="3.48"/><circle class="cls-8" cx="72.64" cy="78.49" r="1.92" transform="translate(-82.89 51.9) rotate(-45)"/><circle class="cls-8" cx="72.64" cy="94.36" r="1.92" transform="translate(-94.11 56.55) rotate(-45)"/><g class="cls-9"><circle class="cls-10" cx="23.97" cy="13.51" r="4.04"/></g><rect class="cls-10" x="19.93" y="11.22" width="8.08" height="2.29"/><rect class="cls-4" x="19.16" y="18.93" width="2.38" height="1.78"/><rect class="cls-11" x="70.2" y="41.39" width="0.59" height="1.78" transform="translate(92.32 62.11) rotate(180)"/><rect class="cls-11" x="67.24" y="41.39" width="0.59" height="1.78" transform="translate(86.39 62.11) rotate(180)"/><path class="cls-12" d="M80.61,28.12H69.19a2.41,2.41,0,1,0,0,2.34H80.61Z" transform="translate(-48.67 -22.46)"/><circle class="cls-13" cx="18.41" cy="6.87" r="1.59"/><rect class="cls-13" x="19.62" y="6.57" width="11.47" height="0.61"/></svg>