<svg id="图层_1" data-name="图层 1" xmlns="http://www.w3.org/2000/svg" xmlns:xlink="http://www.w3.org/1999/xlink" viewBox="0 0 507.49 474.09"><defs><style>.cls-1,.cls-9{fill:none;}.cls-2{fill:#214198;}.cls-3{fill:#1d2b57;}.cls-4{fill:#a5a5a5;}.cls-5{fill:#fff;}.cls-6{clip-path:url(#clip-path);}.cls-7{fill:#040000;}.cls-8{fill:#272828;}.cls-9{stroke:#272828;stroke-linecap:round;stroke-miterlimit:10;stroke-width:5.74px;}</style><clipPath id="clip-path" transform="translate(-176.55 -42.99)"><polygon class="cls-1" points="349.27 424.44 349.27 495.13 512.68 495.13 512.68 424.44 684.04 424.44 684.04 119.16 177.91 119.16 177.91 424.44 349.27 424.44"/></clipPath></defs><title>未标题-2</title><polygon class="cls-2" points="142.93 474.1 142.93 423.19 365.93 423.19 365.93 474.1 507.49 474.1 507.49 0 1.37 0 1.37 474.1 142.93 474.1"/><polygon class="cls-3" points="142.93 474.1 142.93 423.19 365.93 423.19 365.93 474.1 507.49 474.1 507.49 445.6 381.85 445.6 381.85 400.07 124.48 400.07 124.48 445.6 1.37 445.6 1.37 474.1 142.93 474.1"/><rect class="cls-3" width="506.13" height="21.51"/><circle class="cls-4" cx="471.45" cy="433.41" r="27.97"/><circle class="cls-5" cx="471.45" cy="433.41" r="18.72"/><circle class="cls-4" cx="37.41" cy="433.41" r="27.97"/><circle class="cls-5" cx="37.41" cy="433.41" r="18.72"/><circle class="cls-4" cx="471.45" cy="38.87" r="27.97"/><circle class="cls-5" cx="471.45" cy="38.87" r="18.72"/><circle class="cls-4" cx="37.41" cy="38.87" r="27.97"/><circle class="cls-5" cx="37.41" cy="38.87" r="18.72"/><circle class="cls-4" cx="317.76" cy="40.2" r="15.29"/><circle class="cls-4" cx="274.63" cy="40.2" r="15.29"/><circle class="cls-4" cx="231.5" cy="40.2" r="15.29"/><circle class="cls-4" cx="188.36" cy="40.2" r="15.29"/><g class="cls-6"><polygon class="cls-7" points="172.72 381.44 172.72 452.13 336.14 452.13 336.14 381.44 507.49 381.44 507.49 76.16 1.37 76.16 1.37 381.44 172.72 381.44"/><rect class="cls-8" x="177.91" y="119.72" width="506.13" height="255.03" transform="translate(685.41 451.49) rotate(180)"/><line class="cls-9" x1="102.38" y1="331.76" x2="128.31" y2="377.83"/><line class="cls-9" x1="126.25" y1="331.76" x2="152.18" y2="377.83"/><line class="cls-9" x1="152.18" y1="331.76" x2="219.92" y2="452.13"/><line class="cls-9" x1="176.65" y1="329.8" x2="244.4" y2="450.17"/><line class="cls-9" x1="203.69" y1="329.8" x2="271.43" y2="450.17"/><line class="cls-9" x1="232.36" y1="329.8" x2="300.11" y2="450.17"/><line class="cls-9" x1="266.24" y1="331.76" x2="333.98" y2="452.13"/><line class="cls-9" x1="300.69" y1="331.76" x2="334.56" y2="391.95"/><line class="cls-9" x1="322.95" y1="324.7" x2="356.82" y2="384.89"/><line class="cls-9" x1="350.32" y1="324.7" x2="384.19" y2="384.89"/></g></svg>