<svg id="图层_1" data-name="图层 1" xmlns="http://www.w3.org/2000/svg" viewBox="0 0 101.46 63.51"><defs><style>.cls-1{fill:#dcdddd;}.cls-2{fill:#465a94;}.cls-12,.cls-3{fill:#fff;}.cls-3{stroke:#dcdddd;stroke-width:0.5px;}.cls-13,.cls-3,.cls-9{stroke-miterlimit:10;}.cls-4{fill:#c9caca;}.cls-5{fill:#f7f8f8;}.cls-6{font-size:4px;}.cls-10,.cls-6{fill:#d5a52c;font-family:MicrosoftYaHei, Microsoft YaHei;}.cls-7{fill:#494949;}.cls-8{fill:#bbbaba;}.cls-13,.cls-9{fill:none;}.cls-9{stroke:#494949;stroke-width:0.1px;}.cls-10{font-size:3px;}.cls-11{letter-spacing:-0.09em;}.cls-13{stroke:#fdfdfe;stroke-linecap:round;}.cls-13,.cls-14{opacity:0.5;}.cls-14{fill:#fdfdfe;}.cls-15{fill:#3f3f3f;}</style></defs><title>超声波传感器和转接板</title><rect class="cls-1" x="43" y="41.96" width="2.02" height="11.33"/><rect class="cls-1" x="47.38" y="41.96" width="2.02" height="11.33"/><rect class="cls-1" x="51.75" y="41.96" width="2.02" height="11.33"/><rect class="cls-1" x="56.13" y="41.96" width="2.02" height="11.33"/><rect class="cls-2" width="101.46" height="41.96"/><circle class="cls-3" cx="98.31" cy="3.04" r="2.46"/><circle class="cls-3" cx="3.56" cy="3.04" r="2.46"/><circle class="cls-3" cx="98.31" cy="38.43" r="2.46"/><circle class="cls-3" cx="3.56" cy="38.43" r="2.46"/><circle class="cls-4" cx="21.51" cy="20.98" r="18.06"/><circle class="cls-4" cx="80.26" cy="21.2" r="18.06"/><rect class="cls-4" x="39.73" y="2.68" width="21.91" height="8.04" rx="4.02" ry="4.02"/><rect class="cls-1" x="40.14" y="3.05" width="20.94" height="7.29" rx="3.65" ry="3.65"/><rect class="cls-5" x="40.56" y="3.44" width="20.16" height="6.52" rx="3.26" ry="3.26"/><text class="cls-6" transform="translate(7.82 40.16)">T</text><text class="cls-6" transform="translate(40.56 15.66)">HC—SR04</text><text class="cls-6" transform="translate(92.11 40.16)">R</text><circle class="cls-1" cx="80.26" cy="21.2" r="17.94"/><circle class="cls-7" cx="80.26" cy="21.2" r="14.09"/><circle class="cls-8" cx="103.07" cy="61.52" r="13.25" transform="translate(-36.13 50.58) rotate(-45)"/><line class="cls-9" x1="67.65" y1="26.35" x2="75.44" y2="34.14"/><line class="cls-9" x1="67.08" y1="24.72" x2="76.9" y2="34.54"/><line class="cls-9" x1="67.07" y1="23.65" x2="77.76" y2="34.34"/><line class="cls-9" x1="66.66" y1="22.17" x2="79.62" y2="35.14"/><line class="cls-9" x1="66.92" y1="21.37" x2="80.15" y2="34.6"/><line class="cls-9" x1="66.42" y1="19.81" x2="81.57" y2="34.97"/><line class="cls-9" x1="66.95" y1="19.28" x2="82.11" y2="34.44"/><line class="cls-9" x1="66.82" y1="18.09" x2="83.34" y2="34.6"/><line class="cls-9" x1="67.35" y1="17.56" x2="83.87" y2="34.07"/><line class="cls-9" x1="67.44" y1="16.58" x2="84.97" y2="34.12"/><line class="cls-9" x1="67.97" y1="16.05" x2="85.5" y2="33.59"/><line class="cls-9" x1="68.07" y1="15.09" x2="86.45" y2="33.47"/><line class="cls-9" x1="68.6" y1="14.56" x2="86.98" y2="32.94"/><line class="cls-9" x1="68.91" y1="13.81" x2="87.65" y2="32.55"/><line class="cls-9" x1="69.44" y1="13.28" x2="88.18" y2="32.02"/><line class="cls-9" x1="69.69" y1="12.46" x2="89.08" y2="31.86"/><line class="cls-9" x1="70.22" y1="11.93" x2="89.61" y2="31.33"/><line class="cls-9" x1="70.87" y1="11.53" x2="89.92" y2="30.57"/><line class="cls-9" x1="71.41" y1="11" x2="90.45" y2="30.04"/><line class="cls-9" x1="71.94" y1="10.47" x2="90.84" y2="29.37"/><line class="cls-9" x1="72.47" y1="9.94" x2="91.37" y2="28.84"/><line class="cls-9" x1="73.16" y1="9.56" x2="91.9" y2="28.31"/><line class="cls-9" x1="73.69" y1="9.03" x2="92.43" y2="27.78"/><line class="cls-9" x1="74.66" y1="8.95" x2="92.56" y2="26.85"/><line class="cls-9" x1="75.2" y1="8.42" x2="93.09" y2="26.31"/><line class="cls-9" x1="76.2" y1="8.36" x2="93.15" y2="25.31"/><line class="cls-9" x1="76.73" y1="7.83" x2="93.68" y2="24.78"/><line class="cls-9" x1="77.97" y1="8" x2="93.6" y2="23.64"/><line class="cls-9" x1="78.5" y1="7.47" x2="94.13" y2="23.11"/><line class="cls-9" x1="79.76" y1="7.67" x2="93.71" y2="21.62"/><line class="cls-9" x1="80.51" y1="7.37" x2="94.24" y2="21.09"/><line class="cls-9" x1="81.78" y1="7.57" x2="94.04" y2="19.83"/><line class="cls-9" x1="83.18" y1="7.91" x2="93.72" y2="18.45"/><line class="cls-9" x1="84.94" y1="8.61" x2="92.95" y2="16.62"/><line class="cls-9" x1="85.69" y1="8.3" x2="93.26" y2="15.87"/><line class="cls-9" x1="75.06" y1="8.5" x2="67.27" y2="16.29"/><line class="cls-9" x1="76.69" y1="7.93" x2="66.87" y2="17.75"/><line class="cls-9" x1="77.76" y1="7.92" x2="67.07" y2="18.61"/><line class="cls-9" x1="79.23" y1="7.51" x2="66.27" y2="20.47"/><line class="cls-9" x1="80.04" y1="7.77" x2="66.8" y2="21"/><line class="cls-9" x1="81.6" y1="7.27" x2="66.44" y2="22.42"/><line class="cls-9" x1="82.13" y1="7.8" x2="66.97" y2="22.96"/><line class="cls-9" x1="83.32" y1="7.67" x2="66.8" y2="24.19"/><line class="cls-9" x1="83.85" y1="8.2" x2="67.34" y2="24.72"/><line class="cls-9" x1="84.83" y1="8.29" x2="67.29" y2="25.82"/><line class="cls-9" x1="85.36" y1="8.82" x2="67.82" y2="26.35"/><line class="cls-9" x1="86.31" y1="8.92" x2="67.94" y2="27.3"/><line class="cls-9" x1="86.85" y1="9.45" x2="68.47" y2="27.83"/><line class="cls-9" x1="87.6" y1="9.76" x2="68.86" y2="28.5"/><line class="cls-9" x1="88.13" y1="10.29" x2="69.39" y2="29.03"/><line class="cls-9" x1="88.95" y1="10.54" x2="69.55" y2="29.93"/><line class="cls-9" x1="89.48" y1="11.07" x2="70.08" y2="30.46"/><line class="cls-9" x1="89.88" y1="11.72" x2="70.84" y2="30.77"/><line class="cls-9" x1="90.41" y1="12.26" x2="71.37" y2="31.3"/><line class="cls-9" x1="90.94" y1="12.79" x2="72.04" y2="31.69"/><line class="cls-9" x1="91.47" y1="13.32" x2="72.57" y2="32.22"/><line class="cls-9" x1="91.85" y1="14.01" x2="73.1" y2="32.75"/><line class="cls-9" x1="92.38" y1="14.54" x2="73.63" y2="33.28"/><line class="cls-9" x1="92.46" y1="15.51" x2="74.56" y2="33.41"/><line class="cls-9" x1="92.99" y1="16.05" x2="75.09" y2="33.94"/><line class="cls-9" x1="93.04" y1="17.05" x2="76.1" y2="34"/><line class="cls-9" x1="93.58" y1="17.58" x2="76.63" y2="34.53"/><line class="cls-9" x1="93.41" y1="18.82" x2="77.77" y2="34.45"/><line class="cls-9" x1="93.94" y1="19.35" x2="78.3" y2="34.98"/><line class="cls-9" x1="93.73" y1="20.61" x2="79.79" y2="34.56"/><line class="cls-9" x1="94.04" y1="21.36" x2="80.32" y2="35.09"/><line class="cls-9" x1="93.84" y1="22.63" x2="81.58" y2="34.89"/><line class="cls-9" x1="93.5" y1="24.03" x2="82.95" y2="34.57"/><line class="cls-9" x1="92.8" y1="25.79" x2="84.79" y2="33.8"/><line class="cls-9" x1="93.11" y1="26.54" x2="85.54" y2="34.11"/><circle class="cls-1" cx="21.51" cy="21.03" r="17.94"/><circle class="cls-7" cx="21.51" cy="21.03" r="14.09"/><circle class="cls-8" cx="44.32" cy="61.35" r="13.25" transform="translate(-53.21 8.99) rotate(-45)"/><line class="cls-9" x1="8.9" y1="26.18" x2="16.69" y2="33.97"/><line class="cls-9" x1="8.34" y1="24.55" x2="18.15" y2="34.37"/><line class="cls-9" x1="8.33" y1="23.48" x2="19.02" y2="34.17"/><line class="cls-9" x1="7.91" y1="22.01" x2="20.88" y2="34.97"/><line class="cls-9" x1="8.17" y1="21.2" x2="21.41" y2="34.44"/><line class="cls-9" x1="7.67" y1="19.64" x2="22.83" y2="34.8"/><line class="cls-9" x1="8.2" y1="19.11" x2="23.36" y2="34.27"/><line class="cls-9" x1="8.07" y1="17.92" x2="24.59" y2="34.44"/><line class="cls-9" x1="8.6" y1="17.39" x2="25.12" y2="33.91"/><line class="cls-9" x1="8.69" y1="16.41" x2="26.23" y2="33.95"/><line class="cls-9" x1="9.22" y1="15.88" x2="26.76" y2="33.42"/><line class="cls-9" x1="9.33" y1="14.93" x2="27.7" y2="33.3"/><line class="cls-9" x1="9.86" y1="14.4" x2="28.23" y2="32.77"/><line class="cls-9" x1="10.16" y1="13.64" x2="28.91" y2="32.39"/><line class="cls-9" x1="10.69" y1="13.11" x2="29.44" y2="31.85"/><line class="cls-9" x1="10.94" y1="12.29" x2="30.33" y2="31.69"/><line class="cls-9" x1="11.47" y1="11.76" x2="30.86" y2="31.16"/><line class="cls-9" x1="12.13" y1="11.36" x2="31.17" y2="30.4"/><line class="cls-9" x1="12.66" y1="10.83" x2="31.7" y2="29.87"/><line class="cls-9" x1="13.19" y1="10.3" x2="32.09" y2="29.2"/><line class="cls-9" x1="13.72" y1="9.77" x2="32.62" y2="28.67"/><line class="cls-9" x1="14.41" y1="9.4" x2="33.15" y2="28.14"/><line class="cls-9" x1="14.94" y1="8.86" x2="33.68" y2="27.61"/><line class="cls-9" x1="15.92" y1="8.78" x2="33.82" y2="26.68"/><line class="cls-9" x1="16.45" y1="8.25" x2="34.35" y2="26.15"/><line class="cls-9" x1="17.46" y1="8.2" x2="34.4" y2="25.14"/><line class="cls-9" x1="17.99" y1="7.67" x2="34.93" y2="24.61"/><line class="cls-9" x1="19.22" y1="7.84" x2="34.86" y2="23.47"/><line class="cls-9" x1="19.75" y1="7.31" x2="35.39" y2="22.94"/><line class="cls-9" x1="21.01" y1="7.51" x2="34.96" y2="21.46"/><line class="cls-9" x1="21.77" y1="7.2" x2="35.49" y2="20.92"/><line class="cls-9" x1="23.03" y1="7.4" x2="35.29" y2="19.66"/><line class="cls-9" x1="24.44" y1="7.75" x2="34.98" y2="18.29"/><line class="cls-9" x1="26.19" y1="8.44" x2="34.21" y2="16.46"/><line class="cls-9" x1="26.95" y1="8.13" x2="34.51" y2="15.7"/><line class="cls-9" x1="16.32" y1="8.33" x2="8.53" y2="16.12"/><line class="cls-9" x1="17.94" y1="7.77" x2="8.13" y2="17.58"/><line class="cls-9" x1="19.02" y1="7.76" x2="8.32" y2="18.45"/><line class="cls-9" x1="20.49" y1="7.34" x2="7.53" y2="20.3"/><line class="cls-9" x1="21.29" y1="7.6" x2="8.06" y2="20.83"/><line class="cls-9" x1="22.86" y1="7.1" x2="7.7" y2="22.26"/><line class="cls-9" x1="23.39" y1="7.63" x2="8.23" y2="22.79"/><line class="cls-9" x1="24.58" y1="7.5" x2="8.06" y2="24.02"/><line class="cls-9" x1="25.11" y1="8.03" x2="8.59" y2="24.55"/><line class="cls-9" x1="26.08" y1="8.12" x2="8.55" y2="25.65"/><line class="cls-9" x1="26.61" y1="8.65" x2="9.08" y2="26.18"/><line class="cls-9" x1="27.57" y1="8.75" x2="9.19" y2="27.13"/><line class="cls-9" x1="28.1" y1="9.29" x2="9.72" y2="27.66"/><line class="cls-9" x1="28.85" y1="9.59" x2="10.11" y2="28.34"/><line class="cls-9" x1="29.38" y1="10.12" x2="10.64" y2="28.87"/><line class="cls-9" x1="30.2" y1="10.37" x2="10.81" y2="29.76"/><line class="cls-9" x1="30.73" y1="10.9" x2="11.34" y2="30.29"/><line class="cls-9" x1="31.14" y1="11.56" x2="12.09" y2="30.6"/><line class="cls-9" x1="31.67" y1="12.09" x2="12.62" y2="31.13"/><line class="cls-9" x1="32.2" y1="12.62" x2="13.29" y2="31.52"/><line class="cls-9" x1="32.73" y1="13.15" x2="13.83" y2="32.05"/><line class="cls-9" x1="33.1" y1="13.84" x2="14.36" y2="32.58"/><line class="cls-9" x1="33.63" y1="14.37" x2="14.89" y2="33.11"/><line class="cls-9" x1="33.71" y1="15.35" x2="15.82" y2="33.24"/><line class="cls-9" x1="34.25" y1="15.88" x2="16.35" y2="33.77"/><line class="cls-9" x1="34.3" y1="16.89" x2="17.36" y2="33.83"/><line class="cls-9" x1="34.83" y1="17.42" x2="17.89" y2="34.36"/><line class="cls-9" x1="34.66" y1="18.65" x2="19.02" y2="34.28"/><line class="cls-9" x1="35.19" y1="19.18" x2="19.55" y2="34.81"/><line class="cls-9" x1="34.99" y1="20.44" x2="21.04" y2="34.39"/><line class="cls-9" x1="35.3" y1="21.2" x2="21.57" y2="34.92"/><line class="cls-9" x1="35.09" y1="22.46" x2="22.83" y2="34.72"/><line class="cls-9" x1="34.75" y1="23.87" x2="24.21" y2="34.41"/><line class="cls-9" x1="34.05" y1="25.62" x2="26.04" y2="33.64"/><line class="cls-9" x1="34.36" y1="26.38" x2="26.79" y2="33.94"/><text class="cls-10" transform="translate(45.03 39.26) rotate(-90)">Ucc</text><text class="cls-10" transform="translate(49.66 39.04) rotate(-90)"><tspan class="cls-11">T</tspan><tspan x="1.44" y="0">rig</tspan></text><text class="cls-10" transform="translate(53.77 38.97) rotate(-90)">Echo</text><text class="cls-10" transform="translate(58.41 38.97) rotate(-90)">Gnd</text><circle class="cls-1" cx="44.01" cy="40.37" r="0.76"/><circle class="cls-1" cx="48.57" cy="40.37" r="0.76"/><circle class="cls-1" cx="52.76" cy="40.37" r="0.76"/><circle class="cls-1" cx="57.14" cy="40.37" r="0.76"/><rect class="cls-12" x="49.91" y="4.03" width="8.75" height="1.19" rx="0.59" ry="0.59"/><path class="cls-13" d="M117.89,68.3a11.86,11.86,0,0,1-6.43,7.25" transform="translate(-22.81 -40.32)"/><circle class="cls-14" cx="86.77" cy="36.01" r="0.64"/><path class="cls-13" d="M58.11,68.16a11.86,11.86,0,0,1-6.43,7.25" transform="translate(-22.81 -40.32)"/><circle class="cls-14" cx="26.99" cy="35.88" r="0.64"/><rect class="cls-15" x="41.78" y="52.25" width="17.8" height="8.46"/><rect class="cls-7" x="42.04" y="52.25" width="3.95" height="8.46"/><rect class="cls-7" x="46.48" y="52.25" width="3.95" height="8.46"/><rect class="cls-7" x="50.93" y="52.25" width="3.95" height="8.46"/><rect class="cls-7" x="55.37" y="52.25" width="3.95" height="8.46"/><rect class="cls-15" x="35.13" y="60.71" width="32.89" height="2.8" rx="0.68" ry="0.68"/></svg>