<svg width="150" height="150" xmlns="http://www.w3.org/2000/svg"><g fill="none" fill-rule="evenodd"><path fill="#00979D" fill-rule="nonzero" d="M134.995 96.052v-63.62H15.148v63.62z"/><path d="M50.026 91.003H25.913a3.87 3.87 0 0 1-3.875-3.895V56.38c0-3.606 2.44-5.337 4.593-5.337l23.538 1.442a3.87 3.87 0 0 1 3.876 3.895l1.291 30.007c-.143 2.02-1.722 4.616-5.31 4.616z" fill="#161616" fill-rule="nonzero"/><path d="M51.318 89.56H27.205a3.87 3.87 0 0 1-3.876-3.894V54.938a3.87 3.87 0 0 1 3.876-3.895h24.113a3.87 3.87 0 0 1 3.875 3.895v30.728c0 2.02-1.722 3.895-3.875 3.895z" fill="#5A5A5A" fill-rule="nonzero"/><path d="M97.821 91.003H64.666a3.87 3.87 0 0 1-3.875-3.895V56.38c0-3.606 2.44-5.337 4.593-5.337l23.538 1.442a3.87 3.87 0 0 1 3.876 3.895l9.33 29.286c0 2.02-1.293 5.337-4.307 5.337z" fill="#161616" fill-rule="nonzero"/><path d="M97.678 89.56h-31.29c-2.44 0-4.45-2.019-4.45-4.471V55.37c0-2.452 2.01-4.472 4.45-4.472h31.29c2.44 0 4.45 2.02 4.45 4.472v29.72c0 2.452-2.01 4.472-4.45 4.472z" fill="#5A5A5A" fill-rule="nonzero"/><path d="M27.348 45.705c-.43 0-.86-.433-.86-.866v-3.03c0-.432.43-.865.86-.865s.861.433.861.866v3.03c0 .432-.43.865-.86.865z" fill="#161616" fill-rule="nonzero"/><path d="M28.21 41.81c0-.577-.431-1.01-.862-1.01-.43 0-.86.433-.86.866v.144h1.721zm-1.723 2.885c0 .577.43 1.01.861 1.01.43 0 .861-.433.861-.866v-.144h-1.722z" fill-rule="nonzero" fill="#D6D6D6"/><path d="M30.506 45.705c-.43 0-.861-.433-.861-.866v-3.03c0-.432.43-.865.86-.865.431 0 .862.433.862.866v3.03c0 .432-.43.865-.861.865z" fill="#161616" fill-rule="nonzero"/><path d="M31.367 41.81c0-.577-.43-1.01-.861-1.01-.43 0-.861.433-.861.866v.144h1.722zm-1.722 2.885c0 .577.43 1.01.86 1.01.431 0 .862-.433.862-.866v-.144h-1.722z" fill-rule="nonzero" fill="#D6D6D6"/><path d="M33.664 45.705c-.431 0-.862-.433-.862-.866v-3.03c0-.432.43-.865.862-.865.43 0 .86.433.86.866v3.03c0 .432-.43.865-.86.865z" fill="#161616" fill-rule="nonzero"/><path d="M34.525 41.81c0-.577-.43-1.01-.861-1.01s-.862.433-.862.866v.144h1.723zm-1.723 2.885c0 .577.43 1.01.862 1.01.43 0 .86-.433.86-.866v-.144h-1.722z" fill-rule="nonzero" fill="#D6D6D6"/><path d="M36.821 45.705c-.43 0-.861-.433-.861-.866v-3.03c0-.432.43-.865.861-.865.43 0 .861.433.861.866v3.03c0 .432-.43.865-.86.865z" fill="#161616" fill-rule="nonzero"/><path d="M37.682 41.81c0-.577-.43-1.01-.86-1.01-.431 0-.862.433-.862.866v.144h1.722zm-1.722 2.885c0 .577.43 1.01.861 1.01.43 0 .861-.433.861-.866v-.144H35.96z" fill-rule="nonzero" fill="#D6D6D6"/><path d="M58.064 56.669c-.431 0-.862-.433-.862-.866v-3.03c0-.432.43-.865.862-.865.43 0 .86.433.86.866v3.03c0 .432-.286.865-.86.865z" fill="#161616" fill-rule="nonzero"/><path d="M58.925 52.774c0-.577-.43-1.01-.861-1.01s-.862.433-.862.866v.144h1.723zm-1.723 2.885c0 .577.43 1.01.862 1.01.43 0 .86-.433.86-.866v-.144h-1.722z" fill-rule="nonzero" fill="#D6D6D6"/><path d="M58.064 69.22c-.431 0-.862-.433-.862-.866v-3.03c0-.432.43-.865.862-.865.43 0 .86.433.86.866v3.03c0 .576-.286.865-.86.865z" fill="#161616" fill-rule="nonzero"/><path d="M58.925 65.325c0-.577-.43-1.01-.861-1.01s-.862.433-.862.865v.145h1.723zm-1.723 3.029c0 .577.43 1.01.862 1.01.43 0 .86-.433.86-.866v-.144h-1.722z" fill-rule="nonzero" fill="#D6D6D6"/><path d="M84.186 45.705c-.43 0-.861-.433-.861-.866v-3.03c0-.432.43-.865.86-.865.431 0 .862.433.862.866v3.03c0 .432-.43.865-.861.865z" fill="#FFF" fill-rule="nonzero"/><path d="M85.047 41.81c0-.577-.43-1.01-.861-1.01-.43 0-.861.433-.861.866v.144h1.722zm-1.722 2.885c0 .577.43 1.01.86 1.01.431 0 .862-.433.862-.866v-.144h-1.722z" fill-rule="nonzero" fill="#BFBFBF"/><path d="M58.064 85.089c-.431 0-.862-.433-.862-.866v-3.03c0-.432.43-.865.862-.865.43 0 .86.433.86.865v3.03c0 .433-.286.866-.86.866z" fill="#FFF" fill-rule="nonzero"/><path d="M58.925 81.193c0-.577-.43-1.01-.861-1.01s-.862.433-.862.866v.144h1.723zm-1.723 3.03c0 .577.43 1.01.862 1.01.43 0 .86-.433.86-.866v-.144h-1.722z" fill-rule="nonzero" fill="#BFBFBF"/><path d="M107.725 45.705c-.43 0-.861-.433-.861-.866v-3.03c0-.432.43-.865.86-.865.431 0 .862.433.862.866v3.03c0 .432-.43.865-.861.865z" fill="#FFF" fill-rule="nonzero"/><path d="M108.586 41.81c0-.577-.43-1.01-.861-1.01-.43 0-.861.433-.861.866v.144h1.722zm-1.722 2.885c0 .577.43 1.01.86 1.01.431 0 .862-.433.862-.866v-.144h-1.722z" fill-rule="nonzero" fill="#BFBFBF"/><path d="M111.026 44.407v-.577c0-.578.43-1.155 1.148-1.155h2.584c.574 0 1.148.433 1.148 1.155v.577c0 .577-.43 1.154-1.148 1.154h-2.584c-.574 0-1.148-.577-1.148-1.154z" fill="#FFF" fill-rule="nonzero"/><path d="M114.901 45.56c.574 0 1.005-.576 1.005-1.442s-.43-1.443-.861-1.443h-.144v2.886zm-2.871-2.885c-.574 0-1.004.577-1.004 1.443 0 .866.43 1.443.861 1.443h.144v-2.886z" fill-rule="nonzero" fill="#BFBFBF"/><path d="M74.426 44.407v-.577c0-.578.43-1.155 1.148-1.155h2.584c.574 0 1.148.433 1.148 1.155v.577c0 .577-.43 1.154-1.148 1.154h-2.584c-.574 0-1.148-.577-1.148-1.154z" fill="#FFF" fill-rule="nonzero"/><path d="M78.301 45.56c.574 0 1.005-.576 1.005-1.442s-.43-1.443-.861-1.443H78.3v2.886zm-2.871-2.885c-.574 0-1.004.577-1.004 1.443 0 .866.43 1.443.861 1.443h.144v-2.886z" fill-rule="nonzero" fill="#BFBFBF"/><path d="M113.322 55.803c-.43 0-.86-.433-.86-.865v-3.03c0-.433.43-.865.86-.865s.862.432.862.865v3.03c0 .432-.288.865-.862.865z" fill="#161616" fill-rule="nonzero"/><path d="M114.184 51.908c0-.577-.431-1.01-.862-1.01-.43 0-.86.433-.86.866v.144h1.722zm-1.723 2.885c0 .577.43 1.01.861 1.01.43 0 .862-.433.862-.865v-.145h-1.723z" fill-rule="nonzero" fill="#D6D6D6"/><path d="M104.28 53.35c0-.432.43-.865.861-.865h3.014c.43 0 .861.433.861.866s-.43.865-.86.865h-3.015c-.43 0-.861-.432-.861-.865z" fill="#161616" fill-rule="nonzero"/><path d="M108.155 54.216c.574 0 1.005-.432 1.005-.865s-.43-.866-.861-.866h-.144v1.731zm-3.014-1.731c-.574 0-1.005.433-1.005.866s.431.865.862.865h.143v-1.73z" fill-rule="nonzero" fill="#D6D6D6"/><path d="M116.48 55.803c-.43 0-.861-.433-.861-.865v-3.03c0-.433.43-.865.861-.865.43 0 .861.432.861.865v3.03c0 .432-.43.865-.861.865z" fill="#161616" fill-rule="nonzero"/><path d="M117.341 51.908c0-.577-.43-1.01-.861-1.01-.43 0-.861.433-.861.866v.144h1.722zm-1.722 2.885c0 .577.43 1.01.861 1.01.43 0 .861-.433.861-.865v-.145h-1.722z" fill-rule="nonzero" fill="#D6D6D6"/><path d="M113.322 89.993c-.43 0-.86-.432-.86-.865v-3.03c0-.432.43-.865.86-.865s.862.433.862.865v3.03c0 .433-.288.865-.862.865z" fill="#161616" fill-rule="nonzero"/><path d="M114.184 86.098c0-.577-.431-1.01-.862-1.01-.43 0-.86.433-.86.866v.144h1.722zm-1.723 2.886c0 .577.43 1.01.861 1.01.43 0 .862-.433.862-.866v-.144h-1.723z" fill-rule="nonzero" fill="#D6D6D6"/><path d="M106.72 89.993c-.43 0-.861-.432-.861-.865v-3.03c0-.432.43-.865.861-.865.43 0 .861.433.861.865v3.03c0 .433-.43.865-.861.865z" fill="#161616" fill-rule="nonzero"/><path d="M107.581 86.098c0-.577-.43-1.01-.861-1.01-.43 0-.861.433-.861.866v.144h1.722zm-1.722 2.886c0 .577.43 1.01.861 1.01.43 0 .861-.433.861-.866v-.144h-1.722z" fill-rule="nonzero" fill="#D6D6D6"/><path d="M116.48 89.993c-.43 0-.861-.432-.861-.865v-3.03c0-.432.43-.865.861-.865.43 0 .861.433.861.865v3.03c0 .433-.43.865-.861.865z" fill="#161616" fill-rule="nonzero"/><path d="M117.341 86.098c0-.577-.43-1.01-.861-1.01-.43 0-.861.433-.861.866v.144h1.722zm-1.722 2.886c0 .577.43 1.01.861 1.01.43 0 .861-.433.861-.866v-.144h-1.722z" fill-rule="nonzero" fill="#D6D6D6"/><path d="M101.696 49.023H89.353c-1.148 0-2.01-.866-2.01-2.02v-5.77c0-1.443 1.436-2.164 2.584-2.164l11.195.721c1.149 0 2.01.866 2.01 2.02l.574 4.76c0 1.01-.287 2.453-2.01 2.453z" fill="#68552B" fill-rule="nonzero"/><path d="M101.84 48.302H90.07c-1.148 0-2.009-.866-2.009-2.02v-5.193c0-1.155.861-2.02 2.01-2.02h11.769c1.148 0 2.01.865 2.01 2.02v5.193c-.144 1.154-1.005 2.02-2.01 2.02z" fill="#CCAE71" fill-rule="nonzero"/><path stroke="#B3A76D" stroke-width="1.44" d="M120.93 89.56h12.917v-5.337h-10.334v-4.76h10.334v-5.194h-10.334V68.93h10.334v-5.338h-10.334V58.69h10.334v-5.771h-10.334v-5.482h10.334V41.81h-10.765v-5.338h10.765v-1.731"/><path d="M31.907 117.947h-1.674V122H28v-11h3.907c1.302 0 2.233.193 2.977.772.744.579.93 1.35.93 2.509 0 .772-.186 1.35-.558 1.93-.372.578-.744.964-1.489 1.157L36 121.807V122h-2.419l-1.674-4.053zm-1.86-1.93h1.674c.558 0 .93-.192 1.302-.385s.372-.772.372-1.158c0-.58-.186-.965-.372-1.158-.186-.193-.744-.386-1.302-.386h-1.674v3.088zm11.633-1.157l1.98-3.86H46l-3.06 5.404L46 122h-2.52l-1.98-3.86-1.98 3.86H37l3.06-5.596L37 111h2.34zM47 122v-11h3.349c.93 0 1.674.193 2.418.579.745.386 1.303.965 1.675 1.93.372.965.558 1.737.558 2.702v.578c0 .965-.186 1.93-.558 2.702-.372.772-.93 1.351-1.675 1.93-.744.579-1.488.579-2.418.579H47zm2.233-9.263v7.333h1.116c.93 0 1.488-.193 2.046-.772.558-.579.745-1.35.745-2.509v-.578c0-1.158-.187-1.93-.745-2.51-.558-.578-1.116-.771-2.046-.771h-1.116v-.193zm53.767.031h-3.326V122h-2.348v-9.232H94V111h9v1.768zm5.68 2.092l1.98-3.86H113l-3.06 5.404L113 122h-2.52l-1.98-3.86-1.98 3.86H104l3.06-5.596L104 111h2.34zM114 122v-11h3.349c.93 0 1.674.193 2.418.579.745.386 1.303.965 1.675 1.93.372.965.558 1.737.558 2.702v.578c0 .965-.186 1.93-.558 2.702-.372.772-.93 1.351-1.675 1.93-.744.579-1.488.579-2.418.579H114zm2.233-9.263v7.333h1.116c.93 0 1.488-.193 2.046-.772.558-.579.745-1.35.745-2.509v-.578c0-1.158-.187-1.93-.745-2.51-.558-.578-1.116-.771-2.046-.771h-1.116v-.193z" fill="#838697" fill-rule="nonzero"/></g></svg>