<svg width="150" height="150" xmlns="http://www.w3.org/2000/svg"><defs><linearGradient x1="23.046%" y1="-27.22%" x2="77.986%" y2="185.289%" id="a"><stop stop-color="#574453" offset="0%"/><stop stop-color="#414568" offset="100%"/></linearGradient><linearGradient x1=".089%" y1="51.072%" x2="100.135%" y2="51.072%" id="b"><stop stop-color="#272745" offset="0%"/><stop stop-color="#281F40" offset="100%"/></linearGradient><linearGradient x1="50.044%" y1="58.055%" x2="50.044%" y2="99.692%" id="c"><stop stop-color="#B8A678" offset="0%"/><stop stop-color="#EFCB6D" offset="100%"/></linearGradient><linearGradient x1="49.916%" y1="37.375%" x2="49.916%" y2="100.063%" id="d"><stop stop-color="#006AB7" offset="0%"/><stop stop-color="#4051A3" offset="100%"/></linearGradient><linearGradient x1="24.258%" y1="-47.295%" x2="75.885%" y2="148.151%" id="e"><stop stop-color="#00A3CF" offset="0%"/><stop stop-color="#0063E2" offset="99.46%"/></linearGradient><linearGradient x1="49.964%" y1="-.115%" x2="49.964%" y2="100.082%" id="f"><stop stop-color="#6D90CF" offset="0%"/><stop stop-color="#1084CF" offset="100%"/></linearGradient></defs><g fill="none"><path fill="url(#a)" d="M134 106H20l18.42-30h79.616z"/><path fill="url(#b)" d="M20 105h114v8H20z"/><path d="M48 78v10.321C48 92.571 60.734 95 76.5 95s28.5-2.429 28.5-6.679V78s-8.894 4.048-29.106 4.048C55.68 82.048 48 78 48 78z" fill="url(#c)"/><path d="M123 48.33c0-3.11-6.135-8.086-10.225-9.33H40.998C35.068 40.866 32 45.22 32 48.33v27.987c0 .207.204.622.204.83 0 .207-.204.621-.204.829C32 84.61 52.45 90 77.398 90c24.948 0 45.398-5.39 45.398-12.024 0-.208 0-.622-.205-.83 0-.207.205-.622.205-.829V48.33H123z" fill="url(#d)"/><ellipse fill="url(#e)" cx="76" cy="44.5" rx="43" ry="11.5"/><ellipse fill="url(#f)" cx="77.5" cy="43.5" rx="41.5" ry="10.5"/></g></svg>