<?xml version="1.0" encoding="UTF-8"?>
<svg width="150px" height="150px" viewBox="0 0 150 150" version="1.1" xmlns="http://www.w3.org/2000/svg" xmlns:xlink="http://www.w3.org/1999/xlink">
    <!-- Generator: Sketch 46.1 (44463) - http://www.bohemiancoding.com/sketch -->
    <title>buzzer</title>
    <desc>Created with Sketch.</desc>
    <defs></defs>
    <g id="Page-1" stroke="none" stroke-width="1" fill="none" fill-rule="evenodd">
        <g id="buzzer">
            <path d="M69.7372549,102.73913 L69.7372549,129.282609" id="Shape" stroke="#7A7C80" stroke-width="2.50151985"></path>
            <path d="M80.9803922,102.73913 C80.9803922,102.73913 80.9803922,122.826087 80.9803922,129.282609" id="Shape" stroke="#FC3D3D" stroke-width="2.50151985"></path>
            <path d="M20.4588235,56.5869565 C17.827451,57.3043478 14.7176471,60.8913043 14.7176471,64.7173913 C14.7176471,68.5434783 17.3490196,72.1304348 20.4588235,72.8478261 C23.3294118,73.5652174 36.2470588,76.9130435 36.2470588,76.9130435 L36.2470588,52.5217391 L20.4588235,56.5869565 Z M23.3294118,67.826087 C21.654902,67.826087 20.2196078,66.3913043 20.2196078,64.7173913 C20.2196078,63.0434783 21.654902,61.6086957 23.3294118,61.6086957 C25.0039216,61.6086957 26.4392157,63.0434783 26.4392157,64.7173913 C26.4392157,66.3913043 25.0039216,67.826087 23.3294118,67.826087 Z" id="Shape" fill="#252830" fill-rule="nonzero"></path>
            <path d="M130.019608,56.5869565 C127.14902,55.8695652 114.231373,52.5217391 114.231373,52.5217391 L114.231373,76.9130435 L130.019608,72.8478261 C132.65098,72.1304348 135.760784,68.5434783 135.760784,64.7173913 C135.760784,60.8913043 133.129412,57.3043478 130.019608,56.5869565 Z M127.388235,67.826087 C125.713725,67.826087 124.278431,66.3913043 124.278431,64.7173913 C124.278431,63.0434783 125.713725,61.6086957 127.388235,61.6086957 C129.062745,61.6086957 130.498039,63.0434783 130.498039,64.7173913 C130.498039,66.3913043 129.062745,67.826087 127.388235,67.826087 Z" id="Shape" fill="#252830" fill-rule="nonzero"></path>
            <ellipse id="Oval" fill="#0D0D0D" fill-rule="nonzero" cx="75.2392157" cy="64.7173913" rx="43.7764706" ry="43.7608696"></ellipse>
            <ellipse id="Oval" fill="#252830" fill-rule="nonzero" cx="75.2392157" cy="64.7173913" rx="43.7764706" ry="43.7608696"></ellipse>
            <ellipse id="Oval" fill="#D7D8D9" fill-rule="nonzero" cx="75.2392157" cy="64.7173913" rx="7.41568627" ry="7.41304348"></ellipse>
            <path d="M34.0941176,72.3695652 C32.1803922,61.8478261 34.0941176,50.3695652 40.7921569,40.8043478 C53.9490196,21.673913 80.0235294,16.8913043 99.1607843,30.0434783" id="Shape" stroke="#3E4145" stroke-width="1.54871991" stroke-linecap="round" stroke-linejoin="round"></path>
            <g id="Group" transform="translate(42.705882, 31.956522)" stroke="#3F3F41" stroke-width="0.5" stroke-linecap="round" stroke-linejoin="round">
                <path d="M55.4980392,55.7173913 C68.1764706,43.0434783 68.1764706,22.4782609 55.4980392,10.0434783 C42.8196078,-2.63043478 22.2470588,-2.63043478 9.80784314,10.0434783 C-2.87058824,22.7173913 -2.87058824,43.2826087 9.80784314,55.7173913 C22.2470588,68.3913043 42.8196078,68.3913043 55.4980392,55.7173913 Z" id="Shape"></path>
                <path d="M12.2,53.0869565 C0.956862745,41.8478261 0.956862745,23.673913 12.2,12.4347826 C23.4431373,1.19565217 41.6235294,1.19565217 52.8666667,12.4347826 C64.1098039,23.673913 64.1098039,41.8478261 52.8666667,53.0869565 C41.6235294,64.326087 23.4431373,64.326087 12.2,53.0869565 Z" id="Shape"></path>
                <ellipse id="Oval" cx="32.5333333" cy="32.7608696" rx="25.1176471" ry="25.1086957"></ellipse>
                <path d="M17.2235294,48.0652174 C8.85098039,39.6956522 8.85098039,26.0652174 17.2235294,17.4565217 C25.5960784,9.08695652 39.2313725,9.08695652 47.8431373,17.4565217 C56.454902,25.826087 56.2156863,39.4565217 47.8431373,48.0652174 C39.4705882,56.4347826 25.8352941,56.4347826 17.2235294,48.0652174 Z" id="Shape"></path>
                <ellipse id="Oval" cx="32.5333333" cy="32.7608696" rx="17.9411765" ry="17.9347826"></ellipse>
                <path d="M22.4862745,43.0434783 C16.745098,37.3043478 16.745098,28.2173913 22.4862745,22.7173913 C28.227451,16.9782609 37.3176471,16.9782609 42.8196078,22.7173913 C48.5607843,28.4565217 48.5607843,37.5434783 42.8196078,43.0434783 C37.0784314,48.5434783 27.9882353,48.5434783 22.4862745,43.0434783 Z" id="Shape"></path>
            </g>
            <path d="M57.7764706,102.73913 C78.827451,112.304348 103.705882,103.217391 113.27451,82.173913 C118.537255,70.6956522 118.298039,58.0217391 113.27451,47.5" id="Shape" stroke="#303032" stroke-width="1.54871991" stroke-linecap="round" stroke-linejoin="round"></path>
        </g>
    </g>
</svg>