<svg width="150" height="150" xmlns="http://www.w3.org/2000/svg"><g fill="none" fill-rule="evenodd"><path d="M69.737 102.74v26.543" stroke="#7A7C80" stroke-width="2.502"/><path d="M80.98 102.74v26.543" stroke="#FC3D3D" stroke-width="2.502"/><path d="M20.459 56.587c-2.632.717-5.741 4.304-5.741 8.13 0 3.826 2.631 7.413 5.74 8.13 2.871.718 15.79 4.066 15.79 4.066V52.522l-15.79 4.065zm2.87 11.24c-1.674 0-3.11-1.436-3.11-3.11s1.436-3.108 3.11-3.108c1.675 0 3.11 1.434 3.11 3.108 0 1.674-1.435 3.11-3.11 3.11zm106.691-11.24c-2.871-.717-15.789-4.065-15.789-4.065v24.391l15.789-4.065c2.631-.718 5.74-4.305 5.74-8.13 0-3.827-2.63-7.414-5.74-8.131zm-2.632 11.24c-1.674 0-3.11-1.436-3.11-3.11s1.436-3.108 3.11-3.108c1.675 0 3.11 1.434 3.11 3.108 0 1.674-1.435 3.11-3.11 3.11z" fill="#252830" fill-rule="nonzero"/><ellipse fill="#0D0D0D" fill-rule="nonzero" cx="75.239" cy="64.717" rx="43.776" ry="43.761"/><ellipse fill="#252830" fill-rule="nonzero" cx="75.239" cy="64.717" rx="43.776" ry="43.761"/><ellipse fill="#D7D8D9" fill-rule="nonzero" cx="75.239" cy="64.717" rx="7.416" ry="7.413"/><path d="M34.094 72.37c-1.914-10.522 0-22 6.698-31.566 13.157-19.13 39.232-23.913 58.369-10.76" stroke="#3E4145" stroke-width="1.549" stroke-linecap="round" stroke-linejoin="round"/><g transform="translate(42.706 31.957)" stroke="#3F3F41" stroke-width=".5" stroke-linecap="round" stroke-linejoin="round"><path d="M55.498 55.717c12.678-12.674 12.678-33.239 0-45.674-12.678-12.673-33.25-12.673-45.69 0-12.679 12.674-12.679 33.24 0 45.674 12.44 12.674 33.012 12.674 45.69 0z"/><path d="M12.2 53.087C.957 41.847.957 23.674 12.2 12.435c11.243-11.24 29.424-11.24 40.667 0 11.243 11.239 11.243 29.413 0 40.652-11.243 11.24-29.424 11.24-40.667 0z"/><ellipse cx="32.533" cy="32.761" rx="25.118" ry="25.109"/><path d="M17.224 48.065c-8.373-8.37-8.373-22 0-30.608 8.372-8.37 22.007-8.37 30.62 0 8.61 8.37 8.372 22 0 30.608-8.373 8.37-22.009 8.37-30.62 0z"/><ellipse cx="32.533" cy="32.761" rx="17.941" ry="17.935"/><path d="M22.486 43.043c-5.74-5.739-5.74-14.826 0-20.326 5.741-5.739 14.832-5.739 20.334 0 5.74 5.74 5.74 14.826 0 20.326-5.742 5.5-14.832 5.5-20.334 0z"/></g><path d="M57.776 102.74c21.051 9.564 45.93.477 55.499-20.566 5.262-11.478 5.023-24.152 0-34.674" stroke="#303032" stroke-width="1.549" stroke-linecap="round" stroke-linejoin="round"/></g></svg>