<svg width="150" height="150" xmlns="http://www.w3.org/2000/svg" xmlns:xlink="http://www.w3.org/1999/xlink"><defs><circle id="a" cx="53" cy="46" r="12"/><circle id="b" cx="97" cy="46" r="12"/></defs><g fill="none" fill-rule="evenodd"><rect fill="#505B72" x="45" y="88" width="60" height="22" rx="2"/><path fill="#1891EC" d="M40 92h70v24H40z"/><path fill="#1891EC" d="M65 75.006h20v17H65z"/><rect fill="#3D4863" x="17" y="81" width="26" height="44" rx="5"/><rect fill="#3D4863" x="107" y="81" width="26" height="44" rx="5"/><path d="M35 26h80a8 8 0 0 1 8 8v24a8 8 0 0 1-8 8H35a8 8 0 0 1-8-8V34a8 8 0 0 1 8-8zm17 40h46.112l-9.229 9.006H61.16L52 66z" fill="#6C7487"/><use fill="#505B73" xlink:href="#a"/><circle stroke-opacity=".807" stroke="#3D4863" stroke-width="2" cx="53" cy="46" r="13"/><use fill="#505B73" xlink:href="#b"/><circle stroke-opacity=".807" stroke="#3D4863" stroke-width="2" cx="97" cy="46" r="13"/><rect fill="#555E73" x="68" y="62" width="3" height="4" rx="1.5"/><rect fill="#555E73" x="74" y="62" width="3" height="4" rx="1.5"/><rect fill="#555E73" x="80" y="62" width="3" height="4" rx="1.5"/><circle fill="#0C71BD" cx="52" cy="97" r="2"/><circle fill="#0C71BD" cx="98" cy="97" r="2"/><circle fill="#0C71BD" cx="52" cy="111" r="2"/><circle fill="#0C71BD" cx="98" cy="111" r="2"/></g></svg>