<?xml version="1.0" encoding="UTF-8"?>
<svg width="150px" height="150px" viewBox="0 0 150 150" version="1.1" xmlns="http://www.w3.org/2000/svg" xmlns:xlink="http://www.w3.org/1999/xlink">
    <!-- Generator: Sketch 46.1 (44463) - http://www.bohemiancoding.com/sketch -->
    <title>continuousServo</title>
    <desc>Created with Sketch.</desc>
    <defs></defs>
    <g id="Page-1" stroke="none" stroke-width="1" fill="none" fill-rule="evenodd">
        <g id="continuousServo">
            <path d="M119.10757,103.363247 C119.10757,103.363247 126.903269,106.181668 130.935527,112.757984" id="path7_2_" stroke="#231919" stroke-width="4.02"></path>
            <path d="M119.241978,100.276405 C123.677462,100.276405 127.440903,102.960616 134.295742,110.476405" id="path9_2_" stroke="#EF4545" stroke-width="4.02"></path>
            <path d="M119.10757,97.3237737 C125.424774,97.3237737 129.053806,97.7264053 137.118323,108.597458" id="path11_2_" stroke="#F7D441" stroke-width="4.02"></path>
            <polyline id="polygon13_1_" fill="#6D6D6D" fill-rule="nonzero" points="115.075312 85.1106158 115.075312 123.763247 27.5753118 123.763247 27.5753118 85.1106158 27.5753118 83.0974579 27.5753118 62.8316684 115.075312 62.8316684 115.075312 83.0974579"></polyline>
            <path d="M80.2142857,100.25 L86,93.5476563 L82.1006696,93.5476563 C81.9620536,91.8765625 81.4678571,90.3132813 80.684375,88.9177083 C79.0330357,85.9708333 76.1160714,83.8205729 72.66875,83.1916667 C72.6265625,83.1856771 72.5783482,83.1736979 72.5361607,83.1677083 C72.5060268,83.1617188 72.4819196,83.1557292 72.4517857,83.1557292 C71.8430804,83.0539062 71.2102679,83 70.5714286,83 C70.5654018,83 70.5533482,83 70.5473214,83 C70.5473214,83 70.5473214,83 70.5473214,83 C65.0689732,83.0119792 60.4825893,86.809375 59.2953125,91.9005208 C59.2953125,91.9005208 59.2953125,91.9065104 59.2953125,91.9065104 C59.2772321,91.9723958 59.2651786,92.0382812 59.253125,92.1041667 C59.2470982,92.1341146 59.2410714,92.1580729 59.2350446,92.1880208 C59.2290179,92.2299479 59.2169643,92.271875 59.2109375,92.3138021 C59.1988839,92.3677083 59.1928571,92.415625 59.1808036,92.4695313 C59.1747768,92.4934896 59.1747768,92.5114583 59.16875,92.5354167 C59.1566964,92.6072917 59.1446429,92.6791667 59.1325893,92.7510417 C59.1325893,92.7570312 59.1325893,92.7570312 59.1325893,92.7630208 C59.0723214,93.1403646 59.0361607,93.5236979 59.0180804,93.9070312 C59.0180804,93.925 59.0180804,93.9429687 59.0180804,93.9549479 C59.0120536,94.0388021 59.0120536,94.1166667 59.0060268,94.2005208 C59.0060268,94.2963542 59,94.3981771 59,94.5 C59,94.6018229 59,94.6976562 59.0060268,94.7994792 C59.0060268,94.8833333 59.0120536,94.9611979 59.0180804,95.0450521 C59.0180804,95.0630208 59.0180804,95.0809896 59.0180804,95.0989583 C59.0361607,95.4882812 59.0783482,95.8716146 59.1325893,96.2429688 C59.1325893,96.2489583 59.1325893,96.2489583 59.1325893,96.2549479 C59.1446429,96.3268229 59.1566964,96.3986979 59.16875,96.4705729 C59.1747768,96.4945312 59.1747768,96.5125 59.1808036,96.5364583 C59.1928571,96.5903646 59.1988839,96.6442708 59.2109375,96.6921875 C59.2169643,96.7341146 59.2290179,96.7760417 59.2350446,96.8179688 C59.2410714,96.8479167 59.2470982,96.8778646 59.253125,96.9018229 C59.2651786,96.9677083 59.2832589,97.0335937 59.2953125,97.0934896 C59.2953125,97.0934896 59.2953125,97.0994792 59.2953125,97.0994792 C60.4825893,102.190625 65.0870536,105.988021 70.5714286,106 C73.1569196,105.99401 75.5796875,105.149479 77.6167411,103.56224 L78.06875,103.208854 L75.4651786,100.441667 L75.0915179,100.717188 C73.7595982,101.69349 72.2287946,102.166667 70.5714286,102.166667 C66.3165179,102.166667 62.8571429,98.7526042 62.8571429,94.5 C62.8571429,90.2473958 66.3165179,86.8333333 70.5714286,86.8333333 C74.5732143,86.8333333 77.9723214,89.6244792 78.3761161,93.5416667 L73.9464286,93.5416667 L80.2142857,100.25 Z" id="Shape" fill="#D6D6D6" fill-rule="nonzero" transform="translate(72.500000, 94.500000) rotate(90.000000) translate(-72.500000, -94.500000) "></path>
            <polygon id="polygon19" fill="#848484" fill-rule="nonzero" points="27.5753118 62.8316684 21.5269247 56.6579842 21.5269247 44.5790368 27.5753118 38.4053526 115.075312 38.4053526 121.123699 44.5790368 121.123699 56.6579842 115.075312 62.8316684"></polygon>
            <polygon id="Shape" fill="#54585E" fill-rule="nonzero" points="21.5269247 56.6579842 21.5269247 85.1106158 21.5269247 86.1843 21.5269247 117.589563 27.5753118 123.763247 27.5753118 87.6606158 27.5753118 85.1106158 27.5753118 62.8316684"></polygon>
            <polygon id="Shape" fill="#464646" fill-rule="nonzero" points="115.075312 62.8316684 115.075312 85.1106158 115.075312 86.5869316 115.075312 123.763247 121.123699 117.589563 121.123699 86.5869316 121.123699 85.1106158 121.123699 56.6579842"></polygon>
            <path d="M57.1452043,53.8395632 C50.0215484,57.7316684 42.0914409,55.4500895 39.1344516,53.7053526 C36.1774624,51.8264053 18.4355269,36.7948263 16.016172,35.3185105 C13.5968172,33.8421947 13.8656344,31.6948263 13.8656344,28.6079842 C13.8656344,24.7158789 15.7473548,31.5606158 19.9140215,33.3053526 C23.9462796,35.1843 60.9086452,39.7474579 60.9086452,46.4579842 C60.9086452,48.6053526 61.7150968,51.2895632 57.1452043,53.8395632 Z" id="path29" fill="#5B5B5B" fill-rule="nonzero"></path>
            <path d="M57.1452043,51.8264053 C50.2903656,56.2553526 42.0914409,53.4369316 39.1344516,51.6921947 C36.1774624,49.8132474 18.4355269,34.7816684 16.016172,33.3053526 C13.5968172,31.8290368 12.655957,27.4000895 15.8817634,25.2527211 C19.1075699,23.1053526 23.6774624,24.3132474 27.7097204,26.1921947 C31.7419785,28.0711421 48.811871,35.1843 54.5914409,38.6737737 C60.3710108,42.0290368 63.8656344,47.2632474 57.1452043,51.8264053 Z M21.3925161,31.2921947 C24.2150968,31.2921947 26.6344516,30.0843 26.6344516,28.7421947 C26.6344516,27.4000895 24.3495054,26.1921947 21.3925161,26.1921947 C18.4355269,26.1921947 16.1505806,27.4000895 16.1505806,28.7421947 C16.1505806,30.0843 18.5699355,31.2921947 21.3925161,31.2921947 Z" id="path31" fill="#353535" fill-rule="nonzero"></path>
            <path d="M26.500043,29.2790368 C25.9624086,28.0711421 23.9462796,27.2658789 21.3925161,27.2658789 C18.9731613,27.2658789 16.8226237,28.0711421 16.2849892,29.2790368 L16.2849892,29.2790368 C16.1505806,29.1448263 16.1505806,28.8764053 16.1505806,28.7421947 C16.1505806,27.2658789 18.4355269,26.1921947 21.3925161,26.1921947 C24.3495054,26.1921947 26.6344516,27.4000895 26.6344516,28.7421947 C26.500043,28.8764053 26.500043,29.1448263 26.500043,29.2790368 L26.500043,29.2790368 Z" id="path35" fill="#848484" fill-rule="nonzero"></path>
            <ellipse id="ellipse39" fill="#7F7F7F" fill-rule="nonzero" cx="48.0054194" cy="45.3843" rx="8.73655914" ry="4.83157895"></ellipse>
            <path d="M39.4032688,45.3843 C40.2097204,47.5316684 43.7043441,49.0079842 47.8710108,49.0079842 C52.0376774,49.0079842 55.6667097,47.3974579 56.4731613,45.3843 L56.4731613,45.3843 C56.6075699,45.6527211 56.7419785,46.0553526 56.7419785,46.3237737 C56.7419785,48.8737737 52.844129,51.0211421 48.0054194,51.0211421 C43.1667097,51.0211421 39.2688602,48.8737737 39.2688602,46.3237737 C39.2688602,46.0553526 39.2688602,45.6527211 39.4032688,45.3843 L39.4032688,45.3843 Z" id="path43" fill="#606060" fill-rule="nonzero"></path>
        </g>
    </g>
</svg>