<svg width="150" height="150" xmlns="http://www.w3.org/2000/svg"><g fill="none" fill-rule="evenodd"><path d="M119.108 103.363s7.795 2.819 11.828 9.395" stroke="#231919" stroke-width="4.02"/><path d="M119.242 100.276c4.435 0 8.199 2.685 15.054 10.2" stroke="#EF4545" stroke-width="4.02"/><path d="M119.108 97.324c6.317 0 9.946.402 18.01 11.273" stroke="#F7D441" stroke-width="4.02"/><path fill="#6D6D6D" fill-rule="nonzero" d="M115.075 85.11v38.653h-87.5V62.832h87.5v20.265"/><path d="M66.75 102.214L73.452 108v-3.9a11.336 11.336 0 0 0 4.63-1.416 11.588 11.588 0 0 0 5.726-8.015c.006-.042.018-.09.024-.133.006-.03.012-.054.012-.084a11.42 11.42 0 0 0 .156-1.88v-.025c-.012-5.478-3.81-10.064-8.9-11.252h-.007c-.065-.018-.131-.03-.197-.042l-.084-.018c-.042-.006-.084-.018-.126-.024-.054-.012-.102-.018-.156-.03-.023-.006-.041-.006-.065-.012l-.216-.036h-.012c-.377-.06-.76-.097-1.144-.115h-.048c-.084-.006-.162-.006-.246-.012-.095 0-.197-.006-.299-.006-.102 0-.198 0-.3.006-.083 0-.161.006-.245.012H71.9c-.39.018-.773.06-1.144.115h-.012l-.216.036c-.024.006-.041.006-.065.012-.054.012-.108.018-.156.03-.042.006-.084.018-.126.024l-.084.018c-.066.012-.132.03-.191.042H69.9c-5.092 1.188-8.889 5.792-8.901 11.276a11.38 11.38 0 0 0 2.438 7.046l.353.452 2.767-2.604-.275-.373c-.976-1.332-1.45-2.863-1.45-4.52 0-4.255 3.414-7.715 7.667-7.715s7.667 3.46 7.667 7.714c0 4.002-2.791 7.401-6.709 7.805v-4.43l-6.708 6.268z" fill="#D6D6D6" fill-rule="nonzero"/><path fill="#848484" fill-rule="nonzero" d="M27.575 62.832l-6.048-6.174V44.579l6.048-6.174h87.5l6.049 6.174v12.079l-6.049 6.174z"/><path fill="#54585E" fill-rule="nonzero" d="M21.527 56.658v60.932l6.048 6.173V62.831z"/><path fill="#464646" fill-rule="nonzero" d="M115.075 62.832v60.931l6.049-6.173V56.658z"/><path d="M57.145 53.84c-7.123 3.892-15.054 1.61-18.01-.135-2.958-1.879-20.7-16.91-23.119-18.386-2.42-1.477-2.15-3.624-2.15-6.711 0-3.892 1.881 2.953 6.048 4.697 4.032 1.88 40.995 6.442 40.995 13.153 0 2.147.806 4.832-3.764 7.382z" fill="#5B5B5B" fill-rule="nonzero"/><path d="M57.145 51.826c-6.855 4.43-15.054 1.61-18.01-.134-2.958-1.879-20.7-16.91-23.119-18.387-2.42-1.476-3.36-5.905-.134-8.052 3.226-2.148 7.795-.94 11.828.94 4.032 1.878 21.102 8.991 26.881 12.48 5.78 3.356 9.275 8.59 2.554 13.153zM21.393 31.292c2.822 0 5.241-1.208 5.241-2.55 0-1.342-2.284-2.55-5.241-2.55s-5.242 1.208-5.242 2.55c0 1.342 2.419 2.55 5.242 2.55z" fill="#353535" fill-rule="nonzero"/><path d="M26.5 29.279c-.538-1.208-2.554-2.013-5.107-2.013-2.42 0-4.57.805-5.108 2.013-.134-.134-.134-.403-.134-.537 0-1.476 2.285-2.55 5.242-2.55s5.241 1.208 5.241 2.55c-.134.134-.134.403-.134.537z" fill="#848484" fill-rule="nonzero"/><ellipse fill="#7F7F7F" fill-rule="nonzero" cx="48.005" cy="45.384" rx="8.737" ry="4.832"/><path d="M39.403 45.384c.807 2.148 4.301 3.624 8.468 3.624s7.796-1.61 8.602-3.624c.135.269.269.671.269.94 0 2.55-3.898 4.697-8.737 4.697-4.838 0-8.736-2.147-8.736-4.697 0-.269 0-.671.134-.94z" fill="#606060" fill-rule="nonzero"/></g></svg>