<svg width="150" height="150" xmlns="http://www.w3.org/2000/svg"><g fill="none" fill-rule="evenodd"><path fill="#8C8C8C" fill-rule="nonzero" d="M59.999 119.881v-1.041h1.036v1.041zm31.803.104v-1.041h1.036v1.041z"/><g fill-rule="nonzero"><path fill="#878787" d="M73.122 28.415V14.904h4.725v13.51z"/><path fill="#2D2D2D" d="M73.122 28.415v-1h4.725v1z"/><path fill="#000" opacity=".35" d="M77.303 28.415V14.904h1v13.51z"/><path d="M74.424 15.213c.264 0 .477.287.477.643v12.952c0 .354-.195.642-.459.642h-.382c-.265 0-.496-.288-.496-.642V15.856c0-.356.214-.643.477-.643h.383z" fill="#FFF" opacity=".35"/></g><path d="M54.732 28.904c-1.617 0-2.936 1.328-2.936 2.952v.032c0 1.625-.963 2.953-2.135 2.953-1.173 0-2.135 1.326-2.135 2.951v72.523h56.655V37.792c0-1.625-.963-2.951-2.136-2.951-1.172 0-2.134-1.328-2.134-2.953v-.032c0-1.624-1.321-2.952-2.938-2.952H54.732z" stroke="#6D6D6D" stroke-width="1.04" fill="#6D6D6D" fill-rule="nonzero"/><path d="M96.523 31.41v.031c0 1.615.627 3.23 1.394 3.23.764 0 1.394 1.023 1.394 2.636v67.059h4.612v-66.47c0-1.612-.96-2.929-2.129-2.929s-2.128-1.322-2.128-2.932v-.033a2.935 2.935 0 0 0-2.925-2.93h-2.134c1.054-.004 1.916.726 1.916 2.339z" fill="#000" fill-rule="nonzero" opacity=".35"/><path fill="#878787" fill-rule="nonzero" d="M74.281 115.107v-1h3.15v1z"/><path fill="#E5E500" fill-rule="nonzero" d="M72.964 111.216v-10.665h5.783v10.665z"/><g fill-rule="nonzero"><path fill="#E5E500" d="M66.54 114.126v-2.91h18.63v2.91z"/><path fill="#F3FF00" d="M72.964 103.39H47v7.826h26.929V100.55h3.851v10.665h26.931v-7.827H78.748v-2.838h-5.784z"/></g><path d="M76.067 34.073c13.744 0 24.88.789 24.88.789H51.191s11.14-.79 24.875-.79z" fill="#686868" fill-rule="nonzero" opacity=".5"/><path d="M65.476 36.056c1.468 0 2.656 1.484 2.656 3.313v57.813c0 1.83-1.087 3.312-2.555 3.312h-13.25c-1.468 0-2.763-1.483-2.763-3.312V39.369c0-1.829 1.192-3.313 2.66-3.313h13.252zm.351-6.014c.808 0 1.468.665 1.468 1.475v.367c0 .809-.661 1.475-1.468 1.475H54.96a1.477 1.477 0 0 1-1.467-1.475v-.367c0-.81.66-1.475 1.467-1.475h10.868z" fill="#FFF" fill-rule="nonzero" opacity=".16"/><g fill-rule="nonzero"><path d="M72.54 44.147a1.95 1.95 0 0 1-1.941 1.954h-8.723a1.951 1.951 0 0 1-1.944-1.954c0-1.076.872-1.953 1.944-1.953h8.723a1.95 1.95 0 0 1 1.942 1.953z" fill="#000"/><path d="M60.45 44.147c0-.79.64-1.433 1.426-1.433h8.723c.787 0 1.424.643 1.424 1.433s-.637 1.433-1.424 1.433h-8.723a1.43 1.43 0 0 1-1.426-1.433zm-1.036 0a2.468 2.468 0 0 0 2.462 2.475h8.723a2.466 2.466 0 0 0 2.46-2.475c0-1.366-1.1-2.474-2.46-2.474h-8.723a2.468 2.468 0 0 0-2.462 2.474z" fill="#6B6B6B"/></g><g fill-rule="nonzero"><path d="M91.778 44.147a1.951 1.951 0 0 1-1.943 1.954h-8.722a1.951 1.951 0 0 1-1.944-1.954c0-1.076.872-1.953 1.944-1.953h8.722c1.071 0 1.943.877 1.943 1.953z" fill="#000"/><path d="M79.687 44.147c0-.79.64-1.433 1.426-1.433h8.722a1.43 1.43 0 0 1 1.425 1.433 1.43 1.43 0 0 1-1.425 1.433h-8.722a1.431 1.431 0 0 1-1.426-1.433zm-1.036 0a2.468 2.468 0 0 0 2.462 2.475h8.722a2.467 2.467 0 0 0 2.46-2.475 2.466 2.466 0 0 0-2.46-2.474h-8.722a2.469 2.469 0 0 0-2.462 2.474z" fill="#6B6B6B"/></g><g fill-rule="nonzero"><path d="M53.303 44.147a1.952 1.952 0 0 1-1.942 1.954h-3.843v-3.907h3.843a1.95 1.95 0 0 1 1.942 1.953z" fill="#000"/><path d="M48.036 42.714h3.325a1.43 1.43 0 0 1 1.425 1.433 1.43 1.43 0 0 1-1.425 1.433h-3.325v-2.866zM47 41.674v4.948h4.361a2.466 2.466 0 0 0 2.46-2.475 2.467 2.467 0 0 0-2.46-2.474H47z" fill="#6B6B6B"/></g><g fill-rule="nonzero"><path d="M104.193 46.1h-3.843a1.951 1.951 0 0 1-1.944-1.953c0-1.076.872-1.953 1.944-1.953h3.843V46.1z" fill="#000"/><path d="M98.923 44.147c0-.79.64-1.433 1.427-1.433h3.325v2.866h-3.325a1.431 1.431 0 0 1-1.427-1.433zm-1.035 0c0 1.367 1.1 2.475 2.462 2.475h4.361v-4.949h-4.361a2.469 2.469 0 0 0-2.462 2.474z" fill="#6B6B6B"/></g><path d="M57.81 119.294l.568.521h3.108l.567-.582v-8.017H57.81v8.078zm3.52-1.623c0 .777-.625 1.406-1.398 1.406a1.401 1.401 0 0 1-1.398-1.406c0-.777.625-1.406 1.398-1.406.773 0 1.398.63 1.398 1.406zm28.35 1.623l.568.521h3.107l.568-.582v-8.017H89.68v8.078zm3.52-1.623c0 .777-.625 1.406-1.398 1.406a1.401 1.401 0 0 1-1.398-1.406c0-.777.625-1.406 1.398-1.406.773 0 1.398.63 1.398 1.406z" fill="#ED8F66" fill-rule="nonzero"/><path d="M73.486 140l-1.035-2.083" stroke="#32BF4F" stroke-width="3.12" stroke-linecap="round"/><path d="M81.238 140v-2.083" stroke="#FFD500" stroke-width="3.12" stroke-linecap="round"/><path d="M72.45 137.917C68.986 132.19 60 130.53 60 119.881" stroke="#32BF4F" stroke-width="3.12"/><path d="M81.238 137.917c.352-7.822 10.564-12.034 10.564-17.932" stroke="#FFD500" stroke-width="3.12"/></g></svg>