<svg width="150" height="150" xmlns="http://www.w3.org/2000/svg" xmlns:xlink="http://www.w3.org/1999/xlink"><defs><path d="M.89 4.446A3.5 3.5 0 0 1 4.39.938h57.454c1.933 0 3.5 1.568 3.5 3.508V81.57a3.5 3.5 0 0 1-3.5 3.508H4.39a3.503 3.503 0 0 1-3.5-3.508V4.446zM43.627.938v5.609h7.006V.937h-7.006zm-14.012 0v5.609h7.006V.937h-7.006zm28.023 27.345v7.012h7.707v-7.012h-7.707zm0 14.024v7.011h7.707v-7.011h-7.707zm0 28.047v7.011h7.707v-7.011h-7.707zM15.603.938v5.609h7.006V.937h-7.006zm0 13.322v7.011h7.006V14.26h-7.006zm14.011 0v7.011h7.006V14.26h-7.006zm14.012 0v7.011h7.006V14.26h-7.006zM15.603 28.283v7.012h7.006v-7.012h-7.006zm14.011 0v7.012h7.006v-7.012h-7.006zm14.012 0v7.012h7.006v-7.012h-7.006zM15.603 42.307v7.011h7.006v-7.011h-7.006zm14.011 0v7.011h7.006v-7.011h-7.006zm14.012 0v7.011h7.006v-7.011h-7.006zM15.603 56.33v7.012h7.006V56.33h-7.006zm14.011 0v7.012h7.006V56.33h-7.006zm14.012 0v7.012h7.006V56.33h-7.006zM15.603 70.354v7.011h7.006v-7.011h-7.006zM.89 28.284v7.01h7.706v-7.01H.891zm0 14.023v7.011h7.706v-7.011H.891zm0 28.047v7.011h7.706v-7.011H.891zm28.723 0v7.011h7.006v-7.011h-7.006zm14.012 0v7.011h7.006v-7.011h-7.006z" id="a"/></defs><g transform="translate(42 26)" fill="none" fill-rule="evenodd"><path fill="#1F73C9" opacity=".52" d="M5.813 8.203h54.375V78.75H5.813z"/><path fill="#FFF" opacity=".52" d="M18.703 31.641h29.063v14.766H18.703z"/><use fill="#1891EC" xlink:href="#a"/><path stroke="#1891EC" stroke-width=".7" d="M1.24 4.446V81.57a3.153 3.153 0 0 0 3.15 3.158h57.454a3.15 3.15 0 0 0 3.15-3.158V4.446a3.153 3.153 0 0 0-3.15-3.159H4.39a3.15 3.15 0 0 0-3.15 3.159zm42.036 2.45V.589h7.705v6.309h-7.705zm-14.012 0V.589h7.706v6.309h-7.706zm28.024 28.749v-7.712h8.406v7.712h-8.406zm0 14.023v-7.711h8.406v7.711h-8.406zm0 28.047v-7.711h8.406v7.711h-8.406zM15.253 6.897V.587h7.705v6.31h-7.705zm0 14.724V13.91h7.705v7.711h-7.705zm14.011 0V13.91h7.706v7.711h-7.706zm14.012 0V13.91h7.705v7.711h-7.705zM15.253 35.645v-7.712h7.705v7.712h-7.705zm14.011 0v-7.712h7.706v7.712h-7.706zm14.012 0v-7.712h7.705v7.712h-7.705zM15.253 49.668v-7.711h7.705v7.711h-7.705zm14.011 0v-7.711h7.706v7.711h-7.706zm14.012 0v-7.711h7.705v7.711h-7.705zM15.253 63.692V55.98h7.705v7.712h-7.705zm14.011 0V55.98h7.706v7.712h-7.706zm14.012 0V55.98h7.705v7.712h-7.705zM15.253 77.715v-7.711h7.705v7.711h-7.705zM.54 35.645v-7.712h8.406v7.712H.54zm0 14.023v-7.711h8.406v7.711H.54zm0 28.047v-7.711h8.406v7.711H.54zm28.723 0v-7.711h7.706v7.711h-7.706zm14.012-7.711h7.705v7.711h-7.705v-7.711z"/><path fill="#C3C3C8" d="M10.031 91.875h7.031v7.031h-7.031z"/><circle fill="#C3C3C8" cx="26.906" cy="95.391" r="3.516"/><circle fill="#C3C3C8" cx="39.563" cy="95.391" r="3.516"/><circle fill="#C3C3C8" cx="52.922" cy="95.391" r="3.516"/><path fill="#C3C3C8" d="M11.672 85.313h4.219v10.313h-4.219zm13.125 0h4.219v10.313h-4.219zm13.125 0h4.219v10.313h-4.219zm12.656 0h4.219v10.313h-4.219z"/></g></svg>