<svg width="150" height="150" xmlns="http://www.w3.org/2000/svg"><g fill="none"><path fill="#383A40" d="M19.708 80.82h110.924v37.44H19.708z"/><path fill="#54555E" d="M130.632 80.82H19.708l8.324-9.9h94.82z"/><path fill="#383A40" d="M71.642 40.14h7.6v46.44h-7.6z"/><path fill="#565656" d="M77.975 30.42h-5.429l-.904 9.72h7.6z"/><path d="M68.927 74.52s-6.152 3.42-18.276 3.42c-12.124 0-18.276-3.42-18.276-3.42V51.84s.724-16.56 18.276-16.56 18.276 16.56 18.276 16.56v22.68z" fill="#3260C6"/><ellipse fill="#6B7FF2" cx="50.289" cy="41.04" rx="7.962" ry="3.24"/><path d="M119.594 74.52s-6.152 3.42-18.276 3.42c-12.124 0-18.276-3.42-18.276-3.42V51.84s.723-16.56 18.276-16.56c17.552 0 18.276 16.56 18.276 16.56v22.68z" fill="#3D3442"/><ellipse fill="#6F6277" cx="101.137" cy="41.04" rx="7.962" ry="3.24"/></g></svg>