<svg xmlns="http://www.w3.org/2000/svg" width="175" height="330"><path fill="#383A40" d="M175 234.111c0 6.013-5.373 10.889-12 10.889H12c-6.627 0-12-4.876-12-10.889V10.889C0 4.875 5.373 0 12 0h151c6.627 0 12 4.875 12 10.889v223.222z"/><ellipse fill="#3D3042" cx="88.316" cy="78.595" rx="55.38" ry="52.215"/><path fill="#3D3042" d="M32 79h111v166H32z"/><ellipse transform="rotate(-127.594 58.926 43.784)" fill="#6F6277" cx="58.93" cy="43.786" rx="5.558" ry="18.152"/><path fill="#8C8F94" d="M80 245h15v85H80zm-31 0h15v30H49zm60 0h15v30h-15zm-84 43h15v42H25zm110-2h15v44h-15z"/><path fill="none" d="M87 260h30m-30 0H57m30 3h30"/><path fill="#8C8F94" d="M53.522 263.027l10.49 11.976-28.51 24.973-10.49-11.975zm96.469 22.987l-10.565 13.255-30.433-24.257 10.565-13.255z"/></svg>