<svg width="150" height="150" xmlns="http://www.w3.org/2000/svg"><g fill="none"><path fill="#7A7E84" d="M62.444 83.109h6.732v45.04h-6.732zm28.968 30.644c0-3.702-3.264-6.581-6.528-9.255-1.224-1.234-3.672-3.085-3.672-4.524v-17.07H74.48v18.098c0 3.29 2.856 5.758 6.12 8.638 1.428 1.234 4.08 3.907 4.08 5.552v13.163h6.732v-14.602z"/><path d="M95.696 63.16V44.65c0-12.133-9.792-22.005-21.828-22.005S52.04 32.517 52.04 44.651v42.572c4.488 5.141 12.648 8.637 21.828 8.637 14.28 0 25.908-8.226 25.908-18.303v-4.73c-.204-3.497-1.632-6.787-4.08-9.667z" fill="#CCDBE2"/><ellipse fill="#E9EDF4" opacity=".25" cx="73.664" cy="72.826" rx="21.828" ry="15.425"/><path fill="#96A3B2" d="M58.568 52.877v19.95h3.06v-9.255H70.4l12.444-13.368h-20.4zm26.52-3.496l1.428 1.44-11.832 12.75h11.424v9.255h2.652V49.381z"/><path d="M83.864 34.368l4.488-.823c-2.652-3.496-6.528-6.17-11.016-6.992l.816 3.29c2.448 1.029 4.488 2.468 5.712 4.525z" fill="#FFF" opacity=".76"/><path d="M54.284 84.755v4.73a27.087 27.087 0 0 0 7.14 4.113v-4.73c-2.856-1.028-5.304-2.468-7.14-4.113z" fill="#FFF" opacity=".8"/><path d="M86.108 85.783c-.816.411-1.632.617-2.448 1.028-.204 0-.408.206-.612.206a26.531 26.531 0 0 1-5.508 1.234h-.612c-1.02 0-2.04.206-3.06.206H72.44a32.208 32.208 0 0 1-10.2-2.263V45.062c0-4.524 2.652-8.432 6.324-10.488v-.206l-3.876-4.73c-5.1 3.085-8.568 8.843-8.568 15.219v37.018c-.204-.205-1.02-1.028-1.428-1.645l-1.02 2.057c4.284 4.524 11.832 7.61 20.196 7.61 5.1 0 9.996-1.235 13.872-3.086l-1.632-1.028z" fill="#FFF"/></g></svg>