<svg width="150" height="150" xmlns="http://www.w3.org/2000/svg"><defs><radialGradient cx="50.237%" cy="13.63%" fx="50.237%" fy="13.63%" r="38.88%" gradientTransform="matrix(.45438 0 0 1 .274 0)" id="a"><stop stop-color="#4F5758" offset="0%"/><stop stop-color="#393F3E" offset="100%"/></radialGradient><radialGradient cx="50.232%" cy="13.635%" fx="50.232%" fy="13.635%" r="36.726%" gradientTransform="matrix(.38767 0 0 1 .308 0)" id="b"><stop offset="0%"/><stop stop-color="#020202" stop-opacity=".506" offset="49.35%"/><stop stop-color="#080909" stop-opacity=".329" offset="67.12%"/><stop stop-color="#131414" stop-opacity=".202" offset="79.79%"/><stop stop-color="#222525" stop-opacity=".1" offset="89.97%"/><stop stop-color="#353B3A" stop-opacity=".013" offset="98.65%"/><stop stop-color="#393F3E" stop-opacity="0" offset="100%"/></radialGradient><linearGradient x1="50.014%" y1="99.757%" x2="50.014%" y2="-.026%" id="c"><stop stop-color="#171717" offset="0%"/><stop offset="66.64%"/></linearGradient><radialGradient cx="49.64%" cy="20.383%" fx="49.64%" fy="20.383%" r="50.069%" gradientTransform="matrix(.26551 0 0 1 .365 0)" id="d"><stop stop-color="#4F5758" offset="0%"/><stop stop-color="#393F3E" offset="100%"/></radialGradient></defs><g fill="none"><path fill="#838698" d="M34.673 131.5l1.904-3.5H39l-3.115 5L39 138h-2.423l-2.077-3.5-2.077 3.5H30l3.115-5L30 128h2.423zm9.745 4l2.291-7.5H49l-3.436 10h-2.128L40 128h2.29zM59 136.58c-.36.533-.9.888-1.8 1.065-.72.178-1.62.355-2.52.355-.9 0-1.8-.177-2.52-.532-.72-.355-1.26-1.065-1.62-1.774-.36-.71-.54-1.597-.54-2.662v-.71c0-1.064.18-1.951.54-2.838.36-.887.9-1.42 1.62-1.774.72-.355 1.44-.71 2.34-.71 1.26 0 2.34.355 3.06.887.72.532 1.08 1.42 1.26 2.661h-2.16c-.18-.532-.36-1.064-.72-1.419s-.9-.355-1.44-.355c-.72 0-1.26.355-1.8.887-.54.533-.54 1.42-.54 2.484v.71c0 1.064.18 1.951.72 2.484.36.532 1.08.887 1.98.887.9 0 1.44-.178 1.8-.532v-1.775h-1.98v-1.596H59v4.258zm35.415-4.154L96.623 128H99l-3.396 6.393V138h-2.208v-3.607L90 128h2.377zm9.003 3.074l2.291-7.5H108l-3.436 10h-2.128L99 128h2.29zM118 136.58c-.36.533-.9.888-1.8 1.065-.72.178-1.62.355-2.52.355-.9 0-1.8-.177-2.52-.532-.72-.355-1.26-1.065-1.62-1.774-.36-.71-.54-1.597-.54-2.662v-.71c0-1.064.18-1.951.54-2.838.36-.887.9-1.42 1.62-1.774.72-.355 1.44-.71 2.34-.71 1.26 0 2.34.355 3.06.887.72.532 1.08 1.42 1.26 2.661h-2.16c-.18-.532-.36-1.064-.72-1.419s-.9-.355-1.44-.355c-.72 0-1.26.355-1.8.887-.54.533-.54 1.42-.54 2.484v.71c0 1.064.18 1.951.72 2.484.36.532 1.08.887 1.98.887.9 0 1.44-.178 1.8-.532v-1.775h-1.98v-1.596H118v4.258zM65 18.066l-1 1.147V22h-2v-9.836h2v4.426l.833-1.311 2.5-3.279h2.5l-3.5 4.426L70 22h-2.5zm9.418 1.434L76.71 12H79l-3.436 10h-2.128L70 12h2.29zM89 21.58c-.36.533-.9.888-1.8 1.065-.72.178-1.62.355-2.52.355-.9 0-1.8-.177-2.52-.532-.72-.355-1.26-1.065-1.62-1.774-.36-.71-.54-1.597-.54-2.662v-.71c0-1.064.18-1.951.54-2.838.36-.887.9-1.42 1.62-1.774.72-.355 1.44-.71 2.34-.71 1.26 0 2.34.355 3.06.887.72.532 1.08 1.42 1.26 2.661h-2.16c-.18-.532-.36-1.064-.72-1.419s-.9-.355-1.44-.355c-.72 0-1.26.355-1.8.887-.54.533-.54 1.42-.54 2.484v.71c0 1.064.18 1.951.72 2.484.36.532 1.08.887 1.98.887.9 0 1.44-.178 1.8-.532v-1.775h-1.98v-1.596H89v4.258z"/><path d="M124 94.043c0-4.295-16.429-26.202-49-26.202S26 89.748 26 94.043v-.286 2.29c0 9.164 22 16.323 49 16.323 27.143 0 49-7.015 49-16.322v-2.291.286z" fill="url(#a)"/><path d="M105.286 77.577c0-.859-.143-1.718-.572-2.577C97 70.99 87.143 67.84 75 67.84c-12.143 0-22.143 3.008-29.714 7.16-.286.86-.572 1.718-.572 2.577 0 7.589 13.572 13.746 30.286 13.746 16.714 0 30.286-6.3 30.286-13.746z" fill="url(#b)" opacity=".25"/><path d="M80.143 40.636H69.714c-3.428 2.148-6.428 6.014-8.857 10.31v22.193c0 .286.572 3.58 2.286 4.152 3.714 1.718 6.714 2.004 12.286 2.004 5.142 0 7.714-.143 11.285-1.718C89.43 76.861 89 72.28 89 71.85V50.23c-2.429-4.153-5.571-7.59-8.857-9.594z" fill="url(#c)"/><path d="M115.714 48.655c0-2.72-13.571-12.744-40.714-12.744S34.286 45.934 34.286 48.655v-.144 1.432c0 5.87 18.285 7.589 40.714 7.589s40.714-1.718 40.714-7.589v-1.432.144z" fill="url(#d)"/></g></svg>