<svg width="150" height="150" xmlns="http://www.w3.org/2000/svg" xmlns:xlink="http://www.w3.org/1999/xlink"><defs><path id="a" d="M0 0h126v48H0z"/></defs><g fill="none" fill-rule="evenodd"><path fill="#797979" d="M20 49h6v52h-6zm14.857 0h6v52h-6zm14.857 0h6v52h-6zm14.857 0h6v52h-6zm14.858 0h6v52h-6zm14.857 0h6v52h-6zm14.857 0h6v52h-6zM124 49h6v52h-6z"/><g transform="translate(12 51)"><mask id="b" fill="#fff"><use xlink:href="#a"/></mask><use fill="#464646" xlink:href="#a"/><circle fill="#383838" mask="url(#b)" cy="24" r="5"/></g><text font-family="MicrosoftYaHeiUI-Bold, Microsoft YaHei UI" font-size="13" font-weight="bold" letter-spacing="3" fill="#FFF"><tspan x="48" y="80">L298N</tspan></text><path fill="#A9A9A9" d="M21 101h4v1h-4zm15 0h4v1h-4zm15 0h4v1h-4zm15 0h4v1h-4zm14 0h4v1h-4zm15 0h4v1h-4zm15 0h4v1h-4zm15 0h4v1h-4zM21 48h4v1h-4zm15 0h4v1h-4zm15 0h4v1h-4zm15 0h4v1h-4zm14 0h4v1h-4zm15 0h4v1h-4zm15 0h4v1h-4zm15 0h4v1h-4z"/><circle fill="#FFF" cx="24.5" cy="91.5" r="1.5"/><text font-family="MicrosoftYaHeiUI, Microsoft YaHei UI" font-size="11" fill="#464646"><tspan x="9" y="29">PWM1</tspan></text><text font-family="MicrosoftYaHeiUI, Microsoft YaHei UI" font-size="11" fill="#464646"><tspan x="69" y="29">IN1</tspan></text><text font-family="MicrosoftYaHeiUI, Microsoft YaHei UI" font-size="11" fill="#464646"><tspan x="119" y="29">IN2</tspan></text><text font-family="MicrosoftYaHeiUI, Microsoft YaHei UI" font-size="11" fill="#464646"><tspan x="9" y="129">PWM2</tspan></text><text font-family="MicrosoftYaHeiUI, Microsoft YaHei UI" font-size="11" fill="#464646"><tspan x="69" y="129">IN3</tspan></text><text font-family="MicrosoftYaHeiUI, Microsoft YaHei UI" font-size="11" fill="#464646"><tspan x="119" y="129">IN4</tspan></text></g></svg>