<svg width="150" height="150" xmlns="http://www.w3.org/2000/svg"><g fill="none" fill-rule="evenodd"><path d="M100.447 39.857c0-.35-.17-.698-.34-.873-.17-.174-.852-.524-1.533-.698-.68-.175-1.361-.524-1.702-.699-1.191-.698-1.702-1.571-1.702-2.619 0-.524.17-1.047.51-1.571.341-.524.682-.873 1.363-1.048.68-.174 1.191-.349 2.042-.349.681 0 1.362.175 2.043.35.51.348 1.02.698 1.361 1.221.34.524.511 1.048.511 1.746h-2.043c0-.523-.17-.873-.51-1.047-.34-.35-.681-.35-1.192-.35-.51 0-.85.175-1.191.35a.964.964 0 0 0-.51.873c0 .35.17.698.51.873.34.174.85.524 1.532.698 1.191.35 2.042.873 2.553 1.397a2.93 2.93 0 0 1 .851 2.095c0 .873-.34 1.572-1.021 2.096-.681.523-1.532.698-2.724.698a4.615 4.615 0 0 1-2.212-.524c-.681-.349-1.192-.698-1.532-1.222A3.008 3.008 0 0 1 95 39.508h2.043c0 1.222.68 1.746 2.042 1.746.51 0 .851-.175 1.192-.35.34-.174.17-.698.17-1.047zm17.886 1.31H123V43h-7V32h2.154v9.167zM113 39.274c0 1.242-.49 2.13-1.143 2.661-.653.71-1.633 1.065-2.775 1.065-1.306 0-2.286-.532-2.94-1.42-.652-.886-1.142-2.128-1.142-3.725v-.71c0-1.064.163-1.951.49-2.661.326-.71.816-1.42 1.47-1.774.652-.355 1.305-.71 2.122-.71 1.142 0 2.122.355 2.775 1.065S113 34.66 113 35.903h-1.96c0-.71-.162-1.242-.489-1.42-.327-.177-.816-.531-1.47-.531-.652 0-1.142.177-1.469.71-.326.532-.49 1.419-.49 2.483v.887c0 1.242.164 1.952.49 2.484.327.532.817.887 1.47.887s1.142-.177 1.469-.532c.327-.355.49-.71.49-1.42H113v-.177zm-80.553.583c0-.35-.17-.698-.34-.873-.17-.174-.852-.524-1.533-.698-.68-.175-1.361-.524-1.702-.699-1.191-.698-1.702-1.571-1.702-2.619 0-.524.17-1.047.51-1.571.341-.524.682-.873 1.363-1.048.68-.174 1.191-.349 2.042-.349.681 0 1.362.175 2.043.35.51.348 1.02.698 1.361 1.221.34.524.511 1.048.511 1.746h-2.043c0-.523-.17-.873-.51-1.047-.34-.35-.681-.35-1.192-.35-.51 0-.85.175-1.191.35a.964.964 0 0 0-.51.873c0 .35.17.698.51.873.34.174.85.524 1.532.698 1.191.35 2.042.873 2.553 1.397A2.93 2.93 0 0 1 35 40.206c0 .873-.34 1.572-1.021 2.096-.681.523-1.532.698-2.724.698a4.615 4.615 0 0 1-2.212-.524c-.681-.349-1.192-.698-1.532-1.222A3.008 3.008 0 0 1 27 39.508h2.043c0 1.222.68 1.746 2.042 1.746.51 0 .851-.175 1.192-.35.34-.174.17-.698.17-1.047zM37 42.82V32h3.234c.851 0 1.702.18 2.383.721.68.361 1.192 1.082 1.702 1.804.34.72.681 1.623.681 2.705v.54c0 1.082-.17 1.984-.51 2.705-.341.722-1.022 1.443-1.703 1.804-.68.36-1.532.721-2.383.721H37v-.18zm2.043-9.197v7.213h1.02c.852 0 1.533-.36 1.873-.902.34-.54.681-1.442.681-2.524v-.541c0-1.082-.17-1.984-.68-2.525-.511-.54-1.022-.901-1.873-.901h-1.021v.18zM53.526 40.8h-4.245l-.772 2.2H46l4.246-11h2.315L57 43h-2.509l-.965-2.2zm-3.473-1.833h2.894l-1.543-4.217-1.351 4.217z" fill="#838698" fill-rule="nonzero"/><path fill="#00979D" fill-rule="nonzero" d="M145.2 112.8V58.9H5v53.9z"/><path d="M116.2 68.7c0-.4-.3-.7-.7-.7h-101c-.4 0-.7.3-.7.7v.4c0 .4.3.7.7.7h101c.4 0 .7-.3.7-.7v-.4z" fill="#1A1A1A" fill-rule="nonzero"/><path d="M115.8 69.3c0-.3-.2-.5-.5-.5H14.6c-.3 0-.5.2-.5.5s.2.5.5.5h100.7c.3 0 .5-.2.5-.5z" fill="#424242" fill-rule="nonzero"/><path d="M142 95.2V76.6h.5V63.1h-.1l-1.3-1.3v-.5H8.9v.5l-1.3 1.3h-.1v13.5H8v18.6h-.5v13.5h.1l1.3 1.3v.5-.4h132.2v.4-.5l1.3-1.3h.1V95.2h-.5zm-.9-33.7v.2H9v-.4h132.2l-.1.2z" fill="#3A3A3A" fill-rule="nonzero"/><path fill="#303030" fill-rule="nonzero" d="M7.2 63.1v13.5zm135.7 13.5V63.1zM7.2 95.2v13.5zm135.7 13.5V95.2z"/><path fill="#212121" fill-rule="nonzero" d="M9 61.3h132.2v1H9z"/><path fill="#606060" fill-rule="nonzero" d="M9 61.5h132.2v1H9z"/><path fill="#606060" fill-rule="nonzero" d="M9 61.5h132.2v1H9z"/><path fill="#212121" fill-rule="nonzero" d="M7.2 63.1h.2zm0 32.1h1v13.5h-1zm0-32.1h1v13.5h-1z"/><path fill="#606060" fill-rule="nonzero" d="M7.5 63h1v1h-1zm-.1 32.2h1v13.5h-1z"/><path fill="#606060" fill-rule="nonzero" d="M7.4 63.1h1v13.5h-1z"/><path fill="#606060" fill-rule="nonzero" d="M7.4 63.1h1v1h-1z"/><path fill="#606060" fill-rule="nonzero" d="M7.4 63.1h1v13.5h-1zm0 32.1h1v13.5h-1z"/><path fill="#212121" fill-rule="nonzero" d="M142.8 63h1v1h-1z"/><path fill="#212121" fill-rule="nonzero" d="M142.7 63.1h1v13.5h-1zm0 32.1h1v13.5h-1z"/><path fill="#606060" fill-rule="nonzero" d="M142.6 63.1h.1zm0 32.1h1v13.5h-1zm0-32.1h1v13.5h-1z"/><path fill="#2B2B2B" fill-rule="nonzero" d="M9.4 110.5H9h132.1-.4zm-.4-.2v.2h132.1v-.2z"/><path fill="#606060" fill-rule="nonzero" d="M9 110.1h132.2v1H9zm0 .2h132.1z"/><path d="M137.1 99.2c0 1.4-1.2 2.6-2.6 2.6H15.6c-1.4 0-2.6-1.2-2.6-2.6V72.7c0-1.4 1.2-2.6 2.6-2.6h118.9c1.4 0 2.6 1.2 2.6 2.6v26.5z" fill="#68C17B" fill-rule="nonzero"/><path d="M15.6 70c-1.4 0-2.6 1.2-2.6 2.6v26.5c0 1.4 1.2 2.6 2.6 2.6h1.5c-1.4 0-2.6-1.2-2.6-2.6V73.5c0-1.4 1.2-2.6 2.6-2.6h119.3c-.5-.5-1.2-.9-1.9-.9H15.6zm121.5 2.6v26.5-26.5z" fill="#487B50" fill-rule="nonzero"/><path d="M7.7 63.2l1.4-1.4m0 48.2l-1.4-1.4" stroke-opacity=".2" stroke="#F2F2F2" stroke-width=".091" stroke-linecap="round"/><path d="M137.1 99.2c0 1.4-1.2 2.6-2.6 2.6H15.6c-1.4 0-2.6-1.2-2.6-2.6V72.7c0-1.4 1.2-2.6 2.6-2.6h118.9c1.4 0 2.6 1.2 2.6 2.6v26.5z" stroke="#65BB78" stroke-width=".548"/><path fill-opacity=".15" fill="#1A1A1A" fill-rule="nonzero" d="M19.3 87h6.5v10.8h-6.5zm8.7 0h6.5v10.8H28zm8.7 0h6.5v10.8h-6.5zm8.6 0h6.5v10.8h-6.5zm8.7 0h6.5v10.8H54zM19.3 74.1h6.5v10.8h-6.5zm8.7 0h6.5v10.8H28zm8.7 0h6.5v10.8h-6.5zm8.6 0h6.5v10.8h-6.5zm8.7 0h6.5v10.8H54zM63 87h6.5v10.8H63zm8.7 0h6.5v10.8h-6.5zm8.6 0h6.5v10.8h-6.5zm8.7 0h6.5v10.8H89zm8.7 0h6.5v10.8h-6.5zM63 74.1h6.5v10.8H63zm8.7 0h6.5v10.8h-6.5zm8.6 0h6.5v10.8h-6.5zm8.7 0h6.5v10.8H89zm8.7 0h6.5v10.8h-6.5zm9.1 12.9h6.5v10.8h-6.5zm8.7 0h6.5v10.8h-6.5zm8.7 0h6.5v10.8h-6.5zm-17.4-12.9h6.5v10.8h-6.5zm8.7 0h6.5v10.8h-6.5zm8.7 0h6.5v10.8h-6.5z"/></g></svg>