<svg width="150" height="150" xmlns="http://www.w3.org/2000/svg"><g fill="none"><path d="M121.783 107V78.198c0-1.825-.407-2.434-.815-2.84-.408-.405-1.02-.81-3.059-.81H31.253c-1.223 0-1.835.202-2.243.202-.203 0-.203.203-.203 0l-.204.203c0 .405-.204 1.014-.204 1.825v29.816H18V76.778c0-3.448.816-6.896 3.466-9.533C24.116 64.608 27.787 64 31.253 64h86.656c3.874 0 7.748 1.217 10.399 3.854 2.65 2.637 3.874 6.49 3.67 9.938v28.802l-10.195.406z" fill="#9EA5AD"/><path d="M41 70.5c0 10.477 4.694 19.926 11.837 26.5h46.326C106.51 90.632 111 81.182 111 70.5c0-10.477-4.694-19.926-11.837-26.5H52.837A35.437 35.437 0 0 0 41 70.5z" fill="#384149"/><path fill="#434D54" d="M52 44h47v53H52z"/><path d="M98.992 91.992S87.899 93 76 93c-11.9 0-22.992-1.008-22.992-1.008S52 80.899 52 69c0-11.9 1.008-22.992 1.008-22.992S64.101 45 76 45c11.9 0 22.992 1.008 22.992 1.008S100 57.101 100 69c0 11.697-1.008 22.992-1.008 22.992z" fill="#BAC1CC"/><path d="M95 49.612l-.2-.804-.8-.2S84.8 47 74.6 47c-5.2 0-10.2.402-13.4.804-3.2.401-5 .602-5.8.803-.2 0-.4 0-.6.201-.2.201-.4.402-.4.603-.2.804-.6 2.612-.8 6.027-.2 2.612-.6 7.635-.6 13.462 0 10.045 1.6 19.287 1.6 19.488l.2.804.8.2S64.8 91 75 91c10 0 19.2-1.607 19.4-1.607l.8-.201.2-.804S97 79.146 97 68.9c0-10.247-2-19.288-2-19.288zm-38.4 37.57c-.4-2.41-1.4-10.045-1.4-18.082 0-8.438.8-16.073 1.2-18.082.8-.2 2.4-.402 4.6-.602v.602c0 1.407.8 3.818 1 4.22.2.602.8.803 1.4.803 0 0 5.4-1.205 11.4-1.205 5.6 0 10.6 1.004 11.2 1.004v.201c0 .402-.2 1.206-.4 2.01-1.4-.202-3.8-.604-6.8-.604-4.2 0-8.2.804-8.4.804-.4 0-.6.201-.8.603 0 .2-.4 1.004-.4 2.41 0 1.407.4 3.215.4 3.215 0 .402.2.603.6.804.2.201.6.201 1 .201 0 0 1.8-.402 3.8-.402 1.2 0 2.4.201 3 .201 0 .402.2.603.2 1.206 0 .401 0 1.004-.2 1.406h-7c-.6 0-1 .402-1.2 1.005 0 0-.4 1.406-.4 2.812 0 1.407.4 2.411.4 2.612.2.402.4.804 1 .804 0 0 2 .402 4.2.402 1.2 0 2.2 0 3-.201 0 .603.2 1.004.2 1.607v.804c-1.4.2-4.2.602-7.2.602-4 0-7.2-.803-7.2-.803-.4-.201-1 0-1.2.402-.2.2-1.2 1.607-1.2 3.214 0 1.608 1 3.014 1.2 3.215.2.2.4.402.8.402.2 0 5.6 1.205 11.8 1.205 4.6 0 8.8-.603 10.8-1.004.2.803.6 1.808.6 2.41 0 .402-.2.603-.2.804-3.2.201-7 .603-11 .603-8.8-.201-16.4-1.206-18.8-1.607zm36 0c-.8.202-2.4.402-4.4.603v-.602c0-1.407-.8-3.818-1-4.22-.2-.602-.8-.803-1.4-.803 0 0-5.4 1.205-11.4 1.205-5 0-9.4-.803-10.8-1.004-.2-.402-.4-.804-.4-1.206 0-.402.2-.803.2-1.004 1.2.2 3.8.602 6.8.602 4.2 0 8.2-.803 8.4-.803.4 0 .6-.201.8-.603 0-.2.4-1.005.4-2.41 0-1.407-.4-3.216-.4-3.216 0-.401-.2-.602-.6-.803-.2-.201-.6-.201-1-.201 0 0-1.8.402-3.8.402-1.2 0-2.4-.201-3-.201 0-.402-.2-.603-.2-1.206 0-.401 0-1.004.2-1.406h7c.6 0 1-.402 1.2-1.005 0 0 .4-1.406.4-2.812 0-1.407-.4-2.411-.4-2.612-.2-.402-.4-.804-1-.804 0 0-2-.402-4.2-.402-1.2 0-2.2.201-3 .201 0-.603-.2-1.004-.2-1.607v-.804c1.4-.2 4.2-.603 7.2-.603 4 0 7.2.804 7.2.804.6.201 1.2-.2 1.4-.603 0-.2 1-2.41 1-3.817 0-1.808-1.2-2.612-1.8-2.612-.2 0-5.6-1.205-11.8-1.205-4.6 0-8.8.602-10.8 1.004-.2-.803-.6-1.808-.6-2.41 0-.403.2-.603.2-.804 3.2-.201 7-.603 11-.603 8 0 15.6 1.004 18 1.406.4 2.411 1.4 10.046 1.4 18.082.8 8.037-.2 15.47-.6 18.083z" fill="#E55555"/><circle fill="#818791" cx="47.5" cy="69.5" r="6.5"/><circle fill="#818791" cx="103.5" cy="69.5" r="6.5"/><path d="M99.163 44H52.837C45.49 50.368 41 59.818 41 70.5c0 10.477 4.694 19.926 11.837 26.5h46.326C106.51 90.632 111 81.182 111 70.5A35.437 35.437 0 0 0 99.163 44zM74.47 90.632c-12.04 0-21.632-9.655-21.632-21.775 0-11.915 9.592-21.776 21.632-21.776 12.041 0 21.633 9.655 21.633 21.776 0 12.12-9.592 21.775-21.633 21.775z" fill="#7E8184" opacity=".3"/><circle fill="#FFF" opacity=".799" cx="68" cy="60" r="6"/></g></svg>