<?xml version="1.0" encoding="UTF-8"?>
<svg width="150px" height="150px" viewBox="0 0 150 150" version="1.1" xmlns="http://www.w3.org/2000/svg" xmlns:xlink="http://www.w3.org/1999/xlink">
    <!-- Generator: Sketch 46.1 (44463) - http://www.bohemiancoding.com/sketch -->
    <title>limitswitch</title>
    <desc>Created with Sketch.</desc>
    <defs></defs>
    <g id="Page-1" stroke="none" stroke-width="1" fill="none" fill-rule="evenodd">
        <g id="limitswitch">
            <rect id="Rectangle-path" fill="#A0A0A0" x="38.3678571" y="65.76" width="73.2642857" height="12.04"></rect>
            <path d="M53.6892857,103.42 L53.6892857,103.42 C53.6892857,102.16 54.8035714,101.04 56.0571429,101.04 L64.4142857,101.04 C65.6678571,101.04 66.7821429,102.16 66.7821429,103.42 L66.7821429,103.42 C66.7821429,104.68 65.6678571,105.8 64.4142857,105.8 L56.0571429,105.8 C54.6642857,105.8 53.6892857,104.68 53.6892857,103.42 Z" id="Shape" fill="#FFFFFF" fill-rule="nonzero"></path>
            <rect id="Rectangle-path" fill="#FFA62B" fill-rule="nonzero" x="56.0571429" y="100.9" width="8.35714286" height="4.76"></rect>
            <path d="M86.5607143,115.6 L86.5607143,115.6 C86.5607143,114.34 87.675,113.22 88.9285714,113.22 L97.2857143,113.22 C98.5392857,113.22 99.6535714,114.34 99.6535714,115.6 L99.6535714,115.6 C99.6535714,116.86 98.5392857,117.98 97.2857143,117.98 L88.9285714,117.98 C87.5357143,117.98 86.5607143,116.86 86.5607143,115.6 Z" id="Shape" fill="#FFFFFF" fill-rule="nonzero"></path>
            <rect id="Rectangle-path" fill="#FFA62B" fill-rule="nonzero" x="88.9285714" y="113.22" width="8.35714286" height="4.76"></rect>
            <path d="M53.6892857,115.6 L53.6892857,115.6 C53.6892857,114.34 54.8035714,113.22 56.0571429,113.22 L64.4142857,113.22 C65.6678571,113.22 66.7821429,114.34 66.7821429,115.6 L66.7821429,115.6 C66.7821429,116.86 65.6678571,117.98 64.4142857,117.98 L56.0571429,117.98 C54.6642857,117.98 53.6892857,116.86 53.6892857,115.6 Z" id="Shape" fill="#FFFFFF" fill-rule="nonzero"></path>
            <rect id="Rectangle-path" fill="#434B55" fill-rule="nonzero" x="56.0571429" y="113.22" width="8.35714286" height="4.76"></rect>
            <path d="M86.5607143,127.5 L86.5607143,127.5 C86.5607143,126.24 87.675,125.12 88.9285714,125.12 L97.2857143,125.12 C98.5392857,125.12 99.6535714,126.24 99.6535714,127.5 L99.6535714,127.5 C99.6535714,128.76 98.5392857,129.88 97.2857143,129.88 L88.9285714,129.88 C87.5357143,129.88 86.5607143,128.76 86.5607143,127.5 Z" id="Shape" fill="#FFFFFF" fill-rule="nonzero"></path>
            <rect id="Rectangle-path" fill="#434B55" fill-rule="nonzero" x="88.9285714" y="125.12" width="8.35714286" height="4.76"></rect>
            <path d="M38.3678571,42.66 C37.3928571,42.66 36.5571429,41.96 36.2785714,41.12 C36,40 36.6964286,38.88 37.8107143,38.6 L111.075,19.84 C112.189286,19.56 113.303571,20.26 113.582143,21.38 C113.860714,22.5 113.164286,23.62 112.05,23.9 L38.7857143,42.66 C38.6464286,42.66 38.5071429,42.66 38.3678571,42.66 Z" id="Shape" fill="#353535" fill-rule="nonzero"></path>
            <path d="M53.6892857,127.5 L53.6892857,127.5 C53.6892857,126.24 54.8035714,125.12 56.0571429,125.12 L64.4142857,125.12 C65.6678571,125.12 66.7821429,126.24 66.7821429,127.5 L66.7821429,127.5 C66.7821429,128.76 65.6678571,129.88 64.4142857,129.88 L56.0571429,129.88 C54.6642857,129.88 53.6892857,128.76 53.6892857,127.5 Z" id="Shape" fill="#FFFFFF" fill-rule="nonzero"></path>
            <rect id="Rectangle-path" fill="#ADADAD" fill-rule="nonzero" x="56.0571429" y="125.12" width="8.35714286" height="4.76"></rect>
            <ellipse id="Oval" fill="#EFEBDB" cx="47.1428571" cy="83.54" rx="4.45714286" ry="4.48"></ellipse>
            <g id="Group" transform="translate(44.357143, 72.200000)">
                <path d="M2.50714286,12.46 C1.67142857,12.46 0.975,11.76 0.975,10.92 L0.975,2.1 C0.975,1.26 1.67142857,0.56 2.50714286,0.56 L3.06428571,0.56 C3.9,0.56 4.59642857,1.26 4.59642857,2.1 L4.59642857,10.92 C4.59642857,11.76 3.9,12.46 3.06428571,12.46 L2.50714286,12.46 Z" id="Shape" fill="#FFFFFF"></path>
                <path d="M3.06428571,1.12 C3.62142857,1.12 4.17857143,1.68 4.17857143,2.24 L4.17857143,11.06 C4.17857143,11.62 3.62142857,12.18 3.06428571,12.18 L2.50714286,12.18 C1.95,12.18 1.39285714,11.62 1.39285714,11.06 L1.39285714,2.24 C1.39285714,1.68 1.95,1.12 2.50714286,1.12 L3.06428571,1.12 L3.06428571,1.12 Z M3.06428571,0.42 L2.50714286,0.42 C1.53214286,0.42 0.696428571,1.26 0.696428571,2.24 L0.696428571,11.06 C0.696428571,12.04 1.53214286,12.88 2.50714286,12.88 L3.06428571,12.88 C4.03928571,12.88 4.875,12.04 4.875,11.06 L4.875,2.24 C4.875,1.12 4.03928571,0.42 3.06428571,0.42 L3.06428571,0.42 Z" id="Shape" fill="#D7D7D7" fill-rule="nonzero"></path>
            </g>
            <ellipse id="Oval" fill="#EFEBDB" cx="103.414286" cy="83.54" rx="4.45714286" ry="4.48"></ellipse>
            <g id="Group" transform="translate(100.071429, 72.200000)">
                <path d="M3.06428571,12.46 C2.22857143,12.46 1.53214286,11.76 1.53214286,10.92 L1.53214286,2.1 C1.53214286,1.26 2.22857143,0.56 3.06428571,0.56 L3.62142857,0.56 C4.45714286,0.56 5.15357143,1.26 5.15357143,2.1 L5.15357143,10.92 C5.15357143,11.76 4.45714286,12.46 3.62142857,12.46 L3.06428571,12.46 Z" id="Shape" fill="#FFFFFF"></path>
                <path d="M3.62142857,1.12 C4.17857143,1.12 4.73571429,1.68 4.73571429,2.24 L4.73571429,11.06 C4.73571429,11.62 4.17857143,12.18 3.62142857,12.18 L3.06428571,12.18 C2.50714286,12.18 1.95,11.62 1.95,11.06 L1.95,2.24 C1.95,1.68 2.50714286,1.12 3.06428571,1.12 L3.62142857,1.12 L3.62142857,1.12 Z M3.62142857,0.42 L3.06428571,0.42 C2.08928571,0.42 1.25357143,1.26 1.25357143,2.24 L1.25357143,11.06 C1.25357143,12.04 2.08928571,12.88 3.06428571,12.88 L3.62142857,12.88 C4.59642857,12.88 5.43214286,12.04 5.43214286,11.06 L5.43214286,2.24 C5.43214286,1.12 4.59642857,0.42 3.62142857,0.42 L3.62142857,0.42 Z" id="Shape" fill="#D7D7D7" fill-rule="nonzero"></path>
            </g>
            <ellipse id="Oval" fill="#EFEBDB" cx="75" cy="83.54" rx="4.45714286" ry="4.48"></ellipse>
            <g id="Group" transform="translate(72.214286, 72.200000)">
                <path d="M2.50714286,12.46 C1.67142857,12.46 0.975,11.76 0.975,10.92 L0.975,2.1 C0.975,1.26 1.67142857,0.56 2.50714286,0.56 L3.06428571,0.56 C3.9,0.56 4.59642857,1.26 4.59642857,2.1 L4.59642857,10.92 C4.59642857,11.76 3.9,12.46 3.06428571,12.46 L2.50714286,12.46 Z" id="Shape" fill="#FFFFFF"></path>
                <path d="M3.06428571,1.12 C3.62142857,1.12 4.17857143,1.68 4.17857143,2.24 L4.17857143,11.06 C4.17857143,11.62 3.62142857,12.18 3.06428571,12.18 L2.50714286,12.18 C1.95,12.18 1.39285714,11.62 1.39285714,11.06 L1.39285714,2.24 C1.39285714,1.68 1.95,1.12 2.50714286,1.12 L3.06428571,1.12 L3.06428571,1.12 Z M3.06428571,0.42 L2.50714286,0.42 C1.53214286,0.42 0.696428571,1.26 0.696428571,2.24 L0.696428571,11.06 C0.696428571,12.04 1.53214286,12.88 2.50714286,12.88 L3.06428571,12.88 C4.03928571,12.88 4.875,12.04 4.875,11.06 L4.875,2.24 C4.875,1.12 4.03928571,0.42 3.06428571,0.42 L3.06428571,0.42 Z" id="Shape" fill="#D7D7D7" fill-rule="nonzero"></path>
            </g>
            <rect id="Rectangle-path" fill="#F1F1F1" x="38.3678571" y="63.8" width="73.2642857" height="12.04"></rect>
            <ellipse id="Oval" fill="#CDD0D3" cx="58.1464286" cy="69.26" rx="4.875" ry="4.9"></ellipse>
            <ellipse id="Oval" fill="#CDD0D3" cx="91.7142857" cy="69.26" rx="4.875" ry="4.9"></ellipse>
            <polygon id="Shape" fill="#434B55" points="111.632143 38.18 38.3678571 38.18 38.3678571 63.66 64.4142857 63.66 64.4142857 74.16 85.5857143 74.16 85.5857143 63.66 111.632143 63.66"></polygon>
        </g>
    </g>
</svg>