<svg width="150" height="150" xmlns="http://www.w3.org/2000/svg"><g fill="none" fill-rule="evenodd"><path fill="#A0A0A0" d="M38.368 65.76h73.264V77.8H38.368z"/><path d="M53.69 103.42c0-1.26 1.114-2.38 2.367-2.38h8.357c1.254 0 2.368 1.12 2.368 2.38 0 1.26-1.114 2.38-2.368 2.38h-8.357c-1.393 0-2.368-1.12-2.368-2.38z" fill="#FFF" fill-rule="nonzero"/><path fill="#FFA62B" fill-rule="nonzero" d="M56.057 100.9h8.357v4.76h-8.357z"/><path d="M86.56 115.6c0-1.26 1.115-2.38 2.369-2.38h8.357c1.253 0 2.368 1.12 2.368 2.38 0 1.26-1.115 2.38-2.368 2.38h-8.357c-1.393 0-2.368-1.12-2.368-2.38z" fill="#FFF" fill-rule="nonzero"/><path fill="#FFA62B" fill-rule="nonzero" d="M88.929 113.22h8.357v4.76h-8.357z"/><path d="M53.69 115.6c0-1.26 1.114-2.38 2.367-2.38h8.357c1.254 0 2.368 1.12 2.368 2.38 0 1.26-1.114 2.38-2.368 2.38h-8.357c-1.393 0-2.368-1.12-2.368-2.38z" fill="#FFF" fill-rule="nonzero"/><path fill="#434B55" fill-rule="nonzero" d="M56.057 113.22h8.357v4.76h-8.357z"/><path d="M86.56 127.5c0-1.26 1.115-2.38 2.369-2.38h8.357c1.253 0 2.368 1.12 2.368 2.38 0 1.26-1.115 2.38-2.368 2.38h-8.357c-1.393 0-2.368-1.12-2.368-2.38z" fill="#FFF" fill-rule="nonzero"/><path fill="#434B55" fill-rule="nonzero" d="M88.929 125.12h8.357v4.76h-8.357z"/><path d="M38.368 42.66c-.975 0-1.81-.7-2.09-1.54-.278-1.12.418-2.24 1.533-2.52l73.264-18.76c1.114-.28 2.229.42 2.507 1.54.279 1.12-.418 2.24-1.532 2.52L38.786 42.66h-.418z" fill="#353535" fill-rule="nonzero"/><path d="M53.69 127.5c0-1.26 1.114-2.38 2.367-2.38h8.357c1.254 0 2.368 1.12 2.368 2.38 0 1.26-1.114 2.38-2.368 2.38h-8.357c-1.393 0-2.368-1.12-2.368-2.38z" fill="#FFF" fill-rule="nonzero"/><path fill="#ADADAD" fill-rule="nonzero" d="M56.057 125.12h8.357v4.76h-8.357z"/><ellipse fill="#EFEBDB" cx="47.143" cy="83.54" rx="4.457" ry="4.48"/><path d="M46.864 84.66a1.55 1.55 0 0 1-1.532-1.54V74.3c0-.84.697-1.54 1.532-1.54h.557c.836 0 1.533.7 1.533 1.54v8.82c0 .84-.697 1.54-1.533 1.54h-.557z" fill="#FFF"/><path d="M47.421 73.32c.558 0 1.115.56 1.115 1.12v8.82c0 .56-.557 1.12-1.115 1.12h-.557c-.557 0-1.114-.56-1.114-1.12v-8.82c0-.56.557-1.12 1.114-1.12h.557zm0-.7h-.557c-.975 0-1.81.84-1.81 1.82v8.82c0 .98.835 1.82 1.81 1.82h.557c.975 0 1.811-.84 1.811-1.82v-8.82c0-1.12-.836-1.82-1.81-1.82z" fill="#D7D7D7" fill-rule="nonzero"/><ellipse fill="#EFEBDB" cx="103.414" cy="83.54" rx="4.457" ry="4.48"/><path d="M103.136 84.66a1.55 1.55 0 0 1-1.532-1.54V74.3c0-.84.696-1.54 1.532-1.54h.557c.836 0 1.532.7 1.532 1.54v8.82c0 .84-.696 1.54-1.532 1.54h-.557z" fill="#FFF"/><path d="M103.693 73.32c.557 0 1.114.56 1.114 1.12v8.82c0 .56-.557 1.12-1.114 1.12h-.557c-.557 0-1.115-.56-1.115-1.12v-8.82c0-.56.558-1.12 1.115-1.12h.557zm0-.7h-.557c-.975 0-1.811.84-1.811 1.82v8.82c0 .98.836 1.82 1.81 1.82h.558c.975 0 1.81-.84 1.81-1.82v-8.82c0-1.12-.835-1.82-1.81-1.82z" fill="#D7D7D7" fill-rule="nonzero"/><ellipse fill="#EFEBDB" cx="75" cy="83.54" rx="4.457" ry="4.48"/><path d="M74.721 84.66a1.55 1.55 0 0 1-1.532-1.54V74.3c0-.84.697-1.54 1.532-1.54h.558c.835 0 1.532.7 1.532 1.54v8.82c0 .84-.697 1.54-1.532 1.54h-.558z" fill="#FFF"/><path d="M75.279 73.32c.557 0 1.114.56 1.114 1.12v8.82c0 .56-.557 1.12-1.114 1.12h-.558c-.557 0-1.114-.56-1.114-1.12v-8.82c0-.56.557-1.12 1.114-1.12h.558zm0-.7h-.558c-.975 0-1.81.84-1.81 1.82v8.82c0 .98.835 1.82 1.81 1.82h.558c.975 0 1.81-.84 1.81-1.82v-8.82c0-1.12-.835-1.82-1.81-1.82z" fill="#D7D7D7" fill-rule="nonzero"/><path fill="#F1F1F1" d="M38.368 63.8h73.264v12.04H38.368z"/><ellipse fill="#CDD0D3" cx="58.146" cy="69.26" rx="4.875" ry="4.9"/><ellipse fill="#CDD0D3" cx="91.714" cy="69.26" rx="4.875" ry="4.9"/><path fill="#434B55" d="M111.632 38.18H38.368v25.48h26.046v10.5h21.172v-10.5h26.046z"/></g></svg>