<svg width="150" height="150" xmlns="http://www.w3.org/2000/svg"><g fill="none"><path fill="#3D454C" d="M25.144 78.59h37.664v26H25.144z"/><path fill="#262626" d="M66.805 76.282l-3.997 28.308v-26l3.997-28.308z"/><path fill="#6F7377" d="M62.808 78.59H25.144l7.533-28.308h34.128z"/><path d="M61.424 61.974s-4.612 2.462-13.528 2.462-13.528-2.462-13.528-2.462V45.205s.615-12.154 13.528-12.154 13.528 12.154 13.528 12.154v16.77z" fill="#414144"/><ellipse fill="#606060" cx="47.896" cy="37.205" rx="5.842" ry="2.462"/><path fill="#333" d="M28.987 42.436h35.819v20.923H28.987z"/><path fill="#000" d="M65.268 40.59l-.462 2v20.923l.462-2z"/><path fill="#565656" d="M65.268 40.59H29.756l-.769 2h35.82z"/><path d="M60.348 73.667s-5.073 2.769-14.912 2.769c-9.838 0-14.912-2.77-14.912-2.77V55.052s.615-13.538 14.912-13.538S60.348 55.05 60.348 55.05v18.616z" fill="#3260C6"/><ellipse fill="#6B7FF2" cx="45.436" cy="46.898" rx="5.996" ry="2.462"/><path fill="#3D454C" d="M87.098 78.59h37.664v26H87.098z"/><path fill="#262626" d="M83.1 76.282l3.998 28.308v-26L83.1 50.282z"/><path fill="#6F7377" d="M87.098 78.59h37.664l-7.533-28.308H83.1z"/><path d="M88.327 61.974s4.612 2.462 13.529 2.462c8.916 0 13.528-2.462 13.528-2.462V45.205s-.615-12.154-13.528-12.154c-12.914 0-13.529 12.154-13.529 12.154v16.77z" fill="#414144"/><ellipse fill="#606060" cx="102.009" cy="37.205" rx="5.842" ry="2.462"/><path fill="#333" d="M84.945 42.436h35.819v20.923H84.945z"/><path fill="#000" d="M84.638 40.59l.461 2-.154 20.923-.307-2z"/><path fill="#565656" d="M84.638 40.59h35.512l.615 2H85.099z"/><path d="M89.557 73.667s5.073 2.769 14.912 2.769 14.912-2.77 14.912-2.77V55.052s-.615-13.538-14.912-13.538S89.557 55.05 89.557 55.05v18.616z" fill="#3260C6"/><ellipse fill="#6B7FF2" cx="104.469" cy="46.898" rx="5.996" ry="2.462"/><path d="M108.628 133H101v-1.443l3.72-3.787c.56-.54.931-.901 1.117-1.442.186-.36.372-.721.372-1.082 0-.541-.186-.902-.372-1.082-.186-.18-.558-.36-1.116-.36s-.93.18-1.116.54c-.186.36-.372.722-.372 1.263H101c0-.722.186-1.263.558-1.804a4.282 4.282 0 0 1 1.302-1.262c.559-.36 1.303-.541 2.047-.541 1.116 0 2.046.18 2.79.721.559.541.93 1.263.93 2.345 0 .54-.185 1.082-.371 1.623-.372.54-.744 1.262-1.489 1.983l-2.604 2.525H109V133h-.372zM46 133h-2.308v-8.295l-2.692.721v-1.803L45.808 122H46z" fill="#5D6069"/></g></svg>