<svg width="150" height="150" xmlns="http://www.w3.org/2000/svg"><g fill="none" fill-rule="evenodd"><g fill-rule="nonzero"><path fill="#0C0C0C" d="M66.93 17.33l-2.965 3.157h22.564l-3.294-3.157z"/><path fill="#000" d="M86.2 20.487h1v25.262h-1zm-1.153 0h1v25.262h-1z"/><path fill="#101010" d="M85.541 45.75h.659V20.486l-2.306-2.493 1.647 2.493z"/><path fill="#202020" d="M82.741 17.994l1.153 2.493V45.75h1.153V20.487z"/><path fill="#000" d="M83.236 20.487h1v25.262h-1zm-2.471 0h1v25.262h-1z"/><path fill="#303030" d="M81.094 17.994l.659 2.493V45.75h1.482V20.487z"/><path fill="#404040" d="M79.118 17.994V45.75h1.647V20.487z"/><path fill="#000" d="M78.13 20.487h1.153v25.262H78.13zm-3.13 0h1.153v25.262H75z"/><path fill="#515151" d="M76.812 17.994l-.66 2.493V45.75h1.977V20.487zm-2.471 0l-1.317 2.493V45.75H75V20.487z"/><path fill="#000" d="M72.036 20.487h1.153v25.262h-1.153zm-2.636 0h1v25.262h-1z"/><path fill="#404040" d="M72.035 17.994l-1.811 2.493V45.75h1.811V20.487z"/><path fill="#303030" d="M69.894 17.994l-1.976 2.493V45.75H69.4V20.487z"/><path fill="#000" d="M67.095 20.487h1v25.262h-1zm-1.812 0h1v25.262h-1z"/><path fill="#202020" d="M68.247 17.994l-2.306 2.493V45.75h1.153V20.487z"/><path fill="#101010" d="M66.93 17.994l-2.306 2.493V45.75h.658V20.487z"/><path fill="#000" d="M64.295 20.487h1v25.262h-1z"/><path fill="#515151" d="M63.965 20.487h1v25.262h-1z"/></g><path fill="#000" fill-rule="nonzero" d="M63.965 45.749H86.53v52.518H63.965z"/><path fill="#202020" fill-rule="nonzero" d="M65.612 45.749h19.106v52.518H65.612z"/><path fill="#353535" fill-rule="nonzero" d="M72.365 45.749h8.565v52.518h-8.565z"/><path fill="#515151" fill-rule="nonzero" d="M75.494 45.749h2.471v52.518h-2.471z"/><path fill="#0C0C0C" fill-rule="nonzero" d="M74.176 17.33h2.635v14.792h-2.635z"/><path fill="#222426" fill-rule="nonzero" d="M48.318 98.268h54.024v23.766H48.318z"/><path fill="#000" fill-rule="nonzero" d="M67.259 98.268h15.976v7.313H67.259z"/><path d="M67.424 106.411H83.07" stroke="#FFF" stroke-width=".55" opacity=".2"/><path fill="#B3B3B3" fill-rule="nonzero" d="M62.482 95.442h25.529v1.496H62.482z"/><path fill="#999" fill-rule="nonzero" d="M48.318 97.104h54.024v1.163H48.318z"/><path fill="#000" fill-rule="nonzero" d="M53.424 96.439h2.965v1.163h-2.965zm40.682 0h2.965v1.163h-2.965z"/><path fill="#96969F" fill-rule="nonzero" d="M92.624 113.89h6.094v19.777h-6.094zm-20.424 0h6.094v19.777H72.2zm-20.259 0h6.094v19.777h-6.094z"/></g></svg>