<svg width="150" height="150" xmlns="http://www.w3.org/2000/svg" xmlns:xlink="http://www.w3.org/1999/xlink"><defs><ellipse id="a" cx="74.8" cy="75.4" rx="20" ry="19"/><filter x="-3.8%" y="-3.9%" width="107.5%" height="107.9%" filterUnits="objectBoundingBox" id="b"><feGaussianBlur stdDeviation="1" in="SourceAlpha" result="shadowBlurInner1"/><feOffset dy="1" in="shadowBlurInner1" result="shadowOffsetInner1"/><feComposite in="shadowOffsetInner1" in2="SourceAlpha" operator="arithmetic" k2="-1" k3="1" result="shadowInnerInner1"/><feColorMatrix values="0 0 0 0 0 0 0 0 0 0 0 0 0 0 0 0 0 0 0.0504132699 0" in="shadowInnerInner1"/></filter></defs><g fill="none" fill-rule="evenodd"><path d="M74.8 53.6c-1.4 0-2.4-1-2.4-2.4v-4.8c0-1.4 1-2.4 2.4-2.4s2.4 1 2.4 2.4v4.8c0 1.4-1.2 2.4-2.4 2.4zm-14.2 0c-1.4 0-2.4-1-2.4-2.4v-4.8c0-1.4 1-2.4 2.4-2.4s2.4 1 2.4 2.4v4.8c0 1.4-1.2 2.4-2.4 2.4zm28.4 0c-1.4 0-2.4-1-2.4-2.4v-4.8c0-1.4 1-2.4 2.4-2.4s2.4 1 2.4 2.4v4.8c0 1.4-1.2 2.4-2.4 2.4zm-14.2 52c-1.4 0-2.4-1-2.4-2.4v-4.8c0-1.4 1-2.4 2.4-2.4s2.4 1 2.4 2.4v4.8c0 1.4-1.2 2.4-2.4 2.4zm-14.2 0c-1.4 0-2.4-1-2.4-2.4v-4.8c0-1.4 1-2.4 2.4-2.4s2.4 1 2.4 2.4v4.8c0 1.4-1.2 2.4-2.4 2.4zm28.4 0c-1.4 0-2.4-1-2.4-2.4v-4.8c0-1.4 1-2.4 2.4-2.4s2.4 1 2.4 2.4v4.8c0 1.4-1.2 2.4-2.4 2.4z" fill="#C8C9CD" fill-rule="nonzero"/><path fill="#E7E7E7" fill-rule="nonzero" d="M50 53h49.68v46.6H50z"/><path fill="#E7E7E7" fill-rule="nonzero" d="M50 51h49.68v46.6H50z"/><circle fill="#E0DFD0" fill-rule="nonzero" cx="74.8" cy="74.2" r="20"/><ellipse fill="#E0DFD0" fill-rule="nonzero" cx="74.8" cy="75.4" rx="20" ry="19"/><mask id="c" fill="#fff"><use xlink:href="#a"/></mask><use filter="url(#b)" xlink:href="#a" fill="#000"/><path fill="#FFF" fill-rule="nonzero" mask="url(#c)" d="M65.2 57.8L70 64l-2.2 17.6H55v2.2h12.6l-.2 1-4.2 6 1.4 1 4.6-6.4 2.6-22-5.4-6.6zm29.4 23.8H81.2l-2-17.4 4.8-6-1.4-1.2-5.2 6.6 2.4 21.8.2.2 4.4 6.4 1.4-1-4.2-6-.2-1.2h13.4z"/><path d="M55.8 31c-1.6 0-3-1.4-3-3V17.8c0-1.6 1.4-3 3-3s3 1.4 3 3V28c-.2 1.8-1.4 3-3 3z" fill="#E7E7E7" fill-rule="nonzero"/><path fill="#A8A3BA" fill-rule="nonzero" d="M52.8 17.8h5.8V28h-5.8z"/><path d="M74.8 31c-1.6 0-3-1.4-3-3V17.8c0-1.6 1.4-3 3-3s3 1.4 3 3V28c-.2 1.8-1.4 3-3 3z" fill="#E7E7E7" fill-rule="nonzero"/><path fill="#A8A3BA" fill-rule="nonzero" d="M71.8 17.8h5.8V28h-5.8z"/><path d="M93.6 31c-1.6 0-3-1.4-3-3V17.8c0-1.6 1.4-3 3-3s3 1.4 3 3V28c0 1.8-1.2 3-3 3z" fill="#E7E7E7" fill-rule="nonzero"/><path fill="#A8A3BA" fill-rule="nonzero" d="M90.8 17.8h5.8V28h-5.8z"/><path d="M37.4 130.6h-2v4.4H33v-12h4.4c1.4 0 2.6.4 3.4 1 .8.6 1.2 1.6 1.2 2.6 0 .8-.2 1.6-.6 2-.4.4-.8 1-1.6 1.4l2.6 5v.2h-2.6l-2.4-4.6zm-2-2h2c.6 0 1.2-.2 1.4-.4.4-.4.6-.8.6-1.4 0-.6-.2-1-.4-1.4-.4-.4-.8-.4-1.4-.4h-2v3.6h-.2zm44.2 4.8c-.4.6-1 1-2 1.2-.8.2-1.8.4-2.8.4-1 0-2-.2-2.8-.6-.8-.4-1.4-1.2-1.8-2-.4-.8-.6-1.8-.6-3v-.8c0-1.2.2-2.2.6-3.2.4-1 1-1.6 1.8-2 .8-.4 1.6-.8 2.6-.8 1.4 0 2.6.4 3.4 1 .8.6 1.2 1.6 1.4 3H77c-.2-.6-.4-1.2-.8-1.6-.4-.4-1-.4-1.6-.4-.8 0-1.4.4-2 1-.6.6-.6 1.6-.6 2.8v.8c0 1.2.2 2.2.8 2.8.4.6 1.2 1 2.2 1 1 0 1.6-.2 2-.6v-2h-2.2v-1.8h4.8v4.8zM107 135v-12h4.2c1.4 0 2.6.2 3.4.8.8.6 1.2 1.4 1.2 2.4 0 .6-.2 1.2-.4 1.6-.2.4-.8.8-1.2 1 .6.2 1.2.4 1.4 1 .2.6.6 1 .6 1.8 0 1.2-.4 2-1.2 2.6-.8.6-1.8 1-3.2 1H107v-.2zm2.4-7h1.8c1.2 0 1.8-.6 1.8-1.6 0-.6-.2-1-.4-1.2-.4-.2-.8-.4-1.6-.4h-1.8v3.2h.2zm0 1.8v3.2h2.2c.6 0 1-.2 1.4-.4.4-.2.4-.6.4-1.2 0-1.2-.6-1.6-1.8-1.6h-2.2z" fill="#838698" fill-rule="nonzero"/></g></svg>