<svg width="150" height="150" xmlns="http://www.w3.org/2000/svg"><defs><linearGradient x1="50%" y1="-.203%" x2="50%" y2="100.244%" id="a"><stop stop-color="#9C9C9C" offset="0%"/><stop stop-color="#4D4D4D" offset="100%"/></linearGradient></defs><g fill="none" fill-rule="evenodd"><path d="M77.04 51.586c-2.47 0-4.51 2.025-4.51 4.476v5.862c-5.8-6.395-14.178-10.338-23.523-10.338-17.507 0-31.685 14.068-31.685 31.44 0 17.373 14.178 31.441 31.685 31.441 9.345 0 17.723-4.05 23.523-10.338v5.862c0 2.451 2.04 4.476 4.51 4.476 2.471 0 4.512-2.025 4.512-4.476V56.06c.107-2.45-2.04-4.475-4.511-4.475z" fill="#84899D"/><ellipse fill="#D7DAE5" cx="49.007" cy="83.026" rx="27.604" ry="27.391"/><path d="M52.981 63.949h-3.33v-3.304c0-.427-.321-.64-.644-.64-.322 0-.644.32-.644.64v3.304h-3.33c-.43 0-.644.32-.644.64 0 .425.322.639.644.639h3.33v3.304c0 .426.322.64.644.64.323 0 .645-.32.645-.64v-3.304h3.33c.43 0 .644-.32.644-.64s-.322-.64-.645-.64zm-6.551 37.089c.322-.213.644-.426.859-.746.215-.32.322-.64.322-1.066 0-.746-.215-1.279-.644-1.705-.43-.426-1.074-.64-1.934-.64-.537 0-.966.107-1.289.32-.43.213-.751.427-.966.746-.215.32-.322.746-.322 1.173h1.396c0-.32.107-.64.322-.853.215-.213.537-.32.86-.32.429 0 .751.107.966.32.215.213.322.533.322.853 0 .426-.107.746-.322.959-.215.213-.537.32-.967.32h-.859v1.065h.752c.537 0 .86.107 1.074.32.215.213.43.533.43.96 0 .426-.108.745-.323.959-.214.213-.537.32-.966.32-.43 0-.752-.107-.967-.32-.215-.214-.322-.533-.322-.853h-1.396c0 .64.214 1.279.751 1.599.537.426 1.182.64 1.934.64.859 0 1.503-.214 1.933-.64.537-.427.752-.96.752-1.706 0-.426-.107-.852-.322-1.172-.323-.213-.645-.426-1.074-.533zm7.733-3.943l-2.04 6.288-2.042-6.288h-1.61l2.9 7.993h1.396l2.9-7.993z" fill="#84899D" fill-rule="nonzero"/><path d="M77.47 110.417h-.107a1.187 1.187 0 0 1-1.182-1.172V56.808c0-.64.538-1.172 1.182-1.172h.107c.645 0 1.182.532 1.182 1.172v52.437c0 .64-.537 1.172-1.182 1.172z" fill="#FFB53D"/><path d="M93.044 52.012c-.859 0-1.61 2.664-1.61 5.968s.751 5.969 1.61 5.969h38.452V52.012H93.044z" fill="#525260"/><ellipse fill="url(#a)" cx="131.389" cy="57.98" rx="1.181" ry="5.968"/><path d="M94.978 96.988h-.43c-.43 0-.86-.426-.86-.852v-4.477c0-.426.43-.852.86-.852h.43c.43 0 .859.426.859.852v4.477c0 .532-.322.852-.86.852zm6.444 0h-.43c-.429 0-.859-.426-.859-.852v-4.477c0-.426.43-.852.86-.852h.43c.429 0 .858.426.858.852v4.477c0 .532-.322.852-.859.852zm6.445 0h-.43c-.43 0-.86-.426-.86-.852v-4.477c0-.426.43-.852.86-.852h.43c.43 0 .859.426.859.852v4.477c0 .532-.322.852-.86.852zm6.444 0h-.43c-.43 0-.859-.426-.859-.852v-4.477c0-.426.43-.852.86-.852h.43c.429 0 .858.426.858.852v4.477c0 .532-.322.852-.859.852zM94.978 77.484h-.43c-.43 0-.86-.426-.86-.852v-4.477c0-.426.43-.852.86-.852h.43c.43 0 .859.426.859.852v4.477a.844.844 0 0 1-.86.852zm6.444 0h-.43c-.429 0-.859-.426-.859-.852v-4.477c0-.426.43-.852.86-.852h.43c.429 0 .858.426.858.852v4.477a.844.844 0 0 1-.859.852zm6.445 0h-.43c-.43 0-.86-.426-.86-.852v-4.477c0-.426.43-.852.86-.852h.43c.43 0 .859.426.859.852v4.477a.844.844 0 0 1-.86.852zm6.444 0h-.43c-.43 0-.859-.426-.859-.852v-4.477c0-.426.43-.852.86-.852h.43c.429 0 .858.426.858.852v4.477a.844.844 0 0 1-.859.852z" fill="#D7DAE5"/><path fill="#525260" d="M92.615 76.418h23.415v15.454H92.615z"/><path d="M94.87 114.147c-.966 0-1.826-.852-1.826-1.811v-6.395c0-.96.86-1.812 1.826-1.812.967 0 1.826.853 1.826 1.812v6.395c0 .959-.752 1.811-1.826 1.811z" fill="#D7DAE5" fill-rule="nonzero"/><path fill="#525260" fill-rule="nonzero" d="M93.044 105.941h3.652v6.395h-3.652z"/><path d="M102.281 114.147c-.966 0-1.825-.852-1.825-1.811v-6.395c0-.96.859-1.812 1.825-1.812.967 0 1.826.853 1.826 1.812v6.395c0 .959-.859 1.811-1.826 1.811z" fill="#D7DAE5" fill-rule="nonzero"/><path fill="#525260" fill-rule="nonzero" d="M100.456 105.941h3.652v6.395h-3.652z"/><path d="M109.585 114.147c-.966 0-1.826-.852-1.826-1.811v-6.395c0-.96.86-1.812 1.826-1.812.967 0 1.826.853 1.826 1.812v6.395c0 .959-.752 1.811-1.826 1.811z" fill="#D7DAE5" fill-rule="nonzero"/><path fill="#525260" fill-rule="nonzero" d="M107.759 105.941h3.652v6.395h-3.652z"/><path d="M116.996 114.147c-.966 0-1.826-.852-1.826-1.811v-6.395c0-.96.86-1.812 1.826-1.812.967 0 1.826.853 1.826 1.812v6.395c0 .959-.859 1.811-1.826 1.811z" fill="#D7DAE5" fill-rule="nonzero"/><path fill="#525260" fill-rule="nonzero" d="M115.063 105.941h3.652v6.395h-3.652z"/><path d="M124.3 114.147c-.967 0-1.826-.852-1.826-1.811v-6.395c0-.96.86-1.812 1.826-1.812.967 0 1.826.853 1.826 1.812v6.395c0 .959-.86 1.811-1.826 1.811z" fill="#D7DAE5" fill-rule="nonzero"/><path fill="#525260" fill-rule="nonzero" d="M122.474 105.941h3.652v6.395h-3.652z"/><path d="M122.474 89.101c-.967 0-1.826-.852-1.826-1.812v-6.394c0-.96.86-1.812 1.826-1.812.967 0 1.826.853 1.826 1.812v6.394c0 1.066-.86 1.812-1.826 1.812z" fill="#D7DAE5" fill-rule="nonzero"/><path fill="#525260" fill-rule="nonzero" d="M120.648 80.895h3.652v6.395h-3.652z"/><path d="M31.128 29.857c0-.35-.192-.698-.383-.873-.192-.174-.958-.524-1.724-.698-.766-.175-1.532-.524-1.915-.699-1.34-.698-1.915-1.571-1.915-2.619 0-.524.192-1.047.575-1.571.383-.524.766-.873 1.532-1.048.766-.174 1.34-.349 2.298-.349.766 0 1.532.175 2.298.35.574.348 1.149.698 1.532 1.221A2.77 2.77 0 0 1 34 25.317h-2.298c0-.523-.191-.873-.574-1.047-.383-.35-.766-.35-1.34-.35-.575 0-.958.175-1.341.35a.952.952 0 0 0 0 1.746c.383.174.957.524 1.723.698 1.34.35 2.298.873 2.873 1.397.574.524.957 1.222.957 2.095 0 .873-.383 1.572-1.149 2.096-.766.523-1.723.698-3.064.698-.957 0-1.723-.175-2.49-.524-.765-.349-1.34-.698-1.723-1.222S25 30.206 25 29.508h2.298c0 1.222.766 1.746 2.298 1.746.574 0 .957-.175 1.34-.35.383-.174.192-.523.192-1.047zM35 32.82V22h3.638c.958 0 1.915.18 2.681.721.766.361 1.34 1.082 1.915 1.804.383.72.766 1.623.766 2.705v.54c0 1.082-.191 1.984-.574 2.705-.383.722-1.15 1.443-1.915 1.804-.766.36-1.724.721-2.681.721H35v-.18zm2.49-9.017v7.213h1.148c.958 0 1.724-.36 2.107-.901.383-.541.766-1.443.766-2.525v-.54c0-1.083-.192-1.984-.766-2.525-.575-.541-1.15-.902-2.107-.902H37.49v.18zM50.842 30.8h-3.86l-.701 2.2H44l3.86-11h2.105L54 33h-2.28l-.878-2.2zm-3.333-1.833h2.631l-1.403-4.217-1.228 4.217zm58.619.89c0-.35-.192-.698-.383-.873-.192-.174-.958-.524-1.724-.698-.766-.175-1.532-.524-1.915-.699-1.34-.698-1.915-1.571-1.915-2.619 0-.524.192-1.047.575-1.571.383-.524.766-.873 1.532-1.048.766-.174 1.34-.349 2.298-.349.766 0 1.532.175 2.298.35.574.348 1.149.698 1.532 1.221a2.77 2.77 0 0 1 .574 1.746h-2.298c0-.523-.191-.873-.574-1.047-.383-.35-.766-.35-1.34-.35-.575 0-.958.175-1.341.35a.952.952 0 0 0 0 1.746c.383.174.957.524 1.723.698 1.34.35 2.298.873 2.873 1.397.574.524.957 1.222.957 2.095 0 .873-.383 1.572-1.149 2.096-.766.523-1.723.698-3.064.698-.957 0-1.723-.175-2.49-.524-.765-.349-1.34-.698-1.723-1.222S100 30.206 100 29.508h2.298c0 1.222.766 1.746 2.298 1.746.574 0 .957-.175 1.34-.35.383-.174.192-.523.192-1.047zM118 29.274c0 1.242-.551 2.13-1.286 2.661-.734.71-1.836 1.065-3.122 1.065-1.47 0-2.572-.532-3.306-1.42-.735-.886-1.286-2.128-1.286-3.725v-.71c0-1.064.184-1.951.551-2.661.367-.71.918-1.42 1.653-1.774.735-.355 1.47-.71 2.388-.71 1.286 0 2.388.355 3.122 1.065.735.71 1.286 1.596 1.286 2.838h-2.204c0-.71-.184-1.242-.551-1.42-.367-.177-.918-.531-1.653-.531s-1.286.177-1.653.71c-.368.532-.551 1.419-.551 2.483v.887c0 1.242.183 1.952.55 2.484.368.532.92.887 1.654.887.735 0 1.286-.177 1.653-.532.367-.355.55-.71.55-1.42H118v-.177zm3 1.893h4V33h-6V22h1.846v9.167z" fill="#909090" fill-rule="nonzero"/></g></svg>