<svg width="150" height="150" xmlns="http://www.w3.org/2000/svg" xmlns:xlink="http://www.w3.org/1999/xlink"><defs><path id="a" d="M107.7 64.2h7.65v1.05h-7.65z"/><rect id="b" x="93.75" y="57.45" width="35.25" height="35.25" rx="1.279"/><filter x="-1.4%" y="-1.4%" width="102.8%" height="102.8%" filterUnits="objectBoundingBox" id="c"><feGaussianBlur stdDeviation=".5" in="SourceAlpha" result="shadowBlurInner1"/><feOffset in="shadowBlurInner1" result="shadowOffsetInner1"/><feComposite in="shadowOffsetInner1" in2="SourceAlpha" operator="arithmetic" k2="-1" k3="1" result="shadowInnerInner1"/><feColorMatrix values="0 0 0 0 1 0 0 0 0 1 0 0 0 0 1 0 0 0 0.501358696 0" in="shadowInnerInner1"/></filter><rect id="d" x="32.1" y="69.9" width="25.65" height="10.2" rx=".64"/><filter x="-7.8%" y="-19.6%" width="115.6%" height="139.2%" filterUnits="objectBoundingBox" id="e"><feGaussianBlur stdDeviation="1.5" in="SourceAlpha" result="shadowBlurInner1"/><feOffset dx="-1" in="shadowBlurInner1" result="shadowOffsetInner1"/><feComposite in="shadowOffsetInner1" in2="SourceAlpha" operator="arithmetic" k2="-1" k3="1" result="shadowInnerInner1"/><feColorMatrix values="0 0 0 0 0 0 0 0 0 0 0 0 0 0 0 0 0 0 0.5 0" in="shadowInnerInner1"/></filter><path id="f" d="M9 72.15h23.1v5.7H9z"/><filter x="-4.3%" y="-17.5%" width="108.7%" height="135.1%" filterUnits="objectBoundingBox" id="g"><feGaussianBlur stdDeviation=".5" in="SourceAlpha" result="shadowBlurInner1"/><feOffset dx="-1" in="shadowBlurInner1" result="shadowOffsetInner1"/><feComposite in="shadowOffsetInner1" in2="SourceAlpha" operator="arithmetic" k2="-1" k3="1" result="shadowInnerInner1"/><feColorMatrix values="0 0 0 0 0.0637567573 0 0 0 0 0.0676271689 0 0 0 0 0.0906940901 0 0 0 0.378679801 0" in="shadowInnerInner1"/></filter><rect id="i" x="107.7" y="80.4" width="7.65" height="7.65" rx="1.023"/><filter x="0%" y="0%" width="100%" height="100%" filterUnits="objectBoundingBox" id="h"><feOffset in="SourceAlpha" result="shadowOffsetOuter1"/><feColorMatrix values="0 0 0 0 1 0 0 0 0 1 0 0 0 0 1 0 0 0 0.716995018 0" in="shadowOffsetOuter1" result="shadowMatrixOuter1"/><feOffset in="SourceAlpha" result="shadowOffsetOuter2"/><feColorMatrix values="0 0 0 0 1 0 0 0 0 1 0 0 0 0 1 0 0 0 0.395521966 0" in="shadowOffsetOuter2" result="shadowMatrixOuter2"/><feMerge><feMergeNode in="shadowMatrixOuter1"/><feMergeNode in="shadowMatrixOuter2"/></feMerge></filter><filter x="-6.5%" y="-6.5%" width="113.1%" height="113.1%" filterUnits="objectBoundingBox" id="j"><feGaussianBlur stdDeviation=".5" in="SourceAlpha" result="shadowBlurInner1"/><feOffset in="shadowBlurInner1" result="shadowOffsetInner1"/><feComposite in="shadowOffsetInner1" in2="SourceAlpha" operator="arithmetic" k2="-1" k3="1" result="shadowInnerInner1"/><feColorMatrix values="0 0 0 0 0.160784314 0 0 0 0 0.156862745 0 0 0 0 0.22745098 0 0 0 0.5 0" in="shadowInnerInner1"/></filter><path d="M7.4 6.358l-.01 2.553h.813c-.146 1.276-.427 1.322-.89 1.529-.572.255-1.156.365-1.597.35l-.027-6.984H7.14L5.02 0 2.873 3.806h1.615l-.004 9.093c-.95-.12-1.77-.34-2.09-.957-.225-.433-.52-1.276-.436-1.754.533-.235 1.006-.764 1.006-1.382 0-.836-.63-1.512-1.47-1.512S0 7.97 0 8.806c0 .62.388 1.153.924 1.385.038.506.169 1.724.548 2.269.58.837 1.581 1.156 3.043 1.475L4.5 15.383a2.55 2.55 0 0 0-1.92 2.461 2.557 2.557 0 0 0 2.563 2.553c.007 0 .014-.003.022-.003.003 0 .007.003.011.003.014 0 .026-.006.04-.008a2.553 2.553 0 0 0 2.49-2.545 2.552 2.552 0 0 0-1.993-2.483l-.017-3.3c0-.105 1.763-.326 2.583-1.037.68-.59.83-.837 1.019-2.113h.743V6.358H7.4z" id="k"/><filter x="-5%" y="-2.5%" width="110%" height="104.9%" filterUnits="objectBoundingBox" id="l"><feGaussianBlur stdDeviation=".5" in="SourceAlpha" result="shadowBlurInner1"/><feOffset in="shadowBlurInner1" result="shadowOffsetInner1"/><feComposite in="shadowOffsetInner1" in2="SourceAlpha" operator="arithmetic" k2="-1" k3="1" result="shadowInnerInner1"/><feColorMatrix values="0 0 0 0 0.152801185 0 0 0 0 0.140398217 0 0 0 0 0.203736182 0 0 0 0.5 0" in="shadowInnerInner1"/></filter><rect id="n" x="107.7" y="62.1" width="7.65" height="7.65" rx="1.023"/><filter x="0%" y="0%" width="100%" height="100%" filterUnits="objectBoundingBox" id="m"><feOffset in="SourceAlpha" result="shadowOffsetOuter1"/><feColorMatrix values="0 0 0 0 1 0 0 0 0 1 0 0 0 0 1 0 0 0 0.716995018 0" in="shadowOffsetOuter1" result="shadowMatrixOuter1"/><feOffset in="SourceAlpha" result="shadowOffsetOuter2"/><feColorMatrix values="0 0 0 0 1 0 0 0 0 1 0 0 0 0 1 0 0 0 0.395521966 0" in="shadowOffsetOuter2" result="shadowMatrixOuter2"/><feMerge><feMergeNode in="shadowMatrixOuter1"/><feMergeNode in="shadowMatrixOuter2"/></feMerge></filter><filter x="-6.5%" y="-6.5%" width="113.1%" height="113.1%" filterUnits="objectBoundingBox" id="o"><feGaussianBlur stdDeviation=".5" in="SourceAlpha" result="shadowBlurInner1"/><feOffset in="shadowBlurInner1" result="shadowOffsetInner1"/><feComposite in="shadowOffsetInner1" in2="SourceAlpha" operator="arithmetic" k2="-1" k3="1" result="shadowInnerInner1"/><feColorMatrix values="0 0 0 0 0.160784314 0 0 0 0 0.156862745 0 0 0 0 0.22745098 0 0 0 0.5 0" in="shadowInnerInner1"/></filter><path id="p" d="M107.7 64.65h7.65V66h-7.65z"/><filter x="-6.5%" y="-37%" width="113.1%" height="174.1%" filterUnits="objectBoundingBox" id="q"><feGaussianBlur stdDeviation=".5" in="SourceAlpha" result="shadowBlurInner1"/><feOffset in="shadowBlurInner1" result="shadowOffsetInner1"/><feComposite in="shadowOffsetInner1" in2="SourceAlpha" operator="arithmetic" k2="-1" k3="1" result="shadowInnerInner1"/><feColorMatrix values="0 0 0 0 0.160784314 0 0 0 0 0.156862745 0 0 0 0 0.22745098 0 0 0 0.5 0" in="shadowInnerInner1"/></filter><path id="r" d="M107.7 65.85h7.65v1.35h-7.65z"/><filter x="-6.5%" y="-37%" width="113.1%" height="174.1%" filterUnits="objectBoundingBox" id="s"><feGaussianBlur stdDeviation=".5" in="SourceAlpha" result="shadowBlurInner1"/><feOffset in="shadowBlurInner1" result="shadowOffsetInner1"/><feComposite in="shadowOffsetInner1" in2="SourceAlpha" operator="arithmetic" k2="-1" k3="1" result="shadowInnerInner1"/><feColorMatrix values="0 0 0 0 0.160784314 0 0 0 0 0.156862745 0 0 0 0 0.22745098 0 0 0 0.5 0" in="shadowInnerInner1"/></filter><path id="t" d="M107.7 82.95h7.65v1.35h-7.65z"/><filter x="-6.5%" y="-37%" width="113.1%" height="174.1%" filterUnits="objectBoundingBox" id="u"><feGaussianBlur stdDeviation=".5" in="SourceAlpha" result="shadowBlurInner1"/><feOffset in="shadowBlurInner1" result="shadowOffsetInner1"/><feComposite in="shadowOffsetInner1" in2="SourceAlpha" operator="arithmetic" k2="-1" k3="1" result="shadowInnerInner1"/><feColorMatrix values="0 0 0 0 0.160784314 0 0 0 0 0.156862745 0 0 0 0 0.22745098 0 0 0 0.5 0" in="shadowInnerInner1"/></filter><path id="v" d="M107.7 84.15h7.65v1.35h-7.65z"/><filter x="-6.5%" y="-37%" width="113.1%" height="174.1%" filterUnits="objectBoundingBox" id="w"><feGaussianBlur stdDeviation=".5" in="SourceAlpha" result="shadowBlurInner1"/><feOffset in="shadowBlurInner1" result="shadowOffsetInner1"/><feComposite in="shadowOffsetInner1" in2="SourceAlpha" operator="arithmetic" k2="-1" k3="1" result="shadowInnerInner1"/><feColorMatrix values="0 0 0 0 0.160784314 0 0 0 0 0.156862745 0 0 0 0 0.22745098 0 0 0 0.5 0" in="shadowInnerInner1"/></filter></defs><g fill="none" fill-rule="evenodd"><use fill="#D8D8D8" xlink:href="#a"/><path stroke="#979797" stroke-width=".5" d="M107.95 64.45h7.15v1h-7.15z"/><use fill="#D7DAE5" xlink:href="#b"/><use fill="#000" filter="url(#c)" xlink:href="#b"/><use fill="#5B5B68" xlink:href="#d"/><use fill="#000" filter="url(#e)" xlink:href="#d"/><use fill="#525260" xlink:href="#f"/><use fill="#000" filter="url(#g)" xlink:href="#f"/><rect fill="#525260" x="56.7" y="55.8" width="38.4" height="38.4" rx="1.279"/><use fill="#000" filter="url(#h)" xlink:href="#i"/><use fill="#C7CCD9" xlink:href="#i"/><use fill="#000" filter="url(#j)" xlink:href="#i"/><g fill="#000" transform="rotate(90 8.1 78.075)"><use fill-opacity=".22" xlink:href="#k"/><use filter="url(#l)" xlink:href="#k"/></g><use fill="#000" filter="url(#m)" xlink:href="#n"/><use fill="#C7CCD9" xlink:href="#n"/><use fill="#000" filter="url(#o)" xlink:href="#n"/><use fill="#FFFFA6" xlink:href="#p"/><use fill="#000" filter="url(#q)" xlink:href="#p"/><use fill="#BA871F" xlink:href="#r"/><use fill="#000" filter="url(#s)" xlink:href="#r"/><use fill="#FFFFA6" xlink:href="#t"/><use fill="#000" filter="url(#u)" xlink:href="#t"/><use fill="#BA871F" xlink:href="#v"/><use fill="#000" filter="url(#w)" xlink:href="#v"/></g></svg>