<svg width="150" height="150" xmlns="http://www.w3.org/2000/svg"><g fill="none" fill-rule="evenodd"><path d="M118.032 103.96s10.08.942 10.08 16.968" stroke="#373535" stroke-width="4.02"/><path d="M118.167 100.862c6.048 0 13.844 4.714 13.844 20.066" stroke="#F24327" stroke-width="4.02"/><path d="M118.032 97.9c8.065 0 18.011 7.676 18.011 23.028" stroke="#F7D442" stroke-width="4.02"/><path fill="#6D6D6D" fill-rule="nonzero" d="M27.979 63.694h86.155v60.331H27.98z"/><path fill="#848484" fill-rule="nonzero" d="M27.979 63.694L21.93 57.77V45.65l6.049-6.06h86.155l5.914 6.06v12.12l-5.914 5.925z"/><path fill="#54585E" fill-rule="nonzero" d="M21.93 57.769v60.196l6.049 6.06V63.694z"/><path fill="#464646" fill-rule="nonzero" d="M114.134 63.694v60.331l5.914-6.06V57.769z"/><path d="M57.01 54.941c-6.988 3.905-14.784 1.616-17.741-.135-2.957-1.885-20.43-16.698-22.85-18.18-2.285-1.481-2.15-3.501-2.15-6.598 0-3.906 1.882 2.828 5.914 4.713 4.032 1.885 40.457 6.33 40.457 13.063 0 1.885.806 4.578-3.63 7.137z" fill="#CCC" fill-rule="nonzero"/><path d="M57.01 52.786c-6.72 4.444-14.784 1.616-17.741-.134-2.957-1.886-20.43-16.699-22.85-18.18-2.285-1.482-3.36-5.791-.134-7.946 3.226-2.154 7.661-.808 11.694.943 4.032 1.885 20.833 8.888 26.478 12.255 5.78 3.501 9.274 8.618 2.554 13.062zm-35.214-20.2c2.822 0 5.107-1.077 5.107-2.558 0-1.347-2.285-2.559-5.107-2.559-2.823 0-5.108 1.077-5.108 2.559 0 1.481 2.285 2.558 5.108 2.558z" fill="#FFF" fill-rule="nonzero"/><path d="M26.769 30.566c-.538-1.077-2.554-2.02-4.973-2.02-2.42 0-4.57.808-5.108 2.02-.134-.134-.134-.404-.134-.538 0-1.347 2.285-2.559 5.107-2.559 2.823 0 5.108 1.077 5.108 2.559.134.269.134.404 0 .538z" fill="#CCC" fill-rule="nonzero"/><ellipse fill="#999" fill-rule="nonzero" cx="48.005" cy="46.592" rx="8.602" ry="4.848"/><path d="M39.538 46.457c.806 2.02 4.3 3.636 8.333 3.636 4.032 0 7.661-1.481 8.468-3.636.134.27.269.673.269.943 0 2.558-3.898 4.578-8.603 4.578-4.704 0-8.602-2.02-8.602-4.578 0-.27 0-.539.135-.943z" fill-rule="nonzero" fill="#666"/><path fill="#FFCC34" fill-rule="nonzero" d="M69.914 48.881v1.212h3.63v1.212h1.209v1.212h-1.21v1.212h-6.048v-1.212h4.838v-1.212h-3.629v-1.212h-1.21v-1.212h1.21v-1.212h6.049v1.212zm13.441-1.212v1.212h-4.839v1.212h3.63v1.212h-3.63v1.212h4.839v1.212h-7.258v-6.06h7.258zm7.258 1.212h1.21v2.424h-1.21v1.212h1.21v1.212h-3.63v-1.212h-1.21v1.212h-2.418v-6.06h6.048v1.212zm-1.21 0h-2.42v2.424h2.42v-2.424zm11.022-1.212v2.424h-1.21v2.424h-1.21v1.212h-2.419v-1.212h-1.21v-2.424h-1.21v-2.424h2.42v2.424h2.42v-2.424zm2.419 6.06v-1.212h-1.21v-3.636h1.21v-1.212h4.839v1.212h1.21v3.636h-1.21v1.212h-4.839zm3.63-1.212v-3.636h-2.42v3.636h2.42z"/></g></svg>