<svg width="150" height="150" xmlns="http://www.w3.org/2000/svg"><defs><linearGradient x1="-.005%" y1="50.085%" x2="99.995%" y2="50.085%" id="a"><stop stop-color="#6B7486" offset=".122%"/><stop stop-color="#CFD9DE" offset="50.72%"/><stop stop-color="#687B96" offset="100%"/></linearGradient><linearGradient x1="49.995%" y1=".395%" x2="49.995%" y2="101.17%" id="b"><stop stop-color="#95A5AC" offset="0%"/><stop stop-color="#42426A" offset="99.77%"/></linearGradient><linearGradient x1="49.976%" y1="-.183%" x2="49.976%" y2="101.951%" id="c"><stop stop-color="#B8B8B8" offset="0%"/><stop stop-color="#6E6E6E" offset="100%"/></linearGradient><linearGradient x1="49.976%" y1="99.821%" x2="49.976%" y2=".119%" id="d"><stop stop-color="#B8B8B8" offset="0%"/><stop stop-color="#6E6E6E" offset="100%"/></linearGradient><linearGradient x1=".341%" y1="50.363%" x2="100.441%" y2="50.363%" id="e"><stop stop-color="#B8B8B8" offset="0%"/><stop stop-color="#6E6E6E" offset="100%"/></linearGradient><linearGradient x1="100.849%" y1="50.363%" x2=".749%" y2="50.363%" id="f"><stop stop-color="#B8B8B8" offset="0%"/><stop stop-color="#6E6E6E" offset="100%"/></linearGradient><linearGradient x1="49.976%" y1="1.607%" x2="49.976%" y2="101.31%" id="g"><stop stop-color="#B8B8B8" offset="0%"/><stop stop-color="#6E6E6E" offset="100%"/></linearGradient><linearGradient x1="49.976%" y1="101.646%" x2="49.976%" y2="-.488%" id="h"><stop stop-color="#B8B8B8" offset="0%"/><stop stop-color="#6E6E6E" offset="100%"/></linearGradient><linearGradient x1="49.975%" y1="-.017%" x2="49.975%" y2="99.686%" id="i"><stop stop-color="#B8B8B8" offset="0%"/><stop stop-color="#6E6E6E" offset="100%"/></linearGradient><linearGradient x1="49.975%" y1="99.986%" x2="49.975%" y2=".283%" id="j"><stop stop-color="#B8B8B8" offset="0%"/><stop stop-color="#6E6E6E" offset="100%"/></linearGradient><linearGradient x1="-1.183%" y1="50.358%" x2="98.92%" y2="50.358%" id="k"><stop stop-color="#B8B8B8" offset="0%"/><stop stop-color="#6E6E6E" offset="100%"/></linearGradient><linearGradient x1="99.327%" y1="50.358%" x2="-.776%" y2="50.358%" id="l"><stop stop-color="#B8B8B8" offset="0%"/><stop stop-color="#6E6E6E" offset="100%"/></linearGradient><linearGradient x1="49.976%" y1="-.017%" x2="49.976%" y2="99.686%" id="m"><stop stop-color="#B8B8B8" offset="0%"/><stop stop-color="#6E6E6E" offset="100%"/></linearGradient><linearGradient x1="49.976%" y1="99.986%" x2="49.976%" y2=".283%" id="n"><stop stop-color="#B8B8B8" offset="0%"/><stop stop-color="#6E6E6E" offset="100%"/></linearGradient><linearGradient x1=".341%" y1="50.358%" x2="100.444%" y2="50.358%" id="o"><stop stop-color="#B8B8B8" offset="0%"/><stop stop-color="#6E6E6E" offset="100%"/></linearGradient><linearGradient x1="100.851%" y1="50.358%" x2=".749%" y2="50.358%" id="p"><stop stop-color="#B8B8B8" offset="0%"/><stop stop-color="#6E6E6E" offset="100%"/></linearGradient><radialGradient cx="49.974%" cy="50.705%" fx="49.974%" fy="50.705%" r="49.649%" gradientTransform="scale(1 .9995)" id="q"><stop stop-color="#B8B8B8" offset="0%"/><stop stop-color="#6E6E6E" offset="100%"/></radialGradient><radialGradient cx="50.554%" cy="50.064%" fx="50.554%" fy="50.064%" r="49.679%" gradientTransform="scale(1 .9995)" id="r"><stop stop-color="#B8B8B8" offset="0%"/><stop stop-color="#6E6E6E" offset="100%"/></radialGradient><radialGradient cx="50.554%" cy="51.026%" fx="50.554%" fy="51.026%" r="49.679%" gradientTransform="scale(1 .9995)" id="s"><stop stop-color="#B8B8B8" offset="0%"/><stop stop-color="#6E6E6E" offset="100%"/></radialGradient><radialGradient cx="49.974%" cy="51.026%" fx="49.974%" fy="51.026%" r="49.649%" gradientTransform="scale(1 .9995)" id="t"><stop stop-color="#B8B8B8" offset="0%"/><stop stop-color="#6E6E6E" offset="100%"/></radialGradient></defs><g transform="translate(52 24)" fill="none" fill-rule="evenodd"><path d="M45.182 4.705s0-4.296-22.489-4.296S.204 4.705.204 4.705v32.01s0-4.295 22.49-4.295c22.488 0 22.488 4.296 22.488 4.296V4.705z" fill="url(#a)"/><path d="M45.08 36.716c0-2.455-8.178-4.398-22.387-4.398C.204 32.318.204 36.716.204 36.716H45.08z" fill="url(#b)"/><path fill="url(#c)" d="M.102 9.102L4.293 4.91l4.191 4.193z" transform="translate(33.733 64.432)"/><path fill="url(#d)" d="M.102.614l4.191 4.295L8.484.614z" transform="translate(33.733 64.432)"/><path fill="url(#e)" d="M8.484.614l-4.19 4.295 4.19 4.193z" transform="translate(33.733 64.432)"/><path fill="url(#f)" d="M.102.614l4.191 4.295-4.19 4.193z" transform="translate(33.733 64.432)"/><path fill="url(#g)" d="M.102 9l4.191-4.295L8.484 9z" transform="translate(33.733 80.795)"/><path fill="url(#h)" d="M.102.511l4.191 4.194L8.484.51z" transform="translate(33.733 80.795)"/><path fill="url(#e)" d="M8.484.511l-4.19 4.194L8.483 9z" transform="translate(33.733 80.795)"/><path fill="url(#f)" d="M.102.511l4.191 4.194L.103 9z" transform="translate(33.733 80.795)"/><path fill="url(#i)" d="M.102 8.59l4.191-4.295 4.09 4.296z" transform="translate(26.578 43.977)"/><path fill="url(#j)" d="M.102 0l4.191 4.295L8.383 0z" transform="translate(26.578 43.977)"/><path fill="url(#k)" d="M8.484 0l-4.19 4.295 4.19 4.296z" transform="translate(26.578 43.977)"/><path fill="url(#l)" d="M.102 0l4.191 4.295-4.19 4.296z" transform="translate(26.578 43.977)"/><path fill="url(#m)" d="M.102 8.59l4.191-4.295 4.191 4.296z" transform="translate(10.222 43.977)"/><path fill="url(#n)" d="M.102 0l4.191 4.295L8.484 0z" transform="translate(10.222 43.977)"/><path fill="url(#o)" d="M8.484 0l-4.19 4.295 4.19 4.296z" transform="translate(10.222 43.977)"/><path fill="url(#p)" d="M.102 0l4.191 4.295-4.19 4.296z" transform="translate(10.222 43.977)"/><ellipse fill="url(#q)" cx="22.693" cy="62.182" rx="3.987" ry="3.989"/><ellipse fill="url(#r)" cx="7.564" cy="70.159" rx="3.987" ry="3.989"/><ellipse fill="url(#s)" cx="7.564" cy="85.807" rx="3.987" ry="3.989"/><ellipse fill="url(#t)" cx="22.693" cy="85.807" rx="3.987" ry="3.989"/><path d="M45.182 4.91c0-.103 0-.512-.409-1.024C43.65 2.556 39.253.41 22.693.41 6.951.41 1.943 2.25.613 3.784c-.409.511-.409.92-.409 1.023v1.636L.92 5.83s.613-.512.716-.512c0 0 5.11-2.863 21.16-2.863 15.23 0 19.626 1.738 20.955 2.76 0 0 .613.41.716.41l.92.716c-.205 0-.205-1.227-.205-1.432z" fill="#383838"/></g></svg>