<svg width="150" height="150" xmlns="http://www.w3.org/2000/svg"><g fill="none" fill-rule="evenodd"><path fill="#35363A" fill-rule="nonzero" d="M41 110.607h-2.957V119h-2.086v-8.393H33V109h8v1.607zm4.907 4.709h-1.674V119H42v-10h3.907c1.302 0 2.233.175 2.977.702.744.526.93 1.228.93 2.28 0 .702-.186 1.229-.558 1.755-.372.526-.744.877-1.489 1.052L50 118.825V119h-2.419l-1.674-3.684zm-1.674-1.58h1.674c.558 0 .93-.175 1.302-.35s.372-.702.372-1.053c0-.526-.186-.877-.372-1.052-.186-.176-.744-.351-1.302-.351h-1.674v2.807zM54 119h-2v-10h2zm44.263-4.286h-4.052v2.679H99V119h-7v-10h7v1.607h-4.79v2.5h4.053zm9.737.953a3.08 3.08 0 0 1-1.217 2.456c-.696.526-1.566.877-2.783.877-1.217 0-2.26-.35-2.957-1.228-.695-.877-1.043-2.105-1.043-3.509v-.526c0-.877.174-1.755.522-2.456.348-.702.87-1.228 1.391-1.755.522-.526 1.391-.526 2.087-.526 1.217 0 2.087.35 2.783.877.695.527 1.043 1.404 1.217 2.632h-2.087c0-.702-.174-1.053-.522-1.404-.348-.35-.695-.35-1.391-.35-.696 0-1.217.175-1.565.701-.348.526-.522 1.228-.522 2.28v.703c0 1.052.174 1.93.522 2.28.348.351.87.702 1.565.702.696 0 1.043-.175 1.391-.35.348-.176.522-.703.522-1.404H108zm9 3.333h-2.043v-4.21h-3.914V119H109v-10h2.043v4.035h3.914V109H117z"/><path fill="#252830" fill-rule="nonzero" d="M44.162 42.531h61.796v44.938H44.162zM15.993 60.754c-1.408.354-2.817 2.123-2.817 4.246 0 1.946 1.409 3.892 2.817 4.246 1.584.354 8.099 2.123 8.099 2.123V58.808l-8.099 1.946zm1.584 6.015c-.88 0-1.584-.707-1.584-1.592 0-.885.704-1.592 1.584-1.592.88 0 1.585.707 1.585 1.592 0 .708-.704 1.592-1.585 1.592zm117.078 2.477c1.408-.354 2.817-2.123 2.817-4.246 0-1.946-1.409-3.892-2.817-4.246-1.585-.354-8.099-2.123-8.099-2.123v12.561l8.099-1.946zm-1.585-5.838c.88 0 1.585.707 1.585 1.592 0 .885-.704 1.592-1.585 1.592-.88 0-1.584-.707-1.584-1.592 0-.885.704-1.592 1.584-1.592z"/><ellipse fill="#0D0D0D" fill-rule="nonzero" cx="44.162" cy="65" rx="22.359" ry="22.469"/><ellipse fill="#353535" fill-rule="nonzero" cx="44.162" cy="65" rx="22.359" ry="22.469"/><ellipse fill="#D7D8D9" fill-rule="nonzero" cx="44.162" cy="65" rx="3.873" ry="3.892"/><path d="M23.035 69.07c-1.056-5.485 0-11.324 3.521-16.278 6.69-9.73 20.07-12.207 29.93-5.484" stroke="#58595B" stroke-width="1.136" stroke-linecap="round" stroke-linejoin="round"/><path d="M55.782 76.854a16.61 16.61 0 0 0 0-23.53c-6.514-6.547-16.902-6.547-23.416 0a16.61 16.61 0 0 0 0 23.53c6.514 6.546 17.078 6.546 23.416 0z" stroke="#3F3F41" stroke-width=".55" stroke-linecap="round" stroke-linejoin="round"/><path d="M33.775 75.615c-5.81-5.838-5.81-15.215 0-20.877 5.81-5.838 15.14-5.838 20.774 0 5.81 5.839 5.81 15.216 0 20.877-5.81 5.662-15.14 5.662-20.774 0z" stroke="#3F3F41" stroke-width=".55" stroke-linecap="round" stroke-linejoin="round"/><ellipse stroke="#3F3F41" stroke-width=".55" stroke-linecap="round" stroke-linejoin="round" cx="44.162" cy="65" rx="12.852" ry="12.915"/><path d="M36.24 72.962c-4.402-4.424-4.226-11.324 0-15.747 4.4-4.423 11.267-4.423 15.668 0 4.402 4.423 4.226 11.323 0 15.747-4.225 4.246-11.267 4.246-15.669 0z" stroke="#3F3F41" stroke-width=".55" stroke-linecap="round" stroke-linejoin="round"/><ellipse stroke="#3F3F41" stroke-width=".55" stroke-linecap="round" stroke-linejoin="round" cx="44.162" cy="65" rx="9.155" ry="9.2"/><path d="M38.88 70.308c-2.817-2.831-2.817-7.608 0-10.439 2.817-2.83 7.57-2.83 10.388 0 2.817 2.831 2.817 7.608 0 10.439-2.817 2.83-7.395 2.83-10.388 0z" stroke="#3F3F41" stroke-width=".55" stroke-linecap="round" stroke-linejoin="round"/><path d="M35.183 84.638c10.74 4.954 23.592.177 28.521-10.615 2.641-5.838 2.465-12.385 0-17.87" stroke="#303032" stroke-width="1.136" stroke-linecap="round" stroke-linejoin="round"/><ellipse fill="#0D0D0D" fill-rule="nonzero" cx="105.958" cy="65" rx="22.359" ry="22.469"/><ellipse fill="#353535" fill-rule="nonzero" cx="105.958" cy="65" rx="22.359" ry="22.469"/><ellipse fill="#D7D8D9" fill-rule="nonzero" cx="105.958" cy="65" rx="3.873" ry="3.892"/><path d="M84.831 69.07c-1.056-5.485 0-11.324 3.521-16.278 6.69-9.73 20.07-12.207 29.93-5.484" stroke="#58595B" stroke-width="1.136" stroke-linecap="round" stroke-linejoin="round"/><path d="M117.754 76.854a16.61 16.61 0 0 0 0-23.53c-6.515-6.547-16.902-6.547-23.416 0a16.61 16.61 0 0 0 0 23.53c6.338 6.546 16.901 6.546 23.416 0z" stroke="#3F3F41" stroke-width=".55" stroke-linecap="round" stroke-linejoin="round"/><path d="M95.57 75.615c-5.81-5.838-5.81-15.215 0-20.877 5.81-5.838 15.141-5.838 20.775 0 5.81 5.839 5.81 15.216 0 20.877a14.828 14.828 0 0 1-20.775 0z" stroke="#3F3F41" stroke-width=".55" stroke-linecap="round" stroke-linejoin="round"/><ellipse stroke="#3F3F41" stroke-width=".55" stroke-linecap="round" stroke-linejoin="round" cx="105.958" cy="65" rx="12.852" ry="12.915"/><path d="M98.211 72.962c-4.401-4.424-4.225-11.324 0-15.747 4.402-4.423 11.268-4.423 15.67 0 4.4 4.423 4.225 11.323 0 15.747-4.402 4.246-11.444 4.246-15.67 0z" stroke="#3F3F41" stroke-width=".55" stroke-linecap="round" stroke-linejoin="round"/><ellipse stroke="#3F3F41" stroke-width=".55" stroke-linecap="round" stroke-linejoin="round" cx="105.958" cy="65" rx="9.155" ry="9.2"/><path d="M100.676 70.308c-2.817-2.831-2.817-7.608 0-10.439 2.817-2.83 7.57-2.83 10.387 0 2.817 2.831 2.817 7.608 0 10.439-2.817 2.83-7.394 2.83-10.387 0z" stroke="#3F3F41" stroke-width=".55" stroke-linecap="round" stroke-linejoin="round"/><path d="M96.979 84.638c10.74 4.954 23.591.177 28.521-10.615 2.64-5.838 2.465-12.385 0-17.87" stroke="#303032" stroke-width="1.136" stroke-linecap="round" stroke-linejoin="round"/></g></svg>