<svg width="150" height="150" xmlns="http://www.w3.org/2000/svg" xmlns:xlink="http://www.w3.org/1999/xlink"><defs><rect id="a" width="9.517" height="3.537" rx="1.768"/><path id="c" d="M0 0h3.263v3.265H0z"/><path id="e" d="M0 0h3.263v3.265H0z"/></defs><g fill="none" fill-rule="evenodd"><text fill="#838698" font-family="PingFangSC-Semibold, PingFang SC" font-size="12.96" font-weight="500"><tspan x="34" y="126">RXD</tspan></text><g transform="translate(19.8 33)"><path fill="#00979D" d="M0 0h110.4v55.5H0z"/><rect width="39.157" height="29.382" rx="1.631" fill="#000" transform="translate(17.7 13.35)"/><rect width="39.157" height="29.382" rx="1.631" fill="#EEF5FC" transform="translate(17.7 13.35)"/><rect width="9.789" height="7.89" rx=".979" fill="#000" transform="rotate(90 24.739 48.546)"/><rect width="9.789" height="7.89" rx=".979" fill="#FCCF74" transform="rotate(90 24.739 48.546)"/><path fill="#E3902A" d="M65.411 29.926h7.95v2.721h-7.95z"/><path fill="#3A3A3A" d="M72.603 39.067h1.903v2.938h-1.903z"/><path fill="#D6D6D6" d="M73.237 38.088h1v1h-1zm0 3.918h1v1h-1z"/><path fill="#FCCF74" d="M58.735 34.17h1.903v2.938h-1.903z"/><path fill="#D6D6D6" d="M59.369 33.191h1v1h-1zm0 3.919h1v1h-1z"/><path fill="#FCCF74" d="M58.735 27.097h1.903v2.938h-1.903z"/><path fill="#D6D6D6" d="M59.369 26.118h1v1h-1zm0 3.918h1v1h-1z"/><path fill="#FCCF74" d="M58.735 20.023h1.903v2.938h-1.903z"/><path fill="#D6D6D6" d="M59.369 19.044h1v1h-1zm0 3.918h1v1h-1z"/><path fill="#3A3A3A" d="M75.866 39.067h1.903v2.938h-1.903z"/><path fill="#D6D6D6" d="M76.5 38.088h1v1h-1zm0 3.918h1v1h-1z"/><path fill="#3A3A3A" d="M66.077 39.067h1.903v2.938h-1.903z"/><path fill="#D6D6D6" d="M66.71 38.088h1v1h-1zm0 3.918h1v1h-1z"/><path fill="#3A3A3A" d="M69.34 39.067h1.903v2.938H69.34z"/><path fill="#D6D6D6" d="M69.974 38.088h1v1h-1zm0 3.918h1v1h-1z"/><path fill="#3A3A3A" d="M82.366 18.364v1.903h-2.938v-1.903z"/><path fill="#D6D6D6" d="M83.345 18.998v1h-1v-1zm-3.918 0v1h-1v-1z"/><path fill="#3A3A3A" d="M82.306 22.176v1.95h-2.894v-1.95z"/><path fill="#D6D6D6" d="M83.27 22.826v1h-1v-1zm-3.858 0v1h-1v-1zm0 7.474v1h-1v-1zm0 1.3v1h-1v-1zm0 1.3v1h-1v-1zm6.109-2.6v1h-1v-1zm0 1.3v1h-1v-1zm0 1.3v1h-1v-1zm-1.751 2.433h-1v-1h1zm-1.3 0h-1v-1h1zm-1.3 0h-1v-1h1zm2.6-5.85h-1v-1h1zm-1.3 0h-1v-1h1zm-1.3 0h-1v-1h1z"/><g transform="translate(64.99 13.33)"><mask id="b" fill="#fff"><use xlink:href="#a"/></mask><g mask="url(#b)" stroke="#9494AF" stroke-width=".5" fill="#FFF"><rect width="9.517" height="3.537" rx="1.768"/></g></g><path fill="#EEF5FC" d="M94.085 13.059H110.4v29.382H94.085z"/><g transform="translate(107.137 13.059)"><mask id="d" fill="#fff"><use xlink:href="#c"/></mask><g mask="url(#d)" stroke="#B7CDD2" stroke-width=".652" fill="#C6D2DF"><path d="M0 0h3.263v3.265H0z"/></g></g><g transform="translate(107.137 39.176)"><mask id="f" fill="#fff"><use xlink:href="#e"/></mask><g mask="url(#f)" stroke="#B7CDD2" stroke-width=".652" fill="#C6D2DF"><path d="M0 0h3.263v3.265H0z"/></g></g><text transform="translate(26.547 22.268)" letter-spacing="1.2" font-size="8.631" font-family="PingFangSC-Semibold, PingFang SC" fill="#7988A1" font-weight="500"><tspan x="0" y="9">WiF</tspan> <tspan x="19.222" y="9">i</tspan></text><rect fill="#3A3A3A" x="79.401" y="29.382" width="5.438" height="5.169" rx=".652"/><path fill="#FAD46F" d="M2.887 35.386h7.864v-7.855H2.886v-6.218h7.865v-7.855H2.886V7.567h11.798v-1.31H1.904v8.183H9.44v5.89H1.903v8.183h7.538v5.891H1.903v15.383h12.78v-1.31H2.888v-5.781h11.797v-.982H2.887z"/><path fill="#A5AABE" d="M90.822 13.059h3.263v1.36h-3.263z"/><path d="M87.559 19.044h6.526v1.31h-6.526zm0 5.458h6.526v1.31h-6.526zm0 5.458h6.526v1.31h-6.526zm0 5.458h6.526v1.31h-6.526z" fill="#A9BFD2"/><path fill="#A5AABE" d="M90.822 41.081h3.263v1.36h-3.263z"/></g><text fill="#838698" font-family="PingFangSC-Semibold, PingFang SC" font-size="12.96" font-weight="500"><tspan x="90" y="127">TXD</tspan></text></g></svg>