<?xml version="1.0" encoding="UTF-8"?>
<svg width="150px" height="150px" viewBox="0 0 150 150" version="1.1" xmlns="http://www.w3.org/2000/svg" xmlns:xlink="http://www.w3.org/1999/xlink">
    <!-- Generator: Sketch 46.1 (44463) - http://www.bohemiancoding.com/sketch -->
    <title>wifi</title>
    <desc>Created with Sketch.</desc>
    <defs>
        <rect id="path-1" x="0" y="0" width="9.51724138" height="3.53676471" rx="1.76838235"></rect>
        <rect id="path-3" x="0" y="0" width="3.26305419" height="3.26470588"></rect>
        <rect id="path-5" x="0" y="0" width="3.26305419" height="3.26470588"></rect>
    </defs>
    <g id="Page-1" stroke="none" stroke-width="1" fill="none" fill-rule="evenodd">
        <g id="wifi">
            <text id="RXD" fill="#838698" font-family="PingFangSC-Semibold, PingFang SC" font-size="12.9600005" font-weight="500">
                <tspan x="34" y="126">RXD</tspan>
            </text>
            <g id="Group-4" transform="translate(19.800000, 33.000000)">
                <rect id="Rectangle-1" fill="#00979D" x="0" y="0" width="110.4" height="55.5"></rect>
                <g id="Rectangle-2-Copy" transform="translate(17.700000, 13.350000)">
                    <g id="path-1-link" fill="#000000">
                        <rect id="path-1" x="0" y="0" width="39.1566502" height="29.3823529" rx="1.63108084"></rect>
                    </g>
                    <g id="path-1-link" fill="#EEF5FC">
                        <rect id="path-1" x="0" y="2.13162821e-15" width="39.1566502" height="29.3823529" rx="1.63108084"></rect>
                    </g>
                </g>
                <g id="Rectangle-5" transform="translate(69.309754, 28.757625) rotate(90.000000) translate(-69.309754, -28.757625) translate(64.359754, 24.782625)">
                    <g id="path-3-link" fill="#000000">
                        <rect id="path-3" x="0" y="0" width="9.78916256" height="7.88970588" rx="0.978648504"></rect>
                    </g>
                    <g id="path-3-link" fill="#FCCF74">
                        <rect id="path-3" x="0" y="0" width="9.78916256" height="7.88970588" rx="0.978648504"></rect>
                    </g>
                </g>
                <rect id="Rectangle-43" fill="#E3902A" x="65.4110837" y="29.9264706" width="7.95" height="2.72058824"></rect>
                <g id="Group" transform="translate(72.602956, 38.088235)">
                    <rect id="Rectangle-6" fill="#3A3A3A" x="0" y="0.979411765" width="1.90344828" height="2.93823529"></rect>
                    <rect id="Rectangle-7" fill="#D6D6D6" x="0.634482758" y="0" width="1" height="1"></rect>
                    <rect id="Rectangle-7-Copy" fill="#D6D6D6" x="0.634482758" y="3.91764706" width="1" height="1"></rect>
                </g>
                <g id="Group-Copy-6" transform="translate(58.734975, 33.191176)">
                    <rect id="Rectangle-6" fill="#FCCF74" x="0" y="0.979411765" width="1.90344828" height="2.93823529"></rect>
                    <rect id="Rectangle-7" fill="#D6D6D6" x="0.634482758" y="0" width="1" height="1"></rect>
                    <rect id="Rectangle-7-Copy" fill="#D6D6D6" x="0.634482758" y="3.91764706" width="1" height="1"></rect>
                </g>
                <g id="Group-Copy-7" transform="translate(58.734975, 26.117647)">
                    <rect id="Rectangle-6" fill="#FCCF74" x="0" y="0.979411765" width="1.90344828" height="2.93823529"></rect>
                    <rect id="Rectangle-7" fill="#D6D6D6" x="0.634482758" y="0" width="1" height="1"></rect>
                    <rect id="Rectangle-7-Copy" fill="#D6D6D6" x="0.634482758" y="3.91764706" width="1" height="1"></rect>
                </g>
                <g id="Group-Copy-8" transform="translate(58.734975, 19.044118)">
                    <rect id="Rectangle-6" fill="#FCCF74" x="0" y="0.979411765" width="1.90344828" height="2.93823529"></rect>
                    <rect id="Rectangle-7" fill="#D6D6D6" x="0.634482758" y="0" width="1" height="1"></rect>
                    <rect id="Rectangle-7-Copy" fill="#D6D6D6" x="0.634482758" y="3.91764706" width="1" height="1"></rect>
                </g>
                <g id="Group-Copy" transform="translate(75.866010, 38.088235)">
                    <rect id="Rectangle-6" fill="#3A3A3A" x="0" y="0.979411765" width="1.90344828" height="2.93823529"></rect>
                    <rect id="Rectangle-7" fill="#D6D6D6" x="0.634482758" y="0" width="1" height="1"></rect>
                    <rect id="Rectangle-7-Copy" fill="#D6D6D6" x="0.634482758" y="3.91764706" width="1" height="1"></rect>
                </g>
                <g id="Group-Copy-2" transform="translate(66.076847, 38.088235)">
                    <rect id="Rectangle-6" fill="#3A3A3A" x="0" y="0.979411765" width="1.90344828" height="2.93823529"></rect>
                    <rect id="Rectangle-7" fill="#D6D6D6" x="0.634482758" y="0" width="1" height="1"></rect>
                    <rect id="Rectangle-7-Copy" fill="#D6D6D6" x="0.634482758" y="3.91764706" width="1" height="1"></rect>
                </g>
                <g id="Group-Copy-3" transform="translate(69.339901, 38.088235)">
                    <rect id="Rectangle-6" fill="#3A3A3A" x="0" y="0.979411765" width="1.90344828" height="2.93823529"></rect>
                    <rect id="Rectangle-7" fill="#D6D6D6" x="0.634482758" y="0" width="1" height="1"></rect>
                    <rect id="Rectangle-7-Copy" fill="#D6D6D6" x="0.634482758" y="3.91764706" width="1" height="1"></rect>
                </g>
                <g id="Group-Copy-4" transform="translate(80.870081, 19.339452) rotate(90.000000) translate(-80.870081, -19.339452) translate(79.895081, 16.864452)">
                    <rect id="Rectangle-6" fill="#3A3A3A" x="0" y="0.979411765" width="1.90344828" height="2.93823529"></rect>
                    <rect id="Rectangle-7" fill="#D6D6D6" x="0.634482758" y="0" width="1" height="1"></rect>
                    <rect id="Rectangle-7-Copy" fill="#D6D6D6" x="0.634482758" y="3.91764706" width="1" height="1"></rect>
                </g>
                <g id="Group-Copy-5" transform="translate(81.921001, 28.776166) rotate(90.000000) translate(-81.921001, -28.776166) translate(75.321001, 25.176166)">
                    <rect id="Rectangle-6" fill="#3A3A3A" x="4.26325641e-15" y="3.21524064" width="1.94987384" height="2.89371657"></rect>
                    <rect id="Rectangle-7" fill="#D6D6D6" x="0.649957947" y="2.25066845" width="1" height="1"></rect>
                    <rect id="Rectangle-7-Copy" fill="#D6D6D6" x="0.649957947" y="6.10895723" width="1" height="1"></rect>
                    <rect id="Rectangle-7-Copy-2" fill="#D6D6D6" x="8.12447435" y="6.10895723" width="1" height="1"></rect>
                    <rect id="Rectangle-7-Copy-3" fill="#D6D6D6" x="9.42439025" y="6.10895723" width="1" height="1"></rect>
                    <rect id="Rectangle-7-Copy-3" fill="#D6D6D6" x="10.7243061" y="6.10895723" width="1" height="1"></rect>
                    <rect id="Rectangle-7-Copy-6" fill="#D6D6D6" x="8.12447435" y="-8.52651283e-14" width="1" height="1"></rect>
                    <rect id="Rectangle-7-Copy-5" fill="#D6D6D6" x="9.42439025" y="-8.52651283e-14" width="1" height="1"></rect>
                    <rect id="Rectangle-7-Copy-4" fill="#D6D6D6" x="10.7243061" y="-8.52651283e-14" width="1" height="1"></rect>
                    <g id="Group-2" transform="translate(12.612380, 3.382638) rotate(90.000000) translate(-12.612380, -3.382638) translate(10.980853, 2.838521)" fill="#D6D6D6">
                        <rect id="Rectangle-7-Copy-9" x="0" y="-1.54527013e-14" width="1" height="1"></rect>
                        <rect id="Rectangle-7-Copy-8" x="1.29991589" y="-1.54527013e-14" width="1" height="1"></rect>
                        <rect id="Rectangle-7-Copy-7" x="2.59983179" y="-1.54527013e-14" width="1" height="1"></rect>
                    </g>
                    <g id="Group-2-Copy" transform="translate(6.762758, 3.382638) rotate(90.000000) translate(-6.762758, -3.382638) translate(5.131231, 2.838521)" fill="#D6D6D6">
                        <rect id="Rectangle-7-Copy-9" x="0" y="-1.54527013e-14" width="1" height="1"></rect>
                        <rect id="Rectangle-7-Copy-8" x="1.29991589" y="-1.64184951e-14" width="1" height="1"></rect>
                        <rect id="Rectangle-7-Copy-7" x="2.59983179" y="-1.64184951e-14" width="1" height="1"></rect>
                    </g>
                </g>
                <g id="Rectangle-21-Clipped" transform="translate(64.989163, 13.330882)">
                    <mask id="mask-2" fill="white">
                        <use xlink:href="#path-1"></use>
                    </mask>
                    <g id="path-5"></g>
                    <g id="Rectangle-21" mask="url(#mask-2)" stroke="#9494AF" stroke-width="0.5" fill="#FFFFFF">
                        <rect id="path-5" x="0" y="0" width="9.51724138" height="3.53676471" rx="1.76838235"></rect>
                    </g>
                </g>
                <rect id="Rectangle-35" fill="#EEF5FC" x="94.0847291" y="13.0588235" width="16.3152709" height="29.3823529"></rect>
                <g id="Rectangle-44-Clipped" transform="translate(107.136946, 13.058824)">
                    <mask id="mask-4" fill="white">
                        <use xlink:href="#path-3"></use>
                    </mask>
                    <g id="path-7"></g>
                    <g id="Rectangle-44" mask="url(#mask-4)" stroke="#B7CDD2" stroke-width="0.652432338" fill="#C6D2DF">
                        <rect id="path-7" x="0" y="0" width="3.26305419" height="3.26470588"></rect>
                    </g>
                </g>
                <g id="Rectangle-44-Copy-Clipped" transform="translate(107.136946, 39.176471)">
                    <mask id="mask-6" fill="white">
                        <use xlink:href="#path-5"></use>
                    </mask>
                    <g id="path-9"></g>
                    <g id="Rectangle-44-Copy" mask="url(#mask-6)" stroke="#B7CDD2" stroke-width="0.652432338" fill="#C6D2DF">
                        <rect id="path-9" x="0" y="0" width="3.26305419" height="3.26470588"></rect>
                    </g>
                </g>
                <g id="WiFi" transform="translate(26.547044, 22.267647)" letter-spacing="1.2" font-size="8.63100014" font-family="PingFangSC-Semibold, PingFang SC" fill="#7988A1" font-weight="500">
                    <text>
                        <tspan x="0" y="9">WiF</tspan>
                        <tspan x="19.2221102" y="9">i</tspan>
                    </text>
                </g>
                <rect id="Rectangle-38" fill="#3A3A3A" x="79.4009852" y="29.3823529" width="5.43842365" height="5.16911765" rx="0.652432338"></rect>
                <polygon id="Combined-Shape" fill="#FAD46F" points="2.88654793 35.386057 10.7513452 35.386057 10.7513452 34.7314794 10.7513452 27.5311257 10.0959454 27.5311257 2.88654793 27.5311257 2.88654793 21.3126382 10.7513452 21.3126382 10.7513452 20.6580606 10.7513452 13.4577068 10.0959454 13.4577068 2.88654793 13.4577068 2.88654793 7.56650819 14.6837438 7.56650819 14.6837438 6.25735294 1.90344828 6.25735294 1.90344828 7.07557497 1.90344828 13.6213512 1.90344828 14.4395732 9.44054566 14.4395732 9.44054566 20.3307718 1.90344828 20.3307718 1.90344828 20.9853494 1.90344828 27.8584144 1.90344828 28.512992 9.44054566 28.512992 9.44054566 34.4041907 1.90344828 34.4041907 1.90344828 35.2224125 1.90344828 48.641254 1.90344828 49.7867647 14.6837438 49.7867647 14.6837438 48.4776095 2.88654793 48.4776095 2.88654793 42.6955071 14.6837438 42.6955071 14.6837438 41.7136408 2.88654793 41.7136408"></polygon>
                <rect id="Rectangle-63" fill="#A5AABE" x="90.8216749" y="13.0588235" width="3.26305419" height="1.36029412"></rect>
                <g id="Group-3" transform="translate(87.558621, 19.044118)" fill="#A9BFD2">
                    <rect id="Rectangle-63-Copy-2" x="0" y="0" width="6.52610837" height="1.30991285"></rect>
                    <rect id="Rectangle-63-Copy-3" x="0" y="5.45797023" width="6.52610837" height="1.30991285"></rect>
                    <rect id="Rectangle-63-Copy-4" x="0" y="10.9159405" width="6.52610837" height="1.30991285"></rect>
                    <rect id="Rectangle-63-Copy-5" x="0" y="16.3739107" width="6.52610837" height="1.30991285"></rect>
                </g>
                <rect id="Rectangle-63-Copy" fill="#A5AABE" x="90.8216749" y="41.0808824" width="3.26305419" height="1.36029412"></rect>
            </g>
            <text id="TXD" fill="#838698" font-family="PingFangSC-Semibold, PingFang SC" font-size="12.9600005" font-weight="500">
                <tspan x="90" y="127">TXD</tspan>
            </text>
        </g>
    </g>
</svg>