<?xml version="1.0" standalone="no"?>
<!DOCTYPE svg PUBLIC "-//W3C//DTD SVG 1.1//EN" "http://www.w3.org/Graphics/SVG/1.1/DTD/svg11.dtd" >
<!--
2013-9-30: Created.
-->
<svg>
<metadata>
Created by iconfont
</metadata>
<defs>

<font id="kenrobot" horiz-adv-x="1024" >
  <font-face
    font-family="kenrobot"
    font-weight="500"
    font-stretch="normal"
    units-per-em="1024"
    ascent="896"
    descent="-128"
  />
    <missing-glyph />
    
    <glyph glyph-name="x" unicode="x" horiz-adv-x="1001"
d="M281 543q-27 -1 -53 -1h-83q-18 0 -36.5 -6t-32.5 -18.5t-23 -32t-9 -45.5v-76h912v41q0 16 -0.5 30t-0.5 18q0 13 -5 29t-17 29.5t-31.5 22.5t-49.5 9h-133v-97h-438v97zM955 310v-52q0 -23 0.5 -52t0.5 -58t-10.5 -47.5t-26 -30t-33 -16t-31.5 -4.5q-14 -1 -29.5 -0.5
t-29.5 0.5h-32l-45 128h-439l-44 -128h-29h-34q-20 0 -45 1q-25 0 -41 9.5t-25.5 23t-13.5 29.5t-4 30v167h911zM163 247q-12 0 -21 -8.5t-9 -21.5t9 -21.5t21 -8.5q13 0 22 8.5t9 21.5t-9 21.5t-22 8.5zM316 123q-8 -26 -14 -48q-5 -19 -10.5 -37t-7.5 -25t-3 -15t1 -14.5
t9.5 -10.5t21.5 -4h37h67h81h80h64h36q23 0 34 12t2 38q-5 13 -9.5 30.5t-9.5 34.5q-5 19 -11 39h-368zM336 498v228q0 11 2.5 23t10 21.5t20.5 15.5t34 6h188q31 0 51.5 -14.5t20.5 -52.5v-227h-327z" />
    

    
    <glyph glyph-name="add" unicode="&#58981;" d="M480.64 415.36H168v-62.72h312.64V40h62.72V352.64H856v62.72H543.36V728h-62.72v-312.64z"  horiz-adv-x="1024" />

    
    <glyph glyph-name="answer" unicode="&#58982;" d="M474.408 164.074a24.196 24.196 0 0 0-6.822-20.428l-0.21-0.168a24.7 24.7 0 0 0-17.792-7.62 24.49 24.49 0 0 0-18.922 9.252L184.254 414.124a24.406 24.406 0 0 0-7.116 18.838 24.364 24.364 0 0 0 7.116 18.84L432.044 722.32c9.872 9.712 25.71 9.712 35.582 0a24.28 24.28 0 0 0 6.782-20.43v-145.684c205.716 0 372.5-166.03 372.5-370.908a367.978 367.978 0 0 0-30.896-147.694c-29.388 154.474-177.5 271.818-341.184 271.818l-0.42-145.35z"  horiz-adv-x="1024" />

    
    <glyph glyph-name="clear" unicode="&#58983;" d="M422 711c0 19.33 15.66 35 35 35h110c19.33 0 35-15.666 35-35V676h-180V711zM248 628c0 26.51 21.476 48 47.992 48h432.016C754.514 676 776 654.52 776 628v-48c0-26.51-21.476-48-47.992-48H295.992C269.486 532 248 553.48 248 580v48z m34-110h460v-444.002C742 45.28 718.714 22 690.014 22H333.986C305.274 22 282 45.3 282 73.998V518z m106-53.996v-354.008c0-9.94 8.06-17.996 18-17.996 9.944 0 18 8.058 18 17.996V464.004c0 9.94-8.06 17.996-18 17.996-9.944 0-18-8.058-18-17.996z m106 0v-354.008c0-9.94 8.06-17.996 18-17.996 9.944 0 18 8.058 18 17.996V464.004c0 9.94-8.06 17.996-18 17.996-9.944 0-18-8.058-18-17.996z m106 0v-354.008c0-9.94 8.06-17.996 18-17.996 9.944 0 18 8.058 18 17.996V464.004c0 9.94-8.06 17.996-18 17.996-9.944 0-18-8.058-18-17.996z"  horiz-adv-x="1024" />

    
    <glyph glyph-name="check" unicode="&#58984;" d="M436.096 140.086l0.522-0.522L845.234 548.18l-84.852 84.854L431.5 304.152l-167.882 167.88-84.852-84.852 252.212-252.214 5.12 5.12z"  horiz-adv-x="1024" />

    
    <glyph glyph-name="build" unicode="&#58985;" d="M188.522 426.87h60.384v-332.102H188.52v332.1z m586.572 0h60.384v-332.102h-60.384v332.1zM188.522 94.768h646.954v-51.758H188.522v51.758z m116.454 207.024h77.634v-77.634h-77.634v77.634z m172.52 0h77.634v-77.634h-77.634v77.634z m-86.26-103.512h77.634v-77.634h-77.634V198.28z m172.52 0h77.634v-77.634h-77.634V198.28z m86.26 103.512h77.634v-77.634h-77.634v77.634z m-86.26 189.774V724.468h-103.512v-232.902h-64.696L512 383.74l116.452 107.826h-64.696z"  horiz-adv-x="1024" />

    
    <glyph glyph-name="Arduino" unicode="&#58986;" d="M268.284 388.082h109.206v-32.968h-109.206v32.968z m449.18 0v39.148H684.5v-39.148h-39.148v-32.968h39.148v-37.09h32.964v37.09h39.148v32.968h-39.148z m-12.36 164.84c-65.934 0-135.992-32.97-193.68-115.388-55.634 82.418-127.75 115.386-193.684 115.386-76.238 0-164.84-43.268-185.442-156.6v-49.448c0-4.122 6.18-26.786 10.302-39.148 37.09-84.48 113.326-115.386 175.14-115.386 67.994 0 135.99 35.024 195.742 115.386 57.694-84.48 127.75-115.386 193.682-115.386 92.724 0 185.444 72.116 185.444 181.32 0 103.022-86.542 179.264-187.504 179.264zM457.848 342.75c-47.39-61.814-88.6-86.54-140.116-86.54-4.12 0-20.606 2.056-30.908 4.12-39.148 2.06-90.66 63.874-90.66 88.602v47.39c14.424 70.056 76.238 92.722 121.566 92.722 24.726 0 22.664 4.122 51.51-8.244 16.484-6.18 35.026-20.606 53.572-35.024 0 0 53.572-61.816 53.572-72.116 0-6.18-12.366-20.606-18.544-30.908l0.008-0.002z m249.316-86.54c-49.45 0-86.54 18.544-135.992 78.298-8.242 12.366-20.604 32.968-20.604 39.148 0 4.122 12.366 24.726 20.604 37.09 41.21 57.692 86.542 78.3 135.992 78.3 65.934 0 123.624-47.39 123.624-115.386 0-72.116-63.874-117.448-123.624-117.448v-0.004z"  horiz-adv-x="1024" />

    
    <glyph glyph-name="close" unicode="&#58987;" d="M754.7 590.376L709.204 638 512 431.626 314.796 638l-45.496-47.624 197.204-206.378-197.204-206.374L314.796 130 512 336.374 709.204 130l45.496 47.624-197.204 206.374z"  horiz-adv-x="1024" />

    
    <glyph glyph-name="clone" unicode="&#58988;" d="M465.002 715.678v-47.442h94.888v47.44h-94.888z m-142.33 0v-47.442h94.888v47.44h-94.888z m-142.328-284.66v-94.888h47.44V431.02h-47.44z m0 142.33v-94.886h47.44v94.886h-47.44z m474.43 94.888v-47.444h47.444V715.68h-94.888v-47.442h47.442l0.002-0.002zM180.344 241.246v-47.442h94.886v47.442h-47.44v47.442H180.344v-47.442h-0.002z m0 474.432v-94.888h47.44v47.442h47.444V715.676H180.34h0.004z m189.772-189.772h426.988v-426.99H370.116V525.906z m-47.444 47.442v-521.876h521.876V573.348H322.672z"  horiz-adv-x="1024" />

    
    <glyph glyph-name="comment" unicode="&#58989;" d="M512 719.152c-191.03 0-345.89-134.196-345.89-299.724 0-97.954 54.22-184.93 138.068-239.62-0.392-44.408 0.004-131.48 0.004-131.48s83.84 54.728 124.78 80.06c26.6-5.678 54.412-8.694 83.038-8.694 191.03 0 345.89 134.194 345.89 299.734 0 165.528-154.86 299.722-345.89 299.722zM346.168 373.6c-25.44 0-46.062 20.494-46.062 45.796 0 25.29 20.624 45.8 46.06 45.8 25.44 0 46.064-20.51 46.064-45.8 0-25.302-20.624-45.796-46.062-45.796z m172.85 0c-25.44 0-46.06 20.494-46.06 45.796 0 25.29 20.62 45.8 46.06 45.8 25.438 0 46.062-20.51 46.062-45.8 0-25.302-20.626-45.796-46.06-45.796z m172.848 0c-25.436 0-46.06 20.494-46.06 45.796 0 25.29 20.624 45.8 46.06 45.8 25.44 0 46.062-20.51 46.062-45.8 0-25.302-20.624-45.796-46.06-45.796z"  horiz-adv-x="1024" />

    
    <glyph glyph-name="delete" unicode="&#58990;" d="M723.552 666.268h-123.424v17.676c0 29.242-23.73 53.028-52.896 53.028H476.7c-29.168 0-52.896-23.788-52.896-53.028v-17.676h-123.422c-29.168 0-52.898-23.79-52.898-53.028v-35.354c0-23.06 14.744-42.704 35.268-49.99v-444.94c0-29.246 23.726-53.03 52.892-53.03h352.648c29.172 0 52.9 23.786 52.9 53.028v444.94c20.524 7.284 35.26 26.93 35.26 49.992V613.24c0 29.24-23.728 53.028-52.894 53.028h-0.006z m-264.482 17.672c0 9.736 7.884 17.68 17.63 17.68h70.53c9.708 0 17.63-7.942 17.63-17.68v-17.674h-105.79v17.674z m229.218-618.664H335.638c-9.746 0-17.63 7.94-17.63 17.68v441.9H705.92v-441.9c0-9.738-7.92-17.68-17.63-17.68z m52.898 512.608c0-9.732-7.92-17.674-17.632-17.674H300.38c-9.748 0-17.63 7.942-17.63 17.674V613.24c0 9.736 7.884 17.674 17.63 17.674h423.174c9.71 0 17.632-7.938 17.632-17.674v-35.356z m-123.428-88.38c-9.712 0-17.63-7.938-17.63-17.68v-353.518c0-9.736 7.918-17.68 17.63-17.68s17.632 7.942 17.632 17.68v353.52c0 9.74-7.92 17.678-17.632 17.678z m-105.792 0c-9.748 0-17.632-7.938-17.632-17.68v-353.518c0-9.736 7.886-17.68 17.632-17.68 9.744 0 17.63 7.942 17.63 17.68v353.52c0 9.74-7.886 17.678-17.63 17.678z m-105.794 0c-9.748 0-17.634-7.938-17.634-17.68v-353.518c0-9.736 7.888-17.68 17.634-17.68 9.742 0 17.628 7.942 17.628 17.68v353.52c0 9.74-7.882 17.678-17.628 17.678z"  horiz-adv-x="1024" />

    
    <glyph glyph-name="component" unicode="&#58991;" d="M388.692 613.71V721.106a17.9 17.9 0 0 0 17.9 17.9 17.898 17.898 0 0 0 17.9-17.9v-107.396h69.608V721.106a17.9 17.9 0 0 0 17.9 17.9 17.898 17.898 0 0 0 17.9-17.9v-107.396h69.608V721.106a17.9 17.9 0 0 0 17.9 17.9 17.898 17.898 0 0 0 17.9-17.9v-107.396h85.532c10.976 0 19.876-8.908 19.876-19.876v-417.68c0-10.976-8.908-19.874-19.876-19.874H303.16c-10.976 0-19.876 8.906-19.876 19.874v417.68c0 10.976 8.908 19.876 19.876 19.876h85.532z m-55.686-97.444v-262.542c0-26.336 21.366-47.724 47.722-47.724h262.544c26.334 0 47.722 21.366 47.722 47.724v262.54c0 26.336-21.366 47.724-47.722 47.724H380.728c-26.334 0-47.722-21.366-47.722-47.722z m37.788-33.82c0 10.984 8.92 19.89 19.906 19.89h135.204c10.994 0 19.906-8.902 19.906-19.89 0-10.984-8.92-19.888-19.906-19.888H390.7c-10.994 0-19.906 8.902-19.906 19.888z m-87.51-79.552v-35.8H173.9a17.9 17.9 0 0 0-17.9 17.9 17.898 17.898 0 0 0 17.9 17.9h109.384z m0-105.408v-35.8H173.9a17.9 17.9 0 0 0-17.9 17.9 17.898 17.898 0 0 0 17.9 17.9h109.384z m0 210.816v-35.8H173.9a17.9 17.9 0 0 0-17.9 17.9 17.898 17.898 0 0 0 17.9 17.9h109.384z m566.816-105.408a17.9 17.9 0 0 0 17.9-17.9 17.898 17.898 0 0 0-17.9-17.9h-109.384v35.8h109.384z m0-105.408a17.9 17.9 0 0 0 17.9-17.9 17.898 17.898 0 0 0-17.9-17.9h-109.384v35.8h109.384z m0 210.816a17.9 17.9 0 0 0 17.9-17.9 17.898 17.898 0 0 0-17.9-17.9h-109.384v35.8h109.384z m-356-352.022h35.8v-109.386a17.9 17.9 0 0 0-17.9-17.9 17.898 17.898 0 0 0-17.9 17.9V156.28z m105.408 0h35.8v-109.386a17.9 17.9 0 0 0-17.9-17.9 17.898 17.898 0 0 0-17.9 17.9V156.28z m-210.816 0h35.8v-109.386a17.9 17.9 0 0 0-17.9-17.9 17.898 17.898 0 0 0-17.9 17.9V156.28z m-17.9 258.546c0 10.984 8.896 19.89 19.878 19.89h73.61c10.978 0 19.876-8.902 19.876-19.89 0-10.984-8.894-19.888-19.876-19.888h-73.61c-10.978 0-19.876 8.902-19.876 19.888z m157.12-131.26c0 10.982 8.91 19.886 19.886 19.886h61.654c10.984 0 19.888-8.9 19.888-19.888 0-10.984-8.912-19.888-19.888-19.888H547.8c-10.984 0-19.888 8.9-19.888 19.888z"  horiz-adv-x="1024" />

    
    <glyph glyph-name="demo" unicode="&#58992;" d="M814 437.02v130.354l-172.586 172.582H361c-35.744 0-64.75-29.004-64.75-64.75h-21.582c-35.746 0-64.752-29.006-64.752-64.75v-173.52C179.29 431.814 156 405.196 156 373.122v-258.832c0-35.746 29.004-86.248 64.752-86.248h582.498c35.744 0 64.75 29.004 64.75 64.75V373.208c-0.088 32.078-23.376 58.694-54 63.812z m-517.75 0.94h-53.914v161.746c0 23.8 19.28 43.168 43.166 43.168h10.75v-204.916z m485.414 0h-133.168c-14.586-61.85-70.126-107.834-136.496-107.834-66.372 0-121.824 45.982-136.496 107.832h-46.92V664.46c0 23.8 19.28 43.166 43.166 43.166h269.664v-75.5c0-35.744 29.006-64.75 64.754-64.75h75.5v-129.416h-0.004z"  horiz-adv-x="1024" />

    
    <glyph glyph-name="download" unicode="&#58993;" d="M754.02 448.006h-144.812V688.09h-193.09v-240.084h-144.81l241.356-240.058L754.02 448.006h-0.004z m-482.714-432.08h482.078v96H271.306v-96z"  horiz-adv-x="1024" />

    
    <glyph glyph-name="details" unicode="&#58994;" d="M346.05 246.986c-13.26 0-26.518-13.26-26.518-26.52 0-13.258 13.26-26.516 26.52-26.516s26.518 13.26 26.518 26.518c0 17.68-8.84 26.52-26.52 26.52z m0 327.064c-13.26 0-26.518-13.26-26.518-26.518 0-13.26 13.26-26.52 26.52-26.52s26.518 13.26 26.518 26.52-8.84 26.52-26.52 26.52z m0-163.532c-13.26 0-26.518-13.26-26.518-26.518 0-13.26 13.26-26.52 26.52-26.52s26.518 13.26 26.518 26.52-8.84 26.52-26.52 26.52z m406.62 327.064H266.496C204.62 737.582 156 688.966 156 627.088v-490.596c0-57.458 48.618-106.074 110.494-106.074h490.596c61.878 0 110.496 48.616 110.496 110.494V627.088c-4.42 61.878-53.038 110.494-114.914 110.494z m57.46-596.67c0-30.94-26.52-53.038-53.04-53.038H266.494c-30.938 0-53.036 26.52-53.036 53.038V627.088c0 30.94 26.518 53.038 53.036 53.038h490.596c30.94 0 53.04-26.52 53.04-53.038v-486.176z m-137.014 433.14H456.546c-17.68 0-26.52-13.26-26.52-26.52s13.26-26.52 26.52-26.52h216.57c13.26 0 26.518 13.26 26.518 26.52s-13.26 26.52-26.52 26.52z m0-163.534H456.546c-17.68 0-26.52-13.26-26.52-26.518 0-13.26 13.26-26.52 26.52-26.52h216.57c13.26 0 26.518 13.26 26.518 26.52s-13.26 26.52-26.52 26.52z m0-163.532H456.546c-13.26 0-26.52-13.26-26.52-26.52 0-13.258 13.26-26.516 26.52-26.516h216.57c13.26 0 26.518 13.26 26.518 26.518 0 17.68-13.26 26.52-26.52 26.52z"  horiz-adv-x="1024" />

    
    <glyph glyph-name="edu-block" unicode="&#58995;" d="M208.152 570.576h437.112c20.582 0 37.32 16.706 37.32 37.314 0 20.568-16.71 37.316-37.32 37.316H208.152c-20.582 0-37.32-16.706-37.32-37.316 0-20.566 16.71-37.314 37.32-37.314zM208.124 421.316h607.752c20.592 0 37.29 16.706 37.29 37.314 0 20.568-16.696 37.316-37.29 37.316H208.124c-20.594 0-37.292-16.706-37.292-37.316 0-20.566 16.696-37.314 37.292-37.314zM208.152 272.054h437.112c20.582 0 37.32 16.708 37.32 37.316 0 20.566-16.71 37.316-37.32 37.316H208.152c-20.582 0-37.32-16.708-37.32-37.316 0-20.566 16.71-37.316 37.32-37.316zM208.124 122.794h607.752c20.592 0 37.29 16.706 37.29 37.316 0 20.566-16.696 37.314-37.29 37.314H208.124c-20.594 0-37.292-16.706-37.292-37.314 0-20.568 16.696-37.316 37.292-37.316z"  horiz-adv-x="1024" />

    
    <glyph glyph-name="edu-code" unicode="&#58996;" d="M815.8 693.746H165.616c-21.448 0-38.82-17.39-38.82-38.816v-543.44c0-21.448 17.372-38.82 38.82-38.82H815.8c21.426 0 38.816 17.372 38.816 38.82v543.44c0 21.426-17.39 38.816-38.818 38.816z m-85.708-48.596c16.904 0 30.626-13.722 30.626-30.666 0-16.904-13.72-30.624-30.626-30.624-16.944 0-30.664 13.72-30.664 30.624 0 16.944 13.72 30.666 30.664 30.666z m-86.542 0c16.944 0 30.664-13.722 30.664-30.666 0-16.904-13.72-30.624-30.664-30.624-16.904 0-30.626 13.72-30.626 30.624 0 16.944 13.72 30.666 30.626 30.666z m-86.544 0c16.942 0 30.664-13.722 30.664-30.666 0-16.904-13.72-30.624-30.664-30.624-16.904 0-30.626 13.72-30.626 30.624 0 16.944 13.72 30.666 30.626 30.666z m219.978-494.844H204.43V544.962h572.554v-394.656z m-422.12 58.188a29.02 29.02 0 0 0-20.592 8.52c-11.372 11.372-11.372 29.792 0 41.166l92.988 92.986-92.988 92.986c-11.372 11.372-11.372 29.794 0 41.166 11.374 11.372 29.794 11.372 41.166 0l113.58-113.58c11.372-11.372 11.372-29.792 0-41.166l-113.58-113.58a29.084 29.084 0 0 0-20.572-8.5z m304.076 0h-148.804c-16.07 0-29.114 13.042-29.114 29.112s13.044 29.114 29.114 29.114h148.804c16.07 0 29.114-13.044 29.114-29.114s-13.044-29.112-29.114-29.112z"  horiz-adv-x="1024" />

    
    <glyph glyph-name="edu-help" unicode="&#58997;" d="M401.26 180.436h231.58s-6.238 29.722 34.418 87.648c0 0 178.426 222.178-50.046 350.492 0 0-142.386 89.202-275.408-59.458 0 0-86.06-98.58-18.78-223.776 0 0 42.254-78.236 57.904-95.46 0.012-0.014 18.78-28.182 20.334-59.448z m6.284-39.946h215.14c24.262 22.732 0 31.288 0 31.288h-215.14c-22.71-14.84 0-31.288 0-31.288z m0-43.008h215.14c24.262 22.698 0 31.3 0 31.3h-215.14c-22.71-14.874 0-31.3 0-31.3z m0-43.008h215.14c24.262 22.664 0 31.254 0 31.254h-215.14c-22.71-14.86 0-31.254 0-31.254z m35.206-42.242c8.6 0 19.556-4.74 19.556-4.74 26.592-21.886 53.152-23.44 53.152-23.44 17.156 2.306 51.688 21.92 51.688 21.92 8.59 10.144 18.79 4.638 18.79 4.638 28.9 16.438 0 29.768 0 29.768h-143.186c-25.828-14.084 0-28.146 0-28.146z m-159.878 190.58l38.6 38.612s3.86 34.462-24.15 18.8l-35.912-35.934c0.01 0-5.656-27.712 21.462-21.476zM187.948 414.586h56.34s21.896 13.57 0 29.198h-56.34s-19.83-14.588 0-29.198z m80.326 253.466l39.65-38.6s20.86-5.22 21.898 19.294l-38.54 39.124s-31.368 12.508-23.008-19.82z m232.63 46.936s10.43-15.648 29.208 0V774.432s-17.728 19.83-29.208 0v-59.446z m217.368-79.676l38.232 38.22c8.306 29.474-20.344 19.044-20.344 19.044l-38.094-38.108c-2.09-26.09 20.206-19.156 20.206-19.156z m59.056-216.602h58.44c20.836 17.728 0 25.06 0 25.06h-58.44c-13.58-11.4 0-25.06 0-25.06z m-72.912-178.314l38.472-38.472c26.114 0.228 19.83 22.754 19.83 22.754l-39.626 39.64c-28.17 1.004-18.678-23.92-18.678-23.92z"  horiz-adv-x="1024" />

    
    <glyph glyph-name="edu-project" unicode="&#58998;" d="M882.288 164.866c0-28.3-23.666-51.216-52.858-51.216H195.556c-29.192 0-52.858 22.92-52.858 51.216V318.66c0 9.54 3.4 17.948 8.088 25.588-4.686 7.69-8.088 16.148-8.088 25.682l105.618 307.6c0.05 28.35 23.714 51.266 52.856 51.266h422.598c29.19 0 52.856-22.916 52.856-51.264l105.664-307.6c0-9.536-3.352-17.994-8.086-25.684 4.738-7.64 8.086-16.048 8.086-25.586v-153.796h-0.002z m-158.52 410.078c0 28.406-23.62 51.32-52.756 51.32h-317.04c-29.188 0-52.804-22.916-52.804-51.32L248.36 369.932h158.514v-100.944c0-28.304 23.67-51.268 52.808-51.268h105.566c29.186 0 52.858 22.964 52.858 51.268v100.942h158.514l-52.856 205.014h0.002z m-371.418-152.158h318.664v49.68H352.35v-49.68z m0 102.48h318.664v49.678H352.35v-49.68z"  horiz-adv-x="1024" />

    
    <glyph glyph-name="edu-share" unicode="&#58999;" d="M738.482 260.594c-29.052 0-55.282-12.064-73.998-31.42l-277.316 138.65a103.68 103.68 0 0 1 1.296 16.286c0 5.54-0.452 10.994-1.296 16.286l277.316 138.65c18.716-19.354 44.948-31.42 74-31.42 56.846 0 102.944 46.1 102.944 102.946 0 56.848-46.1 102.946-102.946 102.946s-102.946-46.1-102.946-102.946c0-5.54 0.452-10.994 1.296-16.286l-277.316-138.65c-18.716 19.354-44.948 31.42-74 31.42-56.846 0-102.944-46.1-102.944-102.946 0-56.848 46.1-102.946 102.946-102.946 29.052 0 55.282 12.064 73.998 31.42l277.316-138.65a103.672 103.672 0 0 1-1.296-16.286c0-56.848 46.1-102.946 102.946-102.946 56.848 0 102.946 46.1 102.946 102.946 0 56.848-46.1 102.946-102.946 102.946z"  horiz-adv-x="1024" />

    
    <glyph glyph-name="edu-hardware" unicode="&#59000;" d="M272.562 573.342c0 27.606 22.338 49.986 49.986 49.986h379.794c27.606 0 49.986-22.336 49.986-49.986v-379.794c0-27.606-22.336-49.986-49.986-49.986H322.548c-27.606 0-49.986 22.338-49.986 49.986V573.342z m202.448-14.982h14.9c6.98 0 12.54 5.594 12.54 12.494 0 6.948-5.614 12.494-12.54 12.494h-14.9a12.482 12.482 0 0 1-12.54-12.494c0-6.948 5.614-12.494 12.54-12.494z m-137.89-65.888c-0.054 1.78-0.11 3.79-0.16 5.988a753.7 753.7 0 0 0-0.194 26.74c0.066 5.2 0.204 9.94 0.42 14.114 0.246 4.766 1.57 11.534 7.484 16.13 2.49 1.932 10.236 3.102 12.964 4.528 1.596 0.834 6.832-0.2 7.34 0h24.832l46.09-0.686a12.494 12.494 0 1 1 0 24.988h-85.026l-2.214-0.874c-4.58-1.812-10.916-5.124-17.358-10.128-11.106-8.628-18.382-19.412-19.066-32.67-0.234-4.528-0.38-9.586-0.45-15.088-0.112-8.89-0.022-18.374 0.196-27.642a823.54 823.54 0 0 1 0.246-8.508 12.494 12.494 0 1 1 24.97 0.926c-0.014 0.38-0.04 1.124-0.072 2.184zM684.86 763.26c12.42 0 22.49-10.048 22.49-22.516v-64.916c0-12.436-10.094-22.516-22.488-22.516-12.42 0-22.49 10.048-22.49 22.516V740.744c0 12.436 10.094 22.516 22.49 22.516z m-114.942 0c12.42 0 22.488-10.048 22.488-22.516v-64.916c0-12.436-10.094-22.516-22.488-22.516-12.42 0-22.49 10.048-22.49 22.516V740.744c0 12.436 10.094 22.516 22.49 22.516z m-114.944 0c12.42 0 22.488-10.048 22.488-22.516v-64.916c0-12.436-10.094-22.516-22.488-22.516-12.42 0-22.49 10.048-22.49 22.516V740.744c0 12.436 10.094 22.516 22.49 22.516z m-114.944 0c12.42 0 22.488-10.048 22.488-22.516v-64.916c0-12.436-10.094-22.516-22.488-22.516-12.42 0-22.49 10.048-22.49 22.516V740.744c0 12.436 10.094 22.516 22.49 22.516z m442.284-207.4c0 12.42 10.048 22.49 22.514 22.49h64.918c12.434 0 22.514-10.094 22.514-22.488 0-12.42-10.048-22.49-22.514-22.49h-64.918c-12.434 0-22.514 10.094-22.514 22.49z m0-114.942c0 12.42 10.048 22.488 22.514 22.488h64.918c12.434 0 22.514-10.094 22.514-22.488 0-12.42-10.048-22.49-22.514-22.49h-64.918c-12.434 0-22.514 10.094-22.514 22.49z m0-114.944c0 12.42 10.048 22.488 22.514 22.488h64.918c12.434 0 22.514-10.094 22.514-22.488 0-12.42-10.048-22.49-22.514-22.49h-64.918c-12.434 0-22.514 10.094-22.514 22.49z m0-114.944c0 12.42 10.048 22.488 22.514 22.488h64.918c12.434 0 22.514-10.094 22.514-22.488 0-12.42-10.048-22.49-22.514-22.49h-64.918c-12.434 0-22.514 10.094-22.514 22.49zM132.63 555.86c0 12.42 10.048 22.488 22.516 22.488h64.916c12.436 0 22.516-10.094 22.516-22.488 0-12.42-10.048-22.49-22.516-22.49H155.146c-12.436 0-22.516 10.094-22.516 22.49z m0-114.944c0 12.42 10.048 22.488 22.516 22.488h64.916c12.436 0 22.516-10.094 22.516-22.488 0-12.42-10.048-22.49-22.516-22.49H155.146c-12.436 0-22.516 10.094-22.516 22.49z m0-114.944c0 12.42 10.048 22.488 22.516 22.488h64.916c12.436 0 22.516-10.094 22.516-22.488 0-12.42-10.048-22.49-22.516-22.49H155.146c-12.436 0-22.516 10.094-22.516 22.49z m0-114.944c0 12.42 10.048 22.488 22.516 22.488h64.916c12.436 0 22.516-10.094 22.516-22.488 0-12.42-10.048-22.49-22.516-22.49H155.146c-12.436 0-22.516 10.094-22.516 22.49z m322.344-97.454c12.42 0 22.488-10.048 22.488-22.514v-64.918c0-12.434-10.094-22.514-22.488-22.514-12.42 0-22.49 10.048-22.49 22.514v64.92c0 12.432 10.094 22.512 22.49 22.512z m114.944 0c12.42 0 22.488-10.048 22.488-22.514v-64.918c0-12.434-10.094-22.514-22.488-22.514-12.42 0-22.49 10.048-22.49 22.514v64.92c0 12.432 10.094 22.512 22.49 22.512z m114.944 0c12.42 0 22.488-10.048 22.488-22.514v-64.918c0-12.434-10.094-22.514-22.488-22.514-12.42 0-22.49 10.048-22.49 22.514v64.92c0 12.432 10.094 22.512 22.49 22.512z m-344.832 0c12.42 0 22.488-10.048 22.488-22.514v-64.918c0-12.434-10.094-22.514-22.488-22.514-12.42 0-22.49 10.048-22.49 22.514v64.92c0 12.432 10.094 22.512 22.49 22.512z"  horiz-adv-x="1024" />

    
    <glyph glyph-name="emoji" unicode="&#59001;" d="M865.976 421.826C845.204 617.112 669.88 758.488 474.384 737.604c-195.496-20.886-337.148-196.128-316.36-391.43 20.772-195.286 196.094-336.662 391.608-315.778 195.48 20.886 337.132 196.144 316.344 391.43z m-248.92 107.706c31.246 0 56.576-25.332 56.576-56.578 0-31.246-25.33-56.576-56.578-56.576-31.246 0-56.576 25.33-56.576 56.576 0 31.246 25.33 56.578 56.576 56.578z m-210.142 0c31.246 0 56.576-25.332 56.576-56.578 0-31.246-25.33-56.576-56.576-56.576-31.248 0-56.578 25.33-56.578 56.576 0 31.246 25.33 56.578 56.578 56.578zM686.4 287.546c-17.264-76.702-95.292-129.788-174.42-129.788-81.986 0-159.624 54.524-175.126 132.874 0 21.176 16.164 28.774 26.12 28.774h294.006c7.24-0.016 34.932-2.522 29.42-31.86z"  horiz-adv-x="1024" />

    
    <glyph glyph-name="enter" unicode="&#59002;" d="M632.466 130.036l222.5 222.5c17.38 17.378 17.38 45.552 0 62.932l-222.5 222.5c-17.38 17.374-45.554 17.374-62.932 0-17.38-17.38-17.38-45.556 0-62.934l146.532-146.534H200.5C175.92 428.5 156 408.58 156 384c0-24.574 19.92-44.5 44.5-44.5h515.564l-146.532-146.53a44.376 44.376 0 0 1-13.032-31.468 44.36 44.36 0 0 1 13.032-31.466c17.38-17.38 45.556-17.38 62.934 0z"  horiz-adv-x="1024" />

    
    <glyph glyph-name="format" unicode="&#59003;" d="M214.302 259.388V507.25l135.198-123.93-135.198-123.93zM212.302 668.004h594.868v-87.316H212.302zM433.38 501.042h371.79v-78H433.38v78zM433.38 343.4h371.79v-78H433.38v78zM212.302 185.754h594.868v-87.316H212.302z"  horiz-adv-x="1024" />

    
    <glyph glyph-name="exit-fullscreen" unicode="&#59004;" d="M450.736 438a12.02 12.02 0 0 1 8.476 3.568 11.95 11.95 0 0 1 3.516 8.51l-0.12 249.886c0 1.544-0.926 3.054-2.47 3.708a4.026 4.026 0 0 1-4.374-0.892l-84.456-84.074-113.236 112.76a12.004 12.004 0 0 1-8.508 3.5c-3.294 0-6.314-1.338-8.476-3.5L164.2 654.908a11.916 11.916 0 0 1-3.534-8.544c0-3.328 1.34-6.348 3.534-8.544l113.156-112.694-82.072-81.74c-1.13-1.096-1.51-2.812-0.858-4.39a3.98 3.98 0 0 1 3.706-2.472L450.736 438z m-0.086-106.756a11.924 11.924 0 0 0 8.528-3.5 12.044 12.044 0 0 0 3.55-8.544l-0.12-251.98a3.98 3.98 0 0 0-2.47-3.706c-1.542-0.652-3.26-0.24-4.374 0.86l-84.456 84.104-113.234-112.794a12.006 12.006 0 0 0-8.51-3.5 11.986 11.986 0 0 0-8.474 3.5l-76.892 76.558a12.036 12.036 0 0 0-3.532 8.544c0 3.328 1.338 6.384 3.532 8.546l113.158 112.69-82.14 81.81a4.064 4.064 0 0 0-0.894 4.392 4.1 4.1 0 0 0 3.706 2.506l252.624 0.514zM573.38 438a11.992 11.992 0 0 0-8.474 3.57 11.892 11.892 0 0 0-3.534 8.51l0.138 249.886c0 1.542 0.926 3.054 2.47 3.706a3.994 3.994 0 0 0 4.358-0.892l84.472-84.074 113.226 112.76a12.066 12.066 0 0 0 8.51 3.5c3.328 0 6.312-1.338 8.508-3.5l76.858-76.558a11.916 11.916 0 0 0 3.532-8.544c0-3.328-1.338-6.348-3.532-8.51l-113.192-112.726 82.106-81.74c1.132-1.098 1.51-2.814 0.858-4.392a3.98 3.98 0 0 0-3.706-2.472L573.382 438z m0.07-106.756a11.854 11.854 0 0 1-8.51-3.5 12.06 12.06 0 0 1-3.568-8.544l0.14-251.98c0-1.578 0.926-3.088 2.468-3.706 1.544-0.652 3.26-0.24 4.36 0.86l84.47 84.104 113.228-112.794a12.066 12.066 0 0 1 8.508-3.5c3.328 0 6.312 1.34 8.51 3.5l76.856 76.558a12.036 12.036 0 0 1 3.534 8.544c0 3.328-1.34 6.384-3.534 8.546L746.72 242.02l82.176 81.81a4.066 4.066 0 0 1 0.892 4.394 4.1 4.1 0 0 1-3.706 2.504l-252.632 0.514z"  horiz-adv-x="1024" />

    
    <glyph glyph-name="forward" unicode="&#59005;" d="M549.652 164.13c-0.856-7.308 1.156-14.864 6.82-20.442 0.064-0.08 0.146-0.094 0.214-0.16 4.52-4.664 10.808-7.62 17.836-7.62 7.738 0 14.376 3.736 18.938 9.246l246.792 269.44c5.25 5.186 7.486 12.068 7.132 18.872 0.354 6.786-1.882 13.666-7.132 18.856L592.102 723.24c-9.84 9.718-25.792 9.718-35.63 0-5.664-5.606-7.676-13.146-6.82-20.46v-145.88c-206.044 0-373.072-166.326-373.072-371.466 0-52.622 11.132-102.606 30.95-147.966 29.434 154.726 177.738 272.248 341.692 272.248 0-8.44 0.43-145.588 0.43-145.588z m49.744 194.646v-133.02l190.236 207.696-190.236 207.694v-133.772s-62.094 0.646-75.02 0.242c-175.436-5.432-297.28-204.336-298.052-297.41 53.592 68.52 194.44 149 298.054 149 16.26 0 75.018-0.43 75.018-0.43z"  horiz-adv-x="1024" />

    
    <glyph glyph-name="fresh" unicode="&#59006;" d="M738.812 610.294c-56.64 60.686-137.55 97.094-226.554 97.094-178.006 0-323.65-145.64-323.65-323.648 0-178.01 145.64-323.65 323.65-323.65 149.688 0 275.1 105.184 311.51 242.734h-84.958c-32.364-93.05-121.368-161.824-226.554-161.824-133.504 0-242.734 109.232-242.734 242.736s109.232 242.738 242.736 242.738c68.776 0 125.414-28.32 169.916-72.822l-129.46-129.46h283.194V707.386l-97.094-97.094-0.002 0.002z"  horiz-adv-x="1024" />

    
    <glyph glyph-name="face" unicode="&#59007;" d="M563.21 296.926c-3.742 3.742-5.612 7.486-6.552 12.166a39.306 39.306 0 0 1 11.228-23.392c14.968-14.97 40.234-14.97 56.14 0 14.968 14.968 14.968 40.234 0 56.14-14.97 14.968-40.236 14.968-56.14 0-6.552-6.552-10.294-14.034-11.228-22.46 0.936 4.676 2.81 8.42 6.552 11.226a23.72 23.72 0 0 0 33.684 0 23.72 23.72 0 0 0 0-33.684 23.72 23.72 0 0 0-33.684 0v0.004z m-101.988 32.748c3.744-3.742 5.614-7.488 6.552-12.166a39.306 39.306 0 0 1-11.226 23.392c-14.97 14.97-40.236 14.97-56.14 0-14.97-14.968-14.97-40.234 0-56.14 14.968-14.968 40.234-14.968 56.14 0 6.55 6.552 10.292 14.034 11.226 22.46-0.936-4.676-2.808-8.42-6.552-11.226a23.72 23.72 0 0 0-33.684 0 23.72 23.72 0 0 0 0 33.684c10.292 9.356 25.262 9.356 33.684 0v-0.004z m56.138-168.424c0.934 0.936 2.808 1.874 3.742 3.744l15.906 28.07c4.676 8.42-0.936 18.712-11.226 18.712h-31.812c-9.356 0-15.908-10.292-11.228-18.712l15.906-28.07c0.936-1.874 1.874-2.81 3.744-3.744v-37.43l-36.492-20.588 7.488-13.098 36.49 20.588 36.492-20.588 7.486 13.098-36.49 20.588v37.43h-0.006z m177.778 116.964c3.742 11.226 6.55 22.46 6.55 34.618 0 50.524-36.49 91.7-84.212 100.12l-6.55 11.224c-2.81 4.676-6.552 10.294-10.294 14.034 58.012 17.778 106.668 56.14 136.61 108.538 32.748 56.14 40.234 120.7 23.392 183.392l-3.742 14.034-14.034-3.742c-62.692-15.906-115.09-55.202-147.836-111.346-29.008-49.594-38.364-106.668-28.07-161.872-16.842 9.356-36.492 14.97-57.078 14.97-18.712 0-35.554-4.676-51.462-12.166 9.356 55.202 0 110.41-28.072 159.066-32.748 56.14-84.212 95.44-147.834 111.348l-14.034 3.74-3.744-14.032c-17.776-62.692-9.354-127.252 22.46-183.394 29.942-51.462 76.724-88.884 132.868-107.602-3.744-4.676-7.488-10.292-11.228-15.906l-7.486-12.166c-44.91-10.294-79.534-51.464-79.534-99.18 0-10.294 1.874-20.59 4.676-29.944l-48.656-85.146c-20.588-36.49-20.588-79.534 0-116.024 20.588-36.49 58.946-58.012 100.12-58.012h261.05c42.102 0 79.534 21.52 100.12 58.012 20.584 36.494 20.586 79.534 0 116.024l-43.978 81.408-0.002 0.004z m-167.488 36.488c0 39.3 32.75 71.114 72.044 71.114h4.676l6.552-0.936c19.648-2.808 36.49-13.098 47.72-28.07 0-0.936 0.934-0.936 0.934-1.874l0.936-0.936c7.486-11.226 12.166-25.262 12.166-39.3 0-39.302-32.748-72.044-72.044-72.044-39.3 0-72.044 31.812-72.044 71.114-0.936-0.936-0.936 0-0.936 0.934 0-0.934 0-0.934 0 0h-0.004z m92.634 301.29c25.264 44.91 65.5 77.658 114.152 93.568 10.294-49.594 1.874-101.052-23.392-145.966-25.262-44.91-65.498-76.724-114.152-93.568-10.292 49.594-1.874 101.052 23.392 145.966z m-171.232-182.456v0.936c15.908 14.97 37.432 23.392 60.82 23.392 31.812 0 59.88-15.906 76.722-43.042-31.812-3.744-58.012-22.46-73.92-47.72-16.84 27.136-44.908 45.852-78.596 48.656 3.742 6.552 8.42 12.166 14.968 17.776l0.006 0.002z m47.722-120.708c0-39.3-32.748-71.112-72.042-71.112-39.296 0-72.044 32.748-72.044 72.042a71.644 71.644 0 0 0 49.594 68.306c2.808 0.934 4.674 0.934 7.486 1.874l5.612 0.934c2.81 0 6.552 0.936 9.356 0.936 39.3 0 71.114-31.812 72.044-71.114v-1.874c0 0.936 0 0 0 0l-0.006 0.008zM313.38 563.596c-25.262 44.91-33.684 95.438-23.392 145.964 48.656-15.906 88.886-48.656 114.152-93.568 25.266-44.912 33.684-95.438 23.392-145.964-48.656 15.906-87.954 48.656-114.152 93.568z m405.15-467.84c-15.906-28.07-45.852-44.91-78.6-44.91H378.88c-32.748 0-61.752 16.84-78.598 44.91-15.906 28.07-15.906 61.752 0 89.826l40.236 69.24c18.712-26.2 49.594-43.976 84.212-43.976 36.49 0 69.24 19.65 87.016 48.656 17.778-29.008 50.526-48.656 87.018-48.656 32.748 0 62.692 15.906 81.406 40.236l38.362-66.432c16.842-27.136 16.842-60.82 0-88.886l-0.002-0.008z"  horiz-adv-x="1024" />

    
    <glyph glyph-name="fullscreen" unicode="&#59008;" d="M195.12 710.27a11.224 11.224 0 0 1-7.912-3.332 11.152 11.152 0 0 1-3.284-7.946l0.11-233.304c0-1.44 0.866-2.852 2.308-3.46a3.76 3.76 0 0 1 4.084 0.834l78.866 78.494 105.74-105.28a11.21 11.21 0 0 1 7.946-3.266 11.19 11.19 0 0 1 7.914 3.268l71.8 71.478a11.124 11.124 0 0 1 3.3 7.976 11.234 11.234 0 0 1-3.3 7.98l-105.666 105.212 76.64 76.316c1.056 1.026 1.41 2.628 0.8 4.1a3.716 3.716 0 0 1-3.46 2.308l-235.884-1.378z m0.08-654.768a11.132 11.132 0 0 0-7.96 3.268 11.244 11.244 0 0 0-3.316 7.976l0.11 235.26c0 1.472 0.866 2.884 2.308 3.46a3.75 3.75 0 0 0 4.084-0.8l78.866-78.528 105.74 105.31a11.21 11.21 0 0 0 7.946 3.268c3.076 0 5.896-1.25 7.914-3.268l71.8-71.478a11.236 11.236 0 0 0 3.3-7.978 11.18 11.18 0 0 0-3.3-7.976L357.026 138.8l76.702-76.38c1.06-1.056 1.412-2.66 0.834-4.1a3.83 3.83 0 0 0-3.46-2.34l-235.9-0.48zM828.97 710.27a11.194 11.194 0 0 0 7.914-3.332 11.102 11.102 0 0 0 3.3-7.946l-0.128-233.304a3.78 3.78 0 0 0-2.308-3.46 3.728 3.728 0 0 0-4.07 0.834l-78.88 78.494-105.732-105.28a11.266 11.266 0 0 0-7.946-3.266 11.266 11.266 0 0 0-7.946 3.268l-71.77 71.478a11.124 11.124 0 0 0-3.3 7.976c0 3.108 1.25 5.928 3.3 7.946l105.7 105.246-76.672 76.316c-1.058 1.026-1.41 2.628-0.8 4.1a3.714 3.714 0 0 0 3.46 2.308l235.876-1.378h0.002z m-0.064-654.768a11.07 11.07 0 0 1 7.946 3.268 11.26 11.26 0 0 1 3.332 7.976l-0.128 235.26c0 1.472-0.864 2.884-2.308 3.46a3.718 3.718 0 0 1-4.068-0.8L754.8 226.14l-105.732 105.308a11.266 11.266 0 0 1-7.946 3.268 11.266 11.266 0 0 1-7.946-3.268l-71.77-71.476a11.236 11.236 0 0 1-3.3-7.98 11.18 11.18 0 0 1 3.3-7.976l105.7-105.214-76.738-76.38a3.794 3.794 0 0 1-0.832-4.1c0.608-1.442 1.986-2.308 3.46-2.34l235.908-0.48h0.002z"  horiz-adv-x="1024" />

    
    <glyph glyph-name="guild" unicode="&#59009;" d="M839.438 314.474L187.52 697.314l87.664-508.652 255.054 57.256-193.084 274.226 262.988-259.16 239.298 53.49h-0.002z m-301.268-107.73l-11.712-136.912-71.414 118.83 83.128 18.08z"  horiz-adv-x="1024" />

    
    <glyph glyph-name="github" unicode="&#59010;" d="M127.436 373.984c0-167.92 107.606-310.692 257.606-363.1 20.18-5.122 17.094 9.336 17.094 19.126v66.64c-116.642-13.704-121.31 63.554-129.218 76.432-15.888 27.032-53.238 33.884-42.092 46.76 26.58 13.706 53.614-3.462 85.014-49.772 22.74-33.586 66.868-27.938 89.382-22.29 4.896 20.18 15.438 38.178 29.82 52.26-120.708 21.46-171.16 95.256-171.16 182.98 0 42.47 14.006 81.628 41.566 113.18-17.47 52.108 1.658 96.534 4.218 103.16 49.924 4.52 101.732-35.692 105.798-38.854 28.388 7.606 60.768 11.748 96.988 11.748 36.446 0 68.976-4.218 97.514-11.9 9.714 7.38 57.832 41.868 104.218 37.652 2.484-6.626 21.16-50.076 4.744-101.43 27.86-31.628 42.018-71.01 42.018-113.706 0-87.876-50.678-161.746-171.838-183.056 20.256-19.956 32.756-47.666 32.756-78.314v-96.686c0.68-7.68 0-15.438 12.952-15.438 152.184 51.28 261.748 195.106 261.748 364.534 0 212.424-172.214 384.562-384.564 384.562-212.424 0.076-384.564-172.062-384.564-384.488z"  horiz-adv-x="1024" />

    
    <glyph glyph-name="hd" unicode="&#59011;" d="M391.752 433.72h-119.838l21.904 115.93H184.15l-62.584-331.3h109.664l25.316 134.012h119.83l-25.31-134.014h110.146l62.58 331.302h-110.148l-21.892-115.93z m509.744 15.592c-1.95 20.188-7.834 37.888-17.66 53.106-9.822 15.224-23.66 26.892-41.494 35.03-17.846 8.14-42.484 12.204-73.916 12.204h-159.44L547.74 218.35h159.446c19.11 0 40.988 3.006 65.632 9.032 18.026 4.368 35.758 13.144 53.2 26.328 17.444 13.184 32.19 29.528 44.246 49.04 12.056 19.516 21.36 46.962 27.904 82.38 4.176 22.592 5.288 43.988 3.328 64.18z m-111.5-66.214c-4.9-26.526-11.134-45.694-18.684-57.518-7.56-11.83-16.514-20.108-26.868-24.866-10.358-4.748-26.744-7.114-49.172-7.114h-26.3l33.46 181.028h26.776c27.796 0 46.492-6.48 56.106-19.44 9.604-12.952 11.168-36.99 4.682-72.09z"  horiz-adv-x="1024" />

    
    <glyph glyph-name="info-info" unicode="&#59012;" d="M512 740c196.614 0 356-159.386 356-356s-159.386-356-356-356S156 187.386 156 384 315.386 740 512 740z m-54-568h108V432h-108v-260z m0 316h108v108h-108v-108z"  horiz-adv-x="1024" />

    
    <glyph glyph-name="info-error" unicode="&#59013;" d="M512 460.368l-110.308 110.308-76.368-76.368L435.632 384l-110.308-110.308 76.368-76.368L512 307.632l110.308-110.308 76.368 76.368L588.368 384l110.308 110.308-76.368 76.368L512 460.368zM512 740c196.614 0 356-159.386 356-356s-159.386-356-356-356S156 187.386 156 384 315.386 740 512 740z"  horiz-adv-x="1024" />

    
    <glyph glyph-name="hot" unicode="&#59014;" d="M606.094 442.252c-8.514 5.37-18.228 8.094-28.868 8.094-15.36 0-28.212-5.128-39.28-15.678-10.858-10.344-16.36-28.25-16.36-53.226 0-19.846 5.324-35.606 15.824-46.84 10.566-11.31 23.472-16.808 39.456-16.808 16.288 0 29.306 5.55 39.792 16.96 10.44 11.36 15.732 27.912 15.732 49.2 0 13.55-2.3 25.492-6.83 35.496-4.432 9.774-10.982 17.446-19.466 22.8v0.002z m265.936 65.394a49.408 49.408 0 0 1-35.048 14.518H286.456c-7.162 0-14.44-1.38-21.454-4.336a55.106 55.106 0 0 1-18.086-12.328l-103.81-106.4a19.944 19.944 0 0 1-5.686-13.888 19.932 19.932 0 0 1 5.574-13.934l103.82-108.14a55.27 55.27 0 0 1 18.252-12.6 55.262 55.262 0 0 1 21.728-4.438h549.076c12.968 0 25.94 4.948 35.834 14.842a50.52 50.52 0 0 1 14.842 35.834v175.826c0 12.684-4.84 25.368-14.518 35.048v-0.004z m-405.88-215.6h-32.084V374.6h-82.134v-82.558h-32.082V476.1h32.082v-71.924h82.134v71.924h32.082v-184.054z m187.796 42.088c-7.546-14.76-18.408-26.102-32.286-33.716-13.74-7.54-28.77-11.36-44.672-11.36-17.244 0-32.902 4.24-46.536 12.604-13.656 8.376-24.148 19.974-31.186 34.466-6.954 14.328-10.482 29.692-10.482 45.672 0 30.116 8.29 54.12 24.64 71.344 16.412 17.292 37.838 26.06 63.68 26.06 16.906 0 32.382-4.112 46.004-12.218 13.674-8.134 24.24-19.632 31.408-34.174 7.08-14.372 10.674-30.852 10.674-48.98 0-18.394-3.784-35.114-11.244-49.696v-0.002z m166.796 112.388H762.8v-154.478h-32.082v154.478h-57.704v29.576h147.73v-29.576z"  horiz-adv-x="1024" />

    
    <glyph glyph-name="info-success" unicode="&#59015;" d="M512 740c-196.614 0-356-159.386-356-356s159.386-356 356-356 356 159.386 356 356S708.614 740 512 740z m-53.68-558.24l-170.098 173.232 72.096 72.096 95.606-95.606 205.486 205.486 76.05-76.056L458.32 181.76z"  horiz-adv-x="1024" />

    
    <glyph glyph-name="info-warning" unicode="&#59016;" d="M512 740c196.614 0 356-159.386 356-356s-159.386-356-356-356S156 187.386 156 384 315.386 740 512 740z m-54-404h108V596h-108v-260z m0-164h108v108h-108v-108z"  horiz-adv-x="1024" />

    
    <glyph glyph-name="loadmore" unicode="&#59017;" d="M176.772 656.298c7.026 7.044 19.226 6.238 27.266-1.836l307.966-309.69L819.97 654.46c8.03 8.074 20.22 8.88 27.252 1.836 7.02-7.08 6.216-19.35-1.824-27.424l-317.372-319.16c-4.58-4.6-10.524-6.766-16.09-6.504-5.528-0.212-11.418 1.94-15.964 6.532L178.592 628.874c-8.008 8.074-8.846 20.38-1.82 27.424z m0-196.28c7.026 7.044 19.226 6.238 27.266-1.836l307.966-309.692 307.966 309.692c8.03 8.072 20.22 8.88 27.252 1.834 7.02-7.08 6.216-19.348-1.824-27.422L528.026 113.432c-4.58-4.6-10.524-6.766-16.09-6.504-5.528-0.212-11.418 1.94-15.964 6.534L178.592 432.594c-8.008 8.072-8.846 20.378-1.82 27.422z"  horiz-adv-x="1024" />

    
    <glyph glyph-name="logout" unicode="&#59018;" d="M620.48 428.5h-175.726v-89h179.326V206l168.11 133.5 11.196 8.9L848.22 384l-44.836 35.6-4.154 3.106-7.04 5.796L624.08 562v-133.5h-3.6zM220.614 28H175.78V740h358.63v-89H265.432v-534h268.976V28H220.614z"  horiz-adv-x="1024" />

    
    <glyph glyph-name="mode-2" unicode="&#59019;" d="M157.812 383.576c0 91.47 74.15 165.62 165.662 165.62h377.162c91.492 0 165.662-74.13 165.662-165.62 0-91.47-74.148-165.62-165.66-165.62h-377.166c-91.492 0-165.66 74.13-165.66 165.62zM323.432 254.76c71.144 0 128.816 57.674 128.816 128.816 0 71.14-57.674 128.814-128.816 128.814-71.144 0-128.816-57.672-128.816-128.814 0-71.144 57.674-128.816 128.816-128.816z"  horiz-adv-x="1024" />

    
    <glyph glyph-name="message" unicode="&#59020;" d="M605.76 126.334c-0.094-51.8-41.65-93.76-93.706-93.76-51.692 0-93.61 41.788-93.704 93.76h187.408z m-31.236 546.554c0 34.43-27.968 62.468-62.47 62.468-34.43 0-62.468-27.968-62.468-62.468 0-3.516 0.29-6.964 0.85-10.322-86.26-30.066-157.024-122.398-157.024-231.64v-86.004s0-123.86-30.43-124.94c-18.142 0-32.04-13.982-32.04-31.234a31.156 31.156 0 0 1 31.23-31.234H761.94c17.332 0 31.23 13.984 31.23 31.234a31.156 31.156 0 0 1-31.23 31.236c-31.24 0-31.24 124.07-31.24 124.07v86.86c0 109.382-66.168 201.754-157.01 231.73a62.72 62.72 0 0 1 0.838 10.242z"  horiz-adv-x="1024" />

    
    <glyph glyph-name="mode-1" unicode="&#59021;" d="M136.34 366.786c0 91.47 74.148 165.62 165.66 165.62h377.164c91.492 0 165.66-74.13 165.66-165.62 0-91.468-74.148-165.62-165.66-165.62H302c-91.492 0-165.66 74.132-165.66 165.62z m542.864-128.814c71.144 0 128.814 57.674 128.814 128.814 0 71.142-57.672 128.816-128.814 128.816-71.144 0-128.816-57.674-128.816-128.816s57.674-128.814 128.816-128.814z"  horiz-adv-x="1024" />

    
    <glyph glyph-name="more" unicode="&#59022;" d="M242.236 513.62H782.1v-53.988H242.236v53.986z m0-134.97H782.1v-53.986H242.236v53.986z m0-134.966H782.1v-53.986H242.236v53.986z"  horiz-adv-x="1024" />

    
    <glyph glyph-name="monitor" unicode="&#59023;" d="M775.064 400.746V581.34c0 36.22-29.372 65.604-65.604 65.604H314.268c-36.222 0-65.604-29.372-65.604-65.604v-180.596h89.36a16 16 0 0 0 14.854-10.06l34.012-85.064 71.64 271.21c4.25 16.088 27.18 15.806 31.034-0.38l76.6-321.72 66.58 210.832c4.482 14.196 24.224 15.112 30.002 1.39l27.878-66.208h84.44z m0-32H680a16 16 0 0 0-14.746 9.79l-15.106 35.878-70.89-224.486c-4.89-15.48-27.062-14.68-30.822 1.112l-75.24 316.008-67.726-256.388c-3.938-14.906-24.604-16.168-30.326-1.854l-47.956 119.94h-78.524v-182.596c0-36.222 29.372-65.604 65.604-65.604H709.46c36.22 0 65.604 29.372 65.604 65.604v182.596zM182.864 630.74c0 45.29 36.728 82.006 82.006 82.006h493.988c45.29 0 82.006-36.728 82.006-82.006v-493.988c0-45.292-36.728-82.006-82.006-82.006H264.87c-45.29 0-82.006 36.728-82.006 82.006V630.74z"  horiz-adv-x="1024" />

    
    <glyph glyph-name="move" unicode="&#59024;" d="M809.866 463.506l-27.804-27.81 31.782-31.774H611.238v-39.73h202.606l-31.782-31.78 27.804-27.806 79.45 79.45-79.45 79.45zM591.372 86.114l-27.804 27.804-31.78-31.78V284.74h-39.73v-202.606l-31.774 31.782-27.81-27.804 79.448-79.45 79.45 79.45zM213.982 304.608l27.81 27.804-31.782 31.78h202.596v39.73H210.01l31.78 31.776-27.808 27.81-79.45-79.45 79.45-79.45zM432.472 682l27.81-27.81 31.776 31.78v-202.596h39.728V685.972l31.78-31.782L591.374 682l-79.45 79.45L432.474 682z"  horiz-adv-x="1024" />

    
    <glyph glyph-name="next" unicode="&#59025;" d="M265.452 105.728l349.052 246.4-349.052 246.396v-492.798 0.002zM676.14 598.524v-492.796h82.146V598.524H676.14z"  horiz-adv-x="1024" />

    
    <glyph glyph-name="logo" unicode="&#59026;" d="M572.596 336.092c-10.84 10.84-29.14 10.84-40.658 0-4.744-4.744-7.454-10.164-8.13-16.264 0.678 3.386 2.034 6.096 4.744 8.13a17.178 17.178 0 0 0 24.394 0 17.178 17.178 0 0 0 0-24.394 17.178 17.178 0 0 0-24.394 0c-2.71 2.71-4.064 5.42-4.744 8.81a28.466 28.466 0 0 1 8.13-16.94c10.84-10.84 29.14-10.84 40.658 0 11.52 10.84 11.52 29.138 0 40.656zM455.37 303.568a17.178 17.178 0 0 0-24.394 0 17.178 17.178 0 0 0 0 24.392 17.178 17.178 0 0 0 24.394 0c2.71-2.71 4.066-5.42 4.744-8.81a28.466 28.466 0 0 1-8.13 16.94c-10.84 10.84-29.138 10.84-40.656 0-10.84-10.84-10.84-29.138 0-40.656 10.84-10.84 29.138-10.84 40.656 0 4.744 4.744 7.454 10.164 8.13 16.264-0.676-3.386-2.032-6.096-4.744-8.13zM496.024 205.312c0.678 0.676 2.034 1.356 2.71 2.71l11.52 20.328c3.386 6.1-0.676 13.552-8.13 13.552h-23.04c-6.774 0-11.52-7.454-8.13-13.552l11.52-20.328c0.676-1.356 1.356-2.034 2.71-2.71v-27.108l-26.426-14.908 5.42-9.486 26.428 14.91 26.426-14.91 5.42 9.486-26.424 14.908v27.108h-0.004zM839.574 323.894c-20.328 12.196-33.88 33.88-33.88 59.63 0 25.072 13.552 47.434 33.88 59.632 16.94 10.162 25.072 30.49 19.652 49.464-17.618 58.954-48.11 111.808-89.446 155.174-13.552 14.91-35.916 18.296-53.532 8.13-20.33-11.52-46.756-12.196-68.44 0.678-21.684 12.874-34.558 35.236-34.558 58.954 0 20.328-14.23 37.27-33.88 42.012-28.46 6.776-58.274 10.164-88.766 10.164-30.492 0-60.306-3.388-88.768-10.164-19.65-4.744-33.88-21.684-33.88-42.012 0-23.716-12.874-46.756-34.558-58.954-21.684-12.874-48.11-12.196-68.44-0.678-17.616 9.486-39.3 6.1-53.53-8.13-40.658-43.366-71.828-96.22-89.446-155.174-5.422-18.974 2.71-39.3 19.65-49.464 20.328-12.198 33.88-33.88 33.88-59.632 0-25.07-13.552-47.432-33.88-59.63-16.94-10.162-25.07-30.49-19.65-49.466 17.616-58.954 48.11-111.806 89.446-155.172 13.55-14.91 35.916-18.296 53.532-8.13 20.328 11.52 46.756 12.196 68.44-0.678 21.682-12.874 34.558-35.236 34.558-58.954 0-20.328 14.228-37.27 33.88-42.012 28.46-6.776 58.272-10.164 88.766-10.164 30.49 0 60.306 3.388 88.766 10.164 19.652 4.744 33.88 21.684 33.88 42.012 0 23.716 12.874 46.756 34.56 58.954 21.682 12.874 48.11 12.196 68.438 0.678 17.616-9.486 39.302-6.1 53.532 8.13 40.656 43.366 71.828 96.22 89.446 155.172 5.42 18.976-2.71 39.304-19.652 49.466zM626.126 589.522c10.84-6.776 21.008-14.91 30.492-23.04-0.678-24.392-7.456-48.11-20.33-69.794-18.294-32.522-47.432-55.564-82.668-67.76-7.454 35.914-1.356 73.18 16.94 105.706 13.552 23.038 32.524 42.012 55.564 54.886l0.002 0.002zM481.12 315.086c0-28.46-23.716-51.5-52.174-51.5-28.46 0-52.176 23.716-52.176 52.174a51.884 51.884 0 0 0 35.916 49.466c2.034 0.678 3.388 0.678 5.422 1.356l4.066 0.678c2.032 0 4.744 0.676 6.774 0.676 28.462 0 51.5-23.04 52.176-51.5v-1.356c0 0.678 0 0 0 0l-0.004 0.006z m-45.402 73.86c3.386 4.746 6.776 9.486 10.84 12.876h0.678v0.676c11.52 10.84 27.106 16.94 44.044 16.94 23.04 0 43.366-11.518 55.562-31.17-23.038-2.71-42.012-16.264-53.532-34.56-12.874 19.652-33.88 33.88-57.598 35.238h0.006z m67.76-72.504c0 28.46 23.718 51.5 52.176 51.5h3.386l4.744-0.678c14.23-2.034 26.426-9.486 34.56-20.328 0-0.678 0.676-0.678 0.676-1.356l0.678-0.678c5.42-8.13 8.81-18.294 8.81-28.46 0-28.46-23.716-52.176-52.174-52.176-28.46 0-52.174 23.04-52.174 51.5-0.678-0.676-0.678 0-0.678 0.678 0-0.678 0-0.678 0 0l-0.004-0.002z m-107.064 294.764c69.796 29.14 145.69 23.04 208.03-9.484-21.684-14.23-39.302-33.88-52.854-56.92-21.008-35.916-27.782-77.248-20.33-117.228-12.196 6.776-26.426 10.84-41.334 10.84-13.552 0-25.75-3.386-37.27-8.81 6.776 39.98 0 79.96-20.328 115.196-13.552 23.716-31.848 43.368-54.21 57.6 6.098 3.386 12.196 6.096 18.296 8.81v-0.004z m-39.298-21.01c23.718-12.874 43.368-32.522 56.92-56.24 18.296-32.522 24.394-69.114 16.94-105.706-35.236 11.52-64.368 35.236-82.666 67.762-12.874 22.36-19.652 47.432-20.328 72.506 9.484 8.13 18.974 15.584 29.138 21.684l-0.004-0.006zM213.46 509.56a30.362 30.362 0 0 0-30.49 30.49c0 16.94 13.552 30.492 30.49 30.492 16.94 0 30.49-13.552 30.49-30.492S230.4 509.56 213.46 509.56z m100.966-298.148c-21.006 21.684-38.622 48.11-51.5 77.926a247.18 247.18 0 0 0 44.72 259.524c2.712-21.684 10.164-43.368 21.686-63.018 21.684-37.268 55.562-64.37 96.22-77.926-2.71-3.386-5.42-7.454-8.13-11.52l-5.42-8.81c-32.526-7.454-57.6-37.268-57.6-71.826 0-7.456 1.356-14.91 3.386-21.684l-35.236-61.662c-3.386-6.776-6.1-13.552-8.13-21.008l0.004 0.004z m176.18-181.602a30.362 30.362 0 0 0-30.492 30.49c0 16.94 13.552 30.492 30.492 30.492s30.49-13.552 30.49-30.492c0.678-16.264-13.552-30.49-30.49-30.49z m94.866 126.04c-88.768-36.592-186.344-17.618-254.104 39.978 0.676 9.484 3.386 18.294 8.81 27.106l29.14 50.144c13.55-18.974 35.914-31.846 60.984-31.846 26.426 0 50.144 14.228 63.018 35.236 12.874-21.008 36.59-35.236 63.018-35.236 23.716 0 45.4 11.52 58.954 29.138l27.78-48.112c4.746-8.81 7.456-18.294 8.812-27.78-20.328-14.91-42.688-28.462-66.408-38.624l-0.004-0.004z m81.314 54.884c-2.034 7.454-4.746 14.91-8.812 21.684l-33.206 57.6c2.712 8.13 4.746 16.264 4.746 25.07 0 36.59-26.426 66.406-60.986 72.506l-4.744 8.13c-2.034 3.386-4.746 7.454-7.456 10.162 42.014 12.874 77.25 40.658 98.934 78.602 10.84 18.976 18.294 39.304 21.006 60.308 16.94-19.652 31.846-42.69 42.012-67.762 39.302-93.51 15.584-197.866-51.5-266.306l0.006 0.006z m101.644 298.826a30.362 30.362 0 0 0-30.492 30.49c0 16.94 13.552 30.492 30.492 30.492s30.49-13.552 30.49-30.492-13.552-30.49-30.49-30.49z"  horiz-adv-x="1024" />

    
    <glyph glyph-name="new" unicode="&#59027;" d="M480.64 415.36H168v-62.72h312.64V40h62.72V352.64H856v62.72H543.36V728h-62.72v-312.64z"  horiz-adv-x="1024" />

    
    <glyph glyph-name="pause" unicode="&#59028;" d="M310.94 620.686h134.346v-537.396H310.94V620.686z m268.696 0h134.348v-537.396h-134.348V620.686z"  horiz-adv-x="1024" />

    
    <glyph glyph-name="password" unicode="&#59029;" d="M734.168 419.408v94.4c0 124.938-99.95 227.666-222.114 227.666-122.16 0-222.112-102.728-222.112-227.668v-94.398c-13.882-5.552-27.766-16.66-27.766-41.646v-127.714c0-141.6 111.06-258.208 249.88-258.208s249.876 116.61 249.876 258.208V377.76c0 22.212-13.88 36.094-27.764 41.646z m-174.914-274.864c0-5.554-2.778-8.33-5.554-8.33h-83.292c-5.552 0-8.33 2.776-5.552 8.33l13.88 72.186c-11.104 8.33-16.658 22.212-16.658 38.87a49.768 49.768 0 0 0 49.976 49.976 49.768 49.768 0 0 0 49.976-49.976c0-13.882-5.554-27.764-16.66-36.094l13.882-74.964z m97.174 277.64H367.68v91.624c0 83.292 66.634 149.926 144.374 149.926 80.516 0 144.374-66.634 144.374-149.926v-91.624z"  horiz-adv-x="1024" />

    
    <glyph glyph-name="play" unicode="&#59030;" d="M282.534 657.126c0 11.048 7.288 14.794 16.254 8.382l427.046-305.36c8.976-6.418 8.92-16.76-0.136-23.106L298.924 37.994c-9.052-6.342-16.39-2.534-16.39 8.52V657.128z"  horiz-adv-x="1024" />

    
    <glyph glyph-name="praise" unicode="&#59031;" d="M799.848 452.748S846 456.592 846 408.518c0 0 0-69.228-68.266-301.91 0 0-21.152-68.266-47.114-68.266H454.67c-19.23 0-68.266 12.98-68.266 49.036V452.748s136.534 100.956 136.534 229.796c3.844 6.732-6.732 47.114 44.228 47.114 0 0 120.186-13.46 49.036-276.91h183.646z m-488.8-0.12s27.942 0.36 27.942-27.946v-370.836s0.18-15.504-19.65-15.504h-95.188s-23.436 0-23.436 23.436L178 430.272s0.36 22.354 23.076 22.354h109.972z"  horiz-adv-x="1024" />

    
    <glyph glyph-name="QQ" unicode="&#59032;" d="M727.739 475.785c0 204.546-138.021 251.34-215.739 251.34s-215.782-46.794-215.782-251.34v-41.002s-74.244-152.347-74.244-238.601c0-22.819 5.833-35.169 9.651-35.169 3.904 0 30.924 16.599 59.963 71.113 0 0-6.178-75.403 65.321-136.136 0 0-60.69-16.984-60.69-40.532 0-23.546 139.909-14.796 215.782 0 76.819-14.582 215.739-23.588 215.739 0 0 23.591-60.69 40.532-60.69 40.532 71.544 60.733 65.366 136.136 65.366 136.136 28.993-54.516 56.057-71.113 59.917-71.113 3.817 0 9.694 12.352 9.694 35.169 0 86.254-74.287 238.601-74.287 238.601v41.002z"  horiz-adv-x="1024" />

    
    <glyph glyph-name="qzone" unicode="&#59033;" d="M861.92 462.374l-242.02 35.16L511.64 716.86 403.4 497.536l-242.01-35.16 175.124-170.724-41.354-241.042 216.48 113.818 216.5-113.82-41.344 241.034 175.126 170.732z m-243.864-32.788l-187.578-172.128h187.578v-25.036H370.86v25.036l187.544 172.128h-175.98v23.388h235.628v-23.388z"  horiz-adv-x="1024" />

    
    <glyph glyph-name="project" unicode="&#59034;" d="M882.288 164.866c0-28.3-23.666-51.216-52.858-51.216H195.556c-29.192 0-52.858 22.92-52.858 51.216V318.66c0 9.54 3.4 17.948 8.088 25.588-4.686 7.69-8.088 16.148-8.088 25.682l105.618 307.6c0.05 28.35 23.714 51.266 52.856 51.266h422.598c29.19 0 52.856-22.916 52.856-51.264l105.664-307.6c0-9.536-3.352-17.994-8.086-25.684 4.738-7.64 8.086-16.048 8.086-25.586v-153.796h-0.002z m-158.52 410.078c0 28.406-23.62 51.32-52.756 51.32h-317.04c-29.188 0-52.804-22.916-52.804-51.32L248.36 369.932h158.514v-100.944c0-28.304 23.67-51.268 52.808-51.268h105.566c29.186 0 52.858 22.964 52.858 51.268v100.942h158.514l-52.856 205.014h0.002z m-371.418-152.158h318.664v49.68H352.35v-49.68z m0 102.48h318.664v49.678H352.35v-49.68z"  horiz-adv-x="1024" />

    
    <glyph glyph-name="save" unicode="&#59035;" d="M347.868 342.766H676.4v-41.05H347.868v41.05z m0-82.1h246.364v-41.05H347.868v41.05zM758.498 712.344H265.706c-45.36 0-82.1-36.74-82.1-82.1v-492.728c0-45.426 36.738-82.164 82.1-82.164h492.728c45.36 0 82.1 36.738 82.1 82.1V630.242c0.064 45.36-36.676 82.1-82.036 82.1z m-492.794-82.1h123.214v-123.214h-123.214v123.214zM758.5 137.452H265.706V424.93h492.728v-287.48h0.064z"  horiz-adv-x="1024" />

    
    <glyph glyph-name="rank" unicode="&#59036;" d="M508.532 556.084c30.766-1.67 53.624 24.438 57.96 52.866 0.544 1.888 0.794 4.006 0.668 6.362 0.12 2.23-0.094 4.25-0.578 6.06-4.16 30.268-26.96 51.48-58.05 53.174-33.052 1.798-56.99-28.47-58.63-59.234-1.78-33.386 28.18-57.57 58.63-59.228z m21.982 59.23c-1.528-28.656-42.438-28.656-43.966 0-1.528 28.68 42.444 28.52 43.966 0z m-242.56-141.036c0.116 2.228-0.094 4.246-0.58 6.056-4.16 30.272-26.96 51.484-58.052 53.172-33.052 1.8-56.988-28.468-58.628-59.228-1.78-33.394 28.18-57.572 58.628-59.228 30.766-1.68 53.624 24.436 57.964 52.864 0.542 1.89 0.792 4.008 0.666 6.364z m-80.614 0c-1.53 28.68 42.446 28.52 43.966 0-1.528-28.66-42.438-28.66-43.966 0z m646.008 0c0.12 2.228-0.092 4.246-0.576 6.056-4.16 30.272-26.962 51.484-58.054 53.172-33.05 1.8-56.986-28.468-58.628-59.228-1.78-33.394 28.18-57.572 58.628-59.228 30.766-1.68 53.624 24.436 57.964 52.864 0.544 1.89 0.792 4.008 0.666 6.364z m-80.61 0c-1.53 28.68 42.444 28.52 43.964 0-1.526-28.66-42.436-28.66-43.964 0z m-44.13-61.884c-80.68 6.112-154.956 38.06-203.26 105.694-6.148 8.604-20.864 13.946-28.78 3.742-52.506-67.68-121.914-101.926-206.124-109.63-14.59-1.332-21.822-14.514-15.82-27.85l83.68-186.012c4.042-8.982 11.82-11.02 18.862-8.794 0.6 0.07 1.21 0.164 1.83 0.292 88.18 18.132 172.882 18.132 261.06 0 7.462-1.536 17.184 0.7 20.692 8.502l83.68 186.2c5.924 13.178-1.156 26.74-15.82 27.856z m-94.328-183.848c-83.984 15.44-165.53 15.44-249.516 0l-67.446 149.918c75.446 11.628 140.552 42.98 191.846 101.1 49.908-58.76 116.854-90.53 192.42-101.266l-67.304-149.752z m16.812-98.728c-95.584 25.56-188.746 26.328-284.298 0-22.77-6.274-13.094-41.994 9.744-35.7 89.384 24.63 175.412 23.906 264.812 0 22.872-6.118 32.566 29.596 9.742 35.7z"  horiz-adv-x="1024" />

    
    <glyph glyph-name="screen-max" unicode="&#59037;" d="M785.636 618.748H239.252c-24.72 0-44.946-20.226-44.946-44.948v-380.64c0-24.72 20.226-44.948 44.946-44.948h546.384c24.72 0 44.946 20.226 44.946 44.948V573.8c0 24.72-20.226 44.948-44.946 44.948z m-30.9-384.434a9.412 9.412 0 0 0-9.412-9.41h-465.76a9.412 9.412 0 0 0-9.41 9.41V532.648a9.412 9.412 0 0 0 9.412 9.41h465.76a9.412 9.412 0 0 0 9.41-9.41v-298.334z"  horiz-adv-x="1024" />

    
    <glyph glyph-name="screen-min" unicode="&#59038;" d="M224.404 462.594h575.664v-82.238H224.404v82.238z"  horiz-adv-x="1024" />

    
    <glyph glyph-name="search" unicode="&#59039;" d="M839.41 116.64L634.634 321.416c29.662 41.652 47.294 92.494 47.294 147.526 0 140.804-114.13 254.892-254.892 254.892-140.764 0-254.894-114.086-254.894-254.892 0-140.762 114.13-254.892 254.894-254.892 55.03 0 105.872 17.632 147.524 47.294L779.34 56.568c16.594-16.594 43.478-16.594 60.072 0s16.594 43.478 0 60.072zM572.94 383.13a169.986 169.986 0 0 0-60.09-60.094c-25.266-14.894-54.37-24.02-85.816-24.02-93.842 0-169.928 76.086-169.928 169.926 0 93.844 76.086 169.928 169.928 169.928 93.84 0 169.928-76.086 169.928-169.928 0-31.448-9.128-60.55-24.02-85.814z"  horiz-adv-x="1024" />

    
    <glyph glyph-name="share" unicode="&#59040;" d="M738.482 260.594c-29.052 0-55.282-12.064-73.998-31.42l-277.316 138.65a103.68 103.68 0 0 1 1.296 16.286c0 5.54-0.452 10.994-1.296 16.286l277.316 138.65c18.716-19.354 44.948-31.42 74-31.42 56.846 0 102.944 46.1 102.944 102.946 0 56.848-46.1 102.946-102.946 102.946s-102.946-46.1-102.946-102.946c0-5.54 0.452-10.994 1.296-16.286l-277.316-138.65c-18.716 19.354-44.948 31.42-74 31.42-56.846 0-102.944-46.1-102.944-102.946 0-56.848 46.1-102.946 102.946-102.946 29.052 0 55.282 12.064 73.998 31.42l277.316-138.65a103.672 103.672 0 0 1-1.296-16.286c0-56.848 46.1-102.946 102.946-102.946 56.848 0 102.946 46.1 102.946 102.946 0 56.848-46.1 102.946-102.946 102.946z"  horiz-adv-x="1024" />

    
    <glyph glyph-name="star-" unicode="&#59041;" d="M512 206l-209.252-110.01 39.964 233.004-169.288 165.016 233.95 33.996L512 740l104.626-211.994 233.95-33.996-169.288-165.016 39.964-233.004z"  horiz-adv-x="1024" />

    
    <glyph glyph-name="star-1" unicode="&#59042;" d="M512 237.634l172.064-90.46-32.86 191.596 139.2 135.69-192.372 27.952L512 676.732l-86.032-174.32-192.374-27.952 139.204-135.69-32.86-191.596L512 237.634zM512 206l-209.252-110.01 39.964 233.004-169.288 165.016 233.95 33.996L512 740l104.626-211.994 233.95-33.996-169.288-165.016 39.964-233.004L512 206z"  horiz-adv-x="1024" />

    
    <glyph glyph-name="stop" unicode="&#59043;" d="M763.906 626.792H263.128c-12.032 0-21.772-9.752-21.772-21.774v-506.392c0-12.02 9.74-21.772 21.772-21.772h500.78c12.032 0 21.772 9.754 21.772 21.772V605.02c0 12.02-9.74 21.774-21.774 21.774z"  horiz-adv-x="1024" />

    
    <glyph glyph-name="switch" unicode="&#59044;" d="M819.134 298.67H171.064l298.95-217.722-34.568 133.994h383.776l-0.088 83.728z m-614.264 170.662h648.066l-307.33 217.72 34.564-133.992H204.78l0.088-83.728z"  horiz-adv-x="1024" />

    
    <glyph glyph-name="task-" unicode="&#59045;" d="M512.446 32.68c-176.132 0-319.272 143.138-319.272 319.27 0 176.134 143.14 319.272 319.272 319.272s319.27-143.14 319.27-319.272S688.58 32.68 512.446 32.68z m0 614.28c-162.548 0-295.012-132.462-295.012-295.01 0-162.546 132.464-295.01 295.012-295.01 162.546 0 295.01 132.464 295.01 295.01 0 162.548-132.464 295.012-295.01 295.012z"  horiz-adv-x="1024" />

    
    <glyph glyph-name="task-1" unicode="&#59046;" d="M490.58 32.68c-176.132 0-319.27 143.138-319.27 319.27 0 176.132 143.14 319.272 319.27 319.272 176.132 0 319.272-143.14 319.272-319.272S666.712 32.68 490.58 32.68z m0 614.28c-162.546 0-295.01-132.462-295.01-295.01 0-162.546 132.464-295.01 295.01-295.01 162.548 0 295.012 132.464 295.012 295.01 0 162.548-132.464 295.012-295.012 295.012zM183.44 335.456s71.328 69.384 221.744 47.066c150.416-22.32 164.002-143.14 391.568-111.116 11.646 12.616-62.592-215.436-306.654-221.258-243.58-5.822-313.934 223.684-306.656 285.306z"  horiz-adv-x="1024" />

    
    <glyph glyph-name="task-2" unicode="&#59047;" d="M192.784 351.95c0-176.328 142.942-319.272 319.27-319.272 176.33 0 319.272 142.944 319.272 319.272 0 176.33-142.942 319.272-319.272 319.272-176.328 0-319.27-142.942-319.27-319.272z"  horiz-adv-x="1024" />

    
    <glyph glyph-name="terminal" unicode="&#59048;" d="M553.46 126.966h310.898v77.5h-310.9zM491.984 326.818L174.92 122.958v131.718l221.566 128.46L174.92 509.732V640.52l317.064-202z"  horiz-adv-x="1024" />

    
    <glyph glyph-name="time" unicode="&#59049;" d="M512 740c-196.614 0-356-159.386-356-356s159.386-356 356-356 356 159.386 356 356S708.614 740 512 740z m0-652c-163.2 0-296 133.326-296 296.338C216 547.35 348.8 680 512 680s296-132.65 296-295.662C808 221.326 675.2 88 512 88z m22.276 305.052V606.5c0 12.308-9.968 22.276-22.276 22.276s-22.276-9.968-22.276-22.276V384c0-6.408 2.798-12.104 7.172-16.172 0.304-0.356 0.458-0.814 0.762-1.12l110.156-110.156c8.698-8.696 22.784-8.696 31.43 0 8.748 8.646 8.748 22.734 0 31.48l-104.968 105.02z"  horiz-adv-x="1024" />

    
    <glyph glyph-name="upload" unicode="&#59050;" d="M556.522 466.28h-342.12v-168.716h342.12v-145.284L809.6 384.268 556.522 616.256v-149.972z"  horiz-adv-x="1024" />

    
    <glyph glyph-name="tool" unicode="&#59051;" d="M762.38 96.41c10.84-10.84 26.012-10.84 36.85 0 10.84 10.84 10.84 26.014 0 36.852-10.84 10.84-26.012 10.84-36.85 0-8.672-10.84-8.672-28.18 0-36.852z m73.702 73.704c30.348-30.35 30.348-80.206 0-110.556-30.348-30.348-80.206-30.348-110.554 0l-268.8 268.8c-75.87-32.516-166.916-17.34-229.78 45.522-54.194 54.194-73.704 132.232-54.194 201.6 8.67 34.684 147.406-184.26 238.452-91.046 93.212 93.212-125.728 229.78-91.046 238.452 69.368 19.508 147.406 0 201.6-54.194 62.864-62.864 75.87-153.91 45.52-229.78l268.8-268.8h0.002z"  horiz-adv-x="1024" />

    
    <glyph glyph-name="upload1" unicode="&#59052;" d="M300 504c-54.764-35.65-48-89.726-48-89.726s-112.454-24.064-112.454-154.788c2.712-130.512 132.106-131.85 132.106-131.85l194.232-0.212v139.732h-93.136l139.73 139.72 139.712-139.72h-93.154v-139.732l188.596 0.212s120.414-0.106 137.336 124.06c8.046 135.81-116.398 162.578-116.398 162.578S768.57 584 578 602c-150 8-174-98-174-98s-42.79 37.34-104 0z"  horiz-adv-x="1024" />

    
    <glyph glyph-name="weibo" unicode="&#59053;" d="M702.993 390.194c-30.893 5.991-15.878 22.619-15.878 22.619s30.23 49.825-5.983 86.046c-44.874 44.863-153.927-5.707-153.927-5.707-41.643-12.925-30.611 5.899-24.719 37.934 0 37.738-12.927 101.613-123.876 63.886-110.843-37.934-206.011-170.835-206.011-170.835-66.178-88.309-57.417-156.57-57.417-156.57 16.53-150.678 176.64-192.041 301.172-201.83 131.015-10.276 307.837 45.161 361.46 159.047 53.612 114.078-43.821 159.228-74.82 165.41zM426.049 108.23c-130.062-6.080-235.206 59.137-235.206 145.932 0 86.885 105.145 156.565 235.206 162.561 130.15 5.991 235.498-47.628 235.498-134.339 0-86.783-105.347-168.245-235.498-174.153zM400.103 359.49c-130.817-15.31-115.7-137.84-115.7-137.84s-1.338-38.796 35.073-58.557c76.545-41.46 155.355-16.359 195.184 35.059 39.836 51.435 16.452 176.542-114.556 161.337zM367.107 187.515c-24.426-2.855-44.102 11.218-44.102 31.658 0 20.341 17.483 41.645 41.92 44.198 28.058 2.667 46.309-13.494 46.309-33.933 0-20.343-19.797-39.155-44.125-41.922zM444.217 253.211c-8.272-6.185-18.454-5.329-22.819 2.086-4.56 7.232-2.851 18.823 5.516 24.915 9.696 7.214 19.775 5.14 24.139-2.102 4.385-7.405 1.251-18.528-6.836-24.901zM766.692 443.246c10.543 0 19.502 7.796 21.010 17.966 0.191 0.763 0.285 1.422 0.285 2.283 15.974 143.637-117.703 118.918-117.703 118.918-11.867 0-21.383-9.598-21.383-21.574 0-0.007 0-0.016 0-0.025 0-11.798 9.564-21.363 21.363-21.363 0.006 0 0.015 0 0.021 0 96.018 21.193 74.833-74.82 74.833-74.82-0.004-11.878 9.676-21.383 21.574-21.383zM751.109 698.563c-46.214 10.827-93.748-0.803-107.065-3.357-1.036-0.096-1.996-2.219-2.945-2.412-0.466-0.091-0.751-1.142-0.751-1.142-13.125-3.714-22.729-16.157-22.729-30.515 0-17.113 13.876-31.334 31.178-31.334 0 0 16.832 2.185 28.24 6.65 11.31 4.554 107.042 3.355 154.592-76.493 25.941-58.275 11.407-97.296 9.589-103.561 0 0-6.166-15.155-6.166-30.058 0-17.207 13.881-23.425 31.068-23.425 14.372 0 26.444 6.367 29.969 30.857h0.191c51.043 171.427-62.464 245.493-145.171 264.79z"  horiz-adv-x="1024" />

    
    <glyph glyph-name="weixin" unicode="&#59054;" d="M653.504 512.612c9.174 0 18.252-0.66 27.254-1.688-24.488 114.056-146.398 198.752-285.554 198.752-155.572 0-283.008-106.03-283.008-240.686 0-77.724 42.396-141.554 113.248-191.07l-28.308-85.136 98.936 49.614c35.4-6.998 63.806-14.19 99.132-14.19 8.88 0 17.688 0.44 26.422 1.124-5.528 18.912-8.734 38.728-8.734 59.304 0 123.644 106.178 223.976 240.612 223.976z m-152.17 76.746c21.308 0 35.424-14.042 35.424-35.328 0-21.212-14.116-35.424-35.424-35.424-21.212 0-42.496 14.214-42.496 35.424 0 21.286 21.284 35.328 42.496 35.328z m-198.068-70.752c-21.212 0-42.62 14.214-42.62 35.424 0 21.284 21.408 35.328 42.62 35.328 21.21 0 35.326-14.042 35.326-35.328 0-21.21-14.114-35.424-35.326-35.424zM911.804 292.012c0 113.176-113.222 205.406-240.392 205.406-134.654 0-240.71-92.232-240.71-205.406 0-113.32 106.056-205.36 240.71-205.36 28.184 0 56.612 7.096 84.918 14.192l77.626-42.52-21.284 70.752c56.808 42.618 99.132 99.132 99.132 162.936z m-318.434 35.424c-14.092 0-28.306 14.02-28.306 28.33 0 14.092 14.214 28.282 28.306 28.282 21.406 0 35.424-14.19 35.424-28.28 0-14.312-14.018-28.332-35.424-28.332z m155.67 0c-13.994 0-28.11 14.02-28.11 28.33 0 14.092 14.116 28.282 28.11 28.282 21.212 0 35.426-14.19 35.426-28.28 0-14.312-14.214-28.332-35.426-28.332z"  horiz-adv-x="1024" />

    
    <glyph glyph-name="info-info1" unicode="&#59055;" d="M512 28c-196.614 0-356 159.386-356 356S315.386 740 512 740s356-159.386 356-356-159.386-356-356-356z m0 65.388c160.5 0 290.612 130.112 290.612 290.612 0 160.5-130.112 290.612-290.612 290.612-160.5 0-290.612-130.112-290.612-290.612 0-160.5 130.112-290.612 290.612-290.612zM458 488v108h108v-108h-108z m0-316V432h108v-260h-108z"  horiz-adv-x="1024" />

    
    <glyph glyph-name="setting" unicode="&#59056;" d="M776.13 454.878a271.85 271.85 0 0 1-27.268 65.754l51.804 78.17-73.88 73.824-78.132-51.774a271.512 271.512 0 0 1-65.794 27.25L564.232 740h-104.448l-18.65-91.898a271.47 271.47 0 0 1-65.782-27.25l-78.164 51.78-73.842-73.83 51.786-78.17a271.624 271.624 0 0 1-27.256-65.8L156 436.216V331.8l91.876-18.646a271.532 271.532 0 0 1 27.256-65.8l-51.786-78.168 73.846-73.842 78.166 51.798a270.808 270.808 0 0 1 65.78-27.252L459.786 28h104.448l18.634 91.886a270.98 270.98 0 0 1 65.794 27.252l78.13-51.8 73.88 73.844-51.802 78.17a271.34 271.34 0 0 1 27.268 65.8L868 331.794v104.42l-91.87 18.66zM662 383.978c0-82.816-67.128-149.992-149.99-149.992-82.848 0-150.01 67.176-150.01 149.99 0 82.86 67.162 150.038 150.01 150.038 82.854 0 149.99-67.176 149.99-150.038z"  horiz-adv-x="1024" />

    
    <glyph glyph-name="email" unicode="&#59057;" d="M512.04 458.47L172 591.954c0 41.85 34.658 75.772 77.98 75.772h524.04c43.076 0 77.98-35.23 77.98-75.772l-339.96-133.484zM172 510.784v-339.794c0-43.732 34.904-78.716 77.98-78.716h524.04c43.322 0 77.98 35.23 77.98 78.716V510.784l-339.96-140.348L172 510.784z"  horiz-adv-x="1024" />

    
    <glyph glyph-name="level" unicode="&#59058;" d="M695 97.566h-366l-127.306 318.82C170.53 419.232 146 446.22 146 479.478c0 35.158 27.308 63.652 61 63.652s61-28.494 61-63.652a65.152 65.152 0 0 0-10.964-36.276c21.54-35.502 59.186-59.206 102.46-59.206 56.786 0 104.08 40.672 117.69 95.482h4.31v72.48c-18.16 11.024-30.496 31.32-30.496 54.824 0 35.16 27.308 63.652 61 63.652 33.694 0 61-28.494 61-63.652 0-23.502-12.344-43.8-30.502-54.822v-72.48h4.316c13.608-54.81 60.91-95.484 117.682-95.484 43.274 0 80.926 23.704 102.466 59.206A65.096 65.096 0 0 0 756 479.478c0 35.16 27.308 63.652 61 63.652S878 514.636 878 479.48c0-33.256-24.53-60.238-55.694-63.092L695 97.566z"  horiz-adv-x="1024" />

    
    <glyph glyph-name="location" unicode="&#59059;" d="M649.22 237.276c-56.354-56.454-118.394-118.596-118.394-118.596-5.684-5.686-15.026-5.686-20.714 0 0 0-62.04 62.14-118.392 118.596-97.072-15.738-163.884-48.636-163.884-86.712 0-53.308 130.984-96.564 292.634-96.564 161.648 0 292.634 43.256 292.634 96.564 0 38.076-66.812 70.976-163.884 86.712zM512.752 206.206c4.164-4.164 11.17-4.164 15.334 0 0 0 154.236 154.44 154.642 155.048 32.086 37.368 51.38 85.904 51.38 139.008C734.206 618.35 638.456 714 520.468 714c-118.09 0-213.74-95.648-213.74-213.74 0-53.104 19.396-101.64 51.38-139.004 0.406-0.61 154.642-155.048 154.642-155.048v-0.002z m7.718 391.634c50.77 0 91.892-41.124 91.892-91.892 0-50.77-41.122-91.892-91.892-91.892-50.77 0-91.892 41.122-91.892 91.892 0 50.768 41.122 91.892 91.892 91.892z"  horiz-adv-x="1024" />

    
    <glyph glyph-name="marriage" unicode="&#59060;" d="M416.464 318.748c-19.33 31.356-39.076 94.876-21.694 141.634 17.384 46.726 43.04 91.608 126.826 104.02 83.786 12.408 120.636-39.53 120.636-39.53s10.846 14.112 46.76 31.356a162.46 162.46 0 0 1-23.048 30.04c-29.516 30.246-68.768 46.932-110.556 46.932-41.72 0-75.198-15.366-104.68-45.61-0.034-0.036-0.034-0.074-0.068-0.074h-0.036l-16.756-21.658-16.758 20.34-0.068 0.068c-29.552 30.248-62.996 46.9-104.714 46.9-41.756 0-81.006-16.654-110.556-46.9C172.272 555.986 156 515.762 156 473c0-42.796 16.236-83.02 45.718-113.228l207.446-214.436c6.536-6.712 15.436-10.536 24.684-10.536 9.244 0 18.144 3.826 24.68 10.536l61.5 63.584s-52.25 45.964-103.564 109.828zM830.8 501.578c-23.988 24.614-55.832 38.174-89.764 38.174-33.932 0-61.118-12.516-85.106-37.06l-0.072-0.07-13.626-17.592-13.628 16.516-0.036 0.032h-0.036c-23.986 24.614-51.14 38.174-85.036 38.174-33.93 0-65.81-13.56-89.8-38.174-24.02-24.544-37.232-57.224-37.232-91.99 0-34.764 13.212-67.444 37.2-92.022l168.542-174.21c5.352-5.494 12.514-8.554 20.026-8.554 7.578 0 14.74 3.092 20.026 8.554l168.612 174.208c23.918 24.58 37.13 57.26 37.13 92.024s-13.212 67.446-37.2 91.99z"  horiz-adv-x="1024" />

    
    <glyph glyph-name="birthday" unicode="&#59061;" d="M511.84 545.82a64.712 64.712 0 0 1 55.5 98.06L511.84 740l-55.506-96.12a64.712 64.712 0 0 1 55.504-98.06z m148.71-323.152l-34.792 34.79-34.952-34.79c-42.236-42.236-116.024-42.236-158.26 0l-34.79 34.79-34.952-34.79a109.712 109.712 0 0 0-78.806-32.85c-23.464 0-45.308 7.444-63.432 19.904v-149.36c0-17.8 14.564-32.362 32.364-32.362h517.818c17.8 0 32.362 14.564 32.362 32.364V209.72a111.348 111.348 0 0 0-63.432-19.904 111.008 111.008 0 0 0-79.128 32.85z m45.47 226.06H544.2v64.726h-64.726v-64.726h-161.818c-53.56 0-97.09-43.53-97.09-97.092v-49.84c0-34.952 28.48-63.432 63.432-63.432 16.992 0 32.85 6.634 44.824 18.608l69.258 69.098 69.096-68.936c23.95-23.948 65.7-23.948 89.648 0l69.258 68.936 69.096-68.936c11.974-11.974 27.832-18.608 44.824-18.608 34.952 0 63.432 28.48 63.432 63.432v49.68c-0.324 53.56-43.852 97.09-97.414 97.09z"  horiz-adv-x="1024" />

    
    <glyph glyph-name="order" unicode="&#59062;" d="M759.654 28H264.348c-17.096 0-30.958 13.86-30.958 30.956V616.172c0 17.098 13.862 30.96 30.96 30.96h61.912v-30.96c0-17.096 13.86-30.956 30.956-30.956h309.566c17.096 0 30.954 13.86 30.954 30.956v30.96h61.914c17.096 0 30.958-13.862 30.958-30.96v-557.216c0-17.096-13.86-30.956-30.956-30.956zM488.784 492.346h-139.306c-12.822 0-23.216-10.394-23.216-23.218 0-12.822 10.394-23.216 23.216-23.216h139.306c12.822 0 23.218 10.394 23.218 23.216 0 12.824-10.396 23.218-23.218 23.218z m185.74-108.348H349.478c-12.822 0-23.216-10.394-23.216-23.216 0-12.824 10.394-23.22 23.216-23.22h325.046c12.82 0 23.214 10.396 23.214 23.22 0 12.822-10.392 23.216-23.214 23.216z m0-108.348H349.478c-12.822 0-23.216-10.392-23.216-23.216 0-12.824 10.394-23.22 23.216-23.22h325.046c12.82 0 23.214 10.396 23.214 23.22 0 12.822-10.392 23.216-23.214 23.216z m-23.22 340.522H372.7a15.48 15.48 0 0 0-15.48 15.48v30.956a15.48 15.48 0 0 0 15.48 15.478h77.39c0 34.194 27.72 61.914 61.914 61.914 34.192 0 61.912-27.72 61.912-61.914h77.392a15.48 15.48 0 0 0 15.48-15.48v-30.954a15.48 15.48 0 0 0-15.48-15.48z m-139.302 77.394a15.48 15.48 0 1 1 0-30.96 15.48 15.48 0 0 1 0 30.96z"  horiz-adv-x="1024" />

    
    <glyph glyph-name="user" unicode="&#59063;" d="M821.804 52.028H201.852c0 80.104 93.702 147.01 221.412 168.886v32.768c-52.698 30.732-88.562 87.186-88.562 152.592v4.47c-25.688 9.212-44.286 33.124-44.286 61.946 0 28.826 18.6 52.74 44.286 61.948v4.472c0 97.818 79.308 177.124 177.124 177.124 97.82 0 177.13-79.306 177.13-177.124v-4.472c25.684-9.21 44.28-33.12 44.28-61.948 0-28.824-18.598-52.736-44.28-61.946v-4.47c0-65.404-35.868-121.86-88.562-152.548v-32.768c127.752-21.92 221.41-88.828 221.41-168.93z"  horiz-adv-x="1024" />

    
    <glyph glyph-name="edit" unicode="&#58913;" d="M658.73916626 659.13583374L365.26083374 365.65750122l128.39666748-128.39666748 293.47833252 293.47833252-128.39666748 128.39666748M695.42416382 695.8208313l128.39666748-128.39666748L871.25292969 614.85708618c14.32562256 14.32562256 14.32562256 37.546875 0 51.87249756L794.73040771 743.25375367c-14.32562256 14.32562256-37.546875 14.32562256-51.87249755 0l-47.43292237-47.43292237M328.57583618 328.97250367000004L291.8916626 163.89166260000002l165.08084107 36.68417358-128.39666749 128.39666749M768.79333496 384v-293.47833252H218.52166748V640.79333496H512l73.36917114 73.36999512H181.83666992c-18.34167481 0-35.25375367-18.34249878-35.25375366-36.68499756h-1.43041993v-620.06478882c0-22.12042237 20.87292481-40.26104737 43.06750489-40.26104737H801.95666504c22.1937561 0 40.20666504 17.91979981 40.20666504 40.26104737V457.36917114L768.79333496 384"  horiz-adv-x="1024" />

    
    <glyph glyph-name="back" unicode="&#58902;" d="M361.86867133 436.45155111l198.02114078 198.02114149a47.01999963 47.01999963 0 0 1-66.48138908 66.48138906L216.37925167 423.9249103A46.85965893 46.85965893 0 0 1 202.63001012 390.67419434c0-12.02557508 4.6098036-24.0511509 13.76928441-33.23067312l277.02917136-277.02917135a47.01999963 47.01999963 0 0 1 66.48138908 66.48138906l-195.51581291 195.5158129h640.2416334a47.01999963 47.01999963 0 1 1 0 94.03999928H361.86867133z"  horiz-adv-x="1300" />

    


  </font>
</defs>
</svg>
